<?xml version="1.0" standalone="no"?>
<!DOCTYPE svg PUBLIC "-//W3C//DTD SVG 20010904//EN"
 "http://www.w3.org/TR/2001/REC-SVG-20010904/DTD/svg10.dtd">
<svg version="1.0" xmlns="http://www.w3.org/2000/svg"
 width="1168.000000pt" height="1168.000000pt" viewBox="0 0 1168.000000 1168.000000"
 preserveAspectRatio="xMidYMid meet">
<metadata>
Created by potrace 1.11, written by Peter Selinger 2001-2013
</metadata>
<g transform="translate(0.000000,1168.000000) scale(0.100000,-0.100000)"
fill="#000000" stroke="none">
<path d="M5598 11665 c-3 -3 -64 -10 -173 -20 -16 -2 -30 -4 -30 -5 0 -3 -40
-10 -70 -12 -16 -1 -34 -4 -40 -7 -10 -5 -50 -12 -92 -14 -13 -1 -23 -5 -23
-8 0 -3 -6 -6 -12 -6 -19 -1 -58 -9 -108 -24 -25 -7 -49 -13 -55 -15 -35 -8
-185 -58 -212 -70 -17 -8 -36 -14 -42 -14 -6 0 -19 -4 -29 -9 -37 -18 -103
-46 -132 -56 -29 -10 -126 -60 -128 -67 -2 -4 -9 -8 -15 -8 -12 0 -98 -41
-107 -51 -3 -3 -32 -20 -65 -38 -99 -56 -370 -241 -395 -271 -3 -3 -26 -22
-52 -42 -26 -19 -45 -38 -41 -42 3 -3 2 -6 -4 -6 -21 0 -231 -203 -328 -316
-22 -25 -45 -51 -50 -58 -66 -72 -285 -375 -285 -394 0 -6 -4 -12 -8 -14 -11
-4 -67 -101 -64 -110 1 -5 -2 -8 -7 -8 -4 0 -35 -52 -67 -115 -32 -63 -61
-115 -64 -115 -3 0 -31 12 -61 27 -30 15 -63 28 -74 30 -10 2 -22 7 -25 12 -3
4 -27 16 -55 26 -27 10 -58 25 -67 33 -10 8 -18 12 -18 8 0 -4 -12 -1 -27 8
-43 22 -291 136 -298 136 -2 0 -48 20 -101 45 -53 25 -97 45 -99 45 -2 0 -43
18 -92 41 -80 37 -130 60 -143 64 -3 1 -25 11 -50 22 -25 11 -92 42 -150 68
-58 25 -118 53 -135 62 -36 18 -76 26 -74 16 1 -5 0 -10 -1 -13 -1 -3 -3 -12
-5 -20 -2 -8 -19 -69 -39 -135 -19 -66 -44 -156 -56 -200 -12 -44 -24 -89 -27
-100 -3 -11 -6 -30 -7 -42 0 -13 -4 -23 -7 -23 -3 0 -6 -6 -6 -12 0 -7 -6 -33
-12 -58 -6 -25 -14 -55 -16 -67 -10 -49 -15 -70 -31 -138 -22 -98 -21 -93 -54
-266 -17 -87 -33 -176 -36 -199 -7 -49 -12 -75 -14 -75 -1 0 -3 -11 -4 -25 -2
-14 -7 -52 -11 -85 -4 -33 -9 -71 -10 -85 -2 -14 -4 -25 -5 -25 -1 0 -3 -16
-5 -35 -2 -19 -6 -55 -9 -80 -8 -59 -13 -99 -20 -190 -4 -41 -9 -91 -12 -110
-2 -19 -6 -64 -9 -100 -2 -36 -8 -114 -12 -175 -10 -149 -9 -819 1 -980 12
-187 20 -279 30 -375 3 -25 8 -74 11 -110 4 -36 9 -76 11 -90 2 -14 7 -45 10
-70 8 -72 12 -103 18 -142 3 -21 8 -53 11 -70 3 -18 7 -44 9 -58 12 -60 16
-88 22 -130 3 -25 8 -48 10 -51 2 -4 6 -24 10 -44 5 -36 8 -49 21 -105 3 -14
6 -34 8 -45 1 -11 5 -27 8 -35 5 -13 29 -120 42 -188 2 -12 6 -26 9 -31 3 -5
8 -26 12 -47 3 -22 10 -46 15 -55 4 -9 5 -19 2 -23 -3 -3 -2 -6 4 -6 5 0 9
-10 8 -22 -1 -13 2 -30 6 -38 4 -8 15 -42 24 -75 9 -33 24 -82 33 -110 16 -51
17 -54 25 -90 3 -11 12 -40 21 -65 9 -25 18 -52 21 -60 2 -8 9 -28 15 -45 6
-16 13 -37 15 -45 2 -8 18 -53 35 -100 18 -47 34 -94 37 -105 3 -11 9 -24 13
-30 3 -5 15 -32 25 -60 9 -27 24 -66 32 -85 8 -19 19 -45 24 -57 15 -39 45
-108 140 -321 7 -17 18 -32 22 -32 5 0 5 -5 2 -10 -4 -6 -2 -16 3 -23 5 -7 52
-96 104 -198 53 -102 107 -204 122 -227 14 -23 26 -44 26 -47 0 -3 11 -22 24
-43 12 -20 23 -39 22 -42 0 -3 14 -26 32 -52 18 -26 32 -49 32 -53 0 -3 8 -18
18 -33 10 -15 34 -52 54 -82 119 -186 192 -295 200 -298 4 -2 8 -8 8 -12 0
-15 274 -389 300 -410 3 -3 17 -21 30 -40 14 -19 32 -42 40 -51 8 -9 22 -25
30 -35 27 -35 105 -128 120 -144 8 -9 38 -43 65 -75 28 -32 60 -69 73 -82 13
-13 21 -23 20 -23 -13 0 407 -429 558 -570 150 -140 364 -329 409 -363 5 -4
29 -23 52 -43 23 -19 84 -69 135 -110 51 -40 108 -86 127 -101 19 -16 40 -29
47 -31 8 -2 14 -7 14 -11 0 -5 19 -21 42 -36 23 -15 54 -39 68 -52 14 -13 33
-26 43 -29 9 -3 17 -8 17 -12 0 -4 18 -18 40 -32 22 -14 40 -28 40 -32 0 -5 4
-8 9 -8 8 0 139 -88 177 -119 5 -4 30 -21 55 -37 24 -16 46 -32 47 -36 2 -5 7
-8 12 -8 5 0 48 -26 97 -58 130 -86 253 -162 264 -162 5 0 9 -4 9 -8 0 -7 47
-36 107 -66 13 -6 23 -14 23 -18 0 -5 6 -8 14 -8 8 0 21 -6 28 -13 7 -7 24
-18 38 -24 41 -20 109 -60 123 -72 8 -6 17 -8 20 -4 4 3 7 1 7 -5 0 -6 10 -14
23 -18 12 -3 35 -16 50 -27 32 -22 41 -20 127 31 25 14 46 24 46 21 1 -2 10 3
20 12 11 9 39 27 64 39 25 13 47 25 50 29 6 8 40 29 60 38 8 3 81 47 163 97
81 50 156 95 167 101 11 5 20 13 20 17 0 5 7 8 15 8 8 0 15 5 15 10 0 6 7 10
15 10 8 0 15 4 15 9 0 5 8 11 18 15 18 6 53 27 62 37 3 3 46 32 95 65 50 32
92 61 95 64 3 3 59 43 125 89 66 46 128 92 138 102 10 11 22 19 27 19 5 0 15
6 22 13 7 7 49 40 93 72 44 33 82 63 85 66 3 3 66 54 140 114 74 60 140 114
146 119 7 6 36 31 65 56 30 25 70 59 89 77 251 227 275 250 444 419 206 206
286 290 286 303 0 5 9 13 20 16 11 3 20 10 20 14 0 4 8 16 18 27 50 54 167
190 240 279 45 55 93 112 107 127 14 15 25 31 25 37 0 5 4 11 8 13 8 3 193
246 242 318 13 19 27 37 30 40 7 7 164 240 170 254 4 9 36 59 128 201 7 11 15
28 18 38 4 9 10 17 15 17 5 0 9 6 9 14 0 7 7 19 15 26 9 7 13 15 11 18 -3 3 3
17 13 31 53 75 297 541 283 541 -4 0 -2 4 3 8 12 9 59 104 57 115 -1 4 2 7 6
7 5 0 9 6 9 13 0 6 17 47 37 90 20 42 36 79 36 82 0 2 13 33 28 67 16 35 34
82 42 106 7 23 18 42 23 42 6 0 8 3 4 6 -3 4 0 21 8 39 7 19 11 36 7 39 -3 3
0 6 6 6 7 0 12 7 12 15 0 9 7 32 17 53 9 20 17 39 18 42 3 12 37 116 42 130 4
8 7 17 8 20 0 3 20 64 42 135 61 193 86 278 88 295 0 9 3 20 7 25 5 9 19 56
23 80 1 6 3 12 4 15 2 3 5 16 7 30 2 14 17 81 34 150 16 69 33 139 36 155 3
17 10 50 15 75 6 25 12 54 13 65 2 11 6 34 9 50 4 17 9 44 12 60 3 17 7 39 9
50 7 38 20 110 22 130 1 11 5 36 8 55 9 61 15 104 20 150 3 25 8 56 10 70 5
23 11 85 21 190 2 25 7 77 10 115 7 73 8 81 21 290 11 170 11 783 0 955 -13
209 -21 309 -32 395 -4 33 -8 78 -10 100 -1 22 -3 40 -4 40 -1 0 -4 20 -6 45
-1 25 -5 56 -8 70 -2 14 -10 66 -16 115 -6 50 -14 100 -16 113 -2 12 -6 32 -8
45 -3 12 -7 44 -11 71 -3 27 -8 52 -9 55 -2 3 -7 26 -10 51 -3 25 -10 60 -15
78 -5 18 -10 35 -10 37 1 5 -11 77 -16 105 -2 8 -20 89 -40 180 -20 91 -38
172 -40 180 -2 8 -4 15 -6 15 -1 0 -3 9 -4 20 -1 11 -15 65 -30 120 -38 140
-58 214 -74 263 -9 32 -11 36 -16 57 -12 48 -30 101 -35 108 -4 4 -20 2 -36
-4 -16 -7 -32 -12 -36 -11 -5 1 -8 -3 -8 -8 0 -6 -6 -10 -14 -10 -8 0 -31 -9
-53 -20 -21 -10 -60 -29 -88 -41 -94 -40 -160 -70 -186 -84 -14 -8 -28 -12
-31 -9 -3 2 -11 -2 -18 -11 -7 -8 -18 -15 -24 -15 -7 0 -31 -9 -55 -21 -101
-49 -194 -89 -206 -89 -7 0 -18 -7 -25 -15 -7 -8 -16 -12 -21 -9 -5 3 -9 0 -9
-7 0 -7 -3 -9 -7 -6 -3 4 -12 2 -20 -4 -7 -6 -13 -8 -13 -4 0 4 -6 3 -12 -3
-7 -5 -79 -40 -160 -76 -81 -36 -157 -70 -168 -76 -11 -5 -29 -14 -40 -20 -11
-5 -27 -10 -35 -10 -8 0 -15 -4 -15 -10 0 -5 -6 -10 -14 -10 -8 0 -49 -16 -90
-35 -42 -19 -78 -35 -80 -35 -6 0 -50 94 -48 103 1 4 -2 7 -7 7 -5 0 -16 17
-25 38 -10 20 -22 46 -29 57 -7 11 -28 48 -47 83 -19 34 -38 62 -42 62 -5 0
-8 4 -8 9 0 12 -61 105 -72 109 -4 2 -8 10 -8 18 0 8 -4 14 -10 14 -5 0 -10 4
-10 10 0 8 -67 102 -107 150 -151 182 -160 193 -269 303 -59 61 -190 181 -249
229 -145 119 -380 278 -500 338 -17 8 -32 18 -35 21 -5 6 -162 83 -170 84 -3
0 -9 3 -15 7 -24 14 -287 118 -315 123 -3 1 -45 14 -95 29 -49 15 -96 29 -105
31 -8 2 -35 8 -60 15 -25 6 -52 11 -60 11 -8 1 -22 3 -30 7 -8 3 -26 6 -40 8
-14 1 -25 3 -25 4 0 2 -22 6 -75 14 -82 11 -125 17 -155 22 -33 6 -561 14
-567 9z"/>
</g>
</svg>
