<svg xmlns="http://www.w3.org/2000/svg" viewBox="0 0 793.4 544.8"><title>afrika</title><path d="M403.8,666.5a576.1,576.1,0,0,1-96.4-7.9c-62.2-10.4-121-30.3-174.7-63.8a333.8,333.8,0,0,1-58.6-46c-27.3-27.1-48.8-58-60.7-94.9-15.9-49.4-12.3-97.6,9.8-144.5,14.8-31.4,36.2-57.9,62-80.9,39.5-35.2,85.1-59.6,134.8-77.1a513.8,513.8,0,0,1,87.2-22.2,561.6,561.6,0,0,1,69.7-7,575.5,575.5,0,0,1,69.5,1.3c64.3,5.3,126.1,20.4,184.3,48.8,32.9,16.1,63.2,35.9,89.9,61s50,56.2,63.7,92.1a190.8,190.8,0,0,1,12.6,74.7c-1.3,38.1-13.4,72.8-34.1,104.6-21.8,33.5-50.4,60.3-83.3,82.6-41.9,28.5-87.8,47.8-136.6,60.7a525.4,525.4,0,0,1-98.8,16.4c-13.4,1-26.9,1.5-40.3,2.1" transform="translate(-3.6 -121.7)" fill="#040202"/><path d="M225.8,287.5l-28.6-15.7h-.1l.8,1.6c2.8,3.9,6,7.7,8.4,11.9,5.8,10.2,11,20.7,16.7,31,2.1,3.8,4.4,7.8,7.6,10.6,8.9,7.8,19.7,12,31.1,14.6,6.3,1.5,12.3,1.7,15.6.8l-1.5-.7c-14.5-5.5-24.2-15.2-28.5-30.4a39.2,39.2,0,0,0-6-11.9C237.5,293.7,231.5,290.7,225.8,287.5Z" transform="translate(-3.6 -121.7)" fill="none"/><path d="M222.1,261.5c-4.3-1.7-8.2-4.3-12.3-6.4a9.5,9.5,0,0,0-3-.4c.2,1.1.1,2.3.6,3.1a13.4,13.4,0,0,0,3.1,3.2c6.1,5.3,13.6,7.7,21.3,9.2,4.5.9,8-.5,9.7-3.6s.8-7.5-2.5-10.8h0c-2,3.3-4.4,6.1-8.2,6.5A19.5,19.5,0,0,1,222.1,261.5Z" transform="translate(-3.6 -121.7)" fill="none"/><path d="M540.5,335.7c-4.1,2.5-8.5,4.6-12.8,6.9l2.9.2c12.9.2,24.6-4,35.7-10.2,4.7-2.6,9.3-5.5,12.1-10.5,4.3-7.6,8.9-15.1,13-22.9,5.1-9.7,9.3-19.7,16.9-27.9-12.3,7-24.7,13.8-36.9,21a28.3,28.3,0,0,0-12.9,16.4c-.8,2.5-1.7,4.9-2.6,7.4A36.2,36.2,0,0,1,540.5,335.7Z" transform="translate(-3.6 -121.7)" fill="none"/><path d="M182.3,255.8a43.3,43.3,0,0,0,7.5,6.7c10.6,7.8,23,12.4,34.8,17.9.5.2,1.8,0,1.9-.3a3.1,3.1,0,0,0-.3-2.3c-.3-.6-1.2-.8-1.9-1.2-6-3.8-12.1-7.4-17.9-11.4a19.3,19.3,0,0,1-4.9-5.7c-1.9-3-1.3-6.3,1.3-9.3s3.9-2.9,7.8-1.6l13,4c1.9.6,2.8-.5,3-2,.7-5.8,1.2-11.6,1.8-17.6-1.7,0-2.5-.1-3.3,0-6.6.8-12.8-.7-18.9-3.1-2.8-1.1-3.7-3.1-3.2-6.1a14.9,14.9,0,0,0,.4-1.9c-4,0-8-.2-11.9.1a6.6,6.6,0,0,0-4.1,1.7,35.2,35.2,0,0,0-8.7,16.1C177.2,245.8,178.2,251.2,182.3,255.8Z" transform="translate(-3.6 -121.7)" fill="none"/><path d="M163.9,249.9c-.7,9.8,3.8,17.5,9.9,24.5,8.1,9.2,18,16.2,27.5,23.8l10,7.9a4.2,4.2,0,0,0-.4-2.8l-4.5-9.3A76.5,76.5,0,0,0,193,274.1a162.7,162.7,0,0,1-12.6-14.9c-5.1-6.7-7.9-14.2-5.7-22.8a31.8,31.8,0,0,1,7.9-14.2,3.5,3.5,0,0,1-.5-.8c-1.5.8-3.2,1.2-4.4,2.3a53.6,53.6,0,0,0-6.1,7.3C167.5,236.7,164.4,242.7,163.9,249.9Z" transform="translate(-3.6 -121.7)" fill="none"/><path d="M196.5,271.1h.1C196.4,271,196.2,271,196.5,271.1Z" transform="translate(-3.6 -121.7)" fill="none"/><path d="M578.1,250c.2,2,1.1,3.6,3.7,2.8s8.2-2.4,12.2-3.8,6.1-1.1,8.4,1.8,2.9,6.5.5,9.8a23.8,23.8,0,0,1-5.6,5.8c-5.4,3.6-11.1,6.9-16.6,10.2-1.4.8-3.2,1.4-2.4,3.4.1.4,2.5.3,3.5-.2,6.4-2.8,12.8-5.6,19.1-8.8,7.9-3.9,15.5-8.2,21.4-14.9,3.1-3.5,4.8-7.6,4.3-12.3a33.1,33.1,0,0,0-9.6-20.4,4.6,4.6,0,0,0-2.3-1.4H601.6c.6,6.3,0,7.3-6,9.3a38.6,38.6,0,0,1-18.3,1.8h0c0,1.8-.1,3.1,0,4.4C577.5,241.6,577.7,245.8,578.1,250Z" transform="translate(-3.6 -121.7)" fill="none"/><path d="M668.2,263a92.2,92.2,0,0,1-17.4,33.6c-6.6,8.1-13,16.4-17.1,26.2-2.2,5.2-3.8,10.6-2.2,16.3s4.7,6.9,9.3,5.9a47.1,47.1,0,0,0,8.8-3.4,2.9,2.9,0,0,0,1-2.3c0-2.7-.6-5.4-.5-8.1.4-8.2,3.1-15.7,6.3-23.2,4.7-11.3,9.7-22.4,14.2-33.8,2.9-7.4,4.4-15.1,3-23.1-1.9-11.3-7.7-20.3-16.1-27.9a13.5,13.5,0,0,0-2.9-1.6c-.1.2-.1.4-.2.5,2.4,3.2,5.2,6.2,7.3,9.5C667.7,241.2,671.4,251.4,668.2,263Z" transform="translate(-3.6 -121.7)" fill="none"/><path d="M186.9,346.8h-.2l.3.2C187,346.9,187,346.8,186.9,346.8Z" transform="translate(-3.6 -121.7)" fill="none"/><path d="M629.4,251a47.6,47.6,0,0,1-12.2,17.9,90.5,90.5,0,0,0-21.3,30.9c-1,2.2-2.3,4.4-3.5,6.7l.5.3,2.8-2.2L611,292.4c8.4-6.6,16.9-13.2,23.4-21.9s9.1-19.5,4.3-30.5a58.8,58.8,0,0,0-11.1-16c-2.1-2.2-2-2.3-5.2-1.6.6.7,1.2,1.2,1.7,1.9C630.5,232.3,633.2,241.2,629.4,251Z" transform="translate(-3.6 -121.7)" fill="none"/><path d="M661.8,349c-3.1-.3-6.1-2-9.3-3.2-.6,7.8-4.4,14.3-10.9,19.5,11.7,5.1,29.6-6,29.7-17.7C668.2,348.1,664.9,349.3,661.8,349Z" transform="translate(-3.6 -121.7)" fill="none"/><polygon points="588.6 185.6 588.7 185.7 588.7 185.5 588.6 185.6" fill="none"/><path d="M656.9,259.7a85.9,85.9,0,0,1-4.5,12.3c-4.1,9-10.8,16-17.5,23.2s-12.5,13.2-18.3,20.1-9.9,14.1-11.3,22.8c-.6,3.7,1.1,6.1,4.9,6.1a24.3,24.3,0,0,0,7-1.5,51.2,51.2,0,0,0,5-2.2,28.1,28.1,0,0,1-8.4,22.7c5.9,4.7,15.6,4.3,23.8-.5,6.5-3.9,11.2-11.4,10.2-15.4l-3.4,1.1c-10.3,2.9-17.4-2.3-17.4-13a35.1,35.1,0,0,1,1.9-11.2c3.5-10.2,9.9-18.8,15.9-27.5s13.4-18.7,17.8-29.4c1.9-4.7,3.4-9.6,2.8-14.7-1.4-11.2-6.9-20.3-14.8-28.2a7.9,7.9,0,0,0-7.3-2.4c3.2,4.8,6.8,9.5,9.6,14.6C656.8,243.8,659.3,251.4,656.9,259.7Z" transform="translate(-3.6 -121.7)" fill="none"/><path d="M636,274.9c-7.7,9.4-17.4,16.7-26.8,24.2s-18.6,14.2-25.9,23.4S573,339.4,575.1,350c1.8,8.9,7.3,14.8,15.6,16.2s14.7-1.6,20.7-6.6a19.2,19.2,0,0,0,6.9-12.8l-4.3,1c-8.2,1.7-13.8-2.3-14.1-10.6a14.8,14.8,0,0,1,1.6-7.8,87.5,87.5,0,0,1,8.9-13.5c8.7-10.4,17.8-20.4,26.6-30.7,5.6-6.5,10.8-13.4,14.2-21.4,1.8-4.2,3.1-8.6,2.2-13.3-1.9-10.3-7.1-18.7-14.5-26-2-1.9-4-3.3-7.2-2.4l5,6.3C648.6,244.3,648.4,259.7,636,274.9Z" transform="translate(-3.6 -121.7)" fill="none"/><path d="M571.1,270.6c9.7-1.3,18.8-4.1,25.8-11.5,1-1.1,1.1-2.9,1.7-4.3a28.8,28.8,0,0,0-4.2,1.1c-4.4,2-8.6,4.5-13,6.2a10.8,10.8,0,0,1-10.5-1.2c-1.9-1.3-3.5-2.9-5.2-4.3a8.5,8.5,0,0,0-2.3,9.1A7.3,7.3,0,0,0,571.1,270.6Z" transform="translate(-3.6 -121.7)" fill="none"/><path d="M649.2,415.4a3.7,3.7,0,0,0-2.7-.4L607,434.3a5.3,5.3,0,0,0-3.2,5.4c.2,3.8.6,7.6.8,11.4.4,6.2,1,12.4-1.8,18.4s-4.8,10.9-6.9,16.5-4,6.2-9.1,2.8a79.6,79.6,0,0,0-12.4-6.9c-6-2.6-11.5-.3-14.9,5.5,9,1.9,11.1,3.8,10.7,8.1h-3c-5.9.5-11.4,2.2-15.6,6.6a12.6,12.6,0,0,0,2.4,19.6c5.5,3.3,7.1,2.5,7.7-3.8.1-.7.3-1.5.4-2.2.9-8,5.6-10,14.2-9.9h0l-1.4,2.5c-3.2,5.6-6.3,11.3-7.4,17.7-.7,3.9.9,6.6,4.7,7.2a24.8,24.8,0,0,0,8.6.1c6.5-1.1,11.7-6.4,12.8-11.9a14.9,14.9,0,0,1,2.4-5.8,59.7,59.7,0,0,1,8.5-8.9c9.6-7.6,19.4-14.9,29.1-22.3,5.4-4.1,5.5-4,3-10.3l-.4-1c-2.5-6-1.8-8.8,3.3-12.9a17.3,17.3,0,0,1,2.8-1.9c4.3-2.2,8.7-4.3,12.9-6.6.9-.5,2.1-1.5,2.2-2.4.4-6.1.9-12.1.7-18.2A18.3,18.3,0,0,0,649.2,415.4Z" transform="translate(-3.6 -121.7)" fill="none"/><path d="M413.5,554c-4.5.7-9.2,2.1-11.7,5.9s-5.4,10.2-7.6,15.5c-1.2,2.9.5,4.7,4.6,4.8s10.3-2.2,12.6-8.4c1.7-4.6,3.5-9.2,4.8-14C416.9,555.4,415.5,553.7,413.5,554Z" transform="translate(-3.6 -121.7)" fill="none"/><path d="M402.1,542.9c.6-1.9-.4-2.6-2.1-1.8a22,22,0,0,0-3.8,2.4c-8.4,6.3-16.7,12.6-26.3,17a27.2,27.2,0,0,1-7.5,2.3c-3.1.5-4.6-1-4.6-4.2a31.3,31.3,0,0,1,.8-7.5c5-23.3,15.7-43.6,31.2-61.5,1.5-1.9,3.4-3.1,5.2-4.6h0l1.1.7a49.9,49.9,0,0,1-.7,5.4A165.7,165.7,0,0,1,381.2,527c-2.3,4.3-5.2,8.2-7.5,12.5-.6,1.1-.2,2.8-.2,4.2s3.1.6,4.2,0a46.2,46.2,0,0,0,9.1-6c10-8.8,17.3-19.6,22.6-31.7,3-6.9,5.4-13.9,5.2-21.6s-6.3-13.3-14.5-11.6-17.3,7.3-24.6,13.4c-17.5,14.5-29.7,32.9-37.5,54.2-3.2,8.7-4.3,17.8-1.5,26.9s11.3,16.5,23,12.8a111.7,111.7,0,0,0,13.5-5.4c11.7-5.6,21.6-13.3,26.8-25.8C400.6,546.9,401.4,544.9,402.1,542.9Z" transform="translate(-3.6 -121.7)" fill="none"/><path d="M233.5,335h-.2l.3.2C233.6,335.1,233.6,335,233.5,335Z" transform="translate(-3.6 -121.7)" fill="none"/><path d="M323,524.2l-10,.6h0a12.1,12.1,0,0,1,.7-2.4c3.3-7.6,6.7-15.2,9.9-22.9,1-2.5,2.4-3.4,5.1-3.7,9.6-.9,14.3-6,14.9-15.7.2-3.5-1.2-5.3-4.7-5.6l-25.7-1.9a8.1,8.1,0,0,0-6.8,2.7c-2.4,2.6-5.1,5-7.2,7.8a32.7,32.7,0,0,0-4.3,8.3c-1,2.9.3,4.7,3.2,5.4s4.1.7,6.4,1.1l-1,2.2c-7.4,15.8-14.9,31.5-22.2,47.4-3.6,7.8-6.7,15.8-9.8,23.8a7.2,7.2,0,0,0,1.9,8.7c2.1,1.9,5.8,2,8.8-.4s6.4-5.1,8.4-8.4c4.5-7.6,8.4-15.5,12.4-23.5a2.8,2.8,0,0,1,2.9-1.9h9c3.7-.2,7.6-.1,9.9-3.9s3.5-5.3,5-8.1,3.3-5.1,1.3-7.8S325.8,524.1,323,524.2Z" transform="translate(-3.6 -121.7)" fill="none"/><path d="M152.2,259.2a37.9,37.9,0,0,0,5.1,11.2c6.2,8.5,12.7,16.8,19.4,24.9s14,16.1,20.8,24.3c3.6,4.4,7,9.1,7.7,15s-2.6,14.2-11.4,13.5c-2.3-.2-4.6-.7-6.8-1.1.3,1.3.2,2.8.7,4,3.6,8.8,10.6,13.5,19.7,15.1s18.3-3.1,21.5-12.8,1.5-18.1-3.8-26.2c-7.2-11.1-17.6-18.9-27.8-27s-19.9-15.2-28-24.9c-6-7.3-10.2-15.3-9.8-25s4.4-16.1,9.5-22.9c1.3-1.8,2.8-3.5,4.2-5.2l-.6-.8c-1.7.6-3.8.9-5.2,2a45.5,45.5,0,0,0-11.8,15.1C152.4,245,149.9,251.8,152.2,259.2Z" transform="translate(-3.6 -121.7)" fill="none"/><path d="M729.1,340.4c-9.1-6.4-18.2-12.7-25.5-21.3s-13.2-17.2-16.3-27.8c-3.6-12.4-2.5-23.7,7.6-32.9,6.6-5.9,14.2-8.7,22.7-5,11.3,4.8,18.8,14.2,8.7,27.7l-8.8,11.6A20.3,20.3,0,0,0,714,312c3,9.5,11.4,14.4,20.2,11.6,5.6-1.8,10.3-7.7,9.8-12.5l-4.6,1.2c-8.3,1.7-13.7-3.8-11.5-12a69,69,0,0,1,3-7.5c1.9-5,4.4-9.8,5.6-14.9s1.9-9.6,1.1-14c-1.3-7.1-7.1-11.1-13.3-14.1-12.1-5.8-25.7-3.5-33.4,6.4s-11.4,22.4-7.9,35.6,11.3,23.6,20.7,32.8,19,16.9,28.5,25.2,12.9,18.7,7.4,30.8-16.5,19.1-29.8,16.1c-6.1-1.4-11.9-4.5-17.3-7.6-10.4-5.9-20.4-12.4-30.6-18.7a6.7,6.7,0,0,0-6-1,25.4,25.4,0,0,1-17.6-.9,4.5,4.5,0,0,0-2.8,0c-8.8,3.3-17.2,2.8-25.1-2.6-11.7,6.8-22.1,5.8-29,.8-11-8-12-19.5-9.9-30.9-6.8,2.4-13.9,5.3-21.2,7.4a68.5,68.5,0,0,1-29.2,2c-2-.3-3.6-.9-4.4-3.2a15.5,15.5,0,0,0-3.1-4.6,20.8,20.8,0,0,0-12.8-7.3,120.5,120.5,0,0,0,14.9-40c11.8,10.8,20.5,23.5,31,34.6,6.2-7.4,6.6-17.3,11.5-25.3L539,274.5a4.2,4.2,0,0,1-.8-4.8,31.2,31.2,0,0,0,2.3-14.8c-.6-6.2-5.3-10.3-11.2-9.5.1,4.5-.5,8.8-4.2,12.2-2.4-2-4.7-4-7.1-5.8a9.1,9.1,0,0,1-3.5-6c-5.6-24.4-17.8-45-36.8-61.3-26.2-22.4-56.5-31.4-90.6-26.9-27.7,3.7-50.8,16.3-69.5,36.9-13.8,15.2-22.6,33-27,53.1a5.4,5.4,0,0,1-1.5,2.9c-3.2,3-6.5,5.9-9.8,8.8-1.2,1.1-2,.7-2.7-.4s-1.5-5.2-.4-7.8A36.3,36.3,0,0,1,279,246c-7.5-.8-13.7,4.1-13.6,11.4,0,4.3,1.1,8.6,2,12.9.3,1.5.5,2.4-.6,3.7-6.3,8-12.4,16.1-18.6,24.2a2.7,2.7,0,0,0-.5,2.1c1.9,5.2,3.8,10.3,5.9,15.4,1.3,3.2,3.1,6.1,4.8,9.5,8.6-10.1,16.5-19.7,24.7-29a56,56,0,0,1,6.6-5.9,118.3,118.3,0,0,0,14.5,39.5l-.5.5-1.1.4c-6.8,1.5-11.4,5.8-14.3,12a3.9,3.9,0,0,1-3.2,2.5c-9.4,1.7-18.6.7-27.8-1.2a88.8,88.8,0,0,1-23.7-8.8h0c.2,4.5.9,9,.5,13.5-.9,10.4-7.5,18.5-16.7,21-7.2,1.9-14.1.7-20.6-2.6a4,4,0,0,0-3.2-.2c-7.5,4.5-15.2,4.7-23.2,1.9a6.5,6.5,0,0,0-3.9,0c-5.4,2-10.8,2.5-16.2.8-3.1-1-5.2-.2-7.7,1.4-12.7,7.7-25.3,15.6-38.3,22.6-15.3,8.1-28.7,4-37.1-10.5-6.5-11-5.6-21.3,3.3-30.5,4.3-4.4,9.2-8.1,14-12.1,11.6-9.7,22.6-19.9,30.7-32.8,6.2-9.9,10.3-20.4,7.9-32.4-1.9-9.4-5.4-18-13.4-23.8-10.4-7.5-26.3-6-36,3.1-5,4.7-7.5,9.9-6.2,17a88.1,88.1,0,0,0,6.8,20.7,50.1,50.1,0,0,1,3.6,10.5,8,8,0,0,1-8.4,9.7c-2.8-.1-5.6-.7-8.5-1.1a10.5,10.5,0,0,1,.4,1.7,15,15,0,0,0,25.3,6.8A20.5,20.5,0,0,0,90,296.1a45.2,45.2,0,0,0-3.4-5.1c-3.2-4.6-6.9-8.9-9.6-13.7a16.9,16.9,0,0,1-2.2-9.5c1-9.1,13.2-17.2,22.7-15.7s19.1,10,21.7,20,.6,17.1-3,25.1c-7.5,16.9-19.5,29.9-34.9,40-5.3,3.5-10.4,7.3-14.3,12.4-7.9,10.1-10.9,21.2-5.4,33.3,4.6,10,11.9,17.3,23.5,19a58.2,58.2,0,0,1,6.3,1.4c0,5.7-.1,11.2,0,16.7a20.9,20.9,0,0,0,.7,6.6c2.2,6.5,4.9,12.9,7.2,19.4a75.5,75.5,0,0,1,4.1,14.8c.7,4.9-2,7.3-7.1,7.5a54.5,54.5,0,0,1-7,0c-2.9-.3-3.9.9-3.9,3.6.1,8-.1,16.1.2,24.1.3,10.5,1,20.9,1.5,31.4a8.7,8.7,0,0,1-3.7,7.7l-2.3,2c-1.5,1.1-1.5,2.3-.7,3.9a22.6,22.6,0,0,0,11.5,10.9c4.5,1.9,5.9,1.6,7.4-3,2.1-6.6,3.5-13.4,5.1-20,.2-.9.5-1.8.8-3,4.6,6.1,6.6,12.2,5.2,19.3-.5,2.3-.5,4.6-.8,7s1,4.5,3.7,4.5a41.1,41.1,0,0,0,10.5-1c3.9-1.1,5.3-4.4,4.7-8.4-.9-5.8-4.2-10.5-7.1-15.4a3.4,3.4,0,0,1,.1-2.8c.6-1.2,1.6-1.6,3-.7s5.3,2.8,8.1,4.3c3.6-10.5.2-16.8-10.1-19l-3.3-.5-7.4-.6c-.7-5.8.9-11.6,4.9-17.9,6.2-10,14.6-18.2,22.4-26.8,3.3-3.6,5.4-7.5,5.1-12.6-.5-7.4-1.1-14.7-1.1-22.1.1-10.5,4-19.2,14.4-23.2a205.7,205.7,0,0,1,21.9-6.8c5.9-1.6,12.2-1.7,17.1-6.2,7.9-7.4,16-14.6,24.1-21.8a7.2,7.2,0,0,1,4.3-1.8c6.9-.1,13.8.2,20.8.3l36.2.2a9.8,9.8,0,0,1,7.4,3,48.1,48.1,0,0,0,9.8,6.9c3.4,1.9,7.2,2.1,10.6-.6s3.5-6.6,2.9-10.5a21.7,21.7,0,0,0-.7-2.4,31.8,31.8,0,0,0-8.2-11.9c-.6-.6-.6-1.8-.8-2.7a8.3,8.3,0,0,1,2.6-.3,17.8,17.8,0,0,1,5,2.4c4.4,3.5,8.7,7.2,13.1,10.9a16.3,16.3,0,0,0,3-12.2c22.3,19.2,47.6,29.1,76.3,29.1s54.2-9.9,75.5-28.4c1.2,4.1,2.3,8.1,3.6,12.7a40.5,40.5,0,0,1,3.7-4c4.3-3.4,8.6-6.8,13.1-9.9,1-.7,2.8-.3,4.2-.4-.6,1.2-.9,2.7-1.8,3.7-3.9,4.3-7.1,8.9-8.1,14.8-1.3,7.4,4.3,12.5,11.5,10.6a25.5,25.5,0,0,0,12.1-7.7,8.7,8.7,0,0,1,6.8-2.9l58.1-.6a4.5,4.5,0,0,1,2.9,1.2c7.1,6.5,14.2,13,21.2,19.6a32.6,32.6,0,0,0,17,8.4,148.5,148.5,0,0,1,22.9,6.1c10.9,3.8,16.8,11.8,16.8,23.6,0,6.7-.3,13.5-.9,20.1s.3,10.5,4.3,14.8a189.3,189.3,0,0,1,12.8,14.1A191.3,191.3,0,0,1,691,498.9a19.2,19.2,0,0,1,2.7,13.7c-2.9.2-5.7.3-8.5.6-11.7,1.3-16.9,9.5-12.1,19.4,2.3-1.2,4.5-2.6,6.9-3.7s2.1-2.1,3.7-.4.8,2.8,0,4.4a107.1,107.1,0,0,0-6.3,12.7c-1.7,4.5-.1,8.7,3.8,9.8a38.8,38.8,0,0,0,11.3,1.1c2.7-.1,3.7-2.1,3.4-4.8l-1.2-9.5c-.8-5.9,1.6-10.8,4.8-15.4.1-.2.6-.2,1.1-.3.6,3.3,1,6.6,1.9,9.8q1.9,7.2,4.5,14.1c.8,2.2,2.5,3.1,5.2,2A23.7,23.7,0,0,0,725.1,541c1-1.9.9-3.1-1-4.5-3.7-2.5-6.2-5.9-5.9-10.8.5-7.8,1-15.7,1.4-23.5s.6-18.5.8-27.8a48.7,48.7,0,0,0-.8-6.4c-3.7,0-7.1.1-10.4,0-5.1-.2-7.4-2.6-7.1-7.6a20.4,20.4,0,0,1,1.4-6.5c2.9-8,5.9-16,8.9-23.9a26.8,26.8,0,0,0,1.7-12.9c-.5-4.6-.1-9.3-.1-14.1l3.8-.7c8.2-1.6,15.7-4.2,21.1-11.4s8.8-14.7,7.6-23.8C744.9,355.5,738.3,346.9,729.1,340.4Z" transform="translate(-3.6 -121.7)" fill="none"/><path d="M498.1,556.1c-1.9-17.4-1.4-34.9.4-52.3.8-8,1.6-16-.3-24-1.1-4.7-4-7.6-8.3-8a23.2,23.2,0,0,0-12.7,2.5c-1.7.9-2.2,1.8-1.7,3.7s1.3,6.6-1,10.1c-9.5,14.9-18.6,30-28,44.9a4.2,4.2,0,0,1-2.8,1.6c-3.5.4-6.9,1.2-9.2,4.1s-4.1,4.9-5.9,7.5c-3.5,5.1-3.1,6.7,2.4,9.9l-2.4,3.6c-3.5,5-7.1,9.8-10.4,14.9-2.4,3.6-1,5.9,3.3,6,6.5.1,12-2.2,15.9-7.4s6.7-9.9,9.8-15c.9-1.4,1.6-2.2,3.5-2a55.4,55.4,0,0,0,11.5.5c4.3-.3,8.6-1.8,13.2-2.9h0v5a35.1,35.1,0,0,0,.3,5.6c.5,3.5.7,7.1,1.7,10.5s5.3,6.8,9.9,4.6,7.9-4.8,11.8-7.4c.6-.4.8-1.8.7-2.7C499.3,564.9,498.6,560.5,498.1,556.1Z" transform="translate(-3.6 -121.7)" fill="none"/><path d="M322,554.1l-1.4.2c-7.9,2.2-17.1,14.1-17.2,22.4a3.1,3.1,0,0,0,3.3,3.4c4.8-.1,9.5-1.3,12.3-5.1a43,43,0,0,0,6.8-16.6h0C325.9,554.3,325,553.6,322,554.1Z" transform="translate(-3.6 -121.7)" fill="none"/><path d="M147,304c4.8,11.8,9.9,23.5,7,37.3h0c3.3,1.2,6.5,2.6,9.9,3.5s8.1-.9,9.5-5.5.7-10-1.2-14.8a88.2,88.2,0,0,0-13.4-22.2c-8.4-10.7-16.2-21.5-20.5-34.7-3.5-10.7-3.3-20.6,1.9-30.3,2.9-5.4,6.7-10.4,10.2-15.8a14,14,0,0,0-3.2,1.8c-14.6,13.7-20.3,30-13.2,49.4C137.9,283.3,142.6,293.6,147,304Z" transform="translate(-3.6 -121.7)" fill="none"/><path d="M249.7,499.5c-4.7-3-10-3.8-15.7-3.9,1.1-6.6,6.6-6.8,11.2-7.9-3.3-5.8-8.3-8.2-14.5-5.7s-9.5,5.1-14.1,7.9-5.6,1.6-7.3-2.2c-.4-1-.7-2.1-1.1-3.2-1.6-4.2-3-8.5-5.1-12.4s-3.6-8-3.5-12.5c.2-6.1.7-12.1,1.2-18.2.3-3.4-.9-6-4.1-7.6l-39-19a2.9,2.9,0,0,0-2,.3,17.5,17.5,0,0,0-8.5,11c-2,7.3-.5,14.7-.2,22,.1,2.3,1.2,3.1,3,3.9,6.3,2.8,12.7,5.5,17.6,10.7a6.8,6.8,0,0,1,1.7,7.7c-.9,2.5-1.9,4.9-3,7.3s-.4,3,1.1,4l7.4,5.5c11.1,8.1,22.4,15.9,31.9,26,2.4,2.6,4.3,5.3,4.6,9a7.7,7.7,0,0,0,1.8,4c4.6,6.1,10.8,8.3,18.2,7,4.8-.8,6.7-3.5,5.4-8.2a86.7,86.7,0,0,0-4.5-12c-.6-2.2-2.1-4.6-3.8-7.6h0l6.6,1c4.5.7,6.8,3.6,7.6,7.8.4,2.2.6,4.4.9,6.6s1.3,3.6,4.3,2.6c5.3-1.8,8.5-5.5,9-11.1S254.3,502.5,249.7,499.5Z" transform="translate(-3.6 -121.7)" fill="none"/><path d="M140.9,262.8c2.9,9.4,8.4,17.5,13.7,25.6,6.5,9.9,13,19.8,19.1,30a29.1,29.1,0,0,1,4.2,19.4c-1.1,8.4-6.6,12.5-14.9,11.1-2.1-.4-4.1-1-6.3-1.6,1.5,8.9,6.9,14.1,14.5,17.4s13.5,3,20.2-1.3c-6.6-6.3-9.3-13.7-8.4-22.5,3.3,1.2,6.3,2.6,9.4,3.2,5.8,1.2,8.3-1.7,7.2-7.3a45,45,0,0,0-10.4-20.5c-7.8-9-16.1-17.7-24.1-26.5a77.5,77.5,0,0,1-13.8-20.6c-5.2-11.5-5-22.7,1.4-33.5,2.7-4.9,6.1-9.2,9.2-13.7-3.5-1-6.1.7-8.4,3.3a79.3,79.3,0,0,0-5.9,7.1C141.4,241.6,137.5,251.4,140.9,262.8Z" transform="translate(-3.6 -121.7)" fill="none"/><path d="M152.4,344.2c-5.2,6.9-11.9,5.2-18.6,3.1,0,13,19.1,22.9,29.6,18C156.7,360,152.6,353.2,152.4,344.2Z" transform="translate(-3.6 -121.7)" fill="none"/><path d="M793.7,385.9a189.1,189.1,0,0,0-10.2-53.8c-9.8-28.3-25.3-53.2-44.8-75.7a303.9,303.9,0,0,0-47.5-43.9,392.5,392.5,0,0,0-68.7-40.8,485.9,485.9,0,0,0-94.7-32.5,491.9,491.9,0,0,0-72.4-11.7c-14-1.2-28.1-2.1-42.2-2.6-10.7-.4-21.4-.3-32,.3-16.6.8-33.2,1.8-49.7,3.6a494.3,494.3,0,0,0-80.7,15.9c-36.9,10.4-72.3,24.7-105.5,44-30,17.4-57.2,38.4-80.5,64.2a244.1,244.1,0,0,0-34.2,48.3c-18.8,35.1-27,72.4-22.9,112.2A196.1,196.1,0,0,0,23,471.2a236.3,236.3,0,0,0,41.9,63.9,313.8,313.8,0,0,0,43,39.3c27.6,20.9,57.8,37.5,89.8,50.6,42.9,17.6,87.6,28.6,133.7,34.2a632.3,632.3,0,0,0,68.8,4.5h0c14.2-.6,28.5-.9,42.4-1.9,16.9-1.4,33.7-3.1,50.4-5.8a486.2,486.2,0,0,0,122.5-36.2c36.8-16.6,70.8-37.5,100.6-64.8,19.6-18,36.6-38.1,50-61.2C785.5,460.4,795.4,424.7,793.7,385.9Z" transform="translate(-3.6 -121.7)" fill="#fd5b00"/><polygon points="309.4 403.1 309.4 403.1 309.4 403.1 309.4 403.1" fill="#fd5b00"/><line x1="224.8" y1="383.7" x2="224.8" y2="383.7" fill="none" stroke="#fd5b00" stroke-linecap="round" stroke-linejoin="round" stroke-width="0"/><path d="M233.6,335.2a89.9,89.9,0,0,0,23.5,8.7c9.2,1.9,18.5,2.8,27.8,1.2a3.8,3.8,0,0,0,3.2-2.5c2.9-6.2,7.5-10.4,14.3-12l1.1-.4c.1,0,.1-.1.5-.5a118.3,118.3,0,0,1-14.5-39.5c-2.4,2.2-4.8,3.8-6.6,5.9-8.1,9.4-16.1,18.9-24.7,29-1.7-3.4-3.5-6.4-4.8-9.5-2.1-5.1-4-10.2-5.9-15.4a2.7,2.7,0,0,1,.5-2.1c6.1-8.1,12.3-16.2,18.6-24.2a3.8,3.8,0,0,0,.6-3.7c-.9-4.3-2-8.6-2-12.9-.1-7.3,6.1-12.2,13.6-11.4-1,1.7-2,3.4-2.8,5.1s-1.3,5.3.4,7.8,1.5,1.5,2.7.4c3.2-3,6.6-5.8,9.8-8.8a6.2,6.2,0,0,0,1.5-2.9,113.1,113.1,0,0,1,27-53.1c18.7-20.7,41.8-33.3,69.5-36.9,34.1-4.5,64.5,4.5,90.6,26.9,19.1,16.3,31.2,36.9,36.8,61.3.6,2.5,1.4,4.5,3.5,6s4.6,3.8,7.1,5.8c3.7-3.3,4.3-7.7,4.2-12.2,6-.8,10.7,3.3,11.2,9.5a28.9,28.9,0,0,1-2.3,14.8c-.9,2-.4,3.3.8,4.8q9.6,12.3,19.2,24.9c-4.9,8-5.2,17.8-11.5,25.3-10.5-11.1-19.2-23.8-31-34.6a118.4,118.4,0,0,1-14.9,40,20.7,20.7,0,0,1,12.8,7.3,15.5,15.5,0,0,1,3.1,4.6c.8,2.3,2.3,2.9,4.4,3.2a68.5,68.5,0,0,0,29.2-2c7.3-2.1,14.4-5,21.2-7.4-2.1,11.4-1.2,22.9,9.9,30.9,6.9,5,17.3,6,29-.8,7.9,5.5,16.3,5.9,25.1,2.6a4.5,4.5,0,0,1,2.8,0,25.4,25.4,0,0,0,17.6.9,6.7,6.7,0,0,1,6,1c10.1,6.3,20.2,12.7,30.6,18.7,5.5,3.1,11.3,6.2,17.3,7.6,13.3,3,23.9-3.3,29.8-16.1s2.6-22.1-7.4-30.8-19.5-16.4-28.5-25.2-17.3-19.7-20.7-32.8-.2-25.1,7.9-35.6,21.3-12.2,33.4-6.4c6.3,3,12,7,13.3,14.1.8,4.5,0,9.5-1.1,14s-3.7,10-5.6,14.9a78.1,78.1,0,0,0-3,7.5c-2.2,8.2,3.1,13.7,11.5,12l4.6-1.2c.4,4.8-4.2,10.7-9.8,12.5-8.8,2.8-17.1-2.1-20.2-11.6-2.3-7.1-1-13.4,3.5-19.3l8.8-11.6c10.1-13.5,2.5-22.9-8.7-27.7-8.6-3.7-16.2-.9-22.7,5-10.2,9.1-11.3,20.5-7.6,32.9,3.1,10.6,9.2,19.5,16.3,27.8s16.4,14.9,25.5,21.3,15.8,15,17.4,26.7c1.2,9.2-2.3,16.7-7.6,23.8s-12.8,9.9-21.1,11.4l-3.8.7c0,4.8-.4,9.5.1,14.1a27,27,0,0,1-1.7,12.9c-3.1,7.9-6.1,15.9-8.9,23.9a24.4,24.4,0,0,0-1.4,6.5c-.3,5,2,7.4,7.1,7.6,3.4.1,6.7,0,10.4,0,.3,2.2.9,4.3.8,6.4-.2,9.3-.4,18.5-.8,27.8s-.9,15.7-1.4,23.5c-.3,4.9,2.1,8.2,5.9,10.8,1.9,1.3,2,2.6,1,4.5A23.7,23.7,0,0,1,712,552.3c-2.7,1.1-4.4.2-5.2-2-1.7-4.6-3.2-9.4-4.5-14.1a94.5,94.5,0,0,1-1.9-9.8c-.4.1-.9.1-1.1.3-3.1,4.7-5.6,9.5-4.8,15.4l1.2,9.5c.3,2.7-.7,4.7-3.4,4.8a38.8,38.8,0,0,1-11.3-1.1c-3.9-1.1-5.5-5.3-3.8-9.8a88.2,88.2,0,0,1,6.3-12.7c.9-1.6,1.6-2.8,0-4.4s-2.6-.1-3.7.4-4.6,2.4-6.9,3.7c-4.7-9.9.5-18.1,12.1-19.4,2.8-.3,5.6-.4,8.5-.6a19.1,19.1,0,0,0-2.7-13.7,178.4,178.4,0,0,0-12.4-17.5,189.3,189.3,0,0,0-12.8-14.1c-4-4.2-4.8-9.2-4.3-14.8s.9-13.4.9-20.1c0-11.8-5.9-19.7-16.8-23.6a151.6,151.6,0,0,0-22.9-6.1,32.6,32.6,0,0,1-17-8.4l-21.2-19.6a4.5,4.5,0,0,0-2.9-1.2c-19.4.1-38.7.4-58.1.6a8.5,8.5,0,0,0-6.8,2.9,25.5,25.5,0,0,1-12.1,7.7c-7.2,1.9-12.8-3.2-11.5-10.6,1-5.9,4.2-10.5,8.1-14.8.9-1,1.2-2.4,1.8-3.7-1.4.1-3.2-.3-4.2.4-4.5,3.1-8.8,6.5-13.1,9.9-1.2.9-2,2.2-3.7,4-1.3-4.6-2.5-8.6-3.6-12.7-21.3,18.4-46.7,28.4-75.5,28.4s-54-9.9-76.3-29.1a16.4,16.4,0,0,1-3,12.2c-4.4-3.7-8.7-7.4-13.1-10.9a17.8,17.8,0,0,0-5-2.4c-.7-.3-1.7.2-2.6.3s.2,2.1.8,2.7c3.5,3.5,6.5,7.2,8.2,11.9a10.9,10.9,0,0,1,.7,2.4c.6,3.9.6,7.7-2.9,10.5s-7.1,2.5-10.6.6a44.5,44.5,0,0,1-9.8-6.9,10,10,0,0,0-7.4-3l-36.2-.2c-6.9-.1-13.8-.4-20.8-.3a6.9,6.9,0,0,0-4.3,1.8c-8.1,7.2-16.2,14.4-24.1,21.8-4.9,4.5-11.2,4.6-17.1,6.2a205.7,205.7,0,0,0-21.9,6.8c-10.4,4-14.3,12.7-14.4,23.2,0,7.4.6,14.8,1.1,22.1.4,5.1-1.8,8.9-5.1,12.6-7.9,8.6-16.2,16.9-22.4,26.8-3.9,6.3-5.6,12.1-4.9,17.9l7.4.6,3.3.5c10.3,2.3,13.7,8.5,10.1,19-2.7-1.4-5.4-2.7-8.1-4.3s-2.4-.5-3,.7a3.4,3.4,0,0,0-.1,2.8c3,4.9,6.2,9.6,7.1,15.4.6,4-.8,7.4-4.7,8.4a40.7,40.7,0,0,1-10.5,1c-2.7,0-4-1.8-3.7-4.5s.3-4.7.8-7c1.4-7.1-.5-13.3-5.2-19.3-.3,1.2-.5,2.1-.8,3-1.7,6.7-3.1,13.5-5.1,20-1.5,4.6-2.9,4.9-7.4,3a22.6,22.6,0,0,1-11.5-10.9c-.8-1.6-.8-2.8.7-3.9l2.3-2a8.5,8.5,0,0,0,3.7-7.7c-.5-10.5-1.2-20.9-1.5-31.4-.3-8-.1-16.1-.2-24.1,0-2.7,1-3.9,3.9-3.6a54.5,54.5,0,0,0,7,0c5.1-.2,7.8-2.5,7.1-7.5s-2.5-9.9-4.1-14.8c-2.2-6.5-5-12.9-7.2-19.4-.7-2-.6-4.4-.7-6.6-.1-5.5,0-11,0-16.7-1.9-.4-4.1-1.1-6.3-1.4-11.6-1.7-18.9-9-23.5-19-5.5-12.1-2.5-23.1,5.4-33.3,4-5.1,9-8.9,14.3-12.4,15.4-10.1,27.3-23.1,34.9-40,3.6-8,5.3-16.3,3-25.1s-11.8-18.5-21.7-20-21.8,6.7-22.7,15.7a17.5,17.5,0,0,0,2.2,9.5c2.7,4.8,6.4,9.2,9.6,13.7,1.2,1.7,2.4,3.4,3.4,5.1a20.5,20.5,0,0,1-3.3,23.8A15,15,0,0,1,61.2,313c-.1-.5-.3-1.1-.4-1.7,2.9.4,5.7,1,8.5,1.1a8.1,8.1,0,0,0,8.4-9.7,50.1,50.1,0,0,0-3.6-10.5,88.1,88.1,0,0,1-6.8-20.7c-1.2-7.1,1.3-12.3,6.2-17,9.7-9.1,25.6-10.6,36-3.1,8.1,5.8,11.5,14.5,13.4,23.8,2.5,12-1.6,22.5-7.9,32.4-8.1,12.9-19.1,23.1-30.7,32.8-4.7,3.9-9.7,7.7-14,12.1-8.9,9.2-9.8,19.4-3.3,30.5,8.5,14.4,21.9,18.6,37.1,10.5,13.1-6.9,25.7-14.9,38.3-22.6,2.5-1.5,4.7-2.3,7.7-1.4a24.4,24.4,0,0,0,16.2-.8,6.5,6.5,0,0,1,3.9,0c8.1,2.7,15.8,2.5,23.2-1.9a3.6,3.6,0,0,1,3.2.2c6.6,3.4,13.4,4.6,20.6,2.6,9.2-2.5,15.8-10.6,16.7-21,.5-4.3-.1-8.9-.3-13.4m244.9-52-11.7-1.9a4.1,4.1,0,0,1-2.4-1.1c-6-7.6-12.7-14.7-17.4-23-2.7-4.8-6-6.1-10.5-6.9a12.8,12.8,0,0,0-2.7-.5c-.9,0-2.3.1-2.7.7-2.8,3.7-6.1,3.6-9.7,1.5a4.4,4.4,0,0,0-1.6-.6c-2.1-.5-2.7-1.7-2.2-3.9s.2-3.6-.6-4-4.3-4.4-7.7-2.5-8.4,3.4-13.1,1.7c-.8-.3-2.2.3-3,.9-5.7,3.9-11.2,8.1-16.9,12-1.7,1.2-1.8,2.3-1.4,4.2a16.7,16.7,0,0,1-.2,5.9c-.2,1.5-1.1,2.8-1.3,4.3a5.1,5.1,0,0,0,.5,3.5c3,4.6,6.2,9.1,9.5,13.6a3.7,3.7,0,0,0,2.9,1.3c4.3-.2,8.6-.6,12.8-1,1.2-.1,2.6-.6,3.6-.2,4.4,1.8,8.6,3.9,13,6l-1.3,3.1c-3.2,7.4-3.5,4.8,1.7,10.6,1.2,1.4,2.9,2.9,3,4.5.5,5.1,1,10.3-3.7,14.2-1.2,1-1.3,2.2-.5,3.8,4.3,8.5,8.5,17,12.5,25.6.8,1.7,1.7,1.9,3.3,1.4,3.3-1,6.7-1.7,10-2.8a5.3,5.3,0,0,0,2.8-2.3c4.7-9.3,8.7-19.1,17.4-25.7.6-.5.7-2,.6-3-.6-4.3-1.5-8.6-2.2-13a3.6,3.6,0,0,1,.8-2.5c4-3.8,7.8-7.9,12.3-11.1s5.2-7.9,6.1-12.8m-174.6-7.3c0,14.4,0,28.8.1,43.1a4.4,4.4,0,0,0,1.7,3.1L338.8,349a3,3,0,0,0,3.5.5c8.8-4.3,17.7-8.4,26.5-12.6a2.8,2.8,0,0,0,1.8-3l.3-34.2a4,4,0,0,0-1.2-2.8,216.7,216.7,0,0,1-29.3-27.4,3.8,3.8,0,0,0-3.1-1c-10.9,2.3-21.8,4.8-33.4,7.4m40.2-82.2a54.6,54.6,0,0,0-28.6,8.1,5.8,5.8,0,0,0-1.9,1.6A111.1,111.1,0,0,0,290.9,265a3.2,3.2,0,0,0,.7,2.2c3,2.1,6.1,4,9.2,5.8a3,3,0,0,0,2.1,0l33.9-7.6a4.4,4.4,0,0,0,2.7-2.3c6.1-14,12.2-28,18.1-42.1a5.8,5.8,0,0,0,0-3.9c-2.8-6.8-6-13.4-8.8-20.2-1-2.5-2.3-3.8-4.7-3.2M406.8,222c.9,2.5,1.6,4,2,5.5,1.8,6.5,4.9,11.8,11.7,14.6,2.4,1,4.5,3.1,3.5,6.4-.1.4.3,1.4.7,1.5a2.8,2.8,0,0,0,2.2-.1c1.1-.7,2-1.8,3.1-2.4a5.4,5.4,0,0,1,3.2-.9c4,.7,8,1.8,12,2.7.4.1,1.1.2,1.2.5,1.3,2.7,4.7,4,5.1,7.4a6.5,6.5,0,0,0,1.6,2.9L466,276.7c2,2.5,3.8,2.7,6.3.7,4.1-3.2,8.2-6.5,12.4-9.6a4.1,4.1,0,0,0,1.9-4.9c-3-14-5.9-28.1-8.8-42.2a5.2,5.2,0,0,0-1.3-2.9c-10.1-7.6-20.5-14.7-32.5-18.9-2.6-.9-3.9,1.3-5.7,2.2s-.1,2-.3,3.1a4.9,4.9,0,0,1-.8,2.4c-1.1,1.5-2.7,2.6-3.8,4.2-4.6,6.5-10.5,9.8-18.7,9.4-2.4-.1-5,1.2-7.9,1.8m2.8,15.5c-1.6-4.2-3.1-8.3-4.8-12.4a2.9,2.9,0,0,0-2.2-1.5l-39.5-1.9a3.5,3.5,0,0,0-2.4,1.5q-9.3,20.5-18.3,41.1a3.7,3.7,0,0,0,.3,3.1A178.8,178.8,0,0,0,371.1,294a3.4,3.4,0,0,0,2.2,1l11-2.3c-1.3-1.6-2.5-2.8-3.5-4.2-3.3-4.7-6.6-9.5-10-14.2a4,4,0,0,1-.7-4.3c1.7-4.2,3.2-8.3,1.3-12.9-.2-.6.6-2,1.4-2.5,6.5-4.8,13-9.5,19.6-14a5.3,5.3,0,0,1,4-.8c4.8,1.5,8.9.3,13.2-2.3m13.5,115.2c-3.8-7.8-7.4-15.3-11.2-22.8-1-2-1.1-3.4.5-5.2s3.4-3.5,3.7-5.4c.6-4,1.1-8.4-3.1-11.4s-5.3-6.9-1.9-11.4c.1-.1-.1-.3-.1-.5a14.6,14.6,0,0,0-10.8-2.5c-8.7,1.5-17.4,2.7-26.6,4.1,0,12.8,0,25,.1,37.1a3.1,3.1,0,0,0,1.7,2.1l37.7,20.9a3.3,3.3,0,0,0,2.9-.1c2.2-1.3,4.5-3.1,7.1-4.9M384,180.8c-3.7-2.6-7.3-4.5-8.1-8.9,3.9-2.6,7.6-5.1,11.5-7.4a3,3,0,0,1,2.6.1c2.9,2,5.7,4.3,8.5,6.4s4.1,4,2,7.2c-.1.1.1.3.1.8,5.5-.8,10.7-.5,14.9,4a2.9,2.9,0,0,0,2.3.2c6.8-2.3,12.1-.1,16.6,5.2,2.3,2.7,4.8,5,3.2,9a7.2,7.2,0,0,0,0,1.5l3.8-2.5c-4.2-9.6-8.2-19-12.4-28.3a3.1,3.1,0,0,0-2-1.5c-4.4-.7-8.9-1.4-13.3-1.9l-30.1-2.8a9,9,0,0,0-6.9,2.3,138.9,138.9,0,0,0-25,27.5,3,3,0,0,0-.2,3.5c3,6.8,6,13.7,8.8,20.6a3.9,3.9,0,0,0,4,2.9c4.9.1,9.7.5,14.6.7,3.4.1,6.9,0,10.1,0-2.4-3.4-5-6.7-7.1-10.3a9.1,9.1,0,0,0-7.1-4.9c-4.6-.7-6.1-3.3-5.2-8.1l8.9-1.6c.8-2.6.4-4.1-2.4-5.1s-4.2-3.6-3.2-7.4l11.1-1.2m-2.3,6.6c0,.5.1.8.1,1.2l-.3,2.8c-.7,5.5-.7,5.4-6,6.2a8.8,8.8,0,0,0-3.5,1.6c.6,2.2,2.5,1,3.6.8s3.8.3,5,2.4,4.1,6.2,6,9.5a4.3,4.3,0,0,0,3.7,2.4c9.9,1.1,19.7,2,29.6.6a7.3,7.3,0,0,0,3.9-1.7,81.6,81.6,0,0,0,7.9-8.7,4.9,4.9,0,0,0,.8-3.7,16.1,16.1,0,0,1-.4-8.7,3.3,3.3,0,0,0-.7-2.7c-3-3-6.2-5.6-11-3.7-.7.3-1.5,0-2.2.3s-4,0-5.6-1.5a11.1,11.1,0,0,0-8.6-3.2c-3.8.3-7.6.4-11.6.6,1.5-2.8,3.1-5.5,4.7-8.4l-7.7-6.2a2.1,2.1,0,0,0-1.7-.2l-8.6,6.1c3.8,2.7,10.4,3.1,7,10.4-2.8,0-5.8-.1-8.8,0-.9,0-1.8.7-2.8,1a9.1,9.1,0,0,0,2.4,1.6,42.1,42.1,0,0,0,4.8,1.2M492.6,205c-4,4.2-7.8,8.1-11.4,12.1a3.6,3.6,0,0,0-.4,2.7c3,14.8,6,29.6,9.2,44.4a6.2,6.2,0,0,0,1.8,3c4.5,4.6,9.3,9,13.6,13.8,2.5,2.9,5.3,2.9,8.6,2.3,2.5-28.6-4.4-54.6-21.4-78.3M399,382.9c26.6,4.8,75-17,89.6-40.3l-7.7-2.3c-1.5,3-3.3,5.7-4.4,8.7s-2.8,3.6-5.7,2.5-4.8-3.3-4.5-6.6.4-5.9.6-8.8c-6.2-2-6.2-2-9.4,1.9a11.6,11.6,0,0,0-1.4,2.4c-2.7,5.2-5.2,10.5-8,15.7a5.1,5.1,0,0,1-2.7,2.3c-4.6,1.4-9.3,2.7-14,3.9a3.3,3.3,0,0,1-2.7-.8,57.9,57.9,0,0,1-4.3-5.8c-12,5.7-17.2,17.7-25.4,27.2m64.5-51.4c5.2,2.3,5.2,2.3,7.8-1.6l4.3-6.3,7.8,8.3,2.5-3.3c8.4-11.7,14-24.8,18.5-38.4,1.1-3.4.6-5.5-2-7.9-4.7-4.3-9.1-9.1-13.6-13.7l-14,11,6,.9V283l3.4.8c-.8,3.4-1.4,6.6-2.3,9.7a8.7,8.7,0,0,1-2,3.5c-3.1,3.1-6.1,6.4-9.6,9s-6.7,7.2-4.3,12.8a15.8,15.8,0,0,1,.5,2.5c1.1,3.8,1.9,7.6-3,10.2m18.9,6.3a54.8,54.8,0,0,1,5.6,1.6c2.1.9,3.4.2,4.7-1.5a110.2,110.2,0,0,0,17.8-36.8c1.2-4.5,2.1-9.2,3.1-13.9h-5.4c-6.1,18.1-13.5,35.4-25.8,50.6M305.9,326.6a108.3,108.3,0,0,0,37.4,39.6c-1-3.9-1.9-7.4-2.9-10.9a5.3,5.3,0,0,0-1.8-2.6c-10.1-8.3-20.3-16.5-30.5-24.7a13.5,13.5,0,0,0-2.2-1.4m164.4,21c2.6-5.2,4.6-9.7,7.1-13.9,1.5-2.6,1-4-1.6-5.3-4,4.7-7.2,9.7-6.8,16.2a11.7,11.7,0,0,0,1.3,3m-152.5,1L309.3,338c-4.5,2-5.6,3.6-4.9,7l13.4,3.6m169.4,0,13.7-3.6c.2-3.8-1-5.3-5.2-6.9l-8.5,10.5" transform="translate(-3.6 -121.7)" fill="#040202"/><path d="M228.4,505.4a69.4,69.4,0,0,1,4.2,7.9,86.7,86.7,0,0,1,4.5,12c1.3,4.7-.7,7.3-5.4,8.2-7.5,1.3-13.7-.9-18.2-7a8.5,8.5,0,0,1-1.8-4c-.3-3.7-2.2-6.5-4.6-9-9.5-10.1-20.8-17.9-31.9-26l-7.4-5.5c-1.5-1.1-2-2.2-1.1-4s2.1-4.8,3-7.3A7.2,7.2,0,0,0,168,463c-4.9-5.2-11.3-7.9-17.6-10.7-1.9-.8-2.9-1.6-3-3.9-.3-7.3-1.8-14.7.2-22a18.4,18.4,0,0,1,8.5-11,2.4,2.4,0,0,1,2-.3l39,19c3.2,1.6,4.3,4.2,4.1,7.6-.4,6.1-.9,12.1-1.2,18.2-.2,4.5,1.3,8.5,3.5,12.5s3.4,8.2,5.1,12.4c.4,1,.6,2.2,1.1,3.2,1.6,3.8,3.7,4.3,7.3,2.2s9.1-5.9,14.1-7.9,11.2-.1,14.5,5.7c-4.6,1.2-10.1,1.3-11.2,7.9,5.6.1,11,.9,15.7,3.9s7.6,7.1,7.1,12.8-3.7,9.2-9,11.1c-3,1-3.8.6-4.3-2.6s-.5-4.5-.9-6.6c-.9-4.2-3.1-7.2-7.6-7.8a62.6,62.6,0,0,0-7-1.3" transform="translate(-3.6 -121.7)" fill="#040202"/><path d="M576.3,505.8c-8.7-.2-13.4,1.9-14.3,10.3-.1.7-.3,1.5-.4,2.2-.6,6.3-2.2,7.1-7.7,3.8a12.6,12.6,0,0,1-2.4-19.6c4.3-4.4,9.7-6.1,15.6-6.6,1-.1,2,0,3,0,.4-4.3-1.8-6.3-10.7-8.1,3.4-5.8,8.9-8.1,14.9-5.5a79.6,79.6,0,0,1,12.4,6.9c5.1,3.4,7,2.8,9.1-2.8s4.3-11.1,6.9-16.5,2.2-12.2,1.8-18.4c-.3-3.8-.6-7.6-.8-11.4a5.4,5.4,0,0,1,3.2-5.4l39.5-19.3a3.3,3.3,0,0,1,2.7.4,18.2,18.2,0,0,1,8.9,15.7c.2,6.1-.3,12.1-.7,18.2-.1.9-1.3,1.9-2.2,2.4l-12.9,6.6a17.3,17.3,0,0,0-2.8,1.9c-5.1,4.1-5.8,6.8-3.3,12.9l.4,1c2.5,6.3,2.5,6.2-3,10.3-9.8,7.4-19.6,14.7-29.1,22.3a51.2,51.2,0,0,0-8.5,8.9,13.5,13.5,0,0,0-2.4,5.8c-1,5.5-6.3,10.8-12.8,11.9a27.6,27.6,0,0,1-8.6-.1c-3.8-.6-5.4-3.3-4.7-7.2,1.1-6.5,4.2-12.1,7.4-17.7l1.5-2.9" transform="translate(-3.6 -121.7)" fill="#040202"/><path d="M475.4,553.8c-4.7,1.1-8.9,2.5-13.3,3a55.4,55.4,0,0,1-11.5-.5c-1.8-.2-2.6.6-3.5,2-3.2,5.1-6.2,10.2-9.8,15s-9.4,7.5-15.9,7.4c-4.4-.1-5.7-2.4-3.3-6s6.9-9.9,10.4-14.9l2.4-3.6c-5.5-3.2-5.9-4.9-2.4-9.9,1.8-2.6,3.9-5,5.9-7.5s5.7-3.7,9.2-4.1a4.2,4.2,0,0,0,2.8-1.6c9.3-15,18.4-30.1,28-44.9,2.2-3.5,1.9-6.7,1-10.1s0-2.9,1.7-3.7a22.5,22.5,0,0,1,12.7-2.5c4.2.4,7.1,3.3,8.3,8,1.9,8,1.2,16,.3,24-1.8,17.4-2.3,34.9-.4,52.3.5,4.5,1.2,8.9,1.7,13.3.1.9-.1,2.3-.7,2.7-3.8,2.6-7.6,5.5-11.8,7.4s-8.4.2-9.9-4.6-1.2-7-1.7-10.5c-.2-1.8-.2-3.7-.3-5.6s.1-3.6.1-5.1m-.1-18.2,1.5-29.1-.8-.2c-5.4,9.6-10.7,19.3-16.2,29.2h15.5" transform="translate(-3.6 -121.7)" fill="#040202"/><path d="M395,485c-1.7,1.5-3.7,2.7-5.2,4.4-15.5,17.9-26.3,38.3-31.2,61.5a46.5,46.5,0,0,0-.8,7.5c-.1,3.2,1.4,4.6,4.6,4.2a29.5,29.5,0,0,0,7.5-2.3c9.6-4.4,17.9-10.7,26.3-17a18.7,18.7,0,0,1,3.8-2.4c1.7-.7,2.6,0,2.1,1.8s-1.5,4-2.3,6c-5.1,12.5-15.1,20.1-26.8,25.8a111.7,111.7,0,0,1-13.5,5.4c-11.7,3.7-20-3.1-23-12.8s-1.7-18.2,1.5-26.9c7.8-21.3,19.9-39.7,37.5-54.2,7.3-6,15.1-11.4,24.6-13.4s14.3,3.2,14.5,11.6-2.2,14.8-5.2,21.6c-5.3,12.1-12.6,22.9-22.6,31.7a51.2,51.2,0,0,1-9.1,6c-1.1.6-2.8,0-4.2,0s-.4-3.1.2-4.2c2.3-4.2,5.2-8.2,7.5-12.5a171,171,0,0,0,14.2-35.9,31.9,31.9,0,0,0,.7-5.4,1.6,1.6,0,0,1-1.1-.5" transform="translate(-3.6 -121.7)" fill="#040202"/><path d="M313,524.8l9.9-.6c2.9-.1,6.1-.9,8.1,1.7s0,5.4-1.3,7.8-3.3,5.4-5,8.1-6.2,3.7-9.9,3.9-6,.2-9,.1a2.8,2.8,0,0,0-2.9,1.9c-4,7.9-7.8,15.9-12.4,23.5-2,3.3-5.3,6-8.4,8.4s-6.7,2.3-8.8.4a7.2,7.2,0,0,1-1.9-8.7c3.2-8,6.3-16,9.8-23.8,7.2-15.9,14.8-31.6,22.2-47.4l1-2.2c-2.3-.4-4.4-.6-6.4-1.1s-4.2-2.5-3.2-5.4a32.7,32.7,0,0,1,4.3-8.3c2.1-2.8,4.8-5.2,7.2-7.8a8.4,8.4,0,0,1,6.8-2.7l25.7,1.9c3.6.3,4.9,2.1,4.7,5.6-.6,9.7-5.3,14.8-14.9,15.7-2.7.3-4.1,1.1-5.1,3.7-3.1,7.7-6.6,15.3-9.9,22.9-.2.5-.3,1.2-.6,2.4" transform="translate(-3.6 -121.7)" fill="#040202"/><path d="M631.7,222.1c3.1-.8,5.2.5,7.2,2.4,7.4,7.3,12.5,15.7,14.5,26,.9,4.7-.4,9.1-2.2,13.3-3.4,8-8.6,14.9-14.2,21.4-8.8,10.3-17.9,20.3-26.6,30.7a87.5,87.5,0,0,0-8.9,13.5,15.9,15.9,0,0,0-1.6,7.8c.3,8.3,6,12.3,14.1,10.6l4.3-1a19.6,19.6,0,0,1-6.9,12.8c-5.9,5-12.7,7.9-20.7,6.6s-13.9-7.3-15.6-16.2c-2.1-10.6,1.8-19.4,8.2-27.5s16.8-16.2,25.9-23.4,19.1-14.7,26.8-24.2c12.4-15.2,12.6-30.6.7-46.5l-5-6.3" transform="translate(-3.6 -121.7)" fill="#040202"/><path d="M187,347c2.3.4,4.6.9,6.9,1.1,8.7.8,12-6.9,11.4-13.5s-4-10.6-7.7-15c-6.8-8.2-14-16.1-20.8-24.3s-13.3-16.4-19.4-24.9c-2.4-3.2-3.9-7.3-5.1-11.2-2.3-7.4.2-14.2,3.4-20.8a44.6,44.6,0,0,1,11.8-15.1c1.4-1.1,3.4-1.4,5.2-2l.6.8-4.2,5.2c-5.2,6.8-9.1,14.2-9.5,22.9s3.7,17.7,9.8,25c8.1,9.7,18.2,17.1,28,24.9s20.6,15.9,27.8,27c5.3,8.1,6.9,16.9,3.8,26.2s-11.5,14.6-21.5,12.8-16.1-6.3-19.7-15.1a13.5,13.5,0,0,1-.8-4" transform="translate(-3.6 -121.7)" fill="#040202"/><path d="M161.9,222c-3.1,4.5-6.5,8.8-9.3,13.5-6.4,10.8-6.6,22-1.4,33.5A82.6,82.6,0,0,0,165,289.6c8,8.9,16.3,17.5,24.1,26.5a45.5,45.5,0,0,1,10.4,20.5c1.2,5.7-1.4,8.5-7.2,7.3-3.1-.6-6.1-2.1-9.4-3.2a25.7,25.7,0,0,0,8.4,22.5c-6.7,4.3-13.4,4.2-20.2,1.3S158,356,156.6,347.1c2.3.6,4.3,1.2,6.3,1.6,8.3,1.5,13.8-2.7,14.9-11.1a29.8,29.8,0,0,0-4.2-19.4c-6.1-10.2-12.6-20-19.1-30-5.3-8.1-10.8-16.2-13.7-25.6-3.5-11.4.5-21.1,6.7-30.4a79.3,79.3,0,0,1,5.9-7.1c2.4-2.4,5-4.1,8.5-3.1" transform="translate(-3.6 -121.7)" fill="#040202"/><path d="M613.8,363.2a27.5,27.5,0,0,0,8.4-22.8c-1.9.8-3.4,1.7-5,2.2a25.1,25.1,0,0,1-7,1.5c-3.8.1-5.5-2.4-4.9-6.1,1.4-8.8,5.7-16.2,11.3-22.8s12.2-13.4,18.3-20.1,13.4-14.2,17.5-23.2a90.6,90.6,0,0,0,4.5-12.3c2.4-8.3-.1-16-4-23.1-2.8-5.1-6.4-9.8-9.6-14.6a7.9,7.9,0,0,1,7.3,2.4c7.9,7.9,13.4,16.9,14.8,28.2.6,5.1-.9,10-2.8,14.7-4.4,10.7-11.3,19.9-17.8,29.4s-12.4,17.4-15.9,27.5a36.1,36.1,0,0,0-1.9,11.2c-.1,10.7,7.1,15.9,17.4,13l3.4-1.1c1,4-3.6,11.6-10.2,15.4-8.2,5-17.9,5.3-23.8.6" transform="translate(-3.6 -121.7)" fill="#040202"/><path d="M197.1,271.8l28.6,15.7c5.7,3.2,11.7,6.2,15.5,11.7a41.6,41.6,0,0,1,6,11.9c4.3,15.2,14.1,24.9,28.5,30.4l1.5.7c-3.3.9-9.3.7-15.6-.8-11.4-2.6-22.2-6.8-31.1-14.6-3.2-2.8-5.5-6.8-7.6-10.6-5.7-10.2-11-20.8-16.7-31-2.4-4.2-5.6-7.9-8.4-11.9a6.9,6.9,0,0,0-.7-1.5" transform="translate(-3.6 -121.7)" fill="#040202"/><path d="M608.3,271.3c-7.6,8.2-11.8,18.2-16.9,27.8-4.1,7.8-8.7,15.2-13,22.9-2.8,5-7.4,7.8-12.1,10.5-11.1,6.1-22.8,10.4-35.7,10.2l-2.9-.2c4.3-2.3,8.7-4.4,12.8-6.9,7.6-4.6,12.5-11.3,15.4-19.6.9-2.5,1.8-4.9,2.6-7.4a27.9,27.9,0,0,1,12.9-16.4c12.2-7.1,24.6-13.9,36.9-20.9" transform="translate(-3.6 -121.7)" fill="#040202"/><path d="M203.4,221.9c-.1.9-.2,1.5-.3,2.1-.5,3,.4,4.9,3.2,6.1,6,2.5,12.3,4,18.9,3.1.8-.1,1.6,0,3.3,0-.6,6-1.1,11.8-1.8,17.6-.2,1.4-1.2,2.6-3,2l-13-4c-3.9-1.3-5.5-1.1-7.8,1.6s-3.2,6.2-1.3,9.3a19.3,19.3,0,0,0,4.9,5.7c5.8,4,11.9,7.6,17.9,11.4.6.4,1.5.6,1.9,1.2a3.1,3.1,0,0,1,.3,2.3c-.1.3-1.4.6-1.9.3-11.8-5.5-24.2-10.1-34.8-17.9a52.8,52.8,0,0,1-7.5-6.7c-4.1-4.6-5-10-3.6-16a34.3,34.3,0,0,1,8.7-16.1,6.9,6.9,0,0,1,4.1-1.7,91.6,91.6,0,0,1,11.8-.3m.4,17.3,3.4-1.9c-.9-1.1-1.5-2.6-2.6-3.1a12.9,12.9,0,0,0-5.2-.7,2.7,2.7,0,0,0-2.1,1.5,2.9,2.9,0,0,0,1.3,2.2,28.2,28.2,0,0,0,5.2,2" transform="translate(-3.6 -121.7)" fill="#040202"/><path d="M577.3,233a38.4,38.4,0,0,0,18.5-1.8c6-2.1,6.7-3,6-9.3,4.4,0,8.8-.1,13.1.1a3.6,3.6,0,0,1,2.3,1.4,33.1,33.1,0,0,1,9.6,20.4c.5,4.8-1.2,8.8-4.3,12.3-5.9,6.7-13.6,11-21.4,14.9-6.3,3.1-12.7,5.9-19.1,8.8-1.1.5-3.4.6-3.5.2-.8-2,1-2.5,2.4-3.4,5.6-3.3,11.2-6.6,16.6-10.2a25.7,25.7,0,0,0,5.6-5.8c2.4-3.2,2.1-6.5-.5-9.8s-4.2-3.3-8.4-1.8-8.1,2.6-12.2,3.8c-2.6.8-3.5-.8-3.7-2.8-.4-4.2-.6-8.4-.8-12.6a20.7,20.7,0,0,1-.2-4.4m25.8.3a20.2,20.2,0,0,0-4.6,2.1c-1.4.9-1.3,2.3.3,3.1s6.9-.1,8.3-1.8.6-2.3-.7-2.9-1.7-.3-3.3-.5" transform="translate(-3.6 -121.7)" fill="#040202"/><path d="M154,341.3c3-13.9-2.2-25.6-7.1-37.3s-9.1-20.7-13-31.3c-7.1-19.4-1.4-35.7,13.2-49.4a16.5,16.5,0,0,1,3.2-1.8c-3.5,5.4-7.3,10.4-10.2,15.8-5.2,9.7-5.5,19.7-1.9,30.3,4.4,13.2,12.1,24.1,20.5,34.7a88.2,88.2,0,0,1,13.4,22.2c1.9,4.8,2.8,9.7,1.2,14.8s-4.9,6.7-9.5,5.5a95.9,95.9,0,0,1-9.8-3.5" transform="translate(-3.6 -121.7)" fill="#040202"/><path d="M654.6,221.6a12.8,12.8,0,0,1,3,1.7c8.4,7.5,14.2,16.6,16.1,27.9,1.3,8-.2,15.7-3,23.1-4.4,11.4-9.5,22.6-14.2,33.8-3.1,7.4-5.9,15-6.3,23.2-.1,2.7.4,5.4.5,8.1,0,.8-.4,2.1-1,2.3a49.9,49.9,0,0,1-8.8,3.4c-4.6,1.1-8-1.3-9.3-5.9s0-11.1,2.2-16.3c4.1-9.8,10.6-18,17.1-26.2a90.7,90.7,0,0,0,17.4-33.6c3.2-11.6-.4-21.8-6.5-31.4a95.8,95.8,0,0,0-7.3-9.5,3.5,3.5,0,0,1,.1-.6" transform="translate(-3.6 -121.7)" fill="#040202"/><path d="M592.4,306.5c1.2-2.3,2.5-4.5,3.5-6.8a89.2,89.2,0,0,1,21.3-30.9,50.9,50.9,0,0,0,12.2-17.9c3.8-9.7,1.1-18.7-5.3-26.7l-1.7-1.9c3.2-.6,3.1-.6,5.2,1.6a58.8,58.8,0,0,1,11.1,16c4.9,11,2.7,21.1-4.3,30.5s-15,15.3-23.4,21.9l-15.3,12.2-2.8,2.2-.5-.2" transform="translate(-3.6 -121.7)" fill="#040202"/><path d="M182.6,222.2a31.8,31.8,0,0,0-7.9,14.2c-2.2,8.6.6,16.1,5.7,22.8A180.2,180.2,0,0,0,193,274.1,76.5,76.5,0,0,1,206.4,294c1.5,3.1,3.1,6.2,4.5,9.3a4.2,4.2,0,0,1,.4,2.8l-10-7.9c-9.5-7.6-19.4-14.6-27.5-23.8-6.1-7-10.6-14.7-9.9-24.5.5-7.2,3.7-13.2,7.7-18.9a60.5,60.5,0,0,1,6.1-7.3c1.1-1.1,2.9-1.6,4.4-2.3a3.5,3.5,0,0,0,.5.8" transform="translate(-3.6 -121.7)" fill="#040202"/><path d="M398.8,580.2c-4.1,0-5.8-1.9-4.6-4.8a96.8,96.8,0,0,1,7.6-15.5c2.5-3.8,7.1-5.3,11.7-5.9,2-.3,3.4,1.4,2.7,3.8-1.4,4.7-3.2,9.3-4.8,14s-7.9,7.2-12.6,8.4" transform="translate(-3.6 -121.7)" fill="#040202"/><path d="M325.8,558.4c-1.1,5.4-3.1,11.5-6.9,16.6s-7.5,5-12.3,5.1c-2.1,0-3.3-1.2-3.3-3.4.1-8.3,9.3-20.2,17.2-22.4l1.4-.2c3.1-.5,4,.3,3.9,4.3" transform="translate(-3.6 -121.7)" fill="#040202"/><path d="M133.8,347.3c6.7,2.1,13.3,3.8,18.7-3.1.2,9,4.3,15.8,11,21.1-10.6,4.9-29.7-5-29.7-18" transform="translate(-3.6 -121.7)" fill="#040202"/><path d="M641.6,365.3c6.5-5.2,10.4-11.7,10.9-19.4,3.2,1.1,6.1,2.9,9.3,3.2s6.4-.9,9.5-1.4c-.2,11.6-18,22.7-29.7,17.6" transform="translate(-3.6 -121.7)" fill="#040202"/><path d="M565.7,256.6c1.7,1.5,3.3,3,5.1,4.3a11.3,11.3,0,0,0,10.5,1.2c4.5-1.8,8.7-4.2,13-6.2a20,20,0,0,1,4.2-1.1c-.5,1.5-.7,3.3-1.7,4.3-6.9,7.4-16.1,10.2-25.8,11.5a7.2,7.2,0,0,1-7.7-4.9,8.7,8.7,0,0,1,2.4-9.1" transform="translate(-3.6 -121.7)" fill="#040202"/><path d="M239,255.8c3.2,3.3,4.2,7.6,2.4,10.8s-5.3,4.5-9.7,3.6c-7.8-1.5-15.2-3.9-21.3-9.2a18.7,18.7,0,0,1-3.1-3.2c-.5-.8-.4-2.1-.6-3.1s2.1-.1,3,.4c4.1,2.1,8.1,4.7,12.3,6.4a19.6,19.6,0,0,0,8.7.8c3.9-.4,6.3-3.2,8.3-6.5" transform="translate(-3.6 -121.7)" fill="#040202"/><path d="M196.6,271.1h-.1c-.3-.2-.1-.1.1,0" transform="translate(-3.6 -121.7)" fill="#040202"/><path d="M196.6,271.1l.5.6-.5-.6" transform="translate(-3.6 -121.7)" fill="#040202"/><path d="M592.2,307.3h0" transform="translate(-3.6 -121.7)" fill="#040202"/><path d="M233.6,335.2l-.3-.2h.2a.3.3,0,0,0,.1.2" transform="translate(-3.6 -121.7)" fill="#040202"/><path d="M187,347l-.3-.2h.2c0,.1,0,.2.1.2" transform="translate(-3.6 -121.7)" fill="#040202"/><path d="M478.5,283.2c-.9,4.9-1.5,9.5-6,12.7s-8.3,7.3-12.3,11.1a2.9,2.9,0,0,0-.8,2.5c.6,4.3,1.5,8.6,2.2,13,.1,1,0,2.5-.6,3-8.7,6.6-12.6,16.4-17.4,25.7a5.3,5.3,0,0,1-2.8,2.3c-3.3,1.1-6.7,1.8-10,2.8-1.6.5-2.5.3-3.3-1.4-4.1-8.6-8.3-17.1-12.5-25.6-.8-1.5-.7-2.8.5-3.8,4.7-3.9,4.1-9.1,3.7-14.2-.2-1.6-1.8-3.1-3-4.5-5.1-5.8-4.9-3.3-1.7-10.6l1.3-3.1c-4.4-2-8.6-4.2-13-6-1-.4-2.4.1-3.6.2-4.3.3-8.6.8-12.8,1a4.1,4.1,0,0,1-2.9-1.3c-3.3-4.4-6.4-9-9.5-13.6a5.9,5.9,0,0,1-.5-3.5c.2-1.5,1.1-2.8,1.3-4.3a16.8,16.8,0,0,0,.2-5.9c-.4-1.9-.3-3,1.4-4.2,5.7-3.9,11.3-8,16.9-12,.8-.6,2.2-1.2,3-.9,4.7,1.7,9,.6,13.1-1.7s5.3,1.2,7.7,2.5c.7.4.9,2.7.6,4s0,3.4,2.2,3.9a5.2,5.2,0,0,1,1.6.6c3.6,2.1,6.9,2.3,9.7-1.5.4-.6,1.8-.7,2.7-.7a25.6,25.6,0,0,1,2.7.5c4.5.8,7.7,2.1,10.5,6.9,4.7,8.3,11.5,15.4,17.4,23a3.8,3.8,0,0,0,2.4,1.1c3.7.8,7.6,1.4,11.6,2" transform="translate(-3.6 -121.7)" fill="#fd5b00"/><path d="M303.9,275.9c11.6-2.6,22.5-5.1,33.5-7.4a4,4,0,0,1,3.1,1c9,9.9,18.5,19.3,29.3,27.4a3.8,3.8,0,0,1,1.2,2.8c0,11.4-.2,22.8-.3,34.2a2.8,2.8,0,0,1-1.8,3c-8.9,4.1-17.7,8.3-26.5,12.6a2.8,2.8,0,0,1-3.5-.5l-33.1-26.9a4.6,4.6,0,0,1-1.7-3.1c-.2-14.3-.2-28.6-.2-43.1" transform="translate(-3.6 -121.7)" fill="#fefefe"/><path d="M344.1,193.7c2.4-.7,3.6.7,4.7,3.2,2.8,6.8,6,13.5,8.8,20.2a5.3,5.3,0,0,1,0,3.9c-5.9,14.1-12,28.1-18.1,42.1a4.7,4.7,0,0,1-2.7,2.3L302.9,273a3.7,3.7,0,0,1-2.1,0c-3.1-1.9-6.2-3.8-9.2-5.8-.5-.3-.7-1.5-.7-2.2,1.4-22.8,8.8-43.4,22.7-61.6a10,10,0,0,1,1.9-1.6,55.6,55.6,0,0,1,28.6-8.1" transform="translate(-3.6 -121.7)" fill="#fefefe"/><path d="M406.8,222c2.9-.7,5.4-1.9,7.9-1.8,8.1.4,14.1-2.9,18.7-9.4,1.1-1.5,2.6-2.7,3.8-4.2a4.9,4.9,0,0,0,.8-2.4c.2-1.1-.2-2.8.3-3.1s3.1-3.1,5.7-2.2c12.1,4.2,22.5,11.3,32.5,18.9a4.9,4.9,0,0,1,1.3,2.9c3,14.1,5.8,28.2,8.8,42.2.5,2.3,0,3.5-1.9,4.9-4.2,3.1-8.3,6.4-12.4,9.6s-4.4,1.8-6.3-.7l-12.9-16.6a6.5,6.5,0,0,1-1.6-2.9c-.4-3.4-3.8-4.7-5.1-7.4-.2-.3-.8-.4-1.2-.5-4-.9-8-2-12-2.7a5.6,5.6,0,0,0-3.2.9c-1.1.6-2,1.8-3.1,2.4a3.3,3.3,0,0,1-2.2.1c-.4-.1-.8-1.1-.7-1.5,1-3.4-1.1-5.4-3.5-6.4-6.7-2.7-9.8-8-11.7-14.6a35.4,35.4,0,0,0-2-5.5" transform="translate(-3.6 -121.7)" fill="#fefefe"/><path d="M409.6,237.5c-4.3,2.6-8.4,3.8-13.2,2.3a5.3,5.3,0,0,0-4,.8c-6.6,4.6-13.1,9.3-19.6,14-.7.5-1.6,2-1.4,2.5,2,4.6.5,8.8-1.3,12.9a4,4,0,0,0,.7,4.3c3.4,4.7,6.6,9.5,10,14.2,1,1.4,2.2,2.6,3.5,4.2-3.7.8-7.3,1.7-11,2.3-.6.1-1.5-.6-2.2-1a188.4,188.4,0,0,1-28.4-26.6,3.4,3.4,0,0,1-.3-3.1q9-20.5,18.3-41.1a3,3,0,0,1,2.4-1.5c13.2.5,26.3,1.2,39.5,1.9a2.9,2.9,0,0,1,2.2,1.5c1.7,4,3.2,8.1,4.8,12.4" transform="translate(-3.6 -121.7)" fill="#fefefe"/><path d="M423.1,352.7c-2.6,1.8-4.9,3.6-7.3,5.1a3.6,3.6,0,0,1-2.9.1L375.2,337a3.8,3.8,0,0,1-1.7-2.1c-.1-12.2-.1-24.3-.1-37.1,9.2-1.4,18-2.6,26.6-4.1a14.2,14.2,0,0,1,10.8,2.5c0,.1.2.4.1.5-3.4,4.5-2.5,8.3,1.9,11.4s3.7,7.3,3.1,11.4c-.3,2-2.2,3.8-3.7,5.4s-1.5,3.2-.5,5.2c4,7.2,7.6,14.8,11.4,22.6" transform="translate(-3.6 -121.7)" fill="#fefefe"/><path d="M384,180.8l-11.4,1.3c-1,3.8-.3,6.1,3.2,7.4s3.3,2.5,2.4,5.1l-8.9,1.6c-.9,4.8.6,7.4,5.2,8.1a9,9,0,0,1,7.1,4.9c2.1,3.6,4.7,6.9,7.1,10.3-3.2,0-6.6.1-10.1,0s-9.7-.6-14.6-.7c-2.2,0-3.2-.9-4-2.9-2.8-6.9-5.8-13.7-8.8-20.6a3.2,3.2,0,0,1,.2-3.5,138.9,138.9,0,0,1,25-27.5,9,9,0,0,1,6.9-2.3l30.1,2.8c4.5.5,8.9,1.2,13.3,1.9a3,3,0,0,1,2,1.5c4.2,9.3,8.2,18.7,12.4,28.3l-3.8,2.5a7.2,7.2,0,0,1,0-1.5c1.6-4-.9-6.3-3.2-9-4.5-5.3-9.8-7.5-16.6-5.2a2.9,2.9,0,0,1-2.3-.2c-4.2-4.4-9.4-4.7-14.9-4-.1-.4-.2-.7-.1-.8,2.1-3.2.5-5.3-2-7.2s-5.6-4.4-8.5-6.4a3,3,0,0,0-2.6-.1c-3.8,2.3-7.5,4.8-11.5,7.4,1.2,4.3,4.7,6.2,8.4,8.8" transform="translate(-3.6 -121.7)" fill="#fefefe"/><path d="M381.7,187.4a35.7,35.7,0,0,1-4.7-1.1,12.5,12.5,0,0,1-2.4-1.6,7.3,7.3,0,0,1,2.8-1c3-.1,6,0,8.8,0,3.4-7.3-3.2-7.6-7-10.4l8.6-6.1a2.1,2.1,0,0,1,1.7.2l7.7,6.2-4.7,8.4,11.6-.6a10.9,10.9,0,0,1,8.6,3.2c1.6,1.5,3.3,2.3,5.6,1.5.7-.3,1.5,0,2.2-.3,4.7-1.9,8,.7,11,3.7a3.3,3.3,0,0,1,.7,2.7,14.4,14.4,0,0,0,.4,8.7,4.5,4.5,0,0,1-.8,3.7,108.7,108.7,0,0,1-7.9,8.7A7.7,7.7,0,0,1,420,215c-9.9,1.4-19.7.5-29.6-.6a4.5,4.5,0,0,1-3.7-2.4c-1.9-3.2-4.1-6.2-6-9.5s-2.6-2.7-5-2.4-3.1,1.4-3.6-.8c-.1-.2,2.2-1.4,3.5-1.6,5.3-.8,5.3-.7,6-6.2l.3-2.8a5.9,5.9,0,0,0-.2-1.3" transform="translate(-3.6 -121.7)" fill="#fd5b00"/><path d="M492.6,205c17,23.7,23.9,49.7,21.3,78.4-3.3.6-6.1.5-8.6-2.3-4.3-4.8-9.1-9.2-13.6-13.8a6.2,6.2,0,0,1-1.8-3c-3.1-14.8-6.2-29.6-9.2-44.4a3.4,3.4,0,0,1,.4-2.7c3.7-4.2,7.5-8,11.5-12.2" transform="translate(-3.6 -121.7)" fill="#fefefe"/><path d="M399,382.9c8.2-9.5,13.4-21.5,25.4-27.2,1.3,1.8,2.7,3.9,4.3,5.8a3.3,3.3,0,0,0,2.7.8c4.7-1.2,9.4-2.4,14-3.9a4.7,4.7,0,0,0,2.7-2.3c2.8-5.2,5.3-10.5,8-15.7a11.6,11.6,0,0,1,1.4-2.4c3.2-4,3.2-4,9.4-1.9l-.6,8.8c-.3,3.3,1.3,5.5,4.5,6.6s4.5.5,5.7-2.5a79,79,0,0,1,4.4-8.7l7.7,2.3c-14.6,23.2-63,45.1-89.6,40.3" transform="translate(-3.6 -121.7)" fill="#fefefe"/><path d="M463.5,331.5c4.9-2.6,4.1-6.4,3.1-10.3a22.1,22.1,0,0,0-.5-2.5c-2.5-5.6-.1-9.3,4.3-12.8a116.2,116.2,0,0,0,9.6-9,9.4,9.4,0,0,0,2-3.5c.9-3.1,1.5-6.3,2.3-9.7l-3.4-.8v-2.5l-6-.9,14-11c4.6,4.6,8.9,9.4,13.6,13.7,2.6,2.4,3.1,4.5,2,7.9-4.5,13.6-10.1,26.7-18.5,38.4l-2.5,3.3-7.8-8.3-4.3,6.3c-2.7,4-2.7,4-7.9,1.7" transform="translate(-3.6 -121.7)" fill="#fefefe"/><path d="M482.4,337.8c12.3-15.2,19.7-32.5,25.8-50.7h5.4c-1,4.7-1.9,9.4-3.1,13.9a110.2,110.2,0,0,1-17.8,36.8c-1.3,1.8-2.5,2.4-4.7,1.5s-3.5-.9-5.6-1.5" transform="translate(-3.6 -121.7)" fill="#fefefe"/><path d="M305.9,326.6a13.5,13.5,0,0,1,2.2,1.4c10.2,8.2,20.4,16.4,30.5,24.7a5.8,5.8,0,0,1,1.8,2.6c1,3.5,1.9,7,2.9,10.9a108.3,108.3,0,0,1-37.4-39.6" transform="translate(-3.6 -121.7)" fill="#fefefe"/><path d="M470.3,347.6a11.7,11.7,0,0,1-1.3-3c-.4-6.5,2.8-11.5,6.8-16.2,2.5,1.2,3.1,2.7,1.6,5.3-2.5,4.3-4.5,8.8-7.1,13.9" transform="translate(-3.6 -121.7)" fill="#fd5b00"/><path d="M317.8,348.6,304.4,345c-.7-3.4.4-5,4.9-7,2.7,3.4,5.4,6.9,8.5,10.6" transform="translate(-3.6 -121.7)" fill="#fd5b00"/><path d="M487.2,348.6l8.5-10.5c4.2,1.5,5.4,3.1,5.2,6.9l-13.7,3.6" transform="translate(-3.6 -121.7)" fill="#fd5b00"/><path d="M475.3,535.6H459.8L476,506.4l.8.2c-.4,9.6-1,19.2-1.5,29" transform="translate(-3.6 -121.7)" fill="#fd5b00"/><path d="M203.8,239.2a31.3,31.3,0,0,1-5.2-2,2.9,2.9,0,0,1-1.3-2.2,2.6,2.6,0,0,1,2.1-1.5,13.1,13.1,0,0,1,5.2.7c1.1.5,1.8,2,2.6,3.1l-3.4,1.9" transform="translate(-3.6 -121.7)" fill="#fefefe"/><path d="M603.1,233.3a16.5,16.5,0,0,1,3.3.5c1.4.6,1.8,1.6.7,2.9s-6.4,2.9-8.3,1.8-1.7-2.2-.3-3.1a20.2,20.2,0,0,1,4.6-2.1" transform="translate(-3.6 -121.7)" fill="#fefefe"/></svg>