<svg xmlns="http://www.w3.org/2000/svg" viewBox="0 0 500 566.9"><title>afturelding</title><path d="M8.9-8.1H180.6c24.5,0,49.7-2.4,69.1-24.7,18.7,22.3,45.9,24.7,75.5,24.7H490.4l9.2,40.8c-7.1-5.2-14.3-9.7-22.4-8.6s-16.1,5-16.1,25.7V304.5c0,.8-1.2,1.7-1.2,2.5-.1,35.8-2.5,102.3-44.4,134.7-30.4,23.5-61.3,25.3-109.5,43.6-28.7,10.9-45.7,26.9-56.3,45.9-5.9-9.7-20.2-31.3-48.7-43.2-35.4-14.8-93.5-23.9-121-48.6-35.5-31.9-40.5-87.9-40.8-131.8,0-1.1-1-2.1-1-3.1V48.3c0-13.1-4.3-21.8-13.6-23.8-11.2-2.3-17.6,3-25,8.1L8.9-8.1Z" transform="translate(0.4 32.8)" fill="#211c5b" fill-rule="evenodd"/><path d="M249.6,152.7c58.4,0,117.1,25.9,148.1,77A139.2,139.2,0,0,1,418,302.4c0,90.3-79.9,160.1-168.3,160.1S81.3,392.6,81.3,302.4a139.2,139.2,0,0,1,20.2-72.7c31-51.1,89.8-77,148.1-77Z" transform="translate(0.4 32.8)" fill="#fff" fill-rule="evenodd"/><path d="M461.1,304.9c0,35.2-1.6,105.1-44.4,138.2-30.4,23.5-62.3,25.7-110.5,44-28.7,10.9-45.9,28.1-56.5,47.1-5.9-9.7-20.2-31.9-48.7-43.8-35.4-14.8-94.7-25.3-122.2-50-36.3-32.6-40.5-91.2-40.6-135.4h0c0-58.8,30.1-108.5,77.3-140.8,8.1-4.5,9-5.4,15.9-7.3,15.5-4.2,27.5,5.8,30.4,11.6,9.7,19.7,2.8,27-9.1,36.5-30.6,23-50,57.3-50,97.5,0,74.2,65.8,138.6,146.9,138.6s146.9-64.5,146.9-138.6c0-37.1-16.4-69.1-43-91.9-24.7-17.8-23.6-27-15.9-41,5.2-9.4,22-25.3,54.1.4,42.6,32.2,69.3,79.6,69.3,135Z" transform="translate(0.4 32.8)" fill="#2b7c3d" fill-rule="evenodd"/><path d="M249.6,121c48.8,0,88.3,18.9,88.3,42.1s-39.6,42.1-88.3,42.1-88.3-18.9-88.3-42.1S200.9,121,249.6,121Z" transform="translate(0.4 32.8)" fill="#254098" fill-rule="evenodd"/><path d="M249.6,124.6c46.8,0,84.8,17.3,84.8,38.6s-38,38.6-84.8,38.6-84.8-17.3-84.8-38.6,38-38.6,84.8-38.6Z" transform="translate(0.4 32.8)" fill="#fff" fill-rule="evenodd"/><path d="M231.3,453.9l10.2,8h0a233,233,0,0,1-30.3-5.1c-5-1.2.2-5.9,0-10s-1.6-4.3-3.2-5.7c-3.2-2.9-11.1-3.5-14.5-2.9,1.7,1.7,1.2,7.3,5.7,10,2.2,1.3,6.2,1.9,6.7,3s.2,2.8.1,4.4c-6.5-1.6-13-3.5-19.3-5.6-4.6-1.5-1.7-7-1.5-10.8s-.8-6.2-2.9-7.9-7-3.7-10.7-4.6c-.5,2.4-.7,9.3,2.9,13,.9.9,4.6,2,6.3,3.8s.5,3,.6,4.7c-7.9-2.8-15.4-5.8-22.2-9-3.2-1.5-2.8-3.6-.3-6.2s6.1-6.5,1-11.7c-2.2-2.2-6.4-7-11.5-12.4-3.4,6.3-3.1,11.9-.3,16.1s4.8,4.2,6,7,.1,3.1-.4,4.4a167.2,167.2,0,0,1-23.2-14.1c-2.9-2.1-3.1-3.2-.6-6.4s6.3-7.9,6.5-11.8-3.7-6.9-8-11a71.2,71.2,0,0,1-8.4-10.2c-2.3,5.7-4.7,10.9-3.2,16.4s7.9,9.3,9.6,13c.9,1.8-.4,3.8-1.4,5.7a118.8,118.8,0,0,1-23.2-24.9c-1.8-2.6-1.7-5.1.3-7.9,3.2-4.6,9.5-9.3,9.7-14.2.3-7.8-7.8-9.3-8.7-21.6-5.1,5.5-7.3,12.2-6.3,18.9.7,4.5,3,7.5,3,11.2,0,1.9-1.2,5-2.3,6.9a136.6,136.6,0,0,1-13.6-32.1c-1-3.5-1.3-5.9,2.5-8,5.8-3.2,10.7-6.6,11.3-11.3s-1-5.8-2.1-9.7c-.7-2.3-2.2-5.6-1.9-11.3-4.2,3-9.4,7.2-10.4,12.7s2.6,8.7,2.3,12.7-2.4,4.2-4.2,5.3a284.6,284.6,0,0,1-5.9-39c-.2-2.2-.3-4.4,3.5-5,6.1-.8,13.9-1.7,16.8-6.6a12.9,12.9,0,0,0,2-5.9c.4-3.8-.9-8.1.9-12.6-6.2,1.6-9,3.3-12.8,7s-2.2,8.3-6.3,12a22,22,0,0,1-4.8,3.1,116.5,116.5,0,0,1,1.8-26.6c.8-4.2,2.1-4,4.7-4.4,9.2-1.4,16.9-4.8,22.4-9.2s8.3-9.9,10.3-15.3c-5.4,3.2-12.2.8-16.2,2.9-7.9,4.1-3.4,15.8-19.4,17.7,3.1-12.2,9.2-24.9,17-36.3,1-1.6,2.3-3.1,4.6-2.1,6.1,1.9,13.6,3.8,18.9,2.9,7-1.2,12.1-10.9,17.5-14.4a28.6,28.6,0,0,0-15.9-1.3c-5.1,1.3-6.8,6.2-10.6,8.6a10.1,10.1,0,0,1-6.6,1.4l-3.6-.9a126.5,126.5,0,0,1,15.7-17.2,39.6,39.6,0,0,1,15.7-9.1c3.1-.9,3.6-.4,6.6.4a23.4,23.4,0,0,0,9.7.6c4.3-.7,6.1-3.9,13.9-5-4.3-7.4-10.4-9.5-15-9.5s-8,3.2-10.9,6.2a9.8,9.8,0,0,1-5.6,3.3,44.1,44.1,0,0,0-8,3.2c-.1-4.3,3.2-7,4.9-9.6s1.4-5.8,2.5-8.7c1.6-4.5,10.6-7.2,8.8-11.8-8.2,1.5-18,6.3-21.1,13.1a9.7,9.7,0,0,0-.2,8.3c3.9,8.2,2.9,9.1-3,14.3A134.1,134.1,0,0,0,90,227.1a41,41,0,0,1-1.2-5.8c-.2-1.5,1.2-3.9,4.2-7.5,4.5-5.4,3.7-11.5,2.2-23.7-4.7,9.6-11.8,12.2-15,19.3-1.7,3.7-1.6,6.8.3,9.8s2.7,3.1,4.1,4.8c4.2,5,2.4,7.7-.2,12.4A110.6,110.6,0,0,0,74,262.5a130.7,130.7,0,0,0-2.8,15.1c-3.8-3.9-4.9-5.2-5.7-10.5-1.6-10.3,6.1-16.8-9.2-29.6-.7,5.6-.2,11.9-2.3,16.7s-3,8.7.7,12.8,7.5,5.8,11.4,9.7,4.4,5.8,4.2,11.5a112.2,112.2,0,0,0,.2,12.6q.7,9.1,1.7,17.6c-5-2.1-7.8-2-8.4-6.3s-1.1-8.6-2.2-11c-2.4-5.3-7-7.1-15.8-9.5,4.6,10.9-1.5,18.9,5.7,24.9,4.3,3.6,11.3,1.8,14.2,2.9,5.3,2,7.1,3.3,7.9,8.6a206.6,206.6,0,0,0,8.1,34.6c-5.3-1.3-9-3.6-11.3-7-5.7-8.5-2.3-11.9-21.8-19.3,3,7.3.5,17.7,6.4,22.9s15,2.6,25.2,7.6c3.5,1.7,4,2.6,5.5,6,4,8.8,8.1,17.1,13.5,24.8-3.1,0-6,1-9.3.2-7.2-1.7-8-4.7-9.5-7.8s-5.9-8.1-23.4-9.5c3.6,4.4,3.5,9.6,6.2,14.2s5.3,7.5,9.2,9.3c5.9,2.8,14.1,1.2,19-.5l2.4-.7c3.5-.7,8-1.5,10.6,1.6a127.6,127.6,0,0,0,21.3,20.1c-4.5.5-6.4,1-9,.5-8-1.6-10.5-5.7-17-6.2s-10.5,5.1-21.5,2.3c3.9,2.6,5.4,6.9,9.2,10.2a22,22,0,0,0,10.4,4.5c13.7,1.1,15.1-4.8,23.6-7.3,4.3-1.3,7.8-1.3,11.4,1.2a179.5,179.5,0,0,0,19.1,11,12.6,12.6,0,0,1-6.6.4c-3-.5-9.9-2.4-13.1-1.9-5.3.8-7.3,4.4-11.9,6.4a13.5,13.5,0,0,1-8.3,1.4c4.6,3.9,14.4,8.6,21.1,7.8a21.7,21.7,0,0,0,10-3.7c2.8-1.8,4.4-4.9,6.8-6.6s4.2-2.8,7.5-1.3a250.7,250.7,0,0,0,26,10.3c-1.1,1.1-2.8,1.7-5.4,1.5s-5.9-1.9-10.9-1.8c-8.8.2-14.9,8.5-19.5,9.1,4.3,2.4,9.3,3.6,15.2,4.6a24.8,24.8,0,0,0,8.6-.4c5.3-1.2,7.5-5.7,11.1-9s3.9-2.9,7.1-1.9c8.2,2.5,16.7,4.8,25.1,6.5-.1.2,0,.1-.8.7-3.2,2.8-10,1.3-14.4,1.2s-11.5,1.2-14.6,5.8c3.9.4,8.8,5.2,14.5,5.9,3.8.5,7.7-.3,9.9-2s3.4-5.5,5.6-8.3,3.1-2.5,6.1-1.9c6.7,1.3,13.4,2.2,19.8,2.8v.9l-19.2,18.8,13.9,10.2,14.1-27.7,13.5,28.1,16.3-11.4-20.2-19c6-.6,12.3-1.5,18.6-2.7,3.1-.6,4-.8,6.1,1.9s2.9,6.1,5.6,8.3,6.1,2.5,9.9,2c5.7-.7,10.7-5.5,14.5-5.9-3.2-4.5-9.9-5.9-14.6-5.8s-11.2,1.6-14.4-1.2c-.7-.6-.7-.5-.8-.7,8.4-1.8,16.8-4,25.1-6.5,3.1-1,4.5-.4,7.1,1.9s5.8,7.9,11.1,9a24.8,24.8,0,0,0,8.6.4c5.9-1,10.9-2.2,15.2-4.6-4.6-.6-10.6-8.9-19.5-9.1-5-.1-7.3,1.6-10.8,1.8s-4.3-.4-5.4-1.5a250.7,250.7,0,0,0,26-10.3c3.3-1.5,4.4-.8,7.5,1.3s4,4.8,6.8,6.6a21.7,21.7,0,0,0,10,3.7c6.8.8,16.5-3.9,21.1-7.8a13.5,13.5,0,0,1-8.3-1.4c-4.6-2-6.6-5.6-11.9-6.4-3.2-.5-10.1,1.5-13.1,1.9a12.6,12.6,0,0,1-6.6-.4,179.5,179.5,0,0,0,19.1-11c3.6-2.4,7.1-2.4,11.4-1.2,8.5,2.5,9.9,8.4,23.6,7.3a22,22,0,0,0,10.4-4.5c3.8-3.3,5.3-7.6,9.2-10.2-10.9,2.8-13.7-3-21.5-2.3s-9,4.6-17,6.2c-2.6.5-4.5.1-9-.5a127.6,127.6,0,0,0,21.3-20.1c2.6-3.1,7.1-2.4,10.6-1.6l2.4.7c4.8,1.7,13.1,3.3,19,.5,3.9-1.9,6.9-5.3,9.2-9.3s2.6-9.8,6.2-14.2c-17.5,1.5-21.4,5.6-23.4,9.5s-2.4,6.1-9.5,7.8c-3.2.8-6.2-.2-9.3-.2,5.4-7.7,9.5-16,13.5-24.8,1.6-3.4,2.1-4.3,5.5-6,10.1-5,18.7-1.9,25.2-7.6s3.5-15.6,6.4-22.9c-19.4,7.5-16,10.9-21.8,19.3-2.3,3.4-6,5.7-11.3,7a206.6,206.6,0,0,0,8.1-34.6c.8-5.4,2.6-6.6,7.9-8.6,2.9-1.1,9.9.7,14.2-2.9,7.2-6,1.1-14,5.7-24.9-8.8,2.4-13.4,4.1-15.8,9.5-1.1,2.4-1.6,6.9-2.2,11s-3.5,4.2-8.4,6.3q1-8.6,1.7-17.6a112.2,112.2,0,0,0,.2-12.6c-.2-5.7-.1-7.2,4.2-11.5s6.8-4.6,11.4-9.7,2.9-7.6.7-12.8-1.6-11.1-2.3-16.7c-15.3,12.8-7.6,19.3-9.2,29.6-.8,5.3-2,6.6-5.7,10.5a130.7,130.7,0,0,0-2.8-15.1,110.6,110.6,0,0,0-10.4-26.1c-2.6-4.8-4.3-7.4-.2-12.4,1.4-1.7,3.2-3.3,4.1-4.8s2-6,.3-9.8c-3.2-7.1-10.3-9.7-15-19.3-1.4,12.2-2.2,18.3,2.2,23.7,3,3.6,4.4,6,4.2,7.5a41,41,0,0,1-1.2,5.8,134.1,134.1,0,0,0-23.6-27.5c-5.9-5.1-6.9-6-3-14.3a9.7,9.7,0,0,0-.2-8.3c-3.1-6.9-12.9-11.6-21.1-13.1-1.8,4.7,7.2,7.3,8.8,11.8,1,2.9.9,6.4,2.5,8.7s5.1,5.3,4.9,9.6a44.1,44.1,0,0,0-8-3.2,9.8,9.8,0,0,1-5.6-3.3c-2.9-3-6.2-6.2-10.9-6.2s-10.7,2.1-15,9.5c7.8,1.1,9.6,4.3,13.9,5a23.4,23.4,0,0,0,9.7-.6c2.9-.8,3.5-1.3,6.6-.4a39.6,39.6,0,0,1,15.7,9.1A126.5,126.5,0,0,1,399.9,221l-3.6.9a10.1,10.1,0,0,1-6.6-1.4c-3.8-2.4-5.5-7.3-10.6-8.6a28.6,28.6,0,0,0-15.9,1.3c5.4,3.5,10.5,13.3,17.5,14.4,5.2.9,12.8-1,18.9-2.9,2.3-1,3.5.5,4.6,2.1,7.8,11.4,13.9,24,17,36.3-16-2-11.6-13.6-19.4-17.7-4-2.1-10.8.3-16.2-2.9,2,5.4,5.1,11.1,10.3,15.3s13.2,7.9,22.4,9.2c2.6.4,4,.2,4.7,4.4a116.5,116.5,0,0,1,1.8,26.6,22,22,0,0,1-4.8-3.1c-4.1-3.7-2.9-8.5-6.3-12s-6.5-5.4-12.8-7c1.8,4.5.5,8.7.9,12.6a12.9,12.9,0,0,0,2,5.9c3,4.9,10.7,5.8,16.8,6.6,3.8.6,3.7,2.7,3.5,5a284.6,284.6,0,0,1-5.9,39c-1.8-1.2-4-2.7-4.2-5.3s3.3-7.4,2.3-12.7-6.2-9.8-10.4-12.7c.3,5.7-1.2,9-1.9,11.3-1.1,3.8-2.8,5-2.1,9.7s5.6,8,11.3,11.3c3.8,2.1,3.5,4.5,2.5,8A136.6,136.6,0,0,1,402,386.6c-1.1-1.9-2.3-5-2.3-6.9,0-3.7,2.3-6.7,3-11.2,1-6.7-1.2-13.3-6.3-18.9-1,12.4-9.1,13.8-8.7,21.6.2,4.9,6.5,9.6,9.7,14.2,1.9,2.8,2.1,5.2.3,7.9a118.8,118.8,0,0,1-23.2,24.9c-1-1.9-2.3-3.9-1.4-5.7,1.8-3.7,8.2-7.6,9.6-13s-.9-10.7-3.2-16.4a71.2,71.2,0,0,1-8.4,10.2c-4.3,4-8.2,6.7-8,11s3.5,7.9,6.5,11.8,2.3,4.3-.6,6.4a167.2,167.2,0,0,1-23.2,14.1c-.5-1.3-1.2-2.6-.4-4.4s4.2-4.2,6-7,3-9.8-.3-16.1c-5.1,5.4-9.3,10.2-11.5,12.4-5.1,5.2-1.1,9.4,1,11.7s2.9,4.7-.3,6.2c-6.8,3.2-14.4,6.2-22.2,9,.1-1.6-.4-3.6.6-4.7s5.4-2.8,6.3-3.8c3.6-3.8,3.4-10.7,2.9-13-3.7.9-7.9,2.4-10.7,4.6s-3.1,4.7-2.9,7.9,3.1,9.3-1.5,10.8c-6.3,2.1-12.8,3.9-19.3,5.6-.1-1.6-.3-3.4.1-4.4s4.5-1.7,6.7-3c4.5-2.7,4-8.2,5.7-10-3.4-.6-11.3,0-14.5,2.9-1.6,1.5-3,3-3.2,5.7s5,8.8,0,10a235.8,235.8,0,0,1-28.7,4.9l9.3-7.7-9-6.9L250,457.7l-11.4-10.2-7.3,6.3Z" transform="translate(0.4 32.8)" fill="#fff" fill-rule="evenodd"/><path d="M168.3,199.6a136.7,136.7,0,0,0-12.7,8.4l54.2,62.8a74.7,74.7,0,0,0-14.4,11.9l-72.9-38.1a113.4,113.4,0,0,0-6.9,13.9l73.8,31.4a74.4,74.4,0,0,0-6,9.7H107.1c0,.9,0,1.8,0,2.8s0,3.9.1,5.8h285q.1-2.9.1-5.8c0-.9,0-1.8,0-2.8H315.8a74.4,74.4,0,0,0-6.4-10.2l73.9-31.5a113.7,113.7,0,0,0-7-13.9l-73,38.1a74.8,74.8,0,0,0-13.8-11.3l54.2-62.7a136.7,136.7,0,0,0-12.6-8.4l-49.4,66.7a73.8,73.8,0,0,0-15.5-5.4l15.4-57.2-13.8,2.4L257,259.6q-3.6-.3-7.3-.4t-7.3.4l-10.8-53.3-13.6-1.8,15.2,56.6a73.8,73.8,0,0,0-15.4,5.3l-49.5-66.8Z" transform="translate(0.4 32.8)" fill="#ec2027" fill-rule="evenodd"/><path d="M107.7,314.9a121.6,121.6,0,0,0,8.7,34.4c21.8,53.4,76.1,87.4,133.3,87.4s111.4-34,133.3-87.4a121.5,121.5,0,0,0,8.7-34.4h-73c-5,0-17.4.2-26.6,8.3a3.1,3.1,0,0,0,.8,5.3c2.5,1.2,8.8,1.1,12.6,1.1s4.6,5.1,1,5.2c-9.3.3-14.2.7-18.9,1.6-7,1.4-11.8,3.5-13.7,4.7-8.8,5.5-3.4,9.3.9,9s7.7-.6,10.8-.1a16.7,16.7,0,0,1,7.6,3.2c5.4,4.5,2.5,7.4-2.6,7.6s-8.7-.3-12.6.2a26,26,0,0,0-11,3.8,2.9,2.9,0,0,0,.1,4.9c3.3,2.1,11,3.2,13.2,4.9,4.1,3.2,1.4,3.8-3,3.6-.5,0-3.7-.1-5.9-.4s-8.4-.1-8.7.8,11.8,3.8,12.1,5.8-17-.2-17.9,2.1,1.8,2.2,4.6,3a42.9,42.9,0,0,1,6.2,2.3c1.1.6,1.9,2.7.5,3.2s-6.9,1.1-12.3.3-9.9-2.2-13.2-4.4c-1.4-1-7.2-4.8,3-5.8,3.9-.4-.3-3.9-3.6-4.4s-10.9-.9-13.1-.9c-4.4,0-3.4-3.7-1.4-5a14.7,14.7,0,0,1,6.2-2.1c4-.6,5-3.4-2.1-6.9-2.8-1.4-11.7-2.7-13.9-2.9-10.8-1.2-9.5-8.1-6-8.1,9.8.1,13.9-2,14.7-3.8s-3.5-4.6-8.5-6.7c-3.4-1.4-12.3-1.6-19-2.1a40.9,40.9,0,0,1-8.4-1.3c-6-2.4-9.6-8.2-1.2-6.9,5.3.8,14.3.4,18.1,0s5.7-1,6.6-2.1.1-4.2-3-5.4a57.2,57.2,0,0,0-14.7-3.6c-5.4-.6-11.1-.3-15.1-.6s-.8-4.9,2.8-5.1c6.1-.3,9.9,0,13-.2s3.9-2.2-1.4-2.2Z" transform="translate(0.4 32.8)" fill="#211c5b" fill-rule="evenodd"/><path d="M219.8,179.8H224a24.9,24.9,0,0,0-1.3-2.8c-.4-.6-.7-.9-.9-.9s-.4.3-.7.8-.7,1.5-1.3,3Zm-8.2,6.6c0-.6.4-1.1,1.2-1.3h.3q.9-.3,2.5-4.1l.8-1.9.8-1.8a38.6,38.6,0,0,0,2.6-7,2,2,0,0,1,.7-1.3,2.8,2.8,0,0,1,1.6-.3,5.4,5.4,0,0,1,2.1.3,3.9,3.9,0,0,1,1.5,1.1,15.3,15.3,0,0,1,1.7,2.8q1,1.9,2.8,5.9l1.1,2.7a11,11,0,0,0,1.8,3.4l.4.2q1.2.4,1.2,1.2t-1.3,1.5a13.4,13.4,0,0,1-4.2.5,17.8,17.8,0,0,1-4.5-.4c-.8-.3-1.3-.7-1.3-1.3a1.2,1.2,0,0,1,.2-.7l.6-.5.7-.4a.6.6,0,0,0,.2-.4c0-.4-.3-.7-.9-.8a13.4,13.4,0,0,0-3.1-.2,7.4,7.4,0,0,0-2.3.2.9.9,0,0,0-.6.9.7.7,0,0,0,.2.5l.7.3a1,1,0,0,1,.6.4,1.2,1.2,0,0,1,.2.7,1.4,1.4,0,0,1-1,1.3,8.9,8.9,0,0,1-3.2.4,8,8,0,0,1-3-.4,1.4,1.4,0,0,1-1-1.3Z" transform="translate(0.4 32.8)" fill="#ec2027"/><path d="M246.1,188h-9.2a1.5,1.5,0,0,1-1.7-1.7,1.6,1.6,0,0,1,.9-1.3l.6-.4a2.5,2.5,0,0,0,.5-1.3,27.8,27.8,0,0,0,.1-3.7v-3.4a28.9,28.9,0,0,0-.1-3,1.6,1.6,0,0,0-.3-1l-.5-.2c-.8-.2-1.2-.7-1.2-1.3s.5-1.1,1.5-1.5a17.1,17.1,0,0,1,8.2-.1c.9.3,1.4.8,1.4,1.4a1.5,1.5,0,0,1-1.1,1.3l-.5.2-.5.4a1.3,1.3,0,0,0-.2.6c0,.4-.1,1-.1,1.8s0,1.9,0,3.4v3.8a3.7,3.7,0,0,0,.4,2.1,2.1,2.1,0,0,0,1.5.4,4.7,4.7,0,0,0,2.2-.4,2.5,2.5,0,0,0,1.1-1.3l.2-.5q.4-1.2,1.1-1.2a1.6,1.6,0,0,1,1.3.6,2.3,2.3,0,0,1,.5,1.5,6.7,6.7,0,0,1-.4,2,7.5,7.5,0,0,1-.9,2,2.5,2.5,0,0,1-.7.7l-.8.2h-.3a14.1,14.1,0,0,0-3.1-.3Z" transform="translate(0.4 32.8)" fill="#ec2027"/><path d="M264,188h-9.2a1.5,1.5,0,0,1-1.7-1.7,1.6,1.6,0,0,1,.9-1.3l.6-.4a2.5,2.5,0,0,0,.5-1.3,27.8,27.8,0,0,0,.1-3.7v-3.4a28.9,28.9,0,0,0-.1-3,1.6,1.6,0,0,0-.3-1l-.5-.2c-.8-.2-1.2-.7-1.2-1.3s.5-1.1,1.5-1.5a17.1,17.1,0,0,1,8.2-.1c.9.3,1.4.8,1.4,1.4a1.5,1.5,0,0,1-1.1,1.3l-.5.2-.5.4a1.3,1.3,0,0,0-.2.6c0,.4-.1,1-.1,1.8s0,1.9,0,3.4v3.8a3.7,3.7,0,0,0,.4,2.1,2.1,2.1,0,0,0,1.5.4,4.7,4.7,0,0,0,2.2-.4,2.5,2.5,0,0,0,1.1-1.3l.2-.5q.4-1.2,1.1-1.2a1.6,1.6,0,0,1,1.3.6,2.3,2.3,0,0,1,.5,1.5,6.7,6.7,0,0,1-.4,2,7.5,7.5,0,0,1-.9,2,2.5,2.5,0,0,1-.7.7l-.8.2h-.3a14.1,14.1,0,0,0-3.1-.3Z" transform="translate(0.4 32.8)" fill="#ec2027"/><path d="M282.8,168.9l.8-.2,1-.2q1.2,0,2.2,1.6a6,6,0,0,1,1,3.3,2.7,2.7,0,0,1-.5,1.8,1.9,1.9,0,0,1-1.5.6,2.1,2.1,0,0,1-1.1-.3,3.1,3.1,0,0,1-.9-1l-.5-.8c-.4-.7-.7-1-1-1a.5.5,0,0,0-.5.3,1.6,1.6,0,0,0-.2.8v.3q0,.3,0,.6c0,.7,0,1.8-.1,3.4s-.1,2.8-.1,3.8a6.4,6.4,0,0,0,.2,2,1.6,1.6,0,0,0,.8.9l.4.2a1.3,1.3,0,0,1,1,1.3q0,1.1-1.4,1.6a15.4,15.4,0,0,1-4.6.5,11.7,11.7,0,0,1-4-.5c-1-.4-1.4-.9-1.4-1.5s.4-1,1.1-1.3l.5-.2q.6-.3.8-2.1a44.6,44.6,0,0,0,.3-5.6v-1.2a10,10,0,0,0-.2-2.3.6.6,0,0,0-.6-.5q-.5,0-1.1,1l-.3.5a6.2,6.2,0,0,1-1.2,1.4,1.9,1.9,0,0,1-1.1.4,1.6,1.6,0,0,1-1.2-.6,2.2,2.2,0,0,1-.5-1.5,5.3,5.3,0,0,1,.5-2,9.3,9.3,0,0,1,1.2-2.1l.9-.9.9-.3.7.2.7.2Z" transform="translate(0.4 32.8)" fill="#ec2027"/><path d="M148,378.8a1.2,1.2,0,0,0,1.6.2,33.2,33.2,0,0,0,4.5-3.9l.4-.4h.1q.9-.8.9-1.2a1.6,1.6,0,0,0-.6-1l-.4-.4-.3-.3a1,1,0,0,1-.3-.7,1.1,1.1,0,0,1,.4-.7,1.6,1.6,0,0,1,1.4-.3,9.2,9.2,0,0,1,2.5.9,20.6,20.6,0,0,1,3,1.8,19.6,19.6,0,0,1,2.6,2.2,3.3,3.3,0,0,1,.9,1.3,1,1,0,0,1-.3,1,1.3,1.3,0,0,1-1.5.2l-.5-.2a1.1,1.1,0,0,0-.8.3l-2,1.7-.5.5-1.3,1.3a25.8,25.8,0,0,0-2.6,2.8,1.8,1.8,0,0,0-.5,1.3,2.8,2.8,0,0,0,.6,1.2l.5.8a1,1,0,0,1,0,.5l-.4.6a1.5,1.5,0,0,1-2,0,17.9,17.9,0,0,1-3.6-3.1,29.6,29.6,0,0,1-4-4.7q-.8-1.4-.1-2.1a1.1,1.1,0,0,1,.9-.4,1.4,1.4,0,0,1,.9.5l.3.3.3.3Z" transform="translate(0.4 32.8)" fill="#fff"/><path d="M160.9,391.9a1.2,1.2,0,0,0,1.6-.1,33.2,33.2,0,0,0,3.9-4.5l.4-.5h.1q.7-1,.7-1.3a1.6,1.6,0,0,0-.7-.9l-.4-.3-.3-.2a1,1,0,0,1-.4-.7,1.1,1.1,0,0,1,.3-.8,1.6,1.6,0,0,1,1.4-.5,9.2,9.2,0,0,1,2.6.5,20.6,20.6,0,0,1,3.2,1.4,19.4,19.4,0,0,1,2.9,1.8,3.3,3.3,0,0,1,1.1,1.2,1,1,0,0,1-.2,1,1.3,1.3,0,0,1-1.4.4h-.5a1.1,1.1,0,0,0-.8.4l-1.7,2-.4.5-1.1,1.4a25.9,25.9,0,0,0-2.2,3.1,1.8,1.8,0,0,0-.3,1.4,2.8,2.8,0,0,0,.7,1.1l.6.7a1,1,0,0,1,.1.5,1.7,1.7,0,0,1-.3.6,1.5,1.5,0,0,1-1.9.3,18,18,0,0,1-4-2.6,29.7,29.7,0,0,1-4.6-4.1c-.7-.9-.8-1.6-.4-2.1a1.1,1.1,0,0,1,.8-.5,1.4,1.4,0,0,1,.9.4l.3.3.3.3Z" transform="translate(0.4 32.8)" fill="#fff"/><path d="M172.3,400.7a3.1,3.1,0,0,1,2.1-1.4,3.2,3.2,0,0,1,3.3,5,3.2,3.2,0,0,1-2.1,1.4,3.2,3.2,0,0,1-3.8-2.6,3.1,3.1,0,0,1,.5-2.4Z" transform="translate(0.4 32.8)" fill="#fff"/><path d="M193.8,407.1l3.8,1.6a24.8,24.8,0,0,0-.1-3.1c-.1-.7-.2-1.1-.4-1.2s-.5.1-.9.4l-2.4,2.2ZM183.7,410c.2-.6.8-.8,1.7-.7h.4q.9,0,3.9-2.8L191,405l1.4-1.4a38.6,38.6,0,0,0,5.2-5.5,2,2,0,0,1,1.1-1,2.8,2.8,0,0,1,1.6.3,5.4,5.4,0,0,1,1.8,1.1,3.9,3.9,0,0,1,.9,1.6,15.3,15.3,0,0,1,.5,3.2q.2,2.2.2,6.5c0,.7,0,1.7,0,2.9a11,11,0,0,0,.3,3.9l.3.3q.9.8.6,1.6a1.6,1.6,0,0,1-1.8.9,13.4,13.4,0,0,1-4-1.2,17.8,17.8,0,0,1-4-2.1c-.7-.6-.9-1.1-.7-1.7a1.2,1.2,0,0,1,.5-.6l.7-.2h.8l.3-.3c.2-.4,0-.7-.5-1.1a13.4,13.4,0,0,0-2.7-1.4,7.4,7.4,0,0,0-2.3-.7.9.9,0,0,0-.9.5.7.7,0,0,0,0,.5l.6.6a1,1,0,0,1,.4.6,1.2,1.2,0,0,1-.1.8,1.4,1.4,0,0,1-1.5.8,8.9,8.9,0,0,1-3.1-.9,8,8,0,0,1-2.6-1.6,1.4,1.4,0,0,1-.4-1.6Z" transform="translate(0.4 32.8)" fill="#fff"/><path d="M216.7,416.7v.7a8.3,8.3,0,0,0-.3,2.3,1.5,1.5,0,0,0,.5.9h.1a1.3,1.3,0,0,1,.5,1.3,1.6,1.6,0,0,1-1.5,1.2,11.5,11.5,0,0,1-3.9-.4,12.6,12.6,0,0,1-3.9-1.4,1.7,1.7,0,0,1-.9-1.8,1.3,1.3,0,0,1,1-1l1-.4a7.2,7.2,0,0,0,.9-2.3q.6-2,1.8-7.5a5,5,0,0,0,.2-1.6,1.2,1.2,0,0,0-.4-.8l-.5-.4a1.4,1.4,0,0,1-.8-1.5,1.2,1.2,0,0,1,.9-.9,4.7,4.7,0,0,1,2.1.1l1,.3.8.2,2.7.5,3.2.6q3.8.9,5.3,2.7a5.4,5.4,0,0,1,.8,4.8,6,6,0,0,1-3,4.2,8.4,8.4,0,0,1-5.9.4l-1.5-.4Zm1.2-6v.6a11.8,11.8,0,0,0-.4,1.9.4.4,0,0,0,.4.4,2.1,2.1,0,0,0,1.8-.3,3.2,3.2,0,0,0,1.1-1.9,3.9,3.9,0,0,0,0-2.3,1.8,1.8,0,0,0-1.3-1.1.6.6,0,0,0-.6.3,9.6,9.6,0,0,0-.6,2.1v.4Z" transform="translate(0.4 32.8)" fill="#fff"/><path d="M238.2,416.2h.7a1.7,1.7,0,0,0,1.5-.5,3.9,3.9,0,0,0,.6-2.1,2.6,2.6,0,0,0-.3-1.7,1.7,1.7,0,0,0-1.3-.7.7.7,0,0,0-.8.3,6.2,6.2,0,0,0-.3,1.9v1.7c0,.2,0,.6,0,.9Zm-.2,3.3v2.6a7.4,7.4,0,0,0,0,1.6,1.1,1.1,0,0,0,.4.6l.2.2a1.6,1.6,0,0,1,.8,1.4,1.4,1.4,0,0,1-1.2,1.2,13.3,13.3,0,0,1-3.9,0,13.4,13.4,0,0,1-4-.8q-1.2-.5-1.1-1.5c0-.5.4-.9,1.2-1.2h.3c.2-.1.4-.7.7-1.9a44.9,44.9,0,0,0,.6-4.7c.2-2.4.3-4,.3-4.8a2.7,2.7,0,0,0-.2-1.4l-.5-.4c-.7-.4-1-.9-.9-1.4a1.2,1.2,0,0,1,1-1.1,6.8,6.8,0,0,1,2.6-.2h2.6l2.8.2,2.3.2a8.9,8.9,0,0,1,5,1.7,4.2,4.2,0,0,1,1.5,3.8,4.3,4.3,0,0,1-.6,2,4,4,0,0,1-1.5,1.4l-.6.3c-.4.2-.6.3-.6.5s.2.4.7.6l.9.4a3.4,3.4,0,0,1,1.2,1.4,5.9,5.9,0,0,1,.6,2.2c0,.2,0,.5.1.9s.2,1.5.4,1.7l.3.2c.7.4,1.1.8,1.1,1.3s-.5,1.1-1.3,1.4a7.3,7.3,0,0,1-3.2.3,5.5,5.5,0,0,1-3.4-1.2,6.7,6.7,0,0,1-1.5-3.7v-.3q-.6-3.6-2-3.8H238Z" transform="translate(0.4 32.8)" fill="#fff"/><path d="M252.1,426a1.8,1.8,0,0,1,1-1.5l.5-.4a3.2,3.2,0,0,0,.4-1.7c.1-.9,0-2.5,0-4.6v-3.6a5.5,5.5,0,0,0-.2-1.5,1.3,1.3,0,0,0-.6-.7l-.3-.2a1.5,1.5,0,0,1-.9-1.2q0-1,1.2-1.5a12.1,12.1,0,0,1,3.9-.6,11.7,11.7,0,0,1,3.8.3q1.2.4,1.3,1.4a1.6,1.6,0,0,1-.9,1.3l-.4.3a5,5,0,0,0-.3,2.3q0,2,.1,7.2a10.4,10.4,0,0,0,.2,2.1,1.4,1.4,0,0,0,.5.7l.4.3a1.7,1.7,0,0,1,.9,1.3q0,1-1.2,1.5a12.6,12.6,0,0,1-4,.6,11.5,11.5,0,0,1-3.9-.4c-.9-.3-1.4-.8-1.4-1.4Zm9.3-21.3a.5.5,0,0,1-.2.4l-.7.3-3.7,1-1.7.4a.8.8,0,0,1-.7-.3,1.6,1.6,0,0,1-.3-.9c0-.3.4-.6,1.4-1l.4-.2,3.2-1.3,1.1-.4c.3,0,.5.2.8.6a3,3,0,0,1,.4,1.4Z" transform="translate(0.4 32.8)" fill="#fff"/><path d="M278.6,424.6l-9,1.7a1.5,1.5,0,0,1-1.9-1.3,1.6,1.6,0,0,1,.6-1.5l.5-.5a2.5,2.5,0,0,0,.3-1.3,27.7,27.7,0,0,0-.6-3.7l-.6-3.3a29,29,0,0,0-.7-2.9c-.2-.5-.3-.8-.5-.9h-.6a1.4,1.4,0,0,1-1.4-1.1q-.2-.9,1.2-1.7a17.1,17.1,0,0,1,8-1.6c1,.1,1.5.5,1.6,1.1a1.5,1.5,0,0,1-.8,1.5l-.4.3-.4.5a1.3,1.3,0,0,0,0,.6c0,.4.1,1,.3,1.8l.6,3.3.5,2.7.2,1a3.7,3.7,0,0,0,.8,2,2.1,2.1,0,0,0,1.6.1,4.7,4.7,0,0,0,2.1-.8,2.5,2.5,0,0,0,.8-1.5v-.5q.2-1.2.9-1.4a1.6,1.6,0,0,1,1.4.4,2.3,2.3,0,0,1,.8,1.4,6.7,6.7,0,0,1,0,2.1,7.5,7.5,0,0,1-.5,2.1,2.5,2.5,0,0,1-.6.9l-.8.4h-.3a14.1,14.1,0,0,0-3.1.3Z" transform="translate(0.4 32.8)" fill="#fff"/><path d="M298.6,415.7a1.2,1.2,0,0,0,.7-1.4,33.1,33.1,0,0,0-2.1-5.6l-.2-.5H297c-.3-.7-.6-1.2-.8-1.3a1.6,1.6,0,0,0-1.1.2l-.5.2-.3.2a1,1,0,0,1-.8.1,1.1,1.1,0,0,1-.5-.6,1.6,1.6,0,0,1,.2-1.4,9.2,9.2,0,0,1,1.7-2,20.6,20.6,0,0,1,2.8-2.1,19.5,19.5,0,0,1,3-1.6,3.3,3.3,0,0,1,1.5-.4,1,1,0,0,1,.8.6,1.3,1.3,0,0,1-.4,1.4l-.4.4a1.1,1.1,0,0,0,0,.9,19.2,19.2,0,0,0,.9,2.5l.3.6.7,1.7a25.8,25.8,0,0,0,1.7,3.5,1.8,1.8,0,0,0,1.1.9,2.8,2.8,0,0,0,1.3-.1l.9-.2.5.2.4.6c.3.6,0,1.2-.7,1.8a17.9,17.9,0,0,1-4.2,2.3,29.6,29.6,0,0,1-5.9,2c-1.1.2-1.8-.1-2-.7a1.1,1.1,0,0,1,0-.9,1.4,1.4,0,0,1,.8-.6h.8Z" transform="translate(0.4 32.8)" fill="#fff"/><path d="M316.4,401.7a.6.6,0,0,0,.3-.5,1.5,1.5,0,0,0-.2-.8,4.7,4.7,0,0,0-1.6-1.8,1.6,1.6,0,0,0-1.7-.3.7.7,0,0,0-.3.6,1.7,1.7,0,0,0,.3.9,4.1,4.1,0,0,0,1.6,1.7,1.7,1.7,0,0,0,1.7.2Zm.8,4.2-.8.7-.6.4a4.8,4.8,0,0,1-4.3.2,7.4,7.4,0,0,1-3.7-3.4,6.3,6.3,0,0,1-.6-5.4A9.2,9.2,0,0,1,317,393a6.3,6.3,0,0,1,4.3,3.3,14.3,14.3,0,0,1,1.7,5.8,23.9,23.9,0,0,1-.5,7.1,7,7,0,0,1-.5,1.6,1.6,1.6,0,0,1-.7.7,5,5,0,0,1-2.5.5q-1.5,0-1.8-.5a11.1,11.1,0,0,1,.4-2,5.4,5.4,0,0,0-.2-3.6Z" transform="translate(0.4 32.8)" fill="#fff"/><path d="M328.2,391.1a10.7,10.7,0,0,0,2.8,2.6c1,.6,1.6.7,2,.4a.9.9,0,0,0,.2-1,5.1,5.1,0,0,0-1-1.7,11.2,11.2,0,0,0-2.8-2.6c-.9-.6-1.6-.7-2-.4a.9.9,0,0,0-.3,1,5.1,5.1,0,0,0,1,1.7Zm-4.3,4.7a8.4,8.4,0,0,1-2-6.1,7.3,7.3,0,0,1,2.9-5.3,7,7,0,0,1,5.8-1.4,9.4,9.4,0,0,1,5.6,3.7,8.9,8.9,0,0,1,2.1,6.1,6.8,6.8,0,0,1-2.7,5.2,7.3,7.3,0,0,1-6,1.5,9.3,9.3,0,0,1-5.8-3.6Z" transform="translate(0.4 32.8)" fill="#fff"/><path d="M344.9,378.4a.6.6,0,0,0,.1-.6,1.5,1.5,0,0,0-.5-.7,4.7,4.7,0,0,0-2.1-1.2,1.6,1.6,0,0,0-1.7.2.7.7,0,0,0-.2.7,1.7,1.7,0,0,0,.5.8,4.1,4.1,0,0,0,2.1,1.1,1.7,1.7,0,0,0,1.7-.3Zm2,3.8-.5.9-.4.6a4.8,4.8,0,0,1-4.1,1.5,7.4,7.4,0,0,1-4.5-2.2,6.3,6.3,0,0,1-2.1-5,9.2,9.2,0,0,1,7.8-8,6.3,6.3,0,0,1,5.1,1.9,14.3,14.3,0,0,1,3.3,5,23.9,23.9,0,0,1,1.6,7,7,7,0,0,1,0,1.7,1.6,1.6,0,0,1-.4.9,5,5,0,0,1-2.3,1.2q-1.5.4-1.9,0a11,11,0,0,1-.2-2.1,5.4,5.4,0,0,0-1.2-3.3Z" transform="translate(0.4 32.8)" fill="#fff"/><path d="M190.6,169.3a1.8,1.8,0,0,1,.3-1.8l.3-.6a3.2,3.2,0,0,0-.4-1.7q-.5-1.3-2.1-4.1l-1.7-3.1a5.4,5.4,0,0,0-.9-1.3,1.3,1.3,0,0,0-.8-.4h-.4a1.4,1.4,0,0,1-1.3-.7,1.6,1.6,0,0,1,.5-1.9,12.2,12.2,0,0,1,3.3-2.3,11.7,11.7,0,0,1,3.6-1.4,1.5,1.5,0,0,1,1.7.7,1.6,1.6,0,0,1-.2,1.6l-.2.5a5,5,0,0,0,.7,2.2q.8,1.8,3.3,6.4a10.4,10.4,0,0,0,1.1,1.8,1.4,1.4,0,0,0,.8.4h.5a1.7,1.7,0,0,1,1.4.8q.5.9-.5,1.9a12.6,12.6,0,0,1-3.3,2.3,11.5,11.5,0,0,1-3.7,1.4c-1,.1-1.6-.1-1.9-.6Zm-1-23.2a.5.5,0,0,1,0,.4l-.5.6-2.9,2.6-1.3,1.1a.8.8,0,0,1-.8,0,1.6,1.6,0,0,1-.7-.7c-.1-.3.1-.8.8-1.5l.3-.3,2.3-2.6.9-.8a.9.9,0,0,1,.9.2,3,3,0,0,1,.9,1.1Z" transform="translate(0.4 32.8)" fill="#ec2027"/><path d="M208.4,163.3a14.9,14.9,0,0,1-4.2.9,6.1,6.1,0,0,1-3-.3,4.5,4.5,0,0,1-1.5-1.4,10,10,0,0,1-1.2-2.4,2.1,2.1,0,0,1-.1-1.3,1.2,1.2,0,0,1,.8-.7,2.2,2.2,0,0,1,2,.6l.6.4a6.5,6.5,0,0,0,2.5,1,4.4,4.4,0,0,0,2.3-.2,2.5,2.5,0,0,0,1.2-.8,1,1,0,0,0,.2-1c-.2-.5-1-.7-2.4-.6h-1.6a10.3,10.3,0,0,1-4.8-1.1,5.6,5.6,0,0,1-2.6-3.1,5.7,5.7,0,0,1,.5-5.1,8.4,8.4,0,0,1,4.6-3.6l2.5-.6,1.3-.2.8-.4.7-.4a2.8,2.8,0,0,1,2.5.7,4.9,4.9,0,0,1,2,2.3,2.1,2.1,0,0,1,0,1.6,1.8,1.8,0,0,1-1.1,1,3.5,3.5,0,0,1-2.4-.5l-.7-.3-1.5-.3-1.5.2a2,2,0,0,0-1,.7,1,1,0,0,0-.1.9q.4,1,3.5.7H208a7.1,7.1,0,0,1,4.1.8,5.4,5.4,0,0,1,2.3,2.9,6.1,6.1,0,0,1-.6,5.6,10.1,10.1,0,0,1-5.4,4Z" transform="translate(0.4 32.8)" fill="#ec2027"/><path d="M226.9,157.7l-9,1.6a1.5,1.5,0,0,1-1.9-1.3,1.6,1.6,0,0,1,.7-1.5l.5-.5a2.5,2.5,0,0,0,.3-1.3,27.8,27.8,0,0,0-.5-3.7l-.6-3.3a28.6,28.6,0,0,0-.6-2.9,1.6,1.6,0,0,0-.5-.9h-.6a1.4,1.4,0,0,1-1.4-1.1q-.2-1,1.2-1.7a17.1,17.1,0,0,1,8.1-1.5c.9.2,1.5.5,1.6,1.2a1.5,1.5,0,0,1-.8,1.5l-.4.3-.4.5a1.3,1.3,0,0,0-.1.6c0,.4.1,1,.2,1.8l.6,3.4.5,2.7.2,1a3.7,3.7,0,0,0,.7,2,2.1,2.1,0,0,0,1.6.1,4.7,4.7,0,0,0,2.1-.8,2.5,2.5,0,0,0,.9-1.5v-.5q.2-1.2.9-1.4a1.6,1.6,0,0,1,1.4.4,2.3,2.3,0,0,1,.8,1.4,6.7,6.7,0,0,1,0,2.1,7.5,7.5,0,0,1-.6,2.1,2.5,2.5,0,0,1-.6.8l-.8.4H230a14.1,14.1,0,0,0-3.2.2Z" transform="translate(0.4 32.8)" fill="#ec2027"/><path d="M241.1,148.2h4.2a25,25,0,0,0-1.4-2.8c-.4-.6-.7-.9-.9-.9s-.4.3-.7.8-.7,1.5-1.2,3Zm-8,6.8c0-.6.4-1.1,1.2-1.4h.3q.9-.3,2.4-4.1l.8-1.9.8-1.8a38.6,38.6,0,0,0,2.5-7.1,2,2,0,0,1,.6-1.3,2.8,2.8,0,0,1,1.6-.4,5.4,5.4,0,0,1,2.1.3,3.9,3.9,0,0,1,1.5,1.1,15.3,15.3,0,0,1,1.8,2.8q1,1.9,2.9,5.9l1.2,2.7a11,11,0,0,0,1.9,3.4l.4.2q1.2.4,1.2,1.2c0,.7-.4,1.2-1.3,1.5a13.4,13.4,0,0,1-4.2.5,17.8,17.8,0,0,1-4.5-.3c-.9-.2-1.3-.7-1.3-1.3a1.2,1.2,0,0,1,.2-.7l.6-.5.7-.4a.6.6,0,0,0,.2-.4c0-.4-.3-.7-1-.8a13.5,13.5,0,0,0-3.1-.2,7.4,7.4,0,0,0-2.3.3.9.9,0,0,0-.6.9.7.7,0,0,0,.2.5l.7.3a1,1,0,0,1,.6.4,1.2,1.2,0,0,1,.2.7,1.4,1.4,0,0,1-1,1.3,8.9,8.9,0,0,1-3.2.5,8,8,0,0,1-3-.4,1.4,1.4,0,0,1-1-1.3Z" transform="translate(0.4 32.8)" fill="#ec2027"/><path d="M260.4,147.8q.4-3.2.4-4.6a4.5,4.5,0,0,0-.3-2l-.8-.7a1.3,1.3,0,0,1-.7-1.2,1.5,1.5,0,0,1,1.2-1.3,11.3,11.3,0,0,1,3.7,0l1.3.2.7.3.9.7,1.8,2,1.3,1.5q3.5,4.2,4.2,4.3a.5.5,0,0,0,.5-.2,2.1,2.1,0,0,0,.3-.9l.2-1.4v-.2a3.1,3.1,0,0,0,0-1.3,1.5,1.5,0,0,0-.7-.8h-.1a1.3,1.3,0,0,1-.7-1.3,1.4,1.4,0,0,1,1-1.2,9,9,0,0,1,3.3,0,8.3,8.3,0,0,1,2.9.7,1.3,1.3,0,0,1,.7,1.4,1.6,1.6,0,0,1-.3.8,2,2,0,0,1-.9.5,1.4,1.4,0,0,0-.8.5,8,8,0,0,0-.5,1.7q-.2,1.1-.5,2.3t-.5,3.6v.3q-.3,2.4-.5,3.5c-.1.7-.3,1.4-.4,1.9a3.2,3.2,0,0,1-.7,1.4,1.2,1.2,0,0,1-1.1.4,3.2,3.2,0,0,1-1.5-.9q-.9-.9-3.4-3.8l-2.3-2.8q-2.2-2.7-2.6-2.7a.7.7,0,0,0-.7.4,6.4,6.4,0,0,0-.4,1.9,11.6,11.6,0,0,0-.1,2,2.4,2.4,0,0,0,.2,1.1l.5.4a1.4,1.4,0,0,1,.7,1.3,1.5,1.5,0,0,1-1.1,1.3,6.9,6.9,0,0,1-2.9.1,7.8,7.8,0,0,1-2.9-.8,1.4,1.4,0,0,1-.8-1.5,1.5,1.5,0,0,1,1-1.1l.6-.3a2.9,2.9,0,0,0,.7-1.5,36.2,36.2,0,0,0,.6-4Z" transform="translate(0.4 32.8)" fill="#ec2027"/><path d="M278.8,157.6a1.7,1.7,0,0,1,1.6-1.1h.5c.2-.1.5-.7.9-1.7s.9-2.7,1.6-4.7l.2-.5,1.1-3.5c.2-.8.2-1.3-.2-1.6l-.2-.2a1.4,1.4,0,0,1-.4-.7,1.5,1.5,0,0,1,0-.8,1.4,1.4,0,0,1,1-1,6.7,6.7,0,0,1,2.8.5l1,.3,1,.3,1.8.5,3.4,1q4.4,1.3,6,4.5t.3,7.5a11.7,11.7,0,0,1-1.7,3.5A9,9,0,0,1,297,162a7.2,7.2,0,0,1-3.5,1.1,13.8,13.8,0,0,1-4.6-.7l-2.5-.8-3.1-1-1.6-.5-1.2-.4-.8-.4a1.4,1.4,0,0,1-.6-.7,1.4,1.4,0,0,1,0-1Zm11.3-6.9-1.3,4.4-.6,2.3a2,2,0,0,0,0,1,.9.9,0,0,0,.6.4,3.4,3.4,0,0,0,3.3-.5,7.6,7.6,0,0,0,2.2-3.8,9.6,9.6,0,0,0,.5-5.2,3.6,3.6,0,0,0-2.6-2.5h-.8l-.3.7-1,3.1Z" transform="translate(0.4 32.8)" fill="#ec2027"/><path d="M299.1,164.1a1.8,1.8,0,0,1,1.6-.8h.7q.4-.1,1.1-1.3c.5-.8,1.2-2.2,2.1-4.1l1.6-3.2a5.5,5.5,0,0,0,.5-1.5,1.3,1.3,0,0,0-.2-.9l-.2-.3a1.4,1.4,0,0,1-.2-1.5q.4-.9,1.8-.7a12.1,12.1,0,0,1,3.8,1.3,11.7,11.7,0,0,1,3.2,2.1,1.5,1.5,0,0,1,.5,1.8,1.6,1.6,0,0,1-1.4.8h-.5q-.4.1-1.4,1.9t-3.3,6.4a10.4,10.4,0,0,0-.8,1.9,1.4,1.4,0,0,0,.1.9l.2.4a1.7,1.7,0,0,1,.2,1.6c-.3.6-.9.8-1.8.7a12.6,12.6,0,0,1-3.8-1.3,11.5,11.5,0,0,1-3.2-2.2c-.7-.7-.9-1.3-.6-1.9Z" transform="translate(0.4 32.8)" fill="#ec2027"/><polygon points="195.8 211.6 209.5 211.6 209.5 215.6 195.8 215.6 195.8 211.6 195.8 211.6" fill="#ec2027" fill-rule="evenodd"/><polygon points="290.9 211.6 304.7 211.6 304.7 215.6 290.9 215.6 290.9 211.6 290.9 211.6" fill="#ec2027" fill-rule="evenodd"/><path d="M48,29.3c10.8,6,15.9,18.7,14.4,31.5-1.9,15.7-3.9,27.1-3.5,35.9.5,13.8,3.6,21.5,9.1,29.4,8.7,12.5,22.5,17.1,32.1,16.8,18.9-.7,43.2-7.7,50.5-40.8,2.8-12.5,1.6-28.5-.9-48.9-1.3-11-2.4-14.1,7.3-24.2L147.2,2.6c-8.2,10-17.1,18.3-27,24.2,1.8,6.4,7.1,21.1,8.3,37.6,1.7,24.2-5.4,51.7-23.9,51.2-14.9-.4-23.5-17-20.8-47.7,1.1-12.5,4.6-28.7,10.1-44.2C81.5,22.4,71.3,20.1,63,10.6L48,29.3Z" transform="translate(0.4 32.8)" fill="#fff" fill-rule="evenodd"/><path d="M166.5,9.1c11.6,18.5,14.2,53.3,12.9,80.8-.4,9.1-6.3,16.2-15.9,22.7v9.2l36.7-8.6-2.8-54.5,23.3,26.9L240,54.4l1.8,54.2,35.8.6.9-6.7c-18.3-7.3-19-31.7-18.9-47.6.2-18.6-1.1-33.1,2.9-50.4l-16.2-.3L218.9,50.1C206.7,32.6,197.3,16.4,183.4,6L166.5,9.1Z" transform="translate(0.4 32.8)" fill="#fff" fill-rule="evenodd"/><path d="M345,43.4l-6-1.2C335,54.1,330.8,55,325.3,55s-10.8-4.3-10.1-10c1.4-12.1,10.7-20.1,18.8-20.7s17.3,5.6,18.4,18.5h10.1a108.3,108.3,0,0,1,6.3-35.3c-31.2,3.6-53.2,4.3-80.4-4.2l-1.8,13.2c7.3,5.4,8.7,19.5,9,27,.8,20.7-2.7,48.4-7.2,68.5a220.4,220.4,0,0,1,31.5,7.4l.9-9.5c-9.4-6.6-9.1-14.9-8-23.6.9-7.1,1.9-14.3,7.7-16.5s8.9,4.4,9.2,14.7l7.7,1.8A183.5,183.5,0,0,1,345,43.4Z" transform="translate(0.4 32.8)" fill="#fff" fill-rule="evenodd"/><path d="M337.5,122.7c30.3-36.5,55-75.5,49-109.6l12.2-8c11.2,12,23.9,19.6,41.6,25.1a307.2,307.2,0,0,0-7.2,74.8c.6,20.2,2.8,40.8,9.7,57.5l-8.9,15a194.2,194.2,0,0,0-27.2-23.3,50,50,0,0,0,10.4-24.2c1.8-11.8-2.2-24.1-12.2-30.6-7.5-4.9-21.1-1.8-25.4,6.1s-.6,21.4,4,28.8l-4.9,6.1a207.5,207.5,0,0,0-41-17.7Zm70.4-76.8L394.2,65.5a7.5,7.5,0,0,0,.3,8.9c4.7,6.1,11.8,12.7,19.3,14.5,5.4,1.3,6.1-2.2,6.3-5,.4-7.7-2.7-28.4-5.8-36.6-1-2.7-4.1-4.5-6.3-1.4Z" transform="translate(0.4 32.8)" fill="#fff" fill-rule="evenodd"/></svg>