<svg xmlns="http://www.w3.org/2000/svg" xmlns:xlink="http://www.w3.org/1999/xlink" viewBox="0 0 270.1 323.8"><defs><clipPath id="a" transform="translate(-0.9 -0.5)"><path d="M24.1,43.4C136,12,136,12,249.1,43.4c0,0,27.4,160.6-113.1,256.7C-4.1,203.9,24.1,43.4,24.1,43.4" fill="none"/></clipPath><clipPath id="b" transform="translate(-0.9 -0.5)"><rect width="272" height="324.99" fill="none"/></clipPath></defs><title>augnablik</title><path d="M4.4,27.6c134.1-36.2,127.9-36.2,263.4,0,0,0,36,185.5-132.4,296.6C-32.5,213.1,4.4,27.6,4.4,27.6" transform="translate(-0.9 -0.5)" fill="#00856a"/><path d="M24.1,43.4C136,12,136,12,249.1,43.4c0,0,27.4,160.6-113.1,256.7C-4.1,203.9,24.1,43.4,24.1,43.4" transform="translate(-0.9 -0.5)" fill="#00856a"/><g clip-path="url(#a)"><g clip-path="url(#b)"><path d="M108.5,277.8l28.7,24S183,272.4,191,242.1c5.5-20.9-3.3-55.2-3.3-55.2s3.7,35.9-33.1,41.9c16.7-17.7,29.5-34.7,17.6-53-4.7-7.3-17.4-14-17.4-14s3,21.9-3.9,37.9c-8.8,20.3-47.6,29.6-47.4,29.2,6.6-13.4,39.1-27,39.1-47.8-27.4,26.5-42.8,28-55.7,43.9-8.4,10.4-4.7,18.4-.9,29.2S108.5,277.8,108.5,277.8Z" transform="translate(-0.9 -0.5)" fill="#ed1c24"/><path d="M108.5,277.8l28.7,24S183,272.4,191,242.1c5.5-20.9-3.3-55.2-3.3-55.2s3.7,35.9-33.1,41.9c16.7-17.7,29.5-34.7,17.6-53-4.7-7.3-17.4-14-17.4-14s3,21.9-3.9,37.9c-8.8,20.3-47.6,29.6-47.4,29.2,6.6-13.4,39.1-27,39.1-47.8-27.4,26.5-42.8,28-55.7,43.9-8.4,10.4-4.7,18.4-.9,29.2S108.5,277.8,108.5,277.8Z" transform="translate(-0.9 -0.5)" fill="none" stroke="#fff" stroke-miterlimit="3.86" stroke-width="3.59"/></g></g><path d="M29,47.7c-1.4,10.6-4.6,45.2,4,87.3C42.2,180.8,67.7,245.1,136,293.4c68.6-48.3,94.3-112.6,103.8-158.4,8.7-42.1,5.7-76.6,4.4-87.3C137.2,18,134.9,18,29,47.7Z" transform="translate(-0.9 -0.5)" fill="none"/><path d="M254.5,42.4,254,39l-3.4-.9c-57-15.8-85.5-23.7-114.4-23.7S79,22.3,22.6,38.1l-3.3.9-.6,3.4c-.3,1.7-7.1,41.8,3.5,94.3a269.6,269.6,0,0,0,32.6,85.5c19.3,32.3,45.6,60,78.2,82.4l3.1,2.1,3.1-2.1c32.7-22.4,59.1-50.1,78.6-82.4a270.9,270.9,0,0,0,33-85.5C261.4,84.2,254.8,44.1,254.5,42.4ZM239.8,135c-9.5,45.8-35.2,110.1-103.8,158.4C67.7,245.1,42.2,180.8,33,135c-8.5-42.1-5.3-76.7-4-87.3C134.9,18,137.2,18,244.2,47.7,245.5,58.3,248.5,92.9,239.8,135Z" transform="translate(-0.9 -0.5)" fill="#ed1c24"/><path d="M162.4,93.8V84.1h4.9c1.9,0,2.9,1,2.9,4.9s-.9,4.8-2.9,4.8h-4.9m0-14.1V70.6h4.3c2,0,2.9.8,2.9,4.5s-.9,4.6-2.9,4.6Zm-5.7,18.8h11.3c6.4,0,7.9-2.9,7.9-9.2s-1.6-7.3-5.3-7.8c3.5-.6,4.5-2.6,4.5-7.3,0-6.5-1.5-8.4-7.9-8.4H156.6Z" transform="translate(-0.9 -0.5)" fill="#fff" fill-rule="evenodd"/><polyline points="178.2 98 194.6 98 194.6 92.9 184 92.9 184 65.2 178.2 65.2 178.2 98" fill="#fff"/><rect x="197.7" y="65.2" width="5.8" height="32.8" fill="#fff"/><path d="M214.8,77.6V65.7H209V98.5h5.8V86.3l1.7-2.6,6.3,14.8H229L220.3,78l8.2-12.3h-5.8l-7.8,11.9" transform="translate(-0.9 -0.5)" fill="#fff"/><path d="M52.9,87.9H47l2.9-14.7,3,14.7m-6.9,5h7.9l1.1,5h5.9L53,65H47.1L39.3,97.9h5.6Z" transform="translate(-0.9 -0.5)" fill="#fff" fill-rule="evenodd"/><path d="M73.5,98.4c8.3,0,9.9-2.5,9.9-12.1V65.1H78V86.3c0,5.5-.6,6.8-4.4,6.8s-4.4-1.4-4.4-6.9V65.1H63.3V86.4c0,9.8,1.8,12.1,10.2,12.1" transform="translate(-0.9 -0.5)" fill="#fff"/><path d="M97,98.3a37.6,37.6,0,0,0,7.9-.8V82.4h-5V93.2a14.4,14.4,0,0,1-3,.2c-4.1,0-4.7-1.3-4.7-10.4V80.2c0-9.1.6-10.3,4.7-10.3a48.1,48.1,0,0,1,6.2.5l.7-5.1a46.2,46.2,0,0,0-6.9-.5c-8.6,0-10.6,2.6-10.6,16.8s2,16.8,10.6,16.8" transform="translate(-0.9 -0.5)" fill="#fff"/><polyline points="107.6 97.4 113 97.4 113 76.9 122.4 97.4 127.4 97.4 127.4 64.6 122 64.6 122 84.4 113.1 64.6 107.6 64.6 107.6 97.4" fill="#fff"/><path d="M144.8,87.9h-5.9l2.9-14.7,3,14.7m-6.9,5h7.9l1.1,5h5.9L144.9,65h-5.9l-7.8,32.9h5.6Z" transform="translate(-0.9 -0.5)" fill="#fff" fill-rule="evenodd"/><path d="M81.3,240.4a2.2,2.2,0,0,1-1.8-.9c-30.1-43.1-43.2-65.3-51.6-111.9-5.5-30.2-1.6-77.5-1.4-79.5V46.7l1.3-.5c.7-.2,65.7-23.1,108.6-23.1h0c42.5,0,107,22.4,107.6,22.6l1.4.5v1.5c.1,3.3,3.2,82.5-15.8,129-10.3,25.2-19.6,39.5-35.3,60.3a2.2,2.2,0,0,1-3.5-2.6c15.5-20.5,24.6-34.6,34.7-59.3C243,132.9,241.7,60.7,241.3,49.4c-9.7-3.3-66.5-21.9-104.8-21.9h0c-38.7,0-96.3,19.1-105.8,22.4-.6,8.2-3.4,50.2,1.5,77,8.3,45.7,21.2,67.6,50.9,110.1a2.2,2.2,0,0,1-1.8,3.5Z" transform="translate(-0.9 -0.5)" fill="#fff"/><path d="M127.4,118.4c-2,.7-4,1.2-5.9,2-6.3,2.6-11.6,6.8-16.7,11.3L93.2,142l-1.8,1.4-5.7-6.9c9.7-8.1,18.1-17.6,29.6-23.1,14.5-6.9,28.9-6.3,43,1.2,8.2,4.4,14.7,10.8,21.3,17.2,2.1,2,3.9,4.2,6.1,6.6l-5.7,6.2-7.4-7.1c-5.4-5.2-10.8-10.3-17.2-14.2a35.6,35.6,0,0,0-12.2-4.8c1.9,1.4,3.5,2.4,5,3.7,12,10.5,8.2,30.9-6.6,36.4-8.3,3.1-18-.8-22.8-9.1a21.9,21.9,0,0,1,8.3-30.3l.6-.4Zm22.2,19.9a14.1,14.1,0,1,0-14.2,14.3A13.9,13.9,0,0,0,149.6,138.3Z" transform="translate(-0.9 -0.5)" fill="#fff"/><path d="M129.2,136v-.3l1.8-.3-.4,1.3-.6,2.1h.7l1-.2a2.5,2.5,0,0,0,1-.9,2.4,2.4,0,0,0,.4-1.4,1.4,1.4,0,0,0-.5-1.2,2.5,2.5,0,0,0-1.6-.4,5.2,5.2,0,0,0-2.4.6,4.8,4.8,0,0,0-1.8,1.6,3.4,3.4,0,0,0-.6,1.9,1.8,1.8,0,0,0,.2.8,2,2,0,0,0,.6.7q.4.3.4.5a.4.4,0,0,1-.1.3h-.3q-.4,0-.8-.6a2.6,2.6,0,0,1-.4-1.5,4.4,4.4,0,0,1,1.3-3,5.8,5.8,0,0,1,4.5-1.8,4.7,4.7,0,0,1,1.8.3,2.2,2.2,0,0,1,1,.8,1.8,1.8,0,0,1,.3,1,2.5,2.5,0,0,1-.5,1.4,3.3,3.3,0,0,1-1.4,1.1,4.9,4.9,0,0,1-2.1.4H130l-.6,2.3-.3,1.1h1l1.1-.2v.4l-1,.2h-2.1l-1.5.2v-.4l1-.4a2.5,2.5,0,0,0,.6-1.3l1.1-4.4v-.6h-.4Z" transform="translate(-0.9 -0.5)" fill="#fff"/><path d="M134.6,141.4l.5.2a.8.8,0,0,1,.2.5,1.1,1.1,0,0,1-.2.7.7.7,0,0,1-.6.3l-.5-.2a.7.7,0,0,1-.2-.5,1.3,1.3,0,0,1,.3-.8A.6.6,0,0,1,134.6,141.4Z" transform="translate(-0.9 -0.5)" fill="#fff"/><path d="M140.7,136v-.4l1.8-.3-.4,1.2-.4,1.6a2.7,2.7,0,0,0,2-.6,2.1,2.1,0,0,0,.7-1.5,1.2,1.2,0,0,0-.5-1,2.2,2.2,0,0,0-1.4-.4,5.4,5.4,0,0,0-2.5.6,4.9,4.9,0,0,0-1.9,1.6,3.7,3.7,0,0,0-.7,2,1.7,1.7,0,0,0,.1.5l.2.4.4.3.4.3a.5.5,0,0,1,.1.3.4.4,0,0,1-.1.3h-.3q-.4,0-.8-.6a2.5,2.5,0,0,1-.4-1.5,4.4,4.4,0,0,1,.7-2.4,5.3,5.3,0,0,1,2.1-1.9,6.4,6.4,0,0,1,3-.7,3.3,3.3,0,0,1,2,.5,1.6,1.6,0,0,1,.7,1.3,2,2,0,0,1-.5,1.3,2.9,2.9,0,0,1-1.4.9l1,.3a1.7,1.7,0,0,1,.6.6,1.8,1.8,0,0,1,.2.9,2.7,2.7,0,0,1-.5,1.5,3.5,3.5,0,0,1-1.4,1.2,4.1,4.1,0,0,1-1.9.5h-3.5v-.4a1.7,1.7,0,0,0,1.1-.4,3.4,3.4,0,0,0,.6-1.4l1.1-4.3V136h-.4Zm1,2.6-.4,1.5a12.2,12.2,0,0,1-.5,1.8l-.4.6,1.1.2a2.4,2.4,0,0,0,1.9-.8,2.7,2.7,0,0,0,.7-1.8,1.4,1.4,0,0,0-.2-.8,1.3,1.3,0,0,0-.6-.5Z" transform="translate(-0.9 -0.5)" fill="#fff"/><path d="M109.8,246.1h-2.3v-.7a1.4,1.4,0,0,0-.1-.6h-.3l-.3.2a1.1,1.1,0,0,0-.1.6,1.6,1.6,0,0,0,.1.7l.7.6a7,7,0,0,1,2.1,1.6,3.7,3.7,0,0,1,.4,2,3.5,3.5,0,0,1-.2,1.5,1.9,1.9,0,0,1-.9.8,3.6,3.6,0,0,1-1.6.3,3.5,3.5,0,0,1-1.7-.4,1.8,1.8,0,0,1-.9-1,4.9,4.9,0,0,1-.2-1.6v-.6h2.3v1.2a1.5,1.5,0,0,0,.1.7l.3.2.4-.2a1.1,1.1,0,0,0,.1-.6,1.8,1.8,0,0,0-.2-1.1l-1.2-.9-1.2-.9a2.1,2.1,0,0,1-.5-.8,3.4,3.4,0,0,1-.2-1.2,3.4,3.4,0,0,1,.3-1.6,1.9,1.9,0,0,1,.9-.8,3.6,3.6,0,0,1,1.5-.3,3.9,3.9,0,0,1,1.6.3,1.7,1.7,0,0,1,.9.8,4.1,4.1,0,0,1,.2,1.6Z" transform="translate(-0.9 -0.5)" fill="#fff"/><path d="M113.2,243.9v1.2h.6v1.2h-.6v4.2a2.2,2.2,0,0,0,.1.9h.7v1.3h-2.1l-.6-.3a1,1,0,0,1-.3-.6,9.9,9.9,0,0,1-.1-1.5v-3.9h-.5v-1.2h.5v-1.2Z" transform="translate(-0.9 -0.5)" fill="#fff"/><path d="M119.7,247.7v1.9a8,8,0,0,1-.1,1.5,2.2,2.2,0,0,1-.5.9,2,2,0,0,1-.9.6l-1.2.2-1.3-.2a1.8,1.8,0,0,1-.8-.5,2.1,2.1,0,0,1-.4-.8,6.3,6.3,0,0,1-.1-1.5v-2a4.9,4.9,0,0,1,.2-1.7,1.9,1.9,0,0,1,.8-1,3,3,0,0,1,1.6-.4l1.4.2a2.1,2.1,0,0,1,1.3,1.4A4.9,4.9,0,0,1,119.7,247.7Zm-2.4-.6a2.6,2.6,0,0,0-.1-.8l-.3-.2-.3.2a2.4,2.4,0,0,0-.1.8v3.5a2.3,2.3,0,0,0,.1.7l.3.2.3-.2a2,2,0,0,0,.1-.7Z" transform="translate(-0.9 -0.5)" fill="#fff"/><path d="M123.5,243.3v1.2h-.9q-.1.1-.1.4v.2h1v1.2h-.6v6.4h-2.4v-6.4h-.5v-1.2h.5a6.3,6.3,0,0,1,.1-1,.9.9,0,0,1,.3-.5l.6-.3h2Z" transform="translate(-0.9 -0.5)" fill="#fff"/><path d="M126.4,245v.7a1.8,1.8,0,0,1,.6-.6l.9-.2a1.6,1.6,0,0,1,1,.3,1.3,1.3,0,0,1,.5.7,6.6,6.6,0,0,1,.1,1.5v5.4H127v-5.4a5,5,0,0,0-.1-1l-.3-.2a.3.3,0,0,0-.3.2,5.1,5.1,0,0,0-.1,1.1v5.3h-2.4V245Z" transform="translate(-0.9 -0.5)" fill="#fff"/><path d="M132.3,248h-2.2v-.5a3.7,3.7,0,0,1,.2-1.4,1.9,1.9,0,0,1,.8-.9,3.9,3.9,0,0,1,3.4,0,1.7,1.7,0,0,1,.7,1,16.3,16.3,0,0,1,.1,2.5v3.9h-2.3v-.7a1.5,1.5,0,0,1-.6.6l-.8.2a2,2,0,0,1-1.1-.3q-.5-.3-.5-1.5v-.6a1.9,1.9,0,0,1,.3-1.2,3.9,3.9,0,0,1,1.4-.7l1.2-.6a1.6,1.6,0,0,0,.1-.6,2.2,2.2,0,0,0-.1-.8l-.3-.2-.3.2a3.2,3.2,0,0,0-.1.8Zm.8,1.1a1.8,1.8,0,0,0-.7.7,2.8,2.8,0,0,0-.1.8,2.4,2.4,0,0,0,.1.8l.3.2h.3a2.2,2.2,0,0,0,.1-.7Z" transform="translate(-0.9 -0.5)" fill="#fff"/><path d="M138,243.3h1.4l.3.2.9-.2.2.5-.7.2.8,1.1a5.3,5.3,0,0,1,.5,1.3,8.2,8.2,0,0,1,.2,1.8V250a4.2,4.2,0,0,1-.3,1.6,1.9,1.9,0,0,1-.9,1,3.3,3.3,0,0,1-1.6.4,3.4,3.4,0,0,1-1.6-.3,1.7,1.7,0,0,1-.8-.9,5.3,5.3,0,0,1-.2-1.8v-1.7a4.8,4.8,0,0,1,.2-1.6,2.2,2.2,0,0,1,.7-1,1.8,1.8,0,0,1,1.2-.4,1.5,1.5,0,0,1,1,.3,3.6,3.6,0,0,0-.4-1.2l-1.1.3-.2-.5,1-.3Zm1.2,4.2a2.3,2.3,0,0,0-.1-.7h-.3l-.3.2a1.7,1.7,0,0,0-.1.6v3.3a1.7,1.7,0,0,0,.1.7l.3.2.3-.2a2,2,0,0,0,.1-.7Z" transform="translate(-0.9 -0.5)" fill="#fff"/><path d="M148.2,243.3v9.5h-2.4v-5.1a8.9,8.9,0,0,0-.1-1.3.5.5,0,0,0-.3-.3h-1.3v-1.1a4.3,4.3,0,0,0,2.6-1.5Z" transform="translate(-0.9 -0.5)" fill="#fff"/><path d="M149.1,250.2h2.4q0,.7,0,.8v.3h.6v-.3q0-.2,0-.7v-1.5a1.2,1.2,0,0,1-.5.6l-.9.2a1.9,1.9,0,0,1-1.1-.4,1.5,1.5,0,0,1-.6-.8,5.2,5.2,0,0,1-.1-1.3v-.8a10.1,10.1,0,0,1,.1-1.5,1.9,1.9,0,0,1,.4-.9,2.1,2.1,0,0,1,.9-.6l1.3-.2a4,4,0,0,1,1.6.3,2.1,2.1,0,0,1,.9.8,2.2,2.2,0,0,1,.4,1q.1.5.1,2.1v1.3q0,1.7,0,2.3a2.2,2.2,0,0,1-.4,1.1,2.2,2.2,0,0,1-1,.8l-1.4.3a3.6,3.6,0,0,1-1.6-.3,1.9,1.9,0,0,1-.9-.9A3.4,3.4,0,0,1,149.1,250.2Zm2.4-3q0,.6.2.7h.3l.4-.2a1.4,1.4,0,0,0,.1-.7v-1.7a2,2,0,0,0-.1-.8l-.4-.2h-.3q-.2.1-.2.8Z" transform="translate(-0.9 -0.5)" fill="#fff"/><path d="M160.1,247.4a1.7,1.7,0,0,1,.8.6,4.3,4.3,0,0,1,.3,2,4.8,4.8,0,0,1-.2,1.7,1.8,1.8,0,0,1-.9.9,3.6,3.6,0,0,1-1.7.3,3.5,3.5,0,0,1-1.7-.3,2,2,0,0,1-.9-.9,4.5,4.5,0,0,1-.3-1.8,7.4,7.4,0,0,1,.1-1.5,1.5,1.5,0,0,1,.8-1,1.4,1.4,0,0,1-.7-.7,2.7,2.7,0,0,1-.2-1.2,2.3,2.3,0,0,1,.7-1.8,3,3,0,0,1,2-.6,2.9,2.9,0,0,1,2.2.7,2.6,2.6,0,0,1,.6,1.9,2.3,2.3,0,0,1-.2,1.1A2,2,0,0,1,160.1,247.4Zm-1.3,1.9a1.6,1.6,0,0,0-.1-.7l-.4-.2-.3.2a1.7,1.7,0,0,0-.1.7v1.2a1.7,1.7,0,0,0,.1.8l.4.2.3-.2a2.3,2.3,0,0,0,.1-.8Zm0-3.9a1.5,1.5,0,0,0-.1-.6l-.3-.2-.3.2a1.6,1.6,0,0,0-.1.6v.7a1.3,1.3,0,0,0,.1.6l.3.2.3-.2a1.7,1.7,0,0,0,.1-.7Z" transform="translate(-0.9 -0.5)" fill="#fff"/><path d="M166.4,247.4a1.5,1.5,0,0,1,.8.6,4.4,4.4,0,0,1,.3,1.9,4.7,4.7,0,0,1-.3,1.8,1.8,1.8,0,0,1-.9,1,3.5,3.5,0,0,1-1.6.3,3.5,3.5,0,0,1-1.8-.4,1.8,1.8,0,0,1-.8-.9,6.2,6.2,0,0,1-.2-1.9V249h2.4v1.5a2.5,2.5,0,0,0,.1.8l.3.2a.4.4,0,0,0,.4-.2,3.9,3.9,0,0,0,.1-1.1v-.7a1.9,1.9,0,0,0-.1-.8l-.4-.3h-.9v-1.4h1l.3-.3a1.9,1.9,0,0,0,.1-.7v-.5a1.4,1.4,0,0,0-.1-.7l-.3-.2-.3.2a1.8,1.8,0,0,0-.1.7v.8h-2.4v-.8a2.2,2.2,0,0,1,.6-1.8,3.3,3.3,0,0,1,2-.5,3.1,3.1,0,0,1,2.3.7,2.6,2.6,0,0,1,.6,1.8,2.3,2.3,0,0,1-.2,1.2A1.9,1.9,0,0,1,166.4,247.4Z" transform="translate(-0.9 -0.5)" fill="#fff"/><path d="M95.4,261.3h4.1v1.9H97.8V265h1.5v1.8H97.8v2.1h1.8v1.9H95.4Z" transform="translate(-0.9 -0.5)" fill="#fff"/><path d="M102.7,263v.7a1.8,1.8,0,0,1,.6-.6l.9-.2a1.6,1.6,0,0,1,1,.3,1.3,1.3,0,0,1,.5.7,6.6,6.6,0,0,1,.1,1.5v5.4h-2.4v-5.4a5,5,0,0,0-.1-1l-.3-.2a.3.3,0,0,0-.3.2,5.1,5.1,0,0,0-.1,1.1v5.3h-2.4V263Z" transform="translate(-0.9 -0.5)" fill="#fff"/><path d="M112,261.3v9.5h-2.4v-.6l-.7.5-.8.2a1.6,1.6,0,0,1-1-.3,1.3,1.3,0,0,1-.5-.7,4.8,4.8,0,0,1-.1-1.2V265a4.9,4.9,0,0,1,.1-1.3,1.3,1.3,0,0,1,.5-.7,1.7,1.7,0,0,1,1-.3l.8.2.7.5v-2.2Zm-2.4,3.7a1.5,1.5,0,0,0-.1-.6h-.6a1.5,1.5,0,0,0-.1.6v3.8a1.8,1.8,0,0,0,.1.6h.3l.3-.2a2.6,2.6,0,0,0,.1-.8Z" transform="translate(-0.9 -0.5)" fill="#fff"/><path d="M118.2,263v7.8h-2.4v-.6a1.7,1.7,0,0,1-.6.6l-.8.2-.9-.2a1.2,1.2,0,0,1-.5-.5,1.8,1.8,0,0,1-.2-.6q0-.3,0-1.3V263h2.4v5.3a5.5,5.5,0,0,0,.1,1.1l.3.2.3-.2a6.7,6.7,0,0,0,0-1.1V263Z" transform="translate(-0.9 -0.5)" fill="#fff"/><path d="M121.4,263v1a1.8,1.8,0,0,1,1.5-1.2v2.7l-1,.2a.7.7,0,0,0-.4.5,8.8,8.8,0,0,0-.1,1.4v3.1h-2.4V263Z" transform="translate(-0.9 -0.5)" fill="#fff"/><path d="M128.5,263l-1.1,7.8h-3.1l-1.2-7.8h2.1l.7,5.7q.1-.6.3-3.1t.2-2.6Z" transform="translate(-0.9 -0.5)" fill="#fff"/><path d="M130.9,266h-2.2v-.5a3.7,3.7,0,0,1,.2-1.4,1.9,1.9,0,0,1,.8-.9,3.9,3.9,0,0,1,3.4,0,1.7,1.7,0,0,1,.7,1,16.3,16.3,0,0,1,.1,2.5v3.9h-2.3v-.7a1.5,1.5,0,0,1-.6.6l-.8.2a2,2,0,0,1-1.1-.3q-.5-.3-.5-1.5v-.6a1.9,1.9,0,0,1,.3-1.2,3.9,3.9,0,0,1,1.4-.7l1.2-.6a1.6,1.6,0,0,0,.1-.6,2.2,2.2,0,0,0-.1-.8l-.3-.2-.3.2a3.2,3.2,0,0,0-.1.8Zm.8,1.1a1.8,1.8,0,0,0-.7.7,2.8,2.8,0,0,0-.1.8,2.4,2.4,0,0,0,.1.8l.3.2h.3a2.2,2.2,0,0,0,.1-.7Z" transform="translate(-0.9 -0.5)" fill="#fff"/><path d="M140,263l-1,3.1,1.2,4.7H138l-.7-3.4v3.4h-2.4v-9.5h2.4v4l.7-2.3Z" transform="translate(-0.9 -0.5)" fill="#fff"/><path d="M143,261.3v1.2h-2.4v-1.2Zm0,1.7v7.8h-2.4V263Z" transform="translate(-0.9 -0.5)" fill="#fff"/><path d="M145.6,261.3h1.4l.3.2.9-.2.2.5-.7.2.8,1.1a5.3,5.3,0,0,1,.5,1.3,8.2,8.2,0,0,1,.2,1.8V268a4.2,4.2,0,0,1-.3,1.6,1.9,1.9,0,0,1-.9,1,3.3,3.3,0,0,1-1.6.4,3.4,3.4,0,0,1-1.6-.3,1.7,1.7,0,0,1-.8-.9,5.3,5.3,0,0,1-.2-1.8v-1.7a4.8,4.8,0,0,1,.2-1.6,2.2,2.2,0,0,1,.7-1,1.8,1.8,0,0,1,1.2-.4,1.5,1.5,0,0,1,1,.3,3.6,3.6,0,0,0-.4-1.2l-1.1.3-.2-.5,1-.3Zm1.2,4.2a2.3,2.3,0,0,0-.1-.7h-.3l-.3.2a1.7,1.7,0,0,0-.1.6v3.3a1.7,1.7,0,0,0,.1.7l.3.2.3-.2a2,2,0,0,0,.1-.7Z" transform="translate(-0.9 -0.5)" fill="#fff"/><path d="M157.3,269.1v1.6H152v-1.4q2.3-3.8,2.8-4.7a3.5,3.5,0,0,0,.4-1.4,1,1,0,0,0-.1-.6l-.4-.2-.4.2a1.8,1.8,0,0,0-.1.8v.9H152v-.3a7.5,7.5,0,0,1,.1-1.3,2.2,2.2,0,0,1,.4-.9,2,2,0,0,1,.8-.7l1.2-.2a3,3,0,0,1,2.1.7,2.4,2.4,0,0,1,.7,1.8,4.2,4.2,0,0,1-.4,1.7,35.4,35.4,0,0,1-2.4,3.9Z" transform="translate(-0.9 -0.5)" fill="#fff"/><path d="M163.8,264.5v3.2a7.5,7.5,0,0,1-.1,1.6,2.2,2.2,0,0,1-.5.9,2.1,2.1,0,0,1-.9.6l-1.2.2-1.4-.2a1.9,1.9,0,0,1-.9-.6,2.6,2.6,0,0,1-.5-.9,5.5,5.5,0,0,1-.1-1.5v-3.3a6.4,6.4,0,0,1,.2-2,1.9,1.9,0,0,1,.9-1,3.2,3.2,0,0,1,1.6-.4,3.4,3.4,0,0,1,1.4.3,2.3,2.3,0,0,1,.9.7,2.2,2.2,0,0,1,.4.9A8.1,8.1,0,0,1,163.8,264.5Zm-2.4-.8a3.5,3.5,0,0,0-.1-.9l-.3-.2a.3.3,0,0,0-.3.2,3.1,3.1,0,0,0-.1.9v4.6a3.4,3.4,0,0,0,.1,1l.3.2a.3.3,0,0,0,.3-.2,3,3,0,0,0,.1-.9Z" transform="translate(-0.9 -0.5)" fill="#fff"/><path d="M170.2,264.5v3.2a7.5,7.5,0,0,1-.1,1.6,2.2,2.2,0,0,1-.5.9,2.1,2.1,0,0,1-.9.6l-1.2.2-1.4-.2a1.9,1.9,0,0,1-.9-.6,2.6,2.6,0,0,1-.5-.9,5.5,5.5,0,0,1-.1-1.5v-3.3a6.4,6.4,0,0,1,.2-2,1.9,1.9,0,0,1,.9-1,3.2,3.2,0,0,1,1.6-.4,3.4,3.4,0,0,1,1.4.3,2.3,2.3,0,0,1,.9.7,2.2,2.2,0,0,1,.4.9A8.1,8.1,0,0,1,170.2,264.5Zm-2.4-.8a3.5,3.5,0,0,0-.1-.9l-.3-.2a.3.3,0,0,0-.3.2,3.1,3.1,0,0,0-.1.9v4.6a3.4,3.4,0,0,0,.1,1l.3.2a.3.3,0,0,0,.3-.2,3,3,0,0,0,.1-.9Z" transform="translate(-0.9 -0.5)" fill="#fff"/><path d="M176.7,263.8h-2.4q0-.7,0-.8v-.3h-.6v.3q0,.2,0,.7v1.5a1.2,1.2,0,0,1,.5-.6l.9-.2a1.9,1.9,0,0,1,1.1.4,1.5,1.5,0,0,1,.6.8,5.2,5.2,0,0,1,.1,1.3v.8a10.5,10.5,0,0,1-.1,1.5,1.9,1.9,0,0,1-.4.9,2.1,2.1,0,0,1-.9.6l-1.3.2a4,4,0,0,1-1.6-.3,2.1,2.1,0,0,1-.9-.8,2.3,2.3,0,0,1-.4-1q-.1-.5-.1-2.1v-1.3q0-1.7,0-2.3a2.2,2.2,0,0,1,.4-1.1,2.2,2.2,0,0,1,1-.8l1.4-.3a3.6,3.6,0,0,1,1.6.3,1.9,1.9,0,0,1,.9.9A3.5,3.5,0,0,1,176.7,263.8Zm-2.4,3a1.5,1.5,0,0,0-.1-.7l-.4-.2-.4.2a1.4,1.4,0,0,0-.1.7v1.7a2,2,0,0,0,.1.8l.4.2h.3q.2-.1.2-.8Z" transform="translate(-0.9 -0.5)" fill="#fff"/></svg>