<svg xmlns="http://www.w3.org/2000/svg" xmlns:xlink="http://www.w3.org/1999/xlink" viewBox="0 0 411.2 498.2"><defs><clipPath id="a" transform="translate(-44 -1.8)"><rect x="44" y="1" width="411.8" height="499.92" fill="none"/></clipPath></defs><title>berserkir</title><g clip-path="url(#a)"><path d="M103,140.7a204.9,204.9,0,0,1,144.6-61h.1A204.7,204.7,0,0,1,454.2,282.4h0a204.9,204.9,0,0,1-203.6,206h-.1A204.7,204.7,0,0,1,44,285.8h0a203.6,203.6,0,0,1,59-145Zm0,0" transform="translate(-44 -1.8)" fill="#231f20" fill-rule="evenodd"/><path d="M142.9,7c2.3-2.4-1.3-7.3-4.9-4.2C109.2,27.9,89,51.9,87.9,79.8c-.8,18.2,7,33.6,21.2,53.4,6.6,7.5,13.6,15.1,24.2,21.7,4.9,3.1,10.4,4.8,16.3,6.3s8.5,2.6,13.8,3.3c22.9-6.5,31.7-23.6,28.6-48.8-.3-2.3-.6-3.6-2.5-4.3-16.3-6-30.9-13.6-42.3-24.1a23.8,23.8,0,0,1-5.1-6.7c-7.3-14-12.8-29.6-10.5-48.9A41.8,41.8,0,0,1,142.9,7ZM125.4,49.5" transform="translate(-44 -1.8)" fill="#231f20" fill-rule="evenodd"/></g><path d="M374,80.8c-2.5-21.3-9.6-39.7-15.2-49.5a18.9,18.9,0,0,0-9.1-7.9c-14.4-6.6-29.6-11.3-45-15.7-4.7-.7-6.3,3.8-2.3,6.2,11.2,6.3,20,13.9,24.8,23.9a43.3,43.3,0,0,1,4,14.1c1.9,15.7,1.4,30-1.7,42.9-1.8,2.5,1,2.4-5.2,7.9-3.5,2.8-7.3,5.4-11,8-4.4,19.8,7.8,36.3,25.5,51.3a36.3,36.3,0,0,0,5.8-2,38.1,38.1,0,0,0,5.9-4.4,21.2,21.2,0,0,0,2.6-2.7c5.9-7.1,9-15.8,12.2-26.1l4-13.3a168.4,168.4,0,0,0,4.6-20.3A51.9,51.9,0,0,0,374,80.8Z" transform="translate(-44 -1.8)" fill="#231f20"/><path d="M249.3,59.1c40.9,10.2,97.2,73.9,96.6,115.5h2.7l-1.2,16.2c5.6,2.5,7.6,9.9,7.5,15.7s-3.4,11.1-8.9,15.2q-.1,7.7-.2,15.4c-64.9-3.1-129.8-3.7-194.7.2l-.4-13.4c-6.3-2.1-11.5-6.3-12.2-14.1s4.2-13.2,10.5-15.9l-.5-19.4h3.8c0-4,0-8.3.9-12.2,4.6-19.9,14.6-37.8,28.5-53.8,20.3-23.4,42.3-41.9,67.8-49.3Zm0,0" transform="translate(-44 -1.8)" fill="#231f20" fill-rule="evenodd"/><path d="M318.5,173.4c-13.2-54.9-35-90.8-66.7-104.7,24.5,30.6,37.3,67.2,41.2,103.8Zm0,0" transform="translate(-44 -1.8)" fill="#bd2b2e" fill-rule="evenodd"/><path d="M96.8,64.9c-3.5,9.6-5.1,22.5,2.5,40.5,6,14.3,19.9,31.3,34.6,42.5a37.3,37.3,0,0,0,6.8,3.9c4.8,2.3,12.8,4.5,21.7,6.9,18.7-5.3,25.3-20.4,23.5-42.3-17.7-6.2-31.5-14.2-42.4-23.9s-15.1-22.4-18.1-43.1a2,2,0,0,0-1.7-1.1c0,4,.1,17.2-.1,24.1-1.9-9.6-3.5-20.2-5.3-29.9l-4.6,28.8-1.2-28.3-7.7,35.5c-.5-6.9-1.4-14.3-1.9-21.3-1.5,9.1-2.7,18.7-4.2,27.8L96.8,64.9Zm0,0" transform="translate(-44 -1.8)" fill="#fff" fill-rule="evenodd"/><path d="M248.1,69.3c-.2-1.1-1.4-1.3-1.9-.1-13.7,33.1-22.1,67.3-26.5,102.9H256c-1.3-34.4-1.9-68.8-7.9-102.8Zm0,0" transform="translate(-44 -1.8)" fill="#bd2b2e" fill-rule="evenodd"/><path d="M191.7,116.1c3.1,25.2-5.6,42.3-28.6,48.8l-2.2-.3-.3,9.6,27.9-.8c1.9-33.3,15.4-66.6,48-100.4-14.9,8.2-30.7,21-47.4,38.9,1.9.7,2.2,2,2.5,4.3Zm0,0" transform="translate(-44 -1.8)" fill="#bd2b2e" fill-rule="evenodd"/><path d="M333.7,202.7c.1-9.6-4.2-17.5-10.2-17.6s-10.8,7.7-10.9,17.3,4.8,16.9,10.7,16.9,10.3-7,10.4-16.6Zm0,0" transform="translate(-44 -1.8)" fill="#fff" fill-rule="evenodd"/><path d="M274.8,182.9a18.1,18.1,0,1,0,18,18.1,18.1,18.1,0,0,0-18-18.1Zm0,0" transform="translate(-44 -1.8)" fill="#fff" fill-rule="evenodd"/><path d="M183,203.5c0-9.6-4.7-16.7-10.6-16.7s-11.2,7.5-11.2,17,5.3,17.2,11.1,17.2,10.6-7.9,10.6-17.5Zm0,0" transform="translate(-44 -1.8)" fill="#fff" fill-rule="evenodd"/><path d="M234,202.3c-.1-9.6-7.2-17.6-16-17.5s-16,8.2-15.9,17.8,7.4,17.5,16.2,17.4,15.8-8.2,15.7-17.8Zm0,0" transform="translate(-44 -1.8)" fill="#fff" fill-rule="evenodd"/><path d="M47.2,395.5,71.7,500c58.8-14.7,117.6-22.4,176.4-22.1a792.5,792.5,0,0,1,182.8,22l24.3-104.2c-68.3-16.4-137.4-24.8-207.2-24s-137.2,7.9-200.7,23.8Zm0,0" transform="translate(-44 -1.8)" fill="#231f20" fill-rule="evenodd"/><path d="M78.6,402.1,119.1,420,98.3,437.6l28.8,12L93.9,477.4Zm0,0" transform="translate(-44 -1.8)" fill="#fff" fill-rule="evenodd"/><path d="M93.5,442.3l21.4,9L98,465.1Zm0,0" transform="translate(-44 -1.8)" fill="#231f20" fill-rule="evenodd"/><path d="M87.6,412.9l4.2,21.8,14.9-13.6Zm0,0" transform="translate(-44 -1.8)" fill="#231f20" fill-rule="evenodd"/><path d="M146.8,398.4l5,4.8-24.1,25.5,22.8-2.9,1.1,7L128,435.6l27.2,19.2-4.9,6.2-36.8-26.6Zm0,0" transform="translate(-44 -1.8)" fill="#fff" fill-rule="evenodd"/><path d="M270.6,393.7l4.2,5.5-27.6,21.7,22.9.4v7.1l-23.7-.7,23.5,22.8-5.4,5.4-31.5-31.2Zm0,0" transform="translate(-44 -1.8)" fill="#fff" fill-rule="evenodd"/><path d="M158.3,395.2l37.8,22-20.5,14.4,21.1,15.7-4.6,5.9-22.2-17.3,2.5,21.9-7.5.7Zm0,0" transform="translate(-44 -1.8)" fill="#fff" fill-rule="evenodd"/><path d="M166.8,407.8l16.6,9.9-14.6,10.7Zm0,0" transform="translate(-44 -1.8)" fill="#231f20" fill-rule="evenodd"/><path d="M282.3,390.5l34.1,27.3L294,429l18.6,18.7-5.4,5.1-19.4-20.4-.8,22-7.5-.4Zm0,0" transform="translate(-44 -1.8)" fill="#fff" fill-rule="evenodd"/><path d="M288.9,404.2l14.9,12.2-16,8.4Zm0,0" transform="translate(-44 -1.8)" fill="#231f20" fill-rule="evenodd"/><path d="M396.3,405.3l29.9,31.2-23.8,7.8,16.1,20.9-6,4.4L395.7,447l-3.5,21.8-7.4-1.3Zm0,0" transform="translate(-44 -1.8)" fill="#fff" fill-rule="evenodd"/><path d="M400.4,419.1l13.3,14-17,6.3Zm0,0" transform="translate(-44 -1.8)" fill="#231f20" fill-rule="evenodd"/><path d="M226.3,396.2l4.8,5.9-22.8,17.6,28.4,10.2-26.2,21.8-5.4-5.3,17.3-14.3-28.6-10Zm0,0" transform="translate(-44 -1.8)" fill="#fff" fill-rule="evenodd"/><path d="M323.4,402.9l6.8.7L328,426l25.2-14.7,3.8,5.9-23.1,13.4L353.4,446l-4.6,5.8-21.4-17.4L326,452.5l-7.4-.6Zm0,0" transform="translate(-44 -1.8)" fill="#fff" fill-rule="evenodd"/><path d="M363.8,415.1l3.8,5.6,6-3.9-9,53.7,7.6,1.3,10.2-69Zm0,0" transform="translate(-44 -1.8)" fill="#fff" fill-rule="evenodd"/><path d="M286.4,233.1" transform="translate(-44 -1.8)" fill="#231f20" fill-rule="evenodd"/><path d="M107.9,284.4a144.9,144.9,0,0,1,40.6-102l-.2-8h3.8c0-4,0-8.3.9-12.2l-3.5-.9c-5.9-1.5-11.4-3.3-16.3-6.3a93.6,93.6,0,0,1-18.2-15l-6.5,6.3A195.8,195.8,0,0,0,51.8,285.7h0A195.1,195.1,0,0,0,81.4,387.9l18.8-3.5a21,21,0,1,1,14.6-2.4q14-2.1,28.2-3.8a144.8,144.8,0,0,1-35-93.7Zm-3.5-64a21,21,0,1,1,21-21,21,21,0,0,1-21,21ZM60.6,283.7a21,21,0,1,1,21,21,21,21,0,0,1-21-21Zm0,0" transform="translate(-44 -1.8)" fill="#fff" fill-rule="evenodd"/><path d="M391.2,282.2a145,145,0,0,1-34.8,95.6q12.7,1.6,25.4,3.5a21,21,0,1,1,20.7,3.4l14.4,2.7a195.3,195.3,0,0,0,29.4-104.8h0A195.6,195.6,0,0,0,387.6,144a198.1,198.1,0,0,0-22-18.6l-.5,1.5c-3.2,10.3-6.2,19-12.2,26.1a21.2,21.2,0,0,1-2.6,2.7,38.1,38.1,0,0,1-5.9,4.4l-.4.2a58,58,0,0,1,1.8,14.3h2.7l-.4,5.2.9.9a144.7,144.7,0,0,1,42.2,101.4Zm47,2.3a21,21,0,1,1-21-21,21,21,0,0,1,21,21Zm-42.9-62.1a21,21,0,1,1,21-21,21,21,0,0,1-21,21Zm0,0" transform="translate(-44 -1.8)" fill="#fff" fill-rule="evenodd"/><path d="M181.5,108.4c3.9-4.5,7.9-8.8,11.9-12.9a196.4,196.4,0,0,0-22.4,8.1q5.1,2.6,10.5,4.8Zm0,0" transform="translate(-44 -1.8)" fill="#fff" fill-rule="evenodd"/><path d="M304.1,95.2c4.2,4.3,8.2,8.9,12.1,13.5,2.8-1.9,5.5-3.9,8.1-5.9l.4-.4a195.9,195.9,0,0,0-20.6-7.2Zm0,0" transform="translate(-44 -1.8)" fill="#fff" fill-rule="evenodd"/><path d="M248,477.8q-14.9-.1-29.7.5a199.4,199.4,0,0,0,32.2,2.4h.1a200.2,200.2,0,0,0,28.1-2.2q-15.3-.6-30.6-.7Zm0,0" transform="translate(-44 -1.8)" fill="#fff" fill-rule="evenodd"/><path d="M187.3,327.3a20.6,20.6,0,0,1,1.6-8.7,39.3,39.3,0,0,1,11.3-14.7h0a39.7,39.7,0,0,1,7.3-4.6,27.1,27.1,0,0,1-3.9-2,21.6,21.6,0,0,1-5.9-5.6,46.6,46.6,0,0,1-4.1-6.7h-.1a29.2,29.2,0,0,1-2.9-10.6,20.2,20.2,0,0,1,2.5-11.2,29.8,29.8,0,0,1,10.1-10.5,48.8,48.8,0,0,1,6.7-3.6c-8.1-3.9-15.3-8.6-20.4-13.6l-24.6,1A101.6,101.6,0,0,0,153.1,285h0a107.7,107.7,0,0,0,28.4,72.1q2.2,2.4,4.6,4.6a91.7,91.7,0,0,1,11.5-6.6,62.4,62.4,0,0,1-4-5.9,42.8,42.8,0,0,1-4.7-11.1,46.2,46.2,0,0,1-1.6-10.8Zm0,0" transform="translate(-44 -1.8)" fill="#db8844" fill-rule="evenodd"/><path d="M330.2,286.1a34.5,34.5,0,0,0,2-11.1,23.9,23.9,0,0,0-3.3-12.6,19.3,19.3,0,0,0-7.9-7.3l-4.8,1.5a85.7,85.7,0,0,1-25.9,3.4,14.6,14.6,0,0,1-3.5-.5,10.9,10.9,0,0,1-7.1-5.8l-.5-1.2a16.7,16.7,0,0,1-8.7,6.6l-1.5.5c-10.9,2.8-26.3,1.1-41.1-3.5-3.1-1-6.3-2.1-9.3-3.3a51.5,51.5,0,0,0-11.7,5.4,23.2,23.2,0,0,0-7.9,8.1,13.7,13.7,0,0,0-1.7,7.6,22.6,22.6,0,0,0,2.2,8.1,40.4,40.4,0,0,0,3.5,5.8,15.1,15.1,0,0,0,4.1,3.9,22.7,22.7,0,0,0,6.2,2.6,37.9,37.9,0,0,0,6.5,1h0a289.7,289.7,0,0,1,39.1-5.6c11.1-.8,21.6-.6,29.9,1.1a114.2,114.2,0,0,1,19.6,5.4,59.3,59.3,0,0,1,9.8,4.9,10.9,10.9,0,0,0,3.9-1.2,7.3,7.3,0,0,0,3-2.7m-105.4-1.8" transform="translate(-44 -1.8)" fill="#db8844" fill-rule="evenodd"/><path d="M229.8,249.8c13.7,4.2,27.8,5.9,37.4,3.4l1-.3a10.1,10.1,0,0,0,6.3-5.9c1.2-3,1.3-6.8.1-11.1l-.3-1.1q-37.5-.6-75,.4c8,5.9,19,11.1,30.4,14.6Zm0,0" transform="translate(-44 -1.8)" fill="#db8844" fill-rule="evenodd"/><path d="M284.6,244.3a13.7,13.7,0,0,0,1.1,6.4,4.5,4.5,0,0,0,2.9,2.4l1.9.3h0a79.3,79.3,0,0,0,23.9-3.2,119.1,119.1,0,0,0,21.6-8.7q-1-2.6-2.2-5-23.9-1-47.8-1.5a43.8,43.8,0,0,0-1.4,9.3Zm0,0" transform="translate(-44 -1.8)" fill="#db8844" fill-rule="evenodd"/><path d="M331,300.3a13.9,13.9,0,0,1-5.7,5.4l-.5.3,3,3,1.7,2.1c3.5,5,4.3,11.2,2.9,17.6a111.2,111.2,0,0,0,11.1-48.6h0a104.2,104.2,0,0,0-5.2-32q-4.8,2.4-9.6,4.4a26,26,0,0,1,5.8,6.7,30.5,30.5,0,0,1,4.3,16.1,40.9,40.9,0,0,1-2.4,13.2,76.7,76.7,0,0,1-5.5,12Zm0,0" transform="translate(-44 -1.8)" fill="#db8844" fill-rule="evenodd"/><path d="M322.9,313.5a45.4,45.4,0,0,0-17-11.1,107.4,107.4,0,0,0-18.5-5c-7.7-1.5-17.6-1.7-28.2-1a282.7,282.7,0,0,0-38.6,5.6,38.9,38.9,0,0,0-16.4,7.2h0a32.6,32.6,0,0,0-9.4,12.2,14.2,14.2,0,0,0-1,5.9,39.5,39.5,0,0,0,1.3,9.2,36.3,36.3,0,0,0,4,9.4,61.3,61.3,0,0,0,4.7,6.7,61.9,61.9,0,0,1,11.2-2.8,79.4,79.4,0,0,1,18.1-.7,73.7,73.7,0,0,1,17.4,3.4,16.6,16.6,0,0,1,4.7,2.4,17,17,0,0,1,3.7,3.8,26.1,26.1,0,0,1,3.2,6.4,65.4,65.4,0,0,1,5.2-4.4,63.6,63.6,0,0,1,15-8.4,33,33,0,0,1,8.1-2.1,28.1,28.1,0,0,1,8.3.2,37.9,37.9,0,0,1,8.1,2.5l.5.2a58.5,58.5,0,0,0,4.7-4c6.1-5.6,10.7-12.3,12.9-18.6s2-11.5-.9-15.7l-1.1-1.3Zm0,0" transform="translate(-44 -1.8)" fill="#db8844" fill-rule="evenodd"/><path d="M248.5,358.8a66.9,66.9,0,0,0-15.8-3.1,72.8,72.8,0,0,0-16.5.6,56.3,56.3,0,0,0-14.6,4.4,79.5,79.5,0,0,0-10.2,5.6,83.2,83.2,0,0,0,9.8,6.8q23.3-1.3,46.9-1.5h8.2l.7-.9c-.2-.9-.5-1.9-.8-2.8a20.5,20.5,0,0,0-2.5-5.4,10.5,10.5,0,0,0-2.3-2.3,9.9,9.9,0,0,0-2.8-1.5Zm0,0" transform="translate(-44 -1.8)" fill="#db8844" fill-rule="evenodd"/><path d="M284.8,358.5a56.8,56.8,0,0,0-13.4,7.6,57.7,57.7,0,0,0-6.4,5.6q14.6.1,29.2.8a82.7,82.7,0,0,0,14.9-11.2l-4.9-2.3a31.5,31.5,0,0,0-6.6-2.1,21.6,21.6,0,0,0-6.4-.2,26.5,26.5,0,0,0-6.5,1.7Zm0,0" transform="translate(-44 -1.8)" fill="#db8844" fill-rule="evenodd"/><path d="M175.6,362.7c-18.7-20.2-30.1-48-30.3-77.6h0A112.4,112.4,0,0,1,155.5,237l-4.5.3-.4-13.4c-6.3-2.1-11.5-6.3-12.2-14.1a17.4,17.4,0,0,1-.1-2,137.4,137.4,0,0,0-22.5,76.7h0a137,137,0,0,0,36.8,92.6q17.6-1.9,35.4-3.1a97.7,97.7,0,0,1-12.4-11.3Zm0,0" transform="translate(-44 -1.8)" fill="#bd2b2e" fill-rule="evenodd"/><path d="M351.8,279.9c.2,30.3-12.3,59-31.2,80.5a91.6,91.6,0,0,1-13.7,12.8q20.1,1.2,40.1,3.5a137.1,137.1,0,0,0,36.4-94.4h0a137,137,0,0,0-30.6-85.5,22.9,22.9,0,0,1,2,9.9c-.1,6.1-3.4,11.1-8.9,15.2l-.2,15.4h-2.9a107.7,107.7,0,0,1,9,42.8Zm0,0" transform="translate(-44 -1.8)" fill="#bd2b2e" fill-rule="evenodd"/><path d="M340.5,44c.2.6,1.2,1.4,1.2,2,.3,6.6,2.6,12.3,4.2,18.4-.9-8.4-1.9-17.4-2.7-25.9l9,16.7-4.7-22.5,12.4,30.5L358.7,45c2.9,9.6,5.8,19,7.8,28.9,1.2,6.2,1.9,11.9,1.2,17.1a179.1,179.1,0,0,1-16.7,54.4,15.7,15.7,0,0,1-4.6,5.8l-3.5,2.9a131.8,131.8,0,0,0-22.7-40.8,51.8,51.8,0,0,0,7.6-5.6,31.7,31.7,0,0,0,6.3-7.5c1.6-2.7,2.6-8.4,3.4-13,1.7-13.9,1.8-28.4,3.1-43.3Zm0,0" transform="translate(-44 -1.8)" fill="#fff" fill-rule="evenodd"/></svg>