<svg xmlns="http://www.w3.org/2000/svg" viewBox="0 0 148.6 187.1"><title>breidablik</title><path d="M190.1,189.4c-8.7,23.7-17.2,49.3-20.2,76.8-2.1,19.2,7.5,26.8,16.1,31.2,16.3,8.5,48.5,9.2,57.9,9.2s41.6-.7,57.9-9.2c8.6-4.5,18.2-12,16.1-31.2-3-27.5-11.5-53.2-20.2-76.8-16.7-45.3-30.2-69.9-53.8-69.9s-37.1,24.6-53.8,69.9Z" transform="translate(-169.6 -119.5)" fill="#fff" fill-rule="evenodd"/><path d="M313.9,266.6c-3-27.1-11.4-52.5-20-75.9-16.1-43.6-28.8-67.3-50.1-67.3s-34,23.6-50.1,67.3c-8.6,23.4-17,48.8-20,75.9-1.8,16.7,5.6,23,13.9,27.3,13.2,6.8,37.6,8.3,50.4,8.6V281h4v21.6h3.5V281h4v21.5c12.8-.3,37.3-1.8,50.4-8.6,8.3-4.3,15.8-10.6,13.9-27.3Z" transform="translate(-169.6 -119.5)" fill="#0f6756" fill-rule="evenodd"/><path d="M253.3,191.8c-2.1-.4-3.6-1.1-3.6-2s2.4-1.8,5.1-2.7c6.3-2.1,15.7-5.2,15.7-16.1s-5.9-13.6-6.2-13.8l-.9-.6v1c1.1,10.8-4.5,12.5-10.5,14.3h-.4c4-2.5,8.4-5.5,8.4-13.2a16.2,16.2,0,0,0-11.9-14.7l-.9-.3.3.9c5.5,15.2-1,18.3-8.6,21.8-3.4,1.6-7.1,3.3-10,6.3,2.1-2.6,5.3-4.5,8.5-6.4s9-5.3,9-9.9-1.2-4.6-1.3-4.7l-.5-.5-.3.6c-2.7,5.4-8.3,8.1-13.7,10.8s-13.3,6.5-13.3,14.6c0,11.5,15.4,14.4,17.6,14.4Z" transform="translate(-169.6 -119.5)" fill="#fff" fill-rule="evenodd"/><path d="M243.9,201.5c14.9,0,23.9-2.2,23.9-7.1H219.9c0,4.8,9.1,7.1,23.9,7.1Z" transform="translate(-169.6 -119.5)" fill="#fff" fill-rule="evenodd"/><polygon points="60.7 84.2 60.7 88.2 68.6 88.2 68.6 128.8 72.6 128.8 72.6 88.2 76 88.2 76 128.8 80 128.8 80 88.2 87.9 88.2 87.9 84.2 60.7 84.2 60.7 84.2" fill="#fff" fill-rule="evenodd"/><path d="M189.5,255.6a4.2,4.2,0,0,1,.5,2.5v1.1a4.2,4.2,0,0,1-.5,2.5,2.5,2.5,0,0,1-2,.7h-1.4v-7.4h1.4a2.5,2.5,0,0,1,2,.7Zm-7.8-4.6v27.4H188a7.1,7.1,0,0,0,5.2-1.7,6.7,6.7,0,0,0,1.8-5v-1.9a6.5,6.5,0,0,0-1-3.6,4.2,4.2,0,0,0-2.6-1.9q3-1.3,3-5.8v-1.1a6.2,6.2,0,0,0-1.8-4.8,7.3,7.3,0,0,0-5.1-1.7Zm8.3,15.9a4.2,4.2,0,0,1,.5,2.5v1.9a4.2,4.2,0,0,1-.5,2.5,2.5,2.5,0,0,1-2,.7h-1.9v-8.2H188a2.5,2.5,0,0,1,2,.7Z" transform="translate(-169.6 -119.5)" fill="#fff" fill-rule="evenodd"/><path d="M204.1,255.6a4.1,4.1,0,0,1,.6,2.5v2a4.1,4.1,0,0,1-.6,2.5,2.4,2.4,0,0,1-2,.7h-1.4v-8.4h1.4a2.4,2.4,0,0,1,2,.7Zm-7.8-4.6v27.4h4.4V267.2h1.2a2.4,2.4,0,0,1,2,.7,4,4,0,0,1,.6,2.5v5.6a9.1,9.1,0,0,0,.2,2.4h4.5a7.8,7.8,0,0,1-.3-2.7v-5q0-4.6-2.9-5.5a4.1,4.1,0,0,0,2.3-2,8.1,8.1,0,0,0,.8-3.8v-2a6.1,6.1,0,0,0-1.8-4.7,7.3,7.3,0,0,0-5.1-1.7Z" transform="translate(-169.6 -119.5)" fill="#fff" fill-rule="evenodd"/><polygon points="41.1 158.9 41.1 131.5 51.8 131.5 51.8 135.4 45.5 135.4 45.5 142.6 51.5 142.6 51.5 146.5 45.5 146.5 45.5 155 51.8 155 51.8 158.9 41.1 158.9 41.1 158.9" fill="#fff" fill-rule="evenodd"/><polygon points="53.5 158.9 53.5 131.5 57.9 131.5 57.9 158.9 53.5 158.9 53.5 158.9" fill="#fff" fill-rule="evenodd"/><path d="M251.4,255.4l1.9,12.9h-3.7l1.9-12.9Zm-3.4,23,.9-6.2h4.9l.9,6.2h4.5L254.6,251h-6.4l-4.7,27.4Z" transform="translate(-169.6 -119.5)" fill="#fff" fill-rule="evenodd"/><path d="M268.1,255.6a4.2,4.2,0,0,1,.5,2.5v1.1a4.2,4.2,0,0,1-.5,2.5,2.5,2.5,0,0,1-2,.7h-1.4v-7.4h1.4a2.5,2.5,0,0,1,2,.7Zm-7.8-4.6v27.4h6.3a7.1,7.1,0,0,0,5.2-1.7,6.7,6.7,0,0,0,1.8-5v-1.9a6.5,6.5,0,0,0-1-3.6,4.2,4.2,0,0,0-2.6-1.9q3-1.3,3-5.8v-1.1a6.2,6.2,0,0,0-1.8-4.8,7.3,7.3,0,0,0-5.2-1.7Zm8.3,15.9a4.2,4.2,0,0,1,.5,2.5v1.9a4.2,4.2,0,0,1-.5,2.5,2.5,2.5,0,0,1-2,.7h-1.9v-8.2h1.9a2.5,2.5,0,0,1,2,.7Z" transform="translate(-169.6 -119.5)" fill="#fff" fill-rule="evenodd"/><polygon points="115.8 158.9 115.8 131.5 120.2 131.5 120.2 158.9 115.8 158.9 115.8 158.9" fill="#fff" fill-rule="evenodd"/><polygon points="122.6 158.9 122.6 131.5 126.9 131.5 126.9 143 131.7 131.5 136.3 131.5 130.8 143.5 136.5 158.9 131.6 158.9 126.9 145 126.9 158.9 122.6 158.9 122.6 158.9" fill="#fff" fill-rule="evenodd"/><polygon points="109.7 155 109.7 131.5 105.3 131.5 105.3 158.9 114.3 158.9 114.3 155 109.7 155 109.7 155" fill="#fff" fill-rule="evenodd"/><path d="M241.9,253.2q-1.9-2.2-5.7-2.2h-5.7v10.9h-2.2v3h2.2v13.5h5.7q3.8,0,5.7-2.2t1.9-6.7v-9.7q0-4.5-1.9-6.6Zm-2.5,16.4a7.9,7.9,0,0,1-.7,3.9,2.7,2.7,0,0,1-2.5,1.1h-1.3v-9.6h1.4v-3h-1.4v-7h1.3a2.7,2.7,0,0,1,2.5,1.1,7.8,7.8,0,0,1,.7,3.8v9.7Z" transform="translate(-169.6 -119.5)" fill="#fff" fill-rule="evenodd"/><path d="M248.7,189.8a1.8,1.8,0,0,0,.3,1H236.2c-2.1,0-16.6-2.7-16.6-13.4,0-7.5,6.2-10.5,12.7-13.7s10.7-5.3,13.7-10.5a7.7,7.7,0,0,1,.6,3.4c0,4.1-4.1,6.5-8.5,9.1s-11.3,6.6-11.3,13.9a14.4,14.4,0,0,0,.1,1.5c2-8.1,7.9-10.9,13.7-13.6s11.2-5.2,11.2-13a28.9,28.9,0,0,0-1.8-9,15.2,15.2,0,0,1,10.2,13.4c0,7.4-4.3,10.1-8.4,12.6-2.3,1.5-4.5,2.8-5.9,5,1.9-1.8,4.6-2.7,7.5-3.6,5.4-1.6,11.4-3.5,11.4-12.8,0-.5,0-1-.1-1.5,1.6,1.5,4.9,5.3,4.9,12.3,0,10.3-9,13.2-15,15.2-3.4,1.1-5.8,1.9-5.8,3.6Z" transform="translate(-169.6 -119.5)" fill="#ee3124" fill-rule="evenodd"/></svg>