<svg xmlns="http://www.w3.org/2000/svg" xmlns:xlink="http://www.w3.org/1999/xlink" viewBox="0 0 565.5 565"><defs><radialGradient id="a" cx="298.21" cy="420.82" r="269.8" gradientTransform="translate(-14.9 -138.4)" gradientUnits="userSpaceOnUse"><stop offset="0" stop-color="#fff"/><stop offset="0.63" stop-color="#0064b1"/><stop offset="0.79" stop-color="#005191"/><stop offset="0.93" stop-color="#183f76"/><stop offset="1" stop-color="#183f76"/></radialGradient><radialGradient id="b" cx="284.47" cy="282.45" r="138.94" gradientUnits="userSpaceOnUse"><stop offset="0" stop-color="#fff"/><stop offset="0.83" stop-color="#fff"/><stop offset="0.88" stop-color="#d9ddeb"/><stop offset="0.93" stop-color="#aabad3"/><stop offset="0.97" stop-color="#808fb8"/><stop offset="1" stop-color="#6a79ab"/></radialGradient></defs><title>dalvikreynir</title><path d="M200.3,321.8a139.9,139.9,0,1,1-41.1,98.9A139.4,139.4,0,0,1,200.3,321.8Z" transform="translate(-14.9 -138.4)" fill="#fff" fill-rule="evenodd"/><ellipse cx="282.8" cy="282.5" rx="281.6" ry="281.4" fill="#fff"/><path d="M29.7,425.7H148.8v1.1a154.8,154.8,0,0,0,11,50.7,152.9,152.9,0,0,0,26.1,42.3c12.6,14.6,30.4,28,50.8,37.4,18.5,8.5,39.1,13.7,59.6,13.5A159.3,159.3,0,0,0,360,556.5a151.8,151.8,0,0,0,51.7-38.2,143.1,143.1,0,0,0,25.7-42.2,152.4,152.4,0,0,0,10.3-49.4v-1.1l120.2-.2v1.1A265.2,265.2,0,0,1,543.1,534a275.3,275.3,0,0,1-66.6,89.6c-22.6,20.1-51.1,37.3-82.8,49.2a275.5,275.5,0,0,1-95.6,17.8c-31.6.1-60.9-4.7-88-14A258.7,258.7,0,0,1,132.9,634a281.1,281.1,0,0,1-76.6-93.7c-18.2-36.1-27.8-75.1-27.7-113.6v-1.1Z" transform="translate(-14.9 -138.4)" fill="#fff" fill-rule="evenodd"/><path d="M29.7,416H148.8V415a154.8,154.8,0,0,1,11-50.7,153,153,0,0,1,26.1-42.3c12.6-14.6,30.4-28,50.8-37.4,18.5-8.5,39.1-13.7,59.6-13.5A159.3,159.3,0,0,1,360,285.1a151.8,151.8,0,0,1,51.7,38.2,143.1,143.1,0,0,1,25.7,42.2,152.4,152.4,0,0,1,10.3,49.4V416l120.2.2V415a265.2,265.2,0,0,0-24.8-107.4,275.4,275.4,0,0,0-66.6-89.6c-22.6-20.1-51.1-37.3-82.8-49.2a275.4,275.4,0,0,0-95.6-17.8c-31.6-.1-60.9,4.7-88,14a258.7,258.7,0,0,0-77.2,42.5,281.1,281.1,0,0,0-76.6,93.7c-18.2,36.1-27.8,75.1-27.7,113.6V416Z" transform="translate(-14.9 -138.4)" fill="#fff" fill-rule="evenodd"/><ellipse cx="283.3" cy="282.4" rx="269.8" ry="269.7" fill="url(#a)"/><path d="M99.3,222.8a280.7,280.7,0,1,0,198.3-82.1A279.3,279.3,0,0,0,99.3,222.8ZM27.4,414.8A243.4,243.4,0,0,1,34.5,357a264.8,264.8,0,0,1,20.8-56.2,278.6,278.6,0,0,1,33.2-51,285.4,285.4,0,0,1,43.7-43,269.4,269.4,0,0,1,37.3-24.9A253,253,0,0,1,209.7,164a257.4,257.4,0,0,1,42.9-10.6,283.3,283.3,0,0,1,45.5-3.4,268.3,268.3,0,0,1,48.3,4.6,283.7,283.7,0,0,1,92.2,34.7,250.5,250.5,0,0,1,38.5,28,276.6,276.6,0,0,1,66.9,90,269,269,0,0,1,18.1,52.8A264.4,264.4,0,0,1,569,415v2.3h-1.1l-120.2-.2h-1.1v-2.2a154.4,154.4,0,0,0-3.1-25.1,148.1,148.1,0,0,0-7.1-23.9,142,142,0,0,0-25.5-41.8,150.7,150.7,0,0,0-51.3-37.9,154.1,154.1,0,0,0-30.6-10.1,163.5,163.5,0,0,0-32.7-3.7,125.9,125.9,0,0,0-29.4,3.2,150.8,150.8,0,0,0-29.7,10.2,160.4,160.4,0,0,0-27.8,16.4,136.4,136.4,0,0,0-22.6,20.7,159.6,159.6,0,0,0-14.7,20,145.7,145.7,0,0,0-18.6,46,162.4,162.4,0,0,0-3.5,26.3v2.1H27.4v-2.3Zm2.3,9.7H149.9v2.1a162.4,162.4,0,0,0,3.5,26.3,145.7,145.7,0,0,0,18.6,46,159.5,159.5,0,0,0,14.7,20,136.4,136.4,0,0,0,22.6,20.7,160.3,160.3,0,0,0,27.8,16.4,150.9,150.9,0,0,0,29.7,10.2,125.9,125.9,0,0,0,29.4,3.2,163.4,163.4,0,0,0,32.7-3.7,154.1,154.1,0,0,0,30.6-10.1,150.7,150.7,0,0,0,51.3-37.9,142,142,0,0,0,25.5-41.8,148.1,148.1,0,0,0,7.1-23.9,154.4,154.4,0,0,0,3.1-25.1v-2.2h1.1l120.2-.2H569v2.3a264.4,264.4,0,0,1-6.7,55.1,269.1,269.1,0,0,1-18.1,52.8,276.6,276.6,0,0,1-66.9,90,250.6,250.6,0,0,1-38.5,28,283.7,283.7,0,0,1-92.2,34.7,268.4,268.4,0,0,1-48.3,4.6,283.4,283.4,0,0,1-45.5-3.4,257.3,257.3,0,0,1-42.9-10.6,252.9,252.9,0,0,1-40.2-17.8,269.4,269.4,0,0,1-37.3-24.9,285.5,285.5,0,0,1-43.7-43,278.6,278.6,0,0,1-33.2-51,264.8,264.8,0,0,1-20.8-56.2,243.4,243.4,0,0,1-7.1-57.9v-2.3Z" transform="translate(-14.9 -138.4)" fill="#fff" fill-rule="evenodd"/><path d="M67,348.9c2.5-5.6,4.6-10.5,6.8-15.4s4.5-9.8,7.3-15.5c4-8.2,9.8-14.9,17.4-18.1s14.7-3,24.2.5a37.7,37.7,0,0,1,15,10.1,31.6,31.6,0,0,1,7.5,15.2,30.2,30.2,0,0,1-.8,12.1,53.1,53.1,0,0,1-5.3,13.5q-3.5,6.1-6.4,12.3a131.7,131.7,0,0,0-5,12.4,9.6,9.6,0,0,1-1.7,2.9,11.4,11.4,0,0,1-2.7,2.4,4.8,4.8,0,0,1-3.3.6,6.6,6.6,0,0,1-3.3-1.6,2.7,2.7,0,0,1-.8-2.3,12,12,0,0,1,.4-2.5,2.9,2.9,0,0,0-.4-2.2,5.7,5.7,0,0,0-2.2-2.1c-6.9-3.8-14-7.3-21.1-10.7L81,354.8a7,7,0,0,0-3.7-.8,3.1,3.1,0,0,0-2.4,1.2,4.5,4.5,0,0,1-2.3,1.7,5.2,5.2,0,0,1-3-.1,5.2,5.2,0,0,1-2.3-1.3,3.8,3.8,0,0,1-1-2.3,8,8,0,0,1,.7-4.3Zm8.1-14.8c-2.2,4.9-4.4,9.7-6.8,15.4h0a6.5,6.5,0,0,0-.6,3.5,2.4,2.4,0,0,0,.6,1.4,3.9,3.9,0,0,0,1.7,1,3.8,3.8,0,0,0,2.2.1,3.1,3.1,0,0,0,1.6-1.2,4.5,4.5,0,0,1,3.4-1.7,8.5,8.5,0,0,1,4.4,1l11.8,5.8c7.1,3.5,14.2,6.9,21.2,10.8a7.2,7.2,0,0,1,2.7,2.6,4.3,4.3,0,0,1,.5,3.2,10.9,10.9,0,0,0-.4,2.2,1.4,1.4,0,0,0,.3,1.2,5.2,5.2,0,0,0,2.6,1.3,3.4,3.4,0,0,0,2.3-.4A10,10,0,0,0,125,378a8.2,8.2,0,0,0,1.5-2.5,133.3,133.3,0,0,1,5.1-12.5q2.9-6.2,6.4-12.4a51.7,51.7,0,0,0,5.2-13.1,28.8,28.8,0,0,0,.8-11.5,30.2,30.2,0,0,0-7.2-14.5,36.3,36.3,0,0,0-14.4-9.7c-9.1-3.4-16.8-3.2-23.2-.5s-12.8,9.4-16.7,17.4C79.6,324.3,77.3,329.2,75.1,334.1Z" transform="translate(-14.9 -138.4)" fill="#163666" fill-rule="evenodd"/><path d="M87.7,330.6a1.7,1.7,0,0,0,.9,2.1l12.1,5.7c7.6,3.6,15.2,7.1,23,10.6a5,5,0,0,0,2.7.5,3.1,3.1,0,0,0,2-1.1,10.4,10.4,0,0,0,1.8-3.2,11.4,11.4,0,0,0,.8-3.7,11.8,11.8,0,0,0-1.3-5.5,15.1,15.1,0,0,0-3.9-4.8,44,44,0,0,0-10-6.1,57,57,0,0,0-11.2-3.6,19.2,19.2,0,0,0-6.4-.5,11.5,11.5,0,0,0-6.1,2.7,11.6,11.6,0,0,0-2.4,2.8,16.5,16.5,0,0,0-1.8,4.1Zm-1.2,1.8a3.1,3.1,0,0,1-.1-2.2,17.9,17.9,0,0,1,1.9-4.5,13,13,0,0,1,2.7-3.1,12.9,12.9,0,0,1,6.8-3,20.6,20.6,0,0,1,6.9.5,58.4,58.4,0,0,1,11.5,3.7,45.4,45.4,0,0,1,10.3,6.3,16.5,16.5,0,0,1,4.3,5.2,13.1,13.1,0,0,1,1.4,6.1,12.8,12.8,0,0,1-.9,4.2,11.8,11.8,0,0,1-2,3.6,4.5,4.5,0,0,1-2.8,1.5,6.4,6.4,0,0,1-3.5-.6c-7.8-3.5-15.4-7-23-10.6l-12.1-5.6h0A3.2,3.2,0,0,1,86.4,332.3Z" transform="translate(-14.9 -138.4)" fill="#163666" fill-rule="evenodd"/><path d="M155.9,254.1a25.7,25.7,0,0,0-2.1-5.5,56.8,56.8,0,0,0-3.1-5.3c-1.9-2.8-2.5-5.3-2.2-7.7a11.2,11.2,0,0,1,3.8-6.5,14.5,14.5,0,0,1,4.3-2.9,12.9,12.9,0,0,1,4.8-1,25.7,25.7,0,0,1,8.6,1.4,51.7,51.7,0,0,1,8.2,3.6l12.2,6.5,24.4,13.1a6.4,6.4,0,0,0,3.1.8,7.4,7.4,0,0,0,3.1-.8,3.9,3.9,0,0,1,2.1-.4,3,3,0,0,1,1.8.9,5.5,5.5,0,0,1,1.7,3.3,6.3,6.3,0,0,1-.9,3.8c-3,5.4-10.5,10.4-18.3,15.4l-3.8,2.5a11.4,11.4,0,0,1-4.2,1.8,8.3,8.3,0,0,1-4.1-.2,3.5,3.5,0,0,1-1.7-1.4,4.9,4.9,0,0,1-.8-2.3,3.3,3.3,0,0,1,.3-1.7,5.6,5.6,0,0,1,.8-1.2,4.3,4.3,0,0,0,1-1.7,2.3,2.3,0,0,0-.4-1.8,2.5,2.5,0,0,0-1.1-1,4.1,4.1,0,0,0-1.6-.2l-1.4.3-1.7.9-7.2,5.1-5.9,4.2a2.4,2.4,0,0,0-.8,1.4,4.6,4.6,0,0,0,.1,2.2h0c.3,1.1.6,2.1,1.9,2a4.7,4.7,0,0,0,1.5-.6l.7-.3a4,4,0,0,1,2.7-.2,4.1,4.1,0,0,1,2.3,1.5,4.9,4.9,0,0,1,.2,5.9,29.4,29.4,0,0,1-6.8,7,77.2,77.2,0,0,1-8.7,5.5,9.9,9.9,0,0,1-2.7,1.1,7.5,7.5,0,0,1-2.9.1,3.2,3.2,0,0,1-1.5-.7l-1.1-1.1a4.4,4.4,0,0,1-1.1-2.3,3.3,3.3,0,0,1,.5-2.3l.7-1a9.7,9.7,0,0,0,2-3.9c.5-3.8-1.1-10.6-2.5-16.8l-.7-2.9c-.5-2.4-1-4.7-1.4-7.1s-1.3-6.5-2.1-9.7Zm-.8-6.2a27,27,0,0,1,2.2,5.8c.8,3.3,1.4,6.5,2.1,9.8s.9,4.8,1.4,7l.7,2.9c1.4,6.3,3,13.2,2.5,17.3a10.7,10.7,0,0,1-2.3,4.6l-.6.9a1.9,1.9,0,0,0-.3,1.3,3,3,0,0,0,.7,1.5l.9.9.8.4a6.1,6.1,0,0,0,2.3-.1,8.5,8.5,0,0,0,2.3-.9,75.9,75.9,0,0,0,8.5-5.4,28,28,0,0,0,6.5-6.6,3.5,3.5,0,0,0-.1-4.2,2.7,2.7,0,0,0-1.5-1,2.6,2.6,0,0,0-1.8.2l-.6.3a5.7,5.7,0,0,1-2,.7c-2.5.3-2.9-1.3-3.4-3h0a6,6,0,0,1-.1-3,3.8,3.8,0,0,1,1.4-2.3l5.9-4.2,7.2-5.1a9.6,9.6,0,0,1,2-1.1,5.3,5.3,0,0,1,1.9-.4,5.4,5.4,0,0,1,2.1.3,3.8,3.8,0,0,1,1.8,1.5,3.6,3.6,0,0,1,.7,2.8,5.6,5.6,0,0,1-1.3,2.3,4.3,4.3,0,0,0-.6.9,2,2,0,0,0-.2,1,3.4,3.4,0,0,0,.6,1.6,2.1,2.1,0,0,0,1,.9,6.9,6.9,0,0,0,3.4.2,10,10,0,0,0,3.7-1.6l3.8-2.5c7.6-5,15-9.8,17.8-14.9a5,5,0,0,0,.7-2.9,4.1,4.1,0,0,0-1.3-2.5,1.7,1.7,0,0,0-1-.5,2.5,2.5,0,0,0-1.3.3,8.7,8.7,0,0,1-3.6.9,7.8,7.8,0,0,1-3.8-1l-24.4-13.1-12.2-6.5a50.3,50.3,0,0,0-7.9-3.5,24.4,24.4,0,0,0-8.2-1.3,11.5,11.5,0,0,0-4.3.9,13,13,0,0,0-3.8,2.6h0a9.8,9.8,0,0,0-3.3,5.7c-.3,2,.3,4.2,2,6.7h0A58.3,58.3,0,0,1,155.1,247.9Z" transform="translate(-14.9 -138.4)" fill="#163666" fill-rule="evenodd"/><path d="M165.5,252.9a2.2,2.2,0,0,1,0-.4,3.4,3.4,0,0,1,.6-1.8,2.9,2.9,0,0,1,1.9-1.3h.6a6.9,6.9,0,0,1,2.1.4l1.9.8,3.9,1.8,3.8,2.1a4.4,4.4,0,0,1,1.8,1.7c.3.8.1,1.5-1,2.3l-4.2,2.9-4.1,3h-.1a7,7,0,0,1-2,1.2c-.9.3-1.7,0-2.1-1.3l-.5-1.7c-1-3.3-1.9-6.6-2.6-9.9Zm1.4-.4h0c.6,3.3,1.6,6.6,2.5,9.8l.5,1.7c.1.3.2.3.3.3a6.3,6.3,0,0,0,1.6-1h.1l4.1-3.1,4.2-3c.4-.3.5-.4.5-.5a3.5,3.5,0,0,0-1.3-1l-3.7-2.1-3.8-1.8-1.7-.7-1.7-.3h-.3a1.5,1.5,0,0,0-.9.7A1.9,1.9,0,0,0,166.9,252.5Z" transform="translate(-14.9 -138.4)" fill="#163666" fill-rule="evenodd"/><path d="M247,200.9a5.5,5.5,0,0,0-1.5-3.1,3.7,3.7,0,0,0-2.7-1.2,7.8,7.8,0,0,1-3.3-.5,3.2,3.2,0,0,1-1.9-2.5,4.7,4.7,0,0,1,.2-2.8,5.7,5.7,0,0,1,1.7-2.3,22.2,22.2,0,0,1,7.4-4,50.3,50.3,0,0,1,8.2-1.8,60.6,60.6,0,0,1,8.8-.7c2.8,0,5.6.1,8.3.3a4.7,4.7,0,0,1,3,1.6,5.6,5.6,0,0,1,1.4,3.2,3.5,3.5,0,0,1-.4,2.2,3.8,3.8,0,0,1-1.8,1.5,7.5,7.5,0,0,0-3,2.3,4,4,0,0,0-.8,2.8c.5,5.2,1.4,11.2,2.3,17.3s1.6,10.9,2.2,16.1a7.6,7.6,0,0,0,1.3,3.6,4.7,4.7,0,0,0,2.5,1.9,10.1,10.1,0,0,0,3.6.1,20.8,20.8,0,0,0,4.5-1,9.9,9.9,0,0,0,3.8-2.4,8.2,8.2,0,0,0,2.1-3.6c.2-.9.4-1.8.6-2.6.5-2.8.9-4.9,3.4-5.4a5.5,5.5,0,0,1,3.4.4,7,7,0,0,1,2.8,2.3,12.8,12.8,0,0,1,1.8,7.1,25.6,25.6,0,0,1-1.6,8.9,15,15,0,0,1-1.6,3.1,29.5,29.5,0,0,1-2,2.6,3.9,3.9,0,0,1-1.4,1.1,4.9,4.9,0,0,1-1.8.4h-6.8l-2.8.2-2.8.3-4.3.6c-8.2,1.1-16.4,2.2-24.5,3.6a17,17,0,0,1-4.4.3,6,6,0,0,1-3.9-1.8,3.2,3.2,0,0,1-.8-1.7,8.3,8.3,0,0,1-.1-2.3,2.7,2.7,0,0,1,.7-1.5,5,5,0,0,1,1.5-1.1,8.6,8.6,0,0,0,2.7-1.9,4.2,4.2,0,0,0,.9-2.5c.4-5.1-1.2-14.7-2.9-24.5-.7-4.3-1.5-8.6-2.1-12.6Zm-.5-4.1a6.9,6.9,0,0,1,1.9,3.9c.6,4,1.3,8.3,2,12.6,1.7,9.9,3.4,19.6,2.9,24.9a5.6,5.6,0,0,1-1.3,3.2,9.9,9.9,0,0,1-3.1,2.3,3.6,3.6,0,0,0-1.1.8,1.3,1.3,0,0,0-.3.7,7,7,0,0,0,0,1.9,1.9,1.9,0,0,0,.4.9,4.7,4.7,0,0,0,3,1.4,15.9,15.9,0,0,0,4-.3c8.2-1.4,16.4-2.5,24.6-3.6l4.3-.6,2.9-.4,2.9-.2h6.8l1.3-.3a2.5,2.5,0,0,0,.9-.7,28.6,28.6,0,0,0,1.9-2.5h0a13.6,13.6,0,0,0,1.5-2.8,24.2,24.2,0,0,0,1.5-8.4,11.5,11.5,0,0,0-1.5-6.3,5.6,5.6,0,0,0-2.3-1.9,4.1,4.1,0,0,0-2.6-.3c-1.6.3-1.9,2-2.4,4.3s-.3,1.7-.6,2.7a9.6,9.6,0,0,1-2.4,4.3,11.4,11.4,0,0,1-4.4,2.7,22.2,22.2,0,0,1-4.9,1.1,11.5,11.5,0,0,1-4.1-.2,6.1,6.1,0,0,1-3.3-2.4,9,9,0,0,1-1.6-4.3c-.6-5.2-1.4-10.7-2.2-16.1s-1.8-12-2.3-17.4a5.4,5.4,0,0,1,1.1-3.7,8.9,8.9,0,0,1,3.5-2.7,2.4,2.4,0,0,0,1.1-.9,2.1,2.1,0,0,0,.2-1.3,4.2,4.2,0,0,0-1-2.4,3.3,3.3,0,0,0-2.1-1.1c-2.7-.2-5.4-.4-8.2-.3a59.2,59.2,0,0,0-8.6.7,49.1,49.1,0,0,0-7.9,1.7,20.8,20.8,0,0,0-7,3.8,4.3,4.3,0,0,0-1.3,1.7,3.3,3.3,0,0,0-.1,1.9,1.9,1.9,0,0,0,1.1,1.5,6.6,6.6,0,0,0,2.7.4A5.1,5.1,0,0,1,246.5,196.8Z" transform="translate(-14.9 -138.4)" fill="#163666" fill-rule="evenodd"/><path d="M331.5,190.1a2.4,2.4,0,0,1-1.4-1.2,3.7,3.7,0,0,1-.3-1.8,5.9,5.9,0,0,1,.7-2.8,5.4,5.4,0,0,1,1.8-1.9,9.3,9.3,0,0,1,3.4-1.4,12.6,12.6,0,0,1,3.4-.1,59.6,59.6,0,0,1,14,2.8,60.7,60.7,0,0,1,11.7,5.4,8.3,8.3,0,0,1,2.5,2.3,4.5,4.5,0,0,1,1,2.7,4.3,4.3,0,0,1-.8,2.5,4,4,0,0,1-2.1,1.4H365c-1.7.5-3.3,1-3.3,2.3a73.1,73.1,0,0,0,1.1,11.2c.3,1.9.6,3.9.8,5.8a5.5,5.5,0,0,0,.9,2.8,1.5,1.5,0,0,0,1.4.4,3.9,3.9,0,0,0,1.7-.6,9.5,9.5,0,0,0,1.6-1.3l3.3-3.8,6.9-7.9a5.8,5.8,0,0,0,1.2-2,1.6,1.6,0,0,0-.4-1.7h-.1c-1-.9-2.5-2.4-2.6-4.3a4.1,4.1,0,0,1,1.7-3.1,6.2,6.2,0,0,1,3.6-1.4,34.3,34.3,0,0,1,9.6,1.1,41.9,41.9,0,0,1,9.6,3.8,13.6,13.6,0,0,1,3.4,2.4,4.4,4.4,0,0,1,1.4,3.2,5.3,5.3,0,0,1-.4,2,5.6,5.6,0,0,1-1,1.5,3.6,3.6,0,0,1-1.6,1,3.7,3.7,0,0,1-1.7.1l-1.2-.2c-1.9-.4-3.8-.7-4.6.1-11.7,11.9-23.1,24.1-34.5,36.4l-3.4,3.7a13,13,0,0,1-5.2,3.6,8.1,8.1,0,0,1-5.5-.1,8.9,8.9,0,0,1-3.4-2.1,6.9,6.9,0,0,1-1.9-3.9c-1.8-11.4-3.2-22.7-4.6-34-.7-5.8-1.4-11.5-2.1-17h0a6.8,6.8,0,0,0-1.1-3.7,6.3,6.3,0,0,0-3.2-2.3Zm-.1-1.8a1,1,0,0,0,.6.5,7.7,7.7,0,0,1,3.9,2.9,8.1,8.1,0,0,1,1.3,4.4c.8,5.8,1.4,11.4,2.1,17,1.4,11.4,2.8,22.7,4.6,34a5.6,5.6,0,0,0,1.5,3.1,7.5,7.5,0,0,0,2.9,1.7,6.7,6.7,0,0,0,4.5.1,11.6,11.6,0,0,0,4.6-3.2l3.4-3.7c11.4-12.2,22.8-24.4,34.5-36.4,1.3-1.4,3.5-1,5.8-.5l1.1.2h1.1a2.2,2.2,0,0,0,1-.7,4.2,4.2,0,0,0,.8-1.1,3.9,3.9,0,0,0,.3-1.4,3.1,3.1,0,0,0-1-2.2,12.2,12.2,0,0,0-3-2.1,40.5,40.5,0,0,0-9.3-3.7A33,33,0,0,0,383,196a4.8,4.8,0,0,0-2.8,1.1,2.7,2.7,0,0,0-1.2,2c0,1.3,1.3,2.5,2.1,3.3h.1a2.9,2.9,0,0,1,.8,3.1,7.1,7.1,0,0,1-1.5,2.6l-6.9,7.9c-1,1.2-2.3,2.9-3.4,3.9a10.9,10.9,0,0,1-1.9,1.5,5.3,5.3,0,0,1-2.3.8,2.8,2.8,0,0,1-2.5-.9,6.7,6.7,0,0,1-1.2-3.6c-.2-1.9-.5-3.8-.8-5.7a74,74,0,0,1-1.2-11.4c0-2.4,2.1-3,4.3-3.7h.3a2.6,2.6,0,0,0,1.4-.9,3,3,0,0,0,.5-1.7,3.2,3.2,0,0,0-.7-1.9,6.9,6.9,0,0,0-2.1-1.9,59.3,59.3,0,0,0-11.4-5.2,58.2,58.2,0,0,0-13.7-2.8,11.2,11.2,0,0,0-3,.1,7.9,7.9,0,0,0-2.9,1.2,4,4,0,0,0-1.4,1.4,4.6,4.6,0,0,0-.5,2.1A2.3,2.3,0,0,0,331.4,188.3Z" transform="translate(-14.9 -138.4)" fill="#163666" fill-rule="evenodd"/><path d="M448.8,211.4a2.9,2.9,0,0,1,.6-1.8,1.9,1.9,0,0,1,1.7-.6,13.1,13.1,0,0,1,7.1,3.1,31,31,0,0,1,5.6,6.3,5,5,0,0,1,.9,2.3,4.5,4.5,0,0,1-.4,2.4,3.6,3.6,0,0,1-1.8,1.7,11.5,11.5,0,0,1-3.2.9,23.4,23.4,0,0,1-10.8-.9,29.9,29.9,0,0,1-8.9-4.9,4.4,4.4,0,0,1-1.6-2,3.4,3.4,0,0,1,.2-2.6,4.3,4.3,0,0,1,3.8-2.7H447a2.5,2.5,0,0,0,1.4-.2c.2-.1.3-.4.3-1Zm1.7-.8a1.6,1.6,0,0,0-.3.9,2.5,2.5,0,0,1-.9,2,3.6,3.6,0,0,1-2.3.4h-4.7a2.9,2.9,0,0,0-2.7,1.9,2,2,0,0,0-.2,1.5,3,3,0,0,0,1.1,1.3,28.6,28.6,0,0,0,8.5,4.7,22,22,0,0,0,10.1.9,10.1,10.1,0,0,0,2.8-.7,2.2,2.2,0,0,0,1.2-1,3.1,3.1,0,0,0,.3-1.7,3.6,3.6,0,0,0-.7-1.7,29.7,29.7,0,0,0-5.3-6,11.8,11.8,0,0,0-6.4-2.8Z" transform="translate(-14.9 -138.4)" fill="#163666" fill-rule="evenodd"/><path d="M426.3,220.6a5.7,5.7,0,0,1,2.7-1.4,5.2,5.2,0,0,1,2.9.2,71.3,71.3,0,0,1,13.9,6.9,46.4,46.4,0,0,1,10.8,9.7A7.4,7.4,0,0,1,458,239a6.8,6.8,0,0,1,0,3.2,4,4,0,0,1-1.5,2.3,3.7,3.7,0,0,1-2.6.7l-1.3-.2c-2.1-.3-3.7-.5-5.3,1a128.9,128.9,0,0,0-10.1,12.3c-4.1,5.5-8.4,11.7-11.7,17a6.2,6.2,0,0,0-1,2.4,3,3,0,0,0,.7,2.3,6.9,6.9,0,0,1,1.5,3.2,4.8,4.8,0,0,1-.7,3.3,4.6,4.6,0,0,1-2.1,1.9,6,6,0,0,1-2.7.4,11.7,11.7,0,0,1-3-.5,14.5,14.5,0,0,1-2.8-1.2c-3.3-1.8-6.6-3.7-9.8-5.9a55.6,55.6,0,0,1-9-7.6,11.6,11.6,0,0,1-2-2.7,7,7,0,0,1-.8-3.4,4.4,4.4,0,0,1,.8-2.5,3.9,3.9,0,0,1,2.1-1.4,7.3,7.3,0,0,1,2.8-.2h2.9l.9-.5c6.6-6.3,11-12.7,15.4-19.2l4.2-6.1.7-1.1c1.6-2.5,3.3-5.2,2.6-7.5l-.5-1.5c-.9-2.5-1.9-4.9.4-6.9Zm2.9,0a4.3,4.3,0,0,0-2,1c-1.5,1.3-.8,3.3,0,5.4l.6,1.5c.9,2.9-1,5.9-2.8,8.7l-.7,1.1h0l-4.2,6.1c-4.5,6.6-8.9,13.1-15.6,19.5a3.6,3.6,0,0,1-1.5.8,5.5,5.5,0,0,1-1.8.2h-1.5a6.3,6.3,0,0,0-2.3.1,2.6,2.6,0,0,0-1.3.9,3,3,0,0,0-.5,1.7,5.6,5.6,0,0,0,.6,2.7,10.3,10.3,0,0,0,1.7,2.4,54.2,54.2,0,0,0,8.8,7.4c3.1,2.1,6.4,4,9.7,5.8a13.1,13.1,0,0,0,2.5,1.1,10.3,10.3,0,0,0,2.6.4,4.8,4.8,0,0,0,2.1-.3,3.2,3.2,0,0,0,1.4-1.3,3.4,3.4,0,0,0,.5-2.4,5.5,5.5,0,0,0-1.2-2.5,4.3,4.3,0,0,1-1-3.4,7.5,7.5,0,0,1,1.2-2.9c3.4-5.3,7.7-11.6,11.8-17.1a129.9,129.9,0,0,1,10.2-12.5c2-2,4-1.7,6.4-1.4l1.3.2a2.3,2.3,0,0,0,1.6-.5,2.6,2.6,0,0,0,.9-1.5,5.4,5.4,0,0,0,0-2.5,6,6,0,0,0-1.2-2.3,45,45,0,0,0-10.5-9.4,69.9,69.9,0,0,0-13.7-6.8A3.7,3.7,0,0,0,429.2,220.6Z" transform="translate(-14.9 -138.4)" fill="#163666" fill-rule="evenodd"/><path d="M487.7,287.1a8.3,8.3,0,0,0,1.2-1.5,3,3,0,0,0,.5-1.6,10.9,10.9,0,0,1,.2-2.7,4.1,4.1,0,0,1,1.3-2.2,6.4,6.4,0,0,1,3.5-1.6,4.6,4.6,0,0,1,3.4,1,25.1,25.1,0,0,1,4.7,5.1,76.4,76.4,0,0,1,4.1,6.5l.7,1.1c1.8,3.1,3.6,6.1,4.3,9.6a8.5,8.5,0,0,1,.1,3.5,6.7,6.7,0,0,1-1.3,2.8,5,5,0,0,1-2.4,1.8,3.7,3.7,0,0,1-2.7-.1,12.8,12.8,0,0,0-2.9-1,7.2,7.2,0,0,0-2.9,0,12.9,12.9,0,0,0-3.1,1.2,24,24,0,0,0-3.1,2l-.2.2a1.5,1.5,0,0,0-.2.8,1.4,1.4,0,0,0,.2.8l.2.2c2.5,1.6,6,1.9,10.1,2.3l1.7.2h1.5a1.9,1.9,0,0,0,1-.6l.9-1.2.8-1a4.2,4.2,0,0,1,1.8-1.3,5.4,5.4,0,0,1,2-.3,6.2,6.2,0,0,1,3.2,1,11.1,11.1,0,0,1,2.9,2.7c4.2,5.5,6.5,11,9.1,17l.2.4a7.3,7.3,0,0,1,.6,3.1,7.6,7.6,0,0,1-.8,3.1,4.5,4.5,0,0,1-1.6,1.8,7.1,7.1,0,0,1-2.1.9,4.3,4.3,0,0,1-1.9.1,3.8,3.8,0,0,1-1.8-.9,11,11,0,0,1-2-2.2,16.1,16.1,0,0,1-1.6-2.9,6.7,6.7,0,0,0-2-2.7,7.1,7.1,0,0,0-3-1.3h-.1l-1.9-.7a32.5,32.5,0,0,0-7.2-2.1,6,6,0,0,0-2.9.2,2.7,2.7,0,0,0-1.5,1.4,186.1,186.1,0,0,0-7.1,17.6c-1.7,4.5-3.3,9.1-5.2,13.5a7.2,7.2,0,0,0-.4,2.6c0,.4,0,.8-.1,1.2a25.6,25.6,0,0,0-.1,2.6c0,.4,0,.7,0,1.1a5,5,0,0,1-1.3,3.4,6.8,6.8,0,0,1-5.2,2.2,4.5,4.5,0,0,1-2-.5,4.9,4.9,0,0,1-1.8-1.6,83.2,83.2,0,0,1-6.1-10.7c-1.2-2.3-2.4-4.7-3.7-6.9a7.7,7.7,0,0,1-1-2.7,6,6,0,0,1,.4-3.3l3.9-9.6,4-9.6a11.3,11.3,0,0,0,.8-3.1,3.8,3.8,0,0,0-.2-2,1.4,1.4,0,0,0-.8-.8,2.8,2.8,0,0,0-1.4,0l-2.2,1.1-2.3,1.2a2.9,2.9,0,0,0-1.1.9,5.6,5.6,0,0,0-.8,1.7c-.2.5-.3,1.1-.4,1.7a9.4,9.4,0,0,1-1.6,4.1,4.1,4.1,0,0,1-2.3,1.5,4.7,4.7,0,0,1-2.8-.2,10.1,10.1,0,0,1-3.7-2.8,35.3,35.3,0,0,1-3.1-4.3,120.7,120.7,0,0,1-7.8-15.1v-.2a11.7,11.7,0,0,1-1.3-5.6A4.8,4.8,0,0,1,444,304a5.3,5.3,0,0,1,2.6-.9,4.2,4.2,0,0,1,2.5.6,9.2,9.2,0,0,0,2,.9,5.4,5.4,0,0,0,2.1.2,20.4,20.4,0,0,0,5.1-1.5h.4a128.9,128.9,0,0,0,16.4-7.8,79.1,79.1,0,0,0,12.6-8.5Zm2.4-.7a9.7,9.7,0,0,1-1.4,1.7h0a80.2,80.2,0,0,1-12.9,8.7,130.5,130.5,0,0,1-16.6,7.9h-.4a21.3,21.3,0,0,1-5.4,1.5,6.8,6.8,0,0,1-2.7-.3,10.5,10.5,0,0,1-2.3-1.1,2.9,2.9,0,0,0-1.7-.4,3.9,3.9,0,0,0-1.9.7,3.5,3.5,0,0,0-1.6,2.8,10.3,10.3,0,0,0,1.2,4.9v.2a119.3,119.3,0,0,0,7.8,14.9,34.2,34.2,0,0,0,3,4.1,8.8,8.8,0,0,0,3.2,2.4,3.3,3.3,0,0,0,2,.2,2.7,2.7,0,0,0,1.5-1,8.4,8.4,0,0,0,1.3-3.6c.1-.6.2-1.2.4-1.8a6.9,6.9,0,0,1,1-2.2h0a4.3,4.3,0,0,1,1.6-1.4l2.3-1.1,2.4-1.2h.1a4.3,4.3,0,0,1,2.1,0,2.7,2.7,0,0,1,1.7,1.5,5.1,5.1,0,0,1,.4,2.8,12.7,12.7,0,0,1-.9,3.5l-4,9.6-3.9,9.6a4.7,4.7,0,0,0-.3,2.5,6.4,6.4,0,0,0,.9,2.2c1.3,2.3,2.5,4.7,3.7,7a82.3,82.3,0,0,0,6,10.5,3.5,3.5,0,0,0,1.3,1.2,3.2,3.2,0,0,0,1.4.3,5.4,5.4,0,0,0,4.1-1.8,3.6,3.6,0,0,0,1-2.4c0-.4,0-.7,0-1.1a26.4,26.4,0,0,1,.1-2.8c0-.4,0-.7.1-1.1a8.3,8.3,0,0,1,.5-3.2c1.9-4.5,3.6-9,5.2-13.5a187.2,187.2,0,0,1,7.2-17.7,4.1,4.1,0,0,1,2.3-2.1,7.4,7.4,0,0,1,3.6-.3,33.5,33.5,0,0,1,7.5,2.2l1.8.7a8.5,8.5,0,0,1,3.5,1.6,8.1,8.1,0,0,1,2.4,3.2,14.7,14.7,0,0,0,1.5,2.6,9.6,9.6,0,0,0,1.7,1.9,2.5,2.5,0,0,0,1.2.6h1.3a5.8,5.8,0,0,0,1.7-.7,3.1,3.1,0,0,0,1.1-1.2,6.2,6.2,0,0,0,.6-2.5,6,6,0,0,0-.5-2.5l-.2-.4c-2.5-5.9-4.8-11.3-8.9-16.7a9.7,9.7,0,0,0-2.5-2.4,4.8,4.8,0,0,0-2.5-.8,4.1,4.1,0,0,0-1.5.2,2.9,2.9,0,0,0-1.2.9l-.7,1-1,1.3a3.3,3.3,0,0,1-1.8,1.1,6,6,0,0,1-1.9.1l-1.7-.2c-4.3-.4-8-.8-10.8-2.5l-.6-.6a2.8,2.8,0,0,1-.5-1.6,2.9,2.9,0,0,1,.4-1.6l.6-.6a25.3,25.3,0,0,1,3.3-2.1,14.4,14.4,0,0,1,3.5-1.3,8.5,8.5,0,0,1,3.5-.1,14.1,14.1,0,0,1,3.3,1.1,2.3,2.3,0,0,0,1.7.1,3.6,3.6,0,0,0,1.7-1.3,5.3,5.3,0,0,0,1-2.2,7.1,7.1,0,0,0-.1-2.9c-.7-3.2-2.4-6.1-4.2-9.1l-.7-1.1a74.1,74.1,0,0,0-4-6.4,23.8,23.8,0,0,0-4.5-4.8,3.3,3.3,0,0,0-2.4-.7,5,5,0,0,0-2.7,1.2,2.7,2.7,0,0,0-.8,1.5,9.6,9.6,0,0,0-.2,2.4A4.3,4.3,0,0,1,490.1,286.3Z" transform="translate(-14.9 -138.4)" fill="#163666" fill-rule="evenodd"/><path d="M123.1,462.7a6.7,6.7,0,0,1,.2-1.9,2.7,2.7,0,0,1,1.1-1.5,5.8,5.8,0,0,1,2.7-1,4.6,4.6,0,0,1,2.7.7,11.3,11.3,0,0,1,3.6,3.5,27,27,0,0,1,3,5.8c.5,1.4.9,2.8,1.3,4.2s.7,2.5,1.1,3.7c1.1,3.1,2.6,6.3,4.1,9.5a90.6,90.6,0,0,1,5.1,12.5,25.3,25.3,0,0,1,.5,12.9,15,15,0,0,1-6.1,9.1,16.4,16.4,0,0,1-9.7,3.1,15.9,15.9,0,0,1-9.5-3.6h-.1c-.7-.5-1.2-.9-1.8-.8l-.6.4a1.8,1.8,0,0,0-.3.9,13.8,13.8,0,0,0,0,2.2,18.1,18.1,0,0,1,0,2.1,11.4,11.4,0,0,1-2.2,6,20.7,20.7,0,0,1-4.7,4.5c-1,.8-2.2,1.4-3.3,2a32.8,32.8,0,0,0-3.5,2.2,2.6,2.6,0,0,0-.9,1.4,6.6,6.6,0,0,0-.2,2c0,.3,0,.6.1,1a5.7,5.7,0,0,1-.1,2.3,3.2,3.2,0,0,1-1.3,1.7,5.2,5.2,0,0,1-2.3.8,5.4,5.4,0,0,1-2.5-.3,9.3,9.3,0,0,1-2.2-1.2,18.8,18.8,0,0,1-4.7-5.6,40.6,40.6,0,0,1-3.8-8.5,16.1,16.1,0,0,1-.4-7.7,12.3,12.3,0,0,1,3.1-6.3,58.5,58.5,0,0,1,4.9-4.4l5.4-4,.7-.5c2.2-1.6,4.5-3.1,4.7-5.7a11.1,11.1,0,0,0,0-2.5,4.1,4.1,0,0,0-.7-1.8,1.2,1.2,0,0,0-.9-.5,4.4,4.4,0,0,0-1.4.3l-5.7,2.2a49.6,49.6,0,0,0-5.4,2.7,4,4,0,0,0-1.5,1.6,3.9,3.9,0,0,0-.5,2.1,4.5,4.5,0,0,1-.2,1.8,4.3,4.3,0,0,1-1,1.6,4.4,4.4,0,0,1-1.7,1.1,6.5,6.5,0,0,1-2.1.3,3.6,3.6,0,0,1-2.1-.6,6.8,6.8,0,0,1-1.8-1.8,54.4,54.4,0,0,1-5.6-9.7,93.8,93.8,0,0,1-3.9-10.4,17,17,0,0,1-.7-5.6,7.2,7.2,0,0,1,1.3-4.2,6.2,6.2,0,0,1,3-2,3.4,3.4,0,0,1,3.1.6l.3.2c1.5,1.3,2.8,2.4,4.7,2.4l2.6-.3,2.5-.8,9.2-3.7c6.1-2.4,12.2-4.9,18.2-7.5l2-1,1.1-.6a5.7,5.7,0,0,0,2.3-2.1,5.8,5.8,0,0,0,.8-3Zm1.6-1.5a5.5,5.5,0,0,0-.1,1.5,7.1,7.1,0,0,1-1,3.8,7.1,7.1,0,0,1-2.9,2.6l-1.1.6-2.1,1.1c-5.9,2.6-12,5.1-18.2,7.5L90.1,482l-2.7.9a13.4,13.4,0,0,1-2.9.3c-2.4,0-3.9-1.3-5.6-2.7l-.3-.2a2,2,0,0,0-1.8-.3,4.7,4.7,0,0,0-2.3,1.6,5.9,5.9,0,0,0-.9,3.4,15.6,15.6,0,0,0,.6,5.1,92.2,92.2,0,0,0,3.9,10.3,53,53,0,0,0,5.4,9.4,5.5,5.5,0,0,0,1.4,1.4,2.3,2.3,0,0,0,1.3.3l1.6-.3a3,3,0,0,0,1.2-.8,2.9,2.9,0,0,0,.7-1,3.2,3.2,0,0,0,.1-1.2,5.3,5.3,0,0,1,.6-2.8,5.5,5.5,0,0,1,2-2.1,51,51,0,0,1,5.6-2.8l5.8-2.2a5.5,5.5,0,0,1,1.9-.4,2.5,2.5,0,0,1,2.1,1.1,5.5,5.5,0,0,1,1,2.5,12.4,12.4,0,0,1,0,2.8c-.3,3.2-2.8,5-5.3,6.7l-.7.5-5.3,4a57.2,57.2,0,0,0-4.8,4.3,10.8,10.8,0,0,0-2.8,5.6,14.7,14.7,0,0,0,.3,7,39.1,39.1,0,0,0,3.7,8.2,17.5,17.5,0,0,0,4.3,5.2,8,8,0,0,0,1.8,1,4,4,0,0,0,1.9.2,3.9,3.9,0,0,0,1.7-.5,1.8,1.8,0,0,0,.7-1,4.7,4.7,0,0,0,.1-1.8c0-.3-.1-.6-.1-1a7.9,7.9,0,0,1,.2-2.4A4,4,0,0,1,106,538a33.9,33.9,0,0,1,3.6-2.3l3.1-2a19.3,19.3,0,0,0,4.4-4.2,10,10,0,0,0,2-5.3,16.7,16.7,0,0,0,0-1.9,14.9,14.9,0,0,1,0-2.4,3.2,3.2,0,0,1,.6-1.6,2.5,2.5,0,0,1,1.4-.9c1.3-.3,2,.2,3,1h.1a14.5,14.5,0,0,0,8.6,3.3,15.1,15.1,0,0,0,8.9-2.9,13.7,13.7,0,0,0,5.5-8.2,23.9,23.9,0,0,0-.5-12.2,89.7,89.7,0,0,0-5-12.3c-1.5-3.2-3-6.5-4.2-9.7-.5-1.3-.8-2.5-1.2-3.8s-.8-2.8-1.3-4.1a25.7,25.7,0,0,0-2.8-5.5,9.9,9.9,0,0,0-3.1-3,3.3,3.3,0,0,0-1.9-.5,4.4,4.4,0,0,0-2,.8,1.3,1.3,0,0,0-.5.8Zm-6.2,31.9a2.8,2.8,0,0,0-1.4.9,2.2,2.2,0,0,0-.4,1.5,5.2,5.2,0,0,0,.9,2,11.8,11.8,0,0,0,1.9,2.3c1.1,1,2.8.8,4.4.7h.2a12.3,12.3,0,0,0,3.6-1,22,22,0,0,0,3.5-1.9,5.8,5.8,0,0,0,1.8-1.9,4.9,4.9,0,0,0,.7-2.4,5.3,5.3,0,0,0-.2-1.7,4.4,4.4,0,0,0-.8-1.4,2.3,2.3,0,0,0-1.3-.8,3.3,3.3,0,0,0-1.8.2l-1.7.6c-3.1,1.1-6.2,2.3-9.4,3.2Zm-2.5,0a3.5,3.5,0,0,0-.7,2.4,6.5,6.5,0,0,0,1.1,2.7,13.2,13.2,0,0,0,2.1,2.6c1.6,1.5,3.6,1.3,5.5,1.1h.2a13.8,13.8,0,0,0,4-1.1,23.5,23.5,0,0,0,3.7-2.1,7.3,7.3,0,0,0,2.3-2.4,6.3,6.3,0,0,0,.9-3.1,6.7,6.7,0,0,0-.3-2.2,5.8,5.8,0,0,0-1-1.9,3.7,3.7,0,0,0-2.1-1.3,4.7,4.7,0,0,0-2.6.2l-1.7.6c-3.1,1.1-6.2,2.3-9.3,3.1h0A4.2,4.2,0,0,0,116,493.1Z" transform="translate(-14.9 -138.4)" fill="#163666" fill-rule="evenodd"/><path d="M449.4,532.9a6.7,6.7,0,0,1-1.5,1.2,2.7,2.7,0,0,1-1.9.3,5.8,5.8,0,0,1-2.6-1.2,4.6,4.6,0,0,1-1.4-2.4,11.3,11.3,0,0,1,0-5,27.1,27.1,0,0,1,2.1-6.2c.6-1.4,1.4-2.6,2.1-3.9s1.3-2.3,1.8-3.4c1.4-3,2.7-6.3,4-9.6a90.5,90.5,0,0,1,5.4-12.4,25.3,25.3,0,0,1,8.9-9.4,15,15,0,0,1,10.7-2,16.4,16.4,0,0,1,9,4.8,15.9,15.9,0,0,1,4.1,9.2h0c.1.9.2,1.5.7,1.8h.7l.9-.4a13.8,13.8,0,0,0,1.6-1.5l1.5-1.5a11.4,11.4,0,0,1,5.9-2.6,20.7,20.7,0,0,1,6.5.2l3.7.9a32.7,32.7,0,0,0,4,.9,2.6,2.6,0,0,0,1.7-.3,6.5,6.5,0,0,0,1.5-1.3l.6-.7a5.7,5.7,0,0,1,1.8-1.6,3.2,3.2,0,0,1,2.1-.2,5.2,5.2,0,0,1,2.1,1.1,5.4,5.4,0,0,1,1.5,2,9.3,9.3,0,0,1,.7,2.4,18.8,18.8,0,0,1-.7,7.3,40.6,40.6,0,0,1-3.4,8.7,16.1,16.1,0,0,1-5.2,5.6,12.2,12.2,0,0,1-6.7,2.2,58.2,58.2,0,0,1-6.6-.4l-6.6-1-.9-.2c-2.7-.5-5.4-1-7.3.6a11.1,11.1,0,0,0-1.8,1.8,4.1,4.1,0,0,0-.8,1.8,1.2,1.2,0,0,0,.3,1.1,4.4,4.4,0,0,0,1.2.8l5.5,2.5a49.5,49.5,0,0,0,5.7,2,4,4,0,0,0,2.1,0A3.9,3.9,0,0,0,504,524a4.5,4.5,0,0,1,1.4-1.1,4.3,4.3,0,0,1,1.8-.4,4.4,4.4,0,0,1,2,.4,6.5,6.5,0,0,1,1.7,1.3,3.6,3.6,0,0,1,1.1,1.9,6.8,6.8,0,0,1,0,2.5,54.4,54.4,0,0,1-3,10.7,93.6,93.6,0,0,1-4.7,10.1,17,17,0,0,1-3.5,4.4,7.2,7.2,0,0,1-3.9,2.1,6.1,6.1,0,0,1-3.5-.8,3.4,3.4,0,0,1-1.7-2.6v-.4c-.2-2-.3-3.7-1.6-5a12.1,12.1,0,0,0-2-1.7l-2.3-1.2-9.1-4c-6-2.7-12.1-5.4-18-7.7l-2.2-.7-1.2-.4a5.7,5.7,0,0,0-3.1-.2,5.8,5.8,0,0,0-2.7,1.6Zm-2.2,0a5.5,5.5,0,0,0,1.2-1,7.1,7.1,0,0,1,3.4-2,7.1,7.1,0,0,1,3.9.2l1.2.4,2.3.8c6,2.4,12.1,5.1,18.1,7.8l9,4,2.5,1.3a13.4,13.4,0,0,1,2.2,1.8c1.6,1.7,1.8,3.6,2,5.9v.4A2,2,0,0,0,494,554a4.8,4.8,0,0,0,2.7.6,6,6,0,0,0,3.1-1.7,15.5,15.5,0,0,0,3.2-4,92.5,92.5,0,0,0,4.6-9.9,53,53,0,0,0,2.9-10.5,5.5,5.5,0,0,0,.1-2,2.2,2.2,0,0,0-.7-1.2,5.1,5.1,0,0,0-1.3-1,3.1,3.1,0,0,0-1.4-.3l-1.2.2a3.2,3.2,0,0,0-1,.8,5.3,5.3,0,0,1-2.5,1.5,5.5,5.5,0,0,1-2.9,0,50.9,50.9,0,0,1-5.9-2.1l-5.6-2.6a5.5,5.5,0,0,1-1.6-1.1,2.5,2.5,0,0,1-.6-2.3,5.5,5.5,0,0,1,1.1-2.4,12.4,12.4,0,0,1,2-2c2.5-2,5.5-1.5,8.5-.9l.9.2,6.6,1a57.3,57.3,0,0,0,6.4.4,10.9,10.9,0,0,0,5.9-1.9,14.7,14.7,0,0,0,4.8-5.1,39.1,39.1,0,0,0,3.3-8.4,17.5,17.5,0,0,0,.7-6.7,8,8,0,0,0-.6-2,4,4,0,0,0-1.1-1.5,3.8,3.8,0,0,0-1.5-.8,1.8,1.8,0,0,0-1.2.1,4.7,4.7,0,0,0-1.3,1.2l-.7.8a7.9,7.9,0,0,1-1.9,1.5,4,4,0,0,1-2.5.5,34.1,34.1,0,0,1-4.2-1l-3.6-.9a19.3,19.3,0,0,0-6.1-.2,10,10,0,0,0-5.1,2.3l-1.3,1.3a14.9,14.9,0,0,1-1.8,1.7,3.2,3.2,0,0,1-1.6.7,2.5,2.5,0,0,1-1.6-.3c-1.1-.7-1.2-1.6-1.4-2.9h0a14.5,14.5,0,0,0-3.7-8.4,15,15,0,0,0-8.3-4.3,13.7,13.7,0,0,0-9.7,1.8,23.9,23.9,0,0,0-8.3,8.9,89.8,89.8,0,0,0-5.3,12.2c-1.3,3.3-2.5,6.7-4,9.7-.6,1.2-1.2,2.3-1.9,3.5s-1.4,2.5-2,3.8a25.7,25.7,0,0,0-2,5.8,9.9,9.9,0,0,0,0,4.4,3.3,3.3,0,0,0,1,1.7,4.4,4.4,0,0,0,2,.9,1.3,1.3,0,0,0,.9-.1ZM474.3,515a2.8,2.8,0,0,0,1.6.4,2.2,2.2,0,0,0,1.3-.8,5.2,5.2,0,0,0,.8-2,11.7,11.7,0,0,0,.3-3c0-1.5-1.4-2.6-2.6-3.6l-.2-.2a12.4,12.4,0,0,0-3.2-1.9,22.1,22.1,0,0,0-3.8-1.1,5.9,5.9,0,0,0-2.7,0,4.9,4.9,0,0,0-2.2,1.2,5.3,5.3,0,0,0-1.1,1.4,4.4,4.4,0,0,0-.5,1.5,2.3,2.3,0,0,0,.3,1.5,3.3,3.3,0,0,0,1.4,1.2l1.6.8c3,1.5,6,2.9,8.8,4.5Zm1.7,1.8a3.5,3.5,0,0,0,2.2-1.2,6.6,6.6,0,0,0,1.2-2.6,13.2,13.2,0,0,0,.4-3.3c0-2.2-1.6-3.5-3.1-4.7l-.2-.2a13.8,13.8,0,0,0-3.6-2.1,23.5,23.5,0,0,0-4.1-1.2,7.3,7.3,0,0,0-3.3.1,6.3,6.3,0,0,0-2.8,1.5,6.7,6.7,0,0,0-1.4,1.8,5.8,5.8,0,0,0-.6,2,3.7,3.7,0,0,0,.5,2.4,4.7,4.7,0,0,0,2,1.7l1.6.8c3,1.4,5.9,2.8,8.7,4.5h0A4.2,4.2,0,0,0,476.1,516.7Z" transform="translate(-14.9 -138.4)" fill="#163666" fill-rule="evenodd"/><path d="M164.7,541.1a3,3,0,0,0-.7,1.4,1.8,1.8,0,0,0,.4,1.3,8.2,8.2,0,0,1,1.6,3.6,5.3,5.3,0,0,1-.6,3.4,71.6,71.6,0,0,1-6.9,9.9l-2.1,2.7a157.4,157.4,0,0,1-11.3,12.7l-4.3,4.6a8.9,8.9,0,0,1-3.3,2.4,6.3,6.3,0,0,1-4.4,0,5.1,5.1,0,0,0-2.2-.3,2.3,2.3,0,0,0-1.5.8,3.3,3.3,0,0,0-.8,2,2.2,2.2,0,0,0,.5,1.7c6.5,5.9,13.5,11.6,20.4,17.3l11.7,9.8h0l2.3,2.3c1.6,1.6,3.2,3.1,4.6,4.7l.7.6,1,.5a2.9,2.9,0,0,0,1.4.1,7.6,7.6,0,0,0,2.1-.6,64,64,0,0,0,7.3-3.6,20,20,0,0,0,5.7-4.9,5,5,0,0,0,.8-3.1,3.3,3.3,0,0,0-1.1-2.4,3.6,3.6,0,0,0-1.8-.8,3.3,3.3,0,0,0-1.9.3l-1.4.6a16.7,16.7,0,0,1-5.1,1.8,17.9,17.9,0,0,1-4.2,0,12.2,12.2,0,0,1-3.6-.9,29.9,29.9,0,0,1-5.8-3.5c-1.7-1.3-3.4-2.8-5-4.3a6.3,6.3,0,0,1-2.2-3.5,5,5,0,0,1,1.2-3.9l1-1.3a66,66,0,0,1,6.2-7.6,5,5,0,0,1,2.8-1.5,4.4,4.4,0,0,1,3,.6,9.3,9.3,0,0,1,1.9,1.7,6.8,6.8,0,0,1,1.2,2.1,5.5,5.5,0,0,1,.2,2.6,5.6,5.6,0,0,1-1,2.4l-.9,1.4a8,8,0,0,0-.7,1.4,3.4,3.4,0,0,0-.3,1.1,1.2,1.2,0,0,0,.3.8,3.2,3.2,0,0,0,1.3,1.1,3.3,3.3,0,0,0,1.7.2l1.8-.5,2-1.2a33.3,33.3,0,0,0,3.3-2.8l3.4-3.3a24.1,24.1,0,0,0,2.8-3.6,43.8,43.8,0,0,0,2.7-4.9,5.6,5.6,0,0,0,.5-2.8,3.4,3.4,0,0,0-.8-2.1,3.2,3.2,0,0,0-1.5-.9,1.8,1.8,0,0,0-1.3.2l-1.6,1-1.4,1.2a10.2,10.2,0,0,1-3.1,2.2,3.3,3.3,0,0,1-3.6-.7l-1.8-1.4-1.1-.8a4.1,4.1,0,0,1-1.7-2.5,3.5,3.5,0,0,1,1.1-2.7l4.7-5.6,2.3-2.8h0a5.2,5.2,0,0,1,3.3-1.6,5.9,5.9,0,0,1,3.7,1.2,44.7,44.7,0,0,1,8.9,8,11.2,11.2,0,0,1,2.3,4.2,9.3,9.3,0,0,1,.1,4.6,12.6,12.6,0,0,0-.4,2.4,2.8,2.8,0,0,0,.5,1.8,5.3,5.3,0,0,0,1.6,1.5,3.3,3.3,0,0,0,1.7.4,4.9,4.9,0,0,0,2-.5,5.1,5.1,0,0,0,1.6-1.4,29.4,29.4,0,0,0,3.4-5.1,16.1,16.1,0,0,0,1.7-5.4,5.1,5.1,0,0,0-.4-2.9,3.4,3.4,0,0,0-1.8-1.6l-.4-.2a17.8,17.8,0,0,1-3.9-2c-7.5-5.6-14.5-11.5-21.5-17.4l-9.9-8.3h0a14.9,14.9,0,0,0-2.3-1.7,5,5,0,0,0-2.1-.7,3.9,3.9,0,0,0-1.9.3,4.2,4.2,0,0,0-1.5,1.2Zm-2.1,1.2a4.3,4.3,0,0,1,1-2.1,5.6,5.6,0,0,1,1.9-1.6,5.3,5.3,0,0,1,2.6-.5,6.4,6.4,0,0,1,2.8.9,16.3,16.3,0,0,1,2.6,1.8l9.9,8.3c7,5.9,14,11.8,21.5,17.4a16.7,16.7,0,0,0,3.6,1.9l.4.2a4.7,4.7,0,0,1,2.5,2.3,6.5,6.5,0,0,1,.5,3.6,17.5,17.5,0,0,1-1.8,5.9,30.8,30.8,0,0,1-3.6,5.4,6.6,6.6,0,0,1-2.1,1.7,6.3,6.3,0,0,1-2.6.7,4.7,4.7,0,0,1-2.5-.6,6.7,6.7,0,0,1-2.1-1.9,4.1,4.1,0,0,1-.8-2.6,13.6,13.6,0,0,1,.4-2.7,7.9,7.9,0,0,0-.1-3.9,9.9,9.9,0,0,0-2.1-3.7,43.6,43.6,0,0,0-8.6-7.7,4.6,4.6,0,0,0-2.8-1,3.8,3.8,0,0,0-2.4,1.2l-2.3,2.8-4.7,5.6a2.2,2.2,0,0,0-.7,1.6,2.9,2.9,0,0,0,1.2,1.6l1,.8,1.8,1.5a2,2,0,0,0,2.2.5,9.1,9.1,0,0,0,2.6-1.9l1.6-1.3,1.7-1.1a3.1,3.1,0,0,1,2.3-.3,4.6,4.6,0,0,1,2.2,1.3,4.8,4.8,0,0,1,1.2,3,7.1,7.1,0,0,1-.6,3.5,45.3,45.3,0,0,1-2.8,5.1,25.5,25.5,0,0,1-3,3.8l-3.4,3.4a34.6,34.6,0,0,1-3.5,2.9,12.7,12.7,0,0,1-2.3,1.3,8,8,0,0,1-2.2.6,4.6,4.6,0,0,1-2.4-.3,4.5,4.5,0,0,1-1.9-1.5,2.6,2.6,0,0,1-.5-1.6,4.7,4.7,0,0,1,.3-1.6,9.3,9.3,0,0,1,.8-1.6l1-1.5a4.1,4.1,0,0,0,.7-1.8,4,4,0,0,0-.1-1.9,5.4,5.4,0,0,0-1-1.6,7.9,7.9,0,0,0-1.7-1.5,2.9,2.9,0,0,0-2-.4,3.6,3.6,0,0,0-2,1.1,65.1,65.1,0,0,0-6.1,7.5l-1,1.3a3.7,3.7,0,0,0-.9,2.8,5,5,0,0,0,1.8,2.7c1.6,1.5,3.2,2.9,4.9,4.2a28.5,28.5,0,0,0,5.6,3.4,10.7,10.7,0,0,0,3.2.8,16.6,16.6,0,0,0,3.9,0,15.6,15.6,0,0,0,4.7-1.6l1.4-.6a4.7,4.7,0,0,1,2.7-.4,5,5,0,0,1,2.5,1.2,4.7,4.7,0,0,1,1.5,3.4,6.4,6.4,0,0,1-1.1,4,21.4,21.4,0,0,1-6.1,5.3,65.2,65.2,0,0,1-7.5,3.7,9,9,0,0,1-2.5.7,4.2,4.2,0,0,1-2.1-.2l-1.1-.5a4.1,4.1,0,0,1-1.1-.9c-1.3-1.6-2.9-3.1-4.5-4.6l-2.3-2.3-11.7-9.8c-6.9-5.7-13.8-11.4-20.4-17.4a3.6,3.6,0,0,1-1-2.8,4.7,4.7,0,0,1,1.1-2.9,3.7,3.7,0,0,1,2.4-1.3,6.4,6.4,0,0,1,2.8.4,4.9,4.9,0,0,0,3.4,0,7.5,7.5,0,0,0,2.8-2l4.3-4.6a156.6,156.6,0,0,0,11.2-12.6l2.1-2.7a70.7,70.7,0,0,0,6.8-9.7,4,4,0,0,0,.5-2.5,6.8,6.8,0,0,0-1.3-2.9A3.2,3.2,0,0,1,162.6,542.3Z" transform="translate(-14.9 -138.4)" fill="#163666" fill-rule="evenodd"/><path d="M228.5,594.8a3.4,3.4,0,0,1-1.5-1.4,3.4,3.4,0,0,1-.3-1.9,6.5,6.5,0,0,1,.7-2.8,3.9,3.9,0,0,1,2.3-1.8c2.3-.8,5.1-.6,7.8-.5h.6a107.4,107.4,0,0,1,14.3,2.3,58.3,58.3,0,0,1,10.3,3.4,9.6,9.6,0,0,1,3.1,2.1,4.7,4.7,0,0,1,1.3,2.8,3.6,3.6,0,0,1-.4,2.2,5.1,5.1,0,0,1-1.6,1.6,5.4,5.4,0,0,0-1.6,1.6,3.1,3.1,0,0,0-.4,1.6,8.8,8.8,0,0,0,2,5.4l.3.4a2.8,2.8,0,0,0,1.5,1.2,2.6,2.6,0,0,0,1.7-.2,10.9,10.9,0,0,0,2.4-1.3,10.6,10.6,0,0,0,1.9-1.8,4.7,4.7,0,0,0,1-1.7,1.3,1.3,0,0,0-.1-1l-.3-.5a6.7,6.7,0,0,1-1.2-3.8,5.3,5.3,0,0,1,1.6-3.7,6.1,6.1,0,0,1,3.9-1.5,43.2,43.2,0,0,1,10,.7,44.2,44.2,0,0,1,9.6,3,9,9,0,0,1,3.3,2.2,5.2,5.2,0,0,1,1.3,3.8h0a4.6,4.6,0,0,1-1.3,3,3.7,3.7,0,0,1-2.7,1.1h-4.7a5.5,5.5,0,0,0-2,.3,7.8,7.8,0,0,0-2.1,1l-9.1,6.6-4.5,3.3a28,28,0,0,0-3.8,4.1,12.1,12.1,0,0,0-2.1,4.3c-.7,2.9-1.3,5.7-1.9,8.5s-1,5.6-1.2,8.4a2.9,2.9,0,0,0,.3,1.8,4.2,4.2,0,0,0,1.2,1.2,15.7,15.7,0,0,1,2.4,2.1,4.3,4.3,0,0,1,1.3,3.1,4.7,4.7,0,0,1-1.2,2.8,5.5,5.5,0,0,1-2.8,1.6,34,34,0,0,1-13.8.1,75.4,75.4,0,0,1-17-5.4,11.3,11.3,0,0,1-4-2.7,4.9,4.9,0,0,1-1.4-3.5,5,5,0,0,1,1.1-3,3.7,3.7,0,0,1,2.7-1.3h.5c1.7,0,3.3-.1,4.1-1.6,2.2-4,3.1-8.9,4.1-13.9l.5-2.8a11.9,11.9,0,0,0,.2-3.8,11.4,11.4,0,0,0-1.4-4.1l-3.8-7.1-4.1-7.6a13,13,0,0,0-1.9-2.6,23.5,23.5,0,0,0-2.7-2.4l-.8-.6a10.3,10.3,0,0,0-1.7-1.3Zm-.2-2.1a2,2,0,0,0,.9.8,11.4,11.4,0,0,1,2,1.5l.7.6a24.9,24.9,0,0,1,2.8,2.6,14.5,14.5,0,0,1,2.1,2.9l4.1,7.7,3.8,7.1a12.9,12.9,0,0,1,1.5,4.6,13.3,13.3,0,0,1-.2,4.2l-.5,2.8c-1,5.1-1.9,10.1-4.2,14.3-1.2,2.2-3.2,2.2-5.3,2.3h-.5a2.3,2.3,0,0,0-1.7.8,3.5,3.5,0,0,0,.2,4.7,10,10,0,0,0,3.5,2.3,74,74,0,0,0,16.7,5.3,32.7,32.7,0,0,0,13.2-.1,4.1,4.1,0,0,0,2.1-1.2,3.3,3.3,0,0,0,.9-2,3,3,0,0,0-.9-2.1,14.4,14.4,0,0,0-2.2-1.9,5.5,5.5,0,0,1-1.6-1.7,4.3,4.3,0,0,1-.5-2.6c.3-2.8.7-5.6,1.2-8.5s1.2-5.7,1.9-8.6a13.5,13.5,0,0,1,2.4-4.8,29.4,29.4,0,0,1,4-4.3h.1l4.6-3.3,9.1-6.6a9.2,9.2,0,0,1,2.4-1.2,6.9,6.9,0,0,1,2.5-.3h4.7a2.3,2.3,0,0,0,1.6-.7,3.2,3.2,0,0,0,.9-2.1h0a3.8,3.8,0,0,0-.9-2.8,7.6,7.6,0,0,0-2.8-1.8,42.7,42.7,0,0,0-9.3-2.9,41.9,41.9,0,0,0-9.7-.6,4.7,4.7,0,0,0-3,1.1,3.9,3.9,0,0,0-1.2,2.7,5.7,5.7,0,0,0,1.1,3l.3.6a2.6,2.6,0,0,1,.3,2,6,6,0,0,1-1.3,2.3,12,12,0,0,1-2.2,2,12.4,12.4,0,0,1-2.7,1.5,4,4,0,0,1-2.6.2,4.1,4.1,0,0,1-2.2-1.8l-.3-.4a10,10,0,0,1-2.3-6.2,4.4,4.4,0,0,1,.6-2.3,6.6,6.6,0,0,1,2-2,3.8,3.8,0,0,0,1.2-1.1,2.2,2.2,0,0,0,.3-1.4,3.4,3.4,0,0,0-.9-2,8.2,8.2,0,0,0-2.6-1.8,56.8,56.8,0,0,0-10.1-3.3,106,106,0,0,0-14.1-2.3h-.5c-2.6-.1-5.3-.3-7.3.4a2.5,2.5,0,0,0-1.5,1.2,5.2,5.2,0,0,0-.6,2.2A2.1,2.1,0,0,0,228.2,592.7Z" transform="translate(-14.9 -138.4)" fill="#163666" fill-rule="evenodd"/><path d="M322.8,599.5a9.3,9.3,0,0,0-3,2.8,5.3,5.3,0,0,0-.9,3.1,2.4,2.4,0,0,0,1,1.5,3.2,3.2,0,0,0,1.9.8h.1c2,0,4.5.1,6.1,2.2,5.4,7.3,8.1,17,10.7,26.3.6,2.2,1.2,4.4,1.9,6.7a13,13,0,0,1,.6,5.2,5.8,5.8,0,0,1-1.8,3.7,6.1,6.1,0,0,0-1.5,1.7,2.9,2.9,0,0,0-.3,2,4,4,0,0,0,1.4,2.4,4.9,4.9,0,0,0,2.9,1,28.7,28.7,0,0,0,10.5-1.4,23.5,23.5,0,0,0,8.6-4.9,6.3,6.3,0,0,0,1.3-1.5,4,4,0,0,0,.5-2.2,3.8,3.8,0,0,0-.6-2.2,2.1,2.1,0,0,0-1.6-.7,8.4,8.4,0,0,1-3.9-1.1,6.8,6.8,0,0,1-2.6-2.8c-.7-1.3-1.3-2.7-1.9-4.1s-1.1-2.8-1.6-4.2a26.6,26.6,0,0,1-.9-3.3,11.5,11.5,0,0,1-.2-3.4v-.3a2.7,2.7,0,0,1,1.5-1.9,4.5,4.5,0,0,1,2.5-.3h.6a31.3,31.3,0,0,1,6.4,2.4l.9.4,10.5,4.6,21,9.3a12.8,12.8,0,0,0,3.3,1.1,4.2,4.2,0,0,0,3-.6,3.4,3.4,0,0,0,1.4-2.2,12.3,12.3,0,0,0,0-4.4c-.6-3.8-4.7-16.1-8.5-27.4l-3.2-9.6a24.1,24.1,0,0,1-1.2-7c0-1.9.4-3.5,1.5-4.3a7.4,7.4,0,0,0,2.4-2.3,3.9,3.9,0,0,0,.2-2.6,3.5,3.5,0,0,0-1.5-2.4,6.3,6.3,0,0,0-3.5-.9,25.6,25.6,0,0,0-8.1,1.5,87.5,87.5,0,0,0-9.1,3.7,5.1,5.1,0,0,0-2.3,1.9,4.5,4.5,0,0,0-.6,2.8,3.9,3.9,0,0,0,.7,2.2,2.7,2.7,0,0,0,1.8.9,12.4,12.4,0,0,1,3.7.9,6.5,6.5,0,0,1,2.8,2.7,24.2,24.2,0,0,1,1.9,4.1,40.3,40.3,0,0,1,1.3,4.4v.5c.5,1.7.9,3.4-1.2,4.7s-4,0-6.2-1h-.3l-19.5-8.4-9.7-4.2h-.1a8.4,8.4,0,0,0-3.6-1.2,9.7,9.7,0,0,0-4.1.6L331,596a43.8,43.8,0,0,0-8.2,3.5Zm-4.2,2a10.7,10.7,0,0,1,3.5-3.2,44.8,44.8,0,0,1,8.4-3.6l3.4-1.2h0a11,11,0,0,1,4.7-.7,9.8,9.8,0,0,1,4.2,1.4l9.7,4.2,19.5,8.4h.3c1.9.8,3.9,1.7,5,1.1s.9-1.9.6-3.1v-.5a39.1,39.1,0,0,0-1.3-4.3,22.8,22.8,0,0,0-1.8-3.8,5.1,5.1,0,0,0-2.2-2.1,11.2,11.2,0,0,0-3.3-.8,4,4,0,0,1-2.7-1.4,5.2,5.2,0,0,1-1.1-3,5.9,5.9,0,0,1,.8-3.6,6.5,6.5,0,0,1,2.9-2.4,88.5,88.5,0,0,1,9.3-3.7,26.9,26.9,0,0,1,8.6-1.5,7.7,7.7,0,0,1,4.3,1.1,4.8,4.8,0,0,1,2.1,3.3,5.2,5.2,0,0,1-.4,3.5,8.6,8.6,0,0,1-2.8,2.8c-.7.5-.9,1.6-.9,3.1a22.6,22.6,0,0,0,1.2,6.5l3.2,9.6c3.8,11.4,7.9,23.8,8.5,27.7a13.6,13.6,0,0,1,0,4.9,4.8,4.8,0,0,1-2,3.1,5.6,5.6,0,0,1-4,.8,14.1,14.1,0,0,1-3.7-1.2l-21-9.3-10.5-4.6-1-.4a30.3,30.3,0,0,0-6.1-2.3h-.5a3.2,3.2,0,0,0-1.7.2,1.3,1.3,0,0,0-.8.9v.2a10,10,0,0,0,.2,3,24.9,24.9,0,0,0,.8,3.1c.5,1.4,1,2.8,1.5,4.1s1.2,2.7,1.9,4a5.4,5.4,0,0,0,2,2.3,7,7,0,0,0,3.2.9,3.4,3.4,0,0,1,2.6,1.3,5.1,5.1,0,0,1,.9,3,5.4,5.4,0,0,1-.7,2.9,7.6,7.6,0,0,1-1.5,1.8,24.9,24.9,0,0,1-9.1,5.2,30.1,30.1,0,0,1-11,1.5A6.3,6.3,0,0,1,338,659a5.4,5.4,0,0,1-1.9-3.2,4.3,4.3,0,0,1,.4-2.9,7.5,7.5,0,0,1,1.8-2.1,4.4,4.4,0,0,0,1.3-2.9,11.6,11.6,0,0,0-.5-4.6c-.6-2.1-1.3-4.4-1.9-6.7-2.5-9.2-5.2-18.8-10.4-25.9-1.2-1.6-3.3-1.6-5-1.7h-.1a4.7,4.7,0,0,1-2.8-1.1,3.8,3.8,0,0,1-1.5-2.5A6.7,6.7,0,0,1,318.6,601.4Z" transform="translate(-14.9 -138.4)" fill="#163666" fill-rule="evenodd"/><path d="M405.1,565.9v.3a4,4,0,0,0,.2,2.6,2.2,2.2,0,0,0,1.3,1.2h.1a8,8,0,0,0,2.2.2l2.4-.3a7.9,7.9,0,0,1,3,.1,6.1,6.1,0,0,1,2.5,1.2,121.4,121.4,0,0,1,12,11.4c3.8,4.1,7.4,8.4,11.1,12.6a14.2,14.2,0,0,1,2.7,4.4,7.3,7.3,0,0,1,.2,4.5,6.2,6.2,0,0,0-.2,2.8,1.8,1.8,0,0,0,.9,1.3,5.8,5.8,0,0,0,3,.5,6.1,6.1,0,0,0,2.9-1,80.1,80.1,0,0,0,10.7-8.6,52.4,52.4,0,0,0,7.6-9.1,9.6,9.6,0,0,0,1.4-3.1,3.4,3.4,0,0,0-.5-2.7,3.7,3.7,0,0,0-1.7-1.5,2.9,2.9,0,0,0-2,0,14.4,14.4,0,0,1-3.8.9,4.3,4.3,0,0,1-3.3-1.2c-2.7-2.5-7.5-7.3-12.7-12.8s-8.3-9-11.8-13.2a7.9,7.9,0,0,1-1.7-3.4,7.2,7.2,0,0,1,.2-3.7l.3-.9c.5-1.5.9-2.8-.1-3.8a4.3,4.3,0,0,0-2.6-1.2,5.5,5.5,0,0,0-3.2.6,50.8,50.8,0,0,0-12.3,9.7c-4.6,4.8-7.9,9.7-8.6,12.1Zm-1.5,0v-.4c.8-2.6,4.2-7.7,8.9-12.7a52.1,52.1,0,0,1,12.6-10,7,7,0,0,1,4-.8,5.7,5.7,0,0,1,3.5,1.7c1.6,1.7,1.1,3.3.4,5.2l-.3.9a5.8,5.8,0,0,0-.2,3,6.5,6.5,0,0,0,1.4,2.8c3.4,4.1,7.7,8.8,11.8,13.1s10,10.3,12.6,12.7a3,3,0,0,0,2.3.8,13.4,13.4,0,0,0,3.4-.9,4.3,4.3,0,0,1,3,0,5.1,5.1,0,0,1,2.4,2,4.8,4.8,0,0,1,.7,3.7,10.9,10.9,0,0,1-1.6,3.6,53.9,53.9,0,0,1-7.9,9.3,81.4,81.4,0,0,1-10.9,8.8,7.5,7.5,0,0,1-3.6,1.3,7.3,7.3,0,0,1-3.7-.7,3.1,3.1,0,0,1-1.7-2.3,7.6,7.6,0,0,1,.2-3.5,5.9,5.9,0,0,0-.2-3.6,12.9,12.9,0,0,0-2.4-3.9c-3.6-4.3-7.3-8.5-11-12.6a119.9,119.9,0,0,0-11.8-11.3,4.7,4.7,0,0,0-2-.9,6.5,6.5,0,0,0-2.5-.1l-2.6.3a9.4,9.4,0,0,1-2.6-.2h-.2a3.6,3.6,0,0,1-2.2-2A5.4,5.4,0,0,1,403.7,565.9Z" transform="translate(-14.9 -138.4)" fill="#163666" fill-rule="evenodd"/><path d="M137.9,350.7a51.7,51.7,0,0,0,5.2-13.1,28.8,28.8,0,0,0,.8-11.5,30.2,30.2,0,0,0-7.2-14.5,36.3,36.3,0,0,0-14.4-9.7c-9.1-3.4-16.8-3.2-23.2-.5s-12.8,9.4-16.7,17.4c-2.8,5.7-5.1,10.6-7.3,15.5s-4.4,9.7-6.8,15.4h0a6.5,6.5,0,0,0-.6,3.5,2.4,2.4,0,0,0,.6,1.4,3.9,3.9,0,0,0,1.7,1,3.8,3.8,0,0,0,2.2.1,3.1,3.1,0,0,0,1.6-1.2,4.5,4.5,0,0,1,3.4-1.7,8.5,8.5,0,0,1,4.4,1l11.8,5.8c7.1,3.5,14.2,6.9,21.2,10.8a7.2,7.2,0,0,1,2.7,2.6,4.3,4.3,0,0,1,.5,3.2,10.9,10.9,0,0,0-.4,2.2,1.4,1.4,0,0,0,.3,1.2,5.2,5.2,0,0,0,2.6,1.3,3.4,3.4,0,0,0,2.3-.4A10,10,0,0,0,125,378a8.2,8.2,0,0,0,1.5-2.5,133.3,133.3,0,0,1,5.1-12.5q2.9-6.2,6.4-12.4ZM97.8,319.6a20.6,20.6,0,0,1,6.9.5,58.4,58.4,0,0,1,11.5,3.7,45.4,45.4,0,0,1,10.3,6.3,16.5,16.5,0,0,1,4.3,5.2,13.1,13.1,0,0,1,1.4,6.1,12.8,12.8,0,0,1-.9,4.2,11.8,11.8,0,0,1-2,3.6,4.5,4.5,0,0,1-2.8,1.5,6.4,6.4,0,0,1-3.5-.6c-7.8-3.5-15.4-7-23-10.6l-12.1-5.6h0a3.2,3.2,0,0,1-1.5-1.6,3.1,3.1,0,0,1-.1-2.2,17.9,17.9,0,0,1,1.9-4.5,13,13,0,0,1,2.7-3.1A12.9,12.9,0,0,1,97.8,319.6Z" transform="translate(-14.9 -138.4)" fill="#fff" fill-rule="evenodd"/><path d="M153.2,230.1Zm8.3,43.4c1.4,6.3,3,13.2,2.5,17.3a10.7,10.7,0,0,1-2.3,4.6l-.6.9a1.9,1.9,0,0,0-.3,1.3,3,3,0,0,0,.7,1.5l.9.9.8.4a6.1,6.1,0,0,0,2.3-.1,8.5,8.5,0,0,0,2.3-.9,75.9,75.9,0,0,0,8.5-5.4,28,28,0,0,0,6.5-6.6,3.5,3.5,0,0,0-.1-4.2,2.7,2.7,0,0,0-1.5-1,2.6,2.6,0,0,0-1.8.2l-.6.3a5.7,5.7,0,0,1-2,.7c-2.5.3-2.9-1.3-3.4-3h0a6,6,0,0,1-.1-3,3.8,3.8,0,0,1,1.4-2.3l5.9-4.2,7.2-5.1a9.6,9.6,0,0,1,2-1.1,5.3,5.3,0,0,1,1.9-.4,5.4,5.4,0,0,1,2.1.3,3.8,3.8,0,0,1,1.8,1.5,3.6,3.6,0,0,1,.7,2.8,5.6,5.6,0,0,1-1.3,2.3,4.3,4.3,0,0,0-.6.9,2,2,0,0,0-.2,1,3.4,3.4,0,0,0,.6,1.6,2.1,2.1,0,0,0,1,.9,6.9,6.9,0,0,0,3.4.2,10,10,0,0,0,3.7-1.6l3.8-2.5c7.6-5,15-9.8,17.8-14.9a5,5,0,0,0,.7-2.9,4.1,4.1,0,0,0-1.3-2.5,1.7,1.7,0,0,0-1-.5,2.5,2.5,0,0,0-1.3.3,8.7,8.7,0,0,1-3.6.9,7.8,7.8,0,0,1-3.8-1l-24.4-13.1-12.2-6.5a50.3,50.3,0,0,0-7.9-3.5,24.4,24.4,0,0,0-8.2-1.3,11.5,11.5,0,0,0-4.3.9,13,13,0,0,0-3.8,2.6,9.8,9.8,0,0,0-3.3,5.7c-.3,2,.3,4.2,2,6.7h0a58.3,58.3,0,0,1,3.2,5.5,27,27,0,0,1,2.2,5.8c.8,3.3,1.4,6.5,2.1,9.8s.9,4.8,1.4,7l.7,2.9Zm6.6-10.7c-1-3.3-1.9-6.6-2.6-9.9a2.2,2.2,0,0,1,0-.4,3.4,3.4,0,0,1,.6-1.8,2.9,2.9,0,0,1,1.9-1.3h.6a6.9,6.9,0,0,1,2.1.4l1.9.8,3.9,1.8,3.8,2.1a4.4,4.4,0,0,1,1.8,1.7c.3.8.1,1.5-1,2.3l-4.2,2.9-4.1,3h-.1a7,7,0,0,1-2,1.2c-.9.3-1.7,0-2.1-1.3Z" transform="translate(-14.9 -138.4)" fill="#fff" fill-rule="evenodd"/><path d="M300.6,241Zm-50.2-27.7c1.7,9.9,3.4,19.6,2.9,24.9a5.6,5.6,0,0,1-1.3,3.2,9.9,9.9,0,0,1-3.1,2.3,3.6,3.6,0,0,0-1.1.8,1.3,1.3,0,0,0-.3.7,7,7,0,0,0,0,1.9,1.9,1.9,0,0,0,.4.9,4.7,4.7,0,0,0,3,1.4,15.9,15.9,0,0,0,4-.3c8.2-1.4,16.4-2.5,24.6-3.6l4.3-.6,2.9-.4,2.9-.2h6.8l1.3-.3a2.5,2.5,0,0,0,.9-.7,28.8,28.8,0,0,0,1.9-2.5,13.6,13.6,0,0,0,1.5-2.8,24.2,24.2,0,0,0,1.5-8.4,11.5,11.5,0,0,0-1.5-6.3,5.6,5.6,0,0,0-2.3-1.9,4.1,4.1,0,0,0-2.6-.3c-1.6.3-1.9,2-2.4,4.3s-.3,1.7-.6,2.7a9.6,9.6,0,0,1-2.4,4.3,11.4,11.4,0,0,1-4.4,2.7,22.2,22.2,0,0,1-4.9,1.1,11.5,11.5,0,0,1-4.1-.2,6.1,6.1,0,0,1-3.3-2.4,9,9,0,0,1-1.6-4.3c-.6-5.2-1.4-10.7-2.2-16.1s-1.8-12-2.3-17.4a5.4,5.4,0,0,1,1.1-3.7,8.9,8.9,0,0,1,3.5-2.7,2.4,2.4,0,0,0,1.1-.9,2.1,2.1,0,0,0,.2-1.3,4.2,4.2,0,0,0-1-2.4,3.3,3.3,0,0,0-2.1-1.1c-2.7-.2-5.4-.4-8.2-.3a59.2,59.2,0,0,0-8.6.7,49.1,49.1,0,0,0-7.9,1.7,20.8,20.8,0,0,0-7,3.8,4.3,4.3,0,0,0-1.3,1.7,3.3,3.3,0,0,0-.1,1.9,1.9,1.9,0,0,0,1.1,1.5,6.6,6.6,0,0,0,2.7.4,5.1,5.1,0,0,1,3.7,1.6,6.9,6.9,0,0,1,1.9,3.9C249,204.7,249.7,209,250.4,213.3Z" transform="translate(-14.9 -138.4)" fill="#fff" fill-rule="evenodd"/><path d="M339.3,213.1c1.4,11.4,2.8,22.7,4.6,34a5.6,5.6,0,0,0,1.5,3.1,7.5,7.5,0,0,0,2.9,1.7,6.7,6.7,0,0,0,4.5.1,11.6,11.6,0,0,0,4.6-3.2l3.4-3.7c11.4-12.2,22.8-24.4,34.5-36.4,1.3-1.4,3.5-1,5.8-.5l1.1.2h1.1a2.2,2.2,0,0,0,1-.7,4.2,4.2,0,0,0,.8-1.1,3.9,3.9,0,0,0,.3-1.4,3.1,3.1,0,0,0-1-2.2,12.2,12.2,0,0,0-3-2.1,40.5,40.5,0,0,0-9.3-3.7A33,33,0,0,0,383,196a4.8,4.8,0,0,0-2.8,1.1,2.7,2.7,0,0,0-1.2,2c0,1.3,1.3,2.5,2.1,3.3h.1a2.9,2.9,0,0,1,.8,3.1,7.1,7.1,0,0,1-1.5,2.6l-6.9,7.9c-1,1.2-2.3,2.9-3.4,3.9a10.9,10.9,0,0,1-1.9,1.5,5.3,5.3,0,0,1-2.3.8,2.8,2.8,0,0,1-2.5-.9,6.7,6.7,0,0,1-1.2-3.6c-.2-1.9-.5-3.8-.8-5.7a74,74,0,0,1-1.2-11.4c0-2.4,2.1-3,4.3-3.7h.3a2.6,2.6,0,0,0,1.4-.9,3,3,0,0,0,.5-1.7,3.2,3.2,0,0,0-.7-1.9,6.9,6.9,0,0,0-2.1-1.9,59.3,59.3,0,0,0-11.4-5.2,58.2,58.2,0,0,0-13.7-2.8,11.2,11.2,0,0,0-3,.1,7.9,7.9,0,0,0-2.9,1.2,4,4,0,0,0-1.4,1.4,4.6,4.6,0,0,0-.5,2.1,2.3,2.3,0,0,0,.2,1.1,1,1,0,0,0,.6.5,7.7,7.7,0,0,1,3.9,2.9,8.1,8.1,0,0,1,1.3,4.4C338,201.9,338.7,207.5,339.3,213.1Z" transform="translate(-14.9 -138.4)" fill="#fff" fill-rule="evenodd"/><path d="M440.5,218.7a28.6,28.6,0,0,0,8.5,4.7,22,22,0,0,0,10.1.9,10.1,10.1,0,0,0,2.8-.7,2.2,2.2,0,0,0,1.2-1,3.1,3.1,0,0,0,.3-1.7,3.6,3.6,0,0,0-.7-1.7,29.7,29.7,0,0,0-5.3-6,11.8,11.8,0,0,0-6.4-2.8h-.5a1.6,1.6,0,0,0-.3.9,2.5,2.5,0,0,1-.9,2,3.6,3.6,0,0,1-2.3.4h-4.7a2.9,2.9,0,0,0-2.7,1.9,2,2,0,0,0-.2,1.5A3,3,0,0,0,440.5,218.7Z" transform="translate(-14.9 -138.4)" fill="#fff" fill-rule="evenodd"/><path d="M445,227.6a69.9,69.9,0,0,0-13.7-6.8,3.7,3.7,0,0,0-2.1-.2,4.3,4.3,0,0,0-2,1c-1.5,1.3-.8,3.3,0,5.4l.6,1.5c.9,2.9-1,5.9-2.8,8.7l-.7,1.1h0l-4.2,6.1c-4.5,6.6-8.9,13.1-15.6,19.5a3.6,3.6,0,0,1-1.5.8,5.5,5.5,0,0,1-1.8.2h-1.5a6.3,6.3,0,0,0-2.3.1,2.6,2.6,0,0,0-1.3.9,3,3,0,0,0-.5,1.7,5.6,5.6,0,0,0,.6,2.7,10.3,10.3,0,0,0,1.7,2.4,54.2,54.2,0,0,0,8.8,7.4c3.1,2.1,6.4,4,9.7,5.8a13.1,13.1,0,0,0,2.5,1.1,10.3,10.3,0,0,0,2.6.4,4.8,4.8,0,0,0,2.1-.3,3.2,3.2,0,0,0,1.4-1.3,3.4,3.4,0,0,0,.5-2.4,5.5,5.5,0,0,0-1.2-2.5,4.3,4.3,0,0,1-1-3.4,7.5,7.5,0,0,1,1.2-2.9c3.4-5.3,7.7-11.6,11.8-17.1a129.9,129.9,0,0,1,10.2-12.5c2-2,4-1.7,6.4-1.4l1.3.2a2.3,2.3,0,0,0,1.6-.5,2.6,2.6,0,0,0,.9-1.5,5.4,5.4,0,0,0,0-2.5,6,6,0,0,0-1.2-2.3A45,45,0,0,0,445,227.6Z" transform="translate(-14.9 -138.4)" fill="#fff" fill-rule="evenodd"/><path d="M464.6,326.2Zm11.1-29.4a130.5,130.5,0,0,1-16.6,7.9h-.4a21.3,21.3,0,0,1-5.4,1.5,6.8,6.8,0,0,1-2.7-.3,10.5,10.5,0,0,1-2.3-1.1,2.9,2.9,0,0,0-1.7-.4,3.9,3.9,0,0,0-1.9.7,3.5,3.5,0,0,0-1.6,2.8,10.3,10.3,0,0,0,1.2,4.9v.2a119.3,119.3,0,0,0,7.8,14.9,34.2,34.2,0,0,0,3,4.1,8.8,8.8,0,0,0,3.2,2.4,3.3,3.3,0,0,0,2,.2,2.7,2.7,0,0,0,1.5-1,8.4,8.4,0,0,0,1.3-3.6c.1-.6.2-1.2.4-1.8a6.9,6.9,0,0,1,1-2.2,4.3,4.3,0,0,1,1.6-1.4l2.3-1.1,2.4-1.2h.1a4.3,4.3,0,0,1,2.1,0,2.7,2.7,0,0,1,1.7,1.5,5.1,5.1,0,0,1,.4,2.8,12.7,12.7,0,0,1-.9,3.5l-4,9.6-3.9,9.6a4.7,4.7,0,0,0-.3,2.5,6.4,6.4,0,0,0,.9,2.2c1.3,2.3,2.5,4.7,3.7,7a82.3,82.3,0,0,0,6,10.5,3.5,3.5,0,0,0,1.3,1.2,3.2,3.2,0,0,0,1.4.3,5.4,5.4,0,0,0,4.1-1.8,3.6,3.6,0,0,0,1-2.4c0-.4,0-.7,0-1.1a26.4,26.4,0,0,1,.1-2.8c0-.4,0-.7.1-1.1a8.3,8.3,0,0,1,.5-3.2c1.9-4.5,3.6-9,5.2-13.5a187.2,187.2,0,0,1,7.2-17.7,4.1,4.1,0,0,1,2.3-2.1,7.4,7.4,0,0,1,3.6-.3,33.5,33.5,0,0,1,7.5,2.2l1.8.7a8.5,8.5,0,0,1,3.5,1.6,8.1,8.1,0,0,1,2.4,3.2,14.7,14.7,0,0,0,1.5,2.6,9.6,9.6,0,0,0,1.7,1.9,2.5,2.5,0,0,0,1.2.6h1.3a5.8,5.8,0,0,0,1.7-.7,3.1,3.1,0,0,0,1.1-1.2,6.2,6.2,0,0,0,.6-2.5,6,6,0,0,0-.5-2.5l-.2-.4c-2.5-5.9-4.8-11.3-8.9-16.7a9.7,9.7,0,0,0-2.5-2.4,4.8,4.8,0,0,0-2.5-.8,4.1,4.1,0,0,0-1.5.2,2.9,2.9,0,0,0-1.2.9l-.7,1-1,1.3a3.3,3.3,0,0,1-1.8,1.1,6,6,0,0,1-1.9.1l-1.7-.2c-4.3-.4-8-.8-10.8-2.5l-.6-.6a2.8,2.8,0,0,1-.5-1.6,2.9,2.9,0,0,1,.4-1.6l.6-.6a25.3,25.3,0,0,1,3.3-2.1,14.4,14.4,0,0,1,3.5-1.3,8.5,8.5,0,0,1,3.5-.1,14.1,14.1,0,0,1,3.3,1.1,2.3,2.3,0,0,0,1.7.1,3.6,3.6,0,0,0,1.7-1.3,5.3,5.3,0,0,0,1-2.2,7.1,7.1,0,0,0-.1-2.9c-.7-3.2-2.4-6.1-4.2-9.1l-.7-1.1a74.1,74.1,0,0,0-4-6.4,23.8,23.8,0,0,0-4.5-4.8,3.3,3.3,0,0,0-2.4-.7,5,5,0,0,0-2.7,1.2,2.7,2.7,0,0,0-.8,1.5,9.6,9.6,0,0,0-.2,2.4,4.3,4.3,0,0,1-.7,2.4,9.7,9.7,0,0,1-1.4,1.7h0A80.2,80.2,0,0,1,475.7,296.8Z" transform="translate(-14.9 -138.4)" fill="#fff" fill-rule="evenodd"/><path d="M135,468.7a25.7,25.7,0,0,0-2.8-5.5,9.9,9.9,0,0,0-3.1-3,3.3,3.3,0,0,0-1.9-.5,4.4,4.4,0,0,0-2,.8,1.3,1.3,0,0,0-.5.8,5.5,5.5,0,0,0-.1,1.5,7.1,7.1,0,0,1-1,3.8,7.1,7.1,0,0,1-2.9,2.6l-1.1.6-2.1,1.1c-5.9,2.6-12,5.1-18.2,7.5L90.1,482l-2.7.9a13.4,13.4,0,0,1-2.9.3c-2.4,0-3.9-1.3-5.6-2.7l-.3-.2a2,2,0,0,0-1.8-.3,4.7,4.7,0,0,0-2.3,1.6,5.9,5.9,0,0,0-.9,3.4,15.6,15.6,0,0,0,.6,5.1,92.2,92.2,0,0,0,3.9,10.3,53,53,0,0,0,5.4,9.4,5.5,5.5,0,0,0,1.4,1.4,2.3,2.3,0,0,0,1.3.3l1.6-.3a3,3,0,0,0,1.2-.8,2.9,2.9,0,0,0,.7-1,3.2,3.2,0,0,0,.1-1.2,5.3,5.3,0,0,1,.6-2.8,5.5,5.5,0,0,1,2-2.1,51,51,0,0,1,5.6-2.8l5.8-2.2a5.5,5.5,0,0,1,1.9-.4,2.5,2.5,0,0,1,2.1,1.1,5.5,5.5,0,0,1,1,2.5,12.4,12.4,0,0,1,0,2.8c-.3,3.2-2.8,5-5.3,6.7l-.7.5-5.3,4a57.2,57.2,0,0,0-4.8,4.3,10.8,10.8,0,0,0-2.8,5.6,14.7,14.7,0,0,0,.3,7,39.1,39.1,0,0,0,3.7,8.2,17.5,17.5,0,0,0,4.3,5.2,8,8,0,0,0,1.8,1,4,4,0,0,0,1.9.2,3.9,3.9,0,0,0,1.7-.5,1.8,1.8,0,0,0,.7-1,4.7,4.7,0,0,0,.1-1.8c0-.3-.1-.6-.1-1a7.9,7.9,0,0,1,.2-2.4A4,4,0,0,1,106,538a33.9,33.9,0,0,1,3.6-2.3l3.1-2a19.3,19.3,0,0,0,4.4-4.2,10,10,0,0,0,2-5.3,16.7,16.7,0,0,0,0-1.9,14.9,14.9,0,0,1,0-2.4,3.2,3.2,0,0,1,.6-1.6,2.5,2.5,0,0,1,1.4-.9c1.3-.3,2,.2,3,1h.1a14.5,14.5,0,0,0,8.6,3.3,15.1,15.1,0,0,0,8.9-2.9,13.7,13.7,0,0,0,5.5-8.2,23.9,23.9,0,0,0-.5-12.2,89.7,89.7,0,0,0-5-12.3c-1.5-3.2-3-6.5-4.2-9.7-.5-1.3-.8-2.5-1.2-3.8s-.8-2.8-1.3-4.1Zm-19,24.4a4.2,4.2,0,0,1,2.1-1.4h0c3.1-.9,6.2-2,9.3-3.1l1.7-.6a4.7,4.7,0,0,1,2.6-.2,3.7,3.7,0,0,1,2.1,1.3,5.8,5.8,0,0,1,1,1.9,6.7,6.7,0,0,1,.3,2.2,6.3,6.3,0,0,1-.9,3.1,7.3,7.3,0,0,1-2.3,2.4,23.5,23.5,0,0,1-3.7,2.1,13.8,13.8,0,0,1-4,1.1H124c-1.9.2-4,.4-5.5-1.1a13.2,13.2,0,0,1-2.1-2.6,6.5,6.5,0,0,1-1.1-2.7A3.5,3.5,0,0,1,116,493.1Z" transform="translate(-14.9 -138.4)" fill="#fff" fill-rule="evenodd"/><path d="M158.5,560.7l-2.1,2.7a157.4,157.4,0,0,1-11.3,12.7l-4.3,4.6a8.9,8.9,0,0,1-3.3,2.4,6.3,6.3,0,0,1-4.4,0,5.1,5.1,0,0,0-2.2-.3,2.3,2.3,0,0,0-1.5.8,3.3,3.3,0,0,0-.8,2,2.2,2.2,0,0,0,.5,1.7c6.5,5.9,13.5,11.6,20.4,17.3l11.7,9.8h0l2.3,2.3c1.6,1.6,3.2,3.1,4.6,4.7l.7.6,1,.5a2.9,2.9,0,0,0,1.4.1,7.6,7.6,0,0,0,2.1-.6,64,64,0,0,0,7.3-3.6,20,20,0,0,0,5.7-4.9,5,5,0,0,0,.8-3.1,3.3,3.3,0,0,0-1.1-2.4,3.6,3.6,0,0,0-1.8-.8,3.3,3.3,0,0,0-1.9.3l-1.4.6a16.7,16.7,0,0,1-5.1,1.8,17.9,17.9,0,0,1-4.2,0,12.2,12.2,0,0,1-3.6-.9,29.9,29.9,0,0,1-5.8-3.5c-1.7-1.3-3.4-2.8-5-4.3a6.3,6.3,0,0,1-2.2-3.5,5,5,0,0,1,1.2-3.9l1-1.3a66,66,0,0,1,6.2-7.6,5,5,0,0,1,2.8-1.5,4.4,4.4,0,0,1,3,.6,9.3,9.3,0,0,1,1.9,1.7,6.8,6.8,0,0,1,1.2,2.1,5.5,5.5,0,0,1,.2,2.6,5.6,5.6,0,0,1-1,2.4l-.9,1.4a8,8,0,0,0-.7,1.4,3.4,3.4,0,0,0-.3,1.1,1.2,1.2,0,0,0,.3.8,3.2,3.2,0,0,0,1.3,1.1,3.3,3.3,0,0,0,1.7.2l1.8-.5,2-1.2a33.3,33.3,0,0,0,3.3-2.8l3.4-3.3a24.1,24.1,0,0,0,2.8-3.6,43.8,43.8,0,0,0,2.7-4.9,5.6,5.6,0,0,0,.5-2.8,3.4,3.4,0,0,0-.8-2.1,3.2,3.2,0,0,0-1.5-.9,1.8,1.8,0,0,0-1.3.2l-1.6,1-1.4,1.2a10.2,10.2,0,0,1-3.1,2.2,3.3,3.3,0,0,1-3.6-.7l-1.8-1.4-1.1-.8a4.1,4.1,0,0,1-1.7-2.5,3.5,3.5,0,0,1,1.1-2.7l4.7-5.6,2.3-2.8h0a5.2,5.2,0,0,1,3.3-1.6,5.9,5.9,0,0,1,3.7,1.2,44.7,44.7,0,0,1,8.9,8,11.2,11.2,0,0,1,2.3,4.2,9.3,9.3,0,0,1,.1,4.6,12.6,12.6,0,0,0-.4,2.4,2.8,2.8,0,0,0,.5,1.8,5.3,5.3,0,0,0,1.6,1.5,3.3,3.3,0,0,0,1.7.4,4.9,4.9,0,0,0,2-.5,5.1,5.1,0,0,0,1.6-1.4,29.4,29.4,0,0,0,3.4-5.1,16.1,16.1,0,0,0,1.7-5.4,5.1,5.1,0,0,0-.4-2.9,3.4,3.4,0,0,0-1.8-1.6l-.4-.2a17.8,17.8,0,0,1-3.9-2c-7.5-5.6-14.5-11.5-21.5-17.4l-9.9-8.3h0a14.9,14.9,0,0,0-2.3-1.7,5,5,0,0,0-2.1-.7,3.9,3.9,0,0,0-1.9.3,4.2,4.2,0,0,0-1.5,1.2,3,3,0,0,0-.7,1.4,1.8,1.8,0,0,0,.4,1.3,8.2,8.2,0,0,1,1.6,3.6,5.3,5.3,0,0,1-.6,3.4A71.6,71.6,0,0,1,158.5,560.7Z" transform="translate(-14.9 -138.4)" fill="#fff" fill-rule="evenodd"/><path d="M246.3,620.5a13.3,13.3,0,0,1-.2,4.2l-.5,2.8c-1,5.1-1.9,10.1-4.2,14.3-1.2,2.2-3.2,2.2-5.3,2.3h-.5a2.3,2.3,0,0,0-1.7.8,3.5,3.5,0,0,0,.2,4.7,10,10,0,0,0,3.5,2.3,74,74,0,0,0,16.7,5.3,32.7,32.7,0,0,0,13.2-.1,4.1,4.1,0,0,0,2.1-1.2,3.3,3.3,0,0,0,.9-2,3,3,0,0,0-.9-2.1,14.4,14.4,0,0,0-2.2-1.9,5.5,5.5,0,0,1-1.6-1.7,4.3,4.3,0,0,1-.5-2.6c.3-2.8.7-5.6,1.2-8.5s1.2-5.7,1.9-8.6a13.5,13.5,0,0,1,2.4-4.8,29.4,29.4,0,0,1,4-4.3h.1l4.6-3.3,9.1-6.6a9.2,9.2,0,0,1,2.4-1.2,6.9,6.9,0,0,1,2.5-.3h4.7a2.3,2.3,0,0,0,1.6-.7,3.2,3.2,0,0,0,.9-2.1h0a3.8,3.8,0,0,0-.9-2.8,7.6,7.6,0,0,0-2.8-1.8,42.7,42.7,0,0,0-9.3-2.9,41.9,41.9,0,0,0-9.7-.6,4.7,4.7,0,0,0-3,1.1,3.9,3.9,0,0,0-1.2,2.7,5.7,5.7,0,0,0,1.1,3l.3.6a2.6,2.6,0,0,1,.3,2,6,6,0,0,1-1.3,2.3,12,12,0,0,1-2.2,2,12.4,12.4,0,0,1-2.7,1.5,4,4,0,0,1-2.6.2,4.1,4.1,0,0,1-2.2-1.8l-.3-.4a10,10,0,0,1-2.3-6.2,4.4,4.4,0,0,1,.6-2.3,6.6,6.6,0,0,1,2-2,3.8,3.8,0,0,0,1.2-1.1,2.2,2.2,0,0,0,.3-1.4,3.4,3.4,0,0,0-.9-2,8.2,8.2,0,0,0-2.6-1.8,56.8,56.8,0,0,0-10.1-3.3,106,106,0,0,0-14.1-2.3h-.5c-2.6-.1-5.3-.3-7.3.4a2.5,2.5,0,0,0-1.5,1.2,5.2,5.2,0,0,0-.6,2.2,2.1,2.1,0,0,0,.2,1.1,2,2,0,0,0,.9.8,11.4,11.4,0,0,1,2,1.5l.7.6a24.9,24.9,0,0,1,2.8,2.6,14.5,14.5,0,0,1,2.1,2.9l4.1,7.7,3.8,7.1A12.9,12.9,0,0,1,246.3,620.5Z" transform="translate(-14.9 -138.4)" fill="#fff" fill-rule="evenodd"/><path d="M327.9,609.9c5.4,7.3,8.1,17,10.7,26.3.6,2.2,1.2,4.4,1.9,6.7a13,13,0,0,1,.6,5.2,5.8,5.8,0,0,1-1.8,3.7,6.1,6.1,0,0,0-1.5,1.7,2.9,2.9,0,0,0-.3,2,4,4,0,0,0,1.4,2.4,4.9,4.9,0,0,0,2.9,1,28.7,28.7,0,0,0,10.5-1.4,23.5,23.5,0,0,0,8.6-4.9,6.3,6.3,0,0,0,1.3-1.5,4,4,0,0,0,.5-2.2,3.8,3.8,0,0,0-.6-2.2,2.1,2.1,0,0,0-1.6-.7,8.4,8.4,0,0,1-3.9-1.1,6.8,6.8,0,0,1-2.6-2.8c-.7-1.3-1.3-2.7-1.9-4.1s-1.1-2.8-1.6-4.2a26.6,26.6,0,0,1-.9-3.3,11.5,11.5,0,0,1-.2-3.4v-.3a2.7,2.7,0,0,1,1.5-1.9,4.5,4.5,0,0,1,2.5-.3h.6a31.3,31.3,0,0,1,6.4,2.4l.9.4,10.5,4.6,21,9.3a12.8,12.8,0,0,0,3.3,1.1,4.2,4.2,0,0,0,3-.6,3.4,3.4,0,0,0,1.4-2.2,12.3,12.3,0,0,0,0-4.4c-.6-3.8-4.7-16.1-8.5-27.4l-3.2-9.6a24.1,24.1,0,0,1-1.2-7c0-1.9.4-3.5,1.5-4.3a7.4,7.4,0,0,0,2.4-2.3,3.9,3.9,0,0,0,.2-2.6,3.5,3.5,0,0,0-1.5-2.4,6.3,6.3,0,0,0-3.5-.9,25.6,25.6,0,0,0-8.1,1.5,87.5,87.5,0,0,0-9.1,3.7,5.1,5.1,0,0,0-2.3,1.9,4.5,4.5,0,0,0-.6,2.8,3.9,3.9,0,0,0,.7,2.2,2.7,2.7,0,0,0,1.8.9,12.4,12.4,0,0,1,3.7.9,6.5,6.5,0,0,1,2.8,2.7,24.2,24.2,0,0,1,1.9,4.1,40.3,40.3,0,0,1,1.3,4.4v.5c.5,1.7.9,3.4-1.2,4.7s-4,0-6.2-1h-.3l-19.5-8.4-9.7-4.2h-.1a8.4,8.4,0,0,0-3.6-1.2,9.7,9.7,0,0,0-4.1.6L331,596a43.8,43.8,0,0,0-8.2,3.5,9.3,9.3,0,0,0-3,2.8,5.3,5.3,0,0,0-.9,3.1,2.4,2.4,0,0,0,1,1.5,3.2,3.2,0,0,0,1.9.8h.1C323.9,607.7,326.4,607.7,327.9,609.9Z" transform="translate(-14.9 -138.4)" fill="#fff" fill-rule="evenodd"/><path d="M428.8,582.6c3.8,4.1,7.4,8.4,11.1,12.6a14.2,14.2,0,0,1,2.7,4.4,7.3,7.3,0,0,1,.2,4.5,6.2,6.2,0,0,0-.2,2.8,1.8,1.8,0,0,0,.9,1.3,5.8,5.8,0,0,0,3,.5,6.1,6.1,0,0,0,2.9-1,80.1,80.1,0,0,0,10.7-8.6,52.4,52.4,0,0,0,7.6-9.1,9.6,9.6,0,0,0,1.4-3.1,3.4,3.4,0,0,0-.5-2.7,3.7,3.7,0,0,0-1.7-1.5,2.9,2.9,0,0,0-2,0,14.4,14.4,0,0,1-3.8.9,4.3,4.3,0,0,1-3.3-1.2c-2.7-2.5-7.5-7.3-12.7-12.8s-8.3-9-11.8-13.2a7.9,7.9,0,0,1-1.7-3.4,7.2,7.2,0,0,1,.2-3.7l.3-.9c.5-1.5.9-2.8-.1-3.8a4.3,4.3,0,0,0-2.6-1.2,5.5,5.5,0,0,0-3.2.6,50.8,50.8,0,0,0-12.3,9.7c-4.6,4.8-7.9,9.7-8.6,12.1v.3a4,4,0,0,0,.2,2.6,2.2,2.2,0,0,0,1.3,1.2h.1a8,8,0,0,0,2.2.2l2.4-.3a7.9,7.9,0,0,1,3,.1,6.1,6.1,0,0,1,2.5,1.2A121.4,121.4,0,0,1,428.8,582.6Z" transform="translate(-14.9 -138.4)" fill="#fff" fill-rule="evenodd"/><path d="M451.8,529.9a7.1,7.1,0,0,1,3.9.2l1.2.4,2.3.8c6,2.4,12.1,5.1,18.1,7.8l9,4,2.5,1.3a13.4,13.4,0,0,1,2.2,1.8c1.6,1.7,1.8,3.6,2,5.9v.4A2,2,0,0,0,494,554a4.8,4.8,0,0,0,2.7.6,6,6,0,0,0,3.1-1.7,15.5,15.5,0,0,0,3.2-4,92.5,92.5,0,0,0,4.6-9.9,53,53,0,0,0,2.9-10.5,5.5,5.5,0,0,0,.1-2,2.2,2.2,0,0,0-.7-1.2,5.1,5.1,0,0,0-1.3-1,3.1,3.1,0,0,0-1.4-.3l-1.2.2a3.2,3.2,0,0,0-1,.8,5.3,5.3,0,0,1-2.5,1.5,5.5,5.5,0,0,1-2.9,0,50.9,50.9,0,0,1-5.9-2.1l-5.6-2.6a5.5,5.5,0,0,1-1.6-1.1,2.5,2.5,0,0,1-.6-2.3,5.5,5.5,0,0,1,1.1-2.4,12.4,12.4,0,0,1,2-2c2.5-2,5.5-1.5,8.5-.9l.9.2,6.6,1a57.3,57.3,0,0,0,6.4.4,10.9,10.9,0,0,0,5.9-1.9,14.7,14.7,0,0,0,4.8-5.1,39.1,39.1,0,0,0,3.3-8.4,17.5,17.5,0,0,0,.7-6.7,8,8,0,0,0-.6-2,4,4,0,0,0-1.1-1.5,3.8,3.8,0,0,0-1.5-.8,1.8,1.8,0,0,0-1.2.1,4.7,4.7,0,0,0-1.3,1.2l-.7.8a7.9,7.9,0,0,1-1.9,1.5,4,4,0,0,1-2.5.5,34.1,34.1,0,0,1-4.2-1l-3.6-.9a19.3,19.3,0,0,0-6.1-.2,10,10,0,0,0-5.1,2.3l-1.3,1.3a14.9,14.9,0,0,1-1.8,1.7,3.2,3.2,0,0,1-1.6.7,2.5,2.5,0,0,1-1.6-.3c-1.1-.7-1.2-1.6-1.4-2.9h0a14.5,14.5,0,0,0-3.7-8.4,15,15,0,0,0-8.3-4.3,13.7,13.7,0,0,0-9.7,1.8,23.9,23.9,0,0,0-8.3,8.9,89.8,89.8,0,0,0-5.3,12.2c-1.3,3.3-2.5,6.7-4,9.7-.6,1.2-1.2,2.3-1.9,3.5s-1.4,2.5-2,3.8a25.7,25.7,0,0,0-2,5.8,9.9,9.9,0,0,0,0,4.4,3.3,3.3,0,0,0,1,1.7,4.4,4.4,0,0,0,2,.9,1.3,1.3,0,0,0,.9-.1,5.5,5.5,0,0,0,1.2-1,7.1,7.1,0,0,1,3.4-2Zm21.9-13.7c-2.8-1.6-5.7-3-8.7-4.5l-1.6-.8a4.7,4.7,0,0,1-2-1.7,3.7,3.7,0,0,1-.5-2.4,5.8,5.8,0,0,1,.6-2,6.7,6.7,0,0,1,1.4-1.8,6.3,6.3,0,0,1,2.8-1.5,7.3,7.3,0,0,1,3.3-.1,23.5,23.5,0,0,1,4.1,1.2,13.8,13.8,0,0,1,3.6,2.1l.2.2c1.5,1.2,3.1,2.5,3.1,4.7a13.2,13.2,0,0,1-.4,3.3,6.6,6.6,0,0,1-1.2,2.6,3.5,3.5,0,0,1-2.2,1.2,4.2,4.2,0,0,1-2.4-.5Z" transform="translate(-14.9 -138.4)" fill="#fff" fill-rule="evenodd"/><circle cx="284.5" cy="282.4" r="138.9" fill="url(#b)"/><path d="M299.4,282.9q-6.9,0-13.5.6l5.8,11.5q12.1.7,24.1,2.2t24.3,3.8l20.5-3.7a137,137,0,0,0-61.2-14.4Zm-16,.9,5.9,11.5a68.4,68.4,0,0,0-24.9,12.1A94.8,94.8,0,0,0,246,326.8l-22.9-.7h-.2a74.9,74.9,0,0,0-20.3,13.6l-7.1-9.8q3.1-3.5,6.4-6.9a137.2,137.2,0,0,1,81.4-39.3Zm-83,37.7a139.9,139.9,0,1,1-41.1,98.9,139.4,139.4,0,0,1,41.1-98.9Zm-6.3,10.2a137.1,137.1,0,0,0-32.5,88.7q0,1.9,0,3.9l4.1.7a60,60,0,0,1,2.7-13.5,39.7,39.7,0,0,1,14.9-20.4l1.6-25.7v-.2a77.5,77.5,0,0,1,15.1-23l.8-.8-6.9-9.7Zm-32.4,94.8A136.9,136.9,0,0,0,178.1,486l1.1-7.2c-5.8-7.1-10.2-16.4-12.5-29.1h0a115,115,0,0,1-1-22.4l-3.9-.7Zm18.2,62.6a138.1,138.1,0,0,0,75.8,62l-.9-16.5c-7.7-2.1-16-7.2-23.4-13.2s-16.4-15.9-19.6-22.2c-10.2-3.7-19.9-8.1-27.8-15.5l-2.8-2.8-1.2,8.2ZM258,552a138.1,138.1,0,0,0,96.6-5.3l.2-14.3a179.2,179.2,0,0,1-28.5-2.9,184.8,184.8,0,0,1-25.6-6.7c-4.4,3.5-20.2,6.9-33.3,9.7L257,534.8l1,17.2Zm98.9-6.4a138.2,138.2,0,0,0,58.3-50.9l-21-1.6a96.8,96.8,0,0,1-15.8,21,144.1,144.1,0,0,1-21.3,17.7l-.2,13.8Zm59.7-53.1a137,137,0,0,0,20.3-71.7q0-6.4-.6-12.6l-15.9-21.2-24.7.2a184,184,0,0,1-7.2,27.4,74.5,74.5,0,0,1-9.7,19.1,220.2,220.2,0,0,1,9.9,27.7,194,194,0,0,1,5.9,29.5l22,1.6Zm19.2-88.8A136.8,136.8,0,0,0,423,360.4l-.9,25,13.7,18.3Zm-14.9-47.5-1,28.4-24.3.2c-2.6-6-7.8-12.5-14.8-19a154,154,0,0,0-27.1-19.4,96.4,96.4,0,0,0-4.2-21.8c-2.1-7.1-4.9-14.4-7.8-21.6l22.3-4.1a138.2,138.2,0,0,1,57,57.2ZM315.5,299.5q11.9,1.5,23.7,3.7c3,7.4,5.8,14.8,8,22.2a94.3,94.3,0,0,1,4.2,21.2l-43.4,27.3a206.2,206.2,0,0,0-26.7-5.8c-8.9-1.3-18-2.2-27.2-2.6l-6.2-37.3a92.7,92.7,0,0,1,18-18.9,66.4,66.4,0,0,1,25.2-12q12.3.7,24.5,2.2Zm63.7,68.1a151.6,151.6,0,0,0-26.6-19.1l-43.1,27.1,16.4,56.7H377a72.3,72.3,0,0,0,9.4-18.6,183.3,183.3,0,0,0,7.2-27.7c-2.5-5.8-7.5-12.2-14.4-18.6Zm-2.4,67.1H325.4l-36.6,39.6,12.7,46.4a182.6,182.6,0,0,0,25.3,6.6,177.2,177.2,0,0,0,28.9,2.9,142.2,142.2,0,0,0,21.1-17.5,94.4,94.4,0,0,0,15.6-20.9,191.7,191.7,0,0,0-5.9-29.7,218.3,218.3,0,0,0-9.7-27.3Zm-53.2-1.5-16.5-57.1a204.1,204.1,0,0,0-26.3-5.7,276.1,276.1,0,0,0-27.5-2.7c-6.9,3.7-13.1,9.3-18.9,15.8a260.2,260.2,0,0,0-16.7,21.8L233.4,459c6.5,4.6,14.7,7.6,23.9,9.6s19.4,3.1,29.7,4.1l36.6-39.5ZM251.8,366l-6.2-37-22-.6a71.9,71.9,0,0,0-21.8,15.4A75.2,75.2,0,0,0,187.2,366l-1.6,25,30.4,12.9a259.5,259.5,0,0,1,16.6-21.7c5.9-6.6,12.1-12.3,19.1-16.1Zm-36.2,40L184.6,393a37.5,37.5,0,0,0-14,19.3c-3,9.1-3.9,21.1-1.8,37.1s8.9,25.6,16.6,32.9,16.7,11.3,26.4,14.8c2.4-7.7,8.6-18.5,14.8-29.3l4.7-8.2L215.6,406Zm41.2,64.7c-9.1-2-17.3-4.9-24-9.5l-4.3,7.5c-6.4,11.1-12.7,22.2-14.8,29.6,3.1,6.1,10.4,14.4,19,21.4s15.6,11,23.1,12.9l11.1-2.5c12.9-2.8,28.4-6.1,32.3-9.2l-12.6-46.2C276.3,473.9,266.1,472.8,256.8,470.8Z" transform="translate(-14.9 -138.4)" fill="#163666" fill-rule="evenodd"/><path d="M251.8,366l-6.2-37-22-.6a71.9,71.9,0,0,0-21.8,15.4A75.2,75.2,0,0,0,187.2,366l-1.6,25,30.4,12.9a259.5,259.5,0,0,1,16.6-21.7C238.6,375.5,244.8,369.8,251.8,366Z" transform="translate(-14.9 -138.4)" fill="#0064b1" fill-rule="evenodd"/><path d="M291.7,295.1q12.1.7,24.1,2.2t24.3,3.8l20.5-3.7a137,137,0,0,0-61.2-14.4q-6.9,0-13.5.6Z" transform="translate(-14.9 -138.4)" fill="#0064b1" fill-rule="evenodd"/><path d="M352.5,348.5l-43.1,27.1,16.4,56.7H377a72.3,72.3,0,0,0,9.4-18.6,183.3,183.3,0,0,0,7.2-27.7c-2.5-5.8-7.5-12.2-14.4-18.6A151.6,151.6,0,0,0,352.5,348.5Z" transform="translate(-14.9 -138.4)" fill="#0064b1" fill-rule="evenodd"/><path d="M286.6,474.9c-10.4-1-20.6-2.1-29.8-4.1s-17.3-4.9-24-9.5l-4.3,7.5c-6.4,11.1-12.7,22.2-14.8,29.6,3.1,6.1,10.4,14.4,19,21.4s15.6,11,23.1,12.9l11.1-2.5c12.9-2.8,28.4-6.1,32.3-9.2Z" transform="translate(-14.9 -138.4)" fill="#0064b1" fill-rule="evenodd"/><path d="M378.4,514.2a144.1,144.1,0,0,1-21.3,17.7l-.2,13.8a138.2,138.2,0,0,0,58.3-50.9l-21-1.6A96.8,96.8,0,0,1,378.4,514.2Z" transform="translate(-14.9 -138.4)" fill="#0064b1" fill-rule="evenodd"/><path d="M422,385.4l13.7,18.3A136.8,136.8,0,0,0,423,360.4Z" transform="translate(-14.9 -138.4)" fill="#0064b1" fill-rule="evenodd"/><path d="M166.6,449.7a115,115,0,0,1-1-22.4l-3.9-.7A136.9,136.9,0,0,0,178.1,486l1.1-7.2c-5.8-7.1-10.2-16.4-12.5-29.1Z" transform="translate(-14.9 -138.4)" fill="#0064b1" fill-rule="evenodd"/><path d="M297.6,140.7A280.4,280.4,0,1,0,496,222.8a279.7,279.7,0,0,0-198.3-82.1ZM97.7,221.2A282.3,282.3,0,1,1,14.9,420.9,282,282,0,0,1,97.7,221.2Z" transform="translate(-14.9 -138.4)" fill="#163666" fill-rule="evenodd"/><path d="M29.7,414.8h118a164.7,164.7,0,0,1,3.5-26.6,147.8,147.8,0,0,1,18.9-46.7A161.8,161.8,0,0,1,185,321.3a138.7,138.7,0,0,1,22.9-21,162.6,162.6,0,0,1,28.2-16.6,153.1,153.1,0,0,1,30.2-10.3,128.1,128.1,0,0,1,29.9-3.3,165.7,165.7,0,0,1,33.1,3.7,156.4,156.4,0,0,1,31.1,10.3,153,153,0,0,1,52.1,38.5,144.2,144.2,0,0,1,25.9,42.5,150.2,150.2,0,0,1,7.2,24.3,156.7,156.7,0,0,1,3.2,25.5l117.9.2a262,262,0,0,0-6.7-54.6,266.7,266.7,0,0,0-18-52.3,274.1,274.1,0,0,0-66.4-89.2,248.1,248.1,0,0,0-38.2-27.7A281.4,281.4,0,0,0,346,156.8a266.1,266.1,0,0,0-47.9-4.6,281.2,281.2,0,0,0-45.1,3.4,255.1,255.1,0,0,0-42.5,10.5,250.7,250.7,0,0,0-39.8,17.6,267.1,267.1,0,0,0-37,24.7,283.2,283.2,0,0,0-43.4,42.7,276.3,276.3,0,0,0-32.9,50.6,262.5,262.5,0,0,0-20.6,55.7,241.2,241.2,0,0,0-7,57.3Zm119.1,2.4H27.4v-2.3A243.4,243.4,0,0,1,34.5,357a264.8,264.8,0,0,1,20.8-56.2,278.6,278.6,0,0,1,33.2-51,285.4,285.4,0,0,1,43.7-43,269.4,269.4,0,0,1,37.3-24.9A253,253,0,0,1,209.7,164a257.4,257.4,0,0,1,42.9-10.6,283.3,283.3,0,0,1,45.5-3.4,268.3,268.3,0,0,1,48.3,4.6,283.7,283.7,0,0,1,92.2,34.7,250.5,250.5,0,0,1,38.5,28,276.6,276.6,0,0,1,66.9,90,269,269,0,0,1,18.1,52.8A264.4,264.4,0,0,1,569,415v2.3h-1.1l-120.2-.2h-1.1v-2.2a154.4,154.4,0,0,0-3.1-25.1,148.1,148.1,0,0,0-7.1-23.9,142,142,0,0,0-25.5-41.8,150.7,150.7,0,0,0-51.3-37.9,154.1,154.1,0,0,0-30.6-10.1,163.5,163.5,0,0,0-32.7-3.7,125.9,125.9,0,0,0-29.4,3.2,150.8,150.8,0,0,0-29.7,10.2,160.4,160.4,0,0,0-27.8,16.4,136.4,136.4,0,0,0-22.6,20.7,159.6,159.6,0,0,0-14.7,20,145.7,145.7,0,0,0-18.6,46,162.4,162.4,0,0,0-3.5,26.3v2.1Z" transform="translate(-14.9 -138.4)" fill="#163666" fill-rule="evenodd"/><path d="M29.7,424.5H149.9v2.1a162.4,162.4,0,0,0,3.5,26.3,145.7,145.7,0,0,0,18.6,46,159.5,159.5,0,0,0,14.7,20,136.4,136.4,0,0,0,22.6,20.7,160.3,160.3,0,0,0,27.8,16.4,150.9,150.9,0,0,0,29.7,10.2,125.9,125.9,0,0,0,29.4,3.2,163.4,163.4,0,0,0,32.7-3.7,154.1,154.1,0,0,0,30.6-10.1,150.7,150.7,0,0,0,51.3-37.9,142,142,0,0,0,25.5-41.8,148.1,148.1,0,0,0,7.1-23.9,154.4,154.4,0,0,0,3.1-25.1v-2.2h1.1l120.2-.2H569v2.3a264.4,264.4,0,0,1-6.7,55.1,269.1,269.1,0,0,1-18.1,52.8,276.6,276.6,0,0,1-66.9,90,250.6,250.6,0,0,1-38.5,28,283.7,283.7,0,0,1-92.2,34.7,268.4,268.4,0,0,1-48.3,4.6,283.4,283.4,0,0,1-45.5-3.4,257.3,257.3,0,0,1-42.9-10.6,252.9,252.9,0,0,1-40.2-17.8,269.4,269.4,0,0,1-37.3-24.9,285.5,285.5,0,0,1-43.7-43,278.6,278.6,0,0,1-33.2-51,264.8,264.8,0,0,1-20.8-56.2,243.4,243.4,0,0,1-7.1-57.9v-2.3Zm118,2.2H29.7a241.2,241.2,0,0,0,7,57.3,262.5,262.5,0,0,0,20.6,55.7,276.3,276.3,0,0,0,32.9,50.6,283.2,283.2,0,0,0,43.4,42.7,267.1,267.1,0,0,0,37,24.7,250.7,250.7,0,0,0,39.8,17.6A255.1,255.1,0,0,0,253,686a281.1,281.1,0,0,0,45.1,3.4,266.1,266.1,0,0,0,47.9-4.6,281.4,281.4,0,0,0,91.5-34.4,248.1,248.1,0,0,0,38.2-27.7A274.2,274.2,0,0,0,542,533.5a266.7,266.7,0,0,0,18-52.3,262,262,0,0,0,6.7-54.6l-117.9.2a156.7,156.7,0,0,1-3.2,25.5,150.2,150.2,0,0,1-7.2,24.3,144.2,144.2,0,0,1-25.9,42.5,153,153,0,0,1-52.1,38.5,156.4,156.4,0,0,1-31.1,10.3,165.8,165.8,0,0,1-33.1,3.7,128.1,128.1,0,0,1-29.9-3.3A153.1,153.1,0,0,1,236.2,558,162.6,162.6,0,0,1,208,541.3a138.7,138.7,0,0,1-22.9-21A161.7,161.7,0,0,1,170.1,500a147.8,147.8,0,0,1-18.9-46.7A164.7,164.7,0,0,1,147.7,426.7Z" transform="translate(-14.9 -138.4)" fill="#163666" fill-rule="evenodd"/><path d="M126.5,330.2a16.5,16.5,0,0,1,4.3,5.2,13.1,13.1,0,0,1,1.4,6.1,12.8,12.8,0,0,1-.9,4.2,11.8,11.8,0,0,1-2,3.6,4.5,4.5,0,0,1-2.8,1.5,6.4,6.4,0,0,1-3.5-.6c-7.8-3.5-15.4-7-23-10.6l-12.1-5.6h0a3.2,3.2,0,0,1-1.5-1.6,3.1,3.1,0,0,1-.1-2.2,17.9,17.9,0,0,1,1.9-4.5,13,13,0,0,1,2.7-3.1,12.9,12.9,0,0,1,6.8-3,20.6,20.6,0,0,1,6.9.5,58.4,58.4,0,0,1,11.5,3.7,45.4,45.4,0,0,1,10.3,6.3ZM93.3,359.3c7.1,3.5,14.2,6.9,21.2,10.8a7.2,7.2,0,0,1,2.7,2.6,4.3,4.3,0,0,1,.5,3.2,10.9,10.9,0,0,0-.4,2.2,1.4,1.4,0,0,0,.3,1.2,5.2,5.2,0,0,0,2.6,1.3,3.4,3.4,0,0,0,2.3-.4A10,10,0,0,0,125,378a8.2,8.2,0,0,0,1.5-2.5,133.3,133.3,0,0,1,5.1-12.5q2.9-6.2,6.4-12.4a51.7,51.7,0,0,0,5.2-13.1,28.8,28.8,0,0,0,.8-11.5,30.2,30.2,0,0,0-7.2-14.5,36.3,36.3,0,0,0-14.4-9.7c-9.1-3.4-16.8-3.2-23.2-.5s-12.8,9.4-16.7,17.4c-2.8,5.7-5.1,10.6-7.3,15.5s-4.4,9.7-6.8,15.4h0a6.5,6.5,0,0,0-.6,3.5,2.4,2.4,0,0,0,.6,1.4,3.9,3.9,0,0,0,1.7,1,3.8,3.8,0,0,0,2.2.1,3.1,3.1,0,0,0,1.6-1.2,4.5,4.5,0,0,1,3.4-1.7,8.5,8.5,0,0,1,4.4,1Z" transform="translate(-14.9 -138.4)" fill="#fff" fill-rule="evenodd"/><path d="M153.2,230.1Zm36.5,34.5a5.3,5.3,0,0,1,1.9-.4,5.4,5.4,0,0,1,2.1.3,3.8,3.8,0,0,1,1.8,1.5,3.6,3.6,0,0,1,.7,2.8,5.6,5.6,0,0,1-1.3,2.3,4.3,4.3,0,0,0-.6.9,2,2,0,0,0-.2,1,3.4,3.4,0,0,0,.6,1.6,2.1,2.1,0,0,0,1,.9,6.9,6.9,0,0,0,3.4.2,10,10,0,0,0,3.7-1.6l3.8-2.5c7.6-5,15-9.8,17.8-14.9a5,5,0,0,0,.7-2.9,4.1,4.1,0,0,0-1.3-2.5,1.7,1.7,0,0,0-1-.5,2.5,2.5,0,0,0-1.3.3,8.7,8.7,0,0,1-3.6.9,7.8,7.8,0,0,1-3.8-1l-24.4-13.1-12.2-6.5a50.3,50.3,0,0,0-7.9-3.5,24.4,24.4,0,0,0-8.2-1.3,11.5,11.5,0,0,0-4.3.9,13,13,0,0,0-3.8,2.6,9.8,9.8,0,0,0-3.3,5.7c-.3,2,.3,4.2,2,6.7h0a58.3,58.3,0,0,1,3.2,5.5,27,27,0,0,1,2.2,5.8c.8,3.3,1.4,6.5,2.1,9.8s.9,4.8,1.4,7l.7,2.9c1.4,6.3,3,13.2,2.5,17.3a10.7,10.7,0,0,1-2.3,4.6l-.6.9a1.9,1.9,0,0,0-.3,1.3,3,3,0,0,0,.7,1.5l.9.9.8.4a6.1,6.1,0,0,0,2.3-.1,8.5,8.5,0,0,0,2.3-.9,75.9,75.9,0,0,0,8.5-5.4,28,28,0,0,0,6.5-6.6,3.5,3.5,0,0,0-.1-4.2,2.7,2.7,0,0,0-1.5-1,2.6,2.6,0,0,0-1.8.2l-.6.3a5.7,5.7,0,0,1-2,.7c-2.5.3-2.9-1.3-3.4-3h0a6,6,0,0,1-.1-3,3.8,3.8,0,0,1,1.4-2.3l5.9-4.2,7.2-5.1a9.6,9.6,0,0,1,2-1.1Zm-7.6-8.4c.3.8.1,1.5-1,2.3l-4.2,2.9-4.1,3h-.1a7,7,0,0,1-2,1.2c-.9.3-1.7,0-2.1-1.3l-.5-1.7c-1-3.3-1.9-6.6-2.6-9.9a2.2,2.2,0,0,1,0-.4,3.4,3.4,0,0,1,.6-1.8,2.9,2.9,0,0,1,1.9-1.3h.6a6.9,6.9,0,0,1,2.1.4l1.9.8,3.9,1.8,3.8,2.1A4.4,4.4,0,0,1,182,256.2Z" transform="translate(-14.9 -138.4)" fill="#fff" fill-rule="evenodd"/><path d="M300.6,241Zm-50.2-27.7c1.7,9.9,3.4,19.6,2.9,24.9a5.6,5.6,0,0,1-1.3,3.2,9.9,9.9,0,0,1-3.1,2.3,3.6,3.6,0,0,0-1.1.8,1.3,1.3,0,0,0-.3.7,7,7,0,0,0,0,1.9,1.9,1.9,0,0,0,.4.9,4.7,4.7,0,0,0,3,1.4,15.9,15.9,0,0,0,4-.3c8.2-1.4,16.4-2.5,24.6-3.6l4.3-.6,2.9-.4,2.9-.2h6.8l1.3-.3a2.5,2.5,0,0,0,.9-.7,28.8,28.8,0,0,0,1.9-2.5,13.6,13.6,0,0,0,1.5-2.8,24.2,24.2,0,0,0,1.5-8.4,11.5,11.5,0,0,0-1.5-6.3,5.6,5.6,0,0,0-2.3-1.9,4.1,4.1,0,0,0-2.6-.3c-1.6.3-1.9,2-2.4,4.3s-.3,1.7-.6,2.7a9.6,9.6,0,0,1-2.4,4.3,11.4,11.4,0,0,1-4.4,2.7,22.2,22.2,0,0,1-4.9,1.1,11.5,11.5,0,0,1-4.1-.2,6.1,6.1,0,0,1-3.3-2.4,9,9,0,0,1-1.6-4.3c-.6-5.2-1.4-10.7-2.2-16.1s-1.8-12-2.3-17.4a5.4,5.4,0,0,1,1.1-3.7,8.9,8.9,0,0,1,3.5-2.7,2.4,2.4,0,0,0,1.1-.9,2.1,2.1,0,0,0,.2-1.3,4.2,4.2,0,0,0-1-2.4,3.3,3.3,0,0,0-2.1-1.1c-2.7-.2-5.4-.4-8.2-.3a59.2,59.2,0,0,0-8.6.7,49.1,49.1,0,0,0-7.9,1.7,20.8,20.8,0,0,0-7,3.8,4.3,4.3,0,0,0-1.3,1.7,3.3,3.3,0,0,0-.1,1.9,1.9,1.9,0,0,0,1.1,1.5,6.6,6.6,0,0,0,2.7.4,5.1,5.1,0,0,1,3.7,1.6,6.9,6.9,0,0,1,1.9,3.9C249,204.7,249.7,209,250.4,213.3Z" transform="translate(-14.9 -138.4)" fill="#fff" fill-rule="evenodd"/><path d="M339.3,213.1c1.4,11.4,2.8,22.7,4.6,34a5.6,5.6,0,0,0,1.5,3.1,7.5,7.5,0,0,0,2.9,1.7,6.7,6.7,0,0,0,4.5.1,11.6,11.6,0,0,0,4.6-3.2l3.4-3.7c11.4-12.2,22.8-24.4,34.5-36.4,1.3-1.4,3.5-1,5.8-.5l1.1.2h1.1a2.2,2.2,0,0,0,1-.7,4.2,4.2,0,0,0,.8-1.1,3.9,3.9,0,0,0,.3-1.4,3.1,3.1,0,0,0-1-2.2,12.2,12.2,0,0,0-3-2.1,40.5,40.5,0,0,0-9.3-3.7A33,33,0,0,0,383,196a4.8,4.8,0,0,0-2.8,1.1,2.7,2.7,0,0,0-1.2,2c0,1.3,1.3,2.5,2.1,3.3h.1a2.9,2.9,0,0,1,.8,3.1,7.1,7.1,0,0,1-1.5,2.6l-6.9,7.9c-1,1.2-2.3,2.9-3.4,3.9a10.9,10.9,0,0,1-1.9,1.5,5.3,5.3,0,0,1-2.3.8,2.8,2.8,0,0,1-2.5-.9,6.7,6.7,0,0,1-1.2-3.6c-.2-1.9-.5-3.8-.8-5.7a74,74,0,0,1-1.2-11.4c0-2.4,2.1-3,4.3-3.7h.3a2.6,2.6,0,0,0,1.4-.9,3,3,0,0,0,.5-1.7,3.2,3.2,0,0,0-.7-1.9,6.9,6.9,0,0,0-2.1-1.9,59.3,59.3,0,0,0-11.4-5.2,58.2,58.2,0,0,0-13.7-2.8,11.2,11.2,0,0,0-3,.1,7.9,7.9,0,0,0-2.9,1.2,4,4,0,0,0-1.4,1.4,4.6,4.6,0,0,0-.5,2.1,2.3,2.3,0,0,0,.2,1.1,1,1,0,0,0,.6.5,7.7,7.7,0,0,1,3.9,2.9,8.1,8.1,0,0,1,1.3,4.4C338,201.9,338.7,207.5,339.3,213.1Z" transform="translate(-14.9 -138.4)" fill="#fff" fill-rule="evenodd"/><path d="M420.1,244.4c-4.5,6.6-8.9,13.1-15.6,19.5a3.6,3.6,0,0,1-1.5.8,5.5,5.5,0,0,1-1.8.2h-1.5a6.3,6.3,0,0,0-2.3.1,2.6,2.6,0,0,0-1.3.9,3,3,0,0,0-.5,1.7,5.6,5.6,0,0,0,.6,2.7,10.3,10.3,0,0,0,1.7,2.4,54.2,54.2,0,0,0,8.8,7.4c3.1,2.1,6.4,4,9.7,5.8a13.1,13.1,0,0,0,2.5,1.1,10.3,10.3,0,0,0,2.6.4,4.8,4.8,0,0,0,2.1-.3,3.2,3.2,0,0,0,1.4-1.3,3.4,3.4,0,0,0,.5-2.4,5.5,5.5,0,0,0-1.2-2.5,4.3,4.3,0,0,1-1-3.4,7.5,7.5,0,0,1,1.2-2.9c3.4-5.3,7.7-11.6,11.8-17.1a129.9,129.9,0,0,1,10.2-12.5c2-2,4-1.7,6.4-1.4l1.3.2a2.3,2.3,0,0,0,1.6-.5,2.6,2.6,0,0,0,.9-1.5,5.4,5.4,0,0,0,0-2.5,6,6,0,0,0-1.2-2.3,45,45,0,0,0-10.5-9.4,69.9,69.9,0,0,0-13.7-6.8,3.7,3.7,0,0,0-2.1-.2,4.3,4.3,0,0,0-2,1c-1.5,1.3-.8,3.3,0,5.4l.6,1.5c.9,2.9-1,5.9-2.8,8.7l-.7,1.1h0Z" transform="translate(-14.9 -138.4)" fill="#fff" fill-rule="evenodd"/><path d="M440.5,218.7a28.6,28.6,0,0,0,8.5,4.7,22,22,0,0,0,10.1.9,10.1,10.1,0,0,0,2.8-.7,2.2,2.2,0,0,0,1.2-1,3.1,3.1,0,0,0,.3-1.7,3.6,3.6,0,0,0-.7-1.7,29.7,29.7,0,0,0-5.3-6,11.8,11.8,0,0,0-6.4-2.8h-.5a1.6,1.6,0,0,0-.3.9,2.5,2.5,0,0,1-.9,2,3.6,3.6,0,0,1-2.3.4h-4.7a2.9,2.9,0,0,0-2.7,1.9,2,2,0,0,0-.2,1.5A3,3,0,0,0,440.5,218.7Z" transform="translate(-14.9 -138.4)" fill="#fff" fill-rule="evenodd"/><path d="M464.6,326.2Zm11.1-29.4a130.5,130.5,0,0,1-16.6,7.9h-.4a21.3,21.3,0,0,1-5.4,1.5,6.8,6.8,0,0,1-2.7-.3,10.5,10.5,0,0,1-2.3-1.1,2.9,2.9,0,0,0-1.7-.4,3.9,3.9,0,0,0-1.9.7,3.5,3.5,0,0,0-1.6,2.8,10.3,10.3,0,0,0,1.2,4.9v.2a119.3,119.3,0,0,0,7.8,14.9,34.2,34.2,0,0,0,3,4.1,8.8,8.8,0,0,0,3.2,2.4,3.3,3.3,0,0,0,2,.2,2.7,2.7,0,0,0,1.5-1,8.4,8.4,0,0,0,1.3-3.6c.1-.6.2-1.2.4-1.8a6.9,6.9,0,0,1,1-2.2,4.3,4.3,0,0,1,1.6-1.4l2.3-1.1,2.4-1.2h.1a4.3,4.3,0,0,1,2.1,0,2.7,2.7,0,0,1,1.7,1.5,5.1,5.1,0,0,1,.4,2.8,12.7,12.7,0,0,1-.9,3.5l-4,9.6-3.9,9.6a4.7,4.7,0,0,0-.3,2.5,6.4,6.4,0,0,0,.9,2.2c1.3,2.3,2.5,4.7,3.7,7a82.3,82.3,0,0,0,6,10.5,3.5,3.5,0,0,0,1.3,1.2,3.2,3.2,0,0,0,1.4.3,5.4,5.4,0,0,0,4.1-1.8,3.6,3.6,0,0,0,1-2.4c0-.4,0-.7,0-1.1a26.4,26.4,0,0,1,.1-2.8c0-.4,0-.7.1-1.1a8.3,8.3,0,0,1,.5-3.2c1.9-4.5,3.6-9,5.2-13.5a187.2,187.2,0,0,1,7.2-17.7,4.1,4.1,0,0,1,2.3-2.1,7.4,7.4,0,0,1,3.6-.3,33.5,33.5,0,0,1,7.5,2.2l1.8.7a8.5,8.5,0,0,1,3.5,1.6,8.1,8.1,0,0,1,2.4,3.2,14.7,14.7,0,0,0,1.5,2.6,9.6,9.6,0,0,0,1.7,1.9,2.5,2.5,0,0,0,1.2.6h1.3a5.8,5.8,0,0,0,1.7-.7,3.1,3.1,0,0,0,1.1-1.2,6.2,6.2,0,0,0,.6-2.5,6,6,0,0,0-.5-2.5l-.2-.4c-2.5-5.9-4.8-11.3-8.9-16.7a9.7,9.7,0,0,0-2.5-2.4,4.8,4.8,0,0,0-2.5-.8,4.1,4.1,0,0,0-1.5.2,2.9,2.9,0,0,0-1.2.9l-.7,1-1,1.3a3.3,3.3,0,0,1-1.8,1.1,6,6,0,0,1-1.9.1l-1.7-.2c-4.3-.4-8-.8-10.8-2.5l-.6-.6a2.8,2.8,0,0,1-.5-1.6,2.9,2.9,0,0,1,.4-1.6l.6-.6a25.3,25.3,0,0,1,3.3-2.1,14.4,14.4,0,0,1,3.5-1.3,8.5,8.5,0,0,1,3.5-.1,14.1,14.1,0,0,1,3.3,1.1,2.3,2.3,0,0,0,1.7.1,3.6,3.6,0,0,0,1.7-1.3,5.3,5.3,0,0,0,1-2.2,7.1,7.1,0,0,0-.1-2.9c-.7-3.2-2.4-6.1-4.2-9.1l-.7-1.1a74.1,74.1,0,0,0-4-6.4,23.8,23.8,0,0,0-4.5-4.8,3.3,3.3,0,0,0-2.4-.7,5,5,0,0,0-2.7,1.2,2.7,2.7,0,0,0-.8,1.5,9.6,9.6,0,0,0-.2,2.4,4.3,4.3,0,0,1-.7,2.4,9.7,9.7,0,0,1-1.4,1.7h0A80.2,80.2,0,0,1,475.7,296.8Z" transform="translate(-14.9 -138.4)" fill="#fff" fill-rule="evenodd"/><path d="M484.8,484.6a15,15,0,0,0-8.3-4.3,13.7,13.7,0,0,0-9.7,1.8,23.9,23.9,0,0,0-8.3,8.9,89.8,89.8,0,0,0-5.3,12.2c-1.3,3.3-2.5,6.7-4,9.7-.6,1.2-1.2,2.3-1.9,3.5s-1.4,2.5-2,3.8a25.7,25.7,0,0,0-2,5.8,9.9,9.9,0,0,0,0,4.4,3.3,3.3,0,0,0,1,1.7,4.4,4.4,0,0,0,2,.9,1.3,1.3,0,0,0,.9-.1,5.5,5.5,0,0,0,1.2-1,7.1,7.1,0,0,1,3.4-2,7.1,7.1,0,0,1,3.9.2l1.2.4,2.3.8c6,2.4,12.1,5.1,18.1,7.8l9,4,2.5,1.3a13.4,13.4,0,0,1,2.2,1.8c1.6,1.7,1.8,3.6,2,5.9v.4A2,2,0,0,0,494,554a4.8,4.8,0,0,0,2.7.6,6,6,0,0,0,3.1-1.7,15.5,15.5,0,0,0,3.2-4,92.5,92.5,0,0,0,4.6-9.9,53,53,0,0,0,2.9-10.5,5.5,5.5,0,0,0,.1-2,2.2,2.2,0,0,0-.7-1.2,5.1,5.1,0,0,0-1.3-1,3.1,3.1,0,0,0-1.4-.3l-1.2.2a3.2,3.2,0,0,0-1,.8,5.3,5.3,0,0,1-2.5,1.5,5.5,5.5,0,0,1-2.9,0,50.9,50.9,0,0,1-5.9-2.1l-5.6-2.6a5.5,5.5,0,0,1-1.6-1.1,2.5,2.5,0,0,1-.6-2.3,5.5,5.5,0,0,1,1.1-2.4,12.4,12.4,0,0,1,2-2c2.5-2,5.5-1.5,8.5-.9l.9.2,6.6,1a57.3,57.3,0,0,0,6.4.4,10.9,10.9,0,0,0,5.9-1.9,14.7,14.7,0,0,0,4.8-5.1,39.1,39.1,0,0,0,3.3-8.4,17.5,17.5,0,0,0,.7-6.7,8,8,0,0,0-.6-2,4,4,0,0,0-1.1-1.5,3.8,3.8,0,0,0-1.5-.8,1.8,1.8,0,0,0-1.2.1,4.7,4.7,0,0,0-1.3,1.2l-.7.8a7.9,7.9,0,0,1-1.9,1.5,4,4,0,0,1-2.5.5,34.1,34.1,0,0,1-4.2-1l-3.6-.9a19.3,19.3,0,0,0-6.1-.2,10,10,0,0,0-5.1,2.3l-1.3,1.3a14.9,14.9,0,0,1-1.8,1.7,3.2,3.2,0,0,1-1.6.7,2.5,2.5,0,0,1-1.6-.3c-1.1-.7-1.2-1.6-1.4-2.9h0a14.5,14.5,0,0,0-3.7-8.4Zm-11.2,31.6c-2.8-1.6-5.7-3-8.7-4.5l-1.6-.8a4.7,4.7,0,0,1-2-1.7,3.7,3.7,0,0,1-.5-2.4,5.8,5.8,0,0,1,.6-2,6.7,6.7,0,0,1,1.4-1.8,6.3,6.3,0,0,1,2.8-1.5,7.3,7.3,0,0,1,3.3-.1,23.5,23.5,0,0,1,4.1,1.2,13.8,13.8,0,0,1,3.6,2.1l.2.2c1.5,1.2,3.1,2.5,3.1,4.7a13.2,13.2,0,0,1-.4,3.3,6.6,6.6,0,0,1-1.2,2.6,3.5,3.5,0,0,1-2.2,1.2,4.2,4.2,0,0,1-2.4-.5Z" transform="translate(-14.9 -138.4)" fill="#fff" fill-rule="evenodd"/><path d="M445,569.7c-4.1-4.3-8.3-9-11.8-13.2a7.9,7.9,0,0,1-1.7-3.4,7.2,7.2,0,0,1,.2-3.7l.3-.9c.5-1.5.9-2.8-.1-3.8a4.3,4.3,0,0,0-2.6-1.2,5.5,5.5,0,0,0-3.2.6,50.8,50.8,0,0,0-12.3,9.7c-4.6,4.8-7.9,9.7-8.6,12.1v.3a4,4,0,0,0,.2,2.6,2.2,2.2,0,0,0,1.3,1.2h.1a8,8,0,0,0,2.2.2l2.4-.3a7.9,7.9,0,0,1,3,.1,6.1,6.1,0,0,1,2.5,1.2,121.4,121.4,0,0,1,12,11.4c3.8,4.1,7.4,8.4,11.1,12.6a14.2,14.2,0,0,1,2.7,4.4,7.3,7.3,0,0,1,.2,4.5,6.2,6.2,0,0,0-.2,2.8,1.8,1.8,0,0,0,.9,1.3,5.8,5.8,0,0,0,3,.5,6.1,6.1,0,0,0,2.9-1,80.1,80.1,0,0,0,10.7-8.6,52.4,52.4,0,0,0,7.6-9.1,9.6,9.6,0,0,0,1.4-3.1,3.4,3.4,0,0,0-.5-2.7,3.7,3.7,0,0,0-1.7-1.5,2.9,2.9,0,0,0-2,0,14.4,14.4,0,0,1-3.8.9,4.3,4.3,0,0,1-3.3-1.2C455,580,450.1,575.2,445,569.7Z" transform="translate(-14.9 -138.4)" fill="#fff" fill-rule="evenodd"/><path d="M377.9,609.1c-1.7,1-4,0-6.2-1h-.3l-19.5-8.4-9.7-4.2h-.1a8.4,8.4,0,0,0-3.6-1.2,9.7,9.7,0,0,0-4.1.6L331,596a43.8,43.8,0,0,0-8.2,3.5,9.3,9.3,0,0,0-3,2.8,5.3,5.3,0,0,0-.9,3.1,2.4,2.4,0,0,0,1,1.5,3.2,3.2,0,0,0,1.9.8h.1c2,0,4.5.1,6.1,2.2,5.4,7.3,8.1,17,10.7,26.3.6,2.2,1.2,4.4,1.9,6.7a13,13,0,0,1,.6,5.2,5.8,5.8,0,0,1-1.8,3.7,6.1,6.1,0,0,0-1.5,1.7,2.9,2.9,0,0,0-.3,2,4,4,0,0,0,1.4,2.4,4.9,4.9,0,0,0,2.9,1,28.7,28.7,0,0,0,10.5-1.4,23.5,23.5,0,0,0,8.6-4.9,6.3,6.3,0,0,0,1.3-1.5,4,4,0,0,0,.5-2.2,3.8,3.8,0,0,0-.6-2.2,2.1,2.1,0,0,0-1.6-.7,8.4,8.4,0,0,1-3.9-1.1,6.8,6.8,0,0,1-2.6-2.8c-.7-1.3-1.3-2.7-1.9-4.1s-1.1-2.8-1.6-4.2a26.6,26.6,0,0,1-.9-3.3,11.5,11.5,0,0,1-.2-3.4v-.3a2.7,2.7,0,0,1,1.5-1.9,4.5,4.5,0,0,1,2.5-.3h.6a31.3,31.3,0,0,1,6.4,2.4l.9.4,10.5,4.6,21,9.3a12.8,12.8,0,0,0,3.3,1.1,4.2,4.2,0,0,0,3-.6,3.4,3.4,0,0,0,1.4-2.2,12.3,12.3,0,0,0,0-4.4c-.6-3.8-4.7-16.1-8.5-27.4l-3.2-9.6a24.1,24.1,0,0,1-1.2-7c0-1.9.4-3.5,1.5-4.3a7.4,7.4,0,0,0,2.4-2.3,3.9,3.9,0,0,0,.2-2.6,3.5,3.5,0,0,0-1.5-2.4,6.3,6.3,0,0,0-3.5-.9,25.6,25.6,0,0,0-8.1,1.5,87.5,87.5,0,0,0-9.1,3.7,5.1,5.1,0,0,0-2.3,1.9,4.5,4.5,0,0,0-.6,2.8,3.9,3.9,0,0,0,.7,2.2,2.7,2.7,0,0,0,1.8.9,12.4,12.4,0,0,1,3.7.9,6.5,6.5,0,0,1,2.8,2.7,24.2,24.2,0,0,1,1.9,4.1,40.3,40.3,0,0,1,1.3,4.4v.5C379.6,606.1,380.1,607.8,377.9,609.1Z" transform="translate(-14.9 -138.4)" fill="#fff" fill-rule="evenodd"/><path d="M266.4,637.2c.5-2.9,1.2-5.7,1.9-8.6a13.5,13.5,0,0,1,2.4-4.8,29.4,29.4,0,0,1,4-4.3h.1l4.6-3.3,9.1-6.6a9.2,9.2,0,0,1,2.4-1.2,6.9,6.9,0,0,1,2.5-.3h4.7a2.3,2.3,0,0,0,1.6-.7,3.2,3.2,0,0,0,.9-2.1h0a3.8,3.8,0,0,0-.9-2.8,7.6,7.6,0,0,0-2.8-1.8,42.7,42.7,0,0,0-9.3-2.9,41.9,41.9,0,0,0-9.7-.6,4.7,4.7,0,0,0-3,1.1,3.9,3.9,0,0,0-1.2,2.7,5.7,5.7,0,0,0,1.1,3l.3.6a2.6,2.6,0,0,1,.3,2,6,6,0,0,1-1.3,2.3,12,12,0,0,1-2.2,2,12.4,12.4,0,0,1-2.7,1.5,4,4,0,0,1-2.6.2,4.1,4.1,0,0,1-2.2-1.8l-.3-.4a10,10,0,0,1-2.3-6.2,4.4,4.4,0,0,1,.6-2.3,6.6,6.6,0,0,1,2-2,3.8,3.8,0,0,0,1.2-1.1,2.2,2.2,0,0,0,.3-1.4,3.4,3.4,0,0,0-.9-2,8.2,8.2,0,0,0-2.6-1.8,56.8,56.8,0,0,0-10.1-3.3,106,106,0,0,0-14.1-2.3h-.5c-2.6-.1-5.3-.3-7.3.4a2.5,2.5,0,0,0-1.5,1.2,5.2,5.2,0,0,0-.6,2.2,2.1,2.1,0,0,0,.2,1.1,2,2,0,0,0,.9.8,11.4,11.4,0,0,1,2,1.5l.7.6a24.9,24.9,0,0,1,2.8,2.6,14.5,14.5,0,0,1,2.1,2.9l4.1,7.7,3.8,7.1a12.9,12.9,0,0,1,1.5,4.6,13.3,13.3,0,0,1-.2,4.2l-.5,2.8c-1,5.1-1.9,10.1-4.2,14.3-1.2,2.2-3.2,2.2-5.3,2.3h-.5a2.3,2.3,0,0,0-1.7.8,3.5,3.5,0,0,0,.2,4.7,10,10,0,0,0,3.5,2.3,74,74,0,0,0,16.7,5.3,32.7,32.7,0,0,0,13.2-.1,4.1,4.1,0,0,0,2.1-1.2,3.3,3.3,0,0,0,.9-2,3,3,0,0,0-.9-2.1,14.4,14.4,0,0,0-2.2-1.9,5.5,5.5,0,0,1-1.6-1.7,4.3,4.3,0,0,1-.5-2.6C265.4,642.9,265.9,640.1,266.4,637.2Z" transform="translate(-14.9 -138.4)" fill="#fff" fill-rule="evenodd"/><path d="M183.5,590.7a24.1,24.1,0,0,0,2.8-3.6,43.8,43.8,0,0,0,2.7-4.9,5.6,5.6,0,0,0,.5-2.8,3.4,3.4,0,0,0-.8-2.1,3.2,3.2,0,0,0-1.5-.9,1.8,1.8,0,0,0-1.3.2l-1.6,1-1.4,1.2a10.2,10.2,0,0,1-3.1,2.2,3.3,3.3,0,0,1-3.6-.7l-1.8-1.4-1.1-.8a4.1,4.1,0,0,1-1.7-2.5,3.5,3.5,0,0,1,1.1-2.7l4.7-5.6,2.3-2.8h0a5.2,5.2,0,0,1,3.3-1.6,5.9,5.9,0,0,1,3.7,1.2,44.7,44.7,0,0,1,8.9,8,11.2,11.2,0,0,1,2.3,4.2,9.3,9.3,0,0,1,.1,4.6,12.6,12.6,0,0,0-.4,2.4,2.8,2.8,0,0,0,.5,1.8,5.3,5.3,0,0,0,1.6,1.5,3.3,3.3,0,0,0,1.7.4,4.9,4.9,0,0,0,2-.5,5.1,5.1,0,0,0,1.6-1.4,29.4,29.4,0,0,0,3.4-5.1,16.1,16.1,0,0,0,1.7-5.4,5.1,5.1,0,0,0-.4-2.9,3.4,3.4,0,0,0-1.8-1.6l-.4-.2a17.8,17.8,0,0,1-3.9-2c-7.5-5.6-14.5-11.5-21.5-17.4l-9.9-8.3h0a14.9,14.9,0,0,0-2.3-1.7,5,5,0,0,0-2.1-.7,3.9,3.9,0,0,0-1.9.3,4.2,4.2,0,0,0-1.5,1.2,3,3,0,0,0-.7,1.4,1.8,1.8,0,0,0,.4,1.3,8.2,8.2,0,0,1,1.6,3.6,5.3,5.3,0,0,1-.6,3.4,71.6,71.6,0,0,1-6.9,9.9l-2.1,2.7a157.4,157.4,0,0,1-11.3,12.7l-4.3,4.6a8.9,8.9,0,0,1-3.3,2.4,6.3,6.3,0,0,1-4.4,0,5.1,5.1,0,0,0-2.2-.3,2.3,2.3,0,0,0-1.5.8,3.3,3.3,0,0,0-.8,2,2.2,2.2,0,0,0,.5,1.7c6.5,5.9,13.5,11.6,20.4,17.3l11.7,9.8h0l2.3,2.3c1.6,1.6,3.2,3.1,4.6,4.7l.7.6,1,.5a2.9,2.9,0,0,0,1.4.1,7.6,7.6,0,0,0,2.1-.6,64,64,0,0,0,7.3-3.6,20,20,0,0,0,5.7-4.9,5,5,0,0,0,.8-3.1,3.3,3.3,0,0,0-1.1-2.4,3.6,3.6,0,0,0-1.8-.8,3.3,3.3,0,0,0-1.9.3l-1.4.6a16.7,16.7,0,0,1-5.1,1.8,17.9,17.9,0,0,1-4.2,0,12.2,12.2,0,0,1-3.6-.9,29.9,29.9,0,0,1-5.8-3.5c-1.7-1.3-3.4-2.8-5-4.3a6.3,6.3,0,0,1-2.2-3.5,5,5,0,0,1,1.2-3.9l1-1.3a66,66,0,0,1,6.2-7.6,5,5,0,0,1,2.8-1.5,4.4,4.4,0,0,1,3,.6,9.3,9.3,0,0,1,1.9,1.7,6.8,6.8,0,0,1,1.2,2.1,5.5,5.5,0,0,1,.2,2.6,5.6,5.6,0,0,1-1,2.4l-.9,1.4a8,8,0,0,0-.7,1.4,3.4,3.4,0,0,0-.3,1.1,1.2,1.2,0,0,0,.3.8,3.2,3.2,0,0,0,1.3,1.1,3.3,3.3,0,0,0,1.7.2l1.8-.5,2-1.2a33.3,33.3,0,0,0,3.3-2.8Z" transform="translate(-14.9 -138.4)" fill="#fff" fill-rule="evenodd"/><path d="M103.8,498.2a5.5,5.5,0,0,1,1.9-.4,2.5,2.5,0,0,1,2.1,1.1,5.5,5.5,0,0,1,1,2.5,12.4,12.4,0,0,1,0,2.8c-.3,3.2-2.8,5-5.3,6.7l-.7.5-5.3,4a57.2,57.2,0,0,0-4.8,4.3,10.8,10.8,0,0,0-2.8,5.6,14.7,14.7,0,0,0,.3,7,39.1,39.1,0,0,0,3.7,8.2,17.5,17.5,0,0,0,4.3,5.2,8,8,0,0,0,1.8,1,4,4,0,0,0,1.9.2,3.9,3.9,0,0,0,1.7-.5,1.8,1.8,0,0,0,.7-1,4.7,4.7,0,0,0,.1-1.8c0-.3-.1-.6-.1-1a7.9,7.9,0,0,1,.2-2.4A4,4,0,0,1,106,538a33.9,33.9,0,0,1,3.6-2.3l3.1-2a19.3,19.3,0,0,0,4.4-4.2,10,10,0,0,0,2-5.3,16.7,16.7,0,0,0,0-1.9,14.9,14.9,0,0,1,0-2.4,3.2,3.2,0,0,1,.6-1.6,2.5,2.5,0,0,1,1.4-.9c1.3-.3,2,.2,3,1h.1a14.5,14.5,0,0,0,8.6,3.3,15.1,15.1,0,0,0,8.9-2.9,13.7,13.7,0,0,0,5.5-8.2,23.9,23.9,0,0,0-.5-12.2,89.7,89.7,0,0,0-5-12.3c-1.5-3.2-3-6.5-4.2-9.7-.5-1.3-.8-2.5-1.2-3.8s-.8-2.8-1.3-4.1a25.7,25.7,0,0,0-2.8-5.5,9.9,9.9,0,0,0-3.1-3,3.3,3.3,0,0,0-1.9-.5,4.4,4.4,0,0,0-2,.8,1.3,1.3,0,0,0-.5.8,5.5,5.5,0,0,0-.1,1.5,7.1,7.1,0,0,1-1,3.8,7.1,7.1,0,0,1-2.9,2.6l-1.1.6-2.1,1.1c-5.9,2.6-12,5.1-18.2,7.5L90.1,482l-2.7.9a13.4,13.4,0,0,1-2.9.3c-2.4,0-3.9-1.3-5.6-2.7l-.3-.2a2,2,0,0,0-1.8-.3,4.7,4.7,0,0,0-2.3,1.6,5.9,5.9,0,0,0-.9,3.4,15.6,15.6,0,0,0,.6,5.1,92.2,92.2,0,0,0,3.9,10.3,53,53,0,0,0,5.4,9.4,5.5,5.5,0,0,0,1.4,1.4,2.3,2.3,0,0,0,1.3.3l1.6-.3a3,3,0,0,0,1.2-.8,2.9,2.9,0,0,0,.7-1,3.2,3.2,0,0,0,.1-1.2,5.3,5.3,0,0,1,.6-2.8,5.5,5.5,0,0,1,2-2.1,51,51,0,0,1,5.6-2.8l5.8-2.2Zm12.2-5.1a4.2,4.2,0,0,1,2.1-1.4h0c3.1-.9,6.2-2,9.3-3.1l1.7-.6a4.7,4.7,0,0,1,2.6-.2,3.7,3.7,0,0,1,2.1,1.3,5.8,5.8,0,0,1,1,1.9,6.7,6.7,0,0,1,.3,2.2,6.3,6.3,0,0,1-.9,3.1,7.3,7.3,0,0,1-2.3,2.4,23.5,23.5,0,0,1-3.7,2.1,13.8,13.8,0,0,1-4,1.1H124c-1.9.2-4,.4-5.5-1.1a13.2,13.2,0,0,1-2.1-2.6,6.5,6.5,0,0,1-1.1-2.7A3.5,3.5,0,0,1,116,493.1Z" transform="translate(-14.9 -138.4)" fill="#fff" fill-rule="evenodd"/></svg>