<svg xmlns="http://www.w3.org/2000/svg" viewBox="0 0 771.3 515.4"><title>einherji</title><path d="M775.1,229.9h0c-.2-2.1-.4-4.3-2-5.2s-2.6-.1-4.1,1.2l-.9.7c-13.2,9.8-25.1,15.4-37.5,17.5l-1.5.3c-11,1.9-22.3,3.9-33.4-.9a3,3,0,0,0-2.3.3,10.8,10.8,0,0,0-5.1,6.2v.2h-.2l-10.5,6.1c-17.1,10.3-34,6.6-48.5,2.4-5-1.5-8.7-1.8-12.8.6a81.3,81.3,0,0,1-14,6.4c-10.3,3.6-18.5,4.5-26.5,2.9a278.7,278.7,0,0,1-29.6-8c-3.6-1.1-6.4-2-8.4,2.2a7.7,7.7,0,0,1-3.2,2.9l-1.2.8c-11.5,8.1-24.7,10.7-41.6,8.2l-1.9-.3c-4.6-.8-9.3-1.6-12.1,4-5.6,11.4-13.2,19.5-23.2,25a4.4,4.4,0,0,0-2.5,2.8,4.8,4.8,0,0,0,1.3,3.8c4.3,5.3,7.5,11.4,10.5,17.3h.1c6,11.5,7.1,24,3.1,37a10,10,0,0,1-5.4,6.2,6,6,0,0,1-5.1,0c-3-1.6-6-3.3-9.1-5.2l-4.2-2.5-.6-.3.5-.5,1.7-1.5a22.7,22.7,0,0,0,2.7-2.5c4.5-5.3,9.6-11.3,8.5-19-1.6-11.4-7.7-21.1-19.1-30.7l-1.4-1.4-3.3-3.4h-.1c-.9-2.9-2.4-4.6-4.7-5.2-7.8-2-13.3-7.3-18.6-12.4l-2.1-2a9.5,9.5,0,0,0-2.4-1.4c-1.9-.9-4-1.9-3.6-4.7A15.6,15.6,0,0,1,403,272l1.4-2.4.4-.5h.1l3.9-2.4c8.3-5.1,16.9-10.4,27.5-10.5l3.5-.3c3.6-.5,7.2-.9,9.7,2.1,4.8,5.9,10.3,6.7,17.8,2.7s11.2-8.6,10.2-14.7c-.4-2.3-.1-3.8.8-4.5s2.6-.7,4.8.3c9.3,4,19.6,3.5,28.7,3.1,1.9-.1,12-1,14.9-3.1h.3c2.5.2,5,.4,6.5-.7a38.7,38.7,0,0,0,11.8-13.5c.4-.8,1.2-2.3.8-3s-.6-.5-1.3-.6a70.7,70.7,0,0,0-11.1.2h-1.8c-2.1.1-2.5,1.7-2.9,3.6l-.2.8c-.1.5-.7.8-1.2,1.1h-.2c-5.7,2.9-12,3.7-21.1,2.8h-1.3l1.1-.8,6-4.5a104.2,104.2,0,0,1,12.2-8.4c4.2-2.3,8.2-6.7,7.1-12.2-.1-.4-.3-1.4-.7-1.6a.9.9,0,0,0-.8.1c-4.6,2-9.3,4.3-13.4,6.3-1,.5-.8.9-.5,2a2.9,2.9,0,0,1,.2,2.1,4.5,4.5,0,0,1-1.4,1.7c-4.4,3.4-9.3,7.2-15.8,8.4a71.3,71.3,0,0,1-14.7.8c-3-.1-6.2-.1-9.3.1-6.6.4-21.8,7.3-29.9,11l-2.2,1c-13.6,6.1-27.8,16.6-36.3,22.8-5.5,4.1-7.4,5.4-8.2,5.4-2.8,0-4.8-.9-6-2.6-2.9-4-.6-11.4.2-13.8l.2-.7c1.8-11.1,8-14.9,12.1-17.5,1.7-1.1,3.1-1.9,3.4-2.9s12.4-5.8,22.3-9.2c7.4-2.5,21.8-7.2,23.4-6.9s4.6,3.7,4.4,6.6v2.6c-.1,1.3-.1,2.2.6,2.5s1.6-.4,2.5-1.8c2.5-4,6.2-6.5,11.8-8.1a10.9,10.9,0,0,0,6.9-7.4c.9-3,.5-6-1-7.9s-2.1-5.1-.5-7.8,2.6-6-.4-9-5.3-2.6-9.7-1a17.8,17.8,0,0,0-3,1.6c-3.7,2.2-6.3,5.7-8.8,9l-.7.9-.8,1.2c-1,1.5-2,3-3.1,3h-.1c-2.5,0-4.7,1-7.1,2.2s-7.9,3.6-12.6.7a3.5,3.5,0,0,0-2.4.5c-6.7,3.2-13.7,6.5-20.6,10l-1.2.8c-1.2.9-2.6,1.9-4.9.3s-2.6-4.3-1.8-6.9,1.7-7.3-2.4-9c-6-2.5-9.4-6.4-11.1-12.8a2.7,2.7,0,0,0-1.9-2.2c-1-.2-2.2.4-3.1,1.7a7.6,7.6,0,0,0-1,7.1c3,7.6-1.9,10.4-6.6,13.2l-.6.3a20.7,20.7,0,0,1-7,2.8c-.9.1-1.4.4-1.6.7s0,.9.4,1.6l.7.9c.6.7,1.4,1.4,1.2,2.3a2.6,2.6,0,0,1-1.4,1.8l-1,.8c-1.1.9-2.3,1.9-4.1,1.6h-3.5c-2.2-.2-2.8.3-2.9.6s-.2,1.1,1.2,2.9,1.2,1.9,2.1,3.4l.5.9a5.9,5.9,0,0,1-5,9.4,43.8,43.8,0,0,1-4.5,0c-1.1,0-1.9.1-2.1.5s0,1.1.6,2l1.2,1.9a37.6,37.6,0,0,0,4.4,6.2c2.5,2.6,1.1,4.1-.5,5.8s-3.4,1.4-5.3.7-4.8-3-6.8-5-3.8-3.9-6.3-4.6c-10-2.8-17.4-9.1-25.3-16.4-6-5.6-8.2-13-10.3-20.2l-1.5-4.7c-.5-1.5.3-3,2-3.9a2.1,2.1,0,0,1,1.6-.3,2.6,2.6,0,0,1,1.3,1.5,3.4,3.4,0,0,0,.5.8l1,1.2.9,1.1c1.2,1.2,2.2,1.7,3,1.5s1.4-1.4,1.6-2.3c2-7,5.4-13.5,8.7-19.7l2.8-5.5c2-4.1,3.7-7.5,4.5-11.3.3-1.5.5-2.8-.7-3.7s-1.5-.3-2.3.6l-.7.7a89.3,89.3,0,0,1-20,12.2,112.7,112.7,0,0,1-12.1,4.4c-1.2.4-2.3,1-2.3,1.4s.2.4.9.8c2.5,1.2,4,2.6,4.5,4.3s-.6,4.8-2.1,7.4a36.2,36.2,0,0,0,8.5,46.3c2,1.6,4,3.4,5.8,5.2,3.7,3.5,7.5,7,12.3,9.3a9.5,9.5,0,0,1,2.8,2.4l.6.7a119.2,119.2,0,0,0,21.8,18.4c3,2,4.7,4.2,5.1,6.5s-.5,4.6-2.6,7.1a2,2,0,0,0,0,.6h1.5c3.2-.2,5-.2,5.7.9s.3,2.7-.8,5.7a38.4,38.4,0,0,1-8.7,13.1c3.3.4,5,1,5.9,2.2s1,3.3.5,6.4-2.4,5.5-4.2,7.7l-2,2.6c5.6.2,6.1.8,7.9,5.8,2.4,7-2.8,17.2-10.6,20.6s-13.6,4.6-20.5,6.2c-9.2,2.2-18.7,4.5-27,9.7a7.1,7.1,0,0,1-2.4.8h-.6a14.1,14.1,0,0,1-12.8-3.2,11.8,11.8,0,0,1-3.8-10.6A90.7,90.7,0,0,1,286,320.4a20.2,20.2,0,0,1,3.1-3.5c2-1.9,3.9-3.8,3.3-5.8s-3.1-4-5.6-5.8-2.2-1.6-3.1-2.4c-9.4-8.3-13.9-17.6-13.7-28.5a2.6,2.6,0,0,0-.5-1.9,2.5,2.5,0,0,0-1.9-.4l-5.1.2-9.4.3h-1c-11,0-22.4,0-30-10.7a2.1,2.1,0,0,0-1.4-1.1c-.8-.1-1.7.6-2.4,1.2-3.3,3-6.3,4.6-9.7,5.4-19.3,4.3-38.1,1.5-56.1-8.2-3.2-1.7-5.3-1.7-8.6,0-23.5,12.6-42.6,9.6-63.8-10.1-3.6-3.3-6.3-5.6-11.1-6.3a105.5,105.5,0,0,1-57.7-28.2l-.9-1c-1.3-1.5-2.3-2.5-3.6-1.7s-1.8,3.4-2,5.5v.3c-.6,7.3.8,14.6,4.4,22.8s10.1,16.5,16,23.8c2.5,3,5,6.2,7.3,9.4,6.6,9,10,18.1,10.3,27.8.2,4.8,1.8,7.4,5.6,8.7a28.3,28.3,0,0,1,8.6,5.2A75.8,75.8,0,0,1,80,346c3.6,9.1,8.3,14.3,15.8,17.3,2.6,1.1,6.9,3.7,7.2,9.3a24.9,24.9,0,0,0,3.1,2.7l-.6.8c-12.1-8.2-24.3-16.9-36-25.3l-18.2-13c-3.3-2.3-6.4-4.9-9.7-7.7l-4.4-3.7v6.4q0,21.2,0,42.4c0,42.5.1,86.4-.2,129.6v.3h-.2a12.6,12.6,0,0,0-6.3,9.2c-1.1,6-3.4,11.7-5.6,17.1-.8,2-1.7,4.1-2.4,6.2h-.1c-1.2,3.2-2.3,6.2-2.4,9.7-.5,19.6,12.1,31.9,24.4,43.8L47,594a9.9,9.9,0,0,0,3.8,1.9l1.8.6a317.7,317.7,0,0,0,48.5,14.7c15.5,3.5,32.1,6.9,49.4,6.1l9.4-.6c4.6-.4,9.3-.7,14-.7,2.2,0,4.3.1,6.5.3,9.4.8,23.5,1.8,32.2,1.9h.2a432.1,432.1,0,0,0,47.1,14c17.1,4,35.6,7.2,59.9,10.6a467.7,467.7,0,0,0,49.6,3.9c13.5.4,27.2-.8,39.1-1.9,14.9-1.4,32.5-3.3,50.3-6.2,27.1-4.5,54.4-12,83.6-23.1,14.1-5.3,24.6-9.8,34.2-14.5l4.6-2.2c16.5-8.1,33.6-16.5,49.5-26.2,18.5-11.2,36.3-24,52.9-36.2,11.5-8.5,22.6-17.9,33.3-27l6.1-5.2a9.8,9.8,0,0,0,2.9-6.6c.2-55.8.1-112.6.1-167.4v-6.5a25.6,25.6,0,0,0-.3-3.2l-.2-1.7-2.2,1.7-4.5,3.4-11.1,9.2c-7.8,6.5-15.8,13.2-24.2,19.1l-4.8,3.3-3.1,2.1,2-2.6c.8-1,3.1-9,4.7-14.8s2.4-8.3,2.7-8.7A62.7,62.7,0,0,1,711.3,314c1.2-.4,2.5-1.3,2.6-2,1.1-5.8,4.2-10.7,7.2-15.4l.7-1a66.9,66.9,0,0,0,9.3-8.9c1.9-2.1,3.8-4.2,6-6.1l4.6-4.2c10-9.2,20.4-18.7,28.3-30.1C774,240.4,775.6,235.3,775.1,229.9Z" transform="translate(-4.3 -132.5)" fill="#d55800"/><polygon points="459.6 320.8 460.7 311.7 468.2 308.5 472.6 302.3 474 290 479.6 298.7 484.5 315.7 459.6 320.8" fill="#fff"/><polygon points="250.8 312.6 252.7 309.5 261.9 308.1 269.5 305.6 274.7 307.4 282.4 313.5 286.7 321.5 250.8 312.6" fill="#fff"/><polygon points="103.2 435.9 100.2 437.3 87 432.8 66.6 428.6 68.4 413.3 103.2 435.9" fill="#fff"/><polygon points="395.3 173 394.3 185.7 399.4 219.7 404.9 220.8 414.2 219.3 419.7 210.3 420.3 203.6 407.4 181.3 395.3 173" fill="#fff"/><path d="M760.9,138.6c-7.5-3-15.2-4.9-22.7,0-2.5,1.6-4.3,1.2-6.7-.4-9.3-6-19.1-8.5-29.1-1.6-2.3,1.6-4,.5-5.9-.4-6.6-3.3-13.3-3.7-20-.4-2.4,1.2-4.7.7-7.2.3-8.1-1.3-16-1.4-21.5,6.3-1.4,2-3,2.2-5.5,1.8-9.3-1.3-18.9-1.9-26.6,4.4-5.1,4.2-10.6,5.2-16.4,4.9s-11.4,2.7-14.4,8.3c-1.4,2.5-3.4,4.3-6,4.7a17.2,17.2,0,0,0-7.3,2.7c-3.4,2.2-7,2.3-10.8,2.8s-10.8-.4-15.2,3.4c-6.9.8-18.1,2.4-24.1,5.5a66.9,66.9,0,0,1-13.4,4.9,81.5,81.5,0,0,0-9.8,3.3c-1.4.6-3.6,1.2-3.4,3.2s2.4,2.6,4.1,3.2a12.4,12.4,0,0,0,3.9.2l14,.2c5,.1,9.9.1,14.7-1.7s8.2-1,12.3-.2a100.4,100.4,0,0,0,13.8,1.7c5.5.3,10.5-2.8,15.7-2.1,9.8,1.2,19.7.8,29.4,3.8s21.1,3.4,29.9-4.8c2-1.9,3.5-1.3,5.6-.1,9.8,5.5,19.5,5.9,28.9-.9,1.3-1,2.3-1.7,3.8-.3,3.1,2.9,7,2.5,10.8,2.2,1.3-.1,4.8.5,11.7-5,2.9-2.3,3.8-2.6,6.3-1.2a14,14,0,0,0,2.8.9c12.6,3.8,28.8-1.8,33.5-12.7,2-4.5,4.9-6.6,8.8-8.5s6.2-3.5,6.9-7.3c1.3-6.5,3.2-12.3,9.9-15.5C764.7,142.8,764.3,139.9,760.9,138.6Z" transform="translate(-4.3 -132.5)" fill="#19130f"/><path d="M615.5,197.4a47.6,47.6,0,0,1-26.8-8.3h-.1a1.8,1.8,0,0,0-.8-.4l-.5.3c0,.4.3.7.8,1.1a2.6,2.6,0,0,1,1.1,2.6v.4h-3.6l-1.9-.2a31.8,31.8,0,0,0-9.4-1.4,40.4,40.4,0,0,0-12.2,2,15.5,15.5,0,0,1-4.7.7,44,44,0,0,1-6.2-.6h-.2l-5.3-1a48.3,48.3,0,0,0-9.5-1.3,18.5,18.5,0,0,0-6.1,1,40.1,40.1,0,0,1-13.3,2c-3.4,0-6.7-.3-10.2-.5l-8.1-.5h-.9l.5-.8a7.7,7.7,0,0,1,5.4-3.2h.5a107.8,107.8,0,0,0,15-5c6.5-2.5,13.3-5.1,20.5-5.9l4.3-1.4,5.3-1.7,7.6-1.2c6.2-.9,12.7-1.9,18.8-4.6s10-4.7,13.1-9.8A8.8,8.8,0,0,1,596,155h1.8l4.3-.2,4.4-.2a15.8,15.8,0,0,1,8.8,2.2h.2c-1.4-.9-2.1-1.9-2.2-2.9s1.5-2.7,3-3.9l2.1-1.3a38.7,38.7,0,0,1,16.8-3.9,45.5,45.5,0,0,1,16.1,3.2l1.1.6a3,3,0,0,0,1.5.6l.7-.2h0a2.3,2.3,0,0,0-.4-.6,6.5,6.5,0,0,0-1.8-1c-1.4-.6-3.1-1.3-2.7-3.5s4.2-4.7,5.7-5.2a29.6,29.6,0,0,1,9.5-1.7,24.8,24.8,0,0,1,15.8,5.8l.2.2a19.3,19.3,0,0,0,4.7,3.1,30.9,30.9,0,0,0-3.5-3.2,28.3,28.3,0,0,1-5.2-5.1l-.4-.6.7-.2a27.8,27.8,0,0,1,8.7-1.4c8.5,0,15.7,4.3,21.5,8.7a1.5,1.5,0,0,0-.7-1.8l-.2-.2c-1.9-1.8-2.6-3-2.4-4s1.3-1.9,3.7-2.7a25.1,25.1,0,0,1,8-1.4,22.5,22.5,0,0,1,13.8,4.7,9.5,9.5,0,0,0,5.7,2.3,11,11,0,0,0,5.4-1.7,17.4,17.4,0,0,1,8.7-2.3c3.8,0,7.8,1.2,12.3,3.6l.5.3-.3.5a11.7,11.7,0,0,1-4.4,3.4l-1.7,1a9.6,9.6,0,0,0-2.8,3.4,20.3,20.3,0,0,1-1.3,2,1.8,1.8,0,0,1-1.4.8,2.6,2.6,0,0,1-1.6-.9l-.8-.6a6.2,6.2,0,0,1-2-1.4,4.4,4.4,0,0,0-3-1.5h-.4l.6.4,2.5,1.7c3.1,2.3,4.6,5.2,4.5,8.2s-2,5.7-5.2,7.6a35.3,35.3,0,0,1-8.8,3.3l-2,.6-1.4.2c-1.2.1-2.1.2-2.5,1.1,2.8.4,4.3.8,4.7,1.8s-.1,2.1-1.1,3.7c-4.6,7.1-13.3,11.6-22.3,11.6a21.1,21.1,0,0,1-16.8-7.6l-.4-.5a5.7,5.7,0,0,0-3.5-2.5c3.7,4.2,3.5,8.4-.7,12.8-1.6,2.4-4.1,2.7-6.5,3.1h-1.6l-2.1-.3-1.1-.3c-3.9-1.1-7.9-2.2-10.2-6.7-.1-.2-.4-.6-.7-.6s-.8.4-1.2,1.3a14.9,14.9,0,0,1-13.7,8.6,18.3,18.3,0,0,1-4-.4,30.1,30.1,0,0,1-13.1-6.3l-.4-.4c-.4-.4-.9-.9-1.3-.9s-.9.7-1.2,1.3c-2.7,5.5-7.7,8.4-15.1,8.7Zm-17.6-15.2h-.3c-.6.1-.7.5-.6,1.7v.3c.1,3.8,3.9,6.9,8.6,7.1-5.8-3.2-6-3.6-7.1-7.5a4.7,4.7,0,0,1-.1-.8C598.2,182.2,598.1,182.2,597.9,182.2Zm42.9,2.8h1.6c8.5,0,17.9-7.9,18-15a13.4,13.4,0,0,0-1-4.7c-.5-1.3-1-2-1.6-2h-.5c-.3.1-.3.3-.3.3s.3,1,.6,1.5l.3.5c2,3.6,1.5,7.4-1.5,11.2s-6.7,5.8-12.2,7l-1.1.2A4,4,0,0,0,640.8,185Zm-81.9-4a39.6,39.6,0,0,1,8.5,1.2,38.9,38.9,0,0,0,8.3,1.2h0l3-.3a7.9,7.9,0,0,0-4.1-.9,8.1,8.1,0,0,1-4.9-1.3l-.4-.3.3-.4a4.8,4.8,0,0,1,2.6-1.7,4.4,4.4,0,0,0,1.8-1h-.3c-3.8,0-11.9,1.7-16.7,3.4Zm52.9-4.8s-.2,0-.4.3-.2.7.7,1.5l.2.2c3.7,3.4,8.6,4.3,11.8,4.9h.9a13,13,0,0,0,8.2-2.7l.4-.2c.5-.3,1.1-.7,1.2-1.1a.7.7,0,0,0-.2-.6.6.6,0,0,0-.5-.3,3.3,3.3,0,0,0-1.4.6l-.5.3a18.5,18.5,0,0,1-8.6,2.5c-3.5,0-6.7-1.4-10.3-4.5l-.2-.2C612.5,176.6,612.1,176.2,611.8,176.2Zm59.2-1.5a1.8,1.8,0,0,0-1.1.5.8.8,0,0,0-.2.9c1.6.5,2.6,2.2,3.5,3.6s1.7,2.9,3.1,2.9h0l1.3-.3h.2l2.7-.2,5.3-.4s.3-.1.8-.8l-.3-.4h-1.3c-5.3,0-9.6-2.7-13.5-5.6ZM598.2,162a2,2,0,0,0-1.1.4,7.1,7.1,0,0,0-2.2,6.7,9.5,9.5,0,0,0,3.8,6.2c-3-4.1-2.7-5.1-.3-11.9.4-1.1.3-1.2-.1-1.4Zm130-14.1-.5.2c-.2.1-.5.4-.5.6s.5.8.9,1.2l.2.2c2.6,2.6,2.1,5.7,1.4,8.4a17,17,0,0,1-2.3,5.1h-.1c-2.6,1.3-7.3,5.2-10.4,7.9,3.2-.3,4.7-1.3,7.4-4.9l1-1.1,1-1a12.3,12.3,0,0,0,5.2-8.6,8.3,8.3,0,0,0-1.8-6.6l-.4-.5C729,148.4,728.6,147.9,728.2,147.9ZM607.8,164.7c.6,2.6,2.4,4.4,5.6,5.6a15.2,15.2,0,0,0,5.3,1,10.3,10.3,0,0,0,6.6-2.3,28.1,28.1,0,0,1-7.3,1.2A11.5,11.5,0,0,1,607.8,164.7Zm67.7.8a.8.8,0,0,0-.6.3c-.3.2-.3.4.2,1s5.2,3.3,9.3,3.3a16.5,16.5,0,0,0,9.6-2.7,23,23,0,0,1-7,1.1,23.4,23.4,0,0,1-10.4-2.5h-.1A2.6,2.6,0,0,0,675.5,165.5Zm-22.7-8.4c-4.3.4-7.7,4.4-7.8,9.5v.5c0,.6-.1,1.4.2,1.7a1,1,0,0,0,.8.2.9.9,0,0,0,.7-.2c.3-.3.2-.9.2-1.5s0-.4,0-.5C646.8,161.9,648.7,158.8,652.8,157.1Zm29.8-3.9c5,0,9.6,2,13.7,5.9l.6.6c.4.5.9,1,1.3,1a.9.9,0,0,0,.6-.4,1.2,1.2,0,0,0,.4-.9c-.1-.7-.9-1.5-1.6-2.1-4.5-3.7-9.1-5.5-14-5.5l-3.5.3h-.3c-1.7.3-3.2.5-4.1,2.3A22.8,22.8,0,0,1,682.6,153.2Zm35.7-.7a28.6,28.6,0,0,0-2.5,7l-.2.6C718.1,157.6,718.9,155.4,718.3,152.5Z" transform="translate(-4.3 -132.5)" fill="#d55800"/><path d="M715.9,134.7a22.1,22.1,0,0,1,13.5,4.6,10,10,0,0,0,6,2.4,11.5,11.5,0,0,0,5.6-1.8,16.8,16.8,0,0,1,8.4-2.3c4,0,8,1.4,12,3.6-1.7,2.3-4,3-5.9,4.2s-2.8,3.6-4.2,5.5a1.3,1.3,0,0,1-1,.6c-.8,0-1.5-1.2-2.3-1.5s-2.7-3-5.2-3a5,5,0,0,0-1.7.3c1.7,1.1,3,1.8,4.1,2.6,6,4.5,5.7,11.2-.7,15-3.3,2-7.1,2.8-10.7,3.9-1.5.4-3.8-.2-4.5,2.2,5.4.7,6.1,1.4,3.8,4.8-4.6,7.1-13.3,11.4-21.8,11.4A20.6,20.6,0,0,1,695,180c-1.1-1.4-2.1-3.3-5.7-3.4,5.1,4.9,4.1,9.1.2,13.2-1.6,2.4-4.1,2.6-6.6,3h-1.1l-2-.3c-4.3-1.2-8.6-2-11-6.8-.3-.6-.7-.9-1.1-.9s-1.2.6-1.7,1.6a14.3,14.3,0,0,1-13.3,8.4,17.8,17.8,0,0,1-3.9-.4,29.8,29.8,0,0,1-12.9-6.1c-.6-.5-1.3-1.4-2.1-1.4s-1.1.4-1.7,1.6c-2.9,6-8.3,8.1-14.7,8.4h-2.2a46.8,46.8,0,0,1-26.5-8.2,2.4,2.4,0,0,0-1.2-.6,1.2,1.2,0,0,0-1,.6c-.1,1.5,2.3,1.9,1.8,3.8l-3.2.2a5.9,5.9,0,0,1-1.8-.2,32,32,0,0,0-9.6-1.4,41.1,41.1,0,0,0-12.4,2.1,15.1,15.1,0,0,1-4.6.6,45,45,0,0,1-6.3-.6c-4.9-.7-9.9-2.3-14.9-2.3a19,19,0,0,0-6.2,1,39.9,39.9,0,0,1-13.1,1.9c-6,0-12-.8-18.4-1,1.8-2.5,3.9-2.7,5.7-3.1,12.1-2.7,22.9-9.5,35.4-10.8.8-.1,8.2-2.8,9.6-3.1,8.9-1.7,17.9-2,26.5-5.8,5.6-2.5,10.1-4.8,13.3-10a8.4,8.4,0,0,1,7-4.4h1.8c2.9,0,5.8-.4,8.7-.4a15.1,15.1,0,0,1,8.7,2.3h0l1.1-.7c-4.6-2.7-2.2-4.6.3-6.4l2-1.2a37.9,37.9,0,0,1,16.6-3.8,44.8,44.8,0,0,1,16,3.1c.9.4,1.7,1.3,2.8,1.3a2.2,2.2,0,0,0,1.3-.5,5,5,0,0,0-.7-1.2c-1.5-1.4-4.9-1.4-4.3-4s3-4,5.4-4.8a29,29,0,0,1,9.3-1.6,24.2,24.2,0,0,1,15.5,5.7c2.1,1.6,4,3.3,6.6,3.8-2.5-3.6-6.6-5.4-9.6-9.6a27.1,27.1,0,0,1,8.5-1.4c8.2,0,15.1,4,21.8,9,.9-2-.1-2.6-.8-3.2-3.3-3-3.1-4.4,1.2-5.9a24.5,24.5,0,0,1,7.8-1.3m-.4,37.4c4.5-.1,6.1-1.1,9.2-5.1l1-1,1-1c5.8-4,7-12,3.5-15.9-.6-.6-1.1-1.6-2-1.6l-.8.3c-1.5,1-.2,2,.5,2.8,2.3,2.3,2,5.2,1.3,7.9a17,17,0,0,1-2.2,4.8c-3,1.5-8.6,6.3-11.5,8.9m-.8-10.4c3.7-3.3,5-6,3.8-10.5-2.2,3.4-2.6,6.4-3.8,10.5m-40.1-6.5a22.9,22.9,0,0,1,8-1.6c4.9,0,9.4,1.9,13.4,5.8.6.6,1.3,1.8,2.2,1.8a1.4,1.4,0,0,0,1-.6c1.3-1.4-.2-2.8-1.3-3.8-4.3-3.5-9-5.6-14.4-5.6a21.7,21.7,0,0,0-3.6.3c-2.1.4-4.3.6-5.2,3.7M646,169.5h.1c1.6-.1,1.3-1.6,1.3-2.7,0-4.8,1.7-8.4,8.1-10l-1.9-.2c-5.1,0-8.9,4.6-9,10,0,1.2-.4,3,1.5,3m-45.4,7.4c-4.3-5.6-4.3-5.6-1.6-13.3.3-.9.6-1.7-.4-2h-.3a2.5,2.5,0,0,0-1.4.5c-4.5,3.7-2.7,12.2,3.7,14.8m18.2-5a11.4,11.4,0,0,0,8.5-3.9,32.8,32.8,0,0,1-9.2,1.8c-4.2,0-8-1.7-10.9-7.2,0,4.9,2.8,7,6.2,8.3a15.9,15.9,0,0,0,5.4,1.1m23.7,13.7c8.5,0,18.4-8,18.5-15.5a14.1,14.1,0,0,0-1-4.8c-.4-1-1-2.3-2-2.3l-.7.2c-1.4.7-.2,2,.4,3,2.1,3.9,1,7.5-1.5,10.6s-7.2,5.8-11.9,6.8c-1.4.3-3.1-.1-4.4,1.8l2.6.3m42-15c4.6,0,9.4-1.5,11.6-4.5a23.2,23.2,0,0,1-9,1.9,22.8,22.8,0,0,1-10.1-2.5,3.3,3.3,0,0,0-1.4-.5,1.3,1.3,0,0,0-.9.4c-.6.6-.3,1.1.1,1.7,1.8,2.3,5.7,3.4,9.7,3.4m-8,12.6a3.8,3.8,0,0,0,1.5-.3c3.5-.2,5.8-.3,8.1-.6.5-.1,1-.7,1.3-1.3s-.5-1-.8-1h-1.3c-5.1,0-9.2-2.5-13.2-5.5a1.4,1.4,0,0,0-.9-.3,2.3,2.3,0,0,0-1.4.6c-.6.5-.5,1.6-.1,1.7,3.2,1,3.6,6.6,6.8,6.6m-51.3.5a13.4,13.4,0,0,0,8.4-2.8c.8-.6,2.4-1.4,1.4-2.7a1.1,1.1,0,0,0-.9-.5,5.5,5.5,0,0,0-2.1,1,18,18,0,0,1-8.4,2.5c-3.4,0-6.6-1.4-10-4.4-.5-.5-1.1-1-1.7-1a1.1,1.1,0,0,0-.8.4c-.9,1,.3,1.8,1,2.4,3.7,3.4,8.4,4.4,12.1,5.1h1m-71.9-1.1a15.4,15.4,0,0,1,5.8-1.1c5.6,0,11.1,2.5,16.7,2.5a16.1,16.1,0,0,0,4.1-.5c-2.9-2.8-6.8-.6-9.8-2.8,1.2-1.8,3.9-1.3,4.8-3.4h-1.1c-4.9,0-18.5,3.1-20.5,5.4m52.8,9.3h1.4c-7.2-4-7.2-4-8.4-8.1-.2-.8,0-1.9-1-1.9h-.5c-1.2.3-1,1.5-1,2.5.1,4.2,4.3,7.6,9.5,7.6m109.9-58.1a25.6,25.6,0,0,0-8.1,1.4c-1.8.6-3.7,1.4-4,3s1,3.1,2.5,4.5l.3.2.3.3c-5.7-4.2-12.6-8.1-20.8-8.1a28.3,28.3,0,0,0-8.8,1.5l-1.3.4.8,1.1a21.9,21.9,0,0,0,2.9,3.2,24.9,24.9,0,0,0-14.6-4.8,30.1,30.1,0,0,0-9.7,1.7c-1.6.5-5.4,2.2-6.1,5.6s.9,3,2.2,3.7a46,46,0,0,0-16.2-3.2,39.2,39.2,0,0,0-17,3.9l-2.2,1.3h0c-1.6,1.2-3.3,2.5-3.2,4.3a2.9,2.9,0,0,0,.4,1.4,17.8,17.8,0,0,0-6.7-1.1l-4.4.2-4.3.2H596a9.3,9.3,0,0,0-7.9,4.9c-3,5-7.4,7.2-12.8,9.6s-12.5,3.6-18.7,4.5l-7.6,1.2-5.3,1.7-4.3,1.4c-7.3.8-14,3.4-20.6,5.9a107.5,107.5,0,0,1-14.9,4.9h-.5a8.1,8.1,0,0,0-5.7,3.4l-1.1,1.5h1.9l8.1.5c3.5.3,6.9.5,10.3.5a40.6,40.6,0,0,0,13.4-2,18,18,0,0,1,5.9-.9,47.9,47.9,0,0,1,9.4,1.3l5.3,1h.2a44.4,44.4,0,0,0,6.2.6,16,16,0,0,0,4.9-.7,39.9,39.9,0,0,1,12.1-2,30.8,30.8,0,0,1,9.3,1.4,6.8,6.8,0,0,0,2.1.3h4l.2-.8a3.1,3.1,0,0,0-1.2-3.1l-.4-.4h.3a48.1,48.1,0,0,0,27,8.4h2.3c7.7-.3,12.8-3.3,15.5-9,.4-.8.7-1,.8-1s.7.5,1,.7l.5.4a30.6,30.6,0,0,0,13.3,6.4,18.8,18.8,0,0,0,4.1.5,15.4,15.4,0,0,0,14.2-8.9,2.4,2.4,0,0,1,.8-1l.2.3c2.4,4.7,6.5,5.9,10.5,7l1.1.3a8.1,8.1,0,0,0,2.2.3h1.6c2.4-.3,5.1-.7,6.8-3.3,3.8-4,4.4-8,1.9-11.9a7.3,7.3,0,0,1,1.5,1.6l.4.5a21.6,21.6,0,0,0,17.1,7.8c9.1,0,18-4.7,22.7-11.9.9-1.4,1.7-2.9,1.2-4.1s-1.8-1.6-4.2-2a4.7,4.7,0,0,1,1.6-.3l1.5-.2,2-.6a35.7,35.7,0,0,0,8.9-3.4c3.3-2,5.3-4.8,5.4-8a9.3,9.3,0,0,0-2.5-6.7l.4.3a3.1,3.1,0,0,0,2,1,2.2,2.2,0,0,0,1.8-1,20.6,20.6,0,0,0,1.3-2,9.2,9.2,0,0,1,2.6-3.2l1.6-.9a12.2,12.2,0,0,0,4.5-3.5l.7-.9-1-.5c-4.6-2.5-8.7-3.7-12.5-3.7a17.9,17.9,0,0,0-8.9,2.4,10.6,10.6,0,0,1-5.1,1.7,9.1,9.1,0,0,1-5.4-2.2,23,23,0,0,0-14.1-4.8Zm-62,15a3.2,3.2,0,0,1-1.1-.6l-.6-.4h.2a6.5,6.5,0,0,1,1.6.9Zm73.9.1.3-.2h.2c.2,0,.6.5.8.8l.4.5a7.8,7.8,0,0,1,1.7,6.2,11.4,11.4,0,0,1-1.5,4.5l.6-1.7c.8-2.8,1.2-6.1-1.5-8.9l-.3-.2-.7-.8ZM677,153.4a6.9,6.9,0,0,1,2.7-.8h.3l3.5-.3c4.8,0,9.3,1.8,13.7,5.4.4.3,1.4,1.2,1.4,1.8s0,.2-.2.5l-.3.2c-.2,0-.6-.6-.9-.8l-.6-.6c-4.2-4-9-6-14.1-6a22.3,22.3,0,0,0-5.6.8Zm39.7,4.7a28.3,28.3,0,0,1,1.3-3.8,6.5,6.5,0,0,1-1.3,3.8ZM646,168.5h-.4c-.1-.2-.1-.9-.1-1.3s0-.4,0-.6a9.7,9.7,0,0,1,2.9-6.9,11,11,0,0,0-2,7.1c0,.2,0,.4,0,.6a3.1,3.1,0,0,1-.1,1.1H646Zm-49.8,2.9a9,9,0,0,1-.7-2.4,6.6,6.6,0,0,1,2-6.2l.8-.3a4.9,4.9,0,0,1-.2.7c-1.5,4.2-2.2,6.3-1.8,8.2Zm61.4-7.4h.4c.1,0,.5.1,1.1,1.7a13.4,13.4,0,0,1,.9,4.5,10.6,10.6,0,0,1-1.9,5.5,9.5,9.5,0,0,0,.3-10l-.3-.6a4.5,4.5,0,0,1-.5-1Zm17.7,2.1h.2l.8.3h.1A23.9,23.9,0,0,0,687,169l2.9-.2a19.2,19.2,0,0,1-5.5.8c-4,0-7.4-1.2-8.9-3.1l-.2-.3Zm43.3,4.6c1.6-1.4,3.5-3,5.3-4.3-2,2.6-3.3,3.8-5.3,4.3Zm-100.5,0a21.8,21.8,0,0,0,3.8-.4,9.8,9.8,0,0,1-3.1.5l-2.1-.2Zm52.2,5h.1a1.3,1.3,0,0,1,.7-.4h.3c3.9,3,8.3,5.7,13.8,5.7h.9l-.2.2-5.3.4-2.7.2h-.3l-1.1.3c-1,0-1.7-1-2.7-2.6s-1.8-3.1-3.5-3.8Zm-58.5,1.1h.1l.7.6.2.2c3.7,3.1,7.1,4.6,10.6,4.6a19,19,0,0,0,8.9-2.6l.6-.3a3.4,3.4,0,0,1,1.1-.5h.1v.2c0,.2-.7.6-.9.8l-.4.3a12.3,12.3,0,0,1-7.9,2.6h-.9c-3.4-.6-7.9-1.5-11.5-4.8l-.3-.2a3.3,3.3,0,0,1-.7-.7Zm-51.3,3.7a72.9,72.9,0,0,1,11.3-2.3,4.8,4.8,0,0,0-2.5,1.8l-.5.8.8.6a8.7,8.7,0,0,0,5.2,1.4l2,.2h-.8a38,38,0,0,1-8.2-1.2,47.8,47.8,0,0,0-7.2-1.2Zm42.6,9.8c-3.2-.9-5.4-3.3-5.5-6.1v-.3c-.1-1.1,0-1.1.2-1.1h.1v.4a5.1,5.1,0,0,0,.2.8c1,3.5,1.4,4.3,5,6.4Z" transform="translate(-4.3 -132.5)" fill="#19130f"/><path d="M102.5,372.8h0Z" transform="translate(-4.3 -132.5)" fill="#19130f"/><path d="M202,615.4c2.4.2,7.2,1.7,9,3.1-9.1,0-21.6-1-30.7-1.8s-19.9.7-29.8,1.1c-16.9.7-33.2-2.5-49.5-6.2a318.8,318.8,0,0,1-48.6-14.8c-2-.8-4.4-1.2-5.8-2.6-13.4-13.1-27.8-25.5-27.2-46.8.1-3.6,1.3-6.8,2.5-10,2.9-7.7,6.6-15,8-23.2,1.1-6.2,5.1-9.9,11.1-11.4,1.2,6.6.2,13.2.5,19.8-2.4-5.2.4-10.9-1.6-16.4a10.4,10.4,0,0,0-7.4,7.7c-2.1,7.7-4.9,15.1-7.7,22.6-1,2.7-2.2,5.4-2.3,9,2.5-1.7,4.7-2.9,6.6-4.4,6.8-5.6,14.6-7.4,23.3-6.4a26.7,26.7,0,0,0,3.5,0c3.1.4,4.9,2.7,6.7,4.9-12.6-4.7-24.4-4.3-34.7,5.4a21,21,0,0,1-3.8,3.2c-2.5,1.4-2.7,3.2-2.2,5.9,3.1,14.9,13.3,25.4,22.9,36.1,2.3,2.6,6,4.1,9.3,5.5,17.3,7.3,35.5,11.5,53.7,16,12.3,3,24.8,4.2,37.3,5.3,7.2.7,14.2-1.3,21.2-2.1,10.2-1.1,20.1,1.7,30.2,1.9C198.2,616.7,200.8,617.7,202,615.4Z" transform="translate(-4.3 -132.5)" fill="#19130f"/><path d="M423.3,337.2c-.6-6.4-5.8-9.9-7.8-15.2-2.7-7.1-7.9-11.6-14.4-15-3,14.4,2.6,27.9,3.3,41.9a2.9,2.9,0,0,0,2.2,3C414.3,354.1,424,345.3,423.3,337.2Z" transform="translate(-4.3 -132.5)" fill="none"/><path d="M775,226.6a4.1,4.1,0,0,0-1.8-2.6c-2.2-1.4-4,.8-5.6,2-11.3,8.3-22.9,14.5-36.8,16.8-11.5,2-23.7,4.9-35.2,0-2-.9-5.1,1.4-6.9,4.2a15,15,0,0,1-5.2,4.9c-3.2,1.8-6.3,3.3-6.6,3.5-16.1,9.7-31.6,7.4-48,2.7-4.6-1.3-8.7-2-13.2.6a73.7,73.7,0,0,1-9.9,4.9c-9.8,3.8-19.7,6.4-30.3,4.3a275.4,275.4,0,0,1-29.5-7.9c-3.5-1.1-6.9-2.2-9,2.5-.7,1.5-2.7,2.4-4.2,3.4-12.5,8.8-26.4,10.3-41.2,8.1-5-.7-11.1-2.8-14.5,4-5.2,10.6-12.6,19.1-23,24.8-3.5,1.9-3.6,4.6-1.3,7.4,4.3,5.4,7.4,11.4,10.6,17.4,6.1,11.7,6.9,24,3.1,36.6-1.4,4.7-6.4,7.7-9.9,5.9s-8.5-4.9-13.3-7.7a49.8,49.8,0,0,0,4.5-4.1c4.8-5.6,9.8-11.6,8.6-19.4-1.8-12.9-9.5-22.8-19.3-31-.4-.3-2.9-3-4.7-4.8s-2.3-4.8-5-5.5c-8.6-2.3-14.4-8.5-20.5-14.3-2-1.9-6.4-2.1-5.9-5.7s2.1-4.7,3.4-7c10-7.1,21.5-14,32-14.1,4.4-.1,9.7-2.2,12.8,1.6,5.6,6.9,11.8,6.4,18.5,2.8s11.6-8.2,10.5-15.2c-.7-4.2.9-5.4,5-3.6,9.3,4,19.1,3.6,28.9,3.1,1.8-.1,12.1-1,15.2-3.2,2.7.3,5.3.4,6.9-.8A39.4,39.4,0,0,0,546,227.7c.7-1.4,2-4.1-.9-4.3a84.5,84.5,0,0,0-13,.3c-2.8.2-3,2.6-3.6,4.7-.1.4-.7.6-1.2.8-6.1,3.1-12.5,3.6-20.8,2.7,6.8-4.9,12.1-9.5,18.2-12.9s8.4-7.4,7.3-12.7c-.3-1.3-.7-2.6-2.2-1.9-4.5,2-9,4.1-13.4,6.3-2.3,1.1,0,2.9-.6,4.3a4,4,0,0,1-1.3,1.5c-4.7,3.6-9.4,7.2-15.6,8.3-8,1.5-16,.3-23.9.9s-14.6,1.3-20.3,6.6c-1.8,1.6-4,1.6-6,2s-3.5-2.5-5.2-4-.5-1.9.3-2.5c3.1-2.6,4.4-6.2,5.6-9.8.7-2.2,2.5-4,4.8-3.5a5,5,0,0,1,3.8,5.2q0,1-.1,2c0,1.3-.4,3.1.9,3.7s2.4-.9,3.1-2c2.7-4.3,6.6-6.5,11.5-7.9,6.6-1.9,10.1-11.4,6.1-16.1-2.2-2.7-2.1-4.5-.4-7.2s2.5-6.7-.4-9.6-6.6-2.5-10.2-1.1a18.5,18.5,0,0,0-3.1,1.6c-4.1,2.5-6.8,6.3-9.6,10-1.1,1.4-2.4,3.9-3.6,3.9-6.7-.1-12.2,7.5-19.6,3-.6-.4-2,.1-2.9.5-6.9,3.3-13.8,6.5-20.6,10-1.8.9-2.9,3-5.6,1.1s-2.5-3.7-1.7-6.3,1.1-8-2.7-9.6c-5.9-2.5-9.2-6.4-10.8-12.4-.9-3.3-3.8-3.4-5.9-.7a8,8,0,0,0-1.1,7.6c3,7.5-2.1,10-7,12.9a20,20,0,0,1-6.9,2.8c-1.9.3-2.7,1.1-1.5,3.1s3.4,2.6.7,4.3-2.6,2.6-4.8,2.3-2.3,0-3.5-.1c-4.1-.3-4.4,1.4-2.2,4.3.5.7,2.2,3.7,2.6,4.3,2.4,4.1.2,8.3-4.6,8.6H350c-2.7-.1-3.4,1-2,3.3s3.4,5.8,5.6,8.2,1.1,3.4-.5,5.1-2.9,1.3-4.8.6c-5.4-1.9-7.9-8.1-13.1-9.6-10.2-2.8-17.7-9.4-25.1-16.3s-8.8-16-11.7-24.7a2.8,2.8,0,0,1,1.7-3.3c1.9-1,2,1.1,2.8,1.9s1.2,1.6,1.9,2.3c2.3,2.2,4.4,2.5,5.4-1.1,2.6-9,7.4-16.9,11.5-25.2a47.2,47.2,0,0,0,4.5-11.5c.3-1.4.6-3-.9-4.1s-2.7.6-3.7,1.3A88.9,88.9,0,0,1,302,171.8a112.7,112.7,0,0,1-12.1,4.4c-1.2.3-4.4,1.7-1.5,3.1,6.2,3,4.8,6.4,2.2,11a36.7,36.7,0,0,0,8.6,47c6.1,4.8,11,11.1,18.2,14.6a12.7,12.7,0,0,1,3.3,3,119.1,119.1,0,0,0,21.9,18.5c5.5,3.6,6.5,7.9,2.4,12.9-.2.3-.1.9-.2,1.5h2.1c6.1-.4,6.6.2,4.4,5.9a39,39,0,0,1-9.3,13.7c7.2.7,7.9,2.1,6.9,8.1s-4.3,7.1-6.6,10.8c6.2.2,6.5.4,8.3,5.5,2.4,6.9-3.1,16.8-10.4,20-15.4,6.8-33,6.8-47.5,16a9.2,9.2,0,0,1-2.8.9c-8.9,2.1-17.2-4.7-16-13.2a89.7,89.7,0,0,1,12.5-34.7c2.2-3.5,7.5-6.2,6.5-9.8s-5.7-5.7-8.8-8.4c-8.5-7.5-13.8-16.5-13.5-28.1,0-2.6-1.2-3.1-3.7-2.8a81.1,81.1,0,0,1-9.6.4c-12.6-.3-26,1.6-34.5-10.5-1.5-2.1-3.1-1.2-4.5.1a21.1,21.1,0,0,1-9.4,5.3c-19.6,4.4-38.2,1.4-55.7-8.2-3.4-1.9-5.7-1.8-9,0-24.5,13.2-43.6,8.2-63.2-10.1-3.5-3.2-6.4-5.7-11.3-6.4A104.7,104.7,0,0,1,12,213.9c-1.4-1.3-2.9-4.1-5.2-2.8s-2.1,3.9-2.3,6.3c-.7,8.1,1.2,15.7,4.4,23.1,5.6,12.7,15.4,22.4,23.4,33.3,6,8.2,9.8,17.2,10.2,27.5.1,4.3,1.4,7.6,5.9,9.2a27.4,27.4,0,0,1,8.5,5.1,75.7,75.7,0,0,1,22.7,30.5c3.3,8.4,7.8,14.2,16.1,17.6,3.6,1.5,6.7,4.4,6.9,9,.4.5,3.8,3.9,5.8,4.1-2.3-7.9-6.9-14.1-14.5-17.3-5.5-2.3-8.2-6.1-10.6-11.4-7.7-17-17.4-32.7-35.3-41.1-2.1-1-2.5-2.4-2.5-4.4,0-6.8-2-13-4.6-19.2-3.7-8.9-10.4-15.8-16.4-23C16.2,250.5,9.6,240,7,227.2c-.9-4.4-1.2-8.7.8-13a5.3,5.3,0,0,1,1.2.4l5.1,4.1c13.1,10.4,26.8,19.9,43.6,23.3a60.2,60.2,0,0,1,27.6,13.3c16.9,14.1,40.7,16,60,5.4a6.6,6.6,0,0,1,6.6-.1c4.5,2.2,9,4.2,13.7,6.1,11,4.4,22.4,3.4,33.9,3.2,6.9-.1,13.2-1.3,19-5,1.5-.9,2.6-1.5,3.8.2,3.6,5,9,6.4,14.6,7.8,7.9,1.9,15.8,1.3,23.7.8,4.3-.3,7.5.3,7.5,4.8a14.2,14.2,0,0,0,.5,3.7v.5c2.6,10.1,8.5,18,16.5,24.3,3.7,2.9,4.1,5.2,1.3,9.2a94.6,94.6,0,0,0-15.4,37.5,14.1,14.1,0,0,0,3.7,12.8c5.1,5.5,12,6.4,19.7,2.6,6.1-3,12-7,18.9-7.4s10.4-1.9,15.3-3.9c3-1.2,6-2.4,9.1-3.3,4.8-1.5,9.7-2.9,14,1.1,1.8,1.7,4.1,3.3,7.7,2.7l-5.1-3.2c-7-4.7-7.1-5.8-2.5-13,1.8-2.9,3.2-2.8,6-1.2,8.7,4.8,18,6.2,27.6,3.2a22.4,22.4,0,0,0-6.3-.3c-6.7,1-12.8-1-18.8-3.8-3.3-1.5-4.9-3.6-3.8-7.6a64.4,64.4,0,0,0,2.5-12.1c.4-3.8,1.2-4.4,3.4-2.7a23.8,23.8,0,0,0,10.5,4.3c5.4,1,10.8.8,15.6-2.5-8.9,1.8-17.4,2.4-25.3-3.3-2.5-1.8-3.4-3.6-2.7-6.3s.9-6.4,2.4-8.1,6-.1,9.1.1c1,.1,1.3,1.4,2.3,1.4,4.4-.1,8.9,2.7,13.3-.2-.2-1.2-3.9-1.5-4.6-1.5-15.7-.5-10.9-1.1-17.7-2.9a7.7,7.7,0,0,1-2.6-1.4c-3.4-2.6-3.7-7-1.1-11.7s4.5.1,6.5.7c7.7,2.5,15.3,2.3,24.2.2-2.9-1.5-4.6-.5-6.3-.3-19.5,2.1-24.9-4-26-19.6,2.8.2,4.6,2.9,7.2,3.5.6-2-.6-2.9-1.7-3.6-8.3-4.9-8.7-12-7-20.6,2.2-11.4,3.5-22.8,11.1-32.2.2-.3.5-.7.4-.9-1.7-5.5,2.9-6.1,6-8.1s4.5-3.4,6.9-4.9,2.7-2.8,2-5.4a17.5,17.5,0,0,1,1.2-13.1c.9,8.9,5,13.7,11.8,16.6,2.4,1,2.6,3.7,2,6.6s-2.8,6-1.9,10.4c1.9-2,4-3,5.6-.7s-.9,3.1-1.8,4.6-1.9,2.8-3,4.5c2.4.2,2.9-1.1,3.8-2.1,2.7-3.4,5-7.1,8.6-9.7,1.6-1.1,3.5-3.5,5.6-1.1s2.8,1,3.8-1.2c2.6-5.7,7.9-7.3,13-4.1,1.7,1.1,2.9-.3,4.1-.8,4-1.9,7.9-4,13-4.1a8.4,8.4,0,0,1-6.2,6.2c-5.1,1.5-10.3,2.6-15.4,4.1s-17.4,9.8-17.4,9.8c-8.6,3.6-15.3,10.9-23.8,14.6a6.6,6.6,0,0,0-3.6,5.1c-1.2,5.8-4.4,11-3.3,17.7.7,4.4-.9,9.3.1,14.1,1.7,7.7,1.5,7.8,9,5.6,3-.9,6,.2,5.9,2.6-.4,7.1,1.8,14.7-4.4,21.8,4.4-2.3,5.1-.1,6,2.8s.4,7.7.3,11.6c-.2,10.9,3.8,21.4,3.9,32.4,0,4.5-2.7,8.9-7.3,10a19.1,19.1,0,0,0-2.4.4c-.5.2-1.2.8-1.2,1.3s1,1.2,1.8,1.1c2.6-.3,4.5-2,6.7-3.2,8.4-4.7,17.1-6.4,26.6-3.3,7.6,2.5,12.6,9.3,20.3,11.7,2.4.8,4.4,3,6.7,4.2,7.5,3.9,14,1.4,16.5-6.7a46.5,46.5,0,0,0,1.3-23.6,76.3,76.3,0,0,0-14.2-31c-1.2-1.6-3.5-3.5-.3-5.2,11-5.5,17.2-15.4,23.4-25.3,1.4-2.2,3.4-4,6.2-3.4s5.3.5,7.9.9c17,2.3,32.2-1.9,45.2-13.1a6.9,6.9,0,0,1,6.6-1.4,163.9,163.9,0,0,0,15.9,4.4c8.1,1.7,16.1,4.3,24.6,3.8,11.7-.7,22.4-4.6,32.4-10.4,1.6-.9,3.3-1.9,5.2-1.2a98.3,98.3,0,0,0,28.7,5.2c10.5.5,32-7.5,38.8-16.4,1.9-1.4,4-2.6,7-1.8,6.2,1.6,12.5,1.5,19.1,1.1,18.8-1.3,35.3-8,50.6-18.5,1.2-.8,2.1-2.8,3.6-2s2,2.9,2.1,4.8c.2,6.2-2.6,11.3-6.1,16-10.2,13.6-22.5,25.1-35.4,36.2-4.1,3.5-18.3,15.1-18.2,20.8,0,2.9.4,7-3.6,8.5s-12.7,7-14.9,7.9c-9.7,3.9-19.6,26.8-19,35.4,0,.6,1.3-1.2,1.4-.7s3-13.4,11.2-24.4c6.3-8.5,18.1-14.8,22.5-16.4,1.2-.4,3.3-1.5,3.5-2.5a39,39,0,0,1,4.5-11.1,22.5,22.5,0,0,1,5.2-6.2c5.6-4.5,8.4-8.9,13.3-13.5,11.7-10.8,23.2-21.4,32.4-34.7C774.4,240.6,776.9,234.3,775,226.6Zm-425,8.2,7,.5-.5,8.5Zm-55.6-6a27.5,27.5,0,0,1-4.2-11.1c-.7-4.4,3-6.6,6.6-9.3-3.9-1.3-5.5,1.9-8,2.8-2.7-7.7.4-14,3.9-20.3l.6-.8c3.1-4,6.3-8-1.6-11.8a153.4,153.4,0,0,0,30.9-16c.6,3.7-8.7,25.1-15,35.1-1.6-.8-2.1-2.4-3-3.8,1-1.3,2.6.9,3.4-.6s-.8-2.4-1.7-3.1-3.4-5.6-7.3-3.1-3.5,6.3-3.1,10.2c.7,6,1.9,11.7,4.6,17.1a20.5,20.5,0,0,0,1.2,2.7c3.1,4.3,3.5,7.8-1,11.9C297.8,231.7,296.6,232,294.5,228.8ZM315.2,246c-.1.3-.7.5-1.3.9l-2.4-1.8c-2.6-2.3-4.9-5-7.8-6.9-4.4-2.9-2.9-5.6-.5-8.6s5.5-4.2,8.8-.8c.8.8,1.7,1.6,2.5,2.4s5.3,3.6,4.8,6S315.8,242.7,315.2,246Zm30.1,25.8c-5.8-2.1-9.5-6.8-13.2-11.2s1-6,2.7-8.7,3.1-1.4,3.5-4c-4.2.5-6,3.3-7.7,6.1-2.8,4.5-3.5,4.6-6.8.2-1.1-1.5-2-3.2-3.7-4-3.2-1.6-3.2-3.9-1.7-6.6s3.1-5.9,7.1-4.8,9.3,2.6,12.5,6.7c1.8,2.3,4.2,3.7,6.5,5.4s5.8,2.3,2.6,6.2c-.8,1,.4,1.7,1.2,2.3a8.1,8.1,0,0,1,1.4,11.8C348.3,272.9,347,272.4,345.3,271.8Zm14.7,6.6c.9,3,0,5.6-.9,8.3s-2.3,5.1-1.4,7.7c3.8,11.5-.8,22.1-2.9,33-.3,1.8-.4,3.6-.8,6.6-2.7-9-4.2-6.7-7-9.2-1.2-1.1,2.3-3.5,2.7-4.7,1.7-4.9,3.9-7.7-.4-12.5-1.9-2-3.7-2,.9-6.1,1.5-1.4,4.8-10,5.4-12.1s-2.6-3.1-6-3.7a1.4,1.4,0,0,1-1.1-1.7c.4-2.6,1.5-8.1,2.1-9.2,2.7-4.8,6.7-11.2,1.3-16.9-1.9-2,1.1-4.1,3.6-6.7C354.7,261.4,357.5,269.9,360,278.4Zm2-55-4.8-6.1a49.8,49.8,0,0,1,7.8-.2ZM472,228.7c8.8-.4,17.6.6,26.4-.9,7-1.2,12.5-5.2,18.1-9,.8-.5,1.7-1.6,1.6-2.4-.5-5.7,4.2-5.8,7.6-7.4,1-.5,2.4-.9,3.2.1s0,2.2-.2,3.3-1.3,3.5-2.9,3.8c-5,1.2-8.2,5-12,7.9s-9.6,6.5-15.8,6.8a3.7,3.7,0,0,0-3.3,2.1c6.1,2.2,12.4,2.3,18.5,2.3a42.4,42.4,0,0,0,14.1-2.8c2.2-.8,4.8-1,5.2-4.5s9-3.7,10.3-2.2,0,1.8-.6,2.6c-3.9,5.1-7.2,11.1-15,11.2a7.8,7.8,0,0,0-4.9,1.6c-4.3.5-9.7,1.4-11,1.5-13.5,1.4-26-2-38.1-7.6-3.9-1.9-8.1-2.8-13-3.8A29,29,0,0,1,472,228.7Zm-83.1,46.9c-3.5,1.7-5.4,1.8-5.5-3s.4-10.7.1-15.5,2.2-9.9,2.7-14.9c.4-3.4,2.6-4.6,5.1-6,7.3-4.3,15.1-8.8,21.5-14.3,10.1-7.2,21.6-10.6,33.5-12.9a5.8,5.8,0,0,0,4.4-3.2A97.8,97.8,0,0,1,464,187.5a12.1,12.1,0,0,1,4.8-3.4c3.2-1,6.6-2.5,8.6,1.8s-.9,8.4-4.4,9.9-4.7.8-6.1,3.7c2.4,1.2,4.9.3,7.2.2s4.7,1.6,4.6,4.8-3.7,8.8-8.2,9.3-7.1.5-10.4-.4-8.9-.6-13.2.9a111.3,111.3,0,0,1-17.8,4.4c-18.6,3.1-37.5,19.2-38.8,38.1-.7,10.4,2.7,12.7,12.3,9.1,5.5-2.1,9.9-6,14.2-10a92.7,92.7,0,0,1,29.1-18c8.3-3.3,17.1-4,25.6.4,1.4.7,3.6,1.7,2.8,3.6s-2.9.5-4.2,0c-5-1.8-10-3.6-15.5-2-1.2.3-3.2-.2-2.8,1.8s2,.5,2.9.3c7.3-1.2,13.6,2.6,20.2,4.6,1.8.5,1,1.7.7,2.8-1.5,5.7-11.2,12.3-17.1,11.6a5.5,5.5,0,0,1-4.2-2.3c-3.8-5.3-8.9-5.7-15-5.1-11.4,1.1-21,5.5-30.4,11.7a47.4,47.4,0,0,0-7.7,6.3C397.2,273,392.8,273.7,388.9,275.6Zm35.2-30.8a4.2,4.2,0,0,1-2.6,3.4c-1.6.7-5.6-5.1-7.4-4.3s-.6,5.4-.7,6.1c-.2,2.2,1,5.3-1.8,6.1s-5.3-5.8-6.6-5.5-3.1,7.3-3,9.6-1.9,4-4.5,4.6-3.3-1.7-4-3.5-1.7-6.4.6-9.7c1.2-1.7,2.6-2.8,5.2-.5s1-1,1.7-2.6c1.9-3.9-.1-8.3,1.6-12.3,3.8,1.2,4.8,6,6.9,8.5,4.8-3.9,3.6-10.2,3.8-16.3,2.7,2,3.3,9.2,3.3,9.2s2.2-.7,2.6-1.8,2.1-5.2,3.1-7.9.6-3.6,2.8-4.9c1.6,2,.5,8.5,2.1,8.9a3,3,0,0,0,3.1-1.2,24,24,0,0,0,4.4-7.2c.8-2.4,2.3-4.7,4.8-3.6s1.6,3.8.4,5.7a18,18,0,0,0-3,10.2c0,3.4-2.2,4.2-5.2,2.5-1-.6-8-2.5-7.6,1.4A27.8,27.8,0,0,1,424.1,244.8Zm-17.5,107a2.9,2.9,0,0,1-2.2-3c-.8-13.9-6.4-27.4-3.3-41.9,6.4,3.4,11.6,7.9,14.4,15,2,5.3,7.2,8.9,7.8,15.2C424,345.3,414.3,354.1,406.6,351.9Zm32.2,7.6c-5.5-2.7-10.8-5.9-16.8-7.5-2.8-.8-1-2.2-.1-3.2a17,17,0,0,0-.7-21.9,16.3,16.3,0,0,1-3.5-4.8,30.4,30.4,0,0,0-14.4-16.5c-4.5-2.5-6.1-7.2-5.7-12.4.1-1.3.4-2.6.6-3.9,1.2-7.6,1.5-7.7,8-3.1l3.1,2.5c5.6,4.6,5.6,4.8.9,10.1a12.8,12.8,0,0,0-1.6,1.9c-.9,1.6-2.3,3.9-.4,4.8s1.7-1.9,2.5-3.1,3.2-5.7,6-5.3,9.2,1.3,11.7,5.4c1.1,1.8,2,2.6,3.8,2.5,1.8,2.8,4.2,6.6,4.8,7.9-6.8.7-13.2,1.8-16.2,8.9,1.4.7,2.3-.5,2.9-1.2,6.3-6.4,13.2-4.5,20.2-1.7a8.3,8.3,0,0,1,2.1,1.3c4.7,3.8,3.8,10.2,6.6,14.8s1.1,10.2-2,14.7c-.6,1-1.2,2-2,3.4-3.1-3.2-5.1-7.1-8.3-9.9s-5.3-3.4-8.6-3c-.7.1-1.8.7-1.9,1.3s1,1.3,2,1.5c6.2.9,9.9,5,12.5,10.4.7,1.4,2.1,2.8.1,4.3S441.3,360.7,438.8,359.5Z" transform="translate(-4.3 -132.5)" fill="#19130f"/><path d="M686.1,251.5h0Z" transform="translate(-4.3 -132.5)" fill="#19130f"/><path d="M465.5,454.2l-3.1.4c.1-1.5.2-3,.4-4.5.4-4.3-.5-8.2,6.5-9.1s6-8.2,7.3-13.3c.7-2.6-1.4-6.8,1.7-7.5s2.9,3.7,4.2,5.8c3.6,5.5,4.5,12,6.9,18,.7,1.7.7,3.7,3.2,3.8-1.4,1.5-3.2.7-4.8.9-2.7-6.1-3.6-13-7.7-19.2-2.2,5.4-2.6,11.3-8.2,13.2S464.9,448.9,465.5,454.2Z" transform="translate(-4.3 -132.5)" fill="#19130f"/><path d="M126.3,359c18.8,2.1,36.1,12.4,53.5,19.3,8.5,3.4,17,6.5,25.8,9.1,7.1,2.1,20.7,2.6,26.2,7.6C194.4,390,162,369.4,126.3,359Z" transform="translate(-4.3 -132.5)" fill="#19130f"/><path d="M397.5,222.1c1.1,3.8-1.6,3.8-5.4,3.4-7.2-.8-13.8.1-18,7.1-.6,1-1.2,3-2.8,1.6s.7-1.9,1.1-2.8c4-8.9,13.9-10.8,20.2-16.9,2-1.9,3.8,0,4.5,2S397.4,219.4,397.5,222.1Z" transform="translate(-4.3 -132.5)" fill="#19130f"/><path d="M242,399.8c-6.6,7.4-24.1,7.5-32.9,7.1-6.6-.2-13.1-1.7-19.6-1.1-4.8.4-14,5.7-18.3,3.1C194.3,400.1,218.4,408.2,242,399.8Z" transform="translate(-4.3 -132.5)" fill="#19130f"/><path d="M220.7,300.3c1.2,14.5,4.1,27.6,11.1,40.5,4,7.4,19.9,24.6,17.1,33.2C238.6,354.1,212.2,324.5,220.7,300.3Z" transform="translate(-4.3 -132.5)" fill="#19130f"/><path d="M436.7,459.6c-3.9,1.9-8.3-1-12.2,1.1a16.5,16.5,0,0,0,1.5-11c-.7-4.2-1.5-8.4-.6-12.8s-.7-11.1-2.1-16.6c-.3-1.1-1.1-2.5.6-2.8s1.4,1.2,1.7,2.1c1.9,5.8,3.6,11.4,2.3,17.9C426,446.4,429,454.2,436.7,459.6Z" transform="translate(-4.3 -132.5)" fill="#19130f"/><path d="M583.6,410.7l-1.1,1.1c-16.5-9.4-34.6-13.2-53.3-14.1-9.5-.4-18.9-.1-28.4-.1-1,0-2,.2-2.8-.6s1.4-1.2,2.1-1.2c15.1,0,30.3-.8,45.1,2.1C558.6,400.4,571.9,403.2,583.6,410.7Z" transform="translate(-4.3 -132.5)" fill="#19130f"/><path d="M441.9,412.4c-.1,5.5,1,10.6,5,14.6,1.1,1.1,1.6,3.4,3.5,2.8s1-2.6,1.1-4.1a107.8,107.8,0,0,0,1-13.2c2.5,4.2,2.2,8.8,1.4,13s-.8,7.5,1,11.2.7,10-2.1,15c-1.6-2-.2-3.2.2-4.5,2.2-6.7,1-10.7-4.5-15.3S439.3,419.7,441.9,412.4Z" transform="translate(-4.3 -132.5)" fill="#19130f"/><path d="M394.3,197.7c-1.7,3.5-4.6,4.9-7,6.3-7.7,4.6-12.4,11.7-15.5,19.4-2.2,5.4-6.3,11.1-3.7,17.9.6,1.7-1.6,2.2-2.8,3s-1.8,1.3-2.7.4.1-2.1.6-3.1a73.5,73.5,0,0,0,4.6-13.7C370.8,215.5,382.8,201.7,394.3,197.7Z" transform="translate(-4.3 -132.5)" fill="#19130f"/><path d="M488.7,301.7c9.6,8.8,7.6,54-3.5,65.6C493.8,345,496.7,323.6,488.7,301.7Z" transform="translate(-4.3 -132.5)" fill="#19130f"/><path d="M255.7,304.6c-9.2,22.5-6.8,40.3,1,63.1C244,355.8,242.6,316.7,255.7,304.6Z" transform="translate(-4.3 -132.5)" fill="#19130f"/><path d="M352.3,392.3c.3,2.6-1.6,3.5-2.7,4.8-5.3,6-6,10.4-2.7,17.6,2.1,4.7,4.7,9.2,2.7,14.7-.6,1.5-.7,3.1-3.8,4.3,5.5-8.3,1.1-14.2-2.8-20.1a5.3,5.3,0,0,1-.5-4.3,17.5,17.5,0,0,0-2.7-15.9,2.1,2.1,0,0,1,.1-3c2.1,2.3,2.2,6.6,5.2,7.2S349,393.3,352.3,392.3Z" transform="translate(-4.3 -132.5)" fill="#19130f"/><path d="M292.4,454.8l-2.2-.3c-1.8-5.2-5.5-8.8-9.6-12.3s-9.8-2.1-14.9-.6a39,39,0,0,1-6.2,1.3c-2.2.3-3.3,1.4-3,3.7-1.1,0-2.3.2-3.1-.8,1.1-3.4,2.7-5.4,7-5.4a18.7,18.7,0,0,0,9.3-2.9c5.8-3.4,9.9,1.5,14.1,4.3A20.1,20.1,0,0,1,292.4,454.8Z" transform="translate(-4.3 -132.5)" fill="#19130f"/><path d="M443.8,458.6h-2.5a132.6,132.6,0,0,0-7.7-18.7c-1.9-3.7-3.5-8.5-.2-13.5s4.5-11.4,1.8-17.5a2.6,2.6,0,0,1,.4-3.3c1.9,5.5,3.7,10.5,1.5,15.9-3.3,8.1-4.4,15.6,1.4,23.4C441.2,448.7,441.3,454.3,443.8,458.6Z" transform="translate(-4.3 -132.5)" fill="#19130f"/><path d="M329.2,443.3a2.9,2.9,0,0,1,2.8,2c1,2.7,2.9,4,5.8,3.5s3.8-2.8,4.5-5.3.3-2.3.6-3.4.9-.8,1.5-1,.9.6.9,1c.2,6.4,2.3,12.3,4.8,18.2-4.2-2.6-4.6-7.2-6.3-11.8-2.4,4.7-8.9,3.5-10.6,9.2C333.2,451.1,330.7,447.5,329.2,443.3Z" transform="translate(-4.3 -132.5)" fill="#19130f"/><path d="M297.4,414.6c0,2.3-.4,4.6.1,6.7.8,3.9.7,8.5,6.8,8.6,2.1,0,3.7,2.1,3.9,4,.5,3.9,1.9,7.7,1.1,12.1-2.7-1.7-2-4.4-2.6-6.5s-.3-3.3-.7-4.9-1.3-2.8-3.1-2.8-1.3,1.9-1.8,2.9a7,7,0,0,1-1.6,2.5C301.1,429.2,291.6,422.8,297.4,414.6Z" transform="translate(-4.3 -132.5)" fill="#19130f"/><path d="M402.5,411.7c-.7,7.2-3.7,14.1-2.7,21.6.2,1.3-.9,1.7-2,.9a3.5,3.5,0,0,1-.6-.8c-1.6-2-2.9-5.5-5.5-4.8s-1.5,4.4-2.3,6.7-.8,4.9-3.5,7.2c.5-5.9,2.6-10.9,3.2-16.1.3-2.5,2.5-1.2,3.9-.3,4.8,3.2,4.6,3.2,5.8-2.7.9-4,1.4-8.2,3.8-11.7Z" transform="translate(-4.3 -132.5)" fill="#19130f"/><path d="M318.8,403.1c1.6,3.1,1.9,6.2,4.6,8.4,3-5.1,6.3-9.7,8-16.7a9.4,9.4,0,0,1-1.4,9.4c-3.7,5.1-5.4,10.5-4.5,16.8.3,2,.5,4.3-3,5.9,2.4-6.8.7-12.2-3.2-17.1C317.9,408.2,318.3,405.9,318.8,403.1Z" transform="translate(-4.3 -132.5)" fill="#19130f"/><path d="M289.7,413c1.5,4.1,3.4,7.1.2,10.3s-6.6,5.9-3.1,11.2c-4.4-2.9-7.7-11.8-6.6-16.7,1.8,1.6.7,3.9,1.8,5.5s.4,2.9,2.1,3,2.4-1,3.3-2C290,421.2,289.3,417.5,289.7,413Z" transform="translate(-4.3 -132.5)" fill="#19130f"/><path d="M377.5,399.1c3.1,1.3,1.8,5.1,4.2,5.9s2.3-3.7,5.8-3.7c-4.3,6.3-6.9,12.7-6,20.3C380.1,414,382.4,406,377.5,399.1Z" transform="translate(-4.3 -132.5)" fill="#19130f"/><path d="M363.1,435.2c-5.6-1.3-7.3,1.6-9.1,4.6-.6-4.2,2.5-7.1,3.6-10.7s.8-7.4,1.9-11a13.3,13.3,0,0,1,.5,9.4C358.7,431.5,358.6,431.5,363.1,435.2Z" transform="translate(-4.3 -132.5)" fill="#19130f"/><path d="M467.3,438.3c-8.9-19.8-8.9-19.8-5.8-22.4-1.4,6.3,1.1,11.2,4.6,15.8C467.4,433.5,469.5,435.5,467.3,438.3Z" transform="translate(-4.3 -132.5)" fill="#19130f"/><path d="M366.6,463.7h-1.1a15.6,15.6,0,0,0-3.3-12.1c-3-3.9-1.6-6.9,2.3-9.8-3.5,5.2-.2,9,2,13.2S367.2,460.8,366.6,463.7Z" transform="translate(-4.3 -132.5)" fill="#19130f"/><path d="M361.8,385.7c4.3-1.3,8.3,3.5,13.4,2.1s8.6-2.2,13-.2C379.3,386.7,370,393.6,361.8,385.7Z" transform="translate(-4.3 -132.5)" fill="#19130f"/><path d="M606.4,341l7.4-3.6c13.4-6.2,33.8-14.1,45.5-17-7.2-.3-26.5,7-40.4,13.7h-.1l-3.9,1.9c-7.1,3.5-15.3,7.3-21.8,10.6-18,8.4-69.9,32.6-88.8,34,8.1,1.7,53.1-13.3,78.9-28.3h0L606.4,341h0Z" transform="translate(-4.3 -132.5)" fill="#19130f"/><path d="M413.6,438.2c6.1,3.1,5.6,8.6,5.9,14.9C414.5,448.6,417.9,442,413.6,438.2Z" transform="translate(-4.3 -132.5)" fill="#19130f"/><path d="M453.6,456.9c-1.6,1.5-3.6.7-5.4.7-1.5-4.3-5.1-8.1-3.2-13.9,2.3,3.6,2.2,7.6,4.3,10.7S451.6,457,453.6,456.9Z" transform="translate(-4.3 -132.5)" fill="#19130f"/><path d="M309.7,419.8c-1.1-6.2-2.9-12.6,3.4-17.4C308.6,407.6,311.2,414,309.7,419.8Z" transform="translate(-4.3 -132.5)" fill="#19130f"/><path d="M364,401.1c5.6,6.1,6,12.8,1.5,18.3C368.5,413,368,406.9,364,401.1Z" transform="translate(-4.3 -132.5)" fill="#19130f"/><path d="M369.3,362.1c5.8-.6,11.5,1.3,17.4.6C380.8,363.9,375,364.4,369.3,362.1Z" transform="translate(-4.3 -132.5)" fill="#19130f"/><path d="M414.5,462c-1.7,1.2-3.5.5-5.3.6,2.5-3.4,1.1-7.3,1.4-11.8,2.5,2,3.2,3.9,2.4,6.5S411.5,461.3,414.5,462Z" transform="translate(-4.3 -132.5)" fill="#19130f"/><path d="M403,437.2a19,19,0,0,1-2.8,15.4c-2.1,1.5-3,.9-3-1.8s.6-8.4-1-12.4c0,6.2-2.9,12.3-.3,18.8a8.2,8.2,0,0,0,5-4h0C405.7,447.6,406.9,440.4,403,437.2Z" transform="translate(-4.3 -132.5)" fill="#19130f"/><path d="M298.7,456.6c-1.1,0-2.3.4-3.2-.6-.2-3.9-2.5-7.7.2-11.7A28.2,28.2,0,0,0,298.7,456.6Z" transform="translate(-4.3 -132.5)" fill="#19130f"/><path d="M391.8,408.2c3.2,3,3.6,6.5,4.6,9.6a1.2,1.2,0,1,1-2.3.5C393.5,415.2,391.7,412.3,391.8,408.2Z" transform="translate(-4.3 -132.5)" fill="#19130f"/><path d="M374.4,414.4c-2.6-3.8-1.9-7.7-.8-11.6C375,406.6,373.8,410.6,374.4,414.4Z" transform="translate(-4.3 -132.5)" fill="#19130f"/><path d="M314,394.2c3-4.4,7.3-6.3,12.5-7.1-4.4,1.9-8,5-11.8,7.8Z" transform="translate(-4.3 -132.5)" fill="#19130f"/><path d="M425.3,401.9c.6-1.1,2.4-2,.7-4.5-4.2,5.3-5.4,11.9-9.6,17.5-2.3-7.3-4.5-14-2-21.4-2.2,4-2.2,8.3-1.9,12.5s2.2,8.2-.9,12.2l-3.1-2.7h0c-1.6-3.2-4.1-6.2-4.5-9.9-2.3,1.7-1.5,4-1.6,6,3.1,0,3.1,3.7,5.4,4.6s-1.9,5.5,2.6,4.7,5.3,1,5.1,4.8,0,4.6,0,7.4c2.7-2.7,1.4-5.7,1.8-8.3s-1.2-3.2-.3-5.3C419.9,413.6,422.1,407.5,425.3,401.9Z" transform="translate(-4.3 -132.5)" fill="#19130f"/><path d="M402.5,411.7h0Z" transform="translate(-4.3 -132.5)" fill="#19130f"/><path d="M369,250.7c1.1,1.6,3.6,2.2,3.9,4.4s-1.3,2.5-2.3,2-2.5-3.2-3.1-5.2S368,250.8,369,250.7Z" transform="translate(-4.3 -132.5)" fill="#19130f"/><path d="M379.1,454.1a13.1,13.1,0,0,1-2-11.5Z" transform="translate(-4.3 -132.5)" fill="#19130f"/><path d="M408,367.4c2.5-3.5,5.3-3.7,10.2-1C414.5,366.8,411.1,366,408,367.4Z" transform="translate(-4.3 -132.5)" fill="#19130f"/><path d="M371.2,457.4c-1.8-4-1.9-6.3-1-11.4C372.4,450,371.2,453.7,371.2,457.4Z" transform="translate(-4.3 -132.5)" fill="#19130f"/><path d="M301.4,406c-.1,4,.4,7.2,2.9,10.5C299.4,414,298.7,411.3,301.4,406Z" transform="translate(-4.3 -132.5)" fill="#19130f"/><path d="M394.7,463.7h-4.3c.7-3-3.4-4.9-1.9-9C390.4,458.4,391.5,461.8,394.7,463.7Z" transform="translate(-4.3 -132.5)" fill="#19130f"/><path d="M306.4,457.8l-2.1-.2c1.3-2.7,1.9-6,6-7.4C309.1,453.2,306.2,454.8,306.4,457.8Z" transform="translate(-4.3 -132.5)" fill="#19130f"/><path d="M383.5,455.3c2.9-3.1,4.6-6.2,1.9-9.8-.6-2.4-3.2-5-5.1-6.1s-2.8-3.5-1.2-6c2.7-4.3,6.1-8.3,7-13.6.2-1.3,1.2-3-1.3-3.7-.6,3.8-1.3,7.5-3.5,10.7-3.9,5.5-3.7,5.7-7.4.1l-.8.2c3.3,11.5,3.3,11.5,11.1,17.8h0A10.2,10.2,0,0,1,383.5,455.3Z" transform="translate(-4.3 -132.5)" fill="#19130f"/><path d="M314.7,394.9c-4,3.2-4.9,3.4-9.9,1.4,3.9-.1,6.9-.1,9.2-2.2Z" transform="translate(-4.3 -132.5)" fill="#19130f"/><path d="M230.4,385.9c-51.4-19-49.7-24.2-66.3-32.6-11.2-5.7-20.4-13.9-32.4-18.3-7.9-2.9-16.2-4.8-24.3-7.2-5.5-1.6-13.6-6.5-19.3-5.6,15.4,6.9,32,10,47.7,16.1,12.7,5,35.1,21.1,46.9,27.7,6.9,3.9,49.1,26.7,49.9,21.3A1.8,1.8,0,0,0,230.4,385.9Z" transform="translate(-4.3 -132.5)" fill="#19130f"/><path d="M413.5,437.3l-5.7-4.4C411,433.1,411,433.1,413.5,437.3Z" transform="translate(-4.3 -132.5)" fill="#19130f"/><path d="M593,289.5c-13.3,12.8-23.1,28.5-36.2,41.6s-28.7,25.8-45.5,34.3c13.6-.3,29.6-15.9,38.4-24.9C564.6,325.3,583,308.7,593,289.5Z" transform="translate(-4.3 -132.5)" fill="#19130f"/><path d="M274,428.4c-.6-2-1.5-4.4-2.1-6.4-1.6,2.9-.3,4.9,1.6,6.8h0c1.1,1.7,2.1,3.3,4.8,2.7C277.1,429.7,275.4,429.2,274,428.4Z" transform="translate(-4.3 -132.5)" fill="#19130f"/><path d="M581.5,373.7h0Z" transform="translate(-4.3 -132.5)" fill="#19130f"/><path d="M572.1,375.5c-23.1,6.6-46.7,13.7-71,10.9,24.2,5.2,47.7-3.9,71-9.6,8.2-2,55.8-9.2,55.8-10.4-8.8-2-21.6,2.5-30.3,4.1S580.2,373,572.1,375.5Z" transform="translate(-4.3 -132.5)" fill="#19130f"/><path d="M581.5,373.7h0Z" transform="translate(-4.3 -132.5)" fill="#19130f"/><path d="M676.4,284.6c-29.7,20.3-62.4,34.6-93.7,52.2-26.6,15-52.1,28.7-81,38.9,3.7,3.3,21.3-5.3,25.3-7a166.3,166.3,0,0,0,23.1-11.9c16.6-10,33.8-19,51-27.9,27.4-14.1,62.3-27.3,83.8-50.5A20.1,20.1,0,0,0,676.4,284.6Z" transform="translate(-4.3 -132.5)" fill="#19130f"/><path d="M531.7,292.4c-4,14-10.2,26.1-16.5,39.2-1.6,3.3-17.5,34.1-18.1,33.5C501.8,369.5,532.6,301.5,531.7,292.4Z" transform="translate(-4.3 -132.5)" fill="#19130f"/><path d="M329,435.8l-.3-.3-1.8,1.5h0c-1,.7-1.5,2.2-2.9,2.3s.6-4.1-2.4-4.7a36.6,36.6,0,0,0,2.1,14.5l4-11.9Z" transform="translate(-4.3 -132.5)" fill="#19130f"/><path d="M247.3,406c-12.5,2.3-23,19-31.9,26.9C218.3,436.5,234.9,412.1,247.3,406Z" transform="translate(-4.3 -132.5)" fill="#19130f"/><path d="M219.5,434.7l-1.1-.5Z" transform="translate(-4.3 -132.5)" fill="#19130f"/><path d="M237.6,370.5l-68-61s-5-4.6-5.7-5.9a31.6,31.6,0,0,0,5.1,6.6l8,8.3s63.1,57.1,66.4,57.9C242,373.2,239.7,372,237.6,370.5Z" transform="translate(-4.3 -132.5)" fill="#19130f"/><path d="M228.6,374l-12-9c-18.8-13.5-36.7-19.3-57.2-30a239.9,239.9,0,0,1-42.2-27.9c-6-4.9-12.1-9.6-18-14.5-1.9-1.6-6.8-7.3-8.6-7.3s4.5,5.3,5.3,6.1c4.9,4.9,9.8,9.4,15.1,13.8,12.3,10.1,24,19,38.2,26.6,18.7,10.1,39,16.3,56.8,28.2,7.4,4.9,15.3,9.8,22.1,15.5,2.2,1.8,7.8,9.7,9.9,9.1C237.5,382.9,228.6,374,228.6,374Z" transform="translate(-4.3 -132.5)" fill="#19130f"/><path d="M437,398.2h0l-1.1-1-1.3-1.6c-2.1-5.1-3.7-10.6-10.8-10.9,5.7,1.3,7,8,10.3,11.6h0c.3.6,3.1,3.7,3.5,3.2S437.4,398.5,437,398.2Z" transform="translate(-4.3 -132.5)" fill="#19130f"/><path d="M528.5,434.8c-.7-8.9-25.1-29.3-33.4-31.5,5.3,6.4,13.2,10.3,19.3,15.8,3.5,3.1,13.4,11.8,12.3,17.7Z" transform="translate(-4.3 -132.5)" fill="#19130f"/><path d="M73.4,545.9c.3,2.8.7,7.2,1.1,10s3.4,6.1,7.1,6.4a49.3,49.3,0,0,1,17.9,5.1c1.1.5,2.6.2,3.9.2a7,7,0,0,1,5.1,2.8,17.4,17.4,0,0,1-11-1.9c-5.4-2.7-11.3-3.5-17-4.8s-7.9,1.5-11.1,4.3-3.6,3.4-5.4,5.1l-.7-.7c4.7-6.5,8.5-19.2,8.5-27.5Z" transform="translate(-4.3 -132.5)" fill="#19130f"/><path d="M117,574.3c-7.7,11.5-7,22.4,2.9,35.3-9.5-2-14.8-25-5.3-35C115.4,573.2,116.2,574.2,117,574.3Z" transform="translate(-4.3 -132.5)" fill="#19130f"/><path d="M167.9,600.7a5,5,0,0,0-.6,6.3c1.1,1.7,2.5,3.3,4.2,5.5-6.3-2.5-7.8-7.1-7.5-13.6C165,599.2,167.2,599.7,167.9,600.7Z" transform="translate(-4.3 -132.5)" fill="#19130f"/><path d="M718.5,151.1c1.3,4.6-.1,7.2-3.8,10.5C715.9,157.5,716.3,154.5,718.5,151.1Z" transform="translate(-4.3 -132.5)" fill="#19130f"/><path d="M463,252.7c-4.1-.1-6.8-1-8.4-4a2.7,2.7,0,0,1,.1-3.2c1-1.2,2.1-.7,3.1.1,3.1,2.5,6.7,2.6,10.4,2.3,1.2-.1,2.5-.1,2.7,1.4s-1.1,1.5-2,1.8Z" transform="translate(-4.3 -132.5)" fill="#19130f"/><path d="M64.1,573.2c-3.8,6.2-4.3,13-2.4,20.8-5.3-4.7-3.9-16.2,1.6-21.5Z" transform="translate(-4.3 -132.5)" fill="#19130f"/><polygon points="390.9 114 395 117.2 395 107.2 390.9 114" fill="#fff"/><polygon points="400.9 102.2 404.9 109.5 407 97.3 400.9 102.2" fill="#fff"/><polygon points="411.5 95.8 413.1 102.2 417.4 91.7 411.5 95.8" fill="#fff"/><polygon points="423 91.2 423.9 98.3 429.1 89.5 423 91.2" fill="#fff"/><polygon points="437.6 86.2 438.3 93.9 443.6 84.2 437.6 86.2" fill="#fff"/><polygon points="455.3 84.2 455.3 90.1 461.3 84.2 455.3 84.2" fill="#fff"/><polygon points="434.4 104.5 440.6 102.2 436.3 96 434.4 104.5" fill="#fff"/><polygon points="421.6 111.3 421.6 106.2 427.3 107.8 421.6 111.3" fill="#fff"/><polygon points="410.8 120.2 410.8 113.3 415 116.8 410.8 120.2" fill="#fff"/><polygon points="399.6 128.3 400.9 120.2 405.1 124.7 399.6 128.3" fill="#fff"/><path d="M46.2,526.9c-7.1-3.9-9.8-9.1-9.7-17.7.4-58.8.2-117.7.2-176.5,0-2,0-4,0-7.4,5.7,4.6,10.1,8.6,14.9,12,23,16.3,45.5,33.3,69.3,48.3s46.6,26.3,71.3,37,48.5,18.6,73.5,25.7c14.1,4,28.8,5.9,43.3,8.7,30.4,5.9,61.2,5.6,91.9,5a257.1,257.1,0,0,0,35.3-3.7c16.7-2.7,33.3-6,49.8-9.5,9.4-2,18.7-4.9,27.9-7.9a500.1,500.1,0,0,0,73.6-29.9c12.5-6.4,25-13,36.9-20.5,19.8-12.5,39.4-25.3,58.6-38.8,12.3-8.7,23.6-18.8,35.4-28.3,2.1-1.7,4.2-3.2,7.4-5.6.3,2.7.6,4.3.6,5.8q0,87-.1,174a10.2,10.2,0,0,1-3.1,7c-12.9,11-25.7,22.1-39.4,32.2-17.2,12.7-34.6,25.2-52.9,36.2s-35.9,19.4-54.1,28.4c-11.1,5.5-22.6,10.2-34.2,14.6-27.2,10.3-55,18.4-83.7,23.1-16.7,2.7-33.5,4.6-50.4,6.2-13,1.2-26.1,2.3-39.1,1.9a466.5,466.5,0,0,1-49.6-3.9c-20.1-2.7-40.2-6-60-10.6a457.4,457.4,0,0,1-70.6-23,589.6,589.6,0,0,1-86.6-44c-15.7-9.8-30.7-20.6-46.1-30.9C55.2,533.7,46.2,526.9,46.2,526.9Z" transform="translate(-4.3 -132.5)" fill="#074f1f" stroke="#19130f" stroke-miterlimit="10" stroke-width="1.5"/><path d="M267.5,543.9l3-68.2,22.3,3.9-3.2,134.9c-10-2.5-28.4-7.4-28.4-7.4s-18-52.7-26.1-76.7c-.8-2.3-1.9-4.5-2.8-6.7l-1.8.3V598c-7.4-2.1-15.4-4.2-21.2-6.2,0,0,.8-131.6,1.1-134.6,7.3,2.2,30.2,9.8,30.2,9.8s16.8,51.8,23.9,73.4c.4,1.2,1,2.4,1.4,3.6Z" transform="translate(-4.3 -132.5)" fill="#d55800" stroke="#19130f" stroke-miterlimit="10" stroke-width="0.3"/><path d="M527.3,540l27.6,46.6L534,594.1l-29.8-45.9-16.7,5-2.7,54.3c-5.8,1.5-12.5,3.6-19.8,5.5-1.7-44.2.3-87.8-.2-131.1,3.1-.9,5.2-1.8,7.5-2.3,14.7-2.9,29.3-5.8,44.1-8.6s22.4,2,28.5,15c8.6,18.3,4.2,40.3-13.5,50.7A33.7,33.7,0,0,0,527.3,540Zm-42.1-11.4,23.2-5.4c6-1.4,10.2-5.3,12.9-10.7,5-9.8-2.5-21.9-13.4-20.8-7.6.8-15.1,3.4-22.7,5.3Z" transform="translate(-4.3 -132.5)" fill="#d55800" stroke="#19130f" stroke-miterlimit="10" stroke-width="0.3"/><path d="M354.2,486.4h21V620.4H356.3l-2.4-52.7H320.1l-1.7,50.2-22.2-2.4,2.3-135,22.4,2.6v56.5h33.3Z" transform="translate(-4.3 -132.5)" fill="#d55800" stroke="#19130f" stroke-miterlimit="10" stroke-width="0.3"/><path d="M423.4,567.2l-15.3,1.1c0,10-.5,20-.4,30.3,16.7-2.1,34.2-5.7,50.4-7.7v23.4c-24.7,5.6-49.3,9.2-75.7,7.3V486.5c24.8-1.6,50.1-2.4,75.7-4,0,5.8-.3,15.2-.3,22.2-16.1,2.4-31.9,2.3-48.6,4.8,0,10.4,0,22.1,0,33.2,3,.2,13.7-.7,13.7-.7S423.4,559.5,423.4,567.2Z" transform="translate(-4.3 -132.5)" fill="#d55800" stroke="#19130f" stroke-miterlimit="10" stroke-width="0.3"/><path d="M704.3,372c0,9,.1,16.9-.1,24.8,0,1.1-1.2,2.4-2.1,3.3s-20.4,15.6-20.4,15.6c.9,15.1.7,47.1.3,62.3,0,1.8.2,3.6.3,6.4l21.5-11c.3,5.2,2.6,22.6,2.6,22.6l-11.9,12.9c-17.6,16-25.7,21.1-46.6,32-1,.5-14.3,7.2-17.1,8,0-9.2-.2-17.5.2-25.9.1-1.6,2.6-3.4,4.3-4.6,6.7-4.6,13.8-8.8,20.4-13.6,1.9-1.4,3.9-4.3,3.9-6.5-.3-21.9-1-43.8-1.7-65.8,0-.3-.3-.6-.9-1.8L629.9,445c0-8.5-.2-16,.1-23.5.1-1.3,1.8-2.8,3.2-3.7L699.7,374A37.3,37.3,0,0,1,704.3,372Z" transform="translate(-4.3 -132.5)" fill="#d55800" stroke="#19130f" stroke-miterlimit="10" stroke-width="0.3"/><path d="M205.5,454.6l-1.4,25.9-26.3-9.1v86l26.3,11.6-1.3,20.1c-4.3-1.2-7.7-1.8-10.9-3.1-17.3-6.5-60.4-25.2-60.4-25.2s.5-16.9.5-22.5l19.1,5.5V455.9c-5.6-2.7-19.6-10-19.6-10s.5-17.5,1-25.4Z" transform="translate(-4.3 -132.5)" fill="#d55800" stroke="#19130f" stroke-miterlimit="10" stroke-width="0.3"/><path d="M556,547.6l18.6-7.3c1.1.7,1.5.9,1.6,1.1,2.2,4,4,8.6,10.1,7.4s13.3-8.7,13.3-14.7c.3-22.8.1-45.6,0-68.3,0-.4-.4-.9-1-2.1l-46.4,21.7c-.6-4.9-1.6-24.3-1.6-27.5l15.1-7c17.3-8.4,34.8-16.2,52.3-24.3l5.9-2.5a45.3,45.3,0,0,1,.6,5.3c-.3,33.7-1,67.3-.7,101,.2,14.9-6.2,25.5-17.3,33.9a87.7,87.7,0,0,1-35.9,16.3c-6.4,1.3-10.9-2.3-11.8-8.7S557.1,556.3,556,547.6Z" transform="translate(-4.3 -132.5)" fill="#d55800" stroke="#19130f" stroke-miterlimit="10" stroke-width="0.3"/><path d="M74.6,410.8v32.4c5.4,3.6,21,13.6,21,13.6s-.5,19.3-.5,28.2l-18.7-9.9c-.2,6-.9,24.1-.9,24.1,10.9,6.7,38.7,28.9,49.5,35.6,0,0-1.3,18.5-1.7,21.5-1.3,0-63.7-35.5-67.3-45.9,0,0-1-138.7-.9-141.1,1.7,1.2,2.9,2,4,2.9,18.6,16.4,44,32.6,65.9,44.1,0,0-1.8,19.2-2.2,25.4C122.1,442.2,90.9,421.6,74.6,410.8Z" transform="translate(-4.3 -132.5)" fill="#d55800" stroke="#19130f" stroke-miterlimit="10" stroke-width="0.3"/></svg>