<svg xmlns="http://www.w3.org/2000/svg" xmlns:xlink="http://www.w3.org/1999/xlink" viewBox="0 0 425.2 425.2"><defs><clipPath id="a" transform="translate(-37 -37.6)"><rect x="37" y="37" width="425.8" height="426.72" fill="none"/></clipPath></defs><title>ellidi</title><g clip-path="url(#a)"><path d="M249.6,37.6c117.4,0,212.6,95.2,212.6,212.6A212.6,212.6,0,1,1,249.6,37.6Zm0,0" transform="translate(-37 -37.6)" fill="#000200" fill-rule="evenodd"/></g><path d="M274,52.9c98.2,12,174.4,95.8,174.4,197.3A198.6,198.6,0,0,1,357.6,417a180,180,0,0,1-58.4-5.3c-37.5-9.7-64.7-29.6-80.4-52.2-29.5-42.5-21.9-85.9,17.5-120,26.7-23.1,60.5-37.3,70.1-86.2,6.3-32.2-6.3-66.8-32.4-100.3ZM155.1,425.1A198.7,198.7,0,0,1,50.8,250.2c0-95.5,67.3-175.2,157.1-194.4,43.6,23.4,68.6,48.1,68.9,76.9.1,8-2.1,19.8-10.7,32.3-17.4,25.6-47.3,36.8-75.5,53-38.7,22.3-74.5,51.5-71.3,117.6,1.2,26.2,12.5,56.8,35.8,89.4Zm0,0" transform="translate(-37 -37.6)" fill="#fff" fill-rule="evenodd"/><path d="M265.3,289.8a27,27,0,0,1,8.5,1.2v7.2a24.3,24.3,0,0,0-8.2-1.4c-4.2.2-6.2,1.8-6.2,4.3s1.9,4.4,5.1,4.4h7.1v7.2h-6.8c-5.2-.2-6.5,3-6.4,5.2s2.2,4.8,6.9,5.1a23.3,23.3,0,0,0,9-1.1v6.9a29.4,29.4,0,0,1-9.1,1.4c-7.9.2-13.4-3.7-13.9-11.1-.3-5,2.4-8.2,5-10.2-3.2-1.3-4.3-4.7-4.5-7.7a10,10,0,0,1,2.8-7.7c2.2-2.4,6-3.7,10.8-3.7Zm0,0" transform="translate(-37 -37.6)" fill="#000200" fill-rule="evenodd"/><rect x="298.4" y="252.5" width="7.3" height="39.6" fill="#000200"/><rect x="351.9" y="252.5" width="7.3" height="39.6" fill="#000200"/><path d="M353.7,290.1h8.5c9,0,17.6,4.8,17.6,19.5v2.6c0,13.2-9.2,17.6-16.6,17.5h-9.6V313.6h-4.4v-7.3h4.4Zm7.3,16.2h4.2v7.3h-4.2v8.9h2.8c4,0,8.6-2.5,8.7-10.8.1-3.8,0-.6,0-3.3,0-5.7-1.7-10.9-7.9-10.9h-3.7Zm0,0" transform="translate(-37 -37.6)" fill="#000200" fill-rule="evenodd"/><path d="M281.9,290.1h7.3v32.4h12.4v7.3H281.9Zm0,0" transform="translate(-37 -37.6)" fill="#000200" fill-rule="evenodd"/><path d="M308.3,290.1h7.3v32.4H328v7.3H308.3Zm0,0" transform="translate(-37 -37.6)" fill="#000200" fill-rule="evenodd"/></svg>