<svg xmlns="http://www.w3.org/2000/svg" viewBox="0 0 504 549.8"><title>fh</title><path d="M497.3,2.6H-1.7V97.7L44.5,67.3V277.5c0,81.6,21,151.3,60.9,201.6,37.4,47.3,88.9,73.3,144.9,73.3s107.5-26,144.9-73.3C435,428.8,456,359.1,456,277.5V67.3l46.3,30.4V2.6Z" transform="translate(1.8 -2.6)"/><path d="M445.7,260.9C443,188.8,423,127.2,387.3,82.2s-84.2-69.5-137-69.5-101.6,24.7-137,69.5S57.5,188.8,54.8,260.9h72.3l76.3,198h63.7l-26-67.5h66.8l26,67.5h63.7l-76.3-198Z" transform="translate(1.8 -2.6)" fill="#fff"/><path d="M346.4,12.6V31.2l6.2,4.2V12.6Z" transform="translate(1.8 -2.6)" fill="#fff"/><path d="M311.4,12.6v1l6.2,2.4V12.6Z" transform="translate(1.8 -2.6)" fill="#fff"/><path d="M334.7,12.6V24.3l6.2,3.5V12.6Z" transform="translate(1.8 -2.6)" fill="#fff"/><path d="M323.1,12.6v5.8l6.2,3V12.6Z" transform="translate(1.8 -2.6)" fill="#fff"/><path d="M393.1,12.6V73.5l2,2.5,4.2,5.4V12.6Z" transform="translate(1.8 -2.6)" fill="#fff"/><path d="M446,12.6h-6.2V162.9q3.4,11.1,6.2,22.8Z" transform="translate(1.8 -2.6)" fill="#fff"/><path d="M457.7,12.6h-6.2V52.4l6.2,4.1Z" transform="translate(1.8 -2.6)" fill="#fff"/><path d="M463.2,12.6V60l6.2,4.1V12.6Z" transform="translate(1.8 -2.6)" fill="#fff"/><path d="M381.4,12.6V60.3l6.2,6.7V12.6Z" transform="translate(1.8 -2.6)" fill="#fff"/><path d="M428.2,12.6V131.5q3.3,7.5,6.2,15.3V12.6Z" transform="translate(1.8 -2.6)" fill="#fff"/><path d="M404.8,12.6V89.1q3.2,4.7,6.2,9.5v-86Z" transform="translate(1.8 -2.6)" fill="#fff"/><path d="M369.8,12.6V49l6.2,5.7V12.6Z" transform="translate(1.8 -2.6)" fill="#fff"/><path d="M492.3,12.6h-5.7V75.4l5.7,3.8Z" transform="translate(1.8 -2.6)" fill="#fff"/><path d="M474.9,12.6V67.7l6.2,4.1V12.6Z" transform="translate(1.8 -2.6)" fill="#fff"/><path d="M358.1,12.6V39.4l6.2,4.9V12.6Z" transform="translate(1.8 -2.6)" fill="#fff"/><path d="M416.5,12.6V108q3.2,5.7,6.2,11.7V12.6Z" transform="translate(1.8 -2.6)" fill="#fff"/><path d="M159.6,12.6V27.8l6.2-3.5V12.6Z" transform="translate(1.8 -2.6)" fill="#fff"/><path d="M112.9,12.6V67l6.2-6.7V12.6Z" transform="translate(1.8 -2.6)" fill="#fff"/><path d="M31.1,12.6V64.1L37.3,60V12.6Z" transform="translate(1.8 -2.6)" fill="#fff"/><path d="M8.3,12.6V79.2L14,75.4V12.6Z" transform="translate(1.8 -2.6)" fill="#fff"/><path d="M147.9,12.6V35.4l6.2-4.2V12.6Z" transform="translate(1.8 -2.6)" fill="#fff"/><path d="M136.2,12.6V44.3l6.2-4.9V12.6Z" transform="translate(1.8 -2.6)" fill="#fff"/><path d="M101.2,12.6V81.4l4.2-5.4,2-2.5V12.6Z" transform="translate(1.8 -2.6)" fill="#fff"/><path d="M124.6,12.6V54.7l6.2-5.7V12.6Z" transform="translate(1.8 -2.6)" fill="#fff"/><path d="M19.5,12.6V71.8l6.2-4.1V12.6Z" transform="translate(1.8 -2.6)" fill="#fff"/><path d="M89.5,12.6v86q3-4.8,6.2-9.5V12.6Z" transform="translate(1.8 -2.6)" fill="#fff"/><path d="M66.2,12.6V146.7q2.9-7.8,6.2-15.3V12.6Z" transform="translate(1.8 -2.6)" fill="#fff"/><path d="M77.8,12.6v107q3-6,6.2-11.7V12.6Z" transform="translate(1.8 -2.6)" fill="#fff"/><path d="M171.3,12.6v8.7l6.2-3V12.6Z" transform="translate(1.8 -2.6)" fill="#fff"/><path d="M182.9,12.6V16l6.2-2.4v-1Z" transform="translate(1.8 -2.6)" fill="#fff"/><path d="M42.8,12.6V56.4L49,52.4V12.6Z" transform="translate(1.8 -2.6)" fill="#fff"/><path d="M54.5,185.7q2.7-11.7,6.2-22.8V12.6H54.5Z" transform="translate(1.8 -2.6)" fill="#fff"/><polygon points="296.9 174.8 227.1 174.8 220.2 156.8 342.9 156.8 319.2 95.3 129.7 95.3 220.5 330.8 287.3 330.8 251 236.8 320.8 236.8 296.9 174.8"/></svg>