<svg xmlns="http://www.w3.org/2000/svg" xmlns:xlink="http://www.w3.org/1999/xlink" viewBox="0 0 261.8 301.5"><defs><linearGradient id="a" x1="400" y1="446.28" x2="400" y2="153.15" gradientUnits="userSpaceOnUse"><stop offset="0.5" stop-color="#fff"/><stop offset="1" stop-color="#ccc"/></linearGradient><linearGradient id="b" x1="333.61" y1="422.3" x2="333.61" y2="164.48" gradientUnits="userSpaceOnUse"><stop offset="0.12" stop-color="#fff"/><stop offset="1" stop-color="#140b79"/></linearGradient><linearGradient id="c" x1="415.39" y1="303.66" x2="415.39" y2="164.31" gradientUnits="userSpaceOnUse"><stop offset="0.03" stop-color="#fff"/><stop offset="1" stop-color="#140b79"/></linearGradient><linearGradient id="d" x1="484.02" y1="422.2" x2="484.02" y2="164.89" gradientUnits="userSpaceOnUse"><stop offset="0.23" stop-color="#fff"/><stop offset="1" stop-color="#140b79"/></linearGradient></defs><title>fjardabyggd</title><path d="M515.3,158.6l-.6-2.2-2.3-.5c-.4-.1-30-6.6-112.4-6.6s-112,6.5-112.4,6.6l-2.3.5-.6,2.2c0,.2-15.6,54.7-15.6,110,0,21.2,2.3,42.5,8.8,61.1,11.9,33.6,42,63.3,69,85a415.7,415.7,0,0,0,51.2,35.1l1.9,1.1,1.9-1.1a415.7,415.7,0,0,0,51.2-35.1c27-21.7,57.1-51.4,69-85,6.5-18.5,8.8-39.9,8.8-61.1C530.9,213.3,515.3,158.8,515.3,158.6Z" transform="translate(-269.1 -149.2)" fill="#666"/><path d="M512.1,159.5v-.4h-.4c-.1,0-29.5-6.5-111.6-6.5S288.4,159,288.4,159H288v.4s-15.5,54.4-15.5,109.1c0,21,2.3,42,8.6,60,22.9,65,118.7,118.3,118.7,118.3l.3.2.3-.2c0-.1,95.8-53.3,118.7-118.3,6.3-18,8.6-39,8.6-60C527.6,213.9,512.1,159.5,512.1,159.5Z" transform="translate(-269.1 -149.2)" fill="#fff"/><path d="M513.3,169.2c-1.2-4.8-2-7.9-2.3-8.9l-5.5-.9c-4-.6-10.2-1.4-19-2.2-17.6-1.6-45.4-3.3-86.5-3.3-61.6,0-93.5,3.7-105.5,5.5l-5.5.9c-.3,1-1.1,4.2-2.3,8.9s-3.4,14.4-5.3,24.6c-3.9,20.4-7.7,47.6-7.7,74.8,0,20.9,2.3,41.7,8.5,59.5,19.7,56.2,95.4,104.2,114,115.2l3.8,2.2,3.8-2.2c2.7-1.6,6.5-3.9,11.1-6.9A431.9,431.9,0,0,0,450.3,411c26.7-21.4,56.2-50.8,67.5-82.9,6.3-17.8,8.5-38.7,8.5-59.5C526.3,227.7,517.6,187,513.3,169.2Z" transform="translate(-269.1 -149.2)" fill="url(#a)"/><path d="M519.5,205.6v-6.9c-2.2-12.4-4.5-22.6-6.2-29.5l-.2-.7c-7-1-21.6-3-32-4-14.2-1.5-29.9-2.2-29.9-2.2h-2.9s-13.9-.6-34.4-.6-31.5.2-31.5.2h-3l-17,.2c-13.7.3-18.2.7-18.3.7h-1.6l-17.9,48.7V164l-2.8.2s-7.7.5-19.8,1.8c-7.3.8-12.2,1.5-15,1.9l-.3,1.3c-1.3,5.2-2.9,12.4-4.6,20.9v138a120.1,120.1,0,0,0,12.7,25.3,115.6,115.6,0,0,1,29.7-39.8V260.3l13.5,43.2a114.5,114.5,0,0,1,39.4-15.8l-21.8-55.4,24.2-54V287.2a116.1,116.1,0,0,1,42.3.4V256.1h25.2V219.6H422.2v-14h26.3v90.5a115.7,115.7,0,0,1,42.3,33.6V256H516V219.5H490.8v-14Z" transform="translate(-269.1 -149.2)" fill="#666"/><path d="M322.6,315.3V247.5l17.2,54.9A114.5,114.5,0,0,1,375.6,288l-22-55.9,28.2-63.1V286.9a116.2,116.2,0,0,1,38.4.3v-33h25.2V221.6H420.2V203.7h28.7V164.2h-.6s-13.9-.6-34.3-.6-31.5.2-31.5.2h-3.1l-16.9.2c-13.7.3-18.2.7-18.2.7h-.4l-21.3,57.8V166.1h-.7s-7.6.5-19.7,1.8c-8,.9-13.1,1.6-15.7,2-.7,3-1.6,6.6-2.5,10.8V333a125.7,125.7,0,0,0,10.8,20.4A115.6,115.6,0,0,1,322.6,315.3Z" transform="translate(-269.1 -149.2)" fill="#fff"/><path d="M517.6,203.6V188.4c-1.4-7.1-2.8-13.2-3.9-17.9-6.7-.9-21.9-3-32.7-4.1-14.1-1.5-29.8-2.2-29.8-2.2h-.7V297a115.7,115.7,0,0,1,38.4,30.2V254.1H514V221.5H488.9V203.6Z" transform="translate(-269.1 -149.2)" fill="#fff"/><path d="M321.3,316.5V243.2l1.3-.2L341,301.7a114.5,114.5,0,0,1,33.3-13.4l-22.1-56.2,29.6-66.2v-.8h-2.4l-16.9.2-14.2.5-3.5.2-22.2,60.5-1.3-.2V167.4c-2.1.1-9,.6-19,1.7s-13.9,1.7-16.2,2l-.8,3.6V336a129.4,129.4,0,0,0,9.5,17.3A115.5,115.5,0,0,1,321.3,316.5Z" transform="translate(-269.1 -149.2)" fill="url(#b)"/><path d="M418.9,287V252.9h25.2v-30H418.9V202.4h28.7V165.5l-8.9-.3c-6-.1-14.6-.3-24.8-.3l-30.3.2-.5,1.1V286.7a115.9,115.9,0,0,1,35.8.3Z" transform="translate(-269.1 -149.2)" fill="url(#c)"/><path d="M516.3,202.3V182.1c-.8-3.8-1.6-7.3-2.3-10.2l-9.9-1.3c-7.2-1-16.2-2.1-23.3-2.9s-14.5-1.3-20.1-1.6l-8.9-.5V297.7a115.6,115.6,0,0,1,35.8,28v-73h25.2v-30H487.6V202.3Z" transform="translate(-269.1 -149.2)" fill="url(#d)"/><path d="M400,285.4a115.3,115.3,0,0,0-105.1,67.9c29,44.8,85.6,80.6,101.3,89.9l3.8,2.2,3.8-2.2c2.7-1.6,6.5-3.9,11.1-6.9A431.9,431.9,0,0,0,450.3,411c19.5-15.6,40.5-35.5,54.8-57.7A115.3,115.3,0,0,0,400,285.4Z" transform="translate(-269.1 -149.2)" fill="#666"/><path d="M400,288A112.7,112.7,0,0,0,296.6,356c29.5,43.6,84.2,78.2,99.6,87.4l3.8,2.2,3.8-2.2c2.7-1.6,6.5-3.9,11.1-6.9A431.9,431.9,0,0,0,450.3,411c18.8-15,38.9-34,53.1-55.1A112.7,112.7,0,0,0,400,288Z" transform="translate(-269.1 -149.2)" fill="#fff"/><path d="M337.2,397.7c-.6-7.4.6-14.6,1.1-22,.2-3.5.9-7,1.5-10.5.3-1.7.9-3.3,1.2-5s.5-3.8.9-5.7c1.6-6.7,3.8-13.4,5.6-20.1s4.8-13,7.1-19.5a92.1,92.1,0,0,1,5-10.8c.4-.7.4-1.6.8-2.3s1.1-1.5,1.4-2.4a34.3,34.3,0,0,1,2.6-5.4,113,113,0,0,0-62.8,52.3q-1.7,3.1-3.3,6.4c-.4.8-1.4,2.2-1.4,3.1s1.6,3,2.4,4c3.3,4.6,6.9,9.1,10.6,13.4A274.4,274.4,0,0,0,337,400.4,8.8,8.8,0,0,1,337.2,397.7Z" transform="translate(-269.1 -149.2)" fill="#ccc"/><path d="M311.6,346.1l-11,1.6q-2.2,4-4,8.3a217.5,217.5,0,0,0,28.5,33.4l1.6-1.7Z" transform="translate(-269.1 -149.2)"/><path d="M400,288a112.2,112.2,0,0,0-51.4,12.4l.3,7.8,39.6,12,28.9-23.6,2.1-6.9A113.3,113.3,0,0,0,400,288Z" transform="translate(-269.1 -149.2)"/><path d="M466.4,309.7l13.3,38.9,19.8,12.8,3.8-5.4A113,113,0,0,0,466.4,309.7Z" transform="translate(-269.1 -149.2)"/><rect x="394.4" y="320" width="0.7" height="45.03" transform="translate(-345.7 -32.6) rotate(-15.3)"/><rect x="441.8" y="278.9" width="0.7" height="49.49" transform="translate(-239.1 497.8) rotate(-74.3)"/><rect x="443" y="367" width="44.8" height="0.65" transform="translate(-378.6 363) rotate(-52.4)"/><rect x="304.6" y="326.9" width="51.4" height="0.65" transform="translate(-403.7 184.9) rotate(-45.6)"/><rect x="345.7" y="372.6" width="0.7" height="37.86" transform="matrix(0.18, -0.98, 0.98, 0.18, -371.4, 510.66)"/><path d="M402.9,363.4l-36.6,31.5,5.1,32.3c10.9,7.6,19.9,13.2,24.8,16.1l3.8,2.2,3.8-2.2c2.7-1.6,6.5-3.9,11.1-6.9A431.9,431.9,0,0,0,450.3,411l2-1.7L451,385.7Z" transform="translate(-269.1 -149.2)"/><path d="M441.7,416.4l-1.5-17.6c-.2-2.7,0-6-.7-8.5s-.7-1.1-1.9-1.7l-6.5-3.2a53.8,53.8,0,0,0-6-3c-1.4-.5-1.3-.2-2.3,1s-2.4,5.2-2.6,8a105.5,105.5,0,0,0,.5,18.1c.3,3.6,1.2,7.1,1.5,10.7a27.3,27.3,0,0,0,1.2,4.9c.4,1.4.4,3.6,1.4,4.8l10.3-7.2C436.5,421.5,442.4,418.6,441.7,416.4Z" transform="translate(-269.1 -149.2)" fill="#666"/><path d="M346.9,317.6a80,80,0,0,0-11.2,11c-3.4,3.9-6.8,7.9-9.9,12l-1.8,2.6c-.5.8-1.5,1.2-1.8,2.2s1.1,3.3,1.6,4.4l9.1,21.5c.6,1.5,1.3,4.8,2.5,5.9s4.2,1.1,5.5,1.5l11.3,2.8c.6.2,2.6,1,3.2.8s.5-1.3.5-1.9a33.1,33.1,0,0,1,.9-6.8c.6-2.3.7-4.8,1.2-7.2s1.2-4.3,1.8-6.4a22.8,22.8,0,0,1,2.3-6.2c2.9-4.5,7.3-8.4,11.4-11.8,2.2-1.8,4.2-3.7,6.2-5.6s2.1-1.5,3-2.4,2.3-1.3,2.9-2.3l-20-7.9-12.9-5.1C351.3,318.1,348.1,315.8,346.9,317.6Z" transform="translate(-269.1 -149.2)" fill="#e6e6e6"/><path d="M347.6,408.4a19.9,19.9,0,0,0,.9-5.2,32.7,32.7,0,0,1,1.3-5.5l-14.6-2.2a11.5,11.5,0,0,0-2.8-.4c-1.5.2-.3.9.7,1.8q7.1,6.4,14.5,12.4A3.4,3.4,0,0,0,347.6,408.4Z" transform="translate(-269.1 -149.2)" fill="#e6e6e6"/><path d="M469.6,393.2c-.5-2.3.1-4.9.4-7.1a51.9,51.9,0,0,1,.8-7.1c.6-2.2,1.7-3.3,1-5.7l-2.8-10L456.1,380c-1.3,1.7-2.1,2.2-2,4.3l1,11.9.9,10.1,8.4-7.2C465.8,397.9,470.3,395.2,469.6,393.2Z" transform="translate(-269.1 -149.2)" fill="#f0f0f0"/><polygon points="184.7 230.9 184.8 232.5 199.6 213.3 199.3 212 184.7 230.9" fill="#f0f0f0"/><path d="M411,301.8l-14.4,12.5-4,3.5a15.2,15.2,0,0,0-2.8,2.4c-.6.9-.3,1.2.1,2.5l11.3,40.2c.1.2.2,1.3.4,1.4s.8-.8,1.3-.9,1,.5,1.3.6l9.6,4.5c-.4-4.6-1.2-9-1.6-13.6-.2-2.4-.8-4.7-1-7.2s-.1-5.2-.7-7.5a44,44,0,0,1-1-6.5c-.2-2.5-.9-5.1-.5-7.6a27.2,27.2,0,0,1,6.5-13.4c1-1.1,2-2,2.9-3.1s2.8-2.1,2.9-3-1.8-3.9-2.3-5l-2.1-4.6Z" transform="translate(-269.1 -149.2)" fill="#e6e6e6"/><path d="M455.5,305.7c1.7.8,3.8,1.4,5.6,2.1a18,18,0,0,1,4.5,2.1c-1.7-3-6.2-4.9-8.9-6.6a111.9,111.9,0,0,0-33.3-12.8c-.8-.2-3.3-1.1-3.8-.7s-.3,1.1-.4,1.3l-1.1,3.8c1.1-.2,2.5.6,3.6.8l5.1,1.3c3.2.7,6.2,1.7,9.3,2.6l5,1.3c1.8.5,3.3,1.1,4.8,1.7s3.5.7,5.1,1.3,1.5,1,2.2,1.2Z" transform="translate(-269.1 -149.2)" fill="#ccc"/></svg>