<svg xmlns="http://www.w3.org/2000/svg" xmlns:xlink="http://www.w3.org/1999/xlink" viewBox="0 0 422.6 452.3"><defs><linearGradient id="a" x1="361.42" y1="280.84" x2="361.42" y2="57.24" gradientUnits="userSpaceOnUse"><stop offset="0.5" stop-color="#fff"/><stop offset="1" stop-color="#ccc"/></linearGradient><linearGradient id="b" x1="310.78" y1="262.55" x2="310.78" y2="65.88" gradientUnits="userSpaceOnUse"><stop offset="0.12" stop-color="#fff"/><stop offset="1" stop-color="#140b79"/></linearGradient><linearGradient id="c" x1="373.16" y1="172.05" x2="373.16" y2="65.75" gradientUnits="userSpaceOnUse"><stop offset="0.03" stop-color="#fff"/><stop offset="1" stop-color="#140b79"/></linearGradient><linearGradient id="d" x1="425.51" y1="262.47" x2="425.51" y2="66.19" gradientUnits="userSpaceOnUse"><stop offset="0.23" stop-color="#fff"/><stop offset="1" stop-color="#140b79"/></linearGradient></defs><title>fjardabhotturleiknir</title><path d="M230.9,88.5c-17.7,2.1-37.6-19.9-54-34.9-11.8-10.8-28.7-28.1-42.6-29.7C111.1,28.9,70.7,89,38.7,92.4V192.8a130.7,130.7,0,0,0,4,20.4c7.2,26.8,29.2,70.3,95.9,70.6,0,0,44.5-.1,71.9-37.8,9.2-12.6,18.1-33,19.9-51.8Z" transform="translate(-38.7 -23.8)" fill="#343536" fill-rule="evenodd"/><path d="M187.9,67.2c-11.5-3.2-24.9-9-35.8-13.7-6.1,5.5-12.8,11.8-19,16.9-6.4-4.8-11.5-10-17.9-16.1a263.4,263.4,0,0,1-25.5,9.1c14.4-13.3,32.3-31.9,45.3-36.7,15.8,4.5,35.6,27.4,52.9,40.5" transform="translate(-38.7 -23.8)" fill="#fff" fill-rule="evenodd"/><path d="M218,196.5c-.7,12.4-3.7,20.2-7.7,29.1-12.6,28.3-40,46.7-74.9,46.8-56.4.2-75-38.9-81.4-62.3a129.8,129.8,0,0,1-3.8-17.3v-42c-3.2-9.2-1.7-12.3-1.7-12.3a3.8,3.8,0,0,0,.5-3.9c-3-2.1-2.1-7.9-2.1-7.9,2-3.7,2.4-.9,2.4-.9a5.7,5.7,0,0,0-.8,4.9c2.1,6.2,7.6,3.3,7.6,3.3,3.2-2.5,4.4-1.4,4.4-1.4l7.2,1.1c1-2.4-4.4-3.7-4.4-3.7-10.4.6-9.5-3.4-9.5-3.4,1.7-3.9,6.4-1.5,6.4-1.5,5.5.7,5.7-4.4,5.7-4.4-2.6-5-5.7-.2-5.7-.2-4.6.1-6.1,2.1-6.1,2.1-2.2,1.9-1.9.5-1.9.5,4.9-4.6,1.7-6.8,1.7-6.8l-11.1-9.6-.2,83.4s1.6,15.4,3.3,21.5c20,72.5,89.4,68.5,89.4,68.5,47,0,69.4-29.4,81.7-52.7,8.4-15.9,10-34,10-34l.5-72.4c-.5,4.3-3.7,13.1-5.6,18.7l-10.7-10.1L218,141Z" transform="translate(-38.7 -23.8)" fill="#c2c7ce" fill-rule="evenodd"/><path d="M69.9,134.8c1.8-5.4-4.1-3.1-4-6.9,2.3.3,3.7,1.6,6.9,1-1.7-2-4.6-2.7-7.9-3,1.7-3.9,7.5-3.7,8.9-7.9,8.6,10.8,29.6,8.6,38.9.1,8.3,10.7,34.3,10,40.9-.6,6.2,9.7,31.1,10.8,38,.5,11.2,4,16.6,11.2,22.8,22.8-.3,20.1.9,41.8-1,60.4-1.6,9.8-3.8,15-6.9,21.7-12.6,27.5-37.8,45.1-71.6,45.4-38.7.3-66.5-23.9-77.2-58.7-1.8-4.1-3-11.3-3.8-17.3V150.6c-1.7-3.9-3.8-7.4-3-13.9l6.6-.6,1.4-1.7h2.3l1.6,1.7s5,3.1,7-1.2" transform="translate(-38.7 -23.8)" fill="#fff" fill-rule="evenodd"/><path d="M42.3,95.6s12.2,1.8,43.1-28c0,0,11.5-2.5,28.9-9.4l19,16.7,19.3-17.7,37.6,14.4s20,18.8,35.8,20.6v8s-7.6,31.4-33.5,9.6c0,0-18.8,21.6-39.2-.2,0,0-20,22-40.4.2,0,0-21.6,21.8-39.7,0,0,0-7.3,20-31.2-9.2Z" transform="translate(-38.7 -23.8)" fill="#00a25f" fill-rule="evenodd"/><path d="M53.3,119.2a1.5,1.5,0,1,1-1.5-1.6,1.5,1.5,0,0,1,1.5,1.6" transform="translate(-38.7 -23.8)" fill="#343536" fill-rule="evenodd"/><path d="M64.4,120.9a.9.9,0,1,1-.9-.9.9.9,0,0,1,.9.9" transform="translate(-38.7 -23.8)" fill="#343536" fill-rule="evenodd"/><path d="M220.1,135.7l-14.8-15.6s7.6.3,9.5-.9Z" transform="translate(-38.7 -23.8)" fill="#c2c7ce" fill-rule="evenodd"/><path d="M216.5,118.4a23.1,23.1,0,0,0,4.6-3.3l.7,19.6Z" transform="translate(-38.7 -23.8)" fill="#c2c7ce" fill-rule="evenodd"/><path d="M222.5,113.5s3.3-4.7,4.2-7.2a106.8,106.8,0,0,1-3.7,23.7h-.6Z" transform="translate(-38.7 -23.8)" fill="#c2c7ce" fill-rule="evenodd"/><path d="M125.4,175.4h11.9V162.5H124.4V149.8h24.8v56.7h-5V260h4.9l17.9-6.3V206.5h-6V175.4h25.8c0,9.9-.1,21.2-.1,31.1H182v36.3c10.6-7.7,19.1-17.6,22.8-32.1v-4.2h-4.9V149.7h5.9V133.8H181.9V150h4.9v12.5H161V149.9h6V133.8H105.6v16h5v56.6h-4.9v48.2l18.8,5.4h5V206.5h-4.8v-31h.7" transform="translate(-38.7 -23.8)" fill="#e04245" fill-rule="evenodd"/><path d="M129.8,260.4h-5.6L105.2,255V206.1h4.9V150.3h-5V133.4h62.3v17h-6v11.8h24.9V150.4h-4.9v-17H206v16.7h-5.9V206H205v4.7h0c-3.4,13.3-10.7,23.5-23,32.4l-.7.5V206.1h4.8c0-4.8,0-10,0-15.1s0-10.3,0-15.1h-25v30.2h6V254l-18.3,6.4h-5.4V206.1h5.1V150.2H124.8v11.9h12.9v13.7H125.4V175h11.5V162.9H124V149.4h25.6v57.5h-5v52.7H149l17.5-6.2V206.9h-6V175h26.6v.4c0,5,0,10.3,0,15.6s0,10.6,0,15.6v.4h-4.8V242c11.7-8.6,18.7-18.6,22-31.4v-3.8h-4.9V149.2h5.9v-15h-23v15.4h4.9v13.3H160.6V149.5h6V134.2H106v15.2h5v57.4H106v47.5l18.5,5.3h4.5V206.9h-4.8V175h1.2v.8h-.3v30.2h4.8v54.4Z" transform="translate(-38.7 -23.8)" fill="#343536"/><path d="M70.9,150.6c0,18.5-.1,37.2-.1,55.7H65.9v1.7c.6,17.6,15.3,32,23.8,36.8,0-11.9-.1-26.4-.1-38.3h-5V149.8h4.5l-12.5-14H75.5l-9.6,8.5v5.6h5Z" transform="translate(-38.7 -23.8)" fill="#e04245" fill-rule="evenodd"/><path d="M90.2,245.7l-.6-.3c-9-5.1-23.4-19.7-24-37.2V206h4.9c0-9.1,0-18.3,0-27.5s0-18.6,0-27.9v-.3h-5v-6.2l9.9-8.7H77l13.2,14.8H85.2v56.1h5v.4c0,5.9,0,12.5,0,19.2s0,13.2,0,19.2ZM66.3,206.8v1.3c.6,16.8,14.2,30.8,23,36.1,0-5.8,0-12.1,0-18.4s0-12.9,0-18.7h-5V149.4h4L76.6,136.2h-.9l-9.4,8.3v5h5.1v1.2c0,9.2,0,18.5,0,27.8s0,18.6,0,27.9v.4Z" transform="translate(-38.7 -23.8)" fill="#343536"/><polygon points="43 110.1 61.9 110.1 61.9 125.9 56.4 125.9 43 111 43 110.1" fill="#e04245" fill-rule="evenodd"/><path d="M101.1,150.2H95L81.3,135v-1.5h19.7Zm-5.7-.8h4.9v-15H82.1v.3Z" transform="translate(-38.7 -23.8)" fill="#343536"/><path d="M59.7,126.1c0,.4-1.1.7-2.4.7s-2.4-.3-2.4-.7,1.1-.7,2.4-.7,2.4.3,2.4.7" transform="translate(-38.7 -23.8)" fill="#c2c7ce" fill-rule="evenodd"/><path d="M141.1,296c38-6.4,73.9-26.4,108.5-63.5,39,41.1,74.4,56.9,108.6,63.5-.2,78.9-38.2,145.2-108.6,176-64.7-27.7-108.5-91.5-108.5-176Z" transform="translate(-38.7 -23.8)" fill="#fff" fill-rule="evenodd"/><path d="M135.8,292.5c39.6-6.7,77.1-27.5,113.2-66.3,40.7,42.9,77.6,59.4,113.3,66.3C362.1,374.8,322.4,444,249,476.2c-67.5-28.9-113.2-95.5-113.2-183.7ZM249,240c29.3,28.9,62.7,51.1,103.6,60.2-.8,16.5-2.8,32.7-7,48.8a185,185,0,0,1-17.4,43.6,168.2,168.2,0,0,1-32,41.3A174,174,0,0,1,249,465.7a170.7,170.7,0,0,1-77.3-69.9,183.3,183.3,0,0,1-18.5-44c-4.7-17-6.8-33.8-7.7-51.4h0c39.6-8.5,74.1-30.7,103.5-60.4Z" transform="translate(-38.7 -23.8)" fill="#ea2229" fill-rule="evenodd"/><path d="M170.8,372c6.4,12.2,10.1,20.3,17.7,37.1,4.7,10.4,16.8,9.3,23.6,7.1a223.3,223.3,0,0,0,22.4-8.9,52.8,52.8,0,0,0,54.2-16.2c-1.4,8.7-2.5,15,3.7,19.8a15.2,15.2,0,0,0,21.9-3.5,22.6,22.6,0,0,0,3.3-7.2c.9-3.5,1.6-7,2.5-10.5,3.8-14.3,7.9-26.4,12.5-41,2.4-6.8-6.9-12.9-14.8-15.4a58,58,0,0,0-20.2-2.6l.3-8.2,6.2-.4.4-9.3-5.7-1.9.6-5.8,18.7,6.7,1.5-12.4-32.2-16.5-3.3,34.3a53,53,0,0,0-9.3-6.7V275.6l-15.2-11.5-9.6,8.7-11.1-9-16,14.1v32.6a53,53,0,0,0-10.3,7.6v-31l-13.8,8,.7,27.9c.1,2.7-.1,6.6-3,7.1s-4.3-3.1-4.5-5.9L191,298.4,177,304.7l1.1,21.2c.3,5.4,2.5,11.2,4.8,14l-2.4-.2c-8.7,0-16.3,6.7-15.9,16.3a20.7,20.7,0,0,0,.8,4.6c1.1,4.1,3.5,7.7,5.4,11.4Zm89-67.2a53.2,53.2,0,0,0-22,0V282.8l11.1,8.6,11.1-7-.2,20.4Zm-22.1,101c8-3.7,16-7.6,24-11.2v3l-7.6,9.1-5.3.3a50.7,50.7,0,0,1-11.1-1.2Zm26.1-12.2,1.8-.8.3,4.7,6.4,3.7a50.3,50.3,0,0,1-15,5.1l6.6-7.9-.2-4.8Zm3.9-1.7,7.9-3.2c5.5-2.1,9.6-4.2,14.3-5.4-.1,1-.3,2.2-.5,3.4a50.9,50.9,0,0,1-14.9,13.4l-6.5-3.8-.3-4.3Zm24.9-60.9a60.4,60.4,0,0,0-7,1.3,114.4,114.4,0,0,0-15.7,5.4l-2.7-10.8,6-6.4,11.4.2a50.8,50.8,0,0,1,7.9,10.3Zm-24.7,7.6c-9,3.9-17.6,8.5-25.9,12.3l-2.6,1.2-9.5-6.5-20.6,12.7L201.1,369l-1.2.4a50.7,50.7,0,0,1-1.7-12.9c0-1.6.1-3.2.2-4.7l9.9,3.8,22.1-13.4,5.4-14.1-8.9-9.1-13.1.9a50.6,50.6,0,0,1,17.1-10.8l-1.8,8.3,8.4,9,25.3-.6,7.6-8.2-4.7-8.8a50.6,50.6,0,0,1,16.5,9.8l-10-.2-7.5,7.9,3,12.3Zm-30.8,14.7c-10.3,5-21.9,10.7-32.3,14.4l5.9-7.6,19.1-11.5,7.2,4.8Zm-3.7-45.1-1.8,8.5,7,7.5,23.4-.5,5.9-6.4-5.1-9.4a50.9,50.9,0,0,0-29.4.4Zm-34.7,41.3,9.4,3.6,20.6-12.5,4.7-12.1-7.2-7.4-14.5,1a50.5,50.5,0,0,0-12.9,27.3Zm98.6,40.2a28.5,28.5,0,0,1-.6,4.8,6.2,6.2,0,0,1,3.1-1.3H301l-.5-4h-.1a7.7,7.7,0,0,0-3.1.5Zm-2,.7a7.8,7.8,0,0,0-2.6,1.9l-.6.6c-1.6,1.8-1.9,3.7-2.3,6.1h0a12.4,12.4,0,0,0,1.3,7.2,10.9,10.9,0,0,0,4.7,4.2,13,13,0,0,0,11.8-.1,13.6,13.6,0,0,0,4.8-4.3,19.3,19.3,0,0,0,2.9-6.2c.9-3.5.9-8.4-2.4-11.4a20.3,20.3,0,0,0-4-3,50.1,50.1,0,0,0,.9,5.2c.3,1.1.6,2.2.9,3.4a10.3,10.3,0,0,1,.5,3.5,8.9,8.9,0,0,1-2.6,6.6,8.6,8.6,0,0,1-5.9,2.5,9.8,9.8,0,0,1-5.8-1.1,6.2,6.2,0,0,1-3.4-5c-.2-1.9,1.6-7,1.7-10Zm7.4-.9.8,6a7.9,7.9,0,0,0-5.8.7,4,4,0,0,0-2,4.1,3.9,3.9,0,0,0,2.3,3.4,7.9,7.9,0,0,0,4.6.8,6.4,6.4,0,0,0,4-1.4,7.8,7.8,0,0,0,.4-10.9,9,9,0,0,0-4.3-2.6Zm4.6-.1c-.3-1.7-.6-3.4-.7-5.2a23.1,23.1,0,0,0-8.5-1.9,30.6,30.6,0,0,0-6,.4c-.3,2.5-.8,5.7-1.2,8.1h0a10.2,10.2,0,0,1,1.8-1.5,12.9,12.9,0,0,1,3.7-1.8,12.7,12.7,0,0,1,4-.7,11.4,11.4,0,0,1,6.9,2.4ZM187.6,353.3l1,9.6a9.6,9.6,0,0,0,3.7-2.6,8,8,0,0,0,1.9-3.6,10.8,10.8,0,0,0,0-4.7,15.7,15.7,0,0,0-1.1-2.5,14.4,14.4,0,0,0-18.6-6.2,13,13,0,0,0-4.7,3.6,12.5,12.5,0,0,0-2.7,5.4,14,14,0,0,0-.2,5,22.1,22.1,0,0,0,1.3,5.2c2.3,5.6,7.6,8.6,13.1,9.2-2-4.1-4.2-5.7-7.1-8.8a9.6,9.6,0,0,1-2.6-6.4,8.4,8.4,0,0,1,1.4-5.6,7.9,7.9,0,0,1,3.6-2.9,8.6,8.6,0,0,1,3.9-.8,8.1,8.1,0,0,1,4,1.1,5.8,5.8,0,0,1,3,3.6,6.1,6.1,0,0,1,.2,1.5Zm-1.1,10.3-.7-6.6a5.7,5.7,0,0,1-4.2,1.2l1.1,5.8a12.5,12.5,0,0,0,3.1-.2Zm-1.1-10.6h0a3.4,3.4,0,0,0-1.3-2.3,6,6,0,0,0-3.8-1.4,6.4,6.4,0,0,0-2.9.6,6,6,0,0,0-2.6,2.2,6.5,6.5,0,0,0-1,4.3,7.9,7.9,0,0,0,1.4,4.3,8,8,0,0,0,5.3,3.2l-1.6-8.4c1.1.4,2.8,1.1,4.4.6a2.7,2.7,0,0,0,2.1-2.6,3.2,3.2,0,0,0,0-.4Zm-5.2,12.9a28.3,28.3,0,0,1,3.4,5.9h4.8a45.2,45.2,0,0,0,8.2-1.4c-.4-3-.7-6.4-1-9.5v-1.3a10.9,10.9,0,0,1-2.5,3.1,13.4,13.4,0,0,1-6.7,3.2,15,15,0,0,1-5.6.1Zm22.8,49.6a24.7,24.7,0,0,0,5.3-.5,63.8,63.8,0,0,0,9.4-3c4-1.5,8-3.1,12-4.9s10.5-4.7,15.7-7.2,11.7-5.6,17.6-8.2c4.2-1.9,8.5-3.6,12.8-5.3s6.4-2.7,9.7-3.9a34.7,34.7,0,0,1,12-2.2,25,25,0,0,1,10.4,2.2,22.8,22.8,0,0,1,9.8,8.3c2-7.7,4.3-15.4,6.7-23s4.2-13.2,6.3-19.8c.8-2.7-.5-4.8-2.4-6.6a28.4,28.4,0,0,0-11.9-6.4,55.8,55.8,0,0,0-17.4-2.3,56.5,56.5,0,0,0-10.7,1.3,85.7,85.7,0,0,0-10.3,3,189.8,189.8,0,0,0-19.1,8.2l-18.9,9.2c-7,3.4-14,6.8-21.1,10a159.9,159.9,0,0,1-17.6,6.8,52,52,0,0,1-15.5,2.7,29.7,29.7,0,0,1-12.6-2.5c3.6,7,7.5,14.6,10.8,21.7l6.8,15a11.4,11.4,0,0,0,4,5,14.6,14.6,0,0,0,8.5,2.4Z" transform="translate(-38.7 -23.8)" fill="#ea2229" fill-rule="evenodd"/><path d="M185.3,378l12.5,32c5.1.7,9.4.2,15.4-2.2l-3.2-8.4c-2.8,1.1-6,1.9-8.2,1.3l-10.1-23.3-6.5.6Z" transform="translate(-38.7 -23.8)" fill="#ea2229" fill-rule="evenodd"/><polygon points="168.5 351.2 180.6 382.9 194.1 376.6 191.3 369.5 184.2 372.4 181.5 365.6 184.6 364.3 182.4 358.4 179.1 359.7 176.8 354.2 183.8 351.2 181.6 345.8 168.5 351.2 168.5 351.2" fill="#ea2229" fill-rule="evenodd"/><polygon points="188.3 342.7 199.7 374.5 205.2 371.5 193.1 340.3 188.3 342.7 188.3 342.7" fill="#ea2229" fill-rule="evenodd"/><polygon points="199.3 337.5 212.1 368.4 217.2 365.8 213.3 355.3 223.3 363.3 228.5 361.3 214 347.5 215.9 328.9 209.9 331.9 208.6 344.9 204.5 334.9 199.3 337.5 199.3 337.5" fill="#ea2229" fill-rule="evenodd"/><polygon points="221.6 326.1 233.5 359.1 238 357.2 234.8 345.7 243.8 354.8 247.5 353.9 237.6 318.5 231.9 321.5 235.4 335.6 225.3 324.1 221.6 326.1 221.6 326.1" fill="#ea2229" fill-rule="evenodd"/><path d="M283.2,339.5l7.8,36.3,5.2-.9-4.8-37a39.9,39.9,0,0,0-8.2,1.7Z" transform="translate(-38.7 -23.8)" fill="#ea2229" fill-rule="evenodd"/><path d="M301.5,338.6l-2,36.1,5.4.4,1.5-10.4c1.7-.1,3.4.1,3.9,2.4s0,6.3.7,8.9,2.6,4.4,5,5c-.4-6.4,4.8-13.3,1.7-18.1,4.2-1.1,6.8-5.5,7.3-10.2s-.8-10.2-8.4-12.1a120.5,120.5,0,0,0-15.1-2Zm7.3,7.1-1.1,10.6a28.4,28.4,0,0,0,4.4.6c3.1-.1,4.5-1.4,5.1-4s-.1-4.3-2-5.6-4.2-1.4-6.4-1.6Z" transform="translate(-38.7 -23.8)" fill="#ea2229" fill-rule="evenodd"/><path d="M449.4,61.4l-.5-1.7-1.7-.4c-.3-.1-22.9-5-85.7-5s-85.4,5-85.7,5l-1.7.4-.5,1.7c0,.1-11.9,41.7-11.9,83.9,0,16.2,1.7,32.4,6.7,46.6,9.1,25.6,32,48.3,52.6,64.8A317.1,317.1,0,0,0,360,283.4l1.5.8,1.5-.8a317.1,317.1,0,0,0,39.1-26.8c20.6-16.5,43.6-39.2,52.6-64.8,5-14.1,6.7-30.4,6.7-46.6C461.3,103.1,449.4,61.5,449.4,61.4Z" transform="translate(-38.7 -23.8)" fill="#666"/><path d="M447,62.1v-.3h-.3s-22.5-5-85.2-5-85.1,5-85.2,5H276v.3s-11.8,41.5-11.8,83.2c0,16,1.7,32,6.6,45.8,17.5,49.6,90.5,90.2,90.6,90.3h.5s73.1-40.7,90.6-90.3c4.8-13.7,6.6-29.8,6.6-45.7C458.8,103.6,447,62.1,447,62.1Z" transform="translate(-38.7 -23.8)" fill="#fff"/><path d="M447.8,69.5c-.9-3.7-1.5-6-1.8-6.8l-4.2-.7c-3.1-.5-7.8-1.1-14.5-1.7-13.4-1.2-34.7-2.5-66-2.5-47,0-71.3,2.8-80.5,4.2l-4.2.7c-.2.8-.9,3.2-1.8,6.8s-2.6,11-4.1,18.8c-2.9,15.5-5.9,36.3-5.9,57,0,15.9,1.7,31.8,6.5,45.4,15,42.9,72.8,79.5,86.9,87.9l2.9,1.7,2.9-1.7,8.5-5.3a329.5,329.5,0,0,0,26.9-19.4c20.4-16.3,42.9-38.8,51.5-63.3,4.8-13.6,6.5-29.5,6.5-45.4C457.8,114.1,451.2,83,447.8,69.5Z" transform="translate(-38.7 -23.8)" fill="url(#a)"/><path d="M452.6,97.2V92c-1.7-9.4-3.5-17.3-4.7-22.5v-.5c-5.4-.7-16.5-2.3-24.4-3.1-10.8-1.1-22.8-1.7-22.8-1.7h-2.2s-10.6-.4-26.2-.4H345.7l-13,.2c-10.5.3-13.9.6-14,.6h-1.3l-13.6,37.1V65.5h-2.1s-5.9.4-15.1,1.4l-11.4,1.4-.3,1c-1,4-2.2,9.4-3.5,15.9V190.7a91.6,91.6,0,0,0,9.7,19.3,88.2,88.2,0,0,1,22.7-30.4V139l10.3,32.9a87.4,87.4,0,0,1,30.1-12.1l-16.6-42.3,18.4-41.2v83.1a88.6,88.6,0,0,1,32.3.3v-24h19.2V108H378.3V97.3h20.1v69a88.2,88.2,0,0,1,32.3,25.6V135.7h19.2V107.9H430.7V97.2Z" transform="translate(-38.7 -23.8)" fill="#666"/><path d="M302.4,180.9V129.2l13.1,41.9a87.4,87.4,0,0,1,27.3-10.9L326,117.5l21.5-48.1v89.8a88.7,88.7,0,0,1,29.3.3V134.3H396V109.4H376.9V95.8h21.9V65.7h-.5s-10.6-.4-26.2-.4H345.7l-12.9.2c-10.4.3-13.9.6-13.9.6h-.3l-16.2,44.1V67.1h-.5s-5.8.4-15,1.4l-12,1.5c-.6,2.3-1.2,5.1-1.9,8.2V194.4a95.9,95.9,0,0,0,8.3,15.6A88.1,88.1,0,0,1,302.4,180.9Z" transform="translate(-38.7 -23.8)" fill="#fff"/><path d="M451.1,95.7V84.1c-1.1-5.4-2.1-10-3-13.6-5.1-.7-16.7-2.3-24.9-3.2-10.8-1.1-22.7-1.7-22.7-1.7h-.5V167a88.2,88.2,0,0,1,29.3,23.1V134.2h19.2V109.4H429.2V95.7Z" transform="translate(-38.7 -23.8)" fill="#fff"/><path d="M301.4,181.8V126h1l14,44.7a87.3,87.3,0,0,1,25.4-10.2L325,117.5,347.6,67v-.6h-1.8l-12.9.2-10.8.4-2.7.2-17,46.1-1-.2V68.1c-1.6.1-6.9.5-14.5,1.3s-10.6,1.3-12.3,1.6l-.6,2.7v123a98.7,98.7,0,0,0,7.3,13.2A88.1,88.1,0,0,1,301.4,181.8Z" transform="translate(-38.7 -23.8)" fill="url(#b)"/><path d="M375.9,159.3v-26h19.2V110.4H375.9V94.8h21.9V66.7l-6.8-.2-18.9-.2H348.9l-.4.8v91.9a88.4,88.4,0,0,1,27.3.2Z" transform="translate(-38.7 -23.8)" fill="url(#c)"/><path d="M450.1,94.7V79.3c-.6-2.9-1.2-5.5-1.8-7.8l-7.5-1-17.7-2.2c-5.4-.6-11-1-15.4-1.2l-6.8-.4V167.5a88.2,88.2,0,0,1,27.3,21.4V133.2h19.2V110.4H428.2V94.7Z" transform="translate(-38.7 -23.8)" fill="url(#d)"/><path d="M361.4,158.1A87.9,87.9,0,0,0,281.2,210c22.1,34.2,65.3,61.5,77.3,68.6l2.9,1.7,2.9-1.7,8.5-5.3a329.5,329.5,0,0,0,26.9-19.4c14.9-11.9,30.9-27.1,41.8-44A87.9,87.9,0,0,0,361.4,158.1Z" transform="translate(-38.7 -23.8)" fill="#666"/><path d="M361.4,160.1a85.9,85.9,0,0,0-78.9,51.8c22.5,33.3,64.2,59.6,76,66.6l2.9,1.7,2.9-1.7,8.5-5.3a329.5,329.5,0,0,0,26.9-19.4c14.3-11.4,29.7-25.9,40.5-42A85.9,85.9,0,0,0,361.4,160.1Z" transform="translate(-38.7 -23.8)" fill="#fff"/><path d="M313.5,243.8c-.5-5.7.5-11.2.8-16.8.2-2.7.7-5.4,1.1-8s.7-2.5.9-3.8.3-2.9.7-4.3c1.2-5.1,2.9-10.2,4.2-15.4s3.6-9.9,5.4-14.9a70.3,70.3,0,0,1,3.8-8.3c.3-.5.3-1.2.6-1.8s.8-1.2,1.1-1.8a26.2,26.2,0,0,1,2-4.1,86.2,86.2,0,0,0-47.9,39.9q-1.3,2.4-2.5,4.9a9,9,0,0,0-1.1,2.3c0,.9,1.2,2.3,1.8,3.1,2.5,3.5,5.2,6.9,8.1,10.2a209.3,209.3,0,0,0,20.9,20.9A6.7,6.7,0,0,1,313.5,243.8Z" transform="translate(-38.7 -23.8)" fill="#ccc"/><path d="M294,204.4l-8.4,1.2q-1.6,3.1-3,6.3a165.9,165.9,0,0,0,21.7,25.5l1.2-1.3Z" transform="translate(-38.7 -23.8)"/><path d="M361.4,160.1a85.6,85.6,0,0,0-39.2,9.4l.2,5.9,30.2,9.2,22-18,1.6-5.3A86.5,86.5,0,0,0,361.4,160.1Z" transform="translate(-38.7 -23.8)"/><path d="M412.1,176.7l10.1,29.6,15.1,9.8,2.9-4.2A86.2,86.2,0,0,0,412.1,176.7Z" transform="translate(-38.7 -23.8)"/><rect x="357.1" y="184.5" width="0.5" height="34.35" transform="translate(-79.4 77.9) rotate(-15.3)"/><rect x="393.3" y="153.2" width="0.5" height="37.76" transform="matrix(0.27, -0.96, 0.96, 0.27, 82.6, 480.48)"/><rect x="394.3" y="220.4" width="34.2" height="0.5" transform="translate(-53.1 388.3) rotate(-52.4)"/><rect x="288.6" y="189.8" width="39.2" height="0.5" transform="translate(-81.9 253.4) rotate(-45.6)"/><rect x="320" y="224.6" width="0.5" height="28.88" transform="translate(-12.2 486.2) rotate(-79.4)"/><path d="M363.6,217.6l-27.9,24,3.9,24.6c8.3,5.8,15.2,10,18.9,12.3l2.9,1.7,2.9-1.7,8.5-5.3a329.5,329.5,0,0,0,26.9-19.4l1.6-1.3-1-18.1Z" transform="translate(-38.7 -23.8)"/><path d="M393.2,258.1,392,244.7c-.2-2,0-4.6-.6-6.5s-.5-.8-1.5-1.3l-4.9-2.5a41,41,0,0,0-4.6-2.3c-1-.4-1-.1-1.8.7s-1.8,3.9-2,6.1a80.5,80.5,0,0,0,.4,13.8c.2,2.8.9,5.4,1.2,8.2a20.8,20.8,0,0,0,.9,3.7c.3,1.1.3,2.8,1.1,3.7l7.8-5.5C389.3,262,393.8,259.7,393.2,258.1Z" transform="translate(-38.7 -23.8)" fill="#666"/><path d="M320.9,182.6a61,61,0,0,0-8.6,8.4c-2.6,3-5.2,6-7.5,9.2l-1.4,2c-.3.6-1.2.9-1.4,1.7s.8,2.5,1.2,3.4l6.9,16.4c.5,1.1,1,3.7,1.9,4.5s3.2.9,4.2,1.1l8.6,2.1c.5.1,2,.8,2.4.6s.4-1,.4-1.5a25.2,25.2,0,0,1,.7-5.2c.5-1.8.5-3.7.9-5.5s.9-3.3,1.4-4.9a17.4,17.4,0,0,1,1.8-4.7c2.2-3.4,5.6-6.4,8.7-9s3.2-2.8,4.7-4.3,1.6-1.2,2.3-1.8,1.7-1,2.2-1.7l-15.2-6.1-9.9-3.9C324.3,183.1,321.8,181.3,320.9,182.6Z" transform="translate(-38.7 -23.8)" fill="#e6e6e6"/><path d="M321.4,252a15.2,15.2,0,0,0,.7-4,25,25,0,0,1,1-4.2l-11.1-1.6a8.8,8.8,0,0,0-2.1-.3c-1.1.2-.3.7.5,1.4q5.4,4.9,11,9.5A2.6,2.6,0,0,0,321.4,252Z" transform="translate(-38.7 -23.8)" fill="#e6e6e6"/><path d="M414.5,240.4c-.4-1.7.1-3.7.3-5.4a39.6,39.6,0,0,1,.6-5.4c.4-1.7,1.3-2.6.8-4.4l-2.1-7.6-9.8,12.8c-1,1.3-1.6,1.7-1.5,3.3l.8,9.1.7,7.7,6.4-5.5C411.6,243.9,415.1,241.9,414.5,240.4Z" transform="translate(-38.7 -23.8)" fill="#f0f0f0"/><polygon points="363.7 206.6 363.8 207.8 375.1 193.1 374.9 192.2 363.7 206.6" fill="#f0f0f0"/><path d="M369.8,170.7l-11,9.5-3.1,2.6a11.6,11.6,0,0,0-2.1,1.9c-.5.7-.2.9.1,1.9l8.6,30.7c0,.2.2,1,.3,1.1s.6-.6,1-.7.8.4,1,.4l7.3,3.4c-.3-3.5-.9-6.9-1.2-10.4-.2-1.8-.6-3.6-.8-5.5a40.4,40.4,0,0,0-.5-5.7,33.6,33.6,0,0,1-.7-5c-.2-1.9-.7-3.9-.4-5.8a20.7,20.7,0,0,1,4.9-10.2c.7-.8,1.6-1.5,2.2-2.4s2.2-1.6,2.2-2.3-1.4-3-1.7-3.8l-1.6-3.5Z" transform="translate(-38.7 -23.8)" fill="#e6e6e6"/><path d="M403.8,173.6c1.3.6,2.9,1.1,4.3,1.6a13.7,13.7,0,0,1,3.4,1.6c-1.3-2.3-4.7-3.8-6.8-5a85.4,85.4,0,0,0-25.4-9.8c-.6-.1-2.5-.8-2.9-.5s-.2.8-.3,1l-.9,2.9c.9-.2,1.9.4,2.8.6l3.9,1c2.4.5,4.7,1.3,7.1,2l3.8,1,3.7,1.3c1.2.4,2.7.5,3.9,1s1.1.7,1.7.9Z" transform="translate(-38.7 -23.8)" fill="#ccc"/></svg>