<svg xmlns="http://www.w3.org/2000/svg" xmlns:xlink="http://www.w3.org/1999/xlink" viewBox="0 0 389 631.4"><defs><clipPath id="a" transform="translate(0 0)"><rect width="389.4" height="631.76" fill="none"/></clipPath></defs><title>fjolnir</title><g clip-path="url(#a)"><path d="M0,0V455l.2,1.3a16.8,16.8,0,0,0,.7,2.9c.2.8.6,1.6.6,1.8a5.9,5.9,0,0,0,.6,1.4l.7,1.6A28.5,28.5,0,0,0,5,468.2c2.4,4.2,3.7,6.4,4.3,7.3a50.6,50.6,0,0,0,3,4.2l1,1.3c.7,1,10.9,12.6,11.8,13.5l2.6,2.7,4,4.2,5.7,5.9,9.5,9,5.8,5.4,8.5,7.7,5.4,4.7,8.4,7.1,13.6,11.4,8.9,7.4,8.6,6.7,22.3,17.1c11.6,8.8,14.6,11.1,19.8,14.9l11.1,8.2c5,3.7,5.3,3.9,19.9,14.2l14.9,10.4c.2,0,29.7-20.7,31.5-22.1l11.2-8.3,6.7-5,16.5-12.5c13.4-10.2,13.9-10.5,22.2-17l8.5-6.6,9.2-7.4L317.4,538c7.1-6,8.9-7.4,11-9.4l4.7-4.2c4.3-3.9,5.9-5.4,12.5-11.5l6.6-6.2,6.1-6.4,6.1-6.4,2.8-3.2,5.4-6.1,3.7-4.4,1.4-1.9,1.4-1.9c1.3-1.7,1.8-2.6,4.9-8a41.8,41.8,0,0,0,2.1-3.8,19.6,19.6,0,0,1,.9-2,9.4,9.4,0,0,0,.9-2.2l.6-1.8c.2-.7.2-1,.5-2.2l.2-1.4V0Z" transform="translate(0 0)"/><path d="M16.3,17.7V443.5l.3,1.5.2,1.3.5,1.6.7,2,.8,1.9.7,1.6,1.5,2.6c2.5,4.4,3.5,6.1,4.2,7.1s2.6,3.7,3.7,5l5.3,6.2c5.5,6.4,4.5,5.3,14.1,15.6l2.3,2.4,2.7,2.6,5.6,5.5,6.6,6.2,7.9,7.3,2.3,2,10.1,8.8,12.1,10.3,8.1,6.9,7.9,6.3c7.8,6.2,8.1,6.4,20.4,16,10.3,8,13.4,10.5,17.6,13.6l12.7,9.5,16.1,11.6,13.7,9.8c.1,0,.1.1.4-.1l13.8-9.9,13.5-9.7,5.1-3.8L254.9,564c12.4-9.5,12.7-9.8,20.4-16l7.8-6.3,8.2-7,15.9-13.6c6.8-5.8,7.9-6.8,10-8.8,6.4-5.9,10.4-9.7,15.8-14.8l5.9-5.6,5.5-5.9c5.3-5.7,5.6-6,7.8-8.5l5-5.8c2.9-3.4,4.2-5,5.3-6.6l1.2-1.8c.9-1.3,1.5-2.4,4.2-7.2l1.8-3.5.8-1.9a11.1,11.1,0,0,0,.8-2.1l.5-1.7a12.8,12.8,0,0,0,.5-2l.2-1.3V17.7Z" transform="translate(0 0)" fill="#1560aa"/><path d="M346.4,91.1,209,121.8c-.1.1.1,51.3.1,51.3l78-18.9h.1v56H287l-78.1,18.1c-.1,0-.1,51.2,0,51.2L287,260h.1s0,152.9-.2,155.6a15.7,15.7,0,0,1-.8,3.7,46.7,46.7,0,0,1-3.7,7.2,48.5,48.5,0,0,1-3,4.1l-1.5,1.8a24.3,24.3,0,0,1-2.2,2.2c-1.5,1.4-67,57.7-67,57.7s-.1,74-.1,74h.2l16.2-11.7,7.8-5.6,17-13.3,17-13.3,5.9-5.1,5.9-5.1,7.1-6.6,7.1-6.6,4.8-4.7c6.3-6.3,11.6-11.8,16.6-17.2l3.3-3.6L321,469c3.4-4.2,3.9-4.8,6.3-8l2.6-3.4,2.2-3.3,2.2-3.3,2.4-4.2c1.9-3.4,2.7-4.8,3.8-6.9a42.2,42.2,0,0,0,1.8-3.9c.3-.7.6-1.4.6-1.5s1.3-3.8,1.6-4.9a30.9,30.9,0,0,0,1.1-5.3,40.1,40.1,0,0,0,.6-5.8l.2-1.7V91.1Z" transform="translate(0 0)"/><path d="M335.8,102.3,218.6,130.7c-.1.1-.1,27.4-.1,27.4h.2L297,140.1c.1,0,.1,80.1,0,80.2l-78.7,18.1c-.1.1-.1,28.5,0,28.6L297,248.6V414.3l-.2,3.5c-.2,4.8-.2,4.3-1.6,8.6l-.6,1.5-1,1.8a40.4,40.4,0,0,1-2.4,3.9l-1.4,2.1-1.7,2-3.5,4.1-1.9,2.1-6.2,5.8-6.2,5.8-8.2,7.1-8.2,7.1-11.2,8.6c-10.3,7.9-11.8,9-17.8,13.5l-6.7,5v49h.1c-.2-.2,6.2-4.8,14-10.6l14.2-10.4,7.7-5.8,7.7-5.8,6.9-6c6.8-5.9,7-6,12.2-10.9l11.3-10.6,5.9-5.6,4.6-4.8,4.6-4.8,3.6-4.4c3.2-3.8,4-4.8,6.7-8.4l3.1-4,2.4-3.5,2.4-3.5,1.7-3.4,2.9-5.6,1.2-2.3,1.1-2.6,1.1-2.6.6-2.7c.6-2.7.6-2.8,1-5.2l.4-2.5.2-2.6.2-2.6V102.3Z" transform="translate(0 0)" fill="#f3e702"/><path d="M180,178.4V127.6h-.1L42.6,160.3h-.1v131c0,82.8.1,131.2.1,131.4s.1.7.1,1.1a20,20,0,0,0,.6,3.1,40.8,40.8,0,0,0,1.6,4.7c.1.3.5,1.3.8,2.1s2.6,6.1,4.3,9.7l1.5,3.1,2.2,3.6,2.2,3.6,2.6,3.8c3.3,4.7,3,4.3,3,4.6v.2l4.2,4.8,8.2,9.6,4.1,4.8,9.4,9.4,9.4,9.4,8.2,7.4,8.2,7.4,10.7,8.9,15,12.2c10.2,8.1,11,8.6,20.7,16l7,5.3,2.5,1.7,4.5,3,4,2.6a12.2,12.2,0,0,1,2.1,1.5V492.5l-16.4-14c-31.8-27.1-31.9-27.3-38.7-33.3s-6.5-5.8-9.1-8.2l-3-2.8-1.5-1.8-2.9-3.5a39.9,39.9,0,0,1-2.5-3.4c-1.6-2.5-2.6-4.2-3.1-5.1a11.4,11.4,0,0,1-.6-1.8,16.8,16.8,0,0,1-.4-1.7C101,415.4,101,303,101,303h.1L179.9,285V234.9l-78.2,16.9c-.1,0-.1-54.7-.1-54.7l78.3-18.6Z" transform="translate(0 0)"/><path d="M170.2,521.2V497.1h-.1l-7.8-5.8-7.8-5.7-6.7-5.3-13.8-11-7.1-5.7-7.8-7-7.8-7-4.2-4.5c-4-4.2-4.4-4.6-6.3-7a45.2,45.2,0,0,1-3.4-4.2l-1.3-1.7-1.4-2.6L93.2,427l-.3-1.1c-.4-1.4-.8-3.2-1.1-5l-.2-1.4V294.4L170.2,277c.1-.1.1-28.1,0-28.2L91.5,266.1h-.2V188.2L170.2,169c.1,0,.1-27.7.1-27.7h-.1l-117.3,27c-.1.1-.1,251.9-.1,251.9l.3,1.9.8,4.3.6,2.4.8,2.4.8,2.4,1,2.4,2.5,5.3,1.4,2.9,2.7,4.3,2.7,4.3,1.8,2.5,4.3,5.8,2.6,3.4,3.5,4.1,4.9,5.6c1.3,1.4,1.4,1.5,1.4,1.7s0,.2.4.6l9.8,9.5,9.4,9.1,10,8.6,10,8.6L139.6,524l15.1,11.7,7.8,5,7.8,4.7S170.3,534.4,170.2,521.2Z" transform="translate(0 0)" fill="#f3e702"/><polygon points="94.6 47.6 94.6 30.6 42.5 30.6 42.6 134.2 62.2 129.4 62.3 129.4 62.3 74.3 86 74.3 86 59.1 62.3 59.1 62.3 47.6 94.6 47.6"/><polygon points="91.4 44.3 91.4 33.8 45.7 33.8 45.7 130.1 45.8 130.2 58.9 127 59 126.9 59 71 82.6 71 82.6 62.3 59 62.3 59 44.4 91.4 44.3" fill="#f3e702"/><path d="M100.1,30.6v71.5a5.6,5.6,0,0,1-3,3.2,10.2,10.2,0,0,1-6.9.7,5,5,0,0,1-3.8-2.9V99.4c0-1.8.1-19.7.1-19.7h-19s-.1,27.3.2,28.8c1.1,5.6,5.3,10.6,11.5,13.6a32.8,32.8,0,0,0,12.8,3.1h3.5c7.5-.6,14.1-3.4,18.6-8a17.8,17.8,0,0,0,5.1-10.5c.1-.6.1-76.2.1-76.2Z" transform="translate(0 0)"/><path d="M103.5,33.8v68.8a8.1,8.1,0,0,1-4.7,5.5,13.7,13.7,0,0,1-5.5,1.4,12.1,12.1,0,0,1-4.6-.6,7.5,7.5,0,0,1-5.3-5.3c-.1-.3-.1-20.5-.1-20.5H70.5s0,23.4.1,23.9a13.5,13.5,0,0,0,4.1,8.2,24.2,24.2,0,0,0,12.6,6.5l4.2.6h3.6c6.6-.4,12.6-2.9,16.6-6.9a14.4,14.4,0,0,0,4.4-8.3V33.8Z" transform="translate(0 0)" fill="#f3e702"/><polygon points="204.2 83.2 204.2 30.6 184.5 30.6 184.5 103.4 184.6 103.4 230.1 93.9 230.1 78.1 204.2 83.2"/><polygon points="226.9 82 201.1 87.1 201 33.7 187.8 33.7 187.8 99.4 226.9 91.4 227 82 226.9 82" fill="#f3e702"/><polygon points="239.1 30.6 239 43.6 239 43.7 227.8 30.6 208.1 30.6 208.1 79 208.2 78.9 228.2 74.5 228.3 61.1 239 73 239.1 93.1 259.1 88.5 259.1 30.6 239.1 30.6"/><polygon points="242.3 33.8 242.3 52.6 226.3 33.8 211.4 33.8 211.4 74.9 211.4 75 225.2 72 225.3 52.6 242.4 71.8 242.4 88.9 242.5 88.9 249.1 87.4 255.8 85.8 255.9 33.8 242.3 33.8" fill="#f3e702"/><polygon points="263.2 30.6 263 87.8 283.1 83.7 283.5 30.6 263.2 30.6"/><polygon points="266.4 33.8 266.4 33.8 266.2 83.8 280 81 280.3 33.8 266.4 33.8" fill="#f3e702"/><path d="M335.3,63.5l3.3-2.9,1.8-1.8a19.5,19.5,0,0,0,2.2-2.3,33.2,33.2,0,0,0,2.7-3.5l1.1-1.8a20.4,20.4,0,0,0,2.2-4.6c.3-1,.3-1.3.3-4.9a19.8,19.8,0,0,0-.2-4.2,7.3,7.3,0,0,0-1.2-2.8l-1.4-1.4a6.2,6.2,0,0,0-3.2-1.3H287.2l-.3,52.8,20.6-4.2V67.8a34.9,34.9,0,0,1,2.8,2.2l3.9,3.7c1.6,1.5,1.7,1.6,2.2,3.4s.3,1,.4,1l35.5-6.2Z" transform="translate(0 0)"/><path d="M345.8,38.3a3.7,3.7,0,0,0-2.4-2.9H290.6l-.2,45,13.7-3v-31h26.7v1.1a11,11,0,0,1-.4,3.4,15.8,15.8,0,0,1-1.8,3.9c-2.8,4-8.1,7.1-14.6,8.6a36.8,36.8,0,0,1-4.7.7l-.6.2c0,.1.3.4,1.4,1.2l3.2,2.7,3.5,3.3a11.2,11.2,0,0,1,1.7,1.8l.5.8.2.2,22.5-3.9h0l-10.6-5V62.7l1.4-1.1,2.5-2.1,1.8-1.6a36.2,36.2,0,0,0,6-6.7l1.1-1.7a21.5,21.5,0,0,0,1.9-3.8l.2-.4V42A21.7,21.7,0,0,0,345.8,38.3Z" transform="translate(0 0)" fill="#f3e702"/><path d="M308.4,60.9a29.4,29.4,0,0,0,12.7-3.8,14,14,0,0,0,5.4-5.4c.4-.8.9-2.1.7-2.2h-20s-.1,11,0,11.2V61h1.1" transform="translate(0 0)" fill="#1560aa"/><polygon points="124.9 49.4 124.9 116 180.6 104 180.6 49.4 124.9 49.4"/><polygon points="128 52.7 127.9 111.9 128.1 111.9 177.2 101.3 177.2 52.7 128 52.7" fill="#f3e702"/><polygon points="141.9 64.1 141.8 97.2 163.3 92.3 163.4 64.1 141.9 64.1"/><polyline points="160.2 89.8 160.2 89.8 160.2 67.4 145.1 67.4 145.1 93.3" fill="#1560aa"/><rect x="124.9" y="30.6" width="20.3" height="17.28"/><rect x="128.2" y="33.9" width="13.8" height="10.72" fill="#f3e702"/><rect x="160.2" y="30.6" width="20.3" height="17.28"/><polygon points="163.5 33.8 163.5 44.5 177.3 44.6 177.3 33.9 163.5 33.8" fill="#f3e702"/></g></svg>