<svg xmlns="http://www.w3.org/2000/svg" viewBox="0 0 265.8 312.4"><title>fram</title><path d="M400,143.8c-31.9.6-46,33.9-113.7,27.5-6.4,11.5-19.3,31.4-19.2,31.3,22.4,31.3,18.7,66.7,21.9,133.1S373.8,407.6,400,456.2c26.2-48.6,107.1-53.4,111.1-120.7,4.4-73.9-.6-101.6,21.8-132.9,0-.1-12.8-19.8-19.2-31.3C446,177.7,431.9,144.4,400,143.8Z" transform="translate(-267.1 -143.8)" fill="#175da1"/><path d="M366.8,172.3s-.1,19,0,22.8,4.3-.8,10-4.8,5.4-7.2,6.1-11.9-1.7-9.5-3.9-10.6C373.1,165.6,366.8,172.3,366.8,172.3Z" transform="translate(-267.1 -143.8)" fill="#fff"/><path d="M428.6,189.4c4-.3,8.9,2.3,8.9,2.3s-.9-14.2-1.1-16.6-5-5.4-5.5.3C430.1,184,429.3,183.4,428.6,189.4Z" transform="translate(-267.1 -143.8)" fill="#fff"/><path d="M487.7,177.2c11.5,1.4,16.9,0,16.9,0l-9.4,10.5S491.7,182.6,487.7,177.2Z" transform="translate(-267.1 -143.8)" fill="#fff"/><path d="M408.7,212V200.1l4.2-.9s10.3-22,5.2-28.4c-.3-.3-3.8-2.9-3.8-3.2s-2.6-14.2-2.6-14.2a29,29,0,0,0-22.3-1c16.1,16.6-4.6,41.2-4.6,41.2a35.7,35.7,0,0,0,3.7,7.7,16.5,16.5,0,0,0,7,5.5v4.8h4.5C402.9,211.6,405.8,211.8,408.7,212Z" transform="translate(-267.1 -143.8)" fill="#fff"/><path d="M374.9,201.4s-5.8,4.2-7.6,5.1-.6,6.2-.5,10.7c2.7-.9,5.4-1.8,8.1-2.5C375,209.2,374.9,201.4,374.9,201.4Z" transform="translate(-267.1 -143.8)" fill="#fff"/><path d="M469.3,220.4s3-2.7,3.2-5.4c1.3-10.5,1-14.1.6-21.5.3-4.5-5-6.8-6.6-8.4s-2.1-10.6-2.1-10.6a47.6,47.6,0,0,1-15.2-5.5c-.3,3.4,7.4,38.3,7.4,38.3s4,2.6,4,4.2v20.3a102.9,102.9,0,0,1,8.6,7.2C469.3,234.6,469.3,220.4,469.3,220.4Z" transform="translate(-267.1 -143.8)" fill="#fff"/><path d="M493.7,251.9c8.1-.7,8-6.6,9.8-11.6,2.6-12.9,4-44.1,3.5-43.5-5.5,7.4-11.5,16.1-11.5,16.1l-12.8-17s-.6,12.5-.4,22.1c0,3.1,2.9,5.7,2.9,5.7s.1,18.9.3,35.1a101.3,101.3,0,0,1,7.3,13.5V255.1C492.8,252.5,493.4,251.9,493.7,251.9Z" transform="translate(-267.1 -143.8)" fill="#fff"/><path d="M347,226.6V213.7l5.9-2.6c9.2-14.1-4.5-18.6-4.5-18.6s.3-12.7,0-21c0-.8-9.4,3.2-9.4,3.2v22.4s-10.6-.8-11.3-.1c-1.9-7.7-22.4-16.5-29.8,1.2a11.6,11.6,0,0,0,.3,8.8c.4,1,3.8,4.5,11.9-.5v18a12.2,12.2,0,0,0-2.9-1s-8.9-2.6-8.9,2.6c0,27,2.6,23.8,8.9,25.8.4.1.7,2.2.7,5.6s.1,7.8,0,13.2A102.2,102.2,0,0,1,347,226.6Z" transform="translate(-267.1 -143.8)" fill="#fff"/><path d="M436.3,205.8a9.2,9.2,0,0,0,1.4-1.9,9.9,9.9,0,0,0-.1-6.1s-1.5-1.8-10.3-2.9c.4.4-3.1,6.9.1,8.4l-.6,12a100.6,100.6,0,0,1,9.6,3.1C436.4,212.1,436.3,205.8,436.3,205.8Z" transform="translate(-267.1 -143.8)" fill="#fff"/><path d="M298.5,313.2A101.5,101.5,0,1,0,399.9,211.6,101.6,101.6,0,0,0,298.5,313.2Z" transform="translate(-267.1 -143.8)"/><path d="M464.2,276.4l-1.6-2.1c-2.1-2.7-4.3-5.4-6.6-7.9l-2.9-3c-2.7-2.9-5.4-5.9-9.4-6.3h-.2c-2.4,2.1-5.2,4.2-7.6,6l-.8.6c-3.7,3.1-8.1,5.5-12.7,7.9a114.1,114.1,0,0,1-12,4.8l-.7.2a13.4,13.4,0,0,0-3,1.1,145.3,145.3,0,0,1-24.6,4.7,195,195,0,0,1-23.6,1.2h-.1c-.6.3-4.3,6.1-4.5,7.2a104.7,104.7,0,0,0-5.9,33.3v.6c0,5.8,0,11.8,2,17.1a6.6,6.6,0,0,0,5.9,1.9,51.3,51.3,0,0,0,5.6-.4l5.1-.4a205.4,205.4,0,0,0,32.7-4.4,131,131,0,0,0,17.6-5.1,106.9,106.9,0,0,0,10.4-3.5c2.8-1.1,5.7-2.1,8.6-3,10.7-4.6,22.1-9.8,32.8-16.8,2.6-2.1,2.7-5.7,2.8-9.1l.2-3.2A36.7,36.7,0,0,0,464.2,276.4Z" transform="translate(-267.1 -143.8)" fill="#c78719"/><path d="M480.3,334.9v-.7a31.5,31.5,0,0,0-1.9-9.2,18.6,18.6,0,0,0-2.5-6.6l-1.8-3.8h0l-.4-.6c-.6-.9-1.4-2.3-3-1.7l-1.1.6a51,51,0,0,0-6.7,3.9l-4,2.1-10.3,5.6-.4.2a38.5,38.5,0,0,0-6.3,3.2h0l-4.8,2.1a41.1,41.1,0,0,1-7,2.8,13.8,13.8,0,0,1-3.8,1.7,14.3,14.3,0,0,0-3.5,1.5,35.6,35.6,0,0,0-7.1,2.2,31.6,31.6,0,0,1-8.4,2.4,55.6,55.6,0,0,1-12,2.8c-2.7.4-5.4.8-8.1,1.5-8.7,1.4-17.1,2-26,2.6l-8.1.6-1.5,1.1h0a3.2,3.2,0,0,0-.2,1.1,7.8,7.8,0,0,0,.4,2v.3c.7,2.5,1.6,4.8,2.5,7.1l.7,1.9v.2a15.8,15.8,0,0,0,2.4,3.4,1.2,1.2,0,0,0-.2.4,1.8,1.8,0,0,0,.4,1,1.3,1.3,0,0,1,.3.6h0l3.4,5.5a64.9,64.9,0,0,0,6,8.9,47.2,47.2,0,0,0,10,9.9c3.4,4.1,9,3.9,14,3.6h2.9l2.4-.4c11.1-2,22.6-4.1,33.1-8l5.3-2.1a56.1,56.1,0,0,0,7.5-3.2l5.3-2.9c9.7-5.2,18.9-10.1,27.1-17.7l.4.2h.1a.6.6,0,0,0,.5-.3v-.2a1.2,1.2,0,0,0-.2-.5l1.6-1.8a11.6,11.6,0,0,0,2.5-3.3,47.4,47.4,0,0,0,.9-9.9C480.8,341.5,480.5,338.2,480.3,334.9Z" transform="translate(-267.1 -143.8)" fill="#c78719"/><path d="M422.2,229.4c-1.5-1.5-14.3-14.6-17-14.7h.1c-4.5-1.3-10.3-.9-15.4-.4l-.8.3c-.7.2-1.8.5-1.4,1.8a3.2,3.2,0,0,0,1.6,1.5,2.9,2.9,0,0,1,1.1.9h.1a29.5,29.5,0,0,1,5.7,4.6l2,1.9,3.5,3.8a102.3,102.3,0,0,1,7.7,8.9l.5.7a78.2,78.2,0,0,1,7.5,12.9h.1a3.3,3.3,0,0,1,.9,1.1,2.4,2.4,0,0,0,1.6,1.4,28.2,28.2,0,0,0,.9,3.4c.3,1,.7,2.2.7,2.4h0a9,9,0,0,1,.5,2.9,7,7,0,0,0,1,3.9h.2c2.5.9,4.7-.8,6.6-2.3l2.3-1.6,2.4-1.9a27.1,27.1,0,0,0,5.7-5.3,3.7,3.7,0,0,0,.4-1.8,7.6,7.6,0,0,0-.4-2.2C435.5,243.1,429.3,236.7,422.2,229.4Z" transform="translate(-267.1 -143.8)" fill="#c78719"/><path d="M411.8,215.5h-.2v.2c0,.4.8,1.3,6,6.2s9,8.7,11.1,11.3c1.7.9,3.5.8,5.3.6h2.2c6.7-.5,13.9.6,22,3.3l1,.5c.6.3.9.5,1,.7-8.1-1.5-16.4-3.1-24.7-2.2-.6.3-1.4.8-1.4,1.7a1.8,1.8,0,0,0,.1.6c2.1,3.2,4.2,6,6.4,9l3.7,5,5.2,4.6a82.5,82.5,0,0,1,8.4,7.8,59.7,59.7,0,0,1,12.7,18.8l.4,1.2a2.9,2.9,0,0,0,.6,1.5l.6,2.4a29.4,29.4,0,0,1,1.3,7.8q0,.7-.1,1.5c0,.5.1,1,.1,1.4s-.1,2.2-.2,3.3-.2,2.2-.2,3.3a9.9,9.9,0,0,0,1.1,4.9l.7.5c2.7,4.3,5.7,9.7,6.8,15.9a61.7,61.7,0,0,1,1.3,13.8c0,4.1-.2,8.2-.4,11.8v.3a4.9,4.9,0,0,0-.1,1.1,5.2,5.2,0,0,0,1,3.1c1.5,1.2,3,2.2,4.9,1.2h.1l1-1.7h.1a98.9,98.9,0,0,0,7.7-21.9c.7-3.8,1.5-8.1,2-12.7.3-3,.4-6,.4-9a99.9,99.9,0,0,0-86.1-98.8l-.3.2A5.3,5.3,0,0,1,411.8,215.5Z" transform="translate(-267.1 -143.8)" fill="#c78719"/><path d="M324.9,248.1v.2l-.3.9c-.3.7-.6,1.6.2,2l5.4,2.2c2.6,1,5.1,2,7.5,3.2a28,28,0,0,0,3.9,2.8c2.4,1.5,4.8,3.1,6,5.3l.5.4a11.9,11.9,0,0,1,3.5,3.6,49,49,0,0,1,6.2,10c.7,2.3,2.9,2.4,4.8,2.5a10.3,10.3,0,0,1,2.3.3h.2a6.4,6.4,0,0,1,2.2-.2c1.5,0,3.2.1,4.1-1.5a9.9,9.9,0,0,0,.1-1.1,20.6,20.6,0,0,0-1.3-6.1l-.8-2.8-.2-.5a2.8,2.8,0,0,1-.3-1.1.9.9,0,0,1,.2-.5l.3.2.5.4,1.1,3.5c.9,3,1.9,6.4,3.4,8.5l.2.3.3-.3c.2-.2.2-.2.7.1s1.8,1.3,3.7-.4h.1v-.2c-.2-1.8-1.9-5.4-3.4-8.6a46.6,46.6,0,0,1-2-4.5,7.2,7.2,0,0,0-1.2-2,5.4,5.4,0,0,1-1.1-2c-2.4-6.6-7.4-11.4-12.2-16l-.6-.5-2.9-2a31.1,31.1,0,0,0-4.5-2.9c-4.3-2.6-9.1-5-14.6-4.5h-.1a31.4,31.4,0,0,0-4.1,3.1l-2.1,2c-1.9,1.9-3.6,4-5.4,6.2Z" transform="translate(-267.1 -143.8)" fill="#c78719"/><path d="M314,355.7c-1.7-4.2-3.5-16.8-4-24.9-1-12,1.3-24.3,3.3-33.7l2.5-7.9,2.8-8.8,3.1-7c1.2-2.9,2.5-5.8,4-8.6a13.7,13.7,0,0,1,1.3-3,10,10,0,0,0,1.6-4.9v-.3h0c-1.2-2.4-4.1-2.3-6.6-2.3h-1.6a8.5,8.5,0,0,0-2.1,1.7l-2,3-.5,1-1.3,1.8c-1.4,2.3-2.6,4.6-3.8,7l-.4,1-.4.8a99.5,99.5,0,0,0,8.6,99.8l-1-2.9C316.1,363.5,314.1,357.9,314,355.7Z" transform="translate(-267.1 -143.8)" fill="#c78719"/><path d="M377.9,405l1.2-2.2a3.4,3.4,0,0,0,.3-1.4c0-1.9-2-3.2-3.7-4.3a11.5,11.5,0,0,1-2-1.5,132,132,0,0,1-16-16.1v-.2h0l.2-.2,5.4,5.5c4.9,5.2,10.5,11,16,14.4h.2c.7,0,.9-.4,1.1-.8l.3-.6c.2-.4-.2-.8-1-1.3a4.4,4.4,0,0,1-.9-.8h0v-.2a21,21,0,0,1-4.8-3.8,27.8,27.8,0,0,0-3.1-2.7c-4.3-3.2-7.5-7.8-10.6-12.2l-1.7-2.3a30.4,30.4,0,0,0-2.2-4.1,23.8,23.8,0,0,1-2.7-5.4c-1.7-2.1-2.3-4.6-3-7.2a26.9,26.9,0,0,0-2.1-5.8h0c0-.1-.2-1.5-.2-1.5-.3-2.5-.5-4.4-1.1-4.8h-.1a37.3,37.3,0,0,1-1.2-8.1l-.6-5.4q-.1-2.8-.1-5.5a116.7,116.7,0,0,1,5.7-36.2,14.1,14.1,0,0,1,1.9-4,9.7,9.7,0,0,0,2-5.5c0-.1,0-.3,0-.4a61.1,61.1,0,0,0-8.4-13.7h0a46,46,0,0,0-10-7.5h-.4a5.3,5.3,0,0,0-2,3.2,6.6,6.6,0,0,1-1.1,2.4c-.8,0-1.5,1.2-2.1,2.3a8.3,8.3,0,0,1-.9,1.4c.1-1.1,1.5-3.3,2.7-5.2a17.7,17.7,0,0,0,2.3-4.4v-.2l-.2-.2c-.3-.1-.5.1-1.4,1.2a14.9,14.9,0,0,1-1.9,2l.6-1.8a7.6,7.6,0,0,0,.5-1.8.4.4,0,0,0-.1-.2l-.3-.4-.3.4c-3.3,5.1-7.4,15.3-9.8,22.5l-2.5,6.5-3.2,8.3-1,4a64.9,64.9,0,0,0-2.3,15.8c0,.1,0,2,0,4.7,0,4.8-.1,11.9-.3,14.3,1.1,9.8,2.7,21.3,6.6,32.5a55.7,55.7,0,0,0,6.7,13.3,99.8,99.8,0,0,0,46.5,29.1l1.6.3C376.1,408.9,377.1,406.8,377.9,405Z" transform="translate(-267.1 -143.8)" fill="#c78719"/><path d="M484.8,362h0a3.1,3.1,0,0,0-1.4-1.6l-.7-.5c-2.5-1.2-4.4.4-6,1.8l-1.1.9h.1c-1,.1-3.8,2.5-5,3.6a76.1,76.1,0,0,1-9.9,7l-5.4,3.5c-9.7,6.5-20.8,11.5-34,15.3a26,26,0,0,0-4.8,1.3,20.9,20.9,0,0,1-6.2,1.4c-5.9,1.9-11.6,2.3-17.6,2.7l-3.3.2a5.6,5.6,0,0,1-2.4,0c-1.3-.2-2.7-.3-3.6.5l-.6.9a4.1,4.1,0,0,0-.9,1.9v.2a.7.7,0,0,0,.4.5c3.4,1.2,7.9,1.2,12.2,1.3a69.1,69.1,0,0,1,7.4.4h0c-7.8,1.1-14.2,1-19.6-.4h-.2c-1.6.7-2.9,2.5-3.9,5.4-.3,1.1.5,1.5,1,1.7l.4.2a4.9,4.9,0,0,0,1.7.8,99.6,99.6,0,0,0,103.4-45.5A6.7,6.7,0,0,0,484.8,362Z" transform="translate(-267.1 -143.8)" fill="#c78719"/><path d="M341.7,234.6h.1c12.1,5.3,25.3,12.5,31.5,26.2a62.3,62.3,0,0,1,7.6,17,3.8,3.8,0,0,0,2.3,2.5c6.1.1,11.8-1.4,17.4-2.8l4.5-1.1a8.4,8.4,0,0,1,2.6-1c1.7-.4,3.6-.9,4-3.1a21,21,0,0,0-1.8-6.6,27,27,0,0,1-1.6-4.9,4,4,0,0,0,.7-2.3,13.9,13.9,0,0,0-.2-1.8v-1.8h.1c.6.7,1.5,3.1,2.3,5.7l-.5-.4a1,1,0,0,0-1.2.3c-.7.4-.2,2.6,2.3,8.9l.6,1.6c.4,1.4,2.1,1.7,3.1,1.7h.1l1-.5a9.1,9.1,0,0,0,3.4-2.4,8.6,8.6,0,0,0,.2-4.1v-1.3a70.3,70.3,0,0,0-13.1-25.8,49.9,49.9,0,0,1-3.8-4.5,34.8,34.8,0,0,0-5.8-6.3L393,224c-3-2.7-6.1-5.4-10-6.7s-17,2.6-17.1,2.6a.8.8,0,0,0-.4,1c.1.2.4.9,1.9.8a14,14,0,0,0,2.5-.7,19,19,0,0,1,3.5-1,2.8,2.8,0,0,1,2.2.4h.1l-1.2.4c-2.1.7-3.8,1.3-4,2.1v.2a.7.7,0,0,0,.2.5,11.3,11.3,0,0,0,2.2,1.8l1.7,1.4a10.6,10.6,0,0,1,5.7-1.5l2.7.6c.4,1.5-1.1,1.6-2,1.9s-2.5.1-3,1.1,1.7,2.7,2.4,3.2,1.5.9,3.4,1.1,4.3-2.5,5.5-1.6a2,2,0,0,1,.7,1.6c-1.1,1.3-4.4.4-5.4,2.1s1.5,2,1.8,2.7.6,1.9,1.8,1.6,4.6-3.3,6-1.2-.2,1.1-.8,1.7-4,.3-3.8,2.6c.4.6,1.9,2.8,1.9,3.5-1.8-.1-2.8-3.6-4.7-4-2.3,1-4.1,2.3-5,.9s6.5-2,.4-6.3c-1.9-3.2-5,2.5-7.1.4.1-1.5,3.6-1.9,2.9-3.6s-2.7-3.8-4.5-3.6-5.4,4.4-7.4,2.9c-.4-.2-.2-1-.2-1.5l5.4-3.2h.5a6.8,6.8,0,0,1-2.5-1.8c-.4-.5-.7-.8-1-.8-2.7-1.7-6.4.8-9.4,2.8-.1.1-.4.3-1-.1s-.2-.2-.2-.3,1.7-1.7,3-2.5a15.5,15.5,0,0,0,2.7-2,.6.6,0,0,0,.2-.6c-.2-.5-.9-.6-1.8-.7H361c-2,.4-6.1,2.3-10,4.4a99.7,99.7,0,0,0-8.7,5.6h-.1C341.7,232.7,341.1,233.7,341.7,234.6Z" transform="translate(-267.1 -143.8)" fill="#c78719"/><path d="M456.8,240.9c4.2,2.5,8.4,5.4,12.4,8.4.1,1.2-4.1-1.2-4.2-.3s6.1,4.2,4.6,4.9c.7.1-5.9-3.7-8.6-5.9-.6-1,4.9,1.9,4.4.8-2-2.2-7.2-5.8-9.8-7.8C455.5,240.2,456.4,240.8,456.8,240.9Z" transform="translate(-267.1 -143.8)"/><path d="M432,246a17.6,17.6,0,0,1,2.8,5.3h-.7l-4.8-7.3v-.9C430.8,243.4,431.1,245,432,246Z" transform="translate(-267.1 -143.8)"/><path d="M409.8,249.3c1.1,1.2.5,3.7,2.1,4.5,2.1,3.6,2.9,7.5,4.6,11.2v1.3c-1.2.1-1.5-1.4-2-2.3a101.6,101.6,0,0,0-7.7-18.6v-1C408.3,245.5,408.6,247.8,409.8,249.3Z" transform="translate(-267.1 -143.8)"/><path d="M428.1,258.7c-.3.3.1,1-.4,1s-1.6-3.5-2.8-5.1a68.5,68.5,0,0,0-4.9-9.6v-.6C423.8,248.2,425.5,253.9,428.1,258.7Z" transform="translate(-267.1 -143.8)"/><path d="M426.8,244.8c2.4,2.5,3.5,5.7,4.6,8.8-1.7-.4-1.8-5.9-4-5.8s-2.2-1.6-2.6-2.9S425.4,244.5,426.8,244.8Z" transform="translate(-267.1 -143.8)"/><path d="M397.7,251.3v.6c-1.9,1-4,2-6.1,1.7-.1-.1-.5-.4-.4-.7a9.5,9.5,0,0,1,6.5-2Z" transform="translate(-267.1 -143.8)"/><path d="M365.4,268.9c.4,2.7,2.8,4.8,2,7.8-2.4-3-2.5-7.3-4.4-10.6s-3-5.2-4-8l.2-.5C362,260.9,363.2,265.1,365.4,268.9Z" transform="translate(-267.1 -143.8)"/><path d="M322.7,260.7c-1.8,2.9-2,6.5-4,9.4-.3,0-.3.5-.7.3s.1-2.3.7-3.3,1.7-5.4,3.6-7.3C322.9,259.6,322.6,260.4,322.7,260.7Z" transform="translate(-267.1 -143.8)"/><path d="M337.4,268.7c-.5.9-.7,2.1-1.6,2.6,0-1.2.4-2.5,1.4-2.9Z" transform="translate(-267.1 -143.8)"/><path d="M383.7,274c-.3.6-.7.1-1.1.1l-1.5-4.4.2-.6C382.1,270.6,383.5,272.1,383.7,274Z" transform="translate(-267.1 -143.8)"/><path d="M362.3,271.8c.3,1.6,1.3,3.1,1,4.6-1.6-1.9-1.6-4.5-2.8-6.7l.2-.5C361.7,269.6,361.9,270.9,362.3,271.8Z" transform="translate(-267.1 -143.8)"/><path d="M346.8,277.8c-1.4,3.9-1.7,8.2-3.6,11.8-.5.1-.6-.4-.5-.7.9-3.9,1.9-8,3.9-11.4Z" transform="translate(-267.1 -143.8)"/><path d="M314.4,280.8c0,.4-.5.1-.7.2a3.2,3.2,0,0,1,1-2.7C315.4,278.9,314.8,280.1,314.4,280.8Z" transform="translate(-267.1 -143.8)"/><path d="M347.6,285.4a22.5,22.5,0,0,1-1.9,5.1c-.5-.3-.3-1.2-.2-1.6a30.2,30.2,0,0,1,2.4-6.9C349,282.9,347.8,284.3,347.6,285.4Z" transform="translate(-267.1 -143.8)"/><polygon points="188.4 155.7 190.5 154.1 190.7 154.1 188.4 155.7"/><path d="M452,307.1c.2-.9,1.4-.7,2-1.3s3.8-2.1,5.7-3.5A43.5,43.5,0,0,1,452,307.1Z" transform="translate(-267.1 -143.8)"/><path d="M462.5,305.5c-4.6,3-9,6.1-14.1,8,4.5-2.7,9.2-5.2,14.1-8.2Z" transform="translate(-267.1 -143.8)"/><path d="M466.4,307.7c-5.7,4.9-13.3,7.8-20.1,11.2l-6.1,2.2c5.2-2.9,10.8-4.5,15.8-7.8s6.8-3.9,10.2-5.9Z" transform="translate(-267.1 -143.8)"/><polygon points="199.8 174.9 201.7 173.5 201 174.3 199.8 174.9"/><polygon points="197.8 176.2 198.4 175.7 198.7 175.7 197.8 176.2"/><polygon points="201.5 177.2 202.7 176.4 201.7 177.2 201.5 177.2"/><path d="M491.4,323.2c-.2,6.8-2.6,12.9-3.6,19.5-.7,1.2-.5,3.3-2.1,3.6v-1.2c1-3.8,2.6-7.4,3.1-11.5,1.2-1.6.5-4,1.1-5.9a18.5,18.5,0,0,1,1.3-4.9Z" transform="translate(-267.1 -143.8)"/><path d="M487.7,326.4c.4,2.4-.7,4.7-1,7-.1.1-.4.7-.7.3-.6-2.7.9-4.9,1.4-7.3Z" transform="translate(-267.1 -143.8)"/><path d="M448.4,328.5c0,.5-.5.3-.8.4h-.2A1.6,1.6,0,0,1,448.4,328.5Z" transform="translate(-267.1 -143.8)"/><path d="M370.7,340c-4,1.8-9.3,1-13.9,1-.4-.3-.5-.7-.1-1,4.4-1,8.3-.3,12.7-.3A3.5,3.5,0,0,1,370.7,340Z" transform="translate(-267.1 -143.8)"/><path d="M470.9,348c.6-.3,1-1.2,1.7-1.3S471.5,347.5,470.9,348Z" transform="translate(-267.1 -143.8)"/><path d="M473.9,349.7c-.5,1.4-2,1.8-3,2.7h-.5A6.8,6.8,0,0,1,473.9,349.7Z" transform="translate(-267.1 -143.8)"/><path d="M475.8,354.5c-.6,1.6.9.2-.6,1.5s-1.1,1.1-1.8.9c-2,2.3-5,3.7-7.5,5.4s-6.1,4.4-9.6,5.6c-.9.3-1.3,1.9-1.3.9s1.9-1.8,3.1-2.7c4.5-3.3,9.5-5.3,13.7-9,.5-.1,1.9-1.2,1.8-1.9S474.5,354.6,475.8,354.5Z" transform="translate(-267.1 -143.8)"/><path d="M470.2,352.6c-.5,1-1.8,1.3-2.8,1.9C468.1,353.8,468.9,352.7,470.2,352.6Z" transform="translate(-267.1 -143.8)"/><path d="M473.2,356.5c-.1.5-.5-.1-.6-.1v-.3C472.9,356.2,473.2,356.2,473.2,356.5Z" transform="translate(-267.1 -143.8)"/><polygon points="196.3 213.5 196.7 213 196.6 213.4 196.3 213.5"/><path d="M462.9,357.5a18,18,0,0,1-3.6,2.4C460,358.7,461.7,358.3,462.9,357.5Z" transform="translate(-267.1 -143.8)"/><path d="M372.4,362.3c-1.2.3-2.6-.1-3.7-.1C369.8,362.2,371.3,361.6,372.4,362.3Z" transform="translate(-267.1 -143.8)"/><path d="M367.6,362.2a33.8,33.8,0,0,0-3.9.5c-1.3-.8-2.6.3-4-.2,1.6-.7,3.5.2,5.3-.4Z" transform="translate(-267.1 -143.8)"/><path d="M381.7,364.9a4.9,4.9,0,0,1-2.8.2A9.2,9.2,0,0,1,381.7,364.9Z" transform="translate(-267.1 -143.8)"/><path d="M374.6,365.4c-1.1.8-2.5.4-3.9.3a27.9,27.9,0,0,1-8.3.1c.2-.6,1.1.1,1.8-.4H373C373.5,364.9,374,365.5,374.6,365.4Z" transform="translate(-267.1 -143.8)"/><path d="M480.3,365.5a7,7,0,0,1-2.9,3A5.3,5.3,0,0,1,480.3,365.5Z" transform="translate(-267.1 -143.8)"/><path d="M334.2,371.8c4.3,6.7,10.2,12.4,15.6,18.2,4.4,3.8,10,8,14.9,11.6a5.2,5.2,0,0,1,3.2,2.2c-.5.9-1.5,0-2.2-.3-7.6-4.6-14-10.1-20.7-16.4a19.7,19.7,0,0,0-3.5-4.4c-3.9-5.3-7.9-9.9-11.1-15.6l-.4-1.4C331.6,367.5,332.5,370.2,334.2,371.8Z" transform="translate(-267.1 -143.8)"/><path d="M387.8,369.3c-4.4,1.2-9.2.6-13.7,1.3l-1.7-.3c1.3-.5,3-.1,4.7-.2A79.1,79.1,0,0,1,387.8,369.3Z" transform="translate(-267.1 -143.8)"/><path d="M372.2,370.5c-1.6-.1-3.6.9-5.1,0s-1.5.6-2.3.3,1.6-.2,2.3-.3a14.6,14.6,0,0,1,5.1-.3Z" transform="translate(-267.1 -143.8)"/><rect x="117.4" y="230.4" width="0.5" height="0.07"/><path d="M383.9,374.4c-3.7.9-7.9.4-11.7.8-1.1-.1-2.2.3-3.4,0,1.3-.7,3,.2,4.6-.4C376.6,374.7,380.5,374.7,383.9,374.4Z" transform="translate(-267.1 -143.8)"/><path d="M320.3,375h-.1v-.5C320.2,374.7,320.4,374.8,320.3,375Z" transform="translate(-267.1 -143.8)"/><path d="M467.9,377.3c0-.5.7-1.1,1.3-1.4A2.1,2.1,0,0,1,467.9,377.3Z" transform="translate(-267.1 -143.8)"/><path d="M352,381.3c5.3,5.4,10.1,9.7,15.8,14.5l-1.3-.3c-6.7-5.6-14.7-11.9-19.1-19.5A34.2,34.2,0,0,1,352,381.3Z" transform="translate(-267.1 -143.8)"/><path d="M392.8,377.9c.5-.7,2.1-.3,3-.7h.9Z" transform="translate(-267.1 -143.8)"/><path d="M391.6,377.9c-1.6.2-3.4,1-5.2.5C387.9,378,390,378.1,391.6,377.9Z" transform="translate(-267.1 -143.8)"/><path d="M459.9,377.9c-.3.8-1.4.5-1.8,1A4.2,4.2,0,0,1,459.9,377.9Z" transform="translate(-267.1 -143.8)"/><path d="M350.4,384.4c4.6,5.1,9.9,8.9,15.1,13.3l.5.8c-.9.3-1.9-.5-2.7-1-3.7-3-7.3-6.3-10.8-9.2s-6-6.1-8.1-9.4v-.4C346.7,380,348.3,382.8,350.4,384.4Z" transform="translate(-267.1 -143.8)"/><path d="M383.7,378.9c-4.3.9-8.2.3-12.5.9l-.4-.4c.8-1,3-.7,4.5-.6s5.5.1,8.4-.2Z" transform="translate(-267.1 -143.8)"/><path d="M426.4,379.4c-2.3,1.3-5.3,1.6-7.8,2.7-7.1,2.9-15.3,3.5-22.8,4.7h-.1c1-.5,2.4-.3,3.6-.7,6.3-.8,12.7-2.8,19.2-4.1,1.7-.7,3.7-1,5.5-1.6A4.7,4.7,0,0,1,426.4,379.4Z" transform="translate(-267.1 -143.8)"/><path d="M403.1,381a9.1,9.1,0,0,1-3,.4,19.4,19.4,0,0,1,3.4-.7Z" transform="translate(-267.1 -143.8)"/><path d="M449.9,383.6c1.7-.6,3.1-2.2,4.9-2.9C453.6,382.3,451.4,382.4,449.9,383.6Z" transform="translate(-267.1 -143.8)"/><path d="M398.8,381.6c-.6.6-2.1.4-2.6.4A15.5,15.5,0,0,1,398.8,381.6Z" transform="translate(-267.1 -143.8)"/><path d="M395.5,382a110.8,110.8,0,0,1-20.3,1.8c.2-.8,1.4-.5,2.1-.7C383.4,382.8,389.6,382.2,395.5,382Z" transform="translate(-267.1 -143.8)"/><path d="M431.2,382.6c-3.6,1.7-7.5,2.8-11.3,4.2-8.9,2-17.8,4.4-26.6,5.1l-.3-.2c-2.6.2-5.4,1.1-8,.4-.2-.9.9-.7,1.4-1,3.8.1,7.4-.7,11.6-.7v.2c.3-.8,1.5-.1,2-.6,10.5-1.2,20.7-4.5,30.6-7.8C430.9,382.4,431.7,382,431.2,382.6Z" transform="translate(-267.1 -143.8)"/><path d="M449.1,384c-2.6,1.9-5.9,3.1-8.7,4.8h-.6l.6-.6C443.3,386.9,446.2,385.2,449.1,384Z" transform="translate(-267.1 -143.8)"/><path d="M455.3,385.3c-1.8,2.4-5.1,3.1-7.7,4,1.3-1.3,2.9-1.6,4.5-2.5A10.2,10.2,0,0,1,455.3,385.3Z" transform="translate(-267.1 -143.8)"/><path d="M395.2,386.5v.3c-3,.4-6.5.9-9.9,1.1-1.8.2-3.2.6-5,0v-.4C385.3,387.4,390.2,386.7,395.2,386.5Z" transform="translate(-267.1 -143.8)"/><path d="M456.3,387.9a1,1,0,0,1-.9,1c-6.3,4.2-13.7,8.2-20.7,9.8,2.6-1.7,6-1.9,8.5-3.8C447.9,393.3,451.9,389.9,456.3,387.9Z" transform="translate(-267.1 -143.8)"/><path d="M444.4,390.8c-1.4.6-2.8,1.4-4.3,1.4,1.7-1.1,3.9-1.2,5.7-2.2C445.8,390.9,444.6,389.9,444.4,390.8Z" transform="translate(-267.1 -143.8)"/><path d="M457.8,391.4c-.1,1-1.1,1.6-1.7,2a97.3,97.3,0,0,1-30,12.9,21.3,21.3,0,0,1-4.6,1.2c0-.1-.2-.2-.2-.3s1.6-.6,2.4-1c11.9-3.2,23.3-7.6,33.3-14.8Z" transform="translate(-267.1 -143.8)"/><path d="M400.3,406.5c.4.7,1.1-.2,1.5.4-3.6.5-7.6,1.2-10.9-.2-.1-.4.4-.5.7-.6A74.8,74.8,0,0,0,400.3,406.5Z" transform="translate(-267.1 -143.8)"/><path d="M475.4,351.8c-.6,1.6.9.2-.6,1.5s-1.1,1.1-1.8.9c-2,2.3-5,3.7-7.5,5.4s-6.1,4.4-9.6,5.6c-.9.3-1.3,1.9-1.3.9s1.9-1.8,3.1-2.7c4.5-3.3,9.5-5.3,13.7-9,.5-.1,1.9-1.2,1.8-1.9S474.1,351.9,475.4,351.8Z" transform="translate(-267.1 -143.8)"/><path d="M367.9,337.3c-4,1.8-9.3,1-13.9,1-.4-.3-.5-.7-.1-1,4.4-1,8.3-.3,12.7-.3A3.4,3.4,0,0,1,367.9,337.3Z" transform="translate(-267.1 -143.8)"/><path d="M365.1,334.5c-4,1.8-6.5,1.1-11.1,1.1-.4-.3-.9-.8-.5-1.2,4.4-1,5.8-.3,10.3-.3A3.4,3.4,0,0,1,365.1,334.5Z" transform="translate(-267.1 -143.8)"/><path d="M373.7,288.8c-3.8,2-9.2,1.6-13.8,1.9-.4-.2-.6-.6-.2-1,4.3-1.3,8.2-.9,12.7-1.3A3.4,3.4,0,0,1,373.7,288.8Z" transform="translate(-267.1 -143.8)"/><path d="M370.7,286.3c-3.8,2-6.4,1.5-11,1.8-.4-.2-.9-.8-.6-1.2,4.3-1.3,5.8-.7,10.3-1A3.4,3.4,0,0,1,370.7,286.3Z" transform="translate(-267.1 -143.8)"/><path d="M353.7,398.7c-2.4-1.6-5.4-3.5-5.6-3.8a152.2,152.2,0,0,1-19.2-22.3,6.9,6.9,0,0,0-1.6-2.4,5.5,5.5,0,0,1-1.5-2.5,4.8,4.8,0,0,1,1.1,1.1l.9,1.1h0l.2.6a2,2,0,0,0,.9,1.2c2.4,4.2,5.9,8,9.2,11.6l4.1,4.5h.3c2.2,2.9,5,4.9,8,7a52.4,52.4,0,0,1,6.1,4.9h0l.2.5.3.7Z" transform="translate(-267.1 -143.8)"/><path d="M420.7,253.3h.1c.3-.5.4-.6.7-.5s2.1,3.7,2.7,6.1l.6,2.2h0c-.5-.3-1.4-2.3-2-3.6s-1.5-3.2-2.1-3.6Z" transform="translate(-267.1 -143.8)"/></svg>