<svg xmlns="http://www.w3.org/2000/svg" viewBox="0 0 187.1 187"><title>fylkir</title><path d="M249.4,156.9a93.5,93.5,0,1,1-93.5,93.5,93.7,93.7,0,0,1,93.5-93.5Z" transform="translate(-155.8 -156.9)" fill="#fff" fill-rule="evenodd"/><path d="M261.6,157.6a93.5,93.5,0,0,1,14,182.6c20.9-11.1,36.5-28.8,36.7-55.2.2-28.4-24.9-47.3-52.5-64.4-12.6-7.8-20.6-16.1-20.2-32.6.3-13.4,8.9-23.3,22.1-30.4ZM197.2,328a93.5,93.5,0,0,1,44.6-170.8c-13,11.3-18,24.5-17.6,37.5,1.3,40.9,49.2,43.6,51,82.4,1.4,29.7-32.9,52.8-59.2,53.1a81,81,0,0,1-18.8-2.1Z" transform="translate(-155.8 -156.9)" fill="#231f20" fill-rule="evenodd"/><path d="M256.4,265.9a8.6,8.6,0,0,1,6.2,2.3,8,8,0,0,1,2.3,6,8.8,8.8,0,0,1-1,4.3,6.9,6.9,0,0,1-2.9,2.9c2.9,1.6,3.5,7.2,4.4,10h-6.3c-.1-3.4-1.5-7.1-3-8.6h-1.2v8.6h-5.7V265.9Zm-1.5,4v9h.8a3.2,3.2,0,0,0,2.6-1.3,5.1,5.1,0,0,0,1-3.3,4.8,4.8,0,0,0-1.1-3.3,3.6,3.6,0,0,0-2.9-1.2Zm-14.7-4H246v25.4h-5.8V265.9Zm-14.3,0v10.5c2.6-2.8,4.3-6.6,5.5-10.5h6.3c-1.4,5.2-3.3,9.3-6.3,12.5a49,49,0,0,0,7,13h-7.4a55.1,55.1,0,0,1-5-11v11h-5.7V265.9Zm-15.5,0v18.6c.2,3.3,5.8,1.7,7.8,1.5.6,2.9-.3,4.9-1.7,5.3h-12V265.9Zm-25.2,0h5.9c.3,4.4,2.7,8.7,5.3,13.5,2.2-6.1,1.7-6.6-.3-13.5h5.2c1.3,5.9,1.8,10.9.1,16.4-.9,2.9-2.4,7.4-4.8,9.1h-6.4c1.4-1.5,3-2.7,2.9-4.6-.4-4.9-8.1-13-8-20.9Zm-14.3,0h12.7a11.4,11.4,0,0,1,0,5.3c-1.6,0-5.8-.9-7-.8a10.5,10.5,0,0,0-.1,6.8,38.1,38.1,0,0,0,5.1.3c.4-.1,1.9,0,2,1.3a1.9,1.9,0,0,1-1.8,2.2,16.9,16.9,0,0,1-5.1-.1c-.2,4.2,1.9,7.4,3.1,10.4h-6.1c-5.4-10.5-3.4-22.1-2.9-25.4Z" transform="translate(-155.8 -156.9)" fill="#fff" fill-rule="evenodd"/></svg>