<svg xmlns="http://www.w3.org/2000/svg" xmlns:xlink="http://www.w3.org/1999/xlink" viewBox="0 0 698.5 798.9"><defs><linearGradient id="a" x1="444.28" y1="471.37" x2="230.62" y2="471.37" gradientUnits="userSpaceOnUse"><stop offset="0" stop-color="#fff"/><stop offset="1" stop-color="#5b5b5b"/></linearGradient></defs><title>geislia</title><path d="M397,794.8c-18.4-14.8-42.4-37.8-59.4-52.3C286,698.5,244.7,642,206.5,585.5c-30.7-45.5-51.2-96.1-68.9-147.8-29.5-85.9-47.5-174.4-61.1-264.1-3.4-22.7-6-45.4-9.6-68-.9-6,1.4-8.9,6-11.7,31.4-19.3,65.4-32.4,100.5-42.7,76.3-22.5,154.5-29.9,233.7-29.3S566.6,32.3,642.7,59.6c26.8,9.5,52.2,23.2,78.2,35,4.3,2,6.3,4.7,5.6,10.2-14.9,117.5-36.8,233.5-74.9,346.2-35.9,106.2-81.4,199.1-165.2,271.8-23.4,20.3-64.5,53.2-88.8,73.6" transform="translate(-49.4 -1)" fill="#fff"/><path d="M399.2,799.9c-19.5-15.7-38.3-30.1-56.3-45.4-54.6-46.6-105.1-97.2-145.5-157-32.5-48.2-54.2-101.7-72.9-156.4C93.3,350.2,74.2,256.5,59.8,161.6c-3.6-24-6.4-48-10.2-72-1-6.4,1.5-9.4,6.4-12.4C89.2,56.8,125.2,42.9,162.4,32,243.1,8.2,325.9.4,409.7,1S578.5,12.1,659,40.9c28.4,10.1,55.2,24.5,82.8,37,4.6,2.1,6.7,5,5.9,10.8-15.8,124.4-38.9,247.1-79.3,366.4C630.4,567.5,564,659.3,475.3,736.2c-24.8,21.5-50.3,42.1-76.1,63.7M659.7,70.7,609,54.6l-3.5-1.4a108.8,108.8,0,0,0-10.4-3.8C474.7,22,353.9,20.9,232.7,43.3c-14.6,2.7-28.8,7.3-43.2,11l-1.1.4L137.7,71.1c-7.1,3-14.6,5.4-21.3,9.3-3,1.7-6.1,6.4-6.1,9.7.2,16.1.6,32.3,2.3,48.4,9.2,87,26.2,172.8,43.8,258.4,20.4,99.7,60.4,190.5,122.8,271.1,32.7,42.2,69.9,79.8,113.4,111,4.5,3.3,7.6,3.5,12,0,9.2-7.5,19-14.1,28-21.7,99.8-85.1,165-192.3,197.8-318.4,16.4-63.3,27.4-128,38.6-192.5,7.9-45.7,12.9-92,17.4-138.2,2.7-28,1.2-28.2-26-37.2-.1-.2-.4-.2-.7-.3" transform="translate(-49.4 -1)" fill="#0e299b"/><path d="M605.5,53.2l3.5,1.4c-.5,39.4-.1,78.8-1.9,118.2-1.7,37-5.7,73.8-8.8,110.7-37.5-11.3-74.8-23.7-112.7-33.5a340.5,340.5,0,0,0-120.3-8.9C307.7,247,252.7,262.9,199,283.7c-1.4-15.4-3.2-30.9-4.2-46.3-1.6-24.1-3-48.2-3.8-72.3-1.2-36.8-1.8-73.6-2.6-110.4l1.1-.4A626.1,626.1,0,0,0,339.4,86.8c87.5,8.2,173.2,0,256.6-28.4,3.4-1.1,6.4-3.4,9.5-5.2" transform="translate(-49.4 -1)" fill="#529b10"/><path d="M359,179.1c4.6-13.9,8.8-27,13.2-40.1,5.3-15.7,5.4-15.7,23.3-14.3,1.5,24.9,3,50,4.5,75.6H386.3c-1-18.9-1.9-37.5-2.8-56.1l-1.2-.4c-4.2,12.3-8.3,24.7-12.5,37-1.6,4.6-2.6,9.6-4.9,13.8-1.3,2.4-4.8,5-7.2,4.9s-5.9-3-6.7-5.4c-4.8-14.5-9-29.2-13.4-43.8a7.8,7.8,0,0,0-3.3-4.8c-.9,18.2-1.9,36.3-2.8,54.8H318.3c1.7-25.1,3.3-49.9,5-76.1,5.3,0,10.5-.6,15.4.3,2,.3,4.2,3.5,5,5.8,5.1,15.8,10,31.8,15.3,48.8" transform="translate(-49.4 -1)" fill="#fdfdfe"/><path d="M557.3,127c-1.1,3.9-2.1,7.1-2.8,9.9-8-.4-15.5-1.7-22.7-1.1-16.5,1.5-25.3,15.5-22,33.6a25.6,25.6,0,0,0,32,20c1.8-.5,3.9-3.2,4.1-5.1.6-4.5.2-9.1.2-14.2l-13-.8V159.2h26.7c0,11.5.2,23.2-.2,34.9-.1,1.6-3,4.3-4.9,4.6-8.8,1.2-17.8,3-26.5,2.4-19.7-1.4-32.3-14.4-33.7-33.1-1.6-21.4,8.5-37.2,27.6-42.4a56,56,0,0,1,35.2,1.4" transform="translate(-49.4 -1)" fill="#fdfdfe"/><path d="M229.5,124.6h13.4v27.2c0,6.9-.3,13.9.1,20.8.6,11.7,6.4,18,15.8,17.9s15.3-6.5,15.6-18.1c.4-13.5.1-27.1.1-40.6v-6.7h12.9c0,18.2,1.3,36.6-.4,54.7-1.4,15.1-13.5,22.7-30,22.4s-25.9-8.3-27.1-23.6c-1.5-17.9-.4-35.8-.4-54" transform="translate(-49.4 -1)" fill="#fdfdfe"/><path d="M446.9,135.6v20.9h27.3v11.7H446.8v32.2h-14V124.8h43.5v10.9H446.9" transform="translate(-49.4 -1)" fill="#fdfdfe"/><polygon points="273 521.4 291.6 533 454 534.7 458.3 525.4 443 487.4 428 479 386.3 425.7 361 409.4 330.6 408 285.6 415.4 268 411.4 283.6 469.7 244.6 480.4 273 521.4" fill="url(#a)"/><circle cx="249.4" cy="190.8" r="9.3" fill="#fdfdfe"/><circle cx="524.8" cy="190.8" r="9.3" fill="#fdfdfe"/><circle cx="428.2" cy="190.8" r="9.3" fill="#fdfdfe"/><circle cx="364.8" cy="190.8" r="9.3" fill="#fdfdfe"/><path d="M471.8,324l7.5-2.5a1.7,1.7,0,0,1,1.7.3l6.4,5.5a1.7,1.7,0,0,1-1.5,3l-13.8-3a1.7,1.7,0,0,1-.3-3.3" transform="translate(-49.4 -1)" fill="#1d1d1d"/><path d="M436.2,532.4H400.8l-24-8.5c-.1,0-19.9-15.1-26.1-26.4a131.8,131.8,0,0,0-11.6-17.1c-1.8-2.3-5.1-5.3-7.3-4.9-8.1,1.2-16.1,3.6-24.3,5.7a1.2,1.2,0,0,0-.8,1.6l9.2,18.8c2.3,4.3,8.9,7.5,9.6,11.7,1.1,6.7,5.4,10.4,9.5,14.2.4.3,9.6,5.9,9.4,6.3s-4.8.2-5.3,0l-10.9-4.5H328c-14-3.8-23.5-13.4-30.4-25.3s-11.7-23.3-17.5-35a1.1,1.1,0,0,1,.2-1.3l1.3-1.3a1.2,1.2,0,0,1,1-.4c8.8,1.4,17.6,3.2,26.4,3.8,4.7.3,11.7-.2,13.8-3.2s1.2-10,.4-14.9c-2.1-12.2-5.2-24.2-7.2-36.4-.9-5.7,3.4-7.9,8.8-5.2,2.7,1.3,5.3,2.8,8.1,4.4a1.2,1.2,0,0,0,1.6-.6c1.9-5,3.6-9.8,5.5-14.9a1.2,1.2,0,0,1,1.4-.7c8.7,2.3,16.9,5,25.3,6a104.7,104.7,0,0,0,25-.4c10.3-1.3,19.7.1,28.1,5.9,15,10.2,30,20.6,40.1,36.3,7.4,11.5,15.1,22.9,23,34.2,1.2,1.8,3.3,2.8,5.3,4a1.1,1.1,0,0,0,1.6-.5c1.2-2.7,3.1-5.6,2.5-7.7-2.1-7.4-1.4-13.4-5.5-19.7-15.9-24-35.2-49.5-52-72.9-10.6-14.8-11.9-30.4-6.1-46.8,9.8-27.6,47.6-36.3,68.4-15.5,6.6,6.6,18,25.2,19,26.9s5.9,9.5,4.9,8.5c-6.1-6.3-20.3-21.6-22.6-25.5-6.4-9.9-15.5-16.2-29-13.5s-26.5,4.7-33.6,18.3c-7.9,15.2-6.9,30.1,2.2,44.3a179.5,179.5,0,0,0,13.6,17.9c11,13.3,22.2,26.3,33.2,39.7,9.5,11.6,16.7,24.6,16.1,40-.2,4.8-3.1,12.7-6.1,13.3-4.9,1.1-11.9-1.2-16-4.5-7.5-6.1-13.4-14.2-20.3-21.1-1.7-1.7-4.8-2.4-7.4-2.5s-4.6.7-6.6,1.3a1.1,1.1,0,0,1-1.3-.6c-2.3-5.6,9.8-13.2-2.8-16.2a1.2,1.2,0,0,0-1.4.8,15.8,15.8,0,0,1-1.6,4.6c-3.4,5.2-6.8,4.6-10.6-.2a144.8,144.8,0,0,0-15.9-16.4c-1.3-1.2-3.8-1-6-1.1a1.1,1.1,0,0,0-1.2,1,41.5,41.5,0,0,0-.3,5.4,67.3,67.3,0,0,0,.9,7.1,1.2,1.2,0,0,1-1.6,1.2c-5.9-2.4-7.4-6.5-8.2-11.3s-10.4-11.3-16.5-9.6-8.7,6.5-6.3,14.8c.7,2.3.6,4.9.7,8.6a1.2,1.2,0,0,1-1.9.9c-6.9-5.7-7.6-11.9-6.2-17.7,2.4-9.1-.7-13.6-9.4-15.6-1.9-.4-3.7-1.6-5.7-2.8a1.1,1.1,0,0,0-1.7.7c-1.2,5.8,1.3,9.1,6.6,10.8s6.7,4.6,2.7,9.5c-6.4,7.7-2.7,14.9,1.2,22.4,1.3,2.6,1.7,5.7,2.1,8.8a1.1,1.1,0,0,1-1.9,1.1c-2.7-2.2-5.4-4.4-7.9-6.8-.7-.7-1.1-1.7-2.1-2.6a1.1,1.1,0,0,0-1.9,1,28.7,28.7,0,0,0,1.5,7c2.4,5.5,5.8,10.6,8.2,16.2.7,1.8-.1,4.3-.4,6.6a1.1,1.1,0,0,1-.8,1l-1.1.3a1.1,1.1,0,0,0-.5,1.9l19.9,18.9a1.1,1.1,0,0,0,1.3.2l1-.6a1.2,1.2,0,0,0,.6-1.1c-.3-3.9.1-8-1.3-11.4-5.7-13.7.8-25.2,6.3-36.7,3.1-6.5,9.5-7.9,16-8.9a1.1,1.1,0,0,1,1.3,1.3c-.3,1.7-.5,3.4-.8,5.1v.2l-2.6,8.4a1.2,1.2,0,0,1-.4.5l-1.2,1a1.2,1.2,0,0,1-1.7-.3l-3-5.2a1.1,1.1,0,0,0-1.1-.6h0a1.2,1.2,0,0,0-1,1.4l3.2,12.3a1.2,1.2,0,0,1-1.1,1.5h-5.3a1.2,1.2,0,0,0-1.1,1.6l2.9,6.7a1.2,1.2,0,0,1-.3,1.4c-8.3,6.9-1.8,14.4-.4,21.4s6.9,11.2,14.4,12.1a1.1,1.1,0,0,0,1.3-1.1c.8-10.3,1.6-20.3,2.4-30.4a1.2,1.2,0,0,1,1.4-1l4.8,1a1.2,1.2,0,0,1,.9,1.1c.2,3.1,1,6.5,0,9-4,9.6,2.2,15.7,6.9,22.4a3.6,3.6,0,0,0,3.5,1.1c.8-.3,1.4-2.2,1.3-3.3-.5-9.9-1.2-19.7-1.8-29.7a1.2,1.2,0,0,1,.4-.9l8-7.4a1.2,1.2,0,0,1,1.3-.2c5,2.3,5,3.7.8,9.1s-4.5,19.3.4,23.7c2.6,2.3,7.2,2.4,10.9,3.4l3.7,1a1.1,1.1,0,0,1,.8,1.6,9,9,0,0,1-2,3.5,54.5,54.5,0,0,1-7.7,5.2M395.3,414.6l-7.5,6.4a1.1,1.1,0,0,0-.4,1.1l.2,1a1.2,1.2,0,0,0,1,.9l10.4,1.1h.2l15.2-1.6a1.2,1.2,0,0,0,1-1.1v-2.6a1.1,1.1,0,0,0-1-1.1c-4-.6-10.4-2.2-11.3-2.9l-.6-.2-7.3-.9m-54.9,48.5c2.8-10.3,11.7-18.1,5.8-28.5s-12.3-16.4-23.7-18.8a1.2,1.2,0,0,0-1.4,1.4c3.8,15.8,3.9,32.8,19.3,45.9m95.8-26.2c-10.5-13.7-13.2-15.2-16.9-7.9a1.2,1.2,0,0,0,.6,1.6l16.2,6.3" transform="translate(-49.4 -1)" fill="#1d1d1d"/><path d="M608.9,54.5c-.5,39.4-.1,78.9-1.9,118.2-1.7,36.9-5.8,73.8-8.8,110.7-7.7,47.1-13.7,94.6-23.8,141.1-7.9,36.4-21.1,71.7-31.9,107.4-9.5,21.3-18.2,43-28.8,63.7-19.1,37.3-41.4,72.8-68,105.2-13.3,16.2-28.6,30.8-43.1,46.1-1.3,1.4-3.3,2-5,3C337.8,689.7,292.3,620,259.2,542c-1.2-2.9-1.9-6-2.9-9-5.8-15.9-12.3-31.6-17.3-47.8-20.5-65.8-32.8-133.1-39.9-201.5-1.4-15.4-3.2-30.8-4.2-46.3-1.6-24.1-3-48.2-3.8-72.3-1.2-36.8-1.8-73.6-2.6-110.4L137.8,71.1A1865.4,1865.4,0,0,0,155.9,290c8.4,59.4,19.5,118.3,38.4,175.5,25.6,77.4,67.6,145.6,118.2,208.9,25.4,31.8,52.5,62,83.3,88.8h0c3.8,5,6.1.5,8-1.8,22.7-23.7,46.5-46.5,67.8-71.5,53.3-62.6,97.5-130.9,125.8-208.6,24.3-66.7,36.5-136.3,46-206.4A1939.1,1939.1,0,0,0,659.6,70.6Z" transform="translate(-49.4 -1)" fill="#931c2e"/><path d="M456.7,381.3c-7.1-7.5-7.3-16.4-3.4-25.2s10.4-7.1,16.9-6.3c16.5,2,33,4.4,51.1,6.8h0c-3.1-2.1-5.1-4-7.5-5-9-3.8-19.8-6.1-28.8-10-10.7-4.6-19.4-.7-28.6,2.1-12.5,3.9-16.4,23.7-8.7,34.8,5.8,8.3,111.3,110.2,53.7,147.6-.8.5-13.8,8.7-13.2,10.3s16.6-2.5,16.6-2.5,2.6-1.8,3.3-2.4C516.9,523.6,563.7,495.3,456.7,381.3Z" transform="translate(-49.4 -1)" fill="#1d1d1d"/><path d="M436.2,532.4h70.7l35.7-.4c-9.6,21.3-18.2,43-28.8,63.7-19.1,37.3-41.4,72.7-68,105.2-13.3,16.2-28.6,30.9-43.1,46.1-1.3,1.4-3.4,2-5.1,3-59.8-60.3-105.4-130-138.4-208-1.2-2.9-1.9-6-2.9-9l60.7-.7,11.1-.3,5.6-.4,60.3.4,7.1.4h35.1" transform="translate(-49.4 -1)" fill="#509a0d"/></svg>