<svg xmlns="http://www.w3.org/2000/svg" viewBox="0 0 575 800"><title>gg</title><path d="M287.5,0H0L.2,286.3c0,84.5-3.6,267.3,22.1,331.2C51,688.7,89.2,712.8,131.4,736.2a240.1,240.1,0,0,0,27.6,13L287.5,800,416,749.2a240.1,240.1,0,0,0,27.6-13c42.2-23.4,80.4-47.5,109.1-118.7,25.7-63.9,22.1-246.7,22.1-331.2L575,0Z" fill="#fff"/><path d="M562.5,12.5H12.5l.2,277.3c0,81.9-3.4,259,21.2,320.9,27.4,69,63.9,92.3,104.3,115a228.2,228.2,0,0,0,26.4,12.6l122.9,49.2,122.9-49.2a228.2,228.2,0,0,0,26.4-12.6c40.4-22.7,76.9-46,104.3-115,24.6-61.9,21.2-239,21.2-320.9Z"/><path d="M83,46,97.4,63.5a21.2,21.2,0,0,0,5.3,5,6.9,6.9,0,0,0,3.4.9v1.1H84.8V69.4a5.7,5.7,0,0,0,2.6-.6,1.4,1.4,0,0,0,.6-1.1c0-.8-.9-2.4-2.8-4.6L75.8,51.6l-1.5,1.2V63.6c0,2.1.1,3.4.4,3.9a3,3,0,0,0,1.4,1.3,7.1,7.1,0,0,0,3.3.5v1.1H58.8V69.3h1.4a6.2,6.2,0,0,0,2.9-.6,2.8,2.8,0,0,0,1.2-1.4,13.1,13.1,0,0,0,.3-3.7v-26a14,14,0,0,0-.3-3.8A2.7,2.7,0,0,0,63,32.5a6.3,6.3,0,0,0-2.7-.6H58.9V30.8H79.3v1.1a7,7,0,0,0-3.2.6,2.8,2.8,0,0,0-1.2,1.4,12.1,12.1,0,0,0-.4,3.8V50.1L89.4,38c2.1-1.7,3.2-3,3.2-4a2.1,2.1,0,0,0-1.3-1.8,9.2,9.2,0,0,0-3.3-.4V30.7h16v1.1a9.6,9.6,0,0,0-3.4.7A49.9,49.9,0,0,0,95,36.6L83,46" fill="#fff"/><path d="M116,43.1v3.5a15.2,15.2,0,0,1,4.2-3.3,9.1,9.1,0,0,1,4.3-1,6.9,6.9,0,0,1,7,5.2,28.7,28.7,0,0,1,.5,6.4V64.6q0,3.1.6,3.9a3.9,3.9,0,0,0,2.5,1v1.1H120.8V69.5a3,3,0,0,0,2.3-1.3,8.4,8.4,0,0,0,.5-3.6V52.3a16.9,16.9,0,0,0-.3-4.2,3.4,3.4,0,0,0-.9-1.4,2.4,2.4,0,0,0-1.4-.5q-2.5,0-4.8,3.6V64.5q0,3.1.6,3.9a3,3,0,0,0,2.2,1v1.1H104.5V69.4a3.5,3.5,0,0,0,2.5-1.1c.3-.4.5-1.7.5-3.8V49q0-3.1-.6-3.9a3.9,3.9,0,0,0-2.5-1V43H116" fill="#fff"/><path d="M151.5,66.4c-3.4,2.9-6.5,4.4-9.3,4.4a5.7,5.7,0,0,1-4-1.5,5,5,0,0,1-1.6-3.9,7.1,7.1,0,0,1,2.8-5.6c1.9-1.7,5.9-3.9,12.1-6.7V50.3a14.5,14.5,0,0,0-.3-3.9,3.4,3.4,0,0,0-1.3-1.4,4,4,0,0,0-2.2-.6,6.1,6.1,0,0,0-3.2.8,1.7,1.7,0,0,0-.8,1.2,2.8,2.8,0,0,0,.8,1.5,3.5,3.5,0,0,1,1.1,2.4,3,3,0,0,1-1.1,2.4,3.9,3.9,0,0,1-2.9,1,5,5,0,0,1-3.2-1.1,3.2,3.2,0,0,1-1.3-2.6,6.2,6.2,0,0,1,1.7-4,9.6,9.6,0,0,1,4.8-2.9,19.9,19.9,0,0,1,6.4-1,11,11,0,0,1,6.4,1.7,7.1,7.1,0,0,1,3,3.6,22.2,22.2,0,0,1,.4,5.7V63.7a6.6,6.6,0,0,0,.2,2.4,1.3,1.3,0,0,0,.5.7.8.8,0,0,0,.7.2,2.2,2.2,0,0,0,1.6-1.1l.9.7a10.1,10.1,0,0,1-3.1,3.1,6.6,6.6,0,0,1-3.7,1,6.1,6.1,0,0,1-3.8-1.1,4.5,4.5,0,0,1-1.6-3.2m0-2.1V55.1a17.9,17.9,0,0,0-5.4,4.5,5.3,5.3,0,0,0-1.2,3.2,3.3,3.3,0,0,0,1,2.4,2.9,2.9,0,0,0,2.1.8,6.6,6.6,0,0,0,3.5-1.7" fill="#fff"/><path d="M175.2,33.1v10h6.7V46h-6.7V62.9a17.6,17.6,0,0,0,.2,3.1,2.3,2.3,0,0,0,.8,1.1,1.7,1.7,0,0,0,1.1.4c1.3,0,2.5-1,3.7-2.9l.9.6c-1.6,3.8-4.3,5.6-7.9,5.6a6.8,6.8,0,0,1-4.5-1.5,7.1,7.1,0,0,1-2.4-3.2,27.6,27.6,0,0,1-.3-5.4V46h-3.7V45a40,40,0,0,0,6.5-5.5,37.7,37.7,0,0,0,4.7-6.4h.9" fill="#fff"/><path d="M192.8,33.1v10h6.7V46h-6.7V62.9A17.6,17.6,0,0,0,193,66a2.3,2.3,0,0,0,.8,1.1,1.7,1.7,0,0,0,1.1.4c1.3,0,2.5-1,3.7-2.9l.9.6c-1.6,3.8-4.3,5.6-7.9,5.6a6.8,6.8,0,0,1-4.5-1.5,7.1,7.1,0,0,1-2.4-3.2,27.6,27.6,0,0,1-.3-5.4V46h-3.7V45a40,40,0,0,0,6.5-5.5,37.7,37.7,0,0,0,4.7-6.4h.9" fill="#fff"/><path d="M217.2,42.3l.5,9.3h-1a14.3,14.3,0,0,0-3.8-5.7,6.4,6.4,0,0,0-3.9-1.5,3.2,3.2,0,0,0-2.1.8,2.5,2.5,0,0,0-.9,1.9,2.4,2.4,0,0,0,.6,1.5c.6.8,2.4,2.2,5.4,4.1s4.9,3.6,5.8,5a8.3,8.3,0,0,1,1.4,4.6,9.5,9.5,0,0,1-1.2,4.5,8.3,8.3,0,0,1-3.3,3.4,9.4,9.4,0,0,1-4.7,1.2,17.8,17.8,0,0,1-5.4-1.2l-1.2-.3c-.7,0-1.2.5-1.7,1.5h-1l-.5-9.8h1a12.4,12.4,0,0,0,3.7,5.8,7.2,7.2,0,0,0,4.5,1.9,3.2,3.2,0,0,0,2.4-.9,2.9,2.9,0,0,0,.9-2.1,3.6,3.6,0,0,0-.9-2.4,26.7,26.7,0,0,0-4-3.1,37.3,37.3,0,0,1-6-4.7,8.2,8.2,0,0,1,6.7-13.6,9.9,9.9,0,0,1,4.4,1.1,2.7,2.7,0,0,0,1.3.4l.9-.2,1.1-1.2h1v-.3" fill="#fff"/><path d="M231.4,67.7V77.9a9.3,9.3,0,0,0,.3,2.9,2,2,0,0,0,1.1,1.1,7.8,7.8,0,0,0,2.8.4v1.1H219.5V82.3a4,4,0,0,0,2.8-1c.4-.4.6-1.6.6-3.5v-29c0-1.9-.2-3.2-.7-3.7a4.3,4.3,0,0,0-2.7-.9V43.1h11.8v3.6a10.6,10.6,0,0,1,3-3,9.2,9.2,0,0,1,4.8-1.4,9.1,9.1,0,0,1,5.7,1.9,11.9,11.9,0,0,1,3.9,5.3,18.8,18.8,0,0,1,1.3,7.2,20.6,20.6,0,0,1-1.4,7.6,10.6,10.6,0,0,1-4,5.2,10.2,10.2,0,0,1-5.8,1.8,9.1,9.1,0,0,1-4.3-1,13.3,13.3,0,0,1-3.1-2.6m0-3c1.7,2.4,3.6,3.6,5.6,3.6a3.2,3.2,0,0,0,2.7-1.7c1-1.6,1.6-4.8,1.6-9.4s-.6-8-1.7-9.7a3.5,3.5,0,0,0-3.1-1.7c-2,0-3.7,1.4-5,4.3V64.7Z" fill="#fff"/><path d="M264.9,71.6l-9.1-20.3a31,31,0,0,0-3-5.7,5.5,5.5,0,0,0-2.4-1.5V43h15v1.1a2.9,2.9,0,0,0-2.1.6,1.4,1.4,0,0,0-.6,1.2,14.4,14.4,0,0,0,1.5,4.4L269,61l3.3-8.3a19.5,19.5,0,0,0,1.8-6.2,2.1,2.1,0,0,0-.7-1.7,4.3,4.3,0,0,0-2.6-.7V43h9.4v1.1a3.7,3.7,0,0,0-2.3,1c-.6.6-1.6,2.6-2.9,6.1l-8.1,20.3c-2,5.1-3.5,8.2-4.5,9.4a6.7,6.7,0,0,1-5.2,2.5,6.2,6.2,0,0,1-4.1-1.4,4.4,4.4,0,0,1-1.6-3.4,3.9,3.9,0,0,1,1.1-2.8,3.6,3.6,0,0,1,2.6-1.1,3.2,3.2,0,0,1,2.4.9,4.5,4.5,0,0,1,1,2.9,2.2,2.2,0,0,0,.3,1.4.9.9,0,0,0,.7.3,2.2,2.2,0,0,0,1.5-.8c.8-.8,1.8-2.7,2.8-5.6l1-2.2" fill="#fff"/><path d="M291.7,43.1v6.2c1.9-2.8,3.5-4.7,4.9-5.6a7.8,7.8,0,0,1,4.1-1.4,3.6,3.6,0,0,1,2.7,1,3.8,3.8,0,0,1,1,2.9,4,4,0,0,1-1,3,3.2,3.2,0,0,1-2.4,1.1,4,4,0,0,1-2.8-1l-1.4-1.1-.7-.2a2.9,2.9,0,0,0-1.7.6,7.3,7.3,0,0,0-1.9,2.8,20.8,20.8,0,0,0-1,6.3v7.9a7.8,7.8,0,0,0,.2,2.1,2.5,2.5,0,0,0,1.1,1.2,8.9,8.9,0,0,0,2.4.5v1.1H280V69.4a3.2,3.2,0,0,0,2.5-1c.4-.6.6-2,.6-4.4V48.9a15.3,15.3,0,0,0-.2-3,2.7,2.7,0,0,0-.9-1.2,4.4,4.4,0,0,0-2-.5V43.1h11.7" fill="#fff"/><path d="M316,43.1v3.5a15.2,15.2,0,0,1,4.2-3.3,9.1,9.1,0,0,1,4.3-1,6.9,6.9,0,0,1,7,5.2,28.7,28.7,0,0,1,.5,6.4V64.6q0,3.1.6,3.9a3.9,3.9,0,0,0,2.5,1v1.1H320.8V69.5a3,3,0,0,0,2.3-1.3,8.4,8.4,0,0,0,.5-3.6V52.3a16.9,16.9,0,0,0-.3-4.2,3.4,3.4,0,0,0-.9-1.4,1.9,1.9,0,0,0-1.4-.5q-2.6,0-4.8,3.6V64.5q0,3.1.6,3.9a3,3,0,0,0,2.2,1v1.1H304.5V69.4a3.5,3.5,0,0,0,2.5-1.1c.3-.4.5-1.7.5-3.8V49q0-3.1-.6-3.9a3.9,3.9,0,0,0-2.5-1V43H316" fill="#fff"/><path d="M363.2,43.1V64.5q0,3.1.6,3.9a3.8,3.8,0,0,0,2.4,1v1.1H354.7V66.8a13.4,13.4,0,0,1-4,3.4,9.7,9.7,0,0,1-4.5,1.1,6.8,6.8,0,0,1-4.2-1.4,7.1,7.1,0,0,1-2.5-3.3,25.5,25.5,0,0,1-.6-6.7V49q0-3.1-.6-3.9a3.9,3.9,0,0,0-2.5-1V43h11.5V61.7a14.6,14.6,0,0,0,.3,3.8,2.5,2.5,0,0,0,.9,1.3,2.3,2.3,0,0,0,1.4.4,3.6,3.6,0,0,0,2-.6,11,11,0,0,0,2.9-3.1V49q0-3.1-.6-3.9a3.9,3.9,0,0,0-2.5-1V43h11.5" fill="#fff"/><path d="M379.8,46V65c0,1.8.2,3,.6,3.5a4.8,4.8,0,0,0,3.6,1v1.1H367.4V69.5a7.6,7.6,0,0,0,2.7-.4,2,2,0,0,0,1.1-1.1,8.9,8.9,0,0,0,.3-2.9V46h-4.1V43.1h4.1V39.7a8.9,8.9,0,0,1,3.2-7c2.1-1.9,5-2.8,8.6-2.8s4.3.4,5.5,1.3a3.8,3.8,0,0,1,1.8,3,3.1,3.1,0,0,1-1.1,2.3,4,4,0,0,1-3,1,3.9,3.9,0,0,1-2.5-.8,2.3,2.3,0,0,1-.9-1.8c0-.2.1-.5.2-1.1a2.8,2.8,0,0,0,.1-.9,1,1,0,0,0-.4-.9,1.6,1.6,0,0,0-1.2-.4,1.8,1.8,0,0,0-1.5.7,3.5,3.5,0,0,0-.6,2.3v8.6h4.2V46h-4.2" fill="#fff"/><path d="M409,55.8H393.5a14.1,14.1,0,0,0,3,8.6,6.5,6.5,0,0,0,5,2.4,5.6,5.6,0,0,0,3.3-1,14.1,14.1,0,0,0,3.2-3.5l1,.6c-1.5,3-3.2,5.2-5.1,6.4a11.7,11.7,0,0,1-6.4,1.9c-4.2,0-7.4-1.6-9.5-4.7a16.3,16.3,0,0,1-2.6-9.4c0-4.6,1.3-8.2,3.8-10.9a11.9,11.9,0,0,1,9-4.1,9.6,9.6,0,0,1,7.4,3.4c2.1,2.5,3.3,5.8,3.4,10.3m-7.4-1.9a30.5,30.5,0,0,0-.5-6.5,5.1,5.1,0,0,0-1.6-2.7,2.3,2.3,0,0,0-1.7-.5,3.1,3.1,0,0,0-2.6,1.5,12.2,12.2,0,0,0-1.8,7.1v1h8.2Zm4.5-24.5-10,10.2h-2.6L397,29.4h9.1" fill="#fff"/><path d="M420.7,30.8v34c0,1.9.2,3.2.7,3.7a4.3,4.3,0,0,0,2.7.9v1.1H408.9V69.4a3.6,3.6,0,0,0,2.8-1.1q.6-.6.6-3.6V36.4c0-1.9-.2-3.1-.7-3.7a4.3,4.3,0,0,0-2.7-.9V30.7h11.8" fill="#fff"/><path d="M439.5,66.4c-3.4,2.9-6.5,4.4-9.3,4.4a5.7,5.7,0,0,1-4-1.5,5,5,0,0,1-1.6-3.9,7.1,7.1,0,0,1,2.8-5.6c1.9-1.6,5.9-3.9,12.1-6.7V50.3a14.5,14.5,0,0,0-.3-3.9,3.4,3.4,0,0,0-1.3-1.4,4,4,0,0,0-2.2-.6,6.1,6.1,0,0,0-3.2.8,1.7,1.7,0,0,0-.8,1.2,2.8,2.8,0,0,0,.8,1.5,3.5,3.5,0,0,1,1.1,2.4,3,3,0,0,1-1.1,2.4,3.9,3.9,0,0,1-2.9,1,5,5,0,0,1-3.2-1.1,3.2,3.2,0,0,1-1.3-2.6,6.2,6.2,0,0,1,1.7-4,9.6,9.6,0,0,1,4.8-2.9,19.9,19.9,0,0,1,6.4-1,11,11,0,0,1,6.4,1.7,7.1,7.1,0,0,1,3,3.6,22.2,22.2,0,0,1,.4,5.7V63.7a10.3,10.3,0,0,0,.2,2.4,1,1,0,0,0,.5.7.8.8,0,0,0,.7.2,2.2,2.2,0,0,0,1.6-1.1l.9.7a10.1,10.1,0,0,1-3.1,3.1,6.6,6.6,0,0,1-3.7,1,6.1,6.1,0,0,1-3.8-1.1,4.5,4.5,0,0,1-1.6-3.2m0-2.1V55.1a17.9,17.9,0,0,0-5.4,4.5,5.3,5.3,0,0,0-1.2,3.2,3.3,3.3,0,0,0,1,2.4,2.9,2.9,0,0,0,2.1.8,6.6,6.6,0,0,0,3.5-1.7" fill="#fff"/><path d="M470.1,43.4h9.5v3.2h-5.4a10.8,10.8,0,0,1,2.1,2.6,7.8,7.8,0,0,1,.7,3.3,8.2,8.2,0,0,1-1.7,5.1,10.1,10.1,0,0,1-4.6,3.4,13.4,13.4,0,0,1-5.1,1.2H462a3.2,3.2,0,0,0-2.3.9,2.9,2.9,0,0,0-.9,2.1,2.1,2.1,0,0,0,.8,1.7,4.8,4.8,0,0,0,2.7.7h5.2c4.2,0,7.1.4,8.7,1.3a6.2,6.2,0,0,1,3.4,5.8,6.7,6.7,0,0,1-1.6,4.5,8.3,8.3,0,0,1-4.1,3,25,25,0,0,1-9,1.4,29.3,29.3,0,0,1-6.9-.7,9.5,9.5,0,0,1-4.5-2,3.6,3.6,0,0,1-1.4-2.7,3.3,3.3,0,0,1,1-2.4A8.8,8.8,0,0,1,457,74c-2.6-1.3-3.9-3-3.9-5.2a5.8,5.8,0,0,1,1.6-3.9,12.5,12.5,0,0,1,5.1-3.3,13.1,13.1,0,0,1-5.9-3.8,8.8,8.8,0,0,1-1.8-5.4,8.9,8.9,0,0,1,3.4-7,12.7,12.7,0,0,1,8.7-2.9,18,18,0,0,1,5.9,1.1m-7,31.1a11.5,11.5,0,0,0-4.1.5,2.8,2.8,0,0,0-1.7,2.5,3.3,3.3,0,0,0,1.8,2.7c1.2.8,3.4,1.2,6.7,1.2a16.7,16.7,0,0,0,6.6-1.1q2.4-1,2.4-3a1.7,1.7,0,0,0-.5-1.2,4.2,4.2,0,0,0-2.5-1.2c-1.1-.3-4-.4-8.7-.4m1.7-30.4a3.6,3.6,0,0,0-3,1.7c-.8,1.1-1.2,3.5-1.2,7.1s.4,4.9,1.2,6a3.3,3.3,0,0,0,2.8,1.6,3.5,3.5,0,0,0,3-1.6q1.2-1.6,1.2-6.3c0-3.5-.5-5.9-1.4-7.1a2.8,2.8,0,0,0-2.6-1.4" fill="#fff"/><path d="M491,43.1V64.8c0,1.9.2,3.2.7,3.7a4.3,4.3,0,0,0,2.7.9v1.1H479.2V69.4a3.6,3.6,0,0,0,2.8-1.1q.6-.6.6-3.6v-16c0-1.9-.2-3.2-.7-3.7a4.3,4.3,0,0,0-2.7-.9V43H491m-4.3-13.3a4.6,4.6,0,0,1,4.7,4.5h0a4.3,4.3,0,0,1-1.4,3.2,4.8,4.8,0,0,1-6.6,0,4.3,4.3,0,0,1-1.4-3.2,4.5,4.5,0,0,1,1.4-3.2,5.3,5.3,0,0,1,3.3-1.3" fill="#fff"/><path d="M506.4,37l-7.6,4.1-1-1.7,7.2-4a35.3,35.3,0,0,0-5.6-4.6l.7-1,4,1.7a23,23,0,0,1,3.9,2.4l7.1-3.9.9,1.7-6.3,3.4a31,31,0,0,1,8.3,9.3,21.8,21.8,0,0,1,2.7,10.7,21.3,21.3,0,0,1-1.6,8.6,11.6,11.6,0,0,1-4.7,5.7,13.7,13.7,0,0,1-13.9,0,12.4,12.4,0,0,1-4.7-5.2,16,16,0,0,1-1.6-7.3,15.6,15.6,0,0,1,2.5-9,10.1,10.1,0,0,1,9-4.7,16.5,16.5,0,0,1,4.4.8,35.7,35.7,0,0,0-1.8-3.8,14.6,14.6,0,0,0-1.9-3.2m1.2,8.2a3.5,3.5,0,0,0-2.3.7,4.6,4.6,0,0,0-1.5,2.5,25.8,25.8,0,0,0-.6,6.9q0,8.1.6,10.5a3.9,3.9,0,0,0,1.4,2.5,4.1,4.1,0,0,0,2.4.8,3.6,3.6,0,0,0,2.3-.8,4.3,4.3,0,0,0,1.4-2.6q.6-2.4.6-9.9a37.3,37.3,0,0,0-.5-7.5,4.2,4.2,0,0,0-1.4-2.5,4.8,4.8,0,0,0-2.4-.6" fill="#fff"/><path d="M258.4,104.3v23.6h-1.9c-2.2-6.5-5.5-11.4-10-14.7a23.2,23.2,0,0,0-14.5-5,19.2,19.2,0,0,0-12.6,4.2c-3.4,2.8-5.7,6.8-7,11.8a57.8,57.8,0,0,0-2,15.5,57.1,57.1,0,0,0,2.3,16.9c1.5,4.9,3.9,8.4,7.3,10.7a20.9,20.9,0,0,0,12,3.4,22.3,22.3,0,0,0,5-.5,38.7,38.7,0,0,0,5.3-1.5V154.8c0-2.7-.1-4.3-.5-5.1a5.4,5.4,0,0,0-2.3-2.2,7.9,7.9,0,0,0-4.2-.9h-1.8v-1.9h32.6v1.9a11,11,0,0,0-5.1,1.1,5.4,5.4,0,0,0-2.3,2.6,14.9,14.9,0,0,0-.4,4.6v13.9a63.4,63.4,0,0,1-13.4,4.3,75.8,75.8,0,0,1-14.5,1.5c-6.4,0-11.6-.8-15.8-2.6a40.1,40.1,0,0,1-11.1-6.9,32.8,32.8,0,0,1-7.6-9.5,35.5,35.5,0,0,1,7.2-40.8c7-7,16.1-10.4,26.8-10.4a49.7,49.7,0,0,1,9.1.8,53.8,53.8,0,0,1,7,2.3c3.2,1.2,5.1,1.9,5.8,1.9a4,4,0,0,0,2.6-1.1,9.2,9.2,0,0,0,2.2-3.8h1.9v-.2" fill="#fff"/><path d="M280.1,157.7a7.7,7.7,0,0,1,5.8,2.4,8.2,8.2,0,1,1-11.6,0,7.5,7.5,0,0,1,5.8-2.4" fill="#fff"/><path d="M362.6,104.3v23.6h-1.9c-2.2-6.5-5.5-11.4-10-14.7a23.2,23.2,0,0,0-14.5-5,19.2,19.2,0,0,0-12.6,4.2c-3.4,2.8-5.7,6.8-7,11.8a57.8,57.8,0,0,0-2,15.5,57.1,57.1,0,0,0,2.3,16.9c1.5,4.9,3.9,8.4,7.3,10.7a20.9,20.9,0,0,0,12,3.4,22.3,22.3,0,0,0,5-.5,38.7,38.7,0,0,0,5.3-1.5V154.8c0-2.7-.1-4.3-.5-5.1a5.4,5.4,0,0,0-2.3-2.2,7.9,7.9,0,0,0-4.2-.9h-1.8v-1.9h32.6v1.9a11,11,0,0,0-5.1,1.1,5.4,5.4,0,0,0-2.3,2.6,14.9,14.9,0,0,0-.4,4.6v13.9a63.4,63.4,0,0,1-13.4,4.3,75.8,75.8,0,0,1-14.5,1.5c-6.4,0-11.6-.8-15.8-2.6a40.1,40.1,0,0,1-11.1-6.9,32.8,32.8,0,0,1-7.6-9.5,35.5,35.5,0,0,1,7.2-40.8c7.2-7,16.1-10.4,26.8-10.4a49.7,49.7,0,0,1,9.1.8,53.8,53.8,0,0,1,7,2.3c3.2,1.2,5.1,1.9,5.8,1.9a4,4,0,0,0,2.6-1.1,9.2,9.2,0,0,0,2.2-3.8h1.9v-.2" fill="#fff"/><path d="M384.3,157.7a7.7,7.7,0,0,1,5.8,2.4,8.2,8.2,0,1,1-11.6,0,7.5,7.5,0,0,1,5.8-2.4" fill="#fff"/><path d="M235.9,657.8l.2,6.6h-.6a6.8,6.8,0,0,0-2.1-4,5.3,5.3,0,0,0-3.6-1.5,3.6,3.6,0,0,0-2.4.8,2.3,2.3,0,0,0-.9,1.8,2.7,2.7,0,0,0,.3,1.2,4.6,4.6,0,0,0,1.4,1.4l3.2,1.7a13.9,13.9,0,0,1,4.7,3.2,5.8,5.8,0,0,1-.7,7.8,6.9,6.9,0,0,1-4.9,1.8l-1.8-.2-2.1-.7-1.2-.3a1.3,1.3,0,0,0-.8.3,2.2,2.2,0,0,0-.7.9h-.5V671h.5a8.5,8.5,0,0,0,2.5,4.8,5.8,5.8,0,0,0,4,1.7,3.6,3.6,0,0,0,2.6-.9,3,3,0,0,0,1-2.1,2.5,2.5,0,0,0-.4-1.4,4.5,4.5,0,0,0-1.1-1.3,14.4,14.4,0,0,0-2.7-1.5,19.9,19.9,0,0,1-3.9-2.3,7,7,0,0,1-1.8-2.1,5.5,5.5,0,0,1,1.1-6.5,6,6,0,0,1,4.4-1.7l1.9.2a5.6,5.6,0,0,1,1.7.7l1.4.5.6-.2a2.5,2.5,0,0,0,.4-1.1h.3" fill="#fff"/><path d="M256,658.2v5.4h-.5a13,13,0,0,0-1-2.7,4.2,4.2,0,0,0-1.6-1.3,4.4,4.4,0,0,0-1.9-.3h-1.5v15.3a6.1,6.1,0,0,0,.2,1.9,1.5,1.5,0,0,0,.7.7,2.5,2.5,0,0,0,1.3.3h.7v.5H242v-.5h.7a2.9,2.9,0,0,0,1.4-.3,1.1,1.1,0,0,0,.6-.7,5.3,5.3,0,0,0,.2-1.8V659.4h-1.4a4.6,4.6,0,0,0-2.9.8,5.7,5.7,0,0,0-1.6,3.4h-.6v-5.4H256" fill="#fff"/><path d="M266.7,657.9a9.8,9.8,0,0,1,7.7,2.8,9.9,9.9,0,0,1,3,7.4,10.8,10.8,0,0,1-2.2,6.7,11.2,11.2,0,0,1-16.6.2,10.7,10.7,0,0,1-2.3-6.8,10.1,10.1,0,0,1,3-7.4,9.6,9.6,0,0,1,7.4-2.9m.2,1a4.3,4.3,0,0,0-4.1,2.8,14.4,14.4,0,0,0-1.2,6.6q0,5.1,1.8,7.5a4.6,4.6,0,0,0,6,1,5.7,5.7,0,0,0,2-3,16.5,16.5,0,0,0,.7-5.4,17.8,17.8,0,0,0-.7-5.9,6,6,0,0,0-1.9-2.8,4,4,0,0,0-2.6-.8" fill="#fff"/><path d="M285.3,659.4v8.2h.6a4.8,4.8,0,0,0,2.2-.4,3.5,3.5,0,0,0,1.4-1.3,7.3,7.3,0,0,0,.8-2.5h.5v10h-.5c-.2-1.9-.7-3.1-1.5-3.7a4.7,4.7,0,0,0-2.8-.9h-.6v6.1a6.1,6.1,0,0,0,.2,1.9,1.5,1.5,0,0,0,.7.7,2.5,2.5,0,0,0,1.3.3h.7v.5H277.9v-.5h.7a2.9,2.9,0,0,0,1.4-.3c.3-.1.4-.4.6-.7a5.3,5.3,0,0,0,.2-1.8V661.9a6.1,6.1,0,0,0-.2-1.9,1.5,1.5,0,0,0-.7-.7,2.5,2.5,0,0,0-1.3-.3h-.7v-.5h16.6v5.7h-.6a5.9,5.9,0,0,0-1-3,4.4,4.4,0,0,0-2.4-1.4l-3.3-.2h-1.9v-.2" fill="#fff"/><path d="M301.4,658.2l9.8,12.3V662a4.3,4.3,0,0,0-.5-2.4,2.9,2.9,0,0,0-2.4-.8v-.5h6.6v.5a4.7,4.7,0,0,0-1.7.4,2.7,2.7,0,0,0-.7.8,4.7,4.7,0,0,0-.2,2v16.5h-.5L298.4,662v12.6a2.9,2.9,0,0,0,.8,2.3,2.8,2.8,0,0,0,1.8.6h.5v.5h-7v-.5a2.9,2.9,0,0,0,2.3-.7,3.4,3.4,0,0,0,.6-2.2v-14l-.4-.5a3.2,3.2,0,0,0-1.1-1l-1.4-.3v-.5h6.9" fill="#fff"/><path d="M326.7,672.4h-7l-.8,1.9a3.7,3.7,0,0,0-.4,1.6,1.1,1.1,0,0,0,.7,1.2,4.9,4.9,0,0,0,1.9.4v.5h-6.6v-.5a3.1,3.1,0,0,0,1.8-.9,11.9,11.9,0,0,0,1.7-3l7.1-15.8h.3l7.2,16.3a9.4,9.4,0,0,0,1.7,2.9,2,2,0,0,0,1.4.5v.5h-9.6v-.5h.4a3,3,0,0,0,1.6-.3.9.9,0,0,0,.3-.7.7.7,0,0,0-.1-.5l-.4-1.1-1.2-2.5m-.5-1.1-3-6.8-3,6.8h6" fill="#fff"/><path d="M335,678.1v-.5h.7a2.3,2.3,0,0,0,1.3-.3l.7-.7a6.7,6.7,0,0,0,.1-1.8v-6.5H335v-1.1h2.8v-5.4a6.1,6.1,0,0,0-.2-1.9,1.2,1.2,0,0,0-.7-.7,2.5,2.5,0,0,0-1.3-.3h-.7v-.5h8.9a12.9,12.9,0,0,1,5.7,1,8.3,8.3,0,0,1,4,3.6,10.9,10.9,0,0,1,1.4,5.4,10,10,0,0,1-.7,3.9,8.2,8.2,0,0,1-1.7,2.9A6.4,6.4,0,0,1,350,677a13.6,13.6,0,0,1-3.4,1.1l-2.8.2H335v-.2m7.6-18.8V667H347v1.1h-4.4v6.7a5,5,0,0,0,.1,1.5l.4.4,1.1.2a4.7,4.7,0,0,0,3.8-1.7c1.2-1.5,1.7-3.8,1.7-7a13.2,13.2,0,0,0-1.2-6.1,4.7,4.7,0,0,0-2.4-2.4,13.3,13.3,0,0,0-3.5-.4" fill="#fff"/><path d="M243.6,693.8V710a9.2,9.2,0,0,0,.2,2.3,1.3,1.3,0,0,0,.7.8,3.5,3.5,0,0,0,1.6.3h.5v.5H236.1v-.5h.5a3.9,3.9,0,0,0,1.8-.3,1.8,1.8,0,0,0,.7-.8,9.6,9.6,0,0,0,.2-2.4V699.6a6.3,6.3,0,0,0-.1-1.7l-.5-.6a1.1,1.1,0,0,0-.8-.2,4.9,4.9,0,0,0-1.8.5l-.3-.5,7.3-3.3h.5" fill="#fff"/><path d="M251.2,709.6a2.1,2.1,0,0,1,1.7.7,2.8,2.8,0,0,1,.7,1.7,2.4,2.4,0,0,1-4.1,1.7,2.2,2.2,0,0,1-.7-1.7,2.1,2.1,0,0,1,.7-1.7,2.6,2.6,0,0,1,1.7-.7" fill="#fff"/><path d="M270.5,708.4h-7l-.8,1.9a3.7,3.7,0,0,0-.4,1.6,1.1,1.1,0,0,0,.7,1.2,4.9,4.9,0,0,0,1.9.4v.5h-6.6v-.5a3.1,3.1,0,0,0,1.8-.9,11.9,11.9,0,0,0,1.7-3l7.1-15.8h.3l7.2,16.3a9.4,9.4,0,0,0,1.7,2.9,2,2,0,0,0,1.4.5v.5h-9.6v-.5h.4a3,3,0,0,0,1.6-.3.9.9,0,0,0,.3-.7.7.7,0,0,0-.1-.5l-.4-1.1-1.2-2.5m-.5-1.1-3-6.8-3,6.8h6" fill="#fff"/><path d="M286.3,705.1v5.5a6.4,6.4,0,0,0,.2,2,1.6,1.6,0,0,0,.7.7,4.5,4.5,0,0,0,1.9.2v.5H279v-.5a4.4,4.4,0,0,0,1.9-.3,1.6,1.6,0,0,0,.7-.7,6.9,6.9,0,0,0,.2-2V697.6a6.4,6.4,0,0,0-.2-2,1.6,1.6,0,0,0-.7-.7,4.5,4.5,0,0,0-1.9-.2v-.5h8.7c2.9,0,4.9.5,6.1,1.5a4.9,4.9,0,0,1,1.9,3.8,4.8,4.8,0,0,1-1.2,3.3,6.7,6.7,0,0,1-3.3,1.9,19.2,19.2,0,0,1-4.9.4m0-9.7V704h.7a3.8,3.8,0,0,0,2.8-1.1,5,5,0,0,0,1-3.3,4.1,4.1,0,0,0-1-3.2,4.2,4.2,0,0,0-2.9-1h-.6" fill="#fff"/><path d="M303.1,705v5.6a6.4,6.4,0,0,0,.2,2,1.6,1.6,0,0,0,.7.7,4.5,4.5,0,0,0,1.9.2v.5H295.7v-.5a4.4,4.4,0,0,0,1.9-.3,1.6,1.6,0,0,0,.7-.7,6.9,6.9,0,0,0,.2-2V697.6a6.4,6.4,0,0,0-.2-2,1.6,1.6,0,0,0-.7-.7,4.5,4.5,0,0,0-1.9-.2v-.5h9.2a21.8,21.8,0,0,1,5.3.5,5,5,0,0,1,2.7,1.8,4.9,4.9,0,0,1,1.1,3.1,4.4,4.4,0,0,1-1.6,3.6,6.7,6.7,0,0,1-2.8,1.4l4.8,6.7a9.9,9.9,0,0,0,1.3,1.6,2.4,2.4,0,0,0,1.4.5v.5h-6.3l-6.4-9.1h-1.3v.2m0-9.7V704h.8a7.4,7.4,0,0,0,3-.4,2.9,2.9,0,0,0,1.6-1.3,4.6,4.6,0,0,0,.6-2.5,5,5,0,0,0-1.1-3.4c-.7-.8-1.8-1.1-3.4-1.1h-1.5" fill="#fff"/><path d="M326.4,713.5v.5H316v-.5h.7a2.9,2.9,0,0,0,1.4-.3c.3-.1.4-.4.6-.7a5.3,5.3,0,0,0,.2-1.8V697.6a6.1,6.1,0,0,0-.2-1.9,1.5,1.5,0,0,0-.7-.7,2.5,2.5,0,0,0-1.3-.3H316v-.5h10.4v.5h-.7a2.9,2.9,0,0,0-1.4.3,1.1,1.1,0,0,0-.6.7,5.3,5.3,0,0,0-.2,1.8v13.1a6.1,6.1,0,0,0,.2,1.9,1.5,1.5,0,0,0,.7.7,2.5,2.5,0,0,0,1.3.3h.7m-.8-26.1-4.8,5.1h-1.3l1.7-5.1h4.4" fill="#fff"/><path d="M344.6,707.1l-.7,7H326.3v-.5h.7a2.9,2.9,0,0,0,1.4-.3c.3-.1.4-.4.6-.7a5.3,5.3,0,0,0,.2-1.8V697.7a6.1,6.1,0,0,0-.2-1.9,1.5,1.5,0,0,0-.7-.7,2.5,2.5,0,0,0-1.3-.3h-.7v-.5h10.6v.5H336a2.9,2.9,0,0,0-1.4.3,1.1,1.1,0,0,0-.6.7,5.3,5.3,0,0,0-.2,1.8v12.7a6.1,6.1,0,0,0,.2,1.9.9.9,0,0,0,.7.6h3.5a5,5,0,0,0,2.6-.6,5.2,5.2,0,0,0,1.8-1.8,17.3,17.3,0,0,0,1.5-3.5h.5" fill="#fff"/><path d="M270.8,729.8V746a9.2,9.2,0,0,0,.2,2.3,1.3,1.3,0,0,0,.7.8,3.5,3.5,0,0,0,1.6.3h.5v.5H263.3v-.5h.5a3.9,3.9,0,0,0,1.8-.3,1.8,1.8,0,0,0,.7-.8,9.6,9.6,0,0,0,.2-2.4V735.6a6.3,6.3,0,0,0-.1-1.7l-.5-.6a1.1,1.1,0,0,0-.8-.2,4.9,4.9,0,0,0-1.8.5l-.3-.5,7.3-3.3h.5" fill="#fff"/><path d="M275.6,750.5v-.4a14,14,0,0,0,4.1-1.6,8.7,8.7,0,0,0,2.7-2.7,10.9,10.9,0,0,0,1.4-3.7l-1.5.7-1.3.2a4.9,4.9,0,0,1-3.8-1.6,6.4,6.4,0,0,1-1.5-4.5,8.6,8.6,0,0,1,.8-3.6,5.6,5.6,0,0,1,2.3-2.5,6.1,6.1,0,0,1,3.1-.9,5.6,5.6,0,0,1,3.3,1,7.2,7.2,0,0,1,2.5,2.9,10,10,0,0,1,.9,4.3,12.7,12.7,0,0,1-1.5,6,11.1,11.1,0,0,1-4.5,4.6,15.4,15.4,0,0,1-7,1.8m8.4-9.6c.1-1.1.1-2.1.1-2.9a20.1,20.1,0,0,0-.6-5,4.3,4.3,0,0,0-1-1.9,1.5,1.5,0,0,0-1-.3,1.1,1.1,0,0,0-1.1.6,6.4,6.4,0,0,0-.6,3.3c0,2.7.3,4.6,1,5.6a1.9,1.9,0,0,0,1.7,1,3.4,3.4,0,0,0,1.5-.4" fill="#fff"/><path d="M289.2,750.5v-.4a14,14,0,0,0,4.1-1.6,8.7,8.7,0,0,0,2.7-2.7,10.9,10.9,0,0,0,1.4-3.7l-1.5.7-1.3.2a4.9,4.9,0,0,1-3.8-1.6,6.4,6.4,0,0,1-1.5-4.5,8.6,8.6,0,0,1,.8-3.6,5.6,5.6,0,0,1,2.3-2.5,6.1,6.1,0,0,1,3.1-.9,5.6,5.6,0,0,1,3.3,1,7.2,7.2,0,0,1,2.5,2.9,10,10,0,0,1,.9,4.3,12.7,12.7,0,0,1-1.5,6,11.1,11.1,0,0,1-4.5,4.6,15.4,15.4,0,0,1-7,1.8m8.4-9.6c.1-1.1.1-2.1.1-2.9a20.1,20.1,0,0,0-.6-5,4.3,4.3,0,0,0-1-1.9,1.5,1.5,0,0,0-1-.3,1.1,1.1,0,0,0-1.1.6,6.4,6.4,0,0,0-.6,3.3c0,2.7.3,4.6,1,5.6a1.9,1.9,0,0,0,1.7,1,3.4,3.4,0,0,0,1.5-.4" fill="#fff"/><path d="M302.6,742.6l9.4-12.8h1.8v12.8h1.8v3h-1.8v4.5h-4v-4.5h-7.2v-3m1.4,0h5.8v-7.8l-5.8,7.8" fill="#fff"/><path d="M348.4,610.4l-4.4-.2a62.1,62.1,0,0,1-10.4-2,4.6,4.6,0,0,1-2.9-3.1,4.9,4.9,0,0,1,0-4.4c2.6-4.1,5.3-8.2,7.9-12.1l5.3-8.1a9.1,9.1,0,0,0,1.5-3.1,19.6,19.6,0,0,1,6.9-14.5,84.4,84.4,0,0,0,12.9-13.8,48.7,48.7,0,0,0,5-10.2l.4-1-2,.9c-3.7,1.7-7.5,3.5-11.6,4.2s-7,1.6-9.3,4a11.4,11.4,0,0,1-5.5,3.5,18.7,18.7,0,0,1-4.2.4h-7.3l2.3-8-3.2,1.6-8.2,4.1-4.9,2.9-2.6,1.6-2.1,1.2-.9.5-3.1,1.7-1.2-3.3-.4-.8a8.1,8.1,0,0,1-1-3.6c0-2.2.2-4.8,1.7-6.6,8.2-10.6,4.7-19.2-3.8-29.6a22,22,0,0,1-14.4,5.4,24.7,24.7,0,0,1-10.3-2.3c-3.8-1.7-6.6-5.4-9-8.7l-1.2-1.6c-1.1-1.4-2.8-3.1-4.8-3.1s-3.5,1.6-4.6,3a5.2,5.2,0,0,1-3.8,1.9,3.4,3.4,0,0,1-1.6-.4,8.9,8.9,0,0,0-4.1-1.1c-2.7,0-5.3,1.4-8.9,4.6s-8.2,5.6-12.9,5.6a25.4,25.4,0,0,1-5.2-.6,27.1,27.1,0,0,0-5.6-.6c-6.3,0-11.1,2.5-14.4,7.3a24.3,24.3,0,0,1-2.4,3l-.8,1c-.6.7-2.3,2.8-4.9,2.8a6.3,6.3,0,0,1-3.9-1.5h-.6c-2.4,2.5-4.7,5.2-6.9,7.8l-6.5,7.4a13.2,13.2,0,0,1-4.1,2.7l-1.4.7-3.5,2.1-2-8.4V539h0a24.1,24.1,0,0,1-.8-2.5l-.3-1a9.2,9.2,0,0,0-1.3,3.9c2.4,10.8.8,13.2-6.3,16.4l-3.8,1.8a45.9,45.9,0,0,1-21.2,5.6,39.4,39.4,0,0,1-17.7-4.3c-1.1-.6-3.5-1.7-4-4.2s.9-4.2,1.9-5.4c10.5-12.7,21.2-25.9,31.9-39.3,5.4-6.8,11.8-10.1,19.5-10.1a29,29,0,0,1,4.4.3l3,.2c5.4,0,10.8-2.2,15.9-4.5l3.3-1.7a34.7,34.7,0,0,1,6.9-3.1c6.3-1.8,9.7-6.4,13-12.8l.7-1.4c.6-1.2,1.2-2.4,1.9-3.6a31.4,31.4,0,0,1-4.5-.7,21.8,21.8,0,0,0-4.3-.6,5.5,5.5,0,0,0-3.8,1.4,3.2,3.2,0,0,1-2.1.7c-1.4,0-4.2-.8-4.2-3.4a7.9,7.9,0,0,1,.7-4c3.8-7.2,10.2-10.8,16.6-13.6l5.3-2.2c5.1-2,9.9-4,13.5-7.1,6.2-5.3,12.2-6.4,19.3-6.5a116.9,116.9,0,0,0,12.7-1,85.9,85.9,0,0,1-15.5-6.2c-18-8.9-31.1-18.9-41.4-31.3l-.2-.2a6.8,6.8,0,0,1-1-1.4c-2.2-4.1-3.5-6.6-2.3-9a4.2,4.2,0,0,1,1.3-1.5,73.2,73.2,0,0,1-11.6-5.1l-.6-.3c-3.8-1.9-6.9-3.4-10.8-3.4h-.3c-3.6,0-6.4-1.3-8-3.7s-1.7-5.9-.1-9.6c4.9-11.6.7-21.7-4.7-31l-.2-.3-.5.3c-8.4,5.2-12.2,10.6-12.5,18v1.1c-.1,3-.2,7.1-3.6,10.2l.3.9,2.4,5c.8,1.6,2.4,4.8,3.4,7.3a12.4,12.4,0,0,1-2.4,13.4,50,50,0,0,1-20.9,14.8,8.7,8.7,0,0,1-3,.6c-1.4,0-4.8-.6-5.1-5.8-.1-2.2-.2-4.4-.2-6.6s-.1-3.8-.2-5.7c-.3-6.4-.7-13.7-1.3-20.8a15.4,15.4,0,0,0-1.6-5.3c-3.5-7.2-2.9-12.1,2.3-18.1a58.6,58.6,0,0,0,7-9.6c6.7-11.8,16.5-20.7,26.1-29.3l.5-.5a14.4,14.4,0,0,1,9.8-4.1c4.1,0,8.2,1.9,12,5.7a29.8,29.8,0,0,0,4.6,3.4,38.1,38.1,0,0,1,5.1,3.7c4.6,4.2,9.1,8.5,13.4,12.7l9.1,8.7c.6.6,2.4,2.2,3.3,2.2a2.1,2.1,0,0,0,1.2-.8h0c-2-2-4.2-3.9-6.4-5.8l-3.2-2.8c-5-4.4-5.5-8.8-1.8-14.3,8.9-13.1,19.8-19.6,33.1-19.9a151.7,151.7,0,0,0,26.8-3.2,58.5,58.5,0,0,1,11.4-1c5,0,10,.4,14.4.8h3.1a45,45,0,0,0,12.9-2.1,20.3,20.3,0,0,1-10.9-6.6c-1.5-1.6-2.1-1.6-2.1-1.6s-.5.1-1.5,1.4a13,13,0,0,1-3.8,3,11.6,11.6,0,0,1-5.9,1.8,9.1,9.1,0,0,1-7.1-3.5c-2.6-3.1-5.2-4.4-8.6-4.4h-1a11.2,11.2,0,0,1-5.1-1.6l-1.8-.8-1.3-.5a8.4,8.4,0,0,0-2.3-.7,58,58,0,0,1-6.7.4c-4.5,0-11-.7-16.4-6.6s-6.6-13.2-3.6-21.3a8,8,0,0,1,2.6-3.3l.8-.7,2.2-2.3,2.1,2.4.7.7,1.8,2c2.8,3.9,5.6,6.7,9.6,7.2a12.8,12.8,0,0,1-1.5-2.8c-1.2-3.2-.4-5.4.4-6.6a6.1,6.1,0,0,1,2.9-2.2l1.6-2.6.5-1c.6-1.3,1.4-3.1,3.3-3.8a121.1,121.1,0,0,1,16.4-4.8A266.6,266.6,0,0,0,324.7,212a7.2,7.2,0,0,0,2.3-1.4c5.5-5.6,12.3-6.4,18.8-6.5a14.2,14.2,0,0,0,3.2-.6l2.2-.5,2.9-.6a29.9,29.9,0,0,1,7.1-1.1h.8a88,88,0,0,1,16.8,2.6,79.8,79.8,0,0,1,9.3,3.2l5.8,2.1,3.8.9a25.3,25.3,0,0,1,6.9,2.1,79.3,79.3,0,0,1,9.7,6.4l3.4,2.4,1.4,1.3.3.3c8.5,2.5,12.9,9,17.1,15.2l1.2,1.7a13.2,13.2,0,0,0,1.9,1.9,20.2,20.2,0,0,1,2.4,2.5l1.4,1.8a79.8,79.8,0,0,1,6.8,9.8c2.1,3.8,3.9,7.7,5.6,11.5l2.5,5.4c4.2,8.7,10.9,15.8,20.1,21.2,3.2,1.9,7.6,2.3,11.9,2.8h1c5.1.6,7.3,2.9,8.3,4.7s1.6,4.9-.7,9.2c-4.1,7.7-11.2,8.6-16.2,8.6h-3.2c-10.8-.7-19.9-6-28.3-11.4S437,294.4,431.4,287l-4-5.2-1.3-1.7v.3a75.3,75.3,0,0,1,2.9,12.9c.3,1.9.6,3.8,1,5.7s.3,1.5.5,2.3l.6,2.6c.2.9.5,1.9.7,3,.8,2.7,1.6,5.8.9,8.8-1,4.5-.7,8.7-.3,13.8.9,9.9,5,17.5,12.7,23.9,4.3,3.6,9.4,4.7,14.9,5.9l3.6.8a29.4,29.4,0,0,1,5.4,2.1l2.1.9,2.8,1.2-1.2,2.8a18.3,18.3,0,0,0-1,2.8c-.9,2.6-1.8,5.5-4.1,7.5s-7.2,4.1-11.9,4.4h-2.8c-12.7,0-22.9-6.4-31.2-12.7-13.7-10.4-19.4-25.9-23.6-39.6-1.6-5.1-3.1-10.3-4.6-15.4-3.4-11.4-6.9-23.2-10.9-34.5a20,20,0,0,0-2.8-5.2c.7,1.5,1.3,3.1,1.9,4.6l.7,1.8a4.1,4.1,0,0,1,.1,2.7h0l-.5,3.4-3.3-1h-.2l-1.1-.3L376,285l-1.4-.5h-5.7c.2,1.6.5,3.1.8,4.6,2.8,12.4-.2,24.2-8.8,35.2a6.5,6.5,0,0,1-2.5,1.8l-.5.3-2.7,1.6-.3-.6-.6,3.2-2.4,12.1a15.9,15.9,0,0,1-1.4,3.7l-.6,1.2-1.6,3.7-3.1-2.5-1.5-1.2a45,45,0,0,1-4-3.5,4,4,0,0,1-.9-1.3,7.5,7.5,0,0,0-1,1.7l1.2,3.4,1.6,4.4c.9,2.5.7,4.5-.4,6.1s-2.2,2.2-5.1,2.2h-1.4a23.6,23.6,0,0,1-13.5-6.7,36,36,0,0,0,.9,6.2c.6,2.4.4,4.3-.7,5.6a4.4,4.4,0,0,1-3.6,1.7,7.6,7.6,0,0,1-3.4-.9l-3-1.8a20.1,20.1,0,0,1,.6,2.1,7.3,7.3,0,0,1-1.3,5.1l-.5,1.1a3.4,3.4,0,0,1-2.3,1.9c-7.3,3.2-7.3,3.2-4.3,10.6a2.5,2.5,0,0,0,.8,1c17,9,30,22.8,39.4,33.7,2.9,3.3,6,6.7,10.3,7.7a28.8,28.8,0,0,0,6.5,1.1,7.5,7.5,0,0,0,6.4-3.3c5.7-7.4,14.4-9.1,22-10.6l1.6-.3a30.4,30.4,0,0,1,6-.6c10.5,0,18.7,5.9,25.3,11.7a6,6,0,0,1,1.4,2.1l.2.4,1.9,3.2-3.6,1.1-.5.2-1.5.4-5.4,1.3-11,2.7v.3a33.8,33.8,0,0,1,1.6,3.8l.6,1.5,1.6,4-5.8.2h-2.9v.6l-3-.3-5-.7a51.9,51.9,0,0,0-8-.9h-2.2c-3.3.4-6.6,1.8-10.2,3.3l-1.9.8,1.9,4.8a108.4,108.4,0,0,1,4.2,11.8c1,3.6.3,7.5-.4,10.9a49.9,49.9,0,0,1-2.2,6.8,38.1,38.1,0,0,0-1.5,4.4c-.9,3-.1,6.5,2.3,9.6s6.2,5.4,9.6,5.4h1.4l4.1-.7a58.7,58.7,0,0,1,7.5-1.2l3.1-.2c6.7,0,12.1,2.4,15.3,6.8s4,11.1,1.7,18.2a34.3,34.3,0,0,1-3.9,7.9c-4,6.3-5.2,13.4-6,20.3a15.7,15.7,0,0,0,0,2.1v.7c0,1,0,2.1.1,3.1v4.5H398a9.9,9.9,0,0,1-3.9-.7l-.5-.2a21.2,21.2,0,0,0-4.8-1.7c-.6.3-2.1,2.6-3.1,4.1a60.8,60.8,0,0,0-4.4,8.6l-1,2.1a6.7,6.7,0,0,0,.1,1.4c.2,1.6.5,3.1.8,4.7.5,3.2,1.1,6.5,1.4,9.8s-2.2,5.6-3.9,6.8C368.6,607,358.7,610.4,348.4,610.4ZM267.3,489.8c6.8,0,10.4,5,13,10a10.4,10.4,0,0,0,9.2,5.2,10.6,10.6,0,0,0,5.3-1.4,4.7,4.7,0,0,0,2.8-4.9c-.3-7.5-.5-15-.6-22.4s-.3-12.1-.5-18.2v-.2c-1.1,2.8-4.3,4.3-5.4,4.8l-3.5,1.6a152.3,152.3,0,0,0-16.7,8.6c-1.8,1.2-3.3,4.9-4.1,7.1a58.4,58.4,0,0,0-2.6,10.1A15.1,15.1,0,0,1,267.3,489.8Zm14.6-51.7,2.3,2.1-1.2-1.3a3.9,3.9,0,0,0-1.2-.8Z"/><path d="M361.2,204.2h.7a85.2,85.2,0,0,1,16.2,2.5c5.1,1.3,9.9,3.6,14.9,5.3,3.4,1.1,7.2,1.2,10.3,2.9s8.5,5.7,12.7,8.6c.8.6,1.4,1.7,2.3,2,8.4,2.4,12.4,9.3,16.9,15.8,1.2,1.7,3.1,2.9,4.4,4.6a96.7,96.7,0,0,1,7.9,11.2c3,5.4,5.4,11.1,8,16.7,4.7,9.8,12.2,17.1,21.3,22.5,4,2.3,9.3,2.8,14.1,3.3s8.1,4.3,5.3,9.6-8.1,7-13.5,7h-3c-10.1-.6-18.6-5.6-26.9-10.9s-16-16.1-23.1-25.1l-13.9-17.5-1.3-1a5.3,5.3,0,0,0,.2,1.9c2.9,6,6.5,11.8,8.7,18.1s2.5,12.1,3.7,18.2c.3,1.6.8,3.2,1.1,4.9.7,3.5,2.4,7.4,1.7,10.6-1.1,5-.8,9.7-.3,14.7a36.7,36.7,0,0,0,13.8,26c5.8,4.8,12.8,5.7,19.7,7.4,2.5.6,4.7,1.9,7.1,2.9-1.4,3.2-2,7.2-4.3,9.2s-6.6,3.4-10.2,3.7h-2.6c-11.2,0-20.6-5.4-29.4-12.1-12.6-9.6-18.1-23.6-22.6-38.1-5.2-16.7-9.8-33.5-15.6-50-3.2-9.1-11.4-14.2-20-17.9a55.4,55.4,0,0,0-8.4-2.4h-2.3c0,.9-.3,2.2.2,2.6a27.3,27.3,0,0,0,5.8,4,87.5,87.5,0,0,0,8.5,3.1c6.6,2.3,8.3,8.4,10.6,14,.1.3-.1.8-.1,1.2l-1.2-.4a14.4,14.4,0,0,0-3.6-1.2h-9.5c.5,2.8.8,5.5,1.4,8.2,2.8,12.3-.6,23-8.2,32.7a7.5,7.5,0,0,1-2.2,1.3l-1.2-2.3-1-2.2a7.9,7.9,0,0,0-1.1,2c-1.4,6.9-2.7,13.9-4.2,20.9a24.8,24.8,0,0,1-1.8,4.4,57.2,57.2,0,0,1-5.3-4.5c-1.6-1.7-.3-1.8-.6-2.7s-.7-1.1-1.1-1.2h-.1c-1.9,0-5.7,5.2-5.1,6.9s2,5.5,2.9,8.2-.1,4.4-2.7,4.4h-1.1c-5.4-.6-9.5-3.5-13.2-7.3a14.1,14.1,0,0,0-3-1.8,12.7,12.7,0,0,0-.9,3.6,46.6,46.6,0,0,0,1.1,8.6c.7,2.5-.1,3.6-1.4,3.6a4.7,4.7,0,0,1-2-.6c-2.8-1.4-5.2-3.7-7.8-5.6l-1.6-1.1c-.1.7-.5,1.6-.3,2.2,1,2.8,2.4,5.4,3,8.2.3,1.3-1,2.9-1.6,4.3s-.4.2-.6.3c-8.8,3.8-9.5,5.6-6,14.5a5.3,5.3,0,0,0,2.1,2.6c15.3,8.1,27.4,20.1,38.5,33,3.3,3.9,6.8,7.4,11.9,8.7a30.7,30.7,0,0,0,7.3,1.2,10.4,10.4,0,0,0,8.8-4.5c5.4-6.9,13.7-8.2,21.8-9.8a27.2,27.2,0,0,1,5.4-.5c9.1,0,16.4,4.9,23.3,11a6.4,6.4,0,0,1,1,1.7l-1.8.6c-5.7,1.4-11.5,2.6-17.1,4.2-2.6.7-2.1,2.5-1.1,4.4a49.2,49.2,0,0,1,2.1,5h-7v.4c-4.4-.5-9-1.6-13.4-1.6H379c-5.1.6-10,3.3-15,5.2a3.9,3.9,0,0,0,.2,2.3c2.1,5.7,4.6,11.2,6.2,17,.8,2.9.2,6.4-.5,9.5s-2.6,7.2-3.6,10.9c-2.6,8.7,5.8,18.9,14.8,18.9h1.8c3.8-.6,7.5-1.6,11.4-1.9h2.8c12.2,0,18.1,8.8,14.1,21.1a31.7,31.7,0,0,1-3.7,6.5c-4.2,6.6-5.5,14-6.4,21.5a24.6,24.6,0,0,0-.1,3.1c0,1.5.1,3,.1,4.5h-3.3a7,7,0,0,1-2.8-.4c-3.2-1.4-5-2.2-6.4-2.2s-3.1,1.6-5.6,5.5a82.5,82.5,0,0,0-5.5,11.1,5.8,5.8,0,0,0-.1,3.1c.7,4.8,1.7,9.5,2.1,14.3.1,1.3-1.3,3.2-2.6,4.1-8.6,6-17.9,9.8-28.3,9.8l-4.1-.2a59.6,59.6,0,0,1-9.9-1.9c-.6-.2-1.5-2.4-1.1-3,4.3-6.8,8.8-13.4,13.2-20.1a10.8,10.8,0,0,0,2-4.7,16.6,16.6,0,0,1,5.9-12.4c4.8-4.4,9.6-9,13.3-14.3s4.8-9.9,7-15a5.8,5.8,0,0,0-.1-2.6l-2.5.7c-5.2,2.1-10.2,5.2-15.6,6.2s-7.9,1.7-10.9,4.9a9,9,0,0,1-4,2.7,15.8,15.8,0,0,1-3.5.3h-3.2l1.4-4.8a7.6,7.6,0,0,0,.5-1.7c.1-1.3,0-2.6,0-4l-2.7,1.8c-4.6,2.3-9.2,4.4-13.7,6.8-2.6,1.4-5.1,3.1-7.7,4.6l-2.9,1.6c-.4-1.1-1.2-2.2-1.1-3.4s.1-3.7,1-4.9c10.5-13.6,3.5-24.6-4.7-34.4a1.5,1.5,0,0,0-1.1-.3,3.3,3.3,0,0,0-1.9.5,19.3,19.3,0,0,1-12.9,5.1,21.8,21.8,0,0,1-9-2.1c-3.7-1.7-6.4-5.9-9-9.3s-4.7-4.3-7.1-4.3-4.8,1.4-7,4.2a2.3,2.3,0,0,1-1.4.7h-.2a11.9,11.9,0,0,0-5.5-1.4c-4.1,0-7.7,2.5-10.9,5.4s-6.7,4.8-10.9,4.8a22.4,22.4,0,0,1-4.6-.5,30.2,30.2,0,0,0-6.2-.7c-6.3,0-12.6,2.3-16.9,8.6-.9,1.3-2,2.6-3,3.8a3.6,3.6,0,0,1-2.6,1.7,3.8,3.8,0,0,1-2.4-1.1,2.4,2.4,0,0,0-1.5-.4,4,4,0,0,0-2.6.8c-4.7,5-9,10.4-13.7,15.4-1.2,1.3-3.2,2-4.8,2.9l-1-4.4a6.9,6.9,0,0,0-.2-1c-1-2.6-1.5-5.9-3.3-7.4h-.3c-1.5,0-5.3,6.5-4.6,9.5,2.7,12-.1,10.5-8.5,14.9a42.8,42.8,0,0,1-19.8,5.3,36.2,36.2,0,0,1-16.4-4c-2.6-1.3-3.4-2.4-1.2-5q16.1-19.5,31.9-39.3c4.6-5.8,10.1-9,17.1-9l3.9.3,3.4.3c6,0,11.6-2.3,17.1-4.8,3.3-1.5,6.3-3.6,9.8-4.6,7.6-2.2,11.5-7.8,14.9-14.3a38,38,0,0,1,2.6-4.9c1-1.5.7-4.2-2.4-4.4s-6-1.3-9-1.3a8.5,8.5,0,0,0-5.7,2.1h-.2c-.4,0-1.2-.3-1.2-.5a5.3,5.3,0,0,1,.4-2.5c3.3-6.2,9-9.5,15.2-12.3s14.2-5.2,19.6-9.8,10.7-5.7,17.4-5.8c8.7-.1,17.3-1.7,26-2.5h.3a6,6,0,0,1,3.6,1.4c4.3,3.9,8.5,8,12.6,12.1s3.1,6.3-1.6,8.5c-6.9,3.2-14,6.3-20.4,10.4-2.6,1.6-4.1,5.4-5.3,8.5a68.4,68.4,0,0,0-3.1,12.2c-.1.7,1.5,2.4,2.1,2.4h.1a13.7,13.7,0,0,1,4.2-.7c4.9,0,7.8,3.5,10.4,8.4a13.4,13.4,0,0,0,11.9,6.8,13.6,13.6,0,0,0,6.7-1.7,7.7,7.7,0,0,0,4.3-7.7c-.6-13.5-.6-27-1.1-40.5a11.3,11.3,0,0,0-2.1-6c-3.9-5.2-8-10.3-12.3-15.2a7.2,7.2,0,0,0-4.7-2.2h-.5a37.3,37.3,0,0,1-6.3.5c-9.3,0-17.8-3.4-26.2-7.6-15.4-7.7-29.4-17.1-40.4-30.5l-.9-1.1c-3.6-6.8-3.6-7,3.2-7.8a35.8,35.8,0,0,0,6.4-1.8c.4-.1.7-.8,1-1.2l-1.1-.4h-.8a22.3,22.3,0,0,1-4.4.4c-7.1,0-13.3-3.3-19.5-6.5-3.9-2-7.6-3.7-12.2-3.7h-.3c-5.6,0-7.6-3.8-5.4-9.1,5.2-12.2,1.3-23.1-4.8-33.7-.8-1.3-1.6-1.9-2.6-1.9a4.5,4.5,0,0,0-2.3.8c-7.6,4.8-13.5,10.7-13.9,20.4-.2,3.5.1,7.3-3.4,9.8-.5.4-.1,2.6.4,3.7,1.8,4.1,4.2,8.1,5.8,12.3a9.5,9.5,0,0,1-1.8,10.4,47.2,47.2,0,0,1-19.6,13.8,5.8,5.8,0,0,1-2,.4c-1.5,0-2-1.1-2.1-2.9-.2-4.1-.1-8.1-.3-12.2-.4-7-.7-13.9-1.3-20.9a18.4,18.4,0,0,0-1.9-6.3c-3-6.2-2.5-9.7,1.9-14.8a62.7,62.7,0,0,0,7.4-10.1c6.5-11.6,16.3-20.3,26-29a11.5,11.5,0,0,1,7.8-3.3c3.4,0,6.7,1.7,9.9,4.8s6.8,4.5,9.8,7.2c7.6,7,15,14.3,22.5,21.4,1.7,1.6,3.5,3,5.4,3a4.9,4.9,0,0,0,3.8-2.2,3.5,3.5,0,0,0,0-3.4c-3.2-3.2-6.7-6.1-10.1-9.1s-4.2-6.1-1.4-10.3c7.4-10.8,16.9-18.3,30.7-18.6a156.1,156.1,0,0,0,27.3-3.2,55.8,55.8,0,0,1,10.9-1c4.7,0,9.5.4,14.1.8h3.3c7.2,0,13.8-2,20.5-4.4,3.4-1.2,6.7-2.7,10-4.2a8.3,8.3,0,0,0,1.9-1.7h-2.3a69.8,69.8,0,0,0-7.8,1.7,18.5,18.5,0,0,1-5.6.9c-4.7,0-8.8-2.1-12.4-6-1.5-1.7-2.9-2.6-4.3-2.6s-2.5.8-3.9,2.5a10.5,10.5,0,0,1-3,2.3,8.6,8.6,0,0,1-4.3,1.3,6.1,6.1,0,0,1-4.8-2.4c-3-3.5-6.3-5.5-10.9-5.5h-1c-1.9,0-3.9-1.6-5.9-2.3s-3.2-1.4-4.7-1.4h-.4a54.9,54.9,0,0,1-6.3.4c-5.2,0-10.1-1.2-14.2-5.6s-5.4-11.7-3-18.2c.4-1.2,1.8-2,2.7-2.9l2.2,2.5c3.4,4.7,7.3,8.6,13.5,8.6h.7a11.5,11.5,0,0,0,2.6-.8l-1.2-2.3a26,26,0,0,1-2.4-3.8c-1.3-3.4.4-5.3,3.9-5.3h2.3c3.2,0,6.5-.2,9.7-.4.9-.1,1.7-1.1,2.5-1.7-1-.7-2.1-2-3.1-2h-.1c-2.3.2-4.5,1.2-6.8,1.5H257a14.7,14.7,0,0,1-3.4-1c.7-1.2,1.2-3.1,2.2-3.5a119.1,119.1,0,0,1,16-4.7,268,268,0,0,0,54.1-16.4,10.1,10.1,0,0,0,3.2-2c4.6-4.7,10.5-5.5,16.7-5.6,2,0,4-.8,5.9-1.2s6.3-1.7,9.4-1.7m0-6a32.8,32.8,0,0,0-7.8,1.2l-2.7.6-2.4.6-2.4.5c-6.8.1-14.7,1-20.9,7.4l-1.3.7a263.7,263.7,0,0,1-52.9,16,125.3,125.3,0,0,0-16.8,4.9c-3.1,1.1-4.4,3.9-5.1,5.4l-.3.7-1.1,1.8a8.8,8.8,0,0,0-4.9,7.5l-2-2.5a22,22,0,0,0-2-2.3l-.6-.6-4.3-4.8-4.5,4.6-.6.5a10.8,10.8,0,0,0-3.5,4.6c-3.3,9.2-1.9,17.6,4.2,24.3,4.6,5.1,10.7,7.6,18.6,7.6a58.1,58.1,0,0,0,6.6-.4l1.3.5,1.5.6,1.4.7a14,14,0,0,0,6.5,1.9h1c2.1,0,4,.6,6.3,3.4a13.9,13.9,0,0,0,1.8,1.8,59.4,59.4,0,0,0-10.6,1.1,148.9,148.9,0,0,1-26.2,3.1c-14.4.3-26,7.2-35.5,21.2a15.3,15.3,0,0,0-2.9,7.3l-8.3-7.8a41.1,41.1,0,0,0-5.5-4,27.7,27.7,0,0,1-4.1-3.1c-4.4-4.3-9.3-6.6-14.1-6.6a17.6,17.6,0,0,0-11.8,4.9l-.5.5c-9.7,8.8-19.8,17.8-26.7,30.1a55.8,55.8,0,0,1-6.7,9.1c-6,7-6.8,13.1-2.8,21.4a12.6,12.6,0,0,1,1.3,4.2c.6,7,1,14.3,1.3,20.7.1,1.8.1,3.6.1,5.6s.1,4.4.2,6.7c.4,6.3,4.6,8.6,8.1,8.6a11.6,11.6,0,0,0,4-.8,52.9,52.9,0,0,0,22-15.6,15.5,15.5,0,0,0,2.9-16.5c-1.1-2.7-2.3-5.2-3.5-7.6l-1.9-4c2.9-3.6,3-7.9,3.1-10.7v-1c.3-5.7,2.9-10,9-14.2,5.6,10.5,6.5,18.1,3.2,25.9-2,4.6-1.8,9.1.4,12.5s4.2,5,10.5,5h.3c3.2,0,6,1.3,9.5,3.1l.6.3c2.7,1.4,5.5,2.8,8.5,4-.9,3.3.8,6.5,2.9,10.4a9.7,9.7,0,0,0,1.4,1.9h.1c10.5,12.7,24,22.9,42.4,32.1l3.2,1.5c-7.4.2-13.7,1.5-20.3,7.2-3.2,2.8-7.8,4.6-12.7,6.6l-5.4,2.3c-6.5,2.9-13.7,6.9-18,14.9a10.9,10.9,0,0,0-1.1,5.5c.1,4.4,4.3,6.4,7.2,6.4a6.3,6.3,0,0,0,4-1.4,2.5,2.5,0,0,1,1.9-.7,20,20,0,0,1,3.6.6h.5l-.6,1.3c-3,5.8-5.9,9.8-11.2,11.3a37.6,37.6,0,0,0-7.5,3.3l-3.1,1.6c-4.9,2.3-9.8,4.3-14.6,4.3l-2.5-.2a32,32,0,0,0-4.8-.4c-8.5,0-15.9,3.8-21.8,11.3-10.6,13.3-21.3,26.5-31.8,39.2-.8,1-3.3,4-2.5,8s4.3,5.6,5.6,6.3a42.4,42.4,0,0,0,19,4.6,48.9,48.9,0,0,0,22.6-6l3.6-1.7c2.9-1.3,5.9-2.7,7.7-5.8l7-4.1,1.2-.6a15.9,15.9,0,0,0,4.9-3.4l6.6-7.4,5.4-6.2a8.6,8.6,0,0,0,3.6.8c2.7,0,5.2-1.3,7.3-3.9l.8-1a31.5,31.5,0,0,0,2.5-3.3c2.7-4,6.6-6,11.9-6a24.2,24.2,0,0,1,4.9.5,28.3,28.3,0,0,0,5.8.7c7,0,11.7-3.4,14.9-6.3s5.1-3.8,6.9-3.8a6,6,0,0,1,2.7.8,6.4,6.4,0,0,0,2.9.7,8.2,8.2,0,0,0,6.2-3.1c1.2-1.5,2-1.8,2.2-1.8s1.1.4,2.4,2l1.1,1.5c2.6,3.6,5.6,7.6,10.2,9.6a27.7,27.7,0,0,0,11.5,2.6,24.8,24.8,0,0,0,13.8-4.3c6.6,8.6,8.5,15.3,2,23.7-2.2,2.8-2.3,6.5-2.3,8.4a10.9,10.9,0,0,0,1.2,4.9l.3.6,2.4,6.6,6.1-3.4.9-.5,2.2-1.2,2.7-1.7c1.6-1,3.1-2,4.7-2.8l5.3-2.7-1.6,5.4,8.2-.2h3.1a21.4,21.4,0,0,0,4.9-.5,14.3,14.3,0,0,0,7-4.4c1.7-1.8,3.8-2.4,7.7-3.1a36.2,36.2,0,0,0,7.3-2.2,25.9,25.9,0,0,1-2.1,3.6c-3.4,4.9-8,9.3-12.5,13.3a22.7,22.7,0,0,0-7.9,16.4,13.4,13.4,0,0,1-1,1.8l-5.3,8c-2.6,4-5.3,8-7.9,12.2a7.6,7.6,0,0,0-.3,7.1c1.3,3.3,3.4,4.5,5,4.9a65,65,0,0,0,10.9,2l4.7.2c11,0,21.4-3.5,31.8-10.8,2.1-1.5,5.5-5.1,5.1-9.5a98.7,98.7,0,0,0-1.4-10.1c-.3-1.6-.5-3.1-.8-4.6V578l.7-1.5a58.7,58.7,0,0,1,4.1-8.1l1.7-2.4,2.6,1.1.5.2a12.9,12.9,0,0,0,5.1.9h3.1l6.4.3v-7.8c0-1,0-2-.1-3.1s0-.5,0-.7a14.1,14.1,0,0,1,0-1.7c.8-6.5,1.9-13.3,5.5-19a37.2,37.2,0,0,0,4.2-8.6c2.6-8,1.9-15.4-2.1-20.9s-10.1-8-17.7-8l-3.3.2c-2.7.3-5.3.8-7.7,1.3l-4,.7h-.9c-2.5,0-5.3-1.6-7.2-4.2s-2.4-4.9-1.8-7a32.6,32.6,0,0,1,1.5-4.2,52.4,52.4,0,0,0,2.3-7.2c.8-3.8,1.5-8.2.4-12.3a110.7,110.7,0,0,0-4.3-12.2l-.8-2.1a33.1,33.1,0,0,1,8.6-2.8h1.7a49.8,49.8,0,0,1,7.5.8l5.2.7,5.9.6v-.9h1.8l8.7-.2-3.2-8-.5-1.4-.4-1,7.5-1.8,5.4-1.3,1.7-.5.5-.2,7.1-2.2-3.7-6.4h0a8.9,8.9,0,0,0-2.2-3.1c-7-6.2-15.7-12.4-27.2-12.4a33.4,33.4,0,0,0-6.6.7l-1.6.3c-8.1,1.6-17.4,3.4-23.8,11.7-1.4,1.8-2.5,2.2-4,2.2a26.8,26.8,0,0,1-5.8-1c-3.1-.8-5.6-3.1-8.8-6.8-9.5-11-22.5-24.9-39.7-34.1a25.3,25.3,0,0,1-1.5-4.4,25.4,25.4,0,0,1,4.1-2.1,6.3,6.3,0,0,0,4-3.5l.4-.8a14.8,14.8,0,0,0,1.5-3.4,9.6,9.6,0,0,0,3,.5,7.5,7.5,0,0,0,6-2.9,8.6,8.6,0,0,0,1.5-6.9,23.9,23.9,0,0,0,9.1,2.9h1.8a8.9,8.9,0,0,0,7.6-3.5c1.2-1.6,2.3-4.5.8-8.8v-.2l6.1,5,3.1-7.4.5-1.1a18.6,18.6,0,0,0,1.6-4.4c.9-4.1,1.7-8.2,2.4-12.1l.2-1.1,2-1.2h.3a9.3,9.3,0,0,0,3.6-2.7c9.2-11.7,12.3-24.4,9.3-37.7l-.2-.9h1.6l.6.3,1.6.6,1.3.4h.3l5.2,1.5c2.7,8.2,5.2,16.5,7.6,24.6,1.5,5,3.1,10.3,4.7,15.4,4.4,14.2,10.3,30.2,24.7,41.1,8.2,6.2,19.3,13.3,33,13.3h3c2.6-.2,9-1.1,13.7-5.2,2.8-2.5,4-6,4.9-8.8l.9-2.6,2.4-5.6-5.6-2.3-2-.9a32.2,32.2,0,0,0-6-2.3l-3.6-.8c-5.3-1.2-10-2.2-13.7-5.3a31,31,0,0,1-11.7-21.9c-.4-4.8-.7-8.8.2-12.9s-.1-7.2-1-10.3c-.3-1-.5-1.9-.7-2.8l-.6-2.8-.5-2.1c-.4-1.8-.6-3.6-1-5.6v-.2c4.9,6.4,10.3,12.6,17.6,17.3s18.2,11.2,29.8,11.9h3.4c3.3,0,13.4,0,18.8-10.2,3.1-5.8,1.7-10,.7-12s-3.9-5.6-10.6-6.3h-1c-4-.4-8.1-.9-10.7-2.4-8.7-5.1-15.1-11.8-18.9-19.9l-2.5-5.3c-1.8-3.8-3.6-7.8-5.7-11.7a82.3,82.3,0,0,0-7-10.2l-1.4-1.8a22.6,22.6,0,0,0-2.8-2.9l-1.4-1.5-1.2-1.7c-4.2-6.2-8.9-13.1-17.9-16.1a10.6,10.6,0,0,0-1.7-1.5l-3.3-2.4a81.6,81.6,0,0,0-10.1-6.6,28,28,0,0,0-7.7-2.4l-3.5-.8-5.6-2.1a82.1,82.1,0,0,0-9.7-3.3A91,91,0,0,0,362,198Zm-72.2,87.6h.2a17.5,17.5,0,0,0,4-3,28,28,0,0,0,3.5,3.1l-3.6.2h-4.1Zm-21,201a41.2,41.2,0,0,1,1.7-5.7c1.3-3.3,2.3-5.2,2.9-5.6a147.8,147.8,0,0,1,16.3-8.4l3.5-1.6,1.3-.7.3,11.6c.2,7.3.3,14.9.6,22.4,0,1.2-.1,1.5-1.3,2.2a7.6,7.6,0,0,1-3.8,1,7.4,7.4,0,0,1-6.6-3.6c-1.8-3.4-6-11.2-15-11.6Z" fill="#fff"/><path d="M197.2,314.7l-1.2-2a32.2,32.2,0,0,1-2.9-5.5,10,10,0,0,1,.1-7c1-2.3.8-3.4-2.6-5s-5.3-2.6-5.6-4.7,1.2-3.6,3.7-6l-3.9-1.9-2.9-1.3c-2-1-3.1-2.2-3.2-3.8s.3-2.5,2.3-3.8,2.9-1.7,4.3-2.5l3.5-2,.4-.4a27.6,27.6,0,0,0-.8-2.7,30.5,30.5,0,0,1-1.1-4.1,43.8,43.8,0,0,1-.5-5l-.3-3.7v-.7a12.5,12.5,0,0,0-1.1-4.3c-5.2-8.8-10.7-12.9-18.2-13.8s-12.7-5.5-13.4-15.7V218h-1.6c-6.3,0-13.8-2.5-14.1-14.6,0-.1.2-10.2,1.3-14.2l.3-3.4c.3-2.9.6-5.9,1.1-8.9a8.3,8.3,0,0,1,2.2-3.8l.8-1,1.5-2.1,2.1,1.5.8.5a9.8,9.8,0,0,1,2.5,2l6.7,8.2c4.1,5.1,8.4,10.4,12.7,15.4a12.5,12.5,0,0,0,3.3,2.3,17.5,17.5,0,0,1,4.5,3.1,74.4,74.4,0,0,1,5.4,6.8,61.7,61.7,0,0,0,4.3,5.5A114.7,114.7,0,0,0,199.4,228c9.7,8.1,15,17.5,16.8,29.6a169.9,169.9,0,0,0,4.8,20.5c1,3.6,2.1,7.4,3,11.2a7.6,7.6,0,0,1-1.7,6.3c-4.9,5.3-10,10.4-15,15.2a29.7,29.7,0,0,1-4.6,3.4l-1.9,1.3-2.3,1.5"/><path d="M145.6,173.6a14.6,14.6,0,0,1,2.8,2.1c6.5,7.9,12.8,16,19.5,23.8,2,2.3,5.7,3.2,7.8,5.5,3.6,3.8,6.3,8.4,9.7,12.3a117.1,117.1,0,0,0,12.4,12.6c8.9,7.4,14.2,16.3,15.9,28.1s5.3,21.2,7.8,31.8a5.1,5.1,0,0,1-1.1,4q-7.2,7.8-14.9,15.1c-1.8,1.8-4.2,3-6.3,4.5-1.4-2.4-3-4.6-3.9-7.1a7.5,7.5,0,0,1,0-5.1c1.9-4.4-.2-6.5-3.8-8.3-5.4-2.6-5.4-2.7-1.1-6.8,1.7-1.6,1.7-2.7-.3-3.7l-7.3-3.4c-2.5-1.1-2.7-1.9-.6-3.2s5.3-2.9,7.8-4.4c.8-.5,1.8-1.7,1.7-2.3-.5-2.5-1.6-4.9-2-7.4s-.4-5.7-.8-8.5-.5-4.3-1.5-6c-4.6-7.7-10.3-13.9-20.1-15-7.8-.9-10.6-4.5-11.2-13.4-.2-2.2-.4-3.2-2.7-3.2H152c-7.6,0-11.4-4-11.6-12.2-.1-4.6,1-13.9,1.3-13.9h0c.4-4,.7-8.1,1.4-12.1.2-1.4,1.7-2.5,2.5-3.8m-1.2-7.1-2.9,4.2-.6.8a10.5,10.5,0,0,0-2.7,5c-.6,3.1-.8,6.1-1.1,9.1l-.3,2.8a42.6,42.6,0,0,0-.9,6,86.5,86.5,0,0,0-.5,9.1c.3,10.6,6.1,16.8,15.9,17.1.8,7.6,3.6,15.1,15.5,16.5,6.8.8,11.5,4.4,16.3,12.6a12,12,0,0,1,.7,3.4v.7c.2,1.1.2,2.2.3,3.5a45.8,45.8,0,0,0,.6,5.3,33,33,0,0,0,1.2,4.4l.3.9-2.2,1.2c-1.5.8-3,1.6-4.5,2.6a6.4,6.4,0,0,0-3.4,6,7.5,7.5,0,0,0,4.6,5.9l2.9,1.4.7.3a6.7,6.7,0,0,0-1.9,5.6c.5,3.5,3.4,4.9,7,6.6l1.6,1-.3.8a12.5,12.5,0,0,0-.1,8.8,34.6,34.6,0,0,0,3.1,5.9l1.2,1.9,2.7,4.8,4.5-3.2,1.9-1.2a32.1,32.1,0,0,0,5-3.7c5-4.9,10.1-10,15.1-15.3a10.1,10.1,0,0,0,2.3-8.6c-.9-3.8-2-7.6-3-11.2a165.5,165.5,0,0,1-4.7-20.2c-1.9-12.6-7.6-22.7-17.7-31.2A112.6,112.6,0,0,1,189.2,214c-1.4-1.6-2.8-3.5-4.2-5.4a76.4,76.4,0,0,0-5.6-7,19.5,19.5,0,0,0-5.1-3.6,11.6,11.6,0,0,1-2.6-1.7c-4.3-5-8.6-10.3-12.7-15.4l-6.7-8.3a12.2,12.2,0,0,0-3.1-2.5l-.7-.4-4.1-3Z" fill="#fff"/><path d="M304.1,214.2c.6-5.5,1.3-11,1.7-16.6.2-2.6,1.4-3.2,3.7-2.5,5.6,1.7,11.8,10.1,11.6,16,0,.8,0,2.1-.4,2.3-4.9,2.3-9.6,5.2-14.8,6.2s-2.3-3.1-1.8-5.4" stroke="#fff" stroke-miterlimit="10" stroke-width="5"/><path d="M365.3,234.5c5.2,0,9,2.6,12.9,5.7s7.5,5,11.1,7.7a15.1,15.1,0,0,1,4,4.3,48.5,48.5,0,0,0,10.8,12.4c3.4,2.9,4.5,8.5,6.7,12.9a19.7,19.7,0,0,0,2.3,4.1c5.5,6.5,8.6,13.5,6.3,22.3a6.7,6.7,0,0,0,1.5,5.6c3.7,3.5,3.4,7.4,1.6,11.1s-2.6,8.4,0,13.1c1.7,3.1,1.4,7.2,2.4,10.8,3.6,13,13.4,19.5,25.1,24l5.6,2a37.9,37.9,0,0,1-6.2-.4c-13.1-3-23.2-10.3-30.7-21.3-8.7-12.8-11.6-27.7-15.5-42.3-2.4-8.6-5.4-17-8-25.6-4.3-14.4-14.3-22.8-27.9-27.9a125.4,125.4,0,0,1-13.4-6.4,9.2,9.2,0,0,1-2.8-3c-3.4-5-2.2-8,3.6-8.6a91.8,91.8,0,0,1,10.6-.5" fill="#e4b511"/><path d="M355.1,212.2a8.5,8.5,0,0,1,6,.8c4.2,2.4,9.1-.2,13.5.7s8.6,3.8,13.1,5.4,9.7,2.8,14.3,4.8c2.6,1.1,4.6,3.6,6.9,5.4s3.8,3.9,6,4.4c6.6,1.5,9.1,7.1,12.8,11.5s8.3,8.1,11.2,12.9c4.1,6.7,6.5,14.4,10.4,21.2,6.1,10.6,13.8,20,25.4,25.2l3.5,2a21.5,21.5,0,0,1-3.9-.6c-12-4-22.6-10.4-30.4-20.5s-14.3-20.7-22.3-30.3c-12.4-14.9-28.3-24.3-47.5-28.3a52.4,52.4,0,0,0-21-.4,14.9,14.9,0,0,1-14.5-5,3.8,3.8,0,0,1,.7-5.3l1-.6c4.4-1.2,8.9-2.1,13.3-3.1Z" fill="#e4b511"/><path d="M316.4,247.1c-2.7-.9-5.5-1.3-7.4-2.8s-2.7-4.3-2.1-5.5,3.7-3.7,5.6-3.7c4.6,0,9.1,1,13.7,1.7.8.1,1.4.9,2.2,1.3l-1.6,1.7c-2.3,2-4.6,4.1-7,6a11.8,11.8,0,0,1-3.4,1.3m.7-9.3a28.3,28.3,0,0,0-4.7.7,9.6,9.6,0,0,0-2.6,1.9c.8.8,1.4,2,2.3,2.2a40.1,40.1,0,0,0,7.8.5,2.9,2.9,0,0,0,2.1-1.8c.1-.7-.8-1.8-1.6-2.3a13.9,13.9,0,0,0-3.3-1.2" fill="#fff"/><path d="M344.9,597.2c3.7-5.2,12-16.1,12.5-16.2l5.3-4.4,3.6-.6,1.5.4c1.1,1.3,2.8,2.6,3,4a83.1,83.1,0,0,1,.5,12.6,5.7,5.7,0,0,1-1.8,3.9,47.6,47.6,0,0,1-6.4,3.8,40.8,40.8,0,0,0-5.1,1.6h-2.9c-.7-.2-1.8-2.9-1.7-4.1a15.9,15.9,0,0,0,1-3.5,28.5,28.5,0,0,0-.5-4.5,70.4,70.4,0,0,0-5.2,8.3l-3.2,3.9h-1v-3.6Z" fill="#d00305"/><path d="M149.7,550.3c-2.6.9-5.2,1.9-7.9,2.7s-4.1.1-3.4-3.2,1.4-3.9,1.9-5.9-.4-1.8-.7-2.7-2.1.5-2.6,1.1c-2.2,2.6-4.3,5.4-6.4,8.1l-1.4,1.6-1.7,1c-.5.2-1.3.4-1.5.2a1.8,1.8,0,0,1-.2-1.6,12.4,12.4,0,0,1,1.6-2.7l13.3-17.7,1.6-1.3c3.4-1.7,6.3-1.3,8.2,2.2a62.7,62.7,0,0,1,2.7,7.3v1.4c0,1,0,2,.1,3.1.3,2.6.1,5-2.6,6.3" fill="#d00305"/><path d="M132.3,384.6l.2-4.9-.3-7.7-.2-1.4c.5-3.8,3.4-2.4,5.5-2.6l1.3.2c1.6,2,3.5,3.9,4.9,6a10.1,10.1,0,0,1-1.3,13.3,17.3,17.3,0,0,1-3,2.2l-5.1,3-1.9-4.5-.3-1.5Z" fill="#d00305"/><path d="M253.2,260.9l9-1.6.2-.2,1.5-.5h1.6l1.9-.2h.1a27.7,27.7,0,0,1,5.1.5c1.2.3,2.1,1.4,3.2,2.1l-3.3,1.7-2.6.4h-2.1l-1.4.4h-2.2l-8.4,1h-.1c-4.3.4-8.7,1.6-12.9-.7a23.9,23.9,0,0,1-4.2-3c-.4-.4-.3-1.4-.4-2.1a5,5,0,0,1,1.9-.3,29.5,29.5,0,0,1,4.1,1.7l.6.3,5.6.5Z" fill="#d00305"/><path d="M151.4,192.2c.1.4,12.7,6.3,9.6,17.6l-1.6.8c-3.6,1.1-6.7.1-9.7-1.9h-.1c-2.5-5.4-1.6-11.1-1.2-15.1.2-2,1.4-2.5,3-1.4" fill="#d00305"/><circle cx="131.7" cy="602.8" r="37.5" fill="#fff" stroke="#fff" stroke-miterlimit="10" stroke-width="4"/><path d="M156.2,620.7l-6.8,5.1-8,5.8h-.1l-4.8-1.8-4.8-1.6c0-3.3.1-6.4.1-9.7l14.4-10.9,9.7,3.3"/><path d="M156.4,584.7c.6,1.6,1,3.4,1.6,5.2,1.3,4.2,2.8,8.3,4,12.5l-6,7.9-9.7-3.3-2.5-8.2L141,590l5.7-8,9.7,2.8"/><path d="M107.1,620.7s.1-5.7.1-7.9v-2.1l7.3-2.5,2.2-.7,14.6,10.9c0,.3-.1,4-.1,5.7v4.2l-7.4,2.8-1.8.6-6.8-5.1"/><path d="M117.1,582.3l5.8-8.5h17.7l5.8,7.7s-3.9,5.5-5.8,8H122.5"/><path d="M116.7,582.7l5.4,7.6c-.3.7-3.1,9.8-4.3,13.7l-.9,2.8-9.7,3.3-2.1-2.5-3.9-5.1s1.9-5.8,2.8-8.8l3-8.3c3.4-.7,6.4-1.8,9.7-2.7"/><path d="M101.8,581.1a20.4,20.4,0,0,1,2.7-3.6,48.1,48.1,0,0,1,8.8-6.8l5.4-2.7,1.3-.4,2.1,6v.3l-5.5,8.3-9.7,2.7-5.1-3.7"/><path d="M143,637.9a15.5,15.5,0,0,1-3.7,1.2,36.6,36.6,0,0,1-8,.6,40,40,0,0,1-6-.4,27.8,27.8,0,0,1-4.8-1.2h-.1l1.8-6,9.4-3.6,9.4,3.4h.1c.6,2.1,1.3,3.9,1.9,5.8"/><path d="M161.4,624.3l-4.8-3.7c0-2.2-.1-8.8-.3-9.8l6.2-8.3h6v.3a29.9,29.9,0,0,1-1.9,11.5,37.5,37.5,0,0,1-3.3,7.4l-1.6,2.4-.3.3"/><path d="M145.4,568.5l3.7,1.6a34.7,34.7,0,0,1,8.5,6.2,25.9,25.9,0,0,1,3.7,4.3l-4.8,3.6-9.7-2.7c-.1,0-6-8.3-6-8.2s1.6-4.3,2.1-5.8"/><path d="M101.8,624.6l-.9-1.3a34.5,34.5,0,0,1-3.3-6.1,36.9,36.9,0,0,1-2.7-9.8,37.6,37.6,0,0,1-.3-4.5h6.1l6.1,7.9c0,2.2-.1,4.6-.1,6.8a25.3,25.3,0,0,1-.1,3.3l-4.6,3.6"/><path d="M260.5,428l-2.7,68,13.7,1.7,7.7,12.6,13,1.7,14.6-9-1.5-60.3L275.8,424l-15.3,4"/></svg>