<svg xmlns="http://www.w3.org/2000/svg" viewBox="0 0 230.3 313.9"><title>grindavik</title><path d="M400,457a261.8,261.8,0,0,1-59.9-57.2c-14,3.3-30.3,6-44.1.9-3.5-1.2-5-1.8-6.2-5.5-1.9-5.9-2.4-11.8-2.7-18-.3-8.4-1.1-16.7-2.2-25a37.3,37.3,0,0,1,16.6-9.9l5-1.4c-1.7-4.2-3.3-8.5-4.7-12.7A300.9,300.9,0,0,1,288.1,263a440.9,440.9,0,0,1-.7-76.8L359,171.5,400,143l41,28.4,71.6,14.8A441.1,441.1,0,0,1,512,263a300.9,300.9,0,0,1-13.8,65.1c-1.7,5-3.5,9.9-5.5,14.8a63.1,63.1,0,0,1,14.1,3.1,21.1,21.1,0,0,1,5.7,2.9c3.6,2.6,3,5.8,1.7,9.2a198.1,198.1,0,0,0-7.1,21.4,99.3,99.3,0,0,0-3.2,25.6c-9.7,1.9-18.1,1.3-27.7-.8l-17-3.5A261.3,261.3,0,0,1,400,457Z" transform="translate(-284.9 -143)" fill="#0f298f"/><path d="M491.6,345.4c-1.7,3.9-3.4,7.7-5.3,11.5a50.4,50.4,0,0,0,8.2.9,31.2,31.2,0,0,0,12.4-2.1c7.2-2.9,5.7-4.9-1-7.3A59,59,0,0,0,491.6,345.4Z" transform="translate(-284.9 -143)" fill="#ffba00"/><path d="M338.4,397.4c-2.6-3.4-5-6.9-7.4-10.4a115.9,115.9,0,0,0-15.9,1.6c-6.7,1.3-13.2,3.5-18.9,7.6-1.1.8-1.8,1.3,0,2.1C308.1,403.2,325.8,400.3,338.4,397.4Z" transform="translate(-284.9 -143)" fill="#ffba00"/><path d="M287.7,353c7.7-7.9,20.9-10.3,31.4-11.6a248.4,248.4,0,0,1,41.7-1.4c14.2.6,28.5,2.1,42.8,4.1,23.9,3.3,47.9,7.5,71.3,13,14.6,3.5,25.3,5.9,37.4-1.4-6.1,15.5-11.2,30.3-11.1,47.2-8.5,1.6-16.3.6-24.6-1.2-16.5-3.5-33-6.9-49.7-9.6-14.2-2.3-28.8-4.5-43.7-6.1A336.6,336.6,0,0,0,339,384c-16,.4-33.4.7-46.3,11.6a46.1,46.1,0,0,1-2.8-16.1A255.8,255.8,0,0,0,287.7,353Z" transform="translate(-284.9 -143)" fill="#ffba00"/><path d="M290.9,354.1a243.4,243.4,0,0,1,2,25.3,47.1,47.1,0,0,0,1.2,11.1c12.3-8.8,30.3-9.1,44.8-9.5a329.5,329.5,0,0,1,44.7,2.1c14.8,1.6,29.5,3.8,43.8,6.1,16.7,2.7,33.3,6.1,49.9,9.6,6.7,1.5,14,2.7,20.9,1.6.2-13.5,3.8-26.4,8.8-38.8-10.2,3.8-22.3,1-32.7-1.6-23.4-5.5-47.3-9.7-71-13-14.1-2-28.4-3.4-42.5-4.1a247.2,247.2,0,0,0-41.2,1.4C310.5,345.5,297.7,347.6,290.9,354.1Z" transform="translate(-284.9 -143)" fill="#0f298f"/><path d="M334.1,354.8v5.3h3.4a6.1,6.1,0,0,0,3.3-.7,2.4,2.4,0,0,0,1-2.1,2,2,0,0,0-1.1-1.9,7.9,7.9,0,0,0-3.4-.6Zm-5.6-4.4H338c3.1,0,5.6.5,7.2,1.6a5.9,5.9,0,0,1,2.5,5.1,6.5,6.5,0,0,1-1.3,4.3,6.8,6.8,0,0,1-3.8,2.3l6.3,10.7h-6.1l-5.8-9.8h-2.8l.2,9.9h-5.5Z" transform="translate(-284.9 -143)" fill="#ffba00"/><polygon points="67.4 207.1 73.2 207.1 72.7 231.3 67 231.2 67.4 207.1" fill="#ffba00"/><polygon points="79.3 207.5 84.9 207.9 94.8 223.3 95.8 208.7 101 209.1 99.4 233.2 94.1 232.8 84 216.8 83 231.9 77.7 231.6 79.3 207.5" fill="#ffba00"/><path d="M397.3,358.8l-1.7,13.9,4.1.5a4.8,4.8,0,0,0,4.2-1.2,8.4,8.4,0,0,0,2-5,8.7,8.7,0,0,0-.7-5.3,4.2,4.2,0,0,0-3.3-2.3l-4.6-.6Zm-4.9-5.7,10.2,1.3a9.8,9.8,0,0,1,7.4,4.1c1.6,2.4,2.2,5.4,1.7,9.2a17.3,17.3,0,0,1-1.8,6,9.9,9.9,0,0,1-3.5,3.8,6.9,6.9,0,0,1-2.6,1,14.3,14.3,0,0,1-3.9-.1h-.2L389.5,377Z" transform="translate(-284.9 -143)" fill="#ffba00"/><path d="M425.1,363.9l-4.5,8.1,6.1.6-1.6-8.7Zm-2.8-6.4,6.6.7,5.4,25.2-5.7-.8-.9-4.8-9.1-1-2.1,4.4-5.5-.8Z" transform="translate(-284.9 -143)" fill="#ffba00"/><polygon points="150 216.1 155.7 217.2 159.3 235.1 168 219.4 173.6 220.4 160.7 242.6 155.3 241.6 150 216.1" fill="#ffba00"/><polygon points="180.6 216 176.9 220.1 181.6 221 188.3 217.8 180.6 216" fill="#ffba00"/><polygon points="176.5 221.2 182.2 222.3 178.4 246 172.8 244.9 176.5 221.2" fill="#ffba00"/><polygon points="187.2 223.6 192.7 224.6 190.9 234.7 201.7 226.4 208.1 227.7 195.5 237.1 205.4 251.4 198.9 250.6 190.4 238.4 189 248.3 183.5 247.3 187.2 223.6" fill="#ffba00"/><path d="M319,358a6.8,6.8,0,0,0-5.4-1.6,7.4,7.4,0,0,0-6.2,9c1.4,7.4,9,6.3,12.1,4.2L319,366l-4.5.4-.6-4.4,9.9-1.1,1.2,11c-6.1,6.4-18.4,6.6-22.4-2.4-3.1-6.9-.1-16.7,10.2-18.1a11.2,11.2,0,0,1,9.1,2.4Z" transform="translate(-284.9 -143)" fill="#ffba00"/><path d="M481.7,356a237.4,237.4,0,0,0,12.2-29.3,296.5,296.5,0,0,0,13.5-64.1,424.9,424.9,0,0,0,.9-72.6l-69.1-14.3L400,148.6l-39.2,27.1L291.6,190a424.9,424.9,0,0,0,.9,72.6,296.5,296.5,0,0,0,13.5,64.1q2.3,6.6,4.9,13.2l3.8-.6c-1.9-4.5-3.6-9.1-5.1-13.7a293.1,293.1,0,0,1-13.4-63.3,420.9,420.9,0,0,1-1.1-69.1l67.1-13.9L400,153.1l37.7,26.1,67.1,13.9a416.5,416.5,0,0,1-1.1,69.1,293.1,293.1,0,0,1-13.4,63.3,234.1,234.1,0,0,1-12.4,29.7Z" transform="translate(-284.9 -143)" fill="#ffba00"/><path d="M400,451.4a254,254,0,0,0,54.1-51.6l-2.8-.6-1.4-.3A248.8,248.8,0,0,1,400,446.8a249.5,249.5,0,0,1-53.4-52.3c-2-2.6-3.9-5.2-5.7-7.9h-4.5c2.3,3.4,4.7,6.7,7.2,10A254.4,254.4,0,0,0,400,451.4Z" transform="translate(-284.9 -143)" fill="#ffba00"/><path d="M403,414.6a2,2,0,0,0,.6,1,2.5,2.5,0,0,0,1.6.6,2.1,2.1,0,0,0,2.2-1.5c.3-2.2-2-2.2-3.3-2V410c1.2.2,3.4.3,3.4-1.6s-1.2-1.8-2.2-1.8a2.6,2.6,0,0,0-1.6.6,2,2,0,0,0-.5.9h-3a4.6,4.6,0,0,1,1.5-3.1,5.7,5.7,0,0,1,3.6-1.3,5.5,5.5,0,0,1,3.6,1.3,4.6,4.6,0,0,1,1.6,3.5,4.5,4.5,0,0,1-1.3,3,4.8,4.8,0,0,1,1.3,3.1,4.6,4.6,0,0,1-1.6,3.5,5.5,5.5,0,0,1-3.6,1.3,5.7,5.7,0,0,1-3.6-1.3,4.8,4.8,0,0,1-1.6-3.3Z" transform="translate(-284.9 -143)" fill="#ffba00"/><polygon points="99.6 260.7 99.6 275.6 96.6 275.6 96.6 265 94.2 267.2 92 265.6 96.6 260.7 99.6 260.7" fill="#ffba00"/><path d="M413,403.9h8.8v3h-5.6v2.6c3.3-.5,7.1,1.1,7,4.9a5.1,5.1,0,0,1-5.2,4.8,5,5,0,0,1-5.1-4.6h3a2.1,2.1,0,0,0,2.2,1.6c2,0,3.1-2.3,1.2-3.4a3.2,3.2,0,0,0-3-.2H413Z" transform="translate(-284.9 -143)" fill="#ffba00"/><path d="M393.8,418.7h-3.4l2.8-4.7A5.2,5.2,0,0,1,389,405a5.7,5.7,0,0,1,7.5,0,5.1,5.1,0,0,1,1.6,4.8c-.7,3-2.9,6.1-4.3,8.8Zm-1-7.6a2.1,2.1,0,1,0,0-4.2A2.1,2.1,0,1,0,392.8,411.1Z" transform="translate(-284.9 -143)" fill="#ffba00"/><path d="M443.5,239.8c-16.5-13.5-39-19.7-59.3-10.7-16.9,7.5-26.4,24.2-27.1,42.3-.9,22.2,12,39.2,33.4,45.4a71.6,71.6,0,0,0,41.7-1.2v-23H387.7l.7-2L401,254.5h72.6v86.7c-6,3.2-12.1,6.3-18.3,9l-5.3-1.1a213.2,213.2,0,0,0,20.6-9.7V257.5H403.2l-11.2,32.2h43.2v28.1c-14.6,5.1-30.7,6.3-45.5,1.9-22.7-6.6-36.5-24.9-35.6-48.4.8-19.3,11-36.9,29-44.9,19.9-8.9,43.3-3.9,60.1,9.2l21.9-26.9c-27.1-21.5-64.8-28.3-97-13.5-29.7,13.6-47.8,43-48.8,75.4-.8,26.6,10,50.5,30,66.5h-4.7c-18.9-16.6-29.2-40.4-28.3-66.7,1.1-33.5,19.8-63.9,50.6-78,33.7-15.5,73.2-8.1,101.3,14.9l1.2,1-1,1.2Z" transform="translate(-284.9 -143)" fill="#fff"/><path d="M443.1,235.6l21.9-26.9c-27.1-21.5-64.8-28.3-97-13.5-29.7,13.6-47.8,43-48.8,75.4-.8,26.6,10,50.5,30,66.5,11,0,22.1.8,33.2,1.8,19.2,1.9,38.4,4.8,57.4,8.3l10.2,1.9a213.2,213.2,0,0,0,20.6-9.7V257.5H403.2l-11.2,32.2h43.2v28.1c-14.6,5.1-30.7,6.3-45.5,1.9-22.7-6.6-36.5-24.9-35.6-48.4.8-19.3,11-36.9,29-44.9C402.9,217.6,426.3,222.5,443.1,235.6Z" transform="translate(-284.9 -143)" fill="#ffba00"/></svg>