<svg xmlns="http://www.w3.org/2000/svg" viewBox="0 0 481.2 566.9"><title>grundarfjordur</title><path d="M58.7,43.8c33.3,1.1,66.8,1,100-2.6,42.2-4.6,85.9-15.1,121.7-38.7L284.1,0l3.6,2.5c55,39.1,154,42.3,219.7,40.9H513l.8,5.6c2.4,15.9,4.6,31.8,6.3,47.7,2.4,23.2,3.8,46.5,4,69.8.3,28.2-1.1,56.6-5.6,84.5a390.8,390.8,0,0,1-17.1,67.7q-2.9,8.3-6.1,16.5c-15.9,40.8-38.5,76.7-67,109.8C388,491.7,339,531,287.4,564.6l-3.7,2.4-3.6-2.6C210.6,513.6,142.7,456.2,97.7,381.7A361.3,361.3,0,0,1,54.9,277.9c-6.5-27.5-9.4-55.5-11.4-83.6-.6-8.7-.7-17.4-.6-26,.1-11.6.6-23.2,1.2-34.8q2.4-42.2,8-84.1l.8-5.8Z" transform="translate(-42.9 0)" fill="#1652a4" fill-rule="evenodd"/><path d="M58.7,44.9c33.3,1.1,66.9,1,100.1-2.6C201.2,37.7,245,27.2,281,3.4l3-2,3,2.1C342.1,42.7,440.9,46,507.4,44.6H512l.7,4.6c2.4,15.9,4.6,31.7,6.3,47.7,2.4,23.1,3.8,46.4,4,69.7.3,28.2-1.1,56.4-5.5,84.3a388,388,0,0,1-17.1,67.5q-2.9,8.3-6.1,16.5c-15.9,40.8-38.3,76.4-66.8,109.5-40.1,46.5-89.2,85.9-140.6,119.3l-3.1,2-3-2.2C211.4,512.8,143.5,455.5,98.7,381.1A360,360,0,0,1,56,277.7c-6.5-27.6-9.3-55.3-11.4-83.5-.6-8.6-.7-17.3-.6-25.9.1-11.6.6-23.2,1.2-34.7,1.6-28.1,4.3-56.2,8-84l.6-4.8Z" transform="translate(-42.9 0)" fill="#fff" fill-rule="evenodd"/><path d="M148.1,389.2H422.4c-5.7-3.8-13-6.4-18.7-10.1.4-3.8-.7-6.6-5.7-7.2-17.4-8.9-25.4-19.3-31.4-31-3.4-.4-4.1-2.8-8.9-4.1-.4-15-17.7-29.5-24.9-48.9-6-5.1-12.7-3.4-16.4.7-7.2,1.5-17.5-.6-23.6-2.4-2.7-.8-4.7-1.7-5.9-1.1-7.5,3.9-19.1,3.2-29,2.6-5.6,4.3-14.5,2.6-22.2,3.5L229,306.1l-7.1,3.8-1,6.1-12.5,13.6H202l-.8,6.6-3.6,1.8-.8,1.2-1.7.4-.7,3.6-1.2,2.4-.7,4.4Z" transform="translate(-42.9 0)" fill="#1652a4" fill-rule="evenodd"/><rect x="105.4" y="390.9" width="274.1" height="3.85" fill="#1652a4"/><path d="M279.3,544c-28.2-25.6-55.5-52.1-81-80.4-23.5-26-45.7-53.6-64-83.5C94.7,315.6,77.3,253.1,78,177.5a612.7,612.7,0,0,1,3.9-62.8c1.6-13.9,3.6-27.8,6.1-41.5l1-5.3,5.3-.2c30.9-1.3,61.9-2.7,92.5-7.4,32.7-5.1,64.1-13.9,93.8-28.5l2.8-1.4,2.9,1.3C325.5,49,366,59.4,408.6,64.3a630.7,630.7,0,0,0,63,3.7h5.5l1,5.5c2.8,15.8,5,31.8,6.7,47.7a592.2,592.2,0,0,1,3.9,60.7c.4,64.6-14.7,127.8-45.3,184.8-37.2,69.4-95.4,127.4-155.4,177.5l-4.5,3.7ZM94.6,74.4c-2.5,13.6-4.5,27.3-6,41.1a607,607,0,0,0-3.9,62.1C84,252.1,101,313.1,140,376.6c18.1,29.5,40.1,56.9,63.3,82.5,25.3,28,52.6,54.5,80.6,79.9,59.3-49.4,117.1-107,153.8-175.5,30-56,44.9-118,44.5-181.6a588.5,588.5,0,0,0-3.9-60c-1.7-15.8-3.9-31.6-6.7-47.3A637.2,637.2,0,0,1,407.8,71c-43.5-5-84.3-15.5-124.3-33.2-30.4,15-62.3,23.9-95.7,29.1C156.9,71.7,125.8,73.1,94.6,74.4Z" transform="translate(-42.9 0)" fill="#ee212b" fill-rule="evenodd"/><path d="M58.5,50.2c73.2,2.3,161.8-.3,225.4-42.4C337,45.6,429.3,51.6,507.5,49.9c3.5,23,9.7,64.6,10.2,116.6.7,72.6-10.1,119.4-28.3,166.4-15.7,40.4-37.6,75.1-65.9,108-35.9,41.6-82.5,81.2-139.5,118.3C222.8,514.6,150,456.1,103.2,378.4a354.2,354.2,0,0,1-42-102c-6.1-26-8.9-51-11.3-82.7C47.9,167.1,50.8,108.4,58.5,50.2ZM90.2,69.3A624.3,624.3,0,0,0,79.4,177.5c-.7,76,16.7,137.7,56,201.8,33.9,55.3,87,111.4,148.2,166.7,67.1-55.6,123.2-113.9,158.6-180,25.6-47.7,45.6-109.7,45.1-184.1-.2-32.9-5.1-78.3-11.4-112.5-65.7-.6-126.7-8.1-192.5-37.5C219.6,64,154.5,66.7,90.2,69.3Z" transform="translate(-42.9 0)" fill="#1652a4" fill-rule="evenodd"/><path d="M191.9,438.6c13-4.9,38.1-18.8,55-19.4,4.8-.2,10.9,1.4,19.7,2.7,15.7,2.4,34.6,5.9,43.7,7.3,21.4-15.9,50.1-24.2,84.9-24.4-19.8,5.9-36.5,11-56.8,25.2,8,2.6,14.7,5.1,16.8,7.7-28.5,3.3-49.6,13.6-60.8,24.7-21,3.3-42.4,7.1-63.3,10.4,17.4-6.7,34.6-13.1,55.5-25.8C263.6,436.2,236,434.5,191.9,438.6Z" transform="translate(-42.9 0)" fill="#1752a4" fill-rule="evenodd"/><path d="M157.8,212.9H425.9l-9.2,12.9H148.6Zm256.9,15.6-9.2,12.9H137.4l9.2-12.9Zm-11.2,15.6-9.6,13.4H125.9l9.6-13.4Z" transform="translate(-42.9 0)" fill="#1752a4" fill-rule="evenodd"/><path d="M236.9,352.4v29.8H225.3V362.7a39.4,39.4,0,0,1-5.4,2.5,52.8,52.8,0,0,1-6.6,1.8v-6.7a33.4,33.4,0,0,0,9.1-3.2,15,15,0,0,0,5-4.6Z" transform="translate(-42.9 0)" fill="#fff" fill-rule="evenodd"/><path d="M249.8,375.6l11.4-1a3.9,3.9,0,0,0,1.5,2.4,4.6,4.6,0,0,0,2.6.7,5.1,5.1,0,0,0,4.3-2q1.1-1.5,1.7-6.2a15,15,0,0,1-4.2,2.2,16.3,16.3,0,0,1-5,.7,15.3,15.3,0,0,1-9.3-2.8,8.5,8.5,0,0,1-3.8-7.1,8.2,8.2,0,0,1,1.9-5.3,11.8,11.8,0,0,1,5.3-3.6,25.3,25.3,0,0,1,8.5-1.2,27,27,0,0,1,9.9,1.5,12.9,12.9,0,0,1,6,4.8,15.2,15.2,0,0,1,2.2,8.7q0,7.9-4.7,11.6t-13,3.7a29.3,29.3,0,0,1-7.7-.8,12.7,12.7,0,0,1-4.7-2.4A10.2,10.2,0,0,1,249.8,375.6Zm21-13.1a4.5,4.5,0,0,0-1.7-3.7,6.3,6.3,0,0,0-4.1-1.4,5.8,5.8,0,0,0-3.8,1.2,4.4,4.4,0,0,0-1.5,3.7,4.6,4.6,0,0,0,1.6,3.8,5.9,5.9,0,0,0,3.9,1.3,6.2,6.2,0,0,0,4-1.3A4.3,4.3,0,0,0,270.8,362.6Z" transform="translate(-42.9 0)" fill="#fff" fill-rule="evenodd"/><path d="M298.7,361.4,287.9,360a10.2,10.2,0,0,1,5.2-5.6q3.8-2,10.8-2t11.6,2.1q3.6,2.1,3.6,5.4a4.9,4.9,0,0,1-1.5,3.4,12.1,12.1,0,0,1-4.4,2.7,16.8,16.8,0,0,1,3.6,1,8,8,0,0,1,3.2,2.4,5.6,5.6,0,0,1,1.1,3.5,7.8,7.8,0,0,1-1.9,4.9,11.9,11.9,0,0,1-5.4,3.6,28,28,0,0,1-9.3,1.3,33.3,33.3,0,0,1-8.8-.9,14.1,14.1,0,0,1-5.3-2.8,11.9,11.9,0,0,1-3.2-4.6l11.4-1.1a5.7,5.7,0,0,0,2.1,3.4,6.4,6.4,0,0,0,3.6.9,6,6,0,0,0,3.8-1.2,3.9,3.9,0,0,0,1.5-3.2,3.8,3.8,0,0,0-1.5-3.2,6.5,6.5,0,0,0-4-1.1,20.3,20.3,0,0,0-3.7.5l.6-5.8h1.5a6.5,6.5,0,0,0,3.8-1,2.9,2.9,0,0,0,1.5-2.4,2.5,2.5,0,0,0-1.1-2.1,5.2,5.2,0,0,0-3.1-.8,5.7,5.7,0,0,0-3.3.9A4.7,4.7,0,0,0,298.7,361.4Z" transform="translate(-42.9 0)" fill="#fff" fill-rule="evenodd"/><path d="M337,361.4,326.2,360a10.2,10.2,0,0,1,5.2-5.6q3.8-2,10.8-2t11.6,2.1q3.6,2.1,3.6,5.4a4.9,4.9,0,0,1-1.5,3.4,12.1,12.1,0,0,1-4.4,2.7,16.8,16.8,0,0,1,3.6,1,8,8,0,0,1,3.2,2.4,5.6,5.6,0,0,1,1.1,3.5,7.8,7.8,0,0,1-1.9,4.9,11.9,11.9,0,0,1-5.4,3.6,28,28,0,0,1-9.3,1.3,33.3,33.3,0,0,1-8.8-.9,14.1,14.1,0,0,1-5.3-2.8,11.9,11.9,0,0,1-3.2-4.6l11.4-1.1a5.7,5.7,0,0,0,2.1,3.4,6.4,6.4,0,0,0,3.6.9,6,6,0,0,0,3.8-1.2,3.9,3.9,0,0,0,1.5-3.2,3.8,3.8,0,0,0-1.5-3.2,6.5,6.5,0,0,0-4-1.1,20.3,20.3,0,0,0-3.7.5l.6-5.8H341a6.5,6.5,0,0,0,3.8-1,2.9,2.9,0,0,0,1.5-2.4,2.5,2.5,0,0,0-1.1-2.1,5.2,5.2,0,0,0-3.1-.8,5.7,5.7,0,0,0-3.3.9A4.7,4.7,0,0,0,337,361.4Z" transform="translate(-42.9 0)" fill="#fff" fill-rule="evenodd"/><path d="M147.1,194.1h13.4l-2.7,8.5a31.1,31.1,0,0,1-5.8,1.7,35.5,35.5,0,0,1-7,.7q-5.6,0-8.6-1.7a7.1,7.1,0,0,1-4.1-6.6,9.9,9.9,0,0,1,1.7-5.5,13.7,13.7,0,0,1,5.9-4.9,21.7,21.7,0,0,1,9.1-1.8,18.6,18.6,0,0,1,8.4,1.6,7.9,7.9,0,0,1,4.2,4.6l-5.8.4a5.2,5.2,0,0,0-2.4-2.5,9.5,9.5,0,0,0-4.3-.8,14.4,14.4,0,0,0-5.5,1,8.4,8.4,0,0,0-3.9,3.2,8.3,8.3,0,0,0-1.4,4.7,4.2,4.2,0,0,0,1.7,3.7,8.8,8.8,0,0,0,5,1.2,23.3,23.3,0,0,0,4.1-.4l3.6-.9.9-2.9h-7.7Z" transform="translate(-42.9 0)" fill="#ee212b" fill-rule="evenodd"/><path d="M167.2,190.3h5.5l-.9,2.8a9.3,9.3,0,0,1,6.7-3.1,10,10,0,0,1,2.7.4l-2.3,3.2-1.7-.2a7.1,7.1,0,0,0-3.1.8,6.2,6.2,0,0,0-2.4,2,15.3,15.3,0,0,0-1.7,4l-1.4,4.5h-5.9Z" transform="translate(-42.9 0)" fill="#ee212b" fill-rule="evenodd"/><path d="M183.9,190.3h5.9l-2.7,8.5a9.4,9.4,0,0,0-.5,1.9,1.3,1.3,0,0,0,.7,1.1,3.3,3.3,0,0,0,1.8.4l1.5-.2,1.6-.6,1.4-.9a5.8,5.8,0,0,0,1.2-1.3,9.3,9.3,0,0,0,.8-2l2.2-6.8h5.9l-4.6,14.3h-5.5l.6-1.9a14.5,14.5,0,0,1-7.9,2.3,7.6,7.6,0,0,1-4.2-1,3.1,3.1,0,0,1-1.5-2.7,12.6,12.6,0,0,1,.7-3Z" transform="translate(-42.9 0)" fill="#ee212b" fill-rule="evenodd"/><path d="M209.6,190.3h5.6l-.6,1.9a17.7,17.7,0,0,1,3.9-1.7,14.3,14.3,0,0,1,3.8-.5,7.7,7.7,0,0,1,4.2,1,3.1,3.1,0,0,1,1.5,2.7,11.4,11.4,0,0,1-.7,2.9l-2.6,8.1H219l2.6-8.1a12.1,12.1,0,0,0,.6-2.2,1.3,1.3,0,0,0-.7-1.2,3.5,3.5,0,0,0-1.9-.4,7.1,7.1,0,0,0-2.9.7,6.4,6.4,0,0,0-2.5,1.9,12.6,12.6,0,0,0-1.5,3.4l-1.9,5.9h-5.9Z" transform="translate(-42.9 0)" fill="#ee212b" fill-rule="evenodd"/><path d="M250.7,204.6h-5.6l.5-1.5a12.1,12.1,0,0,1-3.1,1.4,12.8,12.8,0,0,1-3.5.4,9.2,9.2,0,0,1-5.5-1.5,5.2,5.2,0,0,1-2.1-4.5,8.4,8.4,0,0,1,2.9-6.2,11,11,0,0,1,7.8-2.8q4.4,0,6.6,2.3l2.4-7.4H257Zm-13.6-5.8a2.8,2.8,0,0,0,1.2,2.4,4.8,4.8,0,0,0,2.9.9,6.4,6.4,0,0,0,3-.7,5.4,5.4,0,0,0,2.2-2.2,5.8,5.8,0,0,0,.8-2.8,3,3,0,0,0-1.3-2.5,4.8,4.8,0,0,0-2.9-1,5.4,5.4,0,0,0-4.2,1.9A6.1,6.1,0,0,0,237.2,198.8Z" transform="translate(-42.9 0)" fill="#ee212b" fill-rule="evenodd"/><path d="M264.6,194.4l-5.7-.3a6.7,6.7,0,0,1,3.4-3,16.4,16.4,0,0,1,6.5-1.1,13.3,13.3,0,0,1,6.2,1.1c1.3.7,2,1.6,2,2.7a5.7,5.7,0,0,1-.2,1.4q-.2.7-1.2,3.8a13.5,13.5,0,0,0-.9,3.6,5.1,5.1,0,0,0,.5,2h-5.7a5.2,5.2,0,0,1-.4-1.6,9.7,9.7,0,0,1-3,1.4,11.6,11.6,0,0,1-3.4.5,8,8,0,0,1-4.5-1.2,3.5,3.5,0,0,1-1.8-3,3.7,3.7,0,0,1,1.9-3.3q1.9-1.2,6.9-1.5a40.6,40.6,0,0,0,5.6-.6,3.4,3.4,0,0,0,.4-1.3,1.2,1.2,0,0,0-.8-1,4.7,4.7,0,0,0-2.3-.4,6.1,6.1,0,0,0-2.5.4A2.3,2.3,0,0,0,264.6,194.4Zm5.6,3.6-1.4.2a19,19,0,0,0-5.8,1,1.5,1.5,0,0,0-1,1.3,1.3,1.3,0,0,0,.7,1.1,3.6,3.6,0,0,0,1.9.5,7.3,7.3,0,0,0,2.5-.4,4.1,4.1,0,0,0,1.8-1.1,5.9,5.9,0,0,0,1-2.1Z" transform="translate(-42.9 0)" fill="#ee212b" fill-rule="evenodd"/><path d="M283.9,190.3h5.5l-.9,2.8a9.3,9.3,0,0,1,6.7-3.1,10,10,0,0,1,2.7.4l-2.3,3.2-1.7-.2a7.1,7.1,0,0,0-3.1.8,6.2,6.2,0,0,0-2.4,2,15.2,15.2,0,0,0-1.7,4l-1.4,4.5h-5.9Z" transform="translate(-42.9 0)" fill="#ee212b" fill-rule="evenodd"/><path d="M311.1,190.3l-.9,2.8h-4.2l-3.7,11.5h-5.9l3.7-11.5h-3.3l.9-2.8h3.3l.5-1.5a8.3,8.3,0,0,1,1.1-2.4,4.7,4.7,0,0,1,2.1-1.4,10.7,10.7,0,0,1,3.6-.5,27.2,27.2,0,0,1,5.7.6l-1.1,2.8a16.6,16.6,0,0,0-3.4-.5,2.3,2.3,0,0,0-1.5.4,3.3,3.3,0,0,0-.7,1.4l-.3,1Z" transform="translate(-42.9 0)" fill="#ee212b" fill-rule="evenodd"/><path d="M316.3,184.9h5.9l-1.1,3.5h-5.9Zm-1.7,5.4h5.9l-3.9,12.1q-1.6,5.2-2.8,6.3t-5.7,1.7a21.3,21.3,0,0,1-4.4-.4l.9-3.2,2.4.2a2.9,2.9,0,0,0,1.9-.6q.7-.6,1.9-4.3Z" transform="translate(-42.9 0)" fill="#ee212b" fill-rule="evenodd"/><path d="M322.5,198.7a7.3,7.3,0,0,1,3.4-6.3,15.5,15.5,0,0,1,9-2.4,13.8,13.8,0,0,1,7.5,1.7,5.3,5.3,0,0,1,2.7,4.7q0,3.5-3.4,6t-9.1,2.5a16.8,16.8,0,0,1-5.5-.8,7.4,7.4,0,0,1-3.5-2.3A5,5,0,0,1,322.5,198.7Zm16.8-2.8a2.5,2.5,0,0,0-1.2-2.2,5.5,5.5,0,0,0-3.1-.8,7.2,7.2,0,0,0-3.4.8,5.5,5.5,0,0,0-2.3,2.2,5.7,5.7,0,0,0-.8,2.7,2.8,2.8,0,0,0,1.3,2.4,5.4,5.4,0,0,0,3.2.9,6.2,6.2,0,0,0,4.1-1.4A5.9,5.9,0,0,0,339.3,195.9Zm-9.5-11.1h5l-1,3.3h-5Zm8.6,0h5l-1,3.3h-5Z" transform="translate(-42.9 0)" fill="#ee212b" fill-rule="evenodd"/><path d="M351.5,190.3H357l-.9,2.8a9.3,9.3,0,0,1,6.7-3.1,10,10,0,0,1,2.7.4l-2.3,3.2-1.7-.2a7.1,7.1,0,0,0-3.1.8,6.2,6.2,0,0,0-2.4,2,15.2,15.2,0,0,0-1.7,4l-1.4,4.5h-5.9Z" transform="translate(-42.9 0)" fill="#ee212b" fill-rule="evenodd"/><path d="M376,184.9h5.6l1,1,4.1-1,.7,1.3-3.7.9a17,17,0,0,1,2.8,4.3,11.1,11.1,0,0,1,.8,4.2,8.2,8.2,0,0,1-2.8,6.1q-3.4,3.3-9.6,3.3a14.9,14.9,0,0,1-6.9-1.3q-3.5-1.9-3.5-5.1a7,7,0,0,1,2.8-5.5,12.8,12.8,0,0,1,8.5-2.7,12,12,0,0,1,3.4.4,8.4,8.4,0,0,1,2.4,1.2,11.8,11.8,0,0,0-2.1-3.8l-5,1.2-.7-1.3,4.6-1.1A20.5,20.5,0,0,0,376,184.9Zm5.2,11.6a2.6,2.6,0,0,0-1.2-2.3,5.5,5.5,0,0,0-3.2-.8,6.3,6.3,0,0,0-4.9,1.9,5.5,5.5,0,0,0-1.7,3.8,2.6,2.6,0,0,0,1.2,2.2,5.6,5.6,0,0,0,3.2.8,7,7,0,0,0,3.4-.8,5.8,5.8,0,0,0,2.4-2.3A5.3,5.3,0,0,0,381.3,196.4Z" transform="translate(-42.9 0)" fill="#ee212b" fill-rule="evenodd"/><path d="M393.8,190.3h5.9l-2.7,8.5a9.3,9.3,0,0,0-.5,1.9,1.3,1.3,0,0,0,.7,1.1,3.3,3.3,0,0,0,1.8.4l1.5-.2,1.6-.6,1.4-.9a5.8,5.8,0,0,0,1.2-1.3,9.3,9.3,0,0,0,.8-2l2.2-6.8h5.9L409,204.6h-5.5l.6-1.9a14.5,14.5,0,0,1-7.9,2.3,7.6,7.6,0,0,1-4.2-1,3.1,3.1,0,0,1-1.5-2.7,12.6,12.6,0,0,1,.7-3Z" transform="translate(-42.9 0)" fill="#ee212b" fill-rule="evenodd"/><path d="M419.1,190.3h5.5l-.9,2.8a9.3,9.3,0,0,1,6.7-3.1,10,10,0,0,1,2.7.4l-2.3,3.2-1.7-.2a7.1,7.1,0,0,0-3.1.8,6.2,6.2,0,0,0-2.4,2,15.3,15.3,0,0,0-1.7,4l-1.4,4.5h-5.9Z" transform="translate(-42.9 0)" fill="#ee212b" fill-rule="evenodd"/><polygon points="148.7 100.6 167.2 100.6 120.6 166 125 166 171.5 100.6 190 100.6 134 179.4 92.6 179.4 148.7 100.6" fill="#1752a4" fill-rule="evenodd"/><polygon points="195 100.6 213.1 100.6 216.3 111.1 232.6 100.5 250.9 100.6 194.8 179.4 176.3 179.4 216.5 122.9 203.2 129.4 199.9 119.6 157.4 179.4 138.9 179.4 195 100.6" fill="#1752a4" fill-rule="evenodd"/><polygon points="255.8 100.6 290.7 100.6 280.2 114.9 264.1 114.9 245.9 140.5 261.5 140.5 252.7 152.7 237.3 152.6 218.2 179.4 199.7 179.4 255.8 100.6" fill="#1752a4" fill-rule="evenodd"/><polygon points="294.8 100.6 347.4 100.6 323.1 134.7 304.6 134.7 318.7 114.9 303.1 114.9 266.8 166 282.4 166 291.7 152.8 282.9 152.7 291.5 140.6 318.9 140.6 291.3 179.4 238.8 179.4 294.8 100.6" fill="#1752a4" fill-rule="evenodd"/><path d="M370.6,140.3l-9.3,12.3,37.3.5c18.8.2,34.9-3.8,38.6-17.1-6.1,5.6-22.3,5.6-34,5.3Z" transform="translate(-42.9 0)" fill="#ee212b" fill-rule="evenodd"/><circle cx="377.6" cy="116.6" r="20.3" fill="#ee212b"/></svg>