<?xml version="1.0" encoding="UTF-8"?>
<svg version="1.1" xmlns="http://www.w3.org/2000/svg" width="906" height="794">
<path d="M0 0 C298.32 0 596.64 0 904 0 C902.61511678 4.15464966 901.55433167 7.08855678 899.453125 10.73828125 C898.94491211 11.62829834 898.43669922 12.51831543 897.91308594 13.43530273 C897.36426758 14.38477783 896.81544922 15.33425293 896.25 16.3125 C895.07234511 18.37206912 893.89528271 20.43197712 892.71875 22.4921875 C892.10773437 23.55920898 891.49671875 24.62623047 890.8671875 25.72558594 C887.7959261 31.11153755 884.77372175 36.52476157 881.75 41.9375 C880.57436928 44.03914671 879.39859208 46.14071149 878.22265625 48.2421875 C877.67109863 49.22799805 877.11954102 50.21380859 876.55126953 51.22949219 C873.38713802 56.88050957 870.20945057 62.52388039 867.03125 68.16699219 C865.97746057 70.04006298 864.92596007 71.91440288 863.875 73.7890625 C859.72233754 81.19212202 855.53260508 88.57266476 851.3125 95.9375 C846.24715919 104.78111348 841.25410506 113.66372978 836.2824707 122.56030273 C831.84551939 130.49809086 827.37764558 138.41788331 822.89697266 146.33105469 C818.88788785 153.41648358 814.90881718 160.51834642 810.9375 167.625 C806.09268025 176.29337504 801.19523629 184.9294401 796.25537109 193.54394531 C792.73618243 199.68930649 789.27983038 205.86690371 785.85180664 212.06347656 C779.75162748 223.07926381 773.51936928 234.02110195 767.31347656 244.97753906 C761.3458296 255.51541188 755.39370541 266.06054723 749.5222168 276.65234375 C743.44947015 287.60623168 737.28800439 298.50723114 731.0625 309.375 C726.42902769 317.46507343 721.87107187 325.5936862 717.35546875 333.75 C711.75783881 343.86007518 706.05695263 353.91025651 700.3125 363.9375 C695.24724796 372.78116506 690.25410569 381.66372865 685.2824707 390.56030273 C680.84551939 398.49809086 676.37764558 406.41788331 671.89697266 414.33105469 C667.88788785 421.41648358 663.90881718 428.51834642 659.9375 435.625 C655.09268025 444.29337504 650.19523629 452.9294401 645.25537109 461.54394531 C641.73618243 467.68930649 638.27983038 473.86690371 634.85180664 480.06347656 C628.75162748 491.07926381 622.51936928 502.02110195 616.31347656 512.97753906 C610.34291588 523.52055702 604.3887357 534.0712906 598.51342773 544.66772461 C592.13579918 556.16961217 585.65600613 567.61032022 579.12203979 579.0241394 C578.77239166 579.6349234 578.42274353 580.2457074 578.0625 580.875 C577.71196564 581.48731476 577.36143127 582.09962952 577.00027466 582.73049927 C572.49730985 590.59890746 568.0313039 598.48545969 563.64770508 606.42114258 C560.38547749 612.32270409 557.07301882 618.19497844 553.75 624.0625 C547.87505683 634.43764092 542.04411924 644.8369662 536.22265625 655.2421875 C532.50321895 661.89001613 528.76939027 668.52966927 525.03125 675.16699219 C523.97746057 677.04006298 522.92596007 678.91440288 521.875 680.7890625 C517.72233754 688.19212202 513.53260508 695.57266476 509.3125 702.9375 C504.24715919 711.78111348 499.25410506 720.66372978 494.2824707 729.56030273 C489.851595 737.48722147 485.39140919 745.39706796 480.91455078 753.2980957 C477.99742432 758.45097277 475.09670162 763.61245939 472.21484375 768.78515625 C471.58449219 769.91566406 470.95414062 771.04617188 470.3046875 772.2109375 C469.09030247 774.39073322 467.87795143 776.57166376 466.66796875 778.75390625 C463.94651001 783.63727147 461.20427729 788.416865 458 793 C455.66979942 790.84446953 454.1213357 788.72267117 452.57421875 785.95703125 C452.11474854 785.14314941 451.65527832 784.32926758 451.18188477 783.49072266 C450.68873779 782.60690918 450.19559082 781.7230957 449.6875 780.8125 C448.60784518 778.89913297 447.5270724 776.98639643 446.4453125 775.07421875 C445.88102539 774.07567871 445.31673828 773.07713867 444.73535156 772.04833984 C441.88873847 767.04794437 438.97356764 762.08805193 436.0625 757.125 C430.82684215 748.18342955 425.6957151 739.18798695 420.61572266 730.15722656 C417.05859694 723.84384528 413.42862196 717.57981154 409.73510742 711.34545898 C406.45666094 705.80255258 403.25102604 700.22005678 400.0625 694.625 C392.73529287 681.77006675 385.32045262 668.96772783 377.85498047 656.19262695 C372.36701932 646.8006041 366.92082232 637.38748832 361.53930664 627.93408203 C357.73638012 621.26371497 353.87673871 614.62769959 350 608 C345.12911141 599.67269483 340.31166656 591.31755328 335.5390625 582.93359375 C331.73615951 576.26342263 327.87664704 569.62754286 324 563 C319.62622791 555.52256867 315.28555367 548.02834653 311 540.5 C306.79744158 533.11759879 302.5410321 525.76881494 298.25 518.4375 C292.76601872 509.06598533 287.3599725 499.65196664 281.98461914 490.21795654 C276.71806974 480.9774006 271.38670283 471.77645826 266.0144043 462.59692383 C261.73717206 455.28210374 257.51864226 447.93544477 253.32275391 440.57373047 C247.19924631 429.83262945 241.00463758 419.13306623 234.76171875 408.4609375 C228.39034437 397.56726544 222.064897 386.64978315 215.8125 375.6875 C215.4720163 375.09055328 215.13153259 374.49360657 214.7807312 373.87857056 C214.44244293 373.28547089 214.10415466 372.69237122 213.75561523 372.08129883 C207.11081514 360.43218344 200.40290529 348.82119858 193.63671875 337.2421875 C187.5547471 326.83365767 181.50330289 316.41069922 175.53930664 305.93408203 C171.73638012 299.26371497 167.87673871 292.62769959 164 286 C159.62622731 278.52256765 155.28562883 271.02830439 151 263.5 C146.77384092 256.07768069 142.49818847 248.68604607 138.1875 241.3125 C128.18927888 224.208529 118.29763254 207.0439493 108.48779297 189.83129883 C104.11390649 182.17078251 99.66441683 174.5552112 95.21069336 166.94091797 C91.43639769 160.48153547 87.70113098 154.00155245 84 147.5 C79.77384118 140.07768114 75.49822272 132.6860257 71.1875 125.3125 C64.38072779 113.66926279 57.63602993 101.99094631 50.90429688 90.30419922 C48.98493338 86.97385748 47.06317647 83.64490852 45.140625 80.31640625 C38.82810599 69.38641877 32.53320352 58.44699698 26.27880859 47.48364258 C23.01708313 41.76984373 19.7354364 36.0679711 16.4375 30.375 C15.995271 29.61074707 15.55304199 28.84649414 15.09741211 28.05908203 C12.69954351 23.91885839 10.28949259 19.78613432 7.8671875 15.66015625 C7.35615479 14.78633301 6.84512207 13.91250977 6.31860352 13.01220703 C5.3331044 11.3274812 4.34414268 9.64477491 3.35131836 7.96435547 C2.91182861 7.2117041 2.47233887 6.45905273 2.01953125 5.68359375 C1.62870361 5.01900146 1.23787598 4.35440918 0.83520508 3.66967773 C-0 2 -0 2 0 0 Z " fill="#F5DB18" transform="translate(1,0)"/>
<path d="M0 0 C298.32 0 596.64 0 904 0 C902.61511678 4.15464966 901.55433167 7.08855678 899.453125 10.73828125 C898.94491211 11.62829834 898.43669922 12.51831543 897.91308594 13.43530273 C897.36426758 14.38477783 896.81544922 15.33425293 896.25 16.3125 C895.07234511 18.37206912 893.89528271 20.43197712 892.71875 22.4921875 C892.10773437 23.55920898 891.49671875 24.62623047 890.8671875 25.72558594 C887.7959261 31.11153755 884.77372175 36.52476157 881.75 41.9375 C880.57436928 44.03914671 879.39859208 46.14071149 878.22265625 48.2421875 C877.67109863 49.22799805 877.11954102 50.21380859 876.55126953 51.22949219 C873.38713802 56.88050957 870.20945057 62.52388039 867.03125 68.16699219 C865.97746057 70.04006298 864.92596007 71.91440288 863.875 73.7890625 C859.72233754 81.19212202 855.53260508 88.57266476 851.3125 95.9375 C846.24715919 104.78111348 841.25410506 113.66372978 836.2824707 122.56030273 C831.84551939 130.49809086 827.37764558 138.41788331 822.89697266 146.33105469 C818.88788785 153.41648358 814.90881718 160.51834642 810.9375 167.625 C806.09268025 176.29337504 801.19523629 184.9294401 796.25537109 193.54394531 C792.73618243 199.68930649 789.27983038 205.86690371 785.85180664 212.06347656 C779.75162748 223.07926381 773.51936928 234.02110195 767.31347656 244.97753906 C761.3458296 255.51541188 755.39370541 266.06054723 749.5222168 276.65234375 C743.44947015 287.60623168 737.28800439 298.50723114 731.0625 309.375 C726.42902769 317.46507343 721.87107187 325.5936862 717.35546875 333.75 C711.75783881 343.86007518 706.05695263 353.91025651 700.3125 363.9375 C695.24724796 372.78116506 690.25410569 381.66372865 685.2824707 390.56030273 C680.84551939 398.49809086 676.37764558 406.41788331 671.89697266 414.33105469 C667.88788785 421.41648358 663.90881718 428.51834642 659.9375 435.625 C655.09268025 444.29337504 650.19523629 452.9294401 645.25537109 461.54394531 C641.73618243 467.68930649 638.27983038 473.86690371 634.85180664 480.06347656 C628.75162748 491.07926381 622.51936928 502.02110195 616.31347656 512.97753906 C610.34291588 523.52055702 604.3887357 534.0712906 598.51342773 544.66772461 C592.13579918 556.16961217 585.65600613 567.61032022 579.12203979 579.0241394 C578.77239166 579.6349234 578.42274353 580.2457074 578.0625 580.875 C577.71196564 581.48731476 577.36143127 582.09962952 577.00027466 582.73049927 C572.49730985 590.59890746 568.0313039 598.48545969 563.64770508 606.42114258 C560.38547749 612.32270409 557.07301882 618.19497844 553.75 624.0625 C547.87505683 634.43764092 542.04411924 644.8369662 536.22265625 655.2421875 C532.50321895 661.89001613 528.76939027 668.52966927 525.03125 675.16699219 C523.97746057 677.04006298 522.92596007 678.91440288 521.875 680.7890625 C517.72233754 688.19212202 513.53260508 695.57266476 509.3125 702.9375 C504.24715919 711.78111348 499.25410506 720.66372978 494.2824707 729.56030273 C489.851595 737.48722147 485.39140919 745.39706796 480.91455078 753.2980957 C477.99742432 758.45097277 475.09670162 763.61245939 472.21484375 768.78515625 C471.58449219 769.91566406 470.95414062 771.04617188 470.3046875 772.2109375 C469.09030247 774.39073322 467.87795143 776.57166376 466.66796875 778.75390625 C463.94651001 783.63727147 461.20427729 788.416865 458 793 C455.66979942 790.84446953 454.1213357 788.72267117 452.57421875 785.95703125 C452.11474854 785.14314941 451.65527832 784.32926758 451.18188477 783.49072266 C450.68873779 782.60690918 450.19559082 781.7230957 449.6875 780.8125 C448.60784518 778.89913297 447.5270724 776.98639643 446.4453125 775.07421875 C445.88102539 774.07567871 445.31673828 773.07713867 444.73535156 772.04833984 C441.88873847 767.04794437 438.97356764 762.08805193 436.0625 757.125 C430.82684215 748.18342955 425.6957151 739.18798695 420.61572266 730.15722656 C417.05859694 723.84384528 413.42862196 717.57981154 409.73510742 711.34545898 C406.45666094 705.80255258 403.25102604 700.22005678 400.0625 694.625 C392.73529287 681.77006675 385.32045262 668.96772783 377.85498047 656.19262695 C372.36701932 646.8006041 366.92082232 637.38748832 361.53930664 627.93408203 C357.73638012 621.26371497 353.87673871 614.62769959 350 608 C345.12911141 599.67269483 340.31166656 591.31755328 335.5390625 582.93359375 C331.73615951 576.26342263 327.87664704 569.62754286 324 563 C319.62622791 555.52256867 315.28555367 548.02834653 311 540.5 C306.79744158 533.11759879 302.5410321 525.76881494 298.25 518.4375 C292.76601872 509.06598533 287.3599725 499.65196664 281.98461914 490.21795654 C276.71806974 480.9774006 271.38670283 471.77645826 266.0144043 462.59692383 C261.73717206 455.28210374 257.51864226 447.93544477 253.32275391 440.57373047 C247.19924631 429.83262945 241.00463758 419.13306623 234.76171875 408.4609375 C228.39034437 397.56726544 222.064897 386.64978315 215.8125 375.6875 C215.4720163 375.09055328 215.13153259 374.49360657 214.7807312 373.87857056 C214.44244293 373.28547089 214.10415466 372.69237122 213.75561523 372.08129883 C207.11081514 360.43218344 200.40290529 348.82119858 193.63671875 337.2421875 C187.5547471 326.83365767 181.50330289 316.41069922 175.53930664 305.93408203 C171.73638012 299.26371497 167.87673871 292.62769959 164 286 C159.62622731 278.52256765 155.28562883 271.02830439 151 263.5 C146.77384092 256.07768069 142.49818847 248.68604607 138.1875 241.3125 C128.18927888 224.208529 118.29763254 207.0439493 108.48779297 189.83129883 C104.11390649 182.17078251 99.66441683 174.5552112 95.21069336 166.94091797 C91.43639769 160.48153547 87.70113098 154.00155245 84 147.5 C79.77384118 140.07768114 75.49822272 132.6860257 71.1875 125.3125 C64.38072779 113.66926279 57.63602993 101.99094631 50.90429688 90.30419922 C48.98493338 86.97385748 47.06317647 83.64490852 45.140625 80.31640625 C38.82810599 69.38641877 32.53320352 58.44699698 26.27880859 47.48364258 C23.01708313 41.76984373 19.7354364 36.0679711 16.4375 30.375 C15.995271 29.61074707 15.55304199 28.84649414 15.09741211 28.05908203 C12.69954351 23.91885839 10.28949259 19.78613432 7.8671875 15.66015625 C7.35615479 14.78633301 6.84512207 13.91250977 6.31860352 13.01220703 C5.3331044 11.3274812 4.34414268 9.64477491 3.35131836 7.96435547 C2.91182861 7.2117041 2.47233887 6.45905273 2.01953125 5.68359375 C1.62870361 5.01900146 1.23787598 4.35440918 0.83520508 3.66967773 C-0 2 -0 2 0 0 Z M57 33 C58.48491993 36.71229983 59.96807308 39.90600693 61.90625 43.359375 C62.47980225 44.38345459 63.05335449 45.40753418 63.64428711 46.46264648 C64.25667236 47.54747314 64.86905762 48.6322998 65.5 49.75 C66.13365479 50.87672119 66.76730957 52.00344238 67.42016602 53.16430664 C71.25000564 59.95517743 75.13335601 66.70984746 79.1105957 73.4152832 C82.85304663 79.72724525 86.52403479 86.07941601 90.1875 92.4375 C90.82550537 93.54472412 91.46351074 94.65194824 92.12084961 95.79272461 C93.42889477 98.06337068 94.73675448 100.33412358 96.04443359 102.60498047 C99.19332051 108.07169975 102.3467849 113.53577646 105.5 119 C109.26365365 125.52232439 113.02644623 132.04513763 116.78515625 138.5703125 C122.83055159 149.06232094 128.89110219 159.54481676 135 170 C141.74701194 181.54729516 148.43339318 193.12902027 155.10888672 204.71777344 C158.23680148 210.14659942 161.36858448 215.57319281 164.5 221 C165.75001879 223.16665583 167.00001878 225.3333225 168.25 227.5 C168.86875 228.5725 169.4875 229.645 170.125 230.75 C235.75 344.5 235.75 344.5 237.62524414 347.75048828 C238.87435518 349.91557071 240.12354129 352.08060982 241.37280273 354.24560547 C244.51202309 359.68615706 247.64990563 365.12747216 250.78515625 370.5703125 C256.83055159 381.06232094 262.89110219 391.54481676 269 402 C275.74701194 413.54729516 282.43339318 425.12902027 289.10888672 436.71777344 C292.23680148 442.14659942 295.36858448 447.57319281 298.5 453 C299.75001879 455.16665583 301.00001878 457.3333225 302.25 459.5 C302.86875 460.5725 303.4875 461.645 304.125 462.75 C354.75 550.50000001 354.75 550.50000001 356.62524414 553.75048828 C357.87435518 555.91557071 359.12354129 558.08060982 360.37280273 560.24560547 C363.51202309 565.68615706 366.64990563 571.12747216 369.78515625 576.5703125 C375.80747329 587.02206199 381.84669337 597.46299548 387.9375 607.875 C393.35921178 617.14499777 398.70204915 626.45831752 404.01922607 635.78845215 C409.22045129 644.9128284 414.48027878 654.00132774 419.78344727 663.06689453 C425.9171256 673.55571895 431.9826952 684.08347601 438.04736328 694.61230469 C440.11142758 698.19331946 442.1783705 701.77265987 444.24609375 705.3515625 C445.28592855 707.15185866 446.32572267 708.95217831 447.36550903 710.75250244 C448.35717984 712.46915208 449.34936163 714.1855065 450.34155273 715.90185547 C450.93782471 716.93455566 451.53409668 717.96725586 452.1484375 719.03125 C452.67614746 719.94455078 453.20385742 720.85785156 453.74755859 721.79882812 C454.53336511 723.17988691 455.28939248 724.57878495 456 726 C460.00458944 724.66513685 460.33057422 723.08479795 462.30078125 719.40234375 C462.61352997 718.82546814 462.92627869 718.24859253 463.24850464 717.65423584 C463.92408687 716.40635832 464.59552203 715.15622872 465.26327515 713.90414429 C467.0441097 710.56618667 468.85534344 707.24478074 470.6640625 703.921875 C471.02978867 703.24827438 471.39551483 702.57467377 471.77232361 701.88066101 C475.11642165 695.74029513 478.62738586 689.70500678 482.1875 683.6875 C487.41362276 674.82488222 492.3849192 665.85136377 497.24902344 656.78564453 C501.18927718 649.45485634 505.26188741 642.21194693 509.4128418 634.9987793 C513.30345729 628.2345655 517.13172691 621.43728672 520.9375 614.625 C525.96800995 605.62249041 531.02453042 596.63538624 536.10742188 587.66235352 C538.89780274 582.73237136 541.67587416 577.79599316 544.43359375 572.84765625 C550.21065634 562.48318761 556.04452492 552.16429901 562.0625 541.9375 C567.32431326 532.98926668 572.34091079 523.93325213 577.24853516 514.78662109 C581.18889207 507.4554739 585.26170574 500.21226263 589.4128418 492.9987793 C593.30345729 486.2345655 597.13172691 479.43728672 600.9375 472.625 C605.96672667 463.62478695 611.02301957 454.64058256 616.10302734 445.66894531 C620.11211227 438.58351621 624.09114615 431.48163321 628.0625 424.375 C632.33701181 416.72785139 636.6418026 409.09976573 641 401.5 C647.7560214 389.71663435 654.37734015 377.85867772 661 366 C668.10182672 353.28331572 675.22114918 340.57930144 682.46582031 327.94335938 C688.72656305 317.00875523 694.85647365 306.00073093 701 295 C708.10182672 282.28331572 715.22114918 269.57930144 722.46582031 256.94335938 C728.72656305 246.00875523 734.85647365 235.00073093 741 224 C748.10102374 211.28475357 755.21856651 198.58158561 762.46362305 185.94775391 C766.9346244 178.14030565 771.32985043 170.29132029 775.71875 162.4375 C779.62616369 155.44709398 783.55415086 148.46877696 787.5 141.5 C792.02207677 133.51225862 796.5195953 125.51118864 801 117.5 C807.09887351 106.59633638 813.23641856 95.71500704 819.39111328 84.84277344 C821.01038395 81.98165239 822.62847401 79.11986725 824.24609375 76.2578125 C824.78387451 75.30632324 825.32165527 74.35483398 825.87573242 73.37451172 C826.95039459 71.47265205 828.02478043 69.57063621 829.09887695 67.66845703 C831.94844187 62.62328304 834.80523708 57.5823707 837.671875 52.546875 C838.27064453 51.49306641 838.86941406 50.43925781 839.48632812 49.35351562 C840.63912612 47.32494861 841.79398795 45.29755267 842.95117188 43.27148438 C843.46744141 42.36205078 843.98371094 41.45261719 844.515625 40.515625 C844.97227539 39.71415039 845.42892578 38.91267578 845.89941406 38.08691406 C847.12150816 35.90685568 847.12150816 35.90685568 848 33 C586.97 33 325.94 33 57 33 Z " fill="#0033A0" transform="translate(1,0)"/>
<path d="M0 0 C32.67 0 65.34 0 99 0 C99 109.23 99 218.46 99 331 C128.37 331 157.74 331 188 331 C185.45923017 337.35192456 182.94290001 343.34912681 179.8125 349.375 C177.81354895 353.22778768 176.06167956 356.75328177 175 361 C146.785 361.495 146.785 361.495 118 362 C126.80532303 365.23286365 126.80532303 365.23286365 135.6875 367.9375 C141.05139024 369.43274374 146.37555403 371.01934037 151.6875 372.6875 C152.71266724 373.00932251 152.71266724 373.00932251 153.75854492 373.33764648 C156.51266379 374.20556292 159.26050048 375.08683349 162 376 C159.82018559 381.76357708 156.76836879 386.92943192 153.6875 392.25 C152.83381836 393.77753906 152.83381836 393.77753906 151.96289062 395.3359375 C151.40150391 396.30273438 150.84011719 397.26953125 150.26171875 398.265625 C149.75600342 399.15024414 149.25028809 400.03486328 148.72924805 400.94628906 C147 403 147 403 144.56274414 403.87451172 C141.86364942 404.00667659 140.24650666 403.69444996 137.734375 402.7421875 C136.53433838 402.30144897 136.53433838 402.30144897 135.31005859 401.85180664 C134.46523926 401.52946045 133.62041992 401.20711426 132.75 400.875 C130.96739597 400.22183838 129.18351316 399.57215737 127.3984375 398.92578125 C126.50092773 398.6004541 125.60341797 398.27512695 124.67871094 397.93994141 C120.6157004 396.51425871 116.50822878 395.26690239 112.375 394.0625 C111.65924805 393.85157715 110.94349609 393.6406543 110.20605469 393.42333984 C106.66053058 392.36056495 106.66053058 392.36056495 103 392 C111.73793002 400.87119879 111.73793002 400.87119879 120.984375 409.203125 C124.44942793 412.29212567 127.65758843 415.63981972 130.8984375 418.9609375 C132.83096046 421.04126091 132.83096046 421.04126091 135 422 C133.40584497 425.91209308 130.86106668 428.37218086 127.875 431.3125 C127.38580078 431.79452881 126.89660156 432.27655762 126.39257812 432.77319336 C121.54090244 437.51784679 116.65779283 442.22813811 111 446 C110.154375 445.14277344 109.30875 444.28554688 108.4375 443.40234375 C100.40775939 435.26505856 100.40775939 435.26505856 91.87890625 427.66015625 C89.13394994 425.23477905 86.59010036 422.59010036 84 420 C83.67 432.54 83.34 445.08 83 458 C73.76 458 64.52 458 55 458 C55 445.13 55 432.26 55 419 C48.46609193 424.71442544 48.46609193 424.71442544 42 430.5 C40.33346063 432.00014143 38.66679842 433.50014641 37 435 C36.26136719 435.66773438 35.52273438 436.33546875 34.76171875 437.0234375 C33.73498047 437.93996094 33.73498047 437.93996094 32.6875 438.875 C32.09324219 439.40867187 31.49898438 439.94234375 30.88671875 440.4921875 C28.70998528 442.2317716 26.3974432 443.58517188 24 445 C21.11749017 442.24099916 18.25160179 439.46589896 15.40014648 436.67480469 C14.42769895 435.72751645 13.45081335 434.78476221 12.46948242 433.84667969 C11.06053683 432.49831092 9.66865627 431.13218107 8.27734375 429.765625 C7.43421631 428.94868164 6.59108887 428.13173828 5.72241211 427.29003906 C4 425 4 425 4.13476562 422.8046875 C5.24416797 420.49071962 6.56648403 419.35931229 8.5625 417.75 C11.52233964 415.28082896 14.30360862 412.75512466 17 410 C20.2138744 406.73581054 23.56788892 403.71985862 27.04296875 400.73828125 C29.67095389 398.40404295 32.11588895 395.91235704 34.5546875 393.3828125 C36 392 36 392 38 391 C28.0094225 392.96243487 18.12688903 395.96745005 8.625 399.625 C5.69928124 400.73475539 2.78715237 401.7831291 -0.1875 402.75 C-0.98542969 403.01296875 -1.78335938 403.2759375 -2.60546875 403.546875 C-5.48135257 404.09108793 -7.21068055 403.88681723 -10 403 C-11.36206055 401.14575195 -11.36206055 401.14575195 -12.38671875 398.73828125 C-12.76763672 397.86623047 -13.14855469 396.99417969 -13.54101562 396.09570312 C-14.10852539 394.71801758 -14.10852539 394.71801758 -14.6875 393.3125 C-15.27241211 391.96381836 -15.27241211 391.96381836 -15.86914062 390.58789062 C-17.78762478 386.11798651 -19.55789013 381.65022594 -21 377 C-13.20015137 373.21668796 -5.34616618 370.34348318 2.9375 367.8125 C5.13503013 367.13447066 7.33168579 366.45359891 9.52734375 365.76953125 C10.48374756 365.47667236 11.44015137 365.18381348 12.42553711 364.88208008 C15.29943649 363.96124814 15.29943649 363.96124814 19 362 C0.85 361.67 -17.3 361.34 -36 361 C-37.93875 356.99875 -39.8775 352.9975 -41.875 348.875 C-42.78741455 346.99917236 -42.78741455 346.99917236 -43.71826172 345.08544922 C-44.20053223 344.08529785 -44.68280273 343.08514648 -45.1796875 342.0546875 C-45.91807861 340.53077393 -45.91807861 340.53077393 -46.67138672 338.97607422 C-47.97225909 336.06213922 -48.99087731 333.02736808 -50 330 C-20.96 330 8.08 330 38 330 C38 228.69 38 127.38 38 23 C25.46 23 12.92 23 0 23 C0 15.41 0 7.82 0 0 Z " fill="#02349F" transform="translate(384,133)"/>
<path d="M0 0 C77.88 0 155.76 0 236 0 C236 13.2 236 26.4 236 40 C165.38 40 94.76 40 22 40 C17.05 31.42 12.1 22.84 7 14 C3.535 8.06 3.535 8.06 0 2 C0 1.34 0 0.68 0 0 Z " fill="#00339F" transform="translate(168,176)"/>
<path d="M0 0 C77.88 0 155.76 0 236 0 C234.54373928 3.64065179 233.12241748 6.72926187 231.20703125 10.09765625 C230.38428711 11.54881836 230.38428711 11.54881836 229.54492188 13.02929688 C228.97322266 14.03025391 228.40152344 15.03121094 227.8125 16.0625 C226.98395508 17.52333008 226.98395508 17.52333008 226.13867188 19.01367188 C224.43363266 22.01382799 222.72317001 25.01020434 221 28 C220.66876947 28.95983134 220.33753895 29.91966269 219.99627113 30.90857983 C218.41192891 34.71077065 216.97817833 37.12792022 214 40 C207.61276379 42.32891583 200.23928252 41.51172954 193.56079102 41.36230469 C191.4514129 41.35891848 189.34202065 41.3608224 187.23265076 41.36761475 C181.51299764 41.37105653 175.79636736 41.30053877 170.07741666 41.21672726 C164.09847444 41.14168367 158.11946196 41.13466051 152.14012146 41.12042236 C140.82074332 41.08313217 129.50275682 40.98467076 118.18399137 40.86422849 C105.29672587 40.73007437 92.4093937 40.66411481 79.5216037 40.60388327 C53.01345329 40.47846855 26.50721051 40.25841623 0 40 C0 26.8 0 13.6 0 0 Z " fill="#00339F" transform="translate(503,176)"/>
<path d="M0 0 C68.31 0 136.62 0 207 0 C205.72877092 3.17807269 204.70595532 5.69731716 203.00390625 8.5390625 C202.63622226 9.15946568 202.26853827 9.77986887 201.88971233 10.41907215 C201.01936026 11.86566351 200.13061831 13.30138216 199.22206593 14.7242918 C196.69959222 18.75570946 194.75908429 22.40656874 193.50334167 27.00654602 C191.61022208 32.92383081 189.286466 37.49477997 184 41 C171.76124982 44.45531959 158.30978567 43.26840321 145.72971368 42.92648482 C140.60260059 42.80725906 135.47525496 42.79651544 130.3469696 42.77400208 C120.64847893 42.71507216 110.95408415 42.55935088 101.25739306 42.36836177 C90.21318894 42.15558014 79.16878328 42.0514259 68.12303793 41.95614851 C45.41256822 41.75783301 22.70770973 41.40958713 0 41 C0 27.47 0 13.94 0 0 Z " fill="#05379F" transform="translate(502,228)"/>
<path d="M0 0 C67.65 0 135.3 0 205 0 C205 13.2 205 26.4 205 40 C181.32965591 40.42930808 157.66247413 40.77911123 133.98922253 40.98443127 C122.99668475 41.08230956 112.00674123 41.21567338 101.01586914 41.43334961 C91.4332298 41.62304466 81.85246895 41.74537473 72.26800424 41.7876814 C67.19426441 41.81240823 62.12589683 41.87025178 57.05388451 42.00887108 C26.16538489 42.82124232 26.16538489 42.82124232 19.25408363 38.14017296 C15.19642851 33.7432205 13.1776115 28.95848088 11.65065765 23.23231888 C10.76277793 20.18612299 9.23980308 17.70644609 7.51953125 15.05859375 C7.05869141 14.27162109 6.59785156 13.48464844 6.12304688 12.67382812 C5.20939537 11.11476557 4.29247303 9.55761718 3.37304688 8.00195312 C2.92638672 7.23689453 2.47972656 6.47183594 2.01953125 5.68359375 C1.62870361 5.01900146 1.23787598 4.35440918 0.83520508 3.66967773 C0 2 0 2 0 0 Z " fill="#0033A0" transform="translate(199,229)"/>
<path d="M0 0 C58.74 0 117.48 0 178 0 C176.55214711 3.61963223 175.14796699 6.68190323 173.2421875 10.02734375 C172.69820312 10.98576172 172.15421875 11.94417969 171.59375 12.93164062 C171.0265625 13.92357422 170.459375 14.91550781 169.875 15.9375 C169.33101562 16.89462891 168.78703125 17.85175781 168.2265625 18.83789062 C163.8309762 26.56611187 159.41106138 34.28064259 155 42 C103.85 42 52.7 42 0 42 C0 28.14 0 14.28 0 0 Z " fill="#05389F" transform="translate(502,280)"/>
<path d="M0 0 C58.74 0 117.48 0 178 0 C178 13.86 178 27.72 178 42 C158.14527275 42.49759477 138.29562764 42.90239083 118.43623829 43.13986778 C109.21408473 43.25308865 99.99609221 43.40725999 90.77661133 43.65966797 C82.73578748 43.87970116 74.69797611 44.02104248 66.65422553 44.06994689 C62.3972409 44.09852526 58.14886853 44.16505268 53.89466286 44.32606125 C28.10449665 45.26466839 28.10449665 45.26466839 21.34942245 39.89176178 C16.9994707 34.75028109 14.42857426 29.08896082 12.12050438 22.81137466 C10.3380119 18.33905462 7.80642603 14.37540167 5.25 10.3125 C1.18163849 3.54491547 1.18163849 3.54491547 0 0 Z " fill="#05389F" transform="translate(226,280)"/>
<path d="M0 0 C48.51 0 97.02 0 147 0 C145.493445 3.7663875 144.0115497 6.8902001 141.98828125 10.3515625 C141.39466797 11.36863281 140.80105469 12.38570313 140.18945312 13.43359375 C139.57005859 14.48675781 138.95066406 15.53992188 138.3125 16.625 C137.71244141 17.65496094 137.11238281 18.68492187 136.49414062 19.74609375 C134.68074121 22.84309167 132.8628961 25.93240593 131 29 C130.56996233 29.88826068 130.13992466 30.77652136 129.69685555 31.69169903 C125.60580662 39.38588641 125.60580662 39.38588641 121.3812933 41.0014801 C118.14800522 41.35598796 115.07350648 41.36212474 111.82250977 41.2487793 C110.00681236 41.25118874 110.00681236 41.25118874 108.1544342 41.25364685 C104.85029689 41.24731408 101.55381666 41.19238353 98.25103498 41.11533332 C94.79461819 41.04633589 91.33808743 41.04008974 87.88108826 41.02705383 C81.3425574 40.99292968 74.80606153 40.90276109 68.26842493 40.79220945 C60.82250172 40.66904548 53.37647871 40.60872578 45.92978966 40.55355966 C30.61848226 40.43872957 15.30997637 40.2370992 0 40 C0 26.8 0 13.6 0 0 Z " fill="#00339F" transform="translate(502,334)"/>
<path d="M0 0 C48.18 0 96.36 0 146 0 C146 13.2 146 26.4 146 40 C130.06637938 40.20326155 114.13378772 40.36900412 98.19924736 40.46630955 C90.80032779 40.51269373 83.40227158 40.57591362 76.00390625 40.67895508 C69.55445976 40.76873746 63.1056385 40.82674111 56.65558445 40.84679645 C53.24076176 40.85851874 49.82772743 40.88600428 46.41347885 40.95157051 C42.59862634 41.01683627 38.78748816 41.02590509 34.97216797 41.02172852 C33.27931419 41.07026474 33.27931419 41.07026474 31.55226135 41.11978149 C24.05395871 41.03085336 24.05395871 41.03085336 21.00090027 38.04472542 C19.45322757 35.75493709 18.19977452 33.48649697 17 31 C15.99694824 29.35209473 15.99694824 29.35209473 14.97363281 27.67089844 C13.06230934 24.36587963 11.15184716 21.06048444 9.25 17.75 C8.57180934 16.5806162 7.89342495 15.41134472 7.21484375 14.2421875 C6.57160156 13.12585938 5.92835938 12.00953125 5.265625 10.859375 C4.68586914 9.85358398 4.10611328 8.84779297 3.50878906 7.81152344 C2 5 2 5 0 0 Z " fill="#00339F" transform="translate(258,334)"/>
<path d="M0 0 C1.10794922 -0.01836914 1.10794922 -0.01836914 2.23828125 -0.03710938 C11.06294549 -0.06045505 18.03525803 2.43548873 24.75 8.1875 C30.43996317 14.9346797 31.88996169 20.36844394 31.9375 29.125 C31.95167969 30.30964844 31.96585937 31.49429688 31.98046875 32.71484375 C31.44415426 40.79592142 27.63519487 47.30230513 22 52.9375 C12.42866121 59.56381147 3.68140852 60.5443364 -7.8984375 58.78515625 C-15.45153915 56.75774475 -21.78153568 51.0850359 -25.75 44.4375 C-28.08692453 39.37416352 -28.40952856 35.41797742 -28.4375 29.8125 C-28.45167969 28.52601562 -28.46585937 27.23953125 -28.48046875 25.9140625 C-28.0235139 18.52533487 -24.9756132 12.77050294 -20.25 7.1875 C-13.66802121 1.79611806 -8.47684909 0.00724517 0 0 Z " fill="#06389E" transform="translate(410.25,60.8125)"/>
<path d="M0 0 C5.26526855 -0.07457346 10.53022455 -0.12880098 15.79589844 -0.16479492 C17.58436443 -0.17981184 19.37279403 -0.20023158 21.16113281 -0.22631836 C23.74293031 -0.26301615 26.32423779 -0.27979745 28.90625 -0.29296875 C29.69616333 -0.30845261 30.48607666 -0.32393646 31.29992676 -0.33988953 C37.706107 -0.34179906 43.32951227 0.75116823 48.375 5 C51.94922104 9.39904129 52.44517503 11.97660315 52.30859375 17.49609375 C51.84382878 21.26716139 50.56883799 23.23355909 48 26 C45.72290125 27.56032463 43.48109928 28.75945036 41 30 C43.75170595 34.97988548 46.73385796 39.63880772 50.0625 44.25 C50.49626953 44.86101562 50.93003906 45.47203125 51.37695312 46.1015625 C55.24597005 51.78304691 55.24597005 51.78304691 61 55 C61 55.66 61 56.32 61 57 C54.66679972 58.14358738 48.19996771 59.19899727 42 57 C36.06282677 52.02809799 32.62424079 44.71198434 29 38 C27.76539157 35.82492183 26.54538299 33.98646766 25 32 C23.68 31.67 22.36 31.34 21 31 C21.33 38.26 21.66 45.52 22 53 C24.31 53.66 26.62 54.32 29 55 C29 55.66 29 56.32 29 57 C19.1 57 9.2 57 -1 57 C-1 56.34 -1 55.68 -1 55 C1.31 54.34 3.62 53.68 6 53 C6 36.5 6 20 6 3 C4.02 2.34 2.04 1.68 0 1 C0 0.67 0 0.34 0 0 Z " fill="#0B3D9E" transform="translate(296,62)"/>
<path d="M0 0 C0.6909375 -0.020625 1.381875 -0.04125 2.09375 -0.0625 C7.231375 -0.10112876 10.62312516 1.04236874 15.25 3.25 C17.96305777 3.75379029 17.96305777 3.75379029 20.25 3.25 C20.91 2.26 21.57 1.27 22.25 0.25 C22.91 0.25 23.57 0.25 24.25 0.25 C24.25 6.85 24.25 13.45 24.25 20.25 C23.59 20.25 22.93 20.25 22.25 20.25 C21.31773933 18.72097374 20.45448018 17.14963386 19.625 15.5625 C16.62003754 10.48216778 13.9708507 7.11670615 8.25 5.25 C3.00005169 4.41182756 -2.16810166 3.95684408 -7.03515625 6.39453125 C-12.20727007 10.5563808 -14.74037849 15.74945451 -15.75 22.25 C-15.939624 25.18843982 -15.98055199 28.11855711 -16 31.0625 C-16.020625 31.83142578 -16.04125 32.60035156 -16.0625 33.39257812 C-16.10884294 40.2571268 -14.6426945 46.0773307 -10.375 51.625 C-6.43842528 55.56157472 -3.62476012 56.33961152 1.8125 56.4375 C4.93518626 56.41044033 7.13812268 56.02796933 10.25 55.25 C10.25 49.64 10.25 44.03 10.25 38.25 C7.94 37.59 5.63 36.93 3.25 36.25 C3.25 35.92 3.25 35.59 3.25 35.25 C12.16 35.25 21.07 35.25 30.25 35.25 C30.25 35.91 30.25 36.57 30.25 37.25 C28.6 37.91 26.95 38.57 25.25 39.25 C24.92 44.53 24.59 49.81 24.25 55.25 C12.94459946 60.48085696 0.6665943 62.42115152 -11.71484375 59.56640625 C-13.91576641 58.63420526 -15.77428859 57.59081049 -17.75 56.25 C-18.45253906 55.82589844 -19.15507812 55.40179688 -19.87890625 54.96484375 C-25.82039841 51.0366749 -29.60853913 45.80101931 -31.3515625 38.8515625 C-32.96869467 28.29264071 -31.83508213 20.18284683 -25.75 11.25 C-19.10004998 3.54597865 -9.95352053 0.07265343 0 0 Z " fill="#07399E" transform="translate(239.75,59.75)"/>
<path d="M0 0 C4.58091073 2.97030784 7.12468564 7.19523445 8.4375 12.4375 C9.10137937 17.1430186 9.19283017 21.87887442 9.25 26.625 C9.2595874 27.32939209 9.2691748 28.03378418 9.27905273 28.75952148 C9.22837568 36.65500595 7.49572211 43.44909064 3 50 C-0.34154454 52.87744113 -3.50614635 53.65653767 -7.94140625 53.48046875 C-13.04466546 52.28938548 -16.17001902 48.30030353 -18.875 44.0625 C-23.00453182 32.82099672 -22.33393915 18.09078915 -18 7 C-13.62667092 -0.17886094 -8.06262879 -1.49924916 0 0 Z " fill="#F4DB18" transform="translate(418,64)"/>
<path d="M0 0 C3 1 3 1 4.05566406 2.69555664 C4.53084473 3.79178345 4.53084473 3.79178345 5.015625 4.91015625 C5.3760791 5.72709961 5.7365332 6.54404297 6.10791016 7.38574219 C6.4847998 8.26907227 6.86168945 9.15240234 7.25 10.0625 C7.64622559 10.96774414 8.04245117 11.87298828 8.45068359 12.80566406 C9.64276729 15.53330506 10.82147108 18.26648171 12 21 C12.63127992 22.44207812 13.26395669 23.88354608 13.8984375 25.32421875 C14.1876709 25.98196289 14.4769043 26.63970703 14.77490234 27.31738281 C15.33998336 28.60204144 15.90541105 29.88654765 16.47119141 31.17089844 C17.96449618 34.57698537 19.41243817 37.9958481 20.8125 41.44140625 C21.11591309 42.17262695 21.41932617 42.90384766 21.73193359 43.65722656 C22.3105155 45.05354177 22.8767848 46.45504868 23.42822266 47.86230469 C25.22277061 52.14946329 26.90191389 53.89501038 31 56 C31 56.66 31 57.32 31 58 C21.76 58 12.52 58 3 58 C3 57.34 3 56.68 3 56 C5.97 55.505 5.97 55.505 9 55 C8.39456125 50.05558357 7.39004992 45.86517472 6 41 C-0.93 41 -7.86 41 -15 41 C-16.49035891 46.21625619 -17.24741966 48.92789703 -17 54 C-14.69 54.66 -12.38 55.32 -10 56 C-10 56.66 -10 57.32 -10 58 C-16.6 58 -23.2 58 -30 58 C-30 57.34 -30 56.68 -30 56 C-29.2575 55.5875 -28.515 55.175 -27.75 54.75 C-21.3265043 50.66232092 -19.0264556 42.80405711 -16.1875 36.0625 C-15.30495876 33.99802462 -14.42084115 31.93422241 -13.53515625 29.87109375 C-13.10477051 28.86804199 -12.67438477 27.86499023 -12.23095703 26.83154297 C-10.07932745 21.88219749 -7.77851 17.00772211 -5.47265625 12.12890625 C-3.58276869 8.1135218 -1.78246667 4.06402401 0 0 Z " fill="#0D3E9E" transform="translate(652,61)"/>
<path d="M0 0 C16.83 0 33.66 0 51 0 C51 4.95 51 9.9 51 15 C50.34 15 49.68 15 49 15 C48.82984375 14.45730469 48.6596875 13.91460937 48.484375 13.35546875 C48.24203125 12.64003906 47.9996875 11.92460938 47.75 11.1875 C47.40195312 10.12595703 47.40195312 10.12595703 47.046875 9.04296875 C45.72854207 6.47025188 44.44743675 5.5308363 42 4 C39.42126391 3.43015552 39.42126391 3.43015552 36.75 3.3125 C35.85796875 3.24675781 34.9659375 3.18101563 34.046875 3.11328125 C33.37140625 3.07589844 32.6959375 3.03851563 32 3 C32.11752733 9.92354847 32.24236017 16.84693737 32.37231445 23.77026367 C32.41567208 26.12635295 32.45734654 28.48247383 32.49731445 30.83862305 C32.55499676 34.22193938 32.61869731 37.60509657 32.68359375 40.98828125 C32.70030624 42.04461258 32.71701874 43.10094391 32.73423767 44.18928528 C32.7641555 45.66047066 32.7641555 45.66047066 32.79467773 47.16137695 C32.81799416 48.45710381 32.81799416 48.45710381 32.84178162 49.77900696 C32.92009739 52.17365425 32.92009739 52.17365425 34 55 C35.98 55 37.96 55 40 55 C40 55.66 40 56.32 40 57 C30.1 57 20.2 57 10 57 C10 56.34 10 55.68 10 55 C12.31 54.34 14.62 53.68 17 53 C17.33 36.5 17.66 20 18 3 C7.8245619 3.87254222 7.8245619 3.87254222 4.375 7.3125 C3.03040921 9.94056381 2.33419807 12.07576684 2 15 C1.34 15 0.68 15 0 15 C0 10.05 0 5.1 0 0 Z " fill="#083A9E" transform="translate(551,62)"/>
<path d="M0 0 C16.83 0 33.66 0 51 0 C51 4.95 51 9.9 51 15 C50.34 15 49.68 15 49 15 C48.74605469 14.37351562 48.49210938 13.74703125 48.23046875 13.1015625 C47.88628906 12.28429687 47.54210937 11.46703125 47.1875 10.625 C46.85105469 9.81289062 46.51460937 9.00078125 46.16796875 8.1640625 C45.05560918 5.69852542 45.05560918 5.69852542 42 4 C39.49103314 3.54398739 39.49103314 3.54398739 36.8125 3.375 C35.91144531 3.30023438 35.01039063 3.22546875 34.08203125 3.1484375 C33.39496094 3.09945312 32.70789063 3.05046875 32 3 C32.09211618 9.94198065 32.19940094 16.88360636 32.31738281 23.82519531 C32.35573527 26.18809651 32.39057692 28.55105734 32.421875 30.9140625 C32.46738966 34.3049048 32.52540619 37.69533424 32.5859375 41.0859375 C32.59748871 42.14743011 32.60903992 43.20892273 32.62094116 44.30258179 C32.64081085 45.28344757 32.66068054 46.26431335 32.68115234 47.27490234 C32.69447601 48.14094086 32.70779968 49.00697937 32.7215271 49.89926147 C32.81220713 52.21757642 32.81220713 52.21757642 35 54 C36.98821313 54.39764263 38.98944339 54.73775349 41 55 C41 55.66 41 56.32 41 57 C30.77 57 20.54 57 10 57 C10 56.34 10 55.68 10 55 C11.134375 54.690625 12.26875 54.38125 13.4375 54.0625 C16.78775099 53.37075469 16.78775099 53.37075469 18 52 C18.1225355 50.46617321 18.17777938 48.92689481 18.20532227 47.38842773 C18.22526749 46.40748642 18.24521271 45.4265451 18.26576233 44.4158783 C18.28247482 43.3492244 18.29918732 42.2825705 18.31640625 41.18359375 C18.33718735 40.0974025 18.35796844 39.01121124 18.37937927 37.8921051 C18.44499442 34.40730373 18.50381511 30.92242432 18.5625 27.4375 C18.60567385 25.08137199 18.64928776 22.72525201 18.69335938 20.36914062 C18.80068792 14.57951063 18.90243165 8.78980225 19 3 C17.2194337 3.12424738 15.43960294 3.25907026 13.66015625 3.3984375 C12.66894775 3.47239746 11.67773926 3.54635742 10.65649414 3.62255859 C7.87697099 3.83164716 7.87697099 3.83164716 5.4375 5.625 C3.61461952 8.63671558 2.78858292 11.58280736 2 15 C1.34 15 0.68 15 0 15 C0 10.05 0 5.1 0 0 Z " fill="#04379F" transform="translate(471,62)"/>
<path d="M0 0 C3.02508145 1.73602105 5.41790069 3.83580137 7 7 C7.68128376 13.81283762 7.68128376 13.81283762 5.953125 16.82421875 C2.82207185 20.62752744 1.13366332 21.88663367 -3.75 22.375 C-7.10058068 22.35058775 -8.84894532 21.75601354 -11.4375 19.625 C-14.88331435 16.0951414 -15.39555836 14.0716348 -15.359375 9.10546875 C-14.72418186 5.38406547 -12.66020984 3.59687151 -10 1 C-6.77140153 -0.61429923 -3.49006347 -0.59570657 0 0 Z " fill="#F6F8FB" transform="translate(457,142)"/>
<path d="M0 0 C10 0 10 0 13.5625 2.375 C17.32736605 6.42947113 17.33572393 9.0753771 17.2890625 14.44921875 C16.87181114 18.13118006 15.44497358 20.27560087 13 23 C10 24 10 24 0 24 C0 16.08 0 8.16 0 0 Z " fill="#F4DB19" transform="translate(317,65)"/>
<path d="M0 0 C3.11932161 1.5596608 3.69125949 4.19913594 5.125 7.3125 C5.66382813 8.46363281 6.20265625 9.61476563 6.7578125 10.80078125 C8 14 8 14 8 18 C3.05 18 -1.9 18 -7 18 C-6.09789442 13.48947211 -4.88930512 10.29874909 -2.9375 6.1875 C-2.11572266 4.44533203 -2.11572266 4.44533203 -1.27734375 2.66796875 C-0.85582031 1.78753906 -0.43429687 0.90710938 0 0 Z " fill="#EED81E" transform="translate(647,81)"/>
<path d="M0 0 C4.29 0 8.58 0 13 0 C13 0.66 13 1.32 13 2 C12.319375 2.53625 11.63875 3.0725 10.9375 3.625 C7.72926201 6.21889454 5.38491113 9.0625776 2.84375 12.29296875 C0.60992466 14.36115026 -1.01785809 14.65787071 -4 15 C-3.43179252 9.54520815 -2.05362055 5.08940744 0 0 Z " fill="#18479B" transform="translate(411,41)"/>
</svg>
