<svg xmlns="http://www.w3.org/2000/svg" viewBox="0 0 362.3 313.8"><title>grotta</title><polygon points="0 0 181.2 313.8 362.3 0 0 0" fill="#0f0064"/><polygon points="20 11.5 181.2 290.6 342.3 11.5 20 11.5" fill="#ffb30f"/><path d="M311.1,180.1c2.6.2,3.4.4,3.4,2.9s-.6,5.4-4.4,5.4-6.5-2.9-6.5-10.8,3.4-10.8,6.7-10.8,5.2,2,8.3,5.8l1.1-.4-2.1-6.6a6.7,6.7,0,0,1-2.9.9,7.5,7.5,0,0,1-2.1-.5,9.7,9.7,0,0,0-2.7-.4c-7.5,0-12.4,6.5-12.4,12.8s4.6,11.2,12,11.2a18.5,18.5,0,0,0,5.2-.9,13,13,0,0,1,4.7-.7v-4.6c0-2.4.3-3.1,3.1-3.4v-1.2H311.1Z" transform="translate(-218.8 -143.1)" fill="#0f0064"/><path d="M354.8,183.8l-1.9-3.4a7,7,0,0,0-2.2-2.8c3.3-.6,6.6-2.2,6.6-5.6s-3.1-5.8-8.2-5.8H334.4v1c2.5,0,3.3.7,3.3,2.9v15c0,2.2-.9,2.9-3.3,2.9v1h12.3v-1c-2.5,0-3.3-.7-3.3-2.9v-7c1.4,0,2.8.3,4.8,4.4l2,3.9a25,25,0,0,0,1.5,2.6h8.5v-1C357.3,187.9,356.1,185.9,354.8,183.8Zm-10.8-7.1h-.7V170c0-1.8.1-2.6,2.4-2.6s5.7,1.1,5.7,4.3S349.7,176.7,344.1,176.7Z" transform="translate(-218.8 -143.1)" fill="#0f0064"/><path d="M409.7,166.2l-1.7,6.2,1.3.3c1.8-2.5,4.5-5,7.9-5.3v17.7c0,2.2-.9,2.9-3.3,2.9v1h12.3v-1c-2.5,0-3.3-.7-3.3-2.9V167.5c3.3.1,6.4,3,8,5.3l1.3-.3-1.9-6.2Z" transform="translate(-218.8 -143.1)" fill="#0f0064"/><path d="M445.2,166.2l-1.7,6.2,1.3.3c1.8-2.5,4.5-5,7.9-5.3v17.7c0,2.2-.9,2.9-3.3,2.9v1h12.3v-1c-2.5,0-3.3-.7-3.3-2.9V167.5c3.3.1,6.4,3,8,5.3l1.3-.3-1.9-6.2Z" transform="translate(-218.8 -143.1)" fill="#0f0064"/><path d="M498.1,184.1l-6.4-18.7-5,1.5L480,183.1c-1.1,2.6-1.8,4.1-4.9,4.9v1h9.1v-1c-1.5-.1-3.1-.7-3.1-2.3a7.9,7.9,0,0,1,.7-2.6l.8-2h8.8l1.2,3.7a5.5,5.5,0,0,1,.4,1.8c0,.9-.5,1.3-2.7,1.4v1h12.1v-1C499.2,188,498.8,186.4,498.1,184.1Zm-14.9-4.4,4.1-10,3.4,10Z" transform="translate(-218.8 -143.1)" fill="#0f0064"/><path d="M383.8,165.7a11.8,11.8,0,0,0-12.3,12.2c0,6.9,4.8,11.7,12.3,11.7s12.6-5.9,12.6-12.2S391.6,165.7,383.8,165.7Zm-.2,22.8c-3.7,0-6.1-3-6.1-10.8s2.6-10.7,6.6-10.7,6.4,2.7,6.4,10.8C390.4,181.9,389.9,188.4,383.6,188.4Z" transform="translate(-218.8 -143.1)" fill="#0f0064"/><path d="M384.8,163.3c.5-.7,2.8-3.4,2.8-4.2s-1.1-1-1.8-1-2.1.7-2.6,1.9l-1.5,3.8,2.3.4Z" transform="translate(-218.8 -143.1)" fill="#0f0064"/><polygon points="161.2 70.1 67.6 70.1 77.3 87 161.2 87 161.2 70.1" fill="#0f0064"/><polygon points="161.2 91.1 79.7 91.1 89.5 108.1 161.2 108.1 161.2 91.1" fill="#0f0064"/><polygon points="161.2 112.2 91.9 112.2 101.7 129.1 161.2 129.1 161.2 112.2" fill="#0f0064"/><polygon points="161.2 133.2 104 133.2 113.8 150.2 161.2 150.2 161.2 133.2" fill="#0f0064"/><polygon points="201.1 70.1 201.1 87 285 87 294.8 70.1 201.1 70.1" fill="#0f0064"/><polygon points="201.1 108.1 272.8 108.1 282.6 91.1 201.1 91.1 201.1 108.1" fill="#0f0064"/><polygon points="201.1 129.1 260.7 129.1 270.5 112.2 201.1 112.2 201.1 129.1" fill="#0f0064"/><polygon points="201.1 150.2 248.5 150.2 258.3 133.2 201.1 133.2 201.1 150.2" fill="#0f0064"/><polygon points="193.3 53.2 154.1 53.2 154.1 62.9 169 62.9 169 183.6 134 183.6 141.1 196 159.6 196 144.7 202.8 150 213.9 169.4 204.9 155.8 219.2 164.5 227.8 175 216.8 175 233.3 187.4 233.3 187.4 216.8 197.8 227.8 206.5 219.2 192.9 204.9 212.4 213.9 217.7 202.8 202.7 196 221.2 196 228.3 183.6 193.3 183.6 193.3 53.2" fill="#0f0064"/><circle cx="181.2" cy="62.2" r="4.4" fill="#ffb30f"/></svg>