<svg xmlns="http://www.w3.org/2000/svg" viewBox="0 0 202.9 316.8"><title>hamar</title><path d="M494.8,233.9c-51.9-23.9-84.8-76.2-85.1-76.8L400,141.6l-9.7,15.6a229.3,229.3,0,0,1-23.3,29.7c-13.4,14.7-35.1,34.8-61.9,47.1l-6.6,3.1v7.3c0,56,3.3,83.8,13.7,114.3a158.8,158.8,0,0,0,30.8,54.3c12.9,14.8,29.5,28.5,50.9,41.8l6,3.7,6-3.7c21.4-13.3,38-27,50.9-41.8a158.8,158.8,0,0,0,30.8-54.3c10.4-30.6,13.7-58.3,13.7-114.3V237Z" transform="translate(-298.5 -141.6)"/><path d="M492.5,239.1c-27.8-12.8-50.1-33.5-63.9-48.6a234,234,0,0,1-23.7-30.3l-4.8-7.8-4.8,7.8a234,234,0,0,1-23.7,30.3c-13.8,15.1-36.1,35.8-63.9,48.6l-3.3,1.5v3.7c0,29,.9,49.4,2.9,66.3a220.2,220.2,0,0,0,10.5,46.2,153.2,153.2,0,0,0,29.7,52.4c12.5,14.4,28.7,27.7,49.6,40.7l3,1.9,3-1.9c20.9-13,37.1-26.3,49.6-40.7a153.2,153.2,0,0,0,29.7-52.4,220.1,220.1,0,0,0,10.5-46.2c2-16.9,2.9-37.3,2.9-66.3v-3.7Z" transform="translate(-298.5 -141.6)" fill="#fff"/><path d="M400,163.2s-34.4,55.5-90.1,81.1c0,56.1,3.4,82,13.1,110.7,13.2,39.1,37.5,65.5,77,90,39.5-24.5,63.7-51,77-90,9.7-28.7,13.1-54.5,13.1-110.7C434.4,218.7,400,163.2,400,163.2Z" transform="translate(-298.5 -141.6)"/><path d="M410,406.4a2.8,2.8,0,1,1-5.6,0V383.6l-7.9-16.9,4.1-5.8,9.4,20.3Z" transform="translate(-298.5 -141.6)" fill="#fff"/><path d="M446.6,344.2a9.2,9.2,0,0,1-1.8,1.7l-.8.6-.3.2-12.5,7.5-.5.3a11.7,11.7,0,0,1-4.5,1.5l-.9-.4a16,16,0,0,1-2.3-1.8l-.8-.8-.3-.3-9.5-10.1,2.7-5.3,11.9,12.5,12.3-7.3.5-.3,2.2-1a7,7,0,0,1,2.3-.6,2.8,2.8,0,0,1,2.8,2.8A1.6,1.6,0,0,1,446.6,344.2Z" transform="translate(-298.5 -141.6)" fill="#fff"/><path d="M414.7,332.8,412,338h0a5.4,5.4,0,0,0-1.2-3.5,4.3,4.3,0,0,0-2.3-1.4l1.6-3.1A10.6,10.6,0,0,0,414.7,332.8Z" transform="translate(-298.5 -141.6)" fill="#fff"/><path d="M386.4,377.1h-.1a12.5,12.5,0,0,1-1.7,1.8,4.2,4.2,0,0,1-2.4,1.2,2.5,2.5,0,0,1-1-.4,14.7,14.7,0,0,1-2.2-1.8l-.8-.8-.3-.3-18.5-20.2h0a5.4,5.4,0,0,1-1.3-3.1,2.8,2.8,0,0,1,2.8-2.8,3.4,3.4,0,0,1,1.7.8l.7.6.2.2h.1l18.8,20.5L394,356.3l5.4,2.4Z" transform="translate(-298.5 -141.6)" fill="#fff"/><path d="M401.6,348.1l6.8-5.1a16,16,0,0,0,1.7-1.5l.2-.3-3.6,7.1-1.1,1.6Z" transform="translate(-298.5 -141.6)" fill="#fff"/><path d="M409.3,322.5a8.4,8.4,0,0,0,8.4,8.4h0a8.4,8.4,0,0,0,8.4-8.4h0a8.4,8.4,0,0,0-8.4-8.4h0a8.4,8.4,0,0,0-8.4,8.4Z" transform="translate(-298.5 -141.6)" fill="#fff"/><path d="M391.9,345.5l-.3.3h0l-1,1h0a4.4,4.4,0,0,0-1.4,2.4h0a3.5,3.5,0,0,0,1,2.5h0a5.8,5.8,0,0,0,1.5,1.1h.1l15.7,7,2,.8h0a11.7,11.7,0,0,0,3,.8h0a2.8,2.8,0,0,0,2.8-2.8h0a1.7,1.7,0,0,0-.4-.9h0a6,6,0,0,0-1.2-1.2h0a14.5,14.5,0,0,0-2.5-1.5h-.2l-14-6.2,9.9-7.5.3-.2h0l.7-.6h0a9,9,0,0,0,1.5-1.6h0a1.7,1.7,0,0,0,.3-.7h0a3.2,3.2,0,0,0-.7-2.1h0a2.1,2.1,0,0,0-1.7-.8h0a7.9,7.9,0,0,0-3.8,1.5h-.1L392,345.4Z" transform="translate(-298.5 -141.6)" fill="#fff"/><path d="M380,198a267.4,267.4,0,0,0,20-24.6A267.4,267.4,0,0,0,420,198c13.7,15.1,35.5,35.4,62.8,49.1A285.6,285.6,0,0,1,400,259.3a285.6,285.6,0,0,1-82.7-12.2C344.6,233.4,366.3,213.1,380,198Z" transform="translate(-298.5 -141.6)" fill="#fff"/><path d="M318.5,309.2c-1.1-9.3-1.9-19.9-2.4-32.5A288.1,288.1,0,0,0,400,289.3a288.2,288.2,0,0,0,83.9-12.5c-.2,6.6-.6,12.6-1,18.2a37.6,37.6,0,0,1-6.9.8,13.6,13.6,0,0,1-7.8-2l-2.6-1.5a7.1,7.1,0,0,0-3.3-.8c-2.6,0-4.8,1.1-7.1,2.1a17.9,17.9,0,0,1-7.2,1.9,12.4,12.4,0,0,1-3.7-.6,13.9,13.9,0,0,0-4.2-.7,24.6,24.6,0,0,0-7.3,1.7,23,23,0,0,1-6.7,1.5,13.3,13.3,0,0,1-5.4-1.2,15.9,15.9,0,0,0-6.3-1.4,16.7,16.7,0,0,0-6.4,1.2,10.2,10.2,0,0,1-3.4,1.1,15.8,15.8,0,0,1-5.4-.9,18.5,18.5,0,0,0-6.2-1,13.8,13.8,0,0,0-5.8,1.3,4.1,4.1,0,0,1-1.7.7c-1.3.1-3.3-.1-4.9.1a9.7,9.7,0,0,0-4.6,2c-.8.7-1.5,1.6-1.9,4.1a45.7,45.7,0,0,0-.4,6.6c0,7-4.1,8.5-4.1,8.5s-12.1,24.2-41,35.7l-.3-.8A206.5,206.5,0,0,1,318.5,309.2Z" transform="translate(-298.5 -141.6)" fill="#5085bc"/><path d="M480.5,301.5c-1.3,0-1.9.8-2.3.8-2.3,0-1.9-2.9-4.1-2.9s-1.2,6.1-6.5,6.1c-1.3,0-2.4,0-2.4-1.6-4.6,1-7.6-1.1-10.1-1.1s-3.3,1.5-3.9,4.4c-3.5-1-4.8-3.8-6.4-3.8s-2.2.8-5.9.8-5.4-1.6-7.9-.9c0,0-1-3-2.2-3s-3,2.2-3.3,3.4.5,2.6-2.8,2.6c-10.1,0-13.7-3.8-18.4.9,0,0-1.1-2.4-5.4-2.4-2.4,0-2.4.3-4.3.3s-3.3-1.4-4.8-1.4c-3.7,0-7.6,7.8-9.9,7.8-.8,0-1.4-1-1.4-1s-1.5,1.4-1.5-.3c0-4.1,2.7-4,2.7-4.8,0-2.4-2.4-3.2-1.3-5.1s2.1-.1,2.9-.3a9.4,9.4,0,0,1,2.3-.3,17.9,17.9,0,0,0,4.5-1,11.6,11.6,0,0,1,4.9-.7,25.1,25.1,0,0,1,6.5.5,13,13,0,0,0,5.1.7,17.8,17.8,0,0,0,5.3-1.2,11.6,11.6,0,0,1,10.1.2,15.4,15.4,0,0,0,6.2,1.5c2.5,0,5-1,7.4-1.8a21.1,21.1,0,0,1,6.6-1.2,11.7,11.7,0,0,1,3.5.3,14.6,14.6,0,0,0,4.4.7,20.1,20.1,0,0,0,8.1-2.1,14.8,14.8,0,0,1,6.2-1.3c.9,0,1.1-.4,1.8,0s5.1,3.8,11.9,3.8a38.6,38.6,0,0,0,6.8-.7q-.2,2.6-.5,5.1A2.2,2.2,0,0,0,480.5,301.5Z" transform="translate(-298.5 -141.6)" fill="#fff"/><path d="M380.3,313.4h.6c-.4,3.1-4.4,6.4-7.7,10.5C377.7,317.4,379.4,313.4,380.3,313.4Z" transform="translate(-298.5 -141.6)" fill="#fff"/><path d="M400,438.3c-18.5-11.8-32.9-23.8-44-36.6a140.1,140.1,0,0,1-9.2-11.7,228.5,228.5,0,0,0,47.5,6.5v8.9a5.1,5.1,0,0,0,8.6,3.7,5.1,5.1,0,0,0,9.4-2.7V396a202.5,202.5,0,0,0,42.4-8.3,139.4,139.4,0,0,1-10.7,14C432.9,414.5,418.5,426.5,400,438.3Z" transform="translate(-298.5 -141.6)" fill="#237d26"/><path d="M471.6,353.1a147.2,147.2,0,0,1-14.7,31.3,200.9,200.9,0,0,1-44.5,9.1V380.7l-9.5-20.6,3.8,1.7,2.2.9a13,13,0,0,0,3.8.9,5.1,5.1,0,0,0,5.1-5.1,4.1,4.1,0,0,0-1-2.5,14,14,0,0,0-4.6-3.2l-4.3-1.9.9-1.3.9-1.7,6.2,6.6s.9,1,2,1.9l1.8,1.4a4.2,4.2,0,0,0,2.1.7,9.1,9.1,0,0,0,2.9-.6,3.4,3.4,0,0,0,1.4.4,11,11,0,0,0,4.1-1.1l2-1,12.5-7.5a17.2,17.2,0,0,0,2.1-1.5,9.6,9.6,0,0,0,1.5-1.6,3.7,3.7,0,0,0,.8-2.2,5.1,5.1,0,0,0-5.1-5.1,8,8,0,0,0-2.6.5,5.1,5.1,0,0,0-1.8-.3,10.7,10.7,0,0,0-4.1,1.1l-2.1,1.1-7.8,4.6-9.7-10.3,1-1.9h.6A10.6,10.6,0,1,0,407,321.8a10.6,10.6,0,0,0-15.6,14.1c-1.8.5-4.2,1.4-6.6,2.3a36,36,0,0,0-6.5,3.3,10.9,10.9,0,0,0-2.3,2.1,4.2,4.2,0,0,0-1,2.6,6.6,6.6,0,0,0,2,4.3,24.9,24.9,0,0,0,5.8,4.3l-6.1,8.6-11.5-12.5a10.3,10.3,0,0,0-1.3-1.2,5.4,5.4,0,0,0-3.1-1.2,5.1,5.1,0,0,0-5.1,5.1,6.6,6.6,0,0,0,.1,1.2,5.1,5.1,0,0,0-5.1,5.1,7.6,7.6,0,0,0,1.9,4.7l15.6,17a25.5,25.5,0,0,0,2,1.9l1.8,1.4a4.3,4.3,0,0,0,2.2.7,6.8,6.8,0,0,0,4.3-2.1,15,15,0,0,0,1.5-1.6,4.1,4.1,0,0,0,2,.7,6.8,6.8,0,0,0,4.3-2.1,14.7,14.7,0,0,0,1.8-2l1.5-2.1,4.6,9.9v7.7a225.7,225.7,0,0,1-35-3.8c-5.2-1-9.4-2-12.3-2.7l-2.3-.6a139.5,139.5,0,0,1-8.3-14.5c1.6-1.1,5.7-4,5.7-5.2s-.5-.5-1.2-.5-2.6,3.3-5.4,3.9l-1.2-2.6c2.1-1.3,10.1-6.1,10.1-7.4a.6.6,0,0,0-.7-.6c-1,0-7.5,4.7-10,6.6l-1.1-2.5c6.3-3.3,13.1-8.5,13.1-9.8a.7.7,0,0,0-.7-.7c-.8,0-2.3,3-13.1,8.8l-1.9-4.9c22.5-11.1,37.3-29.4,43.7-38.6,0-.8,2-3.5,3-4.8-4.1,10.7-19.5,25.6-19.5,26.3a.8.8,0,0,0,.8.8c.9,0,7.9-6.7,12.6-13.7l.7-.9a19,19,0,0,0-1.9,3.5c3.8-.7,12.4-14.4,14.7-16.6a9.6,9.6,0,0,0,.5-2,19.9,19.9,0,0,1,3.2-3.5c-4.8,9.5-13.2,19-17.8,23.6s-8.5,6.4-8.5,7.7a.7.7,0,0,0,.6.8c2.6,0,9.1-6,15-13.4s11.5-15.4,13.2-19.5h.6c1.1,0,2.1.9,3,1.4-3.5,7.5-15.4,20.5-13.9,20.5s6.7-6.7,9.3-10.3c4-5.5,6.9-10.5,8.4-10.5s3.6,2.4,6.4,2.4h1.2c0,2.2-3.1,2.9-3.1,4.2s.6.7,1.4.7c2.9,0,4.8-4.6,6.5-6.5a13.5,13.5,0,0,1,3.6-.4c2.5,0,3.5.3,7.9.3s5.1-1.6,7.5-1.6,1.4.3,3.1.3,3.3-.3,7.4-.3l4,.2c-2,3-10.8,15.9-10.1,16.6s10.1-12.9,12.1-16.2c3.3,1,3.5,2.7,7.4,2.8-1.3,6.1-7.8,13.1-7.8,14s.5.7,1,.7c3.2,0,7.6-11.5,9.8-13.7a4.1,4.1,0,0,1,.6-2c1.9-1.3,4.3-1.6,7.9-1.6-6,11.3-11.6,16.1-11.6,17.1s.5.8,1.2.8,5.4-5.7,8.6-10.7,3.1-7.2,7.8-7.2,4.3-1.3,5-1.3a36.5,36.5,0,0,0,6.3,1.1l-.2,1.7A206.5,206.5,0,0,1,471.6,353.1Z" transform="translate(-298.5 -141.6)" fill="#fff"/><path d="M484,274.1a285.6,285.6,0,0,1-84,12.6,285.6,285.6,0,0,1-84-12.6c-.2-7.5-.4-15.8-.4-24.9A288.2,288.2,0,0,0,400,261.8a288.2,288.2,0,0,0,84.4-12.6C484.3,258.4,484.2,266.6,484,274.1Z" transform="translate(-298.5 -141.6)" fill="#fff"/><path d="M426.8,387c8.9-6.5,14.9-15.8,19.8-26.3-6.6,8.4-13.9,16.2-20.2,25C426.4,386.4,426.7,386.6,426.8,387Z" transform="translate(-298.5 -141.6)"/><path d="M437.4,383.6c3.3-2.3,6.5-4.6,7.9-8.9C442.1,377.1,438.9,379.5,437.4,383.6Z" transform="translate(-298.5 -141.6)"/><path d="M462.7,351.8c1.6,0,6.3-7.4,8.6-12a54.8,54.8,0,0,0,4.7-13.7c-3.8,4.5-6.2,12.2-9.9,18.5C464.6,347.2,461.6,351.8,462.7,351.8Z" transform="translate(-298.5 -141.6)"/><path d="M462.7,345.3c2.9-.7,9.8-17.4,13.7-26.7,1.1-2.8,4.7-8.5,2.7-8.5s-3.3,5.4-4.4,8.2C471.1,326.9,462,344.6,462.7,345.3Z" transform="translate(-298.5 -141.6)"/><path d="M474.7,308.7c-1.8,0-2.4,5.3-3.4,7.9-1.9,4.8-5.1,9.9-7.9,14.7s-5.5,9.2-4.4,9.2,4.4-5.7,7.3-10.3a63.1,63.1,0,0,0,6.8-13.7C473.8,314.1,475.3,308.7,474.7,308.7Z" transform="translate(-298.5 -141.6)"/><path d="M393.6,315.1c-2.2,3.4-9,11.1-7.4,11.1s4.9-4.8,6.8-7.5c.9-1.2,2.1-3.2,3.2-5s2.6-2.7,1.9-4.2S395.7,311.8,393.6,315.1Z" transform="translate(-298.5 -141.6)"/><path d="M460.9,308.8a2.8,2.8,0,0,1,1.2.3c-11.4,18.3-17.1,22.3-17.1,22.3S447.2,326.9,460.9,308.8Z" transform="translate(-298.5 -141.6)"/><path d="M384.7,302.2a.7.7,0,0,0-.7-.4.6.6,0,0,0-.6.6c0,.4.3.4.6.4l.3.2c.1.2.3.2.4.1A1.8,1.8,0,0,0,384.7,302.2Z" transform="translate(-298.5 -141.6)"/><path d="M446.3,309.1c1,0,.5,1.4-1.2,4s-4.5,9.3-8,11.1c-.6-2.6,4-7.1,5.3-9.5S445.2,309.1,446.3,309.1Z" transform="translate(-298.5 -141.6)"/><path d="M382.6,302.4c0-.2-.2-.5-.2-.7s.2-.3.2-.5-1.4-.5-1.8-.1a2.2,2.2,0,0,0-.2,2.8,1,1,0,0,0,1.8-.1A2.1,2.1,0,0,0,382.6,302.4Z" transform="translate(-298.5 -141.6)"/><path d="M342.3,273.3l-4.8-14.5-3.3-.8,6.1,18.5,4,.8,6.1-16-3.3-.6Z" transform="translate(-298.5 -141.6)"/><path d="M327.9,263.4l-5.7-1.5V255l-3.2-.9v17.1l3.2.9v-6.9l5.7,1.5v6.9l3.3.8V257.4l-3.3-.8Z" transform="translate(-298.5 -141.6)"/><path d="M477.7,255v17.1l3.2-.9V254.1Z" transform="translate(-298.5 -141.6)"/><path d="M386.3,265.4v17.1h3.3v-6.9l5.8.2v6.9h3.3V265.7Zm3.3,7v-3.6l5.8.2v3.6Z" transform="translate(-298.5 -141.6)"/><path d="M353.5,262v17.1l11,1.6v-3.3l-7.7-1.1v-3.6l6.5.9v-3.3l-6.5-.9v-3.6l7.7,1.1v-3.3Z" transform="translate(-298.5 -141.6)"/><path d="M423,264.8v17.1l11-1.1v-3.3l-7.7.8v-3.6l6.5-.7v-3.3l-6.5.7v-3.6l7.7-.8v-3.3Z" transform="translate(-298.5 -141.6)"/><path d="M403.9,265.7v17.1l12.9-.5V272.2l-6.3.3v3.3h3v3.6l-6.2.2V269l9.6-.4v-3.3Z" transform="translate(-298.5 -141.6)"/><path d="M458,259.8v6.9l-3.2.6v3.3l3.2-.6v6.9q6.4-1.3,12.7-2.9V256.9Q464.4,258.5,458,259.8Zm9.4,11.7-6.1,1.4v-3.6l3.2-.7v-3.3l-3.2.7v-3.6l6.1-1.4Z" transform="translate(-298.5 -141.6)"/><path d="M368.7,264v17.1l3.3.3v-3.9l3-1.4,2,5.7,3.3.2-2.5-7.3,3.3-1.6v-8.2Zm3.3,9.5v-5.8l5.8.5v2.6Z" transform="translate(-298.5 -141.6)"/><path d="M439.9,263v17.1l3.3-.5v-3.9l3-2.1,2,5.2,3.3-.6-2.5-6.6,3.3-2.4V261Zm3.3,8.6v-5.8l5.7-.9v2.6Z" transform="translate(-298.5 -141.6)"/><path d="M394.3,219.7V199.3l5.7,4.8,5.7-4.8v20.4c1.5,1.7,3.2,3.6,5.2,5.7v-29l-3.9-4.6-7,5.9-7-5.9-3.9,4.6v29C391.1,223.3,392.9,221.4,394.3,219.7Z" transform="translate(-298.5 -141.6)"/><path d="M434,244.5l5.2,3.3v-5.6l3.2-1,2.5,9.9,6.8,3.5L448,239.5l4-1.3v-3.5c-6.5-4.8-12.6-9.8-18-14.7Zm5.2-14.4,6.5,5.2-6.5,2.1Z" transform="translate(-298.5 -141.6)"/><path d="M353.5,251.9v-8.3l7.3-5.5v9.7l5.2-3.3V220l-5.2,4.6v7.8l-7.3,5.7v-7.5l-5.2,4v20Z" transform="translate(-298.5 -141.6)"/><path d="M373.5,239.2l1.4-10.3,5.6-5.3,2.5,7.6,4.4-4.2-7.1-21.1c-2.7,2.8-5.6,5.8-8.8,8.8l-4,28.7Zm3.6-25.9,2.3,6.7-3.7,3.5Z" transform="translate(-298.5 -141.6)"/><path d="M416.9,231.2l2.5-7.6,5.6,5.3,1.4,10.3,5.8,4.2-4-28.7c-3.1-3-6.1-6-8.8-8.8L412.5,227Zm6-17.9,1.4,10.2-3.7-3.5Z" transform="translate(-298.5 -141.6)"/></svg>