<svg xmlns="http://www.w3.org/2000/svg" viewBox="0 0 689.3 801.9"><title>hamrarnir</title><ellipse cx="345.9" cy="379.3" rx="318" ry="213" fill="#ff0"/><polygon points="234.7 536.3 385 266.9 324 230.3 360.7 48.9 394.7 35.6 663.9 183.6 582.7 332.3 539.3 346.3 446 300.9 299 573.6 234.7 536.3" fill="#fff"/><polygon points="41.3 192.3 70.7 147.6 337.3 7.6 417.3 151.6 386 196.3 298.7 242.3 457.3 538.9 393.3 573.6 234.7 276.3 118 338.9 41.3 192.3" fill="#fff"/><path d="M767.1,408.5c-.9-52-17.2-106.2-42.3-151l28-51.2L478.4,54.9,446.2,66.1,424.4,24.7,150.7,169.5l-32.4,46.6,15.8,30.1c-22.5,34-40.4,78.4-46.9,118.2-10.7,65.2-1.7,127.7,28.6,186.2,27,52.4,66.2,93.9,116.3,125.9,46.7,29.7,97,46.7,151.1,53.7,45.8,5.9,90.8,1.2,135.3-9.9,63.2-15.8,117.4-47.7,162.2-94.3C738.7,565.6,768.6,493.6,767.1,408.5ZM730.6,227.3,661.8,353.2l-36,10.5,74.1-135.6,37.4-12.9ZM502.2,552,461,555.8l-1.4-2.6v-.5l31.9-17.3L452.1,539l-1.5-2.8,29.1-16.3c-13.8-.8-25,5.5-37.2,1.1l-1.3-2.5,26-14a8.8,8.8,0,0,1-.5-1.5L434,505l-2.2-4.2,23.8-13c-11.6.6-20.9,1-29.9,1.4l-2.1-4,15.8-9.1c-.9-.8-1.6-1.6-1.9-1.5-9.9,3.2-16.4,1.3-21.5-3.7L325.3,301.1l7.1-3.6c11,18.1,21.7,35.8,32.4,53.7l1.6-.7c-8-19.1-16.1-38.2-24.6-58.2l37-19.6,152.5,286-14,10.6-46.7,4.3-1.1-2.1c0-.3,0-.5,0-.8L503,553.4C502.7,553,502.5,552.4,502.2,552Zm-167.1-8.4,2.2-1.9,33.9,18.8a7.8,7.8,0,0,0,.5-1.4l-26.5-33.2,2.2-2.3c9.7,5.3,19.6,10.5,31.4,17l-24.7-31.5.6-1.2,1.4-1.1L386,522.6l-22.9-29.9,1.6-2.9.6-.5c9.5,5,18.8,10.1,28.3,15.2-5.8-10.2-15.4-17.6-20.1-30.6l1.4-2.6L398.7,485c-5.2-10.8-15.6-16.1-16.5-26.9l.9-1.5c10.7,2.9,17.1,9.1,22.1,16.4l17.1,32.2a20.2,20.2,0,0,1,.3,5.1l-43.8,79.5-15-3.7a59.7,59.7,0,0,1-27-14.9l-10.1-9.7L363.4,582l.8-1.5ZM388,267.9l14.8-7.8,58.7,32.4-30.7,55.8Zm48.7,91.3,34-61.7,53,29.2-53,96.3Zm-24-103.5,59.9-32.6,32.1-46-40.5-76.8L690.9,225.3,615.1,364.1ZM479.1,66.7,733.3,207l-33.8,11.7L455.7,84.2l-4.2-7.9ZM451.9,96l43.6,82.5-26.4,37.9-50.8-95.6L396.5,78.7l26.3-38.1ZM157.7,175.7,406.1,44.2,384.7,75.1,136.2,206.6Zm231-92.9,72.6,137.7L202.7,357.5,129.8,219.7ZM615.4,550.1c-65.4,47.2-139.9,63.8-220,57.1-62.1-5.3-118.5-25-168.2-63.2-43.5-33.5-73.6-75.8-84.6-130.2-8.1-40.3-2.1-80.4,16.5-120.3l39.4,74.7,117.6-61.8,22.8,41.7,45.3,85.1-70.7,128a4.5,4.5,0,0,0,.9,5.5l17.2,15.9a60.5,60.5,0,0,0,25.5,14.1l19.6,5.2a8.4,8.4,0,0,0,9.5-4L429.6,519l43.6,81.8a4,4,0,0,0,5,1.8l30.7-12a59.5,59.5,0,0,0,13.5-7.4l21.8-15.9a3.5,3.5,0,0,0,1-4.5l-68.8-129,56.3-102.2,84.8,46.8,50.5-17.5,31-56.7c3.6,16.8,9.7,36.9,11.2,53.7C718.5,441.5,680.8,502.9,615.4,550.1Z" transform="translate(-82.9 -24.7)"/><path d="M373.2,687l-.6,10.3q-20.9-1.4-41.7-3.6a26.2,26.2,0,0,1,5.2-10.6c2.6-3.2,7.5-7.4,14.4-12.5s9-7.1,10.3-8.6a11.8,11.8,0,0,0,2.9-6.6,7.9,7.9,0,0,0-12.8-6.7q-2.3,1.9-3.1,6.7l-11.2-2.2c1.3-6,3.9-10.1,7.6-12.4a21.6,21.6,0,0,1,13.4-2.8c5.7.5,10.1,2.3,13.2,5.6a15.2,15.2,0,0,1,4.2,11.8,19.4,19.4,0,0,1-1.9,7.3,29.2,29.2,0,0,1-5.1,7.1,66.4,66.4,0,0,1-8.1,6.8c-3.9,2.9-6.4,4.8-7.5,5.8a19.7,19.7,0,0,0-2.7,2.9c9.5.8,14.1,1.1,23.5,1.7" transform="translate(-82.9 -24.7)" fill="#fff"/><path d="M402.3,640.4c5.6.2,10,2.2,13.1,6.3s5.6,12.7,5.6,23.6-2.1,18.8-6.2,23.6-8.1,5.8-14.2,5.6a17.9,17.9,0,0,1-14.4-7c-3.5-4.5-4.9-12.3-4.3-23.4s2.9-18.6,7-23.2,7.8-5.6,13.4-5.5m-.3,9.2a5.7,5.7,0,0,0-3.7,1.2,8.7,8.7,0,0,0-2.6,4.5c-.9,2.8-1.5,7.7-1.7,14.4s-.1,11.5.6,14,1.5,4.3,2.6,5.2a6.3,6.3,0,0,0,7.6.2,8.5,8.5,0,0,0,2.7-4.5q1.3-4.2,1.5-14.4t-.8-14q-1-3.8-2.5-5.2a5.6,5.6,0,0,0-3.7-1.4" transform="translate(-82.9 -24.7)" fill="#fff"/><path d="M447.5,640.4c5.6-.2,10.1,1.7,13.4,5.5s6.3,12.3,6.9,23.3-1,18.9-4.9,23.9-7.8,6.3-13.8,6.4a17.9,17.9,0,0,1-14.7-6.2c-3.7-4.3-5.6-12-5.6-23.1s1.9-18.8,5.6-23.6,7.4-6,13.1-6.2m.3,9.2a5.7,5.7,0,0,0-3.6,1.4,8.7,8.7,0,0,0-2.4,4.7c-.7,2.9-1,7.7-.9,14.5s.6,11.5,1.4,14,1.7,4.2,2.9,5a6.3,6.3,0,0,0,7.6-.2,8.5,8.5,0,0,0,2.4-4.7q1-4.3.7-14.5t-1.6-14q-1.2-3.8-2.8-5a5.6,5.6,0,0,0-3.8-1.2" transform="translate(-82.9 -24.7)" fill="#fff"/><path d="M476.5,682.4l11.6-1.9a9.2,9.2,0,0,0,3.4,5.7,8.3,8.3,0,0,0,5.9,1.7,8.1,8.1,0,0,0,6-3.4q2.3-3,1.7-8.7t-3.2-7.7a8.5,8.5,0,0,0-6.7-2.1,12.1,12.1,0,0,0-8.6,4.9l-9.5-.7q2-15.2,3.8-30.5c9.8-.7,19.6-1.5,29.3-2.6l1.1,10.3c-8.5.9-12.7,1.3-21.2,2l-1,9.9a18,18,0,0,1,7.6-2.5,17.8,17.8,0,0,1,13.4,4.1,19,19,0,0,1,6.8,13.3,19.9,19.9,0,0,1-3,13.2c-3.5,5.5-8.8,8.6-16,9.2s-10.5-.6-14.3-3.2A17.2,17.2,0,0,1,476.5,682.4Z" transform="translate(-82.9 -24.7)" fill="#fff"/><path d="M165.5,642.7l-19.6,20.7,21.4,20.3,19.6-20.7,13,12.3-51.1,53.7-13-12.3,21.4-22.5L135.8,674l-21.4,22.5-13.1-12.4,51.1-53.7Z" transform="translate(-82.9 -24.7)"/><path d="M199.2,740.8l-14.6,13.4-15.9-9.6,58.9-51.1,20.2,12.1-17,76.2-16.6-9.9,4.5-19.5Zm23.7-.4,3.8-16c1.1-4.5,2.7-9.9,3.9-14.3h-.2c-3.3,3.2-7.2,7.4-10.5,10.4l-12.1,11.1Z" transform="translate(-82.9 -24.7)"/><path d="M327.4,786.1c2.3-8.6,5.1-19,8.3-29.3h-.3c-5.2,8.3-11.4,17.4-16.9,24.8l-17.8,24.8-13.4-4.1.4-29.9c.1-9.1.6-20,1.7-29.8h-.2c-3.4,9.4-7.1,20.3-10.4,28.9l-9.7,26.5-15.9-4.9L280,723.6l22.8,7v25.9c-.2,8.9-.5,18.5-1.4,27.3h.3c4.7-7.5,10.1-16.1,15-23.2l15.4-21,22.4,6.9-17.7,72.1-16.8-5.2Z" transform="translate(-82.9 -24.7)"/><path d="M371.4,749.3a168.6,168.6,0,0,1,23.9.2c11.7.8,19.8,3.1,25.2,7.6s6.7,9.2,6.2,16c-.7,9.4-8.3,15.4-15.3,17.2v.3c5.4,2.5,8.1,7.6,9.6,14.6,1.9,8.5,3.6,18.3,5,21.3l-18.3-1.3c-1.1-2.2-2.6-8.3-4.3-17.6s-4.7-12.1-11.9-12.8l-5.4-.4-2.1,29.1-17.7-1.3Zm15.5,33.1,7,.5c8.9.6,14.5-3.2,15-9.6s-4.2-10.6-12.4-11.3a47.8,47.8,0,0,0-8.1,0Z" transform="translate(-82.9 -24.7)"/><path d="M466.9,804.4,463.7,824l-18.4,2.4,14.6-76.6,23.3-3,33.8,70.4-19.1,2.5-8.5-18.1Zm18.4-15-6.9-15c-2-4.2-4.1-9.5-5.8-13.7h-.2c-.6,4.5-1.1,10.2-1.8,14.6l-2.7,16.2Z" transform="translate(-82.9 -24.7)"/><path d="M517.5,741.5a168.4,168.4,0,0,1,22.1-9.2c11.1-3.8,19.5-4.9,26.2-2.7s9.7,5.9,11.9,12.3c3,9-1.7,17.4-7.4,21.8v.3c5.9.2,10.4,3.9,14.5,9.7s10.5,15.5,12.9,17.7l-17.4,5.9c-1.9-1.6-5.6-6.7-10.8-14.6s-9-9.4-16-7.1l-5.1,1.7,9.4,27.6-16.8,5.7ZM544.6,766l6.7-2.3c8.5-2.9,12.1-8.5,10-14.7s-8-8.1-15.8-5.5a47.8,47.8,0,0,0-7.5,3.1Z" transform="translate(-82.9 -24.7)"/><path d="M620,781.2l-37.8-63.8,18-10.7,28,15A209,209,0,0,1,652.4,737l.3-.2A257.3,257.3,0,0,1,635.6,711l-11.1-18.6,14.2-8.4,37.8,63.8-16.2,9.6-29.2-16A268.3,268.3,0,0,1,606,725.9l-.2.3c5.4,8.2,10.9,17,17.1,27.5l11.4,19.2Z" transform="translate(-82.9 -24.7)"/><path d="M664.4,661.6,712,718.5,698.2,730l-47.6-56.8Z" transform="translate(-82.9 -24.7)"/><path d="M677.7,652a168.3,168.3,0,0,1,14.7-18.9c7.8-8.8,14.5-13.9,21.3-15.4s11.3.3,16.5,4.8c7.1,6.3,7.2,15.9,4.4,22.6l.2.2c5.2-2.8,11-1.8,17.4,1.2s16.8,8.2,20,9L760,669.2c-2.4-.4-8.2-3-16.6-7.3s-12.5-3.6-17.4,1.8l-3.6,4.1,21.9,19.3-11.8,13.3Zm35.7,7.8,4.7-5.3c5.9-6.7,6.3-13.4,1.4-17.7s-10.9-3.1-16.5,3a47.8,47.8,0,0,0-5,6.5Z" transform="translate(-82.9 -24.7)"/></svg>