<svg xmlns="http://www.w3.org/2000/svg" viewBox="0 0 675.1 795.1"><title>hrunamenn</title><path d="M734.2,221.7c-1.8-18.7-4.5-37.3-6.7-55.7-9.8-1.9-18.8-3.2-27.6-5.4-20.5-5.3-65.5-18.3-67.6-19C576.5,122.2,432.1,120.5,411.7,95c-7.6,8.1-219.1,37.3-247.5,48.9h0c-2.4.6-55.3,14.7-79.7,19.9-7.6,1.6-9.8,4.3-10.8,11.4-7.8,56.4-11.5,113.1-9.4,170.1,2.5,68.2,11.3,135.4,33.6,200.2,31.7,92.3,88.7,164.8,173.6,213.6,81.8,47,165.9,49.4,249.7,5.3,74.7-39.2,128.9-98.7,165.2-174.3,30.9-64.1,43.3-133,49.3-203.3A901.5,901.5,0,0,0,734.2,221.7Z" transform="translate(-63.7 -0.9)" fill="#069352"/><path d="M164.2,143.9c28.4-11.6,57.3-22.1,85.1-35,47.3-21.9,91.9-48.4,130-84.6C386.9,17,393.9,9,401.5.9c20.4,25.5,45.5,45.8,72.6,63.9,49.2,32.7,102.4,57.4,158.2,76.8,2.1.7,4.2,1.1,6.2,1.9.2,2.2.2,5,.4,7.2,2.9,24.1,7.2,48.1,8.5,72.2,1.5,28,.8,56.1.2,84.1a255.4,255.4,0,0,1-4.2,42.8c-5.8,29.6-11.6,59.4-19.8,88.4-10.7,37.9-28.1,72.9-50.1,105.6-20.1,29.8-44.9,55.2-72.2,78.2-21.5,18.2-43.8,35.3-70.8,44.7-11.6,4.1-23.2,10.3-35.9,6.8A239.7,239.7,0,0,1,356,659.7c-25.7-12.1-46.8-30.7-68-49.2-40.6-35.4-71.2-78-92.7-127-28.3-64.4-40.6-132.4-41.5-202.4-.4-28.9,1.8-57.8,3.8-86.7,1.2-16.9,4.3-33.6,6.6-50.5" transform="translate(-63.7 -0.9)" fill="#012e86"/><path d="M332.2,152.6V327.3H469.8V152.2c2.4,1.2,4.1,1.8,5.7,2.8,29.8,17.9,59.5,35.9,89.3,53.6,3.7,2.2,5.1,4.5,5.1,8.8q-.1,131.5-.2,263.1a11.7,11.7,0,0,1-3.2,7.9c-30.9,27.9-62,55.5-93.1,83.2-.6.6-1.4,1-3,2.2V395.3H332.5v179l-5.8-4.9c-29.9-26.7-59.9-53.2-89.6-80.1a15.2,15.2,0,0,1-4.3-10.1q-.3-130.9,0-261.8c0-2.6,1.3-6.4,3.3-7.6,30.8-18.8,61.7-37.3,92.6-55.9a24.3,24.3,0,0,0,3.5-1.3" transform="translate(-63.7 -0.9)" fill="#fefefe"/><path d="M129.2,461c-1.8-3.2-3.3-6.6-5.6-9.4-8.2-10.1-16.7-19.9-24.9-30-1.5-1.8-2.2-4.3-2.8-6.6-7.1-29.5-14.2-59.1-21.2-88.6a61.7,61.7,0,0,1-.8-6.2l1.8-.5c.7,2,1.6,4,2.2,6.1,5.4,20.3,10.3,40.7,16.2,60.8,1.7,5.7,5.9,10.8,9.7,15.5,5,6.2,10.7,11.7,16.1,17.5l1.5.6c0-.5-.1-1.1-.1-1.6-2.5-3.7-4.3-8.3-7.7-11.1-11.3-9.2-17.1-20.8-18.9-35.1-1.3-10-4.4-19.7-6.4-29.6q-5.4-27.3-10.5-54.6c-.2-1.2.3-2.5,1.8-4.2.8,2.4,2,4.8,2.2,7.3,1.7,21.6,7.5,42.2,14.5,62.5a23.3,23.3,0,0,0,3.8,6.9c5.4,6.9,11,13.6,17.5,21.7-3.1-6.3-5.1-11.8-8.2-16.4-10.9-16.2-18.7-32.8-18.9-53.4-.1-15.2-5.7-30.3-7.8-45.6-1.2-8.9-.2-18,1-27,1.1,11.5,1.9,23,3.3,34.5,1.9,15.6,4.5,30.5,16.1,43.2,5.9,6.5,7.4,17,10.5,24.7,1.6-10.2-2.4-20.4-9.7-28.6-8.7-9.8-11.7-20.3-11.6-33.3.1-18.5-1.9-37-3-55.5-.1-2.5,0-5,0-7.5l2-.4c.8,2.4,2,4.8,2.3,7.4,2.2,15.5,4,31.1,6.5,46.7a28.3,28.3,0,0,0,4.7,11.5,43.9,43.9,0,0,1,7.9,25.5,83.9,83.9,0,0,0,2.5,18.4c3.6-10.6,8.1-20.4,7.6-32.5-.9-20.7.9-41.6,1.6-62.3.1-1.4,1.1-2.7,3.3-4.1a42.7,42.7,0,0,1,.7,7.1c-.4,18.1-1,36.3-1.3,54.4-.1,5,.1,10.3,1.7,15,6.3,18.9,3.7,37-3.7,54.9-1.4,3.5-3.2,6.9-4.2,10.5s-.6,6.5-.9,9.8l2.1.3c.9-2.6,1.7-5.2,2.6-7.7,8.3-23.6,12.7-47.6,11.7-72.8-.6-14.6,1.7-29.4,2.7-44.1H142c0,3.8.2,7.7,0,11.5-1.1,20.6-2.4,41.1-3.3,61.7-.3,6.6,1.1,13.3.6,19.9-.8,10.7-1.8,21.5-4,31.9s-6.4,18.4-8.6,27.8c-1.1,4.7.2,9.9,1.9,14.9-1.7-15.7,6.8-28.4,11-42.3,2.4-8,2.2-16.9,2.4-25.4.4-17.5.1-34.9.2-52.4a52.8,52.8,0,0,1,.9-6.8H145c0,4.4-.1,8.8,0,13.3.3,17.4.7,34.9,1,52.3s1.5,35.1.3,52.6c-.5,7.9-5.1,15.9-9.2,23.1-6,10.4-2.5,19.8.8,29.6-.6-16.6,3.9-31.7,12.3-45.9,1.9-3.2,1.4-8.1,1.2-12.2-.6-15.9-1.5-31.8-2.3-47.7a6,6,0,0,1,1.5-4.5c.3,2,.7,4,1,6,2.9,24.4,5.8,48.7,8.5,73.1,1.8,15.9,1,31.5-7.7,45.6-5,8.1-4.8,15.8-.8,24.4,6.4,13.8,11.6,28.1,21.5,40.2,3.8,4.6,5.3,11.1,8,16.6,5.6,11.4,11.3,22.7,18.5,33.3-3.5-19.8-5.5-40.1-10.8-59.4s-13.7-37.4-20.7-55.9c1.4,1.2,3.7,2.7,5.3,4.8,15.2,19,30.1,38.3,45.6,57.1,9.7,11.7,8.3,25.7,9.9,39.1s2.5,29.6,5.6,44.1c1.8,8.3,5.8,17.1,11.3,23.4,12.1,13.7,26,25.9,38.9,38.8,7,7,13.7,14.4,21.7,21a30.9,30.9,0,0,0-2.4-4.4c-7.9-10.6-16-21.2-23.8-31.9-5.2-7.1-10.3-14.3-15.2-21.6s-10.6-17.3-16.6-25.4c-3.8-5.2-4-9.4-.3-14.3l.4-.5c9.8-14.1,14.2-14.1,25.7-1.8,26.5,28.6,52.8,57.3,80.1,85.1,10.9,11.1,24.3,19.8,36.6,29.6,1.6,1.3,3.4,2.4,4.7,4.3-40.1-13.7-77.6-32.1-109.3-61.4-.5.7-.9,1.4-1.4,2,1.2,1.3,2.3,2.6,3.6,3.9,13.9,14.2,27.5,28.7,41.7,42.5s30.2,22.3,48.5,27.8,35.5,12.3,50.9,23.6c6.3,4.6,6.1,6.3-.7,10.2-9.5,5.4-17.6,5-24.9-2.5-11.7-12.1-26.8-18.9-42.1-22.7-22.3-5.6-39-19.5-56.4-32.5-13.6-10.2-26.1-21.9-39.1-32.9s-27.8-17.6-44.1-21.7c24.3,25.6,39,59.4,69.8,79.2a139.2,139.2,0,0,1,20.3,15.4c-5.9-2.2-12.1-3.9-17.6-6.7-14.4-7.3-28.6-15-42.8-22.7-37.7-21.5-66-52.3-89.1-88.5a117.1,117.1,0,0,0-8.2-10.4c-3.5-4.2-2.9-7.8.6-11.7,8.8-9.8,20.3-10.3,29.9-1.1,8,7.6,15.2,16.5,24.2,22.5,11.7,7.8,25,13.4,37.6,19.9l1.5-2.1c-1.9-1.5-3.6-3.3-5.7-4.4-20.5-10.4-33.7-28.6-46.3-46.5-19.1-27-41.4-49.8-69.4-67.5-23.9-15.1-32.9-39.8-40.4-66.8,11.4,12.5,20.8,24.9,32.4,34.8s25.6,17.2,38.1,25.4c.1.5.3-.5-.1-.9-8.3-8.9-12-20.1-15-31.4-1.5-5.5-4.3-9-9.3-11.2a69.7,69.7,0,0,1-33.7-31.7c-3.2-6-6.2-12.3-7.8-18.8C85.8,416.8,81,394.3,76,371.9a86.5,86.5,0,0,1-.9-8.9l2.4-.6c1,3.5,2.1,7,3,10.6,4.4,17.6,8.8,35.1,13.1,52.7,1.6,6.4,6,10,11.2,13.9,8.5,6.4,15.6,14.7,23.3,22.2l.9,2.1.8-.2a21.4,21.4,0,0,1-.6-2.7" transform="translate(-63.7 -0.9)" fill="#fefefe"/><path d="M580.7,664a42,42,0,0,0-6.2.6c-16.3,5-30.5,13.6-43.7,24.4-20,16.4-40.2,32.6-60.9,48.1-6.7,5-15.2,7.8-22.9,11.3-3,1.3-6.4,1.8-9.6,2.7-5.1,1.5-10.3,4.5-15.1,4s-9.9-4.5-15.6-7.4l19.9-6.6c22.1-7.6,40.7-19.7,55.3-38.4,7-9,16.1-16.3,24.3-24.3,3.4-3.3,6.9-6.5,9.6-10.9-32.2,27.9-69.5,46.1-110.4,61,1.1-1.9,1.3-2.5,1.7-2.7,31-19.1,54.6-46.1,78.9-72.6,15.2-16.7,30.8-33,46.3-49.4,6.4-6.7,8.4-6.6,15.3-.1a52.3,52.3,0,0,1,4.5,4.9c6.5,8.1,6.2,10-.2,18.4-4.8,6.3-8.7,13.2-13.1,19.8-5.8,8.6-11.5,17.2-17.5,25.6-7.6,10.6-15.6,20.9-23.4,31.4a31.1,31.1,0,0,0-2.4,4.5c2.1-1,3-1.1,3.5-1.6,17.4-17.3,34.3-35.1,52.1-51.9,13.4-12.7,17.7-28.6,19.3-45.9,1.4-15.2,2.4-30.4,4.2-45.6.6-5.1,1.7-11,4.7-14.9,17-22.4,34.6-44.3,52-66.3.8-.9,2-1.5,4.4-1.4-1.1,2.4-2.1,4.8-3.4,7.1a190.1,190.1,0,0,0-24.8,79.7c-.8,10.2-3.9,20.3-5.1,30.9,5.8-11.1,11.5-22.1,17.4-33.1s10.9-19.1,15.7-28.9c6.5-13.5,12.8-27.2,18.1-41.2,1.2-3.1-1.2-8.2-3.2-11.6-8.4-14.4-10.7-30-8.9-46.1,2.2-19.1,5.5-38.1,8-57.2.8-6.4.8-12.9,2.6-19.4a14.1,14.1,0,0,1,.9,3.2c-.9,15.8-1.9,31.6-2.6,47.4-.1,3.4.1,7.4,1.8,10.2a75.8,75.8,0,0,1,11.4,45.5c5.1-8.3,5.8-20.4,2.1-28.2s-7.2-13.7-9.6-21c-3-8.9-1.8-18.1-.6-27.5,1.6-12.8,1.2-25.9,1.4-38.9s.2-28.7.2-43.1c0-4.2,0-8.4,1.5-12.8.4,2.3,1.2,4.7,1.2,7,.1,16.9.8,33.7-.1,50.5-.7,13.9,1.1,26.7,7.3,39.2,4.7,9.4,7.3,19.4,4.8,30.2l2.5.2c.6-4.7,2.4-9.6,1.4-14a168.9,168.9,0,0,0-8.1-25.9c-4.4-11-5-22.2-5.1-33.8-.3-25.4-1.3-50.8-2-76.1a88.2,88.2,0,0,1,1.1-18.3c.7,3.5,1.8,7,2,10.6.9,17.4,2.3,34.9,2.2,52.4-.1,21.8,8.2,41.4,13.8,61.7l2.6-.5c-.7-4.2-.9-8.6-2.1-12.6-2.7-9.1-6.8-17.8-8.7-27-2.4-12-2.8-24.1,2.1-35.9a24.8,24.8,0,0,0,1.4-9.8c-.3-18.1-1-36.3-1.4-54.4-.1-3.9.4-7.7.6-11.6l2.3-.3c.6,3,1.7,5.9,1.8,8.9.4,21.7-.1,43.4,1.1,65,.4,8.6,4.1,17,6.4,25.4l2.1-.2c.7-8.3,1.2-16.7,2.3-24.9.6-4.3,1.2-9.3,3.7-12.5,10.1-13.4,10.3-29.3,12.4-44.8,1-7.2,1.7-14.5,2.7-21.7a7.5,7.5,0,0,1,3.6-5.3c.2,2.3.8,4.8.5,7-3.1,21.5-5,43.1-3.3,64.8.7,9.3-4.5,16.2-10.2,23-8,9.6-12.3,20.7-10.6,33.8.9-3.9,1.5-7.9,2.8-11.7,2-5.6,3-12.4,6.9-16.2,13.2-13,14.9-29.6,16.9-46.3,1.3-10.6,2-21.3,3-32h1.8c0,7.5.9,15.2-.2,22.5-2.2,15.1-5.4,30-8.2,45a19.7,19.7,0,0,0-.6,5.9c1.7,20.6-7.9,37.2-18.9,53.3-2.4,3.5-4.3,7.3-6.4,10.9l1.5,1.1a22.6,22.6,0,0,0,2.5-2.8c1.1-1.7,1.6-3.9,2.9-5.1,18.9-17.2,20.3-41.3,25.3-63.9,1.6-7.4,2.4-15,3.6-22.6l2.5.2c0,2.9.4,5.8-.1,8.6-3.4,20-5.2,40.4-13.4,59.4a40.7,40.7,0,0,0-3,15.5c-.5,17-6.9,30.6-20.6,41.1-3.3,2.5-5.1,7.2-6.9,11.2,19.7-14.3,28.9-29.7,36.5-60.4,2.8-11.2,5-22.4,7.6-33.7.5-2,1.2-4,1.8-6l1.9.2a22.6,22.6,0,0,1,0,4.5c-6.1,23.5-12.3,46.9-18.5,70.4a18,18,0,0,0-.8,3.9c-.1,22.8-14.1,37.7-29.1,52.2-3.2,3.1-5.5,7.3-8.2,11l-2.1-2.4c6.7-4.5,13.4-9,20-13.6a54.1,54.1,0,0,0,8.8-7c3.7-3.8,8.7-7.5,10.1-12.2,5.3-18.2,9.4-36.8,14-55.2.8-3,1.8-5.9,2.7-8.9l2.1.4c-.1,2.5.1,5-.4,7.3-4.4,19.6-9.3,39.1-13.4,58.8-2.4,11.6-5.4,22.5-12.1,32.6-7.8,11.8-17.5,21.1-30.3,27-5.8,2.7-8.8,6.9-11.1,13-3.8,10.2-9.1,19.9-13.7,29.9l-1.2,1.5-.8,1.2,1.6-.3,1.4-1.2c10.6-7.2,21.1-14.4,31.8-21.5s19.4-15.2,25.7-26.3a35.5,35.5,0,0,1,9.9-11.1c-.4,2.2-.6,4.4-1.1,6.6a118.9,118.9,0,0,1-24.7,48c-4.4,5.1-10.1,9.3-15.9,12.9-26.7,16.4-47.9,38.1-65.5,64a257.1,257.1,0,0,1-29,35.2c-6.8,6.9-16.1,11.4-25.1,17.4,1.6.1,2.7.5,3.4.2,20.4-7.3,39.8-16.4,53.8-33.7A37.5,37.5,0,0,1,631,611.3c7.8-2,12.3,4,16.4,8.8,1.7,2,2.2,7.3.7,9.2-17.8,22.8-34.7,46.6-54.6,67.3-13.1,13.6-30.4,23.4-46.7,33.6-14.4,9-30,16.1-45.2,23.8a28.8,28.8,0,0,1-11.4,2.6l26.3-19.2c12.9-9.6,23.3-21.5,32.8-34.5s20.6-25.9,31-38.8a3.1,3.1,0,0,0-.1-1l-.4.3a1,1,0,0,1,.9.6" transform="translate(-63.7 -0.9)" fill="#fefefe"/><path d="M398,772.9c-9.1,9.1-20.3,9.4-28.4.9a5.3,5.3,0,0,1-1-4.5c2.6-5.5,10.5-7.7,16-4.7,3.7,2,7.3,4.1,10.9,6.2a23.2,23.2,0,0,1,2.5,2.1" transform="translate(-63.7 -0.9)" fill="#fefefe"/><path d="M129.2,461c.2.9.3,1.9.5,2.8l-.8.2-.9-2.1,1.2-.9" transform="translate(-63.7 -0.9)" fill="#069352"/><path d="M121.3,418.5c0,.5.1,1.1.1,1.6l-1.5-.6,1.4-1" transform="translate(-63.7 -0.9)" fill="#069352"/><path d="M645.1,533.2l1.2-1.5,1.1,1.2-1.4,1.2a3.8,3.8,0,0,1-.9-.9" transform="translate(-63.7 -0.9)" fill="#069352"/><path d="M645.9,534.1l-1.6.3.8-1.2.8.9" transform="translate(-63.7 -0.9)" fill="#069352"/><path d="M580.7,664l-.6-.8.4-.3a3.4,3.4,0,0,0,.1,1h.1" transform="translate(-63.7 -0.9)" fill="#069352"/></svg>