<svg xmlns="http://www.w3.org/2000/svg" viewBox="0 0 437 437"><title>huginn</title><circle cx="218.5" cy="218.5" r="218.5" fill="#f1d627"/><path d="M405.8,219v63.8l-12.1-70.2a201.5,201.5,0,0,0-25.8-10.3V400.7h25.8V286.3l12.1,70.2v46.1c0,20.6-5.8,38.8-26.1,52s-23.9-40.4-23.9-40.4V198.9a202.1,202.1,0,0,0-25.8-4.7v179c0,4.8-11.5,5.5-11.5-.4V291.4H292.6v53.3c0,11.9-11.5,11.5-11.5.6V224.9s.1-4.4,5.7-4.4,5.8,4.9,5.8,4.9v38.3h25.8V216.8c0-4.3-4.3-26.2-33.4-23-26.2,2.9-29.9,19.6-29.9,24.6V388.2c0,6.1-11,6.6-11,1.5V202.3a201.4,201.4,0,0,0-25.8,10.2V384.2c0,9.2-11.5,13.2-11.5,6.6V218.6a203.3,203.3,0,0,0-25.8,17.3V415.2c0,21.4,25.1,101.4,126.9,101.4,97.1,0,123.8-86.5,123.8-107V236.4A202.9,202.9,0,0,0,405.8,219Z" transform="translate(-87.5 -177.5)"/><path d="M303.4,380.9A93.1,93.1,0,1,0,396.5,474,93.1,93.1,0,0,0,303.4,380.9Z" transform="translate(-87.5 -177.5)"/><path d="M303.4,385.3a88.7,88.7,0,0,1,74.9,41.4c-17.7,1.1-45.8,9.9-70.3,30.6-26.2-23.8-57.4-33.9-76.3-35.3A88.6,88.6,0,0,1,303.4,385.3Z" transform="translate(-87.5 -177.5)" fill="#f1d627"/><path d="M214.7,474a88.4,88.4,0,0,1,14-47.7c17.3.4,49.3,9.9,75.9,34-21.6,19.6-39.7,48.9-44.3,91.2A88.8,88.8,0,0,1,214.7,474Z" transform="translate(-87.5 -177.5)" fill="#f1d627"/><path d="M264.5,553.6c4.1-42.2,22.1-71.1,43.4-90.3,20.1,19.4,36.7,47.6,40.5,87a87.7,87.7,0,0,1-83.9,3.3Z" transform="translate(-87.5 -177.5)" fill="#f1d627"/><path d="M352.5,547.8c-4.4-39.4-21-67.7-41.3-87.4,24.9-20.9,53.4-29,69.7-29.4a88.5,88.5,0,0,1-28.4,116.8Z" transform="translate(-87.5 -177.5)" fill="#f1d627"/><path d="M481.5,293.8v48.5l-11.3-65.8a204.3,204.3,0,0,0-25.8-29.2V484.4a163.6,163.6,0,0,0,26-88.8l-.2-9.6V350.1l10.6,61.4c-8.1,89.2-83.5,159.1-174.8,159.1-95,0-172.7-75.8-175.2-170.2h12.4a165,165,0,0,0,25.7,84.3V246.1A204.1,204.1,0,0,0,143,274.8v109H130.6V293.5a202,202,0,0,0-27.5,102.1c0,112.1,90.8,202.9,202.9,202.9s202.9-90.8,202.9-202.9A202,202,0,0,0,481.5,293.8Z" transform="translate(-87.5 -177.5)"/></svg>