<svg xmlns="http://www.w3.org/2000/svg" viewBox="0 0 286.6 348.7"><title>hvot</title><path d="M175,.7c-19.9,23-64.1,49.4-143.3,49.4,0,184.4,5.4,200.5,143.3,299.3C312.9,250.6,318.3,234.4,318.3,50.1,239.1,50.1,194.9,23.7,175,.7Z" transform="translate(-31.7 -0.7)" fill="#253494"/><path d="M175,17.4c12,10.9,32.5,24.9,64.6,34.2L52.5,198.7a268.2,268.2,0,0,1-6.1-39.1c-2.5-27-2.9-60.4-2.9-98C116.4,59.2,156.1,34.4,175,17.4Z" transform="translate(-31.7 -0.7)" fill="red"/><path d="M62.3,226.8A136.8,136.8,0,0,1,56,210.9L254,55.2a285.5,285.5,0,0,0,52.6,6.4c0,15.2-.1,29.7-.4,43.4L95,271.1C79.8,256.1,69.5,242.1,62.3,226.8Z" transform="translate(-31.7 -0.7)" fill="#fff"/><path d="M287.7,226.8c-8.4,17.7-20.7,33.6-40.1,51.4s-41.3,34.2-72.6,56.7c-30.6-22-53.6-39.4-71.4-55.6L305.8,120.2c-.4,14.3-1.1,27.5-2.2,39.4C301,188.4,296.1,209.1,287.7,226.8Z" transform="translate(-31.7 -0.7)" fill="red"/><path d="M106.8,178.6a.6.6,0,0,0-.9-.1l-9,7.1a.6.6,0,0,0-.1.9l14.7,18.6L95.2,217.9,80.6,199.2a.6.6,0,0,0-.9-.1l-9,7.1a.6.6,0,0,0-.1.9l36.7,46.7.4.2h.5l9-7.1a.6.6,0,0,0,.1-.9L102,226.5l16.3-12.8,15.3,19.4.4.2h.5l9-7.1a.6.6,0,0,0,.1-.9Z" transform="translate(-31.7 -0.7)" fill="#253494"/><path d="M167,131.6a.6.6,0,0,0-.4-.4H166l-9.3,7.3a.6.6,0,0,0-.2.6l12.7,46.9-42.7-23.3a.6.6,0,0,0-.7.1l-9.2,7.2a.6.6,0,0,0,.1,1L172.3,203h.7l11.6-9.1a.6.6,0,0,0,.2-.7Z" transform="translate(-31.7 -0.7)" fill="#253494"/><path d="M224.3,113.2c-5.7-7.3-10.8-10.5-16-10.5s-11.2,3.6-18.2,9c-8.7,6.9-13.5,12-13.5,18.3,0,4.4,2.4,9.1,7.1,15.1l9.9,12.6c6.1,7.8,11.1,11.4,16.6,11.4s10.8-3.4,18-9,13.2-12,13.2-18.6c0-4.6-2.3-9.6-7.2-15.7Zm-2.9,38.3c-4.3,3.4-7.1,5.2-9.3,5.2s-4.8-1.9-8.5-6.7l-9.9-12.6h0c-2.6-3.4-4-5.8-4-7.9s2-5,7.2-9.2,7-5.2,9.6-5.2,4.7,1.6,7.9,5.9l9.9,12.6c3,3.8,4.3,6.5,4.2,8.6S226.1,147.8,221.4,151.5Z" transform="translate(-31.7 -0.7)" fill="#253494"/><path d="M196.6,123.1a.6.6,0,0,0-.9-.1l-4,3.1a.6.6,0,0,0-.2.4.6.6,0,0,0,.1.5l3.4,4.3.4.2h.5l4-3.1a.6.6,0,0,0,.1-.9Z" transform="translate(-31.7 -0.7)" fill="#253494"/><path d="M204.8,116.6a.6.6,0,0,0-.9-.1l-4,3.1a.6.6,0,0,0-.1.9l3.4,4.3.4.2h.5l4-3.1a.6.6,0,0,0,.1-.9Z" transform="translate(-31.7 -0.7)" fill="#253494"/><path d="M281.2,117,250.9,78.5l13.2-10.4a.6.6,0,0,0,.1-.9l-6-7.7a.6.6,0,0,0-.9-.1L220.9,88.1a.6.6,0,0,0-.1.9l6,7.7.4.2h.5l13.2-10.4,30.3,38.6.4.2h.5l9-7.1a.6.6,0,0,0,.1-.9Z" transform="translate(-31.7 -0.7)" fill="#253494"/></svg>