<svg xmlns="http://www.w3.org/2000/svg" viewBox="0 0 144.3 231.2"><title>hordurp</title><path d="M187.3,4.6c0,27.6.5,58.5.1,84.9s-1.6,48.8-5.3,59.3c-4.7,13.3-14.2,26.5-25.5,39.5s-24.6,26.1-37.8,39.2l-3.2,3.3-3.2-3.3C99.1,214.1,86.7,202,76,189.7s-19.9-25.1-26.2-39.5c-4.5-10.3-5.8-33.9-6.2-60.3s.3-58.2.3-85.3V.1H187.3Z" transform="translate(-43.3 0.1)" fill="#fff" stroke="#231f20" stroke-miterlimit="3.86" stroke-width="0.25"/><path d="M48.4,4.2h0c0,54.2-2.7,125.1,5.5,143.7,12.1,27.6,35.3,49.2,61.7,76.1,26.1-26.2,53.3-52.1,62.2-77.1,6.8-19.3,5-87.5,5-142.7ZM180,89.3h0c-.4,26.6-1.7,47.9-4.9,57-4.2,12-13,24.4-24.1,37.2S128,208,115.6,220.3c-12.4-12.6-24-24-34.1-35.6s-19.1-24.2-25.1-37.6c-3.8-8.7-5.2-30.3-5.6-57.4s.3-55.9.3-82.4H179.9C180,34.2,180.4,63.9,180,89.3Z" transform="translate(-43.3 0.1)" fill="#ed1c24" fill-rule="evenodd"/><path d="M146,26.7h-3.2a1.2,1.2,0,0,0,1.4,1.3,1.8,1.8,0,0,0,1.6-.9Zm-14.6,0h-2.7c0,.1,0,.1,0,.2s.4,1.2,1.1,1.2a1.4,1.4,0,0,0,1.1-.6Zm-18.9,0h-2.7v.2c0,.8.4,1.2,1.1,1.2a1.4,1.4,0,0,0,1.1-.6Zm-14.1,0h0l-3.1-.3c-.1,1.2.5,1.7,1.3,1.7a1.8,1.8,0,0,0,1.6-1Zm-10.2,0H85l-.2,1,.4.3h.6a2.3,2.3,0,0,0,1.9-.8Z" transform="translate(-43.3 0.1)" fill="#37618e" fill-rule="evenodd"/><polygon points="55.2 81 75.6 81 75.6 104.4 95.5 104.4 95.5 81 115.4 81 115.4 148.4 95.3 148.4 95.3 121.9 75.9 121.9 75.9 147.9 54.9 147.9 55.2 81" fill="#ed1c24"/><polygon points="41.1 60.3 60.5 60.3 45.1 74.4 31.9 74.4 41.1 60.3" fill="#ed1c24"/><rect x="28.9" y="81.3" width="20.2" height="66.82" fill="#ed1c24"/><path d="M81.3,26.7,80.9,29h1.2l.4-2.4.9-5.1.2-1.3H82.4l-.2,1.3Zm2.6,0-.8,5.1h1.1l.5-3,.6.4H86a3.1,3.1,0,0,0,2.6-1.3,4.5,4.5,0,0,0,.7-1.2,5,5,0,0,0,.3-1.8,2,2,0,0,0-2.3-2.3l-.9.2-.8.6.3-1.7.3-1.5H85l-.3,1.5Zm7,2.4.4-2.4H94a2.8,2.8,0,0,0,.6,1.8,2.2,2.2,0,0,0,1.7.7,2.9,2.9,0,0,0,1.9-.7,3.9,3.9,0,0,0,1.2-1.7,5.5,5.5,0,0,0,.4-1.9,2.4,2.4,0,0,0-.6-1.7,2.3,2.3,0,0,0-1.7-.6A3.1,3.1,0,0,0,95,23.7a5.2,5.2,0,0,0-1,3.1l-2.8-.2.2-1.4a2.4,2.4,0,0,1,.7-1.3,1.6,1.6,0,0,1,1.1-.5,1.3,1.3,0,0,1,.8.3l.3-1.1h-.6a2.4,2.4,0,0,0-2,1.1l.2-1H90.9l-.7,4L89.8,29Zm9.8-2.4v.4a2.3,2.3,0,0,0-.1.4,1.9,1.9,0,0,0,.4,1.2,1.3,1.3,0,0,0,1,.4l1.5-.2V27.9l-.9.2q-.9,0-.9-1a3.3,3.3,0,0,1,.1-.5l.7-3.2h1.7l.2-.9h-1.7l.2-1,.2-.8-1.3.5v.3l-.2,1h-.7l-.2.9h.7Zm4.4,0v.4a2.3,2.3,0,0,0-.1.4,1.9,1.9,0,0,0,.4,1.2,1.3,1.3,0,0,0,1,.4l1.5-.2V27.9l-.9.2q-.9,0-.9-1a3.3,3.3,0,0,1,.1-.5l.7-3.2h1.7l.2-.9H107l.2-1,.2-.8-1.3.5v.3l-.2,1h-.7l-.2.9h.7Zm3.6,0v.2a2.5,2.5,0,0,0,.5,1.7,1.8,1.8,0,0,0,1.4.6l1.2-.2a1.9,1.9,0,0,0,.8-.6l.2.7h1.1a5.6,5.6,0,0,1-.3-1.8,3,3,0,0,1,0-.6l.8-3.7a3.6,3.6,0,0,0-2.2-.5,3.1,3.1,0,0,0-2.6,1.3A4.9,4.9,0,0,0,108.6,26.7Zm6.7,0-.5,2.8a1.9,1.9,0,0,1-.4.9,1.4,1.4,0,0,1-.7.5v.7a2.7,2.7,0,0,0,1.5-.7,2.4,2.4,0,0,0,.8-1.5l.4-2.8.6-3.3h1.5v-.8h-1.4a3.3,3.3,0,0,1,.3-1,1.1,1.1,0,0,1,1-.7l.7.2.2-.9-.8-.2a2.3,2.3,0,0,0-2.3,1.5,5.1,5.1,0,0,0-.3,1h-.8v.8h.9Zm3.5,0q.2,2.5,2.4,2.5l1.6-.3V27.6a2.2,2.2,0,0,1-1.4.6,1.6,1.6,0,0,1-1.2-.5,1.7,1.7,0,0,1-.4-1v-.2a2.9,2.9,0,0,1,.1-.5,2.9,2.9,0,0,0,1.4.3,3.7,3.7,0,0,0,2.1-.6,1.8,1.8,0,0,0,.9-1.6,1.3,1.3,0,0,0-.6-1.1,2.5,2.5,0,0,0-1.5-.4,3.3,3.3,0,0,0-2.6,1.1,3.8,3.8,0,0,0-1,2.7C118.8,26.4,118.8,26.5,118.8,26.7Zm6.2,0a7.6,7.6,0,0,0-.1,1q0,1.5,1.9,1.5v-.9c-.6,0-.8-.3-.8-.8a6.5,6.5,0,0,1,.1-.8l.2-1.3.8-3.8.3-1.5h-1.2l-.3,1.5-.8,4.1Zm2.6,0v.2a2.5,2.5,0,0,0,.5,1.7,1.8,1.8,0,0,0,1.4.6l1.2-.2a1.9,1.9,0,0,0,.8-.6l.2.7h1.1a5.7,5.7,0,0,1-.3-1.8,3.2,3.2,0,0,1,0-.6l.8-3.7a3.6,3.6,0,0,0-2.2-.5,3.1,3.1,0,0,0-2.6,1.3A4.9,4.9,0,0,0,127.6,26.7Zm6.7,0a1.5,1.5,0,0,0,1,.4h.2q-1,.4-1,.8c0,.3.2.6.6.7l1,.2.6.3a.6.6,0,0,1,.2.5,1,1,0,0,1-.5.9,2.5,2.5,0,0,1-1.3.3,4,4,0,0,1-1.8-.6l-.5.9a2.9,2.9,0,0,0,2.1.8,3.6,3.6,0,0,0,2.2-.7,2.1,2.1,0,0,0,.9-1.8,1.3,1.3,0,0,0-1.5-1.4H136a.2.2,0,0,1-.2-.2q0-.3.8-.6l.7-.4.6-.6a2.9,2.9,0,0,0,.5-1.7,1.3,1.3,0,0,0-.2-.8l.6-.6-.6-.6-.5.6a2.1,2.1,0,0,0-1.4-.4,2.8,2.8,0,0,0-2,.8,2.7,2.7,0,0,0-.8,2,1.7,1.7,0,0,0,.5,1.2Zm5.9,2.4.4-2.4h1.1a2.8,2.8,0,0,0,.6,1.8,2.2,2.2,0,0,0,1.7.7,3,3,0,0,0,2.6-1.3,4.4,4.4,0,0,0,.6-1.2,5.7,5.7,0,0,0,.3-1.9,6.9,6.9,0,0,0-.3-1.9l-.5-1.2-.3-.5,1-.6-.3-.4-1,.5-.6-.8-1.2.2.8,1-1,.5.3.5.9-.5a3.2,3.2,0,0,1,.7,1.1l-.8-.2a3.2,3.2,0,0,0-2.6,1.1,4.4,4.4,0,0,0-1,3.1h-1.1l.7-4h-1.9l-.2.9h.8l-.5,3.1-.4,2.4Zm33.5-2.4v5.5H57.3V12.5H173.7V26.7Z" transform="translate(-43.3 0.1)" fill="#37618e"/><rect x="57.9" y="175.7" width="28.6" height="9.71" fill="#37618e"/><path d="M113.3,178.8a1.3,1.3,0,0,1-.3.9.9.9,0,0,1-.7.3.8.8,0,0,1-.7-.3,1.4,1.4,0,0,1-.3-.9,1.3,1.3,0,0,1,.3-.9.8.8,0,0,1,.7-.3.9.9,0,0,1,.7.3A1.3,1.3,0,0,1,113.3,178.8Zm-3.6,3.2a2.6,2.6,0,0,0,.5.9l.8.6,1.3.2a2.9,2.9,0,0,0,2.2-.9,4.1,4.1,0,0,0,.8-2.8,4.8,4.8,0,0,0-.4-2.1,2.5,2.5,0,0,0-1-1.2,3.4,3.4,0,0,0-1.7-.4,3.2,3.2,0,0,0-1.5.3,2.2,2.2,0,0,0-.9.9,2.5,2.5,0,0,0-.3,1.3,2.4,2.4,0,0,0,.7,1.7,2.1,2.1,0,0,0,1.6.7l.9-.2.7-.5a4.4,4.4,0,0,1-.3,1.5.8.8,0,0,1-.7.5l-.4-.2a1,1,0,0,1-.3-.6Z" transform="translate(-43.3 0.1)" fill="#fff" fill-rule="evenodd"/><path d="M118.1,180a5.2,5.2,0,0,1,.2-1.8.7.7,0,0,1,.7-.5.8.8,0,0,1,.7.5,4.9,4.9,0,0,1,.2,1.9,6.9,6.9,0,0,1-.1,1.4,1.3,1.3,0,0,1-.3.7l-.5.2a.8.8,0,0,1-.7-.5A4.8,4.8,0,0,1,118.1,180Zm-1.9,0a7.4,7.4,0,0,0,.1,1.5,3.2,3.2,0,0,0,.4,1.1,2.3,2.3,0,0,0,.9.8,3.1,3.1,0,0,0,1.4.3,2.6,2.6,0,0,0,2.2-.9,4.8,4.8,0,0,0,.7-2.8,6.7,6.7,0,0,0-.2-1.6l-.3-.7-.5-.6-.7-.5-1.2-.2a2.8,2.8,0,0,0-2.2.8A4.2,4.2,0,0,0,116.2,180Z" transform="translate(-43.3 0.1)" fill="#fff" fill-rule="evenodd"/><path d="M140.4,21.6h.9a.8.8,0,0,0,.3-.6.7.7,0,0,0-.2-.5l-.5-.2-.5.2a.8.8,0,0,0,0,1.1ZM84.8,17.7H83.7l-1,1.9h.8Zm51.5,5.7a1,1,0,0,1,.8.3,1,1,0,0,1,.3.8,2.2,2.2,0,0,1-.5,1.4,1.4,1.4,0,0,1-1.2.6q-1,0-1-1.3a1.8,1.8,0,0,1,.5-1.2A1.4,1.4,0,0,1,136.3,23.4Zm-16.1,1.7a2.2,2.2,0,0,1,2.1-1.7c.7,0,1,.2,1,.7a.9.9,0,0,1-.6.9,3.2,3.2,0,0,1-1.5.3Zm22.6,1.6v-.3a3.6,3.6,0,0,1,.6-2.1,1.9,1.9,0,0,1,1.6-.9q1.3,0,1.3,1.5a4.3,4.3,0,0,1-.4,1.7Zm-14.1-.1a4,4,0,0,1,.7-2.3,2,2,0,0,1,1.6-1c.6,0,1,.1,1.1.3l-.5,2.3-.3.8Zm-18.9,0a4,4,0,0,1,.7-2.3,2,2,0,0,1,1.6-1c.6,0,1,.1,1.1.3l-.5,2.3-.2.8Zm-14.5.1v-.3a4.8,4.8,0,0,1,.2-1.4,2.7,2.7,0,0,1,.7-1.2,1.7,1.7,0,0,1,1.2-.5q1.3,0,1.3,1.5a4.4,4.4,0,0,1-.3,1.8ZM85,26.7l.4-2.5.6-.5.8-.2A1.4,1.4,0,0,1,88.4,25a4.4,4.4,0,0,1-.3,1.7Zm72.4,17.5V41.1h2.1a2.8,2.8,0,0,1,1.8.4,1.6,1.6,0,0,1,.2,2,1.3,1.3,0,0,1-.8.5l-1.3.2Zm-35.5-2.8h1.2a3.4,3.4,0,0,1,2.6.9,5.1,5.1,0,0,1,.8,3.3,7.2,7.2,0,0,1-.4,2.7,2.2,2.2,0,0,1-1,1.1,4.9,4.9,0,0,1-2.1.3h-1.2v-3h2.3V44.5h-2.3Zm-17.1,2.8V41.1h2.1a2.8,2.8,0,0,1,1.8.4,1.4,1.4,0,0,1,.5,1.1,1.4,1.4,0,0,1-.3.9,1.3,1.3,0,0,1-.8.5l-1.3.2Zm-19,1.5a5.1,5.1,0,0,1,.9-3.4,2.9,2.9,0,0,1,2.3-1,3,3,0,0,1,2.4,1,4.7,4.7,0,0,1,.9,3.2,5.6,5.6,0,0,1-.8,3.6,3.3,3.3,0,0,1-4.7,0A5.1,5.1,0,0,1,85.7,45.6Zm48,125.5a1.6,1.6,0,0,1,.3-1,.9.9,0,0,1,.7-.3,1,1,0,0,1,.7.3,1.3,1.3,0,0,1,.3,1,1.6,1.6,0,0,1-.3,1.1,1,1,0,0,1-.7.3.9.9,0,0,1-.7-.3A1.6,1.6,0,0,1,133.7,171.1Zm-5.3.1v.3a1.3,1.3,0,0,1-.1.6l-.4.4-.6.2h-.5a.5.5,0,0,1-.2-.4.5.5,0,0,1,.2-.4l.8-.3Zm-20.4-.1a1.5,1.5,0,0,1,.3-1,.9.9,0,0,1,.7-.3.9.9,0,0,1,.7.3,1.5,1.5,0,0,1,.3,1,1.6,1.6,0,0,1-.3,1,.9.9,0,0,1-1.4,0A1.6,1.6,0,0,1,108,171.1Zm3.3,6.7.5-.2.5.2c.2-.5.5-.3.6-.2a2.4,2.4,0,0,1,.4,1.2c0,.4.2,1,0,1.2s-1.2.1-1.4.1a1.2,1.2,0,0,1-.7-.3,1.4,1.4,0,0,1-.3-.9,1.3,1.3,0,0,1,.3-.9Zm7.4,0h.7l.4.4a5,5,0,0,1,.2,1.9,6.9,6.9,0,0,1-.1,1.4,1.3,1.3,0,0,1-.3.7l-.5.2a.8.8,0,0,1-.7-.5,4.8,4.8,0,0,1-.2-1.9,5.2,5.2,0,0,1,.2-1.8Zm34-124.5h4.7V47.1h.4a2,2,0,0,1,1.2.4,3.5,3.5,0,0,1,.9,1.2l2.5,4.7h5.3l-2.3-4.4-.7-1-.8-.8-1.2-.6,1.7-.6a4.5,4.5,0,0,0,1.3-6.2,3.6,3.6,0,0,0-1.9-1.4,11.4,11.4,0,0,0-3.4-.4h-7.9ZM144.2,38v9.3a2.7,2.7,0,0,1-.7,2,3,3,0,0,1-3.8,0,2.7,2.7,0,0,1-.7-2V38h-4.7v9.1a9.1,9.1,0,0,0,.4,2.6,4.9,4.9,0,0,0,1,1.8,5.5,5.5,0,0,0,1.6,1.3,6.4,6.4,0,0,0,2.2.6l2.4.2a9.5,9.5,0,0,0,3.3-.5,5.3,5.3,0,0,0,1.9-1.3,5.5,5.5,0,0,0,1.3-2.1,7.7,7.7,0,0,0,.4-2.6V38Zm-27.1,0v6.5h-1.6v2.3h1.6v6.5h7a11,11,0,0,0,2.8-.4,5.1,5.1,0,0,0,2.1-1.2,6.3,6.3,0,0,0,1.6-2.2,10.2,10.2,0,0,0,.6-3.9,11.5,11.5,0,0,0-.4-3,6.6,6.6,0,0,0-1.2-2.4,5.5,5.5,0,0,0-2.1-1.6,8.4,8.4,0,0,0-3.4-.6ZM100,53.3h4.7V47.1h.4a2,2,0,0,1,1.2.4,3.5,3.5,0,0,1,.9,1.2l2.5,4.7h5.3l-2.3-4.4-.7-1-.8-.8-1.2-.6,1.7-.6a4.5,4.5,0,0,0,1.3-6.2,3.6,3.6,0,0,0-1.9-1.4,11.4,11.4,0,0,0-3.4-.4H100ZM89.8,34.4V37h2.7V34.4Zm-4.4,0V37h2.7V34.4ZM81,45.6A8.7,8.7,0,0,0,82,50.1a6.5,6.5,0,0,0,2.8,2.6,9.8,9.8,0,0,0,4.3.8,8.6,8.6,0,0,0,4.3-1A6.4,6.4,0,0,0,96,49.9a9.4,9.4,0,0,0,.9-4.4,7.7,7.7,0,0,0-2.1-5.7,8,8,0,0,0-5.9-2.1A7.2,7.2,0,0,0,81,45.6ZM63.3,38V53.3H68V47.1h5.2v6.2h4.7V38H73.2v5.3H68V38Zm-6,34.8v-41H173.7v79.2c.1,12.8-.2,20.4-4.5,32.4a82.6,82.6,0,0,1-9.8,18.3c-1.9,2.7-3.9,5.4-6.1,8.1s-4.5,5.4-6.9,8.1c-9.9,11.1-21.2,22-31.5,32.5-10.7-11.3-21.6-22.1-30.8-32.5-2.4-2.7-4.7-5.4-6.9-8.1s-4.3-5.4-6.1-8.1a69.7,69.7,0,0,1-7.4-13.4c-5.4-13.4-5.9-20.5-6.5-34V72.8Zm37.6,0,16.3-14.8H82.9L73.2,72.8,70,77.7H89.5Zm66.7,32V78.7H136.1V102H121.8V78.7H95.7v26.1l-.2,46.3h26.6v-26h13.7v26.5h25.8Zm-66.4,0V78.9H69.4v72.5H95.2Zm64.1,56.8h0ZM127,169.7h1.1a.7.7,0,0,1,.2.6l-.7.2-1.4.3a2.3,2.3,0,0,0-1.3.6,1.4,1.4,0,0,0-.3,1,1.4,1.4,0,0,0,.5,1.1,2,2,0,0,0,1.4.4l1.2-.2.8-.5v.6h1.9l-.2-.5a2.7,2.7,0,0,1,0-.6v-2.3a2.2,2.2,0,0,0-.1-.6,1.6,1.6,0,0,0-.4-.8,1.8,1.8,0,0,0-.9-.4h-2.5l-.7.2-.6.5-.2.5v.3l1.9.2a.8.8,0,0,1,.3-.5Zm10.4,0-.2-.7a6,6,0,0,0-1.2-1.7l.7-.3-.2-.5-1,.4-.5-.4h-2l.6.4.6.5-1.2.4.2.5,1.4-.5.6,1-.5-.2h-.6a2.4,2.4,0,0,0-1.2.3,2.2,2.2,0,0,0-.8.8,2.9,2.9,0,0,0,0,2.8,2.2,2.2,0,0,0,1,1,3.5,3.5,0,0,0,1.6.4,2.7,2.7,0,0,0,2.9-2.9A4.5,4.5,0,0,0,137.4,169.7Zm-14.4,0a1.7,1.7,0,0,0-.4-.8,1.7,1.7,0,0,0-1.3-.5l-1,.2a2.7,2.7,0,0,0-.8.7v-.8h-1.8v5.2h2v-2.5a1.6,1.6,0,0,1,.2-1,.7.7,0,0,1,.6-.3l.5.2a1,1,0,0,1,.2.7v2.8h2v-3.3A3.4,3.4,0,0,0,123.1,169.7Zm-6.6,0v-1.2h-.9a2.7,2.7,0,0,1,0-.5l.2-.3h1l.2-1.2h-2.5l-.5.4a1.4,1.4,0,0,0-.3.6,4,4,0,0,0-.1.7v.2h-.7V170h.7v3.7h2V170h.9Zm-4.9,0-.3-.4a3.4,3.4,0,0,0-4.5-.1l-.4.5a2.7,2.7,0,0,0-.4,1.4,2.5,2.5,0,0,0,.9,2.1,3.1,3.1,0,0,0,2,.6,3,3,0,0,0,2.2-.8,2.6,2.6,0,0,0,.8-2A2.7,2.7,0,0,0,111.5,169.7ZM101,168.5v1.2H98.9l-.3-.2-2.1-.6-.7-.3a.4.4,0,0,1-.2-.3.5.5,0,0,1,.2-.4l.6-.2.7.2a1.1,1.1,0,0,1,.3.7h2.1a2.2,2.2,0,0,0-.9-1.6,3.6,3.6,0,0,0-2.1-.5,4.4,4.4,0,0,0-1.7.3,2.1,2.1,0,0,0-1,.8,1.9,1.9,0,0,0-.3,1,1.7,1.7,0,0,0,.4,1.2l.2.2a4.8,4.8,0,0,0,2.1.9l1.1.4a.7.7,0,0,1,.2.5.7.7,0,0,1-.3.5l-.7.2a1.2,1.2,0,0,1-1-.4,1.6,1.6,0,0,1-.3-.8H93.4a2.8,2.8,0,0,0,.8,1.8,3.5,3.5,0,0,0,2.5.7,4.3,4.3,0,0,0,1.7-.3,2.4,2.4,0,0,0,1.1-.9,2.2,2.2,0,0,0,.4-1.3,1.9,1.9,0,0,0-.9-1.7H101v.3h.7v1.8a3.4,3.4,0,0,0,.2,1.3,1.2,1.2,0,0,0,.5.6l1.1.2,1.4-.2v-1.4h-.6l-.3-.2a1,1,0,0,1-.1-.4V170h1.1v-1.5h-1.1v-2l-2,1v.9Zm28.1,9.3v-1.3h-5.8v1.7h3.5a11,11,0,0,0-1.6,2.5,11.6,11.6,0,0,0-.7,2.9h2a10,10,0,0,1,.4-2.2,8.6,8.6,0,0,1,1-2.1,7.3,7.3,0,0,1,1.3-1.5Zm-12.2-.6-.4.6h-2.1a2.5,2.5,0,0,0-1-1,3.5,3.5,0,0,0-1.7-.4,3.2,3.2,0,0,0-1.5.3,2.2,2.2,0,0,0-.9.9v.2a2.6,2.6,0,0,0-.2,1.1,2.4,2.4,0,0,0,.7,1.7c.4.5,1.1-.1,1.7-.1s.5.7.8.6l1.4-.8a10.4,10.4,0,0,1-.4,2.2c-.2.3-1,.4-1.3.4s-.3-.4-.4-.6a1,1,0,0,1-.3-.6l-2,.2a2.6,2.6,0,0,0,.5.9l.8.6,1.3.2a2.9,2.9,0,0,0,2.3-.9,4.1,4.1,0,0,0,.8-2.8,6.2,6.2,0,0,0-.5-2.4h2.2a5.7,5.7,0,0,0-.4,2.3,7.3,7.3,0,0,0,.1,1.5,3.2,3.2,0,0,0,.4,1.1,2.4,2.4,0,0,0,.9.8,3.2,3.2,0,0,0,1.5.3,2.6,2.6,0,0,0,2.3-.9,4.8,4.8,0,0,0,.7-2.8,6.8,6.8,0,0,0-.2-1.7l-.2-.6a2.6,2.6,0,0,0-.5-.8l-.8-.5-1.2-.2A2.9,2.9,0,0,0,116.9,177.2Zm-10.5.6v-1.4h-1.6a3.2,3.2,0,0,1-.9,1.1l-.4.3-1.2.5v1.6l1.1-.4.9-.6v4.7h2ZM121.8,21.6h.7l1.3-1.9h-1.1Zm-24.9,0h.7L99,19.8H97.8Z" transform="translate(-43.3 0.1)" fill="#37618e"/><path d="M124.7,181.4a1.1,1.1,0,0,1,.3-.8.8.8,0,0,1,.6-.3.9.9,0,0,1,.7.3,1.2,1.2,0,0,1,0,1.5.8.8,0,0,1-.6.3.9.9,0,0,1-.7-.3A1.1,1.1,0,0,1,124.7,181.4Zm.1-3a.8.8,0,0,1,.2-.6l.6-.2.6.2a.8.8,0,0,1,.2.6.8.8,0,0,1-.2.6l-.6.2-.6-.2A.8.8,0,0,1,124.8,178.3Zm-.9,1.4a1.8,1.8,0,0,0-.9.7,1.8,1.8,0,0,0-.3,1.1,2.2,2.2,0,0,0,.3,1.2,1.9,1.9,0,0,0,.9.8,4.3,4.3,0,0,0,1.7.3h1.1l.9-.4a2,2,0,0,0,.6-.7,2.1,2.1,0,0,0,.2-1,1.9,1.9,0,0,0-.3-1,2,2,0,0,0-.9-.7l.6-.6a1.6,1.6,0,0,0,.3-.9,1.7,1.7,0,0,0-.7-1.4,3.3,3.3,0,0,0-2.1-.5,3.1,3.1,0,0,0-1.7.4,1.7,1.7,0,0,0-.8,1.5,1.6,1.6,0,0,0,.3,1Z" transform="translate(-43.3 0.1)" fill="#fff" fill-rule="evenodd"/><polygon points="41.4 17.5 40.3 17.5 39.3 19.5 40.1 19.5 41.4 17.5" fill="#fff"/><polygon points="53.6 21.6 54.3 21.8 55.6 19.8 54.5 19.8 53.6 21.6" fill="#fff"/><polygon points="78.4 21.6 79.1 21.8 80.4 19.8 79.3 19.8 78.4 21.6" fill="#fff"/><path d="M140.3,21.7h.9a.8.8,0,0,0,.3-.6.7.7,0,0,0-.2-.5l-.5-.2-.5.2a.8.8,0,0,0,0,1.1Z" transform="translate(-43.3 0.1)" fill="#fff"/><path d="M107.1,176.4v7.2h-2v-4.7l-.9.6-1.1.4v-1.6a4.7,4.7,0,0,0,1.6-.8,3.2,3.2,0,0,0,.9-1.1Z" transform="translate(-43.3 0.1)" fill="#fff"/><path d="M113.1,178.9a1.3,1.3,0,0,1-.3.9.9.9,0,0,1-.7.3.8.8,0,0,1-.7-.3,1.4,1.4,0,0,1-.3-.9,1.3,1.3,0,0,1,.3-.9.8.8,0,0,1,.7-.3.9.9,0,0,1,.7.3A1.3,1.3,0,0,1,113.1,178.9Zm-3.6,3.2a2.6,2.6,0,0,0,.5.9l.8.6,1.3.2a2.9,2.9,0,0,0,2.2-.9,4.1,4.1,0,0,0,.8-2.8,4.8,4.8,0,0,0-.4-2.1,2.5,2.5,0,0,0-1-1.2,3.4,3.4,0,0,0-1.7-.4,3.2,3.2,0,0,0-1.5.3,2.2,2.2,0,0,0-.9.9,2.5,2.5,0,0,0-.3,1.3,2.4,2.4,0,0,0,.7,1.7,2.1,2.1,0,0,0,1.6.7l.9-.2.7-.5a4.4,4.4,0,0,1-.3,1.5.8.8,0,0,1-.7.5l-.4-.2a1,1,0,0,1-.3-.6Z" transform="translate(-43.3 0.1)" fill="#fff" fill-rule="evenodd"/></svg>