<svg xmlns="http://www.w3.org/2000/svg" viewBox="0 0 149.6 202.5"><title>hottur</title><path d="M325,198.7c-13.8,1.7-29.3-15.5-42-27.2-9.2-8.4-22.3-21.9-33.2-23.1-18.1,4-49.5,50.7-74.4,53.4V280a101.8,101.8,0,0,0,3.1,15.9c5.6,20.9,22.7,54.7,74.7,55,0,0,34.7-.1,56-29.5,7.1-9.9,14.1-25.7,15.5-40.4Z" transform="translate(-175.4 -148.4)" fill="#343536" fill-rule="evenodd"/><path d="M291.6,182.2c-8.9-2.5-19.4-7-27.9-10.6-4.7,4.3-10,9.2-14.8,13.1-5-3.8-8.9-7.8-13.9-12.5a205.2,205.2,0,0,1-19.9,7.1c11.2-10.4,25.1-24.9,35.3-28.6,12.3,3.5,27.7,21.3,41.2,31.5" transform="translate(-175.4 -148.4)" fill="#fff" fill-rule="evenodd"/><path d="M315,282.8c-.6,9.7-2.9,15.7-6,22.6-9.8,22-31.2,36.3-58.3,36.5-43.9.2-58.4-30.3-63.4-48.5a101.1,101.1,0,0,1-3-13.5V247.3c-2.5-7.2-1.3-9.6-1.3-9.6a2.9,2.9,0,0,0,.4-3c-2.3-1.6-1.6-6.2-1.6-6.2,1.5-2.9,1.9-.7,1.9-.7a4.4,4.4,0,0,0-.6,3.8c1.6,4.8,5.9,2.6,5.9,2.6,2.5-2,3.4-1.1,3.4-1.1l5.6.9c.8-1.9-3.4-2.9-3.4-2.9-8.1.4-7.4-2.7-7.4-2.7,1.3-3,5-1.2,5-1.2a3.6,3.6,0,0,0,4.5-3.4c-2.1-3.9-4.5-.2-4.5-.2-3.6.1-4.7,1.6-4.7,1.6-1.7,1.5-1.5.4-1.5.4,3.8-3.6,1.3-5.3,1.3-5.3l-8.7-7.5-.2,64.9s1.3,12,2.6,16.7c15.6,56.5,69.6,53.3,69.6,53.3,36.6,0,54-22.9,63.6-41.1,6.6-12.4,7.8-26.5,7.8-26.5l.4-56.4c-.4,3.4-2.8,10.2-4.4,14.6l-8.3-7.9,5.3,8.9Z" transform="translate(-175.4 -148.4)" fill="#c2c7ce" fill-rule="evenodd"/><path d="M199.7,234.8c1.4-4.2-3.2-2.4-3.1-5.4,1.8.2,2.9,1.2,5.4.8-1.3-1.5-3.6-2.1-6.2-2.3,1.3-3.1,5.9-2.9,6.9-6.2,6.7,8.4,23.1,6.7,30.3,0,6.4,8.3,26.7,7.8,31.9-.4,4.8,7.5,24.2,8.4,29.6.4,8.7,3.1,12.9,8.7,17.7,17.7-.3,15.7.7,32.6-.8,47.1a57.9,57.9,0,0,1-5.4,16.9c-9.8,21.4-29.4,35.2-55.8,35.3-30.2.2-51.8-18.6-60.1-45.7-1.4-3.2-2.3-8.8-3-13.5V247.2c-1.3-3-3-5.8-2.3-10.8l5.1-.5,1.1-1.3H193l1.3,1.3s3.9,2.4,5.4-1" transform="translate(-175.4 -148.4)" fill="#fff" fill-rule="evenodd"/><path d="M178.2,204.3s9.5,1.4,33.6-21.8a164.2,164.2,0,0,0,22.5-7.3l14.8,13,15-13.8,29.3,11.3s15.5,14.6,27.9,16.1v6.3s-5.9,24.5-26.1,7.5c0,0-14.6,16.8-30.5-.2,0,0-15.5,17.1-31.4.2,0,0-16.8,17-30.9,0,0,0-5.7,15.5-24.3-7.1Z" transform="translate(-175.4 -148.4)" fill="#00a25f" fill-rule="evenodd"/><path d="M186.7,222.7a1.2,1.2,0,1,1-1.2-1.2,1.2,1.2,0,0,1,1.2,1.2" transform="translate(-175.4 -148.4)" fill="#343536" fill-rule="evenodd"/><path d="M195.4,224a.7.7,0,1,1-.7-.7.7.7,0,0,1,.7.7" transform="translate(-175.4 -148.4)" fill="#343536" fill-rule="evenodd"/><path d="M316.7,235.5l-11.5-12.1s5.9.3,7.4-.7Z" transform="translate(-175.4 -148.4)" fill="#c2c7ce" fill-rule="evenodd"/><path d="M313.8,222a18,18,0,0,0,3.6-2.6l.5,15.3Z" transform="translate(-175.4 -148.4)" fill="#c2c7ce" fill-rule="evenodd"/><path d="M318.6,218.3a35.3,35.3,0,0,0,3.3-5.6,83.1,83.1,0,0,1-2.9,18.5h-.4Z" transform="translate(-175.4 -148.4)" fill="#c2c7ce" fill-rule="evenodd"/><path d="M242.9,266.5h9.3v-10h-10v-9.9h19.3v44.2h-3.9v41.7h3.8l13.9-4.9V290.7h-4.6V266.5h20.1c0,7.7-.1,16.5-.1,24.2h-3.7v28.3c8.3-6,14.8-13.7,17.8-25v-3.3h-3.8V246.4h4.6V234.1H286.9v12.6h3.8v9.7h-20v-9.8h4.6V234.1H227.5v12.5h3.9v44.1h-3.8v37.5l14.7,4.2H246V290.7h-3.7V266.5h.6" transform="translate(-175.4 -148.4)" fill="#e04245" fill-rule="evenodd"/><path d="M246.4,332.7H242l-14.9-4.2V290.3H231V246.9h-3.9V233.7h48.5v13.2H271v9.2h19.4V247h-3.8V233.7h19.2v13h-4.6v43.6h3.8V294h0c-2.7,10.3-8.3,18.3-17.9,25.2l-.5.4V290.3h3.7c0-3.8,0-7.8,0-11.8s0-8,0-11.8H271v23.5h4.6v37.3l-14.3,5h-4.2V290.3h3.9V246.8H242.4v9.3h10v10.7h-9.6v-.6h8.9v-9.4h-10V246.2h19.9V291h-3.9v41h3.4l13.7-4.8V291h-4.6V266.1H291v.3c0,3.9,0,8,0,12.1s0,8.3,0,12.1v.3h-3.7v27.3c9.1-6.7,14.5-14.5,17.1-24.4v-2.9h-3.8V246.1h4.6V234.4H287.2v12H291v10.3H270.3V246.3H275V234.4H227.8v11.9h3.9V291h-3.8v37l14.4,4.1h3.5V291h-3.8V266.2h.9v.6h-.3v23.5h3.7v42.3Z" transform="translate(-175.4 -148.4)" fill="#343536"/><path d="M200.5,247.2c0,14.4,0,29,0,43.4h-3.8v1.3c.5,13.7,11.9,24.9,18.6,28.7,0-9.3,0-20.6,0-29.8h-3.9V246.5h3.5l-9.7-10.9h-1l-7.5,6.6v4.4h3.9Z" transform="translate(-175.4 -148.4)" fill="#e04245" fill-rule="evenodd"/><path d="M215.5,321.2l-.5-.3c-7-4-18.2-15.3-18.7-29v-1.6h3.8c0-7.1,0-14.2,0-21.4s0-14.5,0-21.7v-.3h-3.9v-4.8l7.7-6.8h1.2l10.3,11.5h-3.9v43.6h3.9v.3c0,4.6,0,9.8,0,14.9s0,10.3,0,14.9Zm-18.6-30.2v1c.4,13.1,11,24,17.9,28.1,0-4.5,0-9.4,0-14.4s0-10,0-14.6h-3.9V246.2h3.1l-9.2-10.3h-.7l-7.3,6.4v3.9h4v.9c0,7.2,0,14.4,0,21.7s0,14.5,0,21.7v.3Z" transform="translate(-175.4 -148.4)" fill="#343536"/><polygon points="33.5 85.8 48.2 85.8 48.2 98.1 43.9 98.1 33.5 86.5 33.5 85.8" fill="#e04245" fill-rule="evenodd"/><path d="M224,246.8h-4.8L208.6,235v-1.2H224Zm-4.5-.6h3.8V234.5H209.2v.3Z" transform="translate(-175.4 -148.4)" fill="#343536"/><path d="M191.8,228.1c0,.3-.8.5-1.9.5s-1.9-.2-1.9-.5.8-.5,1.9-.5,1.9.2,1.9.5" transform="translate(-175.4 -148.4)" fill="#c2c7ce" fill-rule="evenodd"/></svg>