<?xml version="1.0" encoding="utf-8"?>
<!-- Generator: Adobe Illustrator 23.0.3, SVG Export Plug-In . SVG Version: 6.00 Build 0)  -->
<svg version="1.1" id="Layer_1" xmlns="http://www.w3.org/2000/svg" xmlns:xlink="http://www.w3.org/1999/xlink" x="0px" y="0px"
	 viewBox="0 0 486.8 291.6" style="enable-background:new 0 0 486.8 291.6;" xml:space="preserve">
<style type="text/css">
	.st0{fill-rule:evenodd;clip-rule:evenodd;fill:#231F20;}
	.st1{fill-rule:evenodd;clip-rule:evenodd;fill:#FFFFFF;}
	.st2{fill-rule:evenodd;clip-rule:evenodd;fill:#C2C7CF;}
	.st3{fill-rule:evenodd;clip-rule:evenodd;fill:#009345;}
	.st4{fill-rule:evenodd;clip-rule:evenodd;fill:#343536;}
	.st5{fill-rule:evenodd;clip-rule:evenodd;fill:#D71921;}
	.st6{fill:#231F20;}
	.st7{fill:#343536;}
	.st8{fill:#F6D820;}
</style>
<title>vaengirjupiters</title>
<g>
	<path class="st0" d="M213.2,74.1c-19.6,2.4-41.7-22-59.8-38.7c-13.1-12-31.8-31.1-47.2-32.9C80.4,8.1,35.7,74.7,0.3,78.5v111.2
		c0,0,0.8,9.4,4.4,22.7c8,29.7,32.4,77.9,106.3,78.2c0,0,49.4-0.1,79.7-41.9c10.2-14,20-36.5,22.1-57.4L213.2,74.1z"/>
	<path class="st1" d="M165.6,50.5c-12.7-3.6-27.6-10-39.6-15.1c-6.7,6.1-14.2,13.1-21.1,18.7C97.7,48.7,92.1,43,85,36.3
		c-8.9,3.6-18.6,7.3-28.2,10.1C72.8,31.6,92.5,11,107,5.7C124.5,10.6,146.4,36,165.6,50.5"/>
	<path class="st2" d="M198.9,193.8c-0.8,13.8-4.1,22.4-8.5,32.2c-13.9,31.4-44.3,51.7-83,51.9c-62.5,0.3-83.1-43.1-90.2-69
		c-3.5-12.7-4.2-19.2-4.2-19.2v-46.5c-3.5-10.2-1.9-13.6-1.9-13.6c1.7-2,0.5-4.3,0.5-4.3c-3.3-2.3-2.3-8.8-2.3-8.8
		c2.2-4.1,2.7-1,2.7-1c-1.9,2.4-0.9,5.5-0.9,5.5c2.3,6.9,8.4,3.7,8.4,3.7c3.6-2.8,4.8-1.5,4.8-1.5l8,1.3c1.1-2.7-4.8-4.1-4.8-4.1
		c-11.6,0.6-10.5-3.8-10.5-3.8c1.9-4.3,7.1-1.7,7.1-1.7c6.1,0.8,6.3-4.8,6.3-4.8c-2.9-5.6-6.3-0.2-6.3-0.2c-5.1,0.1-6.7,2.3-6.7,2.3
		c-2.4,2.2-2.2,0.5-2.2,0.5c5.5-5.1,1.9-7.5,1.9-7.5L4.7,94.4l-0.3,92.4c0,0,1.8,17.1,3.7,23.8c22.2,80.4,99.1,75.9,99.1,75.9
		c52.1,0,76.9-32.6,90.6-58.4c9.3-17.6,11-37.6,11-37.6l0.6-80.3c-0.6,4.8-4,14.5-6.2,20.8l-11.8-11.3l7.6,12.6"/>
	<path class="st1" d="M34.8,125.4c2-6-4.6-3.5-4.4-7.7c2.6,0.3,4.1,1.7,7.7,1.1c-1.8-2.2-5.1-2.9-8.8-3.3c1.8-4.4,8.3-4.1,9.9-8.8
		c9.5,12,32.8,9.6,43.1,0.1c9.1,11.8,38,11.1,45.4-0.6c6.9,10.7,34.5,12,42.1,0.6c12.4,4.5,18.4,12.4,25.3,25.3
		c-0.4,22.3,0.9,46.3-1.1,67c-1.8,10.8-4.2,16.6-7.6,24c-14,30.5-41.8,50-79.3,50.3c-42.9,0.3-73.6-26.5-85.5-65
		c-1.9-4.6-3.3-12.5-4.2-19.2V143c-1.9-4.3-4.2-8.2-3.3-15.4l7.3-0.7l1.5-1.9l2.5-0.1l1.8,1.9C27.1,126.8,32.6,130.2,34.8,125.4"/>
	<path class="st3" d="M4.2,82.1c0,0,13.5,2,47.8-31c0,0,12.7-2.8,32-10.4l21.1,18.6l21.4-19.6l41.7,16c0,0,22.1,20.8,39.6,22.9v8.9
		c0,0-8.4,34.8-37.1,10.7c0,0-20.8,23.9-43.5-0.3c0,0-22.1,24.4-44.7,0.3c0,0-23.9,24.2-44,0c0,0-8.1,22.1-34.6-10.2"/>
	<path class="st0" d="M16.4,108.1c0,1-0.7,1.7-1.7,1.7c-0.9,0-1.7-0.8-1.7-1.7c0-1,0.8-1.7,1.7-1.7
		C15.6,106.4,16.4,107.1,16.4,108.1"/>
	<path class="st4" d="M28.7,110c0,0.5-0.4,1-1,1c-0.5,0-1-0.4-1-1c0-0.5,0.4-0.9,1-0.9C28.3,109.1,28.7,109.5,28.7,110"/>
	<path class="st2" d="M201.3,126.4l-16.4-17.3c0,0,8.4,0.4,10.6-1"/>
	<path class="st2" d="M197.2,107.2c0,0,3.8-2.2,5.1-3.7l0.8,21.7"/>
	<path class="st2" d="M204,101.9c0,0,3.7-5.2,4.7-8c0,0-0.4,13.8-4.1,26.3H204"/>
	<path class="st5" d="M96.3,170.5h13.2v-14.3H95.2V142h27.4v62.8H117l0.1,1.8v57.1l-0.1,0.4h5.5l19.8-7v-52.3h-6.6v-34.4h28.6
		c0,11-0.1,23.5-0.1,34.5l-5.3-0.1l-0.1,40.2c11.8-8.5,21.1-19.5,25.3-35.6l-0.1-4.7h-5.4v-62.9h6.6v-17.6h-26.4v18h5.5v13.8
		l-1.1,0.1h-27.5V143l0-0.8h6.6v-17.9H74.3v17.8l5.5,0v62.7h-5.5l0,1.8v51.6l20.9,5.9h5.5l0-0.5v-58.2l0-0.7h-5.3v-34.4h0.8"/>
	<path class="st6" d="M101.2,264.7l-6.2,0l-21.2-6l0-54.2h5.5v-61.8l-5.5-0.1v-18.7h69v18.8h-6.6l0,0.3v12.8l27.6-0.1v-12.9h-5.5
		v-18.9h27.3v18.5h-6.6v62h5.4l0.1,5.2l0,0c-3.8,14.7-11.8,26.1-25.4,35.9l-0.7,0.5l0.1-41.6l5.3,0.1c0-5.3,0-11.1,0-16.8
		c0-5.7,0-11.4,0-16.8h-27.6v33.5h6.6v53.1l-20.3,7.1h-6l0.1-0.9v-57l-0.1-2.3h5.6v-61.9H95.6v13.2h14.3v15.2H96.3V170H109v-13.4
		H94.7v-15.1h28.3v63.8h-5.6l0.1,1.3v57h4.9l19.4-6.8v-51.5h-6.6V170h29.5v0.4c0,5.5,0,11.4-0.1,17.2c0,5.9-0.1,11.8-0.1,17.3v0.5
		l-5.3-0.1l-0.1,38.9c12.9-9.5,20.7-20.6,24.3-34.8l0-4.2h-5.5v-63.8h6.6v-16.6h-25.4v17.1h5.5v14.7l-1.5,0.1h-27.9l0-14.9h6.6v-17
		H74.8v16.9l5.5,0v63.6h-5.5l0,1.4v51.2l20.5,5.8h5l0-58.4h-5.3V170h1.3v0.9h-0.4v33.5h5.3l0,1.1v58.2"/>
	<path class="st5" d="M35.9,143c0,20.5-0.1,41.3-0.1,61.8l-5.5,0.1l0,1.9c0.7,19.5,17,35.5,26.4,40.8c0-13.2-0.1-29.3-0.1-42.4h-5.5
		l0-2.8V142h5l-13.9-15.5h-1.4l-10.7,9.4v6.2H36"/>
	<path class="st6" d="M57.3,248.3l-0.7-0.4c-10-5.6-26-21.8-26.6-41.2l0-2.3l5.5-0.1c0-10.1,0-20.3,0-30.4c0-10.3,0-20.6,0-30.9
		l0-0.4h-5.6v-6.9l11-9.6h1.8l0.1,0.2l14.5,16.3h-5.6l0,62.1h5.5v0.4c0,6.6,0,13.9,0,21.2c0,7.3,0,14.6,0,21.2 M30.8,205.2l0,1.4
		c0.6,18.6,15.7,34.2,25.5,40c0-6.4,0-13.4,0-20.4c0-7.2,0-14.3,0-20.8h-5.6l0.1-3.2v-60.7h4.5l-13-14.6h-1l-10.4,9.2v5.5h5.6
		l-0.1,1.3c0,10.2,0,20.5,0,30.8c0,10.3,0,20.6,0,30.9v0.5L30.8,205.2z"/>
	<polyline class="st5" points="47.9,124.5 68.9,124.5 68.9,142 62.8,142 47.9,125.5 	"/>
	<path class="st7" d="M69.3,142.5h-6.8l-15.1-16.8V124h21.9 M63,141.6h5.4V125H48.4v0.4L63,141.6z"/>
	<path class="st2" d="M23.5,115.8c0,0.4-1.2,0.8-2.7,0.8c-1.5,0-2.7-0.3-2.7-0.8c0-0.4,1.2-0.8,2.7-0.8
		C22.3,115.1,23.5,115.4,23.5,115.8"/>
</g>
<g>
	<circle class="st8" cx="356.9" cy="156.3" r="129.8"/>
	<g>
		<path d="M416.6,50.6v37.8l-7.2-41.6c-4.9-2.4-10-4.4-15.3-6.1v117.5h15.3V90.5l7.2,41.6v27.3c0,12.2-3.4,23-15.5,30.8
			c-12.1,7.8-14.2-23.9-14.2-23.9V38.7c-5-1.3-10.1-2.2-15.3-2.8V142c0,2.8-6.8,3.3-6.8-0.2V93.5h-15.3v31.6c0,7.1-6.8,6.8-6.8,0.3
			V54.1c0,0,0.1-2.6,3.4-2.6c3.3,0,3.4,2.9,3.4,2.9v22.7h15.3V49.3c0-2.5-2.5-15.5-19.8-13.6c-15.5,1.7-17.7,11.6-17.7,14.6v100.6
			c0,3.6-6.5,3.9-6.5,0.9v-111c-5.3,1.7-10.4,3.7-15.3,6.1v101.7c0,5.4-6.8,7.8-6.8,3.9v-102c-5.4,3-10.5,6.4-15.3,10.2v106.2
			c0,12.7,14.9,60.1,75.2,60.1c57.5,0,73.4-51.3,73.4-63.4V60.9C427,57.1,421.9,53.6,416.6,50.6z"/>
		<path d="M355.8,146.5c-30.5,0-55.2,24.7-55.2,55.2c0,30.5,24.7,55.2,55.2,55.2c30.5,0,55.2-24.7,55.2-55.2
			C411,171.2,386.3,146.5,355.8,146.5z"/>
		<path class="st8" d="M355.8,149.1c18.7,0,35.1,9.8,44.4,24.5c-10.5,0.7-27.1,5.9-41.7,18.2c-15.5-14.1-34-20.1-45.2-20.9
			C322.9,157.8,338.3,149.2,355.8,149.1z"/>
		<path class="st8" d="M303.3,201.7c0-10.4,3.1-20.1,8.3-28.3c10.3,0.3,29.2,5.9,45,20.1c-12.8,11.6-23.5,29-26.3,54
			C314.2,238.6,303.3,221.5,303.3,201.7z"/>
		<path class="st8" d="M332.8,248.9c2.4-25,13.1-42.2,25.7-53.5c11.9,11.5,21.7,28.2,24,51.6c-7.8,4.6-16.9,7.3-26.6,7.3
			C347.6,254.2,339.8,252.3,332.8,248.9z"/>
		<path class="st8" d="M384.9,245.4c-2.6-23.3-12.4-40.1-24.5-51.8c14.7-12.4,31.6-17.2,41.3-17.4c4.2,7.5,6.6,16.2,6.6,25.5
			C408.4,220,399.1,236,384.9,245.4z"/>
		<path d="M461.4,94.9v28.7l-6.7-39c-4.5-6.3-9.7-12-15.3-17.3V193l0,14.8c9.8-15.2,15.4-33.2,15.4-52.6l-0.1-5.7v-21.3l6.3,36.4
			c-4.8,52.8-49.5,94.3-103.6,94.3c-56.3,0-102.3-44.9-103.8-100.9h7.4c0.5,18.4,6,35.5,15.2,50l0-141.4c-5.6,5.2-10.8,10.8-15.3,17
			v64.6h-7.3V94.7c-10.4,17.8-16.3,38.5-16.3,60.5c0,66.4,53.8,120.2,120.2,120.2c66.4,0,120.2-53.8,120.2-120.2
			C477.6,133.3,471.7,112.6,461.4,94.9z"/>
	</g>
</g>
</svg>
