<svg xmlns="http://www.w3.org/2000/svg" viewBox="0 0 722.1 824"><title>kb</title><path d="M696.6,83a23.2,23.2,0,0,0-3.5-5.6,34.1,34.1,0,0,0-7.5-6.7C602.3,22.2,499.8,1.6,402.5,1.4h0c-97.3.2-199.8,20.8-283.1,69.3a34.1,34.1,0,0,0-7.5,6.7h0a23.2,23.2,0,0,0-3.5,5.6C-114.8,599,402.5,803.6,402.5,803.6S919.8,599,696.6,83Z" transform="translate(-41.5 10.9)" fill="#fff"/><path d="M402.5,5.1c95.9.2,196.9,20.5,279,68.3a33.6,33.6,0,0,1,7.4,6.6,22.9,22.9,0,0,1,3.5,5.5c220,508.6-289.8,710.3-289.9,710.3S-107.4,594.2,112.6,85.6a22.9,22.9,0,0,1,3.5-5.5,33.6,33.6,0,0,1,7.4-6.6c82.1-47.9,183.1-68.2,279-68.3h0m-16-16v.2A653.4,653.4,0,0,0,254.2,5.8c-51.4,12-98.1,30.1-138.8,53.8l-.4.2-.4.2a49.6,49.6,0,0,0-10.9,9.8,38.9,38.9,0,0,0-5.8,9.3c-67.1,155.1-74.4,298-21.8,424.9,20.4,49.3,50,96.1,88,139.1,30.2,34.3,65.8,66.2,105.7,95,67.9,49,124.4,71.6,126.8,72.5l5.9,2.3,5.9-2.3c2.4-.9,59-23.6,126.9-72.6,39.9-28.8,75.5-60.7,105.7-95,38-43,67.5-89.8,88-139.1,52.6-126.9,45.2-269.9-21.8-424.9a38.9,38.9,0,0,0-5.8-9.3,49.6,49.6,0,0,0-10.9-9.8l-.4-.2-.4-.2C648.9,35.9,602.2,17.8,550.8,5.8A659.2,659.2,0,0,0,402.5-10.9Z" transform="translate(-41.5 10.9)" fill="#511256"/><path d="M395.8,275.2A155.1,155.1,0,1,0,551,430.4,155.2,155.2,0,0,0,395.8,275.2Zm96.3,41.4-.2.4a88.6,88.6,0,0,0-18,38.5l-.6.4a156.3,156.3,0,0,1-64.3,19l.3-.3c6.8-8,12.1-20.7,12.9-43.2.8-24.7-8.5-41.3-14.2-49.1l-.4-.4A148.5,148.5,0,0,1,492.2,316.6ZM395.7,479.3h0c-35.4.1-62.3,10.4-79.5,19.9l-.3-.4c-3.5-5.2-11.8-20.8-10.7-48.5l.7.4C326.2,461.2,361.5,467,396,467s70.3-6,90.5-16.6v.6c.9,27.9-7.7,43.3-11,48.1h-.3c-17.3-9.5-44.1-19.7-79.3-19.8h-.3ZM396,461c-59.7,0-101.3-16.2-101.3-30.6s41.6-30.6,101.3-30.6,101.3,16.2,101.3,30.6S455.7,461,396,461Zm90.5-50.7-.4-.2c-20.3-10.5-55.6-16.3-90.1-16.3s-70.6,6-90.8,16.7v-1.2c-.8-27.7,7.8-43,11-47.7l.8.4c17.3,9.4,43.9,19.4,78.7,19.5h.3c35-.1,61.7-10.2,79-19.6l.5-.2C478.8,366.4,487.6,382,486.5,410.3Zm-94.2-129h7.1l.4.5c2.6,2.8,17.2,20.1,16.3,49.3-.9,27.4-9.2,38.5-15.7,43.9l-.4.3h-8.2l-.3-.3c-6.6-5.4-14.9-16.5-15.8-43.9s13.2-45.9,16.2-49.2Zm-8.3.4-.2.4c-5.7,7.8-15.1,24.5-14.3,49.2.7,22.4,6,35.1,12.7,43.1l.4.5a156.4,156.4,0,0,1-63.8-18.8l-1.1-.6a88.6,88.6,0,0,0-17.9-38.3l-.5-.5A148.5,148.5,0,0,1,384,281.7ZM307.4,550.2l-1.4-.9a148.9,148.9,0,0,1-11.1-228.6l.4.4c4.2,5.2,13.4,18.4,16.6,36-3.2,4.2-12.9,19.4-12.9,48.2q0,3.9.2,8v.7c-6.7,4.7-10.6,10.2-10.6,16.4s3.7,11.3,10.1,16l.6.5c-.2,3-.3,5.9-.3,8.6,0,28.3,9.4,43.5,12.7,48a110.2,110.2,0,0,0-5.4,33.4A86.3,86.3,0,0,0,307.4,550.2Zm8.4,5.9-1.3-.9c-5.1-20.7.4-41.9,2.6-48.9l.3-.9a155.9,155.9,0,0,1,64.1-19.5h1.2c-6.8,8-12.3,20.7-13.2,43.5s3.1,37.7,7,48.3v.5A148.1,148.1,0,0,1,315.8,556.1ZM407.9,579q-6,.5-12.1.5t-12.2-.5l-.2-.4c-4-9.8-8.7-26.4-7.9-49,1-28,9.5-38.9,16.1-44.2H400c6.6,5.3,15,16.3,16.1,44.2.8,22.4-3.8,39-7.8,48.8Zm69.2-23.8-.6.5a148.2,148.2,0,0,1-61.6,22.6v-.6c3.9-10.6,7.8-26.9,7-48.3S415.8,493.9,409,486h1.1a156,156,0,0,1,63.8,19.3l.3.2C476.2,511.6,482.5,533.7,477.1,555.2Zm7.8-5.4-.6.5a86.3,86.3,0,0,0,1-13.6,110.1,110.1,0,0,0-5.4-33.4c3.3-4.5,12.7-19.6,12.7-48q0-3.8-.2-7.8v-.6c6.9-4.8,11-10.3,11-16.6s-3.8-11.5-10.4-16.2l-.6-.4q.3-4.4.3-8.5c0-28.8-9.7-44-12.9-48.2,3.2-17.6,12.4-30.7,16.6-36l.4-.5a148.9,148.9,0,0,1-11.8,229.2Z" transform="translate(-41.5 10.9)" fill="#024187"/><path d="M628.5,427.2c0-124.8-101.2-226-226-226s-226,101.2-226,226a225.7,225.7,0,0,0,94.1,183.5l-24.4,43L273.5,670c39.9,23.4,86.2,30.6,122.3,29.7,36.1.9,82.4-6.2,122.3-29.7l27.3-16.3-20.7-36.4A225.8,225.8,0,0,0,628.5,427.2Zm-226,201.5C291.2,628.7,201,538.5,201,427.2s90.2-201.5,201.5-201.5S604,315.9,604,427.2,513.8,628.7,402.5,628.7Z" transform="translate(-41.5 10.9)" fill="#024187"/><path d="M161.2,300.2h484C550,118.3,278.1,88.1,161.2,300.2Z" transform="translate(-41.5 10.9)" fill="none"/><path d="M110.9,479.8h50V300.9l.4-.7H110.9Z" transform="translate(-41.5 10.9)" fill="#024187"/><path d="M692.7,300.2H645.3l.4.8.8,178.7h47.6l-1-178.7Z" transform="translate(-41.5 10.9)" fill="#024187"/><path d="M110.9,300.2h50.4c116.9-212.1,388.7-181.9,484,0h47.4C578.2,81.4,251,44.5,110.9,300.2Z" transform="translate(-41.5 10.9)" fill="#511256"/><path d="M470.4,92.7a10.1,10.1,0,0,0,4.2-8.8c0-2.8,0-10.1-20.4-10.1h-8V96.4h10.3C462.5,96.4,467.2,95.2,470.4,92.7Z" transform="translate(-41.5 10.9)" fill="none"/><polygon points="359.8 164.8 359.8 76.3 330 117.9 359.8 164.8" fill="none"/><path d="M476.2,133.1c-3.6-2.5-9-3.8-16-3.8H446.1v26.1H460c6.9,0,12.3-1.4,16-4a10.9,10.9,0,0,0,4.8-9.5A9.9,9.9,0,0,0,476.2,133.1Z" transform="translate(-41.5 10.9)" fill="none"/><path d="M515.9,116.7a44.1,44.1,0,0,0-13.9-8.5,46.5,46.5,0,0,0,9.2-7c6.6-6.5,10-14.2,10-23,0-12-5.5-21.4-16.3-28s-24.3-9.1-42.4-9.1H364.1l-36.8,50v-50H277.6V187.7h49.7V127.5l38.8,60.2h99.6c19.2,0,33.8-3.8,44.4-11.5s17.3-19.7,17.3-33.9A33.4,33.4,0,0,0,515.9,116.7ZM401.3,153.9,371.5,107l29.8-41.6Zm44.8-80h8c20.4,0,20.4,7.3,20.4,10.1a10.1,10.1,0,0,1-4.2,8.8c-3.2,2.4-7.9,3.6-14,3.6H446.1ZM476,151.4c-3.7,2.7-9,4-16,4H446.1V129.3h14.1c7,0,12.3,1.3,16,3.8a9.9,9.9,0,0,1,4.6,8.8A10.9,10.9,0,0,1,476,151.4Z" transform="translate(-41.5 10.9)" fill="#511256"/><path d="M409,46.1h53.6q25.9,0,39.8,8.4t13.9,23.7q0,11.1-8.5,19.4t-21.6,11.6v.4q16.5,1.8,26.4,10.8a28.5,28.5,0,0,1,9.9,21.9q0,18.8-15.2,29.9c-10.1,7.4-23.9,10.6-41.5,10.6H368.9l-46.5-72.2v72.2H282.6V46.1h39.7v60.2l44.3-60.2H409M406.3,171V49.9l-40.8,57L406.3,171m34.8-69.6h15.3q10.8,0,17-4.6A15.1,15.1,0,0,0,479.6,84q0-15.1-25.4-15.1h-13v32.5m0,59.1H460q12.1,0,18.9-5a15.9,15.9,0,0,0,6.8-13.6A14.9,14.9,0,0,0,479,129q-6.7-4.7-18.8-4.7H441.1v36.1M409,36.1H361.6l-3,4.1L332.3,75.8V36.1H272.6V192.7h59.7v-10l7.5-8.5,20.6,13.9,3,4.6H465.7c20.3,0,35.8-4.1,47.4-12.5s19.3-22.3,19.3-38c0-11.5-4.4-21.3-13.1-29.3a47.1,47.1,0,0,0-7.4-5.5l3-2.7c7.6-7.5,11.5-16.4,11.5-26.5,0-13.7-6.5-24.9-18.7-32.3s-25.7-9.9-45-9.9Zm42.1,42.8h3c8.7,0,12.5,1.5,14,2.4s1.5,1.1,1.5,2.7-.8,3.7-2.2,4.8-6,2.6-11,2.6h-5.3V78.9Z" transform="translate(-41.5 10.9)" fill="#fff"/><path d="M279.4,655.8l12.7-25c3.9,2,5.8,2.9,9.7,4.7s5.1,2.9,6.3,4.6a5.5,5.5,0,0,1,.7,5.5,5.4,5.4,0,0,1-3,3,8.7,8.7,0,0,1-4.9.5h0a9.4,9.4,0,0,1,4,4.1,5.9,5.9,0,0,1,.2,4.9,7,7,0,0,1-5.2,4.5c-2.5.6-5.6.1-9-1.4S284,658.1,279.4,655.8Zm16.7-17.8-2.8,6,2.8,1.3a5.3,5.3,0,0,0,3.5.5,3.1,3.1,0,0,0,2.2-1.9c.8-1.9-.3-3.5-3.3-4.9Zm-4.9,10.2-3.2,6.7,3.6,1.7a6.6,6.6,0,0,0,4,.7,3.2,3.2,0,0,0,2.4-2,3.1,3.1,0,0,0-.2-3,6.8,6.8,0,0,0-3.1-2.4Z" transform="translate(-41.5 10.9)" fill="#fff"/><path d="M333.1,676.2l-8.1-2.3c-1.1-3.3-1.7-5-2.7-8.4l-.6-1.7a8.8,8.8,0,0,0-.6-1.4,4.1,4.1,0,0,0-.8-1l-1.1-.6-1.8-.6L314,670.4l-6.9-2.5,9.8-26.2,9.9,3.4c6.7,2.2,9.5,5.5,8.1,10.4a7.3,7.3,0,0,1-1.2,2.5,7.2,7.2,0,0,1-1.9,1.8,8.3,8.3,0,0,1-2.6,1,11.4,11.4,0,0,1-3.1.3h0a4.7,4.7,0,0,1,1.1,1l.9,1.3.8,1.5.6,1.5C330.8,670.4,331.6,672.3,333.1,676.2Zm-11.6-27.8-2.5,7.4,2.8,1a5.1,5.1,0,0,0,3.8,0,3.7,3.7,0,0,0,2.2-2.4c.7-2.3-.4-4-3.4-4.9Z" transform="translate(-41.5 10.9)" fill="#fff"/><path d="M355.1,680.9c-7.7-1.3-11.5-2.1-19-4l6.8-27.2c6.5,1.6,9.8,2.3,16.4,3.5l-.9,5.1-10.2-2-1.3,6.1,9.7,1.9-.9,5-9.9-2-1.4,6.3c4.7,1,7,1.5,11.7,2.3Z" transform="translate(-41.5 10.9)" fill="#fff"/><path d="M373.3,655.3l-.6,4.9-2.5-.3L368,677.9l2.6.3-.6,4.9c-5-.6-7.6-.9-12.6-1.7l.8-4.8,2.6.4,2.8-18-2.4-.4.8-4.8C366.5,654.4,368.8,654.7,373.3,655.3Z" transform="translate(-41.5 10.9)" fill="#fff"/><path d="M374.7,683.6l1.1-11.4-3.5-.4.6-5.2,3.4.4,1.1-11.3,10.2.8c10.2.6,15.4,4.9,15.5,14a12.7,12.7,0,0,1-4.5,10.5c-3.1,2.6-7.3,3.8-12.5,3.5Zm8.8-22.2-.4,6.2,5.7.3-.2,5.2-5.8-.3-.4,6.3,3.5.2a9.8,9.8,0,0,0,7.3-2.2,8.6,8.6,0,0,0,2.7-6.6,8.3,8.3,0,0,0-2.3-6.4,10,10,0,0,0-6.8-2.6Z" transform="translate(-41.5 10.9)" fill="#fff"/><path d="M436.5,682.4l-7.2.9L428,671.9c-5.1.6-7.6.8-12.8,1.1l.7,11.4-7.3.3-.9-28,6.5-.3.6,11.2c5-.3,7.5-.5,12.5-1l-1.2-11.1,6.5-.8Z" transform="translate(-41.5 10.9)" fill="#fff"/><path d="M457.3,679.2c-4.5,1-8.5.4-11.8-1.7a12.8,12.8,0,0,1-5.8-9.4,14.6,14.6,0,0,1,12-17.3A14,14,0,0,1,469,661.2c1.2,4.2.8,8-1.4,11.4S462,678.2,457.3,679.2Zm-4.7-23.1a7.1,7.1,0,0,0-5,3.6,10,10,0,0,0-.8,6.9,9.3,9.3,0,0,0,3.4,6.1,7.3,7.3,0,0,0,6.2,1.2,7.4,7.4,0,0,0,5.2-3.6,9.2,9.2,0,0,0,.5-6.9,10.5,10.5,0,0,0-3.6-6.1A6.8,6.8,0,0,0,452.6,656.1Z" transform="translate(-41.5 10.9)" fill="#fff"/><path d="M496.4,667c-7.3,2.8-11,4.1-18.4,6.3l-8.1-26.8,6.3-2,7.3,21.7c4.5-1.5,6.7-2.3,11.2-4Z" transform="translate(-41.5 10.9)" fill="#fff"/><path d="M511.2,635.4l-7.8,3.8,9.7,20.7-6.8,3.1-9.1-21-7.9,3.2-1.9-4.8a199.1,199.1,0,0,0,21.4-9.6Z" transform="translate(-41.5 10.9)" fill="#fff"/></svg>