<svg xmlns="http://www.w3.org/2000/svg" viewBox="0 0 548.9 578.9"><title>keflavik</title><path d="M520.9,395.9l-64.7-67.1A241.1,241.1,0,0,0,436.6,48l-.9-1.1h.5l-9.5-10.1a241.2,241.2,0,0,0-352,0L65.2,46.8h.5A241.4,241.4,0,0,0,43.9,326.5l-64.8,67.2-3.6,3.7,3.1,4.1.7.9,3.1,4.1c1.6,2.2,3.3,4.4,5,6.6a340.2,340.2,0,0,0,53.8,53.5,337.2,337.2,0,0,0,417.5,1.1,340.3,340.3,0,0,0,53.7-52.8c2.8-3.4,5.4-6.8,8.1-10.3l.7-.9,3.2-4.1Z" transform="translate(24.5 39.5)" fill="#fff"/><polygon points="98.9 83.7 189.1 138.2 90.7 391.8 163.6 391.8 189.2 324.1 255.8 263.7 362.3 391.9 461.6 391.9 308.5 218.1 455.1 83.7 364.4 83.7 246.4 187 281.6 83.7 98.9 83.7 98.9 83.7" fill="#051939" fill-rule="evenodd"/><path d="M250.7-35.3A234.8,234.8,0,0,1,422.4,39h-9A228.9,228.9,0,0,0,88.1,39h-9A234.8,234.8,0,0,1,250.7-35.3ZM-8,396.6a324.9,324.9,0,0,0,516,2.1l-63-65.4q-3.9,5.6-8,11l-4.4-5a228.9,228.9,0,0,0-5.2-285L432,50a235.4,235.4,0,0,1,16.6,277.8l68,70.5-.7.9c-2.6,3.4-5.3,6.8-8,10.2A331.4,331.4,0,0,1-7.9,407.5c-2.8-3.4-5.3-7.1-8-10.6l-.7-.9,68-70.6A235.4,235.4,0,0,1,70.9,48.2l5.6,3.4a228.9,228.9,0,0,0-9.8,284.9l-2.8,7.1q-4.7-6.1-8.9-12.4L-8,396.6Zm433.8-39a236.7,236.7,0,0,1-35.4,32.1l2.6-10.2a230,230,0,0,0,23.9-21.9Zm-54,44.5A235.4,235.4,0,0,1,75.7,357.5h8.8A228.9,228.9,0,0,0,372,394.4l-.2,7.7Z" transform="translate(24.5 39.5)" fill="#051939" fill-rule="evenodd"/><path d="M134.2,39c8.8-11.3,14.5-26.6,28.5-32.3a35.2,35.2,0,0,1,12.8-2.5,64.4,64.4,0,0,1,11.1.9c7.8,1.2,18.1,4.1,25.9,2.1,16.5-4.2,24.1-19.5,43.3-19.7,7.8-.1,14.1,2.4,20.4,6.8s13.4,12.1,22,14.3,20.4.9,30,.7,20.1.8,29.3,6.2S369.6,30.3,373.6,39h-8.4c-2.7-6-6-13.5-11.6-16.7-17.5-10.2-38.6-1.1-57.3-6.1-16.2-4.2-23.7-21-40.4-20.8A27,27,0,0,0,242.7-.9c-10.1,5.6-16.3,12.7-28.3,15.8-16.1,4.1-33.2-7.2-48.8-.9a20.1,20.1,0,0,0-3.1,1.6c-7.7,4.8-13,14.6-19,23.5ZM412.5,67.8A41,41,0,0,1,427,79.4a31.3,31.3,0,0,1,5,9.4c2,5.9,2.4,12.1,2.4,18.3s-.8,17,1.5,23.9c4.6,13.9,12.9,18.6,20.7,29.4a34.7,34.7,0,0,1,6.8,18c2.2,25.5-13.2,27.8-15.7,47.9-2.2,17.4,9.4,37.6.8,54.8a42.3,42.3,0,0,1-9.4,12.2c-5.1,4.7-11.1,8.4-16.8,12.4a89.3,89.3,0,0,0-11.3,9.3l-5.2-5.8a98.1,98.1,0,0,1,11.9-9.8c5.3-3.8,11.2-7.3,16-11.8a34.5,34.5,0,0,0,7.7-10,19.6,19.6,0,0,0,1.1-2.8c4.4-13.7-4.7-33.8-2.7-49.5,1.3-10.5,4.9-15.7,10.4-24.3s6.1-13.1,5.3-22a26.9,26.9,0,0,0-5.3-14.1c-3.2-4.5-7.4-8.5-11-12.7a55.4,55.4,0,0,1-10.8-18.8c-5-15.3,2.5-36.2-7.6-49.2a33.7,33.7,0,0,0-13.1-10l-1.5-.7,6.2-5.6Zm-20,289.8a28.5,28.5,0,0,1-5.9,6.9c-13.6,11.6-33.5,6.4-48.9,12.9-18,7.7-23.3,24.8-44.5,29.6-8.7,2-16.4.8-24.6-2.3-6.3-2.4-12.6-5.8-19.1-7.4a27.4,27.4,0,0,0-5.4-.8c-18.3-.7-28.5,13-48.9,7.7a39.9,39.9,0,0,1-14.4-7.2c-10.2-7.8-18.1-21.2-28.6-27.3-4.4-2.5-11.6-3-16.6-3.5-7.4-.7-16.3-1.5-22.2-6.5l-2.1-2.1h17.6c8.8,1.4,20,1.3,27.2,5.4,15.3,8.8,23.5,29.2,41.1,33.8,6.5,1.7,11.9,1.1,18.2-1,10.4-3.4,17.5-7.4,29.1-7,17,.6,29.2,14.8,47.2,10.7,7.1-1.6,12.3-4.9,17.6-9.8,8.7-7.8,14.3-14.7,25.5-19.5,5.7-2.4,11.8-3.4,17.9-4.1,9.2-1.1,21.6-1.3,29-7.5l1-.9ZM81.3,299l-6-4.4c-10.8-7.9-18.2-15.3-22.7-28.3s-3.8-22.2.1-34.2c1.8-5.7,3.3-11.2,2.8-17.2-1.4-16.5-16.4-30.7-13.9-48,3.3-22.8,22-26.1,29.4-44.2,2.5-6.2,2.8-14.5,3.1-21.1.5-9.6,1.2-21,7.3-28.9A38.3,38.3,0,0,1,94.2,62.2l7.9,4.8c-5.8,2.7-11.2,5.9-14.6,10.3-8.2,10.6-3.7,34.2-9.3,48.2-4.9,12-12.4,16.7-20.6,25.6-4.6,5-7.3,10-8.3,16.8a19.8,19.8,0,0,0-.2,3.6c.3,7.8,5.2,16.6,8.4,23.7s5.1,12.2,5.7,18.9c1.6,18-9.6,31.3-3.3,49.5,4.4,12.4,14.3,19.9,24.4,27.5l-3,7.7Z" transform="translate(24.5 39.5)" fill="#df1f26" fill-rule="evenodd"/><path d="M92,271.6c-5-6-9.1-12.5-11.3-20.5-3.8-14.4,6.3-25.9,5.5-39-.9-15.2-14.9-26-12.7-41.9,1.1-7.4,3.5-13.2,8.6-18.7,7.2-7.8,12.4-10.6,17.2-21.1,1.6-3.4,1.9-8.2,2.2-11.9.4-5.4.6-10.7,1.8-16a35,35,0,0,1,5.4-12.9,43.5,43.5,0,0,1,12-11.5l7.5,4.5c-5,2.9-9.6,6.4-13.1,11.4-8.1,11.6-3.2,27.7-8.6,39.5a52.2,52.2,0,0,1-9.7,14.4c-2.9,3-6.1,5.7-8.9,8.8s-5.8,8.7-6.7,14.5a17.9,17.9,0,0,0,.3,6.6c1.1,5,4.1,10,6.4,14.6,3.1,6.2,5.6,12.1,6,19.1a32.3,32.3,0,0,1-.2,5.6c-1.2,10-8.1,22.3-5.6,31.8a43.1,43.1,0,0,0,7,14L92,271.6ZM170.2,39a31,31,0,0,1,9.3-6.3c13.4-5.8,27.6,3.9,41,.7S241.1,16.8,255,16.8c16.7,0,24.6,14.9,38.4,18.4s31.9-4.5,46.4,3.3l.8.5H338l-5.6,4.9c-11.4-3.1-28.7,2-40.9-1.1a33.5,33.5,0,0,1-6.4-2.4c-9.7-4.8-19.2-15.8-30-15.8a13.9,13.9,0,0,0-4.2.7c-4.3,1.4-8.6,4.7-12.2,7.3A60.9,60.9,0,0,1,227.9,39H194.7a29.2,29.2,0,0,0-9.4,0ZM392.7,86a35.1,35.1,0,0,1,10.9,11.3c7,11.8,3.4,21.3,4.1,33.5a26.5,26.5,0,0,0,1.1,6.5c5.2,16.7,23.7,26.6,24,44.9.2,15.2-11.6,25.6-14.7,40.1s8.8,28.4,2.5,44.3c-3.2,8.2-12.5,14.3-19.5,19-2.8,1.9-6.5,4.2-9.8,6.7l-5.1-5.8c10-7.7,23.9-14.6,27.2-22.9,5-12.5-6.1-28.2-2.9-43.1a65,65,0,0,1,6.8-17c2.3-4.3,4.9-8.7,6.5-13.3a23.9,23.9,0,0,0,1.3-8,20,20,0,0,0-1.4-6.9c-2.2-5.7-6.7-11-10.5-15.7-4.9-6.2-9.4-12.4-11.8-20.1-4-12.9,2.4-26.8-4.5-38.3a26.6,26.6,0,0,0-6.5-7.3,39.5,39.5,0,0,0-3.6-2.5l5.9-5.4ZM327.6,348.2a29.8,29.8,0,0,0-4,1.5c-5.7,2.7-11,9.4-15.4,13.9s-10.4,9.7-17.4,11.7a30.7,30.7,0,0,1-17-.2c-8.7-2.4-17.8-8.6-26.8-8.8-7.3-.2-14.1,2.8-21,4.9s-13.8,2.9-21.2.9-14-6.5-19.8-12.5-11-13.6-18.6-18.3c-4.6-2.9-10.3-3.5-16.1-4.1l2.8-7.3c6.1.8,12.4,1.8,17.4,4.9,14,8.7,20,25.4,36.3,29.9,13.9,3.8,25.9-6.4,40.3-6s27.2,13.3,41.5,9.3c12.6-3.5,19.5-19.3,31.6-25l2-.9,5.3,6.4Z" transform="translate(24.5 39.5)" fill="#df1f26" fill-rule="evenodd"/><polygon points="159.8 475.4 138.9 463.1 132.9 473.3 148.6 482.5 143.1 491.7 127.4 482.5 121 493.3 142 505.6 136.2 515.4 103 495.8 132.2 446.5 165.4 466 159.8 475.4 159.8 475.4" fill="#051939"/><polygon points="215.1 495.3 191.6 487.5 187.5 499.6 205.4 505.6 202 515.7 184.1 509.8 176.9 531 163.1 526.4 181.5 472.1 218.7 484.5 215.1 495.3 215.1 495.3" fill="#051939"/><path d="M218.3,494.8l23.6,2.9-1.4,11.3-37.7-4.6,6.9-56.9,14.1,1.7Z" transform="translate(24.5 39.5)" fill="#051939"/><path d="M290.2,447.5,319,501.4l-14.9,2L297.7,492l-22.7,3.2-2.1,12.5-12.1,1.7,13.5-59.7,16-2.1Zm-13.7,36.8,15.8-2.2-11-21.1-4.8,23.3Z" transform="translate(24.5 39.5)" fill="#051939"/><polygon points="390.7 463.7 395.4 523.5 381.5 529.4 341.7 484.2 356.6 478.4 383.6 510.3 379.8 468.3 390.7 463.7 390.7 463.7" fill="#051939"/><polygon points="442.4 427.8 462 447.9 458 412.7 469.4 401.5 471.1 437.1 511.1 441.6 499.3 453.9 463.2 449.1 481.7 469.5 471.7 478.9 432.4 437.2 442.4 427.8 442.4 427.8" fill="#051939"/><polygon points="92.2 411.1 72.7 431.3 107.8 426.2 119.3 437.3 83.8 440 80.5 480.1 67.9 468.7 71.6 432.5 51.8 451.7 42 442 82.5 401.4 92.2 411.1 92.2 411.1" fill="#051939"/><path d="M390.9,409,423,456.5l-11.6,7.8-32.1-47.5,11.6-7.8Zm-14-17.3,9.1-6.9-6.2,22.6-3.5,2.3.6-18Z" transform="translate(24.5 39.5)" fill="#051939"/></svg>