<svg xmlns="http://www.w3.org/2000/svg" viewBox="0 0 371.8 425.2"><title>kf</title><path d="M78.3,74.8,96.4,54.6c41.9,7.3,73.4,10.1,96.4-15.6,17.7,19.3,38.7,22.4,57.6,22.3s36.3-2.5,55.7-23.3c15.3,18.9,43.4,28.5,95.1,16l20,20.2c-36.1,56.5-32.1,124.7,14.6,207.1l-18.7,17.9c7.5,102.5-64.8,142.8-138.4,148.3L250,463.2l-27.4-15.8c-88.9-6.8-147.6-54.7-140-149L64,281.9c45.8-83.3,49.6-152.3,14.3-207.1Zm0,0" transform="translate(-64 -38)" fill="#000200" fill-rule="evenodd"/><path d="M305.9,52.6c-16.1,14.2-32.6,18.9-55.5,19s-41.3-4.5-57.6-18.3c-26.1,21.7-60,17.9-92.6,12.5L91.1,76a157.4,157.4,0,0,1,11.8,25.3c21.6,60,2.6,124-26,178.3l16.3,14.6-.4,5.1c-2.7,33.9,3.1,68.3,26.3,94.4,26,29.2,66.5,40.6,104.2,43.5l2.3.2,24.4,14,25.7-14.1,2.2-.2c31.1-2.3,63.8-11.3,88.6-31,33.3-26.5,43.2-65.1,40.3-106.2l-.4-4.8,16.4-15.8c-28.1-51.6-47-111.5-29.3-169.8a161.9,161.9,0,0,1,14.7-33.8L397.9,65.3c-30.9,6.8-67.4,8.7-92-12.7Zm0,0" transform="translate(-64 -38)" fill="#2d3b80" fill-rule="evenodd"/><path d="M248.8,450.6l-1.7-50.9-18.4,10.7,22.4-102.5L234,324l5.7-67,16.1,1.3-3.3,25.8L282.9,254,250.1,378.6l17.1-12.1-16.1,84.3-1,.5Zm0,0" transform="translate(-64 -38)" fill="#fbe430" fill-rule="evenodd"/><path d="M251.3,433.7l11.6-60.3-17.7,12.5L277.2,264l-28.9,28.5,4.1-31.4-9.9-.8-4.8,56.1L256.2,299,233.1,404.3l16.8-9.8Zm0,0" transform="translate(-64 -38)" fill="#e30822" fill-rule="evenodd"/><path d="M251.3,88.2a92.7,92.7,0,1,1-85.7,57.2,92.7,92.7,0,0,1,85.7-57.2Zm0,0" transform="translate(-64 -38)" fill="#000200" fill-rule="evenodd"/><path d="M251.3,91.8a88.7,88.7,0,0,1,37.3,8.2,78.3,78.3,0,0,0-10.7,2.6c-15.7-5.7-35.9-6.3-51.6-.3-3.5-1-7.1-2.1-10.8-3a88.7,88.7,0,0,1,35.7-7.5Zm40.2,9.6A89.3,89.3,0,0,1,313,116.7c1.2,4.4,2.1,9,2.9,13.5l-9.8,2.6c-6.8-6.8-16-12.7-24.2-17.6l-3-10.9a82.8,82.8,0,0,1,12.7-2.9Zm24,17.8a89.1,89.1,0,0,1,24.1,73.5,83.5,83.5,0,0,0-5.2-11.3h-.1c.2-19.9-5.5-33.7-16.5-50.3-.6-3.9-1.4-7.9-2.4-11.8ZM339,196.6a88.4,88.4,0,0,1-8.1,24.4,38.4,38.4,0,0,1-12.7,7.3l-4-10.1a81.8,81.8,0,0,0,9.5-29.1l9.5-6a73.5,73.5,0,0,1,5.8,13.6ZM328.8,225a89.2,89.2,0,0,1-61,43.5l8.4-8.1h0c19.6-6.7,29.3-15.2,42.4-30.3a41.3,41.3,0,0,0,10.2-5.1ZM264.6,269a89.8,89.8,0,0,1-28.8-.3l-8.8-9.8,7.7-7.1a102.7,102.7,0,0,0,32.4.3l7.1,7.6Zm-31.7-.9a89.2,89.2,0,0,1-60.1-45,66,66,0,0,0,10.5,6.3c13,15,22.7,23.6,42.1,30.2Zm-62.2-49.1a88.5,88.5,0,0,1-7.7-25.7,77.7,77.7,0,0,1,6.8-11.3l8.7,4.7c.8,11.1,4.2,21,9.4,30.8l-4.6,9.8a54.8,54.8,0,0,1-12.6-8.4Zm-8.1-29a89.8,89.8,0,0,1-.5-9.2,88.8,88.8,0,0,1,24.1-60.9,80.2,80.2,0,0,0-1.6,10.8c-11.1,16.8-16.2,29.7-16.3,49.9h0a85,85,0,0,0-5.8,9.2Zm26-72.5a89.3,89.3,0,0,1,24.1-17c4.2.8,8.5,2.1,12.5,3.3l-3.4,10h-.1c-7.1,4.6-14.2,9.4-20.3,15.2l-.7.6,1.3,1.3.7-.6c6-5.8,13-10.5,20-15,9.2,2.8,19.1,5.3,28.2,8.6v23.1l-6.9,4.1c-8.3,5.3-17.7,12.3-24.5,19.5-6.5-3.1-13.3-5.5-19.8-8.6l-.5-.3-.5.4c-8,6.6-13.8,14.1-19.5,22.6l-9-4.9c.2-19.3,5-31.7,15.6-47.7l13.3.9v-1.8l-12.7-.9a81.4,81.4,0,0,1,2.2-13.2Zm117.8,17a231.2,231.2,0,0,1-.1,29.1A100,100,0,0,1,323,187.3l9.5-6c.2-19.5-5.4-33-16.2-49.4Zm-25.8-17.9c-9.5,2.1-18.8,4.6-28.1,7.5v23.3c10.6,5.9,21.9,14.6,31,22.5a139.4,139.4,0,0,1,21-6.5,226.4,226.4,0,0,0,0-29.6c-6.7-6.6-15.8-12.4-23.9-17.3Zm-57-2.6c9.1,2.8,18.9,5.2,27.9,8.6,9.4-3,18.6-5.4,28.2-7.6l-3-10.7c-15.2-5.4-34.6-5.9-49.6-.3Zm9.4,92.9A78.4,78.4,0,0,1,218,226.1l-.2.2c5.1,8.3,10.3,16.4,16.8,23.7a100.6,100.6,0,0,0,32.3.4h.1a151.9,151.9,0,0,0,17.2-23.3l.2-.3h.3c9.2-3.1,18.8-5.7,27.9-9.3a80.1,80.1,0,0,0,9.3-28.3l-.2-.4a98.2,98.2,0,0,0-16.3-23.4,135.8,135.8,0,0,0-21.6,6.7l-.5.2-.4-.4c-9.1-8-20.6-16.9-31.2-22.7l-6.7,4c-8.4,5.3-17.9,12.4-24.6,19.7l-.5.5-.6-.3c-6.5-3.1-13.3-5.6-19.8-8.6-7.7,6.5-13.3,13.8-18.9,22.2l-.2.2c.8,11,4.1,20.7,9.3,30.3,8.9,2.9,17.8,5.7,26.8,8.1l.4-.3a76.5,76.5,0,0,0,15-19.3l.3-.6h.6c14,2.6,30,2.2,44.1.7h.9l.2,1.8h-.9c-14,1.5-29.9,1.9-43.9-.6Zm79.4,12.2c-8.8,3.4-18,5.9-26.9,8.9A153.1,153.1,0,0,1,268.7,251l7.1,7.6c18.8-6.4,28.3-14.7,40.8-29.1Zm-127.7,9.3c12.6,14.5,22,22.8,40.6,29.3l7.6-6.9c-6.6-7.4-11.8-15.6-17-24-9-2.4-17.9-5.2-26.8-8.1Zm0,0" transform="translate(-64 -38)" fill="#fff" fill-rule="evenodd"/><path d="M370.3,154.4l10.8-1.3L344.3,268.8l14-5.9-35.1,82.7,14.3-56.7-10.2,3,32.9-113.9-6.6,1,21.3-73.6Zm0,0" transform="translate(-64 -38)" fill="#fbe430" fill-rule="evenodd"/><path d="M368.9,136.8l-11.1,38.4,6.5-1L331.6,287.4l10-2.9-6,23.8,16.8-39.7-13.1,5.6,37.4-117.5-9.9,1.2Zm0,0" transform="translate(-64 -38)" fill="#e30822" fill-rule="evenodd"/><path d="M129.5,154.4l-10.8-1.3,36.8,115.7-14-5.9L171.7,334l-6.5-33.6-2.9-11.6,10.2,3L139.7,177.9l6.6,1L125,105.3Zm0,0" transform="translate(-64 -38)" fill="#fbe430" fill-rule="evenodd"/><path d="M123,156.6l37.4,117.5-13.1-5.6,16.8,39.7-6-23.8,10,2.9L135.5,174.2l6.5,1-11.1-38.4,1.9,21Zm0,0" transform="translate(-64 -38)" fill="#e30822" fill-rule="evenodd"/><path d="M213.5,165.3l15.7-32.7a7.7,7.7,0,0,0,.9-3.5c0-.7-1.2-1.7-1.8-2.1a5.2,5.2,0,0,1-2.6-4.1v-3.4a2.9,2.9,0,0,1,3.1-3.2h25c2.1,0,3.5,1,3.5,3.2V123a3.9,3.9,0,0,1-.9,2.9,13.4,13.4,0,0,1-3.3,2,25.8,25.8,0,0,0-12.5,12.3l-13.1,26.5,21.1,61.7a21.5,21.5,0,0,0,7.9,10.9c1.6,1.2,3.2,2.9,3.2,5.1v2.8c0,2.2-1.3,3.4-3.5,3.4H228.3c-2.2,0-3.6-1.2-3.6-3.5v-2.6a5.5,5.5,0,0,1,2.1-4.4c.9-.7,2.9-2.3,2.9-3.5a7,7,0,0,0-.5-2.3l-15.7-45.6v45.2a6.8,6.8,0,0,0,2.8,5.9,5.1,5.1,0,0,1,2.6,4.1v3.8c0,1.9-1.3,2.9-3.1,2.9H189.4a2.5,2.5,0,0,1-2.8-2.7v-4a5,5,0,0,1,2.6-4.1,6.6,6.6,0,0,0,2.8-5.9V133a6.6,6.6,0,0,0-2.8-5.8,5.2,5.2,0,0,1-2.6-4.2v-3.7c0-1.9,1.3-2.9,3.1-2.9h26.4a2.5,2.5,0,0,1,2.8,2.7V123a5.2,5.2,0,0,1-2.6,4.2,6.5,6.5,0,0,0-2.8,5.8Zm75.1,23.2v45.3a6.6,6.6,0,0,0,2.8,5.9,5,5,0,0,1,2.6,4.2v3.8c0,1.9-1.3,2.9-3.1,2.9H264.5a2.5,2.5,0,0,1-2.8-2.7v-4a5.1,5.1,0,0,1,2.6-4.1,6.8,6.8,0,0,0,2.8-5.9V133a6.6,6.6,0,0,0-3-5.9,5,5,0,0,1-2.7-4.2v-3.8a2.5,2.5,0,0,1,2.8-2.8h43.9c2,0,4.1-.2,6.1-.3l2.8-.3c.9,0,2.5.1,3.1.8h.1a5,5,0,0,1,.6,2.8v25.4c0,2.1-1.4,3.1-3.4,3.1h-3.3a3.4,3.4,0,0,1-2.7-1c-.6-.9-1-3.5-1.2-4.6-.6-3.4-1.7-8.6-4.4-11.1s-6-2.7-9.2-2.7h-8v48.1h4.7c1.3,0,3.1-.2,4-1.2s2-4.1,2.5-5.7a19.5,19.5,0,0,1,1.6-4.1,3.5,3.5,0,0,1,2.7-.8h3.7c1.9,0,3.1,1,3.1,3v29.3c0,1.7-.9,3.1-2.7,3.1H304a3.3,3.3,0,0,1-2.6-.9A12.3,12.3,0,0,1,300,196c-.4-1.6-1.6-5.4-3.1-6.4a6.2,6.2,0,0,0-3.6-1.1Zm0,0" transform="translate(-64 -38)" fill="#000200" fill-rule="evenodd"/><path d="M318.8,117.8a6.5,6.5,0,0,0-1.8-.2l-2.6.3c-2.1.1-4.2.3-6.3.3H264.2c-.7,0-.9.2-.9,1V123a3.3,3.3,0,0,0,1.9,2.6A8.5,8.5,0,0,1,269,133V233.8a8.6,8.6,0,0,1-3.6,7.4,3.5,3.5,0,0,0-1.8,2.7v4c0,.7.2.9.9.9h26.4c.8,0,1.3-.2,1.3-1v-3.8a3.3,3.3,0,0,0-1.8-2.6,8.5,8.5,0,0,1-3.6-7.4V186.7h6.5a8,8,0,0,1,4.6,1.4c2,1.3,3.2,5.2,3.8,7.4a13.4,13.4,0,0,0,1.1,2.7c.2.2,1,.2,1.2.2h4.2c.8,0,.9-.5.9-1.2V167.8c0-.9-.4-1.2-1.3-1.2H304l-1.3.2a25,25,0,0,0-1.2,3.5c-.6,1.9-1.5,4.8-2.8,6.3s-3.5,1.8-5.3,1.8h-6.5V126.7h9.8c3.7,0,7.6.7,10.4,3.2s4.4,8.2,5,12.1a19.1,19.1,0,0,0,.9,3.8c.2.2,1,.3,1.3.3h3.3c1,0,1.5-.2,1.5-1.3V119.4a6,6,0,0,0-.2-1.6Zm0,0" transform="translate(-64 -38)" fill="#e30822" fill-rule="evenodd"/><path d="M211.7,173.3V133a8.4,8.4,0,0,1,3.6-7.3,3.5,3.5,0,0,0,1.8-2.7v-3.9c0-.7-.2-.9-.9-.9H189.7c-.8,0-1.3.2-1.3,1.1V123a3.5,3.5,0,0,0,1.8,2.7,8.4,8.4,0,0,1,3.6,7.3V233.8a8.5,8.5,0,0,1-3.6,7.4,3.3,3.3,0,0,0-1.8,2.6v4c0,.7.2.9.9.9h26.4c.8,0,1.3-.2,1.3-1v-3.8a3.5,3.5,0,0,0-1.8-2.7,8.6,8.6,0,0,1-3.6-7.4V177.7l19.2,55.8a8.7,8.7,0,0,1,.6,2.9c0,2-2.1,3.9-3.5,4.9a3.6,3.6,0,0,0-1.5,3V247c0,1.3.6,1.6,1.8,1.6h28.2c1.2,0,1.7-.4,1.7-1.6v-2.8c0-1.5-1.4-2.8-2.5-3.6a23.3,23.3,0,0,1-8.5-11.8l-21.3-62.4,13.4-27.1a27.6,27.6,0,0,1,13.4-13.1,13.1,13.1,0,0,0,2.7-1.6h0c.3-.3.3-1.2.3-1.6v-3.4c0-1.1-.6-1.4-1.7-1.4H229c-1,0-1.3.4-1.3,1.4V123a3.6,3.6,0,0,0,1.8,2.6c1.1.8,2.5,2,2.5,3.6a9.5,9.5,0,0,1-1.1,4.3Zm0,0" transform="translate(-64 -38)" fill="#e30822" fill-rule="evenodd"/><path d="M114.1,303v19.1H116a2.2,2.2,0,0,0,1.6-.5,7.2,7.2,0,0,0,1-2.2,7.7,7.7,0,0,1,.6-1.6,1.4,1.4,0,0,1,1-.3h1.5a1,1,0,0,1,1.2,1.1v11.6c0,.7-.3,1.2-1,1.2h-1.6a1.3,1.3,0,0,1-1-.3,4.8,4.8,0,0,1-.6-1.3c-.2-.6-.7-2.2-1.2-2.6a2.5,2.5,0,0,0-1.4-.4h-1.9v17.9a2.7,2.7,0,0,0,1.1,2.4,1.9,1.9,0,0,1,1,1.6v1.5c0,.7-.5,1.1-1.2,1.1H104.6a.9.9,0,0,1-1-1v-1.6a2,2,0,0,1,1-1.6,2.7,2.7,0,0,0,1.1-2.4V304.8a2.7,2.7,0,0,0-1.2-2.4,1.9,1.9,0,0,1-1-1.6v-1.5a.9.9,0,0,1,1-1h20.9a1.8,1.8,0,0,1,1.2.3,2,2,0,0,1,.2,1.1v10a1.1,1.1,0,0,1-1.3,1.2h-1.3a1.3,1.3,0,0,1-1-.4,6,6,0,0,1-.5-1.8c-.2-1.4-.7-3.4-1.8-4.4a5.5,5.5,0,0,0-3.7-1.1Zm24.1,38.7V304.8a2.6,2.6,0,0,0-1.2-2.3,2,2,0,0,1-1-1.6v-1.5a1,1,0,0,1,1.1-1.1h10.5a.9.9,0,0,1,1,1v1.5a2,2,0,0,1-1,1.6,2.7,2.7,0,0,0-1.2,2.3v32.8c0,3.7-.8,7.4-3.2,10.2a10,10,0,0,1-8,3.8,8.4,8.4,0,0,1-5.7-1.9,5.9,5.9,0,0,1-2.2-4.5,4,4,0,0,1,1.2-3,4.1,4.1,0,0,1,3.1-1.2,3.7,3.7,0,0,1,2.6.9,2.9,2.9,0,0,1,1,2.3,7.3,7.3,0,0,1-.2,1.5,3.3,3.3,0,0,0-.1.7c0,.7.4,1,1.1,1s2-4.6,2-5.9Zm20.5-36.4-.3-2.2a10.4,10.4,0,0,1-.2-1.3,1,1,0,0,1,.7-.8l5.7-2.6h.4c.5,0,.8.4.9.8l9.1,45.6a5.4,5.4,0,0,0,.5,1.7,4,4,0,0,0,1.3,1,1.6,1.6,0,0,1,.9,1.3V350c0,.6-.3,1.1-.9,1.1H165.5c-.7,0-1.2-.4-1.2-1.1v-1.5a1.9,1.9,0,0,1,1.2-1.6,1.9,1.9,0,0,0,1.1-1.6,4.9,4.9,0,0,0-.1-.7l-1.4-6.8H157l-1.4,6.5a2.8,2.8,0,0,0-.1.6c0,.8.9,1.5,1.4,2a2.5,2.5,0,0,1,1.1,1.6V350c0,.8-.6,1.1-1.3,1.1h-7c-.7,0-1.5-.2-1.5-1.1v-1.8a1.6,1.6,0,0,1,.9-1.4,3.9,3.9,0,0,0,1.7-2.7Zm2.6,12.3-3.1,15.4h6.1Zm28.1,29h2.6a4.7,4.7,0,0,0,3.7-1.5c1.1-1.3,1.7-3.5,2-5.2a9.3,9.3,0,0,1,.4-1.7.9.9,0,0,1,.9-.4h1.6c.7,0,1.2.3,1.2,1v12.3H179.9a1.2,1.2,0,0,1-1.4-1.3v-1.3a1.9,1.9,0,0,1,1.1-1.6,2.6,2.6,0,0,0,1.3-2.4V304.8a2.6,2.6,0,0,0-1.1-2.3,1.9,1.9,0,0,1-1-1.6v-1.5a1,1,0,0,1,1.2-1.1h10.5a.9.9,0,0,1,1,1v1.5a2,2,0,0,1-1,1.6,2.7,2.7,0,0,0-1.1,2.3Zm24,0h2.5a4.7,4.7,0,0,0,3.7-1.5c1.1-1.3,1.7-3.5,2-5.2a9.1,9.1,0,0,1,.4-1.7.9.9,0,0,1,.8-.4h1.6c.7,0,1.2.3,1.2,1v12.3H203.8a1.2,1.2,0,0,1-1.4-1.3v-1.3a1.9,1.9,0,0,1,1.1-1.6,2.6,2.6,0,0,0,1.3-2.4V304.8a2.6,2.6,0,0,0-1.1-2.3,1.9,1.9,0,0,1-1-1.6v-1.5a1,1,0,0,1,1.2-1.1h10.5a.9.9,0,0,1,1,1v1.5a2,2,0,0,1-1,1.6,2.7,2.7,0,0,0-1.1,2.3Zm23.3-41.3-.3-2.2a10.4,10.4,0,0,1-.2-1.3,1,1,0,0,1,.7-.8l5.7-2.6h.4c.5,0,.8.4.9.8l9.1,45.6a5.3,5.3,0,0,0,.5,1.7,4.1,4.1,0,0,0,1.3,1,1.6,1.6,0,0,1,.9,1.3V350c0,.6-.3,1.1-.9,1.1H243.4c-.7,0-1.2-.4-1.2-1.1v-1.5a1.9,1.9,0,0,1,1.2-1.6,1.9,1.9,0,0,0,1.1-1.6,4.9,4.9,0,0,0-.1-.7l-1.4-6.8h-8.3l-1.4,6.5a3.1,3.1,0,0,0-.1.6c0,.8.9,1.5,1.4,2a2.5,2.5,0,0,1,1.1,1.6V350c0,.8-.6,1.1-1.3,1.1h-7c-.7,0-1.5-.2-1.5-1.1v-1.8a1.6,1.6,0,0,1,.9-1.4,3.9,3.9,0,0,0,1.7-2.7Zm2.6,12.3L236,332.9h6.1Zm34.3,6.6c6,2.1,9.6,6.2,9.6,12.9a14.4,14.4,0,0,1-2,7.6,11.9,11.9,0,0,1-5.8,4.9,19,19,0,0,1-7.4,1.5H257.5a.8.8,0,0,1-.9-.9v-1.6a2.1,2.1,0,0,1,1-1.6,2.7,2.7,0,0,0,1.2-2.4V304.8a2.6,2.6,0,0,0-1.2-2.4,1.9,1.9,0,0,1-1-1.6v-1.5c0-.7.5-1,1.1-1h10.7a13.5,13.5,0,0,1,9.8,3.6,12.5,12.5,0,0,1,3.7,9.4,14.7,14.7,0,0,1-2.1,7.6,13.3,13.3,0,0,1-6.5,5.2ZM267.2,303v18.9c5.3-.2,6.5-4.7,6.5-9.4a15.5,15.5,0,0,0-.9-5.8,5.7,5.7,0,0,0-2.2-2.9,7.8,7.8,0,0,0-3.3-.7Zm0,23.3v20.2a9.6,9.6,0,0,0,4-1,5.5,5.5,0,0,0,2.4-3,16.4,16.4,0,0,0,.8-5.8c0-2.5-.3-5.7-1.8-7.9a6.5,6.5,0,0,0-5.5-2.6Zm33.8,1.2v17a2.7,2.7,0,0,0,1.2,2.4,1.9,1.9,0,0,1,1,1.6v1.5c0,.7-.5,1.1-1.2,1.1H291.4a.9.9,0,0,1-1-1v-1.6a2,2,0,0,1,1-1.6,2.7,2.7,0,0,0,1.1-2.4v-17l-6.7-22.7a3.8,3.8,0,0,0-1.8-2.5,1.5,1.5,0,0,1-1-1.4v-1.7a.9.9,0,0,1,.9-1h10.8a1.1,1.1,0,0,1,1.2,1.2v1.6c0,.7-.6,1-1.1,1.2s-1.3.6-1.3,1.3a2,2,0,0,0,.1.6l4.6,15.4,4.1-14a5.5,5.5,0,0,0,.2-1.5,1.9,1.9,0,0,0-1.3-1.7,1.5,1.5,0,0,1-1.1-1.3v-1.8a1,1,0,0,1,1.1-1.1h8.4c.7,0,1.3.3,1.3,1v1.7a1.7,1.7,0,0,1-1.1,1.5,4.2,4.2,0,0,0-2.3,2.6Zm24.6,1.2H334a2.2,2.2,0,0,1,1.2.3,1.3,1.3,0,0,1,.3,1,11.1,11.1,0,0,1-.1,1.2c-.1,1.2-.2,2.4-.2,3.6v9.4a1.6,1.6,0,0,0,.4,1.2,1.4,1.4,0,0,1,.5,1.1v1.2a1.9,1.9,0,0,1-1,1.5,16.4,16.4,0,0,1-3.5,1.6,17.5,17.5,0,0,1-5.9,1c-13.5,0-15.5-14.5-15.5-25.1a60.9,60.9,0,0,1,1.5-13.6,26.2,26.2,0,0,1,5.1-11c2-2.4,4.6-4.5,7.9-4.5a11,11,0,0,1,4.6,1.2l1,.3.7-.2.9-.2h1.3a1.1,1.1,0,0,1,1.2,1.2v11.1c0,.7-.4,1.3-1.1,1.3h-1.4c-.3,0-.8,0-1-.3a11.6,11.6,0,0,1-.6-2.3c-.6-2.8-2-7.6-5.6-7.6a3.6,3.6,0,0,0-3.1,1.7c-1.2,1.7-1.6,6.4-1.8,8.4q-.6,6.7-.6,13.3a98.3,98.3,0,0,0,.5,11.5,37.2,37.2,0,0,0,1.3,6.8,6.8,6.8,0,0,0,1.7,3,3.4,3.4,0,0,0,2.2.8c2.3,0,2.6-2.1,2.6-3.9v-7.3a5.7,5.7,0,0,0-.4-2.5,3.8,3.8,0,0,0-1.8-1.3,1.3,1.3,0,0,1-.9-1.2v-1.4a1,1,0,0,1,1.1-1.1Zm28.9,0h8.5a2.2,2.2,0,0,1,1.2.3,1.3,1.3,0,0,1,.3,1,11.1,11.1,0,0,1-.1,1.2c-.1,1.2-.2,2.4-.2,3.6v9.4a1.6,1.6,0,0,0,.4,1.2,1.4,1.4,0,0,1,.5,1.1v1.2a1.9,1.9,0,0,1-1,1.5,16.5,16.5,0,0,1-3.5,1.6,17.5,17.5,0,0,1-5.9,1c-13.5,0-15.5-14.5-15.5-25.1a61.1,61.1,0,0,1,1.5-13.6,26.3,26.3,0,0,1,5.1-11c2-2.4,4.6-4.5,7.9-4.5a11,11,0,0,1,4.6,1.2l1,.3.7-.2.9-.2h1.3a1.1,1.1,0,0,1,1.2,1.2v11.1c0,.7-.4,1.3-1.1,1.3h-1.4c-.3,0-.8,0-1-.3a11.8,11.8,0,0,1-.6-2.3c-.6-2.8-2-7.6-5.6-7.6a3.6,3.6,0,0,0-3.1,1.7c-1.2,1.7-1.6,6.4-1.8,8.4q-.6,6.7-.6,13.3a98.3,98.3,0,0,0,.5,11.5,37.7,37.7,0,0,0,1.3,6.8,6.8,6.8,0,0,0,1.7,3,3.4,3.4,0,0,0,2.2.8c2.3,0,2.6-2.1,2.6-3.9v-7.3a5.7,5.7,0,0,0-.4-2.5,3.8,3.8,0,0,0-1.8-1.3,1.3,1.3,0,0,1-.9-1.2v-1.4a1,1,0,0,1,1.1-1.1Zm14.9-1.4h-2.1v-5h2.1V304.8a2.5,2.5,0,0,0-1-2.2,2.2,2.2,0,0,1-1.1-1.7v-1.8c0-.6.5-.8,1.1-.8H377a16,16,0,0,1,12.7,6.1c4.3,5.1,5.1,13.3,5.1,19.8a57.4,57.4,0,0,1-1.5,13.4,21.3,21.3,0,0,1-5,10c-2.9,2.9-7.7,3.6-11.6,3.6h-8.6a.8.8,0,0,1-.9-.9v-1.7a2,2,0,0,1,1-1.6,2.8,2.8,0,0,0,1.1-2.4Zm8.4,0v19.3a7.3,7.3,0,0,0,4.7-1.5c1.6-1.4,2.3-4.9,2.6-6.9a81.4,81.4,0,0,0,.8-12.4,87.2,87.2,0,0,0-.6-12,28.9,28.9,0,0,0-1.6-6.7,6.8,6.8,0,0,0-2.3-3.1,8.1,8.1,0,0,0-3.7-1.1v19.4h4.8v5Zm0,0" transform="translate(-64 -38)" fill="#000200" fill-rule="evenodd"/><path d="M367.8,322.9v3.8h2.1v17.9a3.4,3.4,0,0,1-1.4,2.9,1.4,1.4,0,0,0-.7,1.1v1.7c0,.2.1.3.3.3h8.6c3.7,0,8.4-.6,11.1-3.4a20.7,20.7,0,0,0,4.8-9.7,56.9,56.9,0,0,0,1.5-13.3c0-6.3-.8-14.4-5-19.4a15.4,15.4,0,0,0-12.2-5.9h-8.7c-.1,0-.5,0-.5.2v1.8a1.7,1.7,0,0,0,.8,1.2,3.1,3.1,0,0,1,1.2,2.7v18.1Zm14,3.8v-3.8H377V302.3h.3a9.1,9.1,0,0,1,4.3,1.2,7.4,7.4,0,0,1,2.5,3.3,29.6,29.6,0,0,1,1.6,6.8,88,88,0,0,1,.6,12.1,82.2,82.2,0,0,1-.9,12.5c-.3,2.2-1,5.7-2.8,7.2a8.1,8.1,0,0,1-5.4,1.7H377V326.7Zm0,0" transform="translate(-64 -38)" fill="#fff" fill-rule="evenodd"/><path d="M354.4,329.4c-.4,0-.5.1-.5.5v1.4c0,.3.3.5.6.6a4.3,4.3,0,0,1,2.1,1.6,6.1,6.1,0,0,1,.5,2.8v7.3c0,2.2-.6,4.5-3.3,4.5a4,4,0,0,1-2.6-.9,7.3,7.3,0,0,1-1.9-3.3A38,38,0,0,1,348,337a98.9,98.9,0,0,1-.5-11.5q0-6.7.6-13.4c.2-2.2.6-6.9,1.9-8.7a4.2,4.2,0,0,1,3.6-2c4,0,5.5,4.9,6.2,8.1a15.8,15.8,0,0,0,.5,2h2c.4,0,.5-.3.5-.7V299.8c0-.5-.2-.6-.6-.6h-1.3l-.6.2-.9.3a3.1,3.1,0,0,1-1.2-.4,10.4,10.4,0,0,0-4.3-1.1c-3.1,0-5.6,2-7.5,4.3a25.7,25.7,0,0,0-5,10.7,60.5,60.5,0,0,0-1.5,13.5c0,10.2,1.8,24.5,14.9,24.5a16.9,16.9,0,0,0,5.7-.9,16.1,16.1,0,0,0,3.4-1.5,1.4,1.4,0,0,0,.7-1v-1.2a.8.8,0,0,0-.3-.7,2.2,2.2,0,0,1-.6-1.6v-9.4c0-1.2.1-2.4.2-3.7a11.1,11.1,0,0,0,.1-1.1c0-.1,0-.5-.1-.6h-9.3Zm0,0" transform="translate(-64 -38)" fill="#fff" fill-rule="evenodd"/><path d="M325.5,329.4c-.4,0-.5.1-.5.5v1.4c0,.3.3.5.6.6a4.3,4.3,0,0,1,2.1,1.6,6.1,6.1,0,0,1,.5,2.8v7.3c0,2.2-.6,4.5-3.3,4.5a4,4,0,0,1-2.6-.9,7.3,7.3,0,0,1-1.9-3.3,38,38,0,0,1-1.3-6.9,99.8,99.8,0,0,1-.5-11.5q0-6.7.6-13.4c.2-2.2.6-6.9,1.9-8.7a4.2,4.2,0,0,1,3.6-2c4,0,5.5,4.9,6.2,8.1a15.9,15.9,0,0,0,.5,2h2c.4,0,.5-.3.5-.7V299.8c0-.5-.2-.6-.6-.6h-1.3l-.6.2-.9.3a3.1,3.1,0,0,1-1.2-.4,10.4,10.4,0,0,0-4.3-1.1c-3.1,0-5.6,2-7.5,4.3a25.6,25.6,0,0,0-5,10.7,60.5,60.5,0,0,0-1.5,13.5c0,10.2,1.8,24.5,14.9,24.5a16.9,16.9,0,0,0,5.7-.9,16.3,16.3,0,0,0,3.4-1.5,1.4,1.4,0,0,0,.7-1v-1.2a.8.8,0,0,0-.3-.7,2.2,2.2,0,0,1-.6-1.6v-9.4c0-1.2.1-2.4.2-3.7a10.1,10.1,0,0,0,.1-1.1c0-.1,0-.5-.1-.6h-9.3Zm0,0" transform="translate(-64 -38)" fill="#fff" fill-rule="evenodd"/><path d="M300.3,327.5,307,305a4.8,4.8,0,0,1,2.6-3c.4-.2.8-.4.8-.9v-1.7c0-.4-.3-.4-.7-.4h-8.4c-.3,0-.5.1-.5.5v1.8c0,.4.4.6.7.7a2.4,2.4,0,0,1,1.7,2.2,6,6,0,0,1-.3,1.7l-4.7,15.9-5.2-17.3a2.6,2.6,0,0,1-.2-.8c0-1,.8-1.5,1.7-1.8s.7-.3.7-.7v-1.6c0-.4-.2-.6-.6-.6H284c-.3,0-.3.2-.3.4V301a.9.9,0,0,0,.6.9,4.4,4.4,0,0,1,2.2,2.8l6.7,22.8v17.1a3.3,3.3,0,0,1-1.4,2.9,1.4,1.4,0,0,0-.7,1.1v1.6c0,.3.1.4.4.4h10.5c.4,0,.6-.1.6-.5v-1.5a1.3,1.3,0,0,0-.7-1.1,3.3,3.3,0,0,1-1.4-2.9Zm0,0" transform="translate(-64 -38)" fill="#fff" fill-rule="evenodd"/><path d="M272.4,323.8a13.3,13.3,0,0,0,7-5.3,14,14,0,0,0,2-7.3,11.9,11.9,0,0,0-3.5-8.9,12.9,12.9,0,0,0-9.4-3.5H257.8c-.3,0-.5.1-.5.4v1.5a1.3,1.3,0,0,0,.7,1.1,3.2,3.2,0,0,1,1.4,2.9v39.8a3.3,3.3,0,0,1-1.4,2.9,1.5,1.5,0,0,0-.7,1.1v1.6c0,.2.1.3.3.3h10.3A18.4,18.4,0,0,0,275,349a11.3,11.3,0,0,0,5.5-4.7,13.8,13.8,0,0,0,2-7.3c0-6.7-3.7-10.6-10-12.6l-.8-.3Zm-5.6-21.4a8.8,8.8,0,0,1,3.9.8,6.2,6.2,0,0,1,2.5,3.2,16.1,16.1,0,0,1,1,6.1c0,5.1-1.5,10-7.5,10h-.3V302.4Zm0,23.3c2.5,0,4.8.7,6.3,2.8s1.9,5.5,1.9,8.2a16.9,16.9,0,0,1-.9,6,6.1,6.1,0,0,1-2.7,3.3,10.5,10.5,0,0,1-4.6,1h-.3V325.8Zm0,0" transform="translate(-64 -38)" fill="#fff" fill-rule="evenodd"/><path d="M237.1,305.2l-7.8,39.1a4.5,4.5,0,0,1-1.9,3.1,1,1,0,0,0-.6.9V350c0,.5.5.5.9.5h7c.4,0,.7-.1.7-.5v-1.5c0-.4-.6-.9-.9-1.2a3.6,3.6,0,0,1-1.6-2.5,3.1,3.1,0,0,1,.1-.7l1.5-7h9.2l1.5,7.3a5.4,5.4,0,0,1,.1.8,2.5,2.5,0,0,1-1.5,2.2c-.4.2-.9.5-.9,1V350c0,.4.2.5.6.5h11.2c.3,0,.3-.2.3-.5v-1.5a1.1,1.1,0,0,0-.6-.8,4.6,4.6,0,0,1-1.5-1.2,5.8,5.8,0,0,1-.6-1.9l-9.1-45.5c0-.2-.1-.4-.3-.4h-.2l-5.7,2.6c-.1,0-.3.2-.3.3a11.7,11.7,0,0,0,.2,1.2Zm2,9.2,3.8,19.1h-7.6Zm0,0" transform="translate(-64 -38)" fill="#fff" fill-rule="evenodd"/><path d="M224.9,350.5V338.8c0-.4-.3-.4-.6-.4h-1.9a11.6,11.6,0,0,0-.4,1.6c-.3,1.8-.9,4.1-2.1,5.5a5.3,5.3,0,0,1-4.1,1.7h-3.2V304.8A3.3,3.3,0,0,1,214,302a1.4,1.4,0,0,0,.7-1.1v-1.5c0-.3-.1-.4-.4-.4H203.9c-.4,0-.6.1-.6.5v1.5a1.4,1.4,0,0,0,.7,1.1,3.2,3.2,0,0,1,1.4,2.8v39.8a3.2,3.2,0,0,1-1.6,2.9,1.4,1.4,0,0,0-.8,1.1v1.3c0,.5.3.7.8.7Zm0,0" transform="translate(-64 -38)" fill="#fff" fill-rule="evenodd"/><path d="M200.9,350.5V338.8c0-.4-.3-.4-.6-.4h-1.9a10.9,10.9,0,0,0-.4,1.6c-.3,1.8-.9,4.1-2.1,5.5a5.3,5.3,0,0,1-4.1,1.7h-3.2V304.8a3.3,3.3,0,0,1,1.4-2.8,1.4,1.4,0,0,0,.7-1.1v-1.5c0-.3-.1-.4-.4-.4H179.9c-.4,0-.6.1-.6.5v1.5a1.4,1.4,0,0,0,.7,1.1,3.2,3.2,0,0,1,1.4,2.8v39.8a3.2,3.2,0,0,1-1.6,2.9,1.4,1.4,0,0,0-.8,1.1v1.3c0,.5.3.7.8.7Zm0,0" transform="translate(-64 -38)" fill="#fff" fill-rule="evenodd"/><path d="M159.2,305.2l-7.8,39.1a4.5,4.5,0,0,1-2,3.1,1,1,0,0,0-.6.9V350c0,.5.5.5.9.5h7c.4,0,.7-.1.7-.5v-1.5c0-.4-.6-.9-.9-1.2a3.6,3.6,0,0,1-1.6-2.5,3.4,3.4,0,0,1,.1-.7l1.5-7h9.2l1.5,7.3a5.9,5.9,0,0,1,.1.8,2.5,2.5,0,0,1-1.5,2.2c-.4.2-.9.5-.9,1V350c0,.4.2.5.6.5h11.2c.3,0,.3-.2.3-.5v-1.5a1.1,1.1,0,0,0-.6-.8,4.5,4.5,0,0,1-1.5-1.2,5.8,5.8,0,0,1-.6-1.9l-9.1-45.5c0-.2-.1-.4-.3-.4h-.2l-5.7,2.6c-.1,0-.3.2-.3.3a9.8,9.8,0,0,0,.2,1.2Zm2,9.2,3.8,19.1h-7.6Zm0,0" transform="translate(-64 -38)" fill="#fff" fill-rule="evenodd"/><path d="M138.8,341.6c0,1.7,0,6.5-2.7,6.5a1.5,1.5,0,0,1-1.7-1.6,4,4,0,0,1,.1-.8,6.6,6.6,0,0,0,.2-1.4,2.3,2.3,0,0,0-.8-1.9,3.1,3.1,0,0,0-2.2-.7,3.5,3.5,0,0,0-2.7,1,3.4,3.4,0,0,0-1,2.5,5.3,5.3,0,0,0,1.9,4,7.8,7.8,0,0,0,5.3,1.7,9.4,9.4,0,0,0,7.5-3.6c2.3-2.8,3.1-6.3,3.1-9.8V304.8a3.2,3.2,0,0,1,1.4-2.8,1.4,1.4,0,0,0,.7-1.1v-1.5c0-.3-.1-.4-.4-.4H137.1c-.4,0-.5.1-.5.5v1.5a1.4,1.4,0,0,0,.7,1.1,3.2,3.2,0,0,1,1.5,2.8Zm0,0" transform="translate(-64 -38)" fill="#fff" fill-rule="evenodd"/><path d="M113.5,302.4h3.8a6.1,6.1,0,0,1,4.1,1.2c1.2,1.1,1.7,3.2,2,4.8a7.5,7.5,0,0,0,.4,1.5h1.9c.4,0,.7-.1.7-.6v-10a2,2,0,0,0-.1-.7H104.5c-.3,0-.4.1-.4.4v1.5a1.4,1.4,0,0,0,.8,1.1,3.3,3.3,0,0,1,1.5,2.9v39.8a3.3,3.3,0,0,1-1.4,2.9,1.4,1.4,0,0,0-.7,1.1v1.6c0,.3.1.4.4.4H115c.4,0,.6-.1.6-.5v-1.5a1.3,1.3,0,0,0-.7-1.1,3.3,3.3,0,0,1-1.4-2.9V326H116a3.1,3.1,0,0,1,1.8.5c.8.5,1.3,2.1,1.5,2.9a5.2,5.2,0,0,0,.4,1.1h2.2c.3,0,.4-.2.4-.5V318.5c0-.4-.2-.5-.6-.5h-2a9.2,9.2,0,0,0-.5,1.4A7.5,7.5,0,0,1,118,322a2.7,2.7,0,0,1-2.1.7h-2.5Zm0,0" transform="translate(-64 -38)" fill="#fff" fill-rule="evenodd"/><path d="M142,402.7l-.6-.4a.3.3,0,0,1-.1-.5l2.9-4.3c.2-.3.4-.4.6-.2l.5.3a.3.3,0,0,1,.2.3l-.4,1q-1.5,3.3.1,4.4a1.9,1.9,0,0,0,1.9.2,3.9,3.9,0,0,0,1.7-1.5,5,5,0,0,0,.9-2.4,17.7,17.7,0,0,0-.3-3.9,24.8,24.8,0,0,1-.4-3,7.1,7.1,0,0,1,.2-2.1,6.9,6.9,0,0,1,1-2.1,5.9,5.9,0,0,1,3.1-2.5,3.5,3.5,0,0,1,3.1.3,3.7,3.7,0,0,1,1.1,1.3l.3.5h.3l.4.2.4.3a.3.3,0,0,1,.1.5l-2.6,3.8c-.1.2-.3.2-.4.1l-.5-.4a.3.3,0,0,1-.2-.3l.3-1q1.1-2.8-.1-3.7a1.5,1.5,0,0,0-1.4-.2,2.5,2.5,0,0,0-1.2,1,4.4,4.4,0,0,0-.7,2,13.5,13.5,0,0,0,.3,3.5,16.1,16.1,0,0,1,.3,4.8,8,8,0,0,1-1.3,3.4,6.4,6.4,0,0,1-3.5,2.8,4.1,4.1,0,0,1-3.6-.5,5.5,5.5,0,0,1-1.4-1.5l-.3-.4H142Zm0,0" transform="translate(-64 -38)" fill="#fff" fill-rule="evenodd"/><path d="M164.8,394.6l-8.6,15a1.2,1.2,0,0,0-.1,1.2.7.7,0,0,1,0,.7l-.3.5c-.1.2-.3.2-.5.1l-3.7-2.1a.3.3,0,0,1-.1-.4l.3-.6a.7.7,0,0,1,.6-.3,1.2,1.2,0,0,0,1-.7l8.6-15-.5-.3a1.1,1.1,0,0,0-1.1,0,6.9,6.9,0,0,0-1.6,1.7.3.3,0,0,1-.4.1l-.5-.3c-.3-.2-.3-.3-.2-.6l2-3.5a.4.4,0,0,1,.6-.2l.8.6,1.4,1,4.2,2.4.9.3.9.3a.3.3,0,0,1,.2.5l-2,3.6c-.1.2-.3.3-.5.2l-.5-.3c-.2-.1-.3-.2-.2-.3l.3-.9a4.7,4.7,0,0,0,.3-1.6,1.1,1.1,0,0,0-.6-.8Zm0,0" transform="translate(-64 -38)" fill="#fff" fill-rule="evenodd"/><path d="M163.4,417.2a4.6,4.6,0,0,1-2.6-4.5,18.5,18.5,0,0,1,2.2-7.8,19.1,19.1,0,0,1,4.8-6.7q2.6-2.1,5-.9t2.4,4.3q.1,3.1-2.2,8t-5,6.8c-1.7,1.2-3.3,1.5-4.7.8Zm.5-1.4a1.4,1.4,0,0,0,1.4-.2c.5-.3,1.4-1.5,2.6-3.6s2.2-4,3.1-5.8a24.6,24.6,0,0,0,1.6-4.1,6,6,0,0,0,.3-2.3,1.2,1.2,0,0,0-.7-.9,1.3,1.3,0,0,0-1-.1,2.8,2.8,0,0,0-1.2,1A28,28,0,0,0,168,403q-1.4,2.5-2.8,5.3a21.3,21.3,0,0,0-2,5.2c-.2,1.1,0,1.9.7,2.2Zm0,0" transform="translate(-64 -38)" fill="#fff" fill-rule="evenodd"/><path d="M180.7,402.7l-2.8,7.6.9.3a1,1,0,0,0,.8,0l.7-.8.4-.5h.3l.6.2a.3.3,0,0,1,.2.4l-1.7,4.4c-.1.2-.2.3-.4.2l-.6-.2-.3-.2a1.8,1.8,0,0,1,0-.5,2.1,2.1,0,0,0-.1-1.2l-.6-.4-.8-.3-2.6,7a1.2,1.2,0,0,0,.1,1.2.7.7,0,0,1,.1.6l-.2.6c-.1.2-.2.3-.4.2l-4-1.5a.3.3,0,0,1-.2-.4l.2-.6a.7.7,0,0,1,.5-.4,1.2,1.2,0,0,0,.9-.8l5.7-15.3a1.2,1.2,0,0,0-.1-1.2.6.6,0,0,1-.2-.6l.2-.6a.3.3,0,0,1,.4-.2l6.7,2.5,1,.3h.4l.3.2a.7.7,0,0,1-.1.4l-1.4,3.8c-.1.2-.2.3-.5.2l-.5-.2-.3-.2a2.2,2.2,0,0,1,.1-.7,3.2,3.2,0,0,0-.1-2,2.3,2.3,0,0,0-1.3-1Zm0,0" transform="translate(-64 -38)" fill="#fff" fill-rule="evenodd"/><path d="M190.5,416.2l2.5-8.7a1.2,1.2,0,0,0-.2-1.2.7.7,0,0,1-.2-.6l.2-.6c.1-.2.2-.3.4-.2l3,.9a.3.3,0,0,1,.2.4l-.2.6a.7.7,0,0,1-.5.4,1.2,1.2,0,0,0-.8.9l-5.1,17.8c-.1.3-.2.4-.5.3l-.6-.2a.6.6,0,0,1-.4-.6l-1.3-16-3.5,12.3a1.2,1.2,0,0,0,.2,1.2.7.7,0,0,1,.2.6l-.2.6c-.1.2-.2.3-.4.2l-3-.9a.3.3,0,0,1-.2-.4l.2-.6a.7.7,0,0,1,.5-.4,1.2,1.2,0,0,0,.8-.9l4.5-15.7a1.2,1.2,0,0,0-.2-1.2.7.7,0,0,1-.2-.6l.2-.6c.1-.2.2-.3.4-.2l2.8.8.4.2a.8.8,0,0,1,.1.4Zm0,0" transform="translate(-64 -38)" fill="#fff" fill-rule="evenodd"/><path d="M199.5,409.7v-1.5l.3-.2,2.5-.5h.1c.1,0,.2.1.2.3l-.7,19a2.2,2.2,0,0,0,.1.8l.4.6a.5.5,0,0,1,.2.5v.6q-.1.3-.3.3l-4.5-1.1c-.2-.1-.3-.2-.3-.4v-.6c.1-.2.2-.3.6-.4a.9.9,0,0,0,.7-.6v-3.3l-3.5-.8-1.2,2.6v.2a1.3,1.3,0,0,0,.4,1,.9.9,0,0,1,.3.7v.6c0,.2-.2.3-.5.2l-2.8-.7c-.3-.1-.4-.2-.4-.4l.2-.7a.5.5,0,0,1,.4-.4,1.7,1.7,0,0,0,1-1Zm-.1,4.5-3,6.5,2.7.7Zm0,0" transform="translate(-64 -38)" fill="#fff" fill-rule="evenodd"/><path d="M205.8,420.2H205l.2-1.8h.8l1-7.3a1.1,1.1,0,0,0-.3-1.1.8.8,0,0,1-.3-.7v-.7c0-.1.1-.2.3-.2l3.6.5a6.4,6.4,0,0,1,4.7,3.1q1.7,2.7,1,8.2a23.4,23.4,0,0,1-1.4,5.3,8.5,8.5,0,0,1-2.5,3.7q-1.6,1.2-4.8.8l-3.5-.5c-.2,0-.2-.1-.2-.3v-.7a.7.7,0,0,1,.4-.5,1.3,1.3,0,0,0,.6-1Zm3.2.4-1.1,8.1a3.2,3.2,0,0,0,2.2-.4,5,5,0,0,0,1.5-2.7,33.4,33.4,0,0,0,1-5,36,36,0,0,0,.4-4.9,11.8,11.8,0,0,0-.3-2.8,2.9,2.9,0,0,0-.8-1.4,3.6,3.6,0,0,0-1.6-.7l-1.1,8.2,1.9.3-.2,1.8Zm0,0" transform="translate(-64 -38)" fill="#fff" fill-rule="evenodd"/><path d="M311.5,425.6l-8.8,2.1a.4.4,0,0,1-.6-.4,5.8,5.8,0,0,1,0-3l1.6-5.7a34.8,34.8,0,0,0,1-4.4,9.4,9.4,0,0,0-.1-3.6,4.2,4.2,0,0,0-1.1-2.1,1.7,1.7,0,0,0-1.6-.5,1.8,1.8,0,0,0-1.1.7c-.3.3-.4.6-.3.8l.3.2a1.7,1.7,0,0,1,1.1,1.2,1.6,1.6,0,0,1-.2,1.2,1.5,1.5,0,0,1-1,.7,1.6,1.6,0,0,1-1.4-.2,2.1,2.1,0,0,1-.8-1.3,3.6,3.6,0,0,1,.5-2.9,4.4,4.4,0,0,1,2.8-1.8,4.6,4.6,0,0,1,3.6.4,4.8,4.8,0,0,1,2.1,3.2,8.1,8.1,0,0,1,0,3.9,39.6,39.6,0,0,1-2.2,5.9,18.3,18.3,0,0,0-1.6,4.9l4.5-1.1a1.3,1.3,0,0,0,.8-.4,1.5,1.5,0,0,0,.2-.9c0-.4.1-.6.4-.7h.6c.2-.1.4,0,.4.2Zm0,0" transform="translate(-64 -38)" fill="#fff" fill-rule="evenodd"/><path d="M312,403.9q2.2-.6,4.1,1.7a19.7,19.7,0,0,1,3.1,7.3q1.3,5.1.8,7.9c-.4,1.9-1.2,3-2.6,3.4s-2.6-.2-3.9-1.6a17.1,17.1,0,0,1-3.2-7q-1.4-5.3-.8-8.2c.4-1.9,1.2-3.1,2.5-3.4Zm3.2,5.8c-.8-3.2-1.8-4.7-2.8-4.5s-.9.8-.8,1.8a19.8,19.8,0,0,0,.7,3.8l2,7.8q1.2,4.5,2.7,4.1c.5-.1.8-.6.9-1.5a19.5,19.5,0,0,0-.8-4.8Zm0,0" transform="translate(-64 -38)" fill="#fff" fill-rule="evenodd"/><path d="M320.8,403.4l-1.7.7a.2.2,0,0,1-.3-.1l-.3-.7a.4.4,0,0,1,.1-.4l2.1-2.2.6-.4.9-.4a.3.3,0,0,1,.4.2l6.4,16.1a2.2,2.2,0,0,0,.7,1,1.2,1.2,0,0,0,1,0c.2-.1.4,0,.5.2l.3.7a.2.2,0,0,1-.2.4l-5.1,2c-.2.1-.3,0-.4-.1l-.3-.6c-.1-.2,0-.4.3-.6a1.5,1.5,0,0,0,.7-.7,1.8,1.8,0,0,0-.2-1.2Zm0,0" transform="translate(-64 -38)" fill="#fff" fill-rule="evenodd"/><path d="M329.5,396.7q2.1-1,4.3.9a19.6,19.6,0,0,1,4.5,6.6q2.2,4.7,2.3,7.6t-1.9,3.8q-1.9.9-4.2-.9a17,17,0,0,1-4.4-6.3q-2.4-5-2.3-7.9c0-2,.6-3.2,1.8-3.8Zm4.3,5.1q-2.2-4.5-3.6-3.9c-.6.3-.7.9-.5,1.9a19.6,19.6,0,0,0,1.4,3.6l3.5,7.3q2,4.2,3.4,3.5c.5-.2.7-.8.6-1.6a19.2,19.2,0,0,0-1.7-4.5Zm0,0" transform="translate(-64 -38)" fill="#fff" fill-rule="evenodd"/></svg>