<svg xmlns="http://www.w3.org/2000/svg" xmlns:xlink="http://www.w3.org/1999/xlink" viewBox="0 0 129.6 129.6"><defs><linearGradient id="a" x1="55.26" y1="79.55" x2="46.84" y2="69.01" gradientUnits="userSpaceOnUse"><stop offset="0" stop-color="#fff"/><stop offset="0.14" stop-color="#fbfbfb"/><stop offset="0.22" stop-color="#f4f4f4"/><stop offset="0.3" stop-color="#eee"/><stop offset="0.4" stop-color="#ddd"/><stop offset="0.51" stop-color="#c2c2c2"/><stop offset="0.64" stop-color="#9b9b9b"/><stop offset="0.77" stop-color="#6a6a6a"/><stop offset="0.9" stop-color="#2f2f2f"/><stop offset="1"/></linearGradient><linearGradient id="b" x1="80.4" y1="96.99" x2="88.03" y2="99.69" xlink:href="#a"/><linearGradient id="c" x1="47.6" y1="97.33" x2="39.9" y2="99.61" xlink:href="#a"/><linearGradient id="d" x1="72.36" y1="79.68" x2="80.36" y2="68.88" xlink:href="#a"/><linearGradient id="e" x1="63.77" y1="105.46" x2="63.77" y2="120.38" xlink:href="#a"/></defs><title>kfr</title><circle cx="64.8" cy="64.8" r="64.8"/><circle cx="64.8" cy="64.8" r="63.2" fill="#fff"/><circle cx="64.8" cy="64.8" r="52.5" fill="#a90331"/><path d="M21.6,35.7,21,93.5l2.8,3.8,4.5,4.7.2-34.6,1.3-4.2,9.3,22,1.3-3.6.6-1.4,1.3-2.5L32.9,55.6,50.2,17.3h1.5V54.1H44v6.2h7.7v9l7-2.5V60.4h7.9V54.2H58.5V18.4H79.9V72.2l1.8,1.7A8.6,8.6,0,0,1,83,75.3l1,1.3a5.7,5.7,0,0,1,.8,1.3l1.1,2.2V68.5h2.2l12.4,34.6,3-2.5,1.8-2.4-14-38.9V56.6h.8a10.1,10.1,0,0,0,3.9-.8,13.6,13.6,0,0,0,4.1-2.6l1-.9.5-.6.7-1a17.7,17.7,0,0,0,2.1-4.1l.3-.9c0-.1.1-.2.1-.4V45a24.1,24.1,0,0,0,.8-6,11.2,11.2,0,0,0-.4-3.2,15.7,15.7,0,0,0-2-4.6l-.2-.3a14.3,14.3,0,0,0-1.4-2l-1.7-2-3.6-3.6-3.4-2.5-6-3.5-6.6-2.6L74,13l-4.7-.6H60.5l-6.2.7-6.6,2-4.4,2-13,30.1-1.5-3.3V27.1l-3.9,4.2Z" fill="#0053a1" stroke="#ffcb4b" stroke-miterlimit="10"/><circle cx="64.8" cy="64.8" r="52.3" fill="none" stroke="#000" stroke-miterlimit="10" stroke-width="1.5"/><path d="M87.9,30.5V46.6a4.8,4.8,0,0,0,2.6-.7,6.8,6.8,0,0,0,2.8-3l.2-.4a8.5,8.5,0,0,0,.9-3.8,10.6,10.6,0,0,0-1.3-5.2,6.9,6.9,0,0,0-2.5-2.6,3.4,3.4,0,0,0-1.7-.5h-1Z" fill="#a90331" stroke="#ffcb4b" stroke-miterlimit="10"/><path d="M46.9,120.6l2.4.7-.4,1.3-2.4-.7Z"/><path d="M57.3,119.4l-1,6.3-1.7-.3.7-4.1-.9.4-1.1.2.2-1.4,1.5-.5a2.8,2.8,0,0,0,.9-.9Z"/><path d="M58.7,124.6h1.7a.9.9,0,0,0,.2.5l.4.2a.7.7,0,0,0,.7-.4,3.9,3.9,0,0,0,.3-1.3l-.7.4h-.8a1.9,1.9,0,0,1-1.4-.7,2.1,2.1,0,0,1-.5-1.5,2.2,2.2,0,0,1,.4-1.1,1.9,1.9,0,0,1,.9-.7,2.8,2.8,0,0,1,1.3-.2,3,3,0,0,1,1.5.4,2.3,2.3,0,0,1,.8,1.1,4.3,4.3,0,0,1,.2,1.9,3.6,3.6,0,0,1-.9,2.4,2.5,2.5,0,0,1-2,.7l-1.2-.2-.7-.5A2.3,2.3,0,0,1,58.7,124.6Zm3.4-2.6a1.2,1.2,0,0,0-.2-.8.8.8,0,0,0-.6-.3.7.7,0,0,0-.6.2,1.2,1.2,0,0,0-.3.8,1.2,1.2,0,0,0,.2.8.7.7,0,0,0,.6.3.8.8,0,0,0,.6-.2A1.1,1.1,0,0,0,62.1,122Z"/><path d="M64.8,124.9l1.7-.3a.9.9,0,0,0,.3.5h.4a.7.7,0,0,0,.6-.5,3.9,3.9,0,0,0,.2-1.3l-.6.5-.8.2a1.9,1.9,0,0,1-1.4-.5,2.1,2.1,0,0,1-.6-1.5,2.2,2.2,0,0,1,.2-1.1,1.9,1.9,0,0,1,.8-.8,2.9,2.9,0,0,1,1.3-.3,3,3,0,0,1,1.5.3,2.3,2.3,0,0,1,.9,1,4.3,4.3,0,0,1,.4,1.8,3.6,3.6,0,0,1-.6,2.5,2.5,2.5,0,0,1-1.9.9H66l-.7-.5A2.3,2.3,0,0,1,64.8,124.9Zm3.1-2.9a1.2,1.2,0,0,0-.3-.8.8.8,0,0,0-.6-.3.7.7,0,0,0-.6.3,1.2,1.2,0,0,0-.2.8,1.2,1.2,0,0,0,.3.8.7.7,0,0,0,.6.3.8.8,0,0,0,.6-.3A1.1,1.1,0,0,0,67.9,122Z"/><path d="M70.2,119.8l5-.7.2,1.2a6.4,6.4,0,0,0-.9,1.4,7.5,7.5,0,0,0-.6,2,8.9,8.9,0,0,0-.1,1.9l-1.7.2a10.1,10.1,0,0,1,.3-2.6,9.6,9.6,0,0,1,1.1-2.4l-3.1.4Z"/><path d="M79.2,121.6l2.4-.7.4,1.3-2.4.7Z"/><path d="M4.6,57.6l.2-1.5,1.9.3L5.1,54.5l.3-2.1L7,54.5l3.4-1.4L10.1,55l-2.2.7.7.9,1.2.2-.2,1.5Z"/><path d="M6,50.2l.4-1.4,3.2-1L6.9,47l.4-1.4L12.2,47l-.4,1.4-3.2,1,2.7.8-.4,1.4Z"/><path d="M13.3,42l-.7,1.6.7.6-.6,1.5L8.7,41.9l.7-1.6,5.4.2-.6,1.5Zm-1.1-.1-1.9-.2,1.5,1.2Z"/><path d="M10.7,37.5,13,33.4l1.1.6-.8,1.4,3.3,1.8-.8,1.4-3.3-1.8-.8,1.4Z"/><path d="M14,31.7l2.7-3.9,1,.7-.9,1.3,3.1,2.2L19,33.4l-3.1-2.2L15,32.5Z"/><path d="M20.5,28.6l.9-1.2.5.2a.8.8,0,0,0,.7-.3.8.8,0,0,0,.2-.5.5.5,0,0,0-.2-.4h-.4l-.8.4a3.4,3.4,0,0,1-1.4.7,1.2,1.2,0,0,1-1-.3,1.3,1.3,0,0,1-.4-.7,1.5,1.5,0,0,1,0-.9,3.2,3.2,0,0,1,.7-1.1,2.5,2.5,0,0,1,1.3-.9A1.6,1.6,0,0,1,22,24l-.9,1.2h-.5l-.5.3a.6.6,0,0,0-.2.4.4.4,0,0,0,.1.3h.2l.5-.3,1.3-.8h.8l.7.3a1.6,1.6,0,0,1,.5.8,1.7,1.7,0,0,1,0,1,3,3,0,0,1-.6,1.1,2.5,2.5,0,0,1-1.6,1A2,2,0,0,1,20.5,28.6Z"/><path d="M22.7,21.3l1.9-1.7a1.8,1.8,0,0,1,1.2-.6,1.5,1.5,0,0,1,1.1.6,1.6,1.6,0,0,1,.5,1.2,2,2,0,0,1-.8,1.3l-.6.6,1.3,1.4L26.1,25Zm2.6.5.3-.3a1,1,0,0,0,.4-.5.5.5,0,0,0-.1-.4l-.4-.2-.6.3-.3.3Z"/><path d="M27.3,17.2l1.4-1,1.8.8-.2-2,1.4-1v3.5l1.2,1.7-1.3.9-1.2-1.7Z"/><path d="M36,17.3l-2.4-4.4,2.3-1.3,1-.4h.8a1.4,1.4,0,0,1,.6.6,1.4,1.4,0,0,1,0,1.4l-.4.4h.8l.3.2,1.4.9-1.5.9-1.5-.9-.4-.2h-.5l1,1.8Zm-.1-3.4.6-.3.3-.3V13a.5.5,0,0,0-.1-.3l-.3-.3-.6.2-.6.3Z"/><path d="M39.8,9.6,41.2,9,44,10.9,43,8.3l1.4-.6,1.9,4.7-1.4.6-2.8-1.9,1,2.6-1.4.6Z"/><path d="M50,6.1l1.5-.4.8,2.9a2.5,2.5,0,0,1,.1.9,1.8,1.8,0,0,1-.2.8l-.5.6-1,.4-.8.2h-.8l-.6-.3-.5-.5-.4-.8-.8-2.9,1.5-.4.8,3a.9.9,0,0,0,.4.6h.7a.9.9,0,0,0,.6-.4.9.9,0,0,0,.1-.7Z"/><path d="M54.1,5.2l3.8-.6.2,1.1L55.8,6v.9l1.9-.3v1l-1.9.3.3,2-1.6.2Z"/><path d="M60.3,4.4l4.2-.2V5.3H61.9v.8h2.4v1H62v1h2.7V9.3l-4.3.2ZM62.2,3h1.2L62.4,4h-.7Z"/><path d="M66.9,4.3h1.6l-.2,3.8,2.4.2V9.6l-4-.3Z"/><path d="M75.5,9.5l-1.7-.3-.4.8-1.6-.3L74.5,5l1.7.3,1,5.3-1.6-.3Zm-.1-1.1-.2-1.9-.9,1.7Z"/><path d="M81.5,9.9l.3-1,2.3.7-.6,2.1-1.4.3-1.3-.2a3.1,3.1,0,0,1-1.3-.7A2.1,2.1,0,0,1,79,9.9a3,3,0,0,1,.1-1.4,2.9,2.9,0,0,1,.7-1.3A2.2,2.2,0,0,1,81,6.6a3.2,3.2,0,0,1,1.4.2l1.2.5a1.6,1.6,0,0,1,.5.6,2.1,2.1,0,0,1,.2.9l-1.5-.2a.8.8,0,0,0-.2-.5l-.5-.3a1,1,0,0,0-.9.1,1.7,1.7,0,0,0-.6,1,1.8,1.8,0,0,0,0,1.2,1.1,1.1,0,0,0,.7.6h1.1v-.5Z"/><path d="M88.2,14.4l2.3-4.5,2.3,1.2.9.6a1.2,1.2,0,0,1,.3.7,1.6,1.6,0,0,1-.7,1.4l-.7.2h-.6l.3.4v2.4l-1.6-.8V14.1a1.2,1.2,0,0,0-.1-.5l-.3-.3h-.1l-.9,1.8Zm2.8-2,.6.3h.7l.2-.2a.5.5,0,0,0,0-.4l-.5-.4-.6-.3Z"/><path d="M97,18.5l-1.5-1-.7.6-1.3-.9,4.4-3.1,1.4,1-1.2,5.3-1.4-.9Zm.3-1.1.6-1.8-1.5,1.2Z"/><path d="M102.5,17.4l1.1,1-.4,3.4,1.8-2.1,1.1,1-3.3,3.8-1.1-1,.4-3.3-1.8,2.1-1.1-1Z"/><path d="M107.4,26.4l.8-.7,1.6,1.8L108.2,29l-1.3-.5-1-.8a3.1,3.1,0,0,1-.8-1.3,2.1,2.1,0,0,1,.1-1.3,3,3,0,0,1,.8-1.2,2.9,2.9,0,0,1,1.3-.7,2.2,2.2,0,0,1,1.4.1,3.3,3.3,0,0,1,1.1.9,3.9,3.9,0,0,1,.7,1,1.6,1.6,0,0,1,.1.8,2.1,2.1,0,0,1-.3.8l-1.2-.9a.8.8,0,0,0,.1-.5,1,1,0,0,0-.3-.5,1,1,0,0,0-.8-.4,1.7,1.7,0,0,0-1,.5,1.8,1.8,0,0,0-.7,1,1.1,1.1,0,0,0,.3.9l.4.3.6.2.4-.3Z"/><path d="M113.8,29.2l2.7,4-.9.6-1.2-1.8-.7.5,1.1,1.6-.9.6L113,33.1l-.8.6,1.2,1.8-.9.6-2.1-3,.7-.5-.8-1.2-.9.2-.9-1.3Zm-.3,1.3-2,.5.6.9,1.6-1.1Z"/><path d="M117.7,35.4l.7,1.4L114,39.1l-.7-1.4Z"/><path d="M119.7,39.1l.6,1.3-1.8,2.8,2.6-1.1.6,1.4-4.7,2-.6-1.4,1.8-2.8-2.6,1.1L115,41Z"/><path d="M120,49.3l1-.3.7,2.3-2.1.6-1-1a4.2,4.2,0,0,1-.5-1.2,3.1,3.1,0,0,1-.1-1.5,2.1,2.1,0,0,1,.6-1.1,3,3,0,0,1,1.3-.7,2.9,2.9,0,0,1,1.5-.1,2.2,2.2,0,0,1,1.2.7,3.3,3.3,0,0,1,.6,1.3,3.9,3.9,0,0,1,.2,1.2,1.6,1.6,0,0,1-.3.8l-.7.6-.7-1.4.3-.4a1,1,0,0,0,0-.6,1,1,0,0,0-.6-.7,1.7,1.7,0,0,0-1.2,0,1.8,1.8,0,0,0-1,.6,1.1,1.1,0,0,0-.1.9l.2.5.4.5h.5Z"/><path d="M120.6,57l-.3-1.8h-.9l-.2-1.6,5.3,1.1.3,1.7L120.1,59l-.2-1.6Zm1-.5,1.7-.8-1.9-.3Z"/><path d="M63.8,117A25.2,25.2,0,1,0,38.6,91.5,25.1,25.1,0,0,0,63.8,117Z" fill="#fff"/><path d="M63.9,66.6A25.2,25.2,0,1,0,89,91.9,25.1,25.1,0,0,0,63.9,66.6Z"/><polygon points="69.8 83.6 73.8 78 80.1 79.8 83.9 91.5 80 96.8 73.8 94.8 69.8 83.6 69.8 83.6" fill="#f4f4f4"/><polygon points="47.6 103.8 47.6 97.4 54.2 95.3 63.3 102.2 63.3 108.9 57.2 111.1 47.6 103.8 47.6 103.8" fill="#f4f4f4"/><polygon points="64 102.2 73.5 95.2 79.9 97.4 79.9 103.8 70.1 111.2 64 108.9 64 102.2 64 102.2" fill="#f4f4f4"/><polygon points="69.3 83.3 57.7 83.3 54 78.2 57.9 72.6 69.6 72.6 73.4 77.7 69.3 83.3 69.3 83.3" fill="#f4f4f4"/><polygon points="53.8 94.7 47.5 96.8 43.6 91.6 47.1 80.6 53.5 78.5 57.3 83.7 53.8 94.7 53.8 94.7" fill="#f4f4f4"/><path d="M56,68.4l1.3,3.8L53.5,78l-6.2,2-3.4-2.6A24.8,24.8,0,0,1,56,68.4Z" fill="url(#a)"/><path d="M84.5,91.7h3.9a24.3,24.3,0,0,1-4.7,14.6l-3.4-2.5c0-2,0-4,0-6a2,2,0,0,1,.4-1.1Z" fill="url(#b)"/><path d="M39.1,92h4.2l3.6,4.9a1.4,1.4,0,0,1,.2.8c0,2.1,0,4.1,0,6l-3.3,2.6A24.7,24.7,0,0,1,39.1,92Z" fill="url(#c)"/><path d="M83.5,77.2l-3,2.2-6.7-1.9L70.1,72l1.2-3.6C75.2,69.2,80.9,73.2,83.5,77.2Z" fill="url(#d)"/><path d="M56.3,115.3l1-3.8,6.4-2.2,6.3,2.4,1.2,3.6A24.9,24.9,0,0,1,56.3,115.3Z" fill="url(#e)"/></svg>