<svg xmlns="http://www.w3.org/2000/svg" viewBox="0 0 498 566.9"><title>kfs</title><path d="M57.4,29.3l61.1-74.8C161-32.7,213.8-23.8,257-23.7s88.5-9.2,134.7-23.7l59.1,74.9c-8.7,20.1-12.3,35.5-11.1,49.1,4.2,51,54.3,90,49.6,167.3-1.9,31.4-6.6,53.2-17.5,75.1l35.4-3.3c-11.4,28.4-32.4,60.9-53.2,85.2l22,22.5-2.6,2.6c-57.8,57.8-127.5,91.7-209.8,93.4-38.5.8-77.3-2.8-113.9-15.3C106.7,489.4,71.3,463.9,43.3,428l-1.9-2.4L60.3,405c-21.9-24.4-42.6-57.4-51.2-88.7l32.7,2.6c-10-19.6-17.3-42.8-18.2-71.9C21.2,167.5,64.7,131.5,69.3,83.3,71,65.9,65.8,46.8,57.4,29.3Z" transform="translate(-9.1 47.4)" fill="#231f20" fill-rule="evenodd"/><path d="M454.9,288c4.5-14.8,6.2-30.3,7.2-45.7,4.1-67.9-44.7-103.6-49.6-163.5-1.3-16,2-31.7,7.2-46.7l-38-48.2C341-4.4,299.5,3.5,256.9,3.5s-87.5-7.1-128.7-18L88.8,33.9c6,16.7,9.3,34.5,7.6,52a122,122,0,0,1-2.6,15.9c-5.7,24.4-18.1,46-27.8,68.8-10.7,25.1-16,48-15.1,75.4a141.5,141.5,0,0,0,7.6,42.7l3-6c21.7,56.4,50.1,100.6,115.1,130.7l-17.1,30.4c29.8,12.9,62.7,19.1,97.3,18.9s66.8-6.7,95.8-19.7l-16.4-30.2c71.6-30.7,97.6-73.1,116.3-129.5Z" transform="translate(-9.1 47.4)" fill="#fff" fill-rule="evenodd"/><path d="M79.7,389.3c50.9,59,117.5,77.6,177.1,77.2,57.8-.4,122.5-17.6,177.1-80.7l36.9,37.7c-65.3,65.4-137,90.9-207.3,92.4s-156.5-11.8-217.4-90Z" transform="translate(-9.1 47.4)" fill="#fff" fill-rule="evenodd"/><path d="M171.5,415.1c-57.2-27.5-87.2-66.3-110.4-123.3l-15.4,31-31.6-2.5c9,28.9,28.2,59.1,48.7,81.9l17-18.5Z" transform="translate(-9.1 47.4)" fill="#fff" fill-rule="evenodd"/><path d="M451.4,398.3c19.5-22.9,38.5-52,50-78.4l-31.9,3-16.3-30.4c-21.3,59.8-51.5,95.3-111.9,122.1l92.5-34.4Z" transform="translate(-9.1 47.4)" fill="#fff" fill-rule="evenodd"/><path d="M169.4,235.6c3.7-6.5-2.1-8.4-2.3-11.8s1.9-3.4,1.1-5.7-4-3.5-4-6.9,3-6.3,3-8.6-4-7.6-4.1-10.8c-.5-8.4-.8-9.6-.8-12.6.7-35.3-18.4-93.1,7.8-101.5,6.1-1.9,9.3-6.3,11.3-7s6.7-.3,9.3-.8c6-1.1,6.9-5.8,10.2-6.1s3.3,6.2,5.4,5.6,1.5-2.1,3.1-3.1c3.3-2.3,8.1-.8,11.2-5.3s9.7-7.7,15.4-8.8c3.6-.7,9.4,6.3,13.2,6.3s4.5,12.2,16,10.6c8.9-1.2,17.4-7,26.2-10,3.2-1.1,2.4-5.1,4.9-7,7.6-5.9,16.5-12.2,24.7-17.6,6.5-4.3,19.2-5.1,24-4.2s6.8-13.6,9.4-8.9c4,7.3,12.8,12.2,19,15,3.4,1.5,2.1,5.8.3,10.2s-2.3,7-6.8,8.7c-1.8.7-3.8,3.1-6,3.8s4.2,5.7-4.6,12.8c-.7.6-3.2,2.3-3.3-.6,0-1,2.8-4.8,2.6-6.2s-3.1-4.4-3.3-5.8,1.8-5.2,1.2-7.2-4.2-3.3-4.8-5.2c-1.6-4.4-3.4-7.4-5.6-6.5s-2.5,3.3-4.8,4.2L327.2,49c-2.7,1.1.8,13.5-1.4,15.7-4.8,4.9-8.4,11.6-13.7,13-20.4,5.2-45.2-2.7-58.7.6-1.7.4-1.9,4-3.3,4.6s-5.7-2.3-8.3-2.5c-6.7-.5-11.4.1-7.7,6.2,1.8,2.9,1.8,8.8,5.4,9.2s7.6-4.8,9.5-3.8c3.9,2.1,5,10.3,9.7,11.5,9.5,2.6,20.6,2.1,31.1.5s14.8-7.8,25.6-9.6c2.3-.4,5.3,2.8,7.6,2.4s4.6-3.4,6.8-3.6c6-.8,8.3,3.4,13.9,4s13.2-.8,20.1-.4,9.3,2.9,18.7,4c1.5.2,1.4,4.4,3.8,7.6s4.7,1.5,5.1,4-6.3,5.6-6.7,9.1c-.7,5.8,4.8,12.4,6.4,13.2,5.2,2.4,12.3.7,17.1,1s4.8,2.9,10,2,2.5,5.9,6.7,9.9c2,2,1.8,5.6,1.6,9.2-.2,7.1-4.7,17.7-9.3,21.7s-8.2.2-9.5,2-2.5,3.4-3.8,5.1-8.6,3.7-11.1,6.8-2,8-4.8,11.4c-1.1,1.3,1.6,7,4.4,11,1.7,2.4,4.3,3.9,3.5,4.7a9.9,9.9,0,0,0-2.2,5.5c-.3,2.3.2,4.8-1.2,4.9s-2.9-.3-4.2.3-1.3,3.5-2.7,4.2c-4.6,2.1-12.2,3.2-17.6,4.7-2.3.7-3.5,4.9-5.8,5.5-12.4,3.3-21.7.3-34.5,7.1-.6.3-4.3,0-7.2-1.2s-3.6-2.7-4.7-1.6c-5,5-18.5.2-27.1,4.5-2.3,1.2,1.5,7-.8,8.2s-7.4,4-10.2,5.3-4.1,1.5-7.5,3.3c-1.8,1-5.4,4.4-7.1,5.3s-3.2,6.1-5.7,7.4-5.9,18.3-1.6,25.5c.8,1.3,2.3,4.8,4.1,6.6s-5.1,2.6-7.3,4.2-3.4,5.3-1.4,6.5c4.2,2.6,15.7,1.2,22.5,1.1,4.1-.1,5.9,1.1,5.1,1.6s-8,5.8-11.6,11.3-2.3,8.7-3.3,9.1c-2.5,1-2.4,6.1-5,6.9s-6.5-.7-10.2.2-6.4,3.6-9.6,4.2-.6,14.2-4,14.5c-1.8.2-3.6-.9-5.4-.8s-1.2,1.8-2.4,4.2-3.7,3.8-4.8,6.7c-1.9,4.8,1.9,7.1.7,10.7s-5.5,8.1-7.9,11.5-4.5,8.1-5.9,7.9c-5.7-.6-13.9,1.6-19.8-.1-1.7-.5-2.6-3.9-4-6.3s-8.5-3.2-9.5-7.4c-1.8-8.1,3.8-21.4,9.5-28.8.8-1,5.4,1.7,8.9,1.5s5.6-3.6,6.8-4.2c3.9-2,13.7,1.1,19.7.1s9-8.6,9-14.6c0-8.8-4.1-1.8-5-5.3s.1-12.6-2.5-17.7a8.4,8.4,0,0,0-7.1-3.7c-3,.2-6.3,2.2-7.4.5-5.9-9.1-12.6-20.5-19.2-30.2-1.7-2.5-4.4-2.2-5.8-4.7s.1-6.1-1-8.7c-2.6-6.3-11.3-15.9-14-20.8-.9-1.7,2.4-4.3,4.1-7,3.3-5.5-5.5-7.7-6-12.3C166,241.8,167.9,238.2,169.4,235.6Z" transform="translate(-9.1 47.4)" fill="#c4c2c3" fill-rule="evenodd"/><path d="M74.2,336,44.2,350.3a21.1,21.1,0,0,0-4.2,2.3,3.1,3.1,0,0,0-.9,2,6.5,6.5,0,0,0,.8,3.3l.4.8-1,.5-9.2-19.3,1-.5.5,1a8.3,8.3,0,0,0,2.1,3.1,3.1,3.1,0,0,0,2.1.6,17.8,17.8,0,0,0,4.6-1.7l19-9a12.9,12.9,0,0,0,3.1-1.8,2.5,2.5,0,0,0,.7-1.4,3,3,0,0,0-.3-1.7,9.5,9.5,0,0,0-2.5-2.9l.7-.9,12.6,10.5Z" transform="translate(-9.1 47.4)" fill="#231f20" fill-rule="evenodd"/><path d="M42.1,368.3l.7-.5a26.4,26.4,0,0,0,7.8,4.6,17.2,17.2,0,0,0,7.7.9,21.7,21.7,0,0,0,7.7-2.4,18.2,18.2,0,0,1-3-1.7,10.5,10.5,0,0,1-4.1-10q.7-4.5,5.3-8a16.3,16.3,0,0,1,6.8-3.2,12.3,12.3,0,0,1,14.9,11,14.1,14.1,0,0,1-1.5,7.6,19.8,19.8,0,0,1-5.8,6.9A26.1,26.1,0,0,1,67,378.6a23.3,23.3,0,0,1-13-1.4A30.3,30.3,0,0,1,42.1,368.3Zm26,1.4c1.9-1.2,3.5-2.3,4.8-3.4a38.7,38.7,0,0,0,7.2-7.2,7.5,7.5,0,0,0,1.7-4,2.8,2.8,0,0,0-.7-1.9,2.6,2.6,0,0,0-2.4-1.1c-1.4.1-3.4,1.2-6,3.2q-6.5,5.1-7.8,8.6a3.9,3.9,0,0,0,.5,4A7.3,7.3,0,0,0,68.2,369.7Z" transform="translate(-9.1 47.4)" fill="#231f20" fill-rule="evenodd"/><path d="M456.8,387l-.7-.5a26.5,26.5,0,0,0,1.8-8.9,17.2,17.2,0,0,0-1.5-7.6,21.6,21.6,0,0,0-4.7-6.5,18,18,0,0,1-.6,3.4,10.5,10.5,0,0,1-8.2,7q-4.5.7-9.3-2.4a16.3,16.3,0,0,1-5.2-5.4,12.3,12.3,0,0,1,5.7-17.6,14.1,14.1,0,0,1,7.7-1,19.8,19.8,0,0,1,8.4,3.3,26.1,26.1,0,0,1,8.5,9.3,23.3,23.3,0,0,1,2.8,12.8A30.3,30.3,0,0,1,456.8,387Zm-6.9-25.1q-2.6-2.1-4.7-3.5a38.6,38.6,0,0,0-9.1-4.5,7.5,7.5,0,0,0-4.4-.3,2.8,2.8,0,0,0-1.6,1.3,2.6,2.6,0,0,0-.2,2.6c.6,1.3,2.2,2.9,5,4.7q6.9,4.6,10.6,4.6A3.9,3.9,0,0,0,449,365,7.4,7.4,0,0,0,449.9,361.9Z" transform="translate(-9.1 47.4)" fill="#231f20" fill-rule="evenodd"/><path d="M479.4,353l-22.6-27-4.4,7.1q-2.6,4.2-2.8,7a6.7,6.7,0,0,0,1.4,4.2l-.6,1-9.2-9.1,12.7-20.5,28,33.3Z" transform="translate(-9.1 47.4)" fill="#231f20" fill-rule="evenodd"/><path d="M110.6,439l-6.8,9.4,5.2,3.8q2,1.5,3.2,1.4a4.9,4.9,0,0,0,3.1-2.1l.6.5-6,8.3-.6-.5a11.2,11.2,0,0,0,1.1-2.6,2.7,2.7,0,0,0-.3-1.7,6.5,6.5,0,0,0-1.9-2l-5.2-3.8-5.7,7.8a9.3,9.3,0,0,0-1.3,2,1.4,1.4,0,0,0,.1.9,3.8,3.8,0,0,0,1.2,1.2l4,2.9a13.2,13.2,0,0,0,3.1,1.8,5.3,5.3,0,0,0,2.5.2,16.7,16.7,0,0,0,4.6-1.7l.7.5-6.4,4.5L87.6,456.5l.5-.6.8.6a4.1,4.1,0,0,0,1.9.7,1.8,1.8,0,0,0,1.4-.3,10.4,10.4,0,0,0,1.9-2.1l11.2-15.4c1.1-1.5,1.6-2.5,1.6-3.1a3.3,3.3,0,0,0-1.6-2.2l-.8-.6.5-.7,18.3,13.3-3.5,5.4-.7-.5a10,10,0,0,0,1.1-3.2,3.5,3.5,0,0,0-.5-2,9.9,9.9,0,0,0-2.3-2.1Z" transform="translate(-9.1 47.4)" fill="#231f20" fill-rule="evenodd"/><path d="M140.4,454l-4.6,9.1-.7-.4a12.8,12.8,0,0,0,.8-4.8,7.2,7.2,0,0,0-1.3-3.7,7.9,7.9,0,0,0-3-2.6,5.2,5.2,0,0,0-3.9-.4,4.2,4.2,0,0,0-2.7,2.1,3.7,3.7,0,0,0-.3,2.6q.5,2.1,3.8,6.7a42.8,42.8,0,0,1,3.5,5.5,8.2,8.2,0,0,1,.8,3.5,7.3,7.3,0,0,1-.8,3.4,7.6,7.6,0,0,1-4.9,4,9.4,9.4,0,0,1-7-.8l-2.1-1.3-2.1-1.9a12.3,12.3,0,0,0-2.1-1.8,1.2,1.2,0,0,0-.9-.1,2.6,2.6,0,0,0-1,1l-.7-.4,4.5-9,.7.4a14.3,14.3,0,0,0-.8,4.9,7.3,7.3,0,0,0,1.4,3.6,9,9,0,0,0,3.4,2.8,6.1,6.1,0,0,0,4.5.6,4.4,4.4,0,0,0,2.9-2.3,4.6,4.6,0,0,0,.5-2.2,6.5,6.5,0,0,0-.7-2.7,51.8,51.8,0,0,0-2.9-4.5,44.8,44.8,0,0,1-3.3-5.4,9.3,9.3,0,0,1-.9-3.6,6.9,6.9,0,0,1,.8-3.3,7.2,7.2,0,0,1,4.6-3.8,8.6,8.6,0,0,1,6.5.7,12.3,12.3,0,0,1,3.9,3.2,5.1,5.1,0,0,0,1.3,1.2,1.3,1.3,0,0,0,1,.1,2.8,2.8,0,0,0,1.1-.9Z" transform="translate(-9.1 47.4)" fill="#231f20" fill-rule="evenodd"/><path d="M163.8,464.7l-2.2,6.5-.8-.3a8.1,8.1,0,0,0,.3-2.7,4.3,4.3,0,0,0-1-2.4,6.2,6.2,0,0,0-2.5-1.6l-3.9-1.5-8.1,20.9c-.6,1.7-.9,2.8-.7,3.4a3.2,3.2,0,0,0,2,1.8l.9.4-.3.7-11.6-4.5.3-.7,1,.4a3,3,0,0,0,2.9-.1,6.5,6.5,0,0,0,1.6-2.8l8.1-20.9-3.3-1.3a9.9,9.9,0,0,0-2.8-.8,4,4,0,0,0-2.4.8,6.5,6.5,0,0,0-2,2.6l-.8-.3,2.8-6.3Z" transform="translate(-9.1 47.4)" fill="#231f20" fill-rule="evenodd"/><path d="M175.7,497.8l-5.9-26.5-4.1,19.2q-.6,2.6-.1,3.4a3.2,3.2,0,0,0,2.3,1.4l1,.2-.2.8-10-2.1.2-.8,1,.2a3,3,0,0,0,2.8-.6,6.5,6.5,0,0,0,1.1-3l4-18.7a6.7,6.7,0,0,0,.2-2.8,2.4,2.4,0,0,0-.9-1.3,6,6,0,0,0-2.5-1l.2-.8,8.1,1.7,5.6,24.6,15-20.3,8.1,1.7-.2.8-1-.2a3,3,0,0,0-2.8.5,6.6,6.6,0,0,0-1.1,3l-4,18.7c-.4,1.8-.4,2.9-.1,3.4a3.2,3.2,0,0,0,2.3,1.4l1,.2-.2.8-12.2-2.6.2-.8,1,.2a2.9,2.9,0,0,0,2.8-.6,6.6,6.6,0,0,0,1.1-3l4.1-19.2L176.4,498Z" transform="translate(-9.1 47.4)" fill="#231f20" fill-rule="evenodd"/><path d="M217.9,494l-11.3-1-2.4,4.4a7.2,7.2,0,0,0-1,2.5,1.5,1.5,0,0,0,.5,1.2,5.6,5.6,0,0,0,2.7.9v.8l-9.2-.8v-.8a5,5,0,0,0,2.4-.6,13.1,13.1,0,0,0,2.8-4l12.4-23.1h.8l8,25.2a11,11,0,0,0,1.9,4,4.6,4.6,0,0,0,2.7,1.2v.8l-11.5-1v-.8a4.4,4.4,0,0,0,2.4-.4,1.5,1.5,0,0,0,.7-1.2,9.1,9.1,0,0,0-.6-3.1Zm-.5-1.6-3.9-12.2-6.1,11.4Z" transform="translate(-9.1 47.4)" fill="#231f20" fill-rule="evenodd"/><path d="M227.9,475.8h8l17.9,22V480.9c0-1.8-.2-2.9-.6-3.4a3.2,3.2,0,0,0-2.5-.9h-1v-.8h10.2v.8h-1a3,3,0,0,0-2.6,1.1,6.6,6.6,0,0,0-.5,3.2v24.7h-.8L235.5,482V500c0,1.8.2,2.9.6,3.4a3.3,3.3,0,0,0,2.5.9h1v.8H229.5v-.8h1a3,3,0,0,0,2.7-1.1,6.5,6.5,0,0,0,.5-3.1V479.6a13.4,13.4,0,0,0-1.9-2,7.1,7.1,0,0,0-1.9-.9l-1.9-.2Z" transform="translate(-9.1 47.4)" fill="#231f20" fill-rule="evenodd"/><path d="M262.8,476.1l7.9-.4,19.1,21-.9-16.9c-.1-1.8-.4-2.9-.8-3.3a3.2,3.2,0,0,0-2.6-.8h-1v-.8l10.2-.6v.8h-1a3,3,0,0,0-2.6,1.3,6.6,6.6,0,0,0-.3,3.2l1.4,24.7h-.8l-20.6-22.5,1,18c.1,1.8.4,2.9.8,3.3a3.2,3.2,0,0,0,2.6.8h1v.8l-10.2.6v-.8h1a3,3,0,0,0,2.6-1.3,6.5,6.5,0,0,0,.3-3.2l-1.1-20.4a13.4,13.4,0,0,0-2-1.9,7.1,7.1,0,0,0-2-.8h-1.9Z" transform="translate(-9.1 47.4)" fill="#231f20" fill-rule="evenodd"/><path d="M315.4,490.4l-11.1,2.2-1,4.9a7.2,7.2,0,0,0-.2,2.6,1.5,1.5,0,0,0,.9,1,5.6,5.6,0,0,0,2.8.1l.2.8-9,1.8-.2-.8a5,5,0,0,0,2.2-1.3,13.1,13.1,0,0,0,1.6-4.6l5.4-25.7h.7l14.8,21.9a11,11,0,0,0,2.9,3.3,4.6,4.6,0,0,0,2.9.4l.2.8L317,500.1l-.2-.8a4.4,4.4,0,0,0,2.2-1,1.5,1.5,0,0,0,.4-1.3,9,9,0,0,0-1.4-2.8Zm-.9-1.5-7.2-10.6-2.7,12.6Z" transform="translate(-9.1 47.4)" fill="#231f20" fill-rule="evenodd"/><path d="M330.3,468.1l3.7,11,6.1-2.1c1.6-.5,2.6-1.1,2.9-1.8a4.9,4.9,0,0,0,.1-3.7l.8-.3,3.3,9.7-.8.3a11.3,11.3,0,0,0-1.5-2.4,2.7,2.7,0,0,0-1.6-.7,6.5,6.5,0,0,0-2.7.5l-6.1,2.1,3.1,9.2a9.2,9.2,0,0,0,.9,2.2,1.4,1.4,0,0,0,.8.4,3.8,3.8,0,0,0,1.6-.3l4.7-1.6A13.3,13.3,0,0,0,349,489a5.3,5.3,0,0,0,1.6-2,16.7,16.7,0,0,0,1.3-4.7l.8-.3v7.8l-21.4,7.2-.3-.8,1-.3a4.1,4.1,0,0,0,1.7-1.1,1.8,1.8,0,0,0,.6-1.3,10.4,10.4,0,0,0-.7-2.8l-6.1-18c-.6-1.8-1.1-2.8-1.6-3.1a3.3,3.3,0,0,0-2.7,0l-1,.3-.3-.8,21.4-7.2,2.4,6-.8.3a10.1,10.1,0,0,0-2-2.7,3.5,3.5,0,0,0-2-.7,9.8,9.8,0,0,0-3,.7Z" transform="translate(-9.1 47.4)" fill="#231f20" fill-rule="evenodd"/><path d="M366.5,452.3l9.4-3.9.3.7-.5.2a4.4,4.4,0,0,0-1.3,1.1,6.5,6.5,0,0,0-1.3,2.1,19.4,19.4,0,0,0-.8,3.6l-2.2,13,2.8,6.8c.7,1.7,1.3,2.6,1.9,2.9a3.3,3.3,0,0,0,2.7-.2l.9-.4.3.7-11.5,4.8-.3-.7,1-.4a3,3,0,0,0,2-2.1,6.6,6.6,0,0,0-.8-3.1l-2.7-6.4-12.1-8.2-2.8-1.7a7.5,7.5,0,0,0-2.4-.4l-1.2.3-.3-.7,11.6-4.8.3.7-.6.2a3.8,3.8,0,0,0-1.5,1.2,1.5,1.5,0,0,0-.2,1.6,6.7,6.7,0,0,0,2.3,2.1l9.3,6.4,1.8-10.6a6.7,6.7,0,0,0,0-3.3,1.9,1.9,0,0,0-.7-.9,2.1,2.1,0,0,0-1.1-.3,4.4,4.4,0,0,0-1.7.4Z" transform="translate(-9.1 47.4)" fill="#231f20" fill-rule="evenodd"/><path d="M378,447.3l-.4-.7,10.8-6.4.4.7-.9.5a3.1,3.1,0,0,0-1.7,2.2,6.5,6.5,0,0,0,1.2,3.1l7.3,12.3a16.4,16.4,0,0,1,2.1,5,8.3,8.3,0,0,1-.3,4.3,6.3,6.3,0,0,1-2.9,3.5,4.8,4.8,0,0,1-3.3.8,3,3,0,0,1-2.2-1.4,2.2,2.2,0,0,1-.3-1.7,2.4,2.4,0,0,1,1.1-1.4,1.9,1.9,0,0,1,1.3-.2,7.3,7.3,0,0,1,2.4,1.4c.7.5,1.2.6,1.7.4a1.4,1.4,0,0,0,.6-1.2,4.6,4.6,0,0,0-.8-2.4l-10.2-17.2a9.8,9.8,0,0,0-1.7-2.4,2,2,0,0,0-1.3-.3,4,4,0,0,0-2,.6Z" transform="translate(-9.1 47.4)" fill="#231f20" fill-rule="evenodd"/><path d="M414.4,446.3l-9.4,6.4,1,4.9a7.2,7.2,0,0,0,.8,2.5,1.5,1.5,0,0,0,1.2.6,5.6,5.6,0,0,0,2.7-1l.4.7-7.6,5.2-.4-.7a5,5,0,0,0,1.5-2,13,13,0,0,0-.4-4.9L399,432.4l.6-.4,22.2,14.3a11,11,0,0,0,4,1.9,4.6,4.6,0,0,0,2.9-.8l.5.7-9.5,6.5-.4-.7a4.3,4.3,0,0,0,1.6-1.8,1.5,1.5,0,0,0-.2-1.3,9,9,0,0,0-2.4-2Zm-1.4-1-10.8-7,2.5,12.6Z" transform="translate(-9.1 47.4)" fill="#231f20" fill-rule="evenodd"/><path d="M452.9,425.6l-5.6,5.4-16.6-3-1.3,1.3-.4.4-.5.4,5.9,6.1c1.3,1.3,2.2,2,2.8,2.1a3.1,3.1,0,0,0,2.4-1l.8-.8.6.6-9.1,8.7-.6-.6.8-.8a2.9,2.9,0,0,0,1.1-2.7,6.8,6.8,0,0,0-1.9-2.6l-13.1-13.7c-1.3-1.3-2.2-2-2.8-2.1a3.2,3.2,0,0,0-2.5,1.1l-.8.8-.6-.6,7.7-7.4a25.2,25.2,0,0,1,5.4-4.3,7.9,7.9,0,0,1,4.4-.8,6.6,6.6,0,0,1,4.1,2.1,6.8,6.8,0,0,1,2,4.6,9.9,9.9,0,0,1-2,5.8l10.2,1.9a15.1,15.1,0,0,0,5.2.3,9.1,9.1,0,0,0,3.6-1.8Zm-25.5,3.6.5-.5.4-.3q3-2.9,3.3-5.7a5.8,5.8,0,0,0-1.7-4.8,6,6,0,0,0-4.3-2,6.2,6.2,0,0,0-4.5,1.9,19.3,19.3,0,0,0-2.2,2.6Z" transform="translate(-9.1 47.4)" fill="#231f20" fill-rule="evenodd"/><path d="M308.4,126.2a118.7,118.7,0,0,1-17.3-25c-4.1-8.2-6.2-15.4-6.2-21.7a18.5,18.5,0,0,1,.8-5.4,21.7,21.7,0,0,1,2.5-5.1l-.5-.9q-6.3,3.6-14.3,31.1l-1.2,4q-3.9,13.6-5.9,17.6c-1.3,2.6-2.7,4-4.2,4a6,6,0,0,1-3.3-1.1,15.4,15.4,0,0,1-3.4-3.3,37.5,37.5,0,0,1-4-7,16.2,16.2,0,0,1-1.7-5.5q0-4.5,6.2-15.1t8.1-16.2A98,98,0,0,0,268,56.7a225.9,225.9,0,0,0,1.4-26.4l19.3-5.2a141.3,141.3,0,0,1-2.4,20.6,141.4,141.4,0,0,1-5.1,19.6l.5,1.1Q294.3,47.3,304,36.9t16.2-11.5a79,79,0,0,1,7.3,6.2,79.9,79.9,0,0,1,6.6,7.2,47.3,47.3,0,0,0-11.3,7.9,62.7,62.7,0,0,0-9.8,11.8l-5-3.3a23.4,23.4,0,0,1,2.9-6.1l1.1-2.1a34.7,34.7,0,0,0-8.9,5,65.9,65.9,0,0,0-9,8.5,82,82,0,0,0,5.7,19.2,132.9,132.9,0,0,0,11.1,20.6c1.5,2.3,3.5,5.1,6,8.3s3.8,5.3,3.8,6.2a2.8,2.8,0,0,1-.5,1.6,7.9,7.9,0,0,1-1.7,1.7Z" transform="translate(-9.1 47.4)" fill="#231f20" fill-rule="evenodd"/><path d="M304.2,236.5a359,359,0,0,1,5.8-37.2,353.9,353.9,0,0,1,9.6-36.2l13.2-9.4-8.3,1.2-9.4,1.7,6.6-14.3a141.1,141.1,0,0,1,20.6-4.8,133.9,133.9,0,0,1,21-1.7,97.1,97.1,0,0,1,13.6,1l1.9.2h.1l-6.2,17.7a96.6,96.6,0,0,0-10.7-1.9,95.6,95.6,0,0,0-10.3-.6h-3.7l-4.3.3a107.8,107.8,0,0,0-7.9,16.7A155.1,155.1,0,0,0,330,189l6.6-7.1a55.2,55.2,0,0,1,9.5-1.7c3.6-.3,7.9-.5,13-.5l6.2.5h.4l-7.9,16q-4.1-.8-8.3-1.3a79.9,79.9,0,0,0-8.4-.4,60.8,60.8,0,0,0-6.1.3c-2,.2-4.1.5-6.1.9a78.8,78.8,0,0,0-2.5,13.1,137.6,137.6,0,0,0-.8,15.8c0,.6.1,2,.2,4s.1,1.1.1,1.4q-5.4,2-10.9,3.6Z" transform="translate(-9.1 47.4)" fill="#231f20" fill-rule="evenodd"/><path d="M342.5,331.7l9.1-15.7a130.8,130.8,0,0,0,16.7,8.3q7.4,3,11.7,2.9a14.5,14.5,0,0,0,8.1-2.6,25.5,25.5,0,0,0,7.1-7.4c-1.4-3-5.4-7.1-12.2-12.3l-4.3-3.4-4-3.2q-14.9-12-14.9-21.2a24.1,24.1,0,0,1,2.6-10.2,52.6,52.6,0,0,1,7.7-11.4,38.6,38.6,0,0,1,11.6-9.5,29.1,29.1,0,0,1,13.4-3.1,36.9,36.9,0,0,1,13.4,2.8,65.6,65.6,0,0,1,14.5,8.1l-9.2,14.9a107.4,107.4,0,0,0-16-8.5q-7.2-3-11.9-2.9a11.8,11.8,0,0,0-7.1,2.3,21.7,21.7,0,0,0-5.9,7q4.4,7.5,18.4,18.2l6,4.6c4.2,3.4,7.1,6.5,8.7,9.1a15.8,15.8,0,0,1,2.4,8.5q0,6-4,12.9a68.8,68.8,0,0,1-11.9,14.6,35.5,35.5,0,0,1-9.8,7.3,25.4,25.4,0,0,1-10.4,2,37,37,0,0,1-13.9-2.9A78,78,0,0,1,342.5,331.7Z" transform="translate(-9.1 47.4)" fill="#231f20" fill-rule="evenodd"/><path d="M103.1,431.5l-.5.6a4.7,4.7,0,0,0-2.4-.7,8.9,8.9,0,0,0-3.6,1.2L72.9,445.3l-.6-.5,7.6-26.3a13.8,13.8,0,0,0,.6-2.6,3.8,3.8,0,0,0-.4-1.6,6.1,6.1,0,0,0-1.3-1.7l.5-.6,9.2,7.6-.5.6a5.4,5.4,0,0,0-2.5-1.1,1.6,1.6,0,0,0-1.3.6,9.7,9.7,0,0,0-1.4,3.2l-5.2,17.9,16-8.6a11.3,11.3,0,0,0,3-2,1.6,1.6,0,0,0,.3-1.3,4.1,4.1,0,0,0-1.1-2l-.2-.3.5-.6Z" transform="translate(-9.1 47.4)" fill="#231f20"/><path d="M82.1,256.1a100.9,100.9,0,0,1,31.1-5.6c7.9-.1,27,2.1,30.4-4.2.2-.3-1.7-3.1-1.3-4.3s3.3-3.1,5.4-4.1c6-2.8,14.5-2.8,21-3.3,9.5-.7,18.8-.5,28.3-.3l28.4.6c.5,7.5-20.8,5-26.4,5.4,15.6.9,31.4,2.6,47,2.6,4.7,0,17.8-3,21.3.9,6.4,7-25.2,15.6-30.1,16.3-8.6,1.2-17.8,3.1-26.5,3.1-6.3,0-16.9-.7-22.6-3.4-.8-.4-3.5,0-4-.7s1-4.8,0-5.7-1.1-.5-3-1.3c-5.7-2.4-15.7.8-21.6,1.6-9,1.2-18,2-27,2.8C115.6,258,98.6,259.7,82.1,256.1Z" transform="translate(-9.1 47.4)" fill="#c4c2c3" fill-rule="evenodd"/><path d="M234.2,211.1c-17.3,1.2-20.5,24.2-6.6,32.3s31-7.8,25-22.3C250,214.7,241.5,209.3,234.2,211.1Z" transform="translate(-9.1 47.4)" fill="#e6e7e8" fill-rule="evenodd"/><path d="M180.7,44.7c-.2,6.9-1.1,15.3-4.1,21.7a28.2,28.2,0,0,1-2.1,4.3c-1.1,1.3-4,1.1-4.8,2.2s-2.1,6.8-2.4,10.2c-5.8-6-12.2-15.6-14-22.4-.3-1.2-1.3-7.3-.6-8.9,2.6-6.2,4.1-.8,7.2-1.3C164.6,49.6,174.1,42.1,180.7,44.7Z" transform="translate(-9.1 47.4)" fill="#f4e5c6" fill-rule="evenodd"/><path d="M159.5,69.7l-1-7.6c3.6,5.1,4.6-3.4,9-3s-.1,5.4.8,8.6c.8-1.6,2.5-2.9,3-4.8,5.7,4.4-4.3,4.9,0,9.6-3.4-.8-6.2.5-6.6,4.2Z" transform="translate(-9.1 47.4)" fill="#dab87c" fill-rule="evenodd"/><path d="M171.1,47.3c1.6,3.8,4.2,4.4,5.6,7.3s0,4.7,1.6,6.3C178.4,53.2,184,37.1,171.1,47.3Z" transform="translate(-9.1 47.4)" fill="#bb9972" fill-rule="evenodd"/><path d="M174.9,61.9c.6,4.1-.9,6-.8,9.8,1.2-3.7,3.3-6.8,3.8-10.8Z" transform="translate(-9.1 47.4)" fill="#b99972" fill-rule="evenodd"/><path d="M118.9,133.2c-7.9,10.1-9.5,21.3-11,33.8-.6,4.9-2.1,12.4.6,15.5s21,7.2,25.6,8.3c11.8,2.9,10.1-3.7,12.4-14,6.3,2.5,18.4,10.1,23.8,7.5,8.6-4,10.7-18.8,20.4-22a120.4,120.4,0,0,0-13.4-11.7c-1.9-1.3-4.8-2.2-6.4-3.7s-3.6-8-3.6-8-3,.6-4.3.5c-9.2-1.1-18.6,4.2-28.1,1.8C129.2,139.8,123.7,136.3,118.9,133.2Z" transform="translate(-9.1 47.4)" fill="#e6e7e8" fill-rule="evenodd"/><path d="M121.1,146c14.5-2.8,29.4-4.1,44-6.2.8,3.1-1.2,5.5-3.2,7.4,1.9-.6,3.6-.5,5.4-2,3.1,3.4-2.8,10,4.6,6.4l-5.4,4.4c2.9-1.4,9.4-3.8,6.4,1.2,3.8-2,7.9,2.9,11,5-2.3,4.3-10.2,23.5-14.5,25s-18.1-7.6-22.9-9.8c-1.6,6.6-.4,15.3-8.5,14.3-3.7-.5-3.1-1.8-6.1-3.9s-9.2-4.3-8.9-7.3c.6-5.3,8.1-2.3,11.4-3.3,8.9-2.7,16.4-16.3,21.5-24-5.9,1.9-9,7.9-14,11.2s-12,5-18.2,6.4l1.8-2.8-9,1.4c9.4-8.2,25.5-2.5,26.8-18l-9.4,1.4c4.5-1.7,8.7-3.9,13-6l-17,3.2c1.4-.7,2.5-2,3.8-2.8Z" transform="translate(-9.1 47.4)" fill="#bcbec0" fill-rule="evenodd"/><path d="M136.3,145.2c7.1-.7,15.9-2.9,22.9-2.3,4.9.4,4.8.4-.3,2.5s-8.1,1.1-12.2,3.8a17.3,17.3,0,0,0,10.8-2l-9.8,8.4c4.1-2.6,9.6-6.2,12.9-7,1.6-.4,3.6.8,5.7-.8a13.7,13.7,0,0,0-3.8,8.8c.9-3.2,2.7-5,5.4-2.8-1.5,1.4-2.7,3.5-4.4,4.6,1.8-.8,3.9-1,5.8-1.8-1.3,1.8-2.1,3.9-3.4,5.6,3.5-2.6,10.9-5.6,13.6.4,3.7,8.1-6.9,1.2-9.6,1.4-7.8.6-18.8,12.3-3.6,11.6-10.1,2.6-17.2-7.7-21.5,4.7-1.1,3.3.2,11.1-3.9,12.1s-3.7-3.9-4.4-6.4-4.6.1-2.6-2.7c.9-1.3,6.1-.8,7-.7-1.8-.8-3.4-2.3-5.2-3.2,8.8.3,18.8-21.3,21.8-28-3.5,1.9-8,3.6-11.1,6.1s-3.8,5.4-7.7,6.9l3.4-5.8c-1.3,0-2.7-.7-4-.6l7-5.8c-2,0-4-.8-6-.8,1.8-.8,3.1-2.5,4.8-3.4C141.7,146.5,138.5,146.1,136.3,145.2Z" transform="translate(-9.1 47.4)" fill="#939598" fill-rule="evenodd"/><path d="M62.5,217.9a64.4,64.4,0,0,0,1,24.2c1.5,5.7,10.7,21,14.8,12C63.1,249.4,65,231.4,62.5,217.9Z" transform="translate(-9.1 47.4)" fill="#231f20" fill-rule="evenodd"/><path d="M180.7,48.7c10.7-8.2-10.3-21.1-18-19.4-13.8,3-17.7,17.4-9.2,27.8-.3-6.5,0-6.9,5.1-7.9,1.5-.3,3.8.8,5.6.5C169.9,49,177.6,40.2,180.7,48.7Z" transform="translate(-9.1 47.4)" fill="#e2bd76" fill-rule="evenodd"/><path d="M150.1,42.7c-2.7,3.5-.4,8.1,1.6,11.6.7-4.7.7-9,4.2-12.6-3.3.4-5,3.1-5.4,6.2a26.9,26.9,0,0,1-.2-4l-.8,1A3.9,3.9,0,0,0,150.1,42.7Z" transform="translate(-9.1 47.4)" fill="#b77832" fill-rule="evenodd"/><path d="M156.9,43.1c-7.7,5.8,9,9.7,13.2.2a22.3,22.3,0,0,1-9,4.8,8.3,8.3,0,0,0,4.4-5.2c-1.5,2.5-4.5,3.1-7.4,3.2,1.2-1.2,2.1-2.8,3.4-3.8a36.6,36.6,0,0,0-5.8,3A16.1,16.1,0,0,1,156.9,43.1Z" transform="translate(-9.1 47.4)" fill="#b77832" fill-rule="evenodd"/><path d="M159.3,33.6c-2.7.1-4.7,2.1-6,4.4l2-1a14.7,14.7,0,0,0-4.4,6.8c1.7-2.5,4.5-4.2,6.4-6.6l-1.6,3c1.2-1.4,2.7-2.6,4-4l-.8,2.2,6-3.8c-1.5,1-3.2,1.6-4.8,2.4.7-1,1.2-2.2,2-3.2-1.3,1-2.8,1.8-4,2.8l.6-1.4-2.8,2C156.6,35.4,157.9,34.6,159.3,33.6Z" transform="translate(-9.1 47.4)" fill="#b77832" fill-rule="evenodd"/><path d="M171.3,30.4a10.5,10.5,0,0,0-8.2,1.2,14.3,14.3,0,0,1,7.8-.4l-3.2.8a21.8,21.8,0,0,1,6.2,1.2C172,32.2,172,31.2,171.3,30.4Z" transform="translate(-9.1 47.4)" fill="#b77832" fill-rule="evenodd"/><path d="M172.3,34.2c-4.4-.6-9.7,2.7-13,5.6l4.2-2c-1.3,1-2.5,2.2-3.8,3.2,1.9-.8,4.1-1.1,6-1.8-1.4,1.4-2.6,3.1-4,4.4a28.8,28.8,0,0,0,9.2-6.4,13.8,13.8,0,0,0-3.6,6.4c3.9-.9,9.9-4.1,9-8.4-1.2,1.5-3,2.9-4.2,4.6,1.1-1.7,1.6-3.7,2.6-5.4-1.2.7-2.6.9-3.8,1.6Z" transform="translate(-9.1 47.4)" fill="#b77832" fill-rule="evenodd"/><path d="M172.5,30c4.9,2.9,11.5,7.9,10.4,14.2C179.3,38.7,177.5,35.1,172.5,30Z" transform="translate(-9.1 47.4)" fill="#b77832" fill-rule="evenodd"/><path d="M151.3,63.5c-7.7,6.4-16.5,11.5-21.4,20.4s-6.3,22.9-10.4,33.6c-3,7.9-5.2,11.8,2,17.2s17.4,6.4,26.8,6,16.2-2,19.6-10.3c2.7-6.6,3.2-11.4,3.7-18.5.6-8.7,1.5-8,9.5-11.6l-5.6-11.2c-.9,1.3-2.7,1.9-3.6,3.2C166.2,80.9,159.7,73.1,151.3,63.5Z" transform="translate(-9.1 47.4)" fill="#97afd8" fill-rule="evenodd"/><path d="M143.5,101.5c-5.8.2-10.5-4.6-15.6-6.6,1.1.7,1.9,2,2.8,2.8-2.6.4-3.8,2.3-4,5.2a21,21,0,0,1,13.8,2.6c-4.9,1.8-10.3,2.4-15.4,3.6,2.2,1.5,1.8,5.8,3.7,6.7s6.2-1.8,8.7-2.1c-6.2,1.4-8.8,8.4-14.4,11.2l7.8-3c-9.2,4.8-5.7,8,1.4,12.8a43.6,43.6,0,0,1-13.6-5.6c4.8,15.3,23.8,11.3,35,8.4C151.6,128.7,151.1,107.1,143.5,101.5Z" transform="translate(-9.1 47.4)" fill="#0a63a8" fill-rule="evenodd"/><path d="M135.7,83.7c.9,3.5,1.7,10.7,5.8,5.4-.2,5.9,5.9,4.8,6.6,8.9,1.1,6.7-8.2.3-9.7-1.4C134.5,92.4,135.5,90.1,135.7,83.7Z" transform="translate(-9.1 47.4)" fill="#0a63a8" fill-rule="evenodd"/><path d="M136.5,86.3C137.6,78.4,151.4,91.1,136.5,86.3Z" transform="translate(-9.1 47.4)" fill="#0a63a8" fill-rule="evenodd"/><path d="M152.7,82.7c-2.4-6.5-7.1-2.8-10.8-3,1.1,5.7,6.9,1.5,8.6,7.2,8-5.5,4.8-13.6-2.8-16C152,73.5,152.3,78.2,152.7,82.7Z" transform="translate(-9.1 47.4)" fill="#0a63a8" fill-rule="evenodd"/><path d="M149.5,103.5a8.5,8.5,0,0,1,5.4-7.4c-1.1,2.6-2.4,5.2-2.8,8l2-.8a33.9,33.9,0,0,1-.6,6.4A11.4,11.4,0,0,1,149.5,103.5Z" transform="translate(-9.1 47.4)" fill="#0a63a8" fill-rule="evenodd"/><path d="M154.3,103.7c-.7-3.9.8-7.1,5.2-6.8C157.1,99,155.5,104.9,154.3,103.7Z" transform="translate(-9.1 47.4)" fill="#0a63a8" fill-rule="evenodd"/><path d="M156.9,106.7c0-4.1,1.9-8.6,5.8-10.4s4.1,1.1.6,3.8a25.6,25.6,0,0,0,5.2-1.4c-.7-1.5-.9-3.6-1.8-5C175.4,100.7,164.8,106.8,156.9,106.7Z" transform="translate(-9.1 47.4)" fill="#0a63a8" fill-rule="evenodd"/><path d="M182.3,200.4c-3.2,11.3,1.5,19.2,2.6,30.2.8,8.1-5.7,24.8,1.4,29.9,5,3.6,21.4,3.6,27.1,2.3,11.1-2.6,8.8-7.9-.8-12.4-4.6-2.1-14-3.4-16.3-7.6-1-1.9-.3-6.1-.4-8.2-.3-6.9.5-13.4,1.2-20.2.2-2.4,1.8-7.2,1-9.5C196.4,200.5,187.9,201.3,182.3,200.4Z" transform="translate(-9.1 47.4)" fill="#e6e7e8" fill-rule="evenodd"/><path d="M95.7,202.2c-7.6,5.1-13.4,10.8-22.4,10.9-5.9.1-7.9-2.5-10.3,2.8-1.1,2.5-.3,6.5-.1,9.1.5,9.2-.1,17.8,6,24.8s9.2,5.3,10.1-3.8c.4-3.8-.2-8,.6-11.7,2.4-11.2,11.8-12,21.7-14.5C97.7,213.6,94.2,209.7,95.7,202.2Z" transform="translate(-9.1 47.4)" fill="#e6e7e8" fill-rule="evenodd"/><path d="M220.7,227.7c1.7,4.4,6.5,5.7,9,1C226.5,225.8,224.4,229.6,220.7,227.7Z" transform="translate(-9.1 47.4)" fill="#bcbec0" fill-rule="evenodd"/><path d="M227.3,219.9c2.7,3.9,9.2,3,8.8-2C233.4,219.8,230.8,221.9,227.3,219.9Z" transform="translate(-9.1 47.4)" fill="#bcbec0" fill-rule="evenodd"/><path d="M244.9,215.5c9.3,7.9-4.2,14-5.2,5.8C239.2,217,242.2,216.9,244.9,215.5Z" transform="translate(-9.1 47.4)" fill="#bcbec0" fill-rule="evenodd"/><path d="M240.3,237.3c-1.2-3.6-.3-7.6,4.2-7.2C252.1,230.8,246.3,241.1,240.3,237.3Z" transform="translate(-9.1 47.4)" fill="#bcbec0" fill-rule="evenodd"/><path d="M229.3,232.5c-3.3,5.2,7,11.8,9.4,6S232.8,231.1,229.3,232.5Z" transform="translate(-9.1 47.4)" fill="#a7a9ac" fill-rule="evenodd"/><path d="M65.3,236.9c-.2,5.6,1.2,15.3,7.3,18s6-.9,6.1-6.4C79,229.2,70.8,247.1,65.3,236.9Z" transform="translate(-9.1 47.4)" fill="#bcbec0" fill-rule="evenodd"/><path d="M64.5,213.3c1.6-2,4.2-3.1,6.6-1.8,4.5,2.4,0,1.8,0,5s.9,16.9.1,17.4c-6.2,4.7-6.6-15.4-6.3-16.3S73.1,211,64.5,213.3Z" transform="translate(-9.1 47.4)" fill="#a7a9ac" fill-rule="evenodd"/><path d="M200.3,202.8c3,8.1-1.4,19.1-2.4,27.4s4.4,19.1-7.8,17c2.7-2.2-2.8-16.3-3.7-21.5s-2.1-8.3-.6-13C188.4,204.4,192.1,203.4,200.3,202.8Z" transform="translate(-9.1 47.4)" fill="#bcbec0" fill-rule="evenodd"/><path d="M189.7,164.6c4,4,12.2,13.3,11.1,18.7-2.2,10.9-22-5.2-22.2-9.9S186.3,163.3,189.7,164.6Z" transform="translate(-9.1 47.4)" fill="#f4e5c6" fill-rule="evenodd"/><path d="M112.9,183.8c-1.4,3.3-.2,11.4-1.8,13-3.3,3.4-12.4.2-15.9,6-5.6,9.3,11.2,7.1,16.3,5.7s4.7-.5,6.1-5.2S118.5,183.9,112.9,183.8Z" transform="translate(-9.1 47.4)" fill="#f4e5c6" fill-rule="evenodd"/><path d="M159.9,107.1c-6.9,2.8-5.6,6.7-2,12.2,4.7,7.1,9.3,4.5,17.5,3.1,15.2-2.5,30-5.8,45.3-7.1-7.6-15.4-11-6.3-24.8-6.1S171.6,99.9,159.9,107.1Z" transform="translate(-9.1 47.4)" fill="#f4e5c6" fill-rule="evenodd"/><path d="M195.5,119.3c5.8-1.9,8.6-.9,12.9,3s16.1,13.3,14.1,18.8c-2.9-.9-6.6-1.4-9.3-2.9-4.2-2.3-2.3-1.6-5-4.3C203.6,129.5,199.7,124.2,195.5,119.3Z" transform="translate(-9.1 47.4)" fill="#f4e5c6" fill-rule="evenodd"/><path d="M75.7,217.9c-5.9.6-3.7,12.5-.2,14.8s4.2.5,6.8-2.5,2.5-5.4,7.6-7.1c-4.4-7.5-5.8,1.3-9.2,2.5-6.3,2.3-2.3-3.2,2-4.9-2.7-1.1-5.1,1.2-6.6,1S69.3,222.1,75.7,217.9Z" transform="translate(-9.1 47.4)" fill="#bcbec0" fill-rule="evenodd"/><path d="M170.5,65.5a7.3,7.3,0,0,1,6.2-.4C175.2,66,172.7,66.2,170.5,65.5Z" transform="translate(-9.1 47.4)" fill="#8e6c15" fill-rule="evenodd"/><path d="M180.9,51.5c-4.5.5-3.2,5.6-2.6,9,1.1-2.7,1.5-5.4.4-7.4C180.6,53.5,179.8,52.2,180.9,51.5Z" transform="translate(-9.1 47.4)" fill="#ba7c32" fill-rule="evenodd"/><path d="M169.3,51.1h0a14.4,14.4,0,0,1,7.4.6c-1.9,3.1-4.9,6.9-7.4,2.2,1.1,0,2.2-.3,3.2-.2C172,51.9,170.9,51.6,169.3,51.1Z" transform="translate(-9.1 47.4)" fill="#ba7c32" fill-rule="evenodd"/><path d="M159.3,64.1c2,6.2,8.7,13.4,15.2,7.6C169.6,73.8,162.2,68.2,159.3,64.1Z" transform="translate(-9.1 47.4)" fill="#ba7c32" fill-rule="evenodd"/><path d="M173.3,60.1c1.3,3,3.2,3.7,5.2.8C176.8,60.8,175,60.1,173.3,60.1Z" transform="translate(-9.1 47.4)" fill="#8e6c15" fill-rule="evenodd"/><path d="M170.9,67.3c1.1,3.1,3.3,2.8,4.8,0C174.1,67.5,172.5,67.1,170.9,67.3Z" transform="translate(-9.1 47.4)" fill="#8e6c15" fill-rule="evenodd"/><path d="M219.5,137.4c1.8,1.2,3.9,1.5.8,2.8,4.7,2.6,4.8,5.7,5.6,10.6,3-5-.6-10.3-3.6-14.8C221.8,138.4,220.9,136.9,219.5,137.4Z" transform="translate(-9.1 47.4)" fill="#bb9972" fill-rule="evenodd"/><path d="M113.1,184c3.1,3.5-.6,3.5-.6,6.8s1.2,5.8,1,9c0,1-2.4,4-2.2,4.4s3.1,1,3,0,4.7.7,1.2,1.6-3,.5-5.8.3c-4.3-.2-14.8-3.4-14.9,4.3-.1,10.8,12.2,4.2,16.4,3.4s6.7,1.2,9.6.2c7.8-2.6,10.9-15.5,14.4-22.2C128,189,120.8,185.5,113.1,184Z" transform="translate(-9.1 47.4)" fill="#dab87c" fill-rule="evenodd"/><path d="M181.3,169.4c-1.8,3.4-7.8,10-6.8,13.6,1.6,5.6,10,7,11.1,14.1.5,3.3-2.2,5.5,1.2,7.7s6.3.2,7.9-1.2c3.7-3.4,4.9-15,6.6-19.8-1.6.7-3.7.2-5.4.8l-.2-7C188.6,184.4,182,176.8,181.3,169.4Z" transform="translate(-9.1 47.4)" fill="#dab87c" fill-rule="evenodd"/><path d="M171.7,104.9c4.8,2.3,10.4,4.2,15.8,3.8C180.5,101.3,181.1,101.1,171.7,104.9Z" transform="translate(-9.1 47.4)" fill="#bb9972" fill-rule="evenodd"/><path d="M174.7,110.1c-2.5-.9-9.9-1.4-11.8,1.2s6.5,2,9,2.4c-3.3,1.8-18.4,4.1-9.2,9,4,2.1,16.3-.4,20.7-1s9.9-2.9,14.9-3.8,9.6.3,13.6-1c.8-.3,3-3.2,3-3.2,4-.4,5.1-.1,7.8,4-.2-1.4.1-1.8-1.2-3.6,2.5-1.5-.9-3.6-3-5.2a11.7,11.7,0,0,1,9,1.6c-11.6-15.7-12.3,4.8-18.6,3.2l2.6-1.8-3.6.4,2.8-2.2c-10.9,2.3-17.3,7.3-29.4,5.6l11.4-3.2Z" transform="translate(-9.1 47.4)" fill="#dab87c" fill-rule="evenodd"/><path d="M186.3,121.9c2,6.1,15.8,9,21.4,10.8-1.3-1.2-2.3-2.7-3.6-3.8,2.6,1.4,4.9,3.1,7.6,4-2-3.6-5.7-5.4-8.9-8C195.9,119.3,196.2,119.2,186.3,121.9Z" transform="translate(-9.1 47.4)" fill="#dab87c" fill-rule="evenodd"/><path d="M210.1,137.2a11.7,11.7,0,0,0,6.6-1.2c.4,2.7,2.1,4,4.8,3.8l-.4,1.8C217.8,140.3,211.2,140.8,210.1,137.2Z" transform="translate(-9.1 47.4)" fill="#bb9972" fill-rule="evenodd"/><path d="M220.9,141.6c2.6,4.4-2.2,5.9-3.2,8.8a10.7,10.7,0,0,0,5.2-3.6c-1,3-3.9,4.4-2.8,7.4C223.6,150.9,227,144,220.9,141.6Z" transform="translate(-9.1 47.4)" fill="#6c3c2d" fill-rule="evenodd"/><path d="M189.3,181.6c.5,5.5,7,4.4,5.6-1A5.5,5.5,0,0,1,189.3,181.6Z" transform="translate(-9.1 47.4)" fill="#ba7c32" fill-rule="evenodd"/><path d="M201.3,181.6c-.4,3.2-10.2,9.9-11.4,5.4-6.2,3.5.6,5,.8,7.5s-5.2,6.3-3.2,9.7,7.8,2,9.8,1c4.1-2,3.2-2.5,3-8.2S201.4,186.8,201.3,181.6Z" transform="translate(-9.1 47.4)" fill="#ba7c32" fill-rule="evenodd"/><path d="M173.3,183.4c4.4,3.2,8.9,6.2,11,11.4,3.1-4.4-7.3-10.8-9.8-14.6Z" transform="translate(-9.1 47.4)" fill="#8e6c15" fill-rule="evenodd"/><path d="M101.9,219.9c5.2-2.9,10.7-5.6,17-5.6a17.4,17.4,0,0,0-9-4,5.4,5.4,0,0,1-7.2,3.6,19.1,19.1,0,0,1,5.4-4.6c-3.9-2-9,1.5-12.4,3.6C97.8,215,99.9,217.7,101.9,219.9Z" transform="translate(-9.1 47.4)" fill="#8e6c15" fill-rule="evenodd"/><path d="M119.5,186a37,37,0,0,1,9.4,2.8c5.2,2.4,5.2,2.2,4.8,6.8-.7,9-6.9,19.7-16.6,18.8,4.8-.6,11-4.1,2.2-6.2,11.8-3,1-14.2-2.8-4.4C117.7,198.8,113.3,187.1,119.5,186Z" transform="translate(-9.1 47.4)" fill="#8e6c15" fill-rule="evenodd"/><path d="M151.9,60.7c5.1,7.1,13.6,11.5,14.2,21l-6.8-6.4,6.4,9c-4.1-3.4-7.1-3.7-12-1.6,1-4.8.2-9.3-4.8-11.2,1.7.1,3.3-.5,5-.4-2.3-.9-2.5-2-3.6-3.4,3.2.5,5.9,2.6,8.4,4.6-3.1-3.4-6.1-9.9-10.6-6.2C149.3,64.3,150.5,62.3,151.9,60.7Z" transform="translate(-9.1 47.4)" fill="#231f20" fill-rule="evenodd"/><path d="M135.9,83.3c.1,3,.6,14.4,4.6,8-.2,5,3.6,3.2,5,5.4s.5,4.1,2,7.5,9.7,16.6,13.4,18,5.8-2.2,7.9-1.5c5.2,1.8.2,13.7-2.1,17-4.5,6.5-16.8,6-24.4,6s-15.8-1.2-19.6-8.4c7-1.3,19.5,9.3,23.4-2.2-4.2,3.4-14.5,4-17.6-2s7.4-9.4,12.6-11.4l-10,1.2c3.3-5,5.9-6,11.4-8-6.2-.2-8.9.2-14.4,3-.3-9,11.6-8.6,18.4-7.8-3.8-5.1-11.4-3.7-14.6-10.2,3.6,2.3,7.3,4.3,11.8,3.8C132.6,98.2,133.2,93.2,135.9,83.3Z" transform="translate(-9.1 47.4)" fill="#231f20" fill-rule="evenodd"/><path d="M143.9,82.3c1.9-3.7,5.7-2.6,8.2,0Z" transform="translate(-9.1 47.4)" fill="#231f20" fill-rule="evenodd"/><path d="M137.1,86.3c1-3.5,3.9-2.6,6,0A12.3,12.3,0,0,1,137.1,86.3Z" transform="translate(-9.1 47.4)" fill="#231f20" fill-rule="evenodd"/><path d="M148.5,96.1c1.1,2.1-.8,9.8,3.4,5.4-.6,1.4-.3,2.9-.6,4.2l2-1.2a15.6,15.6,0,0,1-.2,4.6C148.3,104.2,147.4,103.3,148.5,96.1Z" transform="translate(-9.1 47.4)" fill="#231f20" fill-rule="evenodd"/><path d="M157.7,106.1c-.3-4.9,4-8,7.6-10.2-.5,2.2-2.4,4.1-4.2,6.2,3.7-2.9,9.3.1,7.6-5.2s-7.1-4.7-10.8-3.8c-1.5-5.6,4.7-6.4,8.2-3.8s5.6,11.9,6.6,16.2C166.9,101.6,163.1,107.9,157.7,106.1Z" transform="translate(-9.1 47.4)" fill="#231f20" fill-rule="evenodd"/><path d="M158.9,97.9c-1.8,2.1-2.7,4.8-4.2,7.2C154.4,101.8,154.8,97.8,158.9,97.9Z" transform="translate(-9.1 47.4)" fill="#231f20" fill-rule="evenodd"/><path d="M170.5,75.9c-7.1-3-.7,20.3,1.2,24.8s4.9,7.5,8.6,1.4-8.2.8-2.4-4c-5.2.2-1.7-3.7-2.2-7.8-.3-2.2-1.6-3.9-2.3-6A85.1,85.1,0,0,1,170.5,75.9Z" transform="translate(-9.1 47.4)" fill="#231f20" fill-rule="evenodd"/><path d="M158.9,153.8a68.3,68.3,0,0,1-6.8,13c-3,4.1-10.3,7.2-11,12.4l3.2-.8c1.5,5.9-5.6,7.9-3,14,4.6-.8,5.1-12.1,6.2-16.4,5.6,4.5,10.4,5.1,17,2.4-1.9-.3-11.8-.3-13-2.2-3.5-5.5,16.2-20.2,19-23l-14.8,11.2Z" transform="translate(-9.1 47.4)" fill="#231f20" fill-rule="evenodd"/><path d="M155.1,171.4l15.4-16.2C167.3,162.6,162.9,168.5,155.1,171.4Z" transform="translate(-9.1 47.4)" fill="#231f20" fill-rule="evenodd"/><path d="M190.7,162.2c-8.7-2.1-18.5,19.5-22.2,25.6,6.1-4.1,6.7-8.4,10.9-14.2,2.5-3.4,6.4-9.7,10.9-8.4Z" transform="translate(-9.1 47.4)" fill="#231f20" fill-rule="evenodd"/><path d="M149.3,162.6c-2.7,6.7-7.6,9.9-14.8,9.4A34.2,34.2,0,0,0,149.3,162.6Z" transform="translate(-9.1 47.4)" fill="#231f20" fill-rule="evenodd"/><path d="M121.1,150.2c9.8.4,18.9-3,28.6-4.2C140.5,151,131.4,150.4,121.1,150.2Z" transform="translate(-9.1 47.4)" fill="#231f20" fill-rule="evenodd"/><path d="M124.1,146.8C134,143.1,135.3,148.9,124.1,146.8Z" transform="translate(-9.1 47.4)" fill="#231f20" fill-rule="evenodd"/><path d="M138.5,155.6a32.6,32.6,0,0,0,4.4-3.6c-1.9-.2-3.9-.9-5.8-1,7.1-1.2,12.8-.1,19.4-3.4-4.7,3.5-9.4,7.8-15,9.8l3.6.4c-4.2,7.4-11.3,8-19.2,8.6,5.1-2.1,11.1-3.5,15-7.6l-7.4-.6A55.3,55.3,0,0,1,138.5,155.6Z" transform="translate(-9.1 47.4)" fill="#231f20" fill-rule="evenodd"/><path d="M119.3,185.8h0a50.9,50.9,0,0,1,17.8,6.2,15.7,15.7,0,0,1-2.8,4.2C134.4,189.5,124.2,187.9,119.3,185.8Z" transform="translate(-9.1 47.4)" fill="#ba7c32" fill-rule="evenodd"/><path d="M177.7,45.3c-1.1,2.1-1.3,3.9-3.4,5.2l2.8-1.4-1.2,2.2c5.6-1.4,5.7-9.8,3.6-14l-.8,3.6a8.8,8.8,0,0,0-2.8-6.2c.8,2.6-1.3,4.5-3.4,6.4a10.4,10.4,0,0,1,2.2-6.8c-1.1,1-2.5,1.6-3.6,2.6l.8-2.6c-3.6,1.4-6.7,3.6-10,5.6,1.6-.6,3.5-.7,5.2-1.2-1.1,1.1-1.9,2.5-3,3.6a14,14,0,0,0,6.4-4.2c-3.9,4.9.5,6.9-7.6,10.2C168.5,49.5,173.1,48.8,177.7,45.3Z" transform="translate(-9.1 47.4)" fill="#231f20" fill-rule="evenodd"/><path d="M165.5,43.4c-1.3,2.5-4.5,3.2-7.4,3.2l1.8-2.4c-3.1.3-3.2,1.6-4.4,4-2.5-1.4-2.1-3.9,0-6-2.8.7-4.2,3.2-4.6,6l-.4-2.4c-2.6,3.5,1.7,9.7,3.8,12.8-.3-2.2-1.7-7,.2-8.8,4.3-4.2,3.8,4.1,6.4,4.2,5,.2.4-5.5.4-5.6C162.7,45.7,166.4,47.1,165.5,43.4Z" transform="translate(-9.1 47.4)" fill="#231f20" fill-rule="evenodd"/><path d="M231.5,222.5c-1.5,5.7,3.7,11,7.6,5.4S236.7,218.9,231.5,222.5Z" transform="translate(-9.1 47.4)" fill="#231f20" fill-rule="evenodd"/><path d="M248.7,221.3c-4,8.9,7.5,12,3.9,3.5A6.1,6.1,0,0,0,248.7,221.3Z" transform="translate(-9.1 47.4)" fill="#231f20" fill-rule="evenodd"/><path d="M240.3,236.9c-8.8,4.9,1.7,9.9,4.8,4.3C246.9,237.9,244,236,240.3,236.9Z" transform="translate(-9.1 47.4)" fill="#231f20" fill-rule="evenodd"/><path d="M226.3,233.3c.9,1.6,1.7,4,3,5.6-5.1,3.2-8-3.2-7.2-7.4C223.3,232,225.2,232.5,226.3,233.3Z" transform="translate(-9.1 47.4)" fill="#231f20" fill-rule="evenodd"/><path d="M230.3,228.5c-1.1,1.4-2.4,2.7-3.6,4C227.2,230.1,228.5,229.6,230.3,228.5Z" transform="translate(-9.1 47.4)" fill="#231f20" fill-rule="evenodd"/><path d="M236.7,219.5c.5-2,0-3.1,1.8-4.4A7.3,7.3,0,0,1,236.7,219.5Z" transform="translate(-9.1 47.4)" fill="#231f20" fill-rule="evenodd"/><path d="M237.3,231.3c.6,1.6,1.5,3.2,2.2,4.8C239.9,233.1,238.6,232.4,237.3,231.3Z" transform="translate(-9.1 47.4)" fill="#231f20" fill-rule="evenodd"/><path d="M249.1,233.3c-1.3,1.2-2.4,2.7-3.6,4C247.9,236.5,248.3,235,249.1,233.3Z" transform="translate(-9.1 47.4)" fill="#231f20" fill-rule="evenodd"/><path d="M161.3,119.1c1.4,1.5,3.2,1.6,1.2,3.8,16.1-.7,32.4-1.5,48-4.2,2-.3,4.9-2.2,6.8-2s4,1.2,4.2,1.2c-1.6.2,6,1.4.8-1.4a10,10,0,0,0-4.4-1.4c-4.8-.8-6.7,1.9-11.4,2.2-1.8.1-4.4-1.3-5.6-1.2s-1.5.8-3.6,1.2c-9.6,1.8-17.2,4.2-27.2,3a23.6,23.6,0,0,1,6.4-3.8C171.1,115.2,166.4,117.8,161.3,119.1Z" transform="translate(-9.1 47.4)" fill="#7c5832" fill-rule="evenodd"/><path d="M183.9,121.9c6.2,8.5,18.5,6,24.8,12.8C208.9,133.7,186,121.5,183.9,121.9Z" transform="translate(-9.1 47.4)" fill="#7c5832" fill-rule="evenodd"/><path d="M213.9,112.9a8.8,8.8,0,0,0,4.2.6,16.4,16.4,0,0,1-2.2-2.6c2.2,1.4,4.3,2.8,6.4,4.4C223.2,113.2,215,105.1,213.9,112.9Z" transform="translate(-9.1 47.4)" fill="#564a02" fill-rule="evenodd"/><path d="M216.7,107.9c2.9,3.1,6.9.4,10.4,3.4C225.8,107.2,220.8,107.9,216.7,107.9Z" transform="translate(-9.1 47.4)" fill="#564a02" fill-rule="evenodd"/><path d="M209.1,137.2c1.4,4.2,7.9,3.9,11.2,3.4A56,56,0,0,1,209.1,137.2Z" transform="translate(-9.1 47.4)" fill="#564a02" fill-rule="evenodd"/><path d="M215.7,135.8c1.6,1.3,2.6,2.2,4.8,2.2C219.4,135.9,218,136,215.7,135.8Z" transform="translate(-9.1 47.4)" fill="#7c5832" fill-rule="evenodd"/><path d="M218.9,141.4c4.7-4.5,9.6,8.3,6.2,12.2C223,149.7,226.9,142.3,218.9,141.4Z" transform="translate(-9.1 47.4)" fill="#472f00" fill-rule="evenodd"/><path d="M217.9,116.1c-1.1,1-2.1,1.3-1.4,3l2.2-1.2c-2.2,5.1,1.3,4,2.4-.8Z" transform="translate(-9.1 47.4)" fill="#6c3c2d" fill-rule="evenodd"/><path d="M136.1,192.4c-2.9,6.3-5.8,20.7-13.6,21.6,3-1.1,6.2-4.5,1.4-5,2.9-2.8,4.9-4,7.1-7.9S133.3,192.8,136.1,192.4Z" transform="translate(-9.1 47.4)" fill="#231f20" fill-rule="evenodd"/><path d="M89.9,206.2c-1.3,5.1,3.6,18.7,10.2,14-5.4-3.3-8.1-9.4-8.2-15.6Z" transform="translate(-9.1 47.4)" fill="#ee2934" fill-rule="evenodd"/><path d="M86.7,208.2c-1.8,5.6,2.7,10.4,6.2,14.4C86.2,225.6,80.8,212.2,86.7,208.2Z" transform="translate(-9.1 47.4)" fill="#ee2934" fill-rule="evenodd"/><path d="M69.7,217.3c-7.2-1.3-4.7,7.4-4.2,11.6C69.6,227.4,69.4,220.9,69.7,217.3Z" transform="translate(-9.1 47.4)" fill="#231f20" fill-rule="evenodd"/><path d="M70.3,223.7c.4,3,1.8,4.6,3.4,7s2.9,1.3,3.4,2.4.2,4.6.2,7.8c-3.5-2.2-9.5-1.9-11.2-5.8C69.8,233.1,70.1,227.7,70.3,223.7Z" transform="translate(-9.1 47.4)" fill="#231f20" fill-rule="evenodd"/><path d="M66.3,242.3c4.3,2.7,10.3,1,4.8,9.2C67.9,249.4,66,246.2,66.3,242.3Z" transform="translate(-9.1 47.4)" fill="#231f20" fill-rule="evenodd"/><path d="M79.1,234.1c-.9,5.3-1.7,6.7-4.2,9.6,2.9.1,2.4,1.5,3,3.8-3.1-4.1-2.7,4.9-6,6,6.3,6,7.2-3.2,7.4-7.3.3-5.8,2.2-10.4,3-15.9C81.5,232,80.2,232.7,79.1,234.1Z" transform="translate(-9.1 47.4)" fill="#231f20" fill-rule="evenodd"/><path d="M201.1,186c.2,3.5-1.6,6.1-4.6,6.8-.6-2.5-3-1.6-5.2-.8A75.1,75.1,0,0,0,201.1,186Z" transform="translate(-9.1 47.4)" fill="#231f20" fill-rule="evenodd"/><path d="M194.5,182.4c-1.3,1.3-1.3,2.8-3.6,1.4Z" transform="translate(-9.1 47.4)" fill="#231f20" fill-rule="evenodd"/><path d="M200.3,195c.4,4.6,3,10.3-3.2,10.6C200.3,202.7,198.1,198.5,200.3,195Z" transform="translate(-9.1 47.4)" fill="#231f20" fill-rule="evenodd"/><path d="M181.5,205.2c6.6,3.1,12.6,3.2,19.8,3.2C203,216.9,178.3,214.2,181.5,205.2Z" transform="translate(-9.1 47.4)" fill="#ee2934" fill-rule="evenodd"/><path d="M182.1,215.8c4.1,4.5,12.3,3.2,17.8,2.4C199.7,225.9,180.2,224.1,182.1,215.8Z" transform="translate(-9.1 47.4)" fill="#ee2934" fill-rule="evenodd"/><path d="M185.1,244.9c.3,1.6-.1,2.7,3,2.8C186.5,247,186.2,245.9,185.1,244.9Z" transform="translate(-9.1 47.4)" fill="#231f20" fill-rule="evenodd"/><path d="M184.1,250.9c2.7,1.7,6.1,1.3,9.2,1C191,249.1,187.4,250.2,184.1,250.9Z" transform="translate(-9.1 47.4)" fill="#231f20" fill-rule="evenodd"/><path d="M183.9,257.7c2,4.5,15,3,19.6,3.8a12.4,12.4,0,0,1,2.8-7C201.6,253.9,184.9,253.7,183.9,257.7Z" transform="translate(-9.1 47.4)" fill="#231f20" fill-rule="evenodd"/><path d="M191.9,247.9c2.8-.4,5.7-1.4,7.2-3.8,3.4,2.5,7.2,3.7,10.8,5.6-2.3,2.3-2.2-.3-.8,3.2-4.4-1.9-9.6-6.4-12.8-.8l.6-3-2.4,1.8C195.5,247.7,193.3,249.5,191.9,247.9Z" transform="translate(-9.1 47.4)" fill="#231f20" fill-rule="evenodd"/><path d="M206.1,254.3c-5.9,4.5-2.5,7.6,2.8,7.2s10.1-3,14.2-4.2a13.7,13.7,0,0,0-8-5.6c7.8,3.2-.4,6.1-4.8,6.4.7-2.5,2-3.3,4.6-3.4-.9-.5-2.5-1.8-3.4-2.2C210.6,255.4,208.2,255.8,206.1,254.3Z" transform="translate(-9.1 47.4)" fill="#231f20" fill-rule="evenodd"/><path d="M187.1,260.9h0c6,.7,12.5,1.5,18.4,1.8s10.5-3.5,16.4-3.2c-4.2,4.2-8.1,4.7-15.7,4S193.3,261.9,187.1,260.9Z" transform="translate(-9.1 47.4)" fill="#231f20" fill-rule="evenodd"/><path d="M171.7,50.7h0c2.3.1,3,.8,5,.2a15.1,15.1,0,0,0-2,3.4c-2.3.6-2.1,1.4-4.4-.2C173.9,54.2,174.1,52.9,171.7,50.7Z" transform="translate(-9.1 47.4)" fill="#231f20" fill-rule="evenodd"/><path d="M180.5,51.5c-1.7,1-2.9.7-2.6,3.4C179.4,54.3,179.8,53.5,180.5,51.5Z" transform="translate(-9.1 47.4)" fill="#231f20" fill-rule="evenodd"/><path d="M173.3,59.7c.9,2.2,2.9,2.9,5,1.2A14.4,14.4,0,0,1,173.3,59.7Z" transform="translate(-9.1 47.4)" fill="#231f20" fill-rule="evenodd"/><path d="M172.7,64.7c-1.2.4-1.8-.4-2.2,1.2,2.3.5,4.1.6,6-.4C175,65.6,174,65,172.7,64.7Z" transform="translate(-9.1 47.4)" fill="#231f20" fill-rule="evenodd"/><path d="M171.7,67.3l3.2.6C172.9,69.1,173,67.9,171.7,67.3Z" transform="translate(-9.1 47.4)" fill="#231f20" fill-rule="evenodd"/><path d="M159.9,64.3a8.3,8.3,0,0,0,5.4,6.8C163.5,68.9,161.1,67.1,159.9,64.3Z" transform="translate(-9.1 47.4)" fill="#231f20" fill-rule="evenodd"/><path d="M110.3,202c-3.2-1.2-7-.2-10.2.8C103.5,202.2,107.3,203.4,110.3,202Z" transform="translate(-9.1 47.4)" fill="#8a6922" fill-rule="evenodd"/><path d="M174.9,56.7c.1,1-1.6,1.6,1,1.6Z" transform="translate(-9.1 47.4)" fill="#8a6922" fill-rule="evenodd"/><path d="M117.1,147c-2.2,2.9-1.8,12.1-1.8,17.4l4.4-2c-8.8-.2,4.9-3.4,6.6-4.2l-9.2-1,10.6-1.8c-1.3,0-9.4-.1-9.4-1.6s8.6-1.6,9.8-1.8c-3.6-.5-8.6,0-11-3,1.4.2,3,0,4.4.2C120,148.5,118.6,147.6,117.1,147Z" transform="translate(-9.1 47.4)" fill="#bcbec0" fill-rule="evenodd"/><path d="M121.9,161.4c4.8-2.8,9.7-1.6,15-1.4Z" transform="translate(-9.1 47.4)" fill="#a7a9ac" fill-rule="evenodd"/><path d="M111.7,178c3-6.3,12.8-5.8,18.8-6.8l-8.8,3.6c1.8,0,3.8.2,5.6,0C122.2,176.3,117.1,178.2,111.7,178Z" transform="translate(-9.1 47.4)" fill="#a7a9ac" fill-rule="evenodd"/><path d="M113.9,154.8c-.8,5,1.5,14.3-1.4,18h1.8c-7.7,6.8-1.2-2.6-1.2-2.7.1-3.2-1.2-5.4-.4-7.7l-3-1.6,2.4-.2C111.9,158.2,111.8,155.7,113.9,154.8Z" transform="translate(-9.1 47.4)" fill="#bcbec0" fill-rule="evenodd"/><path d="M184.5,191.4c.1,4.6-5.9,12.3,1.6,13.4C186.3,200.4,187.8,195,184.5,191.4Z" transform="translate(-9.1 47.4)" fill="#ddd4bc" fill-rule="evenodd"/><path d="M225.9,241.5c4.7-2.8,9.9.1,12.8,4C235.2,246,228.2,243.9,225.9,241.5Z" transform="translate(-9.1 47.4)" fill="#808285" fill-rule="evenodd"/><path d="M246.5,241.7c0-4,3.1-8,6.4-9.6A12.2,12.2,0,0,1,246.5,241.7Z" transform="translate(-9.1 47.4)" fill="#bcbec0" fill-rule="evenodd"/><path d="M226.1,213.9c2.2,5.8-6,11.4-5,6.4C221.5,218,224.6,215.4,226.1,213.9Z" transform="translate(-9.1 47.4)" fill="#6d6e71" fill-rule="evenodd"/><path d="M235.9,211.1c-.5,6.2,10.8,4.2,8.4,1.4S237.9,210.7,235.9,211.1Z" transform="translate(-9.1 47.4)" fill="#414042" fill-rule="evenodd"/><path d="M169.5,93.7c-2.9-7.9-7.6-13.7-16.6-9.8-4.3,1.9-9.1,7-9.6,12l4.2,2C150.9,86.9,163.7,83.4,169.5,93.7Z" transform="translate(-9.1 47.4)" fill="#fff" fill-rule="evenodd"/><path d="M134.9,80.9c-1.2,4.7-2.3,9.7-1.8,14.6C128.8,91.4,132.9,84.9,134.9,80.9Z" transform="translate(-9.1 47.4)" fill="#0a63a8" fill-rule="evenodd"/><path d="M121.1,154c6.8-1.4,13.5-.3,20.2-1.4-6.2,4.3-12,5.2-19.4,4.6,4.3-.6,9.2-.9,13.2-2.6Z" transform="translate(-9.1 47.4)" fill="#fff" fill-rule="evenodd"/><path d="M116.3,166c5.2-4.7,12.8-4.2,19.4-4.8C129.5,162.2,122.2,166.1,116.3,166Z" transform="translate(-9.1 47.4)" fill="#fff" fill-rule="evenodd"/><path d="M119.5,134.6c4.3,3.3,6.6,8.1,12.6,8.8l-16.8,1.4,6.6-2.2c-1.3-.4-2.5-1.4-3.8-1.8l3.4-.6C118.2,138.1,119.9,137.2,119.5,134.6Z" transform="translate(-9.1 47.4)" fill="#fff" fill-rule="evenodd"/><path d="M114.3,146.4c-3.2,3.1-.5,18.8.2,23.8C114.5,163.1,116.9,152.6,114.3,146.4Z" transform="translate(-9.1 47.4)" fill="#fff" fill-rule="evenodd"/><path d="M124.1,168.8c-3.5.5-7.7,1.3-9.6,4.2C118.3,171.6,121.5,171.7,124.1,168.8Z" transform="translate(-9.1 47.4)" fill="#fff" fill-rule="evenodd"/><path d="M146.1,162.2c-5.2,5-12,7.1-18.8,8.8C135.2,170,140.9,169.2,146.1,162.2Z" transform="translate(-9.1 47.4)" fill="#fff" fill-rule="evenodd"/><path d="M111.5,168c-2.1,1.1-3.4,1.6-3.2,4l1.8-1q.1.3-.2.2c-2.4,3.5.8,5.6-2.4,9.2a73.6,73.6,0,0,0,17.2,4.4c-4.6-3.8-9.4-4.1-15-5.4a11.4,11.4,0,0,1,4.6-5.4c-5.5,4-6.1-1.7-2.2-4.2l-2.2.4Z" transform="translate(-9.1 47.4)" fill="#fff" fill-rule="evenodd"/><path d="M108.9,167.8l2.4-1a30.6,30.6,0,0,0-1-4.6A13.1,13.1,0,0,0,108.9,167.8Z" transform="translate(-9.1 47.4)" fill="#fff" fill-rule="evenodd"/><path d="M120.9,177.2a109.7,109.7,0,0,1,18.8-4.8C133.1,174.7,127.9,176.5,120.9,177.2Z" transform="translate(-9.1 47.4)" fill="#fff" fill-rule="evenodd"/><path d="M82.3,215.5c-3.4.7-7.8,2.4-7.8,6C76.7,219.3,79.8,217.4,82.3,215.5Z" transform="translate(-9.1 47.4)" fill="#fff" fill-rule="evenodd"/><path d="M186.5,235.5c-.2,1.5-.6,12.3,3.4,9.6C191.7,243.8,186.7,237.8,186.5,235.5Z" transform="translate(-9.1 47.4)" fill="#fff" fill-rule="evenodd"/><path d="M184.7,247.5c-1.8,3.4,4.5,2,7.2,1.8A18.7,18.7,0,0,0,184.7,247.5Z" transform="translate(-9.1 47.4)" fill="#fff" fill-rule="evenodd"/><path d="M230.3,223.1c-3.7-6.1-8.1-.5-9,3.4C223.4,223.2,226.4,220.1,230.3,223.1Z" transform="translate(-9.1 47.4)" fill="#fff" fill-rule="evenodd"/><path d="M226.9,218.9c-.8-4.3,5.3-8.4,8.6-5.6S229.4,219.4,226.9,218.9Z" transform="translate(-9.1 47.4)" fill="#fff" fill-rule="evenodd"/><path d="M231.1,229.1a15,15,0,0,0-3.8,3.6,7.2,7.2,0,0,1,9.4-.8C235.8,230.3,233.5,229.3,231.1,229.1Z" transform="translate(-9.1 47.4)" fill="#fff" fill-rule="evenodd"/><path d="M238.1,230.3c1.3-4.2,4.7-5.7,8.8-4.4C243.2,226,239.9,229.2,238.1,230.3Z" transform="translate(-9.1 47.4)" fill="#fff" fill-rule="evenodd"/><path d="M239.1,215.2c-1.5,2.7-1.5,5.5.8,7.6-2.1-3.5-.9-7.3,3.4-7.4Z" transform="translate(-9.1 47.4)" fill="#fff" fill-rule="evenodd"/><path d="M245.7,215.1c.9,1.7,2.3,3.4,3.4,5A4.7,4.7,0,0,0,245.7,215.1Z" transform="translate(-9.1 47.4)" fill="#fff" fill-rule="evenodd"/><path d="M220.5,228.1a9.7,9.7,0,0,1,1,6.8A17.7,17.7,0,0,1,220.5,228.1Z" transform="translate(-9.1 47.4)" fill="#fff" fill-rule="evenodd"/><path d="M158.9,52.3c-1.5-1.3-1.3-3.1-3.6-1.4,1.9.5,1.6,1.2,2.8,1.8-1.4,1.8,0,2.2.8,3.8A7.9,7.9,0,0,1,158.9,52.3Z" transform="translate(-9.1 47.4)" fill="#ba7c32" fill-rule="evenodd"/><path d="M159.1,58.9c-1.6,1-3,.2-4-1.6C156.2,60,157.6,61.7,159.1,58.9Z" transform="translate(-9.1 47.4)" fill="#ba7c32" fill-rule="evenodd"/><path d="M181.3,41.5c.7,3.1,1.4,6.2,1.8,9.4a43.8,43.8,0,0,1,.2-6.6,15,15,0,0,1,1.2,5.2c1.1-4.2-1.3-7.4-3-11.2.4,1.5.5,3.2.8,4.8C181.8,42.7,181.7,42,181.3,41.5Z" transform="translate(-9.1 47.4)" fill="#231f20" fill-rule="evenodd"/><path d="M118.5,214.2c-10.1.6-18.5,7.6-29,8.8C99.6,220.4,108,214.3,118.5,214.2Z" transform="translate(-9.1 47.4)" fill="#231f20" fill-rule="evenodd"/><path d="M152.1,92.1c1.1-1,2.9-1.7,4.2-2.4.7,4.1-2.9,5.6-5.6,8C151.3,95.9,151.6,94,152.1,92.1Z" transform="translate(-9.1 47.4)" fill="#bdcce9" fill-rule="evenodd"/><path d="M145.5,70.9c-5.8,1.8-7.5,5.6-10.2,10.6l2.6-2.4a5.8,5.8,0,0,0,5.2,4.4c-2.4-2-3.7-4.8-1.4-7,2.2,2.1,4.1.5,7.4.6A6.5,6.5,0,0,0,145.5,70.9Z" transform="translate(-9.1 47.4)" fill="#bdcce9" fill-rule="evenodd"/><path d="M130.9,84.9c-3.6,3.5-2.4,8.6,1.4,11C129.9,92.4,130.1,88.8,130.9,84.9Z" transform="translate(-9.1 47.4)" fill="#bdcce9" fill-rule="evenodd"/><path d="M137.9,105.1c-1.8-1.4-15.4-3-14.6,1.6C123.7,108.8,136,105.4,137.9,105.1Z" transform="translate(-9.1 47.4)" fill="#bdcce9" fill-rule="evenodd"/><path d="M122.5,113.3c-2.6,8.8-6.7,11.1,2,18.2-1.6-2.2-1.9-4.5-.2-6.4l-2.8.6c1.3-3.5,4.5-5.6,7.4-7.8C125.3,118.7,123.4,116.2,122.5,113.3Z" transform="translate(-9.1 47.4)" fill="#bdcce9" fill-rule="evenodd"/><path d="M75.3,214c-3.5-.5-4,4.3-3.6,7.4A15.5,15.5,0,0,1,75.3,214Z" transform="translate(-9.1 47.4)" fill="#fff" fill-rule="evenodd"/></svg>