<svg xmlns="http://www.w3.org/2000/svg" viewBox="0 0 496.9 566.9"><title>kh</title><path d="M50.8,330.8C35.9,281.2,32.8,226.2,36.4,174.7c2.8-39.5,9.8-80.9,22.2-118.7,2.9-9.3,6-13.7,15.1-17.2C139.4,12.6,215.7-.2,286.8,0A579.7,579.7,0,0,1,492,38.5c9.3,3.6,12.6,6.4,15.7,16,17.4,52.3,25.4,114.4,24.1,169.4-.9,36.8-5.4,74.8-16.3,110.1C480.3,448.9,396.9,518.3,283.8,567,170.4,519.6,86.2,448.3,50.8,330.8Z" transform="translate(-35 0)" fill="#df3330" fill-rule="evenodd"/><path d="M63.3,328.5c-14.5-48.2-17.4-103-13.9-153.1A493.2,493.2,0,0,1,70.9,61.3c2-6.3,4.5-9.4,10.8-11.9,65-25.5,135.2-38.1,205-37.8A571.5,571.5,0,0,1,487.3,48.8c6.4,2.4,9.1,4.8,11.3,11.5,17.2,51.6,24.2,110.8,23,163.3-.8,35.8-5.3,73.1-15.8,107.3C472.1,440.7,389.4,509.2,285,554.3,179.6,509.3,97.1,440.8,63.3,328.5Z" transform="translate(-35 0)" fill="#fff" fill-rule="evenodd"/><path d="M83.6,61.6c65.2-25.9,135.7-38.1,203.1-37.8A557,557,0,0,1,486.2,61.4c16,48.3,24.2,106.4,23,161.9-.8,36.8-5.5,73-15.1,104C466.2,418.3,399,491.6,285,540.9,177.2,493.8,105.6,426.2,75.1,325c-12.7-42.3-17.2-94.6-13.4-148.6A483.8,483.8,0,0,1,83.6,61.6Z" transform="translate(-35 0)" fill="#df3330" fill-rule="evenodd"/><path d="M72.1,205.6c-1.1,37.4,2.7,80.1,13.6,116.2,30.9,102.4,110.5,167.2,199.3,206,92.8-41.1,167.2-104.1,197.7-203.7,11.4-37.2,16.2-80.1,14.9-118.6-57.6-24.1-134.4-39.2-212.5-39.6C203.6,165.5,121.6,184.6,72.1,205.6Z" transform="translate(-35 0)" fill="#fff" fill-rule="evenodd"/><path d="M152.2,402.6,249,283l26.5-9c13.7.2,30.1,2,50.6,6.9h7.8l101.4-46.6,7.2,5L333.9,332.2l-18,48.4-45.6,1.2L438,396.9a134.5,134.5,0,0,1-8.4,11L301,423.6l-34.5,84.9a241.3,241.3,0,0,1-24.5-13l-.2-56.7L275.9,427l-40.5,5-16.6-27.2,25.4-61.3-86.9,66.2Z" transform="translate(-35 0)" fill="#df3330" fill-rule="evenodd"/><circle cx="388.5" cy="368.8" r="26.6" fill="#df3330"/><circle cx="280.8" cy="242.1" r="31" fill="#df3330"/><path d="M83,229.2l.3.3h.4l2.5-.9.3-.3a.5.5,0,0,0,0-.4l-2.2-6.4,7.3,5h.4l3-1,.3-.3a.6.6,0,0,0,0-.4l-.2-.3-7.9-5.2,2.8-8a.5.5,0,0,0,0-.4l-.3-.3h-.4l-2.7.9h-.2v.2l-2.7,7.6-2-5.6-.3-.3H81l-2.5.9-.3.3a.5.5,0,0,0,0,.4Z" transform="translate(-35 0)" fill="#df3330" fill-rule="evenodd"/><path d="M98.3,224l.2.2h.3l2.6-.8.3-.2a.4.4,0,0,0,0-.3L99,214.9h0l11.3,5.8h.7l.3-.2a.4.4,0,0,0,0-.3l-4.7-14.5-.2-.2h-.3l-2.6.8-.3.2a.5.5,0,0,0,0,.3l2.5,7.7h0l-11.3-5.5-.5.2-.2.2a.4.4,0,0,0,0,.3Z" transform="translate(-35 0)" fill="#df3330" fill-rule="evenodd"/><path d="M114.1,219.3l2.4-.7.5-.3a.9.9,0,0,0,.2-.4l.3-2,5.9-1.7,1.3,1.5.4.3h.5l2.4-.7.3-.3a.4.4,0,0,0-.1-.4l-11-12.8h-.9v.2l-2.7,16.6a.4.4,0,0,0,.1.4Zm3.8-6.7.6-4.1h0l2.7,3.1Z" transform="translate(-35 0)" fill="#df3330" fill-rule="evenodd"/><path d="M131.9,214.1l.2.3h.3l2.6-.7.3-.2a.4.4,0,0,0,.1-.3l-3.1-11.7,3.1-.8.3-.2a.4.4,0,0,0,0-.3l-.6-2.4-.2-.3h-.3l-9.8,2.5-.3.2a.4.4,0,0,0,0,.3l.6,2.4.2.3h.3l3.1-.8Z" transform="translate(-35 0)" fill="#df3330" fill-rule="evenodd"/><path d="M144,211l.2.3h.3l2.7-.6.3-.2a.4.4,0,0,0,.1-.3l-2.7-11.8,3.2-.7.3-.2a.4.4,0,0,0,.1-.3l-.6-2.4-.2-.3h-.3l-9.8,2.3-.3.2a.4.4,0,0,0,0,.3l.6,2.4.2.3h.3l3.2-.7Z" transform="translate(-35 0)" fill="#df3330" fill-rule="evenodd"/><path d="M152.8,207.7l.7.3,1.1.3h1.6l2-.2a6.1,6.1,0,0,0,2.1-.9,5.2,5.2,0,0,0,1.4-1.4,4.8,4.8,0,0,0,.7-1.7,4.3,4.3,0,0,0,0-1.8,4.4,4.4,0,0,0-.7-1.5,4.6,4.6,0,0,0-1.1-1.1l-1.3-.7-1.4-.4-1.2-.2-1.6-.4-.9-.5a1.4,1.4,0,0,1-.4-.7,1,1,0,0,1,.1-.6l.4-.5.7-.3H156l1.1.2.9.3.4.2h.3l.3-.2.2-.3.7-2a.6.6,0,0,0,0-.2v-.3l-.2-.2-.8-.3-1.2-.3h-1.5l-1.7.2a6.5,6.5,0,0,0-2.1.9,4.7,4.7,0,0,0-1.4,1.4,4.2,4.2,0,0,0-.6,1.6,4.3,4.3,0,0,0,.1,1.7,4.1,4.1,0,0,0,.6,1.4,4.4,4.4,0,0,0,1,1l1.2.7,1.3.5,1.3.3a5.4,5.4,0,0,1,1.9.6,1.7,1.7,0,0,1,.9,1.1,1.3,1.3,0,0,1,0,.7,1.3,1.3,0,0,1-.4.6l-.7.4h-1.1l-1.1-.2-.8-.2h-.9l-.2.2-.6,2.1a.7.7,0,0,0,0,.3v.2Z" transform="translate(-35 0)" fill="#df3330" fill-rule="evenodd"/><path d="M166.9,205.9l.2.3h.3l2.6-.5.3-.2a.4.4,0,0,0,.1-.3l-1-5.2,2.3-.5a5,5,0,0,0,1.8-.8,5.2,5.2,0,0,0,1.4-1.4,5.3,5.3,0,0,0,.8-1.8,5.1,5.1,0,0,0,0-2,4.9,4.9,0,0,0-.8-1.8,5.1,5.1,0,0,0-5.2-2.1l-5.4,1.1-.3.2a.4.4,0,0,0-.1.3Zm1.8-9.2-.7-3.4,2.1-.4h.9l.8.5a1.6,1.6,0,0,1,.4.8,1.8,1.8,0,0,1-.1.9,1.8,1.8,0,0,1-.5.8l-.8.4Z" transform="translate(-35 0)" fill="#df3330" fill-rule="evenodd"/><path d="M183.6,202.9l.2.3h.3l2.7-.4.3-.2a.4.4,0,0,0,.1-.3l-1.1-7.2,3.8-8.3a.5.5,0,0,0,0-.3l-.2-.2h-.3l-2.9.5h-.2v.2l-2.4,5.1-3.9-4.1h-.4l-2.9.5-.3.2v.6l6.2,6.7Z" transform="translate(-35 0)" fill="#df3330" fill-rule="evenodd"/><path d="M194.6,201.1l.2.3h.3l2.7-.4.3-.2a.4.4,0,0,0,.1-.3l-.8-5.7,1.6-.2,3.8,5.5h.4l3-.4h.3a.4.4,0,0,0,.1-.3.5.5,0,0,0-.1-.3l-3.9-5.3a6,6,0,0,0,1.6-1.3,4.9,4.9,0,0,0,1-1.7,4.5,4.5,0,0,0,.2-2,4.9,4.9,0,0,0-1.9-3.2,4.9,4.9,0,0,0-3.7-.9l-6.7.9-.3.2a.4.4,0,0,0-.1.3Zm2.3-9.1-.5-3.5,3.3-.5h.9l.7.5a1.7,1.7,0,0,1,.4.8,1.8,1.8,0,0,1-.1.9,1.9,1.9,0,0,1-.5.7l-.8.4Z" transform="translate(-35 0)" fill="#df3330" fill-rule="evenodd"/><path d="M210.4,198.8l.2.3h.3l2.7-.3.3-.2a.4.4,0,0,0,.1-.3l-1-8.4h0l10,7.9h.7l.3-.2a.4.4,0,0,0,.1-.3l-1.9-15.2-.2-.3h-.3l-2.7.3-.3.2a.5.5,0,0,0-.1.3l1,8h0l-10.1-7.5h-.6l-.3.2a.4.4,0,0,0-.1.3Z" transform="translate(-35 0)" fill="#df3330" fill-rule="evenodd"/><path d="M227.6,191.2a6.1,6.1,0,0,0,.7,2.4,6.3,6.3,0,0,0,1.5,1.9,6.5,6.5,0,0,0,2.1,1.2,6.6,6.6,0,0,0,2.5.3,6.7,6.7,0,0,0,2.5-.7,6.6,6.6,0,0,0,2-1.5,6.4,6.4,0,0,0,1.2-2.1,6,6,0,0,0,.3-2.5l-.7-9.3-.2-.3h-.3l-2.8.2-.3.2a.5.5,0,0,0-.1.3l.7,9.2a2.9,2.9,0,0,1-.3,1.5,2.8,2.8,0,0,1-.9,1.1,2.9,2.9,0,0,1-1.4.5,2.8,2.8,0,0,1-1.5-.3,2.7,2.7,0,0,1-1.1-.9,3,3,0,0,1-.5-1.4l-.7-9.2v-.3h-.3l-2.8.2-.3.2a.4.4,0,0,0-.1.3Z" transform="translate(-35 0)" fill="#df3330" fill-rule="evenodd"/><path d="M245.4,195.5v.3h.3l2.7-.2.3-.2a.4.4,0,0,0,.1-.3l-.4-5.5,5.2-.3.3-.2a.4.4,0,0,0,.1-.3l-.2-2.5-.2-.3h-.3l-5.2.3-.2-3.3,6.3-.4.3-.2a.4.4,0,0,0,.1-.3l-.2-2.5v-.3h-.3l-9.4.6h-.3a.4.4,0,0,0-.1.3Z" transform="translate(-35 0)" fill="#df3330" fill-rule="evenodd"/><path d="M258.9,194.7a.4.4,0,0,0,.1.3h.3l9.4-.3h.3a.4.4,0,0,0,.1-.3v-2.5a.4.4,0,0,0-.1-.3h-.3l-6.3.2v-3.1l5.2-.2h.3a.4.4,0,0,0,.1-.3v-2.5a.4.4,0,0,0-.1-.3h-.3l-5.2.2v-2.8l6.3-.2h.3a.4.4,0,0,0,.1-.3v-2.5a.5.5,0,0,0-.1-.3h-.3l-9.4.3h-.3a.4.4,0,0,0-.1.3Zm3-17,4.1-2,.2-.3a.6.6,0,0,0-.1-.4l-.8-1.3h-.6l-3.8,2.5v.2a.3.3,0,0,0,0,.2l.5.9.2.2Z" transform="translate(-35 0)" fill="#df3330" fill-rule="evenodd"/><path d="M273,194.3a.4.4,0,0,0,.1.3h.3l8.5-.2h.3a.4.4,0,0,0,.1-.3v-2.5a.4.4,0,0,0-.1-.3h-5.7l-.3-12.1a.4.4,0,0,0-.1-.3h-3.3a.4.4,0,0,0-.1.3Z" transform="translate(-35 0)" fill="#df3330" fill-rule="evenodd"/><path d="M284.2,194.6h2.5l.5-.2.3-.4.8-1.8h6.2l.8,1.8.3.4h3l.4-.2a.4.4,0,0,0,0-.4l-7-15.3-.2-.2h-.7l-.2.2L283.8,194a.4.4,0,0,0,0,.4Zm5.5-5.4,1.7-3.7h0l1.7,3.8Z" transform="translate(-35 0)" fill="#df3330" fill-rule="evenodd"/><path d="M300.5,186.6a8.2,8.2,0,0,0,.3,2.6,8.1,8.1,0,0,0,2.7,4.1,8,8,0,0,0,2.2,1.3,8.3,8.3,0,0,0,2.6.5h1.9l1.6-.3,1.2-.4.8-.3h.3v-.4l.3-6.1a.5.5,0,0,0-.1-.3h-.3l-4.6-.2h-.3a.4.4,0,0,0-.1.3v2.2a.4.4,0,0,0,.1.3h1.7v1.3l-1,.2h-1a4.5,4.5,0,0,1-3.1-1.5,4.5,4.5,0,0,1-.9-1.5,4.4,4.4,0,0,1-.3-1.8,4.6,4.6,0,0,1,2.9-4.1,4.3,4.3,0,0,1,1.8-.3l1.6.3a4,4,0,0,1,1.3.9h.6l1.9-1.8a.4.4,0,0,0,.1-.3.4.4,0,0,0-.1-.3,8.6,8.6,0,0,0-1.6-1.2l-1.9-.8-1.9-.4a8.2,8.2,0,0,0-2.6.3,8,8,0,0,0-2.3,1,8.1,8.1,0,0,0-3.7,6.4Z" transform="translate(-35 0)" fill="#df3330" fill-rule="evenodd"/><path d="M318.1,195.1a.4.4,0,0,0,.1.3h3.3v-.3l.8-15a.4.4,0,0,0-.1-.3h-3.3v.3Z" transform="translate(-35 0)" fill="#df3330" fill-rule="evenodd"/><path d="M326.5,195.7a.4.4,0,0,0,.1.3l.3.2,5.5.4a8,8,0,0,0,7.9-4.9,7.9,7.9,0,0,0,.6-2.5,7.8,7.8,0,0,0-.2-2.5,7.9,7.9,0,0,0-1-2.3,8,8,0,0,0-3.7-3.1,8,8,0,0,0-2.5-.6l-5.5-.4h-.3v.3l-.5,6.9h-1v.7a.4.4,0,0,0,.1.3l.3.2h.7Zm3.8-2.7.3-3.9,3.2.2h.3v-.7a.4.4,0,0,0-.1-.3l-.3-.2-3.2-.2.3-4.1,2.2.2a4.5,4.5,0,0,1,1.7.5,4.2,4.2,0,0,1,1.3,1.1,4.4,4.4,0,0,1,.8,1.5,5,5,0,0,1,.2,1.8,5,5,0,0,1-.5,1.8,4.4,4.4,0,0,1-1,1.4,4.2,4.2,0,0,1-1.5.9,4.4,4.4,0,0,1-1.8.2Z" transform="translate(-35 0)" fill="#df3330" fill-rule="evenodd"/><path d="M349.5,197.6a.4.4,0,0,0,.1.3l.3.2,2.7.3h.3l.2-.3.7-5.9,6.4.8-.7,5.9a.4.4,0,0,0,.1.3l.3.2,2.7.3h.3l.2-.3,1.8-14.9a.4.4,0,0,0-.1-.3l-.3-.2-2.7-.3h-.3l-.2.3-.7,5.7-6.4-.8.7-5.7a.4.4,0,0,0-.1-.3l-.3-.2-2.7-.3h-.3l-.2.3Z" transform="translate(-35 0)" fill="#df3330" fill-rule="evenodd"/><path d="M367.5,199.9a.4.4,0,0,0,.1.3l.3.2,8.4,1.2h.3l.2-.3.4-2.4a.4.4,0,0,0-.1-.3l-.3-.2-5.3-.8,1.7-12a.4.4,0,0,0-.1-.3l-.3-.2-2.7-.4h-.3l-.2.3Z" transform="translate(-35 0)" fill="#df3330" fill-rule="evenodd"/><path d="M379.7,201.8a.4.4,0,0,0,.1.3l.3.2,2.7.4h.3l.2-.3,2.5-14.8a.4.4,0,0,0-.1-.3l-.3-.2-2.7-.4h-.3l-.2.3Zm2.9-16.6,4.4-1.2.2-.2a.6.6,0,0,0,0-.4l-.5-1.4-.2-.2h-.4l-4.2,1.7-.2.2a.3.3,0,0,0,0,.2l.3,1,.2.3Z" transform="translate(-35 0)" fill="#df3330" fill-rule="evenodd"/><path d="M387.9,203.1a.4.4,0,0,0,.1.3l.3.2,5.4,1.1a7.9,7.9,0,0,0,4.9-.6,8.1,8.1,0,0,0,2-1.4,7.9,7.9,0,0,0,2.4-4.3,7.8,7.8,0,0,0,.1-2.5,7.9,7.9,0,0,0-.7-2.4,8,8,0,0,0-5.7-4.4l-5.4-1.1H391l-.2.3-1.3,6.8h-1l-.2.3v.4a.4.4,0,0,0,.1.3l.3.2h.6Zm4-2.2.7-3.8,3.2.6h.3l.2-.3V197a.4.4,0,0,0-.1-.3l-.3-.2-3.2-.6.8-4,2.1.4a4.5,4.5,0,0,1,1.7.7,4.2,4.2,0,0,1,1.2,1.2,4.4,4.4,0,0,1,.6,1.6,5,5,0,0,1,0,1.8,5.1,5.1,0,0,1-.7,1.7,4.5,4.5,0,0,1-1.2,1.3,4.2,4.2,0,0,1-1.6.7,4.5,4.5,0,0,1-1.8,0Z" transform="translate(-35 0)" fill="#df3330" fill-rule="evenodd"/><path d="M403.2,206.3l2.4.5h.6l.4-.3,1.2-1.6,6,1.3.4,1.9a1.2,1.2,0,0,0,.2.5l.4.2,2.5.5h.4a.4.4,0,0,0,.1-.4L414,192.3v-.2H413l-10.1,13.5a.4.4,0,0,0-.1.4Zm6.5-4.2,2.4-3.3h0l.9,4Z" transform="translate(-35 0)" fill="#df3330" fill-rule="evenodd"/><path d="M420.3,209.6a.4.4,0,0,0,0,.3l.3.2,2.6.6h.3l.2-.3,1.3-5.6,1.5.4,1.6,6.5v.2h.2l2.9.7h.3l.2-.2a.5.5,0,0,0,0-.3l-1.7-6.3a5.9,5.9,0,0,0,1.9-.6,4.9,4.9,0,0,0,1.5-1.2,4.5,4.5,0,0,0,.9-1.8,4.9,4.9,0,0,0-.6-3.7,4.9,4.9,0,0,0-3.1-2.2l-6.6-1.6H424l-.2.3Zm5.5-7.6.8-3.5,3.3.8.8.4a1.8,1.8,0,0,1,.5.8,1.7,1.7,0,0,1,0,.9,1.9,1.9,0,0,1-.4.8l-.8.5h-.9Z" transform="translate(-35 0)" fill="#df3330" fill-rule="evenodd"/><path d="M435.7,213.5a.4.4,0,0,0,0,.3l.3.2,9.1,2.4h.3l.2-.3.6-2.4a.4.4,0,0,0,0-.3l-.3-.2-6.1-1.6.8-3,5,1.3h.3l.2-.3.6-2.4a.4.4,0,0,0-.1-.3l-.3-.2-5-1.3.7-2.7,6.1,1.6h.3l.2-.3.6-2.4a.4.4,0,0,0,0-.3l-.3-.2-9.1-2.4h-.3l-.2.3Z" transform="translate(-35 0)" fill="#df3330" fill-rule="evenodd"/><path d="M449.1,217a.4.4,0,0,0,0,.3l.2.2,2.6.8h.3l.2-.2L455,210h0l5.9,11.2h.9l.2-.2,4.5-14.6a.4.4,0,0,0,0-.3l-.3-.2-2.6-.8h-.3l-.2.3-2.4,7.7h0l-6.1-11-.5-.2h-.3l-.2.2Z" transform="translate(-35 0)" fill="#df3330" fill-rule="evenodd"/><path d="M466.5,222.3a.4.4,0,0,0,0,.3l.2.2,5.2,1.8a8,8,0,0,0,8.9-2.7,7.9,7.9,0,0,0,1.2-2.2,7.8,7.8,0,0,0,.4-2.5,7.9,7.9,0,0,0-.4-2.4,8,8,0,0,0-2.8-4,8,8,0,0,0-2.2-1.2l-5.2-1.8h-.3l-.2.2Zm4.3-1.6,3-8.7,2.1.7a4.5,4.5,0,0,1,1.6.9,4.2,4.2,0,0,1,1,1.4,4.5,4.5,0,0,1,.4,1.7,5.1,5.1,0,0,1-1.2,3.4,4.5,4.5,0,0,1-1.3,1.1,4.2,4.2,0,0,1-1.6.5,4.5,4.5,0,0,1-1.8-.2Z" transform="translate(-35 0)" fill="#df3330" fill-rule="evenodd"/><path d="M483,227.9a.4.4,0,0,0,0,.3l.2.2,2.5,1h.3l.2-.2,5.4-14a.4.4,0,0,0,0-.3l-.2-.2-2.5-1h-.3l-.2.2Z" transform="translate(-35 0)" fill="#df3330" fill-rule="evenodd"/><path d="M174.8,161.9c0,2.4,1.5,3.7,3.8,3.3l21.7-3.2c2.3-.3,3.5-1.4,3.5-3.7V105.8l35.6,50a3.9,3.9,0,0,0,3.6,1.8l26-1.2c3.3-.2,4-3,2.8-4.6L228.9,93.5,274,38.1c2.1-2.6,1.1-3.4-1.3-3.3l-26.1,1a5.8,5.8,0,0,0-4.1,1.9l-38.5,44V44c0-2.6-1.8-3.6-4.1-3.2l-21.4,3.7c-2.3.4-3.6,1.3-3.6,3.7Z" transform="translate(-35 0)" fill="#fff" fill-rule="evenodd"/><path d="M295,153.4a3.1,3.1,0,0,0,3,3.2l21.7.6a3,3,0,0,0,3.2-3.2V110.4h44.5v48.2a3,3,0,0,0,2.8,3.3l21.5,3.5c1.7.3,3.4-.6,3.4-3V48c0-2.4-1.5-3.3-3.3-3.6l-20.9-3.5c-1.9-.3-3.5.4-3.5,2.9V84.1H322.8V38.8a3.1,3.1,0,0,0-3.3-3.2L298,35.1c-2-.1-3,1.4-3,3.3Z" transform="translate(-35 0)" fill="#fff" fill-rule="evenodd"/></svg>