<svg xmlns="http://www.w3.org/2000/svg" xmlns:xlink="http://www.w3.org/1999/xlink" viewBox="0 0 490.6 493.3"><defs><linearGradient id="a" x1="204.1" y1="452.28" x2="504.23" y2="452.28" gradientUnits="userSpaceOnUse"><stop offset="0" stop-color="#999eff"/><stop offset="0.02" stop-color="#7f83eb"/><stop offset="0.05" stop-color="#6064d3"/><stop offset="0.08" stop-color="#4548bf"/><stop offset="0.12" stop-color="#3032ae"/><stop offset="0.17" stop-color="#1f21a1"/><stop offset="0.22" stop-color="#131699"/><stop offset="0.3" stop-color="#0d0f93"/><stop offset="0.51" stop-color="#0b0d92"/><stop offset="0.72" stop-color="#0d0f93"/><stop offset="0.79" stop-color="#131699"/><stop offset="0.84" stop-color="#1f21a1"/><stop offset="0.88" stop-color="#3032ae"/><stop offset="0.92" stop-color="#4548bf"/><stop offset="0.95" stop-color="#6064d3"/><stop offset="0.98" stop-color="#7f83eb"/><stop offset="1" stop-color="#999eff"/></linearGradient><linearGradient id="b" x1="217.74" y1="469.63" x2="517.86" y2="469.63" xlink:href="#a"/><linearGradient id="c" x1="206.03" y1="488.37" x2="506.15" y2="488.37" xlink:href="#a"/></defs><title>kormakurhvot</title><path d="M146.1,3.4C126.2,26.4,82,52.8,2.8,52.8,2.8,237.1,8.2,253.3,146.1,352,284,253.3,289.4,237.1,289.4,52.8,210.2,52.8,166,26.4,146.1,3.4Z" transform="translate(-2.8 -3.4)" fill="#253494"/><path d="M146.1,20.1c12,10.9,32.5,24.9,64.6,34.2L23.7,201.5a268.2,268.2,0,0,1-6.1-39.1c-2.5-27-2.9-60.4-2.9-98C87.5,61.9,127.2,37.1,146.1,20.1Z" transform="translate(-2.8 -3.4)" fill="red"/><path d="M33.4,229.5a136.8,136.8,0,0,1-6.3-15.8l198-155.7a285.5,285.5,0,0,0,52.6,6.4c0,15.2-.1,29.7-.4,43.4L66.1,273.8C50.9,258.8,40.6,244.9,33.4,229.5Z" transform="translate(-2.8 -3.4)" fill="#fff"/><path d="M258.9,229.5c-8.4,17.7-20.7,33.6-40.1,51.4s-41.3,34.2-72.6,56.7c-30.6-22-53.6-39.4-71.4-55.6L276.9,122.9c-.4,14.3-1.1,27.5-2.2,39.4C272.1,191.1,267.2,211.8,258.9,229.5Z" transform="translate(-2.8 -3.4)" fill="red"/><path d="M77.9,181.3a.6.6,0,0,0-.9-.1l-9,7.1a.6.6,0,0,0-.1.9l14.7,18.6L66.4,220.6,51.7,201.9a.6.6,0,0,0-.9-.1l-9,7.1a.6.6,0,0,0-.1.9l36.7,46.7.4.2h.5l9-7.1a.6.6,0,0,0,.1-.9L73.2,229.2l16.3-12.8,15.3,19.4.4.2h.5l9-7.1a.6.6,0,0,0,.1-.9Z" transform="translate(-2.8 -3.4)" fill="#253494"/><path d="M138.1,134.3a.6.6,0,0,0-.4-.4h-.6l-9.3,7.3a.6.6,0,0,0-.2.6l12.7,46.9L97.6,165.6a.6.6,0,0,0-.7.1l-9.2,7.2a.6.6,0,0,0,.1,1l55.6,31.8h.7l11.6-9.1a.6.6,0,0,0,.2-.7Z" transform="translate(-2.8 -3.4)" fill="#253494"/><path d="M195.4,115.9c-5.7-7.3-10.8-10.5-16-10.5s-11.2,3.6-18.2,9c-8.7,6.9-13.5,12-13.5,18.3,0,4.4,2.4,9.1,7.1,15.1l9.9,12.6c6.1,7.8,11.1,11.4,16.6,11.4s10.8-3.4,18-9,13.2-12,13.2-18.6c0-4.6-2.3-9.6-7.2-15.7Zm-2.9,38.3c-4.3,3.4-7.1,5.2-9.3,5.2s-4.8-1.9-8.5-6.7l-9.9-12.6h0c-2.6-3.4-4-5.8-4-7.9s2-5,7.2-9.2,7-5.2,9.6-5.2,4.7,1.6,7.9,5.9l9.9,12.6c3,3.8,4.3,6.5,4.2,8.6S197.2,150.5,192.5,154.2Z" transform="translate(-2.8 -3.4)" fill="#253494"/><path d="M167.7,125.8a.6.6,0,0,0-.9-.1l-4,3.1a.6.6,0,0,0-.2.4.6.6,0,0,0,.1.5l3.4,4.3.4.2h.5l4-3.1a.6.6,0,0,0,.1-.9Z" transform="translate(-2.8 -3.4)" fill="#253494"/><path d="M175.9,119.3a.6.6,0,0,0-.9-.1l-4,3.1a.6.6,0,0,0-.1.9l3.4,4.3.4.2h.5l4-3.1a.6.6,0,0,0,.1-.9Z" transform="translate(-2.8 -3.4)" fill="#253494"/><path d="M252.3,119.7,222,81.2l13.2-10.4a.6.6,0,0,0,.1-.9l-6-7.7a.6.6,0,0,0-.9-.1L192.1,90.8a.6.6,0,0,0-.1.9l6,7.7.4.2h.5L212.1,89l30.3,38.6.4.2h.5l9-7.1a.6.6,0,0,0,.1-.9Z" transform="translate(-2.8 -3.4)" fill="#253494"/><path d="M381.9,123a24.4,24.4,0,0,1-12.6-3.8c-3.1-1.9-5.2-2.9-6.9-2.9s-3.1.8-5.6,2.3l-2.3,1.4.3-33.5,1-.3a16.4,16.4,0,0,1,5.3-.9c6.1,0,10.8,3.9,14.3,7.2a17.3,17.3,0,0,0,12.3,4.9c5.8,0,12-2.6,16.9-7.2a61.8,61.8,0,0,0,4.2-5.6c4.1-5.9,4.6-6.4,5.7-6.4h.4l.4.2,1,.6-.4,1.2c-.5,1.5-1.1,3.7-1.8,6.1-1.8,6.3-4,14.1-6.2,17.7a50.7,50.7,0,0,1-13.5,14.8A21.6,21.6,0,0,1,381.9,123Z" transform="translate(-2.8 -3.4)" fill="#0b0d92"/><path d="M414.5,79.7h0c-1.8,5.5-4.9,18.7-7.9,23.5a49.1,49.1,0,0,1-13.1,14.4,20.1,20.1,0,0,1-11.7,3.8,22.9,22.9,0,0,1-11.8-3.5c-3.5-2.1-5.6-3.1-7.6-3.1s-3.7.9-6.4,2.5l.3-29.7a14.8,14.8,0,0,1,4.8-.8c5.1,0,9.3,3,13.3,6.8a18.8,18.8,0,0,0,13.3,5.3c6.2,0,12.8-2.8,17.9-7.6,1.7-1.6,8-11.6,8.8-11.6m0-3c-2,0-2.8,1.2-6.9,7.1-1.3,1.9-3.3,4.8-3.9,5.4-4.7,4.3-10.5,6.8-15.9,6.8a15.9,15.9,0,0,1-11.2-4.5c-3.7-3.6-8.7-7.6-15.3-7.6a17.9,17.9,0,0,0-5.7,1l-2,.7v2.1l-.3,29.7v5.4l4.6-2.8c2.6-1.6,3.8-2.1,4.8-2.1s2.8.7,6.1,2.7a25.8,25.8,0,0,0,13.4,4,23,23,0,0,0,13.4-4.4,52.2,52.2,0,0,0,13.9-15.3c2.3-3.8,4.5-11.4,6.4-18,.7-2.5,1.3-4.6,1.8-6.1l.8-2.3L416,77.1l-.7-.4h-.9Z" transform="translate(-2.8 -3.4)"/><path d="M355.5,78.6l.3,3.4a.3.3,0,0,1-.3.3h-3.6a.3.3,0,0,1-.3-.3V78.9a.3.3,0,0,1,.3-.3h3.5" transform="translate(-2.8 -3.4)" fill="#0b0d92"/><path d="M274.6,453.3h-.1a2.1,2.1,0,0,1-1.4-.5,65.5,65.5,0,0,1-8.1-3.9,53.7,53.7,0,0,0-9.4-4.4c-5.8-1.5-9.3-4.8-13-8.3l-1.8-1.6a27.9,27.9,0,0,1-8.9-22.6c.4-10.9,1.3-21.9,2.5-31.8s1.6-14.9,2.1-20.8,1.1-12,2.1-20.8c0-1.9.5-10.1.8-14.1H227.4v-7.7h12V305.2H211.3v-8.7h47.9v1.9c3,58.1,47.9,89.5,88.6,89.5h1.6c25-.4,46.3-9.2,63.2-26.2s26.1-38.4,27.8-63.4v-1.9h50.8v8.7H463.4v11.7h12v7.7H463.5c.3,6.5,1.4,26.3,2.4,36.4.7,6.5,1.7,13.1,2.6,19.5,1.2,8.4,2.5,17.1,3.2,25.8.8,6.8.1,12.9-.7,19.5v1.1c-.9,8.7-5.2,14.9-13,18.8l-2.8,1.7a51.7,51.7,0,0,1-8.1,4.3l6.4,2.4-174.3-1.2-1.6-.4,1.7,2.5Z" transform="translate(-2.8 -3.4)" fill="#ffff01"/><path d="M489.5,298.5v4.7H461.4v15.7h12v3.7h-12s1.3,26.2,2.5,38.6c1.6,15.2,4.5,30,5.8,45.3.8,7,0,13.2-.8,20.2s-4.5,13.6-11.9,17.3c-5.5,3.1-10.6,7-16.8,7h-.9l2.9,1-162.8-1.2-6.2-1.4h0a10.1,10.1,0,0,1,1.1,1.8c-5.3-1.8-12.5-6.9-18.1-8.5s-9.5-5.4-14-9.5a25.9,25.9,0,0,1-8.2-21c.4-10.3,1.2-21.4,2.5-31.7,2.1-17.7,2.1-24,4.2-41.7,0-2.1.9-16.2.9-16.2h-12v-3.7h12V303.2H213.3v-4.7h44c3.2,62.9,52.5,91.4,90.6,91.4h1.6c25.1-.4,46.9-9.1,64.6-26.8s26.7-40,28.4-64.6h47M274.2,451.1h.3l-.3-.2M209.3,294.5v12.7h28.1v7.7h-12v11.7h11.7c-.3,4.2-.6,10.1-.6,12-1,8.8-1.6,14.9-2.1,20.8s-1.1,12-2.1,20.8-2.1,21-2.5,32a29.8,29.8,0,0,0,9.5,24.1h0l1.7,1.6c3.9,3.6,7.6,7.1,13.9,8.8a52.9,52.9,0,0,1,9,4.2,69.8,69.8,0,0,0,8.1,3.9,4.2,4.2,0,0,0,2.1.7l9.8,3.3-2.6-3.9,160.6,1.1,22.5.2-12.5-4.7,4-2.3,2.7-1.6c8.3-4.2,13-11.1,14-20.4v-1.1c.8-6.6,1.5-12.9.7-19.9-.7-8.8-2-17.5-3.2-25.9-.9-6.3-1.9-12.9-2.6-19.4-.9-9.1-1.9-26.3-2.3-34.2h11.8V314.9h-12v-7.7h28.1V294.5H438.8l-.2,3.7c-1.6,24.4-11,45.9-27.2,62.1s-37.4,25.2-61.9,25.6h-1.6c-39.8,0-83.6-30.7-86.6-87.6l-.2-3.8H209.3Z" transform="translate(-2.8 -3.4)"/><path d="M275.7,391.6a.6.6,0,0,1-.1.4l-.4.3-.8.2h-2.9l-.7-.3-.4-.4-7.1-11.1v11.1a.6.6,0,0,1-.1.3l-.4.2-.7.2h-2.3l-.7-.2-.4-.2a.5.5,0,0,1-.1-.3v-22a.5.5,0,0,1,.1-.3l.4-.2h3.8l.4.2a.6.6,0,0,1,.1.3v10l6.9-9.9.3-.4.5-.2H274l.8.2.4.2a.5.5,0,0,1,.1.3,1.4,1.4,0,0,1-.2.6l-.6,1-6.4,8.4,7,10.6.5,1Z" transform="translate(-2.8 -3.4)"/><path d="M298.6,395.1a17.3,17.3,0,0,1-.7,5.2,10.5,10.5,0,0,1-2.2,3.9,9.3,9.3,0,0,1-3.5,2.4,13.1,13.1,0,0,1-4.9.8,14.4,14.4,0,0,1-4.8-.7,8.3,8.3,0,0,1-3.4-2.2,9.3,9.3,0,0,1-2-3.7,18.7,18.7,0,0,1-.7-5.4,16.8,16.8,0,0,1,.7-5.1,10.5,10.5,0,0,1,2.2-3.9,9.4,9.4,0,0,1,3.5-2.4,13,13,0,0,1,4.9-.9,14.3,14.3,0,0,1,4.7.7,8.3,8.3,0,0,1,3.4,2.2,9.5,9.5,0,0,1,2.1,3.7A17.8,17.8,0,0,1,298.6,395.1Zm-5,.3a17.9,17.9,0,0,0-.3-3.4,7.2,7.2,0,0,0-1-2.6,4.7,4.7,0,0,0-1.9-1.7,6.4,6.4,0,0,0-2.9-.6,5.9,5.9,0,0,0-2.9.7,5.4,5.4,0,0,0-1.9,1.8,7.3,7.3,0,0,0-1,2.6,15.7,15.7,0,0,0-.3,3.1,18.6,18.6,0,0,0,.3,3.4,7.4,7.4,0,0,0,1,2.6,4.5,4.5,0,0,0,1.8,1.7,6.6,6.6,0,0,0,2.9.6,6,6,0,0,0,2.9-.7,5.2,5.2,0,0,0,1.9-1.8,7.5,7.5,0,0,0,1-2.6A16.1,16.1,0,0,0,293.6,395.4Z" transform="translate(-2.8 -3.4)"/><path d="M320,418.5a.7.7,0,0,1-.1.3l-.3.2h-4.2l-.4-.3-.2-.4-2.1-5.2-.7-1.6a5,5,0,0,0-.8-1.1,2.9,2.9,0,0,0-1-.7l-1.3-.2h-1.5v8.9a.5.5,0,0,1-.1.3l-.4.2h-3.8l-.4-.2a.5.5,0,0,1-.1-.3V397.2a1.4,1.4,0,0,1,.4-1.1,1.5,1.5,0,0,1,1-.4h8.7a9.8,9.8,0,0,1,2.5.7,6.1,6.1,0,0,1,1.9,1.3,5.3,5.3,0,0,1,1.2,1.9,6.8,6.8,0,0,1,.4,2.5,7.2,7.2,0,0,1-.3,2.1,5.5,5.5,0,0,1-.9,1.7,5.8,5.8,0,0,1-1.4,1.3,7.7,7.7,0,0,1-1.9.9l1,.6.9.9.8,1.2.7,1.5,2,4.6.4,1A2,2,0,0,1,320,418.5Zm-6.1-15.9a3.5,3.5,0,0,0-.5-2,2.9,2.9,0,0,0-1.7-1.1h-4.2v6.6h2.4l1.8-.2a3.5,3.5,0,0,0,1.3-.7,2.8,2.8,0,0,0,.8-1.1A3.6,3.6,0,0,0,313.9,402.6Z" transform="translate(-2.8 -3.4)"/><path d="M351.2,426.6a.6.6,0,0,1-.1.3l-.4.2h-3.6l-.4-.2a.5.5,0,0,1-.1-.3v-19h0l-6.8,19-.2.4-.4.2h-3.5l-.4-.2-.2-.3-6.5-19h0v19a.6.6,0,0,1-.1.3l-.4.2h-3.6l-.4-.2a.6.6,0,0,1-.1-.3V405.7a1.9,1.9,0,0,1,.5-1.4,1.8,1.8,0,0,1,1.3-.5h4.5l1,.5a2.5,2.5,0,0,1,.7.8,5.9,5.9,0,0,1,.5,1.3l5.1,13.9h.1l5.2-13.9a7.3,7.3,0,0,1,.5-1.3,3,3,0,0,1,.7-.9l.9-.5h5.2l.6.4a1.6,1.6,0,0,1,.3.6,2.5,2.5,0,0,1,.1.8Z" transform="translate(-2.8 -3.4)"/><path d="M377.5,425.5a6.2,6.2,0,0,1,.3,1,.6.6,0,0,1-.1.6l-.7.2h-3.6l-.4-.2-.2-.4-1.6-4.7h-8.8l-1.5,4.6-.2.4-.4.3H357l-.7-.3a.7.7,0,0,1-.1-.6,5.9,5.9,0,0,1,.3-1l7.2-20.8.3-.5.5-.3h5l.5.3.3.5Zm-10.7-17.2h0l-3.3,9.9H370Zm1.2-10.8.5-.4.5-.3h3.2l.6.3a.3.3,0,0,1,.1.4l-.3.5-4,3.6-.4.3-.5.2h-2.6l-.5-.2a.3.3,0,0,1-.1-.3l.3-.4Z" transform="translate(-2.8 -3.4)"/><path d="M399.5,418.4a.6.6,0,0,1-.1.4l-.4.3-.8.2h-2.9l-.7-.3-.4-.4-7.1-11.1v11.1a.6.6,0,0,1-.1.3l-.4.2-.7.2h-2.3l-.7-.2-.4-.2a.5.5,0,0,1-.1-.3v-22a.5.5,0,0,1,.1-.3l.4-.2h3.8l.4.2a.6.6,0,0,1,.1.3v10l6.9-9.9.3-.4.5-.2h3.1l.8.2.4.2a.5.5,0,0,1,.1.3,1.4,1.4,0,0,1-.2.6l-.6,1-6.4,8.4,7,10.6.5,1Z" transform="translate(-2.8 -3.4)"/><path d="M422.3,398.3a11,11,0,0,1-.6,3.9,7.6,7.6,0,0,1-1.9,2.9,8.1,8.1,0,0,1-3,1.8,12.9,12.9,0,0,1-4.2.6,13.2,13.2,0,0,1-4-.6,7.7,7.7,0,0,1-3-1.7,7.3,7.3,0,0,1-1.9-2.8,10.9,10.9,0,0,1-.6-3.9V384.3a.5.5,0,0,1,.1-.3l.4-.2h3.8l.4.2a.5.5,0,0,1,.1.3v13.8a7.6,7.6,0,0,0,.3,2.4,4.4,4.4,0,0,0,1,1.7,4.1,4.1,0,0,0,1.5,1,5.7,5.7,0,0,0,2,.3,5.5,5.5,0,0,0,2-.3,4,4,0,0,0,1.5-1,4.5,4.5,0,0,0,.9-1.6,6.7,6.7,0,0,0,.3-2.2V384.3a.5.5,0,0,1,.1-.3l.4-.2h3.7l.4.2a.5.5,0,0,1,.1.3Z" transform="translate(-2.8 -3.4)"/><path d="M444.4,391.7a.7.7,0,0,1-.1.3l-.3.2h-4.2l-.4-.3-.2-.4-2.1-5.2-.7-1.6a5,5,0,0,0-.8-1.1,2.9,2.9,0,0,0-1-.7l-1.3-.2h-1.5v8.9a.5.5,0,0,1-.1.3l-.4.2h-3.8l-.4-.2a.5.5,0,0,1-.1-.3V370.4a1.4,1.4,0,0,1,.4-1.1,1.5,1.5,0,0,1,1-.4h8.7a9.8,9.8,0,0,1,2.5.7,6.1,6.1,0,0,1,1.9,1.3,5.3,5.3,0,0,1,1.2,1.9,6.8,6.8,0,0,1,.4,2.5,7.2,7.2,0,0,1-.3,2.1,5.5,5.5,0,0,1-.9,1.7,5.8,5.8,0,0,1-1.4,1.3,7.7,7.7,0,0,1-1.9.9l1,.6.9.9.8,1.2.7,1.5,2,4.6.4,1A2,2,0,0,1,444.4,391.7Zm-6.1-15.9a3.5,3.5,0,0,0-.5-2,2.9,2.9,0,0,0-1.7-1.1h-4.2v6.6h2.4l1.8-.2a3.5,3.5,0,0,0,1.3-.7,2.8,2.8,0,0,0,.8-1.1A3.6,3.6,0,0,0,438.2,375.8Z" transform="translate(-2.8 -3.4)"/><path d="M415.8,174.2a7.7,7.7,0,0,1,0,.9,2,2,0,0,1-.1.6l-.2.3h-7.9v6.3H415l.2.3a2,2,0,0,1,.1.6,9.1,9.1,0,0,1,0,1.8,2.3,2.3,0,0,1-.1.6l-.2.3h-7.5V195a.6.6,0,0,1-.1.3l-.4.2-.7.2H404l-.7-.2-.4-.2a.5.5,0,0,1-.1-.3V173.8a1.4,1.4,0,0,1,.4-1.1,1.5,1.5,0,0,1,1-.4h11.3l.2.3a2.2,2.2,0,0,1,.1.6A7.9,7.9,0,0,1,415.8,174.2Z" transform="translate(-2.8 -3.4)"/><path d="M348.7,387.7a1,1,0,0,1-1-1l4.5-300.9a1,1,0,0,1,.5-.8l.5-.2h.4l.9.4a1,1,0,0,1,.6.9l-2.3,300.4a1,1,0,0,1-1,1Z" transform="translate(-2.8 -3.4)" fill="#fff"/><path d="M353.2,85.9l.9.4-2.3,300.4h-3.1l4.5-300.9m0-2a2,2,0,0,0-2,2l-4.5,300.9a2,2,0,0,0,2,2h3.1a2,2,0,0,0,2-2l2.3-300.4a2,2,0,0,0-1.2-1.8l-.9-.4-.8-.2Z" transform="translate(-2.8 -3.4)"/><path d="M256.9,202.6a2,2,0,0,1-.9-3.8c28.1-13.9,74.4-30.7,115.2-45.6,22.1-8,43.1-15.6,58.9-22h.7a2,2,0,0,1,2,1.8c.2,2.5.3,4.7.4,6.9s.2,4.3.4,6.7a2,2,0,0,1-1.4,2.1c-19.5,6.1-46.6,14.4-75.3,23.1-36.6,11.1-74.4,22.7-99.5,30.7Z" transform="translate(-2.8 -3.4)" fill="#fff"/><path d="M430.9,133.1c.4,4.9.4,8.6.8,13.6-44.4,14-130,39.5-174.8,53.9,43.2-21.4,128.7-49.4,174-67.5m0-4-1.5.3c-15.8,6.3-36.7,13.9-58.9,22C329.7,166.2,283.4,183,255.1,197a4,4,0,0,0,1.8,7.6l1.2-.2c25.2-8.1,63-19.6,99.5-30.7,28.7-8.7,55.8-17,75.3-23.1a4,4,0,0,0,2.8-4.1c-.2-2.4-.3-4.5-.4-6.6s-.2-4.4-.4-6.9a4,4,0,0,0-4-3.7Z" transform="translate(-2.8 -3.4)"/><polygon points="345.8 381.4 349 381.4 349 381.1 345.9 381.1 345.8 381.4" fill="#fff"/><path d="M292.8,236.6a16.6,16.6,0,0,1-4.3-.5c-5.3-1.4-8.9-4.4-10.8-8.8-3.2-7.8,0-18.3,4.2-25.5l.8-1.4c1.4-2.5,2.8-5.2,6-6.8a45,45,0,0,1,8.6-3l3.9-1.1,23.6-7.6,9.4-3,43-13.9,25.2-7.9,4.2-1.3,14.1-4.4,2.7-.9c2.7-1,5.9-2.1,8.9-2.1h1.6c7.5,1.1,14.5,9.8,17.1,15.1,3.5,7,3.6,14.4.3,22.7-6.3,15.8-23.5,27.3-41.1,27.3h0a34,34,0,0,1-24.6-9.9l-1.6-1.7-.6-.6-.8.8a44.6,44.6,0,0,0-4,5.1c-.9,1.2-1.8,2.5-2.8,3.7-5.3,6.4-10.5,10.9-16,13.7a27.8,27.8,0,0,1-12.3,3.2,19,19,0,0,1-8.6-2,23.2,23.2,0,0,1-5.6-4.7c-1.6-1.6-3.7-3.8-4.8-3.8s-4.6,3-6.6,4.7-2.2,2-3.1,2.6l-2.4,1.8a82,82,0,0,1-8.3,5.6C305.7,233.4,299.3,236.6,292.8,236.6Z" transform="translate(-2.8 -3.4)" fill="#ffff01"/><path d="M432.2,150.2h1.3c6.4.9,12.9,8.5,15.6,14,3.5,7,3.1,14,.3,21.1-6.1,15.4-23,26-39.2,26A32.1,32.1,0,0,1,387,202c-1.9-1.9-2.6-3.1-3.5-3.1s-1.2.5-2.3,1.7-4.5,6-6.9,8.9c-4.3,5.2-9.3,10.1-15.4,13.1a26,26,0,0,1-11.4,3,17,17,0,0,1-7.7-1.8c-3.9-1.9-7.8-8.6-11.3-8.6h-.4c-3.1.6-7.8,5.8-10.5,7.7a117.2,117.2,0,0,1-10.5,7.3c-4,2.3-9.4,4.4-14.3,4.4a14.6,14.6,0,0,1-3.8-.5c-15.3-4.1-11.1-21.3-5.4-31.3,1.7-3,2.8-5.8,6-7.4s8.4-2.7,12.2-4l23.6-7.6,52.4-16.9,29.4-9.2,14.1-4.4c3.4-1.1,7.3-3,11-3m0-4c-3.4,0-6.7,1.2-9.6,2.3l-2.6.9L406,153.8l-4.2,1.3-25.2,7.9-43,13.9-9.4,3-23.6,7.6-3.8,1.1a46.5,46.5,0,0,0-9,3.1c-3.7,1.9-5.4,5-6.9,7.6l-.7,1.3c-4.4,7.6-7.8,18.8-4.3,27.2,2.1,4.9,6.2,8.4,12.1,9.9a18.6,18.6,0,0,0,4.8.6c6.7,0,13.1-3.1,16.3-4.9a83.4,83.4,0,0,0,8.5-5.8l2.4-1.8c1-.7,2.1-1.7,3.3-2.8a33.6,33.6,0,0,1,5.3-4.1,24.5,24.5,0,0,1,3.4,3.1,24.6,24.6,0,0,0,6.1,5,21,21,0,0,0,9.5,2.2,29.7,29.7,0,0,0,13.2-3.4c5.8-2.9,11.2-7.5,16.7-14.2,1-1.2,2-2.5,2.9-3.8s2.1-2.9,3.2-4.1l.8.8a35.9,35.9,0,0,0,26,10.5c18.3,0,36.3-12,42.9-28.6,3.4-8.7,3.3-16.9-.4-24.3-2.9-5.8-10.3-15-18.6-16.1Z" transform="translate(-2.8 -3.4)"/><path d="M312.7,214.4a11,11,0,0,1-.6,3.9,7.6,7.6,0,0,1-1.9,2.9,8.1,8.1,0,0,1-3,1.8,12.9,12.9,0,0,1-4.2.6,13.2,13.2,0,0,1-4-.6,7.7,7.7,0,0,1-3-1.7,7.3,7.3,0,0,1-1.9-2.8,10.9,10.9,0,0,1-.6-3.9V200.4a.5.5,0,0,1,.1-.3l.4-.2h3.8l.4.2a.5.5,0,0,1,.1.3v13.8a7.6,7.6,0,0,0,.3,2.4,4.4,4.4,0,0,0,1,1.7,4.1,4.1,0,0,0,1.5,1,5.7,5.7,0,0,0,2,.3,5.5,5.5,0,0,0,2-.3,4,4,0,0,0,1.5-1,4.5,4.5,0,0,0,.9-1.6,6.7,6.7,0,0,0,.3-2.2V200.4a.5.5,0,0,1,.1-.3l.4-.2h3.7l.4.2a.5.5,0,0,1,.1.3Z" transform="translate(-2.8 -3.4)"/><path d="M367.6,210.1a.6.6,0,0,1-.1.3l-.4.2h-3.6l-.4-.2a.5.5,0,0,1-.1-.3v-19h0l-6.8,19-.2.4-.4.2H352l-.4-.2-.2-.3-6.5-19h0v19a.6.6,0,0,1-.1.3l-.4.2h-3.6l-.4-.2a.6.6,0,0,1-.1-.3V189.3a1.9,1.9,0,0,1,.5-1.4,1.8,1.8,0,0,1,1.3-.5h4.5l1,.5a2.6,2.6,0,0,1,.7.8,5.9,5.9,0,0,1,.5,1.3l5.1,13.9h.1l5.2-13.9a7.3,7.3,0,0,1,.5-1.3,3,3,0,0,1,.7-.9l.9-.5h5.2l.6.4a1.6,1.6,0,0,1,.3.6,2.6,2.6,0,0,1,.1.8Z" transform="translate(-2.8 -3.4)"/><path d="M416.2,175a7.7,7.7,0,0,1,0,.9,2,2,0,0,1-.1.6l-.2.3h-7.9v6.3h7.5l.2.3a2,2,0,0,1,.1.6,9.1,9.1,0,0,1,0,1.8,2.3,2.3,0,0,1-.1.6l-.2.3h-7.5v8.7a.6.6,0,0,1-.1.3l-.4.2-.7.2h-2.3l-.7-.2-.4-.2a.5.5,0,0,1-.1-.3V174.5a1.4,1.4,0,0,1,.4-1.1,1.5,1.5,0,0,1,1-.4h11.3l.2.3a2.2,2.2,0,0,1,.1.6A7.9,7.9,0,0,1,416.2,175Z" transform="translate(-2.8 -3.4)"/><ellipse cx="442.7" cy="135.5" rx="12.5" ry="10" fill="none" stroke="#000" stroke-miterlimit="10" stroke-width="4"/><path d="M487.9,444s-10.8,10.2-24.6,0c0,0-12.3,10.3-24.3,0,0,0-11.5,10.3-25.7,0,0,0-11.8,10.3-24.8,0,0,0-11.8,10.2-24.9,0,0,0-13.2,10-25.2,0,0,0-13.5,10.3-25.7,0,0,0-10,10.2-24.1,0,0,0-12,10.2-25.7,0,0,0-12.5,10.1-25.5,0,0,0-12,10.1-24.8,0l-1.6,1.3,5.4,12.4c4.6,1.8,12.9,3.6,21-1.9,0,0,14.2,8.5,25.5,0,0,0,15.4,8.8,25.7,0,0,0,13.8,9.2,24.1,0,0,0,12.8,9.2,25.7,0,0,0,14.3,9.4,25.3,0,0,0,12.4,9.7,24.9,0,0,0,13.8,10.1,24.8,0,0,0,12.8,10.6,25.7,0,0,0,13,10.5,24.3,0,0,0,14.3,10.7,24.6,0l3.1.9,2.4-10.4Z" transform="translate(-2.8 -3.4)" fill="url(#a)"/><path d="M476.9,461.4s-12.3,10.3-24.3,0c0,0-11.5,10.3-25.7,0,0,0-11.8,10.3-24.8,0,0,0-11.8,10.2-24.9,0,0,0-13.2,10-25.2,0,0,0-13.5,10.3-25.7,0,0,0-10,10.2-24.1,0,0,0-12,10.2-25.7,0,0,0-12.5,10.1-25.5,0,0,0-12,10.1-24.8,0l-6.1,5,3.5,8,2.6-1.1s12.6,8.3,24.8,0c0,0,14.2,8.5,25.5,0,0,0,15.4,8.8,25.7,0,0,0,13.8,9.2,24.1,0,0,0,12.8,9.2,25.7,0,0,0,14.3,9.4,25.3,0,0,0,12.4,9.7,24.9,0,0,0,13.8,10.1,24.8,0,0,0,12.8,10.6,25.7,0,0,0,13,10.5,24.3,0a27.7,27.7,0,0,0,9.4,4.2l2.6-11.5A21,21,0,0,1,476.9,461.4Z" transform="translate(-2.8 -3.4)" fill="url(#b)"/><path d="M465.2,480.1s-12.3,10.3-24.3,0c0,0-11.5,10.3-25.7,0,0,0-11.8,10.3-24.8,0,0,0-11.8,10.2-24.9,0,0,0-13.2,10-25.2,0,0,0-13.5,10.3-25.7,0,0,0-10,10.2-24.1,0,0,0-12,10.2-25.7,0,0,0-12.5,10.1-25.5,0a21.7,21.7,0,0,1-11.3,4.4l4.5,10.5a21.3,21.3,0,0,0,6.8-3.1s14.2,8.5,25.5,0c0,0,15.4,8.8,25.7,0,0,0,13.8,9.2,24.1,0,0,0,12.8,9.2,25.7,0,0,0,14.3,9.4,25.3,0,0,0,12.4,9.7,24.9,0,0,0,13.8,10.1,24.8,0,0,0,12.8,10.6,25.7,0,0,0,13,10.5,24.3,0,0,0,8.2,6.2,16.7,4.4l3-13.3C480.5,485,473.4,486.1,465.2,480.1Z" transform="translate(-2.8 -3.4)" fill="url(#c)"/></svg>