<svg xmlns="http://www.w3.org/2000/svg" xmlns:xlink="http://www.w3.org/1999/xlink" viewBox="0 0 284.2 419.9"><defs><linearGradient id="a" x1="61.96" y1="376.42" x2="362.09" y2="376.42" gradientUnits="userSpaceOnUse"><stop offset="0" stop-color="#999eff"/><stop offset="0.02" stop-color="#7f83eb"/><stop offset="0.05" stop-color="#6064d3"/><stop offset="0.08" stop-color="#4548bf"/><stop offset="0.12" stop-color="#3032ae"/><stop offset="0.17" stop-color="#1f21a1"/><stop offset="0.22" stop-color="#131699"/><stop offset="0.3" stop-color="#0d0f93"/><stop offset="0.51" stop-color="#0b0d92"/><stop offset="0.72" stop-color="#0d0f93"/><stop offset="0.79" stop-color="#131699"/><stop offset="0.84" stop-color="#1f21a1"/><stop offset="0.88" stop-color="#3032ae"/><stop offset="0.92" stop-color="#4548bf"/><stop offset="0.95" stop-color="#6064d3"/><stop offset="0.98" stop-color="#7f83eb"/><stop offset="1" stop-color="#999eff"/></linearGradient><linearGradient id="b" x1="75.6" y1="393.77" x2="375.72" y2="393.77" xlink:href="#a"/><linearGradient id="c" x1="63.89" y1="412.51" x2="364.01" y2="412.51" xlink:href="#a"/></defs><title>kormakur</title><path d="M239.8,47.1a24.4,24.4,0,0,1-12.6-3.8c-3.1-1.9-5.2-2.9-6.9-2.9s-3.1.8-5.6,2.3l-2.3,1.4.3-33.5,1-.3a16.4,16.4,0,0,1,5.3-.9c6.1,0,10.8,3.9,14.3,7.2a17.3,17.3,0,0,0,12.3,4.9h0c5.8,0,12-2.6,16.9-7.2a61.8,61.8,0,0,0,4.2-5.6c4.1-5.9,4.6-6.4,5.7-6.4h.4l.4.2,1,.6-.4,1.2c-.5,1.5-1.1,3.7-1.8,6.1-1.8,6.3-4,14.1-6.2,17.7A50.7,50.7,0,0,1,252.3,43,21.6,21.6,0,0,1,239.8,47.1Z" transform="translate(-67.2 -0.9)" fill="#0b0d92"/><path d="M272.3,3.9h0c-1.8,5.5-4.9,18.7-7.9,23.5a49.1,49.1,0,0,1-13.1,14.4,20.1,20.1,0,0,1-11.7,3.8A22.9,22.9,0,0,1,228,42.1c-3.5-2.1-5.6-3.1-7.6-3.1s-3.7.9-6.4,2.5l.3-29.7a14.8,14.8,0,0,1,4.8-.8c5.1,0,9.3,3,13.3,6.8a18.8,18.8,0,0,0,13.3,5.3c6.2,0,12.8-2.8,17.9-7.6,1.7-1.6,8-11.6,8.8-11.6m0-3c-2,0-2.8,1.2-6.9,7.1-1.3,1.9-3.3,4.8-3.9,5.4-4.7,4.3-10.5,6.8-15.9,6.8a15.9,15.9,0,0,1-11.2-4.5c-3.7-3.6-8.7-7.6-15.3-7.6a17.9,17.9,0,0,0-5.7,1l-2,.7v2.1l-.3,29.7v5.4l4.6-2.8c2.6-1.6,3.8-2.1,4.8-2.1s2.8.7,6.1,2.7a25.8,25.8,0,0,0,13.4,4,23,23,0,0,0,13.4-4.4,52.2,52.2,0,0,0,13.9-15.3c2.3-3.8,4.5-11.4,6.4-18,.7-2.5,1.3-4.6,1.8-6.1l.8-2.3-2.1-1.2-.7-.4h-.9Z" transform="translate(-67.2 -0.9)"/><path d="M213.3,2.8l.3,3.4a.3.3,0,0,1-.3.3h-3.6a.3.3,0,0,1-.3-.3V3a.3.3,0,0,1,.3-.3h3.5" transform="translate(-67.2 -0.9)" fill="#0b0d92"/><path d="M132.5,377.5h-.1a2.1,2.1,0,0,1-1.4-.5,65.4,65.4,0,0,1-8.1-3.9,53.8,53.8,0,0,0-9.4-4.4c-5.8-1.5-9.3-4.8-13-8.3l-1.8-1.6a27.9,27.9,0,0,1-8.9-22.6c.4-10.9,1.3-22,2.5-31.8s1.6-14.9,2.1-20.8,1.1-12,2.1-20.8c0-1.9.5-10.1.8-14.1H85.3V241h12V229.3H69.2v-8.7h47.9v1.9c3,58.1,47.9,89.5,88.6,89.5h1.6c25-.4,46.3-9.2,63.2-26.2s26.1-38.4,27.8-63.4v-1.9h50.8v8.7H321.3V241h12v7.7H321.4c.3,6.5,1.4,26.3,2.4,36.4.7,6.5,1.7,13.1,2.6,19.5,1.2,8.4,2.5,17.1,3.2,25.9.8,6.8.1,12.9-.7,19.4v1.1c-.9,8.7-5.2,14.9-13,18.8l-2.8,1.7a51.6,51.6,0,0,1-8.1,4.3l6.4,2.4-174.3-1.2-1.6-.4L137,379Z" transform="translate(-67.2 -0.9)" fill="#ffff01"/><path d="M347.3,222.7v4.7H319.3V243h12v3.7h-12s1.3,26.2,2.5,38.6c1.6,15.2,4.5,30,5.8,45.3.8,7,0,13.2-.8,20.2s-4.5,13.6-11.9,17.3c-5.5,3.1-10.6,7-16.8,7h-.9l2.9,1-162.8-1.2-6.2-1.4h0a10.1,10.1,0,0,1,1.1,1.8c-5.3-1.8-12.5-6.9-18.1-8.5s-9.5-5.4-14-9.5a25.9,25.9,0,0,1-8.2-21c.4-10.3,1.2-21.4,2.5-31.7,2.1-17.7,2.1-24,4.2-41.7,0-2.1.9-16.2.9-16.2h-12V243h12V227.3H71.2v-4.7h44c3.2,62.9,52.5,91.4,90.6,91.4h1.6c25.1-.4,46.9-9.1,64.6-26.8s26.7-40,28.4-64.6h47M132.1,375.2h.3l-.3-.2M67.2,218.7v12.7H95.3V239h-12v11.7H95c-.3,4.2-.6,10.1-.6,12-1,8.8-1.6,14.9-2.1,20.8s-1.1,12-2.1,20.8-2.1,21-2.5,32a29.8,29.8,0,0,0,9.5,24.1h0l1.7,1.6c3.9,3.6,7.6,7.1,13.9,8.8a52.9,52.9,0,0,1,9,4.2,69.8,69.8,0,0,0,8.1,3.9,4.2,4.2,0,0,0,2.1.7l9.8,3.3-2.6-3.9L299.9,380l22.5.2L310,375.5l4-2.3,2.7-1.6c8.3-4.2,13-11.1,14-20.4v-1.1c.8-6.6,1.5-12.9.7-19.9-.7-8.8-2-17.5-3.2-25.9-.9-6.3-1.9-12.9-2.6-19.4-.9-9.1-1.9-26.3-2.3-34.2h11.8V239h-12v-7.7h28.1V218.7H296.6l-.2,3.7c-1.6,24.4-11,45.9-27.2,62.1s-37.4,25.2-61.9,25.6h-1.6c-39.8,0-83.6-30.7-86.6-87.6l-.2-3.8H67.2Z" transform="translate(-67.2 -0.9)"/><path d="M133.5,315.8a.6.6,0,0,1-.1.4l-.4.3-.8.2h-2.9l-.7-.3-.4-.4-7.1-11.1v11.1a.6.6,0,0,1-.1.3l-.4.2-.7.2h-2.3l-.7-.2-.4-.2a.5.5,0,0,1-.1-.3v-22a.5.5,0,0,1,.1-.3l.4-.2h3.8l.4.2a.6.6,0,0,1,.1.3v10l6.9-9.9.3-.4.5-.2h3.1l.8.2.4.2a.5.5,0,0,1,.1.3,1.4,1.4,0,0,1-.2.6l-.6,1-6.4,8.4,7,10.6.5,1Z" transform="translate(-67.2 -0.9)"/><path d="M156.5,319.2a17.3,17.3,0,0,1-.7,5.2,10.5,10.5,0,0,1-2.2,3.9,9.3,9.3,0,0,1-3.5,2.4,13.1,13.1,0,0,1-4.9.8,14.4,14.4,0,0,1-4.8-.7,8.3,8.3,0,0,1-3.4-2.2,9.3,9.3,0,0,1-2-3.7,18.7,18.7,0,0,1-.7-5.4,16.8,16.8,0,0,1,.7-5.1,10.5,10.5,0,0,1,2.2-3.9,9.4,9.4,0,0,1,3.5-2.4,13,13,0,0,1,4.9-.9,14.3,14.3,0,0,1,4.7.7,8.3,8.3,0,0,1,3.4,2.2,9.5,9.5,0,0,1,2.1,3.7A17.8,17.8,0,0,1,156.5,319.2Zm-5,.3a17.9,17.9,0,0,0-.3-3.4,7.2,7.2,0,0,0-1-2.6,4.7,4.7,0,0,0-1.9-1.7,6.4,6.4,0,0,0-2.9-.6,5.9,5.9,0,0,0-2.9.7,5.4,5.4,0,0,0-1.9,1.8,7.3,7.3,0,0,0-1,2.6,15.7,15.7,0,0,0-.3,3.1,18.6,18.6,0,0,0,.3,3.4,7.4,7.4,0,0,0,1,2.6,4.5,4.5,0,0,0,1.8,1.7,6.6,6.6,0,0,0,2.9.6,6,6,0,0,0,2.9-.7,5.2,5.2,0,0,0,1.9-1.8,7.5,7.5,0,0,0,1-2.6A16.1,16.1,0,0,0,151.5,319.5Z" transform="translate(-67.2 -0.9)"/><path d="M177.9,342.6a.7.7,0,0,1-.1.3l-.3.2h-4.2l-.4-.3-.2-.4-2.1-5.2-.7-1.6a5,5,0,0,0-.8-1.1,2.9,2.9,0,0,0-1-.7l-1.3-.2h-1.5v8.9a.5.5,0,0,1-.1.3l-.4.2H161l-.4-.2a.5.5,0,0,1-.1-.3V321.3a1.4,1.4,0,0,1,.4-1.1,1.5,1.5,0,0,1,1-.4h8.7a9.8,9.8,0,0,1,2.5.7,6.1,6.1,0,0,1,1.9,1.3,5.3,5.3,0,0,1,1.2,1.9,6.8,6.8,0,0,1,.4,2.5,7.2,7.2,0,0,1-.3,2.1,5.5,5.5,0,0,1-.9,1.7,5.8,5.8,0,0,1-1.4,1.3,7.7,7.7,0,0,1-1.9.9l1,.6.9.9.8,1.2.7,1.5,2,4.6.4,1A2,2,0,0,1,177.9,342.6Zm-6.1-15.9a3.5,3.5,0,0,0-.5-2,2.9,2.9,0,0,0-1.7-1.1h-4.2v6.6h2.4l1.8-.2a3.5,3.5,0,0,0,1.3-.7,2.8,2.8,0,0,0,.8-1.1A3.6,3.6,0,0,0,171.7,326.7Z" transform="translate(-67.2 -0.9)"/><path d="M209,350.7a.6.6,0,0,1-.1.3l-.4.2H205l-.4-.2a.5.5,0,0,1-.1-.3v-19h0l-6.8,19-.2.4-.4.2h-3.5l-.4-.2-.2-.3-6.5-19h0v19a.6.6,0,0,1-.1.3l-.4.2h-3.6l-.4-.2a.6.6,0,0,1-.1-.3V329.9a1.9,1.9,0,0,1,.5-1.4,1.8,1.8,0,0,1,1.3-.5h4.5l1,.5a2.5,2.5,0,0,1,.7.8,5.9,5.9,0,0,1,.5,1.3l5.1,13.9h.1l5.2-13.9a7.3,7.3,0,0,1,.5-1.3,3,3,0,0,1,.7-.9l.9-.5H208l.6.4a1.6,1.6,0,0,1,.3.6,2.5,2.5,0,0,1,.1.8Z" transform="translate(-67.2 -0.9)"/><path d="M235.3,349.6a6.2,6.2,0,0,1,.3,1,.6.6,0,0,1-.1.6l-.7.2h-3.6l-.4-.2-.2-.4L229,346h-8.8l-1.5,4.6-.2.4-.4.3h-3.3l-.7-.3a.7.7,0,0,1-.1-.6,5.9,5.9,0,0,1,.3-1l7.2-20.8.3-.5.5-.3h5l.5.3.3.5Zm-10.7-17.2h0l-3.3,9.9h6.6Zm1.2-10.8.5-.4.5-.3H230l.6.3a.3.3,0,0,1,.1.4l-.3.5-4,3.6-.4.3-.5.2H223l-.5-.2a.3.3,0,0,1-.1-.3l.3-.4Z" transform="translate(-67.2 -0.9)"/><path d="M257.4,342.5a.6.6,0,0,1-.1.4l-.4.3-.8.2h-2.9l-.7-.3-.4-.4L245,331.4v11.1a.6.6,0,0,1-.1.3l-.4.2-.7.2h-2.3l-.7-.2-.4-.2a.5.5,0,0,1-.1-.3v-22a.5.5,0,0,1,.1-.3l.4-.2h3.8l.4.2a.6.6,0,0,1,.1.3v10l6.9-9.9.3-.4.5-.2h3.1l.8.2.4.2a.5.5,0,0,1,.1.3,1.4,1.4,0,0,1-.2.6l-.6,1-6.4,8.4,7,10.6.5,1Z" transform="translate(-67.2 -0.9)"/><path d="M280.1,322.5a11,11,0,0,1-.6,3.9,7.6,7.6,0,0,1-1.9,2.9,8.1,8.1,0,0,1-3,1.8,12.9,12.9,0,0,1-4.2.6,13.2,13.2,0,0,1-4-.6,7.7,7.7,0,0,1-3-1.7,7.3,7.3,0,0,1-1.9-2.8,10.9,10.9,0,0,1-.6-3.9V308.4a.5.5,0,0,1,.1-.3l.4-.2h3.8l.4.2a.5.5,0,0,1,.1.3v13.8a7.6,7.6,0,0,0,.3,2.4,4.4,4.4,0,0,0,1,1.7,4.1,4.1,0,0,0,1.5,1,5.7,5.7,0,0,0,2,.3,5.5,5.5,0,0,0,2-.3,4,4,0,0,0,1.5-1,4.5,4.5,0,0,0,.9-1.6,6.7,6.7,0,0,0,.3-2.2V308.4a.5.5,0,0,1,.1-.3l.4-.2h3.7l.4.2a.5.5,0,0,1,.1.3Z" transform="translate(-67.2 -0.9)"/><path d="M302.2,315.9a.7.7,0,0,1-.1.3l-.3.2h-4.2l-.4-.3-.2-.4-2.1-5.2-.7-1.6a5,5,0,0,0-.8-1.1,2.9,2.9,0,0,0-1-.7l-1.3-.2h-1.5v8.9a.5.5,0,0,1-.1.3l-.4.2h-3.8l-.4-.2a.5.5,0,0,1-.1-.3V294.6a1.4,1.4,0,0,1,.4-1.1,1.5,1.5,0,0,1,1-.4h8.7a9.8,9.8,0,0,1,2.5.7,6.1,6.1,0,0,1,1.9,1.3,5.3,5.3,0,0,1,1.2,1.9,6.8,6.8,0,0,1,.4,2.5,7.2,7.2,0,0,1-.3,2.1,5.5,5.5,0,0,1-.9,1.7,5.8,5.8,0,0,1-1.4,1.3,7.7,7.7,0,0,1-1.9.9l1,.6.9.9.8,1.2.7,1.5,2,4.6.4,1A2,2,0,0,1,302.2,315.9ZM296.1,300a3.5,3.5,0,0,0-.5-2,2.9,2.9,0,0,0-1.7-1.1h-4.2v6.6H292l1.8-.2a3.5,3.5,0,0,0,1.3-.7,2.8,2.8,0,0,0,.8-1.1A3.6,3.6,0,0,0,296.1,300Z" transform="translate(-67.2 -0.9)"/><path d="M273.7,98.4a7.7,7.7,0,0,1,0,.9,2,2,0,0,1-.1.6l-.2.3h-7.9v6.3h7.5l.2.3a2,2,0,0,1,.1.6,9.1,9.1,0,0,1,0,1.8,2.3,2.3,0,0,1-.1.6l-.2.3h-7.5v8.7a.6.6,0,0,1-.1.3l-.4.2-.7.2h-2.3l-.7-.2-.4-.2a.5.5,0,0,1-.1-.3V97.9a1.4,1.4,0,0,1,.4-1.1,1.5,1.5,0,0,1,1-.4h11.3l.2.3a2.2,2.2,0,0,1,.1.6A7.9,7.9,0,0,1,273.7,98.4Z" transform="translate(-67.2 -0.9)"/><path d="M206.5,311.9a1,1,0,0,1-1-1L210.1,10a1,1,0,0,1,.5-.8l.5-.2h.4l.9.4a1,1,0,0,1,.6.9l-2.3,300.4a1,1,0,0,1-1,1Z" transform="translate(-67.2 -0.9)" fill="#fff"/><path d="M211.1,10l.9.4-2.3,300.4h-3.1L211.1,10m0-2a2,2,0,0,0-2,2l-4.5,300.9a2,2,0,0,0,2,2h3.1a2,2,0,0,0,2-2L214,10.5a2,2,0,0,0-1.2-1.8l-.9-.4-.8-.2Z" transform="translate(-67.2 -0.9)"/><path d="M114.8,126.8a2,2,0,0,1-.9-3.8C142,109,188.3,92.2,229.1,77.4c22.1-8,43.1-15.6,58.9-22h.7a2,2,0,0,1,2,1.8c.2,2.5.3,4.7.4,6.9s.2,4.3.4,6.7a2,2,0,0,1-1.4,2.1c-19.5,6.1-46.6,14.4-75.3,23.1-36.6,11.1-74.4,22.7-99.5,30.7Z" transform="translate(-67.2 -0.9)" fill="#fff"/><path d="M288.8,57.3c.4,4.9.4,8.6.8,13.6-44.4,14-130,39.5-174.8,53.9,43.2-21.4,128.7-49.4,174-67.5m0-4-1.5.3c-15.8,6.3-36.7,13.9-58.9,22-40.9,14.8-87.2,31.7-115.4,45.6a4,4,0,0,0,1.8,7.6l1.2-.2c25.2-8.1,63-19.6,99.5-30.7,28.7-8.7,55.8-17,75.3-23.1a4,4,0,0,0,2.8-4.1c-.2-2.4-.3-4.5-.4-6.6s-.2-4.4-.4-6.9a4,4,0,0,0-4-3.7Z" transform="translate(-67.2 -0.9)"/><polygon points="139.4 308 142.5 308 142.5 307.8 139.4 307.8 139.4 308" fill="#fff"/><path d="M150.7,160.8a16.6,16.6,0,0,1-4.3-.5c-5.3-1.4-8.9-4.4-10.8-8.8-3.2-7.8,0-18.3,4.2-25.5l.8-1.4c1.4-2.5,2.8-5.2,6-6.8a45,45,0,0,1,8.6-3l3.9-1.1,23.6-7.6,9.5-3.1L235,89.1l25-7.9,4.4-1.4,14.1-4.4,2.7-.9c2.7-1,5.9-2.1,8.9-2.1h1.6c7.5,1.1,14.5,9.8,17.1,15.1,3.5,7,3.6,14.4.3,22.7-6.3,15.8-23.5,27.3-41.1,27.3h0a34,34,0,0,1-24.6-9.9l-1.6-1.7-.6-.6-.8.8a44.6,44.6,0,0,0-4,5.1c-.9,1.2-1.8,2.5-2.8,3.7-5.3,6.4-10.5,10.9-16,13.7a27.8,27.8,0,0,1-12.3,3.2,19,19,0,0,1-8.6-2,23.3,23.3,0,0,1-5.6-4.7c-1.6-1.6-3.7-3.8-4.8-3.8s-4.6,3-6.6,4.7-2.2,2-3.1,2.6l-2.4,1.8a81.9,81.9,0,0,1-8.3,5.6C163.5,157.5,157.1,160.8,150.7,160.8Z" transform="translate(-67.2 -0.9)" fill="#ffff01"/><path d="M290.1,74.4h1.3c6.4.9,12.9,8.5,15.6,14,3.5,7,3.1,14,.3,21.1-6.1,15.4-23,26-39.2,26a32.1,32.1,0,0,1-23.2-9.4c-1.9-1.9-2.6-3.1-3.5-3.1s-1.2.5-2.3,1.7-4.5,6-6.9,8.9c-4.3,5.2-9.3,10.1-15.4,13.1a26,26,0,0,1-11.4,3,17,17,0,0,1-7.7-1.8c-3.9-1.9-7.8-8.6-11.3-8.6H186c-3.1.6-7.8,5.8-10.5,7.7a117.2,117.2,0,0,1-10.5,7.3c-4,2.3-9.4,4.4-14.3,4.4a14.6,14.6,0,0,1-3.8-.5c-15.3-4.1-11.1-21.3-5.4-31.3,1.7-3,2.8-5.8,6-7.4s8.4-2.7,12.2-4l23.6-7.6L235.7,91,265,81.8l14.1-4.4c3.4-1.1,7.3-3,11-3m0-4c-3.4,0-6.7,1.2-9.6,2.3l-2.6.9L263.8,78l-4.2,1.3-25.2,7.9-43,13.9-9.4,3-23.6,7.6-3.8,1.1a46.5,46.5,0,0,0-9,3.1c-3.7,1.9-5.4,5-6.9,7.6l-.7,1.3c-4.4,7.6-7.8,18.8-4.3,27.2,2.1,4.9,6.2,8.4,12.1,9.9a18.6,18.6,0,0,0,4.8.6c6.7,0,13.1-3.1,16.3-4.9a83.4,83.4,0,0,0,8.5-5.8l2.4-1.8c1-.7,2.1-1.7,3.3-2.8a33.6,33.6,0,0,1,5.3-4.1,24.5,24.5,0,0,1,3.4,3.1,24.6,24.6,0,0,0,6.1,5,21,21,0,0,0,9.5,2.2,29.7,29.7,0,0,0,13.2-3.4c5.8-2.9,11.2-7.5,16.7-14.2,1-1.2,2-2.5,2.9-3.8s2.1-2.9,3.2-4.1l.8.8a35.9,35.9,0,0,0,26,10.5c18.3,0,36.3-12,42.9-28.6,3.4-8.7,3.3-16.9-.4-24.3-2.9-5.8-10.3-15-18.6-16.1Z" transform="translate(-67.2 -0.9)"/><path d="M170.6,138.5a11,11,0,0,1-.6,3.9,7.6,7.6,0,0,1-1.9,2.9,8.1,8.1,0,0,1-3,1.8,12.9,12.9,0,0,1-4.2.6,13.2,13.2,0,0,1-4-.6,7.7,7.7,0,0,1-3-1.7,7.3,7.3,0,0,1-1.9-2.8,10.9,10.9,0,0,1-.6-3.9V124.5a.5.5,0,0,1,.1-.3l.4-.2h3.8l.4.2a.5.5,0,0,1,.1.3v13.8a7.6,7.6,0,0,0,.3,2.4,4.4,4.4,0,0,0,1,1.7,4.1,4.1,0,0,0,1.5,1,5.7,5.7,0,0,0,2,.3,5.5,5.5,0,0,0,2-.3,4,4,0,0,0,1.5-1,4.5,4.5,0,0,0,.9-1.6,6.7,6.7,0,0,0,.3-2.2V124.5a.5.5,0,0,1,.1-.3l.4-.2h3.7l.4.2a.5.5,0,0,1,.1.3Z" transform="translate(-67.2 -0.9)"/><path d="M225.4,134.3a.6.6,0,0,1-.1.3l-.4.2h-3.6l-.4-.2a.5.5,0,0,1-.1-.3v-19h0l-6.8,19-.2.4-.4.2h-3.5l-.4-.2-.2-.3-6.5-19h0v19a.6.6,0,0,1-.1.3l-.4.2h-3.6l-.4-.2a.6.6,0,0,1-.1-.3V113.4a1.9,1.9,0,0,1,.5-1.4,1.8,1.8,0,0,1,1.3-.5h4.5l1,.5a2.6,2.6,0,0,1,.7.8,5.9,5.9,0,0,1,.5,1.3l5.1,13.9h.1l5.2-13.9a7.3,7.3,0,0,1,.5-1.3,3,3,0,0,1,.7-.9l.9-.5h5.2l.6.4a1.6,1.6,0,0,1,.3.6,2.6,2.6,0,0,1,.1.8Z" transform="translate(-67.2 -0.9)"/><path d="M274.1,99.1a7.7,7.7,0,0,1,0,.9,2,2,0,0,1-.1.6l-.2.3h-7.9v6.3h7.5l.2.3a2,2,0,0,1,.1.6,9.1,9.1,0,0,1,0,1.8,2.3,2.3,0,0,1-.1.6l-.2.3h-7.5v8.7a.6.6,0,0,1-.1.3l-.4.2-.7.2h-2.3l-.7-.2-.4-.2a.5.5,0,0,1-.1-.3V98.6a1.4,1.4,0,0,1,.4-1.1,1.5,1.5,0,0,1,1-.4h11.3l.2.3a2.2,2.2,0,0,1,.1.6A7.9,7.9,0,0,1,274.1,99.1Z" transform="translate(-67.2 -0.9)"/><ellipse cx="236.3" cy="62.2" rx="12.5" ry="10" fill="none" stroke="#000" stroke-miterlimit="10" stroke-width="4"/><path d="M345.8,368.1s-10.8,10.2-24.6,0c0,0-12.3,10.3-24.3,0,0,0-11.5,10.3-25.7,0,0,0-11.8,10.3-24.8,0,0,0-11.8,10.2-24.9,0,0,0-13.2,10-25.2,0,0,0-13.5,10.3-25.7,0,0,0-10,10.2-24.1,0,0,0-12,10.2-25.7,0,0,0-12.5,10.1-25.5,0,0,0-12,10.1-24.8,0l-1.6,1.3,5.4,12.4c4.6,1.8,12.9,3.6,21-1.9,0,0,14.2,8.5,25.5,0,0,0,15.4,8.8,25.7,0,0,0,13.8,9.2,24.1,0,0,0,12.8,9.2,25.7,0,0,0,14.3,9.4,25.3,0,0,0,12.4,9.7,24.9,0,0,0,13.8,10.1,24.8,0,0,0,12.8,10.6,25.7,0,0,0,13,10.5,24.3,0,0,0,14.3,10.7,24.6,0l3.1.9,2.4-10.4Z" transform="translate(-67.2 -0.9)" fill="url(#a)"/><path d="M334.8,385.5s-12.3,10.3-24.3,0c0,0-11.5,10.3-25.7,0,0,0-11.8,10.3-24.8,0,0,0-11.8,10.2-24.9,0,0,0-13.2,10-25.2,0,0,0-13.5,10.3-25.7,0,0,0-10,10.2-24.1,0,0,0-12,10.2-25.7,0,0,0-12.5,10.1-25.5,0,0,0-12,10.1-24.8,0l-6.1,5,3.5,8,2.6-1.1s12.6,8.3,24.8,0c0,0,14.2,8.5,25.5,0,0,0,15.4,8.8,25.7,0,0,0,13.8,9.2,24.1,0,0,0,12.8,9.2,25.7,0,0,0,14.3,9.4,25.3,0,0,0,12.4,9.7,24.9,0,0,0,13.8,10.1,24.8,0,0,0,12.8,10.6,25.7,0,0,0,13,10.5,24.3,0a27.7,27.7,0,0,0,9.4,4.2l2.6-11.5A21,21,0,0,1,334.8,385.5Z" transform="translate(-67.2 -0.9)" fill="url(#b)"/><path d="M323.1,404.2s-12.3,10.3-24.3,0c0,0-11.5,10.3-25.7,0,0,0-11.8,10.3-24.8,0,0,0-11.8,10.2-24.9,0,0,0-13.2,10-25.2,0,0,0-13.5,10.3-25.7,0,0,0-10,10.2-24.1,0,0,0-12,10.2-25.7,0,0,0-12.5,10.1-25.5,0a21.7,21.7,0,0,1-11.3,4.4l4.5,10.5a21.3,21.3,0,0,0,6.8-3.1s14.2,8.5,25.5,0c0,0,15.4,8.8,25.7,0,0,0,13.8,9.2,24.1,0,0,0,12.8,9.2,25.7,0,0,0,14.3,9.4,25.3,0,0,0,12.4,9.7,24.9,0,0,0,13.8,10.1,24.8,0,0,0,12.8,10.6,25.7,0,0,0,13,10.5,24.3,0,0,0,8.2,6.2,16.7,4.4l3-13.3C338.4,409.2,331.2,410.3,323.1,404.2Z" transform="translate(-67.2 -0.9)" fill="url(#c)"/></svg>