<svg xmlns="http://www.w3.org/2000/svg" viewBox="0 0 574.4 420.1"><title>kv</title><path d="M394.6,208.2a179.4,179.4,0,0,1-27.1,90,133.7,133.7,0,0,1-47.2,46.2c-3.7,19.3-43.5,35.1-75.7,38.8-17.4,2-42.4.9-57.6-5.4-6.2,2-11.1,3.1-13.2,2.6-30.6-7.7-51.9-23.4-69.1-40.9-1.5-1.5-2.4-4.5-3.1-8.2-4.9-.9-10-2.8-13.5-6.2-26.9-26.5-30.8-51.7-39.2-72.3-9.7-28.5-13.5-65.6-3.4-98.6,2.5-8,5.5-11.6,9.8-15.2,8.8-29.4,18.7-48,45.2-64.6a30.9,30.9,0,0,1,8.4-3.8c4.7-10,9.7-14.2,18.5-20.4,17.3-12.2,43.2-21,66.1-21.3,8.1-.1,16.4,2.6,23.2,5.8a27.2,27.2,0,0,1,15.5-4.3c33.6.6,68.4,9.1,101.1,32.9,13.3,9.7,27,25.6,37.9,44.7a19.3,19.3,0,0,1,2,5.3Z" transform="translate(0 -0.1)" fill="#fff"/><polygon points="478.2 316.4 544.3 142 566.9 142 566.9 115.2 484.3 115.2 484.3 142 515.6 142 462.4 282.5 409.2 142 435.8 142 435.8 115.2 355.8 115.2 355.8 142 380.5 142 446.5 316.4 478.2 316.4 478.2 316.4" fill="#fff" stroke="#fff" stroke-miterlimit="10" stroke-width="15"/><path d="M323.4,89.9c-12.2-8.8-27.8-16.7-43.7-22.4-12-4.3-22.3-6.4-35-6.2-8.7-.1-18.7,3.1-27.1,8.7s-10.7,11.9-12.1,19.8c-1,6.1-.5,12.4.4,18.7h-6.7l-1.3-4.2c-5-16.4-13.3-23.3-37.4-25.5a196.1,196.1,0,0,0-38.7.8,123.1,123.1,0,0,1-11.6,21.2c-5.6,8.2-9.7,12.4-16.3,20.8s-8.5,14.5-9.1,20.8c-1.2,11.7,5.4,25.6,10.8,35.3s18,9.8,33.4,10.3a137,137,0,0,0,26.1-1.3c4.4-5.5,8.9-10.9,13.5-16v53.8a231,231,0,0,1-13.3-23.1c-16.6-4.3-40.9-6.2-61.3-5.4-3.4,1.4-8.7,6-12,11.8a93.7,93.7,0,0,0-11.2,32c9.2,24.2,22.6,49.1,36.5,62.8,6.8,6.7,20.3,7.9,33.5,6.8v13.9h40.7a65,65,0,0,0,20.1,28.4c12.3,10.4,60.5,2.8,87.8-17.6a38.9,38.9,0,0,0,3.8-11.3l50,.2V282.9H309.9l-5.7-9c23.5,1.1,40.5-5.4,49.4-16.5,15.3-19.1,17.1-53.4,17.4-74.9-9.1-16.9-17.9-25.7-30.3-34.2a23.4,23.4,0,0,0-5.5-2.9V108.6h-5.4a66.3,66.3,0,0,0-6.5-18.7Zm-86.7,55,9.6,3.3v.6H248l3.5,1.3L208.9,191V148.8h27.9v-3.9Zm80.2,3.9-3.8,2.6c-8.7,6.2-22.7,20.1-32.9,31.8-.6,17.7-1.7,31.2-4.9,46.8q-9.7-14-20-27.7l55.8-53.5Zm-73.2,105a186.4,186.4,0,0,1-34.9,5.9v-13l17.1-16.4c6,7.6,11.9,15.5,17.7,23.5ZM378.3,180c-2.6,17.3-7,49-9.1,72.4-.8,9.2,4.5,17,7.4,19.7,11.2-22.8,16.8-50.7,17.5-75.4l4.3,11.4a182.9,182.9,0,0,1-27.6,91.7,136.3,136.3,0,0,1-48.1,47.1c-3.8,19.7-44.4,35.8-77.2,39.6-17.7,2.1-43.2.9-58.7-5.5-6.3,2-11.3,3.2-13.5,2.6-31.2-7.9-52.9-23.9-70.5-41.7-1.5-1.5-2.5-4.6-3.1-8.4-5-1-10.2-2.8-13.7-6.3-27.4-27-31.4-52.7-40-73.7-9.9-29.1-13.8-66.9-3.5-100.5,2.5-8.2,5.6-11.8,10-15.5,8.9-30,19.1-49,46.1-65.9a31.5,31.5,0,0,1,8.6-3.9c4.8-10.2,9.9-14.5,18.9-20.8,17.6-12.4,44.1-21.4,67.4-21.7,8.3-.1,16.7,2.7,23.6,5.9a27.8,27.8,0,0,1,15.8-4.4c34.2.6,69.8,9.3,103.1,33.5,14.2,10.3,28.7,27.5,40.1,48.2h-27v40.2h26.8l8.8,23.2-6.4,8.1ZM232.1,39.6c12.9,7.8,16.7,9.5,29.9,15.2,19.5,8.4,45.5,19.6,61.6,26.2a41.5,41.5,0,0,0,21.6-3.7C314.1,45.5,263,37.6,234.6,39.5Zm70.4,305.6c-17.4,3.6-44.1,11.9-71,20-7.9,2.4-19.1,6.8-29.7,10.7,41,10.5,95.6-9.5,110.7-28.9l-10-1.8Zm-238.9-95c-3-.7-6.4-1.5-9-1,2.7,17.5,22.3,57.7,43.7,71.9A95.3,95.3,0,0,0,97,310.6C92.8,290.9,77.3,267.1,63.6,250.2ZM115.8,78.7l-3.9-4.1c-5.1,4.2-9.1,8.9-14.9,13.4S80.9,98.6,75,105.7s-10.9,16.9-14.1,30a46.1,46.1,0,0,0,11.1-4c8.7-4.5,22.7-19.9,33-34.9A144.1,144.1,0,0,0,115.8,78.7Z" transform="translate(0 -0.1)"/><path d="M206.7,409.4l.2-3h-1a2.1,2.1,0,0,1-1.4-.5,1.3,1.3,0,0,1-.3-1,1.2,1.2,0,0,1,.5-.9,2.1,2.1,0,0,1,1.4-.3l4.1.3a2.1,2.1,0,0,1,1.4.5,1.3,1.3,0,0,1-.2,1.9,2.1,2.1,0,0,1-1.4.3h-.4l-.8,10.7h.4a2.1,2.1,0,0,1,1.4.5,1.5,1.5,0,0,1-.2,2,2.1,2.1,0,0,1-1.4.3l-4.1-.3a2.2,2.2,0,0,1-1.4-.5,1.4,1.4,0,0,1,.1-2h0a2.1,2.1,0,0,1,1.4-.3h1l.3-4-5.1,3.8.5.6a1.2,1.2,0,0,1,.1.7,1.3,1.3,0,0,1-.5,1,2.1,2.1,0,0,1-1.4.3l-2.8-.2a2.2,2.2,0,0,1-1.4-.5,1.4,1.4,0,0,1,.1-2h0a2,2,0,0,1,1.3-.3l5.2-3.9a8.6,8.6,0,0,1-2.4-2.6,17.1,17.1,0,0,1-1.8-4.1h-.7a2.1,2.1,0,0,1-1.4-.5,1.2,1.2,0,0,1,.1-1.9,2.1,2.1,0,0,1,1.4-.3l2.5.2a40.8,40.8,0,0,0,1.6,4,8.6,8.6,0,0,0,1.4,2.3,5.7,5.7,0,0,0,1.7,1.2l1.8-1.3Z" transform="translate(0 -0.1)"/><path d="M177.9,412.7l.2-.9a5.2,5.2,0,0,1-1.8.6,5.6,5.6,0,0,1-2-.1,5,5,0,0,1-3.5-2.2,4.4,4.4,0,0,1-.5-3.3l1-5a1.8,1.8,0,0,1-1.2-.6,1.4,1.4,0,0,1,.4-1.9,2.1,2.1,0,0,1,1.5-.1l2.4.5a2,2,0,0,1,1.3.6,1.2,1.2,0,0,1,.2,1.1,1.3,1.3,0,0,1-.6.9,1.9,1.9,0,0,1-1.3.1l-1,5.1a1.6,1.6,0,0,0,.2,1.4,2.8,2.8,0,0,0,1.7.9,3.5,3.5,0,0,0,1.7,0,7.4,7.4,0,0,0,2.1-1.2l1-5a3,3,0,0,1-1.3-.5,1.3,1.3,0,0,1-.4-1.3,1.2,1.2,0,0,1,.6-.9,2.1,2.1,0,0,1,1.5-.1l3.1.6a2,2,0,0,1,1.3.6,1.4,1.4,0,0,1-.7,2.1,2.9,2.9,0,0,1-1.4-.1l-1.3,6.5a1.8,1.8,0,0,1,1.2.6,1.4,1.4,0,0,1-.4,1.9,2.1,2.1,0,0,1-1.5.1l-2.6-.5Z" transform="translate(0 -0.1)"/><path d="M151.1,393.7l-.2.6a8.5,8.5,0,0,1,2.4,0l2.2.5a5.3,5.3,0,0,1,3,2.3,3.3,3.3,0,0,1,.5,2.9,4.2,4.2,0,0,1-2.7,2.4,7.3,7.3,0,0,1-5.1-.2l-2.6-1.2-.2.6a1.2,1.2,0,0,0,.2,1.1,3.7,3.7,0,0,0,1.8,1,13.3,13.3,0,0,0,3.1.6l1.1.2a1.2,1.2,0,0,1,.7.7,1.4,1.4,0,0,1,0,1.1l-.3.5-.5.3h-1.1l-2.1-.3-1.9-.5A6.3,6.3,0,0,1,146,404a3.6,3.6,0,0,1-.3-3.3l1.8-5.3-.4-.2a2,2,0,0,1-1.2-.8,1.4,1.4,0,0,1,.6-1.9h0a2.1,2.1,0,0,1,1.5.1l3,1Zm-1.6,4.6a16.4,16.4,0,0,0,2.7,1.3,5,5,0,0,0,3,.2,1.6,1.6,0,0,0,1.1-.8.7.7,0,0,0-.1-.7,3.3,3.3,0,0,0-1.6-1,7.7,7.7,0,0,0-2.2-.4,8.4,8.4,0,0,0-2.4.3l-.4,1.1Z" transform="translate(0 -0.1)"/><path d="M130.2,395.4l2.3-5a1.5,1.5,0,0,0,.2-1.2,3.3,3.3,0,0,0-1.6-1.2,8.5,8.5,0,0,0-3.9-.8h-1.1a1.3,1.3,0,0,1-.6-1.8,1.2,1.2,0,0,1,.8-.7,6.3,6.3,0,0,1,2.8,0,12.5,12.5,0,0,1,3.2.9,5.7,5.7,0,0,1,3,2.6,3.4,3.4,0,0,1,0,3l-2.5,5.5.9.4a2.1,2.1,0,0,1,1.1.9,1.3,1.3,0,0,1-.8,1.8,2.1,2.1,0,0,1-1.4-.3l-.9-.4-1,2.2a2.1,2.1,0,0,1-.9,1.1,1.4,1.4,0,0,1-1.8-.8,2.1,2.1,0,0,1,.3-1.4l1-2.2-4.6-2.1a2.1,2.1,0,0,1-1.1-.9,1.3,1.3,0,0,1,.8-1.8,2.1,2.1,0,0,1,1.4.2l4.6,2.1Z" transform="translate(0 -0.1)"/><path d="M109.2,384.9l2.8-4.7a1.5,1.5,0,0,0,.3-1.2,3.4,3.4,0,0,0-1.5-1.4,8.5,8.5,0,0,0-3.8-1.2l-1.1-.3a1.2,1.2,0,0,1-.4-1.8,1.2,1.2,0,0,1,.8-.6,6.4,6.4,0,0,1,2.8.3,12.8,12.8,0,0,1,3.1,1.2,5.7,5.7,0,0,1,2.7,2.9,3.4,3.4,0,0,1-.3,3l-3.1,5.2.8.5a2.1,2.1,0,0,1,1,1.1,1.4,1.4,0,0,1-1,1.7,2.1,2.1,0,0,1-1.4-.4l-.9-.5-1.3,2.1a2.1,2.1,0,0,1-1,1,1.4,1.4,0,0,1-1.7-1,2,2,0,0,1,.4-1.4l1.3-2.1-4.3-2.6a2.1,2.1,0,0,1-1-1,1.4,1.4,0,0,1,1.1-1.7,2.1,2.1,0,0,1,1.4.4l4.3,2.6Z" transform="translate(0 -0.1)"/><path d="M88.2,370.2a5.1,5.1,0,0,0,.8,1.3,5.5,5.5,0,0,0,1.1,1.1,5.2,5.2,0,0,0,2.3,1.1c.3,0,.5,0,.6-.2s.1-.4-.1-.8a7.2,7.2,0,0,0-1.3-1.5,22.1,22.1,0,0,1-2.6-2.8,4.6,4.6,0,0,1-.9-2.5,3.3,3.3,0,0,1,.6-2.1,3,3,0,0,1,2.5-1.2,7.7,7.7,0,0,1,4.7,1.7,11.2,11.2,0,0,1,1.7,1.5,8.2,8.2,0,0,1,1.1,1.6h.5l.4.2a1.3,1.3,0,0,1,.6.9,2.1,2.1,0,0,1-.5,1.4l-.5.8a2.1,2.1,0,0,1-1.1.9,1.3,1.3,0,0,1-1.1-.2,1.2,1.2,0,0,1-.5-.7,1.8,1.8,0,0,1,.1-1.1,4.2,4.2,0,0,0-.7-1.5,7,7,0,0,0-1.5-1.4,6.1,6.1,0,0,0-2.7-1.2.8.8,0,0,0-.8.2,1,1,0,0,0,.1,1.1,10.2,10.2,0,0,0,2,2.2c1.6,1.5,2.6,2.7,2.8,3.7a3.1,3.1,0,0,1-.5,2.6,3,3,0,0,1-2.4,1.2,6.8,6.8,0,0,1-4.3-1.5l-1.4-1.2a7.3,7.3,0,0,1-1-1.4h-.5l-.4-.2a1.2,1.2,0,0,1-.5-.9,2.1,2.1,0,0,1,.5-1.4l.4-.5a2.3,2.3,0,0,1,.9-.9,1.4,1.4,0,0,1,1.8,1,1.4,1.4,0,0,1-.1.9Z" transform="translate(0 -0.1)"/><path d="M80.2,353.9l3.1-3.2-1.2-1.1a2.1,2.1,0,0,1-.7-1.3,1.4,1.4,0,0,1,1.4-1.4,2.1,2.1,0,0,1,1.3.7l3.5,3.4a2.1,2.1,0,0,1,.7,1.3,1.4,1.4,0,0,1-1.4,1.4,2.1,2.1,0,0,1-1.3-.7l-.3-.3-8.6,8.9.3.3a2.1,2.1,0,0,1,.8,1.3,1.4,1.4,0,0,1-1.4,1.4,2.1,2.1,0,0,1-1.3-.7l-2.3-2.2.7-.7a7.3,7.3,0,0,1-2.1-.7,6.8,6.8,0,0,1-1.7-1.2,6.7,6.7,0,0,1-2.1-4.7,5.9,5.9,0,0,1,1.6-4.5,5.4,5.4,0,0,1,4.8-1.6,7.1,7.1,0,0,1,4.2,2,6.9,6.9,0,0,1,1.3,1.7,8.5,8.5,0,0,1,.8,2.1Zm-9.1-2.2a3.5,3.5,0,0,0-.7,1.4,3.7,3.7,0,0,0,0,2,4.1,4.1,0,0,0,1.2,2,3.9,3.9,0,0,0,3.4,1.1,3.3,3.3,0,0,0,2-.9,2.8,2.8,0,0,0,.6-2.3,4.7,4.7,0,0,0-4.2-4,2.9,2.9,0,0,0-2.3.7Z" transform="translate(0 -0.1)"/><path d="M65.6,336.9l-4.1,9.6a1.6,1.6,0,0,1,.3,1.1,1.4,1.4,0,0,1-1.5,1.1,2.1,2.1,0,0,1-1.2-.8L57.5,346a2.1,2.1,0,0,1-.6-1.3,1.3,1.3,0,0,1,.5-1,1.2,1.2,0,0,1,1-.3,1.9,1.9,0,0,1,1.1.8l2.7-6.5-6.9,1.6a1.9,1.9,0,0,1,.5,1.2,1.4,1.4,0,0,1-1.5,1.3,2.1,2.1,0,0,1-1.2-.8l-1.7-2a2.1,2.1,0,0,1-.6-1.3,1.4,1.4,0,0,1,1.4-1.3,1.5,1.5,0,0,1,1,.5l13.5-3.1a3.1,3.1,0,0,1-.7-1.2,1.4,1.4,0,0,1,.5-1.2,1.3,1.3,0,0,1,1-.3,2.1,2.1,0,0,1,1.2.8l3.8,4.6a2.1,2.1,0,0,1,.6,1.3,1.4,1.4,0,0,1-1.5,1.2,2.1,2.1,0,0,1-1.2-.8l-1.7-2.1-3.3.8Z" transform="translate(0 -0.1)"/><path d="M42.2,326.5l1.4-1a15.2,15.2,0,0,1-2.9-1.3,5,5,0,0,1-1.4-1.3,4.1,4.1,0,0,1-.7-2.7,1.8,1.8,0,0,1,.6-1.5,1.4,1.4,0,0,1,1.1-.2,1.3,1.3,0,0,1,.9.6,1.6,1.6,0,0,1,.2,1.2,1.6,1.6,0,0,0,.2,1.1,3.8,3.8,0,0,0,1.6,1l3.4,1.1,3.4-2.4-2.2-3.2a2,2,0,0,1-.5-1.4,1.3,1.3,0,0,1,.6-.9,1.2,1.2,0,0,1,1-.2,2,2,0,0,1,1.1.9l4.7,6.8a2.1,2.1,0,0,1,.5,1.4,1.2,1.2,0,0,1-.6.9,1.3,1.3,0,0,1-1,.2,2.1,2.1,0,0,1-1.1-.9l-.9-1.3-5.4,3.8.6.8a2.1,2.1,0,0,1,.5,1.4,1.4,1.4,0,0,1-1.6,1.1,2.1,2.1,0,0,1-1.1-.9Z" transform="translate(0 -0.1)"/><path d="M30.7,308.2l.8-.4a5.1,5.1,0,0,1-1.6-1,5.9,5.9,0,0,1-1.2-1.6,5,5,0,0,1-.4-4.1,4.4,4.4,0,0,1,2.3-2.4l4.5-2.3a1.8,1.8,0,0,1-.2-1.3,1.5,1.5,0,0,1,1.8-.9,2.1,2.1,0,0,1,1,1.1l1.1,2.2a2.1,2.1,0,0,1,.3,1.4,1.5,1.5,0,0,1-1.8.9,1.9,1.9,0,0,1-.9-1l-4.6,2.3a1.6,1.6,0,0,0-.9,1,2.8,2.8,0,0,0,.4,1.9,3.5,3.5,0,0,0,1.1,1.3,7.3,7.3,0,0,0,2.2.9l4.5-2.3a3,3,0,0,1-.4-1.3,1.3,1.3,0,0,1,.8-1.1,1.2,1.2,0,0,1,1.1-.1,2.1,2.1,0,0,1,1,1.1l1.4,2.8a2.1,2.1,0,0,1,.3,1.4,1.4,1.4,0,0,1-2,.8,2.9,2.9,0,0,1-.8-1.1l-5.9,3a1.8,1.8,0,0,1,.2,1.3,1.3,1.3,0,0,1-.7.8,1.2,1.2,0,0,1-1.1.1,2.1,2.1,0,0,1-1-1.1l-1.2-2.3Z" transform="translate(0 -0.1)"/><path d="M17.8,279.7l8.8-3.4a1.8,1.8,0,0,1-.1-1.3,1.5,1.5,0,0,1,1.9-.7,2.1,2.1,0,0,1,.9,1.2l.9,2.4-.6.2a13.8,13.8,0,0,1,1.6,1.8,8.4,8.4,0,0,1,1,1.8,4.7,4.7,0,0,1,.3,2.4,4.1,4.1,0,0,1-.9,2,3.6,3.6,0,0,1-1.5,1l-5.5,2.1.2.4a2.1,2.1,0,0,1,.1,1.5,1.4,1.4,0,0,1-1.8.7,2.1,2.1,0,0,1-.9-1.2l-1.1-3,7.6-2.9a1.7,1.7,0,0,0,1-.9,1.8,1.8,0,0,0-.1-1.3,5.6,5.6,0,0,0-.9-1.5,13,13,0,0,0-1.9-1.8l-5.2,2,.4.9a2.1,2.1,0,0,1,.1,1.5,1.4,1.4,0,0,1-1.8.7h-.1a2.1,2.1,0,0,1-.9-1.2Z" transform="translate(0 -0.1)"/><path d="M15.1,262.5l6.4-1.7-1-3.8a2.1,2.1,0,0,1,0-1.5,1.3,1.3,0,0,1,.9-.7,1.2,1.2,0,0,1,1.1.2,2.1,2.1,0,0,1,.7,1.3l2.1,8a2.1,2.1,0,0,1,0,1.5,1.3,1.3,0,0,1-.9.7,1.2,1.2,0,0,1-1.1-.1,2.1,2.1,0,0,1-.7-1.3l-.4-1.6-6.4,1.7.3,1.3a2.1,2.1,0,0,1,0,1.5,1.4,1.4,0,0,1-1.9.5,2.1,2.1,0,0,1-.7-1.3l-.3-1.3-1,.3a3.8,3.8,0,0,1-3.2-.5,5.7,5.7,0,0,1-2.1-3.5,18.3,18.3,0,0,1-.5-2.6,4,4,0,0,1,.1-2,1.2,1.2,0,0,1,.8-.7,1.4,1.4,0,0,1,1.1.1,1.2,1.2,0,0,1,.6.8,5,5,0,0,1,.1.8,15.2,15.2,0,0,0,.5,3,3.1,3.1,0,0,0,.9,1.7,1.3,1.3,0,0,0,1.1.2l1-.3-1.1-4.1a2.1,2.1,0,0,1,0-1.5,1.4,1.4,0,0,1,1.9-.5,2.1,2.1,0,0,1,.7,1.3l1.1,4.1Z" transform="translate(0 -0.1)"/><path d="M13.6,232l2,11.1a3.5,3.5,0,0,0,1.4-1.8,5.7,5.7,0,0,0,.1-3,16.8,16.8,0,0,0-1.3-3.9,7,7,0,0,1-.5-1.4,1.3,1.3,0,0,1,.2-1,1.4,1.4,0,0,1,.9-.5,1.2,1.2,0,0,1,1,.2,6.3,6.3,0,0,1,1.4,2.4,18.9,18.9,0,0,1,1.1,3.8,7.3,7.3,0,0,1-.9,5.5,6,6,0,0,1-4.1,2.7,5.8,5.8,0,0,1-5-1.3,7.3,7.3,0,0,1-2.6-4.5,8,8,0,0,1,.1-3.1,6.3,6.3,0,0,1,.9-2.3,7.8,7.8,0,0,1,2.1-2,6.1,6.1,0,0,1,2.2-.8l1.1-.2Zm-2.2,3.5a4.3,4.3,0,0,0-1.4,1.9,4.7,4.7,0,0,0-.2,2.5,4.8,4.8,0,0,0,1,2.3,4.5,4.5,0,0,0,2,1.3l-1.4-8ZM2.8,239l2.9,2.5a1.3,1.3,0,0,1,.5.7.9.9,0,0,1-.1.7.8.8,0,0,1-.6.4,1.2,1.2,0,0,1-.9-.4l-2.9-2.5a1.3,1.3,0,0,1-.5-.7.9.9,0,0,1,.7-1,1.2,1.2,0,0,1,1,.4Z" transform="translate(0 -0.1)"/><path d="M0,216.6l14.6-.3V213a2.1,2.1,0,0,1,.4-1.4,1.5,1.5,0,0,1,2,0,2.1,2.1,0,0,1,.4,1.4l.2,9.3a2.1,2.1,0,0,1-.4,1.4,1.5,1.5,0,0,1-2,0,2.1,2.1,0,0,1-.4-1.4V219L3,219.2v2.2a2.1,2.1,0,0,1-.4,1.4,1.3,1.3,0,0,1-1.8.2l-.2-.2a2.1,2.1,0,0,1-.4-1.4v-4.9Z" transform="translate(0 -0.1)"/><path d="M17.6,195.3H17a8.5,8.5,0,0,1,.6,2.3,11.1,11.1,0,0,1,.1,2.3,5.3,5.3,0,0,1-1.5,3.5,3.4,3.4,0,0,1-2.7,1.1,4.2,4.2,0,0,1-3-2,7.3,7.3,0,0,1-1-5,17.6,17.6,0,0,1,.5-2.8H9.3a1.2,1.2,0,0,0-1,.4,3.8,3.8,0,0,0-.6,2,13.8,13.8,0,0,0,.2,3.2,5,5,0,0,1,.1,1.1,1.2,1.2,0,0,1-.5.9,1.4,1.4,0,0,1-1,.3l-.6-.2-.4-.4a4.8,4.8,0,0,1-.3-1,17.9,17.9,0,0,1-.3-2.1,12.1,12.1,0,0,1,0-1.9,6.4,6.4,0,0,1,1.4-3.8,3.6,3.6,0,0,1,3.1-1.1l5.6.5v-.5a2.1,2.1,0,0,1,.5-1.4,1.3,1.3,0,0,1,1-.3,1.2,1.2,0,0,1,.9.5,2.1,2.1,0,0,1,.3,1.4l-.3,3.2Zm-4.9-.4a16,16,0,0,0-.6,3,5,5,0,0,0,.6,2.9c.3.5.6.8,1,.8a.7.7,0,0,0,.7-.3,3.2,3.2,0,0,0,.6-1.8,7.5,7.5,0,0,0-.2-2.3,8.4,8.4,0,0,0-.9-2.3Z" transform="translate(0 -0.1)"/><path d="M9.1,171.4l-.8-.2.6-3.1a2.1,2.1,0,0,1,.6-1.3,1.3,1.3,0,0,1,1.1-.2,1.3,1.3,0,0,1,.9.6,2.1,2.1,0,0,1,.1,1.5v.4l9.8,1.9a4.9,4.9,0,0,1,2.4,1.1,5.2,5.2,0,0,1,1.5,2.2,5.3,5.3,0,0,1,.2,2.9l-.6,3a2,2,0,0,1-.6,1.3,1.4,1.4,0,0,1-1.9-.4,2,2,0,0,1-.1-1.5l.6-3a2.7,2.7,0,0,0-.3-2,2.3,2.3,0,0,0-1.6-1l-1.3-.3a7.7,7.7,0,0,1,.5,2,6.3,6.3,0,0,1-.1,1.9,6.4,6.4,0,0,1-2.7,4.2,6.6,6.6,0,0,1-9-1.8,6.4,6.4,0,0,1-.9-4.9,6.6,6.6,0,0,1,.7-1.9,6.5,6.5,0,0,1,1.2-1.6Zm5.1,1a3.6,3.6,0,0,0-2.8.6,3.8,3.8,0,0,0-1,5.2,3.6,3.6,0,0,0,5,1.1h.1a3.8,3.8,0,0,0,1-5.2,3.6,3.6,0,0,0-2.4-1.6Z" transform="translate(0 -0.1)"/><path d="M27.2,134.2,19.9,127l-.2.6a2.1,2.1,0,0,1-.9,1.2,1.4,1.4,0,0,1-1.8-.7,2.1,2.1,0,0,1,.2-1.4l1.4-3.4a2.2,2.2,0,0,1,.9-1.2,1.4,1.4,0,0,1,1.9,1,2.5,2.5,0,0,1-.3,1.2l10.4,10.2-1,2.4-14.6.2a2.4,2.4,0,0,1-.7,1.1,1.4,1.4,0,0,1-2.1-.6,2.1,2.1,0,0,1,.2-1.4l1.4-3.4a2.1,2.1,0,0,1,.9-1.2,1.5,1.5,0,0,1,1.9.8,2.1,2.1,0,0,1-.2,1.4l-.2.6Z" transform="translate(0 -0.1)"/><path d="M37.9,110.1,32.6,120a3.5,3.5,0,0,0,2.2-.5,5.7,5.7,0,0,0,2-2.3,17.2,17.2,0,0,0,1.3-3.9,7,7,0,0,1,.4-1.4,1.3,1.3,0,0,1,.8-.6,1.4,1.4,0,0,1,1,.1,1.2,1.2,0,0,1,.6.8,6.4,6.4,0,0,1-.4,2.7,18.7,18.7,0,0,1-1.5,3.7,7.3,7.3,0,0,1-4.1,3.8,6,6,0,0,1-5-.4,5.9,5.9,0,0,1-3.1-4.1,7.3,7.3,0,0,1,.7-5.2,7.9,7.9,0,0,1,2-2.4,6.4,6.4,0,0,1,2.1-1.2,7.7,7.7,0,0,1,2.9-.3,6,6,0,0,1,2.3.7l1,.5Zm-3.8,1.4a4.3,4.3,0,0,0-2.3.6,4.7,4.7,0,0,0-1.6,1.9,4.8,4.8,0,0,0-.6,2.4,4.5,4.5,0,0,0,.8,2.3l3.8-7.2Z" transform="translate(0 -0.1)"/><path d="M45.3,90.5l-1.3.8a5.5,5.5,0,0,0-1.1,1.1,5.2,5.2,0,0,0-1.1,2.3c0,.3,0,.5.2.6s.4.1.8-.1a7.2,7.2,0,0,0,1.5-1.3,22.1,22.1,0,0,1,2.8-2.6,4.6,4.6,0,0,1,2.5-.9,3.3,3.3,0,0,1,2.1.6,3,3,0,0,1,1.2,2.5,7.7,7.7,0,0,1-1.7,4.7,11.2,11.2,0,0,1-1.5,1.7L48.1,101a1.4,1.4,0,0,1,0,.5l-.2.4a1.3,1.3,0,0,1-.9.6,2.1,2.1,0,0,1-1.4-.5l-.8-.5a2.1,2.1,0,0,1-.9-1.1,1.3,1.3,0,0,1,.2-1.1,1.2,1.2,0,0,1,.7-.5,1.8,1.8,0,0,1,1.1.1,4.2,4.2,0,0,0,1.5-.7,7,7,0,0,0,1.4-1.5A6.1,6.1,0,0,0,50,94a.8.8,0,0,0-.2-.8,1,1,0,0,0-1.1.1,10.2,10.2,0,0,0-2.2,2c-1.5,1.6-2.7,2.6-3.7,2.8a3.1,3.1,0,0,1-2.6-.5A3,3,0,0,1,39,95.2a6.8,6.8,0,0,1,1.5-4.3l1.2-1.4,1.4-1a2.2,2.2,0,0,1,.1-.5l.2-.4a1.2,1.2,0,0,1,.9-.5,2.1,2.1,0,0,1,1.4.5l.5.4a2.3,2.3,0,0,1,.9.9,1.4,1.4,0,0,1-1,1.8,1.4,1.4,0,0,1-.9-.1Z" transform="translate(0 -0.1)"/><path d="M54.4,77.7l4.1,3.6a1.5,1.5,0,0,0,1.1.5,3.4,3.4,0,0,0,1.6-1.2,8.5,8.5,0,0,0,1.9-3.5,2.6,2.6,0,0,1,.4-1,1.5,1.5,0,0,1,1.9-.1,1.2,1.2,0,0,1,.4.9,6.4,6.4,0,0,1-.8,2.7,12.8,12.8,0,0,1-1.7,2.8A5.6,5.6,0,0,1,60,84.6a3.4,3.4,0,0,1-2.8-.9l-4.6-4-.7.7a2,2,0,0,1-1.2.8,1.4,1.4,0,0,1-1.5-1.3h0a2.1,2.1,0,0,1,.6-1.3l.7-.8-1.9-1.6a2.1,2.1,0,0,1-.8-1.2,1.4,1.4,0,0,1,1.3-1.5,2.1,2.1,0,0,1,1.3.6l1.9,1.6,3.3-3.8a2.1,2.1,0,0,1,1.2-.8,1.4,1.4,0,0,1,1.5,1.3,2.1,2.1,0,0,1-.6,1.3Z" transform="translate(0 -0.1)"/><path d="M72.8,54.7l6.4,6.9a1.9,1.9,0,0,1,1.2-.6,1.4,1.4,0,0,1,1.3,1.4,2.1,2.1,0,0,1-.8,1.2L79,65.4l-.4-.5A12.8,12.8,0,0,1,77.5,67a8.6,8.6,0,0,1-1.3,1.7,4.6,4.6,0,0,1-2.1,1.2,4.2,4.2,0,0,1-2.2-.1,3.6,3.6,0,0,1-1.5-1l-4-4.3-.3.3a2.1,2.1,0,0,1-1.3.7,1.4,1.4,0,0,1-1.3-1.4,2.1,2.1,0,0,1,.8-1.2l2.3-2.2,5.6,6a1.7,1.7,0,0,0,1.2.6,1.8,1.8,0,0,0,1.2-.6,5.8,5.8,0,0,0,1.1-1.5,12.7,12.7,0,0,0,.9-2.5l-3.8-4.1-.7.7a2.1,2.1,0,0,1-1.3.7,1.4,1.4,0,0,1-1.4-1.4,2.1,2.1,0,0,1,.8-1.2l2.7-2.5Z" transform="translate(0 -0.1)"/><path d="M85.2,44.1l1.1,1.3a15,15,0,0,1,1.1-3,4.9,4.9,0,0,1,1.2-1.5,4.2,4.2,0,0,1,2.7-.8,1.8,1.8,0,0,1,1.5.5,1.4,1.4,0,0,1,.3,1,1.3,1.3,0,0,1-.5.9,1.7,1.7,0,0,1-1.2.3,1.6,1.6,0,0,0-1.1.2,3.7,3.7,0,0,0-.9,1.6,25.5,25.5,0,0,0-.9,3.5L91,51.3l3.1-2.4a2,2,0,0,1,1.3-.6,1.3,1.3,0,0,1,.9.5,1.2,1.2,0,0,1,.3,1,2,2,0,0,1-.9,1.2l-6.5,5.1a2,2,0,0,1-1.3.6,1.3,1.3,0,0,1-.9-.5,1.2,1.2,0,0,1-.3-1,2.1,2.1,0,0,1,.9-1.2l1.3-1-4.1-5.2-.8.6a2.1,2.1,0,0,1-1.3.6,1.4,1.4,0,0,1-1.2-1.5,2.1,2.1,0,0,1,.9-1.2L85.3,44Z" transform="translate(0 -0.1)"/><path d="M97.4,29.1l3.2,5.2a8.4,8.4,0,0,1,1.2-1.9,6.9,6.9,0,0,1,1.6-1.4,6.6,6.6,0,0,1,5.1-.9,6.5,6.5,0,0,1,4.2,3,5.9,5.9,0,0,1,.8,4.8,6.9,6.9,0,0,1-3.3,4.1,7.9,7.9,0,0,1-1.9.9l-2.1.3.3.6-2.7,1.7a2.1,2.1,0,0,1-1.4.4,1.3,1.3,0,0,1-.9-.6,1.2,1.2,0,0,1-.2-1.1,2,2,0,0,1,1-1.1l.4-.2-6.3-10-.4.2a2.1,2.1,0,0,1-1.4.4,1.4,1.4,0,0,1-1.1-1.7,2.1,2.1,0,0,1,1-1.1L97.2,29Zm13.1,5.5a3.8,3.8,0,0,0-2.5-1.8,4,4,0,0,0-3.1.5,3.9,3.9,0,0,0-1.8,2.5,3.8,3.8,0,0,0,.5,3,3.2,3.2,0,0,0,2.2,1.5,5.2,5.2,0,0,0,5.1-3.2,3.1,3.1,0,0,0-.4-2.6Z" transform="translate(0 -0.1)"/><path d="M135.3,23.2,128.9,26a4.1,4.1,0,0,0,1.6,1.3,1.7,1.7,0,0,0,1.3,0l1.2-.9a9.3,9.3,0,0,1,1.7-1.4,1.2,1.2,0,0,1,1,0,1.4,1.4,0,0,1,.8.8,1.2,1.2,0,0,1,0,1,5.9,5.9,0,0,1-1.6,1.6,9.7,9.7,0,0,1-2.1,1.5,4.5,4.5,0,0,1-2.7.2,1.2,1.2,0,0,1-.7.9,1.3,1.3,0,0,1-1.1,0,6.1,6.1,0,0,1-1,1.2l-1.2.8a5.1,5.1,0,0,1-2.5.4,4.6,4.6,0,0,1-2.4-.9,4.5,4.5,0,0,1-1.5-1.8,2.4,2.4,0,0,1-.1-1.6,5.3,5.3,0,0,1,1.6-2.4,8.4,8.4,0,0,1,2.3-1.6l1.6-.5-.2-.5a1.3,1.3,0,0,0-1.7-.8h-.1l-1.7,1.2-.9.7a1.3,1.3,0,0,1-1,0,1.4,1.4,0,0,1-.7-.7,1.3,1.3,0,0,1,0-1.1,4.7,4.7,0,0,1,1.4-1.4l1.9-1.2a3.8,3.8,0,0,1,1.7-.3,4.8,4.8,0,0,1,1.8.5,4.2,4.2,0,0,1,2.2-2.7,3.4,3.4,0,0,1,1.6-.3,5.5,5.5,0,0,1,2.4.7,8.5,8.5,0,0,1,2,1.7,6.9,6.9,0,0,1,1.1,1.7l.6,1.3Zm-3.8-1.3a3.8,3.8,0,0,0-1.5-1.2,1.7,1.7,0,0,0-1.2-.1,1.7,1.7,0,0,0-.7,1,3.8,3.8,0,0,0-.1,2l3.6-1.6Zm-5.3,5-1.6.4a5.8,5.8,0,0,0-1.9,1.3,1.1,1.1,0,0,0-.4,1.1,1.5,1.5,0,0,0,1,.7,2.1,2.1,0,0,0,1.5-.1,2.6,2.6,0,0,0,.9-.8,7,7,0,0,0,.9-1.4l-.6-1.3Z" transform="translate(0 -0.1)"/><path d="M150.2,4.4l.9,2.8-3.1,1-.9-2.8Zm1.4,7.9L146.3,14a2.1,2.1,0,0,1-1.5.1,1.4,1.4,0,0,1-.6-1.9,2.1,2.1,0,0,1,1.2-.8l7.9-2.6,3.9,12.1a5.1,5.1,0,0,1,.2,2.6,5.2,5.2,0,0,1-1.2,2.3,5.3,5.3,0,0,1-2.5,1.6l-2.9,1a2.1,2.1,0,0,1-1.5.1,1.4,1.4,0,0,1-.6-1.9h0a2,2,0,0,1,1.2-.8l2.9-.9a2.7,2.7,0,0,0,1.6-1.3,2.3,2.3,0,0,0,.1-1.9l-3.1-9.5Z" transform="translate(0 -0.1)"/><path d="M177.8,15.5v-.6a8.7,8.7,0,0,1-2.1,1.2l-2.2.7a5.3,5.3,0,0,1-3.7-.5A3.3,3.3,0,0,1,168,14a4.2,4.2,0,0,1,1.2-3.5,7.3,7.3,0,0,1,4.5-2.3l2.9-.2V7.4a1.2,1.2,0,0,0-.7-.9,3.6,3.6,0,0,0-2.1,0,13.4,13.4,0,0,0-3,1l-1.1.4a1.3,1.3,0,0,1-1-.2,1.4,1.4,0,0,1-.6-.9,1.3,1.3,0,0,1,0-.6l.3-.5.9-.5,2-.8,1.9-.5a6.3,6.3,0,0,1,4.1.4A3.6,3.6,0,0,1,179.2,7l1,5.5h.5a2.1,2.1,0,0,1,1.4.1,1.3,1.3,0,0,1,.6.9,1.2,1.2,0,0,1-.2,1,2,2,0,0,1-1.3.6l-3.2.6Zm-.9-4.8-3,.2a5,5,0,0,0-2.7,1.3,1.4,1.4,0,0,0-.6,1.2.7.7,0,0,0,.5.5,3.2,3.2,0,0,0,1.9.1,7.7,7.7,0,0,0,2.1-.8,8.4,8.4,0,0,0,2-1.4l-.2-1.2Z" transform="translate(0 -0.1)"/><path d="M198.9.7V2.4A14.9,14.9,0,0,1,201.5.6a4.9,4.9,0,0,1,1.8-.5,4.1,4.1,0,0,1,2.6.8,1.8,1.8,0,0,1,1,1.3,1.4,1.4,0,0,1-.3,1,1.3,1.3,0,0,1-.9.5,1.7,1.7,0,0,1-1.1-.4,1.6,1.6,0,0,0-1-.4,3.8,3.8,0,0,0-1.7.8,27.4,27.4,0,0,0-2.7,2.4l.3,4.1,3.9-.3a2.1,2.1,0,0,1,1.4.3,1.3,1.3,0,0,1,.5,1,1.2,1.2,0,0,1-.4,1,2.1,2.1,0,0,1-1.4.5l-8.2.6a2.1,2.1,0,0,1-1.4-.3,1.4,1.4,0,0,1-.1-2h0a2.1,2.1,0,0,1,1.4-.5h1.6l-.5-6.6h-1a2.1,2.1,0,0,1-1.4-.3,1.3,1.3,0,0,1-.5-1,1.3,1.3,0,0,1,.4-1,2.1,2.1,0,0,1,1.4-.5l3.7-.3Z" transform="translate(0 -0.1)"/><path d="M202.1,142.1v64.6l67.4-64.6H253V115.3h75.5v26.8H308.3l-62.1,59.5c20.5,26.4,39.5,55.3,59.9,88h30.4v26.8l-46.5-.2c-22.8-44.1-54.1-84.2-63.4-95.8l-24.5,23.5v45.7H230v26.8H147.5V289.6h27.9V142.1H147.5V115.3H230v26.8Z" transform="translate(0 -0.1)"/><polygon points="444.5 319.4 378.4 145 352.8 145 352.8 112.2 438.8 112.2 438.8 145 413.5 145 462.4 274 511.2 145 481.3 145 481.3 112.2 569.9 112.2 569.9 145 546.3 145 480.3 319.4 444.5 319.4"/><path d="M566.9,115.3v26.8H544.3L478.2,316.5H446.6l-66-174.4H355.8V115.3h80v26.8H409.2l53.2,140.5,53.2-140.5H484.4V115.3H567m6-6H478.4v38.8h28.5L462.4,265.6,417.9,148.1h23.9V109.3h-92v38.8h26.6L441,318.6l1.5,3.9h39.9l1.5-3.9,64.6-170.5H573Z" transform="translate(0 -0.1)" fill="#fff"/></svg>