<svg id="Layer_1" data-name="Layer 1" xmlns="http://www.w3.org/2000/svg" viewBox="0 0 239.17 337.18"><defs><style>.cls-1{fill:#fff;}</style></defs><title>Artboard 3</title><path d="M186.05,2.29H53.11l-.58.22L3,21.6.9,22.43v266l2.11.84,115.33,46.16,1.24.5,1.25-.5,115.33-46.16,2.11-.84v-266l-2.14-.83L186.64,2.51l-.58-.22Z"/><polygon class="cls-1" points="229.12 282.04 119.58 324.96 10.05 282.04 10.05 29.35 57.05 12.14 182.12 12.14 229.12 29.35 229.12 282.04"/><path class="cls-1" d="M185.93,4.39l49.86,19.24V287L119.58,333.54,3.38,287V23.63L53.24,4.39H185.93M186.56,1h-134L52,1.24,2.16,20.48,0,21.31v268l2.12.85,116.21,46.51,1.25.5,1.25-.5L237,290.16l2.12-.85v-268L237,20.48,187.15,1.24,186.56,1Z"/><polygon points="182.12 24.71 182.12 67.33 57.05 116.82 57.05 89.28 57.05 53.35 57.05 24.71 21.71 38.86 21.71 53.35 21.71 89.28 21.71 130.8 21.71 167.93 119.58 129.2 217.46 167.93 217.46 130.8 166.5 110.64 217.46 90.48 217.46 89.28 217.46 53.35 217.46 38.86 182.12 24.71"/><polygon points="182.12 167.93 182.12 249.69 119.28 274.25 57.05 249.66 57.05 167.93 21.71 182.08 21.71 235.7 21.71 260.49 21.71 272.13 114.69 309.33 119.44 311.29 119.51 311.26 119.58 311.29 166.52 292.93 166.45 292.9 217.46 272.94 217.46 255.91 217.46 235.87 217.46 182.08 182.12 167.93"/><polygon points="89.06 90.21 68.71 98.26 68.71 24.71 89.06 24.71 89.06 90.21"/><polygon points="89.06 246.87 68.71 238.92 68.71 163.63 89.06 155.64 89.06 246.87"/><polygon points="170.46 238.92 150.11 246.87 150.11 155.64 170.46 163.63 170.46 238.92"/><polygon points="129.76 254.83 119.58 258.81 109.41 254.83 109.41 147.53 119.58 143.5 129.76 147.53 129.76 254.83"/><polygon points="129.76 74.11 109.41 82.16 109.41 24.71 129.76 24.71 129.76 74.11"/><polygon points="170.46 58 150.11 66.05 150.11 24.71 170.46 24.71 170.46 58"/></svg>