<svg xmlns="http://www.w3.org/2000/svg" viewBox="0 0 436.2 537.4"><title>kari</title><path d="M19.1,133.8C97.4,118.2,159.9,75.7,218.6,24.9c28.6,25.2,59.1,48.4,92.5,67.7s68.6,34.1,107.7,41.1c-2.7,18.3-5,36.2-8,54.1a620.7,620.7,0,0,1-23.9,95c-20.8,61.6-49.9,118.8-94.5,167.5a327.7,327.7,0,0,1-72,59.5l-3.1,1.6c-13.2-9.8-27.3-19.2-40.2-30.1-53.7-44.9-89.3-102.1-115-165.9C41.9,265.2,29,213.1,21.9,159.6c-1.1-7.9-2-15.8-3-23.7a10.5,10.5,0,0,1,.2-2.1" transform="translate(0.1 -1.3)" fill="#053192"/><path d="M436.1,119.3c-22.6-1-44-6-64.9-13.8C328.1,89.2,290.3,64,255.1,34.7,242.4,24,230.3,12.6,217.7,1.3l-2.3,2.2C198,18.7,181.4,34.9,163,49,114.8,85.9,62.9,115.3.1,119.6c0,3.8-.4,7.4.1,10.8C4,158.9,6.8,187.6,12,215.8c10.6,58.1,29.2,113.8,56.9,166.1,28.5,53.9,65.8,100.4,116,135.8,10.7,7.5,22,14.2,32.6,21a331.9,331.9,0,0,0,78.9-59.1c31.6-31.8,56.6-68.4,76.4-108.5,37.7-76.8,57.3-158.4,63.2-243.5a76.3,76.3,0,0,0,.1-8.3m-58.3,168c-19.8,59.3-47.3,114.4-89.6,161.2a311.7,311.7,0,0,1-68.3,57.3l-2.9,1.5c-12.5-9.4-25.9-18.5-38.1-28.9-50.9-43.2-84.6-98.3-109-159.7-19.2-48.3-31.4-98.5-38.2-150-1-7.6-1.9-15.2-2.8-22.8a10.3,10.3,0,0,1,.2-2.1c74.2-15,133.5-55.9,189.1-104.8,27.1,24.3,56,46.6,87.7,65.1s65,32.8,102.1,39.6c-2.5,17.6-4.7,34.9-7.6,52.1a605,605,0,0,1-22.6,91.4" transform="translate(0.1 -1.3)" fill="#785522"/><circle cx="162" cy="66.7" r="7.3" fill="#053192"/><circle cx="92.3" cy="108.5" r="7.3" fill="#053192"/><circle cx="18" cy="132.9" r="7.3" fill="#053192"/><circle cx="25.3" cy="213.9" r="7.3" fill="#053192"/><circle cx="46.1" cy="286.1" r="7.3" fill="#053192"/><circle cx="77.1" cy="362.9" r="7.3" fill="#053192"/><circle cx="115.4" cy="428.4" r="7.3" fill="#053192"/><circle cx="165.7" cy="481.6" r="7.3" fill="#053192"/><circle cx="217.2" cy="518" r="7.2" fill="#053192"/><circle cx="273.5" cy="481.6" r="7.3" fill="#053192"/><circle cx="319.2" cy="428.4" r="7.3" fill="#053192"/><circle cx="362.9" cy="361.9" r="7.3" fill="#053192"/><circle cx="391.4" cy="286.1" r="7.3" fill="#053192"/><circle cx="411.5" cy="213.9" r="7.3" fill="#053192"/><circle cx="421.3" cy="132.9" r="7.3" fill="#053192"/><circle cx="352" cy="108.7" r="7.3" fill="#053192"/><circle cx="276.1" cy="66.7" r="7.3" fill="#053192"/><circle cx="218.2" cy="19.3" r="7.2" fill="#053192"/><path d="M217.4,246.1c-58.7.1-102.1,46.5-102.4,102-.4,58.8,48.3,103.8,102.6,102.6,54.3,1.1,102.2-44.5,102.2-102,0-54.3-43-102.7-102.4-102.6" transform="translate(0.1 -1.3)" fill="#963"/><path d="M40.9,164.7l20.8-12.9,16.7,28.1,10.9-41.1,26.8-12.5-10.8,50.4,41.5,54.6-17.7,11.6-31-40.3c-1.7,6-2.5,10.9.9,16.1,6,9.3,11.5,19,17.5,28.9L97.8,261.4" transform="translate(0.1 -1.3)" fill="#963"/><path d="M310.4,197.9l1.3,49.3-24-10.2V194.1l-5.8-2.2-7.6,42.5-24.7-6.3,18.6-106.5c5.4.7,10.4,1.3,15.4,2.1,7.9,1.3,15.8,2.3,23.5,4.2,11.7,2.9,21.7,8.8,24.4,21.5s.2,22.1-5.8,35.8a20.9,20.9,0,0,1-8.1,9.6,22,22,0,0,1-7.2,3.1" transform="translate(0.1 -1.3)" fill="#963"/><path d="M223.4,226.7l-24.8-1.8v-36H181l2.4,37.1-23,3.8c-.9-6.3-1.9-12.3-2.7-18.3q-3.9-27.6-7.7-55.2c-1.3-9.2-2.9-18.4,1.4-27.4s10.8-12.8,20.1-12.9,21.6.1,32.5-.1c12.7-.2,18.9,5.9,19.3,19.4s0,27.6,0,41.5v44" transform="translate(0.1 -1.3)" fill="#963"/><path d="M315.4,248.4l54.7-99.7,24.8,12.8L340.6,261" transform="translate(0.1 -1.3)" fill="#963"/><path d="M230.3,66.5c1.6,17.7-10.5,32-29.2,34.7V66.5" transform="translate(0.1 -1.3)" fill="#963"/><path d="M217.8,262.5c3.2,5.4,6.1,9.6,8.3,14.2,3,6.5,7.5,9.3,14.9,9.1a94.9,94.9,0,0,1,21.2,2,23.4,23.4,0,0,1,18.4,23.1,104.5,104.5,0,0,1-1.2,18.8,21.7,21.7,0,0,1-5.4,10.4,14.1,14.1,0,0,1-9.1,4.3c-33.4.3-66.9.2-100.4.2-6.5-4.8-8.6-12.1-10.6-19.2-3.5-12-.1-22.7,7.9-31.8,2.3-2.7,6.3-4.4,9.8-5.5s7.8-1,11.8-1.4,9.9-.5,14.8-1.2a15.9,15.9,0,0,0,11.7-8.3l7.9-14.7" transform="translate(0.1 -1.3)" fill="#7f2308"/><path d="M217.7,434.6c-2.1-4.2-4-7.1-5.1-10.3-3.7-10.4-11.8-13.5-21.9-13.8-5.5-.2-10.9-.4-16.3-1.1-10.3-1.3-16-8.1-19.6-17.1s-2.3-19.9,2.2-29.4c1.7-3.7,4.2-7,6.2-10.4h6.3c30.3,0,60.6.3,90.9-.2,9.5-.2,15.3,3.5,18.2,12a45.9,45.9,0,0,1,0,30.2c-3.8,11.1-13.1,14.8-23.7,15.8-4.9.5-10,0-15,.1s-10.1,2-12.7,7.7-5.9,10.4-9.5,16.5" transform="translate(0.1 -1.3)" fill="#7f2308"/><path d="M281.7,419.6l-6.5-8.5c3.3-5.5,6.7-10,8.8-14.9,4-9.3,3.6-19.2.9-28.8a98.2,98.2,0,0,0-5.9-14.8c-1.5-3.1-1.8-5.5.2-8.7a51.4,51.4,0,0,0,8.5-29.1c-.2-10.7-4.1-18.6-10.6-26.1l-2.8-3.2,7.8-9.4c24.1,22.8,34.8,50,32.4,82.5-1.6,21.4-19,54.7-32.8,61" transform="translate(0.1 -1.3)" fill="#7f2308"/><path d="M157.7,348.4c-14.9,23.9-15.7,45,2,63.3-.4,4.4-2.9,7.1-6.9,8.6-42.5-34.3-45.8-105.4-.1-143.6l7.7,9.3c-9.1,8.7-14.1,18.5-13.9,30.8s5.3,21.8,11.2,31.6" transform="translate(0.1 -1.3)" fill="#7f2308"/><path d="M214.9,445.7c-22.1-.5-40.7-6.7-57-21.2l8.5-10.2,27.6,2.3c4.5.3,8.2,2,10.4,5.9,3.3,5.7,6.3,11.7,9.3,17.6.7,1.2.7,3,1.2,5.6" transform="translate(0.1 -1.3)" fill="#7f2308"/><path d="M214.6,250.5c-.2,2.5.2,4.4-.5,5.9-3,5.9-6.2,11.7-9.5,17.5a11.9,11.9,0,0,1-9.9,5.8l-28.4,2.5-7.7-9.7c15.7-14.6,34.4-20.8,56-22" transform="translate(0.1 -1.3)" fill="#7f2308"/><path d="M221,444.9a51.1,51.1,0,0,1,2.2-6.6c2.5-5,5.2-10,7.9-14.9s6.9-6.6,12.3-6.9c8.4-.4,16.7-1.5,26-2.3l7.1,8.4c-4.9,11.6-38.7,24.6-55.5,22.3" transform="translate(0.1 -1.3)" fill="#7f2308"/><path d="M277.4,272.7l-7.6,9.3c-10-.8-19.4-1.5-28.7-2.4a13.1,13.1,0,0,1-10.3-6.9c-3-5.3-5.9-10.8-8.5-16.3-.7-1.5-.4-3.4-.6-5.9,21.2,1.4,39.8,7.2,55.7,22.2" transform="translate(0.1 -1.3)" fill="#7f2308"/><path d="M46.2,166.1l14.2-8.9,18.7,31.4h1l12.3-46.8,18.3-8.9-6.5,30.7a3.2,3.2,0,0,0-.3.9c-2.9,13-3,13.1,5.1,23.8,10.4,13.7,21,27.3,32,41.7l-11,7.8L95.6,193.1l-1,.2-2.4,21.5,18.9,31.6-12.4,9.1" transform="translate(0.1 -1.3)" fill="#7f2308"/><path d="M291.7,191.1l-12.8-4.4-7.7,42.9-17.1-4.4,17.4-99.7c12.1,2.2,23.7,3.7,35,6.4,9.6,2.2,18,6.9,21.3,17.4a35.3,35.3,0,0,1,.5,18,88.1,88.1,0,0,1-5.8,17.3c-1.7,4.6-7.9,9.4-16,8.6l1.3,48.1-16.1-7m-4.3-87.2-4.3,24.2c6,1.3,11.1,2.9,16.3,3.3,6.9-.2,12.8-3.1,13.2-12.5a11.2,11.2,0,0,0-4.1-9.7l-.9-.4c-6.5-2-13-3.4-20.3-5" transform="translate(0.1 -1.3)" fill="#7f2308"/><path d="M219.6,222.6,202,221.4c-.2-12.1-.3-23.9-.4-36.4H176.7l2.4,37.6L163.5,225c-.8-4.2-1.3-8-1.8-11.9q-3.2-23.3-6.1-46.6c-1.1-8.7-2.6-17.3-2.8-26.1-.4-12.6,8.2-20.8,20.8-20.8h30.9c10.3-.1,14.9,4.8,15,15.6.3,22.6.1,45.3,0,67.9.1,6.4.1,12.6.1,19.5M201,165.1c-.5-7.4-1-13.8-1.3-20.2s-3.4-9.7-9.8-10.1a59.4,59.4,0,0,0-6,0c-7.7.3-12,5.5-11.2,13.2.5,4.4.6,8.9,1,13.3.1,1.4.3,2.8.3,3.8" transform="translate(0.1 -1.3)" fill="#7f2308"/><path d="M339,255.9l-18.3-9.2,50.6-92.2,18.4,8.4" transform="translate(0.1 -1.3)" fill="#7f2308"/><path d="M204.8,96V70.2h21.1c1.8,10-7.7,23.9-21.1,25.8" transform="translate(0.1 -1.3)" fill="#7f2308"/><path d="M298.7,170.6l-11-2,3.1-16.8,11.8,2.3a8,8,0,0,1,6.4,9.3v.2a9.1,9.1,0,0,1-10.3,7" transform="translate(0.1 -1.3)" fill="#053192"/><path d="M196.6,161.5H177.4c-.4-5.5-1.1-10.9-.9-16.3.1-2,2-5,3.7-5.6,4.5-1.5,9.2-1.8,14.2.8a1.6,1.6,0,0,1,.8,1.3" transform="translate(0.1 -1.3)" fill="#053192"/></svg>