<svg xmlns="http://www.w3.org/2000/svg" viewBox="0 0 417.1 425.2"><title>kongarnir</title><path d="M102.3,227.6c-7-10.6-21.5-19.4-34.7-27.1-7.6-4.4-17.1-8.2-25.6-12.9a105.8,105.8,0,0,1-14.2-9.8c-9.5-7.5-20-19.4-25.4-29.8.7,6.9,3.2,13.2,8.7,19.9-7.9-5.8-16.8-12.5-22.1-21.6s-9.7-16.6-11.3-27.3c-1-6.4-.8-13.2,1.2-22-8.3,8.7-5.7,30.6-4.4,39.1A164.3,164.3,0,0,1-36.8,109c-1.5-4.6-3.1-9.4-4.2-14.1a139.8,139.8,0,0,1-3.4-19.5c-1.9-21.7-.4-46.1,7.1-69.7,6.5-20.5,17-37.6,25.2-56.4C-5.9-65,2.4-79,5.2-90.1a66,66,0,0,0,2.2-14c1,2.6,1.8,9.2,4.4,10.9-.9-4.7-1.2-9.2.2-12.7,3-7.7,8.9-12.7,18.2-16.5-3,3.1-9.1,12.1-4.7,15.1a32.3,32.3,0,0,1,12.7-11.1c9.4-4.8,20.6-6.2,31.1-6.3,15.3-.2,31,1.9,50.3-1.5,3.4-1,9.9-6.3,13.6-10.7-4.6,8.3-8.1,13-19.3,19,11.1,2,21.4,9.3,30.2,15.1,3.4,2.3,7.5,4.8,10.6,7.2,10.8,8.5,19.1,20.1,26,29.7-5.9-3.1-10.4-5.7-17-5.7,11.1,3,14.1,8.9,22,14.8,2.4,6,6.2,25,9.2,38s6.9,27.7,12,38.8c2.6,5.7,6,11.6,10.2,15.7s7.6,5.5,12.6,4.9c-10.5,4.3-12.1-1.2-16.6-.5,2.6,4.6,9.9,11.8,11.4,20.8,1.9,11.1.3,23.8-6.5,36.7a64.1,64.1,0,0,0-1.3-9.8c-1.4-7.5-2.1-13.5-5.7-16.4,4.6,9.3,2.6,21.4,2.6,32.9-12.2,16.1-23.6,26.4-36.5,38.6a162.5,162.5,0,0,0,8.2-25c-5.5,12.7-10.5,22.8-19.3,32.4a303,303,0,0,0-30.4,20.3c-7.8,5.8-15.2,11.3-20.9,19.2-4.2,5.9-5.8,10.8-5.9,15.7s2.5,14.6,13.3,18.2c-10.5-1.7-17.9-6.1-24.1-11.1s-9.5-8.2-13.7-11.7c-.9,3.4,3.9,6.3,8.8,10.9a32.2,32.2,0,0,1,9.2,16Zm0,0" transform="translate(134 137)" fill="#1b1918" fill-rule="evenodd"/><path d="M-5.6-52.7c-.3,14.4,7,16.7,9.4,20.5.2,3.2,0,6.3-1.4,8.9C-2.7-13.7-10.2-2.7-14.5,9c-2,5.3-5.8,13-6.7,20.3A184.3,184.3,0,0,0-21.7,75c1.1-12.7,2.5-25.3,3.8-35.4S-9,16.3,1,3.6C3,1.1,4.2-1.5,6-5.5l4.7-3.9C10.1-6.8,7.8-1.9,7.1.8V6.9C5,15.8,2.7,24.3-.1,31.2a98.3,98.3,0,0,0,1.2-14C-2.8,26.4-5,32.7-6.2,40c-.9,5.5-2.1,26-1.4,39,1.2-3.6,2.1-8.8,3.5-13.1S2.5,60.6,3.6,56s1-10.2,1.1-15.7c1.3,5.3,1.6,11.1,2,16.5,3.9-4.2,6.8-11.6,7-20.1,1.5,5.2,4,8.8,5.5,14,.1,3.4-1.5,8.8-2.4,11.1s-4.6,6.2-6.8,7.4c6.4.8,6.5-2.6,9.4-2.6s1.1,1.7,0,2.3C7.7,75.5,4.5,89.4,5,101.7c.7-5.9,2.5-9.6,5.4-15.9.6,13.7-1,15.4,1.4,28,2.1,10.6,9.8,26.2,32.4,52.5-8.9-12.7-15.5-24.7-20.1-36.3-3.5-9-5.3-17.6-4.1-25.8.8-5.2,4-8.8,8-11.4,2.1-1.3,3.9-1.7,6-4.1s4.8-6.5,6.3-13.5c2.3,13.1-4.5,17.6-7.5,26.8s-2.1,21.3.3,28.5c3.5,10.4,9.5,15.9,15.7,22.2S61.7,166,68.5,184a57.4,57.4,0,0,0-5.7-30.3c-6.9-14.4-17.7-26.3-19.6-38.8,3.4,4.3,6.4,6.9,10.5,8.8-3.4-4.1-9.8-10.8-9.3-19.1a19.2,19.2,0,0,1,4-9.7l5.5-.5a26.3,26.3,0,0,0,7.3,5.7,34.6,34.6,0,0,1,5.1,3.4c1.5,1.7,3.7,5.8,3.6,9,1.9-1.3,3.2-3.1,4-6.3a42.2,42.2,0,0,1,.8-5.9,33.3,33.3,0,0,0,2.5,4.9c1.2,1.5,3.3,3.4,4.7,4.9s1.3-.6,1-.8-1.8-1.8-1-2.4a45.4,45.4,0,0,0,6.9-7.1c1.5-2,2-4.2,2.8-6.4s1.3-4.6,2-6.5,1.5-1.3,2.4.3a9,9,0,0,1,.4,5.8c-1,4.5-5.4,7.9-9.8,10.7l-1,2.5c.7-.4,2.1-1.5,3.2-1.5-1.8,2.4-2.4,4.9-4.1,6.9a22.3,22.3,0,0,1-5.9,4.8A29.6,29.6,0,0,1,63.3,120a67.2,67.2,0,0,0,18.5,1.2,28.9,28.9,0,0,0-9.7,8.1c4.4-3.1,9.1-5.1,13.2-5.5-8.4,5.6-13.2,17.1-12.7,27.7a26.8,26.8,0,0,0,4.7,14,77.1,77.1,0,0,0,5.8,6.4,73.8,73.8,0,0,1-.9-25.4c.2,9.1.6,15.7,2.6,23.6a89.3,89.3,0,0,1,6.9-24.4c.9,1.7-.1,5.5-1.2,11.5s-1.7,11.2-1.6,14.8c.4,9.6,2,17.8,6.6,25.6,1.7,2.8-2.3,3-3,2.6-4.3-2.8-7.1-5.8-9.8-8.4-3.8-6.6-6.7-11.4-7.7-21.9a27.4,27.4,0,0,0,.3,23.2c.9,2,.1,3.9-2.2,2.7-16.7-9-36.4-17.1-50.4-29.3C11.2,156.4,1,141.7-2.6,127.6c-.7-4.7-.7-11.1-1.1-16.6a81.6,81.6,0,0,0,.8,32c.2,1.2-1.3,1.6-2.6-.1-4.8-6.2-10.7-19.8-11-30.3-.4-13.7,6.7-25,1.5-41.5.4,5.6.2,10.8-.5,13.5-8.3,4.9-11.1,13.4-14.2,17.9-1.4,2.1-2.7,3-3.5,1.2-6.4-15-8.6-40.5-9-48.6-.6-11.5,3.8-31,9.6-48,6.3-18.5,17-38.2,26.9-60Zm0,0" transform="translate(134 137)" fill="#fff" fill-rule="evenodd"/><path d="M32.7-61.1a39.3,39.3,0,0,0-10.3,9.7c-1.1-.2-2.4-.1-3.9-.1s-2.5-.9-3.8-1.2c1.8-1.2,3.7,0,5-.4a.6.6,0,0,0,.1-1.1c-5.6-1.3-8.1-6.1-9.2-12.2,1.6,1.9,2.6,3.8,3.8,5.2,2.7,1.5,6,1.4,8.9.3-2.7-.4-4.7-1.3-6-3.1s-.3-7.9-1.2-12.1A11.4,11.4,0,0,0,11-83.5c3.2,10-2.1,13.2-5.3,19.3-1.8,3.3-2.4,8.7-1.2,12.3s2.2,4,1.2,6.7c-.9-2-2-1.5-2.4-4.3,0,3.5.7,6.1,2.3,7.9a15.7,15.7,0,0,0,4.4,3c-1.3.7-2.2,0-3.4-.3s2.9,1.8,2.2,2.5-.2,1.2-.3,1.7-.1,1.7-.2,3c-2.3-1.3-2.1-3.8-3.3-5S.3-41.2-.5-44.2A18.3,18.3,0,0,1-.2-55.1c1.3-4.1,4-8.1,5.2-12.7A50.6,50.6,0,0,0,7-84.4a7,7,0,0,1,1-3.3c.9-1.8,2.8-2.2,4.6-1.4s8.4,3.9,10.2,7.5,2,10.7,3.9,15.1c1.1,2.6,3.9,3.9,6,5.3Zm0,0" transform="translate(134 137)" fill="#fff" fill-rule="evenodd"/><path d="M25.3-104.7c-4,5.3-5.7,8.2-6.1,11.6a18.7,18.7,0,0,0,0,4.2,3.6,3.6,0,0,1-2.7-1.2c-1.5-9.4-.8-16.1,3.4-21.7.9,3.5,2.2,4.6,5.4,7Zm0,0" transform="translate(134 137)" fill="#fff" fill-rule="evenodd"/><path d="M2.9-74A51.6,51.6,0,0,1-.8-63.4c.7-4.7,2-8.2,3.6-10.6Zm0,0" transform="translate(134 137)" fill="#fff" fill-rule="evenodd"/><path d="M123.1-102.9c-9.5.5-11.7,2.5-15.1,6.6s-4.8,9.5-6.3,14.1a2.6,2.6,0,0,1-4,1.4c-2.9-1.8-3-8.8-2.5-10.5a19.5,19.5,0,0,1,2-5.2,13,13,0,0,1,6.6-5.1c5.7-2.3,11.9-2.4,19.3-2.6,1.4,0,1.4,1.2,0,1.3Zm0,0" transform="translate(134 137)" fill="#fff" fill-rule="evenodd"/><path d="M133.6-91.1c-6.3,1.1-9.3,2.7-12,5.6a5.2,5.2,0,0,1-6-.4c-1.3-4.5,2.7-6.8,4.9-7.6s7.5-1.2,13.1,2.5Zm0,0" transform="translate(134 137)" fill="#fff" fill-rule="evenodd"/><path d="M32.5-109c3.2-4.2,9.6-7.5,17.3-9.6,3.3.1,7.4-.3,11.5-.6,9.3-.7,19.7-2.6,34.5-.4a6.3,6.3,0,0,1,1.9.6c1,.6,2.7,1.6.3,3.1-6.8,4.5-11.5,11-15.1,16.1a56.9,56.9,0,0,1,5.3-13.1C76.7-101.7,74.4-88.5,77.9-72.4c-5.8-3-9.2-9.8-8.9-19.9-1,3.4-2.4,6.4-3.3,8.8a44.2,44.2,0,0,0,3.9,23C67.4-61.7,66-64,64.5-67c.6,4.3,2.2,9.1,5.5,10.2-2.9,1.3-6.2-.1-9.6-4.2,2.2,4.9,4.5,6.2,8.1,8.4-8,.6-13.1-3.4-14.9-5.6s-1.4-2.8-2.3-5.6c-.7,6.7,3.5,13,7.8,16.6S70.4-40.9,75.9-42c3.2-.6,5.2-2.7,7.4-6,8.2-.3,15,.9,19.8,3.8s7.7,7.9,9.3,12.6a48.6,48.6,0,0,1,7.2,5.9c2.3,7.6-2.1,9.5-6.6,9.2S98.6-14.7,95.3,19.8c0,3.4,1.1,7.4-.4,10.1-6.7.9-8.2,3.6-12.4,6a16.1,16.1,0,0,1-7.3,2.1c-4.9.2-9.6-2.8-15.7-7.6l-6.4,1.1c-.9-2.5-.1-6.5,2.6-12.2-4,4-8.2,10-1.9,19.9,2,2.2,6.9,7.4,10,6.5-.5-1.1-3-2.3-4.3-3.3s-.5-1.8.8-2,3.3-.4,6,.8c2.7,2.9,2.8,6.6.7,11.3.3,1.8,4.3,5,2,5-4.2.1-7.8.2-12-.1-1.2-.1-1.7,2.9,2.4,4s6.9.1,10.8,1.8c2.1.9,1.8,3.3-.2,3.2-4.1,0-8.1.2-11.5.2s-1.2,3.3,1.9,4.8,5.8.4,9.2.5c1.2,0,1.1,1.5-.1,1.8-5.3,1.4-16.3,4.3-20.2,1.1s-9.1-9.5-8.1-21c1.6-5.1,7.7-19.4,5.2-24.2-1,5.9-3.3,14-6.7,18.3S30,46.4,27.4,43.5C18.9,33.9,16.4,22.3,16,8.3s1.3-31.7,9.9-49.5c-5.7,17.4-8.9,35-6.1,50.6.5-7.1.1-16.3,4.4-20.5a3.7,3.7,0,0,1,4.9.1C31.8-8.4,33.4-2.3,38.4,0a8.9,8.9,0,0,0,8-.3c4.4,4.5,4.1,9,5.6,13.2A27.7,27.7,0,0,0,53.2.9c-1.3-10.7-12.1-19-20-17.4l-3.4-2.3a8.9,8.9,0,0,1,1.8-10c-.6-4.6-.1-7.7,1.3-10s5.6-5.1,11-6.5c4.1,5.5,6.8,6.4,11,5.7a78.9,78.9,0,0,1-7.4-8.2c5.2,2.6,9.8,6.5,18.1,6.5C59.3-43.9,51.3-50.7,47-60.4a33.4,33.4,0,0,1-2.2-22.1,31.6,31.6,0,0,0,3.4,10.1c2.1,2.1,6.1,4.5,9.8,4.3s-.6-4.8-2.9-7.6a20.6,20.6,0,0,1,4.8,1c.7-2.4-3-3.3-4.5-4.3a31.4,31.4,0,0,1-1.3-8.3,16.8,16.8,0,0,0-1.5,13.2c-2.2-1.9-4.1-4.8-4.4-7.7a88.3,88.3,0,0,1,.1-10,35.2,35.2,0,0,1,5-7.9C43.6-95.8,40-88.3,39.5-78.6c-2.4-2.4-4-4.6-3.6-8.5C37-97.4,53-108.7,77.6-115a29.6,29.6,0,0,0-4-.9c-18.7-.7-30.5,1.6-41.2,6.8Zm0,0" transform="translate(134 137)" fill="#fff" fill-rule="evenodd"/><path d="M52.6,82.5c-.3,2.8,1.1,5.7,3.9,8.6s9.3,6.3,13.5,10a51.3,51.3,0,0,0-1.5-14.7c8.4,1.7,6.1,8,8.2,12.6,1.4-4.1,3.8-4.4,4.1-11.2q2.8,1.8,1.8,7.3,4.8-5.6-.7-11.2L85.8,86a5.2,5.2,0,0,0-.8-2.6c-.6-1.2-2.3-1.8-3.7-2.4s-2.4-1.2-4.3-1.1c-6.1.3-13.7,3.4-24.4,2.6Zm0,0" transform="translate(134 137)" fill="#fff" fill-rule="evenodd"/><path d="M93.5,41.8,93,43.1a11.6,11.6,0,0,1-3,2.5c-.7.4-.9.1-1.8.1.7-.7,2.2-1.6,3.4-2.8-.9-2.3-3.8-2.9-5.3-2.8a3.9,3.9,0,0,0-2.1.6,11.2,11.2,0,0,0-3.6,5.4c-.1,1.6-.4,4.3.2,5.8s.4.4.7.8a50.7,50.7,0,0,0-3.1,6.2c.3,5.8.6,10.7.9,16.5A26.8,26.8,0,0,0,91,79c-4-1.5-5.3-1.8-7.4-3.3s-.8-2.9.6-3.1a2.9,2.9,0,0,1,2.5.7l4.8.2c.9-.5,1.7-1,1.9-1.8a3.1,3.1,0,0,0-1-2.7c-2.7-1.3-4.6-1.9-6.1-2.6l-2.5-.2c-.6-1.2-.5-3.5.1-3.8,2.6-1.1,6-.6,9.3-1.1.7-1.4.5-3.3.2-4.8a28.2,28.2,0,0,0-6.9-2,1.8,1.8,0,0,1-1.1-1l.9-1.6a13,13,0,0,0,6.6-.8c1.5-1.6,2.8-6.9.6-9.4Zm0,0" transform="translate(134 137)" fill="#fff" fill-rule="evenodd"/><path d="M104.3,29.3c2,7.2,5.5,16.9,7,25a32.4,32.4,0,0,1,.3,10.9c-.8,5.5-2.9,8.7-9.3,12.3,5.4.3,13.8-4.3,13.6-17.1a20.2,20.2,0,0,0-.6-4.6c-.5-1.3-1.2-2.9-1.7-4.2-2.8-6.8-5.9-13.2-9.3-22.3Zm0,0" transform="translate(134 137)" fill="#fff" fill-rule="evenodd"/><path d="M96.9,84.6c3.5,4.5,3.2,10.1.9,17.2a37.1,37.1,0,0,0,3-7c1.1-3.3,1.8-6.8.3-9-3-4.3-5.2-2.6-4.2-1.3Zm0,0" transform="translate(134 137)" fill="#fff" fill-rule="evenodd"/><path d="M110.8-65.3a7.9,7.9,0,0,0,7.8,2.8c6.5-2.2,4.2-16.8,9-21a24.9,24.9,0,0,1,9.9-5.2c1.9,2.5,2.4,7.2,3.7,11.8a117.9,117.9,0,0,0,4.8,12.9c1.9,4.6,3.1,7.6,3.8,10.6a20.3,20.3,0,0,1-.3,10c-2.3,6.9-10.1,11.8-10.1,17.9,1.6-5.3,11-10.2,13.2-18.8s-2.4-16.4-5.7-24.9c-2.4-6.2-4-12.7-5.7-18.4-.5-1.7-1.6-3.7-5.1-3a20,20,0,0,0-9.3,4.1c-1.9,1.5-2.7,3.9-4,5.8-4,6-10.5,11.8-22.3,13.2,12.3,0,17.9-1,22.1-9.9-.8,2.7-1.2,10.3-3.6,12.3a16.2,16.2,0,0,1-4.8.8c-1.4,0-2.1-.6-3.5-1.1Zm0,0" transform="translate(134 137)" fill="#fff" fill-rule="evenodd"/><path d="M135.6-79.3c-.2,2,.7,5.3,2.3,8.6,3,6.2,7.6,13.6,5.4,21-.9,3-2.7,5.3-6.9,6.2a4.2,4.2,0,0,0,6.8.2c0,3.5-3.4,4.7-5.7,4.7a8.6,8.6,0,0,1-5.3-2.2c-2.7-2.7-5.2-7.5-9.9-11.9,1.3,0,4.8,1.9,6.9,1.6a6.5,6.5,0,0,0,4.7-3.1c-3.7,1.8-7.2,1.6-8.1-.5,6.2.5,12.2-.9,10.6-13.3-1.1,5.8-4.2,9.8-10.5,7.2,6.3-.5,5.4-6.8,5.5-12.2.1-3.3.9-6.3,2.8-7.4s1.5.2,1.4,1.1Zm0,0" transform="translate(134 137)" fill="#fff" fill-rule="evenodd"/><path d="M116.5-60.4c.5.2.5,1.2-.3,1.2a3.2,3.2,0,0,1-3-3.4,9,9,0,0,0,3.3,2.2Zm0,0" transform="translate(134 137)" fill="#fff" fill-rule="evenodd"/><path d="M159.3-61.6c.4-1,1.9-.6,3.5-.1a11.4,11.4,0,0,0,2.9.5c5.7,5.4,6.5,16.6,5.1,24.9-.3-7.8-1.4-15-4.5-19a8.8,8.8,0,0,1-2.3-1.1,13,13,0,0,1-2.2-2.7,18.3,18.3,0,0,0-2.6-2.5Zm0,0" transform="translate(134 137)" fill="#fff" fill-rule="evenodd"/><path d="M118.8-9.7c3.2,5.5,7.3,7.8,7.2,15.5,0,4.2-2.4,10.5-4.3,12.4,1.6-4.6,2-7,1.7-11-.5,2.5-.6,4.6-1.1,6.3a42.1,42.1,0,0,1-9,7.8c1.9-2.7,5.2-5.5,6.4-7.8-2,1.7-5.9,4.2-8,5.9s-3.7,3.2-5.4,4.6c-1.1-1.3-1.3-3.2-3-4.2-.1-1.9-.8-3.6-1-5.6s-.2-5.8-.5-8.5A8.3,8.3,0,0,1,105.3.7c.7.2.8.4,1.5.5,4.4.2,8.6-3.2,10.1-7.8a8.2,8.2,0,0,1,.5-2.7c.4-1.2,1.1-.7,1.3-.3Zm0,0" transform="translate(134 137)" fill="#fff" fill-rule="evenodd"/><path d="M113.8,52.3C123,48.8,128.6,41.8,132,33a79.3,79.3,0,0,0,4.4-19.7c1.5-13.9.1-29.8-.1-46,1.1,12.4,3.9,29,4.5,41.5a50.1,50.1,0,0,1-.6,12.5c-2.6,11.8-7.5,29.7-26.5,31Zm0,0" transform="translate(134 137)" fill="#fff" fill-rule="evenodd"/><path d="M165-39c-3.1,5.3-4.6,12.8-4.9,22.4,3.9,6.1,13.3,13.7,17,21.8,2.9,6.3,2.2,9.2,2.8,13.3a23.6,23.6,0,0,0,1.5,4.4c-4.5-5.6-9.5-13.3-14.6-19.4a289.1,289.1,0,0,0,14.7,26.1c1.5,2.4,2.5,2.7,4.3,6.1s3.1,11.9,6.4,17.7c-.2-9.5,2.1-19.5,2.2-27.1,0-14-9.5-25-17.8-36.9-5.3-7.6-7.9-20-11.5-28.5Zm0,0" transform="translate(134 137)" fill="#fff" fill-rule="evenodd"/><path d="M161.1,23.7c-4.2,6.1-8.3,20-7.3,30.7s6.5,21.3,10.3,37.3c1.4,5.9,2.2,10.5,1.9,16.2s-2.6,9.6-4.4,13.9-2.5,6.8-6.9,13.3c3.3-3.1,6.6-5.8,9.9-8.9s9.9-4.2,14.7-14.7c-4.1,1.5-6.3,3.1-11.1,6.1,5.4-6.2,11.5-12.6,14.1-19s-1.3-17-4.7-26c.3,6,.1,8.6-.4,11.9s-3.1,8-6.4,15.4c2.5-8.3,1-23.2-2.2-37.4-1.1-5.1-2.5-9.1-3.7-14.9s-2.7-16.9-3.6-24Zm0,0" transform="translate(134 137)" fill="#fff" fill-rule="evenodd"/><path d="M104.8,192.1c-1.9-5.3-2.6-9.1-1.9-12.7a15,15,0,0,1,2-4.9,83.9,83.9,0,0,1,10.9-16.9c-3.1-.2-6.9,1.4-9.7,2.3,1.3-2.5,10.9-8.3,20.4-16.2,12.8-14.7,20.4-39,12.4-57.7a102.7,102.7,0,0,1-16.1,44.3c-5.7,8.6-11.2,14.3-15.5,19.5s-6.4,9-7.9,13.8a26.8,26.8,0,0,0-.9,9.5c.6,7,3,15,6.2,18.8Zm0,0" transform="translate(134 137)" fill="#fff" fill-rule="evenodd"/><path d="M-75.8,196.1a205.2,205.2,0,0,0-1.3,51.1c36.9,24.4,105.1,41,153.6,40.9,20.4,0,45-3,65.9-7.7,38.5-8.6,74.4-24.6,91.5-38.7,3.9-9.1,1.4-32.7-.6-50.8C200.5,216.4,135,229.6,88,231.5c-56.2,2.2-127-10.9-163.9-35.3Zm0,0" transform="translate(134 137)" fill="#1b1918" fill-rule="evenodd"/><path d="M-73.7,187.4c14.3,13.2,31.7,18.4,49.7,21.5l3.2-16.5c-20.1,2.7-39.5-.1-52.2-5.9-1.3-.6-1.7,0-.7.9Zm0,0" transform="translate(134 137)" fill="#1b1918" fill-rule="evenodd"/><path d="M-41.4,172.1c-15.8-2.1-31.2-4.4-48.9-6.8-12.4-1.7-28.4-4-39-8.2,7.6,8.2,16.7,15.1,25.4,22.7,1.3,1.2,1.5,4.7-3.5,4.5s-18-1.6-26.6-4.9c17.8,13.8,36.1,25.3,50.5,24.3,1.4-7.1,3.2-14.4,4.6-21.5,16.4.9,35.1,8,48.7,5.3,9-1.8,11.7-4.4,11.9-6.8s-2.5-3.9-5.7-5.1c-5.4-2-13.6-2.9-17.4-3.4Zm0,0" transform="translate(134 137)" fill="#1b1918" fill-rule="evenodd"/><path d="M230.9,183.1c-13.3,13.1-28.8,18.2-44.7,21.6l-2.9-15.4a84.4,84.4,0,0,0,47-7.2c1.2-.6,1.6,0,.6.9Zm0,0" transform="translate(134 137)" fill="#1b1918" fill-rule="evenodd"/><path d="M200.4,169.2c13.6-2.1,25.5-4.5,41.5-6.9,9.8-1.5,28-4.9,37.2-9.2-6.6,7.8-15.1,15.4-22.1,21.3-1.2,1-1.3,4.7,3,4.5s15.6-1.6,23-4.9c-14.6,13.5-30.9,23.7-42.9,24.2-1.2-7.1-3-13.4-4.2-20.5-12.4.8-28,6.7-39.5,6.4-3.8-.1-15.4-1.6-15.6-6.1-.1-2.1,2.1-3.9,4.9-5.1,4.6-2,11.5-3.1,14.7-3.6Zm0,0" transform="translate(134 137)" fill="#1b1918" fill-rule="evenodd"/><path d="M82.9,268.1l5-2.6-.2-3.2-6.2.3H75.2c-.6.7-1.1.9-1.7,1.6,3.1,1,5,2.1,9.3,3.8Zm-5.3-8.5h5l5-.2v-8.8l-1.3-1.4h-.3l-4.1,5.2-4.1,5.2ZM74.7,261l3.2-4.1,2.9-3.7c-2.1-1.6-4.4-.1-5.4,1.6-.8-3.4,2.4-5.3,4.9-5.3h1.4l1.7.3,1.2-1.5a16.4,16.4,0,0,0-5.2-1c-4.7-.1-9.5,3.2-9.2,7.6s2.2,4.5,4.5,6Zm4.8,10.7c-1.9-.9-3.5-2.1-6-3.2l-1.2-.5-.9-.2a1.3,1.3,0,0,0-1,.3,1.1,1.1,0,0,0-.4.9,2,2,0,0,0,.3.9c.4.8.3,1.8-1,1.8a1.4,1.4,0,0,1-1-.4,1.3,1.3,0,0,1-.4-.9,3.4,3.4,0,0,1,.4-1.5,11.3,11.3,0,0,1,1.4-2l4.2-5a8.7,8.7,0,0,1-5.1-7.7c-.1-6.7,5.4-10.6,11.8-10.5a20.1,20.1,0,0,1,9.5,3c.8-1.8,1.9-3.2,5-3.5v.2a8.3,8.3,0,0,0-2.8,3.1,5.1,5.1,0,0,0-.5,3.1l1.4,14.2a9.7,9.7,0,0,0,.5,2.6,2.8,2.8,0,0,0,1.1,1.3l1.6-1.1.9.8-5.7,4.3a6.6,6.6,0,0,1-2.5-1.8,6.4,6.4,0,0,1-1.4-2.7Zm0,0" transform="translate(134 137)" fill="#fff" fill-rule="evenodd"/><path d="M51.8,268.7a12.8,12.8,0,0,0,5.4-.7,10.9,10.9,0,0,0,4.3-2.8l-2.1-.9-2.2-.4H54.9l-2.8.5Zm.6-8.7-.3,3.5,2.7-.4h2.4l2.5.4a9.4,9.4,0,0,1,2.1.9,5.4,5.4,0,0,0,.7-1.4,6.8,6.8,0,0,0,.3-1.6c0-.2,0-.4,0-.5a2.5,2.5,0,0,0,0-.3l-3,.7H57.4L55,261l-2.6-1Zm.4-5.2-.3,4.1,2.6,1.1,2.4.5a9.5,9.5,0,0,0,2.6-.2,13.2,13.2,0,0,0,2.7-.9,4.8,4.8,0,0,0-2-3.4,8.2,8.2,0,0,0-4.5-1.6H54.6l-1.8.3Zm-2.2,13.8,1-13.4-1.1.2-1.1.4-.2,3.2a5,5,0,0,1-.3,1.5,1.8,1.8,0,0,1-.6.8l-1.4.9-3.4,2.1a14.2,14.2,0,0,0,3.4,2.9,10.7,10.7,0,0,0,3.8,1.4Zm-1.1-14.1,8.5-4.8L50,246.4Zm-4.9-4.8a7,7,0,0,0-2.5,2.7,10.4,10.4,0,0,0-1.1,4.1,11.5,11.5,0,0,0,.3,3.8,8.1,8.1,0,0,0,1.5,3,1.2,1.2,0,0,0,.6-.6,5.5,5.5,0,0,0,.3-1.7Zm9.7-6.7a22.8,22.8,0,0,0,4.4,2.1,18.2,18.2,0,0,0,4.5.9h3.2v.2l-7.6,4.2a13.5,13.5,0,0,1,6.4,3.5,7.1,7.1,0,0,1,1.8,5.5,8.2,8.2,0,0,1-1.7,4.3,14.2,14.2,0,0,1-4.2,3.7,21.2,21.2,0,0,1-6.4,2.4,26.1,26.1,0,0,1-7.4.5,13.7,13.7,0,0,1-8.8-3.6,9.2,9.2,0,0,1-3-7.6,11.4,11.4,0,0,1,2.8-6.6,21.8,21.8,0,0,1,7.2-5.3Zm0,0" transform="translate(134 137)" fill="#fff" fill-rule="evenodd"/><path d="M15,254.1a12.5,12.5,0,0,1,8,.4,13.7,13.7,0,0,1,2.5,1.3,11,11,0,0,0,1.2-2,7.5,7.5,0,0,0,.6-2,5.4,5.4,0,0,0,0-.8,4.1,4.1,0,0,0-.1-.7,10.1,10.1,0,0,1-3,.9,9.9,9.9,0,0,1-3,0,10.5,10.5,0,0,1-2.7-.8,13.1,13.1,0,0,1-2.6-1.5c-.3,1.8-.6,3.4-.9,5.2Zm1.1-6.2a14,14,0,0,0,2.7,1.7,9,9,0,0,0,2.6.8,8.3,8.3,0,0,0,2.8-.1,9.3,9.3,0,0,0,2.8-1,7.7,7.7,0,0,0-3.1-4.3,19.7,19.7,0,0,0-6.9-2.4l-1,5.4Zm-10,15.5c3.7,1.6,5.7-1.6,6.4-4.7l3.3-16.3-2.2.5-3.1,14.5a10,10,0,0,1-1.6,4.3,3.7,3.7,0,0,1-2.8,1.7Zm-15.6-.4a7,7,0,0,1,3.6-2.5c3.1-.7,5.9.9,8.7,1.6s3.5.3,3.7-1.8a2.6,2.6,0,0,0-1-2.7,9.6,9.6,0,0,0-4.4-2L0,255.4H-.9c1.9-1.6,5.1-1.4,7.1-.5-.6-3-5-3.7-7.5-3.9,2.6-2.2,5.8-1.4,8.4.2-.2-3.4-3.4-4.6-7.2-5,2.4-2.3,6.1-1.2,8.1.8l.8-3.9c2.4-.6,4.3-1.3,6.6-2l7.9-2.4c3.6,1.4,7.1,3.6,8.6,7.1,3.2,7.3-4,13.3-9.3,16.9,3.1-.3,5,.3,8,1l1.5-1.4,1.1.5c-1.5,1.6-2.3,3.4-3.9,4.9l-3-.7-2.2-.4a10.1,10.1,0,0,0-4,.3,7.2,7.2,0,0,0-3.1,1.9l-1-.5c.4-1.2,2.1-3.4,4.7-6.6s3.2-3.7,4.1-5a11.1,11.1,0,0,0-2.4-1.4,11.1,11.1,0,0,0-7.8-.3l-1.1,4.6A8.4,8.4,0,0,1,3,266c-2.9-.8-5.2-3.2-8.1-3.6a10.3,10.3,0,0,0-4.2.7v-.2Zm0,0" transform="translate(134 137)" fill="#fff" fill-rule="evenodd"/><path d="M151.3,252.2a12.4,12.4,0,0,1,7.5-2.7,14.4,14.4,0,0,1,2.9.3,10.9,10.9,0,0,0,.3-2.3,7.5,7.5,0,0,0-.3-2.1l-.3-.7-.4-.7a9.7,9.7,0,0,1-2.4,1.9,10,10,0,0,1-2.7,1.2,10.8,10.8,0,0,1-2.9.3,13.7,13.7,0,0,1-3-.4c.5,1.8.8,3.4,1.3,5.2Zm-1.5-6.2a14.5,14.5,0,0,0,3.2.5,9.3,9.3,0,0,0,2.8-.3,8.2,8.2,0,0,0,2.6-1.2,9,9,0,0,0,2.2-2,8,8,0,0,0-4.6-2.8,19.9,19.9,0,0,0-7.4.3l1.3,5.4Zm-2.9,18.3c4.1,0,4.7-3.6,4-6.8L147.2,241l-1.8,1.3,3.1,14.7a10.1,10.1,0,0,1,.3,4.6,3.6,3.6,0,0,1-1.9,2.6Zm-14.6,5.6a6.8,6.8,0,0,1,2.3-3.7c2.6-1.8,5.8-1.4,8.7-1.8s3.4-1,2.7-3.1a2.7,2.7,0,0,0-2-2.1,9.9,9.9,0,0,0-4.9-.2l-1.2.2-.8.2c1.1-2.2,4.1-3.2,6.4-3.2-1.7-2.6-6.2-1.6-8.6-.7,1.5-3.1,4.8-3.5,7.9-3-1.6-3.1-5.1-3-8.7-1.9,1.3-3,5.1-3.4,7.8-2.4l-.9-3.9c2-1.5,3.4-2.8,5.3-4.4l6.4-5.2c3.9,0,8.1.6,10.9,3.3,5.9,5.6,1.7,13.9-1.7,19.3,2.8-1.5,4.7-1.6,7.8-2.2l.8-1.8h1.2c-.8,2.1-.8,4-1.6,6.1l-3,.5-2.2.5a10,10,0,0,0-3.6,1.8,7,7,0,0,0-2.1,2.9h-1.1c-.2-1.3.6-3.9,1.7-7.9s1.5-4.7,1.8-6.2a11.6,11.6,0,0,0-2.8-.4,11,11,0,0,0-7.3,2.7l.9,4.7c1,5.3-2.5,9.3-7.4,9.9-3,.4-6.1-1-9-.2a10.1,10.1,0,0,0-3.6,2.3Zm0,0" transform="translate(134 137)" fill="#fff" fill-rule="evenodd"/><path d="M-31.5,246.9a4.5,4.5,0,0,0,1.4-1.3,6.3,6.3,0,0,0,.8-2l2.7-10.4a9.9,9.9,0,0,0-3.8,2.6,9.4,9.4,0,0,0-2.1,4,9.5,9.5,0,0,0-.2,3.6,9.9,9.9,0,0,0,1.2,3.5Zm18.2-24.5-3.7,5.9,1.7.3,6.9-5Zm-17.6,25.6a13.8,13.8,0,0,0,2.7,2.9,9.6,9.6,0,0,0,3.1,1.6l5.1-19.5-1.8-.5-2.6,9.9a5.5,5.5,0,0,1-1.8,2.8,20.3,20.3,0,0,1-4.8,2.7Zm7.1,4.9a12,12,0,0,0,6.2-.3,13.4,13.4,0,0,0,5.5-3.4,6.2,6.2,0,0,0-1.8-2.4,7.7,7.7,0,0,0-2.8-1.4,6.1,6.1,0,0,0-2.4-.1,10.8,10.8,0,0,0-2.9.8Zm2.1-8a12,12,0,0,1,2.9-.5,8.4,8.4,0,0,1,2.5.3,8.8,8.8,0,0,1,2.8,1.3,9,9,0,0,1,2.2,2.3l.9-1.2a6.4,6.4,0,0,0,.6-1.4,6.3,6.3,0,0,0,.2-2.1,6.1,6.1,0,0,0-.5-2,8.1,8.1,0,0,1-2.8.7,9.3,9.3,0,0,1-3-.3,8.9,8.9,0,0,1-2.2-.9,12.9,12.9,0,0,1-2.2-1.6Zm1.8-6.9a9.9,9.9,0,0,0,2,2,7.6,7.6,0,0,0,2.3,1.1,7.4,7.4,0,0,0,2.8.3,5.3,5.3,0,0,0,2.3-.8,9.3,9.3,0,0,0-2.8-3.9,19.8,19.8,0,0,0-5.5-3.1Zm-13.8-4,7.9-1.9,9.3-2.5a21.2,21.2,0,0,1,9.7,6.8q3.3,4.3,2.1,8.7a9.4,9.4,0,0,1-2.5,4.3,19.3,19.3,0,0,1-5.2,3.6,31,31,0,0,1-8.5,2.9,16.9,16.9,0,0,1-7.3-.2,13.8,13.8,0,0,1-4.7-2.2,11.8,11.8,0,0,1-3.2-3.7,12.8,12.8,0,0,1-1.4-4.4,11.6,11.6,0,0,1,.3-4.5,14.9,14.9,0,0,1,1.3-3.3,24,24,0,0,1,2.3-3.4Zm0,0" transform="translate(134 137)" fill="#fff" fill-rule="evenodd"/><path d="M-60.5,237.8l.4.2.7.3a21.8,21.8,0,0,1,3.2,1.9,16.3,16.3,0,0,1,2.5,2.2l2.9-1.2a14.6,14.6,0,0,0-1.4-4.6,5.3,5.3,0,0,0-2.4-2.4h-.5a7.4,7.4,0,0,1-2.2,2.6,7.6,7.6,0,0,1-3.2,1.2Zm6-5,.5.3,3.3-.6,5.1-1.2-.8-4.3-3.4.6-2.5.3-2.3,5Zm-18.8,3.6h.3c4.4-1,8.6-2,9.2-3.8s-2.3-3.3-3.8-3.5a3.4,3.4,0,0,1,5-.4l1.1,1.2v-.3c1.5-4.7-1.6-6.1-5.1-6.1a3.8,3.8,0,0,1,2.2-1.2,4.4,4.4,0,0,1,2.6.4l1.1.7,1,1a9.4,9.4,0,0,1,3.4-3.8,12.8,12.8,0,0,1,5.5-1.7,17.2,17.2,0,0,1-3.5,0,8.9,8.9,0,0,1-2.7-.7c-1.3-.6-2-1.4-3.1-1.8a5.5,5.5,0,0,0-4.5.7l-.2-.2a6.8,6.8,0,0,1,3.6-2.9,6.2,6.2,0,0,1,4.5.3,13.9,13.9,0,0,1,2.3,1.4l2.2,1.4,1.6.5,2.3.4-.2.4a15,15,0,0,0-3.5,2.5,11.4,11.4,0,0,0-2.3,3.1l-1.8,3.8-1.8,3.8a7.2,7.2,0,0,1-1.5,2.2,4.5,4.5,0,0,1-2,1.1l-2.9.6-4.2.7.2.4,2.7.2,2.5.3a8.5,8.5,0,0,0,4.5-1.2,7,7,0,0,0,2.6-3.2l1.6-3.5,1.6-3.5a14.1,14.1,0,0,1,2.7-3.9,15.5,15.5,0,0,1,4-2.9l.9.5a17.5,17.5,0,0,0-4.1,3,13.4,13.4,0,0,0-2.6,3.7l-.2.5c3.1-.2,6-1.6,9.1-2.4l1.7,7.3a61.4,61.4,0,0,0-6.6,1.1l-1.6.3a12.4,12.4,0,0,1,2.2,3.6,39.9,39.9,0,0,1,1.9,5.7c.4,1.4.5,2,.7,2.8l1.6-.5.5.8-6.6,2.6a9.8,9.8,0,0,1-.8-2.1,33.1,33.1,0,0,1-.8-3.7l-6.9,2.6A24.9,24.9,0,0,0-68,238.7l-5.2-1.3v-1Zm0,0" transform="translate(134 137)" fill="#fff" fill-rule="evenodd"/><path d="M113.9,256.6l5.9-5.1-5.8-5.6-1.3,1.1c.2,1.7.3,3.1.5,4.7l.7,5Zm-2.2-8.7-1.8,1.6c.3,2.6.6,4.7.9,7.3s.7,5.2,1,7.8h2Zm-5.3,9.8-.5-4.8-3.7,2.7,4.2,2.1Zm-8,13.1-.2-.3a17.6,17.6,0,0,1,4-3.5,20.1,20.1,0,0,1,5-2c-.2-.8-.2-2.1-.7-2.7-1.9-2.3-5.3-4.1-8.2-5,0-.1,0-.2,0-.2a68.2,68.2,0,0,0,7.4-5.5l-.2-2.3c-.4-3.7-3.6-5-7.3-2v-.6A6.3,6.3,0,0,1,102,243a6.1,6.1,0,0,1,5.1.7c1,.7,2.2,3.1,2.5,4.6,2.4-2,4.8-4.3,7.3-6.2l4.2,4,3.1,2.9-5.6,4.9a14.3,14.3,0,0,1,4.2,2.1,13.4,13.4,0,0,1,3,3.4c.9,1.4,1.9,4.5,3.7,5.3l1.3-1.5.8.4-3.9,4.8h-.6c-2.4-.8-3-3-4.1-5a15.5,15.5,0,0,0-4-4.9,7,7,0,0,0-4.7-1.1h-.1l.9,7,2.5.7,2,.7.9-1,.8.5-4.4,5.1A16.3,16.3,0,0,0,108,268a25.9,25.9,0,0,0-9.6,2.7Zm0,0" transform="translate(134 137)" fill="#fff" fill-rule="evenodd"/><path d="M211.1,231.6l4.3-6.6-7.4-3.9-.9,1.3,2,4.6,2,4.6Zm-4.7-8.1-1.3,2,3,7.1,3.1,7.2,1-.3,1.1-.2-3.4-7.9-3.4-7.9ZM204,234.7l-1.8-4.4-2.6,3.7,4.5.7Zm-4.2,14.8-.3-.2a17.9,17.9,0,0,1,3-4.5,20.8,20.8,0,0,1,4.4-3.4c-.4-.7-.8-2-1.4-2.4-2.4-1.7-6.3-2.4-9.5-2.5,0-.1,0-.2,0-.2a62,62,0,0,0,5.8-7.2l-.9-2.3c-1.4-3.5-4.9-3.8-7.6.2l-.2-.5a6.2,6.2,0,0,1,8-5.3,8.1,8.1,0,0,1,3.6,3.4c1.6-2.6,3.4-5.8,4.8-8.3l5.9,3.3,3.8,1.9-4.2,6.3a14.7,14.7,0,0,1,4.7.9,13.4,13.4,0,0,1,3.9,2.4c1.3,1,3.1,3.7,5.1,4l.8-1.8.9.2-2.4,5.4-.5.3a5.5,5.5,0,0,1-2.5-.8,25,25,0,0,1-3.4-2.9,15.5,15.5,0,0,0-5.1-3.6c-1.3-.4-3.5-.9-4.6.8l2.7,6.5h4.8l.6-1.2.9.3-3,6.1a16.9,16.9,0,0,0-9.2,0,27,27,0,0,0-8.7,5.3Zm0,0" transform="translate(134 137)" fill="#fff" fill-rule="evenodd"/><path d="M174.5,245.1a5.1,5.1,0,0,1,1.1-3.6,7.6,7.6,0,0,1,3.8-2.3h.1a11.1,11.1,0,0,1-.4-4.7,10.9,10.9,0,0,1,1.5-4.4l-1.9,1.4a7.6,7.6,0,0,1-1.5.8c-1.8.6-3.9,0-5.2,1.5a3.8,3.8,0,0,0-.5,1.6h-.4c-.2-2.8.5-4.8,2.3-5.7s4.5-.6,6.4-1.2l1.7-.7,2-1.1.3.2a7.7,7.7,0,0,0-1.9,3.9,9.3,9.3,0,0,0,.6,4.6,34.8,34.8,0,0,0,2.5,5.1c1.2,2,2.1,3.4,2.4,4.2a3.9,3.9,0,0,1-.1,3.5,7.5,7.5,0,0,1-3.8,2.4,14.2,14.2,0,0,0,3.6,1,6.6,6.6,0,0,0,2.8-.2,3,3,0,0,0,1.9-4.1c-.5-1.4-1.8-3.2-3.5-6a44.5,44.5,0,0,1-3.4-6.6c-.9-2.4-1.1-4.7-.3-6.3s2.3-2.8,4.7-3.7v.3a4.9,4.9,0,0,0-2,1.8,3,3,0,0,0,.1,2.3,43.5,43.5,0,0,0,3.5,6.8,41,41,0,0,1,3.4,6.3,8.9,8.9,0,0,1,.1,6.9,7.8,7.8,0,0,1-5,4.2,18.9,18.9,0,0,1-5.1.7h-1.3a21.3,21.3,0,0,0-4.3.3,4.2,4.2,0,0,0-1.9,1.2,4.8,4.8,0,0,0-1,2.1h-.3a4.7,4.7,0,0,1,.3-4.1,5.7,5.7,0,0,1,2.9-2.5c1.3-.5,2.7-.5,3.8-1.2a2.7,2.7,0,0,0,1-3.4,6.8,6.8,0,0,0-2.8-3.4,3.8,3.8,0,0,0-3.4-.4,9.3,9.3,0,0,0-3.4,2.6Zm0,0" transform="translate(134 137)" fill="#fff" fill-rule="evenodd"/></svg>