<svg xmlns="http://www.w3.org/2000/svg" viewBox="0 0 422.7 466.5"><title>leiknirf</title><path d="M77.1,195.5C148,183.5,215,146.3,279.6,76.9c72.7,76.8,138.8,106.2,202.6,118.5-.4,147.2-71.3,270.9-202.6,328.4C158.8,472.2,77.1,353.1,77.1,195.5Z" transform="translate(-67.3 -65.2)" fill="#fff" fill-rule="evenodd"/><path d="M67.3,188.9c73.9-12.4,143.9-51.4,211.3-123.7C354.4,145.3,423.5,176,490,188.9c-.4,153.6-74.4,282.8-211.4,342.8C152.5,477.7,67.3,353.4,67.3,188.9Zm211.3-98c54.7,53.9,117,95.3,193.3,112.3-1.5,30.9-5.2,61.1-13.1,91a345.3,345.3,0,0,1-32.4,81.3,313.9,313.9,0,0,1-59.7,77.1,324.6,324.6,0,0,1-88.2,59.4A313.6,313.6,0,0,1,195,457a316.5,316.5,0,0,1-60.6-75.3,342,342,0,0,1-34.6-82.2c-8.8-31.7-12.8-63-14.4-95.9h0c74-15.8,138.2-57.3,193.2-112.6Z" transform="translate(-67.3 -65.2)" fill="#eb2329" fill-rule="evenodd"/><path d="M132.6,337.3c12,22.8,18.9,37.9,33,69.3,8.8,19.5,31.4,17.3,44.1,13.2a416.6,416.6,0,0,0,41.9-16.6,98.5,98.5,0,0,0,101.1-30.3c-2.6,16.2-4.7,27.9,6.8,37s30.4,8.1,40.8-6.5a42.1,42.1,0,0,0,6.1-13.5c1.7-6.5,2.9-13.1,4.7-19.7,7.1-26.7,14.7-49.3,23.3-76.6,4.5-12.8-12.9-24.1-27.6-28.8a108.2,108.2,0,0,0-37.8-4.9l.5-15.2,11.6-.7.8-17.4-10.7-3.6,1.2-10.9,34.9,12.6,2.8-23.1L350.2,171l-6.1,64a98.9,98.9,0,0,0-17.4-12.5V157.4L298.3,136l-17.9,16.1-20.7-16.8L230,161.6v60.8a98.9,98.9,0,0,0-19.2,14.1V178.8l-25.7,14.9,1.4,52c.1,5.1-.1,12.4-5.6,13.2s-8.1-5.8-8.3-11.1l-2.4-47.9-26,11.8,2.1,39.5c.5,10,4.6,20.9,9,26.2a32.5,32.5,0,0,0-4.5-.3c-16.2,0-30.4,12.4-29.7,30.4a38.6,38.6,0,0,0,1.4,8.5c2.1,7.6,6.4,14.3,10.1,21.2Zm166-125.3a99.2,99.2,0,0,0-41,0V170.7l20.7,16.1,20.7-13-.3,38ZM257.5,400.5c15-6.9,29.8-14.2,44.7-20.9l.2,5.7-14.2,17a94.9,94.9,0,0,1-30.7-1.8Zm48.7-22.7,3.4-1.5.6,8.8,11.9,7a93.8,93.8,0,0,1-28,9.4l12.4-14.8-.3-8.9Zm7.3-3.2q7.3-3.1,14.8-6c10.2-3.9,17.9-7.9,26.6-10-.2,1.9-.6,4.1-.9,6.3a95,95,0,0,1-27.8,24.9l-12.2-7.1-.6-8.1Zm46.4-113.7a112.6,112.6,0,0,0-13,2.5,213.5,213.5,0,0,0-29.4,10l-5-20.2,11.2-11.8,21.4.3a94.8,94.8,0,0,1,14.8,19.2ZM313.8,275c-16.8,7.2-32.9,15.8-48.2,23l-4.9,2.3-17.7-12L204.5,312l-15.3,19.7-2.3.7a94.5,94.5,0,0,1-3.1-24c0-3,.1-5.9.4-8.8l18.4,7.1,41.3-25L254,255.2l-16.6-17L213.1,240a94.5,94.5,0,0,1,32-20.1l-3.3,15.5,15.7,16.8,47.2-1.1,14.1-15.3L310,219.3a94.4,94.4,0,0,1,30.8,18.2l-18.7-.3L308.1,252l5.7,23Zm-57.4,27.4c-19.2,9.2-40.8,19.9-60.2,26.9L207.3,315l35.6-21.5,13.5,8.9Zm-6.9-84.1-3.3,15.8,13,14,43.6-1,11-12-9.4-17.6a95,95,0,0,0-54.9.8Zm-64.8,77,17.5,6.8,38.4-23.3,8.7-22.6-13.5-13.8-27.1,1.9a94.1,94.1,0,0,0-24.1,51Zm183.9,75.1a53.2,53.2,0,0,1-1.2,9,11.6,11.6,0,0,1,5.8-2.5h2.3l-.9-7.4h-.1a14.3,14.3,0,0,0-5.9.9Zm-3.7,1.4a14.5,14.5,0,0,0-4.9,3.5l-1,1.2c-3,3.4-3.5,6.9-4.3,11.3h0c-.3,4.6,0,9.4,2.4,13.5a20.4,20.4,0,0,0,8.8,7.9,24.3,24.3,0,0,0,22-.3,25.4,25.4,0,0,0,9-8,36,36,0,0,0,5.3-11.6c1.6-6.4,1.7-15.7-4.5-21.3a37.9,37.9,0,0,0-7.5-5.6,93.4,93.4,0,0,0,1.7,9.7c.5,2.1,1.1,4.2,1.7,6.3a19.2,19.2,0,0,1,.9,6.6c-.1,4.9-1.3,8.9-4.8,12.3s-6.6,4.3-11,4.6a18.3,18.3,0,0,1-10.8-2,11.6,11.6,0,0,1-6.3-9.4c-.4-3.6,3.1-13.1,3.2-18.7Zm13.8-1.7,1.4,11.1c-3-.6-7.4-.9-10.7,1.3a7.5,7.5,0,0,0-3.7,7.7,7.4,7.4,0,0,0,4.2,6.3,14.7,14.7,0,0,0,8.5,1.5c2.9-.2,5.4-.7,7.5-2.7s4.4-5.9,4.5-10.3a12.7,12.7,0,0,0-3.7-10,16.9,16.9,0,0,0-8.1-4.9Zm8.6-.1c-.6-3.2-1.1-6.4-1.4-9.6a43.1,43.1,0,0,0-15.8-3.5,57.1,57.1,0,0,0-11.2.8c-.6,4.7-1.5,10.6-2.2,15.1h0a19,19,0,0,1,3.3-2.8,24,24,0,0,1,6.9-3.3,23.7,23.7,0,0,1,7.5-1.2,21.3,21.3,0,0,1,12.9,4.5ZM163.9,302.3l1.8,18a17.9,17.9,0,0,0,7-4.9,15,15,0,0,0,3.5-6.7,20.2,20.2,0,0,0,.1-8.8,29.2,29.2,0,0,0-2-4.6,26.8,26.8,0,0,0-34.7-11.6,24.3,24.3,0,0,0-8.8,6.7,23.4,23.4,0,0,0-5,10.1,26.1,26.1,0,0,0-.4,9.3,41.2,41.2,0,0,0,2.5,9.7c4.3,10.5,14.2,16,24.4,17.1-3.7-7.6-7.9-10.6-13.3-16.4-3.1-3.2-4.6-7-4.9-12a15.8,15.8,0,0,1,2.5-10.5,14.7,14.7,0,0,1,6.6-5.5,16.1,16.1,0,0,1,7.2-1.6,15,15,0,0,1,7.4,2.1c2.8,1.7,4.8,3.6,5.7,6.8a11.4,11.4,0,0,1,.4,2.8Zm-2.1,19.2-1.3-12.3a10.7,10.7,0,0,1-7.8,2.2l2,10.8a23.3,23.3,0,0,0,5.8-.4l1.2-.3Zm-2-19.8h0a6.3,6.3,0,0,0-2.4-4.3,11.1,11.1,0,0,0-7-2.6,12,12,0,0,0-5.4,1.2,11.3,11.3,0,0,0-4.9,4,12.2,12.2,0,0,0-1.9,8,14.7,14.7,0,0,0,2.7,7.9,14.9,14.9,0,0,0,9.8,6l-3-15.6c2.1.7,5.2,2,8.3,1.1a5,5,0,0,0,3.9-4.9,6,6,0,0,0,0-.7Zm-9.7,24.2a52.7,52.7,0,0,1,6.3,11,81.5,81.5,0,0,0,8.9-.1,84.3,84.3,0,0,0,15.4-2.6c-.7-5.6-1.3-11.9-1.9-17.7l-.2-2.4a20.3,20.3,0,0,1-4.6,5.9c-3.7,3.3-7.7,4.9-12.5,5.9a27.9,27.9,0,0,1-10.5.2Zm42.5,92.6a46.1,46.1,0,0,0,9.8-1c6-1.2,11.8-3.4,17.5-5.6,7.6-2.8,15-5.8,22.4-9.1,9.8-4.3,19.6-8.9,29.3-13.5s21.9-10.4,32.9-15.3c7.9-3.5,15.8-6.7,23.8-9.9,6-2.4,11.9-5.1,18-7.3a64.7,64.7,0,0,1,22.4-4.1,46.6,46.6,0,0,1,19.4,4c7.8,3.5,13.3,8.4,18.3,15.4,3.7-14.4,8-28.7,12.4-42.9,3.9-12.3,7.9-24.6,11.8-36.9,1.6-5-1-9-4.5-12.4-6.2-5.9-14-9.5-22.1-11.9a104.2,104.2,0,0,0-32.5-4.2,105.4,105.4,0,0,0-19.9,2.4,160,160,0,0,0-19.3,5.6,354.2,354.2,0,0,0-35.7,15.3l-35.3,17.2c-13.1,6.3-26.2,12.7-39.5,18.6A298.3,298.3,0,0,1,188.9,336c-9.5,3-18.9,5-28.9,5a55.5,55.5,0,0,1-23.5-4.6c6.8,13,13.9,27.2,20.1,40.5,4.3,9.3,8.4,18.7,12.7,27.9a21.4,21.4,0,0,0,7.5,9.2c4.8,3.3,10,4.3,15.8,4.4Z" transform="translate(-67.3 -65.2)" fill="#eb2329" fill-rule="evenodd"/><path d="M159.7,348.6,183,408.3c9.5,1.4,17.6.3,28.8-4.2l-5.9-15.6c-5.2,2-11.1,3.6-15.3,2.4l-18.8-43.4-12.2,1Z" transform="translate(-67.3 -65.2)" fill="#eb2329" fill-rule="evenodd"/><polygon points="133.2 277.8 155.8 336.9 181 325.1 175.8 311.9 162.6 317.2 157.6 304.6 163.3 302.1 159.1 291.2 153 293.6 148.7 283.4 161.9 277.8 157.7 267.8 133.2 277.8 133.2 277.8" fill="#eb2329" fill-rule="evenodd"/><polygon points="170.2 261.9 191.4 321.2 201.8 315.7 179.3 257.3 170.2 261.9 170.2 261.9" fill="#eb2329" fill-rule="evenodd"/><polygon points="190.7 252.1 214.7 309.8 224.1 304.9 216.8 285.5 235.5 300.4 245.2 296.6 218.2 270.9 221.6 236.1 210.5 241.7 208.1 266 200.4 247.3 190.7 252.1 190.7 252.1" fill="#eb2329" fill-rule="evenodd"/><polygon points="232.4 230.9 254.6 292.4 263 288.9 257.1 267.4 273.7 284.4 280.7 282.7 262.3 216.7 251.5 222.3 258.1 248.6 239.3 227.1 232.4 230.9 232.4 230.9" fill="#eb2329" fill-rule="evenodd"/><path d="M342.4,276.7,357,344.4l9.7-1.7-9-69.1a74.4,74.4,0,0,0-15.3,3.1Z" transform="translate(-67.3 -65.2)" fill="#eb2329" fill-rule="evenodd"/><path d="M376.4,274.9l-3.8,67.4,10.1.7,2.8-19.4c3.1-.1,6.4.2,7.3,4.5s-.1,11.8,1.4,16.7c1.9,6.4,4.9,8.2,9.4,9.4-.7-12,8.9-24.8,3.1-33.7,7.9-2,12.7-10.2,13.5-19.1s-1.5-19.1-15.6-22.6c-7.7-1.9-19.6-3-28.1-3.8ZM390,288.1l-2.1,19.8c3,.4,5.9,1.2,8.2,1.1,5.8-.2,8.4-2.5,9.5-7.5s-.2-8-3.7-10.4-7.8-2.6-11.9-2.9Z" transform="translate(-67.3 -65.2)" fill="#eb2329" fill-rule="evenodd"/></svg>