<svg xmlns="http://www.w3.org/2000/svg" viewBox="0 0 293.1 321.8"><title>leiknirr</title><path d="M546.6,285.7A146.6,146.6,0,1,0,321,409.2l-13.2,25.6a175.3,175.3,0,0,0,184.3,0L479,409.2A146.4,146.4,0,0,0,546.6,285.7Z" transform="translate(-253.4 -139.1)" fill="#2f3085"/><polygon points="170.1 303.9 169.5 303.1 169.6 304.3 170.1 303.9" fill="none"/><path d="M446.9,424.7l-2.3.7,1.5,5,2.3-.7c1.9-.6,3.7-1.4,3-3.7S448.8,424.1,446.9,424.7Z" transform="translate(-253.4 -139.1)" fill="none"/><polygon points="96.3 280.2 90.4 277.9 82.1 299 97.5 305.1 99.1 301 89.6 297.2 96.3 280.2" fill="#fff"/><polygon points="109 288.6 119.1 290.8 120.1 286.5 104.5 283.1 99.5 305.3 115 308.7 116 304.4 105.9 302.1 106.9 297.4 116.2 299.5 117.2 295.2 107.9 293.1 109 288.6" fill="#fff"/><rect x="365.4" y="434.7" width="22.7" height="6.29" transform="translate(-356.7 620) rotate(-83.1)" fill="#fff"/><polygon points="151.7 288.5 144.3 288.4 136.9 298.2 136.8 298.2 137 288.3 130.7 288.2 130.3 310.9 136.6 311 136.8 298.9 136.9 298.9 144.2 311.1 152 311.2 143.7 298.4 151.7 288.5" fill="#fff"/><polygon points="168.1 287.4 169.5 303.1 170.1 303.9 169.6 304.3 169.5 303.1 160.4 288.2 152.1 288.7 154.3 311.3 159.9 310.8 158.2 293.4 158.3 293.4 166.8 309.4 175 308.5 173.2 286.8 168.1 287.4" fill="#fff"/><rect x="431.4" y="424.1" width="6.3" height="22.73" transform="translate(-340.7 -29.5) rotate(-13.1)" fill="#fff"/><path d="M460.2,434c-1.4-3.2-2.7-5-6.6-3.9h0c2.9-1.3,4.9-3.8,3.9-7s-6.5-4.1-10.1-3l-10,3.1,6.7,21.7,6-1.8-2.5-8.3,2.3-.7c3.1-.9,3.5.1,4.6,2.6a41.5,41.5,0,0,0,2.1,4.4l6.5-2A27.4,27.4,0,0,1,460.2,434Zm-11.8-4.3-2.3.7-1.5-5,2.3-.7c1.9-.6,3.9-.9,4.6,1.3S450.4,429.1,448.5,429.7Z" transform="translate(-253.4 -139.1)" fill="#fff"/><circle cx="146.6" cy="146.6" r="130.8" fill="#fff"/><circle cx="182.8" cy="134.7" r="73.6" fill="#2f3085"/><path d="M480,285.5a35.9,35.9,0,0,1-3.5,15.4,32.7,32.7,0,0,1-2.4,4.2l-.5.7c-3.7-2.1-18.7-10.1-37.3-10.1s-33.6,8-37.3,10.1a35.4,35.4,0,0,1-6.4-20.3,36.9,36.9,0,0,1,.3-4.6c4.1,1.8,9.5,3.2,15.6,4.7a114.6,114.6,0,0,0,55.6,0c6.1-1.5,11.5-2.9,15.6-4.7A36.9,36.9,0,0,1,480,285.5Z" transform="translate(-253.4 -139.1)" fill="#ebdf2b"/><path d="M474.6,334a70.9,70.9,0,0,1-33.4,11c4.7-10.1,6.3-19,6.3-26.2a41.9,41.9,0,0,0-4.9-20.5,77,77,0,0,1,20.1,4.8,78.6,78.6,0,0,1,7.9,3.5l2.1,1.2.5.3h0c.6,1,3.3,5.8,3.3,13.9A42.3,42.3,0,0,1,474.6,334Z" transform="translate(-253.4 -139.1)" fill="#ebdf2b"/><path d="M396.1,322a30.7,30.7,0,0,1,1.7-10.5,21.2,21.2,0,0,1,1.2-2.7l.4-.7h0l.5-.3a78.7,78.7,0,0,1,30.1-9.5,41.9,41.9,0,0,0-4.9,20.5c0,7.2,1.6,16.1,6.3,26.2A70.9,70.9,0,0,1,398,334,42.2,42.2,0,0,1,396.1,322Z" transform="translate(-253.4 -139.1)" fill="#ebdf2b"/><path d="M463.5,283.4a112.3,112.3,0,0,1-54.5,0c-6.6-1.6-12.3-3.1-16.2-5a13.2,13.2,0,0,1-4.4-3.2,6.2,6.2,0,0,1,0-8c2.9-3.5,10.7-5.7,20.6-8.2a112.3,112.3,0,0,1,54.5,0c6.6,1.6,12.3,3.1,16.2,5a13.2,13.2,0,0,1,4.4,3.2,6.2,6.2,0,0,1,0,8C481.3,278.8,473.4,281,463.5,283.4Z" transform="translate(-253.4 -139.1)" fill="#ebdf2b"/><path d="M479.6,261.6c-4.1-1.8-9.5-3.1-15.5-4.7a114.6,114.6,0,0,0-55.6,0c-6,1.5-11.4,2.9-15.5,4.7a50,50,0,0,1-.3-5.3,40.7,40.7,0,0,1,2.3-13.9,28.1,28.1,0,0,1,1.6-3.6l.2-.3c4,2,20.5,9.4,39.5,9.4s35.5-7.4,39.5-9.4c1.2,2.1,4.1,8.3,4.1,17.8A50.3,50.3,0,0,1,479.6,261.6Z" transform="translate(-253.4 -139.1)" fill="#ebdf2b"/><path d="M394.2,221.8a26.8,26.8,0,0,0-3.2-3.1,71,71,0,0,1,38.6-15.9,59.4,59.4,0,0,0-4.5,22.1,41.9,41.9,0,0,0,4.9,20.5,93.7,93.7,0,0,1-21.5-4.5c-3.6-1.2-6.5-2.4-8.6-3.3l-2.2-1a12.4,12.4,0,0,0,.8-4.3C398.5,227.9,396.3,224.3,394.2,221.8Z" transform="translate(-253.4 -139.1)" fill="#ebdf2b"/><path d="M474,232.2a12.4,12.4,0,0,0,.8,4.3,97.5,97.5,0,0,1-32.3,8.9,41.9,41.9,0,0,0,4.9-20.5,59.4,59.4,0,0,0-4.5-22.1,71,71,0,0,1,38.6,15.9,26.8,26.8,0,0,0-3.2,3.1C476.2,224.3,474,227.9,474,232.2Z" transform="translate(-253.4 -139.1)" fill="#ebdf2b"/><path d="M440.4,202.6a57.8,57.8,0,0,1,4.8,22.2,41.9,41.9,0,0,1-2.9,15.7,30.9,30.9,0,0,1-2,4.1l-.6.9h-6.9c-1.2-1.8-5.4-9-5.4-20.6a57.8,57.8,0,0,1,4.8-22.2h8.2Z" transform="translate(-253.4 -139.1)" fill="#ebdf2b"/><path d="M364.9,273.8a71.1,71.1,0,0,1,20.9-50.4l3.4-3.2c1.9,1.5,7.1,6.4,7,12a10.3,10.3,0,0,1-1,4.3c-.6.9-4.9,7.9-4.9,19.8a52.8,52.8,0,0,0,.4,6.3,14.2,14.2,0,0,0-4.1,3.2,8.4,8.4,0,0,0,0,10.9,14.7,14.7,0,0,0,4.1,3.2,39.4,39.4,0,0,0-.4,5.6,37.5,37.5,0,0,0,7,21.9,30,30,0,0,0-3.4,14.6,43.2,43.2,0,0,0,1.3,10.1,71.4,71.4,0,0,1-30.2-58.3Z" transform="translate(-253.4 -139.1)" fill="#ebdf2b"/><path d="M434,345.1c-5-10.3-6.6-19.2-6.6-26.3a41.9,41.9,0,0,1,2.9-15.7,31,31,0,0,1,2-4.1l.6-1h6.9c1.1,1.7,5.5,9,5.5,20.7,0,7.2-1.6,16-6.6,26.3H434Z" transform="translate(-253.4 -139.1)" fill="#ebdf2b"/><path d="M486.7,324.3a71.8,71.8,0,0,1-9.3,7.9,43.2,43.2,0,0,0,1.3-10.1,30.1,30.1,0,0,0-3.4-14.6,37.5,37.5,0,0,0,7-21.9,39.5,39.5,0,0,0-.4-5.6,14,14,0,0,0,4.1-3.2,8.4,8.4,0,0,0,0-10.9,14.8,14.8,0,0,0-4.1-3.2,52.6,52.6,0,0,0,.4-6.3c0-11.9-4.3-18.9-4.9-19.8a10.2,10.2,0,0,1-1-4.3c0-3.5,1.9-6.6,3.8-8.9a24.5,24.5,0,0,1,2.7-2.7l.5-.4,3.4,3.2a71.3,71.3,0,0,1,0,100.9Z" transform="translate(-253.4 -139.1)" fill="#ebdf2b"/><path d="M298.3,354.7a1.1,1.1,0,0,1,.1-1.4h0a1.1,1.1,0,0,1,1.4-.1h0l1.8,1.2h0l4.9,3h0a128.8,128.8,0,0,0,13.8,7h0l-5.1-150.6c-3.6.3-7.6,2.2-11,4.3h0a56.4,56.4,0,0,0-7.8,5.9h0l-.5.5h0a1.1,1.1,0,0,1-1.5.1h0a1.1,1.1,0,0,1-.3-1.5h0a123.5,123.5,0,0,1,47.6-45.6h0c.1,0,13.1-7.1,25.8-7.1h0a8.8,8.8,0,0,1,8.8,8.7h0c0,5.6-4.1,10.3-9.5,10.3h0a8.2,8.2,0,0,1-6.6-2.8h0a10.7,10.7,0,0,1-2.2-6.1h0c-9.8,2.7-16.1,12.9-16.1,21.6h0c0,.2,0,.4,0,.6h0L347.5,356a19.8,19.8,0,0,0,4.8,12.9h0c3.4,3.9,10.2,8.2,18.8,11.4h0a84.6,84.6,0,0,0,29,5.3h0c33.8,0,62.2-23,68.7-28.8h0l1.4-1.3h0a1.1,1.1,0,0,1,1.2-.2h0a1.1,1.1,0,0,1,.7,1h0v28.3a1.1,1.1,0,0,1-.5.9h0a122.4,122.4,0,0,1-71.6,23h0a122.8,122.8,0,0,1-101.7-53.9Z" transform="translate(-253.4 -139.1)" fill="#eb1d24"/><path d="M400,406.3a120.1,120.1,0,0,0,69.8-22.2h0V358.9c-7.4,6.4-35.7,28.9-69.8,28.9h0a86.8,86.8,0,0,1-29.7-5.5h0c-8.8-3.3-15.8-7.6-19.7-12h0a22.1,22.1,0,0,1-5.4-14.3h0L340,202.6c0-.2,0-.5,0-.7h0c0-10.1,7.4-21.7,19.2-24.1h0a1.1,1.1,0,0,1,.9.2h0a1.1,1.1,0,0,1,.4.9h0c0,2.8.6,4.8,1.7,6.1h0a5.9,5.9,0,0,0,4.9,2h0a6.8,6.8,0,0,0,5.1-2.3h0a8.6,8.6,0,0,0,2.2-5.8h0a6.5,6.5,0,0,0-6.6-6.5h0c-8.9,0-18.5,3.9-22.6,5.8h0l-2.1,1h0a121.3,121.3,0,0,0-43,38.8h0l1.5-1.1h0c4.1-2.8,9.6-5.7,14.9-5.7h0a1.1,1.1,0,0,1,1.1,1.1h0l5.2,153.5a1.1,1.1,0,0,1-.5,1h0a1.1,1.1,0,0,1-1.1.1h0a131.3,131.3,0,0,1-17.7-9h0A120.5,120.5,0,0,0,400,406.3Z" transform="translate(-253.4 -139.1)" fill="#fff"/><path d="M355.3,392.2c-7.4-12.6-12.4-21.9-12.8-35.1l-5.4-143.7a144.4,144.4,0,0,1,1.2-17.5c.3-2.2.6-4.1.8-5.3l.4-1.9a1.1,1.1,0,0,0-1.7-1.2,165.9,165.9,0,0,0-20.7,16.1,1.1,1.1,0,0,0-.2,1.4h0c.3.5,3.2,6.2,3.7,19.6l4.2,125q.1,2.4.1,4.5a63.1,63.1,0,0,1-1.3,14.2,17.1,17.1,0,0,1-.8,2.7l-.2.5h-.1a1.1,1.1,0,0,0,.1,1.4c9.8,9.8,31.1,20.8,31.2,20.8h.5a1.1,1.1,0,0,0,1-1.7ZM327.2,354a6.6,6.6,0,0,1,1.8-4.5,56,56,0,0,0,2.9,5.2,20.4,20.4,0,0,0-2.5,4.2A6.6,6.6,0,0,1,327.2,354Zm-.1-3.3v-1.3l-.6-19a7.5,7.5,0,0,0,1.5,1.6,7.6,7.6,0,0,0-.4,2.3,8.3,8.3,0,0,0,1.1,4,4.8,4.8,0,0,0,3.4,2,5.7,5.7,0,0,0-4.1,5.5,7.5,7.5,0,0,0,.6,2.9A7.4,7.4,0,0,0,327.1,350.7Zm-4.3-126.3c-.1-1.7-.2-3.3-.3-4.8a7.5,7.5,0,0,0,1.6,1.9,7.6,7.6,0,0,0-.4,2.3,8.3,8.3,0,0,0,1.1,4,4.7,4.7,0,0,0,3.2,1.9,5.7,5.7,0,0,0-4.5,5.6,7.4,7.4,0,0,0,.6,2.9l-1,1.2Zm11.5,143.1v0Zm-8-39.2v-3.5a6.6,6.6,0,0,1,1.6-3,56,56,0,0,0,2.9,5.2,20.5,20.5,0,0,0-2.5,4.2A6.6,6.6,0,0,1,326.4,328.4Zm-1-28.1v-2.8a6.6,6.6,0,0,1,1.7-3.3,56.2,56.2,0,0,0,2.9,5.2,20.5,20.5,0,0,0-2.5,4.2A6.6,6.6,0,0,1,325.4,300.2Zm-.9-26.8-.2-4.5a6.6,6.6,0,0,1,1.4-2.5,56.1,56.1,0,0,0,2.9,5.2,20.5,20.5,0,0,0-2.5,4.2A6.6,6.6,0,0,1,324.5,273.4Zm-.9-26.9-.2-5.3a6.6,6.6,0,0,1,1.3-2,55.9,55.9,0,0,0,2.9,5.2,20.5,20.5,0,0,0-2.5,4.2A6.6,6.6,0,0,1,323.6,246.4Zm5.9-17v0Zm-.1-.4v.3h.1a7.4,7.4,0,0,1-2-.5,3.2,3.2,0,0,1-2.3-2.7c0-.1,0-.2,0-.4a7.6,7.6,0,0,1,.8-3.1,7.4,7.4,0,0,0,2.9.6h1c0,.4,0,.8,0,1.2a21,21,0,0,1-.3,3.4A8.3,8.3,0,0,1,329.5,229Zm-.6-6.5a6.5,6.5,0,0,1-2.5-.5,21.7,21.7,0,0,1,2-3,12.4,12.4,0,0,1,1.4,3.5Zm.5,7.9h.1l1.8.2a3.2,3.2,0,0,1,2.3,3.2c0,.2,0,.4,0,.5a5.5,5.5,0,0,1-.6,2.7,7.3,7.3,0,0,0-3.5-.9h-.9a8.5,8.5,0,0,1-.2-1.9,7.4,7.4,0,0,1,1.1-3.8Zm.7,26.7v0Zm.2-1.5a8.3,8.3,0,0,1-.3,1.1v.3h0a7.3,7.3,0,0,1-1.9-.5,3.2,3.2,0,0,1-2.3-2.7c0-.1,0-.2,0-.4a7.6,7.6,0,0,1,.8-3.1,7.4,7.4,0,0,0,2.9.6h1c0,.4,0,.8,0,1.2A21,21,0,0,1,330.3,255.6Zm.2-14.9a26.6,26.6,0,0,1-1.3-2.7l-.3-.9h.7a6.5,6.5,0,0,1,3.1.8C332.1,238.5,331.4,239.4,330.5,240.7Zm-1,9.5a6.5,6.5,0,0,1-2.5-.5,21.8,21.8,0,0,1,2-3,12.3,12.3,0,0,1,1.4,3.5Zm-1.1-11.9a30.6,30.6,0,0,0,1.5,3.1l-1,1.2-.8,1a47,47,0,0,1-2.8-5.1,6.5,6.5,0,0,1,2.6-1.3Zm2.2,19.5h0l1.8.2a3.2,3.2,0,0,1,2.3,3.2c0,.2,0,.3,0,.5a5.6,5.6,0,0,1-.6,2.7,7.3,7.3,0,0,0-3.5-.9h-.9a8.5,8.5,0,0,1-.2-1.9A7.4,7.4,0,0,1,330.6,257.8Zm.8,25.2a8.2,8.2,0,0,1-.3,1.1v.3h.1a7.4,7.4,0,0,1-2-.5,3.2,3.2,0,0,1-2.2-2.7c0-.1,0-.2,0-.4a7.6,7.6,0,0,1,.8-3.1,7.4,7.4,0,0,0,2.9.6h1c0,.4,0,.8,0,1.2A20.9,20.9,0,0,1,331.4,282.9Zm.2-14.9a26.7,26.7,0,0,1-1.3-2.7l-.3-.9h.7a6.5,6.5,0,0,1,3.1.8C333.2,265.9,332.5,266.8,331.6,268Zm-1.5,6a12.4,12.4,0,0,1,1.4,3.5h-.9a6.6,6.6,0,0,1-2.5-.5A21.7,21.7,0,0,1,330.1,274Zm.6-.7,1.8-2h0a37.6,37.6,0,0,1,2.6,4.5,6.5,6.5,0,0,1-2.7,1.5A14.1,14.1,0,0,0,330.7,273.3Zm-1.2-7.6a30.6,30.6,0,0,0,1.5,3.1l-1,1.2-.8,1a47.2,47.2,0,0,1-2.8-5.1,6.5,6.5,0,0,1,2.6-1.3Zm2.2,19.8h0l1.8.2a3.2,3.2,0,0,1,2.3,3.2c0,.2,0,.4,0,.5a5.5,5.5,0,0,1-.6,2.7,7.3,7.3,0,0,0-3.5-.9h-.9a8.5,8.5,0,0,1-.2-1.9A7.4,7.4,0,0,1,331.7,285.4Zm.8,25.2a8.6,8.6,0,0,1-.3,1.1v.3h.1a7.3,7.3,0,0,1-2-.5,3.2,3.2,0,0,1-2.2-2.7c0-.1,0-.2,0-.4a7.6,7.6,0,0,1,.8-3.1,7.3,7.3,0,0,0,2.9.6h1c0,.4,0,.8,0,1.2A21,21,0,0,1,332.6,310.6Zm.2-14.9a26.5,26.5,0,0,1-1.3-2.7l-.3-.9h.7a6.5,6.5,0,0,1,3.1.8C334.4,293.6,333.7,294.5,332.7,295.7Zm-1.5,6a12.4,12.4,0,0,1,1.4,3.5h-.9a6.5,6.5,0,0,1-2.5-.5A21.7,21.7,0,0,1,331.3,301.7Zm.6-.7,1.8-2h0a37.7,37.7,0,0,1,2.6,4.5,6.5,6.5,0,0,1-2.7,1.5A14,14,0,0,0,331.8,301Zm-1.2-7.6a30.6,30.6,0,0,0,1.5,3.1l-1,1.2-.8,1a47.4,47.4,0,0,1-2.8-5.1,6.5,6.5,0,0,1,2.6-1.3Zm1.9,19.9h.1l1.8.2a3.2,3.2,0,0,1,2.3,3.2c0,.2,0,.3,0,.5a5.6,5.6,0,0,1-.6,2.7,7.3,7.3,0,0,0-3.5-.9h-.9a8.5,8.5,0,0,1-.2-1.9,7.4,7.4,0,0,1,1.1-3.8Zm.7,26.7v0Zm.2-1.5a8.4,8.4,0,0,1-.3,1.1v.3h.1a7.3,7.3,0,0,1-2-.5,3.2,3.2,0,0,1-2.2-2.7c0-.1,0-.2,0-.4a7.6,7.6,0,0,1,.8-3.1,7.4,7.4,0,0,0,2.9.6h1c0,.4,0,.8,0,1.2A21.1,21.1,0,0,1,333.4,338.4Zm.2-14.9a26.8,26.8,0,0,1-1.3-2.7l-.3-.9h.7a6.5,6.5,0,0,1,3.1.8C335.3,321.4,334.6,322.3,333.6,323.5Zm-1,9.5a6.5,6.5,0,0,1-2.5-.5,21.6,21.6,0,0,1,2-3,12.4,12.4,0,0,1,1.4,3.5Zm-1.1-11.9a30.6,30.6,0,0,0,1.5,3.1l-1,1.2-.8,1a47.3,47.3,0,0,1-2.8-5.1,6.5,6.5,0,0,1,2.6-1.3Zm2.2,19.8h0l1.8.2a3.2,3.2,0,0,1,2.3,3.2c0,.2,0,.4,0,.5a5.5,5.5,0,0,1-.6,2.7,7.4,7.4,0,0,0-3.5-.9h-.9a8.5,8.5,0,0,1-.2-1.9A7.4,7.4,0,0,1,333.7,340.9Zm0,6.6a6.5,6.5,0,0,1,3.1.8c-.5.8-1.2,1.7-2.2,2.9a26.6,26.6,0,0,1-1.3-2.7l-.3-.9Zm.8-13.8a7.4,7.4,0,0,0,2.9-1.5,5.9,5.9,0,0,1,.3,1.4c0,.1,0,.3,0,.5,0,2.4-1.4,5.1-3.7,5.7a18.7,18.7,0,0,0,.5-4.6C334.6,334.5,334.5,334.1,334.5,333.6Zm-.1-.8a14,14,0,0,0-1.7-4l1.8-2h0a37.6,37.6,0,0,1,2.6,4.5A6.6,6.6,0,0,1,334.4,332.8Zm-.7-25.6c0-.5,0-.9,0-1.4a7.4,7.4,0,0,0,2.9-1.5,5.9,5.9,0,0,1,.3,1.4c0,.2,0,.3,0,.5,0,2.4-1.4,5.1-3.7,5.7A18.8,18.8,0,0,0,333.7,307.2Zm.5-8.9a13.3,13.3,0,0,0,2.4-4,6.6,6.6,0,0,1,1.3,2.3v3.8a6.6,6.6,0,0,1-1.3,2.5A42.3,42.3,0,0,0,334.2,298.3ZM332,284.1a18.7,18.7,0,0,0,.5-4.6c0-.5,0-.9,0-1.4a7.4,7.4,0,0,0,2.9-1.5,5.9,5.9,0,0,1,.3,1.4c0,.2,0,.3,0,.5C335.6,280.9,334.2,283.6,332,284.1Zm1.1-13.6a13.3,13.3,0,0,0,2.4-4,6.6,6.6,0,0,1,1.5,2.8v2.8a6.6,6.6,0,0,1-1.4,3A42.4,42.4,0,0,0,333.1,270.6Zm-1.7-19.8a7.4,7.4,0,0,0,2.9-1.5,5.9,5.9,0,0,1,.3,1.4c0,.2,0,.3,0,.5,0,2.4-1.4,5.1-3.7,5.7a18.7,18.7,0,0,0,.5-4.6C331.4,251.7,331.4,251.2,331.4,250.8Zm-.1-.8a14,14,0,0,0-1.7-4l1.8-2h0a37.7,37.7,0,0,1,2.6,4.5A6.6,6.6,0,0,1,331.3,249.9Zm-.4-26.8a7.4,7.4,0,0,0,2.9-1.5,5.9,5.9,0,0,1,.3,1.4q0,.2,0,.5c0,2.4-1.4,5.1-3.7,5.7a18.7,18.7,0,0,0,.5-4.6C330.9,224,330.8,223.6,330.8,223.1Zm-.1-.8a14,14,0,0,0-1.7-4l1.8-2h0a37.7,37.7,0,0,1,2.6,4.5A6.5,6.5,0,0,1,330.7,222.3Zm-3.2,12a9.3,9.3,0,0,0,.2,2.1,7.4,7.4,0,0,0-2.8,1.3,6.4,6.4,0,0,1-.5-2.3,4.7,4.7,0,0,1,1.6-3.6,4.8,4.8,0,0,1,2.3-1.2A7.9,7.9,0,0,0,327.5,234.3Zm1.1,27.4a9.4,9.4,0,0,0,.2,2.1,7.4,7.4,0,0,0-2.8,1.3,6.4,6.4,0,0,1-.5-2.3,4.7,4.7,0,0,1,1.6-3.6,4.9,4.9,0,0,1,2.3-1.2A7.9,7.9,0,0,0,328.6,261.6Zm1.2,27.7a9.4,9.4,0,0,0,.2,2.1,7.4,7.4,0,0,0-2.8,1.3,6.4,6.4,0,0,1-.5-2.3,4.7,4.7,0,0,1,1.6-3.6,4.9,4.9,0,0,1,2.3-1.2A7.9,7.9,0,0,0,329.8,289.3Zm.9,27.8a9.4,9.4,0,0,0,.2,2.1,7.4,7.4,0,0,0-2.8,1.3,6.4,6.4,0,0,1-.5-2.3,4.7,4.7,0,0,1,1.6-3.6,4.9,4.9,0,0,1,2.3-1.2A8,8,0,0,0,330.7,317.1Zm1.1,27.6a9.3,9.3,0,0,0,.2,2.1,7.4,7.4,0,0,0-2.8,1.3,6.4,6.4,0,0,1-.5-2.3,4.7,4.7,0,0,1,1.6-3.6,4.8,4.8,0,0,1,2.3-1.2A7.9,7.9,0,0,0,331.8,344.7Zm.5,2.9.4,1.1a30.6,30.6,0,0,0,1.5,3.1l-1,1.2-.8,1a47.1,47.1,0,0,1-2.8-5.1A6.6,6.6,0,0,1,332.2,347.6Zm1,9.5a12.4,12.4,0,0,1,1.4,3.5h-.9a6.5,6.5,0,0,1-2.5-.5A21.7,21.7,0,0,1,333.2,357.1Zm6-11.1a11.3,11.3,0,0,0-.4-2.9,3.9,3.9,0,0,0-3.2-2.6l-1-.2c2.4-.9,3.8-3.8,3.8-6.3,0-.2,0-.4,0-.5a7.8,7.8,0,0,0-.5-2,7.5,7.5,0,0,0,1.2-1.7l.8,20.3a7.5,7.5,0,0,0-1.1-1.4A10.5,10.5,0,0,0,339.2,346Zm-1.6-15.4a42.4,42.4,0,0,0-2.6-4.5,13.2,13.2,0,0,0,2.4-4,6.6,6.6,0,0,1,1.6,3v2.2A6.6,6.6,0,0,1,337.7,330.6Zm.1-9.5a10.5,10.5,0,0,0,.4-2.7,11.3,11.3,0,0,0-.4-2.9,3.9,3.9,0,0,0-3.1-2.6l-1.2-.2c2.7-.7,4.3-3.7,4.3-6.5,0-.2,0-.4,0-.5a7.9,7.9,0,0,0-.5-2,7.5,7.5,0,0,0,1-1.4l.8,20.2A7.5,7.5,0,0,0,337.8,321.1Zm-.9-27.8a10.5,10.5,0,0,0,.4-2.7,11.2,11.2,0,0,0-.4-2.9,3.9,3.9,0,0,0-3.1-2.6l-1.2-.2c2.5-.8,3.9-3.8,3.9-6.3,0-.2,0-.4,0-.5a7.9,7.9,0,0,0-.5-2,7.5,7.5,0,0,0,1.1-1.6l.8,20Zm-1.2-27.7a10.5,10.5,0,0,0,.4-2.7,11.3,11.3,0,0,0-.4-2.9,3.9,3.9,0,0,0-3.2-2.6H332c2.1-1.1,3.4-3.7,3.4-6.1,0-.2,0-.4,0-.5a7.9,7.9,0,0,0-.5-2,7.5,7.5,0,0,0,1.2-1.7l.8,20A7.5,7.5,0,0,0,335.8,265.6Zm-1.2-17.8a42.3,42.3,0,0,0-2.6-4.5,13.2,13.2,0,0,0,2.4-4,6.6,6.6,0,0,1,1.6,3.1v2.1A6.6,6.6,0,0,1,334.6,247.8Zm.1-9.5a10.5,10.5,0,0,0,.4-2.7,11.2,11.2,0,0,0-.4-2.9,3.9,3.9,0,0,0-3.2-2.6l-.7-.2c2.6-.8,4.1-3.8,4.1-6.4,0-.2,0-.3,0-.5a7.9,7.9,0,0,0-.5-2l.7-.9.7,19.7A7.5,7.5,0,0,0,334.7,238.3Zm.4-19.9a6.6,6.6,0,0,1-1,1.8,42.6,42.6,0,0,0-2.6-4.5,12.5,12.5,0,0,0,2.4-4.1,6.6,6.6,0,0,1,1.1,1.6v.4h0Zm-5.1-5.4a26.6,26.6,0,0,1-1.3-2.7l-.4-.9h.7a6.5,6.5,0,0,1,3.1.8C331.6,210.9,330.9,211.8,329.9,213Zm-.6.7-1,1.2-.8,1a47.1,47.1,0,0,1-2.8-5.1,6.5,6.5,0,0,1,2.6-1.3l.4,1.1A30.6,30.6,0,0,0,329.3,213.7Zm-2.3,2.9a20.5,20.5,0,0,0-2.5,4.2,6.6,6.6,0,0,1-.4-9.4A56.1,56.1,0,0,0,327,216.6Zm-2.3,32.7a7.7,7.7,0,0,0-.4,2.3,8.3,8.3,0,0,0,1.1,4,4.4,4.4,0,0,0,2.9,1.8,5.7,5.7,0,0,0-3.6,5.3,7.4,7.4,0,0,0,.6,2.9,7.5,7.5,0,0,0-1.1,1.4l-.6-18.9Zm1.1,27.4a7.6,7.6,0,0,0-.4,2.3,8.3,8.3,0,0,0,1.1,4c.7,1.3,2.4,1.8,3.6,2a5.7,5.7,0,0,0-4.2,5.5,7.4,7.4,0,0,0,.6,2.9,7.5,7.5,0,0,0-1.4,1.8l-.7-19.9A7.4,7.4,0,0,0,325.9,276.7Zm1.2,27.7a7.6,7.6,0,0,0-.4,2.3,8.3,8.3,0,0,0,1.1,4c.8,1.4,2.5,1.8,3.7,2a5.7,5.7,0,0,0-4.6,5.6,7.4,7.4,0,0,0,.6,2.9,7.5,7.5,0,0,0-1.3,1.7l-.7-20.2A7.5,7.5,0,0,0,327,304.3Zm7.2,62.8v.3h.1a7.4,7.4,0,0,1-2-.5,3.2,3.2,0,0,1-2.2-2.7c0-.1,0-.2,0-.4a7.6,7.6,0,0,1,.8-3.1,7.4,7.4,0,0,0,2.9.6h1c0,.4,0,.8,0,1.2a21,21,0,0,1-.3,3.4A8.2,8.2,0,0,1,334.3,367.1Zm-.5-10.8,1.8-2h0a37.8,37.8,0,0,1,2.6,4.5,6.6,6.6,0,0,1-2.7,1.5A14,14,0,0,0,333.8,356.4Zm1.8,6.2c0-.5,0-.9,0-1.4a7.4,7.4,0,0,0,2.9-1.5,5.9,5.9,0,0,1,.3,1.4c0,.2,0,.3,0,.5,0,2.4-1.4,5.1-3.7,5.7A18.7,18.7,0,0,0,335.7,362.6Zm.5-8.9a13.3,13.3,0,0,0,2.4-4,6.6,6.6,0,0,1,1.5,2.8v2.8a6.6,6.6,0,0,1-1.4,3A42.4,42.4,0,0,0,336.2,353.7ZM319.3,204.6l1-.9a167.3,167.3,0,0,1,16.5-12.9,147.7,147.7,0,0,0-1.9,20.7l-.9-1a11.5,11.5,0,0,0,.3-2.7,18.6,18.6,0,0,0-.3-2.8h0v-1.3a.3.3,0,0,0-.3-.2.3.3,0,0,0-.3.2,3.3,3.3,0,0,0-.1,1c0,.4,0,.8,0,1.4s0,.3,0,.5a5.6,5.6,0,0,1-.6,2.7,7.3,7.3,0,0,0-3.5-.9H328a8.3,8.3,0,0,1-.3-2.1,5.8,5.8,0,0,1,.9-3.1l-.7-.4a6.6,6.6,0,0,0-1,3.5,9.1,9.1,0,0,0,.3,2.3,7.4,7.4,0,0,0-2.7,1.3,6.4,6.4,0,0,1-.5-2.3,4.9,4.9,0,0,1,.2-1.3l-.8-.2h0a5.7,5.7,0,0,0-.2,1.5,7.5,7.5,0,0,0,.6,2.9,7.4,7.4,0,0,0-1.9,3.2A38.3,38.3,0,0,0,319.3,204.6Zm5.6,167.3c.7-1.6,2-5.7,2.3-14.5a7.5,7.5,0,0,0,1.9,2.4,7.7,7.7,0,0,0-.4,2.3,8.3,8.3,0,0,0,1.1,4c1,1.8,3.8,2,4.5,2.1h.1c3.3-.1,5.3-3.6,5.3-6.6,0-.2,0-.3,0-.5a7.9,7.9,0,0,0-.5-2,7.5,7.5,0,0,0,1.1-1.6c.5,12.3,4.8,21.5,11.1,32.3C345.1,386.4,331.9,378.7,324.8,371.9Z" transform="translate(-253.4 -139.1)" fill="#eb1d24"/></svg>