<?xml version="1.0" encoding="UTF-8" standalone="no"?>
<!-- Created with Inkscape (http://www.inkscape.org/) -->

<svg
   xmlns:dc="http://purl.org/dc/elements/1.1/"
   xmlns:cc="http://creativecommons.org/ns#"
   xmlns:rdf="http://www.w3.org/1999/02/22-rdf-syntax-ns#"
   xmlns:svg="http://www.w3.org/2000/svg"
   xmlns="http://www.w3.org/2000/svg"
   xmlns:sodipodi="http://sodipodi.sourceforge.net/DTD/sodipodi-0.dtd"
   xmlns:inkscape="http://www.inkscape.org/namespaces/inkscape"
   width="316"
   height="316"
   viewBox="0 0 399.99996 399.99999"
   id="svg2"
   version="1.1"
   inkscape:version="0.91 r13725"
   sodipodi:docname="Fédération_Luxembourgeoise_de_Football_logo.svg">
  <defs
     id="defs4">
    <clipPath
       id="clipPath3352"
       clipPathUnits="userSpaceOnUse">
      <path
         inkscape:connector-curvature="0"
         id="path3354"
         d="m 0,2.324581e-5 719.9999,0 0,539.99999675419 L 0,540.00002 0,2.324581e-5 Z" />
    </clipPath>
    <clipPath
       id="clipPath3362"
       clipPathUnits="userSpaceOnUse">
      <path
         inkscape:connector-curvature="0"
         id="path3364"
         d="m 0,513.9999 719.9999,0 0,-487.3709 L 0,26.629 0,513.9999 Z" />
    </clipPath>
    <clipPath
       id="clipPath3368"
       clipPathUnits="userSpaceOnUse">
      <path
         inkscape:connector-curvature="0"
         id="path3370"
         d="m 0,26.62899 719.9999,0 0,487.371 -719.9999,0 0,-487.371 z" />
    </clipPath>
  </defs>
  <sodipodi:namedview
     id="base"
     pagecolor="#ffffff"
     bordercolor="#666666"
     borderopacity="1.0"
     inkscape:pageopacity="0.0"
     inkscape:pageshadow="2"
     inkscape:zoom="0.35"
     inkscape:cx="746.23427"
     inkscape:cy="413.08527"
     inkscape:document-units="px"
     inkscape:current-layer="layer1"
     showgrid="false"
     fit-margin-top="0"
     fit-margin-left="0"
     fit-margin-right="0"
     fit-margin-bottom="0"
     inkscape:window-width="1366"
     inkscape:window-height="705"
     inkscape:window-x="-8"
     inkscape:window-y="-8"
     inkscape:window-maximized="1" />
  <metadata
     id="metadata7">
    <rdf:RDF>
      <cc:Work
         rdf:about="">
        <dc:format>image/svg+xml</dc:format>
        <dc:type
           rdf:resource="http://purl.org/dc/dcmitype/StillImage" />
        <dc:title></dc:title>
      </cc:Work>
    </rdf:RDF>
  </metadata>
  <g
     inkscape:label="Layer 1"
     inkscape:groupmode="layer"
     id="layer1"
     transform="translate(371.23427,-545.44747)">
    <g
       id="g3489"
       transform="matrix(0.71487296,0,0,0.71487296,-371.23427,545.44747)">
      <circle
         id="circle3491"
         r="279.76999"
         cy="279.76999"
         cx="279.76999"
         style="fill:#ff1100" />
      <circle
         id="circle3493"
         r="275.01401"
         cy="279.76999"
         cx="279.76999"
         style="fill:#ffffff" />
      <path
         id="path3495"
         d="m 135.292,133.608 c -38.72,38.718 -60.044,90.198 -60.044,144.958 0,40.529 11.808,79.719 34.148,113.331 19.867,29.892 47.307,54.154 79.35,70.165 l 2.235,-4.473 C 159.717,441.967 132.945,418.294 113.56,389.128 91.768,356.339 80.248,318.107 80.248,278.565 c 0,-53.423 20.804,-103.647 58.579,-141.422 37.773,-37.776 87.998,-58.579 141.421,-58.579 53.423,0 103.648,20.803 141.421,58.579 37.776,37.775 58.579,88 58.579,141.422 0,53.421 -20.803,103.646 -58.579,141.421 -15.833,15.835 -34.03,28.807 -54.089,38.557 l 2.185,4.497 c 20.56,-9.992 39.214,-23.288 55.439,-39.519 38.721,-38.719 60.044,-90.198 60.044,-144.956 0,-54.759 -21.323,-106.239 -60.044,-144.958 C 386.486,94.886 335.006,73.563 280.247,73.563 225.488,73.564 174.009,94.888 135.292,133.608 Z"
         inkscape:connector-curvature="0"
         style="fill:#101177" />
      <path
         id="path3497"
         d="m 179.092,476.056 c -0.001,0 -1.115,-0.561 -1.115,-0.561 0,0 -1.227,-0.752 -1.227,-0.752 -0.001,0 -1.693,-1.253 -1.693,-1.253 l -0.355,0.738 -0.788,1.777 -2.085,3.81 c 0,0 -5.571,9.946 -6.121,10.927 -0.413,-0.231 -0.874,-0.49 -0.874,-0.49 l -4.115,-2.422 -7.001,-4.38 -0.311,0.642 -0.246,0.52 c -0.001,10e-4 -0.465,0.857 -0.465,0.857 l -0.537,0.908 -0.734,1.188 0.666,0.277 4.095,1.885 4.368,2.322 c 0,0 2.564,1.438 3.366,1.885 -0.257,0.461 -2.485,4.437 -2.485,4.437 l -2.559,4.479 c 0,0 -1.052,1.719 -1.471,2.404 -0.319,-0.179 -0.645,-0.361 -0.645,-0.361 l -7.274,-4.422 c -1.732,-1.135 -3.077,-2.128 -3.995,-2.949 l -0.594,-0.531 -1.185,2.285 -1.299,2.162 0.577,0.294 4.829,2.637 6.074,3.38 4.422,2.5 c 0,0 2.768,1.634 2.768,1.634 l 0.313,-0.576 5.684,-10.84 5.891,-10.726 3.976,-6.887 3.896,-6.123 -0.74,-0.297 -1.011,-0.378 z"
         inkscape:connector-curvature="0" />
      <path
         id="path3499"
         d="m 152.13,470.452 5.642,-7.057 -0.527,-0.395 -3.324,-2.358 -5.173,-3.763 -4.902,-3.611 -3.364,-2.547 -0.357,0.517 -0.939,1.382 c 0.002,-0.002 -0.51,0.648 -0.51,0.648 l -0.958,1.216 0.592,0.354 6.434,4.137 4.888,3.377 c 0,0 0.324,0.237 0.637,0.467 -0.578,0.801 -3.158,4.38 -3.158,4.38 l -4.677,6.415 c 0,0 -0.826,1.127 -1.266,1.729 -0.582,-0.426 -1.607,-1.176 -1.607,-1.176 l -5.849,-4.406 -3.018,-2.751 -0.43,0.616 -0.469,0.781 c -0.002,0.003 -0.349,0.522 -0.349,0.522 0,0 -0.44,0.557 -0.44,0.557 l -1.12,1.288 0.592,0.395 5.558,3.652 4.677,3.259 c 0,0 0.157,0.115 0.294,0.215 -0.392,0.536 -1.001,1.368 -1.001,1.368 l -3.389,4.608 c 0,0 -2.484,3.348 -3.411,4.597 -0.293,-0.215 -0.591,-0.434 -0.591,-0.434 l -5.436,-4.146 -5.57,-4.636 -0.382,0.537 -0.917,1.346 -1.421,1.81 0.54,0.361 4.936,3.541 c 0,0 5.566,4.049 5.566,4.049 l 3.521,2.602 c 0,0 2.553,1.959 2.553,1.959 l 0.381,-0.559 4.567,-6.846 6.287,-8.777 6.89,-9.223 z"
         inkscape:connector-curvature="0" />
      <path
         id="path3501"
         d="m 130.644,453.065 5.672,-5.388 -0.466,-0.456 -1.826,-1.725 -1.438,-1.378 c -0.001,-10e-4 -2.901,-3.03 -2.901,-3.03 l -2.811,-2.941 c -5.238,-5.229 -10.592,-7.975 -15.912,-8.159 -5.339,-0.187 -10.518,2.194 -15.393,7.079 -2.542,2.546 -4.362,5.285 -5.408,8.145 -1.053,2.876 -1.315,5.789 -0.779,8.66 0.36,1.783 1.082,3.537 2.145,5.224 1.05,1.664 2.747,3.671 5.044,5.965 l 4.461,4.288 3.465,3.293 1.32,1.347 c 0.001,0.001 2.041,2.146 2.041,2.146 l 0.458,-0.476 4.825,-5.062 8.814,-8.89 8.689,-8.642 z m -1.394,-7.254 c -0.678,0.707 -5.576,5.824 -5.576,5.824 l -6.928,7.012 -5.819,5.755 c 0,0 -4.268,4.068 -4.967,4.733 -0.618,-0.557 -2.583,-2.325 -2.583,-2.325 l -3.182,-3.079 c -3.738,-3.732 -5.631,-7.343 -5.631,-10.738 0,-0.115 0.002,-0.231 0.007,-0.348 0.135,-3.513 2.325,-7.419 6.508,-11.608 3.988,-3.994 8.04,-5.954 12.042,-5.824 4.017,0.132 8.226,2.367 12.511,6.646 l 1.841,1.935 c 0.001,-10e-4 1.27,1.441 1.777,2.017 z"
         inkscape:connector-curvature="0" />
      <path
         id="path3503"
         d="m 100.625,423.045 7.5,-5.036 -0.384,-0.534 -2.46,-3.248 -3.806,-5.142 -3.591,-4.918 -2.444,-3.44 -0.496,0.387 -1.309,1.035 -1.961,1.34 0.459,0.516 4.894,5.877 3.649,4.689 c 0,0 0.237,0.323 0.467,0.636 -0.792,0.591 -4.327,3.229 -4.327,3.229 l -6.388,4.715 c 0,0 -1.125,0.827 -1.726,1.27 -0.426,-0.581 -1.179,-1.605 -1.179,-1.605 0,0 -4.256,-5.958 -4.256,-5.958 l -2.053,-3.529 -0.594,0.458 -0.683,0.604 c -0.002,0.003 -0.489,0.393 -0.489,0.393 l -0.587,0.398 c -0.003,0.002 -1.456,0.896 -1.456,0.896 l 0.446,0.553 4.206,5.151 3.481,4.514 c 0,0 0.115,0.156 0.216,0.293 -0.535,0.395 -1.365,1.005 -1.365,1.005 l -4.616,3.378 c 0,0 -3.824,2.772 -4.634,3.358 -0.216,-0.292 -0.435,-0.59 -0.435,-0.59 l -3.938,-5.587 -3.922,-6.093 -0.524,0.396 -1.281,1.011 c 0.003,-0.003 -0.676,0.464 -0.676,0.464 -0.002,0.001 -1.223,0.836 -1.223,0.836 l 0.408,0.504 3.646,4.86 c 0,0 4.094,5.533 4.094,5.533 l 2.578,3.539 c 0,0.001 1.848,2.636 1.848,2.636 l 0.531,-0.418 6.412,-5.157 8.632,-6.485 9.336,-6.734 z"
         inkscape:connector-curvature="0" />
      <path
         id="path3505"
         d="m 74.685,405.453 11.059,-5.948 6.815,-3.424 -0.484,-0.625 c 0,0 -0.811,-1.02 -0.811,-1.021 -10e-4,-10e-4 -0.639,-1.015 -0.639,-1.015 l -0.481,-1.034 -0.686,-1.997 -0.668,0.379 -3.879,2.354 -3.518,2.007 c 0,0 -7.796,4.257 -8.66,4.728 -0.122,-0.181 -0.244,-0.361 -0.244,-0.361 -0.176,-0.324 -0.266,-0.637 -0.266,-0.929 0,-0.002 0,-0.005 0,-0.008 0.003,-0.303 0.104,-0.661 0.301,-1.064 l 4.053,-9.252 2.256,-4.841 3.221,-6.415 -0.227,-0.319 -1.007,-1.38 c 0,-0.001 -0.797,-1.287 -0.797,-1.287 0,0 -0.319,-0.657 -0.521,-1.073 l 0.242,0.016 c 0,0 -0.309,-0.45 -0.615,-0.899 -0.334,-0.868 -0.949,-2.469 -0.949,-2.469 l -0.144,0.319 c -0.04,-0.146 -0.073,-0.267 -0.073,-0.267 0,-10e-4 -0.146,-1.421 -0.146,-1.421 l -0.569,-0.041 -9.002,0.012 c 0,0 -5.416,-0.165 -6.905,-0.21 -0.213,-0.532 -0.837,-2.09 -0.837,-2.09 l -1.517,-4.079 -1.44,-4.033 c 0,0 -0.527,-1.602 -0.703,-2.136 0.407,-0.382 1.525,-1.43 1.525,-1.43 10e-4,0 5.305,-4.667 5.305,-4.667 l 5.617,-4.578 -0.249,-0.48 -0.712,-1.292 -0.514,-1.193 -0.355,-1.211 -0.48,-2.474 -0.822,0.746 -15.705,14.595 -16.274,14.64 0.14,0.396 0.504,1.385 20.325,1.166 21.638,1.505 c -3.791,9.164 -6.612,15.78 -8.46,19.857 -2.204,-2.515 -4.534,-4.234 -6.952,-5.032 -2.711,-0.895 -5.358,-0.652 -7.869,0.717 -2.893,1.58 -4.543,3.789 -4.906,6.567 -0.351,2.705 0.535,6.025 2.634,9.868 l 2.449,4.324 1.995,3.491 0.938,1.839 c 0.01,0.02 0.52,1.039 0.52,1.039 l 0.597,-0.316 6.592,-3.895 10.36,-5.744 z M 53.877,358.438 c 0.389,1.036 1.159,3.089 1.159,3.089 0,0 1.198,3.173 1.198,3.173 l 0.821,2.369 c 0,0 0.132,0.387 0.268,0.786 -1.455,-0.081 -10.737,-0.601 -12.957,-0.724 1.521,-1.416 5.85,-5.444 5.85,-5.444 l 2.305,-2.079 c 0,0 0.755,-0.651 1.356,-1.17 z m 16.34,42.794 c -0.844,0.46 -8.316,4.54 -8.316,4.54 l -2.747,1.41 c -0.001,0.002 -1.273,0.56 -1.981,0.869 -0.099,-0.158 -0.203,-0.323 -0.203,-0.323 -0.004,-0.007 -1.802,-2.952 -1.802,-2.952 -1.196,-2.193 -1.799,-4.147 -1.799,-5.83 0,-0.379 0.03,-0.742 0.091,-1.093 0.328,-1.882 1.506,-3.353 3.602,-4.496 2.308,-1.26 4.425,-1.352 6.474,-0.278 2.104,1.103 4.164,3.481 6.123,7.069 l 0.498,0.938 c -0.002,0 0.038,0.093 0.06,0.146 z"
         inkscape:connector-curvature="0" />
      <path
         id="path3507"
         d="m 31.898,345.487 -1.47,-5.763 c 0,0 -0.101,-0.454 -0.195,-0.876 1.056,-0.236 8.711,-1.94 8.711,-1.94 l 12.729,-2.755 14.14,-2.896 -0.204,-0.666 -0.416,-1.339 -0.315,-1.239 -0.24,-1.254 -0.241,-1.904 -0.678,0.147 -11.835,2.874 -11.051,2.542 -7.118,1.519 c 0,0 -3.451,0.641 -4.804,0.891 -0.114,-0.472 -0.248,-1.031 -0.248,-1.031 0.002,0.009 -1.054,-5.502 -1.054,-5.502 l -0.504,-5.123 -0.78,0.242 -0.565,0.203 c -0.002,0.002 -0.972,0.244 -0.972,0.244 l -0.99,0.193 c -0.005,0.001 -1.23,0.098 -1.23,0.098 l 0.116,0.705 1.783,7.498 1.646,7.177 c 0,0.001 1.465,6.761 1.465,6.761 l 1.453,7.119 0.656,-0.197 0.99,-0.307 0.67,-0.176 c 0,0 0.61,-0.109 0.61,-0.109 l 1.654,-0.211 -0.262,-0.76 -1.451,-4.165 z"
         inkscape:connector-curvature="0" />
      <polygon
         id="polygon3509"
         points="61.074,306.085 60.979,304.815 61.021,302.853 60.242,302.972 56.822,303.625 50.384,304.458 32.77,306.557 26.106,307.287 20.917,307.618 21.085,308.366 21.402,309.601 21.614,310.901 21.714,312.21 21.659,314.074 22.409,313.993 28.923,312.97 41.73,311.377 46.431,310.817 54.882,309.875 61.779,309.33 61.595,308.578 61.291,307.429 " />
      <path
         id="path3511"
         d="m 39.426,297.736 c 6.389,0.091 11.54,-1.778 15.311,-5.557 3.768,-3.774 5.725,-9.026 5.818,-15.609 0.091,-6.381 -1.769,-11.626 -5.527,-15.592 -3.764,-3.97 -8.807,-6.027 -14.99,-6.115 -6.366,-0.091 -11.521,1.777 -15.321,5.555 -3.797,3.774 -5.77,9.008 -5.863,15.556 -0.092,6.454 1.748,11.728 5.471,15.673 3.726,3.951 8.807,6 15.101,6.089 z m 0.434,-36.014 c 5.623,0.081 9.979,1.422 12.947,3.989 2.935,2.541 4.39,6.182 4.324,10.823 -0.066,4.68 -1.598,8.293 -4.551,10.739 -2.983,2.471 -7.327,3.684 -12.914,3.603 -5.662,-0.081 -10.061,-1.425 -13.075,-3.994 -2.98,-2.54 -4.458,-6.188 -4.391,-10.847 0.068,-4.734 1.594,-8.357 4.537,-10.766 2.974,-2.435 7.389,-3.628 13.123,-3.547 z"
         inkscape:connector-curvature="0" />
      <path
         id="path3513"
         d="m 44.633,247.505 16.355,4.036 0.044,-0.756 0.049,-1.052 c 10e-4,0 0.111,-0.817 0.111,-0.817 0,-0.002 0.233,-0.854 0.233,-0.854 l 0.628,-1.563 -0.731,-0.169 -13.521,-2.474 -8.721,-1.696 -4.081,-0.933 c 0,0 -0.883,-0.216 -1.72,-0.42 2.177,-1.328 15.777,-9.63 15.777,-9.63 l 10.561,-6.261 8.582,-4.635 0.075,-0.289 0.277,-1.322 -8.06,-1.593 -5.272,-1.074 -13.278,-2.902 -13.562,-3.208 -0.031,0.77 -0.036,1.037 c 0,0.003 -0.083,0.622 -0.083,0.622 l -0.168,0.584 c 0,0.001 -0.672,1.75 -0.672,1.75 l 0.745,0.142 11.003,1.94 12.847,2.566 c 0,0 2.614,0.604 3.461,0.799 -6.256,4.004 -12.073,7.62 -17.271,10.725 -5.557,3.321 -11.12,6.516 -16.536,9.496 l -0.25,0.137 -0.396,1.896 6.52,1.362 17.121,3.786 z"
         inkscape:connector-curvature="0" />
      <path
         id="path3515"
         d="m 48.184,184.756 9.206,4.098 8.704,4.056 9.449,4.554 1.582,-3.811 1.547,-3.498 c 0,-0.001 2.024,-4.359 2.024,-4.359 l 3.781,-8.013 -1.442,-0.656 c -10e-4,-0.001 -0.755,-0.314 -0.755,-0.314 l -2.269,-1.123 -0.154,0.78 c -0.299,1.356 -0.781,2.936 -1.431,4.696 l -2.51,6.018 -1.02,2.212 c 0,0 -0.175,0.355 -0.342,0.696 -0.902,-0.377 -6.42,-2.682 -6.42,-2.682 l -7.749,-3.447 -8.627,-4.056 -10.24,-5.06 -0.221,0.737 -0.334,1.138 -0.485,1.203 -0.615,1.218 -1.038,1.634 0.664,0.313 8.695,3.666 z"
         inkscape:connector-curvature="0" />
      <path
         id="path3517"
         d="m 53.003,155.656 7.875,4.787 6.253,4.11 3.556,2.397 c 5.167,3.282 9.734,4.575 13.571,3.842 3.853,-0.735 7.37,-3.569 10.454,-8.426 1.798,-2.831 2.854,-5.607 3.136,-8.252 0.284,-2.672 -0.202,-5.252 -1.442,-7.672 -0.86,-1.586 -2.353,-3.274 -4.443,-5.032 -2.05,-1.724 -6.197,-4.572 -12.326,-8.464 l -1.247,-0.792 -3.439,-2.277 c 0,0 -5.792,-3.991 -5.792,-3.991 l -0.302,0.744 -0.315,0.788 c 0,0.002 -0.439,0.806 -0.439,0.806 l -0.494,0.679 -1.088,1.126 0.635,0.433 7.323,4.445 7.874,4.93 c 4.087,2.598 6.881,4.612 8.302,5.989 1.383,1.338 2.337,2.751 2.836,4.203 0.507,1.434 0.624,2.987 0.349,4.618 -0.277,1.653 -0.93,3.297 -1.938,4.886 -1.011,1.59 -2.201,2.872 -3.538,3.811 -1.319,0.927 -2.751,1.483 -4.256,1.657 -1.491,0.195 -3.073,0.008 -4.72,-0.559 -1.688,-0.581 -4.02,-1.813 -6.934,-3.663 l -6.481,-4.188 -11.528,-7.541 -0.783,1.783 -0.682,1.201 -0.718,1.025 -1.218,1.402 0.625,0.409 1.334,0.786 z"
         inkscape:connector-curvature="0" />
      <path
         id="path3519"
         d="m 88.999,120.648 7.792,1.571 c 0,0 1.18,0.27 1.67,0.382 0.138,0.516 0.535,1.99 0.535,1.99 l 2.446,9.195 3.403,12.226 1.225,-2.23 0.553,-0.729 0.63,-0.595 1.225,-0.911 -0.146,-0.453 -3.484,-9.575 c -0.97,-2.846 -1.678,-5.124 -2.102,-6.769 0,0 -0.176,-0.716 -0.339,-1.384 0.763,0.151 1.643,0.325 1.643,0.325 0.009,10e-4 8.509,1.746 8.509,1.746 l 8.315,2.085 0.265,-0.386 0.861,-1.313 0.892,-1.118 0.977,-0.988 2.19,-1.84 -1.259,-0.255 -3.903,-0.735 -18.148,-3.387 c 0,0 -1.367,-0.271 -1.892,-0.376 -0.122,-0.456 -0.356,-1.335 -0.356,-1.335 -0.008,-0.027 -1.843,-6.753 -1.843,-6.753 L 95.2,95.243 94.421,96.706 94.015,97.47 c -0.002,0.003 -0.641,0.841 -0.641,0.841 l -0.729,0.715 c -10e-4,0.001 -1.078,0.732 -1.078,0.732 l 0.107,0.498 2.982,8.308 1.892,6.323 c 0,0 0.189,0.749 0.361,1.429 -0.694,-0.117 -1.457,-0.246 -1.457,-0.246 -0.002,0 -5.813,-1.232 -5.813,-1.232 l -9.372,-2.302 -0.259,0.396 -0.79,1.229 c -0.001,0.001 -0.826,1.045 -0.826,1.045 l -0.944,0.974 -2.19,1.798 1.268,0.27 12.473,2.4 z"
         inkscape:connector-curvature="0" />
      <path
         id="path3521"
         d="m 107.897,96.214 7.174,8.07 7.474,8.752 5.638,7.061 0.5,-0.427 3.034,-2.72 4.811,-4.215 c 0.001,0 4.606,-3.984 4.606,-3.984 l 3.228,-2.719 -0.427,-0.464 -1.138,-1.218 -1.497,-1.843 -0.476,0.499 -5.454,5.361 -4.373,4.022 c 0,0 -0.303,0.263 -0.596,0.519 -0.654,-0.741 -3.576,-4.048 -3.576,-4.048 l -5.223,-5.978 c 0,0 -0.918,-1.055 -1.407,-1.616 0.543,-0.474 1.502,-1.309 1.502,-1.309 l 5.589,-4.731 3.347,-2.336 -0.504,-0.554 -0.66,-0.631 c -0.001,-0.001 -0.429,-0.454 -0.429,-0.454 0,0 -0.446,-0.552 -0.446,-0.552 -0.002,-0.004 -1.011,-1.378 -1.011,-1.378 l -0.516,0.491 -4.788,4.615 -4.212,3.842 c 0,0 -0.146,0.127 -0.275,0.238 -0.436,-0.501 -1.113,-1.277 -1.113,-1.277 0,-0.001 -3.746,-4.323 -3.746,-4.323 0,0 -2.716,-3.162 -3.729,-4.341 0.275,-0.239 0.553,-0.482 0.553,-0.482 0,0 5.243,-4.385 5.243,-4.385 l 5.751,-4.41 -0.439,-0.491 -1.109,-1.191 -1.452,-1.784 -0.472,0.446 -4.542,4.032 c -10e-4,0 -5.179,4.536 -5.179,4.536 l -3.315,2.86 -2.474,2.058 0.46,0.495 5.668,5.964 z"
         inkscape:connector-curvature="0" />
      <path
         id="path3523"
         d="m 169.958,61.372 -10.599,-13.782 -0.476,0.287 -0.96,0.586 1.134,19.359 c 0,0 0.593,13.001 0.683,14.976 -1.677,-0.999 -12.12,-7.219 -12.12,-7.219 l -16.918,-10.508 -1.58,0.959 0.224,0.498 c 4.703,10.462 8.264,18.543 10.582,24.016 2.342,5.528 4.054,9.853 5.086,12.851 l 0.307,0.889 1.586,-1.445 0.78,-0.561 0.814,-0.414 1.676,-0.573 -0.355,-0.664 c -1.516,-2.555 -3.363,-6.085 -5.488,-10.492 -1.905,-3.949 -3.97,-8.497 -6.116,-13.402 2.666,1.564 14.419,8.455 14.419,8.455 2.749,1.603 4.965,2.979 6.59,4.092 1.619,1.109 3.001,2.188 4.109,3.204 l 0.343,0.313 1.439,-0.877 -0.092,-0.43 c -0.645,-2.992 -1.188,-7.341 -1.618,-12.927 -0.393,-5.113 -0.625,-10.879 -0.726,-17.04 1.441,1.691 3.351,4.09 5.73,7.206 3.071,4.022 6.581,8.811 10.431,14.237 l 0.398,0.56 1.5,-1.325 c 10e-4,0 0.934,-0.655 0.934,-0.655 l 1.009,-0.528 1.971,-0.771 -0.486,-0.664 -14.211,-18.211 z"
         inkscape:connector-curvature="0" />
      <path
         id="path3525"
         d="m 204.201,52.604 c -1.654,-0.62 -3.698,-0.752 -6.093,-0.405 1.581,-1.32 2.746,-2.716 3.415,-4.184 0.502,-1.101 0.752,-2.25 0.752,-3.438 0,-1.147 -0.234,-2.333 -0.701,-3.549 -1.17,-3.043 -3.205,-4.859 -6.05,-5.4 -2.735,-0.52 -6.473,0.12 -11.109,1.902 l -3.77,1.532 c -0.001,0 -2.58,1.076 -2.58,1.076 0,0 -1.617,0.58 -1.617,0.58 l -1.596,0.543 0.286,0.63 c 1.028,2.175 2.282,5.093 3.728,8.67 l 5.061,12.898 3.245,8.753 2.166,6.74 0.662,-0.317 1.62,-0.824 1.007,-0.432 2.829,-0.963 3.436,-1.194 c 4.764,-1.831 8.078,-4.216 9.851,-7.091 1.806,-2.93 1.999,-6.3 0.57,-10.016 -1.072,-2.788 -2.791,-4.642 -5.112,-5.511 z m -8.683,-2.788 c -1.065,1.81 -3.155,3.322 -6.214,4.498 l -1.388,0.491 c 0,0 -0.565,0.168 -1.017,0.304 -0.352,-0.916 -2.544,-6.62 -2.544,-6.62 l -1.357,-3.723 c 0,0 -0.571,-1.813 -0.852,-2.707 0.534,-0.266 1.467,-0.731 1.467,-0.731 l 1.625,-0.697 c 2.698,-1.038 4.969,-1.293 6.749,-0.762 1.744,0.523 2.968,1.756 3.743,3.771 0.422,1.1 0.634,2.124 0.634,3.085 0,1.108 -0.282,2.134 -0.846,3.091 z m -7.495,8.614 c 0.001,-10e-4 3.025,-1.368 3.025,-1.368 3.29,-1.265 5.992,-1.574 8.03,-0.921 2.015,0.647 3.487,2.239 4.498,4.868 0.423,1.102 0.635,2.148 0.635,3.153 0,1.207 -0.305,2.354 -0.917,3.457 -1.126,2.032 -3.194,3.638 -6.146,4.771 l -1.672,0.514 c -0.001,0 -0.916,0.166 -1.483,0.27 -0.305,-0.679 -1.661,-3.701 -1.661,-3.701 0,-0.001 -2.505,-6.313 -2.505,-6.313 0,0 -1.489,-3.876 -1.816,-4.726 0,0.002 0.012,-0.004 0.012,-0.004 z"
         inkscape:connector-curvature="0" />
      <path
         id="path3527"
         d="m 246.156,26.214 c -4.474,-2.939 -10.001,-3.795 -16.429,-2.541 -6.336,1.235 -11.119,4.12 -14.215,8.574 -3.101,4.458 -4.062,9.851 -2.856,16.03 1.224,6.271 4.112,10.929 8.584,13.843 4.467,2.911 10.009,3.747 16.471,2.487 6.263,-1.222 11.014,-4.12 14.124,-8.613 l 0,0 c 3.112,-4.499 4.089,-9.857 2.906,-15.926 -1.219,-6.248 -4.108,-10.909 -8.585,-13.854 z M 225.597,59 c -3.03,-2.411 -5.109,-6.414 -6.179,-11.898 -1.084,-5.558 -0.673,-10.138 1.223,-13.616 1.874,-3.439 5.142,-5.635 9.714,-6.526 4.647,-0.907 8.506,-0.157 11.468,2.228 2.995,2.411 5.069,6.487 6.167,12.116 1.077,5.52 0.658,10.059 -1.244,13.49 -1.882,3.395 -5.147,5.566 -9.703,6.455 -4.594,0.896 -8.446,0.139 -11.446,-2.249 z"
         inkscape:connector-curvature="0" />
      <path
         id="path3529"
         d="m 295.073,19.68 c -0.005,0.001 -0.916,0.063 -0.916,0.063 -0.002,0 -0.837,-0.051 -0.837,-0.051 l -1.536,-0.31 -0.023,0.769 0.195,8.563 0.08,9.29 c 0.012,4.845 -0.184,8.283 -0.578,10.221 -0.384,1.885 -1.061,3.45 -2.015,4.651 -0.938,1.2 -2.183,2.134 -3.706,2.781 -1.541,0.655 -3.276,0.99 -5.161,0.995 -1.885,0.005 -3.606,-0.309 -5.115,-0.931 -1.49,-0.612 -2.731,-1.52 -3.687,-2.695 -0.966,-1.151 -1.66,-2.588 -2.068,-4.279 -0.419,-1.736 -0.636,-4.365 -0.644,-7.815 l 0.04,-7.716 0.153,-13.774 -1.924,0.299 c -0.001,0 -1.379,0.072 -1.379,0.072 l -1.25,-0.054 c -10e-4,0 -1.839,-0.271 -1.839,-0.271 l -0.008,0.746 0.056,1.548 c 0,0.001 0.205,9.214 0.205,9.214 l -0.1,7.483 -0.107,4.286 c 0.014,6.122 1.382,10.667 4.065,13.507 2.694,2.852 6.977,4.289 12.729,4.276 3.352,-0.008 6.26,-0.613 8.643,-1.799 2.404,-1.197 4.318,-2.996 5.688,-5.343 0.874,-1.579 1.494,-3.745 1.851,-6.453 0.35,-2.651 0.518,-7.679 0.5,-14.943 l -0.002,-1.478 c 0,-0.001 0.068,-4.125 0.068,-4.125 l 0.244,-7.029 -0.789,0.144 -0.833,0.158 z"
         inkscape:connector-curvature="0" />
      <path
         id="path3531"
         d="m 322.262,22.861 -4.916,-0.728 -3.98,-0.575 -2.025,-0.391 c -0.022,-0.005 -1.139,-0.229 -1.139,-0.229 l -0.119,0.665 -0.981,7.594 -1.844,11.703 -2.109,12.378 -1.492,7.48 0.791,0.002 1.304,-0.012 c 0.003,0 1.191,0.121 1.191,0.121 l 1.11,0.256 1.998,0.688 0.111,-0.76 0.53,-4.507 0.581,-4.009 c 0,0 1.438,-8.765 1.597,-9.735 0.218,0.015 0.437,0.031 0.437,0.031 0.369,0.061 0.664,0.181 0.901,0.366 0.237,0.188 0.456,0.488 0.654,0.892 l 4.802,8.885 2.43,4.754 3.078,6.485 0.391,0.019 1.709,0.055 1.504,0.162 1.533,0.329 3.092,0.939 -0.68,-1.289 -0.671,-1.245 c -5.049,-8.896 -8.62,-15.348 -10.742,-19.393 3.337,-0.19 6.128,-0.97 8.242,-2.386 2.373,-1.589 3.812,-3.826 4.274,-6.646 0.113,-0.69 0.169,-1.354 0.169,-1.99 0,-2.362 -0.778,-4.347 -2.329,-5.918 -1.915,-1.938 -5.08,-3.281 -9.402,-3.991 z m 5.374,11.58 c -0.427,2.595 -1.657,4.32 -3.763,5.276 -2.162,0.981 -5.305,1.143 -9.338,0.481 l -1.047,-0.186 c 0,0 -0.098,-0.025 -0.154,-0.039 0.156,-0.95 1.128,-6.875 1.128,-6.875 l 0.407,-2.475 0.576,-3.034 c 0,-10e-4 0.342,-1.348 0.533,-2.098 0.186,0.02 0.381,0.039 0.381,0.039 0.007,10e-4 3.438,0.396 3.438,0.396 3.018,0.496 5.207,1.475 6.506,2.91 0.984,1.083 1.47,2.412 1.47,4.031 0,0.497 -0.046,1.021 -0.137,1.574 z"
         inkscape:connector-curvature="0" />
      <path
         id="path3533"
         d="m 371.458,60.114 c 0,0 -0.867,-0.228 -0.882,-0.231 0,-0.005 -0.765,-0.326 -0.765,-0.326 l -1.963,-0.928 -0.215,0.689 -1.23,4.18 -0.879,2.779 -1.071,2.887 c 0,0 -0.485,1.288 -0.739,1.958 -1.455,0.111 -2.879,0.101 -4.227,-0.059 -1.465,-0.174 -2.951,-0.514 -4.422,-1.012 -4.538,-1.537 -7.715,-4.289 -9.438,-8.182 -1.734,-3.911 -1.758,-8.412 -0.076,-13.379 1.709,-5.042 4.429,-8.672 8.086,-10.788 3.631,-2.101 7.664,-2.423 11.992,-0.957 2.783,0.942 5.041,2.264 6.717,3.926 1.66,1.652 2.852,3.734 3.537,6.191 l 0.376,1.342 2.095,-3.321 1.807,-2.541 -0.285,-0.377 c -1.432,-1.779 -3.201,-3.37 -5.264,-4.725 -2.057,-1.351 -4.422,-2.483 -7.029,-3.367 -6.594,-2.232 -12.563,-2.183 -17.742,0.151 -5.195,2.34 -8.879,6.631 -10.954,12.753 -1.973,5.825 -1.696,11.154 0.823,15.843 2.51,4.674 6.955,8.118 13.213,10.238 2.201,0.746 4.616,1.344 7.172,1.777 2.555,0.431 5.26,0.709 8.037,0.828 l 0.501,0.021 0.752,-2.939 c 0,-0.001 0.918,-2.885 0.918,-2.885 l 1.228,-3.464 2.034,-5.636 -2.107,-0.446 z"
         inkscape:connector-curvature="0" />
      <path
         id="path3535"
         d="m 387.734,87.684 3.716,2.001 0.275,-0.569 0.713,-1.509 1.162,-2.069 -0.639,-0.257 -6.992,-3.098 -5.35,-2.586 c 0,0 -0.356,-0.184 -0.701,-0.363 0.447,-0.88 2.447,-4.813 2.447,-4.813 l 3.637,-7.057 c 0,0 0.643,-1.242 0.984,-1.903 0.64,0.331 1.768,0.914 1.768,0.914 l 6.457,3.456 3.406,2.252 0.33,-0.674 0.342,-0.845 c 0.002,-0.002 0.264,-0.563 0.264,-0.563 0.002,-0.004 0.352,-0.622 0.352,-0.622 0,-0.001 0.908,-1.447 0.908,-1.447 l -0.647,-0.299 -6.052,-2.754 -5.123,-2.501 c 0,0 -0.173,-0.089 -0.322,-0.167 0.303,-0.591 0.777,-1.506 0.777,-1.506 l 2.641,-5.074 c 0,0 1.941,-3.689 2.664,-5.065 0.322,0.167 0.652,0.337 0.652,0.337 l 6.006,3.262 6.218,3.723 0.296,-0.587 0.697,-1.469 c 0,-0.002 1.126,-2.013 1.126,-2.013 l -0.589,-0.271 -5.422,-2.739 -6.121,-3.146 -3.881,-2.029 -2.825,-1.544 -0.29,0.61 -3.46,7.466 -4.863,9.64 -5.388,10.172 -4.49,7.84 0.581,0.308 3.647,1.82 5.688,2.923 5.401,2.815 z"
         inkscape:connector-curvature="0" />
      <path
         id="path3537"
         d="m 405.891,74.222 c -3.812,5.131 -5.309,10.403 -4.446,15.67 0.859,5.261 3.975,9.92 9.261,13.846 5.124,3.805 10.466,5.363 15.881,4.633 5.422,-0.732 10.039,-3.621 13.726,-8.584 3.796,-5.112 5.293,-10.387 4.45,-15.679 -0.84,-5.286 -3.933,-9.946 -9.189,-13.852 -5.18,-3.849 -10.534,-5.439 -15.912,-4.727 -5.385,0.715 -10.019,3.638 -13.771,8.693 z m 27.676,-1.286 c 3.801,2.823 5.847,6.18 6.081,9.976 0.237,3.836 -1.377,8.116 -4.798,12.72 -3.354,4.515 -6.989,7.264 -10.805,8.171 -3.777,0.896 -7.581,-0.052 -11.309,-2.821 -3.758,-2.791 -5.794,-6.145 -6.051,-9.972 -0.261,-3.864 1.297,-8.097 4.629,-12.583 3.375,-4.546 7.037,-7.328 10.885,-8.271 3.803,-0.932 7.628,0.003 11.368,2.78 z"
         inkscape:connector-curvature="0" />
      <polygon
         id="polygon3539"
         points="435.932,124.619 436.464,124.037 438.713,121.378 443.196,116.682 455.571,103.973 460.292,99.215 464.118,95.696 463.518,95.218 462.493,94.457 461.51,93.579 460.61,92.625 459.482,91.141 458.95,91.676 454.528,96.569 445.573,105.859 442.27,109.253 436.292,115.298 431.272,120.06 431.889,120.53 432.846,121.232 433.86,122.14 434.733,123.068 " />
      <path
         id="path3541"
         d="m 459.409,115.205 c -0.402,2 -0.154,4.434 0.74,7.236 l 1.462,4.739 c 0.684,2.063 0.898,3.728 0.64,4.962 -0.252,1.204 -1.006,2.348 -2.238,3.396 -1.81,1.538 -3.709,2.254 -5.654,2.13 -1.963,-0.127 -3.636,-1.033 -5.113,-2.77 -1.27,-1.491 -1.984,-3.202 -2.126,-5.087 -0.144,-1.899 0.3,-3.829 1.325,-5.735 l 1.104,-2.057 -4.528,2.841 -3.145,1.492 -0.007,0.422 c 0.075,1.659 0.453,3.319 1.123,4.937 0.666,1.607 1.633,3.162 2.873,4.619 2.72,3.196 5.857,5.032 9.326,5.458 3.488,0.427 6.75,-0.625 9.695,-3.13 1.906,-1.623 3.109,-3.457 3.574,-5.451 0.459,-1.971 0.236,-4.436 -0.66,-7.328 l -1.42,-4.774 c -0.611,-2.056 -0.804,-3.731 -0.572,-4.983 0.225,-1.224 0.877,-2.28 1.992,-3.23 1.546,-1.314 3.079,-1.908 4.686,-1.816 1.597,0.093 2.979,0.849 4.224,2.311 0.96,1.128 1.585,2.389 1.855,3.748 0.271,1.368 0.183,2.87 -0.259,4.46 l -0.342,1.224 3.467,-1.436 2.557,-0.812 -0.113,-0.565 c -0.371,-1.564 -0.896,-3.032 -1.56,-4.363 -0.667,-1.335 -1.519,-2.617 -2.534,-3.811 -2.388,-2.803 -5.193,-4.413 -8.34,-4.784 -3.166,-0.372 -6.084,0.558 -8.677,2.761 -1.817,1.546 -2.945,3.361 -3.355,5.396 z"
         inkscape:connector-curvature="0" />
      <path
         id="path3543"
         d="m 466.225,145.983 -7.742,4.655 0.357,0.553 2.295,3.367 3.542,5.326 3.34,5.091 2.269,3.557 0.515,-0.361 1.36,-0.968 2.023,-1.238 -0.432,-0.539 -4.593,-6.113 -3.411,-4.867 c 0,0 -0.219,-0.334 -0.434,-0.658 0.82,-0.55 4.484,-3.009 4.484,-3.009 l 6.613,-4.389 c 0,0 1.168,-0.771 1.79,-1.182 0.397,0.601 1.097,1.662 1.097,1.662 l 3.952,6.166 1.875,3.627 0.618,-0.427 0.713,-0.571 0.505,-0.365 0.605,-0.37 c 0.005,-0.002 1.499,-0.819 1.499,-0.819 l -0.418,-0.576 -3.942,-5.356 -3.249,-4.681 c 0,0 -0.107,-0.163 -0.203,-0.304 0.555,-0.366 1.414,-0.935 1.414,-0.935 l 4.779,-3.143 c 0,0 3.958,-2.577 4.798,-3.124 0.2,0.304 0.403,0.613 0.403,0.613 l 3.654,5.776 3.611,6.283 0.547,-0.371 1.325,-0.942 1.963,-1.204 -0.384,-0.526 -3.396,-5.034 -3.812,-5.732 -2.396,-3.664 c 0,-0.001 -1.715,-2.726 -1.715,-2.726 l -0.549,0.392 -6.662,4.829 -8.948,6.045 -9.66,6.252 z"
         inkscape:connector-curvature="0" />
      <path
         id="path3545"
         d="m 487.311,183.518 -7.39,2.573 0.239,0.609 0.952,2.323 0.747,1.849 c 0,10e-4 2.742,7.793 2.742,7.793 2.619,6.923 6.367,11.63 11.137,13.989 4.791,2.368 10.488,2.331 16.943,-0.111 3.367,-1.273 6.152,-3.02 8.284,-5.194 2.144,-2.187 3.581,-4.734 4.277,-7.571 0.405,-1.774 0.472,-3.67 0.198,-5.643 -0.271,-1.946 -0.992,-4.474 -2.142,-7.512 l -2.3,-5.746 -1.799,-4.427 c 0,-10e-4 -0.65,-1.772 -0.65,-1.772 l -0.977,-2.793 -0.609,0.244 -6.484,2.625 -11.692,4.47 -11.476,4.294 z m -1.719,7.185 c 0.911,-0.366 7.48,-3.011 7.48,-3.011 l 9.199,-3.535 7.674,-2.848 c 0,0 4.883,-1.71 6.475,-2.268 0.334,0.761 1.396,3.184 1.396,3.184 l 1.631,4.116 c 1.069,2.828 1.606,5.371 1.606,7.607 0,1.806 -0.349,3.412 -1.048,4.81 -1.569,3.146 -5.173,5.803 -10.71,7.898 -5.28,1.999 -9.78,2.114 -13.372,0.348 -3.607,-1.774 -6.521,-5.545 -8.664,-11.209 l -0.879,-2.521 c 10e-4,-0.001 -0.516,-1.685 -0.788,-2.571 z"
         inkscape:connector-curvature="0" />
      <path
         id="path3547"
         d="m 513.581,221.022 c 0,0.001 -11.281,2.269 -11.281,2.269 l -8.911,1.488 0.127,0.645 0.898,3.975 1.341,6.255 1.24,5.962 0.803,4.144 0.613,-0.148 1.618,-0.4 c 0,-10e-4 2.339,-0.41 2.339,-0.41 l -0.205,-0.659 -2.029,-7.375 -1.384,-5.777 c 0,0 -0.083,-0.392 -0.163,-0.772 0.967,-0.211 5.275,-1.152 5.275,-1.152 l 7.766,-1.653 c 0,0 1.367,-0.289 2.096,-0.443 0.148,0.705 0.412,1.948 0.412,1.948 l 1.414,7.186 0.41,4.061 0.729,-0.171 0.872,-0.268 c 0.004,-0.001 0.607,-0.156 0.607,-0.156 l 0.698,-0.12 c 0.003,0 1.696,-0.213 1.696,-0.213 l -0.178,-0.688 -1.701,-6.43 -1.305,-5.548 c 0,0 -0.041,-0.19 -0.075,-0.356 0.649,-0.138 1.657,-0.351 1.657,-0.351 l 5.602,-1.168 c 0,0 4.626,-0.944 5.605,-1.144 0.075,0.355 0.15,0.716 0.15,0.716 0,0.001 1.279,6.717 1.279,6.717 l 1.053,7.169 0.645,-0.146 1.582,-0.389 2.264,-0.399 -0.162,-0.63 -1.311,-5.931 -1.44,-6.73 -0.886,-4.287 c 0,-0.001 -0.594,-3.164 -0.594,-3.164 l -0.654,0.161 -7.971,2.047 -10.541,2.335 z"
         inkscape:connector-curvature="0" />
      <path
         id="path3549"
         d="m 515.019,266.146 -7.952,0.065 -7.253,-0.256 0.12,0.789 0.188,1.063 0.08,1.245 -0.026,1.439 -0.222,2.094 0.814,-0.068 1.932,-0.221 4.344,-0.135 c 0,0 11.396,-0.238 12.52,-0.262 0.01,0.473 0.021,1.002 0.021,1.002 l -0.002,4.775 -0.228,8.256 0.71,-0.06 0.572,-0.051 c 0.002,0 0.974,-0.033 0.974,-0.033 0.003,0 1.055,0.004 1.055,0.004 0.003,0 1.396,0.03 1.396,0.03 l -0.098,-0.715 -0.452,-4.486 -0.209,-4.941 c 0,0 -0.064,-2.938 -0.084,-3.857 0.527,-0.012 5.086,-0.106 5.086,-0.106 l 5.156,-0.064 c 0,0 2.017,0.036 2.82,0.05 0.007,0.366 0.014,0.74 0.014,0.74 l -0.124,8.51 c -0.101,2.068 -0.273,3.729 -0.518,4.939 l -0.156,0.782 2.571,-0.138 2.521,0.025 -0.041,-0.646 -0.174,-5.5 -0.164,-6.949 -0.085,-5.079 c 0,-10e-4 0.005,-3.214 0.005,-3.214 l -0.656,0.021 -12.225,0.595 -12.23,0.357 z"
         inkscape:connector-curvature="0" />
      <path
         id="path3551"
         d="m 520.836,292.495 c -6.328,-0.893 -11.672,0.314 -15.889,3.59 -4.211,3.271 -6.811,8.235 -7.734,14.754 -0.891,6.32 0.296,11.758 3.525,16.162 3.238,4.412 7.981,7.086 14.104,7.951 6.304,0.89 11.653,-0.316 15.898,-3.588 4.241,-3.268 6.855,-8.212 7.771,-14.695 0.901,-6.393 -0.264,-11.855 -3.459,-16.236 -3.2,-4.388 -7.982,-7.058 -14.216,-7.938 z m 14.364,23.691 c -0.662,4.69 -2.629,8.093 -5.852,10.111 -3.258,2.044 -7.789,2.672 -13.467,1.87 -5.566,-0.786 -9.723,-2.665 -12.344,-5.583 -2.594,-2.89 -3.58,-6.685 -2.93,-11.279 0.654,-4.637 2.629,-8.029 5.866,-10.084 3.269,-2.076 7.729,-2.732 13.262,-1.952 5.608,0.792 9.802,2.678 12.471,5.605 2.637,2.896 3.646,6.702 2.994,11.312 z"
         inkscape:connector-curvature="0" />
      <path
         id="path3553"
         d="m 513.551,340.211 c -6.02,-2.143 -11.498,-2.029 -16.286,0.334 -4.78,2.362 -8.323,6.704 -10.53,12.906 -2.141,6.012 -2.067,11.576 0.215,16.542 l 0,0 c 2.288,4.97 6.399,8.542 12.225,10.614 5.998,2.134 11.479,2.022 16.297,-0.331 4.807,-2.351 8.359,-6.671 10.554,-12.841 2.165,-6.081 2.119,-11.666 -0.134,-16.6 -2.26,-4.938 -6.41,-8.513 -12.341,-10.624 z m 9.326,26.09 c -1.586,4.461 -4.196,7.4 -7.758,8.734 -3.602,1.348 -8.167,1.057 -13.567,-0.865 -5.298,-1.887 -8.991,-4.559 -10.977,-7.943 -1.96,-3.352 -2.168,-7.266 -0.61,-11.639 1.57,-4.41 4.182,-7.339 7.766,-8.703 l 0,0 c 3.616,-1.38 8.121,-1.129 13.387,0.744 5.334,1.898 9.067,4.586 11.094,7.988 2.003,3.365 2.228,7.296 0.665,11.684 z"
         inkscape:connector-curvature="0" />
      <path
         id="path3555"
         d="m 514.098,391.038 -0.617,-0.309 -0.532,-0.321 c 0.005,0.004 -0.747,-0.504 -0.747,-0.504 l -0.633,-0.428 -0.305,0.743 -1.655,4.088 -2.695,5.303 c 0,0 -0.225,0.406 -0.433,0.785 -0.949,-0.519 -7.826,-4.285 -7.826,-4.285 l -11.385,-6.326 -12.541,-7.146 -0.286,0.635 -0.569,1.281 -0.58,1.139 -0.647,1.1 -1.074,1.592 0.608,0.336 10.791,5.645 9.982,5.377 6.353,3.553 c 0,0 3.015,1.796 4.199,2.5 -0.228,0.43 -0.495,0.938 -0.495,0.938 0.004,-0.009 -2.835,4.829 -2.835,4.829 0,0.002 -3.001,4.188 -3.001,4.188 l 0.75,0.333 0.557,0.218 c 0.002,10e-4 0.889,0.457 0.889,0.457 l 0.877,0.508 0.988,0.738 0.376,-0.608 3.604,-6.811 3.496,-6.48 3.356,-6.048 c 0.003,-10e-4 3.604,-6.311 3.604,-6.311 l -0.622,-0.282 -0.952,-0.427 z"
         inkscape:connector-curvature="0" />
      <path
         id="path3557"
         d="m 487.841,419.901 -11.162,-8.205 -7.417,-5.672 -5.43,-4.545 -0.391,0.622 c 0,0 -0.928,1.559 -0.928,1.56 0,0.002 -0.623,0.904 -0.623,0.904 l -1.877,2.323 c -0.002,0 -2.271,2.845 -2.271,2.845 -3.018,4.044 -4.546,7.793 -4.546,11.143 0,0.037 0,0.074 0,0.111 0.037,3.441 1.675,6.395 4.865,8.773 2.393,1.786 4.837,2.436 7.264,1.933 1.753,-0.362 3.576,-1.368 5.441,-2.978 -0.48,1.479 -0.811,2.895 -0.811,4.17 0,0.433 0.027,0.853 0.084,1.26 0.319,2.353 1.56,4.35 3.684,5.936 2.615,1.949 5.305,2.4 7.998,1.338 2.59,-1.02 5.41,-3.555 8.381,-7.537 l 2.371,-3.308 1.606,-2.285 1.06,-1.354 c 0,-10e-4 1.06,-1.31 1.06,-1.31 l -0.579,-0.383 c -2.043,-1.3 -4.661,-3.097 -7.779,-5.341 z m 1.765,8.938 c -0.31,0.51 -0.852,1.402 -0.852,1.402 l -1.001,1.456 c -1.729,2.316 -3.511,3.745 -5.303,4.246 -1.753,0.488 -3.444,0.099 -5.176,-1.191 -2.034,-1.517 -3.052,-3.262 -3.118,-5.336 0,-0.067 -0.002,-0.135 -0.002,-0.203 0,-2.051 0.959,-4.376 2.856,-6.917 l 0.913,-1.156 c 0,0 0.389,-0.444 0.698,-0.798 0.786,0.586 5.684,4.239 5.684,4.239 l 3.135,2.424 c 10e-4,0 1.605,1.359 2.166,1.834 z M 475.905,418.12 c 0,0.002 -1.836,2.785 -1.836,2.785 -2.106,2.824 -4.226,4.527 -6.299,5.063 -2.051,0.529 -4.143,-0.032 -6.4,-1.716 -2.083,-1.553 -3.157,-3.43 -3.289,-5.741 -0.01,-0.148 -0.012,-0.297 -0.012,-0.447 0,-2.188 0.893,-4.495 2.66,-6.868 l 1.141,-1.327 c 0,0 0.686,-0.629 1.111,-1.02 0.619,0.412 3.379,2.243 3.379,2.243 0.002,0.001 5.488,4.001 5.488,4.001 0,0 3.33,2.483 4.057,3.027 z"
         inkscape:connector-curvature="0" />
      <path
         id="path3559"
         d="m 448.09,422.881 -0.682,1.141 c 0,0 -0.432,0.721 -0.432,0.722 l -0.51,0.605 c -0.003,0.001 -0.641,0.537 -0.641,0.537 0.003,-0.003 -0.749,0.444 -0.749,0.444 l -0.481,0.284 0.203,0.534 3.779,8.168 c 0,0 2.119,4.987 2.703,6.359 -0.396,0.416 -1.549,1.636 -1.549,1.636 l -3.07,3.085 -3.06,2.995 c 0,10e-4 -1.113,1.04 -1.644,1.534 -0.518,-0.21 -1.938,-0.786 -1.938,-0.786 0,-0.001 -6.461,-2.863 -6.461,-2.863 l -6.508,-3.185 -0.332,0.428 -0.875,1.188 -0.869,0.967 -0.951,0.828 -2.044,1.475 1.021,0.434 19.829,8.149 20.112,8.647 0.301,-0.293 1.045,-1.038 -7.451,-18.945 -8.746,-23.05 z m 2.144,31.528 -2.852,-1.223 c 0,0 -0.908,-0.412 -1.631,-0.741 0.778,-0.787 2.319,-2.347 2.319,-2.347 l 2.381,-2.418 1.807,-1.738 c 0,0 0.297,-0.28 0.603,-0.569 0.534,1.354 3.95,10.001 4.769,12.069 -1.924,-0.789 -7.396,-3.033 -7.396,-3.033 z"
         inkscape:connector-curvature="0" />
      <path
         id="path3561"
         d="m 437.698,474.553 -6.126,-8 -5.706,-7.725 -6.12,-8.518 -0.518,0.414 -2.695,2.177 -3.032,2.331 -3.859,2.861 -7.154,5.229 0.955,1.267 c 0,10e-4 0.51,0.632 0.51,0.632 0.003,0.003 1.461,2.075 1.461,2.075 l 0.505,-0.613 c 0.911,-1.047 2.09,-2.204 3.503,-3.439 l 5.081,-4.086 1.953,-1.453 c 0,-0.002 0.332,-0.236 0.632,-0.448 0.613,0.763 4.358,5.425 4.358,5.425 l 5.156,6.732 5.638,7.688 6.574,9.339 0.547,-0.541 0.838,-0.839 1,-0.823 1.123,-0.777 c 0,-0.001 1.692,-0.938 1.692,-0.938 l -0.433,-0.592 -5.883,-7.378 z"
         inkscape:connector-curvature="0" />
      <path
         id="path3563"
         d="m 413.134,492.147 -5.114,-8.682 -4.732,-8.355 -5.051,-9.194 -0.564,0.349 -2.937,1.836 -3.288,1.951 -4.18,2.373 -7.73,4.327 0.794,1.372 c 0,0.002 0.433,0.693 0.433,0.693 0,-0.002 0.417,0.776 0.417,0.776 0.003,10e-4 0.781,1.456 0.781,1.456 l 0.576,-0.548 c 1.032,-0.93 2.341,-1.937 3.892,-2.99 l 5.537,-3.444 2.114,-1.209 c 0,0 0.356,-0.191 0.681,-0.366 0.516,0.83 3.672,5.909 3.672,5.909 0,10e-4 4.307,7.306 4.307,7.306 l 4.671,8.312 5.4,10.066 0.608,-0.474 0.93,-0.729 c 0,-0.002 1.092,-0.699 1.092,-0.699 l 1.211,-0.636 1.794,-0.728 -0.358,-0.64 -4.956,-8.032 z"
         inkscape:connector-curvature="0" />
      <path
         id="path3565"
         d="m 205.248,534.847 c 0.332,-4.348 0.571,-9.104 0.718,-14.268 0.146,-5.161 0.22,-10.977 0.22,-17.441 0,-8.942 -0.073,-17.876 -0.22,-26.799 -0.146,-8.924 -0.364,-17.859 -0.657,-26.805 1.423,0.105 3.142,0.184 5.156,0.234 2.014,0.054 5.381,0.078 10.1,0.078 5.574,0 10.203,-0.024 13.884,-0.078 3.682,-0.051 7.332,-0.129 10.955,-0.234 0,0.449 -0.022,1.141 -0.063,2.078 -0.041,0.937 -0.061,1.628 -0.061,2.077 0,0.449 0.02,1.111 0.061,1.985 0.042,0.876 0.063,1.538 0.063,1.984 -2.473,-0.596 -5.796,-1.055 -9.968,-1.374 -4.175,-0.317 -9.846,-0.537 -17.017,-0.657 l -2.681,0 c -0.134,2.344 -0.225,4.832 -0.269,7.459 -0.044,2.627 -0.066,6.387 -0.066,11.276 l 0,8.608 0,3.906 8.896,0 c 3.596,0 6.899,-0.085 9.912,-0.256 3.01,-0.171 6.011,-0.452 9.004,-0.838 0,0.413 -0.022,0.887 -0.061,1.421 -0.042,0.535 -0.061,1.336 -0.061,2.405 0,0.988 0.01,1.719 0.029,2.192 0.019,0.473 0.051,0.915 0.093,1.325 -6.104,-0.352 -11.116,-0.596 -15.037,-0.732 -3.921,-0.136 -7.095,-0.205 -9.519,-0.205 l -3.257,0 0,28.701 c 0,4.593 0.022,7.771 0.066,9.539 0.044,1.768 0.178,3.239 0.403,4.416 -0.908,-0.156 -1.824,-0.273 -2.749,-0.352 -0.928,-0.078 -1.926,-0.117 -2.996,-0.117 -0.908,0 -1.763,0.039 -2.566,0.117 -0.803,0.078 -1.572,0.199 -2.312,0.355 z"
         inkscape:connector-curvature="0" />
      <path
         id="path3567"
         d="m 260.946,534.847 c 0.151,-7.316 0.293,-14.492 0.425,-21.525 0.132,-7.031 0.2,-14.046 0.2,-21.038 0,-7.764 -0.059,-15.122 -0.171,-22.075 -0.115,-6.95 -0.286,-13.843 -0.515,-20.674 0.857,0.156 1.704,0.273 2.542,0.352 0.835,0.078 1.765,0.117 2.786,0.117 0.977,0 1.895,-0.039 2.754,-0.117 0.857,-0.078 1.672,-0.195 2.449,-0.352 -0.293,8.125 -0.522,15.928 -0.688,23.403 -0.166,7.475 -0.249,14.443 -0.249,20.903 0,6.704 0.042,12.898 0.125,18.587 0.083,5.689 0.249,11.193 0.5,16.516 0.769,0.042 1.66,0.073 2.676,0.093 1.013,0.02 2.656,0.029 4.927,0.029 4.864,0 9.192,-0.151 12.984,-0.454 3.789,-0.303 7.085,-0.776 9.883,-1.421 0,0.369 -0.022,0.972 -0.062,1.807 -0.041,0.838 -0.061,1.502 -0.061,1.99 0,0.368 0.02,0.981 0.061,1.838 0.039,0.859 0.039,1.533 0,2.021 -6.618,-0.103 -12.08,-0.181 -16.384,-0.234 -4.305,-0.051 -7.513,-0.078 -9.625,-0.078 -2.639,0 -5.176,0.027 -7.612,0.078 -2.438,0.054 -4.752,0.132 -6.945,0.234 z"
         inkscape:connector-curvature="0" />
      <path
         id="path3569"
         d="m 315.991,534.847 c 0.332,-4.348 0.571,-9.104 0.718,-14.268 0.146,-5.161 0.22,-10.977 0.22,-17.441 0,-8.942 -0.073,-17.876 -0.22,-26.799 -0.146,-8.924 -0.364,-17.859 -0.657,-26.805 1.424,0.105 3.143,0.184 5.156,0.234 2.015,0.054 5.381,0.078 10.101,0.078 5.573,0 10.202,-0.024 13.884,-0.078 3.682,-0.051 7.332,-0.129 10.955,-0.234 0,0.449 -0.021,1.141 -0.063,2.078 -0.042,0.937 -0.062,1.628 -0.062,2.077 0,0.449 0.02,1.111 0.062,1.985 0.042,0.876 0.063,1.538 0.063,1.984 -2.473,-0.596 -5.796,-1.055 -9.969,-1.374 -4.174,-0.317 -9.846,-0.537 -17.016,-0.657 l -2.682,0 c -0.134,2.344 -0.225,4.832 -0.268,7.459 -0.045,2.627 -0.066,6.387 -0.066,11.276 l 0,8.608 0,3.906 8.896,0 c 3.596,0 6.899,-0.085 9.912,-0.256 3.01,-0.171 6.011,-0.452 9.004,-0.838 0,0.413 -0.021,0.887 -0.061,1.421 -0.042,0.535 -0.062,1.336 -0.062,2.405 0,0.988 0.01,1.719 0.029,2.192 0.019,0.473 0.052,0.915 0.093,1.325 -6.104,-0.352 -11.115,-0.596 -15.037,-0.732 -3.92,-0.137 -7.094,-0.205 -9.519,-0.205 l -3.257,0 0,28.701 c 0,4.593 0.021,7.771 0.066,9.539 0.043,1.768 0.178,3.239 0.402,4.416 -0.908,-0.156 -1.824,-0.273 -2.749,-0.352 -0.928,-0.078 -1.927,-0.117 -2.995,-0.117 -0.908,0 -1.764,0.039 -2.566,0.117 -0.802,0.078 -1.572,0.199 -2.312,0.355 z"
         inkscape:connector-curvature="0" />
      <path
         id="path3571"
         d="m 165.873,184.797 c 1.378,5.93 110.068,19.517 179.063,86.25 5.037,-1.575 2.813,-4.688 2.813,-4.688 0,0 -34.256,-51.539 -76.875,-68.438 -42.622,-16.899 -80.815,-14.977 -90,-15.938 -9.186,-0.96 -12.513,-0.404 -15.001,2.814 z"
         inkscape:connector-curvature="0"
         style="fill:#ff1100" />
      <circle
         id="circle3573"
         r="19.688"
         cy="169.797"
         cx="283.99799" />
      <path
         id="path3575"
         d="m 221.874,280.563 14.695,-22.736 c 0,0 41.866,15.25 57.117,28.004 15.252,12.755 52.681,77.636 52.681,77.636 l -58.503,-57.395 c 0,0 -18.854,-11.646 -22.735,-9.15 0,0 6.376,23.568 7.208,30.776 0.833,7.21 6.101,107.026 6.101,107.026 0,0 -9.983,-30.777 -19.41,-38.54 0.555,-37.708 -3.05,-56.009 -4.713,-65.158 -1.664,-9.15 -7.487,-23.568 -14.696,-34.658 -7.209,-11.091 -17.745,-15.805 -17.745,-15.805 z"
         inkscape:connector-curvature="0"
         style="fill:#101177" />
      <path
         id="path3577"
         d="m 343.02,343.781 c 0,14.382 11.701,26.084 26.084,26.084 14.382,0 26.084,-11.702 26.084,-26.084 0,-14.384 -11.702,-26.084 -26.084,-26.084 -14.383,0 -26.084,11.7 -26.084,26.084 z"
         inkscape:connector-curvature="0" />
      <path
         id="path3579"
         d="m 344.27,343.781 c 0,-13.694 11.14,-24.834 24.834,-24.834 13.693,0 24.834,11.14 24.834,24.834 0,13.692 -11.141,24.834 -24.834,24.834 -13.694,0 -24.834,-11.142 -24.834,-24.834 z"
         inkscape:connector-curvature="0"
         style="fill:#ffffff" />
      <path
         id="path3581"
         d="m 368.932,328.153 -6.283,-3.201 -0.003,-3.992 0.29,-0.078 c 0.281,-0.077 6.976,-1.845 12.73,0.221 l 0.256,0.092 0,3.585 -6.812,3.465 -0.178,-0.092 z"
         inkscape:connector-curvature="0" />
      <path
         id="path3583"
         d="m 392.69,343.288 -3.408,1.107 -0.168,-0.17 -5.232,-5.24 1.133,-7.164 3.799,-1.233 0.164,0.25 c 0.158,0.245 3.91,6.065 3.723,12.175 l -0.011,0.275 z"
         inkscape:connector-curvature="0" />
      <path
         id="path3585"
         d="m 385.395,355.217 2.346,3.23 -0.186,0.231 c -0.186,0.229 -4.563,5.593 -10.43,7.305 l -0.264,0.077 -0.16,-0.223 -1.946,-2.68 3.474,-6.805 7.166,-1.135 z"
         inkscape:connector-curvature="0" />
      <path
         id="path3587"
         d="m 359.965,356.345 3.293,6.462 -2.344,3.23 -0.28,-0.106 c -0.273,-0.104 -6.729,-2.608 -10.169,-7.661 l -0.156,-0.227 2.109,-2.9 7.547,1.202 z"
         inkscape:connector-curvature="0" />
      <path
         id="path3589"
         d="m 348.974,344.028 -3.569,-1.158 0.015,-0.299 c 0.015,-0.292 0.403,-7.206 4.144,-12.039 l 0.168,-0.217 3.408,1.107 1.191,7.551 -5.127,5.13 -0.23,-0.075 z"
         inkscape:connector-curvature="0" />
      <polygon
         id="polygon3591"
         points="374.518,351.547 363.405,351.547 359.885,340.71 369.104,334.012 378.323,340.71 374.801,351.547 " />
    </g>
  </g>
</svg>
