<svg xmlns="http://www.w3.org/2000/svg" viewBox="0 0 296 296"><title>lettir</title><circle cx="148" cy="148" r="148"/><circle cx="148" cy="148" r="145" fill="#811719"/><circle cx="148" cy="148" r="125"/><path d="M163.1,57.2c17.1-8.7,38.2-1,40.5,15.2-8.4,3.2-16.2,1.7-23.4-3.2s-11.5-8-17.1-12" transform="translate(-2 -2)" fill="#fff"/><path d="M95.6,71.6c6.5-20.1,24.9-11.6,38.2-16.9-6.5,14-24.8,21.9-38.2,16.9" transform="translate(-2 -2)" fill="#fff"/><path d="M142.7,242.8c-11.3,14.3-29,17.3-41.1,9.8,6.9-8.5,20.9-11.9,41.1-9.8" transform="translate(-2 -2)" fill="#fff"/><path d="M71.6,61.2c5,14.3.9,32-8.7,37.7-7.1-12.1-3.2-29.3,8.7-37.7" transform="translate(-2 -2)" fill="#fff"/><path d="M218.9,78c-12.6-8.8-18-20.4-19.4-34.6C214,47.3,224,64.8,218.9,78Z" transform="translate(-2 -2)" fill="#fff"/><path d="M50.8,84.9c6.3,13.8,9.3,26.7,2.6,40.6-11.2-8.5-12.3-25.4-2.6-40.6" transform="translate(-2 -2)" fill="#fff"/><path d="M267.3,147.8c1.8,14.2-7.9,27.8-22.7,31.7-1.6-11.3,8.9-25.9,22.7-31.7" transform="translate(-2 -2)" fill="#fff"/><path d="M199,252c-11.1,8.2-30.5,4.9-38.1-6.4,11.7-5.8,25-3.6,38.1,6.4" transform="translate(-2 -2)" fill="#fff"/><path d="M226.7,60.5c13.6,11.2,17.6,27.7,9.9,38.2-11.9-10.2-11.1-23.4-9.9-38.2" transform="translate(-2 -2)" fill="#fff"/><path d="M249.2,153.3c-2.5-15.6,3-27.6,13.1-38.4,5.6,12.7-.8,31.9-13.1,38.4" transform="translate(-2 -2)" fill="#fff"/><path d="M49.8,153.1c-12.9-7.8-17.6-21.9-12.7-36.2,10.5,7.8,16.1,23.3,12.7,36.2" transform="translate(-2 -2)" fill="#fff"/><path d="M32.5,147.4c13.3,7.4,21.7,17,22.9,32.1-14.4-3.6-22.9-15.3-22.9-32.1" transform="translate(-2 -2)" fill="#fff"/><path d="M246.8,124.6c-6.1-13.8-4.8-26.5,1.4-39,9.7,10.4,9.3,29-1.4,39" transform="translate(-2 -2)" fill="#fff"/><path d="M241.5,129c-15.6.5-23.4-10.2-32.6-18.9,13.9-4.5,26.3,2.5,32.6,18.9" transform="translate(-2 -2)" fill="#fff"/><path d="M80,77.7C76.8,64,83.8,51.9,99.5,43.5c-1.1,14.7-6.7,26-19.5,34.2" transform="translate(-2 -2)" fill="#fff"/><path d="M81.8,83.3c18-9.7,28.6-9.4,39.1.8-13,3.2-25.5,8.4-39.1-.8" transform="translate(-2 -2)" fill="#fff"/><path d="M220.7,146.1c18,6.3,17,21.9,19,35.4-14.2-7-16.7-20.6-19-35.4" transform="translate(-2 -2)" fill="#fff"/><path d="M232,104.4c-14.1,5.3-24.5-2.8-35.8-9,12.3-8.1,25.5-4.6,35.8,9" transform="translate(-2 -2)" fill="#fff"/><path d="M66.7,104.4C77.9,92,90,88.8,104.2,94.3c-11.5,5.4-21.7,16.1-37.5,10.1" transform="translate(-2 -2)" fill="#fff"/><path d="M58.9,128.6c7.5-16,17.4-22.1,32.3-19.6-9.8,8.7-16.3,21.4-32.3,19.6" transform="translate(-2 -2)" fill="#fff"/><path d="M178.6,85c9.7-10.3,21.4-10.9,37.3-2.5-6.6,7.6-9.8,7.8-37.3,2.5" transform="translate(-2 -2)" fill="#fff"/><path d="M242.7,153.7c-15.5-2.5-18.7-16.5-26.3-27.1,13.6-.2,24.9,11.6,26.3,27.1" transform="translate(-2 -2)" fill="#fff"/><path d="M262.3,180c-4.2,5.1-8.5,10.6-12.7,15.8a9.3,9.3,0,0,1-12.1,2l-6.4-4,.3-.2a65.9,65.9,0,0,1,30.1-13.5h.8" transform="translate(-2 -2)" fill="#fff"/><path d="M83.1,126.1c-7,11.9-11.4,24.8-26,28.3.4-14.7,9-24.4,26-28.3" transform="translate(-2 -2)" fill="#fff"/><path d="M63.1,179.6C60,163.8,66,151.8,79.4,147c-2.4,12.3-2.7,25.3-16.3,32.6" transform="translate(-2 -2)" fill="#fff"/><path d="M65.1,196.7c-4.1,1.3-8.4,4.2-12.1,3.6-6.3-1-13.7-11.8-14.2-21.7l27,15.7a21.7,21.7,0,0,0-.7,2.4" transform="translate(-2 -2)" fill="#fff"/><path d="M218.1,165.9c9.5,5.4,12.9,14.4,10.7,27.5-11.5-.8-12.5-1.8-11.8-13.2.2-4.8.7-9.5,1.1-14.3" transform="translate(-2 -2)" fill="#fff"/><path d="M158.2,239.3c.1-4.6,2-10.7,3.6-15.4h33.3l-9.1,7.5a1.9,1.9,0,0,1-3.1-1.2c-.4-2.4-.6-4.7-1-6.7" transform="translate(-2 -2)" fill="#fff"/><path d="M81.3,166.6c.5,5.8,1.1,10.8,1.4,15.9.2,2.9,0,5.8,0,9.5l-10.5,2.1c-4-10.7-1.1-19.9,9.1-27.5" transform="translate(-2 -2)" fill="#fff"/><path d="M75.9,238c2-4.5,5.2-2,17.4-7.5,6.6,2.2,12.5,3.8,19.1,6-5.8,9-20.5,7.2-36.5,1.5" transform="translate(-2 -2)" fill="#fff"/><path d="M215.8,241c-9.6,5.2-19.2,4.6-30.2-2.9,7.2-3.1,8.2-6.5,15.1-9.4-2.9,11.4,12.7,7.2,15.1,12.3" transform="translate(-2 -2)" fill="#fff"/><path d="M142.5,239.8c-8.5-3.9-16.9-6-20.3-15.2,15.5-2.9,17.5-3.1,20.3,15.2" transform="translate(-2 -2)" fill="#fff"/><path d="M103.6,226.2a.7.7,0,0,1,.4-1.2l4.1-.4h6.1a.7.7,0,0,1,.7.7v8.5a.7.7,0,0,1-1.1.5l-10.2-8.1" transform="translate(-2 -2)" fill="#fff"/><path d="M163.1,124.8v-1.2a12,12,0,0,0,.3-2l.3-2.2c1.8-3.8,3-2.5,4.4-3.2l.3-.2a2.8,2.8,0,0,1,1.2-.4h1.6a3.1,3.1,0,0,1,2.8,1.8l.3.8a3.1,3.1,0,0,1,.2,1.9c-.2,1.1-.6,2.9-.6,3.2s-1.1,3.1-1.6,4.4a1.7,1.7,0,0,0,0,1.4c.5,1.4,1.7,4.6,2.4,5s1.3,6.9,1.4,8.1v.4l-.6,10a1.6,1.6,0,0,1-.5,1.1l-4,4.5a1.8,1.8,0,0,1-2.5.2,1.3,1.3,0,0,1-.1-1.9l2.7-2.7a4.2,4.2,0,0,0,1.3-3.3l-.3-3.6a3.1,3.1,0,0,0-.9-1.8h-.1a1.9,1.9,0,0,0-2.7.1l-7.6,7.3h0l-1.7,6.9h0l-3.2,8.9h0l-6.6,10.1h-.1l-7.8,3c-.5.1-6.7,3.8-6.9,3.9l-3.2,2.7a.1.1,0,0,1-.1.1l-.8,4.2c0,.1-.1.2-.2.1l-6.1-3.8c-.1-.1-.1-.2,0-.2l4.3-4.3h0l12.7-7.9h0c.1-.1,2.7-2.6,2.2-2.9a14.2,14.2,0,0,0-2.8-.2h-.1l-3.9,3h0l-5.3,2.8h-.2l-1.3-1.2c-.1-.1-.1-.2,0-.2l4.8-4.8h0l5.7-4.4h0l3.5-1.6,1-.7.9-1.1a2.5,2.5,0,0,0,.5-1.9v-.6a2.8,2.8,0,0,0-.8-1.5l-3.8-3.4a2.8,2.8,0,0,1-1-2.7v-.2a1.4,1.4,0,0,1,.2-.6l2.9-5.8h0l3.1-5.5h0l3.1-4.7a1.9,1.9,0,0,0,.3-1v-.3a1.8,1.8,0,0,0-2-1.6l-1.9.2a9.4,9.4,0,0,0-5.3,2.3c-3.1,2.8-8.5,7.5-8.9,7.6a7.5,7.5,0,0,1-2.4-1.1.8.8,0,0,1-.1-1.3l11.4-9.3.3-.2,6-3.7,3-2a5.4,5.4,0,0,1,2.5-.9l6.4-.6,3.9-.5c.3-.2-.2-.4.1-.9Z" transform="translate(-2 -2)" fill="#811719" stroke="#fff" stroke-miterlimit="10"/><path d="M71.4,231.3l-.7-.7a3.3,3.3,0,0,1-.9-2.7,7.2,7.2,0,0,0-1.7-5.8l-9.4-10.8a4.2,4.2,0,0,1-1-2l-.5-2.3a4.2,4.2,0,0,1,2.1-4.5l12.3-6.1,1.2-.4,8.6-1.6H221.8l1.4.2,7.6,2.8,1.8.7,6,2.8a5.6,5.6,0,0,1,1.5,1l1.7,1.7a4.1,4.1,0,0,1,1.1,4.1l-.2.9a3.9,3.9,0,0,1-1.2,1.9l-4.6,4a2.7,2.7,0,0,0-.7.8l-5.8,8.5a6.4,6.4,0,0,0-1.1,3l-.3,2.6a3.1,3.1,0,0,1-2.8,2.8,4.6,4.6,0,0,1-3.2-.9l-9.7-6.5a7.6,7.6,0,0,0-4.4-1.3H96.6s-9.3,1-10,1.3l-6.3,2.5-5.2,4.2a2.5,2.5,0,0,1-3.7-.1Z" transform="translate(-2 -2)" stroke="#fff" stroke-miterlimit="10" stroke-width="0.8"/><path d="M58.3,212.9h-.9a4.1,4.1,0,0,0-1.9.4L22.4,226.1l23.7,1.5a3.8,3.8,0,0,1,3.6,3.7v.7L37.4,249l60-18-14.2-1.3a7,7,0,0,0-3.2.5l-3.9,1.6a4,4,0,0,1-4.4-.9l-2-2-.9-4.6a6,6,0,0,0-1.3-2.8L62,214.8A4.4,4.4,0,0,0,58.3,212.9Z" transform="translate(-2 -2)" stroke="#fff" stroke-miterlimit="10" stroke-width="0.8"/><path d="M226.5,234.2a7,7,0,0,0,3.2-5.9v-.2a9.8,9.8,0,0,1,1.5-5.2l5.9-8.7,42.1,15.6-29.3,3,12.5,20.8-61.8-18.3,21.3.2a7.3,7.3,0,0,0,4.6-1.3Z" transform="translate(-2 -2)" stroke="#fff" stroke-miterlimit="10" stroke-width="0.8"/><path d="M124.5,214.6h.6l-2,6.3H105.3v-.6h.9a2.2,2.2,0,0,0,2.1-1,6,6,0,0,0,.4-2.5V202a5,5,0,0,0-.5-2.7,2.4,2.4,0,0,0-2-.7h-.9V198h10.4v.6a7.9,7.9,0,0,0-2.6.3,1.8,1.8,0,0,0-1,.9,6.8,6.8,0,0,0-.3,2.6v14.5a4.1,4.1,0,0,0,.3,1.9,1,1,0,0,0,.6.5,11.1,11.1,0,0,0,2.6.2H117a10.7,10.7,0,0,0,3.7-.4,5.2,5.2,0,0,0,2-1.4,12.1,12.1,0,0,0,1.8-3.1" transform="translate(-2 -2)" fill="#fff"/><path d="M131.3,212.3a6.9,6.9,0,0,0,1.5,4.8,4.8,4.8,0,0,0,3.5,1.8,4,4,0,0,0,2.4-.7,5.9,5.9,0,0,0,1.7-2.6l.5.3a7.4,7.4,0,0,1-1.8,3.8,5,5,0,0,1-3.8,1.7,5.6,5.6,0,0,1-4.3-1.9,7.3,7.3,0,0,1-1.8-5.2,7.8,7.8,0,0,1,1.8-5.5,6,6,0,0,1,4.6-2,5,5,0,0,1,3.8,1.5,5.6,5.6,0,0,1,1.5,4.1h-9.6Zm0-.9h6.4a15.2,15.2,0,0,0-.3-1.9,2.8,2.8,0,0,0-1.1-1.3,3,3,0,0,0-1.6-.5,2.8,2.8,0,0,0-2.2,1,4.2,4.2,0,0,0-1.2,2.7m7.2-11.5-4.5,5.2h-.5l1.6-5.2h3.4" transform="translate(-2 -2)" fill="#fff"/><path d="M150.1,202.5V207h3.2v1.1h-3.2v9a2.6,2.6,0,0,0,.4,1.8,1.4,1.4,0,0,0,1,.5,1.9,1.9,0,0,0,1-.3,1.6,1.6,0,0,0,.7-.9h.6a4.5,4.5,0,0,1-1.5,2.2,3.1,3.1,0,0,1-2,.7,2.5,2.5,0,0,1-1.4-.4,2.7,2.7,0,0,1-1-1.1,6.1,6.1,0,0,1-.3-2.2v-9.3h-2.2v-.5a5.5,5.5,0,0,0,1.7-1.1,7,7,0,0,0,1.5-1.9,22.4,22.4,0,0,0,1-2.1h.5" transform="translate(-2 -2)" fill="#fff"/><path d="M162.7,202.5V207h3.2v1.1h-3.2v9a2.6,2.6,0,0,0,.4,1.8,1.4,1.4,0,0,0,1,.5,1.9,1.9,0,0,0,1-.3,1.6,1.6,0,0,0,.7-.9h.6a5.3,5.3,0,0,1-1.5,2.2,3.1,3.1,0,0,1-2,.7,2.5,2.5,0,0,1-1.4-.4,2.7,2.7,0,0,1-1-1.1,6.1,6.1,0,0,1-.3-2.2v-9.3H158v-.5a5.5,5.5,0,0,0,1.7-1.1,7,7,0,0,0,1.5-1.9,22.4,22.4,0,0,0,1-2.1h.5" transform="translate(-2 -2)" fill="#fff"/><path d="M177.7,206.7v11.1a5.4,5.4,0,0,0,.2,1.7,1.3,1.3,0,0,0,.7.6l1.6.2v.5h-8v-.5l1.6-.2a1.3,1.3,0,0,0,.7-.6,3.7,3.7,0,0,0,.2-1.7v-5.3a14.8,14.8,0,0,0-.2-2.9,1.6,1.6,0,0,0-.4-.7l-.7-.2-1.2.2-.3-.5,5-1.7h.8" transform="translate(-2 -2)" fill="#fff"/><path d="M189.4,206.7v3.1c1.2-2.1,2.3-3.1,3.6-3.1a2.2,2.2,0,0,1,1.4.5,1.3,1.3,0,0,1,.5,1.2,1.3,1.3,0,0,1-.4,1,1.2,1.2,0,0,1-.9.4,2.4,2.4,0,0,1-1.2-.5,2.3,2.3,0,0,0-1-.5l-.6.3a6.9,6.9,0,0,0-1.4,2v6.6a3.7,3.7,0,0,0,.3,1.7,1.6,1.6,0,0,0,.7.7,2.6,2.6,0,0,0,1.4.3v.5h-7.1v-.5a3.5,3.5,0,0,0,1.6-.3,1.1,1.1,0,0,0,.5-.8,5,5,0,0,0,.1-1.5v-5.4a17.2,17.2,0,0,0-.1-2.9,1.6,1.6,0,0,0-.4-.7l-.7-.2-1.1.2-.2-.5,4.2-1.7h.8Z" transform="translate(-2 -2)" fill="#fff"/><circle cx="174.1" cy="193.3" r="5.4" fill="#811719" stroke="#fff" stroke-miterlimit="10" stroke-width="0.8"/><path d="M52.3,49.1l.3.2a2,2,0,0,0-.3,1.4,11.3,11.3,0,0,0,.8,2.3l4.3,9.6-.2.2L46.9,59.5l-2.3-.6a1.5,1.5,0,0,0-1,.5l-.3-.2,4-4.5.3.2V55a2.1,2.1,0,0,0-.6,1,.5.5,0,0,0,.2.4l.3.2,1.2.4,6.5,2.2-2.5-5.6L52,52.3l-.4-.5-.5-.2h-.5l-.8.7-.3-.2Z" transform="translate(-2 -2)" fill="#fff"/><path d="M58.3,43.3a1.4,1.4,0,0,1,2.4,1.1,1.4,1.4,0,0,1-1.5,1.4,1.4,1.4,0,0,1-.9-2.5Zm3.8,2.3,4.6,5.1a2.1,2.1,0,0,0,.9.7,1.2,1.2,0,0,0,.8-.3l.2.2-3.5,3.1-.2-.2a1.1,1.1,0,0,0,.4-.8q0-.3-.6-1l-3.4-3.8a2.1,2.1,0,0,0-.9-.7,1.1,1.1,0,0,0-.8.3l-.2-.3Z" transform="translate(-2 -2)" fill="#fff"/><path d="M76,45.8l-6.3-3.7-1.6-.7h-.7l-.2-.3,3.7-2.7.2.3a.8.8,0,0,0-.4.5.6.6,0,0,0,.1.5l1.1.8L75,42.3l-.8-2.9a5.4,5.4,0,0,0-.6-1.7l-.4-.3-.7.3-.2-.3,2.3-1.7.2.3a1.2,1.2,0,0,0-.4.6,5.6,5.6,0,0,0,.2,1.6l1.7,7.2Z" transform="translate(-2 -2)" fill="#fff"/><path d="M88.1,32.2,84,34.6a4.5,4.5,0,0,0,2.2,1.9,1.9,1.9,0,0,0,1.7-.1,1.7,1.7,0,0,0,.7-.8,3.9,3.9,0,0,0,.3-1.5h.4a5.3,5.3,0,0,1-.3,2.5,3.4,3.4,0,0,1-1.4,1.5,3.3,3.3,0,0,1-3.3.2A5.2,5.2,0,0,1,82,36.2a4.9,4.9,0,0,1-.7-3.6A3.6,3.6,0,0,1,83,30.1a3,3,0,0,1,2.5-.2A4.9,4.9,0,0,1,88.1,32.2Zm-2.3.6a8.5,8.5,0,0,0-1.2-1.7,1.7,1.7,0,0,0-.9-.5h-.5a.9.9,0,0,0-.4.8,4.1,4.1,0,0,0,.7,2.2l.2.3Z" transform="translate(-2 -2)" fill="#fff"/><path d="M95,24.2l.8,1.8a6.3,6.3,0,0,1,.6-2.3,2.2,2.2,0,0,1,1-.9,1.1,1.1,0,0,1,.9-.1,1.3,1.3,0,0,1,.7.7,1.4,1.4,0,0,1,.1,1,.9.9,0,0,1-.5.6,1.3,1.3,0,0,1-.9.1h-.8l-.4.4a1.9,1.9,0,0,0-.2,1.1,6.3,6.3,0,0,0,.6,1.9l.8,1.8.2.5.3.6.5.2.7-.2v.3l-4.3,1.9v-.3a1,1,0,0,0,.6-.6,2.9,2.9,0,0,0-.4-1.4l-2-4.4-.5-.8-.4-.2h-.6v-.3Z" transform="translate(-2 -2)" fill="#fff"/><path d="M112.3,21.9l-4.5,1.5a4.5,4.5,0,0,0,1.8,2.3,1.9,1.9,0,0,0,1.7.2,1.7,1.7,0,0,0,.9-.6,3.9,3.9,0,0,0,.6-1.4h.4a5.2,5.2,0,0,1-.8,2.4,3.4,3.4,0,0,1-1.7,1.2,3.3,3.3,0,0,1-3.2-.5,5.2,5.2,0,0,1-1.7-2.6,4.9,4.9,0,0,1,0-3.6,3.6,3.6,0,0,1,2.2-2.1,3,3,0,0,1,2.5.3A4.9,4.9,0,0,1,112.3,21.9Zm-2.4.1a8.6,8.6,0,0,0-.8-1.9,1.7,1.7,0,0,0-.8-.6h-.5a.9.9,0,0,0-.6.7,4.1,4.1,0,0,0,.2,2.3v.3Z" transform="translate(-2 -2)" fill="#fff"/><path d="M134.7,17.1l-4.7.7a4.5,4.5,0,0,0,1.3,2.6,1.9,1.9,0,0,0,1.6.5,1.7,1.7,0,0,0,1-.5,3.9,3.9,0,0,0,.8-1.3l.3.2a5.3,5.3,0,0,1-1.2,2.2,3.4,3.4,0,0,1-1.9.9,3.3,3.3,0,0,1-3.1-1,5.2,5.2,0,0,1-1.2-2.8,4.9,4.9,0,0,1,.6-3.6,3.6,3.6,0,0,1,2.5-1.7,3,3,0,0,1,2.4.7A4.9,4.9,0,0,1,134.7,17.1Zm-2.4-.3a8.5,8.5,0,0,0-.5-2,1.7,1.7,0,0,0-.6-.8h-.5a.9.9,0,0,0-.7.6,4.1,4.1,0,0,0-.2,2.3v.3Z" transform="translate(-2 -2)" fill="#fff"/><path d="M145.9,12l.3,2.9h-.3a4.7,4.7,0,0,0-1.3-1.7,1.9,1.9,0,0,0-1.2-.4.9.9,0,0,0-.6.3.8.8,0,0,0-.2.6.8.8,0,0,0,.2.5l1.7,1.2a6.9,6.9,0,0,1,1.9,1.5,2.5,2.5,0,0,1,.5,1.4,3.1,3.1,0,0,1-.3,1.4,2.5,2.5,0,0,1-1,1.1,2.9,2.9,0,0,1-1.4.4l-1.7-.3h-.4q-.3,0-.5.5h-.3l-.3-3.1h.3a4,4,0,0,0,1.2,1.8,2.2,2.2,0,0,0,1.4.5,1,1,0,0,0,.7-.3.9.9,0,0,0,.2-.7,1.1,1.1,0,0,0-.3-.8l-1.3-.9a9.8,9.8,0,0,1-1.9-1.4,2.6,2.6,0,0,1-.7-1.6,2.7,2.7,0,0,1,.6-1.8,2.5,2.5,0,0,1,2-.9,2.9,2.9,0,0,1,1.4.3h.7l.3-.4Z" transform="translate(-2 -2)" fill="#fff"/><path d="M156.6,9.2v3.2h2.1v.9h-2.1l-.2,5.3a4.1,4.1,0,0,0,0,1l.2.4h.3q.6,0,1.2-.9l.3.2a2.5,2.5,0,0,1-2.5,1.7,2.2,2.2,0,0,1-1.4-.5,2,2,0,0,1-.7-1.1,8.9,8.9,0,0,1,0-1.7l.2-4.7h-1.1v-.3a12,12,0,0,0,2.1-1.7,10.6,10.6,0,0,0,1.5-2Z" transform="translate(-2 -2)" fill="#fff"/><path d="M178.1,15.1l-.3,1.1a5,5,0,0,1,1.5-.8,2.9,2.9,0,0,1,1.4,0,2.4,2.4,0,0,1,1.3.7,2.5,2.5,0,0,1,.6,1.4,5.5,5.5,0,0,1,1.7-.8,2.9,2.9,0,0,1,1.5,0,2.3,2.3,0,0,1,1.3.7,2.2,2.2,0,0,1,.5,1.2,7.1,7.1,0,0,1-.3,2l-.8,3.5a2.5,2.5,0,0,0-.1,1.3,1.1,1.1,0,0,0,.7.5v.3l-4.4-1.1v-.3a1,1,0,0,0,.9-.2,2.5,2.5,0,0,0,.4-1.1l.9-3.6a6.9,6.9,0,0,0,.3-1.5.9.9,0,0,0-.2-.5l-.4-.3h-.9l-1,.7-1.1,4.5a2.7,2.7,0,0,0-.1,1.2,1,1,0,0,0,.7.6v.3l-4.4-1.1v-.3h.6l.4-.3a4.2,4.2,0,0,0,.3-.9l.9-3.6a6.8,6.8,0,0,0,.3-1.5.9.9,0,0,0-.2-.5l-.4-.3h-.7l-1.1.7-1.1,4.5a2.7,2.7,0,0,0-.1,1.2.9.9,0,0,0,.7.5v.3l-4.3-1v-.3a1.1,1.1,0,0,0,.8-.2,2.6,2.6,0,0,0,.4-1.1l1.1-4.8a2.5,2.5,0,0,0,.1-1.2,1.1,1.1,0,0,0-.7-.5v-.3Z" transform="translate(-2 -2)" fill="#fff"/><path d="M198.3,21.1l-2.4,6.4a2.1,2.1,0,0,0-.2,1.2,1.2,1.2,0,0,0,.7.6v.3l-4.4-1.6v-.3a1.1,1.1,0,0,0,.9,0,2.1,2.1,0,0,0,.6-1l1.8-4.7a2.1,2.1,0,0,0,.2-1.2,1.2,1.2,0,0,0-.7-.6v-.3Zm.2-4.4a1.4,1.4,0,0,1,.8.8,1.4,1.4,0,0,1,0,1.1,1.4,1.4,0,0,1-.7.8,1.4,1.4,0,0,1-1.1,0,1.4,1.4,0,0,1-.8-1.8,1.4,1.4,0,0,1,.7-.8A1.4,1.4,0,0,1,198.5,16.7Z" transform="translate(-2 -2)" fill="#fff"/><path d="M209.5,21.7,205,31.4a2.1,2.1,0,0,0-.3,1.2q.1.3.6.6v.3l-4.3-2v-.3a1.1,1.1,0,0,0,.9.1c.2-.1.4-.4.6-.9l3.8-8.2a2,2,0,0,0,.3-1.1,1.1,1.1,0,0,0-.6-.6v-.3Z" transform="translate(-2 -2)" fill="#fff"/><path d="M217.1,30l-3.4,6a2.1,2.1,0,0,0-.4,1.1,1.2,1.2,0,0,0,.6.7l-.2.3-4.1-2.3.2-.3a1.1,1.1,0,0,0,.9.1q.3-.1.7-.9l2.5-4.4a2.1,2.1,0,0,0,.4-1.1,1.1,1.1,0,0,0-.6-.7l.2-.3Zm.9-4.3a1.4,1.4,0,0,1,.7.9,1.4,1.4,0,0,1-.1,1.1,1.4,1.4,0,0,1-.9.7,1.4,1.4,0,0,1-1.8-1,1.4,1.4,0,0,1,.1-1.1,1.4,1.4,0,0,1,.9-.7A1.4,1.4,0,0,1,218.1,25.7Z" transform="translate(-2 -2)" fill="#fff"/><path d="M227.8,33,226,35.7l1.7,1.2-.5.8-1.7-1.2-3,4.4-.5.8a.7.7,0,0,0,0,.4l.2.3q.5.3,1.5-.1v.3a2.5,2.5,0,0,1-3,.1,2.2,2.2,0,0,1-.9-1.2,2,2,0,0,1,0-1.3l.9-1.5,2.6-3.9-.9-.6.2-.3,2.6-.3a10.6,10.6,0,0,0,2.3-.9Z" transform="translate(-2 -2)" fill="#fff"/><path d="M231.6,49.2a4.6,4.6,0,0,1-3.1-.7,1.7,1.7,0,0,1-.6-1.2,1.6,1.6,0,0,1,.4-1.3,2.4,2.4,0,0,1,1.8-.8,16.1,16.1,0,0,1,4.2.8l.6-.7.7-1a1,1,0,0,0,0-.6,1.2,1.2,0,0,0-.4-.6,1.7,1.7,0,0,0-.9-.4h-.4a.8.8,0,0,0-.1.5,1.2,1.2,0,0,1-.2.8,1,1,0,0,1-.8.4,1.2,1.2,0,0,1-.9-.3,1.4,1.4,0,0,1-.5-.9,1.1,1.1,0,0,1,.2-.9,1.9,1.9,0,0,1,1.2-.6,3.3,3.3,0,0,1,1.7.2,6,6,0,0,1,1.7,1,3.3,3.3,0,0,1,1.2,1.7,2.5,2.5,0,0,1,0,1.5,7.3,7.3,0,0,1-1,1.5l-2.2,2.6-.4.6a.4.4,0,0,0,0,.3v.2h.6v.3l-1.4.2a2.1,2.1,0,0,1-1.1-.5,1.8,1.8,0,0,1-.7-1A1.6,1.6,0,0,1,231.6,49.2Zm.4-.5,1.9-2.2a5.4,5.4,0,0,0-2.2,0,1.7,1.7,0,0,0-.9.5,1.1,1.1,0,0,0-.2.8.8.8,0,0,0,.3.6A1.8,1.8,0,0,0,232.1,48.7Z" transform="translate(-2 -2)" fill="#fff"/><path d="M246.4,52.8l-1.4,1.4a6.4,6.4,0,0,1,2.3-.2,2.2,2.2,0,0,1,1.2.6,1.1,1.1,0,0,1,.3.8,1.3,1.3,0,0,1-.4.9,1.4,1.4,0,0,1-.9.5.9.9,0,0,1-.8-.3,1.3,1.3,0,0,1-.4-.8,5.3,5.3,0,0,0,0-.6v-.2l-.5-.2a1.9,1.9,0,0,0-1,.2A6.3,6.3,0,0,0,243,56l-1.4,1.4-.4.4-.4.5a.7.7,0,0,0,0,.5l.4.6-.2.2-3.3-3.4.2-.2a1,1,0,0,0,.8.3,2.9,2.9,0,0,0,1.1-.8l3.4-3.3.6-.7a.7.7,0,0,0,.1-.5l-.3-.6.2-.2Z" transform="translate(-2 -2)" fill="#fff"/><path d="M254.3,68.3l-3-3.7a4.5,4.5,0,0,0-1.6,2.4,1.9,1.9,0,0,0,.4,1.7,1.8,1.8,0,0,0,.9.6h1.5v.4a5.3,5.3,0,0,1-2.6,0,3.4,3.4,0,0,1-1.7-1.2,3.3,3.3,0,0,1-.6-3.2,5.2,5.2,0,0,1,1.8-2.5,4.9,4.9,0,0,1,3.4-1.2,3.6,3.6,0,0,1,2.7,1.4,3,3,0,0,1,.6,2.5A4.9,4.9,0,0,1,254.3,68.3Zm-.9-2.2a8.6,8.6,0,0,0,1.5-1.4,1.7,1.7,0,0,0,.3-.9.8.8,0,0,0-.2-.5.9.9,0,0,0-.9-.3,4.1,4.1,0,0,0-2.1,1l-.3.2Z" transform="translate(-2 -2)" fill="#fff"/><path d="M99,269.2l-1.5,3.6h-.3A4,4,0,0,0,97,270a3.1,3.1,0,0,0-1.5-1.7,2,2,0,0,0-1.5-.2,1.4,1.4,0,0,0-.9.8,1.3,1.3,0,0,0-.1.7,2.9,2.9,0,0,0,.4,1.1l1.3,1.7a8.3,8.3,0,0,1,1.7,2.9,3.2,3.2,0,0,1-.2,2.1,3.3,3.3,0,0,1-2.1,1.8A4.1,4.1,0,0,1,91,279l-.9-.5-.9-.9-.5-.4h-.5l-.6.3h-.3l1.8-4h.3a5,5,0,0,0,.1,3.2,3.4,3.4,0,0,0,1.7,1.9,2.2,2.2,0,0,0,1.6.2,1.6,1.6,0,0,0,1.2-1.7,2.5,2.5,0,0,0-.3-.9l-1.1-1.5a13.6,13.6,0,0,1-1.5-2.2,4.1,4.1,0,0,1-.5-1.6,3,3,0,0,1,.3-1.5,3.2,3.2,0,0,1,1.9-1.7,3.6,3.6,0,0,1,2.7.2l.9.6.7.8.6.6h.4l.5-.5Z" transform="translate(-2 -2)" fill="#fff"/><path d="M105.5,272.8l-1,2.8,1.8.7-.3.8-1.8-.7-1.7,4.6a3.8,3.8,0,0,0-.3.9.6.6,0,0,0,.1.4l.2.2q.5.2,1.3-.4l.2.3a2.3,2.3,0,0,1-2.7.8,2,2,0,0,1-1.1-.8,1.9,1.9,0,0,1-.3-1.1,8.1,8.1,0,0,1,.5-1.5l1.5-4.1-1-.4v-.3l2.3-.9a9.7,9.7,0,0,0,1.9-1.3Z" transform="translate(-2 -2)" fill="#fff"/><path d="M112.9,278a3.7,3.7,0,0,1,1.7,1.1,3.5,3.5,0,0,1,.9,1.9,5.1,5.1,0,0,1-.2,2.2,4.6,4.6,0,0,1-1.6,2.5,3.4,3.4,0,0,1-3.2.5,3.3,3.3,0,0,1-2.3-2,4.7,4.7,0,0,1-.1-3.1,4.7,4.7,0,0,1,1.8-2.6A3.3,3.3,0,0,1,112.9,278Zm-.1.6a1,1,0,0,0-.8.1,2.3,2.3,0,0,0-.8,1.1q-.4.9-.8,2.6a11.5,11.5,0,0,0-.4,1.7,1.7,1.7,0,0,0,.1,1,1,1,0,0,0,.6.5h.7a1.4,1.4,0,0,0,.7-.7,19.7,19.7,0,0,0,1.1-3.1,8.1,8.1,0,0,0,.4-2,1.5,1.5,0,0,0-.2-.9Z" transform="translate(-2 -2)" fill="#fff"/><path d="M123.1,281.6l-1.2,5.4a1.8,1.8,0,0,0,0,1,1.2,1.2,0,0,0,.9.5v.3l-4.6-1v-.3h.8l.4-.2a2.7,2.7,0,0,0,.3-.8l1.2-5.4-1.1-.2.2-.8,1.1.2v-1a2.7,2.7,0,0,1,1.3-1.8,3.5,3.5,0,0,1,2.6-.3,2.5,2.5,0,0,1,1.4.7,1.1,1.1,0,0,1,.3,1,.9.9,0,0,1-.4.6,1.2,1.2,0,0,1-.9.1,1,1,0,0,1-.6-.4.7.7,0,0,1-.1-.6v-.6a.3.3,0,0,0,0-.3l-.3-.2h-.4a1,1,0,0,0-.3.6l-.3,1.5-.2,1,1.2.2-.2.8Z" transform="translate(-2 -2)" fill="#fff"/><path d="M131.1,282.2v1l1.3-.8a2.5,2.5,0,0,1,1.2-.1,1.9,1.9,0,0,1,1.2.6,2.1,2.1,0,0,1,.5,1.2,8.3,8.3,0,0,1-.1,1.9l-.4,3.1a2.4,2.4,0,0,0,0,1.2,1,1,0,0,0,.7.4v.3l-4-.5V290a.8.8,0,0,0,.7-.3,2.5,2.5,0,0,0,.3-1l.5-3.5a5.8,5.8,0,0,0,.1-1.2.8.8,0,0,0-.2-.4l-.4-.2q-.7-.1-1.5.9l-.6,4.3a2.4,2.4,0,0,0,0,1.2.9.9,0,0,0,.6.4v.3l-4-.5v-.3a1,1,0,0,0,.8-.2,2.4,2.4,0,0,0,.3-1.1l.6-4.5a2.3,2.3,0,0,0,0-1.1,1,1,0,0,0-.7-.4v-.3Z" transform="translate(-2 -2)" fill="#fff"/><path d="M143.9,290.2a4.2,4.2,0,0,1-2.7,1.2,1.5,1.5,0,0,1-1.1-.5,1.5,1.5,0,0,1-.4-1.1,2.2,2.2,0,0,1,.9-1.6,14.9,14.9,0,0,1,3.5-1.8v-.8a3.9,3.9,0,0,0,0-1.1l-.4-.4-.6-.2-.9.2a.4.4,0,0,0-.2.3.7.7,0,0,0,.2.5,1.1,1.1,0,0,1,.3.7.9.9,0,0,1-.3.7,1.1,1.1,0,0,1-.8.3,1.3,1.3,0,0,1-.9-.4,1,1,0,0,1-.3-.8,1.8,1.8,0,0,1,.5-1.2,3.1,3.1,0,0,1,1.4-.8,5.6,5.6,0,0,1,1.8-.2,3,3,0,0,1,1.8.6,2.3,2.3,0,0,1,.8,1.1,6.8,6.8,0,0,1,0,1.7v3.1a3.2,3.2,0,0,0,0,.7v.2h.2q.2,0,.5-.3l.2.2a3.1,3.1,0,0,1-.9.9,1.9,1.9,0,0,1-1.1.2,1.6,1.6,0,0,1-1.1-.4A1.5,1.5,0,0,1,143.9,290.2Zm0-.6v-2.7a5,5,0,0,0-1.6,1.2,1.6,1.6,0,0,0-.4.9,1,1,0,0,0,.3.7.8.8,0,0,0,.6.3A1.6,1.6,0,0,0,144,289.6Z" transform="translate(-2 -2)" fill="#fff"/><path d="M154.2,281.6l-2.1,1.3-.3-.5,2-1.2-1.6-1.3.2-.3,1.1.5,1.1.7,2-1.2.3.5-1.8,1.1a9.3,9.3,0,0,1,2.5,2.6,6.4,6.4,0,0,1,.9,3.1,6.7,6.7,0,0,1-.4,2.5,3.4,3.4,0,0,1-1.3,1.7,3.8,3.8,0,0,1-3.9.1,3.5,3.5,0,0,1-1.4-1.5,4.9,4.9,0,0,1-.5-2.1,4.8,4.8,0,0,1,.6-2.7,2.9,2.9,0,0,1,2.5-1.5l1.3.2-.5-1.1Zm.4,2.4-.7.2a1.4,1.4,0,0,0-.4.8,8.3,8.3,0,0,0-.1,2,17.6,17.6,0,0,0,.3,3.1,1.3,1.3,0,0,0,.4.7l.7.2.7-.3a1.3,1.3,0,0,0,.4-.8,15.8,15.8,0,0,0,.1-2.9,10.4,10.4,0,0,0-.2-2.2,1.4,1.4,0,0,0-.4-.7Z" transform="translate(-2 -2)" fill="#fff"/><path d="M173,277.6l1.6,9.4a5.9,5.9,0,0,0,.3,1.3.9.9,0,0,0,.5.4h1.2v.3l-6,1v-.3h.3l1-.3a.9.9,0,0,0,.3-.5,5.2,5.2,0,0,0-.1-1.4l-1-5.9a3.8,3.8,0,0,0-.2-1l-.3-.3H170l-1,.4-.2-.3,3.9-2.6Z" transform="translate(-2 -2)" fill="#fff"/><path d="M181.5,288.3v-.2a7.6,7.6,0,0,0,2.1-1.5,5,5,0,0,0,1.1-1.9,6.3,6.3,0,0,0,.3-2.3l-.8.6-.7.3a2.9,2.9,0,0,1-2.4-.4,3.7,3.7,0,0,1-1.5-2.3,4.7,4.7,0,0,1-.1-2.2,3.5,3.5,0,0,1,4.6-2.7,4.1,4.1,0,0,1,1.8,1.3,5.7,5.7,0,0,1,1.1,2.3,7.5,7.5,0,0,1,0,3.6,6.7,6.7,0,0,1-1.9,3.3A8.7,8.7,0,0,1,181.5,288.3Zm3.4-6.7q-.2-1-.3-1.7a11.2,11.2,0,0,0-1.1-2.7,2.2,2.2,0,0,0-.9-.9H182a.8.8,0,0,0-.6.5,3.8,3.8,0,0,0,.2,2,6.7,6.7,0,0,0,1.4,3,1.1,1.1,0,0,0,1.1.3Z" transform="translate(-2 -2)" fill="#fff"/><path d="M195.3,284.4l-.2-10.1-2.3.8a4.8,4.8,0,0,0-1.9,1,1.9,1.9,0,0,0-.5,1.2h-.3l-.4-3.7,6.5-2.3.2,12.5Z" transform="translate(-2 -2)" fill="#fff"/><path d="M203.9,281.2V281a7.6,7.6,0,0,0,1.8-1.9,5,5,0,0,0,.8-2.1,6.3,6.3,0,0,0-.1-2.3l-.7.7-.7.4a2.9,2.9,0,0,1-2.4,0,3.7,3.7,0,0,1-1.9-2,4.7,4.7,0,0,1-.4-2.1,3.5,3.5,0,0,1,4.1-3.4,4.1,4.1,0,0,1,2,1,5.7,5.7,0,0,1,1.5,2.1,7.5,7.5,0,0,1,.6,3.6,6.7,6.7,0,0,1-1.3,3.5A8.7,8.7,0,0,1,203.9,281.2Zm2.2-7.2-.6-1.6a11.2,11.2,0,0,0-1.5-2.5,2.2,2.2,0,0,0-1-.8h-.6a.8.8,0,0,0-.5.6,3.8,3.8,0,0,0,.5,1.9,6.7,6.7,0,0,0,1.8,2.8,1.1,1.1,0,0,0,1.1.1Z" transform="translate(-2 -2)" fill="#fff"/></svg>