<svg xmlns="http://www.w3.org/2000/svg" viewBox="0 0 516.4 566.9"><title>magni</title><path d="M-3.5,241.1,16.4,272l24.2-34.3L24.7,212.8l5.1-8.5,16.4,25.4,24.3-34.5L54,169.8l5.1-8.5,16.9,26.1,24.7-35L90.4,136.5l5.1-8.5,10.7,16.5,26.3-37.3-7-10.6,5.1-8.5,7.4,11.3,23.6-33.5-3.7-5.7,5.1-8.5,4.2,6.3,7.3-10.3,7.6,4.6L172.3,66l22.1,33.7,24.9-35.3-9.9-15.3,5.1-8.5,10.4,15.9,14.8-21,8,4.1L230,64.6,369.7,278.9l23.2-28-37-52.4,4.7-8.7,38.1,54.1,28.5-34.4-12.5-17.6,4.6-8.8,42.3,59.4-1,1.3h0l-4.7,5.9v-.2l-28.6,34.5,22,31.2L463.3,298l6.9,5.6-15.7,19.3,7.1,10.1-4.7,8.7L448.7,330l-25.4,31.2,12,18.4-5.1,8.5-12.8-19.6-26.1,32.1,15.6,23.8-5.1,8.5-16.4-25-7.5,9.2-1.3-12.5,3.7-4.6L222.4,158.9l-23.5,33.4L342.6,411.1l-5.1,8.5L193.4,200.1l-26.9,38.1,23.9,37-5.1,8.5L161,246.1l-24.7,35,17.7,27.4-5.1,8.5L130.8,289,106,324.3l-2.6,11.5-2.6-4.1-24,34L91,387.6l-4.6,9.2L71.3,373.5l-2.6,3.6-6.7-5.9,4-5.7-23-35.6-1.7,2.4L34.2,327l3.7-5.3L-8.6,249.6l5.1-8.5Zm378.3,45.6,17.1,26.2L416,283.7l-17.8-25.3-23.4,28.3Zm29.3-35.4,17.8,25.3,28.6-34.5-17.9-25.2-28.5,34.4Zm-7.2,69.3,21.4,32.8,25.1-30.9-22.1-31.3-24.4,29.5Zm15.5,40L252.8,115.8l-24.8,35.2L386.3,392.8l26.1-32.1ZM247.5,107.8,224.5,72.4l-24.9,35.3,23.1,35.3,24.8-35.3Zm-30.3,43.1-23.1-35.3L170.5,149l23.2,35.3,23.5-33.4Zm-29,41.2L165,156.8l-26.6,37.8,23,35.6,26.8-38.1ZM155.8,238l-23-35.6-24.7,35,23,35.6,24.7-35Zm-30.2,42.9-23-35.6L78.4,279.8l23,35.6,24.3-34.5Zm-30,42.6L72.7,287.8,48.7,322l23,35.6,24-34Zm93.2-216L166.7,73.9l-23.6,33.5L165.2,141l23.6-33.5Zm-29.1,41.3-22.1-33.6-26.3,37.4,21.9,33.9,26.5-37.7Zm-32.1,45.5-21.9-33.9-24.7,35L103,229.4l24.7-35ZM97.5,237.2,75.6,203.3,51.3,237.8l21.9,33.9,24.3-34.5ZM67.6,279.7l-21.8-34L21.6,280l21.9,33.9,24.1-34.2Z" transform="translate(8.6 32.8)" fill="#231f20" fill-rule="evenodd"/><path d="M-1.3,237.9l19.9,30.9,24.2-34.3L26.9,209.7l5.1-8.5,16.4,25.4,24.3-34.5L56.2,166.7l5.1-8.5,16.9,26.1,24.7-35L92.6,133.4l5.1-8.5,10.7,16.5,26.3-37.3-7-10.6,5.1-8.5,7.4,11.3,23.6-33.5L160,57.1l5.1-8.5,4.2,6.3,7.3-10.3,7.6,4.6-9.7,13.7,22.1,33.7,24.9-35.3L211.5,46l5.1-8.5L227,53.5l14.8-21,8,4.1L232.2,61.5,371.9,275.8l23.2-28-37-52.4,4.7-8.7L401,240.7l28.5-34.4L417,188.7l4.6-8.8,42.3,59.4-1,1.3h0l-4.7,5.9v-.2L429.4,281l22,31.2,14.1-17.3,6.9,5.6-15.7,19.3,7.1,10.1-4.7,8.7-8.2-11.7-25.4,31.2,12,18.4-5.1,8.5-12.8-19.6-26.1,32.1,15.6,23.8-5.1,8.5-16.4-25-7.5,9.2-1.3-12.5,3.7-4.6L224.6,155.8l-23.5,33.4L344.8,408l-5.1,8.5L195.6,197l-26.9,38.1,23.9,37-5.1,8.5L163.3,243l-24.7,35,17.7,27.4-5.1,8.5-18.1-28.1-24.9,35.3-2.6,11.5-2.6-4.1-24,34,14.1,21.9-4.6,9.2L73.6,370.4,71,374,64.3,368l4-5.7-23-35.6L43.7,329l-7.3-5.1,3.7-5.3L-6.4,246.5l5.1-8.5ZM377,283.6l17.1,26.2,24.2-29.2-17.8-25.3L377,283.6Zm29.3-35.4,17.8,25.3L452.7,239l-17.9-25.2-28.5,34.4Zm-7.2,69.3,21.4,32.8,25.1-30.9-22.1-31.3-24.4,29.5Zm15.5,40L255,112.7,230.2,148,388.5,389.7l26.1-32.1ZM249.8,104.7,226.7,69.3l-24.9,35.3L224.9,140l24.8-35.3Zm-30.3,43.1-23.1-35.3-23.6,33.4,23.2,35.3,23.5-33.4Zm-29,41.2-23.2-35.3-26.6,37.8,23,35.6L190.4,189Zm-32.3,45.9-23-35.6-24.7,35,23,35.6,24.7-35Zm-30.2,42.9-23-35.6L80.6,276.7l23,35.6,24.3-34.5Zm-30,42.6L74.9,284.7,50.9,318.9l23,35.6,24-34Zm93.2-216L169,70.8l-23.6,33.5,22.1,33.6L191,104.5ZM162,145.7l-22.1-33.6-26.3,37.4,21.9,33.9L162,145.7Zm-32.1,45.5L108,157.3l-24.7,35,21.9,33.9,24.7-35ZM99.7,234.1,77.8,200.2,53.6,234.7l21.9,33.9,24.3-34.5ZM69.8,276.6,48,242.6,23.8,276.9l21.9,33.9,24.1-34.2Z" transform="translate(8.6 32.8)" fill="#eb2d33" fill-rule="evenodd"/><path d="M258.1,83A165.2,165.2,0,1,1,92.9,248.3,165.3,165.3,0,0,1,258.1,83Z" transform="translate(8.6 32.8)" fill="#fff" fill-rule="evenodd"/><path d="M309.1,92.3c-59.5,19.3-112.6,61.3-132.6,122.2a156.8,156.8,0,0,0-7.7,40.6v2.2l-2-.8a208.7,208.7,0,0,1-69.4-46.2A165.5,165.5,0,0,1,311.2,91.6l-2.1.7Zm7.1,1.1a165.6,165.6,0,0,1,64.7,44.1l-.7.2a197.6,197.6,0,0,0-69.9,42c-27.1,25.2-46.1,57.3-53.5,93.5l-.3,1.3h-1.3c-28-1.3-55.9-5.9-82.3-15.7l-1.1-.4v-1.2a153.6,153.6,0,0,1,7.6-41.8c20.4-62,75.8-104,136.7-122Zm67,46.7a165.3,165.3,0,0,1-47.4,254.2l.6-1.7c25.3-67.5,23.9-147.6-.7-215.1-2.2-6.1-3.5-11.8,2.7-15.8a191.4,191.4,0,0,1,44.7-21.7ZM331.5,396.5a164.6,164.6,0,0,1-73.3,17.1c-4.6,0-9.2-.2-13.7-.6l.2-.5c18.1-43.6,25.5-89.1,14.8-135.6v-.7c6.9-36.6,25.9-69,53.1-94.3q4.4-4.1,9-7.9c1.6-1.3,3.7-3.1,5.8-2.8s4.5,4.9,5.4,7.3c24.9,68.3,25.9,149.9-1.2,217.8Zm-90.3,16.3a165.5,165.5,0,0,1-138-106.8l2.6,2.7c38.9,40.1,87.5,58.9,142.3,65.8,3.9.4,5.4,2.5,4.4,6.5a284.6,284.6,0,0,1-11.3,31.9ZM100.5,298.2a166.1,166.1,0,0,1-4.1-84.3l.7.7c44,42.8,97.6,60.3,158,63.1h1.2l.3,1.2c6.6,29.1,5.9,58.4-.5,87.6-.9,3.8-3.7,6.1-7.6,4.8-58.6-7.4-108.9-28.4-148-73.1Z" transform="translate(8.6 32.8)" fill="#231f20" fill-rule="evenodd"/><path d="M314.3,284.4v2.1l-31.1-.6c-4.3,0-6.8-2.4-10.2-4.3-7.7-4.3-19.1-18.6-19.1-27.7.3-14.1,19.6-28,31.5-32.7l4.6-1.8,13.3,18.5-7.1,3.2-2.5,1.2,20.3.4h0v-.2c-.1-5.1-.1-10.1-.3-15.2l-.3-6.1,6.1-.5a52,52,0,0,0,6.6-.7l3.6-.7,25.1,28.2c0-6.9-.3-13.7-.7-20.5l-.5-7.9,28.4,4.4v.2H409l-.7,7c-1.8,16.7-2.9,34.1-.6,50.8l1,7.3-29.1-.4.5-6.7c1.1-15.6,1.7-31.5.6-47.1a247,247,0,0,0-1.4,45.9l.4,6.4-6.4.3c-3.3.2-6.7.1-10,.1h-2.7l-21.6-22.5c.3,4.5.7,9,1,13.5l.4,6.9-25.9-.8Zm-.8-17.7a112.1,112.1,0,0,0,.7-23.6l-.3,6c-.3,5.9-.4,11.7-.4,17.6ZM291,263.4c-.1-4.8-.5-9.5-.9-14.3l-.4-4.5-2.6,1.7c-1.4.9-6.4,4.7-6.7,6.6s4.5,5.5,5.8,6.6,3.1,2.7,4.8,4Zm-57,9.4-8.7-1.8-3.7,12.4-24.1-4.9,2.5-6.9a489.3,489.3,0,0,1,21.6-51.5l2.4-4.9,19.1,6L260,275.7l-22.7,7.8-3.3-10.7ZM145.6,265l-6.7,15-27.8-6.2,29.5-70.6,17.7,35L182,206.9l14.6,69-23.3,8.9-4.1-22.7-14.4,20.4L145.6,265Z" transform="translate(8.6 32.8)" fill="#231f20" fill-rule="evenodd"/><path d="M386.3,282l14.2.2c-1-16.8-1.3-35,.6-52.4H386.5c1.6,17.1,1,35-.2,52.1Z" transform="translate(8.6 32.8)" fill="#fff" fill-rule="evenodd"/><path d="M320.1,226.9c.2,5.1.2,10.2.3,15.3,1.2,12.1-.4,23.9-2,36l15.1.4c-.6-9.7-1.8-18.4-1.3-29.9l30.9,32.2c3.3,0,6.4,0,9.7-.1a262.7,262.7,0,0,1,2.1-52.1l-14.5-2.2a255.9,255.9,0,0,1,.1,36.9l-33.1-37.2a43.2,43.2,0,0,1-7.4.8Z" transform="translate(8.6 32.8)" fill="#fff" fill-rule="evenodd"/><path d="M293.8,235.3l-5.9-8.2c-11.7,4.6-27.3,17.1-27.5,26.9,0,6,9.6,18.5,15.9,22.1,1.9,1,5,3.5,7.1,3.5l24.3.4a273.6,273.6,0,0,1-.1-31.2l-11.2-.2c.1,7.9.8,16.5.3,24.5-5.9-1.3-9.4-4.5-14.6-8.8-2.5-2.1-8.1-7.6-8.1-11.3.2-7,13.1-14.7,19.7-17.7Z" transform="translate(8.6 32.8)" fill="#fff" fill-rule="evenodd"/><path d="M241.4,275.4l10.8-3.7-14.3-45.4-10.8-3.4a469.8,469.8,0,0,0-21.3,50.9l11.4,2.3,3.7-12.4,18,3.7,2.5,8Zm-17.2-20.7a145.9,145.9,0,0,1,6-14.3l6.3,18.1-12.3-3.8Z" transform="translate(8.6 32.8)" fill="#fff" fill-rule="evenodd"/><polygon points="164.2 303.3 181.4 279 186.8 309 197.9 304.8 187.3 254.6 165.9 283 149.8 251.1 128.4 302.2 143.8 305.6 153.7 283.4 164.2 303.3 164.2 303.3" fill="#fff" fill-rule="evenodd"/><path d="M458.1,86.5c-2.9,1.6-18.5,12.1-20.9,14.1L426.9,86.1c-2.5-3.5,6.1-26.4,7.4-27,5.3-2.3,16.9-3.7,30.1-1.1l-2.5,7.9c-5.7-1.2-20.2-1.5-21.1.3-1.9,3.8-4.6,12.5-4.8,18.2l3,4.6c5.1-2.3,13.3-9.3,14.3-10.1.9,1.7,2.7,4.4,4.9,7.6Z" transform="translate(8.6 32.8)" fill="#231f20"/><path d="M133.7,479.4c-2.3,2.4-11.3,14.8-13,17.5l-13.5-10.4c-3.4-2.6-3.7-26.7-2.6-27.7,4.2-3.9,15.6-9.3,28.9-11.1l.2,8.3c-5.8.7-19.2,5.3-19.5,7.3-.6,4.2-.6,13.1,1,18.6l3.9,2.9c4.1-3.9,6.4-9.6,7.1-10.6,1.4,1.3,4.4,2.8,7.5,5.1Z" transform="translate(8.6 32.8)" fill="#231f20"/><path d="M75.4,69.6c4.8-5.1,3.9-13,.7-16s-8,.3-12.4,4.8L75.4,69.6ZM88.7,94.2C76.4,81.1,66.1,72,50.3,59.5L55.9,53c5.7-6.2,15.9-11.5,24.5-9,4.2,1.2,5.6,9.9,4.6,19.3,4.8,1.1,21.6,3.4,28.2,3.9l-7,8.7c-6.8-1.3-16.6-3.4-23.4-4.1l-1.6,2.3L94.9,87l-6.2,7.2Z" transform="translate(8.6 32.8)" fill="#231f20"/><path d="M152.8,483.6c5.2,3.6,12.2,1.7,14.4-1.6s-1.4-7.1-6-10.4l-8.4,12Zm-20.1,15.3c10-12.8,16.7-23.2,25.6-39.1l6.5,4.1c6.3,4.2,12.5,12.6,11.5,20.6-.5,3.9-8,6.4-16.6,6.8-.3,4.5,0,19.7.5,25.7l-8.7-5c.2-6.3.7-15.3.4-21.5l-2.3-1.1L140,503.5l-7.3-4.5Z" transform="translate(8.6 32.8)" fill="#231f20"/><path d="M174.9,520c6.4-13.6,13.6-30.5,15.5-45.5l26.4,6.6.3,8.7a103.6,103.6,0,0,0-19.5-6.2l-4.4,13.5a70.1,70.1,0,0,0,15.1,4.2l-6.4,7.6a59.4,59.4,0,0,0-11.4-4.3l-4.7,11.9c7.8,2.9,16,4.9,25.4,3.8l-6.1,8.7c-9.5-3.7-20.3-6.3-30.1-9Z" transform="translate(8.6 32.8)" fill="#231f20"/><path d="M279.9,18.5c3.9-12.2,7-34.4,8.4-50.2l26.2,4.9,1.6,8.6c-5.6-1.4-12.8-3.9-19.8-4.1L293.8-7.3a70.1,70.1,0,0,0,15.5,1.8l-4.6,8.4A60.9,60.9,0,0,0,292.3.5a114.4,114.4,0,0,0-2.1,20c-2-1-8.4-1.8-10.3-1.9Z" transform="translate(8.6 32.8)" fill="#231f20"/><path d="M168,36.4c-2.1-11-8.9-27.3-15-41.2-1.5.5-7.9,3-12,6.2l-.6-8.8c9.6-4,19.2-7.7,29.2-11.3l5.6,6.7a52.4,52.4,0,0,0-13.8,3.5,233.8,233.8,0,0,0,16.3,41.1c-3.1.6-8.1,3-9.8,3.8Z" transform="translate(8.6 32.8)" fill="#231f20"/><path d="M207.7,23.6c-2.2-15.2-8-36.6-10.3-42.6-1.5.3-8.2,2.1-12.6,4.9l.4-8.8c10-2.9,20-5.5,30.3-8l4.8,7.3a52.4,52.4,0,0,0-14.1,1.9c1.7,9.1,4.7,22.5,11.6,42.7-3.2.3-8.4,2.1-10.2,2.7Z" transform="translate(8.6 32.8)" fill="#231f20"/><path d="M377.5-10.2C374.1.9,365,20.8,354.6,37.6L376.7,49l7.2-7c-7.7-1.6-12-2.4-17.6-6.5C371.1,23.7,379.1,6.5,387-4.9c-2.2-.4-7.9-4.3-9.5-5.3Z" transform="translate(8.6 32.8)" fill="#231f20"/><path d="M314.9,25.2c5.6-13.6,11.9-33.6,14.9-48.6L357.6-16l.3,8.7c-5.4-2.2-14.1-5.8-20.9-7.1L332.5-1.1a70.2,70.2,0,0,0,15.1,4.4L341.7,11a60.9,60.9,0,0,0-11.9-4.3l-3.7,14c7.8,2.9,15.3,4,24.4,4.7l-5.6,9c-9.5-3.7-20.2-6.4-30.1-9.1Z" transform="translate(8.6 32.8)" fill="#231f20"/><path d="M222.9,530.9c4-15.7,6.1-33.8,5.3-49.6a31.4,31.4,0,0,1,7.9.5c7.4,13.1,15.8,27.2,22.7,35.4l-.3-34.5,11.2.4c-1.8,15.5-3,35.5-3.6,51.1a62.5,62.5,0,0,1-6.9-.2h-1.4c-5.2-12.1-16.1-25.9-22.1-34.3l-2.5,32.5-10.5-1Z" transform="translate(8.6 32.8)" fill="#231f20"/><path d="M445.8,109.9c5.8-3.1,12.7-7.1,18.4-10.6a237.3,237.3,0,0,0,23.3-16.2,29.6,29.6,0,0,0,2.6,4.2,48.4,48.4,0,0,0,3.1,4c-5,2.9-10,5.6-14.2,8.2a221,221,0,0,0-26.6,19.9,41.6,41.6,0,0,0-2.7-4.5,32.6,32.6,0,0,0-3.8-5.1Z" transform="translate(8.6 32.8)" fill="#231f20"/><path d="M483,109.9l1.6,3.4c7.2-4.3,13.8-8.6,17.7-11.4l3.3,7.1c6,12.8-.9,33.7-8.9,37.9s-26.5.1-33.5-11.1l-5.1-8.3a189.9,189.9,0,0,0,20-10.3l-2.1-2.9a55.8,55.8,0,0,0,7.1-4.4Zm5.6,10.6c1.2,2,2.4,3.9,3.7,5.7-2.4.8-4.4,2.6-6.6,4.1-1.1-2.1-2.2-4.2-3.3-6.2-3.9,2.4-7.7,4.9-11.7,7.7,6.5,6.8,19.4,7.5,21.7,6.4s8.5-14.3,5.9-23.1l-9.9,5.4Z" transform="translate(8.6 32.8)" fill="#231f20"/><path d="M50.3,144.4c-5.2-3.9-11.8-8.5-17.4-12.1A237.3,237.3,0,0,0,8.4,118.1a29.6,29.6,0,0,0,2.7-4.2,48.4,48.4,0,0,0,2.3-4.5c4.8,3.3,9.3,6.7,13.5,9.4a221,221,0,0,0,29.3,15.7,41.7,41.7,0,0,0-2.9,4.4,32.7,32.7,0,0,0-3,5.6Z" transform="translate(8.6 32.8)" fill="#231f20"/><path d="M64.5,123.8C53.5,114.4,36,103.8,21,96.4c2.2-2.2,3.7-5.9,5-8.7l4.6,3.1C40.9,82.2,53.1,79,57.5,81.4c6.6,3.6,7.2,19.7,7.5,29.8l5.5,2.6a41,41,0,0,0-5.9,10ZM37.4,95.3c6.2,4,12.5,7.9,19,11.5-.1-6.7-.8-14.7-3.1-17.3s-11.2,2.3-15.9,5.8Z" transform="translate(8.6 32.8)" fill="#231f20"/><path d="M279.3,534.1c1.4-16.5.7-34.8-1-51.3,4.1.9,6.1.1,10.1-.3-.8,17.2-.9,34.1,1.4,51.4a33.8,33.8,0,0,0-10.4.3Z" transform="translate(8.6 32.8)" fill="#231f20"/><path d="M371.3,510.8c-2.6-6-6-13.3-9-19.2A237.3,237.3,0,0,0,348.1,467a29.6,29.6,0,0,0,4.5-2.3,48.3,48.3,0,0,0,4.3-2.7c2.5,5.3,4.7,10.4,7,14.9a220.9,220.9,0,0,0,17.6,28.2,41.7,41.7,0,0,0-4.7,2.3,32.6,32.6,0,0,0-5.4,3.4Z" transform="translate(8.6 32.8)" fill="#231f20"/><path d="M326.2,525.3a195.9,195.9,0,0,0-30.6-42.6l8.2-3.6,25.3,34.5,1.2-42.1,10.9.2c-3.1,15.3-5.3,34.3-3.8,49.8l-11.2,3.8Z" transform="translate(8.6 32.8)" fill="#231f20"/><path d="M389.8,501.1a296.4,296.4,0,0,0-24.2-42.5l8.1-4.8c3.1,5.1,6.1,10.3,9.2,15.5l1.5-.8c.8-7.6.5-17,.7-22.5l9.9-4.6a273.7,273.7,0,0,0-2.6,30.1c4.5,2.5,26.4,10.1,36,12.9L415,490.1c-6.3-3.3-19.2-8.1-25.5-11.2l-1.3.7c2.7,5.1,7.1,12.4,10.1,17.4l-8.6,4.2Z" transform="translate(8.6 32.8)" fill="#231f20"/><polygon points="16.2 139.4 10.6 147.7 9.4 134.1 16.2 139.4 16.2 139.4" fill="#231f20" fill-rule="evenodd"/><polygon points="101.8 52.1 94.7 59.1 96.2 45.5 101.8 52.1 101.8 52.1" fill="#231f20" fill-rule="evenodd"/><polygon points="362.6 489.4 353.9 494.3 358.9 481.6 362.6 489.4 362.6 489.4" fill="#231f20" fill-rule="evenodd"/><polygon points="365.5 7.6 355.4 5.8 364.7 1 365.5 7.6 365.5 7.6" fill="#231f20" fill-rule="evenodd"/><path d="M133.7,40.9c4.1-5-.6-15.2-5.1-19.3s-12.6-3.8-16.3-.1-4.1,15.5.4,19.6,17.3,4.3,21-.3Zm8.7,6.4c-4.7,7.3-22.7,10.8-35.7,2.5-7.1-4.5-9.1-22.7-1.2-34.2,5.8-8.4,22.2-11.6,31.7-1.8,7.2,7.4,12.3,22.4,5.1,33.5Z" transform="translate(8.6 32.8)" fill="#231f20"/><path d="M424.6,20.2a318.4,318.4,0,0,1-41.1,32.7l7.8,5.8,9.9-8.4,11.7,9.5c-1.5,3.7-3.1,7.2-4.7,10.5,2.1,1.9,5,3.9,7.1,5.8,5.1-15.4,12.3-32.6,18.9-48.3l-9.5-7.6ZM406.4,46a167.3,167.3,0,0,1,15.7-11.5c-1.6,5.1-4,12-6.7,18.9l-9-7.4Z" transform="translate(8.6 32.8)" fill="#231f20" fill-rule="evenodd"/><path d="M240.4-32.8a318.4,318.4,0,0,1-11.9,51.1l9.7-.3c.7-3.5,1.1-6.5,1.8-9.8l17.1-.2c.8,2.9,1.6,5.9,2.2,8.7,2.9.2,6.9-.1,9.8.1-4.1-9.6-12.6-35.7-16.5-49.6Zm1.2,33.9a179.2,179.2,0,0,1,5.7-21.2,171,171,0,0,1,7.8,21l-13.6.2Z" transform="translate(8.6 32.8)" fill="#231f20" fill-rule="evenodd"/></svg>