<svg xmlns="http://www.w3.org/2000/svg" viewBox="0 0 527.8 566.9"><title>mani</title><path d="M484.8,281.3c-44.5,48.6-113.6,66.6-177.6,61.6-68.3-5.3-131.5-34.6-169.5-93.1-20.8-32-32.4-71.8-34.2-109.8-2-43.6,8.6-86.4,33.6-122.4l6-8.6-.7,10.5c-4.6,71.6,10.4,129.3,50.6,188,19.4,28.2,47.6,50.4,78.2,65.4a244.8,244.8,0,0,0,112,24.5,278.9,278.9,0,0,0,56.9-7.1c13.8-3.2,28.3-7.6,41.2-13.7l13.5-6.4Z" transform="translate(-19.6 0)" fill="#d2353f" fill-rule="evenodd"/><path d="M482.6,279.3c-42.1,46.1-108.8,65.8-175.2,60.7-73.6-5.7-132.6-38.5-167.2-91.8-37.6-57.8-52.2-154.7-.6-228.9-5.2,80.6,15.2,137.5,51.1,189.9S301.1,302,383.3,300.4C425,299.5,461.9,289.1,482.6,279.3Z" transform="translate(-19.6 0)" fill="#fae22d" fill-rule="evenodd"/><path d="M157.8,0c-5.6,62.6,2.2,130.2,43.2,171.6C247.3,133.9,257,73.5,245.1.4H214.4c5.5,80.8-6.2,92.8-11.5,92.8s-29-1.6-15.6-92.9Z" transform="translate(-19.6 0)" fill="#d2353f" fill-rule="evenodd"/><path d="M201.3,166.6a118.9,118.9,0,0,0,23.8-27.9C249.4,99.3,248.9,48.5,242,4.1H218.3c.9,14.9,1.5,30.1,1,45-.3,9.5-1,19.5-3.1,28.8-1.4,6.3-5,19-13.4,19S188.2,90,185,82.3c-8.5-20.1-5.1-55.9-1.9-78.5H161.2C156.7,58.5,162.3,124.9,201.3,166.6Z" transform="translate(-19.6 0)" fill="#a8abaa" fill-rule="evenodd"/><path d="M264.9,2c3.1,45.3-.7,88.5-8.9,117.4s-18.8,49.4-43.3,68.1L239,216.2c16.6-12.7,33.1-33.1,49.7-59.8l12.5,37.2h38.8c2.8-14.7,6.4-30.7,15.8-46.5,20.7,54.4,54.7,88.9,95.4,118.8l31.9-17c-39.7-20.9-70.4-51.9-87.2-98.6-13.5-37.5-19.6-83.8-11-145.5l-30.7-.7c-.3,25.2-9,87.2-36,118.1C297,90.1,293.1,36.5,296.8,2.7Z" transform="translate(-19.6 0)" fill="#d2353f" fill-rule="evenodd"/><path d="M268.8,5.7a448.2,448.2,0,0,1-.5,61.4c-1.4,17.7-3.9,36.1-8.8,53.2-8.1,28.4-18.7,49.1-41.4,67.6l21.3,23.3c18.3-14.9,34-37.1,46.2-56.8l4.1-6.6,14.2,42.1h33.2c3.2-15.9,7.2-30.5,15.6-44.7l3.9-6.5,2.7,7.1c19.1,50.1,50,84.4,92.3,115.8l23.9-12.7c-39.3-22.2-67.3-53.9-82.9-97.3-16.6-46.2-18-94.9-11.7-143.2l-23-.5A242.5,242.5,0,0,1,355,36a272.8,272.8,0,0,1-9.4,40.9c-5.3,16.6-13,34.5-24.6,47.8l-3.2,3.6-2.7-4C295,93.6,289.5,43.1,292.8,6.3Z" transform="translate(-19.6 0)" fill="#a8abaa" fill-rule="evenodd"/><path d="M491.2,5.6H410c-10.3,69.7-5.2,126.7,23.4,167.3l27.5-11.3C446,140,439,117.1,437.1,93.3h25.1V65l-25.5-.4c-.3-9.6.8-18.2,2-28.7l52.1-.4Z" transform="translate(-19.6 0)" fill="#d2353f" fill-rule="evenodd"/><path d="M487.5,9.3H413.2c-7.4,52-8.7,113.9,21.6,159.1l20.6-8.5c-13-20.2-20-42.3-22-66.3l-.3-4h25.4v-21l-25.4-.4V64.7c-.3-9.8.9-19.5,2-29.2l.4-3.2,51.8-.4Z" transform="translate(-19.6 0)" fill="#a8abaa" fill-rule="evenodd"/><path d="M19.6,559.3C87.2,450.5,103.8,365,104.5,274.8l39.6,30.3c-6.6,48-6,93.3,0,134.6,18.7-25.1,34.6-57.6,48.9-99l25.5,14.5c-.2,39.3.1,78.9,12.9,116a289.4,289.4,0,0,0,44.9-97,176.7,176.7,0,0,0,41.2,2.4c6.7,30.8,15.7,59.9,33.1,88.5,15.7-26.9,19.1-55.7,19-85.3a95.2,95.2,0,0,0,23.4-6.5c3.3,23.4,9,46.9,29.1,71.1,10.3-28.8,12.6-55.2,8.9-84.1l29.5-12.1c-12.6,79.4-1.9,149.9,23,213.8l-45.3-4c-13.8-29.4-29.4-56.2-46.5-79.2a476.3,476.3,0,0,0-18.6,79.6l-37.6-2.8L319.5,514l-54.6-1.2-17,42-35.2-.4L190.1,472l-43.2,87.3-21-2.8-13.3-70.3a617,617,0,0,1-46.1,73.1ZM300.7,437.8c-6.9,13.6-14.3,26.8-22.3,39.8h30.9Z" transform="translate(-19.6 0)" fill="#d2353f" fill-rule="evenodd"/><path d="M278.9,378.4a293.2,293.2,0,0,1-44.6,95l-4.1,5.8-2.3-6.7c-12.8-37-13.3-76.4-13.1-115.1L195,346c-11.8,33.3-26.9,67.5-48,95.8l-5.3,7.1-1.3-8.8a482.1,482.1,0,0,1-.3-133.5L108,282.1q-.2,13.3-1,26.6c-2.4,41.1-9.2,80.7-21.6,119.9-14.2,44.8-34.9,86.9-59.3,126.9H64.6a605.2,605.2,0,0,0,44.7-71.2l4.9-9.2L129,553.2l15.8,2.1,46.3-93.6,24.4,89.1,29.9.3,17-42.1,59.5,1.3,16.2,41.8,31.9,2.4a477.4,477.4,0,0,1,18.2-76.9l2.2-6.7,4.2,5.6c18,24.2,33.1,50.8,46,77.9l37.3,3.3c-24.8-66.2-32.2-133.8-22.1-203.8L435,362.8c3.3,28.9.5,55.2-9.4,83l-2.2,6.1-4.1-5c-17.5-21.2-25.1-42.2-29.2-68.4a98.5,98.5,0,0,1-16.8,4.5c-.2,29.7-4.1,57.8-19.5,84l-3.1,5.3-3.2-5.2c-16.6-27.3-26.1-55.8-32.9-86.6A180.7,180.7,0,0,1,278.9,378.4Zm23.2,48.6,11.7,54.4h-42l3.5-5.6q12-19.3,22.2-39.5Z" transform="translate(-19.6 0)" fill="#a8abaa" fill-rule="evenodd"/><path d="M475.9,371.4l33.5-10.1c-.3,58.5,8.5,136.5,38,205.7l-36-.4C484.3,497.6,471.3,433.9,475.9,371.4Z" transform="translate(-19.6 0)" fill="#d2353f" fill-rule="evenodd"/><path d="M479.3,374.1c-4.2,65,11.2,128.5,34.6,188.8l27.9.3C517,502.4,506,431.8,505.7,366.2Z" transform="translate(-19.6 0)" fill="#a8abaa" fill-rule="evenodd"/><polygon points="214.2 359.6 220.3 408.5 241.7 369.7 214.2 359.6" fill="#d2353f" fill-rule="evenodd"/><polygon points="218.6 365.1 222.5 396.9 236.4 371.7 218.6 365.1" fill="#a8abaa" fill-rule="evenodd"/><polygon points="459.1 314.7 458.3 350.3 490.6 330.9 488.2 301 459.1 314.7" fill="#d2353f" fill-rule="evenodd"/><polygon points="462.7 317.1 462.1 343.8 486.8 328.9 485 306.6 462.7 317.1" fill="#a8abaa" fill-rule="evenodd"/></svg>