<svg xmlns="http://www.w3.org/2000/svg" xmlns:xlink="http://www.w3.org/1999/xlink" viewBox="0 0 807 734.6"><defs><linearGradient id="a" x1="401.98" y1="455.38" x2="401.98" y2="185.38" gradientUnits="userSpaceOnUse"><stop offset="0.2" stop-color="#fbc61c"/><stop offset="0.27" stop-color="#fcd044"/><stop offset="0.37" stop-color="#fddc75"/><stop offset="0.47" stop-color="#fde7a0"/><stop offset="0.57" stop-color="#fef0c2"/><stop offset="0.68" stop-color="#fef6dd"/><stop offset="0.78" stop-color="#fffbf0"/><stop offset="0.89" stop-color="#fffefb"/><stop offset="1" stop-color="#fff"/></linearGradient></defs><title>midas</title><path d="M533.5,770.2c-12.4,0-24.7-2.4-36.7-4.7l-6.8-1.3-14.9-2.9c-11.6-2.4-23.6-4.8-35.3-5.9l-2-.2a76.9,76.9,0,0,0-7.9-.6l-3.6.2a23.5,23.5,0,0,0-5.5,1.8l-3.5,1.4a27.3,27.3,0,0,1-8.7,1.5c-4.4,0-8.9-1.1-14.5-3.6a26.6,26.6,0,0,0-11.1-2.1c-2.8,0-5.6.3-8.6.5l-2.3.2c-7.9.7-15.9,1.6-23.7,2.7s-18.5,3.3-27.4,5.2-15.7,3.4-23.7,4.7a128.4,128.4,0,0,1-20.4,1.8c-10.4,0-18.7-1.9-24.6-5.6a129.2,129.2,0,0,1-14.9-11.4l-4.1-3.4c-9.8-8-18.7-17.4-26.4-25.6l-.5-.5c-10-10.7-20.3-21.7-28.3-34-1.9-2.9-3.5-6-5.1-8.9l-2.1-3.9-.8-1.5c-.9-1.8-1.1-2-1.7-2.1h-.3c-1.5,0-4.1,1-6,1.8l-3,1.1-6.8,1.9c-13.9,4-28.2,8.2-42.7,10.6a186.5,186.5,0,0,1-31,2.7,158.7,158.7,0,0,1-66.1-14l-4.2-1.9,3.9-2.5c3.8-2.4,7.8-3.6,11.7-4.8,1.9-.6,3.9-1.2,5.8-1.9,4.9-1.9,9.7-5.4,14.3-8.9l5.1-3.7,6-4a116.2,116.2,0,0,0,12.1-8.7,4.7,4.7,0,0,0,1-1.1,16.1,16.1,0,0,0-3.5-2.1l-2.4-1.3c-12.9-7.6-22.5-16-29.5-25.7a76.3,76.3,0,0,1-6.9-12.7A69.1,69.1,0,0,0,19.4,585l-2.3-3.2-1.8-2.3h.2l-1.2-1.6,6.6,2.7,1.1.2a70.3,70.3,0,0,1,11,3.5,72.3,72.3,0,0,0,9.6,3.1,101.7,101.7,0,0,0,22.1,2.3h.7c12.6-.1,26-2,41.1-6,26.6-7.1,52.2-17.8,76.2-28.3-5.5-9.8-10.7-19.7-15.4-29.7-38.3-81.3-52.6-175.5-42.5-280.2,5-51.3,18.1-103.1,28.6-144.7,2.2-8.5,5.4-18.1,16.4-23,7.9-3.6,16.7-5.8,25.2-7.9l8.5-2.2a713.7,713.7,0,0,1,71-16A793.7,793.7,0,0,1,405.8,40.6,747.9,747.9,0,0,1,568.5,58.4c19.5,4.4,45,10.4,69.4,18.5,9.6,3.2,15.4,8.7,18.3,17.3s5.1,17.5,7.2,26.1l2.3,9c11.2,43.3,18.8,90.1,24,147.4,9,99.6-11.3,199.2-57,280.9l15.1,5.9c18.7,7.3,38.1,14.9,57.6,21.1,15.9,5.1,30.4,7.5,44.3,7.5h1.3c15.8-.2,30.2-4.7,43.5-9.3l5.6-1.9-2.5,5.4c-1.2,2.5-2.2,5.1-3.2,7.6-2,5.1-4.1,10.5-7.7,15.5-9.7,13.5-23.4,22.5-37,31,6.2,4.2,12.6,8.2,18.8,12.1,9.5,5.9,19.2,12.1,28.4,18.9a31.9,31.9,0,0,1,4.9,3.9l3.3,3-7.4,2.1c-17.7,5-34.4,9.7-52.9,10.7l-10.6.3a223.9,223.9,0,0,1-45.9-5c-9-1.9-18-4.3-27.7-7.3a39,39,0,0,1-3.8-1.6c-2.2-1-5.6-2.5-7.1-2.5h0A20.4,20.4,0,0,0,647,678l-1.1,1.6-4.7,5.6c-6.7,8.2-13.7,16.6-20.8,24.8-11.4,13.1-24.6,24.8-37.4,36.2l-8.7,7.8-3.2,3a71.9,71.9,0,0,1-5.5,5c-7.1,5.6-16.8,7.1-23.4,7.8C539.5,770.1,536.5,770.2,533.5,770.2Z" transform="translate(-3 -38.1)" fill="#fff"/><path d="M405.8,43.1A744.1,744.1,0,0,1,567.9,60.8c23.2,5.2,46.6,10.9,69.2,18.4,8.2,2.7,13.9,7.3,16.7,15.7,3.8,11.4,6.4,23.3,9.4,34.9,12.5,48.4,19.4,97.2,23.9,147,8.7,96.9-9.8,197.1-58.1,282,25,9.6,49.9,19.9,75.5,28.1,14.6,4.6,29.7,7.7,45,7.7h1.3c15.7-.2,29.6-4.4,44.3-9.5-3.6,7.8-5.5,15.5-10.7,22.7-10.1,14.1-25,23.4-39.5,32.3,16.5,11.5,34.2,21.2,50.4,33.2a28.7,28.7,0,0,1,4.6,3.6c-18.5,5.2-36.2,10.4-55.5,11.5l-10.5.3a220.9,220.9,0,0,1-45.4-5c-9.3-1.9-18.4-4.4-27.4-7.2-2.5-.8-8.6-4.2-11.6-4.2h-.8c-1.6.4-3.8,4.2-4.8,5.5-8.4,10.2-16.7,20.4-25.4,30.4-13.9,16-30.2,29.6-45.9,43.7-2.9,2.6-5.5,5.5-8.5,7.9-6.1,4.9-14.5,6.5-22.1,7.3-2.8.3-5.7.4-8.5.4-14.5,0-28.9-3.3-43.1-5.9-16.7-3.1-33.5-7.2-50.4-8.9-3.2-.3-6.8-.8-10.2-.8a27.1,27.1,0,0,0-4,.3c-3.3.5-6.3,2.3-9.5,3.3a24.9,24.9,0,0,1-8,1.4c-4.5,0-8.8-1.3-13.5-3.4a29.1,29.1,0,0,0-12.2-2.3c-3.6,0-7.3.4-11,.7q-12,1-23.9,2.7c-17.3,2.4-34,7.2-51.2,9.9a127.9,127.9,0,0,1-20,1.8c-8.5,0-17-1.3-23.3-5.2s-12.7-9.7-18.7-14.6c-9.3-7.6-17.9-16.5-26.2-25.4-10-10.7-20.5-21.9-28.6-34.1-2.7-4.1-4.8-8.5-7.2-12.7-1.4-2.4-1.8-4.4-4.3-4.8h-.7c-2.8,0-7.4,2.2-9.7,2.9-16.3,4.7-32.5,9.7-49.2,12.5a183.3,183.3,0,0,1-30.6,2.6,156.1,156.1,0,0,1-65-13.8c5.3-3.4,11.2-4.2,17-6.4s13.7-8.6,19.9-12.9,12.8-8,18.4-12.8-1.2-6.1-5.3-8.5c-11-6.5-21.2-14.5-28.7-25-5.5-7.6-7.9-17.1-13.3-24.6h.1q.1,0-.1-.3c7,1.4,13.6,5,20.6,6.6a103.9,103.9,0,0,0,22.7,2.4h.7c14.1-.1,28.1-2.5,41.7-6.1,27.2-7.2,53.4-18.2,79.1-29.5q-9-15.6-16.7-32c-41-87-51.4-183.9-42.2-278.9,4.7-49,16.5-96.7,28.5-144.4,2.4-9.4,5.6-17.1,15-21.3s22.5-7,33.4-10A715,715,0,0,1,275,54.2a788.9,788.9,0,0,1,130.8-11m0-5h0A796.1,796.1,0,0,0,274.1,49.2a716.2,716.2,0,0,0-71.2,16l-8.5,2.2c-8.6,2.2-17.5,4.4-25.6,8.1-12,5.4-15.5,15.5-17.8,24.6-10.6,41.7-23.7,93.6-28.7,145.1-4.8,49.9-4,98.2,2.3,143.6,6.9,49.3,20.5,95.7,40.4,137.9,4.3,9.2,9.1,18.4,14.1,27.5-23.2,10.1-47.8,20.3-73.3,27-14.8,3.9-28.1,5.9-40.4,6h-.7A99.1,99.1,0,0,1,43.1,585a70.4,70.4,0,0,1-9.3-3,72.2,72.2,0,0,0-11.4-3.6l-.9-.2L7,572.3l2.6,3.5-1.2-.2,7.5,8.9,1.5,2A67.3,67.3,0,0,1,23.6,598a78.1,78.1,0,0,0,7.1,13.1c7.1,10,17,18.6,30.2,26.4l2.6,1.4.5.3c-3.2,2.6-6.9,4.9-10.4,7.2l-6.1,4.1-5.2,3.8c-4.5,3.4-9.1,6.8-13.7,8.6-1.8.7-3.6,1.2-5.6,1.8-4,1.2-8.2,2.5-12.3,5.1l-7.7,5,8.4,3.8a161.2,161.2,0,0,0,67.1,14.2,189,189,0,0,0,31.4-2.7c14.7-2.5,29.1-6.6,43-10.7l6.7-1.9,3.2-1.1a34.6,34.6,0,0,1,4.6-1.5l.3.6.8,1.6,2.1,3.9c1.6,3,3.3,6.1,5.2,9.1,8.1,12.4,18.5,23.5,28.6,34.3l.5.5c7.7,8.2,16.7,17.7,26.6,25.8l4.1,3.4a131,131,0,0,0,15.2,11.6c6.4,3.9,15.1,5.9,26,5.9a130.9,130.9,0,0,0,20.8-1.9c8-1.3,16.1-3,23.8-4.7s18.1-3.9,27.2-5.2,15.7-2,23.6-2.6l2.3-.2c2.9-.3,5.7-.5,8.3-.5a23.9,23.9,0,0,1,10.1,1.9c6,2.7,10.7,3.8,15.5,3.8a29.8,29.8,0,0,0,9.5-1.6l3.7-1.5a21.8,21.8,0,0,1,4.9-1.7l3.3-.2a75.1,75.1,0,0,1,7.7.5l2,.2c11.6,1.1,23.6,3.6,35.1,5.9l14.9,2.9,6.8,1.3c12.1,2.3,24.5,4.7,37.2,4.7,3.1,0,6.1-.1,9-.4,7-.7,17.1-2.3,24.7-8.3a73.8,73.8,0,0,0,5.7-5.2l3.1-2.9,8.7-7.8c12.8-11.4,26.1-23.1,37.6-36.4,7.1-8.2,14.1-16.6,20.9-24.8l4.6-5.6,1.3-1.7,1.4-1.9a54.3,54.3,0,0,1,5.2,2.1,40.1,40.1,0,0,0,4.1,1.7c9.7,3,18.9,5.4,27.9,7.3a226.5,226.5,0,0,0,46.5,5.1c3.6,0,7.2-.1,10.8-.3,18.8-1.1,35.6-5.8,53.5-10.8l3.1-.9,8.6-2.4-6.6-6.1a34.6,34.6,0,0,0-5.2-4.1c-9.2-6.8-19-13-28.5-18.9-5.1-3.2-10.4-6.5-15.6-9.9,12.3-7.8,25.3-16.9,34.4-29.6,3.8-5.3,5.9-10.8,8-16.1,1-2.5,2-5,3.1-7.5l5-10.7-11.2,3.9c-13.7,4.7-27.2,9-42.7,9.2h-1.3c-13.6,0-27.8-2.4-43.5-7.4-19.4-6.2-38.7-13.7-57.4-21.1l-12.4-4.9a463.3,463.3,0,0,0,48.1-132.9,513.2,513.2,0,0,0,7.7-146.9c-5.2-57.4-12.8-104.3-24-147.8l-2.3-9c-2.2-8.7-4.4-17.6-7.3-26.3S649,77.9,638.7,74.5c-24.5-8.1-50.1-14.2-69.7-18.6A750.5,750.5,0,0,0,405.8,38.1Z" transform="translate(-3 -38.1)" fill="#fff"/><path d="M153.7,460.6c-30.1-96.9-25.4-201-4-299.2q4-18.5,8.8-36.8c2.5-9.7,4-22.1,10.6-30.1s16.6-9.4,25.6-12q17.9-5.3,36-9.8c48.9-12.2,98.8-18,149.2-20.4S480.1,53.9,529.5,63c24.7,4.5,49.2,10.3,73.4,17,10,2.8,22.2,4.6,30.9,10.4s10.1,13.8,12.4,22.5c25.7,96.2,40.9,196.2,24,295.4C654.9,498,612.2,579.6,549,644.8q-12,12.4-24.9,24.1c4.1.3,14.4,1.9,14.4,1.9s4-4.7,5.4-6l8.1-8c10.1-10.2,19.7-20.8,28.9-31.8a461.8,461.8,0,0,0,49-71.6c28.1-50.7,45.7-106.8,53-164.2,8-62.2,3.2-124.3-5.9-186.1-4.5-30.3-11.8-60.1-19.7-89.7-3-11.1-4.3-25.7-15.2-32.1s-27.1-9-39.9-12.4C484,37.2,358.6,33.2,239,60.2c-14.9,3.3-29.6,7.2-44.2,11.3-11.1,3.1-26.5,5-34.4,14.2-4,4.7-5.1,10.5-6.6,16.3l-5.7,22.5c-3.7,15-7.3,30.1-10.6,45.2A650.2,650.2,0,0,0,124,354.6c4.2,57.6,18.4,114.5,42.7,166.9,23.1,49.7,55.5,94.3,93.4,133.7l6.8,7,8.2,8.4s10-1.9,13.2-2.7C227.4,611.1,178.5,540.5,153.7,460.6Z" transform="translate(-3 -38.1)" fill="#e69e4e"/><path d="M534.7,670.1c23.6,4.3,48,10.7,72.2,9.3,10.4-.6,19.9-2.8,26.7-11.2,1.4-1.7,2.5-4.3,4.1-5.7s2-2.7,3.9-1.2l3.7,1.2c6,2,11.9,4,17.9,5.8,23.2,7.1,47.3,12.1,71.6,11.9,11.9-.1,23.9-1.2,35.3-4.4s17.7-6,28.1.2c-26.3,7.4-51,13.1-78.6,11.4a234,234,0,0,1-37.9-5.7c-6.3-1.4-12.5-3.1-18.7-5s-12.6-5.1-18.9-6-7.5,3-11.3,6.4a34.6,34.6,0,0,1-14.1,7.3c-11.9,3.3-24.7,3.4-36.9,2.2-27.6-2.7-55.1-9.7-82.4-14.7s-54.7-9.5-82.5-10.5-56.5,1.5-84.6,6.2-54.7,9.3-82,14c-23.2,4-54.3,10.1-74.4-6.6-1.9-1.6-3.6-4.8-5.8-5.9s-6.2.4-8.8,1.1l-21.3,6.1c-14.2,4-28.4,7.5-43.1,9.3-29.4,3.5-58.4-.4-85.4-12.6,12.8-6.9,24.6.7,37.8,3.1s28,2.7,42,1.6c28.2-2.3,54.1-10.9,81-19.1,3.4,19.1,27.2,21.4,42.2,19.8,21.8-2.3,44.2-5.9,65.8-9.9-38.1-37.3-72.7-79.3-98.1-126.4s-42.9-101.9-50.4-156.5c-8.1-58.4-6.3-118.9,3-177.1,4.7-29.7,11.8-59,19.1-88.2,2.8-11,3.7-26.4,12.9-34.2s25.2-9.8,36.6-13C317.9,41.5,440.3,37,556.6,61.6q21.7,4.6,43.2,10.4c12.7,3.4,27.9,5.8,39.5,12.1s12.2,18.7,15.1,29.5c3.8,14.2,7.5,28.4,10.8,42.7,6.7,29,11.1,58.3,14.3,87.8s6,60,5.1,90.3c-1.8,57.9-12.3,115.6-34.2,169.3-20.8,51.2-51.5,98-89.1,138.3q-7,7.5-14.3,14.8A125.1,125.1,0,0,0,534.7,670.1Zm-25-5.2c5.1,1.1,9.1,3.1,13.7-.3s11.1-10.3,16.3-15.4q15-14.8,28.8-30.9a446.4,446.4,0,0,0,48.5-68.6,435.5,435.5,0,0,0,52-150.3c9.1-59.6,7.1-120.5-2.2-179.9-4.6-29.7-11.2-59.1-18.7-88.2-2.9-11.1-4.2-26.3-12.6-34.8s-22.3-10-32.9-13C543.8,67,483,56.2,421.8,55.1S300.8,60,242.6,73.8c-14.8,3.5-29.5,7.5-44.1,11.8-11.2,3.3-23.2,5.6-28.8,17.1s-8.2,28.1-11.4,41.4-6.7,29.5-9.5,44.3c-11,59.4-15.6,120.5-9.2,180.8,11.4,107.2,59.5,204.2,136,279.9,7.5,7.4,15.6,20.1,27,13.8-3-5.2-9.7-9.5-14.1-13.7s-9.9-9.7-14.8-14.7c-9.7-10-18.9-20.3-27.7-31.1a449.3,449.3,0,0,1-43.8-63.9c-26.7-47.3-43.7-99.3-51.5-152.9-8.1-55.6-6.5-113.9,2.1-169.3,4.4-28.8,11.2-57,17.9-85.4,2.3-9.8,3.3-21.5,10.8-29.1s21.2-8.5,31.5-11.4c55.4-15.6,111.6-25.1,169.2-27.2S496.3,68.2,552,80.2c13.9,3,27.8,6.2,41.5,10.2l19.3,5.7c5.3,1.6,13,2.4,17,6.7s3.6,8.7,4.8,13c1.9,7,4,14,5.9,21q5.6,20.6,10,41.6c11.8,55.9,18.5,113.4,14.1,170.5-2.2,28.6-4.7,57.5-11.3,85.5a421.5,421.5,0,0,1-26.5,76.9c-21.5,47.4-52.1,90.4-88.8,127.2C528.8,647.5,519.2,656.2,509.7,664.9Z" transform="translate(-3 -38.1)" fill="#1e4f9c"/><path d="M31.1,666l24.1-16.7c3.9-2.7,9.5-5.4,12.7-8.9s1.6-3.1-1.4-5.1c-14.6-9.9-27-18.8-37.5-33.2,14.8,2.4,29.2,5.1,44.3,4.5s32.2-3.8,47.8-8.4,29.9-10.4,44.4-16.6c6-2.6,11.9-5.6,18-8,3.5-1.4,4.7-1.6,7.3,1.3,4.4,4.9,7.9,10.8,11.8,16,5.4,7.3,11.3,14.3,16.3,21.9,3.2,4.7,2.1,5.6-3.1,7.8s-12.8,4.9-18.8,8.3c-11.4,6.3-17.7,17.8-29,24.1s-24.6,8.7-37,11.6c-17.2,3.9-34.7,7.4-52.3,8.3a138.8,138.8,0,0,1-26.8-1.1C45.9,670.7,35.9,670,31.1,666Z" transform="translate(-3 -38.1)" fill="#f7c51f"/><path d="M592.8,618.6l17.5-23.4c2.6-3.5,5.3-7.1,7.9-10.7s3.6-7.3,6.2-9.5c5.1-4.3,18.8,4.8,24,7,9.2,3.9,18.5,7.7,27.8,11.3,17.6,6.7,35.5,11.9,54.3,13.6s35.9-1.1,54.3-3.6c-10,16.1-25.8,26.3-41.6,36l40.1,27.8c-34.2,12.3-73.8,5.6-108.1-3.5-8.5-2.3-17-4.8-25.3-7.8s-11.5-9-17.5-14.6C621,630.8,606.4,625.8,592.8,618.6Z" transform="translate(-3 -38.1)" fill="#f7c51f"/><path d="M263,664.7a337.9,337.9,0,0,1-54.9,7.6c-11.5.6-41-4.4-27.6-20.9,5.7-7,13.6-10.8,21.5-15l12.8-6.7c3-1.5,6.5-4.3,10-3.7s6.5,5.1,8.8,7.6l9.6,10.1Z" transform="translate(-3 -38.1)" fill="#f7c51f"/><path d="M561.9,761.9c-12.6,5.9-24.6,7.8-38.6,6.7s-28.6-4.4-42.7-7-26.5-5.5-39.9-7.1c-5.9-.7-12.9-1.8-18.7-.3s-11.1,4.8-17.7,4.3-11.3-4.7-17.5-5.7-13,.2-19.2.8c-13.1,1.2-26.2,3.1-39.1,5.5s-27.3,6.6-41.2,7.9c-10.3,1-30.4,2.5-37.1-6.8a150.1,150.1,0,0,1,19.4.1c6.1.3,12-.7,17.9-1.7,12.9-2.3,25.6-5.4,38.5-7.6a452.6,452.6,0,0,1,81.2-6.6,425.3,425.3,0,0,1,79.4,8.9c13,2.6,25.9,6.5,39,8.6a68.8,68.8,0,0,0,19.8.4C549.7,761.7,560.2,756.8,561.9,761.9Z" transform="translate(-3 -38.1)" fill="#1e4f9c"/><path d="M561.7,654.9c7.7-8,14.8-16.7,22.5-24.6s15.6-.2,23.1,3.6c11.6,5.7,39.3,20.2,20.5,34.8-9.8,7.6-24.9,5.2-36.3,3.8s-21-2.8-31.4-4.8c-1.1-.2-7.4-1.2-7.6-2.2s1-1.5,1.2-2C555,660.5,559.5,657.2,561.7,654.9Z" transform="translate(-3 -38.1)" fill="#f7c51f"/><path d="M625.2,566c1.6-4.7,2.1-7.2,7.2-6,7.1,1.7,14.2,5.4,21,8.1,15.6,6.1,31.3,12.2,47.3,17.4s31,8.4,47.1,8.3,30.5-4.2,45.6-9.5c-5.8,12.4-22.5,15.8-34.7,16.6-15.4,1-31-.6-46.1-3.6C682.7,591.6,652.2,580,625.2,566Z" transform="translate(-3 -38.1)" fill="#1e4f9c"/><path d="M187.6,564.2c-29.3,12.4-58.2,25.6-89.7,31.4-14.7,2.7-30.2,4.4-45.1,3.1-11.8-1-27.7-4.1-33.1-16.2,7,1.4,13.6,5,20.6,6.6a104.3,104.3,0,0,0,23.4,2.4c16.6-.1,33.1-3.5,49-7.9A399.1,399.1,0,0,0,159,566.9c6.7-2.8,13.7-7.2,20.7-9C184.7,556.7,185.5,560,187.6,564.2Z" transform="translate(-3 -38.1)" fill="#1e4f9c"/><path d="M509.5,674.7c38.5-35.6,73.9-74,100.8-119.3,28.5-48.1,48.1-102.2,55.2-157.8,3.7-28.9,6.6-58.5,6.5-87.7s-3.3-59.1-7.6-88.3A776.7,776.7,0,0,0,647,136.8c-1.8-6.8-3.7-13.5-5.6-20.3s-2.2-13.4-5.7-18.2-8.4-5.1-13.1-6.5l-22.3-6.7c-112.6-32.7-233.5-36.8-348-11.3-13.8,3.1-27.3,6.8-40.9,10.7-10.7,3.1-25,3.6-33.7,11.3s-9.6,20-12,30.4c-3.3,14.1-6.8,28.1-9.9,42.2-12.6,57.5-18.4,117.6-15,176.5,3.3,56.2,16.1,112,39.3,163.4,22.3,49.5,54,94.1,91.7,132.9q7.2,7.4,14.6,14.6c4.3,4.1,11,8.5,13.9,13.6-11.8,6.5-20.5-7-28.2-14.7s-18-18.5-26.5-28.3a480.7,480.7,0,0,1-46.2-62.3,451,451,0,0,1-59.4-152.5c-11.8-61.5-11.4-124.5-3.3-186.5a824.5,824.5,0,0,1,16.9-89.2q2.7-11,5.7-22c1.7-6.5,2.9-13.5,6.5-19.3,6.9-11.2,21.4-13.2,33.1-16.5C318.8,43.5,445.8,39.2,567.5,67.3q22.7,5.2,45,11.7c10.7,3.1,23.9,5,30.7,14.8s8.8,26.4,11.8,38.4c3.7,14.7,7.2,29.5,10.3,44.3,12.8,61.2,18.7,124.1,13.8,186.6-4.3,55-17.6,109.2-41,159.3-24.4,52-59.3,98.4-100,138.8-4.5,4.4-9.1,10.1-14.3,13.6S514.3,675.8,509.5,674.7Z" transform="translate(-3 -38.1)" fill="#fff"/><path d="M633.9,689c-11.2,13.2-21.7,26.5-34.4,38.4-11.1,10.4-23.5,24-38.5,28.3s-31.8-.2-47-3.4c-18-3.8-36.1-6.6-54.3-9.3a420.9,420.9,0,0,0-104.5-2.6,510.4,510.4,0,0,0-52.7,8.4c-15.8,3.3-33,9-49.2,6.9-17.9-2.2-30.1-16.2-42-28.5s-25.5-26.5-34.8-41.8c13.2,5.4,25.4,9.4,39.9,9.4s29.2-2.7,43.6-5.5c29.7-5.9,59-12.5,89.2-15.6a527.7,527.7,0,0,1,91.6-1.6c31.5,2.3,62,8.7,92.8,15.5,16.7,3.7,33.6,7.5,50.8,8.5S617.1,693.5,633.9,689Z" transform="translate(-3 -38.1)" fill="#f7c51f"/><path d="M488.7,670.1c19.3-13,37.2-26.3,53.7-42.9a371.3,371.3,0,0,0,44.4-54.3c27.3-40.6,46.3-86.8,57.6-134.4a453.8,453.8,0,0,0,9.5-151.1c-2.8-26.5-7.8-52.6-11.8-78.9-1.9-12.3-5.5-16.8-17.7-19.9s-24.9-6.5-37.5-9.2c-25.8-5.6-52-9.8-78.2-13.2s-51.7-3.8-77.6-4.6-53.7-1.4-80.5.5-53.2,5.4-79.6,9.1c-13.2,1.9-26.5,3.6-39.6,5.7s-25.2,5.9-37.9,8.6c-8.9,1.9-17.3,3-22.2,11.5s-5.7,21.1-7.5,31c-9.1,52-11.8,104.5-5.4,157,6.2,50.6,17.7,101.5,43.7,145.8,12.8,21.7,26.2,43.1,41.4,63.2s32.3,35,49.8,51.2c9.3,8.6,19.5,16.1,29.2,24.2-5.4,1.2-10.7,2.4-16.2,3.4s-9.2,1.7-14.2-2.8c-10.9-9.9-21.3-20.5-31.4-31.3a485.9,485.9,0,0,1-53.6-68.5,441,441,0,0,1-63.7-160.7c-11.1-61.1-10.1-122.3-2.6-183.8,3.8-31,10.4-61.4,17.9-91.7,1.8-7.4,3.5-14.8,5.6-22.1,1.6-5.7,2.7-11.5,6.9-16,8.1-8.8,23.3-10.2,34.3-13.3,60.2-16.9,121.3-25.4,183.7-27.8C450,52.9,512,61.1,570.9,74.9c14.9,3.5,29.6,7.5,44.3,12,11.6,3.5,22.3,5.8,26.4,18.5,9.4,29.7,15.8,61.2,21.5,91.8,11,59.4,15.2,120.3,9,180.4a458.1,458.1,0,0,1-51.8,168.5c-14.1,26.4-31.4,50.6-50.7,73.4-9.3,11-18.9,21.6-28.9,31.9q-7.1,7.2-14.5,14.2c-3.9,3.6-12.9,8.9-12.9,8.9Z" transform="translate(-3 -38.1)" fill="#f7c520"/><path d="M509.8,665.8c3.1-3.4,8.2-8,11.5-11,5.1-4.7,10.2-9.4,15.1-14.3q14.8-14.6,28.2-30.4a441.4,441.4,0,0,0,48.2-69.3c29.3-52.4,45.6-110.7,50.6-170.4a478.9,478.9,0,0,0-.9-89.7c-1.6-15.2-3.9-30.4-6.4-45.5l-3.5-21.4c-1.2-7.4-1.6-15.6-3.7-22.7-3.9-12.6-20.2-13.2-31-15.9q-22.3-5.7-44.9-9.9c-29.9-5.5-60.1-10.8-90.5-12.7-62.4-4.1-125.1-3.8-187.1,4.2-30.3,3.9-61.4,7-91.1,14.4-6.8,1.7-13.6,3.5-20.5,4.9s-11.7,1.9-16.4,5.7c-8.7,7.1-9.4,20.4-11.3,30.6-11.2,61-14.1,122.2-5.2,183.7,4.4,30.3,10.3,60.8,21.7,89.3a435,435,0,0,0,40.1,77.1,479.1,479.1,0,0,0,53.4,67.3q12.6,13.3,26.2,25.6l10.1,8.9c2.2,1.9,6.5,7.3,9.3,8s5-1.2,6.4-1.5q9.4-2,18.8-3.6a385.1,385.1,0,0,1,46.1-4.9,399.2,399.2,0,0,1,91.9,6.2c6.6,1.2,13.1,2.7,19.8,3.6,3.8.5,6.1,1.2,9.2-.9A31.4,31.4,0,0,0,509.8,665.8Z" transform="translate(-3 -38.1)" fill="#e69e4e"/><path d="M539.4,630.5q15.4-15.7,29.2-32.8a426.1,426.1,0,0,0,49.7-77.4c28.5-57.4,41.5-122.1,41.7-186,.1-33.3-3.9-66-9.3-98.8-1.3-8.1-2.7-16.1-4-24.2-1-6.3-.9-14.4-4.3-20s-8.8-6.6-14.6-8c-8.6-2.2-17.2-4.4-25.8-6.5a852.6,852.6,0,0,0-98.6-17.2c-33.2-3.9-67.1-4-100.5-4.5a723.1,723.1,0,0,0-100,5.8c-32.9,4.1-66.4,7.7-98.7,15.7-11.1,2.8-28,2.8-35.6,12.7s-8.1,27-10.1,39c-5.4,32.5-8.8,65.4-8.5,98.3.5,65.3,12.4,132,41.8,190.6,25.4,50.5,61.6,99.6,105.3,135.8,7.9,6.6,17.3,14.4,26.7,18.5a8,8,0,0,0,4.6.8c7.3-.8,14.9-4.4,22.3-5.6a322.5,322.5,0,0,1,75.5-2.9,372,372,0,0,1,41.6,5.8l14.8,3c2.4.5,6.7,2.2,9.2,1.8C497.4,673.4,533.7,636.3,539.4,630.5Z" transform="translate(-3 -38.1)" fill="#fff"/><circle cx="402" cy="317.5" r="135" stroke="#324c9c" stroke-miterlimit="10" stroke-width="5" fill="url(#a)"/><path d="M326.8,253.5l-6.3,5.2c-19.5,16.7-33.3,37.3-39.1,62.6a56.6,56.6,0,0,0-1.1,9.8c0,1.1,1.7,2.3,2.3,3.4.6-1.1,1.1-1.7,1.1-2.9a54.8,54.8,0,0,1,13.8-25.3c1.7-1.7,6.3-17.8,9.2-23C311.3,274.7,325,255.2,326.8,253.5Z" transform="translate(-3 -38.1)" fill="none"/><path d="M373.1,246.1c-5.1-3.1-10.8-3.4-17.6-.6-12.6,4.6-25.9,8-34.5,20.1-9.2,10.3-14.4,22.4-17.2,35.6-.6,1.1,0,3.4,1.1,4a103.3,103.3,0,0,0,11.5,10.9,37.2,37.2,0,0,1,4.6,5.2c2.3,2.9,4,2.9,7.5,1.1,12.1-5.7,24.7-10.3,36.8-16.1a8.9,8.9,0,0,0,4.6-4.6c4.6-9.2,8.6-19,13.2-28.1,1.7-4,6.3-8,5.7-12.1a4.8,4.8,0,0,0-.8-1.8Z" transform="translate(-3 -38.1)" fill="none"/><path d="M292.9,387.9A61.3,61.3,0,0,1,282.5,350V339.6c0-1.1-1.7-2.3-2.9-3.4a8.2,8.2,0,0,0-1.1,3.4c0,10.3-.6,20.7,0,31,1.1,16.1,6.9,31.6,14.9,45.4l1.7,1.7c0-.6.6-1.7.6-2.3-.6-7.5-1.1-15.5-1.7-23C294,390.8,294,389,292.9,387.9Z" transform="translate(-3 -38.1)" fill="none"/><path d="M507.7,277.6a1.8,1.8,0,0,1,.5.9,1.8,1.8,0,0,0-.5-.9.6.6,0,0,0-.6.6A.6.6,0,0,0,507.7,277.6Z" transform="translate(-3 -38.1)" fill="none"/><path d="M445.7,267.2c7.5-4.6,14.9-9.8,22.4-14.9.6-.6,1.1-2.3.6-2.9-5.2-4.6-9.8-10.9-16.1-13.8-21.3-9.8-44.2-10.9-67.8-8-3.4.6-9.8,7.5-10.3,10.9a43.7,43.7,0,0,0-1.1,4.9l18.4,16.8a7,7,0,0,0,2.8.7,164,164,0,0,1,47.1,6.9C442.8,268.4,444.5,267.8,445.7,267.2Z" transform="translate(-3 -38.1)" fill="none"/><path d="M508.3,279.3c0,1.1.6,1.7,1.1,2.9,7.5,14.4,12.1,29.3,10.9,46a7.3,7.3,0,0,0,.6,3.4c6.3,10.9,7.5,23.6,9.2,35.6,0,1.7,1.1,2.9,1.1,4.6.6-1.7,1.1-2.9,1.7-4.6a2.1,2.1,0,0,1,.6-1.7c1.7-24.1-2.3-47.7-13.8-68.9C516.3,290.2,511.7,284.5,508.3,279.3Z" transform="translate(-3 -38.1)" fill="none"/><path d="M518.6,323c-2.3-32.2-14.9-55.7-44.2-68.4a11.8,11.8,0,0,0-6.3,0c-6.9,4-13.8,8.6-20.1,13.2-1.7,1.1-2.3,2.3-1.1,4.6,6.3,13.2,9.2,27,10.9,41.4,0,1.7,1.1,4,2.9,4.6,10.9,6.9,21.3,14.4,30.4,23.6,1.1,1.1,3.4,1.7,4.6,1.1l17.2-8.6C516.9,331,519.8,327.6,518.6,323Z" transform="translate(-3 -38.1)" fill="none"/><path d="M530.1,377l-10.3,25.9c-1.7,2.3-3.4,5.2-5.7,7.5s-4.6,6.9-4,11.5v6.9c1.8-2.2,7.1-9.4,8-10.9l4.4-9.2c5.2-9.8,7.6-20.7,9.4-31.1,0-1.1-.6-1.7-.6-2.9A4.4,4.4,0,0,0,530.1,377Z" transform="translate(-3 -38.1)" fill="none"/><path d="M487.6,341.4c-9.2-6.9-17.8-13.8-27-20.7-2.3-1.7-4.6-1.7-7.5-.6-13.2,6.9-27,13.2-40.2,19.5a4.1,4.1,0,0,0-1.7,1.2l-8.2,50.8c.2,1.5,1.1,2.4,2.4,3.6a159.2,159.2,0,0,0,33.3,25.3c1.7,1.1,4.6,1.1,6.9.6a106.9,106.9,0,0,0,31-13.8c3.4-2.3,6.3-5.2,9.8-7.5,4.6-14.9,6.9-29.9,5.7-46C492.2,349.4,492.2,344.2,487.6,341.4Z" transform="translate(-3 -38.1)" fill="none"/><path d="M503.1,265.9c-28.1-31-64.3-45.4-105.7-43.1-38.5,1.7-70.7,18.4-95.4,48.3-25.9,31.6-36.2,68.9-28.1,109.1,9.2,48.8,37.9,82.7,83.9,101.1,3.4.6,5.2-1.1,6.3-3.4l-13.8-5.2a12,12,0,0,1-3.4-2.3c-1.7-2.3-1.1-3.4,1.7-4.6a111.8,111.8,0,0,0,12.6-4.6,4.4,4.4,0,0,1-2.3-1.1,105.1,105.1,0,0,1-14.4,4.6c-1.7.6-3.4-.6-5.2-1.1-13.8-6.3-25.3-14.9-34.5-27-5.2-7.5-7.5-15.5-8.6-23.6-.6-5.7-.6-12.1-1.1-17.8a4.4,4.4,0,0,1,3.4-4.6,83.8,83.8,0,0,0,10.9-4c2.7-1.2,5-1.7,7.1-1.3l4.9,4v.2c0,.4.5.5.9.7l9.9,8.2.6.5,21.4,17.6a9.7,9.7,0,0,1,1,2.8c1.7,9.2,4,17.8,6.3,26.4a33.6,33.6,0,0,1,7.5,1.1c6.9,1.1,6.9,1.1,4.6-5.7v-1.7a2.1,2.1,0,0,1,1.7.6c2.9,1.7,6.3,3.4,9.8,5.7s4,1.1,4.6-1.7c0-1.1.6-2.9.6-4l3.4-27.6a155.9,155.9,0,0,0,.6-16.1l-36.2,15.5a5.2,5.2,0,0,1-5.7,0l-5.4-3.6-25.5-21c-3.1-3.7-3.5-8.3-3-13.3,1.7-12.1,3.4-24.7,4.6-36.8.6-8,5.2-11.5,12.1-13.8,1.1-.6,1.7-.6,2.9-1.1,9.8-4,19-8,28.7-11.5,1.1-.6,2.9.6,4,1.1,11.5,10.3,23.6,20.7,35.6,31,1,.5,1.6,2.3,1.7,3.6l-7.3,45.8a39.3,39.3,0,0,1-2.4,3.5c3.4,11.5,6.9,22.4,10.9,33.9.6,1.7,1.7,1.7,2.9,0l1.7-1.7c0,.6.6,1.7.6,2.3v10.3c0,2.9-.6,5.2,4,2.9,6.9-4,14.4-6.9,21.3-9.8h0c.6-5.2,3.4-7.5,9.2-8.6a106.6,106.6,0,0,0,34.5-16.7c2.9-2.3,5.2-2.3,8,0s8.6,5.2,13.2,8a5.9,5.9,0,0,1,2.9,4.6c.6,9.2-1.7,17.2-9.2,24.1-13.2,12.6-27.6,23.6-45.4,28.1-1.1,0-2.9.6-4,.6.6,3.4,3.4,4.6,6.3,5.7,50-21.3,78.1-59.2,82.7-112C541.6,329.1,529.6,294.6,503.1,265.9Zm4.6,13.8a1.8,1.8,0,0,1,.5.9,1.8,1.8,0,0,0-.5-.9.6.6,0,0,1-.6.6A.6.6,0,0,1,507.7,279.7Zm-212,137.9c0,.6-.6,1.7-.6,2.3l-1.7-1.7c-8-13.8-13.8-29.3-14.9-45.4-.6-10.3,0-20.7,0-31a8.2,8.2,0,0,1,1.1-3.4c1.1,1.1,2.9,2.3,2.9,3.4v10.3A61.3,61.3,0,0,0,292.9,390c1.1,1.1,1.1,2.9,1.1,4.6C294.6,402,295.2,410.1,295.7,417.5Zm1.7-109.1a54.8,54.8,0,0,0-13.8,25.3c0,1.1-.6,1.7-1.1,2.9-.6-1.1-2.3-2.3-2.3-3.4a56.6,56.6,0,0,1,1.1-9.8c5.7-25.3,19.5-46,39.1-62.6l6.3-5.2c-1.7,1.7-15.5,21.3-20.1,29.9C303.8,290.6,299.2,306.7,297.5,308.4Zm85.6-32.7c-4.6,9.2-8.6,19-13.2,28.1a8.9,8.9,0,0,1-4.6,4.6c-12.1,5.7-24.7,10.3-36.8,16.1-3.4,1.7-5.2,1.7-7.5-1.1a37.2,37.2,0,0,0-4.6-5.2,103.3,103.3,0,0,1-11.5-10.9c-1.1-.6-1.7-2.9-1.1-4,2.9-13.2,8-25.3,17.2-35.6,8.6-12.1,21.8-15.5,34.5-20.1,6.8-2.8,12.4-2.5,17.6.6L388,261.8a4.8,4.8,0,0,1,.8,1.8C389.4,267.6,384.8,271.6,383.1,275.6ZM394.6,263a7,7,0,0,1-2.8-.7l-18.4-16.8a43.7,43.7,0,0,1,1.1-4.9c.6-3.4,6.9-10.3,10.3-10.9,23.6-2.9,46.5-1.7,67.8,8,6.3,2.9,10.9,9.2,16.1,13.8.6.6,0,2.3-.6,2.9-7.5,5.2-14.9,10.3-22.4,14.9-1.1.6-2.9,1.1-4,.6A164,164,0,0,0,394.6,263Zm91.9,139c-3.4,2.3-6.3,5.2-9.8,7.5a106.9,106.9,0,0,1-31,13.8c-2.3.6-5.2.6-6.9-.6a159.2,159.2,0,0,1-33.3-25.3c-1.2-1.2-2.1-2.2-2.4-3.6l8.2-50.8a4.1,4.1,0,0,1,1.7-1.2c13.2-6.3,27-12.6,40.2-19.5,2.9-1.1,5.2-1.1,7.5.6,9.2,6.9,17.8,13.8,27,20.7,4.6,2.9,4.6,8,4.6,12.6C493.4,372.2,491.1,387.1,486.5,402Zm9.2-56.9c-1.1.6-3.4,0-4.6-1.1-9.2-9.2-19.5-16.7-30.4-23.6-1.7-.6-2.9-2.9-2.9-4.6-1.7-14.4-4.6-28.1-10.9-41.4-1.1-2.3-.6-3.4,1.1-4.6,6.3-4.6,13.2-9.2,20.1-13.2a11.8,11.8,0,0,1,6.3,0c29.3,12.6,41.9,36.2,44.2,68.4,1.1,4.6-1.7,8-5.7,11.5Zm26.8,65.5-4.4,9.2c-1,1.5-6.3,8.7-8,10.9v-6.9c-.6-4.6.6-8.6,4-11.5s4-5.2,5.7-7.5l10.3-25.9a4.4,4.4,0,0,1,1.1-2.3c0,1.1.6,1.7.6,2.9C530.1,390,527.7,400.9,522.5,410.7Zm11.1-43.1a2.1,2.1,0,0,0-.6,1.7c-.6,1.7-1.1,2.9-1.7,4.6,0-1.7-1.1-2.9-1.1-4.6-1.7-12.1-2.9-24.7-9.2-35.6a7.3,7.3,0,0,1-.6-3.4c1.1-16.7-3.4-31.6-10.9-46-.6-1.1-1.1-1.7-1.1-2.9,3.4,5.2,8,10.9,11.5,17.2C531.3,319.9,535.3,343.4,533.6,367.6Z" transform="translate(-3 -38.1)" fill="#324c9c"/><polygon points="391.3 453.9 332 483.1 372.2 430.6 317.3 393.8 382.9 402.4 387.3 336.4 412.6 397.5 472 368.3 431.7 420.8 486.7 457.6 421.1 449 416.7 515 391.3 453.9" fill="#f3c119"/><path d="M391.4,381l23.5,56.6,55-27-37.3,48.7,50.9,34.2-60.8-8-4.1,61.2L395.1,490l-55,27,37.3-48.7-50.9-34.2,60.8,8,4.1-61.2m-2.1-13-.9,12.8-3.9,58-57.6-7.6-12.7-1.7,10.6,7.1,48.3,32.4-35.4,46.1-7.8,10.2,11.5-5.6,52.2-25.6,22.3,53.7,4.9,11.8.9-12.8,3.9-58,57.6,7.6,12.7,1.7L485.2,491l-48.3-32.4,35.4-46.1,7.8-10.2-11.5,5.6-52.2,25.6-22.3-53.7-4.9-11.8Z" transform="translate(-3 -38.1)" fill="#e2a63b"/><path d="M405.9,564.8a5.1,5.1,0,0,1-2.7-1l-1.1-.6-.4-.2-.3-.3a4.8,4.8,0,0,1-1.3-2.2c-2.5-3.9-5.6-5.9-9.3-5.9s-6.3,1.2-9.9,3.5a5.8,5.8,0,0,1-4.3,1.9h-4.5v-2.5a4.7,4.7,0,0,1,.6-2.1v-.8l8.7-10.9a11,11,0,0,1,8.6-3.8,12.3,12.3,0,0,1,8.8,3.6,97,97,0,0,1,9.9,12.2c2.4.2,2.4,2.9,2.4,3.9v1l-.7.7-.4.5a8.6,8.6,0,0,1-3,2.7l-.5.3Z" transform="translate(-3 -38.1)" fill="#f3c119"/><path d="M390,542.4a9.8,9.8,0,0,1,7,2.8,106.4,106.4,0,0,1,10.9,13.7c.3-.5.4-.7.5-.7s.2.6.2,1.4-1.4,2-2.7,2.7-1.4-.7-2.7-1.4a2.1,2.1,0,0,1-.7-1.4c-3.1-5-7.1-7.4-11.7-7.4s-7.4,1.4-11.5,4a3.5,3.5,0,0,1-2.7,1.4h-2c0-.7.7-1.4.7-2l8.2-10.2a8.6,8.6,0,0,1,6.7-2.8m0-5a13.5,13.5,0,0,0-10.6,4.7l-4.2,5.2-4,5-1.1,1.4v.9a6.7,6.7,0,0,0-.7,2.9v5h7a8.2,8.2,0,0,0,5.9-2.4c3.1-1.9,6-3,8.4-3s4.4.5,7.1,4.4a7.3,7.3,0,0,0,1.8,2.9l.6.6.7.4.9.5a7.5,7.5,0,0,0,4.1,1.4H407l1.1-.5a10.9,10.9,0,0,0,3.8-3.4l.2-.3,1.4-1.4v-2.1c0-.5,0-1,0-1.4a5.2,5.2,0,0,0-3.4-4.7,95,95,0,0,0-9.7-11.8,14.8,14.8,0,0,0-10.5-4.3Z" transform="translate(-3 -38.1)" fill="#e2a63b"/><path d="M436.3,657.5h-.1l-8.9-.6c-3.1-.2-6-.3-9-.7H376l-.7-.7a5.4,5.4,0,0,1-1.2-2.3v-.3c-5.9-4.3-9.8-10.8-12.2-20.5h0c-.6-3.4-3-6.9-5.1-9-13.5-12.9-20.1-30-26.5-46.6l-.6-1.5c-.8-2.5-.2-6.3,1.4-9a28.8,28.8,0,0,1,3.7-6.6c2-3,3.8-5.6,3.8-9.1s2.8-5.7,3.3-6.3l.2-.2.7-.5c1.8-1.2,4.1-2.8,6.5-2.8l1.6.3c3.1,1,4.8,4.7,5.5,6.7h.1a34.4,34.4,0,0,1,1.4,8.3c0,1.6-.2,7.1-3.3,8.7h-.2c-1.3.5-1.6.9-1.7,1s-.1.8,1.5,2.8c4.4,5.2,5.1,11.3,5.1,17a13.9,13.9,0,0,0,1.1,3.8v.4h.1a3.6,3.6,0,0,1,3.4-2.5c1.8,0,3.1,1.3,4.1,2.3l6,4.7,3.8-1.3,2.9-.7,2.3-.6h.2v-.8a3.2,3.2,0,0,1-.6-1.9v-1.7l1.6-.6c3.2-1.3,6.2-2.7,9.2-4.1s6.2-2.9,9.5-4.3,3.8-1.8,4-2.1-.3-1.1-1.9-3.1-3.4-6.4-2.8-9.4,2.7-5.3,6.1-7.2a5.2,5.2,0,0,0,2.5-2.8l-.8-.4a8.8,8.8,0,0,1-4.3-3.5l-2.5-4c-1.6-2.5-3.2-5-4.7-7a9.1,9.1,0,0,0-2-.8l-1.2-.4a50.2,50.2,0,0,1-5.7.8c-2.7.3-5.1.5-6.9,1.4s-2,2.2-3,3.9a32,32,0,0,1-1.8,2.9l-.3.5c-.6,1.4-1.5,3.2-3.1,4.1s-2.6,1.8-3.9,2.6-2.5,1.6-3.7,2.5l-2.2,1.7-1.4-2.4a73.2,73.2,0,0,1-5.3-10c-.9-2,.3-4,1.4-5.7a11.3,11.3,0,0,0,1.1-1.9v-.2c3.7-8.9,9.9-13.7,19.4-15.1a128.8,128.8,0,0,0,12.7-3.3l9-2.5h1c-2-8.4-4-17.5-5.7-26.8-1.2-5.8-2.3-14.5,1.5-22.8.7-1.4,2.3-4.6,5.6-4.6a6.4,6.4,0,0,1,2.8.7,11.5,11.5,0,0,1,5.8,5.1h.1a71,71,0,0,1,2.8,10.7c.3,1.7.7,3.4,1.1,5.1,1.9,6.9,3.8,14,6.4,21,3.6,10.8,8.5,25,14.2,39.3h.1c2.6,7.7,4.7,15.3,3.3,24.4h0a15.9,15.9,0,0,0,0,7.2v.2l1.9,25.3c.4,3.5.8,7,1.1,10.4.7,7.3,1.4,14.3,2.7,21.6s-1.6,15.2-4.6,20.6c-.6,2.3-3.8,2.3-5,2.3Z" transform="translate(-3 -38.1)" fill="#f3c119"/><path d="M403.6,465.6a4.1,4.1,0,0,1,1.8.5,9.1,9.1,0,0,1,4.5,3.9c1.9,5.2,2.6,10.3,3.9,15.5,1.9,7.1,3.9,14.2,6.4,21.3,4.5,13.5,9,26.4,14.2,39.3,2.6,7.7,4.5,14.8,3.2,23.2a18.4,18.4,0,0,0,0,8.4l1.9,25.1c1.3,11,1.9,21.3,3.9,32.2,1.3,7.1-1.3,13.5-4.5,19.3,0,.6-1.9.6-2.6.6-6.4-.6-12.3-.6-18.1-1.3H377.1c-.6-.6-.6-1.9-1.3-2.6-6.4-4.5-9.7-11.6-11.6-19.3-.6-3.9-3.2-7.7-5.8-10.3-13.5-12.9-20-30.3-26.4-47.1-.6-1.9,0-5.2,1.3-7.1,1.9-5.8,7.7-9.7,7.7-16.8,0-1.3,1.3-3.2,2.6-4.5s3.8-2.7,5.6-2.7h.8c1.9.6,3.2,3.2,3.9,5.2a32.4,32.4,0,0,1,1.3,7.7c0,2.6-.6,5.8-1.9,6.4-5.2,1.9-3.2,5.2-1.3,7.7,3.9,4.5,4.5,9.7,4.5,15.5,0,1.9,1.3,4.5,1.9,6.4a2,2,0,0,0,1.3.3,15.8,15.8,0,0,0,2.6-.3c.3-1.7.8-2.3,1.4-2.3s1.7.9,2.4,1.6c5.8,4.5,11.6,9,17.4,14.2.6.6,1.3,1.3,1.9,1.3H388a3.9,3.9,0,0,0-.6-2.6l-5.8-5.8c-1.3-1.3-1.9-2.6-3.2-3.2,1.9-.6,3.2-.6,5.2-1.3s3.9,0,5.2-.6,2.6-1.9,3.9-2.6c-1.3,0-3.2-.6-4.5-.6h-2.6c0-.6-.6-.6-.6-1.3,6.4-2.6,12.3-5.8,18.7-8.4s7.1-3.9,3.2-9-3.2-9.7,2.6-12.9c3.2-1.9,4.5-4.5,3.9-8.4l-2.8-11,1.9,7.8a9.2,9.2,0,0,1-1.3,3.9,6.4,6.4,0,0,1-3.2-2.6c-2.6-3.9-5.2-8.4-7.7-11.6-1.9-1.3-3.9-1.3-4.5-1.9h0c-5.2,1.3-10.3.6-14.2,2.6s-3.9,5.2-5.8,7.7-1.3,3.2-2.6,3.9-5.2,3.2-7.7,5.2a70.5,70.5,0,0,1-5.2-9.7c-.6-1.3,1.9-3.9,2.6-5.8,3.2-7.7,8.4-12.3,17.4-13.5,7.1-1.3,14.2-3.9,21.9-5.8a5.3,5.3,0,0,1,3.9,2.6c1,3.2,1.8,6.4,2.6,9.5-3.5-13.8-6.7-27.7-9.4-41.9-1.3-6.4-1.9-14.2,1.3-21.3.9-1.9,1.9-3.1,3.3-3.1m0-5c-4.9,0-7.1,4.4-7.8,5.8h-.1c-4,8.9-2.9,18.1-1.6,24.3,1.6,8.4,3.4,16.6,5.1,24.3l-7.6,2.1a127.1,127.1,0,0,1-12.5,3.2c-10.3,1.5-17.2,6.9-21.2,16.6v.3l-.8,1.3a18.2,18.2,0,0,0-1.5,2.7,9.1,9.1,0,0,0-4-2.7,7.6,7.6,0,0,0-2.4-.4c-3.1,0-5.9,1.9-7.9,3.2l-.5.3-.4.3-.4.4c-.9.9-4,4.3-4,8s-1.3,4.6-3.4,7.7a31.9,31.9,0,0,0-3.9,6.9c-1.7,2.9-2.7,7.3-1.5,10.8h.1l.5,1.4c6.5,16.8,13.1,34.2,27.1,47.5a15.7,15.7,0,0,1,4.4,7.6v.4c2.5,9.9,6.5,16.8,12.5,21.4a7.3,7.3,0,0,0,1.7,2.8l1.5,1.5h43.1c3,.3,5.9.5,9,.7l8.8.6h.5c4.9,0,6.7-2.1,7.3-3.8,3.1-5.7,6.3-13.3,4.7-22-1.3-7.2-2-14.1-2.7-21.4-.3-3.4-.7-6.9-1.1-10.4l-1.8-23-.2-2.1v-.8a13.4,13.4,0,0,1,0-6V570c1.5-9.7-.8-17.6-3.4-25.6h-.1c-5.7-14.2-10.5-28.3-14.1-39.1h0c-2.5-6.9-4.4-14-6.3-20.8-.4-1.6-.7-3.2-1.1-4.9a72.8,72.8,0,0,0-2.9-11.1v-.5a14.1,14.1,0,0,0-7.1-6.3,8.9,8.9,0,0,0-3.7-.9Zm-20.1,81.6c1.4-.7,3.5-.9,6-1.1s3.4-.3,5.3-.7l.7.2,1.1.4c1.4,1.8,2.8,4.1,4.3,6.4l2.5,3.9a9.5,9.5,0,0,0,3.3,3.4c-4,2.3-6.4,5.2-7.2,8.8s.3,7.5,3.2,11.4l.5.7-1.6.7c-3.4,1.3-6.6,2.9-9.6,4.3s-6,2.8-9.1,4.1l-3.1,1.3v3.4a5.9,5.9,0,0,0,.1.9l-3.1.8-2.6.9-4.8-3.7c-1.2-1.2-3.1-2.9-5.7-2.9a6.1,6.1,0,0,0-2.2.4c0-6.1-.8-12.5-5.6-18.2l-.2-.3c4.1-2.2,4.5-8.3,4.5-10.8q0-.2,0-.5l.7,1.2,2.9,4.8,4.4-3.3,3.5-2.3,3.9-2.6a10.8,10.8,0,0,0,4-5.2v-.3c.7-1,1.3-2,1.8-3a14.1,14.1,0,0,1,1.9-2.9Zm-29.3,25.6h0Z" transform="translate(-3 -38.1)" fill="#e2a63b"/><polygon points="380.7 441.5 353.4 437.3 374.9 420 364.8 394.3 390.6 404.2 407.8 382.7 412.1 409.9 439.4 414.1 417.9 431.4 428 457.1 402.2 447.2 385 468.7 380.7 441.5" fill="#fff"/><path d="M410.2,423.2l4.1,25.7,25.8,3.9-20.3,16.4,9.5,24.3-24.3-9.4-16.3,20.3-4.1-25.7-25.8-3.9,20.3-16.4-9.5-24.3,24.3,9.4,16.3-20.3m1.3-4.8-2.8,3.5-15.3,19.2-22.9-8.8-4.2-1.6,1.7,4.2,9,22.9-19.1,15.5-3.5,2.9,4.5.7,24.3,3.7,3.8,24.3.7,4.5,2.8-3.5,15.3-19.2,22.9,8.8,4.2,1.6-1.7-4.2-9-22.9,19.1-15.5,3.5-2.9-4.5-.7L416,447.2l-3.8-24.3-.7-4.5Z" transform="translate(-3 -38.1)" fill="#e2a63b"/><path d="M222.7,158.5q.7-13.5-1.4-59.8l1.5-.3q18.7,25.6,31.3,41.5,7.4-20.8,16.9-49.7l1.1-.2q5.8,20.8,16.7,57.1a20.2,20.2,0,0,0-3.9.2,19.9,19.9,0,0,0-3.7,1.1q-7.5-30.8-11.5-41-11.7,30.3-14.3,45.4l-1.2.2q-2.8-5.8-11-16.2l-17.3-22q.9,28.5,3.1,42.5a13.1,13.1,0,0,0-3.2.1A16.3,16.3,0,0,0,222.7,158.5Z" transform="translate(-3 -38.1)" fill="#144ca3"/><path d="M319.6,81.4,331,68.4q2.3-2.6,3.9-2.6t3.2,2.8q.1,1.8-2.4,3.5l-13.3,9.1Zm6.3,63.5q.1-8-.5-21.9l-.3-7q-1-21.3-1.9-29a19.6,19.6,0,0,0,3.8.2,21.4,21.4,0,0,0,4-.5q-.1,5.6.4,16.6l.6,12.4.3,7.3.3,6.7q.5,9.8,1,14.9a19.7,19.7,0,0,0-3.8-.2A22.4,22.4,0,0,0,326,144.9Z" transform="translate(-3 -38.1)" fill="#144ca3"/><path d="M375.8,140.7q.3-9.1.1-29t-.6-29.1h6.4l7.2-.2,9.3-.2q12.9-.1,19,3.9,10.9,7.2,11.1,23.3t-8.3,23q-8.5,8-24.9,8.2H375.8Zm7.6-3.8q5.4.4,8.9.3,27.9-.3,27.6-26.2-.1-13.7-5.9-19.7t-18.4-5.9q-6.9.1-12.8.5-.1,11.8,0,23.3Q382.9,125,383.4,136.9Z" transform="translate(-3 -38.1)" fill="#144ca3"/><path d="M461.2,143q17.5-31.7,30.7-56.9h1.6q9.6,30.6,20,60.8a23.2,23.2,0,0,0-4.1-.7,24.9,24.9,0,0,0-4.4.1q-2.4-9.8-5.7-19.8l-1.2-3.5-10.4-1-10.5-.6q-4.7,8.8-10.5,21.9a9.9,9.9,0,0,0-2.8-.6Zm17.8-25.1,2.6.2,3.8.3,5.1.4,6.3.5-1.2-3.8q-.9-3-6-17.8Z" transform="translate(-3 -38.1)" fill="#144ca3"/><path d="M543,146.1a36.5,36.5,0,0,0,4.3-8.1q1,10.9,10.6,13.7a11.9,11.9,0,0,0,9.4-.7q4.2-2.3,5.8-7.8a9.7,9.7,0,0,0-.2-6.9,17.4,17.4,0,0,0-5-5.8l-5.8-4.7q-9.5-7.8-6.8-16.9a15.4,15.4,0,0,1,8.1-9.9q6.1-3,13.7-.8a28.2,28.2,0,0,1,11.5,6.7,40.5,40.5,0,0,0-4.1,5.6q-2.5-7.5-9.4-9.6a9.9,9.9,0,0,0-7.9.6,10.6,10.6,0,0,0-4.8,6.6q-1.9,6.4,5.3,12.4l5.8,4.8q5,4.1,6.6,8.1a14,14,0,0,1,0,9.2q-2.3,7.9-9,11.2t-15.5.7A22.5,22.5,0,0,1,543,146.1Z" transform="translate(-3 -38.1)" fill="#144ca3"/><path d="M313.8,731.5a25.2,25.2,0,0,0,1-6.3q3.1,6.9,10,6.6a8.2,8.2,0,0,0,5.9-2.6,8.5,8.5,0,0,0,2-6.4,6.7,6.7,0,0,0-1.7-4.4,12,12,0,0,0-4.6-2.7l-4.8-1.8q-7.9-2.9-8.3-9.5a10.6,10.6,0,0,1,3-8.3,12.6,12.6,0,0,1,8.8-3.6,19.5,19.5,0,0,1,9,1.7,27.9,27.9,0,0,0-1.4,4.6,9.4,9.4,0,0,0-8.3-4.1,6.8,6.8,0,0,0-5,2.2,7.3,7.3,0,0,0-1.6,5.4q.2,4.6,6.3,6.9l4.8,1.8a14.6,14.6,0,0,1,6.1,3.8,9.7,9.7,0,0,1,2.1,6,11.8,11.8,0,0,1-3.4,9.3q-3.6,3.7-10,4A15.5,15.5,0,0,1,313.8,731.5Z" transform="translate(-3 -38.1)" fill="#0c5e9f"/><path d="M354.3,730.3q-.5-16.1-1-27.5l-.5-9.8h-1.6a63.1,63.1,0,0,0-10.7,1.2,16,16,0,0,0,0-1.6c0-.4-.1-1-.2-1.8l14-.5,15.6-.9a7.6,7.6,0,0,0-.1,1.7,8.9,8.9,0,0,0,.3,1.7,61.7,61.7,0,0,0-10.4-.2h-1.7q-.1,4.9.3,13.1.5,10.7,1.5,24.1h-5.4Z" transform="translate(-3 -38.1)" fill="#0c5e9f"/><path d="M374.7,723a3.3,3.3,0,0,1,6.6-.3,3.1,3.1,0,0,1-.9,2.3,3.2,3.2,0,0,1-2.3,1.1,3.2,3.2,0,0,1-2.4-.8A3.1,3.1,0,0,1,374.7,723Z" transform="translate(-3 -38.1)" fill="#0c5e9f"/><path d="M406.2,726.5v-.9q9.3-9.4,12.4-13.9,4.4-6.2,4.3-11.5a9,9,0,0,0-1.8-5.8,5.6,5.6,0,0,0-4.6-2q-4.9.1-6.8,6.5a15.7,15.7,0,0,0-2.2-3,11.2,11.2,0,0,1,9.8-5.5q4.8-.1,7.5,2.4a9.4,9.4,0,0,1,2.8,7q.1,4.8-4,9.8l-11.7,13h5.3q4.2-.1,11.2-.7c-.1.7-.1,1.3-.1,1.6a18.6,18.6,0,0,0,.2,2.4l-11.1.2Z" transform="translate(-3 -38.1)" fill="#0c5e9f"/><path d="M432,710.4q-.3-18.3,12.3-18.5T457,710q.2,18.3-12.3,18.4T432,710.4Zm4.5-.1q.1,8.6,2,12.5a6.9,6.9,0,0,0,12.6-.3q1.6-3.8,1.4-13.1t-2.1-12a6.4,6.4,0,0,0-6.1-3.8,6.5,6.5,0,0,0-6.2,4.2Q436.3,701.6,436.5,710.3Z" transform="translate(-3 -38.1)" fill="#0c5e9f"/><path d="M462.9,731.2q.4-12.5.2-24.4-.1-4.1-.3-8s-1.3-1.4,4.8-4.6q-.3,9.3,0,27.6v9.3l-2.4-.2Z" transform="translate(-3 -38.1)" fill="#0c5e9f"/><path d="M471.6,715.9q-.3-18.3,12.3-18.5t12.8,18.1q.2,18.3-12.3,18.4T471.6,715.9Zm4.5-.1q.1,8.6,2,12.5a6.9,6.9,0,0,0,12.6-.3q1.6-3.8,1.4-13.1t-2.1-12a6.4,6.4,0,0,0-6.1-3.8,6.5,6.5,0,0,0-6.2,4.2Q476,707.1,476.1,715.8Z" transform="translate(-3 -38.1)" fill="#0c5e9f"/><path d="M249.2,682l-1.5-7.8,86.7-13.5a622.7,622.7,0,0,1,144.5,1.1l78.4,12.8v8.9l-77.4-11.7c-68.4-7.2-83.2-7.6-141.5-2.5l-8.2,1Z" transform="translate(-3 -38.1)" fill="#1e4f9c"/></svg>