<svg xmlns="http://www.w3.org/2000/svg" viewBox="0 0 547.4 566.9"><title>neistid</title><path d="M27.4,287.8c.8,16.3,20.1,60.9,29.7,65.5,10.4,30.6,40.5,58.4,76.3,85.1,22.8,17,49.3,32.9,73.2,51,28.8,21.8,55.3,46.3,72.3,75.3,10.2-17.5,30.1-45.3,60.3-61,49.1-25.5,80.8-41.8,119.5-76,22.2-19.6,45.8-42.7,62.3-67.6l1.4-10.8c5.3-5.2,20-40.2,24.4-49.5l-7.5,23.8" transform="translate(-9.8 0)" fill="#fff" fill-rule="evenodd"/><path d="M541.8,323.5H536l-3.1,5.4A92.1,92.1,0,0,1,519.5,347L518,358.4c-12.8,18.7-28,35.2-44.5,50.8s-33.2,30-51.6,42.8-38.5,24.1-58.6,34.8c-12.6,6.7-25.8,12.5-37.6,20.4-19.4,13.1-34.2,29.8-47,49.4-13.4-20.1-29.9-37.1-48.2-52.8a545.8,545.8,0,0,0-49.7-37.3c-26.6-18-53.1-35.5-77.2-56.9-19.5-17.4-35.1-35.3-44.5-60-10.5-6-14.3-16.8-16.2-28.3l.6-5.4H36.9c.8,16.5,8.2,32.9,17.9,37.6,10.5,30.9,40.9,59,77,85.9,23.1,17.2,49.8,33.2,74,51.5,29.1,22.1,55.9,46.8,73,76,10.3-17.7,30.4-45.8,60.9-61.6,49.6-25.8,81.6-42.3,120.7-76.7,22.4-19.8,46.2-43.1,62.9-68.2l1.5-10.9c5.4-5.2,12.7-16.6,17.1-25.9Z" transform="translate(-9.8 0)" fill="#231f20" fill-rule="evenodd"/><path d="M525.6,186.6c10.3-3.7,13.7-5.2,24-13,2,21.3-2.1,53.9-11.4,77.1,6.4-.6,13.8-3.4,18.8-7.6,1.8,34.7-7.2,68.7-19.6,101.2a14,14,0,0,0-13.2-4.3c-22.3,5.4-46,10-67.3,8.6-2.3-5-3.2-11.8-1.5-16.4-17.2,3.2-30,25.9-65.6,17.3-69-16.5-143.5-18.7-217.7-12.7-29.2,2.4-47.3-8.4-66.2-24.4-1,7.3-1.9,18.6,0,26.6-20.4-3.1-25.8-4.1-44.7-11.6-9.2-4-18.5.6-20,8-11.9-8.9-21.6-49.9-20.4-80,6.9,1,14.2,2.7,19.6,2.9-20.9-31-33.7-65.7-29.8-96,9,9.7,15.8,11.4,26.9,16C19.9,136.9,12.2,99.6,25.8,65.5,38,92.3,60.3,119,87.6,133.2c-24-35.9-32.8-73.4-16-111.3,12.6,21.6,29.6,27.2,50.9,40C122,36.9,128.8,9,143.6,0c15.5,72.2,106,56.7,128.8,105.5,24.9-55.4,109.3-30.8,115.3-104,23.7,12.8,27.6,37.6,24,63.7,23.1-1.3,46.3-17.4,59.7-38.2,15.1,30.8,3.6,70.3-9.5,102.6,28.8-8.5,53.3-32.1,73.8-60.8,14.8,38.2,3.3,78.7-10.2,117.9Z" transform="translate(-9.8 0)" fill="#ed2129" fill-rule="evenodd"/><path d="M484.5,219.3c15-1.6,26.7-3.6,43.2-13,1.8,17.7-7,52.9-15.3,72.1a106.7,106.7,0,0,0,25.4-4.1c-.5,19.4-4.2,36.3-12.8,50.2-2.7,4.4-43.3,11-48.4,9.3-4.2-9.4-5.1-15.3-6.7-24-27.7,4.9-58.7,35.4-91.2,26.1-60.4-17.3-139.8-16.7-205.9-11.7-36.9,2.9-60.3-22.7-71-30-8.7,11.6-7.7,22.1-8.8,27.6-9.6,1.2-45.2-9.3-47.9-13.5-3.9-6.3-5.5-14.9-7-25.9,9.8,1.9,25.9,2.2,37.7-.5-21.6-28-34.1-47.8-39.4-80.3,13.5,8.1,30.1,9.5,37.8,10.8C61.6,190,47.4,164.8,50.4,136.1c34.2,21.2,57.7,18.6,68.2,18.7-17-33.2-27.8-61.5-23.7-87.9,15.6,14.7,30,18.2,49,24.5-1.9-14.2-1.7-27.6,9.7-36.8,24.7,27.9,93.3,34,119.4,76.8C300.2,85.4,376,79.6,387.2,54.3c4.3,10.6,8.5,27.7,9,42,19.1-11.3,39-18.2,55.3-23,4.7,32.2.3,54.8-11.3,81.7,22-3.4,59.9-12.2,75.2-25.8,3.7,36.2-18.9,65.5-30.9,90.1Z" transform="translate(-9.8 0)" fill="#f48e29" fill-rule="evenodd"/><path d="M478.4,238.5c17.6-1.5,31.2-6.3,37.9-10.2,2.5,17.7-1,43.2-9.1,61.6,8.8-.3,17.5-2.5,25.6-4.7-.5,18.5-2,25.2-10.3,38.5-2.6,4.2-40.2,10.5-45.2,8.9-4.1-9-3.6-16.8-5.1-25.1-27.1,4.7-60.4,36-92.1,27.1C321,318.1,245.4,317.2,180.8,322c-45.6,3.5-68.5-23.2-78.9-30.1-8.5,11.1-9.7,20.4-10.1,28.5-9.4,1.2-42-9.3-43.9-13.7S45,298,45.4,291.5c9.6,1.8,26,2.9,37.6.3-21.1-26.8-29-46.3-34.2-77.4,9.5,2.6,21.4,3.2,27.5.1-12-21-15.4-41.8-18.2-57.6,27.7,13.7,51.8,11.6,62.7,7.6-11.5-29.5-17.4-53.6-16.3-78.8,18.9,7.5,30.8,7.2,41.4,7.4C144,79.4,150,73.3,157.5,68.8c8.4,7.9,21.6,11.4,33.5,17,26.3,12.3,55.8,25.9,81.8,53.5,22.5-27.9,53.6-44.2,78-55.7,14.8-7,28.7-11.5,30.9-16.5,2.1,10.9,9.1,32.3,15.3,40.9,19.4-7.1,32.4-11.5,43.9-11.8,4.6,30.7,3.2,43.6-1.6,67.1,18.6,1.8,47.6-5.8,60.5-10.8-4.4,34.5-12.7,64-21.5,86Z" transform="translate(-9.8 0)" fill="#fae62a" fill-rule="evenodd"/><path d="M282.7,158.6A135.3,135.3,0,1,1,147.4,293.9,135.3,135.3,0,0,1,282.7,158.6Z" transform="translate(-9.8 0)" fill="#008ed1" fill-rule="evenodd"/><path d="M203.4,210c8.7,62-1.8,103.3-13.5,144.2-3.4-2.1-7.7-4.6-10.6-7.3,3.2-37.3,5.9-65.5-5.8-85.8-6.8,24.3-8.1,53.2-4.2,81.4a89.8,89.8,0,0,1-12.6-7.7c-11-48.2-.5-90.6,22.2-119,4.6,12.6,7.4,26.8,12,39.4,1.8-12.6,1.5-28.3.4-43.8l12-1.5Z" transform="translate(-9.8 0)" fill="#fae62a" fill-rule="evenodd"/><path d="M212.9,209.3c2.8,33.6,6,79-15.5,148.9,15.8,11.7,33.9,17.3,52.6,21.2V361.5c-10.9-2.3-24.2-6.3-33.5-11,3.3-19.7,6-38.3,8.4-58.4l20,4a199.8,199.8,0,0,0,0-24.1l-18.4-2.9c1.1-16.2,1.9-31.2,1.6-47.4,5-2.2,11.7-3.6,17.8-4.7-.5-6.3-.6-11.6-1.1-17.9-11.7,2.4-23.4,6.1-32.1,10.2Z" transform="translate(-9.8 0)" fill="#fae62a" fill-rule="evenodd"/><path d="M269,193.6c7.7,65.2,11,125.3,4.4,188.3a84,84,0,0,1-16.4-1.3c3.3-59.8,4.1-120.8-.4-184.5,4.9-1.2,7.2-2.1,12.4-2.6Z" transform="translate(-9.8 0)" fill="#fae62a" fill-rule="evenodd"/><path d="M323.6,189.2c.5,5.6-.1,10.1.4,15.7-4-1.2-12.2-2.3-16,1.5s-5,10.7-4.7,17.5c1.6,34.5,31.7,75,32,114.4.2,30.7-25.4,40.6-54.2,43.6.4-6.3.4-10.5.7-16.8,15.4-3.9,32.2-2.6,36.8-23.4,6.1-27.3-34.9-84.1-34.6-119.3.1-11.2,3.4-22,10.3-27.8,9.1-7.8,20.5-6.8,29.5-5.4Z" transform="translate(-9.8 0)" fill="#fae62a" fill-rule="evenodd"/><path d="M330.9,192.5q.4,7.2.2,13.9a137.7,137.7,0,0,1,19.1,5.5c11.4,44.7,7.1,109.1-4.4,158.8,5.6-1.1,10.4-2.9,16-4.4,9.7-46.4,12.2-96.3,2.5-148.4,3.1,1.9,8.2,4.3,12.6,7.7.2-3.7-.2-7.3-.2-11.1-15.3-12.5-30.6-19.2-45.9-21.9Z" transform="translate(-9.8 0)" fill="#fae62a" fill-rule="evenodd"/><path d="M382.6,219.2c7.9,49.7,6.4,85.4-7.3,144.9l13.1-4.4c13.8-45.7,12.6-90,5.1-128.8-3.3-4.9-6.9-9.4-10.9-11.7Z" transform="translate(-9.8 0)" fill="#fae62a" fill-rule="evenodd"/></svg>