<svg xmlns="http://www.w3.org/2000/svg" viewBox="0 0 339.6 282"><title>njardvik</title><path d="M569.8,159c-40.2,14-101.3,23-169.8,23s-129.6-9-169.8-23c56,80,37.7,182.5,34.4,190.7C347.3,371.2,400,441,400,441s52.7-69.8,135.4-91.2C532.1,341.5,513.8,239,569.8,159Z" transform="translate(-230.2 -159)"/><path d="M278.6,297.3c0-34.9-6.1-81.1-29.6-123.9,41,10.8,94.5,16.9,151,16.9h0c56.5,0,110-6.1,151-16.9-23.5,42.8-29.6,89-29.6,123.9a255.8,255.8,0,0,0,3.9,46.5C461.1,363.2,416.3,409,400,427.8c-16.3-18.8-61.1-64.6-125.4-83.9A255.7,255.7,0,0,0,278.6,297.3Z" transform="translate(-230.2 -159)" fill="#d30000"/><path d="M289.6,297.6c0-5.6-.1-11.4-.5-17.3-1.4-24.7-6.2-57.5-20.1-90.6,38.1,7.7,83.5,12,130.9,12s92.9-4.2,130.9-12c-13.8,33.1-18.7,65.9-20.1,90.6-.3,6-.5,11.8-.5,17.3a291.5,291.5,0,0,0,2.5,38.6c-53.1,18.5-92.5,53.6-112.8,75-20.4-21.4-59.7-56.5-112.8-75A291.7,291.7,0,0,0,289.6,297.6Z" transform="translate(-230.2 -159)"/><path d="M439.9,299.5l-72.4-68-48.1-3.1c7.4,52.5,6.5,102.3,6.5,102.3h31l.7-74.9,80.5,74.9h36s-1-49.8,6.5-102.3l-40.6,3.1v68Z" transform="translate(-230.2 -159)" fill="#180f7b"/><path d="M502,297.5c0-5.7.2-11.7.5-17.7a291.7,291.7,0,0,1,15.3-79.2c-35.4,6.1-75.8,9.4-117.8,9.4s-82.4-3.3-117.8-9.4a291.7,291.7,0,0,1,15.3,79.2c.3,6.1.5,12,.5,17.7a311,311,0,0,1-1.7,33.1c5.5,2.1,10.9,4.4,16.1,6.8v-1.2s6-62.7-13.2-125.5c23.8,4.8,42.2,6.1,72.6,6.7l56,52.3V217.6c31.1-.6,48.9-2,72.9-6.9-19.2,62.8-13.2,125.5-13.2,125.5v1.1c5.2-2.4,10.6-4.7,16.1-6.8A310.7,310.7,0,0,1,502,297.5Z" transform="translate(-230.2 -159)" fill="#fff"/><path d="M369.9,285.5v58.1H325c32.7,17.2,58.3,39.1,75,55.7,16.7-16.6,42.2-38.5,75-55.7H432.1Z" transform="translate(-230.2 -159)" fill="#fff"/></svg>