<svg xmlns="http://www.w3.org/2000/svg" viewBox="0 0 496.3 566.9"><title>reynirs</title><path d="M17.8,69.8c15.6-20.4,35.8-39,51.3-52.7l12.1,8.5c5.4,3.8,10.1,2.1,13.5-.5,38.5-29.7,90.9-49.8,155-49.5h1.8c64.1-.2,117.9,19.5,155,49.5,3.3,2.7,8,4.3,13.5.5l12.1-8.5c15.6,13.7,35.8,32.3,51.3,52.7-7.2,15.1-11.3,28.5-12,43.3-2.6,52.9,21.4,101,21.7,153.7.4,91.9-55.6,160.8-121.3,193.2-45,22.2-103,44.4-121.2,69.6h0c-18.2-25.2-76.2-47.4-121.2-69.6C63.8,427.6,7.8,358.8,8.1,266.8,8.4,214.1,32.4,166,29.8,113.1c-.7-14.8-4.8-28.2-12-43.3Z" transform="translate(-1.5 32.8)" fill="#fff" fill-rule="evenodd"/><path d="M11.4,63.5C27.3,42.7,48,23.6,63.9,9.6l12.4,8.7c5.6,3.9,10.3,2.2,13.8-.5,39.3-30.4,93-50.9,158.6-50.7h1.8c65.6-.2,120.6,20,158.6,50.7,3.4,2.7,8.2,4.4,13.8.5l12.4-8.7c15.9,14,36.6,33.1,52.5,53.9-7.4,15.4-11.5,29.1-12.3,44.3C473,162,497.6,211.2,497.8,265.2c.4,94.1-56.9,164.6-124.2,197.7-46,22.7-105.4,45.4-124,71.2h0c-18.6-25.8-78-48.5-124-71.2C58.4,429.7,1.1,359.2,1.5,265.2c.2-54,24.8-103.2,22.2-157.3C22.9,92.7,18.8,79,11.4,63.5ZM28.4,229.5c4-22.8,10.2-45.1,14.3-67.9a254.3,254.3,0,0,0,4.5-43.4,139.7,139.7,0,0,0-8.8-50.9h0a379,379,0,0,1,27.4-28L82.6,53A172.5,172.5,0,0,1,97.2,40.8c7.8-5.9,16-11.6,24.4-16.8A200.2,200.2,0,0,1,153.2,8a225.6,225.6,0,0,1,32-10.2A256.9,256.9,0,0,1,221-8.2a277.1,277.1,0,0,1,29.2-1.2A310,310,0,0,1,288.9-7,244.8,244.8,0,0,1,323.6.2a216.1,216.1,0,0,1,35,13.3c14.4,7,26.8,15.3,39.3,25.1,6,4.7,11.2,10.1,16.9,15.2l18.6-14.5a369.2,369.2,0,0,1,27.4,28h0a138.4,138.4,0,0,0-8.8,50.9c.3,25.1,5.3,49.2,10.8,73.6,3.2,14.1,6.5,28.1,8.8,42.3a188.3,188.3,0,0,1,2.8,31.2c-.1,25.3-4.2,48.6-13.4,72.2a186.6,186.6,0,0,1-27.2,47.3,201.5,201.5,0,0,1-43,40.9c-15.5,11-32.2,18.8-49.3,26.8-13.9,6.5-27.9,12.8-41.6,19.6-17.5,8.6-34.5,17.8-50.2,29.5A191.1,191.1,0,0,0,226,486c-10.2-5.8-20.6-11.1-31.1-16.2-13.8-6.7-27.7-13-41.5-19.5s-26.9-12.7-39.5-21a203.6,203.6,0,0,1-48.4-44.6,186.7,186.7,0,0,1-27.2-47.3A190.6,190.6,0,0,1,25,273.1a202.2,202.2,0,0,1,3.5-43.6Z" transform="translate(-1.5 32.8)" fill="#cd2b31" fill-rule="evenodd"/><path d="M249.6,385.6A126.2,126.2,0,1,0,123.4,259.4,126.2,126.2,0,0,0,249.6,385.6Z" transform="translate(-1.5 32.8)" fill="#cd2b31" fill-rule="evenodd"/><path d="M249.6,146.3a113,113,0,1,1-113,113,113.1,113.1,0,0,1,113-113Z" transform="translate(-1.5 32.8)" fill="#d99b3b" fill-rule="evenodd"/><path d="M249.6,140.7A118.7,118.7,0,1,1,130.9,259.4,118.7,118.7,0,0,1,249.6,140.7Zm6.9,9.3q4.6.3,9.2,1h0c-3.9,9.4-9.1,18.6-16.1,26.1-7-7.4-12.1-16.7-16.1-26h.1q4.5-.7,9.2-1v12.7h13.8V150Zm18.2,2.7A109.5,109.5,0,0,1,328,182.7h0a64.1,64.1,0,0,1-18,8.5,72.1,72.1,0,0,1-20.6,2.9,56.5,56.5,0,0,1-18.7-3,49.9,49.9,0,0,1-14.5-8c8.1-8.8,14-19.5,18.5-30.5Zm59.4,36.9a109.6,109.6,0,0,1-7.6,148h0a66.4,66.4,0,0,0-10.1-7.4c10.2-10.1,16-20.7,16.2-35.1a49.4,49.4,0,0,0-13.9-35.8,49.7,49.7,0,0,0,13.9-35.8,46.4,46.4,0,0,0-9.2-27.4h0a82.6,82.6,0,0,0,10.7-6.3ZM319.8,343.6a109.6,109.6,0,0,1-139.9.3h0a48.8,48.8,0,0,1,15.3-9.4,53.3,53.3,0,0,1,19.5-3.5,52.7,52.7,0,0,1,18.1,3.1c6.3,2.3,11.5,6.1,16.7,10.3,6.7-4.6,13.2-8.7,20.9-11.2a49.9,49.9,0,0,1,15.5-2.4,50.6,50.6,0,0,1,17,3,51.8,51.8,0,0,1,16.7,9.8Zm-146.7-5.8a109.6,109.6,0,0,1-8-148.3h0a80.3,80.3,0,0,0,8.4,5.1c-6.3,7.9-9.6,18.6-9.7,28.6-.2,13.2,4.1,26.3,13.6,35.9-9.6,9.7-14,22.9-13.6,36.3.4,15.1,6.3,25.9,17.2,36.2a63.6,63.6,0,0,0-8,6.3Zm-1.9-155.1a109.5,109.5,0,0,1,53.2-30.1h0c4.5,11.1,10.4,21.6,18.5,30.5-10,8-21.8,11.1-34.3,11a72.4,72.4,0,0,1-16.5-2.1,67.1,67.1,0,0,1-20.9-9.3Zm152.3,40.7a36.6,36.6,0,0,0-9-24.2,79.9,79.9,0,0,1-25.1,3.8,64.1,64.1,0,0,1-22.9-3.9,58.9,58.9,0,0,1-17-9.9c-11.9,9.9-26.1,13.9-41.1,13.7a78.6,78.6,0,0,1-26.3-4.7,38.7,38.7,0,0,0-9.3,24.9c-.2,12.2,3.8,22.9,12.9,31.2H310.5c9-8.3,13.2-19,13.1-31.1ZM214.7,322a62.2,62.2,0,0,1,23.8,4.7,56,56,0,0,1,11.4,6.5,69.6,69.6,0,0,1,15.3-7.7,60.3,60.3,0,0,1,20.8-3.6,59.4,59.4,0,0,1,21.4,4c10.2-8.5,15.9-17.6,16.2-31a40,40,0,0,0-13.1-31.1H185.8c-9.2,8.4-13.2,19.2-12.9,31.4.4,14.3,6.5,22.3,16.5,31.9a62.8,62.8,0,0,1,25.3-5.1Z" transform="translate(-1.5 32.8)" fill="#8f2c30" fill-rule="evenodd"/><path d="M62.2,130.3c12.2,23.3,17.9,64,19.6,95.8.2,4.3-.2,9.8,1.7,11.6,3.6,3.4,9,2.3,10.7-2.4,3.4-9.2,6.1-11.7,10.4-18.6s3.7-10.8-.3-17.7-5.7-21.4-4.6-32.1c.4-4.4,4.9-9.5,8.8-7.5s6,10.5,7.2,16.4c.5,2.3-.7,6.2-.7,8.5,0,5.6,3.7,8.9,6.9,5.6,5.3-5.6,10-9.2,15.7-14.4s-2.6-9.2-4.6-14.1c-3.9-9.7-8.3-24.5-16.3-25.5,3.1-9.1,5.2-17.2-1-32.7S97.8,86.7,89.6,89.7s-11.2,11.7-16.5,17.9c-2.8,3.2-7.5,6-10.4,9.4a14.4,14.4,0,0,0-2.8,5.7c-.4,2.7,1,5.1,2.3,7.5Zm26.4-16c-3.6,1.3-6.3,6.6-6.1,10.5s2.5,6.8,7.8,11.4c1.6,1.4,4,.9,4.7-.6,1.8-3.9,2.6-11,1.8-15.7s-5.4-6.6-8.2-5.6Z" transform="translate(-1.5 32.8)" fill="#cd2b31" fill-rule="evenodd"/><path d="M120.9,74.6c19.6,15.3,29,40.7,33,73.3,1.1,9.5,6.1,11.3,10.4,7.5,9.9-8.5,20.9-15.2,36.9-18.6,2.5-.5,4.7-5,3.3-7.2-2.6-4-2.3-10.4-3.3-14.7-.4-1.8-3.3-2.6-5.2-.7-5.7,5.8-10.6,11.2-17.6,11.4-11.1.4-12.4-10.8-9.5-15,1.8-2.5,3.8-3,8.2-4.3,2-.6,2.7-4.6,1.3-6.2s-3.7-7.2-4.6-11.8c-.4-2.1-4.2-3-5.5-1.3s-8,6.1-11.4,4.9c-6.6-2.3-7.6-9.1-5.5-14.1s8.5-7,13.1-8.5,7.2-4.8,5.9-7.8c-2.1-5.1-3.9-9.5-4.9-15.7-.7-4.5-5.3-4.9-7.8-2.9C146,52,132.3,58.5,119.9,63.9c-3.2,1.4-5.4,5.8,1,10.8Z" transform="translate(-1.5 32.8)" fill="#cd2b31" fill-rule="evenodd"/><path d="M181.9,42.3c-.1-4.9,1.7-9.9,5.5-10.4,6.5-1,14.6-3.4,21.8-5.5a6,6,0,0,1,7.8,6.2c-.8,5.6-2.9,15.4,1,19.2s12.2,2.7,14.3-1.3c3.3-6.2,1-11.7,2.6-18.6.9-3.8,2.4-9.9,8.8-9.4,3.7.2,10.5-.1,14,.3s5.1,5,2.6,9.8c-13.2,25.3-18.6,55.9-16.3,86.3.4,4.8-.2,9.5-7.2,9.8s-13.4,0-17.3,1c-6,1.5-6.9-5.1-5.2-8.1,4-7,5.2-21.5,5.2-29.3,0-4.6-1.1-11.9-5.5-13-17.7-4.7-31.7-17.6-32.2-36.8Z" transform="translate(-1.5 32.8)" fill="#cd2b31" fill-rule="evenodd"/><path d="M272.8,33.7c7.5,27.7,6.3,58.2-6.5,85.3-1.5,3.1-3.1,9.9,2.6,9.8a41.7,41.7,0,0,1,17.6,3.3c2.3.9,5.9-1.8,5.5-5.2-.7-7.8-1.6-17.4-1-24.8.8-9.3,9.8-8.1,12.4-2,3.3,7.9,4.2,17.6,4.6,26.8.1,3.3,0,10.4,4.2,11.7a70.8,70.8,0,0,1,13.4,5.6c4.7,2.6,8.1-1.1,7.5-5.6-4-31.4-4.1-59.6,5.5-89.2,1.9-5.9,2-8.6-4.3-10.3a40.1,40.1,0,0,1-11.7-5c-5.4-3-7.5,1.7-5.9,7.2a40.9,40.9,0,0,1-1.3,25.5c-1.7,4.3-9.3,4.4-11.4.3-4.9-9.6-5.6-20.4-6.5-32.3-.3-3.5-3.9-6.3-6.8-8.2s-9.5-3.9-13.4-2.9S271,27,272.8,33.7Z" transform="translate(-1.5 32.8)" fill="#cd2b31" fill-rule="evenodd"/><path d="M356.5,57.9c-1.1-7.1,3.6-9.4,8.2-5.9s11.6,6.2,16,7.9c2.9,1.1,2.8,4.6-.3,10.5-5.8,10.7-12,60.4-8.8,90.9.5,5.2-3.3,8.9-8.3,5.1A175.5,175.5,0,0,0,346,154.7c-4.6-2.5-4.8-5.4-2.5-10.8,10-23.5,17.8-52.9,12.9-86Z" transform="translate(-1.5 32.8)" fill="#cd2b31" fill-rule="evenodd"/><path d="M399,91.9c-.4,31.6-7.3,62.3-21.6,81.4-1.6,2.1-1.7,7.6,1.6,9.5,7.9,4.5,7.3,10.5,11.1,15.4s6.6-.8,6.9-2.3c.8-4.3-.3-13.8,2.9-23.2,1.8-5.3,5.7-14.7,12.4-12.4,10.8,3.6,7,20.3,2.3,30.4-2.4,5.2-6.1,11.3-9,16.7s-3.7,7.1-.6,11.2,4.8,9.1,7,14.3,7.7,3.5,9.8-.2c12.1-20.9,21.2-57.2,10.5-90.4-1.5-7.4,6.4-9,8.5-16.4,1.2-4.2.9-9.7-2-13.1-9.5-11.1-21.6-21.4-28.3-29.3-3.5-4.1-11.5-2.6-11.6,8.3Zm25.7,33a10.8,10.8,0,0,0-3.9-9.8c-3.3-2.9-7.8-4.7-10.7-1.3s-.9,12,.2,15.9,2.1,5.7,5.4,6.1,8.5-4.9,9-10.8Z" transform="translate(-1.5 32.8)" fill="#cd2b31" fill-rule="evenodd"/><path d="M68,243.7c2.9,22.7-4.3,25.6-1.6,38.9s11,16.3,16.7,23.2c3.7,20.5,11.8,38.3,27.5,55-4.4,0-7.1,6-11.1-.7-11.3-14-32.3-12.8-39.9-17,3.5,4.3,7.3,10.8,10.2,15.4,4.7,7.7,9.3,13.2,17,16,9.8,3.6,9.8-1.4,16.3-4.2,3.9-1.7,9.1-5.3,14.2-2.3,24.2,20.2,51.7,31.3,67.5,41-5.1,5-13.7-2.6-22.9-1.6-7.8.8-15,9.7-27,6.8,8.6,6.4,13.8,16,29.6,15.1s14.7-14.6,26.5-15.7c20.7,13.4,34.9,27.2,45.1,46.1,2.6-2.6,5.2-5.6,7.8-8.2-16-25.1-30.4-32.1-42.5-40.5-7.4-12.3,1.2-17.6-1.9-26.2-4-11.1-16.1-9.3-21.1-26.5-4,9.2-5.7,13.5-3.5,22.8,2.6,10.8,19.7,13.7,19.3,25.2-17.1-11.1-56.8-23.8-70.4-42.6-2.5-4,.3-13.6,1.6-18.8,4.5-4.6,6.7-10.8,6.8-18.1.1-9.4-3.1-20.6-10.2-32.5-2.2,9.6-12.1,19.6-11.9,29.5.2,11.8,11.6,13.9,8.9,26.4-.7,3.4-.1,3.8-1.8,6.4-15.6-12.3-23.7-31.1-28.5-53,1.3-11.8,7.4-20.9,4.6-33.7C90.9,259,77.6,248.1,68,243.7Z" transform="translate(-1.5 32.8)" fill="#cd2b31" fill-rule="evenodd"/><path d="M431.3,243.7c-2.9,22.7,4.3,25.6,1.6,38.9s-11,16.3-16.7,23.2c-3.7,20.5-11.8,38.3-27.5,55,4.4,0,7.1,6,11.1-.7,11.3-14,32.3-12.8,39.9-17-3.5,4.3-7.3,10.8-10.2,15.4-4.7,7.7-9.3,13.2-17,16-9.8,3.6-9.8-1.4-16.3-4.2-3.9-1.7-9.1-5.3-14.2-2.3-24.2,20.2-51.7,31.3-67.5,41,5.1,5,13.7-2.6,22.9-1.6,7.8.8,15,9.7,27,6.8-8.6,6.4-13.8,16-29.6,15.1s-14.7-14.6-26.5-15.7c-20.7,13.4-34.9,27.2-45.1,46.1-2.6-2.6-5.2-5.6-7.8-8.2,16-25.1,30.4-32.1,42.5-40.5,7.4-12.3-1.2-17.6,1.9-26.2,4-11.1,16.1-9.3,21.1-26.5,4,9.2,5.7,13.5,3.5,22.8-2.6,10.8-19.7,13.7-19.3,25.2,17.1-11.1,56.8-23.8,70.4-42.6,2.5-4-.3-13.6-1.6-18.8-4.5-4.6-6.7-10.8-6.8-18.1-.1-9.4,3.1-20.6,10.2-32.5,2.2,9.6,12.1,19.6,11.9,29.5-.2,11.8-11.6,13.9-8.9,26.4.7,3.4.1,3.8,1.8,6.4,15.6-12.3,23.7-31.1,28.5-53-1.3-11.8-7.4-20.9-4.6-33.7,2.3-10.6,15.6-21.5,25.2-25.8Z" transform="translate(-1.5 32.8)" fill="#cd2b31" fill-rule="evenodd"/></svg>