<svg xmlns="http://www.w3.org/2000/svg" viewBox="0 0 521.4 566.9"><title>sindri</title><path d="M316.3-117.4v-72.5l-11.5-13H-168.9l-11.6,13.1V21.4H221.2V76.4H-180.5v32.2c0,50.1,13.6,91,40.5,121.6,33.5,38.1,85.5,60.2,121.8,73.6,8.9,3.3,17.4,6.2,25.7,9,28.4,9.8,50.8,17.5,59.6,29l1.2,1.5,1.2-1.5c10.2-13,38-22.3,67.4-32.1l2.9-1c66.1-22.2,108.2-46.5,136.5-78.8,26.7-30.4,40.2-71,40.2-120.4V-50.7L305.9-62.5H-83.3v-54.9Z" transform="translate(186.1 207.8)" fill="#fff"/><path d="M-171.2-207.8H309.1l26.2,29.8v77.5H-70.4v33.2H310.1L335.2-39V127.7c0,50.6-20,89.9-46,119.5-32.5,37-81.5,60.1-135.9,78.4-31.5,10.6-60.1,19.9-70.9,33.6-11.7-15.2-46.3-23.9-85.9-38.5-42.1-15.5-103.7-44.1-135.1-79.8-24.8-28.2-47.6-59.5-47.6-138.6V71.5H215.8V38.2H-164.5L-186,26.9V-191.8l14.8-16ZM-78.7-48.9h22.1v13.7H-80.8c-5.2-3.6-12.7-7.1-24.2-7.5-5.3-.2-16.4.1-16.1,5.7.2,3.8,4.9,4.7,11.6,5.6,11.3,1.5,25.1,1.9,36.2,3.8,8.7,1.5,20.9,5.2,21,15.1C-52.2.8-75.3,3.7-93.1,3.9c-10.6.1-20.7-2.1-27.6-5.3V3.5H-144V-10.7h27.4c5.4,4.7,16.2,7.1,23.6,6.8,4.5-.2,13.5-1.4,13.8-5.7.2-2.8-4.6-5.3-10.5-6-7.8-.9-25.1-1.9-39-4.1-10.7-1.7-19.2-6.4-19.1-13.9.1-14.7,26.5-17,36.9-17s23.2,2.2,32.3,7.2v-5.5ZM196.8-28v8.6h17.2c2.1,0,4.9-.8,4.9-4.4s-2.9-4.3-5.2-4.3Zm0,15.9v8.4h6.9V3.6H172.1V-3.7H179V-28h-6.9v-7.2h52.3c6.2,0,12.5,3.1,12.5,10,0,5.3-4.6,8.5-9.9,9.3,2.8.1,8.7,2.2,8.7,7.4v4.8H239V3.6H217.8V-8.1a3.9,3.9,0,0,0-4.2-4ZM112.3-28V-3.7h16.2c6.3,0,15.3-2.8,15.2-11.9S134.6-28,128.7-28ZM135.7,3.6H87.5V-3.7h6.9V-28H87.5v-7.2h48.2c10.8,0,26.6,4.5,26.6,18.8s-16.8,20-26.6,20ZM275.9-28V-3.7h6.9V3.6H251.1V-3.7H258V-28h-6.9v-7.2h31.7V-28ZM6.1-35.2H23.9L51.5-12V-28H44.5v-7.2H76.2V-28H69.3V3l.6.5H51.5V3L23.9-20.2V-3.7h6.8V3.6H-1V-3.7H6.1V-28H-.8v-7.2ZM-19.2-28V-3.7h6.9V3.6H-44V-3.7H-37V-28H-44v-7.2h31.7V-28ZM27.3,87.1H44.7v7H27.3v-7Zm-28.4,0H16.3v7H-1.1v-7Zm22.9,10c26.4,0,47.8,10.5,47.8,23.3s-21.4,23.3-47.8,23.3S-26,133.3-26,120.4-4.6,97.1,21.8,97.1Zm0,6.8c12.5,0,22.7,7.4,22.7,16.5S34.3,137,21.8,137-.9,129.6-.9,120.4s10.2-16.5,22.7-16.5Zm-155.6,32.3h-10.1V143h42.9v-6.8h-8.1V123.8h38v12.4h-8.1V143h42.9v-6.8H-46.5V104.8h10.2V97.9H-79.2v6.8h8.1V117h-38V104.7h8.1V98h-42.8v6.8h10.2v31.5Zm381.1-31.5H237.1V97.9H280v6.8h-8.1V143H246.8l-30.5-28.8v22h8.1V143H181.5v-6.8h10.2V104.8H181.6V97.9h34.8L247.2,127V104.8ZM83,136.1h9.8V104.8H82.6V97.9h84.5v14.5H146.7v-7.7H114.5v12.7h17v6.8h-17v11.8h14.4v6.8H83v-6.8ZM-84.6-173.3h42v6.6h-8.7v21.9c0,5.8,6.8,9.3,15.1,9.1s16.1-2.8,16.1-8.9v-22.1h-8.5v-6.6H13v6.6H4.5v22.3c0,10.1-18.6,15.2-40.3,15.2s-41-1.2-40.1-15.2v-22.3h-8.7v-6.6ZM99.2-136.6h10.2v-27.7l-24,27.2h-8L56.7-164.3v27.8H64v6.6h-39v-6.6h7.2v-30.1H24.9v-6.6H66.3l15.5,20.4,17.4-20.4h42v6.6H134v30.1h7.2v6.6h-42v-6.6Zm54.3,0h9.8v-30.1H153.1v-6.6h87.4v14H220.1v-7.4H187.9v12.2h17v6.6h-17v11.4h14.4v6.6H153.5v-6.6Z" transform="translate(186.1 207.8)" fill="#231f20" fill-rule="evenodd"/><path d="M-168.2-200.9H304.1l10.7,12.1v70.4H-84.8v57.9H305.2l9.5,10.8V109.9c0,50.6-13.9,89.9-39.9,119.5-32.5,37-81.5,60.1-135.9,78.4-31.5,10.6-60.1,19.9-70.9,33.6C56.5,326,21.8,317.3-17.8,302.8c-42.1-15.5-89.8-37.4-121.2-73.2C-163.7,201.4-179,162.1-179,109V78.3H222.7V20.4H-179V-188.8l10.8-12.2Zm57.9,188.4a30.1,30.1,0,0,0,4.6,1.8A40.7,40.7,0,0,0-100-9.3a36,36,0,0,0,6.7.5,26.4,26.4,0,0,0,6.3-.9h.4L-87-10a23.9,23.9,0,0,0-5.6-.9l-7.2-.6-6.2-.5-4.3-.4Zm20.6-22a41.1,41.1,0,0,0-5.2-1.8,44,44,0,0,0-6.5-1.2,51.9,51.9,0,0,0-5.8-.3,36,36,0,0,0-6.8.6h0c2.4.5,4.8.8,7.2,1.1l5.5.6,5.7.5,5.8.5ZM244-8.6V8.5H212.8V-7.2h-4.1V8.5H167.1V-8.6h6.9V-23h-6.9V-40.2h57.3a20.6,20.6,0,0,1,10,2.5,13.3,13.3,0,0,1,6.4,7.2,13,13,0,0,1,.6,8.3,12.5,12.5,0,0,1-3.6,6.4,10.7,10.7,0,0,1,2.8,7.2ZM117.2-23V-8.6h11.2c4.6,0,10.3-1.4,10.3-6.9S133.4-23,128.6-23ZM135.8,8.5H82.5V-8.6h6.9V-23H82.5V-40.2h53.3c7.1,0,13.5,1.2,19.7,4.7,7.8,4.3,11.8,10.1,11.8,19.1s-3.3,13.4-9.7,18a35.9,35.9,0,0,1-21.7,6.9ZM280.8-23V-8.6h6.9V8.5H246.1V-8.6h6.9V-23h-6.9V-40.2h41.6V-23ZM25.7-40.2,39.6-28.5V-40.2H81.2V-23H74.2V8.5H50L35.7-3.8V8.5H-5.9V-8.6H1.1V-23H-5.7V-40.2ZM46.1-23l.4.4V-23ZM29.9-8.6l-1-.9v.9ZM-14.2-23V-8.6h6.9V8.5H-48.9V-6A18.2,18.2,0,0,1-52.8-.7l-1.3,1c-4.8,3.4-10,5.1-15.6,6.3A116.1,116.1,0,0,1-84.2,8.5a121.1,121.1,0,0,1-17.2,0,79.3,79.3,0,0,1-14.4-2.8V8.5H-149V-15.7h15.2a36.6,36.6,0,0,1-12.9-5.9c-4.4-3.9-6.4-8-6-14a18,18,0,0,1,4.7-9.5c3.9-3.6,8.3-5.7,13.3-7.3a84.1,84.1,0,0,1,14.6-2.7,102.3,102.3,0,0,1,12.3-.4,95.9,95.9,0,0,1,12.2,1.3,80,80,0,0,1,12,3.1v-2.8h32v23.6L-63-30.4a37.3,37.3,0,0,1,9.4,5.3c3.9,3.6,5.7,7,6.2,12.4A19.3,19.3,0,0,1-48-8.6h6V-23h-6.9V-40.2H-7.3V-23ZM49.6,96.2A63,63,0,0,1,56,98.6a41.9,41.9,0,0,1,11.2,7,21.2,21.2,0,0,1,6.6,9.8,15.8,15.8,0,0,1-.6,11.7c-2.2,5.1-5.8,8.5-10.4,11.5A55.2,55.2,0,0,1,48,145.1a87,87,0,0,1-16.1,3.1,99.7,99.7,0,0,1-12.7.5,98.6,98.6,0,0,1-14.7-1.5,79,79,0,0,1-11-2.7,57.2,57.2,0,0,1-9.5-4A34.7,34.7,0,0,1-26,132.8a19,19,0,0,1-4.6-8.9,15.6,15.6,0,0,1,.4-8.4,20.5,20.5,0,0,1,5.4-8.6,38.2,38.2,0,0,1,10.6-7.4,62.5,62.5,0,0,1,8.1-3.2V82.2H21.3v10h1.1v-10H49.6V96.2ZM21.8,108.9a24.2,24.2,0,0,0-7.4,1.1,18.3,18.3,0,0,0-5.8,2.8c-2.4,1.8-4.1,3.7-4.5,6.7a6.8,6.8,0,0,0,1,5c1.8,3,4.4,4.7,7.6,6a23.4,23.4,0,0,0,9,1.6,23.6,23.6,0,0,0,9-1.6,15.1,15.1,0,0,0,7-5,7.4,7.4,0,0,0,1.7-5.9,8.3,8.3,0,0,0-2.5-4.9,16,16,0,0,0-6.2-4.1,24,24,0,0,0-9-1.6Zm-160.6,22.4h-10.1V148h52.8V131.3h-8.1v-2.5h28.1v2.5h-8.1V148h52.8V131.3H-41.5V109.8h10.1V93H-84.1v16.7h8.1V112h-28.1v-2.3h8.1V93.1h-52.7v16.8h10.2v21.5Zm371-25.3V93h52.8v16.7h-8.1V148h-32l-15.5-14.7V148H176.6V131.3h10.2V109.7H176.6V93h39.8l2,.2L232.2,106Zm-5,25.3-5.9-5.6v5.6Zm8.9-21.5,6.1,5.8v-5.8Zm-158,21.4h9.8V109.7H77.7V93H172v24.5H141.8v-7.7H119.4v2.8h17v16.7h-17v1.9h14.4v16.7H78.1V131.1ZM-89.6-178.2h51.9v16.5h-8.7V-145c0,4,8.1,4.4,11.3,4.3s9.9-1.3,9.9-4.1v-17h-8.5v-16.5H18v16.5H9.5v17.5c0,5.5-3.1,9.1-7.3,12-10,6.9-28.1,8-38,8-4.9,0-12.4,0-19.5-.7-13-1.2-25.6-5.1-25.6-19.6v-17.3h-8.7v-16.5ZM95.9-141.5h8.5v-9.7l-8.5,9.7Zm-1.6,1.9-6.6,7.5H74.9l-6-7.9v15H20v-16.5h7.2v-20.2H20v-16.5l48.4.4,13.7,17,14.5-17,49.7-.4v16.5H139v20.2h7.2v16.5h-52v-14.6Zm-26.4-1.9-6.1-8.1v8.1Zm80.7,0h9.8v-20.2H148.1v-16.5h97.4v23.9H215.2v-7.4H192.8v2.3h17V-143h-17v1.4h14.4v16.5H148.5v-16.5Z" transform="translate(186.1 207.8)" fill="#bd282f" fill-rule="evenodd"/></svg>