<svg xmlns="http://www.w3.org/2000/svg" viewBox="0 0 446.9 502.8"><title>skallagrimur</title><path d="M458,503.3c1.5-3.2,3-6.5,4.5-9.7l2.7-6.2a456.8,456.8,0,0,0,25.1-75.5c23.1-96.5,14.1-180.5,13.7-184l-.6-5.2-4.9.6a431.5,431.5,0,0,1-53.8,2.8c-52.1-.3-121.3-9.5-155.2-51.1l-.5-.6-2.1-2.1-3.8-4.4-3.6,4.7c-33.6,43.1-104.3,51.7-157.7,51.4a431.9,431.9,0,0,1-54.3-3.6l-4.9-.7-.7,5.2c-.1.8-10.5,85.4,10.8,181.8A452.5,452.5,0,0,0,104,500.5h-.1l4.2,8.9a297.3,297.3,0,0,0,43,66.6c29.1,35.6,67.5,67.4,118.1,90.1,5.4,2.5,8.6,3.8,9.1,4l1.7.7,1.8-.7h.1C365,637.5,417.1,580,449.7,519.7l.4-.6c2.8-5.2,5.4-10.4,8-15.7" transform="translate(-59.2 -168)" fill="#fcee21"/><path d="M499.1,228.5c-10,1.3-157.4,18.7-213.3-50a32.2,32.2,0,0,1-2.6-2.5c-57.1,73.4-216.5,49.6-216.5,49.6S24.1,558.9,280.1,665.2c255.2-102.1,219.6-431.1,219-436.7" transform="translate(-59.2 -168)" fill="#045c30"/><path d="M499.1,228.4s37,336.6-219,436.7c0,0-114-43.4-167.6-158.2,0,0,270.9,41.7,386.6-278.6" transform="translate(-59.2 -168)" fill="#0b4220"/><path d="M484.4,246.6C347.5,263.2,283.1,206,283.1,206S217.9,262.4,81.2,244c0,0-18.1,302.8,199.1,395.1,218.4-89.5,204.2-392.5,204.2-392.5M280.5,598.2S121.9,577.9,98.9,262c0,0,114.1,17.9,184-31.7,69.3,50.5,183.6,34.1,183.6,34.1-27.1,315.6-186,333.8-186,333.8" transform="translate(-59.2 -168)" fill="#fcee21"/><path d="M283,219.1v11.1S235,280.8,98.9,262c0,0,8.7,286.5,181.6,336.2v23.2S104,591,88.9,252.9c0,0,127.3,22.5,194-33.8" transform="translate(-59.2 -168)" fill="#e9d619"/><path d="M280.4,621.4v17.7s204.5-56.7,204.2-392.5c0,0-125.6,18.4-201.4-40.5v13.1s69.3,52.4,192.5,36.3c0,0,10.1,281.9-195.1,366" transform="translate(-59.2 -168)" fill="#e9d619"/><path d="M280.6,586.6s121.6-32.1,157.3-209.4c0,0-35.5,155.7-157.3,209.4" transform="translate(-59.2 -168)" fill="#045c30"/><path d="M170.8,429s-6.1,18.9-10,35.6c109.4,97.7,236.4,3.9,236.4,3.9l-9.4-38.2c-109.6,77.1-198.6,13.8-217-1.3" transform="translate(-59.2 -168)" fill="#fff" fill-rule="evenodd"/><path d="M387.8,430.3l9.4,38.2s-92.1,72-195.9,24.1c0,0,82.4,29,110.1-28.1,0,0,50.1-11.8,76.5-34.2" transform="translate(-59.2 -168)" fill="#e3e2de" fill-rule="evenodd"/><path d="M340.7,448.3h0A167.9,167.9,0,0,0,385,423.7s-20.5-73.3-104.9-106.3c.3.2,49.5,41.5,60.6,130.9" transform="translate(-59.2 -168)" fill="#fcee21" fill-rule="evenodd"/><path d="M217,447.5h0a167.5,167.5,0,0,1-44-25.2s21.4-73,106.3-104.9c-.3.2-50,40.8-62.3,130.1" transform="translate(-59.2 -168)" fill="#fcee21" fill-rule="evenodd"/><path d="M279.6,326.2S235,366.1,223.5,448c0,0,48.7,26.8,111.6.7,0,0-12.1-86.3-55.5-122.5" transform="translate(-59.2 -168)" fill="#fff" fill-rule="evenodd"/><path d="M176.6,390.2c-31.3-22.4-31.9-86.1-31.9-86.1,34-9.3,110.6,15.6,110.6,15.6q7.1-4,14.9-7.7s-106.9-32.8-135.3-18.1c0,0-6.4,78.7,35.2,120,0,0,5.5-16,20.3-36.5-8.6,1.7-13.9,12.8-13.9,12.8" transform="translate(-59.2 -168)" fill="#fcee21" fill-rule="evenodd"/><path d="M382.2,391.5c31.6-22,33-85.7,33-85.7-33.9-9.8-110.8,14.1-110.8,14.2-4.7-2.7-9.6-5.4-14.8-7.9,0,0,107.3-31.4,135.5-16.3,0,0,5.4,78.8-36.7,119.6,0,0-5.3-16-19.9-36.8,8.5,1.8,13.7,13,13.7,13" transform="translate(-59.2 -168)" fill="#fcee21" fill-rule="evenodd"/><path d="M234.6,493a3.4,3.4,0,0,1-1.3,1.9,6.9,6.9,0,0,1-2.4,1.1,9.5,9.5,0,0,1-3.1.2,14.4,14.4,0,0,1-3.5-.8,167.4,167.4,0,0,1-18.9-8.1,15.1,15.1,0,0,1-3.1-2.1,10.3,10.3,0,0,1-2.2-2.4,6.6,6.6,0,0,1-1-2.5,3.7,3.7,0,0,1,.4-2.3l9.6-18.5.9.5a16.6,16.6,0,0,1,4.7,3.7,3.8,3.8,0,0,1,.6,4.3l-6.7,14.9a165.6,165.6,0,0,0,16.6,7.1q3.4-9.9,6.6-19.9l8.4,2.8q-2.7,10.1-5.5,20.3" transform="translate(-59.2 -168)" fill="#b9b6ae"/><path d="M297.4,504.2q-.6-8.2-1.2-16.3-5.2,6.5-11.1,12.6a165.4,165.4,0,0,1-11.4-12c-.3,5.4-.6,10.9-.9,16.3q-5.1-.3-10.2-.8,1.5-13.2,2.9-26.4l1.7.2,1.8.2,2.2.5,2.4,1a7.3,7.3,0,0,1,2.2,1.7c2.9,3.3,6.1,6.5,9.4,9.6,3.2-3.3,6.2-6.6,9.1-10.1a6.6,6.6,0,0,1,2.1-1.8l2.4-1.1,2.3-.7,1.8-.3,1.7-.3q1.8,13.2,3.4,26.3c-3.4.6-6.9,1-10.3,1.3" transform="translate(-59.2 -168)" fill="#b9b6ae"/><path d="M359.9,455.3a6.8,6.8,0,0,1,.7,2.3,3.8,3.8,0,0,1-.5,2.5,10.6,10.6,0,0,1-2.1,2.4,23,23,0,0,1-4,2.6,154.8,154.8,0,0,1-14.5,7l1.6,4.6q5.5-2.3,10.9-5l2.2,5.1q-5.5,2.8-11.2,5.2l1.4,4c.8,2.3.5,4.3-.9,5.8a9,9,0,0,1-2.6,2l-3.4,1.5-1,.4q-2.8-10-5.8-20.1a5.5,5.5,0,0,1-.1-3.4,6,6,0,0,1,1.5-2.3,8.5,8.5,0,0,1,2.3-1.5l2.5-1.1a152.4,152.4,0,0,0,23-11.9" transform="translate(-59.2 -168)" fill="#b9b6ae"/><path d="M182.8,464.4l6.5-9.4c2.6,2,5.3,3.9,8,5.7l-5.9,9.8q-4.4-2.9-8.6-6.1" transform="translate(-59.2 -168)" fill="#b9b6ae"/><path d="M244.1,494.3l2.5-11.4c3.1.7,6.2,1.4,9.3,1.9-.6,3.8-1.2,7.7-1.9,11.5-3.3-.6-6.6-1.2-9.9-2" transform="translate(-59.2 -168)" fill="#b9b6ae"/><path d="M314.8,494.2l-2-11.5c3.1-.7,6.2-1.4,9.4-2.3l2.6,11.3c-3.3.9-6.7,1.7-10,2.5" transform="translate(-59.2 -168)" fill="#b9b6ae"/><path d="M366,473.9l-5.2-10.3q4.3-2.6,8.6-5.6l5.8,9.9c-3,2.1-6.1,4.1-9.2,5.9" transform="translate(-59.2 -168)" fill="#b9b6ae"/><path d="M233,491a3.5,3.5,0,0,1-1.3,1.9,7,7,0,0,1-2.4,1.1,9.5,9.5,0,0,1-3.1.2,14.8,14.8,0,0,1-3.5-.8,167.1,167.1,0,0,1-18.9-8.1,15,15,0,0,1-3.1-2.1,10.3,10.3,0,0,1-2.2-2.4,7,7,0,0,1-1-2.5,3.7,3.7,0,0,1,.4-2.3l9.6-18.5.9.5a16.3,16.3,0,0,1,4.7,3.7,3.8,3.8,0,0,1,.6,4.3l-6.7,14.9a169.7,169.7,0,0,0,16.6,7.1q3.4-10,6.6-19.9l8.4,2.8c-1.8,6.8-3.6,13.5-5.5,20.3" transform="translate(-59.2 -168)" fill="#045c30"/><path d="M295.7,502.1q-.5-8.1-1.2-16.3a165.2,165.2,0,0,1-11.1,12.6,163.2,163.2,0,0,1-11.4-12q-.4,8.2-.9,16.3c-3.4-.2-6.8-.4-10.2-.8q1.5-13.2,2.9-26.4l1.7.2,1.8.2,2.2.5,2.3,1a6.9,6.9,0,0,1,2.2,1.7q4.4,4.9,9.4,9.6c3.2-3.3,6.2-6.6,9.1-10.1a6.6,6.6,0,0,1,2.1-1.8l2.4-1.1a10.4,10.4,0,0,1,2.3-.7l1.8-.3,1.7-.3q1.8,13.1,3.4,26.3c-3.4.6-6.9,1-10.3,1.3" transform="translate(-59.2 -168)" fill="#045c30"/><path d="M358.2,453.2a6.8,6.8,0,0,1,.7,2.2,3.8,3.8,0,0,1-.5,2.5,10.4,10.4,0,0,1-2.1,2.4,24.3,24.3,0,0,1-3.9,2.6,158.4,158.4,0,0,1-14.5,7l1.6,4.6c3.6-1.5,7.3-3.2,10.9-5.1l2.2,5.1q-5.5,2.8-11.2,5.2l1.4,4c.8,2.4.5,4.3-.9,5.8a9.3,9.3,0,0,1-2.6,2l-3.4,1.5-1,.4q-2.9-10.1-5.8-20.1a5.3,5.3,0,0,1-.1-3.4,5.9,5.9,0,0,1,1.5-2.3,8.4,8.4,0,0,1,2.3-1.5l2.5-1.1a151.2,151.2,0,0,0,23-11.9" transform="translate(-59.2 -168)" fill="#045c30"/><path d="M181.1,462.3l6.4-9.4c2.6,2,5.3,3.9,8,5.7l-5.9,9.8q-4.3-2.9-8.6-6.1" transform="translate(-59.2 -168)" fill="#045c30"/><path d="M242.4,492.2l2.5-11.4,9.3,1.9c-.6,3.8-1.2,7.6-1.9,11.5-3.3-.6-6.6-1.2-9.9-2" transform="translate(-59.2 -168)" fill="#045c30"/><path d="M313.2,492.1c-.6-3.8-1.3-7.6-2-11.5,3.1-.7,6.2-1.4,9.4-2.3l2.6,11.3q-5,1.4-10,2.5" transform="translate(-59.2 -168)" fill="#045c30"/><path d="M364.4,471.8l-5.2-10.3c2.9-1.7,5.8-3.6,8.6-5.6l5.8,9.9q-4.5,3.1-9.2,5.9" transform="translate(-59.2 -168)" fill="#045c30"/><path d="M217,447.5s7.9-79.2,62.3-130.1c0,0-41.8,30.1-55.5,74s-45.1,36.8-50.8,31c0,0,22.5,18.7,44,25.2" transform="translate(-59.2 -168)" fill="#e9d619"/><path d="M335.1,448.7s-12.5-86.4-55.5-122.5c0,0,53.5,129-56.1,121.8,0,0,47.9,26.8,111.6.7" transform="translate(-59.2 -168)" fill="#e3e2de"/><path d="M280.1,317.4s49.6,41.4,60.6,130.9A152.2,152.2,0,0,0,385,423.7s-26.3,15-38.7-8.7-35.6-74.1-66.2-97.6" transform="translate(-59.2 -168)" fill="#e9d619"/><path d="M316.6,430.5c0,4.2-1.7,7.2-5,9.2s-7.6,2.9-12.8,2.9l-39.2-.2a27.5,27.5,0,0,1-6.4-.8,18.7,18.7,0,0,1-5.6-2.3,13,13,0,0,1-3.9-3.8,8.9,8.9,0,0,1-1.5-5.2l56,.4V419.7l-39.3-.3a26.5,26.5,0,0,1-6.3-.8,16.6,16.6,0,0,1-5.3-2.4,12.3,12.3,0,0,1-3.7-3.8,10.1,10.1,0,0,1-1.3-5.4v-9.6a12.4,12.4,0,0,1,1.4-6,12,12,0,0,1,3.7-4.1,15.9,15.9,0,0,1,5.4-2.3,26.7,26.7,0,0,1,6.4-.7l40.1.3c5.3,0,9.5,1,12.7,2.9s4.8,5,4.7,9.3l-55.6-.4v10.8l38,.2a33.4,33.4,0,0,1,6.5.7,18.4,18.4,0,0,1,5.6,2.1,11.8,11.8,0,0,1,3.9,3.7,9,9,0,0,1,1.5,5.1Z" transform="translate(-59.2 -168)" fill="#b9b6ae"/><path d="M316.1,427.1q0,6.2-5,9.2t-12.8,2.9l-39.2-.3a27.1,27.1,0,0,1-6.4-.8,19,19,0,0,1-5.6-2.3,13.4,13.4,0,0,1-3.9-3.8,9.1,9.1,0,0,1-1.4-5.2l56,.4V416.2l-39.3-.3a25.6,25.6,0,0,1-6.3-.8,16.4,16.4,0,0,1-5.3-2.4,12.4,12.4,0,0,1-3.7-3.8,10.2,10.2,0,0,1-1.3-5.4V394a12.6,12.6,0,0,1,1.4-6,12,12,0,0,1,3.7-4.1,16.3,16.3,0,0,1,5.3-2.3,26.7,26.7,0,0,1,6.4-.7l40.1.3q7.9,0,12.7,2.9t4.7,9.3l-55.6-.4v10.8l38,.2a33.1,33.1,0,0,1,6.5.7,17.8,17.8,0,0,1,5.6,2.1,11.8,11.8,0,0,1,4,3.7,8.9,8.9,0,0,1,1.5,5.2Z" transform="translate(-59.2 -168)" fill="#045c30"/><path d="M243.7,404.8a.6.6,0,0,1-.6-.6V391.4c1.2-8.4,12.8-9.5,13.3-9.5l45.2.3a.6.6,0,0,1,.6.6.6.6,0,0,1-.6.6l-45.1-.3c-.1,0-11.1,1-12.1,8.4v12.6a.6.6,0,0,1-.6.6" transform="translate(-59.2 -168)" fill="#007d43"/><path d="M300.4,405.9l-40-.3a.6.6,0,0,1-.6-.6.6.6,0,0,1,.6-.6l40,.3a.6.6,0,0,1,.6.6.6.6,0,0,1-.6.6" transform="translate(-59.2 -168)" fill="#007d43"/><path d="M251.9,436.3h-.2c-7.5-2.4-8.7-7.5-8.7-7.7a.7.7,0,0,1,.1-.5l.5-.2,54.6.4V416.4a.6.6,0,0,1,.6-.6.6.6,0,0,1,.6.6v12.3a.6.6,0,0,1-.6.6l-54.3-.4c.6,1.4,2.5,4.3,7.6,6a.7.7,0,0,1,.4.8.6.6,0,0,1-.6.5" transform="translate(-59.2 -168)" fill="#007d43"/><path d="M304.4,319.9s70.5-23.3,110.8-14.2c0,0,7.4,52.7-30.8,100l3.9,9.5s38.6-28.8,36.8-119.6c0,0-48.4-4-120.7,24.2" transform="translate(-59.2 -168)" fill="#e9d619"/><path d="M190.4,377.3s-17.5,24.4-20.3,36.5c0,0-35.4-57.6-25.4-109.8,0,0,2,64.7,31.9,86.1,0,0,6.5-5.4,13.9-12.8" transform="translate(-59.2 -168)" fill="#e9d619"/><path d="M255.3,319.6S174.7,294.7,144.7,304c0,0,33.2-15.1,112.3,9.1l13.2-1.2Z" transform="translate(-59.2 -168)" fill="#e9d619"/><path d="M256.9,329.1s-55.7,27.4-80,88.4c0,0,30-63,80-88.4" transform="translate(-59.2 -168)" fill="#fff"/><path d="M147.7,292.3s-9.5.6-11.2,3a341.5,341.5,0,0,0,2.4,44.1s-2.5-39.9,0-43.1c0,0,1.3-3.5,8.9-4.1" transform="translate(-59.2 -168)" fill="#fff"/><path d="M302,329.4s34.7,18.6,52,44.8c0,0-22.9-26.9-52-44.8" transform="translate(-59.2 -168)" fill="#fff"/><polygon points="148.6 223.2 140.1 218.7 148.8 222.7 146.2 214.2 149.3 222.6 153.5 213.9 149.7 222.8 155.3 220.8 149.9 223.3 158.4 227.8 149.7 223.8 152.2 232.2 149.2 224 144.9 232.6 148.7 223.8 142 226 148.6 223.2" fill="#fff" fill-rule="evenodd"/><path d="M385.9,293.8s-57.6,7.8-89.1,18.6c0,0,85.4-19.9,89.1-18.6" transform="translate(-59.2 -168)" fill="#fff" fill-rule="evenodd"/></svg>