<svg xmlns="http://www.w3.org/2000/svg" viewBox="0 0 589.2 895.9"><title>snaefell</title><path d="M411.3,1033.6c-4.6-59.6-23.9-58.8-69.8-70.7l-93.6-24.3c-28.1-7.3-56.3-7.8-73.9-34.4C161.1,884.9,160,881.6,160,831c0-28.5-4.6-465.8-4.8-510.3,0-11.8-6.8-13.1-15.3-18.3l16.9-36.9c66,14.4,93.7-52.2,48.8-96.2l-2.6-2.6,13.4-26.3H649.2l13.4,26.3c-20.1,19.7-31.6,42.1-20.1,71.7,10.4,26.8,41.9,32.4,66.3,27l16.9,36.9c-8.5,5.2-15.2,6.5-15.3,18.3-.2,44.5-4.8,481.8-4.8,510.3,0,50.5-1,53.9-13.9,73.2-17.7,26.6-45.8,27.1-73.9,34.4l-93.6,24.3c-45.9,12-65.3,11.1-69.8,70.7H411.3" transform="translate(-138.3 -139.1)" fill="#fff"/><path d="M411.3,1033.6c-4.6-59.6-23.9-58.8-69.8-70.7l-93.6-24.3c-28.1-7.3-56.3-7.8-73.9-34.4C161.1,884.9,160,881.6,160,831c0-28.5-4.6-465.8-4.8-510.3,0-11.8-6.8-13.1-15.3-18.3l16.9-36.9c66,14.4,93.7-52.2,48.8-96.2l-2.6-2.6,13.4-26.3H649.2l13.4,26.3c-20.1,19.7-31.6,42.1-20.1,71.7,10.4,26.8,41.9,32.4,66.3,27l16.9,36.9c-8.5,5.2-15.2,6.5-15.3,18.3-.2,44.5-4.8,481.8-4.8,510.3,0,50.5-1,53.9-13.9,73.2-17.7,26.6-45.8,27.1-73.9,34.4l-93.6,24.3c-45.9,12-65.3,11.1-69.8,70.7H411.3" transform="translate(-138.3 -139.1)" fill="none" stroke="#2f2f82" stroke-miterlimit="10" stroke-width="2.71"/><path d="M420.4,1023.7h24.9c5.8-56.9,32.7-59,76.5-70.4L615.4,929c24.7-6.4,52.7-7,68.2-30.3,6-9,8.7-13.3,10.3-21.3s1.9-21,1.9-46.4c0-28.5,4.6-465.8,4.8-510.3.1-11,3.6-16.9,12.5-22.2L703,276.9c-67.9,11.2-98.9-63.4-52.6-112.1l-7.4-14.5H222.6l-7.4,14.5c46.3,48.7,15.3,123.3-52.6,112.1l-9.9,21.6c8.9,5.2,12.4,11.1,12.5,22.2.2,44.5,4.8,481.8,4.8,510.3,0,25.4.3,37.9,1.9,46.4,3.3,17.1,18.3,34.7,34.6,40.5,10.9,3.9,24.6,6.1,43.8,11l93.6,24.3c43.8,11.4,70.6,13.5,76.5,70.4" transform="translate(-138.3 -139.1)" fill="#2f2f82"/><path d="M254.7,175.5H611c-25.2,41.2-11,90.8,26.8,115.1-27.8,12.2-58,7.8-66.2,5.8-10.5-2.4-27.2-9.8-28.7-12.2s-13.8-20.6-24.6-25.9-21.7-9.9-29-10.1c-5.1-.1-10.6-1.4-18.1-2.5-8.2-5.7-19.6-18.5-28.7-20.1a92,92,0,0,1-22.7,3.7c-13,.7-25,17.1-35.6,23.8-2.6,2.1-7.8,3-10.8,3.1-9.8,6.9-17.5,18.7-30.5,19.2-6.1.2-38.8,22.3-42.4,26.2s-3.9,8.6-4.7,12.1c-14-.7-57.3-9.3-82.2-15.8,48.3-20,69.4-76.5,41.2-122.6" transform="translate(-138.3 -139.1)" fill="#fff"/><path d="M672.4,377.3c-2.9,130-10.7,426.7-10.7,450.2L432.8,926.8,203.9,827.5c0-23.4-7.8-320.1-10.7-450.2,64.4-12.2,148.1-19.6,239.6-19.6s175.2,7.4,239.6,19.6" transform="translate(-138.3 -139.1)" fill="#fff"/><path d="M527.2,270.8c-3.5-3.7-7.3-7-10.9-8.7-10.3-5-21.1-9.5-27.3-9.7s-14.6-1.9-19.5-2.6c-7.2-4.8-20-18.2-26.9-19.8a93.6,93.6,0,0,1-22.7,3.6c-10.7.6-24.1,17.1-33.5,23-2.2,1.7-6.8,3.5-11.8,3.8-10.1,7.7-16.8,18.8-30.7,19.4-.5,4.7,3.3,7.6,4.2,8.4s8.3,4.2,5.8,13.7c3.3-1,3.7-13.6,5-16.3,3.2-6.3,12.5-11.1,18.2-10.6,8.9.9,4.7,11.8,4,13.1s-5.3,6.1-2.8,13.4c1.1-.1,3.4-1.2,4-2.6,5-12.4,15.6-19.4,18.5-17.6s-.7,8.3-1.9,19.5c2,.8,4.6.4,7.4-3.6s4-14.7,8.4-16.8c2.6-1.2,9.3-2.9,14.3-4.3,2.1-.6,6.9.3,7.5,1.7,1.4,3.7-4.3,6.8-5.4,15.8-.2,1.7-.3,9,6.9,11.5,1.3-1.5,3.3-5.4,4.8-7.1s5.9-12.5,8.9-14,9.8-6.3,12.3-5.3,3.8,1.7,4.6,4.7c.7-3.9,3.3-8.7,12-9.5,3.1-.3,5.7-.8,8.2.7,7.8,4.4,11.5,14.6,17.9,19.1,2.4-2.7,2.7-8.7,2.9-9.5s3.3-4.7,4.8-5.2,9.5-2.6,11-3.6,1.8-4.6,1.8-4.6" transform="translate(-138.3 -139.1)" fill="#fff"/><path d="M318.2,877.1A113.8,113.8,0,0,1,331,852.5L202.5,758.5c-.5-20.8-1.1-45.2-1.7-71.6l144.1,149a114.7,114.7,0,0,1,16.7-13.7L198.2,582.2c-1.6-65.2-3.2-131.2-4.4-181.1L380.5,811.8a113.6,113.6,0,0,1,20.5-6.6L285.8,364.5c30.9-3,64.1-5,98.8-6l37.7,444.2h3.2a115.8,115.8,0,0,1,17.7,1.4l37.9-445.5c34.7,1,67.8,3.1,98.8,6L463.6,809.1a114,114,0,0,1,18.8,8.6L671.9,401.1c-1.1,49.9-2.8,115.9-4.4,181.1L499.1,829.4a115.7,115.7,0,0,1,14.2,14.2L664.9,686.9c-.6,26.4-1.2,50.8-1.7,71.6L524.6,859.8a113,113,0,0,1,10.1,22.9L432.8,926.8,318.2,877.1" transform="translate(-138.3 -139.1)" fill="#e21e26"/><path d="M266.4,232l49.8,58.2c-7.6,5.1-14.3,9.9-15.8,11.6s-2.9,5.4-3.8,8.6l-46.7-39.9A84.1,84.1,0,0,0,266.4,232" transform="translate(-138.3 -139.1)" fill="#e21e26"/><path d="M328.6,175.5,365,263.2c-6.5,5.9-13.1,11.9-22.3,12.3a8,8,0,0,0-2.3.6L278.8,175.5h49.9" transform="translate(-138.3 -139.1)" fill="#e21e26"/><path d="M372.4,175.5h40.5l4.3,54.3c-9.7,2-18.8,11.9-27.2,19l-17.6-73.3" transform="translate(-138.3 -139.1)" fill="#e21e26"/><path d="M493.3,175.5l-17.1,71.1-5.1-.8c-6.5-4.5-14.9-13.5-22.7-17.8l4.1-52.5h40.8" transform="translate(-138.3 -139.1)" fill="#e21e26"/><path d="M586.9,175.5l-56.7,92.4c-3.8-4-7.9-7.6-12-9.6s-8.8-4.1-13.1-5.9l32-77h49.9" transform="translate(-138.3 -139.1)" fill="#e21e26"/><path d="M615.8,270.5l-32.5,27.7a95.6,95.6,0,0,1-11.8-1.8,119.5,119.5,0,0,1-20.9-7.5L599.2,232a84,84,0,0,0,16.6,38.5" transform="translate(-138.3 -139.1)" fill="#e21e26"/><path d="M284.8,417.3l-.2.5q-4.7,1.8-4.3,4.5a43.3,43.3,0,0,0,1.8,6.2q1.2,3.5,3.7,10l4.7,12.2q4.5,11.8,1.8,18.6-3.6,9-15,13.4t-17.6,2.8a14.7,14.7,0,0,1-9.6-5.9q-2.3-3.1-7.9-17.7l-3.9-10.2q-3.6-9.4-5.3-12.1a1.8,1.8,0,0,0-1.9-.9l-4.8,1.4-.6-.2-1-2.7.2-.6q3.9-1.2,12.3-4.5t12.1-4.9l.6.3,1,2.7-.3.5-4.5,2.2a1.8,1.8,0,0,0-.8,2q.6,3.1,4.2,12.5l3.1,8.2q5.8,15,8.4,17.9,5.3,5.6,15.9,1.6,6.9-2.7,9.5-7.6a10.4,10.4,0,0,0,1.3-4.3,21.1,21.1,0,0,0-.9-5.6,64.2,64.2,0,0,0-2.2-6.7l-3.2-8.3q-4-10.4-5.5-14.2a19.6,19.6,0,0,0-2.3-4.5,2.5,2.5,0,0,0-1.9-.7,23.6,23.6,0,0,0-5.1,1.3l-.6-.2-1-2.7.2-.6,7.2-2.5,10.4-4.3.5.3Z" transform="translate(-138.3 -139.1)" fill="#2f2f82"/><path d="M466.9,455.4l-.4.4c-2.4-.2-6.1-.3-11.1-.3s-8.8.1-11.1.3l-.3-.4v-2.9l.4-.4,4.2-.4a1.8,1.8,0,0,0,1.2-1.6,111.5,111.5,0,0,0,.5-13.2V408.2l-8,19.4-4.7,11.9-6.6,17h-2.4q-1.9-5.3-5.1-13.3l-5-12.6-9.4-23.2v29.5a112.3,112.3,0,0,0,.5,13.2,1.8,1.8,0,0,0,1.2,1.6l4.2.4.4.4v2.9l-.4.4-7.7-.3-8.3.3-.4-.4v-2.9l.4-.4,4.2-.4a1.8,1.8,0,0,0,1.2-1.6,113.4,113.4,0,0,0,.5-13.2V414.4a111.7,111.7,0,0,0-.5-13.2,1.8,1.8,0,0,0-1.2-1.6l-4.2-.4-.4-.4v-2.9l.4-.4c2.5.2,5.6.3,9.4.3s5.5-.1,7.7-.3l3.4,9.1,2.3,5.9,11.4,28.3,5.5-13.2,8.6-21.7c1-2.6,2-5.4,2.9-8.3l5.5.3c4.7,0,8.3-.1,10.8-.3l.4.4v2.9l-.4.4-4.2.4a1.8,1.8,0,0,0-1.2,1.6,111.6,111.6,0,0,0-.5,13.2v22.5a113.9,113.9,0,0,0,.5,13.2,1.8,1.8,0,0,0,1.2,1.6l4.2.4.4.4Z" transform="translate(-138.3 -139.1)" fill="#2f2f82"/><path d="M633.1,444l-2.5,4.2-2.1,3.7-1.7,3-.6.2-2.2-1-.2-.6q2.3-5.2,2.1-6.2c-.2-1.1-3.6-3.1-10.2-6.2l-5.1-2.1q-2.2,3.7-6.9,13.9l-2.4,5.2,4.3,2.1,7.4,3.2a1.8,1.8,0,0,0,1.6.1c.7-.4,1.7-2,3.1-4.8l.6-.2,2.4,1.1.2.6c-1.4,2.8-2.7,5.4-3.8,7.8s-2.4,5.5-3.8,8.6l-.5.2-2.6-1.2-.2-.6c1.2-2.7,1.9-4.3,1.8-4.9s-1.1-2.3-3.2-3.4l-4.4-2.3-4.8-2.1-4.2,9.2c-2.8,6.1-4.5,10.2-5,12.2a1.8,1.8,0,0,0,.7,2l5.3,2.9.2.6L595,492l-.6.2-15.4-7.4c-2.2-1.1-5.3-2.4-9.3-4l-.2-.5,1.2-2.6.6-.2,4.7,1.7a1.9,1.9,0,0,0,2-.8,95.9,95.9,0,0,0,6-11.7l9.4-20.4a96,96,0,0,0,5-12.2,1.8,1.8,0,0,0-.6-2,44.8,44.8,0,0,0-4.3-2.5l-.2-.6,1.2-2.6.5-.2c2.4,1.3,6.3,3.2,11.8,5.7l26.1,11.8Z" transform="translate(-138.3 -139.1)" fill="#2f2f82"/><path d="M285,827.9a10.6,10.6,0,0,1,4.5,5.3,12.2,12.2,0,0,1,.8,6.4,19.5,19.5,0,0,1-2.3,6.6,23.1,23.1,0,0,1-6.5,7.5H281a31.7,31.7,0,0,0-6-4.3v-.3l.7-1.3h.3l.4.3,3,1.4a6.3,6.3,0,0,0,3.6-1.4,11,11,0,0,0,3.2-3.7c1.5-2.7,1.6-5.2.4-7.3a6.6,6.6,0,0,0-2.4-2.5,4,4,0,0,0-4.7.1,15,15,0,0,0-2.8,3.1c-2.5,3.4-4.5,5.4-5.9,6.1s-4.5.8-7-.7a9.5,9.5,0,0,1-4.7-6.6q-.8-4.5,2.1-9.9a19.9,19.9,0,0,1,5.7-7h.5a37.9,37.9,0,0,0,5.2,3.9v.3l-.7,1.3h-.3l-3.1-1.6a5.3,5.3,0,0,0-2.7,1.3,10.7,10.7,0,0,0-2.6,3.2,7.6,7.6,0,0,0-1,5.2,5,5,0,0,0,2.5,3.5,4,4,0,0,0,4.2.2c.9-.5,2.2-2,4.2-4.5l1.7-2.2a14.2,14.2,0,0,1,1.8-1.9,6.8,6.8,0,0,1,3.9-1.8,7.8,7.8,0,0,1,4.7,1.3" transform="translate(-138.3 -139.1)" fill="#2f2f82"/><path d="M322.8,766.7v.3l-1.5,1.4a.8.8,0,0,0-.1.9,42.9,42.9,0,0,0,3,4.7l4.2,5.9q4.6,6.6,6.2,8.4v.3l-2.6,1.5q-6.8-1.4-23.8-6l6.7,9.6a40.9,40.9,0,0,0,3.4,4.4.7.7,0,0,0,.8.2l1.7-1.1h.2l.7,1v.2l-3,2.3-3.1,2.6h-.2l-.7-1V802l1.5-1.4a.9.9,0,0,0,.1-.9,40,40,0,0,0-3-4.7l-5.4-7.7a43.6,43.6,0,0,0-3.4-4.4.7.7,0,0,0-.8-.2l-1.7,1.1h-.2l-.7-1v-.2l2.5-1.9,3-2.5q9.8,3.1,22.1,5.7l-6-8.6a40.5,40.5,0,0,0-3.4-4.4.7.7,0,0,0-.9-.2l-1.7,1.1h-.2l-.7-1v-.2l3-2.2,3.1-2.7h.2Z" transform="translate(-138.3 -139.1)" fill="#2f2f82"/><path d="M385.3,754.4a63.1,63.1,0,0,0,1.8,6.3v.2l-8.7,4.9-3.2,2H375l-.2-.5v-.3l.6-1.1a3.8,3.8,0,0,0-.3-1.7l-1.7-5.1-6.4,3.7v1.2a41.3,41.3,0,0,0,0,5.1,5.2,5.2,0,0,0,.1.8c.2.5.5.5,1.1.3l1.1-.5h.2l.4,1.1v.3l-3.7,2-1.6,1.1h-.2l-.4-1.1v-.3a2.7,2.7,0,0,0,1.1-1.4c.1-.4.1-1.4.2-3l.6-15.5a64,64,0,0,0,.1-8.2q-.1-.4-.8-.1l-1.8.8h-.2l-.4-1.2v-.3l6.3-3.5,8.6-5.1h.2l.5,2.1.5,1.7.5,1.8v.3l-.7.4h-.2a10.7,10.7,0,0,0-1.2-2.7c-.2-.1-.6,0-1.4.3l-2.1,1-2.1,1.4c.4,1.3.9,3.2,1.7,5.5l1.3,3.8,1.6-.8,1.6-.9c.7-.4,1.1-.8,1.2-1a10.1,10.1,0,0,0-.6-2.6v-.3l.7-.4h.2l1.3,3.8,1.5,4.1v.2l-.8.5H381a7.6,7.6,0,0,0-1.1-2.4c-.2-.2-.7-.1-1.3.2l-1.6.8-1.6,1,1.9,5.7,1.7,4.7,1.6-1a17.3,17.3,0,0,0,4.2-2.9v-.3a5.6,5.6,0,0,0-.2-1.2l-.5-2.5v-.3l.7-.4Zm-12.6,2.5-4.4-12.7c-.2-.6-.4-.9-.5-.8s-.1.2-.1.6-.1,1.1-.2,2.9-.2,5.5-.3,6.9-.1,3.6-.2,6.4Z" transform="translate(-138.3 -139.1)" fill="#2f2f82"/><path d="M441.8,729.9l-.2,2.2c-.1.5-.1,1.2-.2,2v1.6l-.2.2H440l-.2-.2a9.1,9.1,0,0,0-.3-3q-.4-.6-5.2-.6h-2.4c-.1,1.3-.2,3.7-.2,7.2v2.7h5.7a.8.8,0,0,0,.7-.3,7.4,7.4,0,0,0,.3-2.6l.2-.2h1.2l.2.2c0,1.5-.1,2.8-.1,4s0,2.8.1,4.4l-.2.2h-1.3l-.2-.2a8.8,8.8,0,0,0-.2-2.4c-.2-.5-.9-.7-1.9-.8h-4.5v4.7a46.7,46.7,0,0,0,.3,6.1.8.8,0,0,0,.6.7l2.7.2.2.2v1.3l-.2.2h-12l-.2-.2v-1.3l.2-.2,2.2-.2a.8.8,0,0,0,.6-.7,46.4,46.4,0,0,0,.2-6.1V738.5a47.8,47.8,0,0,0-.3-6.1.8.8,0,0,0-.6-.7l-2.2-.2-.2-.2v-1.3l.2-.2h18.4Z" transform="translate(-138.3 -139.1)" fill="#2f2f82"/><path d="M496.3,771.1a56.4,56.4,0,0,0-2.6,6.2h-.2l-10.6-6.2-3.8-2v-.3l.2-.5.2-.2,1.6-.5a13.4,13.4,0,0,0,1.1-2.5l1.6-4.3,3.6-9.7a55.8,55.8,0,0,0,2-6.1,1,1,0,0,0-.2-1l-1.6-1.2v-.3l.5-1.3h.2l4.5,2.7,10.5,5.8v.2l-1,2-.8,1.6-.7,1.7h-.2l-.9-.5v-.3a11.2,11.2,0,0,0,.9-3.1c-.1-.2-.5-.7-1.4-1.3l-2.4-1.6-2.6-1.3q-.9,1.9-2.2,5.5l-1.5,4,1.8,1.2,1.9,1.1c.9.5,1.4.7,1.6.6a7.4,7.4,0,0,0,1.3-2.4h.2l.9.5v.3l-1.5,3.9-1.5,4.3h-.2l-1-.6v-.3a8.3,8.3,0,0,0,.7-2.7c-.1-.4-.5-.8-1.2-1.4l-1.9-1.2-2-1-2.1,5.9c-.6,1.7-1.2,3.3-1.7,4.9l2,1.1c2.8,1.6,4.6,2.5,5.4,2.5h.3a3.7,3.7,0,0,0,.7-1l1.2-2.2h.2l.9.5Z" transform="translate(-138.3 -139.1)" fill="#2f2f82"/><path d="M540.8,810.3a48.6,48.6,0,0,0-4.9,4.6h-.3l-10.9-9.9-4-3.4v-.3l.4-.4h.2l2,.2a10,10,0,0,0,2-1.8l3.1-3.3,7-7.5a50.2,50.2,0,0,0,4.1-4.8.9.9,0,0,0,0-1l-1.6-1.7v-.3l.9-1h.3l4.5,4.1,4.8,4.1v.3l-1,1h-.3l-1.9-1.4a.9.9,0,0,0-1,.1,47.8,47.8,0,0,0-4.5,4.4l-8.2,8.8-3.4,3.8,2.1,1.8c2.9,2.6,4.8,4.1,5.7,4.5h.4l1.1-.6,2.1-1.5h.3l.9.8Z" transform="translate(-138.3 -139.1)" fill="#2f2f82"/><path d="M570.5,857.3a47.9,47.9,0,0,0-6.4,2.4h-.3l-6.4-12.7c-1.1-2.1-1.9-3.6-2.4-4.4v-.3l.5-.2h.3l1.8.9a11.4,11.4,0,0,0,2.6-.9l4.2-1.8,9.5-4.3a45.7,45.7,0,0,0,5.6-2.8.8.8,0,0,0,.4-.9,20,20,0,0,0-.9-2.1v-.3l1.3-.6h.3c.5,1.2,1.4,3,2.6,5.3s2.2,4.2,2.9,5.4v.2l-1.3.6h-.3l-1.2-2a.9.9,0,0,0-1-.3,47.7,47.7,0,0,0-5.9,2.4l-11.1,5-4.7,2.2,1.2,2.4q2.6,5.1,3.6,6.1l.3.2,1.3-.2,2.5-.6h.3l.5,1.1Z" transform="translate(-138.3 -139.1)" fill="#2f2f82"/></svg>