<svg xmlns="http://www.w3.org/2000/svg" viewBox="0 0 83.9 111.7"><title>stjarnan</title><polygon points="0 101.5 0 0 83.9 0 83.9 101.5 41.9 111.7 0 101.5" fill="#fff"/><polygon points="1.8 1.8 1.8 100.1 41.9 109.8 82 100.1 82 1.8 1.8 1.8" fill="#2c318c"/><path d="M45.2,75.1a10.3,10.3,0,0,0,2.6,5.6,11.4,11.4,0,0,0,6.1,3.8c3.1,1,5.1.7,8.5.1,7.5-1.8,12.3-5.7,11.9-12.8s-12-9.9-18.6-8.8a12.8,12.8,0,0,1,7.8-2.7,12.9,12.9,0,0,1,9.3,2.7,14.3,14.3,0,0,0-13.3-8.5c-7.1-.2-15.4,3.2-14.9,10.3.3,5.1,3.6,8.7,8.8,9.7s7.7-.1,7.7-.1a11.4,11.4,0,0,1-7.2,2.9,11.5,11.5,0,0,1-8.6-2.3m-16-30,21,9,8.4-29.7,9,30.2,21.3-8.7L77.4,66.4l13.5,6.4L72.8,81.5l.9,8.6L65.6,89l-6.9,19.8L52.5,88.6l-9.4,1.3,2.2-8.3L26.4,72.6l13.7-6.5Z" transform="translate(-17.1 -15.8)" fill="#fff"/></svg>