<svg xmlns="http://www.w3.org/2000/svg" viewBox="0 0 578.9 479.3"><title>stokkseyri</title><path d="M532.1,254a12.3,12.3,0,0,0,7.2-11.6v-4.9a12.4,12.4,0,0,0-4.6-10.2,12.4,12.4,0,0,0,4.6-9.6V145.3a12.4,12.4,0,0,0-7.9-11.5c4.9-1.6,7.9-5.8,7.9-11.4v-4.5c0-7.2-5.2-12.2-12.7-12.2H514.9a23.6,23.6,0,0,0-.1-2.5l1.4,2,3.5-12.6c5.3-19.1-4.8-26-12.9-29.6-78.3-34.1-173-52.8-266.8-52.5-39.8.1-87.3,5.8-133.8,16.1S19.4,50-10.5,64.7c-10,4.9-13.3,15.5-8.9,28.4l3.8,11.1.7-1c0,.8-.1,1.6,0,2.4H-26.5c-7.6,0-12.7,4.9-12.7,12.2v4.5a11.7,11.7,0,0,0,8,11.4,12.4,12.4,0,0,0-8,11.6v72.4a12.4,12.4,0,0,0,4.7,9.7,12.4,12.4,0,0,0-4.7,10.2v4.9c0,5.5,2.7,9.7,7.1,11.6-4.7,2.2-7.3,6.8-7.3,13.2v40.9a14.8,14.8,0,0,0,14.7,14.8H70.4a14.5,14.5,0,0,0,14.7-14.5c0-4.3-1.8-7.5-3.2-10s-2.4-4.3-2.4-7.3a22.6,22.6,0,0,1,1.6-7.1c1.9-5.6,4.2-12.6-.8-23.1L78.5,257c13-5.4,26.7-10.7,40.9-15.4l-.3.5-.7,1h.1l-1.7,2.7a157.9,157.9,0,0,0-25,85.5,159.8,159.8,0,0,0,2.7,29.4l.2,1h-.1l.6,2.7.3,1.6h.1l.5,2.1a158.5,158.5,0,0,0,36.6,69.5l5.9,6.5v-.2l.5.5a157.4,157.4,0,0,0,104.3,45.1l6,.2v0l6-.2a157.3,157.3,0,0,0,105.3-45.7l.4-.4v.2l2.7-3h0l3-3.3a158.5,158.5,0,0,0,36.2-68.7l.6-2.5h.1l.3-1.4.5-2.1h-.1l.3-1.8a159.7,159.7,0,0,0,2.7-29.3,157.9,157.9,0,0,0-24.5-84.7l-2-3.2h0l-.6-.8-1-1.5Q400.5,248,422,257l-2,4c-5.3,10.5-3,17.2-1.2,22.5a22.5,22.5,0,0,1,1.7,7.6c0,3-1.1,4.9-2.4,7.3s-3.2,5.7-3.2,10a14.5,14.5,0,0,0,14.7,14.5h95.1a14.8,14.8,0,0,0,14.7-14.8V267.3C539.5,260.8,536.8,256.2,532.1,254Z" transform="translate(39.5 -10.4)" fill="#fff"/><path d="M5.3,86.5c-19.3,8.2-16.4,24.3-7.1,38.6,11.3,17.3,31.5,30.6,26.7,42.3,59.1-29.8,152.1-46.6,223.2-46.5,73.1.1,161.7,13.7,224.9,45.9.1-15.5,20.2-26.6,30-44.2,2.6-4.7,5.5-11.1,5.8-16.1.7-11.7-9.5-17.8-19.6-21.8C422.5,58.1,338.9,37,254.9,36.6,175.7,36.1,79,55.2,5.3,86.5Z" transform="translate(39.5 -10.4)" fill="#e32954" fill-rule="evenodd"/><path d="M-13.8,91.2c3.1-4.4,7.5-9,17.8-13.2C98.4,39.2,174.5,29.5,239.8,27.9c79.9-1.9,186.7,18.7,260.4,52.2,7,3.2,10.5,6.2,13.7,10.9,4.1-14.9-2.6-19.4-9.5-22.5C420.5,31.9,325,16.2,239.9,16.5,157,16.7,51.9,40.9-7.9,70.2-15.3,73.8-17.1,81.6-13.8,91.2Z" transform="translate(39.5 -10.4)" fill="#e32954" fill-rule="evenodd"/><path d="M34.8,169.4c59.1-29.2,153.9-41.1,215.1-41.4,48.9-.3,113.8,8.1,163.1,22,21.3,6,40.7,13.1,53.7,20.4,7,3.9,9,10.7,5.2,15.7-5,6.7-13.8,7.2-21.1,5.3s-21.4-6.7-31.7-10l5.3-5.1c8.7,2.5,18.3,6.5,25.6,8.1s8.2-4.1,2.4-7.2c-11.1-5.9-35.4-14.3-64.5-21-42.6-9.8-96.8-17.5-136.7-17.1-34,.3-76.9,4.4-119.6,12.7-28.7,5.6-57.7,13.1-82.6,24.3-7.9,3.6-5.2,9.4.8,8.4s17.4-5.4,25.6-8.9l4.8,5.1a216.1,216.1,0,0,1-29.8,10.1c-5.9,1.4-12.1,1.4-17.1-1.1C25,185.7,20.8,176.3,34.8,169.4Z" transform="translate(39.5 -10.4)" fill="#e32954" fill-rule="evenodd"/><path d="M477.9,284.7c-.9,7.6-10.6,10.1-16.9,10.4l-13.8.7a2.7,2.7,0,0,0-.1,5.5l17.6.6c8.3.3,20.9-5.5,21.9-15.2.8-7.7-5.9-17.7,3.3-28h34.8c4.8,0,8.7,1.7,8.7,8.8v40.9a8.8,8.8,0,0,1-8.7,8.8H429.6a8.5,8.5,0,0,1-8.7-8.5c0-6,5.6-8.8,5.6-17.3,0-10.4-7.7-14.5-1.1-27.5L466,280.2c4.4,1.8,4.1-4.2,2.3-8.1-75.2-38.1-144.1-57.6-216.5-59.2C176,211.2,96.1,239.7,31.7,272.1c-1.7,3.9-2,9.9,2.4,8.1l40.8-16.7c6.1,13-1.4,18.2-1.4,27.7s5.6,11.4,5.6,17.3a8.5,8.5,0,0,1-8.7,8.5H-24.7a8.8,8.8,0,0,1-8.7-8.8V267.4c0-7.1,3.9-8.8,8.7-8.8H10.3a22.5,22.5,0,0,1,4.8,14.2c-.3,5-2,6.5-1.7,12.4.6,11.3,13.6,16.9,21.9,16.6l17.6-.6a2.7,2.7,0,0,0-.1-5.5L39,295.1c-6.2-.3-16.1-2.8-16.9-10.4s4.8-12.9-1-23.6c-4.8-8.5-7.6-12-11.3-20.1-5.2-11.4-5.2-19.2,6-25.2,64.9-34.5,152.6-60,236.6-59.1s163.9,23.3,230.6,58.7c10.9,5.8,12.7,13,7.1,25.1-3.5,7.6-9,15.7-11.9,21.6C473.2,272.3,478.8,276.2,477.9,284.7Z" transform="translate(39.5 -10.4)" fill="#e32954" fill-rule="evenodd"/><path d="M480.2,244.4c1.2-2.2,2.4-4.5,3.4-6.9,3.5-8,2.8-12.5-4.7-16.2-70.5-34.6-148.8-56.5-226.5-57.4S80.1,189.8,19.8,221.9c-7.4,4-6.8,9.4-3.4,16.2,4.4,9,9.3,15.5,14.8,26.3,71.8-36.6,146.1-60.6,221.1-59,77.7,1.7,143.1,21.3,216.6,58.9C471.8,258.8,476.8,250.7,480.2,244.4Z" transform="translate(39.5 -10.4)" fill="#fff" fill-rule="evenodd"/><path d="M-26.8,139H-1.6c4.3,5.3,8.8,10.3,13,15.7s6.9,8.7,7.1,13.6-1.7,8.4-.5,14.4,3.5,11.4,10.7,15.3c-9,3.6-18,8.1-23,12.1a18.9,18.9,0,0,0-7.6,14h-25a6.4,6.4,0,0,1-6.4-6.4V145.4A6.4,6.4,0,0,1-26.8,139Zm527.8,0h25.9a6.4,6.4,0,0,1,6.4,6.4v72.4a6.4,6.4,0,0,1-6.4,6.4H501.2a18.9,18.9,0,0,0-7.6-14c-5-4-14-8.5-23-12.1,7.2-3.8,9.6-9.8,10.7-15.3s-.4-8.5-.2-13.8,3.3-9.8,6.8-14.2S496.6,144.3,500.9,139Z" transform="translate(39.5 -10.4)" fill="#e32954" fill-rule="evenodd"/><path d="M-26.5,230.9H-1.4c1.2,6.3,4.5,12.8,8.4,18.4H-26.5c-3.9,0-6.7-2-6.7-6.7v-4.9C-33.2,232.8-30,230.9-26.5,230.9Zm527.3,0h25.8c4,0,6.7,2.1,6.7,6.7v4.9c0,4.2-2.7,6.7-6.7,6.7H492.3C496.2,243.7,499.5,237.2,500.7,230.9Z" transform="translate(39.5 -10.4)" fill="#e32954" fill-rule="evenodd"/><path d="M526.6,111.7H515.5a49.3,49.3,0,0,1-7.1,16.9h18.2c3.9,0,6.7-1.8,6.7-6.2v-4.5C533.3,113.5,530,111.7,526.6,111.7Zm-542.7,0H-26.5c-4,0-6.7,2-6.7,6.2v4.5c0,3.8,2.7,6.2,6.7,6.2H-9A49.3,49.3,0,0,1-16.1,111.7Z" transform="translate(39.5 -10.4)" fill="#e32954" fill-rule="evenodd"/><path d="M175.3,243.5H324.4v99.6a67.7,67.7,0,0,1-11.5,38.4c6.8,6.3,17.6,10.6,27.5,11.4,6.7.5,12.6-.4,15.7-2.8,1.4-1.1,3.9-4.6,0-3.8s-7.2,2.6-12.6,3.8c-7.2,1.6-15-1.3-18.7-7.6s-.9-13.1.5-23.8c7.9,9.6,15.8,7.2,24,6,4.9-.7,10.2-1.1,15.3,1.8,11.2,6.3,11,21.6,5.6,33.1-7,15-18.4,19.3-34.9,18.3-19-1.1-40.4-7-52.8-11.5a83.5,83.5,0,0,1-65.3,0c-12.5,4.2-33.4,10.4-52,11.5-16.5,1-28.8-3.3-35.8-18.3-5.3-11.4-4.7-26.8,6.5-33.1,5.2-2.9,10.4-2.5,15.3-1.8,8.2,1.2,16.1,3.6,24-6,1.4,10.7,4.2,17.5.5,23.8s-11.5,9.2-18.7,7.6c-5.4-1.2-9.7-3.2-12.6-3.8s-1.5,2.7,0,3.8c3.1,2.4,9.1,3.3,15.7,2.8,9.6-.7,20.2-4.9,27-10.9a67.4,67.4,0,0,1-11.9-38.9Zm32.3,117.3a21.8,21.8,0,0,1,3.2-4.7,21.1,21.1,0,0,1,14.1-7.3,22.1,22.1,0,0,1,7.2.7c9.9,2.7,14.7,11.3,14.8,21.2.3,14.9-12.5,27.5-25,33.6a78.4,78.4,0,0,0,28,5.1c30.5,0,57.3-16.7,67.1-43.5a52.9,52.9,0,0,1-13.7,1.9c-30,.2-39-31.5-64.6-31.9a38.3,38.3,0,0,0-5.8.4,32.3,32.3,0,0,0-16.9,7.3A24.3,24.3,0,0,0,207.6,360.9ZM218,402.7l1.9-.9c11.6-5.5,24.2-17.2,23.9-31.1-.2-8.5-4-15.9-12.6-18.3a19,19,0,0,0-6.2-.6,18,18,0,0,0-12,6.3,18.3,18.3,0,0,0-4.1,7.9,33.1,33.1,0,0,0-.8,10.7,64.1,64.1,0,0,1-3.9-6.6,36.5,36.5,0,0,1-4-16.1c.3-18.6,15.9-32.3,33.5-34.8l4-.3c7.9-.2,15.8,1.9,23.3,4.1s17,4.9,26,5.8,23.6-4.3,33.9-8.6V247.1h-142v96C178.8,370.9,195,392.4,218,402.7Zm102.9-79.2c-10.6,4.4-24.4,9.4-34.2,8.4s-17.7-3.4-26.5-5.9c-7.2-2-14.9-4.2-22.4-4l-3.6.3c-16.1,2.3-30.6,14.8-30.9,31.8a28.6,28.6,0,0,0,1.3,8.5c.1-8.1,2.9-15.6,9.4-21.3s15.9-8.6,24.7-8.4c27.1.4,36,32.1,64.6,31.9a50.4,50.4,0,0,0,14.9-2.4,67.2,67.2,0,0,0,2.7-19.3ZM213.2,404.4a70.6,70.6,0,0,1-24.2-20c-7.7,6.7-19.1,10.8-28.6,11.5-5.5.4-13.3.1-17.8-3.4a10.1,10.1,0,0,1-1.7-1.7c-1.2-1.6-2.2-3.7-1.1-5.6s3.3-2.2,5.3-1.8a47.3,47.3,0,0,1,5.8,1.8,61.6,61.6,0,0,0,6.9,2c5.8,1.3,12.3-.9,15.4-6.2a9.8,9.8,0,0,0,1.1-2.8,21.1,21.1,0,0,0-.1-7.7c-.3-1.8-.6-3.7-.9-5.5a19,19,0,0,1-11,3.9c-3.9.2-7.6-.6-11.4-1.2s-9.1-1-13.4,1.4c-10.2,5.7-9.5,19.9-5.2,29.1,6.6,14.2,18.1,17.4,32.9,16.6a131.3,131.3,0,0,0,14.9-1.8A245.9,245.9,0,0,0,213.2,404.4ZM311.1,384a70,70,0,0,1-24.5,20.4l9.2,3a214.4,214.4,0,0,0,25.2,5.7,144,144,0,0,0,14.6,1.7c14.9.9,25.4-2.4,32-16.6,4.2-9,5.8-23.4-4.3-29.1-4.3-2.4-8.7-2.1-13.4-1.4s-7.5,1.4-11.4,1.2a19,19,0,0,1-11-3.9c-.3,1.8-.7,3.6-.9,5.5a21.1,21.1,0,0,0-.1,7.7,9.8,9.8,0,0,0,1.1,2.8c3.1,5.3,9.6,7.5,15.4,6.2a61.6,61.6,0,0,0,6.9-2,47.3,47.3,0,0,1,5.8-1.8c2-.4,4.2-.2,5.3,1.8s-.8,5.8-2.8,7.4c-4.6,3.5-12.3,3.9-17.8,3.4C330.5,395.2,318.8,391,311.1,384Z" transform="translate(39.5 -10.4)" fill="#e32954" fill-rule="evenodd"/><path d="M254.5,459.2l.8,24.3a151.3,151.3,0,0,0,101.3-44l-7.3-13.4c-15.6-.1-35.8,2.1-48.9,6.8S268.7,448.3,254.5,459.2Z" transform="translate(39.5 -10.4)" fill="#e32954" fill-rule="evenodd"/><path d="M356.2,421.6l6.4,11.7a152,152,0,0,0,34.8-66.1l-9.6-1.9-8.6,13.8C378.9,398.6,371.8,413.8,356.2,421.6Z" transform="translate(39.5 -10.4)" fill="#e32954" fill-rule="evenodd"/><path d="M143.3,440.2l7.5-14.9c11.1,1,34.3,2.3,49.2,7.5s28.1,14.6,44.7,24.9l-1.1,25.8A151.3,151.3,0,0,1,143.3,440.2Z" transform="translate(39.5 -10.4)" fill="#e32954" fill-rule="evenodd"/><path d="M101.8,366.8l10.8-1.5,8.3,14.4c-.9,18.4,7.2,34.1,22.1,41.9l-6,12.1A152,152,0,0,1,101.8,366.8Z" transform="translate(39.5 -10.4)" fill="#e32954" fill-rule="evenodd"/><path d="M121.8,249.2l8.1,6.8-1.2,50.9-17.5,51.9-10.9,1a153.2,153.2,0,0,1-2.6-28.3A151.7,151.7,0,0,1,121.8,249.2Z" transform="translate(39.5 -10.4)" fill="#e32954" fill-rule="evenodd"/><path d="M126.6,242.1l8.4,6.7,15.5-14.3q-10.1,2.7-20,5.8l-3.6,1.4Z" transform="translate(39.5 -10.4)" fill="#e32954" fill-rule="evenodd"/><path d="M117.5,359.3l5.2,12.3c2.9-8.9,8.9-14.7,16.1-15s17.9,5.1,23.5,3.1c3-1.1,5.4-3.2,8.4-8.6a78.4,78.4,0,0,1-.4-8V322.6l-27.3-7.9c-4-1.2-9.6-.2-11.9,4.7A197.9,197.9,0,0,0,117.5,359.3Z" transform="translate(39.5 -10.4)" fill="#e32954" fill-rule="evenodd"/><path d="M135.5,301.8c-1.1-13.3,1.1-36.6,2.7-40.6s8.6-13.2,17.6-20.4,24.6-15,28.4-11.8l8.1,9.4h-22v77.3l-28.4-7.4C136.5,306.9,135.9,307.5,135.5,301.8Z" transform="translate(39.5 -10.4)" fill="#e32954" fill-rule="evenodd"/><path d="M378,249.9l-8,7.5,1.2,49.4,17.5,51.9,10.3.9a153.2,153.2,0,0,0,2.6-28.2A151.7,151.7,0,0,0,378,249.9Z" transform="translate(39.5 -10.4)" fill="#e32954" fill-rule="evenodd"/><path d="M372.9,242.4l-8.1,6.4-15.3-14.1q9.5,2.5,19,5.3l3.6,1.4Z" transform="translate(39.5 -10.4)" fill="#e32954" fill-rule="evenodd"/><path d="M382.4,359.3l-5.2,12.3c-2.9-8.9-8.9-14.7-16.1-15s-17.9,5.1-23.5,3.1c-3.1-1.1-5.5-3.3-8.5-9,.2-2.5.4-5.1.4-7.7V322.7l27.5-8c4-1.2,9.6-.2,11.9,4.7A197.9,197.9,0,0,1,382.4,359.3Z" transform="translate(39.5 -10.4)" fill="#e32954" fill-rule="evenodd"/><path d="M364.4,301.8c1.1-13.3-1.1-36.6-2.7-40.6s-8.6-13.2-17.6-20.4-24.6-15-28.4-11.8l-8.1,9.4h21.8v77.3l28.6-7.5C363.4,306.9,363.9,307.5,364.4,301.8Z" transform="translate(39.5 -10.4)" fill="#e32954" fill-rule="evenodd"/><path d="M196.6,224.7l11.3,13.7H292l10.7-13.2a418.8,418.8,0,0,0-51.1-4.3A321.1,321.1,0,0,0,196.6,224.7Z" transform="translate(39.5 -10.4)" fill="#e32954" fill-rule="evenodd"/><path d="M216.8,411.6c-5.5,1.7-11.8,4.9-18.7,8.8,11.5,9,38.4,26.3,52.5,26.1s39.8-16.5,51.9-26.4a143.4,143.4,0,0,0-20-8.3,88.5,88.5,0,0,1-65.8-.2Z" transform="translate(39.5 -10.4)" fill="#e32954" fill-rule="evenodd"/><path d="M222.2,314.3l6.3-9.4H216Zm8.9-13.5,5.4-8.2H207.9l5.4,8.2Zm8.1-12.2,5.1-7.7H200.1l5.1,7.7Zm7.8-11.7,5.1-7.7H192.4l5.1,7.7Zm7.8-11.7,4.5-6.7h-74l4.5,6.7Z" transform="translate(39.5 -10.4)" fill="#e32954" fill-rule="evenodd"/><path d="M274,255.9l6.3,9.3H267.7Zm9,13.3,5.2,7.7H259.7l5.2-7.7Zm7.9,11.7,5.2,7.7H251.8l5.2-7.7Zm7.9,11.7,5.6,8.2H243.5l5.6-8.2Zm8.3,12.2,4.7,6.9H236.1l4.7-6.9Z" transform="translate(39.5 -10.4)" fill="#e32954" fill-rule="evenodd"/><path d="M128.1,209a9.8,9.8,0,0,0,.7,1.7,8.8,8.8,0,0,0,1.1,1.7,7.5,7.5,0,0,0,1.7,1.4,7.7,7.7,0,0,0,2.4,1,10.4,10.4,0,0,0,3.1.2,17.3,17.3,0,0,0,4-.8l1.2-.4,1.6-.8,1.7-1.1a9.3,9.3,0,0,0,1.5-1.5,7.5,7.5,0,0,0,1.1-2,7.2,7.2,0,0,0,.5-2.4,9.5,9.5,0,0,0-.5-3,7.4,7.4,0,0,0-1.4-2.7,5.5,5.5,0,0,0-2-1.5,7.8,7.8,0,0,0-2.4-.6h-2.6l-6.4.3h-.9l-1-.2-.9-.6a3,3,0,0,1-.7-2.7,2.9,2.9,0,0,1,.7-1.2,4.8,4.8,0,0,1,1.2-.9l1.4-.6a7.9,7.9,0,0,1,2.3-.4,4.2,4.2,0,0,1,1.6.3,3.4,3.4,0,0,1,1.1.7l.7.9.4.8,4.9-1.5a8.7,8.7,0,0,0-.9-1.9,8.4,8.4,0,0,0-1.6-1.9,7.8,7.8,0,0,0-2.3-1.4,8.7,8.7,0,0,0-3.1-.6,13.2,13.2,0,0,0-4,.6,14.3,14.3,0,0,0-3.8,1.8,8.4,8.4,0,0,0-2.3,2.2,7.1,7.1,0,0,0-1,2.4,7.8,7.8,0,0,0-.2,2.3,9,9,0,0,0,.4,1.9,8.7,8.7,0,0,0,1.3,2.7,5.4,5.4,0,0,0,1.7,1.6,6.5,6.5,0,0,0,2.1.7l2.3.2h2.5l2.8-.2h2.5a4.2,4.2,0,0,1,1.8.4,2.2,2.2,0,0,1,1,1.4,3,3,0,0,1,0,1.8,3.1,3.1,0,0,1-.9,1.4,6,6,0,0,1-1.5,1l-1.8.7a8.3,8.3,0,0,1-2.3.4,4.6,4.6,0,0,1-1.7-.3,3.7,3.7,0,0,1-1.2-.7l-.8-.9-.4-.9Z" transform="translate(39.5 -10.4)" fill="#e32954" fill-rule="evenodd"/><polygon points="196.7 177.3 204.1 175.5 203.1 171 182.9 175.8 184 180.3 191.5 178.5 196.5 199.5 201.6 198.3 196.7 177.3" fill="#e32954" fill-rule="evenodd"/><path d="M166.5,193.7a20.1,20.1,0,0,0,1.2,4.5,13.1,13.1,0,0,0,1.9,3.2,10.5,10.5,0,0,0,2.3,2.1,10.7,10.7,0,0,0,2.5,1.3l2.5.6H179l1.7-.2,1.7-.4,2.1-.8a12.2,12.2,0,0,0,2.1-1.3,10.7,10.7,0,0,0,2-2,10.5,10.5,0,0,0,1.5-2.8,13.1,13.1,0,0,0,.8-3.7,21.7,21.7,0,0,0-1.5-9.2,13.1,13.1,0,0,0-1.9-3.2,10.5,10.5,0,0,0-4.8-3.4l-2.5-.6h-2.2l-1.7.2-1.7.4-2.1.8a11.9,11.9,0,0,0-2.1,1.3,10.5,10.5,0,0,0-3.5,4.7,13.1,13.1,0,0,0-.8,3.7A20.1,20.1,0,0,0,166.5,193.7Zm5.2-.8a14.6,14.6,0,0,1-.2-3.8,8.4,8.4,0,0,1,.7-2.8,6.2,6.2,0,0,1,3-3l1.8-.5H179a6.2,6.2,0,0,1,3.8,1.9,8.5,8.5,0,0,1,1.6,2.4,16.3,16.3,0,0,1,1.2,7.5,8.5,8.5,0,0,1-.7,2.8,6.2,6.2,0,0,1-1.3,1.9,6.1,6.1,0,0,1-1.7,1.1l-1.8.5h-1.8a6.1,6.1,0,0,1-3.8-1.9,8.5,8.5,0,0,1-1.6-2.4A14.7,14.7,0,0,1,171.8,192.9Z" transform="translate(39.5 -10.4)" fill="#e32954" fill-rule="evenodd"/><polygon points="238.1 180.5 249.2 179.3 248.8 174.7 237.6 175.8 237 170 249.7 168.6 249.2 164 231.2 165.9 234 192 239.2 191.4 238.1 180.5" fill="#e32954" fill-rule="evenodd"/><polygon points="269.8 181.2 269.7 181.2 258.6 163.6 253 163.9 254.5 190.1 259.5 189.8 258.4 171.1 258.4 171.1 269.9 189.2 275.2 188.9 273.7 162.7 268.7 163 269.8 181.2" fill="#e32954" fill-rule="evenodd"/><path d="M244.6,193.7H254l1.6,5.4h5.8l-9-26.2h-6.1l-9.1,26.2h5.6Zm4.7-14.9h.1l3.2,10.4H246Z" transform="translate(39.5 -10.4)" fill="#e32954" fill-rule="evenodd"/><path d="M262.8,187.4l-.5,11.5,11,.5a10.4,10.4,0,0,0,3.7-.5,8.5,8.5,0,0,0,2.8-1.6,10,10,0,0,0,2.1-2.4,13.9,13.9,0,0,0,1.4-2.9,20.1,20.1,0,0,0,.8-3.1,22,22,0,0,0,.3-3,20.2,20.2,0,0,0-.1-2.7,17.1,17.1,0,0,0-.5-2.8,12.5,12.5,0,0,0-1.1-2.7,9.2,9.2,0,0,0-1.8-2.3,8.6,8.6,0,0,0-2.7-1.7,11.4,11.4,0,0,0-3.7-.7l-11.2-.5-.4,10.2h-2.9l-.2,4.5Zm5.6-9.9,5.1.2,1.5.2a4.6,4.6,0,0,1,1.5.6,4.5,4.5,0,0,1,1.3,1.4,7.4,7.4,0,0,1,.9,2.5,16.5,16.5,0,0,1,.2,3.9,17.7,17.7,0,0,1-.3,2.6,12.7,12.7,0,0,1-.7,2.4,7.4,7.4,0,0,1-1.2,1.9,4.9,4.9,0,0,1-1.7,1.3,5,5,0,0,1-2.3.4l-5.2-.2.3-7,5.9.2.2-4.5-5.9-.2Z" transform="translate(39.5 -10.4)" fill="#e32954" fill-rule="evenodd"/><path d="M26.6,98.6q2,5,3.6,9.7l3.2,9.1q1.6,4.4,3.3,8.7a13.7,13.7,0,0,0,1.7,3,11.8,11.8,0,0,0,2.6,2.5,11.2,11.2,0,0,0,3.5,1.7,13.5,13.5,0,0,0,4.5.4,21.1,21.1,0,0,0,5.6-1.3,20.6,20.6,0,0,0,5-2.6,13.2,13.2,0,0,0,3.2-3.2,10.7,10.7,0,0,0,1.6-3.6,11.4,11.4,0,0,0,.2-3.7,14,14,0,0,0-.9-3.6l-1.8-4.9-2-5.5-2-5.5-1.8-5L55,90.9l-.8-2.2-8.8,3.2q1.8,4.5,3.5,9l3.3,9.1,1.3,3.9a30.5,30.5,0,0,1,.9,3.5,10.2,10.2,0,0,1,.2,3,4.5,4.5,0,0,1-.9,2.3,5,5,0,0,1-2.3,1.5,4.3,4.3,0,0,1-3.1,0,6.5,6.5,0,0,1-2.7-2.2,18.8,18.8,0,0,1-2.3-4.2L42,114.3l-1.6-4.5-1.8-5-1.7-5-1.5-4.3Z" transform="translate(39.5 -10.4)" fill="#fff" fill-rule="evenodd"/><path d="M79.9,123.3l-1-3.2-1.3-4.4L76,110.7l-1.5-5.3-1.4-5.1-1.2-4.5H72l1.9,3.7,2.2,4.1,2.7,4.9,3.2,5.9,3.8,7.3,7.6-2.2q-.7-7.4-1.3-14.7T90.6,90.3h.1q2.4,7.2,4.2,12.7t2.9,9.3l1.6,5.5,7.6-2.2-2.7-8-2.5-7.9-2.3-7.4-2-6.5-1.6-5.3-1.1-3.7L83.1,80.2c.1.8.2,1.5.3,2.4s.1,1.7.2,2.7l.2,3.3c.1,1.2.2,2.7.3,4.3s.3,3.5.5,5.6.5,4.5.9,7.3h-.1l-2.1-4.2-2.4-4.5-2.4-4.5-2.2-4.1-1.8-3.4-1.1-2.3L62,86.2l1.6,5.5,1.9,6.6,2,7.2,1.9,7.2,1.8,6.8,1.5,5.9Z" transform="translate(39.5 -10.4)" fill="#fff" fill-rule="evenodd"/><path d="M114.8,81.5l5.9-1.1,3.6-.6,3.7-.5-1.7-8.7-22.3,4,1.7,7.6,1.6,7.8,1.5,7.6,1.3,6.9,1,5.8c.3,1.7.5,3.1.6,4.1l9.4-1.7-3.3-15.7,5.5-1,2.8-.5,2.8-.4-1.8-8.7-11,2Z" transform="translate(39.5 -10.4)" fill="#fff" fill-rule="evenodd"/><path d="M162.1,65.4l-4-.3a26,26,0,0,0-4,.2,13.4,13.4,0,0,0-4.1,1.2,8.9,8.9,0,0,0-2.7,2,8.8,8.8,0,0,0-1.6,2.5,10.6,10.6,0,0,0-.7,2.6,13.1,13.1,0,0,0,.1,4.2,13.1,13.1,0,0,0,1.3,3.7,16.5,16.5,0,0,0,2.1,3.1,27.2,27.2,0,0,0,2.6,2.6l2.7,2.2,2.4,2a13.8,13.8,0,0,1,1.9,1.9,4.5,4.5,0,0,1,1,1.9,2.9,2.9,0,0,1-.1,1.7,2.6,2.6,0,0,1-.9,1.1l-1.3.6-1.2.3a9.8,9.8,0,0,1-2.6,0l-2.7-.6-2.6-1,2.5,9.8,4.5.3a27,27,0,0,0,4.4-.2,12.9,12.9,0,0,0,4.6-1.5,9.1,9.1,0,0,0,2.9-2.6,9.8,9.8,0,0,0,1.5-3.1,12.8,12.8,0,0,0,.5-3.2,13.9,13.9,0,0,0-.2-2.8,11.8,11.8,0,0,0-1.2-3.5,15,15,0,0,0-2.1-2.9,24,24,0,0,0-2.5-2.4l-2.6-2.1-2.4-1.9a13.6,13.6,0,0,1-1.9-1.9,4.6,4.6,0,0,1-1-1.9,2.8,2.8,0,0,1,.1-1.6,3,3,0,0,1,.8-1.1l1.2-.7,1.2-.3a10.4,10.4,0,0,1,3.3.1,20.3,20.3,0,0,1,3.4,1Z" transform="translate(39.5 -10.4)" fill="#fff" fill-rule="evenodd"/><path d="M166.3,64.1l1,9,4.5-.6,4.5-.5c.5,4,1,7.9,1.4,11.5s.7,7.1,1,10.4.5,6.6.8,9.8l9.4-.9-.7-5.3-.8-6.4-.8-6.9c-.2-2.4-.5-4.6-.7-6.9s-.4-4.3-.6-6.3l2.2-.2h6.9l-1-9Z" transform="translate(39.5 -10.4)" fill="#fff" fill-rule="evenodd"/><path d="M212.2,59.2a18.5,18.5,0,0,0-4.2.6,16.3,16.3,0,0,0-4.1,1.7,14.7,14.7,0,0,0-3.6,2.9,16.2,16.2,0,0,0-2.7,4.3,21.8,21.8,0,0,0-1.6,5.8,33.9,33.9,0,0,0-.1,7.5,28.2,28.2,0,0,0,1.6,7.3,19.7,19.7,0,0,0,3,5.5,16.4,16.4,0,0,0,4.1,3.7,16.6,16.6,0,0,0,4.9,2.1,19.3,19.3,0,0,0,5.3.5,18,18,0,0,0,5.6-1.1,14.8,14.8,0,0,0,4.7-2.8,15.4,15.4,0,0,0,3.5-4.5,20.8,20.8,0,0,0,2-6.2,32.7,32.7,0,0,0,.2-8,28.5,28.5,0,0,0-1.5-7.3,20.6,20.6,0,0,0-2.9-5.5,16.8,16.8,0,0,0-4.1-3.8,16.2,16.2,0,0,0-4.8-2.2A17.8,17.8,0,0,0,212.2,59.2Zm.5,8.9a6.7,6.7,0,0,1,3.4.7,8.3,8.3,0,0,1,2.7,2.3,12.8,12.8,0,0,1,1.9,3.6,17.7,17.7,0,0,1,1,4.5,19.7,19.7,0,0,1-.2,4.9,13.4,13.4,0,0,1-1.3,4.1,8.1,8.1,0,0,1-2.4,2.9,6.3,6.3,0,0,1-3.5,1.2,7.2,7.2,0,0,1-4.4-1.3,10.1,10.1,0,0,1-3.2-3.9,16.5,16.5,0,0,1-1.6-5.9,20,20,0,0,1,.2-5.1,13.1,13.1,0,0,1,1.4-4.2,8.1,8.1,0,0,1,2.5-2.9A6.6,6.6,0,0,1,212.6,68Z" transform="translate(39.5 -10.4)" fill="#fff" fill-rule="evenodd"/><path d="M235.5,59.4c.1,1.7.1,3.5.2,5.6s.1,4.2.1,6.4.1,4.5.1,6.8,0,4.5,0,6.7,0,4.2,0,6.2,0,3.7,0,5.2-.1,2.8-.1,3.9h9.5q-.2-6.8-.3-13.6T245,72.9q0-6.8,0-13.5Zm19.1,0q-2.1,5-4.4,9.7l-4.6,9.5,5.2,10.6q2.6,5.3,5,10.8h11L255.1,78.4l10-19.1Z" transform="translate(39.5 -10.4)" fill="#fff" fill-rule="evenodd"/><path d="M270.3,59.1c0,1.7,0,3.5-.1,5.6s-.1,4.2-.2,6.4-.2,4.5-.3,6.7-.2,4.5-.3,6.7-.2,4.2-.3,6.2-.2,3.7-.3,5.2-.2,2.8-.3,3.8l9.5.5q.1-6.8.4-13.6t.6-13.5l.7-13.5Zm19,1q-2.4,4.8-4.9,9.5l-5.1,9.2L284,89.7q2.3,5.5,4.4,11.1l11,.6L288.9,79.2l11-18.5Z" transform="translate(39.5 -10.4)" fill="#fff" fill-rule="evenodd"/><path d="M323.1,63.6l-3.8-1.3a25.9,25.9,0,0,0-3.9-.8,13.4,13.4,0,0,0-4.3.1,8.9,8.9,0,0,0-3.1,1.3,8.8,8.8,0,0,0-2.2,2,10.5,10.5,0,0,0-1.3,2.4,12.8,12.8,0,0,0-.7,2.3,12.6,12.6,0,0,0-.3,1.8,13.1,13.1,0,0,0,.3,3.9,16.5,16.5,0,0,0,1.2,3.5,27.2,27.2,0,0,0,1.8,3.1l2,2.8,1.8,2.5a13.8,13.8,0,0,1,1.3,2.3,4.5,4.5,0,0,1,.4,2.1,2.9,2.9,0,0,1-.6,1.6,2.6,2.6,0,0,1-1.1.8l-1.4.3H308a9.8,9.8,0,0,1-2.5-.7L303,92.2l-2.3-1.6v10.1l4.2,1.5a27.1,27.1,0,0,0,4.3.9,12.9,12.9,0,0,0,4.8-.2,9.1,9.1,0,0,0,3.4-1.7,9.8,9.8,0,0,0,2.3-2.6,12.7,12.7,0,0,0,1.3-3,13.9,13.9,0,0,0,.5-2.8,11.8,11.8,0,0,0-.3-3.7,15,15,0,0,0-1.2-3.3,24.2,24.2,0,0,0-1.8-3l-2-2.7-1.9-2.5a13.6,13.6,0,0,1-1.3-2.3,4.6,4.6,0,0,1-.4-2.1,2.8,2.8,0,0,1,.5-1.5,2.9,2.9,0,0,1,1.1-.9l1.3-.3h1.2a10.4,10.4,0,0,1,3.2,1,20.5,20.5,0,0,1,3,1.8Z" transform="translate(39.5 -10.4)" fill="#fff" fill-rule="evenodd"/><path d="M329.6,63.4q-1,9.8-2,17.7c-.7,5.2-1.3,9.8-1.9,13.6s-1.1,6.8-1.5,9l23.7,3.4,1.3-9.1-5.9-.5-5.9-.7-2.9-.4,1-7.3,12.2,1.8L349,82l-3.6-.4-3.6-.5-5-.7,1-7.1,6.4.9,3.9.7,3.9.8,1.2-9Z" transform="translate(39.5 -10.4)" fill="#fff" fill-rule="evenodd"/><path d="M359,108.9l2.3.4,2.3.4,2.3.5,2.3.5q.6-3.8,1.2-7.6l1.3-7.6L378.5,84l7.8-11.3-1.4-.2-1.8-.3-1.9-.4-2.4-.5-2.4-.5-4,6.7-4,6.7c-.2-1.7-.5-3.4-.8-5.1l-1-5.1q-.5-2.5-.8-5.1l-2.5-.4-2.5-.5-2.5-.5-2.5-.5L359,79.9q1.6,6.5,3.1,13c-.4,2.7-.9,5.4-1.4,8S359.6,106.3,359,108.9Z" transform="translate(39.5 -10.4)" fill="#fff" fill-rule="evenodd"/><path d="M399.1,84.1l1.6.4a4.8,4.8,0,0,1,1.5.8,3,3,0,0,1,1,1.5,5.1,5.1,0,0,1,0,2.4,6.1,6.1,0,0,1-1,2.5,4.3,4.3,0,0,1-1.6,1.4,5.1,5.1,0,0,1-1.9.5l-1.9-.2-1-.3-1-.5q.5,5.9.9,11.8c.3,3.9.4,7.9.5,11.9l9.5,2.2c-.2-2.1-.5-4.2-.8-6.3l-.8-6.3c-.3-2.1-.5-4.2-.7-6.3a11.9,11.9,0,0,0,4-1.7,10.1,10.1,0,0,0,3-3.3,15.6,15.6,0,0,0,1.8-5.2,14.3,14.3,0,0,0,.2-4.5,9.6,9.6,0,0,0-1-3.3,8.9,8.9,0,0,0-1.8-2.3,10.5,10.5,0,0,0-2.1-1.5l-2-.9-1.5-.4-15.1-3.5q-1.1,6-2.2,11.2c-.7,3.5-1.4,6.9-2.1,10s-1.4,6.3-2.2,9.3-1.5,6.1-2.3,9.1l8.9,2.1q1.5-7.9,3.2-15.8t3.5-15.7Z" transform="translate(39.5 -10.4)" fill="#fff" fill-rule="evenodd"/><path d="M429.6,113.9c0,2,0,4.1,0,6.1s-.1,4-.2,6.1l9.3,2.9q-.2-10.6-.2-21.2t.1-21.3l-10.6-3.3-2,3L423,90.4l-3.5,5-3.8,5.3-3.8,5.3-3.6,4.9-3.1,4.1-2.3,3,9.7,3,6.6-10.2Zm-5.7-10.7,6.7-10.1-.3,12.1Z" transform="translate(39.5 -10.4)" fill="#fff" fill-rule="evenodd"/><path d="M461.2,103.4l1.5.6a4.8,4.8,0,0,1,1.4,1,3,3,0,0,1,.8,1.6,5.1,5.1,0,0,1-.3,2.4,6.1,6.1,0,0,1-1.3,2.3,4.3,4.3,0,0,1-1.8,1.2,5.1,5.1,0,0,1-2,.2l-1.9-.4-1-.5-.9-.6q-.3,5.9-.7,11.8c-.3,3.9-.6,7.9-1.1,11.9l9.1,3.5c0-2.1.1-4.3.1-6.4s0-4.2,0-6.4.1-4.2.2-6.4a11.8,11.8,0,0,0,4.2-1.1,10.1,10.1,0,0,0,3.4-2.8,15.7,15.7,0,0,0,2.5-4.9,14.3,14.3,0,0,0,.8-4.4,9.6,9.6,0,0,0-.6-3.4,8.9,8.9,0,0,0-1.5-2.6,10.5,10.5,0,0,0-1.9-1.8L468.3,97l-1.4-.6-14.5-5.5-3.7,10.8-3.4,9.7q-1.7,4.6-3.4,8.9t-3.5,8.7l8.5,3.2q2.6-7.6,5.2-15.2t5.5-15.1Z" transform="translate(39.5 -10.4)" fill="#fff" fill-rule="evenodd"/><path d="M316.3,186.9a4.3,4.3,0,0,1,5.3-3.7c3,.6,4,2.9,3.6,5.6a4.2,4.2,0,0,1-5.1,3.6A4.4,4.4,0,0,1,316.3,186.9Zm-6.2,10.3c-.2,4.2,2.8,7.3,7.3,8.1a10.3,10.3,0,0,0,3,.1,8.6,8.6,0,0,0,3-.9,9.1,9.1,0,0,0,2.7-2,12.8,12.8,0,0,0,2.2-3.5,22.1,22.1,0,0,0,1.5-5.1c.1-.5.2-1.1.3-1.9a22.6,22.6,0,0,0,.2-2.4c.2-4.8-1.9-9.6-7.8-10.6s-10.1,2.4-11,7.5,1.9,8.5,6.9,9.5c2,.4,4.6.2,6.1-1.1a16.9,16.9,0,0,1-.9,3.4c-1,2.1-2.6,3.4-5.3,2.9s-3-1.4-3-3.1Z" transform="translate(39.5 -10.4)" fill="#e32954" fill-rule="evenodd"/><path d="M346.2,184.2a10.1,10.1,0,0,0-3.5-.3,8.2,8.2,0,0,0-2.9.8,9.4,9.4,0,0,0-2.4,1.7,12.7,12.7,0,0,0-1.9,2.4,17.5,17.5,0,0,0-1.4,2.8,22.3,22.3,0,0,0-.9,2.9,18.6,18.6,0,0,0-.5,7.1,9.7,9.7,0,0,0,2.3,5.2,9.4,9.4,0,0,0,4.9,2.8,9.5,9.5,0,0,0,4.2.1,8.6,8.6,0,0,0,3.6-1.8,12,12,0,0,0,2.9-3.5,20.2,20.2,0,0,0,2-5.1,24.6,24.6,0,0,0,.6-3,18.1,18.1,0,0,0,.1-3.1,12.7,12.7,0,0,0-.5-2.9,9,9,0,0,0-1.3-2.6,8.1,8.1,0,0,0-2.2-2.1A10.2,10.2,0,0,0,346.2,184.2Zm-1.1,4.1c4.7,1.2,3.6,7,2.8,10s-2.6,8.5-7.1,7.5-3.6-6.9-2.9-9.9S340.7,187.2,345.1,188.4Z" transform="translate(39.5 -10.4)" fill="#e32954" fill-rule="evenodd"/><path d="M365.6,199.7c-2.4-.7-3.6-2.3-3.3-4.1s2.6-2.8,5-2.1,3.3,2.3,2.9,4S367.6,200.2,365.6,199.7Zm7.7,9.8a7.4,7.4,0,0,0,.2-2.9,5.3,5.3,0,0,0-.9-2.3,9.4,9.4,0,0,0-1.9-1.9,5.7,5.7,0,0,0,2.9-1.5,5.8,5.8,0,0,0,1.5-2.8,5.9,5.9,0,0,0,0-2.6,6.5,6.5,0,0,0-1.2-2.5,8.4,8.4,0,0,0-2.4-2.1,12.7,12.7,0,0,0-3.6-1.4,11.8,11.8,0,0,0-3.5-.3,8.5,8.5,0,0,0-3,.7,6.4,6.4,0,0,0-3.7,4.5,5.3,5.3,0,0,0,.1,3.2,6.1,6.1,0,0,0,2,2.6,8.2,8.2,0,0,0-2.3.7,6.1,6.1,0,0,0-1.6,1.1,5.7,5.7,0,0,0-1,1.3,7.5,7.5,0,0,0-.5,1.2l-.3,1a7.9,7.9,0,0,0-.2,2.2,7.3,7.3,0,0,0,1.9,4.5,9.1,9.1,0,0,0,2.4,1.9,14,14,0,0,0,3.6,1.4,12.8,12.8,0,0,0,3.9.4,8.8,8.8,0,0,0,3-.8,8,8,0,0,0,2.2-1.5,8.4,8.4,0,0,0,1.5-1.9A7.9,7.9,0,0,0,373.3,209.5Zm-5-1c-.6,2.3-2.6,3.6-5.5,2.9s-4.4-2.9-3.8-5.3,3-3.6,5.7-2.9S368.9,206.1,368.3,208.5Z" transform="translate(39.5 -10.4)" fill="#e32954" fill-rule="evenodd"/><path d="M300.7,181h-.1l-4.7,1.5-.3-4.2,6.5-2,4.5.6-3.5,25.3-5.2-.7Z" transform="translate(39.5 -10.4)" fill="#e32954"/></svg>