<svg xmlns="http://www.w3.org/2000/svg" viewBox="0 0 509.3 620.6"><title>stalulfur</title><path d="M105.4,167.9h51.4V142.4q195.5-81.2,378.4,0v25.5H582c35.2,230,4,431.9-235.2,545.6C127.3,614.7,63.2,423.1,105.4,167.9Z" transform="translate(-89 -97.6)" fill="#ecba52" fill-rule="evenodd"/><path d="M346.8,718.2l-1.8-.8c-54.3-24.5-100.6-55.4-137.5-91.9A377.6,377.6,0,0,1,124,501c-18.9-45.5-30.3-97.3-33.8-153.8-3.4-54.4.2-115,11-179.9l.6-3.6h50.7V139.6l2.6-1.1c65.4-27.1,130.6-40.9,194-40.9S475.7,111.3,537,138.5l2.5,1.1v24.1h46.1l.6,3.6c9.5,62.4,13.4,117,11.8,167.1-1.8,56.6-10.6,106.2-26.7,151.4a371.2,371.2,0,0,1-78.8,129.8c-37.3,39.9-85.7,74.2-143.9,101.8ZM109,172.2C65.5,440.8,143.3,616.4,346.7,708.8,548,612.4,619.5,446.7,578.3,172.2H531v-27c-118.7-51.9-243.2-51.9-369.9.1v27Z" transform="translate(-89 -97.6)" fill="#ecba52"/><path d="M106.8,169.1h51.1V143.7q194.3-80.8,376.2,0v25.4h46.4c35,228.9,3.9,429.8-233.8,542.9C128.6,613.7,64.8,423,106.8,169.1Z" transform="translate(-89 -97.6)" fill="#084b32" fill-rule="evenodd"/><path d="M346.8,714.4l-.9-.4c-53.8-24.2-99.6-54.9-136.1-91a373.7,373.7,0,0,1-82.6-123.2c-18.7-45.1-29.9-96.4-33.5-152.4-3.4-54,.2-114.1,10.9-178.6l.3-1.8h50.8V142.2l1.3-.5c64.7-26.9,129.3-40.5,192-40.5S474.3,114.8,535,141.7l1.3.6V167h46.1l.3,1.8c9.5,61.9,13.3,116.2,11.7,165.9-1.8,56.1-10.5,105.2-26.4,150a367.4,367.4,0,0,1-77.9,128.4c-36.9,39.5-84.8,73.4-142.4,100.8ZM108.6,171.2C64.5,441,142.4,617.2,346.7,709.7,605.5,586,606.9,357.3,578.7,171.2H532V145.1c-119.4-52.6-244.5-52.6-372,0v26.1Z" transform="translate(-89 -97.6)" fill="#fff"/><path d="M174.1,152.2q172.6-75.4,345.2,0C543.4,408,502.7,601.7,346.7,684.6,180.7,584.1,135.9,397.5,174.1,152.2Z" transform="translate(-89 -97.6)" fill="#fff" fill-rule="evenodd"/><path d="M346.6,687l-1-.6c-41-24.8-75.6-55.6-102.9-91.6s-47-75.8-60.8-121.5-20.9-94.1-22.3-148.5c-1.4-52.5,2.8-110.6,12.5-172.9l.2-1.2,1.1-.5c57.5-25.1,115.9-37.9,173.4-37.9s115.9,12.7,173.4,37.9l1.1.5V152c12.8,136.4,6.7,245-18.8,331.9-13.6,46.4-33.1,86.7-58,119.8a290.7,290.7,0,0,1-96.9,82.8ZM176,153.7c-40.3,260.9,15.5,433.8,170.7,528.5,140.9-75.6,196.7-248.5,170.5-528.5C404,104.5,289.2,104.5,176,153.7Z" transform="translate(-89 -97.6)" fill="#ecba52"/><path d="M330,640v5.1H317.3a18.2,18.2,0,0,1,1.2-5.5,35.9,35.9,0,0,1,4.1-6.9,36.7,36.7,0,0,0,3-4.7,8.3,8.3,0,0,0,.7-3.4,5.1,5.1,0,0,0-.7-2.8,2.1,2.1,0,0,0-3.6,0,7.2,7.2,0,0,0-.8,3.4l-3.6-.5q.3-4.5,2-6.5a5.4,5.4,0,0,1,4.3-2,5.1,5.1,0,0,1,4.4,2.3,9.7,9.7,0,0,1,1.6,5.7,14.5,14.5,0,0,1-.5,3.7,17.8,17.8,0,0,1-1.5,3.7,32.8,32.8,0,0,1-2.4,3.7l-2.2,3.2a10.4,10.4,0,0,0-.7,1.5Z" transform="translate(-89 -97.6)" fill="#084b32"/><path d="M338.6,616.3q2.7,0,4.3,3t1.8,11.7q0,8.1-1.9,11.7t-4.3,2.9q-2.8,0-4.5-3.2t-1.7-11.5q0-8.1,1.9-11.6T338.6,616.3Zm0,4.6a1.5,1.5,0,0,0-1.2.6,5.2,5.2,0,0,0-.8,2.3,70.2,70.2,0,0,0,0,14.1,6,6,0,0,0,.8,2.5,1.4,1.4,0,0,0,2.3,0,5.2,5.2,0,0,0,.8-2.3,70,70,0,0,0,0-14.1,6.1,6.1,0,0,0-.8-2.5A1.5,1.5,0,0,0,338.6,620.8Z" transform="translate(-89 -97.6)" fill="#084b32"/><path d="M356.4,645.1h-3.6V624.4a12.7,12.7,0,0,1-4.7,4.2v-5a10.4,10.4,0,0,0,3.1-2.7,10.8,10.8,0,0,0,2.3-4.6h2.9Z" transform="translate(-89 -97.6)" fill="#084b32"/><path d="M368,616.3q2.7,0,4.3,3t1.8,11.7q0,8.1-1.9,11.7t-4.3,2.9q-2.8,0-4.5-3.2t-1.7-11.5q0-8.1,1.9-11.6A4.7,4.7,0,0,1,368,616.3Zm0,4.6a1.5,1.5,0,0,0-1.2.6,5.2,5.2,0,0,0-.8,2.3,70.1,70.1,0,0,0,0,14.1,6,6,0,0,0,.8,2.5,1.4,1.4,0,0,0,2.3,0,5.2,5.2,0,0,0,.8-2.3,70.1,70.1,0,0,0,0-14.1,6.1,6.1,0,0,0-.8-2.5A1.5,1.5,0,0,0,368,620.8Z" transform="translate(-89 -97.6)" fill="#084b32"/><path d="M347.6,133.3A112.3,112.3,0,1,1,234.9,245.2,112.3,112.3,0,0,1,347.6,133.3Z" transform="translate(-89 -97.6)" fill="#fff" fill-rule="evenodd"/><path d="M347.2,359h-.5a113.4,113.4,0,0,1,.4-226.8h.5a113.4,113.4,0,0,1-.4,226.8Zm0-224.7a111.3,111.3,0,0,0-.4,222.5h.4a111.3,111.3,0,0,0,.4-222.5Z" transform="translate(-89 -97.6)" fill="#ecba52"/><line x1="321.2" y1="146.8" x2="194" y2="147.1" fill="#d7ac11"/><rect x="283" y="242.4" width="127.1" height="4.25" transform="translate(-89.6 -96.6) rotate(-0.2)" fill="#ecba52"/><path d="M410.8,308.3a117.3,117.3,0,0,1,20.4,11.8c36.1-42.4,39.5-101.4-.3-149.4-6.8,3.8-12.8,8.6-19.6,12.4,24.5,16.1,26,50.6-.2,61.2C436.2,259.5,438.5,292.7,410.8,308.3Z" transform="translate(-89 -97.6)" fill="#d7ac11" fill-rule="evenodd"/><path d="M431.5,323l-1.6-1.2a115.8,115.8,0,0,0-20-11.6l-3.8-1.7,3.6-2.1c11.8-6.6,18.7-17.3,18.9-29.1s-6.8-24-18.7-31.2l-3.6-2.2,3.9-1.6c10.2-4.1,16.6-12.6,17.7-23.2,1.3-12.9-5.7-26.4-17.8-34.3l-2.9-1.9,3.1-1.7c3.3-1.9,6.5-4,9.6-6.1s6.4-4.4,9.9-6.3l1.5-.9,1.1,1.4c19.5,23.5,29.6,50.5,29.2,78.2s-10.4,52.3-28.8,73.9Zm-16.3-14.9a119.1,119.1,0,0,1,15.6,9.2c35.7-43.2,35.5-99.3-.5-143.8-2.8,1.6-5.5,3.5-8.1,5.2l-7.1,4.6c11.7,9,18.3,22.9,17,36.4a31.2,31.2,0,0,1-16.8,25c11.2,8,17.7,20,17.5,32.7S426.3,300.6,415.3,308.1Z" transform="translate(-89 -97.6)" fill="#538350"/><path d="M283.4,307.9a118,118,0,0,0-20.8,11.7c-36.2-42.8-39.4-101.4,1-149l20.8,12.1c-27.1,12.5-27.9,50.3-.5,62.1C258.6,259.6,255.9,291.9,283.4,307.9Z" transform="translate(-89 -97.6)" fill="#fff" fill-rule="evenodd"/><path d="M262.3,322.4l-1.3-1.5c-18.5-21.9-28.5-47.5-28.8-74.1s10-54.4,29.8-77.7l1.1-1.3,1.5.9,10.4,6.1,10.4,6,3.6,2-3.7,1.7c-12.2,5.6-19.6,17.2-19.5,30.3s7.2,22.9,18.9,27.9l3.9,1.7-3.6,2.1c-12,7-19.1,18.4-19,30.5s6.8,22.2,18.5,29l3.6,2.1-3.8,1.7a115.1,115.1,0,0,0-20.4,11.5Zm1.8-149.1c-36.4,44-36.9,99.9-1.1,143.4a118.6,118.6,0,0,1,15.9-9.1c-11-7.6-17.2-18.5-17.3-30.5s6.6-24.2,17.9-32.1a34.2,34.2,0,0,1-18-30.1A36.7,36.7,0,0,1,280,182.6l-7.1-4.1Z" transform="translate(-89 -97.6)" fill="#ecba52"/><path d="M263.6,170.6l20.8,12.1c21.8,8.1,42,3,61-13.1V133.3C310.4,133.9,284.2,148.3,263.6,170.6Z" transform="translate(-89 -97.6)" fill="#fff" fill-rule="evenodd"/><path d="M304.5,188.6a59.3,59.3,0,0,1-20.8-3.9l-.3-.2-23.1-13.4,1.8-1.9c23.1-25,50.4-37.4,83.5-38h2.2l-.2,39.5-.7.6C333.2,182.8,319,188.6,304.5,188.6Zm-19.2-7.8c20.2,7.5,39.2,3.5,58-12.1V135.5c-30,1-55.1,12.4-76.5,34.6Z" transform="translate(-89 -97.6)" fill="#ecba52"/><path d="M262.6,319.6a117.7,117.7,0,0,1,20.8-11.7c21.8-8.1,43.1-2.3,62.1,13.8,0,12.1,0,24.2,0,36.3C309.4,356.9,283.7,341.6,262.6,319.6Z" transform="translate(-89 -97.6)" fill="#fff" fill-rule="evenodd"/><path d="M347.6,360.1h-2.2c-33-1-59.8-13.4-84.3-39l-1.7-1.8,2-1.4a120.4,120.4,0,0,1,21.1-11.9h.1c21.5-8,43.7-3.1,64.2,14.2l.7.6v1c0,6.1,0,12.1,0,18.2s0,12.1,0,18.1Zm-81.7-40.3c22.7,23,47.4,34.5,77.4,35.9q0-8,0-15.9c0-5.7,0-11.4,0-17.2-19-15.7-39.4-20.2-59.1-12.8A117.6,117.6,0,0,0,265.9,319.9Z" transform="translate(-89 -97.6)" fill="#ecba52"/><path d="M431.2,320.1a111.5,111.5,0,0,0-20.4-11.8c-21.8-8.1-46.3-2.7-65.3,13.3,0,12.1,0,24.2,0,36.3C382.2,358.1,410.5,342.8,431.2,320.1Z" transform="translate(-89 -97.6)" fill="#d7ac11" fill-rule="evenodd"/><path d="M346.2,360.1h-2.8v-2.1c0-6.1,0-12.1,0-18.2s0-12.1,0-18.1v-1l.7-.6c20-16.9,45.2-22,67.5-13.7h.1a113.6,113.6,0,0,1,20.8,12l1.9,1.4-1.6,1.8C409.7,346.8,379.8,360.1,346.2,360.1Zm1.4-37.4c0,5.7,0,11.4,0,17.1s0,10.7,0,16c31.5-.3,58.5-12.2,80.4-35.4a109.3,109.3,0,0,0-18-10.2C389.5,302.7,366.2,307.3,347.6,322.7Z" transform="translate(-89 -97.6)" fill="#e7b513"/><path d="M430.9,170.7c-7.1,4.5-12.8,8.8-19.6,12.4-21.8,8.1-46.7,2.5-65.7-13.5V133.3C380.9,132.7,410.2,147.9,430.9,170.7Z" transform="translate(-89 -97.6)" fill="#fff" fill-rule="evenodd"/><path d="M390.7,188.9c-16.2,0-32.8-6.1-46.5-17.7l-.7-.6-.2-39.4h2.1c33.4-.6,64.3,13,87,38.1l1.7,1.9-2.1,1.3-7,4.6a145.2,145.2,0,0,1-12.7,7.9H412A61,61,0,0,1,390.7,188.9Zm-43-20.3c18.5,15.3,42.4,20.1,62.7,12.6a143.2,143.2,0,0,0,12.2-7.6l5-3.3c-21.2-22.5-49.4-34.8-80-34.9Z" transform="translate(-89 -97.6)" fill="#ecba52"/><path d="M430.2,143.5h12.4l.6,10,5.7,1.2,20,41.7-3,5.7,18.4,32.4-4.2,1.2,11.8,26.9-9.7.9L496.1,292l-7.9.3,5.7,34.8-5.7-2.1-2.4-3.9c-9.2,13.1-24.7,12.9-42,9.1,12.6,26.3,11.2,51.3,6,75.9l-6.3.9c-4.5,35.2-5.6,67.4,16.6,78.3v14.2l-39.9.3q.6-20.1-12.1-25.7c1.8-21.6-3.1-44.6-6-67.1l-3.9-3.6-.6-4.2-2.1-34.8-16-6.7c-14.6,11.8-29.7,22.3-47.5,26-5.9-2.4-9.9-6.8-13.3-11.8l-3.3,19.7c-24,14.3-52.7,39.7-76.2,64.1l-4.8,17.2,13.9,11.5c-.9,4.7-1.9,10.5-2.8,15.3-10.9-.1-22.1.1-33,0-6.1-10.5-1.2-23.7,4.9-35.8-6.6-21.5,9.3-50.9,39-85.3l5.7-19.4c11.5-7.4,22.9-13.9,33.6-14.8l6-.3-2.4-5.1,28.4-9.4v-9.1L375.7,305l6.7-3.3-4.5-2.7,16.9-19.1-8.8-.3,11.2-26-8.8-1.5,15.1-26-8.8-.9-10.6,4.2,8.8-14.5-6-3.3L409,181.6l16.9-8.8Z" transform="translate(-89 -97.6)" fill="#ecba52" fill-rule="evenodd"/><path d="M420.1,499.8h0c.4-13.3-3.6-21.9-12-25.6H408c1.4-16.6-1.2-34.2-3.8-51.3-.8-5.2-1.6-10.5-2.3-15.8l-3.9-3.6h0l-.6-4.2-.2-2.7-1.9-32-15.9-6.6c-13.8,11.2-29.1,22.1-47.5,26h-.1c-6.3-2.6-10.2-7.3-13.2-11.6l-3.3,19.4h0c-21.4,12.7-49.2,36.1-76.2,64.1l-4.8,17.1,13.9,11.5h0c-.5,2.4-.9,5-1.4,7.6s-.9,5.3-1.4,7.6H212.3c-6.2-10.7-1-24.1,4.9-35.9-6.1-20,6.7-47.9,39-85.3l5.8-19.4h0c10.4-6.7,22.5-13.9,33.6-14.8l5.9-.3-2.4-5.1,28.5-9.4v-9.1h.1l48.1-15.4,6.5-3.2-4.5-2.7h.1L394.5,280l-8.5-.3h-.2l11.2-26-8.8-1.5h.1l15-25.9-8.6-.9-10.9,4.3,1.2-2,7.7-12.7-6.1-3.3h.1l22.1-30,16.9-8.7,4.2-29.4h12.6l.6,9.9,5.7,1.2h.1l7,14.7,12.9,27h0l-3,5.7,18.5,32.4-4.2,1.2L492,262.7h-.1l-9.5.9,13.9,28.4h-.2l-7.7.3,5.8,34.8-6-2.2-2.4-3.8c-4.3,6.1-10.2,9.6-18,10.8s-14,.4-23.9-1.8a98.4,98.4,0,0,1,9.6,38.4c.5,11.2-.6,23.1-3.6,37.4h0l-6.3.9c-4,31.9-6.4,66.8,16.6,78.1h.1v14.4h-.1Zm-11.9-25.9c8.4,3.7,12.5,12.4,12.1,25.7l39.7-.3v-14c-10.2-5-16.2-14.9-18.3-30.1s-.3-32.6,1.7-48.3h0l6.4-.9c4.6-21.7,7.4-47.6-6.1-75.8v-.2h.2c15.2,3.4,32.1,5,41.9-9h.1l2.5,4,5.5,2-5.7-34.7h.1l7.7-.3L482,263.5h.2l9.5-.9-11.8-26.9,4.2-1.2-18.4-32.3,3-5.7-12.9-27-7-14.7-5.7-1.2h-.1l-.6-10H430.3L426,172.9h0l-16.9,8.8-22,29.8,6,3.3h-.1l-7.8,12.8-.9,1.4,10.3-4.1h0l8.9.9h-.1l-15,25.9,8.8,1.5h-.1l-11.1,25.9,8.6.3h.2l-.2.2-16.8,19,4.6,2.8-6.8,3.4-48,15.4v9.1h-.1l-28.3,9.3,2.4,5.2-6.2.3c-11,.9-23.1,8.1-33.5,14.8l-5.8,19.4c-32.3,37.4-45.1,65.2-39,85.2h0c-5.9,11.7-11,25.1-4.9,35.7h32.8c.4-2.4.9-5,1.4-7.6s.9-5.2,1.4-7.6l-13.9-11.5h0l4.8-17.2h0c27-28,54.7-51.4,76.2-64.1l3.4-19.9.2.2c3,4.4,6.9,9.2,13.2,11.7,18.3-3.9,33.6-14.8,47.4-26h.1l16.1,6.7h0l2,32.1.2,2.7.6,4.2,3.9,3.6h0c.7,5.3,1.5,10.6,2.3,15.8C407,439.8,409.6,457.4,408.2,473.9Z" transform="translate(-89 -97.6)"/><path d="M491.1,326c1.4,17.2-3.1,24-10.2,26.1l-6.8,62.4-4.6.7c-8.7,40.6-10.4,72.1,13.2,70.9,0,4,0,9.7,0,13.5H460.1V485.2c-21.1-10.3-21.7-41.4-16.6-78.3l6.3-.9c4.7-22.1,5.3-47.3-6-75.9,17.3,4.4,33.5,4,42-9.1Q488.1,326.3,491.1,326Z" transform="translate(-89 -97.6)" fill="#084b32" fill-rule="evenodd"/><path d="M482.8,499.7H460V485.3c-9.9-4.9-15.8-14.4-18.1-29.2-1.9-12.2-1.4-27.8,1.5-49.2h0l6.4-.9c5.6-26.5,3.6-51.3-6.1-75.8v-.2h.2c20.7,5.3,34.4,2.3,41.9-9v0c1.5,3.3,3.1,4.9,4.9,4.9h.4c1.3,15.5-2,23.8-10.2,26.2l-6.8,62.4-4.6.7c-7.8,36.4-7.9,56.7-.3,65.7,3.1,3.6,7.6,5.3,13.4,5h.1c0,4,0,9.8,0,13.5Zm-22.6-.4h22.4c0-3.8,0-9.3,0-13.3-5.8.3-10.3-1.4-13.4-5.1s-6-13.3-5.7-25.5c.3-10.2,2.2-23.5,5.9-40.4h.1l4.6-.7,6.8-62.3h.1c8.1-2.3,11.4-10.5,10.1-25.8h-.2c-1.9,0-3.6-1.6-5-4.9-4,6-10,9.7-17.7,11s-14.7.4-24.1-2a128.5,128.5,0,0,1,9,40.2,134.1,134.1,0,0,1-3,35.6h0l-6.3.9c-2.9,21.3-3.4,36.9-1.5,49,2.3,14.8,8.2,24.3,18.1,29.1h.1Z" transform="translate(-89 -97.6)" fill="#084b32"/><polyline points="320.3 112.5 314.3 120.9 340.3 118.2 370.9 90.1 360 57.1" fill="#ecba52" fill-rule="evenodd"/><polygon points="313.5 121.3 320 112.3 320.6 112.7 315 120.5 340.1 117.9 370.5 90 359.6 57.2 360.3 57 371.3 90.2 371.2 90.3 340.4 118.6 313.5 121.3" fill="#084b32"/><path d="M435.1,184.4l13.7-.5c-2.3-8.6-4.9-18.4-5.7-30.4" transform="translate(-89 -97.6)" fill="#ecba52" fill-rule="evenodd"/><path d="M435.1,184.8v-.7l13.3-.5c-2.3-8.5-4.8-18.2-5.6-30h.7c.7,12,3.3,21.7,5.7,30.3v.4Z" transform="translate(-89 -97.6)" fill="#084b32"/><polygon points="325.2 81.4 326.2 106.6 320.3 112.5 298 114 320 84 325.2 81.4" fill="#ecba52" fill-rule="evenodd"/><path d="M386.7,211.7v-.2l22.1-30,5.3-2.7v.2l1,25.3h0l-5.9,5.9h0Zm22.4-30-21.9,29.7,22.1-1.4,5.8-5.8-1-25Z" transform="translate(-89 -97.6)" fill="#e7b513"/><path d="M429.2,216.1c18.5,5,37.6,9.1,54.1,17.1l1,1.3-4.2,1.2c-15-4-26.2-8.1-36.4-14.3l-13.5-5.3" transform="translate(-89 -97.6)" fill="#084b32" fill-rule="evenodd"/><path d="M480.1,235.8h0c-16.4-4.4-27-8.5-36.4-14.3L432,216.9l-2.9-.8V216l1.1.3h-.2V216l1.9.7,7,1.8c15.1,3.9,30.7,7.9,44.3,14.5h0l1,1.5Zm-46.3-18.5,9.9,3.9c9.4,5.8,19.9,9.9,36.3,14.3l4.1-1.2-.9-1.2c-13.6-6.6-29.1-10.6-44.2-14.5Z" transform="translate(-89 -97.6)" fill="#084b32"/><path d="M388.4,252.1c17.6-13.6,35.7-25.1,55.3-30.7q-27.8,11.6-46.5,32.2l-8.8-1.5" transform="translate(-89 -97.6)" fill="#084b32" fill-rule="evenodd"/><path d="M490.9,262.7c-40-23.4-67.1-25.1-85.2-17.6,25.8-3.8,53.4,2.5,76.5,18.4" transform="translate(-89 -97.6)" fill="#084b32" fill-rule="evenodd"/><path d="M482.1,263.6c-22.6-15.5-50.5-22.3-76.4-18.4h-.9l.8-.3c21.4-8.9,50.1-3,85.3,17.6v.2c-34.7-20.3-63.1-26.3-84.3-17.9a103.6,103.6,0,0,1,38.4,1.9,110.9,110.9,0,0,1,37.3,16.6Z" transform="translate(-89 -97.6)" fill="#084b32"/><path d="M496.1,292c-29.2-18.5-60.3-24.5-92.9-21.2l-1.6,2.8c30-3.3,59,2,86.6,18.6Z" transform="translate(-89 -97.6)" fill="#084b32" fill-rule="evenodd"/><path d="M488.2,292.4h0c-26.6-16-54.9-22.1-86.5-18.6h-.2l1.7-3.1h.1a150.4,150.4,0,0,1,47.7,2.4,140.8,140.8,0,0,1,45.2,18.8l.3.2h-.3l-7.9.3Zm-69.9-19.8a132.7,132.7,0,0,1,70,19.5l7.5-.3c-28-17.6-58.2-24.5-92.4-21l-1.5,2.6A152.3,152.3,0,0,1,418.3,272.6Z" transform="translate(-89 -97.6)" fill="#084b32"/><path d="M394.8,279.9l6.8-6.2,1.6-2.8c9.5-8.1,15.6-17.6,20.3-26.7h-3.3c-8.6,14.6-20.9,26.1-34.3,35.5Z" transform="translate(-89 -97.6)" fill="#084b32" fill-rule="evenodd"/><path d="M394.8,280l-9.1-.3.3-.2c15.3-10.7,26.5-22.3,34.2-35.5h3.5v.2c-3.7,7.2-9.9,17.7-20.3,26.7l-1.6,2.9Zm-8.5-.5,8.4.3,6.8-6.2,1.6-2.9c10.4-8.9,16.5-19.4,20.2-26.5h-3C412.6,257.2,401.5,268.8,386.3,279.5Z" transform="translate(-89 -97.6)" fill="#084b32"/><path d="M407.9,285.6c3.8,5.6,13,7.5,25.8,6.9,23.6.1,44,8.8,59.6,30.3l.7,4.2c-3.8-.1-6.5-2.2-8.4-5.7-15.2-21.5-35.3-27.4-57.6-26.1C418,297.8,411.7,293.9,407.9,285.6Z" transform="translate(-89 -97.6)" fill="#084b32" fill-rule="evenodd"/><path d="M494.1,327.2H494c-3.7-.1-6.4-2-8.5-5.8-13.6-19.2-31.8-27.5-57.5-26.1-9.5,2.5-16.1-.7-20.2-9.7l-.5-1.2.7,1.1c3.6,5.3,12,7.5,25.7,6.9,12.2,0,23.3,2.4,32.9,7.1s19.3,12.8,26.8,23.2h0ZM433.7,295a66.9,66.9,0,0,1,25.8,4.7c10.3,4.3,18.9,11.3,26.2,21.6,2,3.7,4.7,5.6,8.2,5.7l-.7-4.1c-14.7-20.2-34.2-30.1-59.5-30.2-13,.6-21.3-1.4-25.3-6.1,4.1,8.1,10.5,10.9,19.5,8.6Z" transform="translate(-89 -97.6)" fill="#084b32"/><path d="M394,363.7c16.1-19.8,32.6-39,52.1-53.5,1.1-4,1.8-10.2,2.4-13.7l-3.4-.6c.2,4.6.2,7.8-2.2,13.2-15.1,9.8-35.2,33.4-51.8,53.4Z" transform="translate(-89 -97.6)" fill="#084b32" fill-rule="evenodd"/><path d="M394.2,364.1l-3.6-1.5.3-.4c18.4-22.2,37.3-44,51.8-53.4,2.4-5.4,2.4-8.5,2.2-13v-.4h.4l1.8.3,1.7.3h.4v.4l-.5,3.2c-.5,3.4-1.1,7.6-1.9,10.6h-.1c-19.8,14.7-36.6,34.5-52.1,53.4Zm-2.4-1.8,2.2.9c15.4-18.9,32.2-38.6,51.9-53.3.8-3,1.4-7.1,1.9-10.4l.4-2.8-1.4-.3-1.3-.2a24.4,24.4,0,0,1-2.3,13h-.1C428.9,318.7,410,340.3,391.8,362.4Z" transform="translate(-89 -97.6)" fill="#084b32"/><path d="M416.9,272.7c-10.2,13.2-21.7,24.4-39.1,26.2l4.5,2.7c6.7,1,16.2-3,28.1-11.6l-2.6-4.5,1.3,2.2,10.1-15.1Z" transform="translate(-89 -97.6)" fill="#084b32" fill-rule="evenodd"/><path d="M384.4,301.9h-2.1l-4.8-2.9h.3c17.9-1.8,29.3-13.6,39-26.1h2.6l-10.2,15.2.4.8.9,1.5h-.1C399.6,298,390.9,301.9,384.4,301.9Zm-2-.4c6.5.9,15.9-2.9,27.9-11.5l-.8-1.3-.4-.7h0l-.3-.5-.6-1.1-.5-.8h.2l.5.8.7,1.3,9.9-14.8H417c-9.7,12.5-21.1,24.2-38.8,26.2Z" transform="translate(-89 -97.6)" fill="#084b32"/><path d="M397.3,395.9c-4.2,1.4-8.9,4-13.7,5.5-10.4,4.2-14.5,4.9-26,9.1L346,400.9c-24.1,18.9-47.4,38.3-69.1,58.6l-1.4,17.1,5.2,6.4-1.1,16.2-25.8.4,2.9-13.5-10.9-8.9,6.6-12.6c20.2-23.9,48.8-45.2,83.2-63.4l-17-29.2c4.2,5.9,9.2,10.4,13.3,11.8,19-4.9,34.2-14.7,47.5-26l16,6.7Z" transform="translate(-89 -97.6)" fill="#084b32" fill-rule="evenodd"/><path d="M253.6,499.7l2.9-13.6-10.8-8.9h-.1l2.2-4.3,4.4-8.4c19.5-23.1,47.5-44.5,83.1-63.4l-18-31,1.3,1.7c4.3,6,9.3,10.4,13.2,11.7,16.4-4.2,31.4-12.5,47.4-26h.1l16.1,6.7h0l1.9,31.8h-.1c-1.9.6-3.9,1.5-6,2.4a77.2,77.2,0,0,1-7.7,3c-6,2.4-9.9,3.7-14.4,5.1s-6.8,2.2-11.6,4h-.1l-3.4-2.9L346,401c-26.9,21.1-49.5,40.3-69,58.5l-1.4,17,5.2,6.4v1.7l-1,14.6h-.1l-25.8.4Zm-7.7-22.6,10.8,8.9h.1l-2.8,13.5,25.6-.4,1.1-16.1-5.2-6.4h0l1.4-17.1h0C296.4,441.1,319,422,346,400.8h.1l11.6,9.6c4.8-1.7,8.4-2.9,11.6-3.9s8.4-2.7,14.4-5.1a77.3,77.3,0,0,0,7.7-3c2.1-.9,4.1-1.8,6-2.4l-1.9-31.5-15.9-6.6c-16,13.5-31.1,21.8-47.5,26h-.1c-3.7-1.2-8.2-5.1-12.3-10.4l16.1,27.7h-.1c-35.7,18.9-63.7,40.3-83.2,63.4Z" transform="translate(-89 -97.6)" fill="#084b32"/><path d="M253.8,499.6h-8.4l2.8-15.3-13.9-11.5,4.8-17.2c22.6-24.9,47.6-46.8,76.2-64.1l3.3-19.7,17,29.2c-30.1,17.4-58.7,37.1-83.2,63.4l-6.6,12.6,10.9,8.9Z" transform="translate(-89 -97.6)" fill="#084b32" fill-rule="evenodd"/><path d="M253.9,499.7h-8.6l2.8-15.2-11.5-9.5-2.4-2h0l4.8-17.2h0c24.2-26.7,49.1-47.7,76.2-64.1l3.4-19.9,17.2,29.6h-.1c-36.2,20.9-61.8,40.5-83.2,63.4l-6.5,12.6,10.8,8.9Zm-8.4-.2h8.2l2.8-13.4-10.9-8.9,2.2-4.3,4.4-8.5c21.3-22.9,47-42.5,83.1-63.4l-16.7-28.9-3.3,19.4h0c-27,16.4-51.9,37.4-76.2,64.1l-4.8,17.1,2.3,1.9,11.5,9.5h0Z" transform="translate(-89 -97.6)" fill="#084b32"/><path d="M353.1,312.2c-15.3,13.3,1.2,31.3,26.3,45.4l-2.1,1.7c-17.9-9.5-30.5-20.2-33.2-33.1.6-7.6,4.6-11.1,9-14" transform="translate(-89 -97.6)" fill="#084b32" fill-rule="evenodd"/><polygon points="222.9 271.1 225.6 274.4 280.5 257.3 276.5 254.7 245.1 264.3 222.9 271.1" fill="#084b32" fill-rule="evenodd"/><line x1="238.4" y1="232.5" x2="242.5" y2="265.2"/><rect x="329" y="329.9" width="0.7" height="33" transform="translate(-129.6 -53.8) rotate(-7.2)" fill="#084b32"/><path d="M313,368.4c-3.5-11.8-7.2-19.7-11.3-23.9l.5-.5c4.2,4.4,8,12.3,11.5,24.2Z" transform="translate(-89 -97.6)" fill="#084b32"/><path d="M433.5,377.6a10.8,10.8,0,1,1-.2,0" transform="translate(-89 -97.6)" fill="#ecba52" fill-rule="evenodd"/><path d="M433.5,399.6a11.2,11.2,0,0,1-.2-22.4v.7a10.5,10.5,0,1,0,.2,0v-.7a11.2,11.2,0,1,1,0,22.4Z" transform="translate(-89 -97.6)" fill="#084b32"/><circle cx="344.6" cy="290.8" r="5.4" fill="#084b32"/><path d="M433.5,393.9a5.5,5.5,0,1,1,5.5-5.5A5.5,5.5,0,0,1,433.5,393.9Zm0-10.8a5.3,5.3,0,1,0,5.3,5.3A5.3,5.3,0,0,0,433.5,383.1Z" transform="translate(-89 -97.6)" fill="#084b32"/><circle cx="208.4" cy="285.1" r="10.8" fill="#ecba52"/><path d="M297.4,393.9a11.2,11.2,0,1,1,11.2-11.2A11.2,11.2,0,0,1,297.4,393.9Zm0-21.7a10.5,10.5,0,1,0,10.5,10.5A10.5,10.5,0,0,0,297.4,372.2Z" transform="translate(-89 -97.6)" fill="#084b32"/><circle cx="208.4" cy="285.1" r="5.4" fill="#084b32"/><path d="M297.4,388.2a5.5,5.5,0,1,1,5.5-5.5A5.5,5.5,0,0,1,297.4,388.2Zm0-10.8a5.3,5.3,0,1,0,5.3,5.3A5.3,5.3,0,0,0,297.4,377.4Z" transform="translate(-89 -97.6)" fill="#084b32"/><circle cx="148.5" cy="338.6" r="10.8" fill="#ecba52"/><path d="M237.5,447.3a11.2,11.2,0,1,1,11.2-11.2A11.2,11.2,0,0,1,237.5,447.3Zm0-21.7A10.5,10.5,0,1,0,248,436.1,10.5,10.5,0,0,0,237.5,425.6Z" transform="translate(-89 -97.6)" fill="#084b32"/><circle cx="148.5" cy="338.6" r="5.4" fill="#084b32"/><path d="M237.5,441.7a5.5,5.5,0,1,1,5.5-5.5A5.5,5.5,0,0,1,237.5,441.7Zm0-10.8a5.3,5.3,0,1,0,5.3,5.3A5.3,5.3,0,0,0,237.5,430.8Z" transform="translate(-89 -97.6)" fill="#084b32"/><circle cx="321.1" cy="215.2" r="9.6" fill="#ecba52"/><path d="M410,322.7a9.9,9.9,0,1,1,9.9-9.9A9.9,9.9,0,0,1,410,322.7Zm0-19.2a9.2,9.2,0,1,0,9.2,9.2A9.2,9.2,0,0,0,410,303.6Z" transform="translate(-89 -97.6)" fill="#084b32"/><circle cx="321.1" cy="215.2" r="4.8" fill="#084b32"/><path d="M410,317.7a4.9,4.9,0,1,1,4.9-4.9A4.9,4.9,0,0,1,410,317.7Zm0-9.6a4.7,4.7,0,1,0,4.7,4.7A4.7,4.7,0,0,0,410,308.1Z" transform="translate(-89 -97.6)" fill="#084b32"/><circle cx="333.9" cy="87.6" r="7.1" fill="#ecba52"/><path d="M422.8,192.7a7.5,7.5,0,1,1,7.5-7.5A7.5,7.5,0,0,1,422.8,192.7Zm0-14.3a6.8,6.8,0,1,0,6.8,6.8A6.8,6.8,0,0,0,422.8,178.4Z" transform="translate(-89 -97.6)" fill="#084b32"/><path d="M468.9,196.4l-9-8.8-30.6,28.1,7.7,3c7-7.9,16.3-13.7,28.9-16.6Z" transform="translate(-89 -97.6)" fill="#084b32" fill-rule="evenodd"/><path d="M437,218.9h-.1l-7.7-3H429l2.4-2.2,28.4-26.1h.1l9,8.8h0l-3,5.7h-.1c-11.9,2.7-21.3,8.1-28.8,16.5Zm-7.5-3.1,7.5,2.9c7.5-8.4,16.9-13.8,28.9-16.5l3-5.6-8.9-8.7Z" transform="translate(-89 -97.6)" fill="#084b32"/><path d="M384.2,229.4l8.8-14.5-6-3.3,22.4-1.5-6.1,8.4,26-2.7,14.5,5.6c-18.8-1.2-34.7-.9-40.1,4.7l-8.8-.9Z" transform="translate(-89 -97.6)" fill="#084b32" fill-rule="evenodd"/><path d="M383.9,229.6l.2-.3,8.7-14.4-6.3-3.5h.4l22.6-1.5v.2l-5.9,8.2,12.8-1.3,13-1.3h0l7.2,2.8,7.2,2.8.7.3h-.7c-16.5-1-34.2-1.3-40.1,4.6h-.1l-3.9-.4-4.8-.5Zm3.4-18,5.8,3.2h-.1l-8.6,14.2,10.3-4.1h0l4.8.5,3.9.4c5.9-5.8,23.1-5.7,39.5-4.7l-6.6-2.6-7.2-2.8-13,1.3-13,1.3H403v-.2l5.9-8.2Z" transform="translate(-89 -97.6)" fill="#084b32"/><polygon points="331.5 116.8 333.7 104.9 341.3 93.8 325.3 84 326.2 106.6 320.3 112.5 331.5 116.8" fill="#084b32" fill-rule="evenodd"/><path d="M420.6,214.5h-.1l-11.4-4.3h.1l5.8-5.8-.9-22.8h.2l16.2,9.8-7.7,11.1ZM409.5,210l10.9,4.2,2.1-11.8,7.6-11-15.8-9.6.9,22.5h0Z" transform="translate(-89 -97.6)" fill="#084b32"/><polygon points="314.3 120.9 320.3 112.5 331.5 116.8 331.8 119.3 314.3 120.9" fill="#084b32" fill-rule="evenodd"/><path d="M403,218.6v-.2l6.1-8.4,11.4,4.3.2,2.7h-.1Zm6.3-8.4-5.9,8.1,17.2-1.6-.2-2.3Z" transform="translate(-89 -97.6)" fill="#084b32"/><polygon points="17.8 403.9 492.5 403.9 434.2 501.2 79.5 501.2 17.8 403.9" fill="#084b32" fill-rule="evenodd"/><path d="M524.4,600.9H167.2L102.8,499.3H585.2Zm-354.8-4.3H522l55.7-93.1H110.6Z" transform="translate(-89 -97.6)" fill="#ecba52"/><path d="M187.2,587.1c-7,0-11.9-2.7-14.6-8s-3.9-11.1-4.3-18.6v-2.4l5.7-.3,7.3-.3h1.8a25.5,25.5,0,0,1-10-9.5,30.5,30.5,0,0,1-3.6-15,32.4,32.4,0,0,1,1.6-10.6,13.8,13.8,0,0,1,5.7-7.7c2.7-1.6,6.1-2,10.5-1.1a18.8,18.8,0,0,1,12,7.6,28.8,28.8,0,0,1,4.4,11.8v-2c-.1-3.5-.1-6.9-.1-10.4v-2.8l2.8.4c11,1.8,22.3,3.4,33.5,4.8l2,.3v2q0,2.4.1,4.8c0,3.2.1,6.3.1,9.5v2.6l-2.6-.2-8.7-.8v1.9c.1,5.8.2,11.9.2,17.8s0,12,0,17.9v6.8H215.1v-2.4c0-7.5,0-15.3-.1-23s-.1-13.8-.2-20.9l-8.2-1-2.5-.3.2,1.9h-2.6l-8.4-.2a32.2,32.2,0,0,1,5.4,4.3,22.1,22.1,0,0,1,5.3,8.5,32.4,32.4,0,0,1,1.6,10.3,33.8,33.8,0,0,1-2,12.1,19.8,19.8,0,0,1-6.1,8.9,15.9,15.9,0,0,1-10,3.3Zm-14-24.5a38.6,38.6,0,0,0,3.6,14.3c1.9,3.8,5.3,5.5,10.5,5.5a11.3,11.3,0,0,0,7.1-2.3,15.2,15.2,0,0,0,4.6-6.8,29.1,29.1,0,0,0,1.7-10.4,27.3,27.3,0,0,0-1.4-8.8,17.5,17.5,0,0,0-4.2-6.7c-2-2-5.3-4.2-9.8-6.6-2.4-1.3-4-2.5-4.7-3.9a9.3,9.3,0,0,1,.3-9.2,5,5,0,0,1,5.2-2,7.6,7.6,0,0,1,5.3,3.8,16.3,16.3,0,0,1,1.9,5.6l5.7.2c-.6-4.9-1.9-8.7-3.8-11.4a14,14,0,0,0-9.1-5.7c-3.1-.7-5.4-.5-7,.5a9.3,9.3,0,0,0-3.7,5.2A27.8,27.8,0,0,0,174,533a25.9,25.9,0,0,0,3,12.7,21.7,21.7,0,0,0,9.5,8.4c3.5,1.7,5.6,3.4,6.7,5.2a11.6,11.6,0,0,1,1.6,5.8,10.7,10.7,0,0,1-1.6,5.9,6.2,6.2,0,0,1-5.7,3c-2.2-.1-5.1-1.1-7-5.7a22.8,22.8,0,0,1-1.4-5.9l-5,.2Zm35.1-28.6,9.2,1.1,2.1.2v2.1c.1,7.8.2,15.5.3,23s.1,13.8.1,20.6h6.3V579c0-5.9,0-11.9,0-17.8s-.1-12-.2-17.8v-7.2l2.6.3,8.7.8q-.1-3.5-.1-6.9v-2.7c-9.7-1.2-19.4-2.6-28.9-4.2q0,3.8.1,7.5Zm-24.8,23.7v2a21.9,21.9,0,0,0,1.2,6.7c1.1,2.7,2.3,2.8,2.8,2.8a1.6,1.6,0,0,0,1.5-.8,6.1,6.1,0,0,0,.9-3.4,6.8,6.8,0,0,0-.9-3.5c-.4-.7-1.5-1.8-4.7-3.4Zm1.4-27.3h-.1a4.1,4.1,0,0,0-.5,2.2,3.6,3.6,0,0,0,.5,1.8c.1.2.6.9,2.8,2.1l1.3.7a14.6,14.6,0,0,0-1.5-5.4,2.9,2.9,0,0,0-2.1-1.5Zm275.5,56.4h-.1a32.3,32.3,0,0,1-6.2-.7,13.5,13.5,0,0,1-6.2-2.9,18.8,18.8,0,0,1-4.4-5.7,24.9,24.9,0,0,1-2.6-7.3,63.6,63.6,0,0,1-1.1-10.1c-.1-3-.1-6-.2-8.9s-.1-5.4-.2-8.2-.1-5.1-.2-7.6-.2-6.3-.2-9.5v-2.1l2.5-.3,10.6-1.3,2.6-.3v2.6c.1,4,.2,8,.3,12q.1,3,.1,6c.1,2.6.1,5.2.2,7.9s.2,6.7.3,10a13,13,0,0,0,1.4,6.3,2.6,2.6,0,0,0,2.4,1.5,2.8,2.8,0,0,0,2.5-1.7c.8-1.4,1.2-3.7,1.2-6.6s-.2-6.3-.3-9.5-.2-6-.2-8.9-.1-4.1-.1-6.2c-.1-4.1-.2-8.2-.3-12.3v-2.1l3-.5,10-1.5,2.7-.4v2.7c.1,3,.2,6.1.2,9.1s.2,6.3.2,9.4.2,5.8.2,8.8.2,6.5.3,9.8a49.8,49.8,0,0,1-1,10.9,30.8,30.8,0,0,1-3.4,9.3,16.1,16.1,0,0,1-5.3,5.9A16.7,16.7,0,0,1,460.3,586.9Zm-16.6-58.8q.1,3.6.2,7.3c.1,2.6.1,5.1.2,7.7s.1,5.4.2,8.1.2,6,.2,9a58.8,58.8,0,0,0,1,9.3,20.3,20.3,0,0,0,2.1,5.9,14.5,14.5,0,0,0,3.2,4.3,8.9,8.9,0,0,0,4.1,1.9,27.6,27.6,0,0,0,5.3.6h.1a10,10,0,0,0,10-5.9,26.1,26.1,0,0,0,2.8-7.9,44.9,44.9,0,0,0,.9-9.9c-.1-3.2-.2-6.5-.3-9.7s-.2-5.9-.2-8.8-.2-6.3-.2-9.4-.1-4.3-.2-6.5l-6.3,1c.1,3.4.1,6.8.2,10.2v6.2c.1,3,.2,5.9.2,8.9s.2,6.3.3,9.5-.5,6.8-1.8,9.1a7.4,7.4,0,0,1-6.4,4,7.2,7.2,0,0,1-6.6-3.7,17.3,17.3,0,0,1-2.1-8.6c-.1-3.3-.2-6.7-.3-10s-.2-5.3-.2-7.9-.1-4-.1-6-.1-6.2-.2-9.3Zm-91.8,58.3a36.3,36.3,0,0,1-6.1-.6,13.9,13.9,0,0,1-6.1-2.5,17.5,17.5,0,0,1-4.4-5.2,22,22,0,0,1-2.6-6.7,48.6,48.6,0,0,1-1.1-9.3q-.1-3.6-.1-7.2t-.2-8.3q-.1-5.1-.2-10.2l-.2-7.7H343l.6-1.6,3.9-10.7.6-1.5H363l-2.8,3.8-7.7,10.7-.7,1h-5.3v6q.1,5.3.2,10.6c0,2.7.1,5.5.2,8.2s.1,5.1.2,7.7a9.9,9.9,0,0,0,1.3,5.4,3.1,3.1,0,0,0,5.1,0,9.4,9.4,0,0,0,1.1-5.3c-.1-3-.1-5.9-.2-8.9s-.1-4.7-.2-7c-.1-5.3-.2-10.6-.4-15.9v-2.4h2.4l11-.2h2.4l.4,18c0,2.3.1,4.5.2,6.8s.1,5.9.2,8.9a37.2,37.2,0,0,1-1,9.4,24.2,24.2,0,0,1-3.5,8,15.1,15.1,0,0,1-5.2,5.1A18.5,18.5,0,0,1,351.8,586.4Zm-16.3-53v2.9q.1,5.1.2,10.3t.2,8.3q.1,3.6.1,7.2a43.8,43.8,0,0,0,1,8.4,17.3,17.3,0,0,0,2,5.3,13,13,0,0,0,3.2,3.8,9.3,9.3,0,0,0,4.1,1.7,31.5,31.5,0,0,0,5.3.5,13.9,13.9,0,0,0,6.6-1.4,10.8,10.8,0,0,0,3.5-3.6,19.5,19.5,0,0,0,2.8-6.4,32.5,32.5,0,0,0,.8-8.2c0-2.9-.1-5.9-.2-8.8s-.1-4.5-.2-6.8l-.3-13.2h-6.3q.2,6.8.3,13.5.1,3.5.2,7c.1,3,.1,6,.2,9a13.8,13.8,0,0,1-2,8.1,7.8,7.8,0,0,1-12.9,0,14.2,14.2,0,0,1-2.1-7.9q-.1-3.8-.2-7.7t-.2-8.2q-.1-5.3-.2-10.6v-3Zm15.9-13.8-2.2,5.9h.2l4.2-5.9Zm170.8,66.4H504.8l-1.4-5c-1.6-5.6-3.3-11.5-5-17.1a24.6,24.6,0,0,0-1.1-3.1c0,3.2.1,6.3.1,9.5s0,8.9,0,13.3V586H481.5v-5.3c0-9.4.1-19.1-.2-28.7q-.2-8-.4-16t-.4-15.7v-2l2-.4,18.2-3.5c3.9-.8,7-.7,9.3.2s4.4,3.2,5.8,6.6a33.1,33.1,0,0,1,2.1,11.8,38.2,38.2,0,0,1-1,10.9,22.7,22.7,0,0,1-3.7,8,11.7,11.7,0,0,1-1.6,1.7l.7.7a22.2,22.2,0,0,1,2.1,3.9,27.8,27.8,0,0,1,1.8,4.6c1.9,7,3.6,13.6,5.3,20.2Zm-13.8-4.8h7.7c-1.4-5.6-2.9-11.2-4.6-17.1a23,23,0,0,0-1.5-3.8,28.8,28.8,0,0,0-1.6-3,7.5,7.5,0,0,0-2.2-1.7l-3.8-2.1,3.8-2a9.1,9.1,0,0,0,3-2.4,18.3,18.3,0,0,0,2.9-6.4,33.6,33.6,0,0,0,.9-9.5,28.7,28.7,0,0,0-1.7-10.1c-.9-2.2-2.1-3.6-3.2-4.1s-2.9-.7-6.5.1l-16.3,3.1q.2,6.8.4,13.7t.4,16c.3,9.6.2,19.4.2,28.8v.6h6.4c0-3.6,0-7.3,0-10.9s0-8.9-.1-13.2v-2.2l2.2-.2h1a5.4,5.4,0,0,1,4.7,2.2,17.5,17.5,0,0,1,2.6,5.8c1.7,5.7,3.4,11.5,5,17.1Zm-270.2,4.5,1.1-4.9c2-8.7,4.2-17.8,6.1-26.6l.2-1q3-13.5,6.1-26.8l.5-2h.6l.7-1.9c1.2-3.5,2.5-7.1,3.9-10.7l.6-1.7,1.8.2,8.5.9,4.1.4-2.5,3.3-7.4,10-.2.3,2.6.2,2.9.3.4,1.6,4.4,17.2,2.7,10.6c2,7.6,3.8,15.2,5.7,22.8,0-6.8,0-14.3-.1-21.9q-.1-6.9-.2-13.8t-.2-13.1v-2.5l2.5.2,11,.6h2.2v2.2q.1,6,.2,12.1.1,4,.2,8c.1,6.4.2,12.2.2,17.8h17.3v2.4c0,4.3,0,8.6,0,12.9v2.4H266.7l-1.8-9.1h-8.7l-1.4,7.3-.4,1.9H238.2Zm17.7-56.2-5.6,24.8-.2,1c-1.9,8.5-3.9,17.2-5.9,25.6h6.3l1.4-7.4.4-1.9h16.5l1.8,9.1h6.6c-2-8.2-4-16.2-6.1-24.3L268.3,546l-4-15.6-4-.4,2.3,11.6c.5,2.4,1,4.7,1.5,7l.6,3,1.2,5.4,1,4.6.6,2.9-5.4-.2-5.5-.2h-2.7l1.1-6.2,1.2-6.5c.5-2.7,1-5.4,1.5-8.1l2.6-13.5Zm29.6,2.2q.1,5.3.2,10.6.1,6.9.2,13.8c.1,8.6.1,17.1.1,24.6h23.6q0-4.1,0-8.2H292.5v-2.3c0-6.3-.1-12.8-.2-20q-.1-4-.2-8t-.2-9.9Zm-26.1,27.8h2.1l-.4-1.7-.8-3.8-.8,4.6Zm-.5-37.9h.4l4.5-6.1-2.6-.3Zm163.3,63.9H406.4v-2.4c.1-8.2.1-17.8-.1-27.1q-.2-6.8-.3-13.6t-.3-13.6v-2.2l2.2-.2,27.2-2.3,2.5-.2v2.5c.1,2,.1,4.1.2,6.1s.1,4.1.2,6.1V541l-2.3.2-14,1c0,1.7.1,3.3.1,4.9l11.4-.6h2.4v2.4c.1,3.8.2,7.6.3,11.4v2.3h-2.3l-11.5.4c0,2.8.1,5.9.1,9s0,7.5-.1,11.3Zm-11.1-4.8h6.4q0-4.5,0-8.9c0-3.9,0-7.9-.1-11.2v-2.3h2.3l11.5-.4q-.1-3.3-.2-6.6l-11.4.6h-2.4v-2.4c-.1-3.2-.2-6.4-.2-9.7v-2.2h2.2l13.9-1v-7.4l-22.6,1.9q.1,5.7.3,11.3t.3,13.6C411.2,564.6,411.2,573.2,411.1,580.9Zm-5.1,4.7H373v-2.4c.1-8.9.1-17.6-.1-26.2q-.1-5.8-.3-11.7c-.1-4.9-.2-9.7-.3-14.6v-2.3h2.3l10.8-.4H388v2.4q.1,6,.3,12.1.1,3.9.2,7.9c.1,5.2.3,11.3.3,17.6l14.9-.2h2.4V570c0,4.4,0,8.9,0,13.3Zm-28.3-4.8h23.6q0-4.3,0-8.5l-14.9.2h-2.4v-2.4c0-7.1-.1-14.1-.3-19.9q-.1-3.9-.2-7.9t-.2-9.7l-6.3.2q.1,6.1.3,12.3t.3,11.7C377.8,564.7,377.8,572.7,377.7,580.8Zm114.5-33.5v-2.9c-.1-4.3-.2-8.6-.3-13v-2.1l2-.3,4.8-.7c3.7-.6,5.5.8,6.5,2a10.7,10.7,0,0,1,1.7,6.2,12.9,12.9,0,0,1-.7,4.9,6.4,6.4,0,0,1-2.9,3.6,11.9,11.9,0,0,1-3.8,1.5l-4.7.5Zm4.4-13.9q.1,4.3.2,8.6l2.1-.2,2.1-1a2.2,2.2,0,0,0,.6-1.1,8.3,8.3,0,0,0,.4-3.1c-.1-2.2-.5-3.2-.8-3.5s-.9-.3-1.9-.1Z" transform="translate(-89 -97.6)" fill="#ecba52"/><path d="M187.2,587.1c-7,0-11.9-2.7-14.6-8s-3.9-11.1-4.3-18.6v-2.4l5.7-.3,7.3-.3h1.8a25.5,25.5,0,0,1-10-9.5,30.5,30.5,0,0,1-3.6-15,32.4,32.4,0,0,1,1.6-10.6,13.8,13.8,0,0,1,5.7-7.7c2.7-1.6,6.1-2,10.5-1.1a18.8,18.8,0,0,1,12,7.6,28.8,28.8,0,0,1,4.4,11.8v-2c-.1-3.5-.1-6.9-.1-10.4v-2.8l2.8.4c11,1.8,22.3,3.4,33.5,4.8l2,.3v2q0,2.4.1,4.8c0,3.2.1,6.3.1,9.5v2.6l-2.6-.2-8.7-.8v1.9c.1,5.8.2,11.9.2,17.8s0,12,0,17.9v6.8H215.1v-2.4c0-7.5,0-15.3-.1-23s-.1-13.8-.2-20.9l-8.2-1-2.5-.3.2,1.9h-2.6l-8.4-.2a32.2,32.2,0,0,1,5.4,4.3,22.1,22.1,0,0,1,5.3,8.5,32.4,32.4,0,0,1,1.6,10.3,33.8,33.8,0,0,1-2,12.1,19.8,19.8,0,0,1-6.1,8.9,15.9,15.9,0,0,1-10,3.3Zm-14-24.5a38.6,38.6,0,0,0,3.6,14.3c1.9,3.8,5.3,5.5,10.5,5.5a11.3,11.3,0,0,0,7.1-2.3,15.2,15.2,0,0,0,4.6-6.8,29.1,29.1,0,0,0,1.7-10.4,27.3,27.3,0,0,0-1.4-8.8,17.5,17.5,0,0,0-4.2-6.7c-2-2-5.3-4.2-9.8-6.6-2.4-1.3-4-2.5-4.7-3.9a9.3,9.3,0,0,1,.3-9.2,5,5,0,0,1,5.2-2,7.6,7.6,0,0,1,5.3,3.8,16.3,16.3,0,0,1,1.9,5.6l5.7.2c-.6-4.9-1.9-8.7-3.8-11.4a14,14,0,0,0-9.1-5.7c-3.1-.7-5.4-.5-7,.5a9.3,9.3,0,0,0-3.7,5.2A27.8,27.8,0,0,0,174,533a25.9,25.9,0,0,0,3,12.7,21.7,21.7,0,0,0,9.5,8.4c3.5,1.7,5.6,3.4,6.7,5.2a11.6,11.6,0,0,1,1.6,5.8,10.7,10.7,0,0,1-1.6,5.9,6.2,6.2,0,0,1-5.7,3c-2.2-.1-5.1-1.1-7-5.7a22.8,22.8,0,0,1-1.4-5.9l-5,.2Zm35.1-28.6,9.2,1.1,2.1.2v2.1c.1,7.8.2,15.5.3,23s.1,13.8.1,20.6h6.3V579c0-5.9,0-11.9,0-17.8s-.1-12-.2-17.8v-7.2l2.6.3,8.7.8q-.1-3.5-.1-6.9v-2.7c-9.7-1.2-19.4-2.6-28.9-4.2q0,3.8.1,7.5Zm-24.8,23.7v2a21.9,21.9,0,0,0,1.2,6.7c1.1,2.7,2.3,2.8,2.8,2.8a1.6,1.6,0,0,0,1.5-.8,6.1,6.1,0,0,0,.9-3.4,6.8,6.8,0,0,0-.9-3.5c-.4-.7-1.5-1.8-4.7-3.4Zm1.4-27.3h-.1a4.1,4.1,0,0,0-.5,2.2,3.6,3.6,0,0,0,.5,1.8c.1.2.6.9,2.8,2.1l1.3.7a14.6,14.6,0,0,0-1.5-5.4,2.9,2.9,0,0,0-2.1-1.5Zm275.5,56.4h-.1a32.3,32.3,0,0,1-6.2-.7,13.5,13.5,0,0,1-6.2-2.9,18.8,18.8,0,0,1-4.4-5.7,24.9,24.9,0,0,1-2.6-7.3,63.6,63.6,0,0,1-1.1-10.1c-.1-3-.1-6-.2-8.9s-.1-5.4-.2-8.2-.1-5.1-.2-7.6-.2-6.3-.2-9.5v-2.1l2.5-.3,10.6-1.3,2.6-.3v2.6c.1,4,.2,8,.3,12q.1,3,.1,6c.1,2.6.1,5.2.2,7.9s.2,6.7.3,10a13,13,0,0,0,1.4,6.3,2.6,2.6,0,0,0,2.4,1.5,2.8,2.8,0,0,0,2.5-1.7c.8-1.4,1.2-3.7,1.2-6.6s-.2-6.3-.3-9.5-.2-6-.2-8.9-.1-4.1-.1-6.2c-.1-4.1-.2-8.2-.3-12.3v-2.1l3-.5,10-1.5,2.7-.4v2.7c.1,3,.2,6.1.2,9.1s.2,6.3.2,9.4.2,5.8.2,8.8.2,6.5.3,9.8a49.8,49.8,0,0,1-1,10.9,30.8,30.8,0,0,1-3.4,9.3,16.1,16.1,0,0,1-5.3,5.9A16.7,16.7,0,0,1,460.3,586.9Zm-16.6-58.8q.1,3.6.2,7.3c.1,2.6.1,5.1.2,7.7s.1,5.4.2,8.1.2,6,.2,9a58.8,58.8,0,0,0,1,9.3,20.3,20.3,0,0,0,2.1,5.9,14.5,14.5,0,0,0,3.2,4.3,8.9,8.9,0,0,0,4.1,1.9,27.6,27.6,0,0,0,5.3.6h.1a10,10,0,0,0,10-5.9,26.1,26.1,0,0,0,2.8-7.9,44.9,44.9,0,0,0,.9-9.9c-.1-3.2-.2-6.5-.3-9.7s-.2-5.9-.2-8.8-.2-6.3-.2-9.4-.1-4.3-.2-6.5l-6.3,1c.1,3.4.1,6.8.2,10.2v6.2c.1,3,.2,5.9.2,8.9s.2,6.3.3,9.5-.5,6.8-1.8,9.1a7.4,7.4,0,0,1-6.4,4,7.2,7.2,0,0,1-6.6-3.7,17.3,17.3,0,0,1-2.1-8.6c-.1-3.3-.2-6.7-.3-10s-.2-5.3-.2-7.9-.1-4-.1-6-.1-6.2-.2-9.3Zm-91.8,58.3a36.3,36.3,0,0,1-6.1-.6,13.9,13.9,0,0,1-6.1-2.5,17.5,17.5,0,0,1-4.4-5.2,22,22,0,0,1-2.6-6.7,48.6,48.6,0,0,1-1.1-9.3q-.1-3.6-.1-7.2t-.2-8.3q-.1-5.1-.2-10.2l-.2-7.7H343l.6-1.6,3.9-10.7.6-1.5H363l-2.8,3.8-7.7,10.7-.7,1h-5.3v6q.1,5.3.2,10.6c0,2.7.1,5.5.2,8.2s.1,5.1.2,7.7a9.9,9.9,0,0,0,1.3,5.4,3.1,3.1,0,0,0,5.1,0,9.4,9.4,0,0,0,1.1-5.3c-.1-3-.1-5.9-.2-8.9s-.1-4.7-.2-7c-.1-5.3-.2-10.6-.4-15.9v-2.4h2.4l11-.2h2.4l.4,18c0,2.3.1,4.5.2,6.8s.1,5.9.2,8.9a37.2,37.2,0,0,1-1,9.4,24.2,24.2,0,0,1-3.5,8,15.1,15.1,0,0,1-5.2,5.1A18.5,18.5,0,0,1,351.8,586.4Zm-16.3-53v2.9q.1,5.1.2,10.3t.2,8.3q.1,3.6.1,7.2a43.8,43.8,0,0,0,1,8.4,17.3,17.3,0,0,0,2,5.3,13,13,0,0,0,3.2,3.8,9.3,9.3,0,0,0,4.1,1.7,31.5,31.5,0,0,0,5.3.5,13.9,13.9,0,0,0,6.6-1.4,10.8,10.8,0,0,0,3.5-3.6,19.5,19.5,0,0,0,2.8-6.4,32.5,32.5,0,0,0,.8-8.2c0-2.9-.1-5.9-.2-8.8s-.1-4.5-.2-6.8l-.3-13.2h-6.3q.2,6.8.3,13.5.1,3.5.2,7c.1,3,.1,6,.2,9a13.8,13.8,0,0,1-2,8.1,7.8,7.8,0,0,1-12.9,0,14.2,14.2,0,0,1-2.1-7.9q-.1-3.8-.2-7.7t-.2-8.2q-.1-5.3-.2-10.6v-3Zm15.9-13.8-2.2,5.9h.2l4.2-5.9Zm170.8,66.4H504.8l-1.4-5c-1.6-5.6-3.3-11.5-5-17.1a24.6,24.6,0,0,0-1.1-3.1c0,3.2.1,6.3.1,9.5s0,8.9,0,13.3V586H481.5v-5.3c0-9.4.1-19.1-.2-28.7q-.2-8-.4-16t-.4-15.7v-2l2-.4,18.2-3.5c3.9-.8,7-.7,9.3.2s4.4,3.2,5.8,6.6a33.1,33.1,0,0,1,2.1,11.8,38.2,38.2,0,0,1-1,10.9,22.7,22.7,0,0,1-3.7,8,11.7,11.7,0,0,1-1.6,1.7l.7.7a22.2,22.2,0,0,1,2.1,3.9,27.8,27.8,0,0,1,1.8,4.6c1.9,7,3.6,13.6,5.3,20.2Zm-13.8-4.8h7.7c-1.4-5.6-2.9-11.2-4.6-17.1a23,23,0,0,0-1.5-3.8,28.8,28.8,0,0,0-1.6-3,7.5,7.5,0,0,0-2.2-1.7l-3.8-2.1,3.8-2a9.1,9.1,0,0,0,3-2.4,18.3,18.3,0,0,0,2.9-6.4,33.6,33.6,0,0,0,.9-9.5,28.7,28.7,0,0,0-1.7-10.1c-.9-2.2-2.1-3.6-3.2-4.1s-2.9-.7-6.5.1l-16.3,3.1q.2,6.8.4,13.7t.4,16c.3,9.6.2,19.4.2,28.8v.6h6.4c0-3.6,0-7.3,0-10.9s0-8.9-.1-13.2v-2.2l2.2-.2h1a5.4,5.4,0,0,1,4.7,2.2,17.5,17.5,0,0,1,2.6,5.8c1.7,5.7,3.4,11.5,5,17.1Zm-270.2,4.5,1.1-4.9c2-8.7,4.2-17.8,6.1-26.6l.2-1q3-13.5,6.1-26.8l.5-2h.6l.7-1.9c1.2-3.5,2.5-7.1,3.9-10.7l.6-1.7,1.8.2,8.5.9,4.1.4-2.5,3.3-7.4,10-.2.3,2.6.2,2.9.3.4,1.6,4.4,17.2,2.7,10.6c2,7.6,3.8,15.2,5.7,22.8,0-6.8,0-14.3-.1-21.9q-.1-6.9-.2-13.8t-.2-13.1v-2.5l2.5.2,11,.6h2.2v2.2q.1,6,.2,12.1.1,4,.2,8c.1,6.4.2,12.2.2,17.8h17.3v2.4c0,4.3,0,8.6,0,12.9v2.4H266.7l-1.8-9.1h-8.7l-1.4,7.3-.4,1.9H238.2Zm17.7-56.2-5.6,24.8-.2,1c-1.9,8.5-3.9,17.2-5.9,25.6h6.3l1.4-7.4.4-1.9h16.5l1.8,9.1h6.6c-2-8.2-4-16.2-6.1-24.3L268.3,546l-4-15.6-4-.4,2.3,11.6c.5,2.4,1,4.7,1.5,7l.6,3,1.2,5.4,1,4.6.6,2.9-5.4-.2-5.5-.2h-2.7l1.1-6.2,1.2-6.5c.5-2.7,1-5.4,1.5-8.1l2.6-13.5Zm29.6,2.2q.1,5.3.2,10.6.1,6.9.2,13.8c.1,8.6.1,17.1.1,24.6h23.6q0-4.1,0-8.2H292.5v-2.3c0-6.3-.1-12.8-.2-20q-.1-4-.2-8t-.2-9.9Zm-26.1,27.8h2.1l-.4-1.7-.8-3.8-.8,4.6Zm-.5-37.9h.4l4.5-6.1-2.6-.3Zm163.3,63.9H406.4v-2.4c.1-8.2.1-17.8-.1-27.1q-.2-6.8-.3-13.6t-.3-13.6v-2.2l2.2-.2,27.2-2.3,2.5-.2v2.5c.1,2,.1,4.1.2,6.1s.1,4.1.2,6.1V541l-2.3.2-14,1c0,1.7.1,3.3.1,4.9l11.4-.6h2.4v2.4c.1,3.8.2,7.6.3,11.4v2.3h-2.3l-11.5.4c0,2.8.1,5.9.1,9s0,7.5-.1,11.3Zm-11.1-4.8h6.4q0-4.5,0-8.9c0-3.9,0-7.9-.1-11.2v-2.3h2.3l11.5-.4q-.1-3.3-.2-6.6l-11.4.6h-2.4v-2.4c-.1-3.2-.2-6.4-.2-9.7v-2.2h2.2l13.9-1v-7.4l-22.6,1.9q.1,5.7.3,11.3t.3,13.6C411.2,564.6,411.2,573.2,411.1,580.9Zm-5.1,4.7H373v-2.4c.1-8.9.1-17.6-.1-26.2q-.1-5.8-.3-11.7c-.1-4.9-.2-9.7-.3-14.6v-2.3h2.3l10.8-.4H388v2.4q.1,6,.3,12.1.1,3.9.2,7.9c.1,5.2.3,11.3.3,17.6l14.9-.2h2.4V570c0,4.4,0,8.9,0,13.3Zm-28.3-4.8h23.6q0-4.3,0-8.5l-14.9.2h-2.4v-2.4c0-7.1-.1-14.1-.3-19.9q-.1-3.9-.2-7.9t-.2-9.7l-6.3.2q.1,6.1.3,12.3t.3,11.7C377.8,564.7,377.8,572.7,377.7,580.8Zm114.5-33.5v-2.9c-.1-4.3-.2-8.6-.3-13v-2.1l2-.3,4.8-.7c3.7-.6,5.5.8,6.5,2a10.7,10.7,0,0,1,1.7,6.2,12.9,12.9,0,0,1-.7,4.9,6.4,6.4,0,0,1-2.9,3.6,11.9,11.9,0,0,1-3.8,1.5l-4.7.5Zm4.4-13.9q.1,4.3.2,8.6l2.1-.2,2.1-1a2.2,2.2,0,0,0,.6-1.1,8.3,8.3,0,0,0,.4-3.1c-.1-2.2-.5-3.2-.8-3.5s-.9-.3-1.9-.1Z" transform="translate(-89 -97.6)" fill="#ecba52"/><path d="M494.5,544.7l4.7-.5a11.3,11.3,0,0,0,2.9-1.3,4.1,4.1,0,0,0,1.8-2.3,10.7,10.7,0,0,0,.6-4,8.6,8.6,0,0,0-1.2-4.8c-.8-1-2.1-1.4-4.2-1.1l-4.8.8c.1,4.4.2,8.9.3,13.3m-10.7,38.9c0-10.6.1-21.1-.2-31.7s-.6-21.1-.9-31.7l18.3-3.5q5.2-1.1,7.9.1c1.8.7,3.3,2.5,4.5,5.4a31,31,0,0,1,1.9,11,36.1,36.1,0,0,1-.9,10.2,20.5,20.5,0,0,1-3.3,7.2,11.4,11.4,0,0,1-3.8,3.1,9.9,9.9,0,0,1,2.9,2.3,22.2,22.2,0,0,1,1.9,3.5,24.9,24.9,0,0,1,1.6,4.2q2.7,10,5.3,20.1H506.6c-2-6.9-3.9-13.7-5.9-20.4a15.8,15.8,0,0,0-2.1-5,3.1,3.1,0,0,0-2.7-1.3h-1q.1,6.6.1,13.3c0,4.4,0,8.9,0,13.3Zm-19.5-60.5,11-1.7c.1,6.2.4,12.4.5,18.5s.4,12.3.5,18.5a47,47,0,0,1-.9,10.4,28.4,28.4,0,0,1-3.1,8.6,14,14,0,0,1-4.5,5.1,14.3,14.3,0,0,1-7.7,2,29.9,29.9,0,0,1-5.8-.6,11.2,11.2,0,0,1-5.1-2.4,16.7,16.7,0,0,1-3.8-5,22.7,22.7,0,0,1-2.4-6.6,60.8,60.8,0,0,1-1.1-9.7c-.1-5.7-.3-11.4-.4-17.1s-.3-11.4-.4-17.1l10.9-1.3c.2,6,.3,12,.4,17.9s.4,11.9.5,17.9a15,15,0,0,0,1.7,7.5,4.9,4.9,0,0,0,4.5,2.6,5.2,5.2,0,0,0,4.5-2.8c1.1-1.8,1.6-4.5,1.5-7.8-.1-6.1-.4-12.3-.5-18.4s-.3-12.3-.4-18.4M408,529l27.3-2.3c.1,4.1.2,8.1.4,12.2L419.4,540c0,3.2.1,6.4.2,9.6l13.8-.7c.1,3.8.2,7.6.3,11.4l-13.9.5c.1,3.8.1,7.5.1,11.3s0,7.5-.1,11.3H408.8c.1-9,.1-18.1-.1-27.1s-.5-18.1-.7-27.1m-33.3,1.6,11.1-.4c.1,6.7.3,13.3.5,20s.3,13.3.3,20l17.3-.2c0,4.4,0,8.9,0,13.3H375.4c.1-8.8.1-17.5-.1-26.3s-.5-17.5-.6-26.3m-24.9-13.3h8.5l-7.7,10.7h-4.8l3.9-10.6m6.6,13.7,11.1-.2.3,15.6c.1,5.2.3,10.4.4,15.6a34.6,34.6,0,0,1-.9,8.8A21.8,21.8,0,0,1,364,578a13,13,0,0,1-4.4,4.3,16.2,16.2,0,0,1-7.8,1.7,33.6,33.6,0,0,1-5.7-.5,11.6,11.6,0,0,1-5.1-2.1,15.2,15.2,0,0,1-3.8-4.5,19.6,19.6,0,0,1-2.3-6,45.9,45.9,0,0,1-1.1-8.8c-.1-5.2-.2-10.3-.3-15.5s-.2-10.4-.3-15.5h11c.1,5.3.2,10.6.3,15.9s.2,10.6.3,15.9a12.1,12.1,0,0,0,1.7,6.6,5.5,5.5,0,0,0,9,0,11.5,11.5,0,0,0,1.5-6.7c-.1-5.3-.2-10.6-.4-15.9S356.5,536.3,356.3,531Zm-73.2-1.6,11.1.6c.1,6.7.3,13.4.4,20.1s.2,13.4.2,20.1h17.3c0,4.3,0,8.6,0,12.9H283.7c0-9,0-18-.1-26.9s-.3-18-.5-26.9m-23.5-16.5,8.5.9-7.8,10.5-4.7-.4c1.3-3.7,2.6-7.3,4-11m4.8,49.3-2.1-10c-.7-3.4-1.4-6.7-2.1-10.1-.6,3.3-1.3,6.6-1.9,9.9l-1.8,10Zm2.3,12H254.3c-.6,3.1-1.2,6.2-1.8,9.3H241.2c2.2-9.6,4.5-19.1,6.6-28.5s4.2-18.6,6.3-27.8l12.1,1.1c2.4,9.3,4.8,18.6,7.2,27.8s4.6,18.2,6.8,27.3H268.6Zm-61.1-53.6q16.8,2.7,33.6,4.9c.1,4.8.1,9.5.2,14.3l-11.3-1.1c.1,7.5.2,14.9.3,22.4s0,14.9,0,22.4h-11c0-7.7,0-15.3-.1-23s-.1-15.3-.3-23l-11.3-1.4c-.1-5.2-.2-10.4-.2-15.6m-35,39.8,10.6-.5a24.6,24.6,0,0,0,1.4,7.5c1.1,2.8,2.8,4.2,4.9,4.3a3.9,3.9,0,0,0,3.6-1.9,8.4,8.4,0,0,0,1.3-4.7,9.2,9.2,0,0,0-1.2-4.6c-.8-1.4-2.7-2.8-5.7-4.3-4.9-2.5-8.4-5.6-10.5-9.3a28.1,28.1,0,0,1-3.3-13.9,30.1,30.1,0,0,1,1.5-9.9,11.5,11.5,0,0,1,4.7-6.4c2.2-1.3,5-1.6,8.8-.8a16.4,16.4,0,0,1,10.5,6.7c2.4,3.5,4,8.5,4.5,15.2l-10.4-.3a17.5,17.5,0,0,0-1.8-6.7,5.3,5.3,0,0,0-3.7-2.7,2.7,2.7,0,0,0-2.9,1,6.1,6.1,0,0,0-.9,3.6,6,6,0,0,0,.8,3,9.3,9.3,0,0,0,3.8,3c4.9,2.6,8.3,4.9,10.4,7.1a19.8,19.8,0,0,1,4.7,7.6,29.8,29.8,0,0,1,1.5,9.5,31.3,31.3,0,0,1-1.9,11.2,17.4,17.4,0,0,1-5.3,7.8,13.6,13.6,0,0,1-8.6,2.8c-6.1,0-10.3-2.2-12.7-6.7s-3.7-10.5-4-17.6" transform="translate(-89 -97.6)" fill="#fff"/><path d="M316.8,559.4a8.1,8.1,0,1,1,8.1-8.1A8.1,8.1,0,0,1,316.8,559.4Zm0-11.9a3.8,3.8,0,1,0,3.8,3.8A3.8,3.8,0,0,0,316.8,547.5Z" transform="translate(-89 -97.6)" fill="#ecba52"/><path d="M316.8,545.4a5.9,5.9,0,1,1-5.9,5.9,5.9,5.9,0,0,1,5.9-5.9" transform="translate(-89 -97.6)" fill="#fff" fill-rule="evenodd"/></svg>