<svg xmlns="http://www.w3.org/2000/svg" viewBox="0 0 375.25 437.99"><title>valur</title><path d="M483.64,281.59c-36.81-2.07-57.09-3.22-92-16.53-41.55-15.86-63.58-30.64-94.17-63.21-30.58,32.56-52.62,47.34-94.17,63.21-34.88,13.32-55.16,14.46-92,16.53l-1.22.07c3.33,38,7.86,78.46,18.35,116.61,10.16,36.93,25.59,71.14,48.58,107.66,39.83,63.27,64.68,86.83,120.42,133.21,52.34-45,81.51-71.4,120.42-133.21,23-36.52,38.43-70.73,48.58-107.66,10.5-38.17,15-78.59,18.36-116.61Z" transform="translate(-109.87 -201.51)" fill="#fff"/><path d="M297.5,624.12a359.9,359.9,0,0,1-50.91-45.26L290.38,294a58.09,58.09,0,0,0,8.14.57q2.73,0,5.39-.25l40.33,288.91A343.73,343.73,0,0,1,297.5,624.12Zm49.62-356.24a57.4,57.4,0,0,0,4.84-9.4,312.82,312.82,0,0,0,32.89,15.28c31.57,12.8,54.49,16.13,88.5,18.15a463.91,463.91,0,0,1-8.21,69.9ZM321,290a57.55,57.55,0,0,0,13-7.66L442.25,437.9c-12.36,29.82-25.87,51.81-35.57,67.12ZM129.86,361.8a463.9,463.9,0,0,1-8.21-69.89c34-2,56.93-5.35,88.5-18.15a305.65,305.65,0,0,0,34.57-16.21,57.36,57.36,0,0,0,4.52,9.24Zm57.62,141.91c-9.64-15.25-22.73-36.84-34.74-65.81l109-156.62A57.64,57.64,0,0,0,274,289.1Z" transform="translate(-109.87 -201.51)" fill="#0072bc" fill-rule="evenodd"/><path d="M176.87,506.08c-48-76.33-59.26-136.07-67-224.64,37.64-2.12,58.06-3.12,93.37-16.6,41.46-15.83,63.87-31,94.26-63.34,30.39,32.39,52.79,47.5,94.26,63.34,35.31,13.48,55.73,14.48,93.37,16.6-7.73,88.56-19,148.32-67,224.64-38.39,61-66.14,86.58-120.62,133.41C240.73,592.25,216,568.29,176.87,506.08Zm.56-.35c37.77,60,61.29,84,120.06,132.89,55.3-47.53,82.31-72.9,120.07-132.89,47.33-75.2,59-134.09,66.84-223.67-39-2.2-58.47-3.46-92.89-16.6-41.24-15.75-63.86-30.89-94-63-30.17,32.1-52.78,47.24-94,63-34.42,13.14-53.93,14.41-92.89,16.6C118.43,371.64,130.1,430.54,177.43,505.73ZM335.31,281.28a57.91,57.91,0,0,0,10.75-11.79l118.27,96.33a400.27,400.27,0,0,1-20.66,68.63Zm-29.83,12.86a57.21,57.21,0,0,0,13.91-3.48l84.87,218.18c-11.62,18.06-33.24,46.14-56.79,71ZM151.33,434.45a400.26,400.26,0,0,1-20.65-68.63l119.59-97.41a57.89,57.89,0,0,0,10.19,11.78Zm92.11,141C221.1,551.3,201,524.9,190.15,507.91l-.26-.4,85.72-217.69a57.17,57.17,0,0,0,13.22,3.92Zm7.08-321.3c16.13-9.71,30.11-21.18,47-37.73,17.44,17.11,31.8,28.8,48.65,38.72a51,51,0,0,1-95.62-1Z" transform="translate(-109.87 -201.51)" fill="#ed1c24" fill-rule="evenodd"/><circle cx="184.28" cy="297.5" r="48.77" fill="#231f20"/><circle cx="184.28" cy="297.5" r="44.75" fill="#d57741"/><path d="M334.21,478l-.23,0c-.2-.27-.17-.54-.1-1a3.68,3.68,0,0,0,.06-.84,7,7,0,0,0-1-2.9,11.1,11.1,0,0,0-2.61-2.46c-.35-.27-.71-.54-1-.82l-2-1.64a58.65,58.65,0,0,1-7.05-6.33c-.15-.17-.29-.33-.42-.49-.51-.62-.95-1.15-1.74-1.15a2.29,2.29,0,0,0-.8.16,1.32,1.32,0,0,0-.38.24.94.94,0,0,1-.22.15c-.38.14-.77.24-1.14.34a11.36,11.36,0,0,0-1.21.36l-.88.33a40.42,40.42,0,0,0-5.38,2.34c-1,.54-2,1-3,1.44l-1.86.82c-1.67.72-3.39,1.47-4.27,2.82a3.61,3.61,0,0,0-.26.51,1.7,1.7,0,0,1-.26.47,2.63,2.63,0,0,1-.77.44,3.07,3.07,0,0,0-.67.36,4.77,4.77,0,0,0-1.2,2.09,7.83,7.83,0,0,0-.14,1c0,.53-.1,1.08-.34,1.16a.68.68,0,0,1-.23,0c-.89,0-1.77-1.76-1.9-3.22a4.84,4.84,0,0,1,.16-1.53,4.16,4.16,0,0,0,.12-.77,3,3,0,0,0-.1-.68,2.24,2.24,0,0,1-.08-.54c.11-1.63,1.93-3.14,2.49-3.56a2.15,2.15,0,0,1,.35-.2,1.54,1.54,0,0,0,.92-.9l.07-.22-.22-.09a1.58,1.58,0,0,0-.59-.1,5.27,5.27,0,0,0-1.5.32l-.51.15a6.54,6.54,0,0,0-2.47,1.08,4.51,4.51,0,0,0-1.09,1.65c-.1.22-.21.44-.32.66l-.22.44c-.3.61-.59,1.19-1.17,1.4a1.16,1.16,0,0,1-.35-.69,3.23,3.23,0,0,0-.18-.52c-.1-.2-.22-.4-.34-.61a4.08,4.08,0,0,1-.73-2.15c-.09-3.19,3.21-4.28,6.4-5.34.93-.31,1.82-.6,2.61-.94l.09,0,0-.09c.26-.62-.35-1-.69-1.13l-.19-.11-.25-.17a3.15,3.15,0,0,0-.94-.5,3,3,0,0,0-.68-.06h-.48l-.48,0a5.52,5.52,0,0,1-.83-.17,3.71,3.71,0,0,0-.86-.16,5.24,5.24,0,0,0-2,.63,7.39,7.39,0,0,1-1.18.48,3.14,3.14,0,0,1-.6.08,3.38,3.38,0,0,0-.63.09,33.19,33.19,0,0,0-3.24,1.17c-.62.25-1.24.49-1.81.7a7.23,7.23,0,0,0-.9.42,5.56,5.56,0,0,1-.9.42,6.75,6.75,0,0,1-.68.17,6.35,6.35,0,0,0-.81.21c-.58.2-1.18.46-1.79.72s-1.37.58-2,.79a4.45,4.45,0,0,1-.72.14,3,3,0,0,0-2.75,2.29,3.46,3.46,0,0,0-.13.92,2.15,2.15,0,0,1-.18.94,3.51,3.51,0,0,1-1.12-2.64A5.35,5.35,0,0,1,270,462a5.5,5.5,0,0,0,.39-1.95v-.13l-.11-.07a1.4,1.4,0,0,0-.78-.23,2.93,2.93,0,0,0-.56.07,2.54,2.54,0,0,1-.49.06,2.77,2.77,0,0,1-.6-.11,4,4,0,0,0-1-.15,2,2,0,0,0-.45,0,2.15,2.15,0,0,0-1.19,1.05l-.41.58c-.18.27-.57.84-.75.84a.31.31,0,0,1-.23-.12,4.24,4.24,0,0,1-.61-2.39,5.26,5.26,0,0,1,1.91-3.26c.2-.19.39-.4.58-.61a4.44,4.44,0,0,1,.71-.7,11.44,11.44,0,0,1,2.8-.88,14.53,14.53,0,0,1,2.46-.27l1.13-.07c1.14-.1,2.26-.17,3.36-.23h.2a7.82,7.82,0,0,1,.87.07,7.52,7.52,0,0,0,.86.07h.13a49.79,49.79,0,0,0,6.45-.83l1.61-.27a14.52,14.52,0,0,0,4.41-1.7l.52-.27a8,8,0,0,1,.81-.34,7,7,0,0,0,.92-.4,13.8,13.8,0,0,0,2.92-2.38,46.76,46.76,0,0,1,4.24-3.65l1.37-1.09c.38-.31.78-.59,1.18-.87a13.65,13.65,0,0,0,1.8-1.41l.05-.05,0-.07a3.47,3.47,0,0,0-.42-1.92,6.26,6.26,0,0,1-.3-.81,7,7,0,0,1-.16-1,8.43,8.43,0,0,0-.18-1.17c-.09-.35-.2-.71-.32-1.06s-.19-.58-.26-.86c-.2-.75-.37-1.37-.59-1.94s-.32-.78-.49-1.13-.37-.8-.58-1.37a16.8,16.8,0,0,0-2.06-3.57,25.54,25.54,0,0,0-8.46-7.77,49.45,49.45,0,0,0-8-3.25,65.72,65.72,0,0,1-6.93-2.66c-.64-.3-1.29-.58-1.93-.85s-1.17-.5-1.74-.76-1.35-.69-2-1c-.47-.26-.94-.52-1.42-.76l-.81-.41a37,37,0,0,1-5.82-3.37c-1.69-1.29-3.92-3-6.2-4.47a43.71,43.71,0,0,0-6.71-3.83,25.55,25.55,0,0,0-2.42-.91,19,19,0,0,0-2.58-.39c-.56-.06-1.13-.12-1.67-.21l-1.15-.2a19.9,19.9,0,0,0-3-.4h-.4c-.78,0-1.54.05-2.27.11l-1.07.07c-.57,0-1.13,0-1.67.05a15.81,15.81,0,0,0-4.76.58,5.11,5.11,0,0,0-1,.5c-.19.12-.39.23-.59.33-.51.25-1,.45-1.48.66s-1.15.48-1.81.82a5.81,5.81,0,0,0-.6.38,2.33,2.33,0,0,1-.77.41h-.12a1,1,0,0,1-.58-.22,1.5,1.5,0,0,0-.81-.3h-.14l-.08.11c-.58.82-.25,1.88,0,2.81a6.38,6.38,0,0,1,.29,1.15,3.74,3.74,0,0,1-2.18-1.29c-1.5-1.42-2.92-2.95-3.14-5.47a10.56,10.56,0,0,1,.57-4,3.75,3.75,0,0,1,.16-.44,2.33,2.33,0,0,0,.23-.89,3.58,3.58,0,0,0-.25-1,4.06,4.06,0,0,1-.26-1.07,8.81,8.81,0,0,1,.08-1.49,8,8,0,0,0,.08-1.37v-.2l-.2,0h-.17a2,2,0,0,0-1.32.69c-.11.1-.22.2-.33.28a33,33,0,0,1-4.9,3.17c-.3.15-.62.29-.94.42s-.64.27-1,.42a40.92,40.92,0,0,1-3.87,1.6c-.3.11-.6.25-.91.41a5.53,5.53,0,0,1-2.5.74h-.24a1.56,1.56,0,0,1-.72-.33,2,2,0,0,0-1-.43h0a4.42,4.42,0,0,0-1.58.5l-.69.29a65.38,65.38,0,0,1-11.77,2.86c-.45.08-1,.15-1.6.23l-1,.14-.51.08a9.3,9.3,0,0,1-1.3.14,1,1,0,0,1-.74-.21.92.92,0,0,1-.16-.69v-.25l-.25,0h-.25a7.37,7.37,0,0,0-2.23.48c-.34.11-.67.22-1,.31-2.6.66-4.85,1.19-7.08,1.65-.24,0-.49.12-.75.2a4.94,4.94,0,0,1-1.32.27,1.2,1.2,0,0,1-.9-.35c0-.12,0-.22.34-.49a1.36,1.36,0,0,0,.51-.66l.06-.24-.24-.06a2.06,2.06,0,0,0-.54-.06,7.53,7.53,0,0,0-1.32.17l-.21,0a35.79,35.79,0,0,1-6.35.78,13.62,13.62,0,0,1-1.87-.12,6.74,6.74,0,0,1-1-.27c-.26-.08-.52-.16-.77-.22l-.43-.09c-.41-.08-.92-.17-.95-.39s.72-.64,1.32-.88,1.45-.58,1.56-1.11l0-.12-.08-.09a1.63,1.63,0,0,0-1.31-.45h-.51a2.33,2.33,0,0,1-.4,0,9.31,9.31,0,0,1-1.53-.47l-.71-.25-.35-.1c-.51-.15-1.08-.31-1.28-.68a2.73,2.73,0,0,1,1.31-.22,5.47,5.47,0,0,0,.9-.06,16.32,16.32,0,0,0,3.94-1.45c.39-.19.77-.37,1.14-.52l.21-.09-.07-.22a1.07,1.07,0,0,0-1.14-.68h-.88a15.22,15.22,0,0,1-2.15-.54l-.27-.08-.43-.12c-.69-.17-1.19-.33-1.32-.72.13-.17.35-.19.71-.21a3.85,3.85,0,0,0,.46,0l1.09-.2.41-.08.65-.11a6.28,6.28,0,0,0,2.24-.65l.1-.07v-.12c.05-.53-.43-.72-.72-.83l-.17-.07a5.87,5.87,0,0,0-.7-.28c-.63-.22-1.28-.44-1.47-1a3.61,3.61,0,0,1,1.19-.63l1-.39c.41-.16.81-.32,1.2-.5a22.19,22.19,0,0,1,2.23-.87c.49-.17,1-.34,1.48-.54a25,25,0,0,0,2.38-1.15l.4-.21c1.27-.66,2.55-1.41,3.8-2.13s2.66-1.55,4-2.24,2.92-1.48,4.37-2.2c2.12-1.05,4.32-2.14,6.38-3.27.78-.43,1.55-.88,2.31-1.33.92-.54,1.87-1.11,2.82-1.6s2.13-1.18,3.15-1.79c.66-.39,1.32-.78,2-1.16a59.66,59.66,0,0,1,11.55-4.71,58.86,58.86,0,0,1,13.82-2.74c1.08-.08,2.23-.11,3.52-.11,1.87,0,3.73.08,5.54.15l2,.08H229a15.22,15.22,0,0,1,2,.09l1.5.22c.6.09,1.21.19,1.83.26a30.9,30.9,0,0,1,3.13.58c1.89.44,3.87.94,6.06,1.53,2,.53,4.13,1.17,6.22,1.79l2.68.79c.23.07.47.11.73.16a8.16,8.16,0,0,1,.81.18c.2.06.38.13.56.2a2.71,2.71,0,0,0,.93.24,4.71,4.71,0,0,0,1.54-.47c.27-.11.55-.23.83-.33s.77-.25,1.16-.35.76-.22,1.11-.34c.5-.18,1-.37,1.5-.57a24,24,0,0,1,2.82-1c.77-.19,1.54-.34,2.31-.49s1.74-.34,2.6-.56a31.49,31.49,0,0,1,3.41-.62,29.15,29.15,0,0,0,3.54-.66,4.86,4.86,0,0,0,.73-.3,4.23,4.23,0,0,1,.57-.24,4.32,4.32,0,0,1,.63-.11,4.92,4.92,0,0,0,.87-.17,16.38,16.38,0,0,0,8.41-6.56,11.54,11.54,0,0,0,.8-1.61l.1-.25a4.22,4.22,0,0,0,.44-2.59,4.42,4.42,0,0,0-.31-1,2.84,2.84,0,0,1-.14-.36c-1.78-7.34,2.91-10.75,4.39-11.61A27.55,27.55,0,0,1,303,327.84a82.27,82.27,0,0,1,10.11-.56l2.55,0h4.72c1.23,0,2.17,0,3,.09a148.34,148.34,0,0,1,18.21,2.37c1.83.37,3.65.79,5.41,1.2l3.08.7c.65.14,1.3.26,2,.38s1.6.29,2.38.48c4,1,8,2.12,12.15,3.5l3.92,1.33c3.63,1.25,7.44,2.74,11.33,4.45,1.83.8,3.6,1.69,5.32,2.54l1.77.88,3,1.48c1.37.68,2.74,1.36,4.12,2,3.51,1.7,7,3.54,10.43,5.33l3.6,1.88c1.6.83,3.27,1.57,4.88,2.29l2.3,1,2,.93c1.71.8,3.48,1.63,5.26,2.39.9.38,1.8.74,2.71,1.1,1.56.62,3.17,1.26,4.71,2,.78.38,1.62.7,2.44,1l1.33.52c.89.37,1.83.66,2.73.94l1.21.39.65.22c1.08.37,2.2.75,3.38,1a22,22,0,0,1,3.87,1.22l.06,0h.07l.32,0a2.12,2.12,0,0,1,.86.2,5.46,5.46,0,0,0,.62.21c.24.06.48.11.71.15.5.09,1,.18,1,.42.11.47-1.27,1.48-2,1.83a12.27,12.27,0,0,1-2.29.77,4.84,4.84,0,0,1-.83.06,4.44,4.44,0,0,1-1-.1l-.15,0-.37.42a4.43,4.43,0,0,1-4,2h-.21a2.91,2.91,0,0,1-.53-.08,3.35,3.35,0,0,0-.7-.1l-.25,0a1.81,1.81,0,0,0-.89.54,4.3,4.3,0,0,1-.48.39A7.94,7.94,0,0,1,434.7,379h-.17l-.36,0-.4,0a1.52,1.52,0,0,0-.34,0,3.67,3.67,0,0,0-1.46.89,3.47,3.47,0,0,1-2.27,1.08,3.19,3.19,0,0,1-.84-.12l-.1,0-.09.05a1.37,1.37,0,0,0-.59,1.06,1.45,1.45,0,0,1-.18.57,1.16,1.16,0,0,1-.57.38,1.94,1.94,0,0,0-.77.49l-.06.07v.1c0,1.43,0,2.19-.91,2.7l-.21.12a3.77,3.77,0,0,1-.51.27,4.38,4.38,0,0,1-1.11.13,4.57,4.57,0,0,0-1.56.24,1.94,1.94,0,0,0-.79.64,1.49,1.49,0,0,1-.49.44,9.29,9.29,0,0,1-1.53.47l-.35.09a23.39,23.39,0,0,1-5.7.64,25,25,0,0,1-2.72-.14l-.79-.07c-.43,0-.88-.07-1.26-.14a10.7,10.7,0,0,1-1.19-.32,11.73,11.73,0,0,0-1.81-.45A12.32,12.32,0,0,0,404,388l-.34,0a2.82,2.82,0,0,0-1.09.49,2.64,2.64,0,0,1-.67.35,2.59,2.59,0,0,1-.55,0,5.19,5.19,0,0,0-.57,0,9.06,9.06,0,0,1-1.16.08,14.77,14.77,0,0,1-2.73-.34l-.7-.13c-.53-.09-1.07-.14-1.59-.19a12.71,12.71,0,0,1-1.89-.27c-.25-.06-.49-.15-.72-.23a7.45,7.45,0,0,0-1.67-.42,4.57,4.57,0,0,0-.55,0,12.26,12.26,0,0,0-1.23.08,13,13,0,0,1-1.31.09H387a4.28,4.28,0,0,1-.86-.16,5.69,5.69,0,0,0-.84-.17l-.77-.06c-.34,0-.67,0-1-.09l-.71-.1a104.65,104.65,0,0,1-10.71-1.86,4,4,0,0,0-.67-.09,3,3,0,0,1-.58-.08,2.23,2.23,0,0,1-.46-.23,2.05,2.05,0,0,0-.77-.32,5.68,5.68,0,0,0-.71,0c-.5,0-1,0-1.53.09l-1,.08c-.46,0-.92.09-1.39.15a12.28,12.28,0,0,1-1.63.15,6.55,6.55,0,0,1-1-.11,9.08,9.08,0,0,0-.92-.12h-.37c-.3,0-.6,0-.9,0s-.58,0-.87,0a5.41,5.41,0,0,1-.94-.12,5.39,5.39,0,0,0-.93-.12,1.84,1.84,0,0,0-.34,0,2.24,2.24,0,0,0-.9.48,2.15,2.15,0,0,1-.82.44,10.74,10.74,0,0,1-1.71.14c-.42,0-.83,0-1.19.06-.73.07-1.47.12-2.17.16l-.66,0h-.24a9.3,9.3,0,0,1-1.14-.1,9.46,9.46,0,0,0-1.18-.1,3.44,3.44,0,0,0-.69.06c-.52.11-3.06,1.67-3.07,2.49,0,.47.6.89,1.25,1.33l.29.2c1.4,1,2.95,2.2,4.6,3.58,1,.84,2,1.64,3,2.42s2.07,1.61,3,2.41l1.05.9a49.27,49.27,0,0,0,5,3.95c.55.36,1.13.73,1.69,1l.4.23a42.9,42.9,0,0,0,4.89,2.53c.86.36,1.71.72,2.53,1.08,1.75.76,3.39,1.48,5.09,2a50.75,50.75,0,0,0,5.6,1.37c1,.2,2,.4,2.93.63a71.88,71.88,0,0,1,14.06,4.43l.51.23c1,.43,1.77.77,1.83,2a2,2,0,0,1-.41,1.15l-.16.27c-.07.13-.16.26-.25.39a2.11,2.11,0,0,0-.49,1.13,1.29,1.29,0,0,0,.56.93,2.06,2.06,0,0,1,.37.39,2.51,2.51,0,0,1,.42,1.42c-.06,1.17-1.11,1.71-2.22,2.28-.31.16-.63.33-.92.5l-.1.06,0,.12c0,.19-.05.38-.08.56a3,3,0,0,1-.58,1.77,2.45,2.45,0,0,1-2,.66,14.51,14.51,0,0,1-1.88-.17h-.09l-.17,0a1.65,1.65,0,0,0-.51,1,2.29,2.29,0,0,1-.11.38,5.66,5.66,0,0,1-3.93,2.4h-.18a2.11,2.11,0,0,1-.76-.38,2.2,2.2,0,0,0-1.1-.47h-.12c-.37.05-.7.5-1,1a4,4,0,0,1-.41.51,7,7,0,0,1-3,1.49,1.61,1.61,0,0,1-.31,0l-.47,0-.58,0a2.63,2.63,0,0,0-.71.08,2.78,2.78,0,0,0-1.31,1.21,3.85,3.85,0,0,1-.45.57,4,4,0,0,1-2.7,1.31h-.14a2.88,2.88,0,0,1-1-.31,3,3,0,0,0-1.18-.34H373a2.2,2.2,0,0,0-1,.51,3.57,3.57,0,0,1-.67.42,5.6,5.6,0,0,1-2.13.44,3.22,3.22,0,0,1-1.82-.47l-.11-.08-.12,0a7.71,7.71,0,0,1-2.72.64,4.72,4.72,0,0,1-1-.11,2.79,2.79,0,0,1-.79-.37,2.28,2.28,0,0,0-1-.4h0a2,2,0,0,0-.89.21,2.21,2.21,0,0,1-.39.15,7.68,7.68,0,0,1-1.7.2,4.85,4.85,0,0,1-1.54-.22,3.05,3.05,0,0,1-.78-.53,2.27,2.27,0,0,0-1-.61h0a1.46,1.46,0,0,0-.69.19,1.75,1.75,0,0,1-.41.16,5,5,0,0,1-1,.09,3.89,3.89,0,0,1-1.47-.25,2,2,0,0,1-.49-.37,5.58,5.58,0,0,0-.5-.42c-.32-.23-.69-.46-1.07-.7a8.3,8.3,0,0,1-2.25-1.77,9.55,9.55,0,0,1-1.23-2.65c-.11-.3-.21-.61-.33-.92a58.43,58.43,0,0,0-3.19-7.29c-.2-.36-.38-.73-.56-1.1a15.24,15.24,0,0,0-1.3-2.28,13,13,0,0,0-5.84-4.4c-.66-.27-1.25-.52-1.81-.76a37.15,37.15,0,0,0-3.51-1.37,6,6,0,0,0-1.72-.37,1.22,1.22,0,0,0-1.33,1.12,6.21,6.21,0,0,0,.85,3,10.36,10.36,0,0,0,.77,1.25c.22.32.44.64.64,1,.79,1.37,1.71,2.66,2.59,3.9l.5.71a15,15,0,0,0,1,1.22,13.24,13.24,0,0,1,.86,1.05,9.78,9.78,0,0,1,1.19,2.15,3.12,3.12,0,0,1,.1.68,1.69,1.69,0,0,0,.08.49,3.61,3.61,0,0,0,.88,1.14c.15.15.29.3.43.45l.44.5.82.93c.3.33.6.65.89,1a11.17,11.17,0,0,1,3,4.38c-.06.1-.19.16-.39.24a1.08,1.08,0,0,0-.68.55l0,.12.07.11c.51.75,1,1.61,1.56,2.53.37.63.75,1.27,1.15,1.9l.12.19c.29.45.64,1,.56,1.36a.49.49,0,0,1-.26.3.78.78,0,0,1-.41.1,5.22,5.22,0,0,1-1.9-.67,4.55,4.55,0,0,0-1.68-.6h-.22l-.09.22a1.91,1.91,0,0,0,.44,1.27,1.65,1.65,0,0,1,.4,1.22.86.86,0,0,1-.44.11,3.49,3.49,0,0,1-1.36-.46,6.31,6.31,0,0,0-.79-.34l-.16-.05-.11.13c-.32.39-.09.82.1,1.16s.31.61.16.83l-.12,0a.91.91,0,0,1-.49-.29,2.88,2.88,0,0,0-.28-.22c0-.08,0-.11.12-.19a.7.7,0,0,0,.27-.7v-.07l0-.05a6.67,6.67,0,0,1-.65-1,3.86,3.86,0,0,0-1.49-1.74l-.14-.07-.12.09a.88.88,0,0,0-.29.71,1.14,1.14,0,0,1,0,.17c0,.08,0,.15-.06.21a1.28,1.28,0,0,0-.07.6,1.65,1.65,0,0,0,.76,1,1.61,1.61,0,0,1,.52.54,1,1,0,0,1,0,.31,1.75,1.75,0,0,0,0,.51,4.46,4.46,0,0,0,.15.65,3.36,3.36,0,0,1,.17,1.32c0,.12-.22.21-.5.33a2,2,0,0,0-.52.29l-.06.05,0,.08a2.49,2.49,0,0,0,0,.66c0,.51,0,.83-.26,1a.71.71,0,0,1-.33.06,4.19,4.19,0,0,1-1.34-.3,3.81,3.81,0,0,1-.81-.5,2.46,2.46,0,0,0-1.44-.63,1.94,1.94,0,0,0-1,.28,1.77,1.77,0,0,0-.71.81c-.13.25-.2.37-.37.4l-.26,0c-.22,0-.3-.08-.46-.26a2.14,2.14,0,0,0-.68-.53l-.06,0h-.32a2.39,2.39,0,0,1-1.49-.54l-.09-.07-.11,0a1,1,0,0,0-.68.56c-.09.16-.12.21-.28.22s-.61-.54-.74-.72A2.15,2.15,0,0,1,323,452c-.15-.3-.35-.72-.81-.72h-.08l-.06,0a1,1,0,0,0-.31,1.09,2.22,2.22,0,0,1,0,.36,4,4,0,0,1-.05.4,2.65,2.65,0,0,0,0,.91,11.79,11.79,0,0,0,1.09,2.59,10.27,10.27,0,0,0,1.3,1.76l.2.23a44,44,0,0,0,3.72,3.72c1.08,1,2.19,2,3.17,3.11s2,2.42,3,3.78a9,9,0,0,0,.7.8,4.93,4.93,0,0,1,.92,1.18,1.83,1.83,0,0,1,.1.42,3.18,3.18,0,0,0,.14.61,4.25,4.25,0,0,0,.41.75,3.14,3.14,0,0,1,.4.77,2.89,2.89,0,0,1-1.31,3.65l-.16.1A2.3,2.3,0,0,1,334.21,478Z" transform="translate(-109.87 -201.51)" fill="#fff"/><path d="M327.1,484.73c-5.74,5.74-8.77-3.17-11.38-.56-.93.93-3,5.22-3.92,6.16-2.47,2.47-9.61,5.32-13.43,1.49-1.54-1.54-2.75-4.71-1.12-6.34a2.88,2.88,0,0,1,2-.88c4.37,4,6.43,5.87,10.3,2s0-9,2.24-11.19c.93-.93,1.12-.37,1.93-.9,1.51,2.12,3.29,5.37,4.23,6.31,2.57,2.57,6.34,0,9-2.57a4.19,4.19,0,0,0,1.65.55C328.37,481.11,328,483.8,327.1,484.73Z" transform="translate(-109.87 -201.51)" fill="#231f20" fill-rule="evenodd"/><path d="M267,471.74c8.11,0,4,8.44,7.65,8.44,1.32,0,5.8-1.58,7.12-1.58,3.5,0,10.55,3,10.55,8.44,0,2.18-1.39,5.28-3.69,5.28a2.88,2.88,0,0,1-2-.8c-.26-5.91-.4-8.7-5.87-8.7s-6.33,6.33-9.5,6.33c-1.32,0-1.06-.53-2-.73.43-2.56,1.47-6.13,1.47-7.45,0-3.63-4.49-4.49-8.19-4.56a4.18,4.18,0,0,0-.78-1.56C263.57,473.41,265.71,471.74,267,471.74Z" transform="translate(-109.87 -201.51)" fill="#231f20" fill-rule="evenodd"/><polygon points="161.92 296.87 148.34 312.97 143.95 310.62 146 288.37 150.36 290.7 148.71 305.65 157.66 294.59 161.92 296.87" fill="#231f20" fill-rule="evenodd"/><path d="M265.72,518.09l9.66-19.4,5,1.11L283,521.93l-4.69-1-.41-4.45-5.75-1.28-1.84,3.95Zm11.79-5.68-.7-7.31-3,6.47Z" transform="translate(-109.87 -201.51)" fill="#231f20" fill-rule="evenodd"/><polygon points="188.58 320.11 176.25 320.35 175.92 299.2 180.57 299.11 180.84 316.21 188.51 316.06 188.58 320.11" fill="#231f20" fill-rule="evenodd"/><path d="M309.06,520.12a7.36,7.36,0,0,1-6-.65q-2.34-1.54-3.06-5.41l-2.45-13.21,4.55-1.11,2.4,12.9a5.66,5.66,0,0,0,1.3,3,2.51,2.51,0,0,0,2.5.49,2.89,2.89,0,0,0,2.11-1.57,5.9,5.9,0,0,0,.13-3.43l-2.4-12.9,4.55-1.11,2.45,13.2a8.78,8.78,0,0,1-.82,6.34A8.05,8.05,0,0,1,309.06,520.12Z" transform="translate(-109.87 -201.51)" fill="#231f20" fill-rule="evenodd"/><path d="M337.19,507.12l-5.1,2.85-7.6-4.4-1.48.83,3,7-4.16,2.32-8.1-19,6.69-3.73a15.23,15.23,0,0,1,2.5-1.15,5,5,0,0,1,2.25-.24,4.46,4.46,0,0,1,2.12.86,5.34,5.34,0,0,1,1.61,2.25,7.37,7.37,0,0,1,.65,4,8.27,8.27,0,0,1-1.38,3.45Zm-12.35-9.46a2.86,2.86,0,0,0-.76-1.1,1.6,1.6,0,0,0-1.14-.36,2.84,2.84,0,0,0-1,.24q-.5.22-1.21.61l-1.39.78,2.18,5.13,1.19-.66a9.48,9.48,0,0,0,1.42-.94,2.72,2.72,0,0,0,.81-1.09,2.79,2.79,0,0,0,.23-1.19A4,4,0,0,0,324.84,497.66Z" transform="translate(-109.87 -201.51)" fill="#231f20" fill-rule="evenodd"/><path d="M335,475.25c.11.65-.06,1.52.47,1.66.94-.49,1.27-3.36.08-3.92C334.51,473.35,334.8,474.3,335,475.25ZM331.81,471c0,.46.64.76.87,1s.58.92,1,.91a1.44,1.44,0,0,0,1.07-1.23c0-.26-.22-.51-.5-.85a2.54,2.54,0,0,0-1.68-1C332.33,470.33,331.75,470.34,331.81,471Zm0-2.85a4,4,0,0,0-1.2-.63,1.21,1.21,0,0,0-1.43,1.26,3.67,3.67,0,0,0,1.81,1.65c.68,0,.82-.91,1.64-.74,0-.34.16-.47.22-.73A4.19,4.19,0,0,0,331.79,468.17Zm-37.13,5c.05-.31.11-.64.2-1,.17-.64.63-1.36.48-2a.86.86,0,0,0-.85-.74c-.8.1-.92,2.25-.75,3.35.09.55.24,1.3.62,1.29S294.61,473.44,294.66,473.17Zm-.14-5.87c-.25.2-.54.52-.29.91a4.75,4.75,0,0,1,2.74,1c.46-.32,1-.79.79-1.48C296.88,467.17,295.44,467.6,294.52,467.31Zm32.71-2a1.74,1.74,0,0,0,1.17,2.77,12.83,12.83,0,0,1,1.11-.7c.39-.21.93-.28,1.11-.7-.42-.66-1-1.94-2.44-1.79,0-.19-.09-.28-.28-.25C328,465.09,327.41,465,327.22,465.29Zm-31,.3c-.28.31-.79.43-.82.95.75.48,2.07.3,2.65,1a1.65,1.65,0,0,0,1.51-1.26C298.82,465.16,297.61,465.54,296.18,465.59Zm5.57-.57a1.46,1.46,0,0,0-1.17-1.43c-.12,0-.41.17-.7.23-.86.16-1.36.11-1.65.56.15.6.83.58,1.14,1C299.71,466.84,301.67,465.82,301.74,465Zm-12.38,1.22c.28-.57.75-1,.69-1.65-.09-1-1-1.46-1.67-1s-.75,3.36.1,4C289.07,467.5,289.12,466.75,289.37,466.24Zm12.47-2.47c.24.42.31,1,.88,1.1a2.62,2.62,0,0,0,1.78-1.28c.05-1.26-2.46-1.89-3.16-.67C301.32,463.27,301.66,463.46,301.84,463.77Zm24.67-1.1,0-.35c-1-.76-2.43-2.69-3.81-1.07a1.74,1.74,0,0,0,.91,2.79c.54-.36,1.22-1.4,2.07-.95-.48.59-1.36.91-1.21,1.78.1.59.84,1,1.42,1.24a3.41,3.41,0,0,1,2.37-1.77A3.18,3.18,0,0,0,326.51,462.66Zm-36-.42c-.09.62.88,1,1.17,1.43a1.43,1.43,0,0,0,1-.69C292.59,462.05,290.67,461.16,290.51,462.24ZM320.33,461a1.39,1.39,0,0,0,1,.82c.45-.33.69-.82,1.17-1.15s.95-.26,1-.78C322.76,458.16,319.93,459.31,320.33,461Zm-28,.53c.62.27.76,1.54,1.52,1.41,1-.17.22-1.61-.41-2C292.84,460.88,292.29,460.93,292.33,461.49Zm15.17.45c-.53-.36-.72-1.14-1.5-1.14-.23,0-.53.23-.78.32-.46.17-1.07.16-1.2.62.64.45.61,1.69,1.46,1.77a3.54,3.54,0,0,0,.87-.33,2.35,2.35,0,0,0,1.34-1.25c.79.76,2.78-.37,3.23-.85a2.65,2.65,0,0,0-1.61-1.4,7.45,7.45,0,0,0-1,.07c-.8,0-1.15-.24-1.4.36C307.07,460.69,307.89,461.38,307.49,461.95Zm-12.63.17a.94.94,0,0,0,1.41-.28c0-1.07-1.19-2.3-1.86-1.21A7.17,7.17,0,0,1,294.87,462.12Zm2.84-2.6c-1.65-.37-1.34,1.56-.47,2.26.75-.07,1.42-.2,1.54-.82C298.37,460.43,298.31,459.65,297.71,459.52Zm-26.19,3.61c.68-.71,1.67-1,.67-1.92a3,3,0,0,0-1.07,0,2.7,2.7,0,0,0-.83,2.11c0,.35-.1,1.05.35,1.13C271,464.19,271,463.64,271.52,463.13Zm47.13-4.63c.23.59.34,1.23.8,1.28s.67-.47,1.1-.79.74-.3.85-.59C321.16,456.81,319,457.51,318.65,458.5Zm-19,2.67a3.09,3.09,0,0,0,1.48-.46c0-.07,0-.18.08-.18,0-1.46-1.6-2.67-2.5-1.34C298.91,459.92,299,460.8,299.61,461.16Zm1.59-2.69c0,.23.22.56.33.87s.1,1,.44,1.13c.83-.16,1.82-.19,2-.94C303.83,458.33,301.46,457,301.2,458.47ZM298.44,456c0-.37-.86-.87-1.39-.79a2.4,2.4,0,0,0-1.4,1.61c.06.44.61.64,1.22.89C297.15,457.27,298.5,456.55,298.44,456Zm-23,1.07c-.32.09-.39-.12-.71,0-1.4.76-3.2,1.15-3.45,2.91.6.27,1.46.1,2.27.64.41.27.48.73.94.74a.79.79,0,0,0,.84-.77c0-.84-.88-1-1.1-1.79,1.35-.09,1.47,1.25,2.34,1.71.38-.05.48-.36.67-.58a5.48,5.48,0,0,0-.56-1.65c-.23-.33-.69-.4-.77-.84a1.48,1.48,0,0,1,1.47.61c.56.66.51,1.81,1.27,1.6.21-.06.22-.28.41-.47a7.25,7.25,0,0,0-.74-1.73c-.27-.35-.79-.48-1-.91A1.86,1.86,0,0,0,275.46,457.06Zm-10.06,2.48a13.38,13.38,0,0,0,1.36-1c0-.69,0-1.55-.4-1.84-1.31-.94-3.56,3.4-2.13,4C264.74,460.44,265,459.9,265.4,459.55ZM319,455c-.12-.57-.87-.79-1.52-1.32-.36-.29-.65-1-1.13-.9-1,.12-.28,1.4.13,1.86s1.69.87,1.71,1.57c-1.47.09-2.32-1.35-3.35-2.08a1.18,1.18,0,0,0-.76.59c0,.5.61.76.89,1.27s.75,1.76.33,2.2c-.52-.38-.59-1.17-.92-1.72s-.8-1.17-1.42-1.24c-.9-.1-1.53.63-2.62.72,0,.54-.19.54-.57.75-.91.52-1-.28-1.89-.31a1.27,1.27,0,0,0-1.37.81c-.15.22.29,1-.29,1-.45-.15-.47-.8-.87-1-.54.08-1.31,0-1.39.45a6.1,6.1,0,0,0,.76,2,3.41,3.41,0,0,0,1.23-.26,10.38,10.38,0,0,1,1.91-.67,6.22,6.22,0,0,1,1.63.42,3.26,3.26,0,0,1,1.39.79c.3.32.33.91.87,1a2,2,0,0,0,1.63-.83,4.2,4.2,0,0,0-1.61-2.65c-.38-.26-.94-.21-1.12-.72a2.65,2.65,0,0,1,2.8,1.85c.23.54.15,1.32.82,1.55a14,14,0,0,0,1.82-.75,5.68,5.68,0,0,0,1-.25c.45-.26.74-.87,1.16-1.24s1-.57,1.44-1.08C319.42,456.17,318.79,456,319,455Zm-39.74.73c-.42.13-1,0-1.22.44.1.47.65.56,1.06,1.17s.59,1.58,1.18,1.61a1.2,1.2,0,0,0,.85-.59c0-.72-.43-1-.64-1.47-.26-.18-.68-.17-.67-.67,1.32-.3,1.62,1.38,2.45,2a1.15,1.15,0,0,0,.94-.6,3.08,3.08,0,0,0-.45-1.3c-.34-.42-1.08-.43-1.23-1.07C280.76,455,280,455.51,279.28,455.73ZM268,457.32c.06.47,0,1.14.43,1.13,1.07-.22.3-2.64-.23-3.28C265.91,454.9,267.45,456.7,268,457.32Zm50.76-3.55a1,1,0,0,0,.29-1c-.11-.56-1.4-1.42-1.88-1.47C316.85,452.31,318,453.47,318.76,453.77Zm-43,.78c.19.1.36.22.56.32a1.52,1.52,0,0,1,.24-.37C276.5,454,275.64,453.94,275.73,454.55Zm-2.15-.21c0,.67.21,1.1.62,1.29C275.64,455.51,274.57,453.48,273.58,454.35Zm-1.25,0A3.75,3.75,0,0,0,269,455c.35.91.54,2,.91,2.87,1.65,0,.31-2,1.16-2.48.65,0,.47,1,1,1.18a1.59,1.59,0,0,0,.93-.69C272.92,455.2,272.8,454.62,272.33,454.35ZM318.59,450c-.18-.45-.19-1.1-.7-1.11-1.05.67.06,2.29,1,2.42C319.18,450.95,318.75,450.39,318.59,450Zm-21.75.81c-.55-.35-.79-1-1.23-1a.76.76,0,0,0-.67.67c-.06.49.61.52.33,1a2.54,2.54,0,0,0-2.56.27c-.28.29.12.66-.3.82-.4,0-.62-.42-1-.46-.73-.08-1.76.46-2.8.64-.34.06-.77,0-1.06.07a9.36,9.36,0,0,0-.94.51c-1.09.44-2.37.55-3,1.1-.66.09-1.45.07-1.46.73.54.36.85.25,1.3.8s.47,1.37,1,1.44a.79.79,0,0,0,.93-.69c.09-.9-1.24-1.17-1.29-1.87,1.22-.66,1.65,1.68,2.53,1.78a1.05,1.05,0,0,0,1.1-.79c-.15-.85-1-.86-1.19-1.7,1.35,0,1.55,1.28,2.36,1.88.71-.23,1.3-.22,1.37-.81s-1.11-1-.65-1.65c1.6-.1,1.07,2.51,2.64,2.13.45-.11.67-.9,1.06-1.32a2.56,2.56,0,0,1,2.43-.88l0,.44c-1.06-.14-2.51,1.21-2.36,1.95.09.44.62.68,1.38.62a11,11,0,0,1,2.17-2.11c-.59-1.53,1-1.73.94-3.09C297.66,450.89,297.28,451,296.83,450.76Zm2.24-1c-.79-.29-1.4-1.37-1.88-1.38a.7.7,0,0,0-.75.76c0,.26,1,1.75,1.64,1.84.44.06.7-.16,1-.34s.81,0,.77-.41l0-.27C299.58,449.66,299.39,449.83,299.07,449.72Zm29.73-1.37a15.73,15.73,0,0,0,3.82,3.65c0-1.79-1.49-2.75-2.24-4-1.33-.17-1.69-1.43-2.8-1.85A4,4,0,0,0,328.8,448.35Zm-16-1.73a42.13,42.13,0,0,0-6.44,2.05,14.45,14.45,0,0,0-1.48.55c-1.25.67-2.5,1.66-3.76,2.22s-2.83,1-2.61,2.14c.18.94,2,1,2.95,1.4s1.8,1.42,2.59,1.42a7.23,7.23,0,0,0,2.25-1,21.11,21.11,0,0,1,2.34-.88c1.7-.55,3.59-.77,4.78-1.67s2-3,2.25-4.79C315,447.54,314.06,446.36,312.83,446.62Zm22.9-2.22c.92.91,2,2.09,3.27,2.26-.79-2-2.65-2.7-4.1-3.9,0-.07-.08-.1-.18-.08C334.52,443.36,335.21,443.88,335.73,444.39Zm2.4-1.32a17.62,17.62,0,0,0,2.6,1.51c.45.22.94.7,1.45.43a3.44,3.44,0,0,0-1.14-2.32c-1.48.89-2.63-.44-4-.61C337.15,442.6,337.75,442.8,338.13,443.07Zm-9.45-.14c.69.92,1.16,2.19,1.91,3.16a6.54,6.54,0,0,0,2.74,2.21c.12-.91-.7-1.44-1-2.06a6.85,6.85,0,0,0-.32-.78,6,6,0,0,0-.86-.83c-1.17-1-2.27-2.21-3.25-3.24a4.39,4.39,0,0,0-.67-.67c-.11,0-.13-.1-.27-.07C327.07,441.93,328.1,442.14,328.69,442.93Zm-20.3,1.24c-.28-.47-.61-1.2-.93-1.8s-.6-1.54-1.17-1.52c-.41,0-.71.57-.74.85a3.32,3.32,0,0,0,.36,1.4,19.38,19.38,0,0,0,1.86,2.45,3,3,0,0,1-1.59-1c-.65-.73-1-1.7-1.6-2.47-.65.25-1.79,1.13-1.84,1.73a3.3,3.3,0,0,0,1.4,2.13c.34.24.89.2.94.65a3.19,3.19,0,0,1-2.4-1.26c-.32-.37-.54-1-1-1a2.6,2.6,0,0,0-.94.6c-1.37,1.28.51,2.57,1.3,3.29a2.16,2.16,0,0,1-1.56-.6c-.45-.35-.83-1.16-1.33-1.15s-1.16.9-1.16,1.24a2.82,2.82,0,0,0,1.09,1.53c.22.15.65.09.82.21s0,.4.29.34a3.94,3.94,0,0,0,2.35-.7c0-.23-.09-.52.14-.54,1.3-.09,1.87-.81,2.86-1.18.17-.07-.06-.49.14-.54a6,6,0,0,0,2-.41c.21-.18.12-.62.49-.66s.58.13.89-.06C309.21,445.13,308.64,444.6,308.39,444.17Zm6.24-2.4c-1.5-.29-2.47-1.43-3.62-2.15a7,7,0,0,0-2.83-1c0-.11-.1,0-.18,0s-.1.08-.08.18c.39,1.27,1.39,1.79,2.32,2.6a5.82,5.82,0,0,0,1.87,1.29c.78.22,1.36-.23,2.13-.15-.1,1.28,1.24,1.35,1.22,2.23-1.45.15-2.13-1.87-4-1.23a3.23,3.23,0,0,0,1.07,1.35,7.69,7.69,0,0,0,3.42,1.81c1.17-1,.57-3.24.11-4.81C315.58,441.66,315.08,441.86,314.63,441.77Zm10.49,7.46a21.16,21.16,0,0,0-2.31-5.09,45,45,0,0,0-3-4.33,9.51,9.51,0,0,0-1.07-1.35,3.91,3.91,0,0,0-1.83-.67c.1.62.58.94.73,1.55.24,1,.13,2.17.4,3.18a5.86,5.86,0,0,0,.7,1.11c.73,1.17,1.66,2.41,2.2,3.5s.95,1.94,1.44,2.84c.18.32.33.71.52,1s.37.76.76.75c0-1.12-.71-2.05-1.19-3-.88-1.8-1.66-3.55-2.58-5.07-.36-.6-1.14-1.28-.86-2.08,1.3.13,1.64,1.53,2.22,2.43a11.64,11.64,0,0,1,.9,1.45c.45,1,.88,1.95,1.26,2.76a23,23,0,0,0,1.13,2.15c.19.32.33.82.77.84C325.72,450.55,325.3,449.82,325.12,449.23ZM319,434.7c.25,1.34,1.3,1.76,1.55,3.1-.3.28-.9-.18-.86.42s.75.92,1.07,1.35c.29.21.4-.24.71,0,2.26,2.55,3.49,6.17,5.28,9.25a11.86,11.86,0,0,0,1,1.44c.31.4.57,1.19,1.32,1.06.37-.63-.29-1.11-.55-1.56-.94-1.64-1.62-3.22-2.56-4.81-.62-1-1.08-2.19-1.65-3.27-.29-.54-.63-1-.91-1.54s-.46-1.17-.74-1.73a22.18,22.18,0,0,1-1.31-2.22c-.23-.63-.06-1.38-.66-1.82C320.08,434.39,319.24,434.27,319,434.7Zm-7.1,2.9a16.12,16.12,0,0,0-5.75-3.25c0-.11-.1,0-.18,0s-.1.08-.17.1a3.45,3.45,0,0,0,1.62,2.74,5.8,5.8,0,0,0,3.19,1.11c.45-.07.71-.67,1.22-.35,0,.39-.21.54-.11,1a17.75,17.75,0,0,0,1.7,1.39,2.35,2.35,0,0,0,2.17.47A4.64,4.64,0,0,0,311.93,437.6Zm19.56,4.77c-1.88-2.18-3.34-4.64-5.19-6.76a11.17,11.17,0,0,1-1.07-1.26c-.32-.5-.44-1.13-1-1.44h-.18c-.21.56-1.35.32-1.92.58-.2.39.31.6.51.85s.37.69.6.94c.78.83,2,1.27,2.73,2.12.64,1.4,2,2.35,3,3.44.51.53,1,1.13,1.54,1.67s.9,1.36,1.69,1.31C332.45,443.19,331.82,442.75,331.5,442.37Zm4.22-.83c-.45-.41-1-.83-1.42-1.24-1.34-1.37-2.43-3-3.78-4.45s-3-2.67-3.7-4.55c-.09,0-.11-.06-.18-.08s0-.1-.09-.08a4.51,4.51,0,0,0-1.24,1.33,27.3,27.3,0,0,0,2.31,2.42c.82.82,1.42,1.81,2.23,2.6.53.51,1.14.91,1.7,1.39,1.11,1,2.14,2.06,3.23,3a4.84,4.84,0,0,0,2,1.2C336.88,442.3,336.13,441.92,335.71,441.55Zm-21.5-9.62c.88,1.42,1.42,3.49,2.63,4.45.75.59,2.07,1.63,2.89.6a4,4,0,0,0-.81-1.37,8.77,8.77,0,0,0-.89-1.27c-.4-.38-1.16-.6-1.76-1-.8-.58-1.35-1.5-2.07-1.64Zm-8.52.33a.5.5,0,0,0-.35.11c0,.11-.1.13-.07.27a6.33,6.33,0,0,0,3.59,1.71C308.2,433.19,306.71,433,305.68,432.25ZM338.62,436c-1.17-1.27-2.19-2.35-3.37-3.68-.59-.66-1.15-1.59-1.73-1.84-.3-.13-.89-.07-1.26-.18s-.57-.38-.93-.56-.79-.22-1.09-.37c-.48-.23-.76-.62-1.2-.63s-.73.32-1.13.35c-.6,0-.87-.3-1.44-.17-.07,0-.1.08-.08.18a62.35,62.35,0,0,0,4.79,6.07,25.17,25.17,0,0,0,1.74,1.93c.46.39,1.08.68,1.59,1s1,.75,1.5,1.14c1,.81,1.87,1.89,3.18,2.18,0-.86-.74-1.48-1.21-2.05a28.84,28.84,0,0,0-3.19-3.6,19.27,19.27,0,0,1-1.89-1.56,6.2,6.2,0,0,1-1.82-3.17,16.18,16.18,0,0,1,3.41,3,12.4,12.4,0,0,0,2.64,2.13c.31.19.69.33,1,.55.58.39.95,1.33,1.78,1.3C339.92,437.25,339.2,436.63,338.62,436Zm11-8.07c.17.4.31.84.43,1.13a10.36,10.36,0,0,0,3.16,3.16c.42.17,1.1.34,1.42-.1-.53-1.22-1.68-2-2.51-2.85a30.91,30.91,0,0,0-2.6-2.76l-.27,0C349.15,427,349.35,427.27,349.63,427.93Zm-3-6.46c2,2.15,4.39,4.15,6.43,6.58,1,1.16,2.13,2.2,3.17,3.34a60,60,0,0,0,4.61,4.84c1.35,1.17,2.89,2.4,5,2.14,0-.63-.62-.9-1-1.27-1.18-1.18-2.27-2.33-3.44-3.41-3.17-2.9-6.28-5.86-9.59-8.5-1.67-1.34-3.16-3-5.09-4,0-.07-.08-.1-.18-.08C346.59,421.35,346.43,421.3,346.59,421.47Zm18.72-9.86c.13.79,1,1.08,1.52,1.41,1.89,1.14,3.49,2.42,5.24,3.64,4.61,3.21,9.24,6.52,14.11,9.52a22.67,22.67,0,0,0,6.06,2.69c1.38.37,5.19,1.35,5-1-.08-.93-1.33-1.28-2.34-1.71-2.28-1-3.63-1.65-5.53-2.64-.94-.49-1.91-.85-2.76-1.32-1.83-1-3.75-1.68-5.53-2.64a30.63,30.63,0,0,0-4.14-1.94c-.43-.16-1.14-.19-1.3-.8,2.1-.24,3.06.54,4.53,1.2.85.38,1.72.78,2.48,1.16,1.64.82,3.47,1.42,5,2.23s3,1.72,4.72,2.52c.76.35,1.64.72,2.48,1.07a8.2,8.2,0,0,0,2.65,1c2.45.1,3.84-2,2-3.26-1.26-.89-2.75-.93-4.36-1.3-2-.45-3.62-1-5.36-1.49-.91-.26-1.91-.42-2.81-.69-.49-.15-.91-.48-1.38-.62-1.62-.45-3.31-.54-4.79-1.09-.63-.23-1.18-.58-1.83-.76s-1.34-.43-2-.66a102.19,102.19,0,0,1-11.1-4.74h-.18C365.53,411.46,365.44,411.56,365.31,411.61ZM222,394.57c-.13.34.08.86-.18,1.26s-1,.43-1,.87a.79.79,0,0,0,.76.66c.26,0,.94-.63,1.36-.9,1.23-.78,3.69-1.52,4.27-2.52.28-.48.46-1.45.14-1.79C225.92,392.64,222.43,393.52,222,394.57Zm8.44-2.73c-.3-.06-.53-.19-.73-.22-.53-.06-.74.53-.74.85.87.7,2.53-.1,3.83.09C232.74,391.8,231.24,392,230.48,391.84Zm147.84-10.61c-.29.56-1.07.68-2,.67a6.76,6.76,0,0,0,2.85,1.31c1.05.35,2.16.61,3.27.93,1.6.47,3.21,1.19,4.65,1.63.54.17,1.12.4,1.64.51s.83,0,1.25.09c.7.15,1.37.56,2.1.74a24.48,24.48,0,0,0,5.12.62c.46,0,1.3.23,1.58-.38-2.62-1-5.26-1.93-7.94-2.74-3.67-1.1-7.19-2.51-10.68-3.7a8.94,8.94,0,0,0-1.81-.5c0-.07-.08-.1-.18-.08C377.93,380.68,378.39,380.81,378.32,381.23ZM219.95,392.67c-1.26-.08-2.49-1.58-3-1.49-1.16.24.14,1.49.4,1.93-.07.49-.9.33-1.11.7a6,6,0,0,0,2.72,5.86c.41-.33.1-.85.09-1.25,0-.94-.06-2,.62-2.54.5-.41,1.06-.27,1.36-1-.06-.63-.15-1.29.15-1.61s1.42-.15,1.46-.81C221.64,392.12,221.34,392.76,219.95,392.67Zm214.51-17c-.68-.23-2.25-1.16-2.82-.87-1.23.64-2.93.38-4.3.84a4.71,4.71,0,0,0,2.33,1.53,8.77,8.77,0,0,0,5.39.69c.77-.17,1.75-.52,2.05-1.21A10.48,10.48,0,0,0,434.46,375.62ZM446.31,372a15.44,15.44,0,0,1-1.9-.4c-.65-.14-1.3-.3-1.9-.49-3.12-1-5.7-1.94-8.68-3.13a8,8,0,0,0-1.74-.68c-.43,0-.9.33-1.31.36-1.33.11-2.93-.77-4-.61-.07,0-.1.08-.08.18,1.82,1.29,4.49,2,6.62,3a39.21,39.21,0,0,0,7.21,2.52,22.66,22.66,0,0,0,5.33,1.05,6.27,6.27,0,0,0,2.8-.64c.44-.17,1.21-.18,1.19-.8C448.55,371.8,447.46,372.11,446.31,372Zm-250.45-3c-2.53.28-5.12,1-7.65,1.42-.88.15-1.81.17-2.65.36s-1.51.67-2.26.78c-.46.07-1,0-1.42,0a14.24,14.24,0,0,0-2.27.6,40.32,40.32,0,0,0-6.05,2.56c-1.31.66-2.68,1.11-4,1.7-.66.3-1.25.66-1.89.93s-1.52.4-2.27.69a21.13,21.13,0,0,0-2.4,1.33c-.84.47-1.64.95-2.49,1.33-1.44.65-2.81,1-4.25,1.54-.35.13-1,.28-1.1.79.94.84,3.68-.28,4.26,1-.4.67-1.35.82-2.15,1.13a21.17,21.17,0,0,1-2.34,1c-.6.15-1.53,0-1.65.56.21.32.71.29,1.09.37,1.25.25,2.74.17,3.28,1.11-.09.64-.68.85-1.17,1.15a15.65,15.65,0,0,1-3.36,1.66c-.54.18-1.7.12-1.62,1,1.35.78,4.21-.47,5,.9-.38,1-1.89,1.07-2.26,2.12.6.59,1.74.28,2.78.25a36.18,36.18,0,0,0,9.32-1.63c1.07.26.21,1.55.42,2.2a41.84,41.84,0,0,0,7.28-1.58c1.05-.32,2.18-.57,3.49-1,.72-.26,2.73-1.48,3-.48.19.73-.83,1-.6,1.56.5.33,1.06.05,1.6,0a79.85,79.85,0,0,0,8.7-1.68c1.92-.5,4.07-1.19,5.92-1.84a7.85,7.85,0,0,1,1.91-.67c.63,0,1.18.83,1.84.85.89,0,2.6-.9,3.73-1.33,3.73-1.41,7.55-3.11,9.86-5.41a7.48,7.48,0,0,0,2.24-3.63c-.87,0-1.76,1.14-2.55.45.53-1,1.62-1.27,2.46-1.77a13.37,13.37,0,0,0,2.46-1.77c.31-.31.49-.76.81-1.12l1.81-2.09c.3-.35.83-.67.81-1.21a8.58,8.58,0,0,0-2.45.62c-.73.2-2.26.64-2.33-.28,0-.51.62-.64,1-.87A19.67,19.67,0,0,0,220,371c.33-.27.88-.59.73-1a5.6,5.6,0,0,0-1.91-.58,5.5,5.5,0,0,0-2.16-.29,4.6,4.6,0,0,0-1.1.79,23.24,23.24,0,0,1-2.2,1.58c-.31.2-.84.83-1.23.26.11-.63.84-.73,1.26-1.07a8.57,8.57,0,0,0,.74-.85c.27-.28.74-.41.74-.85-.49-.4-1.25-.21-1.89-.22a6.29,6.29,0,0,0-2,0c-1.08.37-1.66,1.93-2.74,1.53-.17-.79.65-.71.62-1.38a6,6,0,0,0-2.51-.27,8.85,8.85,0,0,0-1.95.14c-.91.25-1.56,1.4-2.41,1.15-.4-.39.51-.59.11-1a11.11,11.11,0,0,0-3.12,0c-.66.74-1.1,1.81-2,2.72a8.29,8.29,0,0,1-1.53,1.09,4.64,4.64,0,0,1-1.81.84,1.12,1.12,0,0,1-1-1c0-.68,1.05-.78,1.7-1.1.5-.24,1.16-.67,1.71-1s1.25-.78,1.33-1.34C196.88,368.78,196.38,369,195.86,369.07Zm-11.27-.73c0-.23.5,0,.34-.29C184.72,368,184.33,368.24,184.6,368.34ZM388.83,352c1.52,1.32,4.28,2.18,6.37,3.29,1.06.56,2,1.25,3.06,1.74,2.26,1.09,4.47,1.92,6.54,3.1,1.58.91,3.19,1.64,4.8,2.42s3.15,1.72,4.72,2.61c1,.58,2.13,1,3.22,1.56s2.08,1.13,3.14,1.65c2.17,1.05,4.39,2,6.54,3.1,1,.52,2.14,1,3.31,1.46s2.17,1.12,3.31,1.55,2.37.69,3.64,1.08a9,9,0,0,0,4.22.51c.58-.11,1.38-.3,1.46-.81-.21-.4-.76-.43-1.11-.55-2.05-.67-3.84-1.81-5.78-2.44-.92-.3-1.68-.63-2.47-.9-1-.34-2-.59-2.92-1-3.7-1.43-7.36-3.32-10.77-5-.9-.45-1.85-.81-2.76-1.23s-1.81-.84-2.76-1.23-1.78-1-2.67-1.33c-.45-.14-1-.14-1.44-.26a12.3,12.3,0,0,1-3-1.21c-1.38-.7-2.74-1.49-4.06-2a16.4,16.4,0,0,1-2.31-1.26,36.89,36.89,0,0,0-4.72-2.52,5.74,5.74,0,0,0-.65-.31c-.47-.12-1,0-1.44-.17a23.45,23.45,0,0,1-2.49-1.25,14.7,14.7,0,0,0-3.09-.85C388.74,351.86,388.73,352,388.83,352Zm-140.57,8.85a95.29,95.29,0,0,0-12.87-3.28,70.1,70.1,0,0,0-9.68-.93,74,74,0,0,0-11,.24,66,66,0,0,0-22.74,7c-1.63.86-3.21,1.8-4.71,2.64-.49.28-1.18.46-1.35,1.07,1.43-.36,2.69-.93,4-1.35,2.71-.86,5.25-2.06,8-2.78.71-.19,1.48-.3,2.19-.51s1.37-.53,2.09-.68a55.38,55.38,0,0,1,5.83-.59,54.14,54.14,0,0,1,5.85-.32c2.89,0,5.48.28,8.14.5s5,.72,7.65,1.16c.8.13,1.54.38,2.35.55,1.78.38,3.33.55,5,.9.82.18,1.66.28,2.52.45,1.64.32,3.6,1,5.12.71a11.6,11.6,0,0,0,2-.76c1.38-.58,2.73-1,4.07-1.62.58-.25,1.49-.38,1.7-1.1C251.07,361.6,249.66,361.33,248.26,360.86Zm85-16.18a2.48,2.48,0,0,0,1.53,1.5C334.83,345.42,334.07,344.36,333.21,344.68Zm41.91-4.09c-.62-.23-1.25-.5-1.83-.76-1.23-.55-2.46-1-3.75-1.43-2.53-.91-5.16-1.8-7.84-2.57-5.3-1.51-10.85-2.68-16.57-4-2.8-.65-5.67-1.11-8.57-1.63a76.39,76.39,0,0,0-9.07-1.15c-1.57-.09-3.14-.3-4.74-.29-3.36,0-6.76,0-10.06,0-1.65,0-3.28.22-5,.26a11.16,11.16,0,0,0-1.87,0c-2.59.5-5.68.85-8.06,1.81a27.27,27.27,0,0,0-3,1.63c-2.79,1.57-5,4-4.69,8,.1,1.35.77,2.51.72,3.87,0,.34-.18.76-.27,1.27s-.07,1-.17,1.44a5.05,5.05,0,0,1-1.27,2.23,10.72,10.72,0,0,0-.55,1,25.29,25.29,0,0,1-6.11,6.84c-1.27,1-2.34,1.94-3.72,2.84-.62.4-1.35,1.17-2.17.86.14-.71.86-1.16,1.4-1.61s1.48-.83,1.32-1.52a9.62,9.62,0,0,0-3,0c-1,0-2,0-2.93.12-2,.17-3.89.71-5.8,1-1,.16-1.89.31-2.81.55-1.7.45-3.36,1.23-5,1.77-.9.31-1.91.47-2.61.81-.47.22-.79.74-1.27.89-.3.1-.67,0-1,.07a9.29,9.29,0,0,0-1.29.62c-2.73,1.2-5.82,2.13-8.31,3.43a12.37,12.37,0,0,1-1.29.71c-.22.08-.56,0-.8.06a14.12,14.12,0,0,0-1.29.62c-1.5.59-3.09.8-4.44,1.47-.84.42-1.72.89-2.58,1.25s-2,.61-3,1a59.16,59.16,0,0,0-7.65,3.92,18.61,18.61,0,0,0-2.39,1.5,12.72,12.72,0,0,0-1.63,2.16c-.38.5-.85,1-1.23,1.51-1.3,1.82-1.51,3.18-1.65,5.64,0,.53-.32,1.17,0,1.69.49.28,1-.06,1.61.07.84.19,1.83,1.11,1.55,1.85-1.06.39-1.67-1.47-2.64-.88-.25.63.49.86.88,1.18s.83.9,1.31,1a8.21,8.21,0,0,0,1.59-.2c1.73-.24,3.32-.52,4.94-.7.69-.08,1.48,0,2-.14a4.93,4.93,0,0,1,1-.25c.42,0,.8.35,1.19.45a18.73,18.73,0,0,0,4.83.37,17.14,17.14,0,0,0,7.17-1.84c.45-.24,1-.39,1.38-.63,1.09-.66,1.91-1.92,2.84-2.6a15,15,0,0,1-2,2.45c-.76.63-1.91.92-2.27,1.94.25.51,1.37,0,1.56.6-.15.47-.84.32-1.23.26s-.9-.37-1.36-.35-1.05.14-1.11.7c.67.4,2.71-.13,2.63.71,0,.4-.44.14-.61.13-.85,0-1.7-.12-2.42-.19-.25-.09.05-.83-.4-.68-.39-.17-1,.11-1.59.2s-1.63-.12-1.65.56c1.31.24,2.86.23,3.95.44a45.53,45.53,0,0,0,5.12.62,12.69,12.69,0,0,1,3.89.89A31.51,31.51,0,0,1,254.7,397c2.07,1.2,4,2.76,6,4.12s4,2.77,6.07,4,4.5,2.29,6.73,3.36a128,128,0,0,0,14.37,5.58,22.7,22.7,0,0,1,3.48,1.45,24.25,24.25,0,0,1,3.16,1.92c2.46,1.83,4.42,4.27,6.83,6,.52.37,1,.91,1.42,1.15a17.83,17.83,0,0,0,2,.75c1.4.55,2.66,1.22,4,1.77.67.29,1.4.53,2,.84.37.19.67.56,1,.73s.68.12,1,.29c2.11,1.14,3.68,4.49,6.55,4.62a1.91,1.91,0,0,0,1.32-.27c-.08-.58-.74-.56-1.12-.72a9.42,9.42,0,0,1-1.2-.63,35.6,35.6,0,0,1-5.19-4.27c-.24-.23-.95-.62-.52-1.12.76.16,1.29.85,1.88,1.38,2.17,2,4.42,3.77,7.43,4.47.52.12,1.32.41,1.49-.28-.3-.83-1.34-1.08-2.07-1.64a27.25,27.25,0,0,1-2.49-2.5c-.39-.39-.92-.78-1.33-1.15s-1.1-.83-.81-1.46c1.1.29,1.77,1.27,2.55,2s1.58,1.59,2.38,2.24a5.14,5.14,0,0,0,3.48,1.36c.34-.36.26-.85.17-1.35a10.15,10.15,0,0,0-.38-1.58c-.48-1.24-1.59-1.88-2.41-2.68-.44-.43-1-1-.83-1.63.73-.13,1.11.87,1.61,1.31s1.68,1.47,2.55,2.14a4.27,4.27,0,0,0,1.57.78c.62.18,1.48.22,1.48-.46,0-.43-1-.82-1.41-1.06a10.66,10.66,0,0,1-2.82-2.12c-.35-.39-1-.94-.73-1.46.62,0,1,.68,1.5,1.14a10.23,10.23,0,0,0,2.53,1.78c.87.43,2.13,1.22,3.14.31,0-1.39-1.29-1.7-2.12-2.26a14.15,14.15,0,0,1-1.72-1.75,12.67,12.67,0,0,1-1.72-1.75,14,14,0,0,1-.75-1.82,4.73,4.73,0,0,1-.59-2,9.54,9.54,0,0,1,1.85-4c1.08-1,2.26-.54,3.73-.17.87.22,1.7.58,2.37.81s1.58.51,2.37.81a10.55,10.55,0,0,0,2.45.72,20.26,20.26,0,0,1,2.85.07c1.19.36,2.19,1.87,3.12,2.54.3.22.73.26,1,.46.45.33.67.83,1.05,1.08.55.36,1.22.57,1.75.86a19.85,19.85,0,0,1,4.61,3.59A58,58,0,0,0,356,427c.51.41,1,.85,1.51,1.23,3,2.25,6.17,4.84,9.06,7.38,1.14,1,2,2.05,3.27,2.18.16,0,1.4.19,1.46-.73,0-.4-.69-1-1.17-1.52a87.73,87.73,0,0,0-7.22-6.44c-1.06-.83-2-1.78-2.94-2.55-1.94-1.53-4.17-3.05-6.36-4.45-1.67-1.06-3.49-1.94-5.11-3-.45-.3-1.23-.72-1.17-1.43a14,14,0,0,1,5.51,2.46c.75.47,1.33,1.09,2.07,1.55.37.23.83.34,1.2.54,1.18.64,2.27,1.4,3.35,2.08,1.45.91,2.75,2.09,4.13,3.09a64.4,64.4,0,0,1,5.79,5.11c.67.62,1.12,1.35,1.74,2,1.53,1.63,4.85,3.64,7.32,1.54,0-.41-.33-.75-.61-1s-.58-.55-.86-.83-.52-.58-.77-.84a8.82,8.82,0,0,0-.86-.83c-.32-.22-.78-.24-1.1-.46-.89-.59-1.59-1.53-2.47-2.23s-1.86-1.34-2.72-2c-1.76-1.41-3.56-2.76-5.36-4.08-3.26-2.38-6.79-4.14-10.14-6.23-.4-.25-1.13-.43-1.14-1.08a17.37,17.37,0,0,1,3.64,1.08,14,14,0,0,1,3.07,1.83c1,.71,2,1.27,3,1.93s2,1.25,3,1.93c3.35,2.39,6.75,4.91,9.87,7.41.46.37,1,.69,1.41,1.06s.78.88,1.24,1.25a10,10,0,0,0,2.69,1.5c.33.08.76,0,1.16,0a6.82,6.82,0,0,0,1.08.19c1-.05,3-1.22,3-1.81,0-.29-1.12-.94-1.79-1.39-1.49-1-2.4-1.76-3.74-2.59a22.14,22.14,0,0,0-1.87-1.29c-.2-.09-.62-.08-.9-.2a13.09,13.09,0,0,1-1.68-1c-.53-.34-1.07-.76-1.59-1.14a90.18,90.18,0,0,0-8.38-5.2c-.61-.34-1.18-.75-1.76-1-.31-.15-.7-.14-1-.29a16.41,16.41,0,0,1-1.78-1.21,19.72,19.72,0,0,0-3.72-2.23,8.74,8.74,0,0,0-2.11-.83c-1-.07-2,.47-2.73.46a5.77,5.77,0,0,1-2.4-1.17c-.83-.56-1.65-.86-2.31-1.26s-1.21-.92-1.88-1.38-1.29-1-1.88-1.38-1.07-.83-1.88-1.38c-.62-.42-2-.88-1.88-1.47,0-.21.35-.46.41-.47.41-.12,1.41.71,1.76.95a18,18,0,0,0,3.52,1.89c.67.26,1.27.6,1.84.85,1.24.55,2.66,1,3.76,1.61.62.32,1.1.78,1.68,1,1.43.66,3.26.79,4.47,1.56a3.38,3.38,0,0,1,1,0c2.6,1.32,5,3,7.62,4.63,3.72,2.27,7.77,4.53,11.35,7,3.06,2.14,6,4.15,9.24,6.12a5.45,5.45,0,0,0,2,1,4.34,4.34,0,0,0,2.25-.87,2,2,0,0,0,1-1.85c-.3-.48-.94-.56-1.38-.7a18.8,18.8,0,0,1-2.93-1.22c-2.29-1.18-4.38-2.72-6.52-4.08-1.72-1.1-3.48-2.1-5.13-3.29-1.24-.9-2.46-1.9-3.66-2.68-.45-.29-1-.41-1.47-.7-.77-.48-1.45-1.16-2.17-1.72a31.13,31.13,0,0,0-4.75-3.05c-.89-.45-2-.53-2.83-1-.37-.22-.59-.65-1-.91a13.14,13.14,0,0,0-1.57-.78c-.25-.13-.45-.27-.74-.39a7.17,7.17,0,0,1-.91-.29c-.42-.26-.66-.79-1.05-1.08-.89-.65-2-.87-2.78-1.59-.07-.4-.33-.58-.42-.95a8.76,8.76,0,0,1-1.4-.88c-.41-.28-1.23-.51-1.06-1.17.54-.08,1,.45,1.48.79.78.58,1.59,1.35,2.66,1.15.12-.94-1.16-1.08-1.47-1.86a8.85,8.85,0,0,1-1.79-1.48,8.23,8.23,0,0,1,2.52,1.6c.77.57,1.89,1.15,2,2.08,0,.52-1.15.05-1.11.61a4.18,4.18,0,0,0,2,1.2,8.24,8.24,0,0,0,2.45.63c.41,0,.88-.3,1.32-.27a10.44,10.44,0,0,1,2.3,1.09c.4.17.85.27,1.19.45s.69.56,1,.73c1.21.6,2.68.91,4,1.5,2.58,1.13,5.15,2.3,7.88,3.19,1.37.45,2.76,1,4.1,1.4s2.87.75,4.35,1.12c.69.17,1.37.45,2.09.66s1.48.25,2.26.47c1.22.34,2.53.95,4.19,1.31.75.16,4,1,4.59.66a1.4,1.4,0,0,0,.34-1.54c-.22-.69-1.27-1.07-2.06-1.46a35.54,35.54,0,0,0-5.12-2c-.93-.3-1.84-.52-2.73-.79-3.47-1-7.65-1.85-11.23-2.69a55.26,55.26,0,0,1-10.24-3.82,45.25,45.25,0,0,1-8-4.52c-.7-.52-1.11-1-2.08-.48a12.63,12.63,0,0,1-4.15-2c-.37-.24-1.09-.38-1-1,.54-.17.78.39,1.11.63s.76.42,1.11.63c.7.44,1.43,1.12,2.38,1,.16-.64-.56-.92-.88-1.18s-.95-.65-1.31-1-.69-.89-1.07-1.26c-.88-.86-2-1.55-2.93-2.38l-2.84-2.47c-1.9-1.65-4.06-3.06-6-4.65s-4.14-3-6.27-4.37c-1.61-1.07-3.18-2.19-4.76-3.14a4.69,4.69,0,0,0-1.76-.95c-.26.5,0,1.46-.69,1.56a24.22,24.22,0,0,1-3.8-2.14c-.33-.21-1.12-.43-.87-1a4.49,4.49,0,0,1,2.13,1.19,3.79,3.79,0,0,0,2.21,1c.13-.61-.39-1.13-.73-1.46a15.65,15.65,0,0,0-4.37-2.63,26,26,0,0,0-6.42-2.76c-.17.64.69.63.54,1.39-.27,1.37-3.64-.45-4.23-.68s-1.33-.22-1.3-.8c1.64-.23,2.73,1.52,4.45,1.2.15-.51-.43-.89-.71-1.2a6.38,6.38,0,0,0-2.8-1.85,41,41,0,0,0-4.28-1.39c-2.83-.75-5.9-1.88-8.73-2.59-1-.25-2-.5-3.07-.68a41.19,41.19,0,0,0-6.73-.78c-.69,0-1.18.14-1.77.12-.77,0-2.77-.15-2.91-.86-.19-1,1.48-1.66,2.72-1.88,2-.36,4.32.22,6.71.51,1.08.13,2.15.24,3.23.4a29.23,29.23,0,0,0,3.48.11c.67,0,1.37.17,2.06.12.29,0,.59-.14.88-.15.76,0,1.67.38,2.21-.15-.21-.75-1.27-.7-2-.84s-1.72-.12-2-.84c.36-.64,1.29-.33,1.85-.22s1.42.23,2.07.39c.38.1.72.37,1.1.46a16.63,16.63,0,0,0,4.72,0c.36-.47-.35-1.08.35-1.36,1.26.29,2.28,1.38,3.68,1.7a14.73,14.73,0,0,0,3.49.29c-.4-.79-1.36-1-2.06-1.46s-1.29-1.07-2-1.55c-1-.74-2.19-1.38-3.26-2-.3-.17-1-.31-.78-.92,1.13-.47,2,.73,2.93,1.22,3,1.59,7.07,2,8.88,4.81,0,.5-.64.44-.55,1a36.13,36.13,0,0,1,5.41,2.29c1.63,1,3.21,2.06,4.84,3,2.45,1.48,4.69,3.31,7.26,4.57a7.8,7.8,0,0,0,2.75,1.14c0-.41-.54-.69-.87-.92-1-.71-2.65-1.67-3.22-2.71a8.63,8.63,0,0,1-.69-2.18,1.74,1.74,0,0,1,1.68-.12,21.4,21.4,0,0,1,4.43,2.27c.9.5,2.06.84,3.12,1.3s2,1.15,3,1.48c.63.22,1.42.31,2.09.57s1.18.74,1.91.58a9.88,9.88,0,0,0-2.1-2c-.41-.36-1.84-1.69-2.43-1.7s-1.19.61-1.83.57-1.75-1.12-2.43-1.7c-1.72-1.47-2.74-2.43-4.37-4-1-.91-2.71-1.76-1.93-3.43a5,5,0,0,1,1.61,1.31,10.8,10.8,0,0,0,1.52,1.41c.66.44,1.44.69,2.12,1.1a44,44,0,0,1,5.73,4.32c1.57-.21,2.14.51,3.11,1.21a23.59,23.59,0,0,0,3.89,2.22,3.73,3.73,0,0,1,1.7,1.39c.13.5-.38.45-.2,1a51.32,51.32,0,0,0,5.91,1.72,10.54,10.54,0,0,0,2,.57c.45,0,1-.14,1.42-.1a10,10,0,0,1,2.64.88,16.29,16.29,0,0,0,2.64.88,55.42,55.42,0,0,0,7.15,1.64c.45,0,1.1.31,1.51-.11a14.28,14.28,0,0,0-3.19-1.11c-1.06-.36-2.08-.79-3.11-1.21-2.46-1-5.26-1.91-7.51-2.95-.45-.21-.88-.34-1.37-.53-.91-.35-1.73-.84-2.66-1.15-1.39-.46-2.7-1.16-3.95-1.68-.4-.16-1.15-.16-1.12-.81,1.37,0,2.41.91,3.57,1.35s2.46.87,3.65,1.35a37.57,37.57,0,0,0,7.3,2.6c-.28-.71-1.16-.9-1.78-1.21s-1.28-.71-1.94-1a17.85,17.85,0,0,1-2-.93,9.44,9.44,0,0,1-.76-.75c-.3-.25-.81-.36-.77-.84.25-.58.89-.41,1.31-.36a9.66,9.66,0,0,1,1.36.35c2.7.74,5.12,2,7.67,2.76.45.14.92.18,1.36.35s.78.39,1.2.54c.89.31,1.81.44,2.72.7s1.72.59,2.55.89c4.36,1.57,8.4,2.78,13.12,4.25a74.1,74.1,0,0,0,8.16,2.1,17.59,17.59,0,0,0,3.06.41c.4,0,.82-.17,1.23-.18.94,0,2,.16,3,.14.49,0,1.09,0,1.6,0s1.18.13,1.3-.45c-.25-.34-.76-.37-1.1-.46l-1.27-.36c-.8-.23-1.57-.58-2.37-.81s-1.79-.27-2.7-.43c-2.76-.51-5.32-1.06-8-1.67-1.71-.4-3.36-.93-5-1.43-5.78-1.78-11.55-3.53-16.95-5.58-.65-.24-1.83-.63-1.79-1.39a28.54,28.54,0,0,1,3.64,1.17c1.22.45,2.47.76,3.73,1.16,2.39.77,4.84,1.6,7.37,2.33A138.21,138.21,0,0,0,405,383.82a12.16,12.16,0,0,0,2.07.39c.24,0,.55-.16.79-.14a12.36,12.36,0,0,1,1.54.34c.55.11,1.08.15,1.62.24,4.37.78,8.15,2.14,13.44,1.29.27-.49.79-.76.79-1.48a18.25,18.25,0,0,0-2.54-.62c-1.78-.41-3.56-.73-5.41-1-4.55-.77-9-1.72-13.37-2.72-3.47-.78-6.9-1.67-10.16-2.76-2.49-.83-5-1.55-7.21-2.52-.7-.31-1.74-.44-2-1.28.56-.42,1.16.14,1.63.33s1.17.39,1.73.59c2.39.83,4.81,1.46,7.18,2.17,4.74,1.41,9.93,2.71,14.95,3.67a17.64,17.64,0,0,0,4,.52c.17-.29-.34-.46-.66-.49-2.26-1.15-4.63-2.18-7-3.25-.58-.26-1.24-.39-1.83-.67s-1.14-.61-1.75-.86a18.3,18.3,0,0,0-2-.57c-.54-.15-1.4-.3-1.67-1,.4-.55,1-.15,1.42,0,1.59.51,2.77,1.31,4.22,1.84,2.89,1,5.87,2.41,8.54,3.68a29.78,29.78,0,0,0,6.1,2,19.39,19.39,0,0,0,3.34.66c.91,0,2.75,0,3-.65a8.32,8.32,0,0,0-1.91-.58,19,19,0,0,1-4.53-2.44c-.93-.57-1.94-1-2.87-1.58-1.89-1.08-3.64-2.35-5.49-3.44a37.66,37.66,0,0,0-6.07-2.78c-1.54-.58-3.14-1.43-4.59-2-.57-.22-1.16-.28-1.73-.5s-1-.58-1.48-.79c-1-.4-2.06-.72-3.1-1.12a4.32,4.32,0,0,1-1.56-.69c-.35-.36.55-.2.4-.65-1-.38-1.94-.87-2.94-1.31s-2-.82-3.11-1.21a24.15,24.15,0,0,1-3-1.21,12.23,12.23,0,0,0-1.39-.79,14.66,14.66,0,0,1-1.64-.51c-.42-.22-1.08-.68-1.07-1.26.93-.13,1.77.55,2.64.79.34.09.66,0,1.08.1.84.2,1.74.59,2.64.88,4.53,1.46,8.5,3.6,12.66,5.35,1.68.71,3.28,1.57,4.88,2.33s3.29,1.48,4.88,2.33,3.06,1.8,4.63,2.61c3.67,1.91,7.15,4.06,10.82,5.74a10.91,10.91,0,0,0,6,.74c.49-.08,1.35-.21,1.55-.73-.93-.58-2-.79-2.94-1.31q-2.85-1.52-5.63-2.9c-.94-.47-1.83-1.07-2.78-1.5s-2.23-.72-3.29-1.19-1.94-1.11-3-1.57c-1.76-.8-3.44-1.82-5.25-2.57s-3.7-1.52-5.59-2.28c-.91-.37-1.93-.59-2.92-1s-2-.69-2.92-1c-1.51-.42-3.1-.81-4.54-1.28-.29-.1-1.13-.25-1-.82,3.05,0,5.35,1.7,8.5,1.9a14.86,14.86,0,0,0-3.33-1.81c-1.12-.55-2.25-1.09-3.41-1.72a35.92,35.92,0,0,0-5.25-2.48,6.75,6.75,0,0,0-2.08-.48c-.65.12-.64.68-1.28.8a7.79,7.79,0,0,1-1.34-.08c-1.58,0-3.23.22-4.44.13-.51,0-1.08-.24-1.63-.33a24.52,24.52,0,0,1-7.65-2.49c-.89-.48-1.75-1.06-2.69-1.5a17.67,17.67,0,0,0-2.63-.71c-1.34-.35-2.45-.76-3.67-.28-1.46-.55-2.8-1.75-4.57-1.64.12,1,1.3.86,1.47,1.86-.85.81-1.64-.23-2.19-.83-1.07-1.15-1.83-2.59-3.64-2.42-.06.55.55,1.23-.16,1.52-.47.2-1.58-.36-2.09-.57-3-1.24-4.82-4.19-8.38-4-.21,1.05,2,.88,1.56,1.94s-1.83-.36-2.28-.82c-.62-.62-1.4-1.73-2-2a6.66,6.66,0,0,0-2.51-.27c-.15.75,1.41,2.68-.06,2.94-.69.12-2.37-1.55-2.71-1.86a10.43,10.43,0,0,0-2.55-2.14,9.75,9.75,0,0,0-1.8-.32c-.64-.12-1.27-.25-1.8-.32a19,19,0,0,0-3.76-.27c-.1.36.35.63.59.85a23.15,23.15,0,0,0,2.64,2.13c.45,0,.11-.74.57-.75.47.26,1.75,1.92,1.51,2.56-.44,1.22-1.91-.41-2.47-.9-1.41-1.23-2.28-2-3.68-3a11.41,11.41,0,0,0-2.05-1.37,9,9,0,0,0-1.62-.24c-.5-.08-1.1-.4-1.51,0,.42.82,2,.32,1.88,1.47a.92.92,0,0,1-.58.66c-.56.12-1.38-.88-2-1.29a6.68,6.68,0,0,0-2.13-1.19A8.6,8.6,0,0,0,312,342a4.12,4.12,0,0,0-2.28.52c.29.86,1.12.88,1.9.49.33.28,2.08,1.54,1.67,2.29s-1.55-.14-1.71-.24c-.45-.27-1.17-.72-1.58-1-.83-.48-2.27-1.85-3.24-1.82s-2,1.1-2.93,1.36c-.5.15-.8.05-1.06.16a8.79,8.79,0,0,0-1.6,1.27c-.51.38-1.21,1.11-1.91.76-.12-.86.57-1.58,1-2.21s.87-1.47,1.36-2.14a15,15,0,0,1,2.84-2.69,17.34,17.34,0,0,1,7.76-3.57c.77-.14,1.65-.15,2.47-.26a39.22,39.22,0,0,1,7.45-.34c1.26.07,2.5.25,3.76.36,5.05.42,9.91,1,14.71,1.64,2.47.35,5,.6,7.45.81,7.47.65,14.79,1.93,21.67,3,1.18.19,2.33.5,3.52.64a30.23,30.23,0,0,0,3.59.37C376.51,340.82,375.69,340.8,375.12,340.6ZM445,374.79c-1.2,1.35-1.92,2.43-4.64,2.37a7.56,7.56,0,0,0-1.44-.17c-.47.08-.74.53-1.27.89a7.88,7.88,0,0,1-2.93,1.36c-.39.06-.88-.09-1.25,0-1.37.31-2.2,2.52-4.68,1.84-.58.34-.36,1.09-.69,1.56s-.93.41-1.36.9c0,1.42,0,2.34-1,2.92a6.4,6.4,0,0,1-.77.41c-.78.24-1.79,0-2.65.36-.61.24-.73.81-1.26,1.07a12.46,12.46,0,0,1-1.92.58,25.65,25.65,0,0,1-8.51.51c-.68-.08-1.44-.1-2.06-.21-.93-.17-1.81-.59-3-.77a8.68,8.68,0,0,0-1.88-.14c-.62.08-1.19.7-1.72.83-.31.08-.74,0-1.15.08a13.65,13.65,0,0,1-4.66-.39c-1.2-.21-2.46-.2-3.5-.47a14.23,14.23,0,0,0-2.36-.64c-1-.12-2.12.18-3.28.14-.56,0-1.14-.27-1.71-.32s-1.2-.06-1.79-.14a112,112,0,0,1-11.44-2c-.42-.11-.87-.07-1.26-.18s-.77-.49-1.2-.54a20.06,20.06,0,0,0-3.2.13c-1,.05-2.1.32-3.09.31-.6,0-1.23-.19-1.89-.22s-1.43.06-2.13.06a14.38,14.38,0,0,0-2.15-.21c-.62.12-1,.76-1.72.92s-2,.12-2.92.2-1.95.14-2.83.2c-1.07.07-2.2-.33-3.21-.13-.54.11-2.86,1.64-2.87,2.25,0,.4.84.91,1.43,1.32,1.64,1.17,3.26,2.46,4.61,3.59,2.06,1.72,4.19,3.26,6,4.83a62.75,62.75,0,0,0,6,4.83c.54.36,1.12.72,1.68,1a46.41,46.41,0,0,0,5.27,2.75c2.67,1.1,5.11,2.3,7.61,3.12s5.62,1.31,8.51,2a72,72,0,0,1,14.11,4.44c1.17.56,2.4.84,2.48,2.41a2.76,2.76,0,0,1-.6,1.56c-.27.47-.72,1-.7,1.38s.57.72.88,1.18a2.76,2.76,0,0,1,.47,1.57c-.09,1.66-1.89,2.16-3.26,3a4.4,4.4,0,0,1-.72,2.45c-.91,1-2.63.76-4.15.56-.33.21-.39,1-.53,1.28-.47,1-2.79,2.68-4.36,2.53-.6-.06-1.33-.93-1.93-.84-.41.06-1,1.13-1.32,1.43a7.28,7.28,0,0,1-3.1,1.55,17.84,17.84,0,0,0-2,.05c-.73.2-1.21,1.31-1.66,1.72a4.11,4.11,0,0,1-3,1.37c-.79,0-1.52-.71-2.27-.64-.53,0-1,.66-1.63.92a4.71,4.71,0,0,1-4.19-.06,6.39,6.39,0,0,1-3.88.54c-.65-.14-1.19-.74-1.74-.77s-.81.26-1.22.35a6.53,6.53,0,0,1-3.39,0c-.59-.2-1.26-1.07-1.77-1.12-.35,0-.64.26-1,.34a4.77,4.77,0,0,1-2.59-.17,8.09,8.09,0,0,1-1-.82c-1-.76-2.59-1.47-3.38-2.52a14.4,14.4,0,0,1-1.59-3.63,57.42,57.42,0,0,0-3.18-7.26,28.61,28.61,0,0,0-1.84-3.34,12.72,12.72,0,0,0-5.73-4.32c-2-.78-3.21-1.44-5.31-2.12-1.12-.36-2.51-.79-2.72.55a6.31,6.31,0,0,0,.82,2.88c.35.72.95,1.43,1.4,2.22.93,1.61,2,3.09,3.08,4.59.6.85,1.32,1.52,1.85,2.27a9.9,9.9,0,0,1,1.22,2.23c.14.49.08.92.17,1.15a6.48,6.48,0,0,0,1.26,1.51c.44.5.87,1,1.26,1.43,1.59,1.76,3.13,3,3.95,5.51-.12.5-.92.42-1.1.88.86,1.28,1.75,2.9,2.71,4.44.47.75,1.19,1.71.33,2.2-1.08.62-3.19-1.21-4.17-1.13-.11.89,1.12,1.5.81,2.61-.86.62-2-.33-2.89-.6-.46.55.83,1.31.23,2-.55.28-.89-.33-1.28-.53-.16-.58.47-.48.37-1-.72-.86-1-2.19-2.06-2.71-.24.18-.17.51-.22.73a1.9,1.9,0,0,0-.13.72c.12.73,1,.9,1.26,1.51.08.31-.07.53,0,.89a7.08,7.08,0,0,1,.32,2c-.14.46-.77.5-1.1.79-.12.52.24,1.45-.41,1.81a3,3,0,0,1-1.88-.22c-1-.41-1.63-1.62-3-.86-.69.39-.58,1.12-1.16,1.24-.93.19-.78-.4-1.57-.78a2.61,2.61,0,0,1-1.91-.58c-.65.15-.4.76-1,.78-.33,0-.69-.47-.95-.82s-.34-.92-.78-.92c-.4.26-.15.83-.18,1.26a5,5,0,0,0-.09,1.25A11.15,11.15,0,0,0,323,456.5a11.67,11.67,0,0,0,1.47,1.94c2.14,2.51,4.75,4.45,6.89,6.82,1.13,1.26,2.1,2.54,3,3.79a14.47,14.47,0,0,1,1.65,2c.12.27.11.67.25,1.05s.68,1,.82,1.54a3.12,3.12,0,0,1-1.42,3.93c-.48.31-1.11.8-1.83.57-.52-.59-.09-1.25-.14-2a6.74,6.74,0,0,0-1-2.78c-.79-1.21-2.33-2.17-3.61-3.22-3.07-2.53-6.21-4.8-9.11-8-.89-1-1.28-1.93-2.68-1.42-.21.08-.39.32-.6.4-.8.29-1.59.41-2.35.7a47.25,47.25,0,0,0-6.22,2.66c-1.33.72-2.74,1.29-4.05,1.89-1.94.88-4,1.6-5,3.11a7.73,7.73,0,0,1-.55,1c-.36.37-1.12.54-1.46.81a4.53,4.53,0,0,0-1.11,1.95c-.22,1-.06,2.16-.64,2.36-1.2.42-2.3-1.71-2.46-3.39a11.87,11.87,0,0,1,.28-2.33c0-.38-.2-.89-.18-1.23.1-1.51,1.56-3,2.59-3.74.37-.28,1-.37,1.18-1a4.05,4.05,0,0,0-2.29.34,6.71,6.71,0,0,0-2.51,1.07,7,7,0,0,0-1.36,2.23c-.41.75-.72,1.74-1.64,2-.53-.27-.49-.9-.72-1.37a5.9,5.9,0,0,1-1.09-2.86c-.13-4.34,5.66-5,9.16-6.52.21-.5-.46-.72-.78-.92a4.54,4.54,0,0,0-1.11-.63c-.4-.1-1,0-1.61-.07s-1.29-.35-1.71-.33c-1,.06-2,.82-3,1.1-.41.11-.85.07-1.23.18-1.52.42-3.43,1.28-5,1.86-.63.23-1.19.64-1.81.84s-1,.2-1.49.37c-1.24.44-2.58,1.11-3.81,1.51a16.05,16.05,0,0,0-1.75.39A3.73,3.73,0,0,0,271.3,465c-.23.66,0,1.58-.48,2.08-.91-.31-1.36-1.74-1.45-2.93-.13-1.65.82-2.73.78-4.15-.62-.4-1.11-.06-1.7-.06s-1.22-.39-2-.22c-.56.13-.85.7-1.25,1.24s-.77,1.24-1.16,1.24c-.79,0-1.12-1.95-1.08-2.77a5.47,5.47,0,0,1,2-3.43,14.13,14.13,0,0,1,1.33-1.34,12.3,12.3,0,0,1,2.87-.91,26.5,26.5,0,0,1,3.63-.34c1.14-.1,2.27-.17,3.37-.24.7,0,1.42.15,2.06.12a66.28,66.28,0,0,0,8-1.1,16.34,16.34,0,0,0,4.85-1.94c.58-.3,1.2-.45,1.73-.74a13.47,13.47,0,0,0,2.86-2.34,67.66,67.66,0,0,1,5.63-4.76c1-.78,2.06-1.38,3-2.25.17-.82-.51-1.83-.72-2.62s-.15-1.46-.33-2.2-.42-1.3-.58-1.92-.36-1.32-.58-1.92c-.34-.92-.68-1.43-1.07-2.51a16.72,16.72,0,0,0-2-3.51,25.25,25.25,0,0,0-8.37-7.69c-4.49-2.47-9.95-3.55-14.92-5.9-1.22-.58-2.47-1.05-3.67-1.61s-2.28-1.23-3.42-1.81a43.55,43.55,0,0,1-6.68-3.81c-2-1.57-4.1-3.09-6.19-4.46a43.5,43.5,0,0,0-6.68-3.81c-.71-.3-2-.8-2.38-.9-1.29-.33-2.84-.37-4.23-.59a32.49,32.49,0,0,0-4.14-.6c-1.3,0-2.61.12-3.73.17-2.35.12-4.4,0-6.37.62a13.93,13.93,0,0,0-1.55.82c-1.1.54-2.07.86-3.28,1.48-.5.25-1,.77-1.46.81-.74.09-.9-.49-1.55-.51-.81,1.15.43,2.93.37,4.07a3.73,3.73,0,0,1-2.68-1.41,8.43,8.43,0,0,1-3.15-5.57,10.91,10.91,0,0,1,.6-4.14,4.61,4.61,0,0,0,.36-1.18c0-.63-.46-1.32-.5-2.1-.06-1.06.21-1.94.16-2.86-.68-.1-1.15.56-1.63.92a33,33,0,0,1-4.94,3.19c-.6.3-1.26.53-1.9.85a41.07,41.07,0,0,1-3.89,1.61c-1.06.4-2.15,1.25-3.75,1.15-.64,0-1.07-.74-1.75-.77a8.48,8.48,0,0,0-2.17.78,65.73,65.73,0,0,1-11.82,2.87c-.7.13-1.68.23-2.65.36-1.61.22-3.1.64-3-.95a11.32,11.32,0,0,0-3.42.77c-2.28.58-4.61,1.14-7.1,1.65-1,.22-2.33.92-3.2,0-.32-.66.66-.86.79-1.39a4.68,4.68,0,0,0-1.86.13,27.43,27.43,0,0,1-8.41.68c-.55-.08-1.21-.35-1.82-.5s-1.51-.19-1.56-.69c-.1-1,2.7-1.21,2.88-2.07-.51-.57-1.42-.27-2.07-.39A17.68,17.68,0,0,1,150,392c-.68-.22-1.67-.38-1.86-1.12.67-.54,1.66-.29,2.46-.44a23.48,23.48,0,0,0,5-2c-.26-.77-1.22-.41-1.82-.5a17.78,17.78,0,0,1-2.45-.63c-.73-.22-1.81-.32-1.95-1.11.25-.52.86-.36,1.39-.45s1-.19,1.49-.28a8.87,8.87,0,0,0,2.8-.73c0-.44-.49-.52-.76-.66-.76-.39-2.12-.5-2.34-1.62a4.5,4.5,0,0,1,1.72-.92c.63-.26,1.24-.48,1.82-.75,1.23-.58,2.44-.91,3.73-1.42a30.15,30.15,0,0,0,2.75-1.35c2.6-1.36,5.18-3,7.8-4.37,3.63-1.88,7.3-3.59,10.75-5.47,1.73-.95,3.4-2,5.14-2.94s3.41-2,5.14-2.94a60.92,60.92,0,0,1,11.6-4.73,59.42,59.42,0,0,1,13.87-2.75,105.41,105.41,0,0,1,11,.12c1.22,0,2.42,0,3.57.11s2.18.34,3.33.48a31.19,31.19,0,0,1,3.16.58c2.07.48,4.12,1,6.07,1.53,2.81.76,5.92,1.71,8.9,2.58.45.13,1,.18,1.54.34a6,6,0,0,0,1.45.43,10.64,10.64,0,0,0,2.26-.78c.74-.27,1.58-.45,2.27-.69,1.47-.52,3-1.21,4.34-1.55,1.62-.4,3.28-.63,4.91-1.06,2.34-.61,4.7-.67,6.94-1.29.41-.11.92-.43,1.3-.54s1-.12,1.49-.28a16.16,16.16,0,0,0,8.27-6.45,11.16,11.16,0,0,0,.78-1.57,4.35,4.35,0,0,0,.52-2.71,10.2,10.2,0,0,0-.45-1.3c-1.44-5.93,1.28-10,4.51-11.89a27.79,27.79,0,0,1,10.45-3.4,89.92,89.92,0,0,1,12.69-.53c2.64.05,5.29-.1,7.75.08a148.78,148.78,0,0,1,18.24,2.37c2.89.58,5.69,1.28,8.5,1.9,1.44.32,2.91.51,4.33.85,4.17,1,8.16,2.18,12.17,3.51l3.92,1.33c3.83,1.31,7.61,2.82,11.35,4.46,2.45,1.08,4.79,2.29,7.09,3.42s4.72,2.36,7.1,3.51c4.73,2.29,9.37,4.79,14,7.21,2.34,1.21,4.76,2.21,7.18,3.33s4.8,2.27,7.26,3.32,5,1.94,7.43,3.13c1.18.58,2.51,1,3.76,1.52s2.62.89,3.92,1.33,2.61.91,4,1.23a21.94,21.94,0,0,1,3.92,1.24c.87-.12,1.15.2,1.9.4s1.79.21,1.92.76c.17.73-1.54,1.82-2.17,2.11a12.5,12.5,0,0,1-2.35.79A5.57,5.57,0,0,1,445,374.79Z" transform="translate(-109.87 -201.51)" fill="#231f20"/><path d="M308.67,350.14c-1,.21-2-.49-2.74-1a27.31,27.31,0,0,0-2.25-1.62c1.45-.1,2.29,1.82,3.77,1.7.16-1.69-1.81-1.75-2.26-3,.14-.13.2-.33.51-.3C306.82,347.09,308.6,348,308.67,350.14Z" transform="translate(-109.87 -201.51)" fill="#231f20"/><path d="M318.88,346a4,4,0,0,1,1.82,1.83,6.87,6.87,0,0,1-2-1.46C318.65,346.08,318.89,346.13,318.88,346Z" transform="translate(-109.87 -201.51)" fill="#231f20"/><path d="M312.62,346.84c.07-.06.15-.12.18,0a23.59,23.59,0,0,0,6.47,4.62,23.66,23.66,0,0,1,2.49,1.25c.65.46,1.47,2.08.44,2.46-.75.28-2.29-.78-2.93-1.22a36.9,36.9,0,0,1-4.63-3.86c-.6-.56-2.09-1.32-2.27-2A1.48,1.48,0,0,1,312.62,346.84Z" transform="translate(-109.87 -201.51)" fill="#231f20"/><path d="M300.07,349.41c0-.2,0-.33.15-.37,1.49-.27,2.35.51,3.38,1.19a20.34,20.34,0,0,0,5.05,2.23c.65.22,2.09,1,2.16,1.54s-.57,1.07-1,1.14c-.79.12-2-.84-2.67-1.24-2-1.3-3.75-2.67-5.87-3.77A4.56,4.56,0,0,1,300.07,349.41Z" transform="translate(-109.87 -201.51)" fill="#231f20"/><path d="M334.87,350.53c-.2.09-.47-.12-.64-.22a24.94,24.94,0,0,1-2.55-2c0-.14.07-.16.07-.27a.5.5,0,0,1,.35-.11Z" transform="translate(-109.87 -201.51)" fill="#231f20"/><path d="M339.93,349c1.21-.82,2.14.73,2.94,1.31a58.41,58.41,0,0,0,5.94,3.5c.37.21,2.64,1.51,2.64,2.13,0,.29-.6.82-.92.87-1,.14-2.06-1-2.69-1.5-.88-.64-1.89-1-2.6-1.51a17.64,17.64,0,0,1-1.33-1.24,28.68,28.68,0,0,0-2.74-2.3C340.73,350,340,349.66,339.93,349Z" transform="translate(-109.87 -201.51)" fill="#231f20"/><path d="M326.36,349.79c.93.22,1.92,1.88,2.76,2.48.49.36,1.3.69,2,1.19,1.34.9,2.44,1.5,3.82,2.49.54.38,1.45,1.21,1.38,1.86-.1.9-1.43.78-2.2.42a8.62,8.62,0,0,1-1.87-1.29c-.9-.81-1.74-1.95-3-3.17-.44-.43-1-1-1.62-1.49S325.38,350.92,326.36,349.79Z" transform="translate(-109.87 -201.51)" fill="#231f20"/><path d="M336.39,350.61a1.46,1.46,0,0,1,.75.48c0,.7-1.42.83-1.51.11C336,351.08,336.45,351.08,336.39,350.61Z" transform="translate(-109.87 -201.51)" fill="#231f20"/><path d="M303.3,358.62c-.23.52-.89.3-1.23.26a15.88,15.88,0,0,1-3.62-.9c-1.8-.65-3.39-1.82-5.64-1.74-.52,0-1.15.4-1.69,0,0-.81.87-1,1.44-1.08,1.1-.14,2.52.46,4.14.69s3.1.24,4.22.51a4.63,4.63,0,0,1,1.5,1.05C302.83,357.79,303.55,358.14,303.3,358.62Z" transform="translate(-109.87 -201.51)" fill="#231f20"/><path d="M315.44,355.36h.18a20.69,20.69,0,0,0,2.3,1.09,6.87,6.87,0,0,1,2.12,1c.36.27,1,.75.71,1.29-.68.07-1.13-.53-1.57-.87a19.45,19.45,0,0,0-3.8-2.14C315.36,355.57,315.47,355.53,315.44,355.36Z" transform="translate(-109.87 -201.51)" fill="#231f20"/><path d="M274.28,361.18c-.06.35-.69.29-1.13.35a3.21,3.21,0,0,1-2-.13c.27-.66,1.35-.6,2.19-.51C273.73,360.93,274.37,360.66,274.28,361.18Z" transform="translate(-109.87 -201.51)" fill="#231f20"/><path d="M330.38,360.19c-.67.18-1.12-.59-1.58-1a22.34,22.34,0,0,1-2.88-1.76l0-.27c.93-.1,1.55,1,2.32,1.35C329.33,358.57,330.65,359.21,330.38,360.19Z" transform="translate(-109.87 -201.51)" fill="#231f20"/><path d="M291,360.72c-1,.47-2.44-.15-3.24-.57.05-.24.53-.3.78-.32C289.37,359.74,290.76,360,291,360.72Z" transform="translate(-109.87 -201.51)" fill="#231f20"/><path d="M352.77,365.93c-1.44,0-2.57-1-3.59-1.71s-2-1.54-3-2.28a25.61,25.61,0,0,1-5.45-5.32c0-.1,0-.16.08-.18s.15-.12.18,0a25,25,0,0,0,5,3.3c.61.31,1.16.65,1.76,1,1.23.78,2.57,1.38,3.53,2.07C352,363.33,353.92,365,352.77,365.93Z" transform="translate(-109.87 -201.51)" fill="#231f20"/><path d="M364.29,355a13.49,13.49,0,0,1,2.74,2.21c-.51,0-1.05-.5-1.57-.87S364.11,355.63,364.29,355Z" transform="translate(-109.87 -201.51)" fill="#231f20"/><path d="M359.31,357.64c.19-.68-.29-1.23,0-1.6.07-.06.15-.12.18,0,.94.19,1.93,1.31,2.81,2,1.65,1.34,3.94,2.29,5.85,3.51.27.17.81.58,1.4,1s1.14.85,1.15,1.17c0,.76-.81.94-1.55.82a5.09,5.09,0,0,1-1.66-.77,35.13,35.13,0,0,1-2.65-2.31c-.44-.36-1-.64-1.4-1A38.09,38.09,0,0,0,359.31,357.64Z" transform="translate(-109.87 -201.51)" fill="#231f20"/><path d="M308.84,361.52c.26-.62-.47-.92-.55-1.48.94.3,2,1.34,1.69,2.46-.1,0-.16,0-.17.1a12.1,12.1,0,0,1-3.89-2.22l0-.27C307,360,307.61,361.4,308.84,361.52Z" transform="translate(-109.87 -201.51)" fill="#231f20"/><path d="M263.64,363.17c-.1.26-.56.28-.87.33-.5.08-1,0-1.51.11.12-.24.65-.36,1-.43A3.35,3.35,0,0,1,263.64,363.17Z" transform="translate(-109.87 -201.51)" fill="#231f20"/><path d="M304,361.78c-.34.87-1.91,0-2.34-.37C302.08,360.75,303.6,361.17,304,361.78Z" transform="translate(-109.87 -201.51)" fill="#231f20"/><path d="M382.78,363.47c-.45.5-1,0-1.44-.17s-1.1-.17-1.54-.34c-.6-.23-1.31-.72-2-1a15,15,0,0,1-2-.93c-1.25-.76-2.28-1.84-3.47-2.52-.37-.94-1.25-1.31-1.91-1.91a.42.42,0,0,0,.07-.27c.07,0,.08-.09.17-.1s.09,0,.09.08a25.12,25.12,0,0,1,3,1.93c1,.58,2.17,1,3.22,1.56a15.29,15.29,0,0,0,1.66.77,23.15,23.15,0,0,1,3.23,1.64C382.19,362.45,382.94,362.76,382.78,363.47Z" transform="translate(-109.87 -201.51)" fill="#231f20"/><path d="M296.93,364.31c-.25.9-1.45.33-2.3.25a17.81,17.81,0,0,1-3.58-.28c-.19-.58.21-.79,1-.78a33.91,33.91,0,0,1,3.5.47C296.17,364,296.77,363.84,296.93,364.31Z" transform="translate(-109.87 -201.51)" fill="#231f20"/><path d="M189.89,371.44c.06,1.13-1,1.81-2.05,2.46a13.09,13.09,0,0,1-1.2.62,6.5,6.5,0,0,1-2.69,1c-.47,0-1.07-.31-1.11-.63-.08-.71,1.19-.8,1.88-1.11,1.42-.63,2.61-1.7,4.14-1.89l.68-.4Z" transform="translate(-109.87 -201.51)" fill="#231f20"/><path d="M264,367.42a17,17,0,0,1,3.73-1.42c1.61-.37,4,1.51,1.48,2.12a14.43,14.43,0,0,1-4.35.13C264.61,368.18,264,367.86,264,367.42Z" transform="translate(-109.87 -201.51)" fill="#231f20"/><path d="M351,360.26h.18A14.14,14.14,0,0,1,354.1,362c.5.29,1.06.47,1.57.78s.85.72,1.31,1,1.08.43,1.56.69.84.58,1.31.89a28.44,28.44,0,0,1,4,2.66,2.88,2.88,0,0,1,1,1.36c-.71.87-1.86.35-2.67,0a17.38,17.38,0,0,1-4.38-2.81,7.43,7.43,0,0,1-2.5-2.59,16.31,16.31,0,0,0-4.24-3.35Z" transform="translate(-109.87 -201.51)" fill="#231f20"/><path d="M280.22,366a.56.56,0,0,1-.82-.21C279.42,365.36,280.36,365.45,280.22,366Z" transform="translate(-109.87 -201.51)" fill="#231f20"/><path d="M203.91,370.91c.14.41-.22,1-.52,1.46a7.76,7.76,0,0,1-2.6,2.23c-.58.33-1.34.8-1.87,0,.46-1,1.58-1.37,2.45-2A14.71,14.71,0,0,1,203.91,370.91Z" transform="translate(-109.87 -201.51)" fill="#231f20"/><path d="M342.88,363.33a10.57,10.57,0,0,1-3-1.57l0-.27a.5.5,0,0,1,.35-.11C341.14,362,342,362.65,342.88,363.33Z" transform="translate(-109.87 -201.51)" fill="#231f20"/><path d="M325.2,363.85c1.1-1.72,2.79.89,3.76,1.52.47.31,1.11.46,1.66.77,1,.58,2.08,1.11,3.15,1.74.69.4,2.34,1.23,2.21,2.34-.2,1.71-2.85-.17-3.42-.56s-.82-.63-1.22-.89-.94-.42-1.3-.71-.79-.82-1.15-1.17-.75-.73-1.14-1.08C326.89,365.05,326,364.58,325.2,363.85Z" transform="translate(-109.87 -201.51)" fill="#231f20"/><path d="M334.39,362.76c.8-.12.9.56,1.47.7.53-.23.88-.25,1.25.09a1.1,1.1,0,0,1-.12.81c-1,.13-1.69-.9-2.58-1.24Z" transform="translate(-109.87 -201.51)" fill="#231f20"/><path d="M251.44,369.45c0,.58-.88.95-1.62,1.09-1,.2-2.49.25-3-.23,0-.63,1-.72,1.72-.83.46-.07,1.09-.15,1.59-.2S251.2,369.07,251.44,369.45Z" transform="translate(-109.87 -201.51)" fill="#231f20"/><path d="M207.18,373.08c.21,1.48-1.36,3-2.49,3.91-.55.46-2.16,1.53-2.38.34-.13-.7,1.26-1.23,1.93-1.74.34-.26.62-.59.92-.87.65-.61,1.25-.87,1.58-1.62Z" transform="translate(-109.87 -201.51)" fill="#231f20"/><path d="M345.14,365c-.09,0-.06.11-.08.18-1,.47-1.85-1.07-.6-.94C344.71,364.31,345,364.65,345.14,365Z" transform="translate(-109.87 -201.51)" fill="#231f20"/><path d="M213.54,373.62c.21.3-.1.72-.28,1.09a4.82,4.82,0,0,1-1.12,1.77c-.22.19-.57.28-.85.5-.47.37-1.66,1.53-2.57,1.43a1.1,1.1,0,0,1-.87-.92c0-.67,2-1.34,2.63-1.79,1.2-.82,1.88-1.47,2.71-2.06Z" transform="translate(-109.87 -201.51)" fill="#231f20"/><path d="M178.49,376.51a2.48,2.48,0,0,1-2,1.3A1.85,1.85,0,0,1,178.49,376.51Z" transform="translate(-109.87 -201.51)" fill="#231f20"/><path d="M171.07,377.39a3.71,3.71,0,0,1-1.57,1.71,19.53,19.53,0,0,1-2.05,1.21c-1.39.75-2.88,1.92-4.48,2.18a1.66,1.66,0,0,1-1.25-.09c-.13-.62.63-.66.92-.78a30.65,30.65,0,0,0,3.44-1.75c1.59-.89,3-2,4.53-2.72C170.89,377.09,170.86,377.38,171.07,377.39Z" transform="translate(-109.87 -201.51)" fill="#231f20"/><path d="M277.69,370.56c.6-1.19,2.79-.4,3.8-.36.29,0,.8-.09,1.24-.09a14.29,14.29,0,0,1,4.5.66c.42.21.95.75,1,1,.06,1.11-1.8.87-2.35.79-1.23-.18-2.61-.73-4.08-1.05-.73-.16-1.51-.19-2.25-.29S278,371.18,277.69,370.56Z" transform="translate(-109.87 -201.51)" fill="#231f20"/><path d="M265.27,372.4a.79.79,0,0,1-1-.2C264.53,372,265.3,371.95,265.27,372.4Z" transform="translate(-109.87 -201.51)" fill="#231f20"/><path d="M185.08,377.83c-.09.75-1.08,1.38-1.91,2a8.46,8.46,0,0,1-2.74,1.62c-.65.14-1.68.21-2.07-.39.17-.73,1-.71,1.54-.91a15.51,15.51,0,0,0,1.64-.74,28.09,28.09,0,0,1,3.36-1.57Z" transform="translate(-109.87 -201.51)" fill="#231f20"/><path d="M173.77,379c.11,1-1.47,1.27-1.24,2.67-1.73,1.18-3,2.67-5.65,3.16-.61.11-1.61.33-1.71-.33s1.29-1.11,1.86-1.46,1.4-1,2-1.38c1.75-1.16,3.15-1.7,4.35-2.71A.58.58,0,0,1,173.77,379Z" transform="translate(-109.87 -201.51)" fill="#231f20"/><path d="M259.48,373.7c-.16.61-1,1-2.05,1.21-1.21.2-3.07.47-3.42-.47.17-.46.69-.32,1.13-.44.68-.17,1.52-.38,2.28-.52S259.06,373.1,259.48,373.7Z" transform="translate(-109.87 -201.51)" fill="#231f20"/><path d="M278.77,373.24c-.27,2.65-5.2.95-7.34.69-1.35-.16-2.51.19-2.58-1.24.07,0,.08-.1.17-.1,1.95.23,5.39-.08,7.57,0C277.4,372.62,278.32,372.67,278.77,373.24Z" transform="translate(-109.87 -201.51)" fill="#231f20"/><path d="M192.69,378.46c-.08.58-.86,1.11-1.58,1.62-1.06.76-2.43,2.07-3.18.31.24-.5.75-.35,1.21-.53a10.13,10.13,0,0,0,2.63-1.79C192,377.9,192.55,378.11,192.69,378.46Z" transform="translate(-109.87 -201.51)" fill="#231f20"/><path d="M296.27,371.48c-.09,0-.06.11-.08.18-.45.32-.86-.13-1.18-.27C295.05,370.74,296.27,371,296.27,371.48Z" transform="translate(-109.87 -201.51)" fill="#231f20"/><path d="M348.7,367.64l.27,0a12.31,12.31,0,0,1,1.71,1.57c.24.21.73.23.76.66-.09,0-.06.11-.08.18-.56.07-.76-.27-1.1-.46.08-.88-1.23-.84-1.62-1.49A.58.58,0,0,1,348.7,367.64Z" transform="translate(-109.87 -201.51)" fill="#231f20"/><path d="M354.66,367.49c.79,0,1.29.62,1.93.93s1,.34,1.47.61a42.25,42.25,0,0,1,6.07,4.12c.6.47,1.73,1.33,1.5,2.3-1.88.24-3-1.09-4.41-2-1.78-1.16-3.17-2.53-5.07-3.74A2.54,2.54,0,0,1,354.66,367.49Z" transform="translate(-109.87 -201.51)" fill="#231f20"/><path d="M381.5,366.86c-.28.41-.72.05-1-.11-.46.22-1.15.37-1.35-.17.07-.41.77-.27.75-.76C380.45,365.95,381.29,366.3,381.5,366.86Z" transform="translate(-109.87 -201.51)" fill="#231f20"/><path d="M213.51,378.25c0,.64-1.07,1.5-1.76,1.55C211.54,379,212.63,377.85,213.51,378.25Z" transform="translate(-109.87 -201.51)" fill="#231f20"/><path d="M371.14,367.67c.41-.05.71.34,1.11.55s.72.22,1,.37a13.2,13.2,0,0,1,1.79,1.48,22.82,22.82,0,0,0,1.79,1.48c1.3.85,3,1.11,4.49,1.82s2.85,1.51,4.25,2.2c.67.33,1.52.65,2.21,1s1.48.83,1.28,1.78c-.79.51-1.61-.08-2.34-.37a42.47,42.47,0,0,1-6.34-2.76c-1.79-1.08-3.76-2.35-5.59-3.61a11.83,11.83,0,0,1-1.78-1.3,9.89,9.89,0,0,1-.61-1c-.37-.52-.94-.81-1.25-1.34C371,367.88,371.14,367.78,371.14,367.67Z" transform="translate(-109.87 -201.51)" fill="#231f20"/><path d="M195.76,380.29c-.09,1.11-1.46,1.89-2.4,2.66-.35.29-.55.69-.93.69a.83.83,0,0,1-.76-.66c-.13-.8,2.33-2.56,3-2.88A1.86,1.86,0,0,1,195.76,380.29Z" transform="translate(-109.87 -201.51)" fill="#231f20"/><path d="M385.43,367a17.31,17.31,0,0,1,1.89.31,7.41,7.41,0,0,1,.89-.06,8.33,8.33,0,0,1,1.65.69c.54.25,1.13.62,1.24,1.16-.37.43-1,.16-1.51,0a21.21,21.21,0,0,1-4.22-1.75A.5.5,0,0,0,385.43,367Z" transform="translate(-109.87 -201.51)" fill="#231f20"/><path d="M304.52,373.58c-.42.2-1.4.21-1.37-.44C303.66,372.92,304.09,373.42,304.52,373.58Z" transform="translate(-109.87 -201.51)" fill="#231f20"/><path d="M368.75,370.33c-.79.08-1.41-.87-2.13-1.19,0-.14.07-.16.07-.27C367.47,368.87,368,369.94,368.75,370.33Z" transform="translate(-109.87 -201.51)" fill="#231f20"/><path d="M293,374.65c.31-.83,2.07-.35,4-.37,1.19,0,2.65-.14,2.74,1,0,.57-.62,1.07-1.08,1.14-.89.14-1.84-.54-2.9-.78S293.36,375.42,293,374.65Z" transform="translate(-109.87 -201.51)" fill="#231f20"/><path d="M272.77,377.84c-1.1,2-3.58.72-5.68.31l-2-.4c-.65-.14-1.43-.12-1.82-.58-.08-.48.58-.48.94-.6a11,11,0,0,1,4.07-.28C270.14,376.37,272,376.66,272.77,377.84Z" transform="translate(-109.87 -201.51)" fill="#231f20"/><path d="M280.69,375.33c.31.08.73.06.75.48-.32,0-.44-.13-.72-.13Z" transform="translate(-109.87 -201.51)" fill="#231f20"/><path d="M259.23,377.72c-.54.55-2.18,1.16-2.74.28C256.5,377.06,259.09,376.34,259.23,377.72Z" transform="translate(-109.87 -201.51)" fill="#231f20"/><path d="M308.33,374.64c.1.34-.19.33-.23.55-.61-.1-.94-.51-1.39-.79C307.11,373.94,308.11,374.29,308.33,374.64Z" transform="translate(-109.87 -201.51)" fill="#231f20"/><path d="M198.19,382a1.27,1.27,0,0,1-1.15,1.33A1.17,1.17,0,0,1,198.19,382Z" transform="translate(-109.87 -201.51)" fill="#231f20"/><path d="M379.46,369.49c.59-.07.73.38,1.11.55C380.23,370.2,379.42,370.08,379.46,369.49Z" transform="translate(-109.87 -201.51)" fill="#231f20"/><path d="M288.81,376.81c.1-.87,1-.22,1.59-.11,1.1.19,4.18-.25,4.26,1,0,.75-.94,1-1.9.84a18.4,18.4,0,0,1-2.1-.74C289.86,377.56,289,377.37,288.81,376.81Z" transform="translate(-109.87 -201.51)" fill="#231f20"/><path d="M184.16,383.77c0,.91-.75,1.69-1.25,2.49a13.34,13.34,0,0,1-4,4.28,16.45,16.45,0,0,1-2.46,1.77,2,2,0,0,1-2.14,0c.27-.73,1.15-1.08,1.76-1.55a43.77,43.77,0,0,0,5-4.8,3.13,3.13,0,0,1,.88-.15,9,9,0,0,0,1.18-.88C183.49,384.56,183.56,383.89,184.16,383.77Z" transform="translate(-109.87 -201.51)" fill="#231f20"/><path d="M204.52,383.33c-.19.7-.94,1.18-1.58,1.62a17.12,17.12,0,0,1-4,2.42c-.66.24-1.62.9-2.3.25.24-.65,1-1,1.51-1.35s1.2-.69,1.8-1a14.52,14.52,0,0,0,3.28-2.72A5,5,0,0,1,204.52,383.33Z" transform="translate(-109.87 -201.51)" fill="#231f20"/><path d="M397.85,370.25c-.64,1-1.68-.17-2.34-.37-.15-.16.12-.45.13-.72A4,4,0,0,1,397.85,370.25Z" transform="translate(-109.87 -201.51)" fill="#231f20"/><path d="M175.14,384.67l.35,0c.25.41-.07.79-.19,1.17s-.13.89-.27,1.27a8,8,0,0,1-2.3,2.74,11.48,11.48,0,0,1-1.53,1c-1.17.68-2.64,1.79-4.34,1.55-.2-.58.37-1,.71-1.3,1.08-1,2.66-1.88,3.81-2.85C173.45,387.75,173.75,385.74,175.14,384.67Z" transform="translate(-109.87 -201.51)" fill="#231f20"/><path d="M357.27,374.25c-.91,0-1.65-.21-1.77-1.12-.08-.48-.74-.3-.69-.93.53-.22,1.07.45,1.48.79S357.43,373.68,357.27,374.25Z" transform="translate(-109.87 -201.51)" fill="#231f20"/><path d="M372.23,371.78c-.18.62-.94.58-1,.07S372,371.19,372.23,371.78Z" transform="translate(-109.87 -201.51)" fill="#231f20"/><path d="M250.23,380.13c.61-.07,3,0,2.92,1,0,.84-1.63.54-2.37.43s-2.3-.22-2.28-.82S249.66,380.2,250.23,380.13Z" transform="translate(-109.87 -201.51)" fill="#231f20"/><path d="M307.25,378.19c-.34-.46-.93-.65-1.16-1.25,0-.14.07-.16.07-.27s.08-.09.17-.1c.54,0,1.08.47,1.74.68a31.4,31.4,0,0,0,3.14.31c.53.11,1.56,2.08.44,2.46-.67.23-1.68-.64-2.2-.91A10.29,10.29,0,0,0,307.25,378.19Z" transform="translate(-109.87 -201.51)" fill="#231f20"/><path d="M261,380.81c-.21.87-1.78.95-3.23.94-1,0-2.36-.13-2.54-.71.18-.46.76-.34,1.22-.44C258,380.22,259.9,379.65,261,380.81Z" transform="translate(-109.87 -201.51)" fill="#231f20"/><path d="M176.92,385.88c.31.57-.44,1.33-1,.87C175.85,386.11,176.2,385.84,176.92,385.88Z" transform="translate(-109.87 -201.51)" fill="#231f20"/><path d="M161.87,387.11a1,1,0,0,1-.93.69C160.85,387.22,161.35,387.16,161.87,387.11Z" transform="translate(-109.87 -201.51)" fill="#231f20"/><path d="M191.78,385.73c.26.27-.13.57-.29.91a9.13,9.13,0,0,1-3.23,3.43c-1.13.85-2.87,2.86-4,1.53.41-1,1.4-1.51,2.39-2.75.31-.38.65-.84,1.15-1.42.36-.41.81-1.34,1.24-1.33.6,0,.52.89.88,1.1C190.88,387,190.9,386,191.78,385.73Z" transform="translate(-109.87 -201.51)" fill="#231f20"/><path d="M392.28,372.07a8.09,8.09,0,0,1,2.21,1.09,3.12,3.12,0,0,1-2.36-.72C392,372.2,392.29,372.24,392.28,372.07Z" transform="translate(-109.87 -201.51)" fill="#231f20"/><path d="M208.13,385.39a2.14,2.14,0,0,1-2.24,1.14A1.61,1.61,0,0,1,208.13,385.39Z" transform="translate(-109.87 -201.51)" fill="#231f20"/><path d="M281.31,380.27c0-.07,0-.09.08-.09s.08-.1.17-.1c1.17-.31,1.56.26,2.44.54,1.55.5,3.7.46,3.85,1.6a1.26,1.26,0,0,1-.72,1.12c-.94.27-2-.64-3.12-1.3-.47-.28-1-.46-1.47-.7S281.33,380.84,281.31,380.27Z" transform="translate(-109.87 -201.51)" fill="#231f20"/><path d="M270.75,383.33c-.82,1.2-2.84.24-4-.08l-2.09-.57c-.64-.17-1.68-.1-1.67-1,.48-.54,1.22,0,2.06.12C266.9,382.09,270.34,381.45,270.75,383.33Z" transform="translate(-109.87 -201.51)" fill="#231f20"/><path d="M275.39,382.2a1,1,0,0,1-1.21-.81C274.7,381.17,275.61,381.56,275.39,382.2Z" transform="translate(-109.87 -201.51)" fill="#231f20"/><path d="M162.6,389.91c.06.59-.87.76-1.53,1-.29.1-.63.2-1,.33-.62.26-1.17.69-1.77.12.13-.67.79-.89,1.45-.9.24,0,.49.15.72.13C161.3,390.51,161.9,389.93,162.6,389.91Z" transform="translate(-109.87 -201.51)" fill="#231f20"/><path d="M300.92,380.59c.61-.76,1.6.2,2.35.46.27.09.87.12,1.27.27.93.33,2,1.07,3.14,1.65,2.08,1,4.53,1.64,6.53,3,.85.59,2.55,1.62,2.39,2.41s-1.25.34-1.59.2a26.52,26.52,0,0,1-4.73-2.7c-1-.64-2.14-1.09-3.15-1.74a28.89,28.89,0,0,0-4.8-2.51C301.83,381.45,300.92,381.39,300.92,380.59Z" transform="translate(-109.87 -201.51)" fill="#231f20"/><path d="M396.52,374.09c0,.72-.92.65-1.64.74-.12-.66.53-.65.63-1.11C395.92,373.75,396.35,373.76,396.52,374.09Z" transform="translate(-109.87 -201.51)" fill="#231f20"/><path d="M249.12,384.66c.42-1.08,2.36-.78,3.44-.42.68.22,2,1.21.64,1.56a5.64,5.64,0,0,1-2.25-.38C250.2,385.22,249.41,385.05,249.12,384.66Z" transform="translate(-109.87 -201.51)" fill="#231f20"/><path d="M279.31,382.19a3.28,3.28,0,0,1,1.74.68c.5-.2,1.47-.17,1.38.62-1.07.11-2.06-.69-3.09-.94Z" transform="translate(-109.87 -201.51)" fill="#231f20"/><path d="M318.12,379.66c0-.07,0-.09.08-.09,1.3.09,2.77,1.11,4.12,1.67a22.42,22.42,0,0,1,3.7,2.06c1.72,1.12,3.41,2,5.39,3.27.66.43,1.5.92,1.61,1.31a1.21,1.21,0,0,1-.53,1.37c-.92.36-3.09-1.38-3.88-2-2-1.44-4.24-3.12-6.37-4.54-.93-.62-2-.94-2.78-1.5a16.35,16.35,0,0,1-1.43-1.32s0-.07,0-.09S318.05,379.68,318.12,379.66Z" transform="translate(-109.87 -201.51)" fill="#231f20"/><path d="M393.6,374.38c.3-.09.38.07.54.14a.39.39,0,0,1-.61.22A.5.5,0,0,0,393.6,374.38Z" transform="translate(-109.87 -201.51)" fill="#231f20"/><path d="M192.63,389.06c-.12,1-1.12,1.13-1.75,1.64a.45.45,0,0,0-.28-.25C190.94,389.74,191.69,388.72,192.63,389.06Z" transform="translate(-109.87 -201.51)" fill="#231f20"/><path d="M299,384.65c-.8,1-2.24.13-3-.32-.46-.26-.91-.54-1.39-.79s-1.12-.49-1.23-1c.26-.48.88-.19,1.25,0C296.55,382.65,298.17,383.18,299,384.65Z" transform="translate(-109.87 -201.51)" fill="#231f20"/><path d="M315.71,382.05a3,3,0,0,1,2,1.19C317,382.89,316,382.92,315.71,382.05Z" transform="translate(-109.87 -201.51)" fill="#231f20"/><path d="M266.91,385.73a1.82,1.82,0,0,1,1.66.77C267.88,386.4,267.11,386.4,266.91,385.73Z" transform="translate(-109.87 -201.51)" fill="#231f20"/><path d="M260.53,387.42c.06-1,1.2-.39,1.85-.31.42.06.94-.05,1.42,0,.9.07,3.36.83,3.41,1.72.07,1.19-1.36.57-2.12.24a18.75,18.75,0,0,0-3-1.12C261.53,387.81,260.85,387.91,260.53,387.42Z" transform="translate(-109.87 -201.51)" fill="#231f20"/><path d="M277.43,386c.62-.61,1.13.15,2,.4s2.22.11,2.87.33c.48.17,1.11.74,1.15,1.17a1.16,1.16,0,0,1-.64,1c-.64.16-2.31-1-2.85-1.31l-1.38-.7C278.17,386.68,277.41,386.67,277.43,386Z" transform="translate(-109.87 -201.51)" fill="#231f20"/><path d="M272.47,386.32c.34-.07.38.2.64.22C273,386.75,272.5,386.56,272.47,386.32Z" transform="translate(-109.87 -201.51)" fill="#231f20"/><path d="M275,387c.53-.14.91.31.76.66C275.27,387.76,275.09,387.46,275,387Z" transform="translate(-109.87 -201.51)" fill="#231f20"/><path d="M247.24,389.6c-.06-.28.08-.37.23-.46.66-.2,3.17.51,3.11,1.21s-1.17.35-1.68.12A6.7,6.7,0,0,1,247.24,389.6Z" transform="translate(-109.87 -201.51)" fill="#231f20"/><path d="M291.35,386.34a1.86,1.86,0,0,1,2,.75A3.89,3.89,0,0,1,291.35,386.34Z" transform="translate(-109.87 -201.51)" fill="#231f20"/><path d="M256,390.06c.18,0,.16-.25.34-.29,1,.32,4,.62,4.12,1.67a1.24,1.24,0,0,1-.56.93c-.69.27-1.64-.3-2.37-.72S256.07,390.81,256,390.06Z" transform="translate(-109.87 -201.51)" fill="#231f20"/><path d="M288.39,388.59c1-.42,1.91.74,3.47,1.18.89.25,3.13.38,3.14,1.56,0,.75-1.18,1-2,.76a14,14,0,0,1-2.52-1.6C289.67,389.94,288.1,389.22,288.39,388.59Z" transform="translate(-109.87 -201.51)" fill="#231f20"/><path d="M297.68,387.85c.91,0,2.07.72,3,.95a12,12,0,0,1,1.53.25c.66.25,1.85.9,1.88,1.38a1.07,1.07,0,0,1-.74.85c-.94.21-1.8-.79-2.95-1.4S297.75,389,297.68,387.85Z" transform="translate(-109.87 -201.51)" fill="#231f20"/><path d="M275,389.79c.37-.49.93,0,1.34.08s.93.35,1.37.44c1,.2,2.6-.09,2.5,1.43a1,1,0,0,1-.65.85c-.73.18-1.89-.91-2.4-1.26a11.23,11.23,0,0,0-1.12-.72C275.67,390.41,275,390.34,275,389.79Z" transform="translate(-109.87 -201.51)" fill="#231f20"/><path d="M320.65,387.76l0-.27c.07,0,.08-.09.17-.1a41.69,41.69,0,0,1,8.47,4c1.87,1.25,3.82,2.32,5.86,3.6.63.39,1.51,1,1.53,1.58a1.3,1.3,0,0,1-.73,1c-.79.17-2.2-1.15-3-1.66-1.95-1.31-3.44-2.52-5.26-4a11.59,11.59,0,0,0-1.31-1c-.51-.3-1.09-.4-1.56-.69-.66-.41-1.24-1-2-1.46A13.16,13.16,0,0,0,320.65,387.76Z" transform="translate(-109.87 -201.51)" fill="#231f20"/><path d="M309.17,389.19a6,6,0,0,1,2.48,1.07c-.88.24-1.6-.52-2.45-.63Z" transform="translate(-109.87 -201.51)" fill="#231f20"/><path d="M271.38,392.36l0-.27c.85-.46,1.22.38,2.09.65s2.88.33,2.95,1.4a1.09,1.09,0,0,1-.65.85c-.77.19-1.64-.69-2.31-1.17A15.76,15.76,0,0,1,271.38,392.36Z" transform="translate(-109.87 -201.51)" fill="#231f20"/><path d="M284.68,391.61a1.18,1.18,0,0,1,.83.48c-.05.21-.25.28-.42.39C284.71,392.43,284.38,391.88,284.68,391.61Z" transform="translate(-109.87 -201.51)" fill="#231f20"/><path d="M312.87,389.91c0-.22.34,0,.28.16C313,390,313,389.92,312.87,389.91Z" transform="translate(-109.87 -201.51)" fill="#231f20"/><path d="M313.25,390.15c.43.27,1,.43,1.05,1.08a.39.39,0,0,0-.34.2C313.5,391.26,313.4,390.67,313.25,390.15Z" transform="translate(-109.87 -201.51)" fill="#231f20"/><path d="M272,395.88c-.6,1-1.83.13-2.51-.27a9.86,9.86,0,0,1-2.16-1.54c0-.14.07-.16.07-.27A4.65,4.65,0,0,1,272,395.88Z" transform="translate(-109.87 -201.51)" fill="#231f20"/><path d="M255.46,395.08c.29-.67,1.17-.07,1.8.23a23.54,23.54,0,0,1,2.67,1.33c.4.25,1,.57,1,1a.91.91,0,0,1-.57.75c-1,.26-1.92-1-2.6-1.51-.45-.33-.94-.57-1.3-.8S255.5,395.63,255.46,395.08Z" transform="translate(-109.87 -201.51)" fill="#231f20"/><path d="M286.6,393.52l0-.27c.07,0,.08-.1.17-.1.47,0,1.13.54,1.92.76s1.55.09,2.25.29c1.2.34,2.23,2.31.16,2.3a5.55,5.55,0,0,1-2.49-1.25A15.6,15.6,0,0,1,286.6,393.52Z" transform="translate(-109.87 -201.51)" fill="#231f20"/><path d="M262,395.6c0-.22.12-.29.24-.37s.08-.1.17-.1a13.67,13.67,0,0,1,2.3,1c.6.32,1.79.87,1.71,1.48-.16,1.15-1.87-.05-2.34-.37A9.62,9.62,0,0,1,262,395.6Z" transform="translate(-109.87 -201.51)" fill="#231f20"/><path d="M307.75,393c0-.22.12-.29.24-.37,1.41-.09,2.62,1.08,3.77,1.7s2.38,1,3.59,1.71,2,1.32,3.35,2.08l1.76.95c.64.34,1.37.9,1.42,1.24a1.91,1.91,0,0,1-1,1.49,3.59,3.59,0,0,1-1.83-.67c-.3-.23-.46-.71-.78-1-.69-.65-1.83-1.06-2.71-1.77a39.71,39.71,0,0,0-6.54-4.44C308.58,393.66,308,393.49,307.75,393Z" transform="translate(-109.87 -201.51)" fill="#231f20"/><path d="M341.24,393.26a20.94,20.94,0,0,1-3.9-2.31c-.08-.24.16-.19.15-.37.1,0,.16,0,.18.08a14.65,14.65,0,0,1,2.89,1.85C340.83,392.71,341.27,392.89,341.24,393.26Z" transform="translate(-109.87 -201.51)" fill="#231f20"/><path d="M304.71,396.71c-.51,2-2.67-.1-3.71-.81a15.31,15.31,0,0,0-1.49-1c-.56-.29-1.2-.34-1.49-.88,0-.14.07-.16.07-.27s.08-.09.17-.1C300.51,394.59,303.29,394.86,304.71,396.71Z" transform="translate(-109.87 -201.51)" fill="#231f20"/><path d="M323.82,392.43c.72,0,1.67.4,1.23,1.07A1.69,1.69,0,0,1,323.82,392.43Z" transform="translate(-109.87 -201.51)" fill="#231f20"/><path d="M320.14,393.32c.79-.24,1.23.51,1.92.76.33.12.69.09,1,.2,1.35.5,2.56,1.84,4.2,2.73.75.4,1.51.73,2.22,1.18.36.23.69.54,1,.73s.84.25,1.19.45.9.74,1.5,1.14a12.51,12.51,0,0,1,2.62,1.86c.58.68.94,1.92.06,2.13-.51.13-1.16-.59-1.67-1-1.6-1.13-3.14-2.19-4.68-3.23-1.09-.74-2-1.62-3-2.28a32.18,32.18,0,0,1-4.38-2.81C321.53,395,319.28,394.12,320.14,393.32Z" transform="translate(-109.87 -201.51)" fill="#231f20"/><path d="M278.18,396.69c.39,0,.49.33.83.39l.25-.28c.36,0,.92.35.84.56-.13.57-.92.16-1-.2C278.71,397.14,278,397.07,278.18,396.69Z" transform="translate(-109.87 -201.51)" fill="#231f20"/><path d="M283.55,397c.51-.29,1.54.54,2.38.9s3.38,1,3.37,2.35a1.44,1.44,0,0,1-.56.84c-1,.35-2.22-1-3-1.57-.39-.26-1.08-.63-1.4-.88S282.68,397.53,283.55,397Z" transform="translate(-109.87 -201.51)" fill="#231f20"/><path d="M342.29,393c.44.16,1,.57.8,1.19-.47.18-.91-.31-1-.91A.63.63,0,0,0,342.29,393Z" transform="translate(-109.87 -201.51)" fill="#231f20"/><path d="M275.39,398.76a.29.29,0,0,1,.21.52C275.38,399.28,275.41,399,275.39,398.76Z" transform="translate(-109.87 -201.51)" fill="#231f20"/><path d="M293.37,398.66a.42.42,0,0,0,.07-.27c.07,0,.08-.1.17-.1a12.94,12.94,0,0,1,2.47,1c.68.26,1.49.37,1.91.58s1.34.89,1.35,1.42c0,.89-1.07.82-1.65.65a5,5,0,0,1-1.58-1C295,400.11,294.34,399.33,293.37,398.66Z" transform="translate(-109.87 -201.51)" fill="#231f20"/><path d="M270.2,400.9c.58-.32,1,.37,1.56.6a26,26,0,0,1,2.92,1c.27.16,1.09.86,1,1.36-.15.7-1.33.5-1.76.3a12.78,12.78,0,0,1-1.4-1c-.47-.34-.91-.75-1.32-1.07S270,401.55,270.2,400.9Z" transform="translate(-109.87 -201.51)" fill="#231f20"/><path d="M280.39,400.19c.67-.07,1,.47,1.47.7,1,.45,2,.41,3,1,.36.22,1,.65,1,.91a.92.92,0,0,1-.74.94c-1,.19-1.81-.93-2.69-1.59-.4-.3-.95-.54-1.3-.8S280.25,400.69,280.39,400.19Z" transform="translate(-109.87 -201.51)" fill="#231f20"/><path d="M309.74,398.58c1.56-.07,1.78,1.8,3.39,1.37.3.17.77.54.52,1a.75.75,0,0,1-.92-.47,16.58,16.58,0,0,1-3-1.57C309.65,398.79,309.77,398.75,309.74,398.58Z" transform="translate(-109.87 -201.51)" fill="#231f20"/><path d="M347.66,396c.68.21,1.12.78,1.79,1.48s1.72,1.32.69,2.18a14,14,0,0,1-4-1.95c-.35-.2-1-.39-1-.91,1.56.06,2.67,2,4.32,1.92A15.19,15.19,0,0,0,347.66,396Z" transform="translate(-109.87 -201.51)" fill="#231f20"/><path d="M276.27,401.19c.52-.22,1,.35,1.46.52a13.56,13.56,0,0,1,2.29.91c.59.35,1.68.81,1.71,1.48.05,1.32-1.65.68-2.3.16-.26-.2-.47-.58-.77-.84s-.65-.41-.94-.65C277.1,402.27,276.21,401.76,276.27,401.19Z" transform="translate(-109.87 -201.51)" fill="#231f20"/><path d="M265.79,402.72c0-.14.07-.16.07-.27s.08-.09.17-.1c.51.17,1.39.69,2.3,1a16.24,16.24,0,0,1,2.28.73c.6.36,1.45,1.71.23,2s-3.23-1.7-4.08-2.39C266.34,403.4,265.81,403.14,265.79,402.72Z" transform="translate(-109.87 -201.51)" fill="#231f20"/><path d="M347.14,402.56a4.25,4.25,0,0,1-2.12-1.1,41,41,0,0,0-4.94-3.13c-.31-.15-.75-.3-.94-.65l0-.27c.07,0,.08-.09.17-.1,1.86.26,4.34,2.14,6.45,3.11C346.78,400.9,348.28,401.4,347.14,402.56Z" transform="translate(-109.87 -201.51)" fill="#231f20"/><path d="M302.88,401a.39.39,0,0,1,.15-.37,30.6,30.6,0,0,1,6.61,2.92,22.46,22.46,0,0,1,3,1.84,11.71,11.71,0,0,0,1.4,1c.63.36,1.26.7,1.32,1.06a1.16,1.16,0,0,1-.81,1.13c-.79.16-2.63-1.29-3.14-1.65-1.07-.76-1.88-1.57-2.73-2.12-.55-.36-1-.6-1.49-1s-.93-.66-1.4-1A17.92,17.92,0,0,1,302.88,401Z" transform="translate(-109.87 -201.51)" fill="#231f20"/><path d="M290.4,403.32a.91.91,0,0,1,.94.65C290.91,403.87,290.39,403.9,290.4,403.32Z" transform="translate(-109.87 -201.51)" fill="#231f20"/><path d="M292.14,404c.23,0,.3.1.29.34C292.2,404.38,292.13,404.23,292.14,404Z" transform="translate(-109.87 -201.51)" fill="#231f20"/><path d="M325.53,401.66c.92,0,1.32.65,1.94,1-.62.2-1.22-.44-1.9-.49Z" transform="translate(-109.87 -201.51)" fill="#231f20"/><path d="M300.37,408.5c-.7.08-1.12-.58-1.58-1-.93-.75-2-1.41-3-2.11-.47-.32-1-.59-1.15-1.17l0-.27c.58-.37,1.28.39,2,.84s1.26.68,1.76.95C299.57,406.4,301.48,407.23,300.37,408.5Z" transform="translate(-109.87 -201.51)" fill="#231f20"/><path d="M275.9,406.11c.74-.43,2.06.84,3.12,1.3s2.73.74,2.45,2c-.33,1.49-2.31-.14-3.45-.92C277.36,408,274.69,406.83,275.9,406.11Z" transform="translate(-109.87 -201.51)" fill="#231f20"/><path d="M286.6,406.34c.42,0,.53.35.83.48C287.18,407,286.36,406.76,286.6,406.34Z" transform="translate(-109.87 -201.51)" fill="#231f20"/><path d="M290.16,411.35c-.87,1.59-3-.77-3.83-1.33-1.31-.94-2.39-1.34-3.26-2l0-.27c.07,0,.08-.09.17-.1a13.14,13.14,0,0,1,2.09.65C287.11,408.93,289.4,409.64,290.16,411.35Z" transform="translate(-109.87 -201.51)" fill="#231f20"/><path d="M291.11,407.1a4.84,4.84,0,0,1,2,1.2c1.12.89,2.32,1.47,3.73,2.41.39.26,1.62.83,1.45,1.59s-1.23.55-1.85.22c-1-.52-1.43-1.42-2.84-2.47L292,408.9C291.44,408.45,290.35,407.85,291.11,407.1Z" transform="translate(-109.87 -201.51)" fill="#231f20"/><path d="M305.56,407.6c.46.06.53-.2.68-.4.61.38,1.28.7,1.45,1.59a.45.45,0,0,0-.25.28,5.3,5.3,0,0,1-2-1.28,5.63,5.63,0,0,1-1.75-.86l0-.27C304.52,406.32,304.84,407.43,305.56,407.6Z" transform="translate(-109.87 -201.51)" fill="#231f20"/><path d="M322.52,406.86c-.49.08-.6-.27-.83-.48a3.84,3.84,0,0,1-1.38-.62l0-.27c.39-.3.89.25,1.33-.09C322,405.69,323,406.17,322.52,406.86Z" transform="translate(-109.87 -201.51)" fill="#231f20"/><path d="M325.88,406.62c0-.22.12-.29.24-.37a12.71,12.71,0,0,1,3.14,1.56c1,.54,1.93,1,3,1.66,1.31.77,2.89,1.48,4.44,2.45.6.37,1.14.83,1.15,1.17,0,1.29-2.09.73-2.64.45a14.21,14.21,0,0,1-2.27-1.89c-.58-.43-1.28-.76-1.86-1.2s-1.11-.91-1.69-1.31C328.16,408.32,326.75,407.76,325.88,406.62Z" transform="translate(-109.87 -201.51)" fill="#231f20"/><path d="M318.22,407.87h.18c.86.29,2,.77,2.16,1.54a21.64,21.64,0,0,0-2.3-1.09Z" transform="translate(-109.87 -201.51)" fill="#231f20"/><path d="M312,410.44c0-.1,0-.16.08-.18s.15-.12.18,0a18.33,18.33,0,0,1,4.32,2c.56.34,1.15.93,1.88,1.38.53.33,1.64.81,1.71,1.48a1.17,1.17,0,0,1-.64,1c-.52.11-1.7-1-2-1.28-1.41-1-2.44-1.93-3.85-2.85C313,411.62,312.11,411.26,312,410.44Z" transform="translate(-109.87 -201.51)" fill="#231f20"/><path d="M337.55,409.19c.36.38,1.05.38,1.06,1.17C338.06,411.08,337,410,337.55,409.19Z" transform="translate(-109.87 -201.51)" fill="#231f20"/><path d="M303.64,411.92c.22-.07.17-.33.42-.3.82.11,2.16,1.27,3.15,1.83s2.17.88,3.31,1.55,2.07,1.35,3,2,2.64,1.41,2.74,2.21a1.29,1.29,0,0,1-.89,1.31c-.94.16-2.62-1.44-3.16-1.92-1-.91-1.92-1.68-2.75-2.39a25.82,25.82,0,0,0-3-2.1C305.45,413.47,304.23,413,303.64,411.92Z" transform="translate(-109.87 -201.51)" fill="#231f20"/><path d="M298.43,415c0-.14.07-.16.07-.27s.08-.09.17-.1h.18c1.67.77,3.25,2,5,2.85a7.88,7.88,0,0,1,1.3.71c.39.3.73.55,1.13.81.83.55,1.59,1.16,2.34,1.62s1.6.6,1.7,1.39c.06.46-.47,1.37-1.06,1.41s-2.4-1.71-2.81-2c-1-.81-1.69-1.78-2.48-2.41C301.88,417.36,300,416.56,298.43,415Z" transform="translate(-109.87 -201.51)" fill="#231f20"/><path d="M300,418a.86.86,0,0,1,.67.67C300.4,418.75,300,418.42,300,418Z" transform="translate(-109.87 -201.51)" fill="#231f20"/><path d="M320.9,420.68c-.82-.33-1.68-.62-2.06-1.46.07-.08.24-.07.25-.2A5.06,5.06,0,0,1,320.9,420.68Z" transform="translate(-109.87 -201.51)" fill="#231f20"/><path d="M321.62,420.81c.19-.05.18.11.2.25-.07,0-.09-.08-.18-.08Z" transform="translate(-109.87 -201.51)" fill="#231f20"/><path d="M312.79,421.78a19.32,19.32,0,0,1,2.38,2.15,3.55,3.55,0,0,1-1.39-.7,10.74,10.74,0,0,1-1.23-1.07C312.56,422,312.71,421.91,312.79,421.78Z" transform="translate(-109.87 -201.51)" fill="#231f20"/><path d="M332.62,452" transform="translate(-109.87 -201.51)" fill="#fff"/><path d="M328.8,448.35a4,4,0,0,1-1.22-2.23c1.11.42,1.47,1.69,2.8,1.85" transform="translate(-109.87 -201.51)" fill="#fff"/><path d="M297.85,352.05c.83-.34,1.31.53,2,.66,0,.1-.09.06-.09,0C299.12,352.51,298.24,352.56,297.85,352.05Z" transform="translate(-109.87 -201.51)" fill="#231f20"/><path d="M300,352.88c0-.2.86.2,1.09.37C300.85,353.41,300.35,353,300,352.88Z" transform="translate(-109.87 -201.51)" fill="#231f20"/><path d="M354.72,356.89c.53-.27.87.34,1.2.63,1,.88,2.22,1.84,3.22,2.8.43,0,.47-.31.87-.33.11.29.51.24.49.68a.8.8,0,0,0-.33.38,39.89,39.89,0,0,1-4.58-3.15C355.28,357.66,354.76,357.36,354.72,356.89Z" transform="translate(-109.87 -201.51)" fill="#231f20"/><path d="M374.81,364.12c.95-.06,1.68.94,2.5,1.34a4.42,4.42,0,0,1-1.45-.43C375.4,364.84,374.66,364.64,374.81,364.12Z" transform="translate(-109.87 -201.51)" fill="#231f20"/><path d="M370.53,371.72c0-.21.24.08.36.06C370.83,372.06,370.65,371.7,370.53,371.72Z" transform="translate(-109.87 -201.51)" fill="#231f20"/><path d="M345.49,404.45c0-.13.08,0,.18,0a4.79,4.79,0,0,1,1.6,1.22c.31.31.89.68.62,1.2-.75.34-1.37-.57-1.33-1.15A5.78,5.78,0,0,0,345.49,404.45Z" transform="translate(-109.87 -201.51)" fill="#231f20"/><path d="M296.1,416.18a5.17,5.17,0,0,1,1.95,1.11C297.54,417.14,296.31,417,296.1,416.18Z" transform="translate(-109.87 -201.51)" fill="#231f20"/><path d="M234.12,378c-4.35.65-7.41,1.13-9.7,3-.78.64.33,1-.92,2.75-1,1.36-1.54,1.46-1.69,2.21.85,1.13,1.49-.4,2.22-.52,1.54-.27,1.55,1.11,2.24,2.21a2.67,2.67,0,0,0,1.67-.24,7.33,7.33,0,0,0,.1-2,12.72,12.72,0,0,0,2.94-2c.8-.86.92-1.78,1.33-3.15a3.19,3.19,0,0,1,2.25-1.8c.24-.09,1.07,0,.93-.62C235.17,377.33,234.51,377.9,234.12,378Z" transform="translate(-109.87 -201.51)" fill="#231f20"/><path d="M231.69,379.27c.09,3.17-2.47,5.37-5.86,5.42-.51,0-1.53-.21-1.74-.56s.45-1.24.59-1.82a2.87,2.87,0,0,0,1.54,1.46c1.47.49,4-.74,3.56-2.81-.11-.54-.46-.6-.56-1.29A17.37,17.37,0,0,1,231.69,379.27Z" transform="translate(-109.87 -201.51)" fill="#fff"/><path d="M229,381.55c-.64-.14-.65-1.05-1-1.52C228.55,379.21,229.54,380.84,229,381.55Z" transform="translate(-109.87 -201.51)" fill="#fff"/><path d="M306.32,455.47a21.26,21.26,0,0,1,2.36-.88c1.71-.56,3.61-.77,4.81-1.68s2-3,2.26-4.82c-.73-.57-1.64-1.76-2.88-1.5a42.44,42.44,0,0,0-6.49,2.07,14.56,14.56,0,0,0-1.49.55c-1.26.67-2.52,1.67-3.79,2.24s-2.85,1-2.63,2.16c.18.95,2,1,3,1.41s1.82,1.43,2.61,1.43A7.29,7.29,0,0,0,306.32,455.47Z" transform="translate(-109.87 -201.51)" fill="#0072bc"/></svg>