<svg xmlns="http://www.w3.org/2000/svg" xmlns:xlink="http://www.w3.org/1999/xlink" viewBox="0 0 592.5 788.4"><defs><linearGradient id="a" x1="313.03" y1="464.77" x2="649.78" y2="464.77" gradientTransform="matrix(1, 0, 0, -1, -103.74, 792)" gradientUnits="userSpaceOnUse"><stop offset="0" stop-color="#e2e2e2"/><stop offset="0.38" stop-color="#e0e0e0"/><stop offset="0.52" stop-color="#d9d9d9"/><stop offset="0.62" stop-color="#cdcdcd"/><stop offset="0.7" stop-color="#bdbdbd"/><stop offset="0.77" stop-color="#a7a7a7"/><stop offset="0.82" stop-color="#8b8b8b"/><stop offset="0.88" stop-color="#6b6b6b"/><stop offset="0.93" stop-color="#454545"/><stop offset="0.97" stop-color="#1c1c1c"/><stop offset="1"/></linearGradient></defs><title>vatnaliljur</title><path d="M420.6,104.2c15.2-12,29.5-23.2,43.8-34.6,8.1-6.5,11.4-14.6,8.7-25s-.3-17.3,3.8-25.6c2.2-4.5,2.6-9.9,3.9-15.1,15.4,3.1,18.1,30.8,4.1,55.8,9.7-4.9,19.5-9.7,29.2-14.7,1.2-.6,2.1-2.1,2.8-3.4,6.2-11.9,12.5-23.9,20.2-35.1,6.9,16.3-3.9,26.2-14.3,36.9,26.7-1.5,46.6-12.3,61.2-33.1l2.9,1.8c-1.8,6.9-3.7,13.9-5.6,21.2l9.2,1.7c0,.6.1,1.1.1,1.7l-12.8,3.8C588.9,51,597,61.8,589.7,77.7c2.6-13.8-6.4-18-16.2-21.9-2.7-1-5-3.1-7.1-5.1-11.2-10.5-15.7-11-29.7-3.3,8.8,7.8,19,14.8,26.4,24s9.7,22.2,5.2,35c-.7-2.6-1.3-5.3-2.2-7.9-2.3-6.9-6.7-11.2-14.4-10.3s-12.5-3.3-14.3-10.9a155.6,155.6,0,0,0-5-16c-2.2-6.4-6.8-9.5-13.7-8.5-19.6,2.8-35.2,13.6-50.3,26,17.3-.7,35.7-11.1,50.6,6.9l-5.4,6.1c8.2,12.7,18.2,24.8,12.5,43.1-2.7-7.1-3.5-13.4-7-17.4s-9.8-5.9-14.6-8.6c-6.9,9.1-11.8,8.6-18.8-.9-14-18.9-39.3-19.7-54.6-1.7-.9,1-1.3,2.5-3.1,6,5.8-1.3,9.9-1.9,13.7-3.2,10.7-3.7,20.4-1.9,29.1,4.8,2,1.5,3.9,6.5,3.1,7.6-4.4,5.4-1,8.6,2.3,12.1,6.8,7.3,9.6,15.7,7.4,25.2l-15.9-16.9c-8,11.6-9.2,11.7-18.8,3.3-5.3-4.6-10.2-9.8-16-13.8s-14.7-6-22.8-2.7c-12.9,5.3-22.4,14.4-32.4,27.2,7,0,11.9.9,16.3-.1,27.8-6.7,52.5-2.7,73.3,18.6,2.7,2.7-378.3,2.9-376-4.1s8.1-10.3,12-15.7c1.8-2.5,4.4-6.4,3.6-8.5-2.5-6,.4-7.9,5-9.8,10-4.2,19.4-3.6,28.8,1.7,3.4,2,7.2,3.4,12.7,6-2.9-11.6-10.2-16.2-17.5-20.8-13.8-8.6-24-7.6-36.2,3.1a38.4,38.4,0,0,1-10,7c-5.5,2.3-9.3.7-8.3-6.3-14.5-1.7-23.9,4.3-26.9,20.6-4.5-12.4-1.4-18.5,18.9-40.7l-5.1-8.1c6-1.9,11.6-4.9,17.2-5.2s11.3,1.6,16.7,3.4,11.3,4.8,18.9,8.2c-1.7-3.5-2-5.6-3.3-6.6-12-9.8-23.7-20.3-36.7-28.7-10.4-6.7-16-4.1-22.4,6.7-1.9,3.3-3.5,6.8-5.1,10.3-3.6,7.9-8.4,12.2-18.1,9-7.4-2.4-12.3,2.3-15.5,8.5-1.2,2.2-1.8,4.7-3,7.8-3.1-11.2.9-26.4,11.2-34.7S48.7,64.9,59.8,58.3c-4.9-2.5-10.3-6.1-16.2-7.8-2.9-.9-7,1.3-10.3,2.7-5.3,2.3-10.1,6.5-15.6,7.6C8.1,62.7,2,66.9,1.7,78.2-2.7,66.2.6,60,19.4,43.6L8.9,38.1c0-.5.1-1.1.1-1.6l9.3-.7C17.7,28.9,17,22,16.4,15.2l2.9-1.1c4.7,7.3,9.4,14.7,14.2,22,1.3,1.9,2.5,4.4,4.4,5.4A377.4,377.4,0,0,0,72.4,57.6c-6.2-12.5-16.3-23.8-8-38.2l3.4-.9C71.6,30.7,75.3,43,79.5,55c1.3,3.7,3.5,7.7,6.5,10.1,6.6,5.4,13.9,9.8,20.6,14.4-.9-10.6-3.7-21.1-2-30.9s8.1-19.4,17.6-22.9c.7,7.3,2.1,14.4,2,21.4s.1,15.1-2.5,21.5c-3.9,9.5-2.6,17.4,3.4,24.7,11.9,14.5,24.3,28.6,37.5,44.1-1.2-16.8-10.2-35.4,13.2-43.4,1.2,6.5,3.3,12.5,3,18.3s-2.6,10.1-5.5,14.2c-7.4,10.3-6.6,20.4,3.9,27.3,1.8,1.2,5.6.7,8-.2,44.7.4,122.5-4.9,174.3-6.6,8.1-.3,11.5,2.9,17.2-3.3,9.7-10.6,20.8-20,31.5-29.6,6.9-6.2,9.2-12.7,4.7-20.2s-6.1-15.6-1-24c1.7-2.8,1.9-6.5,2.8-9.8,9.4,3.5,15.2,11.2,13.4,19.1s-4.8,16-7.5,25M160.4,162.3c-10.2-4.2-22-.3-27.2,7.5l27.2-7.5" transform="translate(0 -3.9)" fill="#818181"/><path d="M552.4,174.1c-20.1-1.5-38.6-2.7-57-4.4-4.1-.4-55.4-2.5-119.9-31.4-29.5-13.3-56-31.1-78.8-54.9-2.2,1.9-4,3.4-5.6,5-25.7,25.7-56.4,43.3-89.9,56.5-37.4,15.5-99.9,24.8-106,25.2-17.8,1.1-35.7,2.6-53.9,4-.2,1.2-.5,2.3-.6,3.4a843.7,843.7,0,0,0,6.7,145.6c12.1,93,38,182,81.1,265.6,39.9,77.4,91.9,145.3,160.3,200,6.1,4.9,10.2,4.6,15.6-.3,14.4-13.1,29.7-25.2,43.5-38.9,77.3-76.8,128.8-169.2,162.8-272,26-78.6,39.3-159.4,41.6-242.1.6-20.4.1-41,.1-61.3" transform="translate(0 -3.9)"/><path d="M534.3,192.8c-18.7-1.4-35.9-2.5-53-4.1-3.8-.4-51.5-2.3-111.4-29.2-27.4-12.4-52-28.9-73.2-51-2,1.8-3.7,3.2-5.2,4.7-23.9,23.9-52.4,40.2-83.6,52.5-34.8,14.4-92.8,23-98.5,23.4-16.5,1-33.2,2.4-50.1,3.7-.2,1.1-.5,2.1-.6,3.2a784.1,784.1,0,0,0,6.2,135.3c11.3,86.4,35.4,169.1,75.4,246.9,37.1,71.9,85.4,135,149,185.9,5.7,4.5,9.5,4.3,14.5-.3,13.4-12.2,27.6-23.4,40.4-36.2,71.8-71.5,119.7-157.3,151.3-252.8,24.2-73,36.5-148.1,38.7-225,.6-19,.1-38.1.1-57" transform="translate(0 -3.9)" fill="#fff"/><path d="M528.8,198.4c-18.2-1.4-35-2.4-51.8-4-3.7-.4-50.3-2.3-108.9-28.5-26.8-12.1-50.9-28.2-71.6-49.9-2,1.7-3.6,3.1-5.1,4.5-23.3,23.3-51.2,39.3-81.6,51.3-34,14.1-90.7,22.5-96.3,22.9-16.2,1-32.4,2.4-49,3.6-.2,1.1-.4,2.1-.5,3.1a766.2,766.2,0,0,0,6.1,132.2c11,84.5,34.5,165.3,73.6,241.2,36.2,70.3,83.5,132,145.6,181.6,5.5,4.5,9.3,4.2,14.2-.3,13.1-11.9,27-22.9,39.5-35.3,70.2-69.7,117-153.7,147.9-247,23.6-71.4,35.7-144.8,37.8-219.9.5-18.5.1-37.2.1-55.7" transform="translate(0 -3.9)"/><path d="M525.7,201.6c-18-1.3-34.6-2.4-51.1-3.9-3.7-.4-49.6-2.2-107.4-28.1-26.4-11.9-50.2-27.9-70.6-49.2a67.1,67.1,0,0,0-5,4.5c-23,23-50.5,38.8-80.5,50.6-33.5,13.9-89.5,22.2-95,22.6-15.9,1-32,2.3-48.3,3.6-.2,1.1-.4,2.1-.5,3a755.8,755.8,0,0,0,6,130.5c10.8,83.3,34,163,72.7,237.9,35.8,69.3,82.4,130.1,143.6,179.1,5.5,4.4,9.1,4.1,14-.3,12.9-11.7,26.6-22.6,39-34.8,69.3-68.8,115.4-151.6,145.8-243.7,23.3-70.4,35.2-142.8,37.3-216.9.5-18.3,0-36.7,0-54.9" transform="translate(0 -3.9)" fill="#fff"/><path d="M523.9,203.5c-17.9-1.4-34.3-2.4-50.6-3.9-3.6-.4-49.2-2.2-106.6-27.9-26.2-11.8-49.8-27.6-70-48.8-2,1.7-3.6,3-5,4.4-22.8,22.8-50.1,38.5-79.9,50.2-33.2,13.8-88.8,22-94.2,22.4-15.8,1-31.7,2.3-47.9,3.6-.2,1.1-.4,2-.5,3a749.8,749.8,0,0,0,6,129.4c10.8,82.7,33.8,161.8,72.1,236.1,35.4,68.8,81.6,129.2,142.4,177.8,5.4,4.4,9.1,4.1,13.9-.3,12.8-11.6,26.4-22.4,38.7-34.6,68.7-68.3,114.5-150.4,144.7-241.8,23.1-69.9,34.9-141.7,37-215.2.5-18.1.1-36.4.1-54.5" transform="translate(0 -3.9)"/><path d="M326.6,572.8c9.2-.5,18.8-2.2,28.2-1.4,22.6,1.9,32.6,24,23.9,44.5-2.3,5.4-2.8,12.1-6.3,16.5-11.4,14.3-23.2,15-37.1,3.2-2.2-1.9-4.3-4-8-5.3,1.5,3.1,2.7,6.3,4.6,9.1,6.4,9.4,4.8,18.6.8,28.5S320.2,683.5,311,687c-3.5,1.3-9.9-1.1-13.3-3.9-16.6-13.5-21.6-42-12.2-61.8-4.2,3.7-8.3,7.5-12.6,11.1-12.9,10.8-27.1,17.8-44.5,14.7-10.5-1.9-12.7-4.8-13-15.6a9.9,9.9,0,0,0-1.3-4c-6.5-12.4-3.4-23.3,8.9-30.4a51.1,51.1,0,0,1,11.4-4.5c3.9-1.1,8-1.6,10.4-2.1-4.9-5.7-11.8-11.5-15.9-18.8s-8.1-18-10.4-27.5c-1.2-5.1,1.3-10.5,8.7-10.6,2,0,5.2-1.3,5.9-2.9,3.1-7.1,9-7.1,14.9-6.1,16.2,2.6,29.8,9.2,37,25.1a27.7,27.7,0,0,0,2.2,3.7c.1.2.6.1,1.2.3-.5-4.7-1.3-9.3-1.5-13.9-.7-17.8,8.9-29.4,23.8-37,2.3-1.2,7.4.2,9.7,2.2,17,14.6,21.3,40.9,10.3,60.5-1.4,2.9-3.1,5.6-4.1,7.3m-14.1,37.9-6.7-8.3c2-6.6,3.6-11.9,5.8-19.4l-8.4,5.7c-.3-2.3-.4-4-.7-6.4l-7.3,4.1-3.6-5.6c-.7,8.4-1.2,14.8-1.7,21.9l8.5-.5c-1,8.1,6.7,5.5,14.1,8.5" transform="translate(0 -3.9)" fill="#fff"/><path d="M428.3,380.4c-6.5,11.8-18.2,23.4-30.3,32.5s-31.8,8.1-46.5,1c-10-4.8-18.5-5.1-28.8.1-13.9,7-29.3,9.2-44.7,4.5a35.7,35.7,0,0,1-12.4-6.4c-7-5.8-7.2-16.1.7-20.2s16.6-6.4,24.8-5.9c9.7.6,19.1,5.3,28.9,7.6,2.6.6,7.3-.5,8.3-2.3,6.7-12.4,12.6-25.2,19.4-39.3-16.1-3-31.2-6-41.8-18.3s-12.6-26.7-12.5-42.9c-5.8,8-11.7,15.9-17.4,24-18.6,26.6-36.6,53.5-60.9,75.5-16.7,15.1-35.9,28.1-48,31.3-.3-1.3-.7-2.1-.5-2.4,12.2-21.1,15.3-45,19.9-68.3,5.8-29,18.9-54.3,37.5-77.3-9.7,6.7-19.4,13.6-29.3,20.1a44.6,44.6,0,0,1-11.9,5.6c-10.8,3.1-19-5.2-15.6-16,1.5-4.7,4.2-9.1,6.6-13.4s5.2-8.4,7.8-12.6l-1.5-2.7c-4.7,2-10.4,2.9-13.9,6.1-10.2,9.3-19.5,19.6-29.1,29.5-2.8,2.9-5.1,6.1-8.4,10.2-.6-2.4-1.2-3.5-.9-3.8,13.1-13.8,26.4-27.5,39.6-41.2l.8-.4c7.2-3.8,15.2-7.6,22.1-1s3.9,14.7.1,22-7,12.5-9.5,19.6c29.7-13.4,51.9-36.6,78-57.9-.5,3.4-.2,4.9-.9,5.8-15.3,22.2-23.6,47.4-30.7,72.9-9.7,34.4-23.5,66.7-47.6,93.7-.3.3-.1,1-.2,2.2C198.6,401,214,386,227.4,369.4c20-24.8,38.4-50.8,58.9-75.2,13.1-15.6,23.1-34,41.6-44.9s38.7-18.6,61.2-15.1a43.9,43.9,0,0,1,6,1.5,38.8,38.8,0,0,1,4.8,2.4c-3.3.6-4.8,1.4-6,1-47.3-11.6-87.4,33.1-85.5,74.9,1.2,26.6,19.9,32.7,38,31.4,2.2-.2,4.8-3.6,6.2-6,13-22.8,24.7-46.3,38.9-68.2,7.5-11.6,18.7-21.1,29.4-30.2a33.2,33.2,0,0,1,29-7.3c8.7,1.8,13.2,7.2,14.5,15.6,1.9,12.4-2.1,23.3-8.9,33.3-16.7,24.3-38.7,42.6-63.7,57.8a28,28,0,0,0-10.5,11.9c-7.9,18.1-17.7,34.6-33.3,47.2a30.2,30.2,0,0,0-3.1,3.1,6,6,0,0,0-.6,1.6c17.2,13.7,39,14.3,55.9,1m-15.5-69.5,3.6,1.9a149.8,149.8,0,0,0,57.2-58.3c4.3-7.8,6.9-16.9,8.6-25.8,2.6-13.5-6-19.9-19.1-15.3-10.5,3.7-17.6,11.7-21.4,21.2C403.3,284.5,394.2,310.2,384.7,335.7Zm-62,64.9c-12.4-7-25.3-11.9-39.7-11.5-4.2.1-8.7,2-12.4,4.1-7.6,4.4-7.9,12.7-1,18.1,14.6,11.3,42.7,6.1,53.1-10.7" transform="translate(0 -3.9)" fill="url(#a)"/><circle cx="512.9" cy="209.3" r="4.7" fill="#fff"/><circle cx="81.8" cy="210.3" r="4.6" fill="#fff"/><circle cx="296.3" cy="732.8" r="4.7" fill="#fff"/></svg>