<svg xmlns="http://www.w3.org/2000/svg" xmlns:xlink="http://www.w3.org/1999/xlink" viewBox="0 0 425.2 291.57"><defs><clipPath id="a" transform="translate(138 70.73)"><rect x="-138" y="-71" width="425.76" height="292.8" fill="none"/></clipPath></defs><title>vaengirjupiters</title><path d="M-41.95-29.65c11.64-1,20.33-4.14,28.39-12.62a42.15,42.15,0,0,0,8-11.89,33.8,33.8,0,0,0,3-15l-.06-1.54H151.93l.05,1.43a40.72,40.72,0,0,0,12,28,38.52,38.52,0,0,0,27.38,11.67l1.42,0,0,1.42c.2,12.21.35,24.43.22,36.65-.12,10.82-.46,21.65-1.31,32.44a352.77,352.77,0,0,1-5.06,38.36A308.35,308.35,0,0,1,178,113.91q-1.06,3.38-2.2,6.73c-8.82,26.1-22.48,52.57-42,72.28-15.58,15.71-35.43,27.41-58,27.9-14.36.31-28.3-4.57-40.38-12.12-14.67-9.17-26.91-22.3-36.58-36.53-11.36-16.72-19.85-35.58-26.08-54.77A307.5,307.5,0,0,1-39.8,62.9c-1.84-13.65-2.84-27.42-3.35-41.18-.62-16.63-.55-33.3-.15-49.93l0-1.33Zm0,0" transform="translate(138 70.73)" fill="#1b1918" fill-rule="evenodd"/><path d="M-1.11-69.25H150.5A42.15,42.15,0,0,0,163-40.3a40,40,0,0,0,28.38,12.1c.43,25.94.52,48.7-1.09,68.94-2.37,30-7.64,55-15.9,79.42-20.23,59.88-58,98.3-98.69,99.17-26.09.56-54.16-16.28-75.7-48-10.15-14.95-19-33.18-25.9-54.39A301.43,301.43,0,0,1-38.33,62.7c-3.37-25.09-4.37-54-3.49-90.87,14.1-1.19,22.27-5.64,29.34-13.08C-6-48-.65-58-1.11-69.25Zm0,0" transform="translate(138 70.73)" fill="#e1dfdc" fill-rule="evenodd"/><path d="M2.69-61.19C1.56-49-1.77-41.19-7.86-34.73-16-26.22-24.63-23.2-35.63-22.94c-1.19,48.8.89,93.53,15.38,138.12A209.11,209.11,0,0,0,5.17,167.89c15.56,22.92,40.77,44.22,70.34,43.4C96,210.73,114,201.2,128.19,187c18.88-18.87,32.38-43.61,40.86-68.71q1.25-3.7,2.41-7.44C184.89,67.36,185.82,23,185.11-22.9c-11.95-.65-20.6-4.31-27.81-11.46-7.6-7.54-9.73-15.77-10.75-26.83Zm0,0" transform="translate(138 70.73)" fill="#1b1918" fill-rule="evenodd"/><path d="M-34.18-21.51c-.7,30.37-.16,60.91,4.59,91a295.41,295.41,0,0,0,10.75,45.26A207.27,207.27,0,0,0,6.4,167.05a120.74,120.74,0,0,0,19.24,22.16c8.36,7.47,18,13.74,28.71,17.34a60.73,60.73,0,0,0,21.12,3.26c20-.55,37.7-9.84,51.68-23.81,18.71-18.7,32.08-43.21,40.5-68.13q1.25-3.69,2.39-7.4c13.27-43,14.27-87.36,13.61-132-10.68-.8-19.65-4.11-27.39-11.8s-10-16-11-26.4H4C3-49.8.23-41.14-6.79-33.71c-7.84,8.25-16.37,11.7-27.39,12.2Zm0,0" transform="translate(138 70.73)" fill="#1b1918" fill-rule="evenodd"/><path d="M-20-8.54H11.09l7.75,110.68L67.68-8.51,104-8.6,35.64,150.34l-41.89-.24Zm0,0" transform="translate(138 70.73)" fill="#a49c94" fill-rule="evenodd"/><path d="M148.68-8.54h33.2L161,92.34c-3.28,15.83-14,62.86-36.16,61.64l-68.26-3.76,17.24-36.6,35.19-.06c10.61,0,18.5-19.83,21.13-32.5Zm0,0" transform="translate(138 70.73)" fill="#a49c94" fill-rule="evenodd"/><path d="M26.05-59.71V189.58l-.42-.37q-2.54-2.27-4.95-4.71V-59.71Zm0,0" transform="translate(138 70.73)" fill="#e0dedc" fill-rule="evenodd"/><path d="M-8.29-32.2V141.31q-2.88-6-5.36-12.26V-27.82A40.69,40.69,0,0,0-8.29-32.2Zm0,0" transform="translate(138 70.73)" fill="#e0dedc" fill-rule="evenodd"/><path d="M60.39-59.71v268q-2.71-.63-5.37-1.49V-59.71Zm0,0" transform="translate(138 70.73)" fill="#e0dedc" fill-rule="evenodd"/><path d="M94.51-59.71V206.54q-2.64.85-5.36,1.49V-59.71Zm0,0" transform="translate(138 70.73)" fill="#e0dedc" fill-rule="evenodd"/><path d="M128.63-59.71V184.48L127.14,186q-1.89,1.89-3.87,3.66V-59.71Zm0,0" transform="translate(138 70.73)" fill="#e0dedc" fill-rule="evenodd"/><path d="M163-27.9V130.39q-2.48,6-5.36,12V-32A39.62,39.62,0,0,0,163-27.9Zm0,0" transform="translate(138 70.73)" fill="#e0dedc" fill-rule="evenodd"/><path d="M26.05,85.81v64.48l-5.37,0V98Zm0,0" transform="translate(138 70.73)" fill="#f1eeed" fill-rule="evenodd"/><path d="M-8.29-8.54v135.2L-13.65,64.9V-8.54Zm0,0" transform="translate(138 70.73)" fill="#f1eeed" fill-rule="evenodd"/><path d="M60.39,8V92.78L55,105.26V20.18Zm0,0" transform="translate(138 70.73)" fill="#f1eeed" fill-rule="evenodd"/><path d="M94.51-8.58v22L89.14,25.91V-8.56Zm0,0" transform="translate(138 70.73)" fill="#f1eeed" fill-rule="evenodd"/><path d="M60.39,142.08v8.35l-3.84-.21Zm0,0" transform="translate(138 70.73)" fill="#f1eeed" fill-rule="evenodd"/><path d="M94.51,113.59v38.72L89.14,152V113.6Zm0,0" transform="translate(138 70.73)" fill="#f1eeed" fill-rule="evenodd"/><path d="M128.63,87V153.7a14.86,14.86,0,0,1-3.82.28l-1.55-.09v-53.2A77.74,77.74,0,0,0,128.63,87Zm0,0" transform="translate(138 70.73)" fill="#f1eeed" fill-rule="evenodd"/><path d="M163-8.54V82.74l-2,9.6c-.74,3.55-1.85,8.67-3.37,14.46V-8.54Zm0,0" transform="translate(138 70.73)" fill="#f1eeed" fill-rule="evenodd"/><path d="M-33.59,150.57a346.68,346.68,0,0,1,45.53-11.44,344.38,344.38,0,0,1,44.3-4.94q9.36-.44,18.73-.42,14.9,0,29.76,1.29a350.08,350.08,0,0,1,77,15.86l1.43.46-5.34,16.1c9.36,3.08,18.77,6.73,26.85,10.25-9.95,2.86-18.62,5.67-26.38,8.54,4.87,8.84,9.11,16.34,12.17,23.69a294.89,294.89,0,0,0-37.21-13.22l4.44-16.29a300.46,300.46,0,0,0-82-11.42,339.23,339.23,0,0,0-50.49,3.82,289,289,0,0,0-35.55,7.64l4.43,16.25a295,295,0,0,0-37.21,13.22c3.06-7.36,7.3-14.85,12.17-23.69-7.76-2.87-16.43-5.68-26.38-8.54,8.31-3.62,18-7.38,27.67-10.52L-35,151Zm0,0" transform="translate(138 70.73)" fill="#1b1918" fill-rule="evenodd"/><path d="M-33.13,152-23,182.86C7.93,172.3,43.3,167.58,75.67,167.54A303.57,303.57,0,0,1,171.14,183l10.18-30.65c-36.5-11.74-70.63-17-106.35-17.08A341.49,341.49,0,0,0-33.13,152Zm0,0" transform="translate(138 70.73)" fill="#d0cecb" fill-rule="evenodd"/><path d="M-40.27,207.1q4-1.68,8-3.22c7.87-3,15.87-5.58,23.93-8L-24,184.35l-.19-.55,0,0-.63-1.92-.76-2.24h0l-3.62-11c-8,2.61-16,5.59-23.75,8.85,7.57,2.25,15.1,4.68,22.51,7.41l1.62.6-.83,1.51c-3.62,6.57-7.47,13.26-10.6,20.13Zm32.11-12.93-3.62-13.29q-5.1,1.48-10.11,3.18Zm0,0" transform="translate(138 70.73)" fill="#d0cecb" fill-rule="evenodd"/><g clip-path="url(#a)"><path d="M187.62,207.1q-4-1.68-8-3.22c-7.84-3-15.82-5.56-23.86-8l16.46-11.46,1.11-3.36,4.06-12.23c7.74,2.54,15.42,5.43,22.92,8.58-7.57,2.25-15.1,4.68-22.51,7.41l-1.62.6L177,187c3.62,6.57,7.47,13.26,10.6,20.13Zm-32.14-12.8,3.66-13.45q5.45,1.56,10.88,3.33Zm0,0" transform="translate(138 70.73)" fill="#d0cecb" fill-rule="evenodd"/><path d="M-38.57,70.69c-.23.88-.36,1.77-.52,2.64a7.42,7.42,0,0,0-.1,2.49,19.25,19.25,0,0,0,2.93,6.75C-37,79-38,74.3-38.57,70.69ZM-73.07,48c-18-14.83-33.09-30.4-43.26-47.25-11.34-18.79-17-38.48-19.49-59.36-4.63,19.43-1.92,39.58,8.34,60.15a131.26,131.26,0,0,0,13.72,21.57c4.32,5.59,8.86,12.41,14.33,18,7,7.23,16.21,14,24.66,21.64.93.84.15,1.78-1.32.53-.8-.68-1.6-1.38-2.43-2.1-.41-.36-1.15-.48-1.59-.82-4.21-3.32-8.75-7.25-13.05-11.14-2.81-2.55-4.82-5-7.57-7.29-7.6-6.42-15.61-11.42-21.69-11.29,1,4.12,4.13,8.83,6.58,12.32,5.59,8,12.35,13.28,19.07,19.59A29.82,29.82,0,0,0-94,64.43c3.1,2.25,5.76,4.59,9,6.1s9.47,4.15,10.19,5.07a5,5,0,0,1-3-.06,42.58,42.58,0,0,1-8.71-3.66c-2.47-1.3-4.75-2.74-7.42-4.4-1.54-1-2.91-2.49-4.46-3.45-4.66-2.88-9.75-5.46-14-4.57,2.48,6.07,11.59,14.53,18.66,19.37,6.85,4.69,14.56,8.26,21,8.86,1.06.1,1,1.71-.8,1.58-4.11-.29-8.08-1.93-12-3.74a44.18,44.18,0,0,0-5.33-2.25,56.85,56.85,0,0,0-17-2.74c3.41,5.56,9.05,9.15,13.89,12,8.34,5,17,5.58,25.9,9.13.55.22-.65.86-1.68.79-3.76-.25-7.07-1.39-10.7-2.21a117.21,117.21,0,0,0-14.34-2.71,4.06,4.06,0,0,0-2.93.87c2.77,4.07,11,8.52,17.17,11.29,5.69,2.56,11.89,4.09,18.12,5.77,1.22.33,3,1.16,4.68,1.68s3.16.75,4.14,1.64c-2.07.23-11.73-1.9-12.8-2.08-8.07-1.34-14.95-1.48-20.9.4,3.52,4.21,7.41,6.39,16.89,9.31a91.66,91.66,0,0,0,23.76,3.67c1,0,1.86-.68,2.61-.51a3.82,3.82,0,0,1,1.9.85c-.54.45-1.12.36-1.8.5-.41.09-.92.49-1.34.52-1.41.09-3,0-4.41.09-7.44.69-16.25.83-21.39,5.24,5.89,4.21,16.45,6,25.87,6,6,0,11.67-1.45,15.13-1.09,2,.21,3.37.63,3.64,1.41-2.91,1.06-5.9.71-8.77,1.08-2.09.27-2.89.6-4.94.82-2.91.31-6.37.41-8.67,1.27a9.16,9.16,0,0,0-5.33,4.33c4.42,2.66,11.37,3.9,21.1,5l-1.45-4.39,1-.33c5.72-1.85,11.76-3.69,17.57-5.25-1.1-2.34-2-4.71-3.05-7.09a18.18,18.18,0,0,1-6.31.26,2.1,2.1,0,0,1-1.86-2.5c.36-2.2,2.13-5,3.59-6.61l.17-.19A38.82,38.82,0,0,1-29.61,132c-1.54.4-2.56.29-5.27.32a5.11,5.11,0,0,1-1.18.18c-.55-.11-.36-.47-.46-.9-.43-.35-1-.39-.78-1.16a9.68,9.68,0,0,1,.93-2.61,19.17,19.17,0,0,1,2.42-3.2c-.47-.38-1.27-.14-2.24,0-1.15.18-3.58.71-4.56.8a12.92,12.92,0,0,1-3.91-.12c-1.38-.24-3.49-.89-4.28-1.77s-.24-1.72.24-2.55c1.09-1.9,3.5-3.57,5.73-4.7.13-.23-.07-.31-.2-.32-.77,0-1.64.11-2.43.12a25.52,25.52,0,0,1-8.21-.95A13.79,13.79,0,0,1-56.43,114c-1.19-.69-2.92-1.85-1.79-2.89a15.78,15.78,0,0,1,6.43-3.43A26.5,26.5,0,0,1-49,107c.48-.11-.13-.25-.46-.41a25.38,25.38,0,0,1-6.31-.27,22.9,22.9,0,0,1-5.87-1.91A5,5,0,0,1-63.54,103a1.58,1.58,0,0,1,.2-2.11,6,6,0,0,1,1.92-1.64c.3-.19.61-.37.92-.55A17.55,17.55,0,0,1-58.32,98,3.31,3.31,0,0,1-57,97.62a4.94,4.94,0,0,0,1.32-.07c.53-.14.71-.53.25-.87a12.48,12.48,0,0,1-2.12-.41c-1-.32-2.34-1.23-3.37-1.65s-2-.86-3.05-1.32c-.64-.27-1.23-.61-1.84-.9s-1.25-.51-1.76-.82a8.51,8.51,0,0,1-1.17-.84c-1.1-1,.24-2.44,1.36-3.05a12.15,12.15,0,0,1,5.29-1,28.16,28.16,0,0,0,3-.2c-1-.32-2-.65-2.83-1-2.91-1.17-6.36-2.52-8.71-4.6-1-.89-1.38-1.23-1.5-2-.06-.43,1-.38,1.49-.61a18,18,0,0,1,5.42-1.48,27,27,0,0,1,5.3-.22,41.06,41.06,0,0,1-6.31-3.18,24.58,24.58,0,0,1-3.6-2.69A15.53,15.53,0,0,1-71.72,69a6.39,6.39,0,0,0-1-1.27c-.59-.45-1.52-1-1.81-1.84s1.26-1.25,2.34-1.37a25.5,25.5,0,0,1,4.89-.18,7.39,7.39,0,0,1,1.39.48,5.23,5.23,0,0,0,1.27,0q-1.05-.93-2.09-1.89a55.62,55.62,0,0,1-5.14-5.32,26.36,26.36,0,0,1-3.81-6.1,5.75,5.75,0,0,1-.49-2.05c0-.22.76-.59,1.23-.48.05-.46.11-.65.72-.82A4.25,4.25,0,0,1-73.07,48Zm41.25,111.32c-1.9.69-3.33,1.46-3.24,3.16,1.23.34,2.91.89,4.75,1.42ZM-22.36,131a14.31,14.31,0,0,0-3.08,5.65c-.08.5.32.53.53.57a14.05,14.05,0,0,0,5-.1c-.83-2-1.7-4.13-2.48-6.13Zm-7.4-8.07a26.68,26.68,0,0,0-2.73,2.49,11.59,11.59,0,0,0-2.83,4.73c-.08.5.32.53.53.57a13.15,13.15,0,0,0,5.42-.52A33.31,33.31,0,0,0-23.49,128c-.87-2.33-1.74-4.73-2.54-7.08a24.83,24.83,0,0,1-3.73,2Zm-7.31-6.2a9,9,0,0,0-1.64-.54c-3.7,1.07-7.4,3.7-8.53,5.66-.43.76-.38,1.14.22,1.28a27,27,0,0,0,10.2.25,25.46,25.46,0,0,0,10.26-4.09c-.17-.52-.38-1-.55-1.56a7.76,7.76,0,0,1-3.71,1.2,9.84,9.84,0,0,1-6.27-2.2Zm-3.65-10.34A64.56,64.56,0,0,0-50.84,109a17.17,17.17,0,0,0-5.44,3.13c-.26.24.15.6.26.66a8.73,8.73,0,0,0,1.22.64c.39.13.67-.15,1.19,0s.39.47,1.63.61c2.43.28,5.62.51,9.34.63,1.11,0,2.28.05,3.5,0A9.9,9.9,0,0,1-40.65,112a8.53,8.53,0,0,1-.07-5.62Zm-4.44-7.86a16.51,16.51,0,0,0-2.56-.22c-.65,0-1.32.16-1.95.17a12.52,12.52,0,0,1-2.7,0c-.79-.14-.54-.31-1.33-.16-.55.1-1.33.27-1.87.42a17.53,17.53,0,0,0-4.79,1.86,4.3,4.3,0,0,0-1.53,1.29c-.25.32-.26.71.17.88a38.08,38.08,0,0,0,12.5,2.47,36.44,36.44,0,0,0,8.88-.71A12.2,12.2,0,0,1-42,103.15a15.08,15.08,0,0,1-3.21-4.6Zm-2-9.32a30.48,30.48,0,0,1-8.14-1.57l-.14,0-.35,0a47.27,47.27,0,0,0-5.1,0c-.77,0-1.59.21-2.25.31a11.62,11.62,0,0,0-1.69.3,5.12,5.12,0,0,0-1.44.67c-.42.3-.55.79-.39.93,2.41,2.11,8.47,4.82,13.11,6a43.44,43.44,0,0,0,7.93,1.27,8.07,8.07,0,0,1,1.07-5.45,24.36,24.36,0,0,1-2-1.72c-.22-.23-.44-.47-.64-.71Zm-1-1.57A46.49,46.49,0,0,1-61.64,84.1c-2.86-1.15-5.86-2.34-8-4.19,0,0,0-.15.09-.18a18.85,18.85,0,0,1,5.24-1.53c3.87-.57,6.9-.32,13.3,1.55.39.12,1.37.31,1.77.42a10.1,10.1,0,0,0-.48,3.2,11,11,0,0,0,1.53,4.28Zm-1.08-9.12A106.11,106.11,0,0,1-59.5,75.06,39.62,39.62,0,0,1-65.7,72a25.67,25.67,0,0,1-3.45-2.6c-1.26-1.13-2.19-2.23-2.84-2.72-.32-.24-.25-.37,0-.4a20.56,20.56,0,0,1,7.45.51,43,43,0,0,1,5,2,43.49,43.49,0,0,0,8.66,4.11,15.47,15.47,0,0,0,.7,1.42,16.18,16.18,0,0,0,1.94,2.75,7.49,7.49,0,0,0-1,1.48Zm-1.34-16A120.18,120.18,0,0,0-65.81,52.52c-.69-.39-.79-.91-1.46-1.39a9.13,9.13,0,0,0-4-1.15,12.12,12.12,0,0,0-2.07-.1c-.7.06-1.28.1-.85,1.05,2,4.4,5.57,8,8.6,10.79C-64.25,63-63,64.05-61.87,65a38.72,38.72,0,0,0,10.39,5.8,11.69,11.69,0,0,1,.91-8.24Zm12.22,43.27c-1.14,1.42-1.27,3.31-.44,5.55,1.25,3.4,5.56,6.82,9.3,5.93a4.25,4.25,0,0,0,1.85-1.2c-.66-2.08-1.24-4.09-1.86-6.17a3.9,3.9,0,0,1-2.84-2.54,6.63,6.63,0,0,1-.05-1.78,9.37,9.37,0,0,1-4.17.68c-.7-.09-.92-.56-1.78-.46Zm-5.17-13.51a7.06,7.06,0,0,0-.22,5.17,12.81,12.81,0,0,0,3,4.46c2.7,2.76,5.9,3.51,8.12,2a5.52,5.52,0,0,1,.86-2.2c-.14-.52-.25-.89-.39-1.41a15.38,15.38,0,0,1-4.2-5.07c-.18-.36-.36-.74-.52-1.12-.41.5-.89.34-1.39.28a13.59,13.59,0,0,1-5.25-2.12Zm-3.54-14.06a5.53,5.53,0,0,0-1,3.52,7.34,7.34,0,0,0-.11,1.7,9.85,9.85,0,0,0,.91,2,11,11,0,0,0,1.94,3.23,12.77,12.77,0,0,0,5.94,3.73c.64.15,1.61.59,2,0-.32-1.79-1-3.06-1-4.56a6.31,6.31,0,0,1,1.13-3.82,10,10,0,0,0-1.61-2.56c-2.46.68-6-1.18-8.21-3.26Zm-2.33-15A9.07,9.07,0,0,0-50,67.42a13.06,13.06,0,0,0,3.84,9.32c1.88,1.84,4.43,3.66,6.5,3.2-.12-1.49-.92-2.44-1.13-3.76a6.4,6.4,0,0,1-.07-1.28,13.62,13.62,0,0,1,.63-3.11,5.45,5.45,0,0,0,.31-2.35c-.95-1.75-2.17-1.68-3.66-2.34a31.55,31.55,0,0,1-5.8-3.81Zm13.63,21.8c-.39.21-.72.3-.82.84a12.87,12.87,0,0,0,.3,3.37,23,23,0,0,0,1,4.43A12.7,12.7,0,0,0-33,97.43c-1-4.11-1.89-8.19-2.76-12.34Zm4.73,20a4.57,4.57,0,0,0,.16,1.68,2.68,2.68,0,0,0,.61,1c-.23-.81-.55-1.85-.78-2.67Zm0,0" transform="translate(138 70.73)" fill="#1b1918" fill-rule="evenodd"/><path d="M187.77,70.69c.23.88.35,1.77.52,2.64a7.32,7.32,0,0,1,.1,2.49,19.26,19.26,0,0,1-2.93,6.75c.71-3.56,1.72-8.27,2.3-11.88ZM222.27,48c18-14.83,33.09-30.4,43.26-47.25C276.87-18,282.54-37.72,285-58.6c4.63,19.43,1.92,39.58-8.34,60.15A131.23,131.23,0,0,1,263,23.13c-4.31,5.59-8.86,12.41-14.32,18-7,7.23-16.21,14-24.66,21.64-.93.84-.15,1.78,1.32.53.79-.68,1.6-1.38,2.42-2.1.41-.36,1.15-.48,1.59-.82,4.21-3.32,8.75-7.25,13.05-11.14,2.82-2.55,4.82-5,7.57-7.29,7.6-6.42,15.61-11.42,21.69-11.29-1,4.12-4.13,8.83-6.58,12.32-5.59,8-12.35,13.28-19.07,19.59a29.94,29.94,0,0,1-2.76,1.84c-3.1,2.25-5.77,4.59-9,6.1s-9.47,4.15-10.19,5.07a5,5,0,0,0,3-.06,42.56,42.56,0,0,0,8.71-3.66c2.47-1.3,4.75-2.74,7.42-4.4,1.54-1,2.91-2.49,4.46-3.45,4.66-2.88,9.76-5.46,14-4.57C259.07,65.52,250,74,242.89,78.82c-6.86,4.69-14.56,8.26-21,8.86-1.06.1-1,1.71.79,1.58,4.11-.29,8.08-1.93,12.05-3.74A44.07,44.07,0,0,1,240,83.27a56.87,56.87,0,0,1,17-2.74c-3.41,5.56-9.05,9.15-13.89,12-8.34,5-17,5.58-25.9,9.13-.54.22.65.86,1.68.79,3.76-.25,7.07-1.39,10.7-2.21A117.06,117.06,0,0,1,244,97.57a4.05,4.05,0,0,1,2.93.87c-2.76,4.07-11,8.52-17.17,11.29-5.69,2.56-11.89,4.09-18.12,5.77-1.22.33-3,1.16-4.68,1.68s-3.16.75-4.14,1.64c2.07.23,11.73-1.9,12.8-2.08,8.07-1.34,15-1.48,20.91.4-3.52,4.21-7.41,6.39-16.89,9.31a91.72,91.72,0,0,1-23.77,3.67c-1,0-1.87-.68-2.61-.51a3.83,3.83,0,0,0-1.9.85c.54.45,1.12.36,1.8.5.41.09.93.49,1.34.52,1.41.09,3,0,4.41.09,7.44.69,16.25.83,21.39,5.24-5.89,4.21-16.45,6-25.87,6-6,0-11.66-1.45-15.13-1.09-2,.21-3.37.63-3.65,1.41,2.92,1.06,5.9.71,8.77,1.08,2.09.27,2.89.6,4.94.82,2.91.31,6.38.41,8.67,1.27a9.18,9.18,0,0,1,5.33,4.33c-4.42,2.66-12,4-21.76,5.09l.83-4.06c-5.73-1.85-11.76-3.82-17.57-5.39,1.1-2.34,2.3-5.3,3.32-7.68a18.17,18.17,0,0,0,6.31.26,2.1,2.1,0,0,0,1.86-2.5c-.36-2.2-2.14-5-3.59-6.61l-.17-.19A38.65,38.65,0,0,0,178.8,132c1.54.4,2.56.29,5.27.32a5.12,5.12,0,0,0,1.18.18c.55-.11.35-.47.46-.9.43-.35,1-.39.78-1.16a9.41,9.41,0,0,0-.93-2.61,19,19,0,0,0-2.42-3.2c.47-.38,1.28-.14,2.24,0,1.14.18,3.58.71,4.56.8a12.89,12.89,0,0,0,3.91-.12c1.38-.24,3.5-.89,4.28-1.77s.24-1.72-.24-2.55c-1.09-1.9-3.5-3.57-5.73-4.7-.13-.23.07-.31.2-.32.77,0,1.65.11,2.43.12a25.55,25.55,0,0,0,8.21-.95,13.67,13.67,0,0,0,2.61-1.17c1.19-.69,2.92-1.85,1.79-2.89a15.79,15.79,0,0,0-6.42-3.43,26.77,26.77,0,0,0-2.75-.72c-.48-.11.13-.25.45-.41a25.42,25.42,0,0,0,6.31-.27,22.86,22.86,0,0,0,5.86-1.91,5,5,0,0,0,1.86-1.33,1.58,1.58,0,0,0-.2-2.11,5.9,5.9,0,0,0-1.92-1.64c-.3-.19-.6-.37-.92-.55a17.7,17.7,0,0,0-2.18-.71,3.34,3.34,0,0,0-1.29-.39,5,5,0,0,1-1.32-.07c-.53-.14-.7-.53-.25-.87a12.46,12.46,0,0,0,2.12-.41c1-.32,2.34-1.23,3.37-1.65s2-.86,3.05-1.32c.64-.27,1.23-.61,1.84-.9s1.26-.51,1.76-.82a8.62,8.62,0,0,0,1.17-.84c1.1-1-.25-2.44-1.37-3.05a12.14,12.14,0,0,0-5.29-1,28.16,28.16,0,0,1-3-.2c1-.32,2-.65,2.83-1,2.91-1.17,6.36-2.52,8.71-4.6,1-.89,1.38-1.23,1.5-2,.06-.43-1-.38-1.49-.61a17.93,17.93,0,0,0-5.42-1.48,27,27,0,0,0-5.3-.22,41,41,0,0,0,6.32-3.18,24.75,24.75,0,0,0,3.59-2.69,14.9,14.9,0,0,0,1.8-1.63,6.36,6.36,0,0,1,1-1.27c.59-.45,1.52-1,1.81-1.84s-1.26-1.25-2.34-1.37a25.47,25.47,0,0,0-4.89-.18,7.28,7.28,0,0,0-1.39.48,5.23,5.23,0,0,1-1.27,0q1.05-.93,2.08-1.89a55,55,0,0,0,5.14-5.32,26.48,26.48,0,0,0,3.81-6.1,5.9,5.9,0,0,0,.49-2.05c0-.22-.77-.59-1.23-.48,0-.46-.1-.65-.72-.82a4.26,4.26,0,0,0-1.17-.17ZM180.36,159c.24.09,1.13.5,1.35.59,1.55.63,2.63,1.41,2.55,2.9-1.24.34-4.1,1.16-5.94,1.69Zm-8.81-28a14.24,14.24,0,0,1,3.08,5.65c.08.5-.32.53-.53.57a14.06,14.06,0,0,1-5-.1c.83-2,1.7-4.13,2.48-6.13Zm7.4-8.07a26.7,26.7,0,0,1,2.73,2.49,11.51,11.51,0,0,1,2.83,4.73c.08.5-.31.53-.53.57a13.17,13.17,0,0,1-5.43-.52,33.39,33.39,0,0,1-5.88-2.18c.87-2.33,1.74-4.73,2.54-7.08a25,25,0,0,0,3.73,2Zm7.31-6.2a9.22,9.22,0,0,1,1.64-.54c3.7,1.07,7.41,3.7,8.53,5.66.44.76.39,1.14-.22,1.28a27.07,27.07,0,0,1-10.2.25,25.49,25.49,0,0,1-10.26-4.09c.18-.52.38-1,.55-1.56a7.73,7.73,0,0,0,3.7,1.2,9.84,9.84,0,0,0,6.27-2.2Zm3.65-10.34A64.68,64.68,0,0,1,200,109a17.17,17.17,0,0,1,5.43,3.13c.26.24-.15.6-.27.66a8.73,8.73,0,0,1-1.22.64c-.39.13-.67-.15-1.19,0s-.39.47-1.63.61c-2.42.28-5.62.51-9.34.63-1.1,0-2.28.05-3.5,0a10,10,0,0,0,1.52-2.67,8.55,8.55,0,0,0,.07-5.62Zm4.44-7.86a16.51,16.51,0,0,1,2.56-.22c.65,0,1.33.16,1.95.17a12.52,12.52,0,0,0,2.7,0c.79-.14.55-.31,1.34-.16.55.1,1.33.27,1.87.42a17.5,17.5,0,0,1,4.79,1.86,4.33,4.33,0,0,1,1.53,1.29c.24.32.26.71-.18.88a38.05,38.05,0,0,1-12.5,2.47,36.41,36.41,0,0,1-8.87-.71,12.36,12.36,0,0,0,1.6-1.39,14.94,14.94,0,0,0,3.21-4.6Zm2-9.32a30.45,30.45,0,0,0,8.13-1.57l.14,0,.35,0a47.33,47.33,0,0,1,5.11,0c.77,0,1.58.21,2.24.31a11.72,11.72,0,0,1,1.69.3,5.1,5.1,0,0,1,1.44.67c.42.3.55.79.4.93-2.41,2.11-8.47,4.82-13.11,6a43.44,43.44,0,0,1-7.93,1.27,8.07,8.07,0,0,0-1.07-5.45,23.7,23.7,0,0,0,2-1.72c.22-.23.44-.47.64-.71Zm1-1.57a46.46,46.46,0,0,0,13.49-3.55c2.86-1.15,5.86-2.34,8-4.19.05,0,0-.15-.09-.18a18.84,18.84,0,0,0-5.24-1.53c-3.88-.57-6.89-.32-13.3,1.55-.39.12-1.38.31-1.77.42a10.07,10.07,0,0,1,.47,3.2,11,11,0,0,1-1.52,4.28Zm1.08-9.12a106.46,106.46,0,0,0,10.27-3.47,39.81,39.81,0,0,0,6.2-3.1,25.6,25.6,0,0,0,3.44-2.6c1.26-1.13,2.19-2.23,2.84-2.72.32-.24.25-.37,0-.4a20.56,20.56,0,0,0-7.45.51,43.21,43.21,0,0,0-5,2,43.44,43.44,0,0,1-8.66,4.11q-.32.73-.7,1.42a16.22,16.22,0,0,1-1.94,2.75,7.43,7.43,0,0,1,1,1.48Zm1.34-16A120.18,120.18,0,0,1,215,52.52c.69-.39.79-.91,1.46-1.39a9.13,9.13,0,0,1,4-1.15,12.15,12.15,0,0,1,2.07-.1c.7.06,1.28.1.84,1.05-2,4.4-5.57,8-8.6,10.79-1.36,1.25-2.56,2.34-3.73,3.31a38.66,38.66,0,0,1-10.39,5.8,11.69,11.69,0,0,0-.91-8.24Zm-12.22,43.27c1.14,1.42,1.27,3.31.44,5.55-1.26,3.4-5.56,6.82-9.3,5.93a4.24,4.24,0,0,1-1.85-1.2c.66-2.08,1.24-4.09,1.86-6.17a3.9,3.9,0,0,0,2.84-2.54,7,7,0,0,0,.05-1.78,9.35,9.35,0,0,0,4.16.68c.7-.09.92-.56,1.78-.46Zm5.17-13.51a7.07,7.07,0,0,1,.22,5.17,12.88,12.88,0,0,1-3,4.46c-2.7,2.76-5.9,3.51-8.12,2a5.51,5.51,0,0,0-.85-2.2c.14-.52.25-.89.39-1.41a15.35,15.35,0,0,0,4.2-5.07c.18-.36.36-.74.52-1.12.42.5.89.34,1.39.28a13.57,13.57,0,0,0,5.25-2.12Zm3.54-14.06a5.54,5.54,0,0,1,1,3.52,7.45,7.45,0,0,1,.11,1.7,10.15,10.15,0,0,1-.92,2,11.09,11.09,0,0,1-1.94,3.23,12.77,12.77,0,0,1-5.94,3.73c-.64.15-1.61.59-2,0,.32-1.79,1-3.06,1-4.56a6.31,6.31,0,0,0-1.13-3.82A10.09,10.09,0,0,1,188,81.54c2.47.68,6-1.18,8.22-3.26Zm2.33-15a9.07,9.07,0,0,1,.63,4.12,13.07,13.07,0,0,1-3.84,9.32c-1.88,1.84-4.43,3.66-6.5,3.2.12-1.49.92-2.44,1.13-3.76a6.71,6.71,0,0,0,.07-1.28,14,14,0,0,0-.63-3.11,5.45,5.45,0,0,1-.31-2.35c.95-1.75,2.17-1.68,3.66-2.34a31.55,31.55,0,0,0,5.8-3.81ZM185,85.1c.39.21.72.3.82.84a12.66,12.66,0,0,1-.3,3.37,23.42,23.42,0,0,1-1,4.43,12.81,12.81,0,0,1-2.24,3.7c1-4.11,1.89-8.19,2.75-12.34Zm-4.73,20a4.64,4.64,0,0,1-.16,1.68,2.78,2.78,0,0,1-.61,1c.23-.81.55-1.85.78-2.67Zm0,0" transform="translate(138 70.73)" fill="#1b1918" fill-rule="evenodd"/></g><path d="M-9.57,156.49c0-.16-.07-.32-.11-.48s-.08-.31-.12-.46l-1,.28-1.06.29-1.53.41-1.37.37c0,.15.06.3.1.46l.12.47,2-.47a.07.07,0,0,1,.06,0,.18.18,0,0,1,0,.06c0,.23,0,.51-.06.85s-.06.69-.1,1.09-.08.8-.12,1.21-.09.81-.13,1.18l-.12,1c-.07.57-.14,1.18-.22,1.82s-.16,1.28-.25,1.94-.19,1.31-.29,2l-.11,0c-.41-.55-.82-1.11-1.21-1.67s-.8-1.12-1.18-1.69l-1.14-1.63-.5-.72-.63-.93-.66-1-.59-.88-.41-.63,2.17-.65c0-.15-.08-.31-.11-.47s-.07-.32-.11-.47l-1.61.44-1.73.48-1.19.31-1.11.29c0,.15.08.31.12.47s.07.32.11.47l1.3-.31h.09l.06,0,1.09,1.53,1.13,1.58,1.13,1.54,1.12,1.5,1.19,1.57,1.21,1.58,1.17,1.5.5-.13.45-.13.29-.09q.17-.88.33-1.84c.11-.64.21-1.28.31-1.93s.2-1.29.3-1.91.19-1.23.27-1.8l.3-2c.1-.7.21-1.39.31-2.08s.2-1.34.29-2Zm0,0" transform="translate(138 70.73)" fill="#1b1918" fill-rule="evenodd"/><path d="M1.92,160.6H2a.07.07,0,0,1,0,.06L3,165a.06.06,0,0,1,0,.05l-.06,0-1.63.41c0,.15.07.3.1.47s.07.31.1.46l1.34-.28,1.42-.3,2.23-.47,2-.42,1.61-.34,1.07-.21c0-.55.05-1.09.07-1.64s0-1.09,0-1.61h-.59l-.63,0-.31,1.9a.78.78,0,0,1-.12.3.48.48,0,0,1-.23.19,9.82,9.82,0,0,1-1.14.35c-.57.15-1.31.32-2.22.51l-.72.14a1.41,1.41,0,0,1-.39,0,.24.24,0,0,1-.18-.09.69.69,0,0,1-.07-.2l-.86-4.18,1.83-.38,1.58-.32a.82.82,0,0,1,.43,0,.37.37,0,0,1,.21.28l.28,1,.58-.14.56-.15c-.05-.27-.11-.55-.17-.87s-.12-.62-.18-.93-.14-.65-.2-1-.12-.64-.19-.95l-.56.11-.57.13.09,1a.41.41,0,0,1-.08.32.68.68,0,0,1-.4.18l-1.13.26-1.11.25-1.18.26-1.17-5.62.18,0,.25-.05.25-.05,1.09-.22,1-.2.84-.15.54-.09a.77.77,0,0,1,.41,0,.43.43,0,0,1,.19.23l.73,1.66.61-.19.57-.18c-.13-.51-.27-1-.41-1.52s-.29-1-.44-1.48l-.52.11-.62.13-.8.17-.46.1-.74.16-.88.2-.88.19-.74.16-.46.1-.72.15-.71.14-.6.12-.39.08-.06,0a.17.17,0,0,0,0,.06c-.43,1.08-.87,2.2-1.33,3.37l-1.38,3.54-1.36,3.49-1.29,3.25a.24.24,0,0,1,0,.07.2.2,0,0,1-.09,0l-1.27.36c0,.14,0,.29.07.44s.06.31.09.47l1-.21,1-.22,1.64-.35,1.5-.32c0-.16,0-.31-.08-.47s-.06-.32-.1-.46l-2.06.4c.27-.75.55-1.56.86-2.41l.95-2.66ZM.64,154l1.19,5.61-3.61.77a.07.07,0,0,1-.07,0s0,0,0-.1l.74-2,.78-2c.27-.7.56-1.45.88-2.23Zm0,0" transform="translate(138 70.73)" fill="#1b1918" fill-rule="evenodd"/><path d="M13.7,162.91c0,.15,0,.3.05.47s0,.32.07.48l1-.17,1.13-.19,1.57-.25L19,163c0-.14,0-.3-.07-.46s0-.32-.06-.48l-2.31.33q-.38-2.49-.78-5t-.79-5l.14,0,2.74,2.65,2.71,2.57Q22,158.9,23.19,160c.82.75,1.59,1.45,2.31,2.09a3.24,3.24,0,0,0,.64-.17,2.92,2.92,0,0,0,.54-.25L24.8,149.52a.11.11,0,0,1,0-.08.06.06,0,0,1,0,0l1.39-.29c0-.15,0-.3-.07-.47s-.05-.32-.09-.48l-1,.17-1.16.2-1.46.23L21,149c0,.16,0,.32.07.48s0,.33.07.49l2.16-.32q.44,2.51.86,5c.28,1.68.56,3.35.84,5l-.11,0-2.41-2.38L20,154.86l-2.57-2.5L14.93,150l-1.09.17-1.14.17-1.07.17c0,.17,0,.34.05.5a4.43,4.43,0,0,0,.08.49l1.68-.23,1.8,11.26a.11.11,0,0,1,0,.07l-.07,0Zm0,0" transform="translate(138 70.73)" fill="#1b1918" fill-rule="evenodd"/><path d="M39.78,150.47l.65-.13.63-.13c-.07-.57-.15-1.13-.24-1.7s-.18-1.12-.27-1.67a6.26,6.26,0,0,0-1.52-.27,12.24,12.24,0,0,0-2,0c-.35,0-.72.1-1.13.18a9.92,9.92,0,0,0-1.26.35,9.23,9.23,0,0,0-1.27.54,7.15,7.15,0,0,0-1.18.76,7.57,7.57,0,0,0-1.59,1.69,6.92,6.92,0,0,0-1,2.11,7.18,7.18,0,0,0,.35,4.51,5.65,5.65,0,0,0,1,1.61,6.71,6.71,0,0,0,1.49,1.21,6.9,6.9,0,0,0,2.36.81,11.63,11.63,0,0,0,3,0,14.4,14.4,0,0,0,2.43-.44,5.59,5.59,0,0,0,1.59-.66l-.39-4.21a.07.07,0,0,1,0-.07l.06,0,1.17-.16c0-.16,0-.32,0-.5a4.63,4.63,0,0,0-.05-.49l-1.08.11-1.14.12-1.72.18-1.58.16c0,.16,0,.32,0,.49s0,.34,0,.5l2.46-.21.36,3.51c0,.07-.09.15-.26.23a3.87,3.87,0,0,1-.74.27,7.84,7.84,0,0,1-1.06.19,8.33,8.33,0,0,1-1.4,0,6.3,6.3,0,0,1-1.54-.3,5.3,5.3,0,0,1-1.53-.8,4.62,4.62,0,0,1-1.43-1.73,7.31,7.31,0,0,1-.62-2.39,6.38,6.38,0,0,1,.26-2.64A5.9,5.9,0,0,1,33,149.45a5.13,5.13,0,0,1,1.12-.88,6.25,6.25,0,0,1,1.26-.55,6.53,6.53,0,0,1,1.26-.25,5.83,5.83,0,0,1,1.32,0,2.91,2.91,0,0,1,1.09.32.38.38,0,0,1,.15.16.86.86,0,0,1,.07.21Zm0,0" transform="translate(138 70.73)" fill="#1b1918" fill-rule="evenodd"/><path d="M46,146.9l.84,11.26a.16.16,0,0,1,0,.08.1.1,0,0,1-.07,0l-1.65.18c0,.16,0,.32,0,.48s0,.32,0,.47l1.36-.11,1.39-.11.95-.07.95-.06.85-.06c0-.16,0-.32,0-.48s0-.33,0-.49l-2,.09-.79-11.26a.1.1,0,0,1,0-.07.06.06,0,0,1,0,0l1.82-.2c0-.15,0-.3,0-.47s0-.32,0-.48l-1.31.1-1.38.11-1,.07L45,146l-.91.07c0,.16,0,.31,0,.48s0,.32,0,.47Zm0,0" transform="translate(138 70.73)" fill="#1b1918" fill-rule="evenodd"/><path d="M53.85,146.33l.38,11.32a.05.05,0,0,1,0,0,.14.14,0,0,1-.09,0l-1.45.11c0,.16,0,.32,0,.48s0,.33,0,.49l1.19-.05,1.32-.06,1,0,1,0,.85,0c0-.16,0-.33,0-.49v-.48H56L55.86,153l.19,0,.41,0,.73,0a4.14,4.14,0,0,1,.95.05,1.74,1.74,0,0,1,.67.27,2.48,2.48,0,0,1,.56.55c.16.21.34.47.54.79s.41.66.64,1l.68,1.11c.23.37.45.71.66,1a8.47,8.47,0,0,0,.57.75l.44,0,.56,0,.5,0h.52l.53,0h.47c0-.16,0-.33,0-.49s0-.32,0-.48l-1.43,0a.39.39,0,0,1-.28-.09,2.06,2.06,0,0,1-.39-.43c-.16-.21-.37-.54-.65-1l-.82-1.33c-.25-.39-.48-.73-.7-1a4.57,4.57,0,0,0-.68-.73,2.4,2.4,0,0,0-.77-.44v-.11a5.76,5.76,0,0,0,1.57-.89,4,4,0,0,0,1.07-1.28,3.33,3.33,0,0,0,.36-1.64,2.63,2.63,0,0,0-.26-1,3.24,3.24,0,0,0-.64-.89,3.87,3.87,0,0,0-.92-.68,4,4,0,0,0-1.1-.4,10.34,10.34,0,0,0-1-.17c-.32,0-.65-.05-1-.05l-1.16,0-1.54.06-1.51.06-1.39.07a4.63,4.63,0,0,0,0,.47c0,.16,0,.32,0,.48Zm1.85-.06a2.15,2.15,0,0,1,.42-.07l.89-.05a5.6,5.6,0,0,1,2,.26,2.9,2.9,0,0,1,1.36.92,2.67,2.67,0,0,1,.54,1.6,2.41,2.41,0,0,1-.17,1,2.81,2.81,0,0,1-.64,1,3.59,3.59,0,0,1-1.2.74,5.61,5.61,0,0,1-1.83.34l-.81,0a1.91,1.91,0,0,1-.41,0Zm0,0" transform="translate(138 70.73)" fill="#1b1918" fill-rule="evenodd"/><path d="M81.21,145.68c0-.16,0-.31,0-.47v-.46H74.77c0,.15,0,.3,0,.46s0,.31,0,.47l2.88.06c0,.81,0,1.62,0,2.45s0,1.64,0,2.45,0,1.62,0,2.41c0,.49,0,.93,0,1.33a5.19,5.19,0,0,1-.17,1.08,3,3,0,0,1-.43.91,2.15,2.15,0,0,1-.61.59,3.26,3.26,0,0,1-.88.4,3.88,3.88,0,0,1-1.09.15l-.45,0a3.74,3.74,0,0,1-.54-.07,2.11,2.11,0,0,1-.5-.16.29.29,0,0,1-.12-.1.36.36,0,0,1-.06-.15l-.46-2-.61.08-.59.11c.06.51.11,1,.18,1.56s.12,1.07.19,1.61a11,11,0,0,0,1.36.19q.67.06,1.23.06a7.57,7.57,0,0,0,1.92-.23,5.09,5.09,0,0,0,1.4-.58,4,4,0,0,0,.95-.82,4.52,4.52,0,0,0,.69-1.07,4.84,4.84,0,0,0,.36-1.26A10.38,10.38,0,0,0,79.5,153c0-1.2,0-2.4,0-3.6s0-2.4,0-3.59c0,0,0-.06.07-.06Zm0,0" transform="translate(138 70.73)" fill="#1b1918" fill-rule="evenodd"/><path d="M86.5,146.1l2,0c0-.16,0-.33,0-.49s0-.32,0-.48l-1.43,0-1.52,0-1.28,0-1.21,0c0,.15,0,.3,0,.46s0,.32,0,.49l1.4.1a.11.11,0,0,1,.09,0,.18.18,0,0,1,0,.09L84.35,153a12.14,12.14,0,0,0,0,1.71,4.89,4.89,0,0,0,.38,1.5,4,4,0,0,0,.93,1.28,4.52,4.52,0,0,0,1.69,1,7.84,7.84,0,0,0,2.2.36,6.82,6.82,0,0,0,1.68-.13,5.27,5.27,0,0,0,1.27-.43,4.38,4.38,0,0,0,.88-.57,4.5,4.5,0,0,0,.82-1,5.79,5.79,0,0,0,.64-1.42,8.11,8.11,0,0,0,.32-2l.31-6.91H97c0-.16,0-.33,0-.49s0-.33,0-.48l-1.16,0-1.24,0-1.41-.05-1.27,0c0,.15,0,.31,0,.47s0,.32,0,.47l1.91.14a.1.1,0,0,1,.07,0s0,0,0,.07c0,.52,0,1.08,0,1.66s0,1.18-.06,1.78,0,1.18-.06,1.76,0,1.11-.06,1.61a7.72,7.72,0,0,1-.24,1.66,5.06,5.06,0,0,1-.46,1.19,2.81,2.81,0,0,1-.57.73,3.56,3.56,0,0,1-.6.43,3.06,3.06,0,0,1-.86.32,4.82,4.82,0,0,1-1.25.09,4.55,4.55,0,0,1-1.3-.22,3,3,0,0,1-.87-.45,2.61,2.61,0,0,1-.54-.52,3.81,3.81,0,0,1-.39-.6,3.55,3.55,0,0,1-.27-.74,5.32,5.32,0,0,1-.14-1,12.43,12.43,0,0,1,0-1.31Zm6.42-4.94-1.19.73-1.26.77-1.18.71a4.27,4.27,0,0,0,.24.37c.09.13.18.25.27.36l1.28-.59,1.37-.63,1.3-.6c-.13-.19-.25-.39-.4-.59a5.71,5.71,0,0,0-.41-.54Zm0,0" transform="translate(138 70.73)" fill="#1b1918" fill-rule="evenodd"/><path d="M117.27,143.38,116,144l-1.33.66-1.24.61a4.26,4.26,0,0,0,.2.39c.08.14.16.26.24.38l1.32-.47,1.42-.51,1.34-.49c-.11-.2-.22-.41-.34-.62a5.93,5.93,0,0,0-.37-.57Zm-3.46,4.82-1.4,11.2a.14.14,0,0,1,0,.07.09.09,0,0,1-.07,0l-1.66-.14c0,.15-.06.31-.08.47s0,.32-.06.47l1.36.16,1.39.16.94.12.94.13.85.11c0-.16.06-.31.08-.48s0-.32.06-.48l-1.94-.3,1.44-11.2a.11.11,0,0,1,0-.06.06.06,0,0,1,.05,0l1.82.16c0-.15,0-.3.07-.46s.05-.32.07-.48l-1.31-.16-1.37-.17-1-.12-1-.12-.9-.11c0,.15,0,.31-.07.47s-.05.32-.07.47Zm0,0" transform="translate(138 70.73)" fill="#1b1918" fill-rule="evenodd"/><path d="M101,146.9l-1.1,11.27a.06.06,0,0,1,0,0l-.07,0-1.48-.08c0,.14,0,.3-.07.46s0,.32,0,.48l1.23.11,1.25.11,1.17.11,1.17.11,1.08.11c0-.15,0-.31.06-.47s0-.32.05-.47l-2.57-.31.43-4.19.4.05.56.06a10.89,10.89,0,0,0,1.85,0,7.55,7.55,0,0,0,1.48-.24,4.93,4.93,0,0,0,1.16-.5,4.72,4.72,0,0,0,1-.8,4.24,4.24,0,0,0,.73-1.05,3.92,3.92,0,0,0,.35-1.27,3.18,3.18,0,0,0-.09-1.1,3.62,3.62,0,0,0-.47-1.05,3.87,3.87,0,0,0-.85-.91,4.41,4.41,0,0,0-1.22-.66c-.28-.11-.56-.2-.82-.27a7.9,7.9,0,0,0-.82-.19c-.29-.05-.59-.1-.92-.14l-1.12-.12L102,146l-1.28-.11-1.16-.09c0,.15,0,.31-.06.47s0,.32-.05.47Zm1.84.18a1.39,1.39,0,0,1,.4,0c.19,0,.45,0,.78.05a5.85,5.85,0,0,1,2.09.56,3,3,0,0,1,1.29,1.18,2.91,2.91,0,0,1,.34,1.76,3.31,3.31,0,0,1-.25,1,2.82,2.82,0,0,1-.59.85,3.08,3.08,0,0,1-1,.62,3.62,3.62,0,0,1-1.16.3,6.79,6.79,0,0,1-1.35,0,5.74,5.74,0,0,1-.77-.11.82.82,0,0,1-.43-.19Zm0,0" transform="translate(138 70.73)" fill="#1b1918" fill-rule="evenodd"/><path d="M121.18,160.76c0,.16-.07.31-.09.48s-.05.33-.08.48l1.48.21,1.46.21,1,.15,1,.16.9.14c0-.16.05-.31.09-.48s.06-.32.08-.48l-2.09-.38L126.66,150l1.22.19.79.13.54.1.43.09a.82.82,0,0,1,.41.19.39.39,0,0,1,.1.28l0,2,.68,0,.61,0q.09-.84.18-1.69c.06-.57.11-1.13.15-1.69l-.52-.06-.63-.09-.82-.12-.55-.07-.84-.12-1-.14-.88-.13-.61-.09-.64-.1-.9-.14-1-.15-.84-.12-.53-.08-1.23-.2L120,148c-.12.55-.25,1.1-.37,1.66s-.24,1.11-.37,1.66l.63.16.63.14.66-1.93a.38.38,0,0,1,.18-.24.82.82,0,0,1,.45-.06l.4,0,.54.06.81.11,1.22.18-1.69,11.16a.09.09,0,0,1,0,.05.1.1,0,0,1-.07,0Zm0,0" transform="translate(138 70.73)" fill="#1b1918" fill-rule="evenodd"/><path d="M131.94,162.68c0,.15-.08.3-.1.46s-.06.31-.09.46l1.29.24,1.39.25,2.25.41,2,.38,1.66.31,1.11.22.7-1.52c.23-.51.46-1,.68-1.52l-.54-.2-.6-.22-1.07,1.72a.62.62,0,0,1-.19.23.55.55,0,0,1-.29.09,6.84,6.84,0,0,1-.69,0l-1.21-.18-1.65-.28-.71-.14a1.37,1.37,0,0,1-.37-.13.22.22,0,0,1-.12-.15.59.59,0,0,1,0-.22l.92-4.87,1.88.35,1.63.32a.72.72,0,0,1,.4.16.4.4,0,0,1,.08.33l-.11,1.07a5.81,5.81,0,0,0,.59.11l.58.08.17-.93c.06-.32.12-.63.17-.94s.14-.65.2-1,.13-.64.2-.94l-.56-.12-.6-.11-.29,1a.41.41,0,0,1-.17.27.68.68,0,0,1-.43,0l-1.19-.2-1.16-.2-1.22-.21.94-5,.17,0,.25,0,.23,0,1.12.21,1,.21.85.19.59.15a.75.75,0,0,1,.36.17.39.39,0,0,1,.1.27l0,1.82.64.05.59,0c.07-.51.14-1,.2-1.54s.11-1,.16-1.55l-.52-.09-.62-.12-.81-.15-.52-.1-.89-.16-1.07-.19-1.08-.2-.91-.16-.56-.1-1.34-.25-1.27-.25c0,.15-.08.31-.11.48l-.09.48,1.65.34-2,11.1a.13.13,0,0,1,0,.06h-.06Zm0,0" transform="translate(138 70.73)" fill="#1b1918" fill-rule="evenodd"/><path d="M149,154.39l-2.64,11s0,0,0,0h-.09l-1.43-.28c0,.15-.09.3-.13.46l-.12.48,1.16.27,1.29.3.93.23.93.23.82.21c.05-.16.1-.32.14-.48l.11-.46-1.87-.51,1.09-4.56.19,0,.41.08.71.16a4.09,4.09,0,0,1,.9.3,1.73,1.73,0,0,1,.57.44,2.66,2.66,0,0,1,.39.68c.09.24.2.54.31.91s.22.75.34,1.17l.36,1.25c.13.41.25.8.37,1.16a8.59,8.59,0,0,0,.35.87l.43.1.55.12.49.1.5.12.52.13.46.11.14-.47c.05-.16.09-.31.13-.46l-1.38-.39a.43.43,0,0,1-.25-.16,2.23,2.23,0,0,1-.26-.52c-.1-.25-.22-.62-.37-1.11l-.44-1.5c-.13-.44-.27-.84-.4-1.18a4.69,4.69,0,0,0-.46-.88,2.46,2.46,0,0,0-.62-.63l0-.1a5.84,5.84,0,0,0,1.76-.44,3.92,3.92,0,0,0,1.37-1,3.31,3.31,0,0,0,.79-1.49,2.56,2.56,0,0,0,0-1.07,3.15,3.15,0,0,0-.37-1,4.07,4.07,0,0,0-.71-.9,4,4,0,0,0-1-.68c-.33-.17-.65-.31-.94-.43s-.61-.22-.94-.32l-1.12-.29-1.5-.36-1.48-.34-1.36-.3c0,.15-.09.3-.13.46s-.08.31-.11.46Zm1.8.43a2.62,2.62,0,0,1,.43,0l.87.19a5.57,5.57,0,0,1,1.86.78,2.89,2.89,0,0,1,1.07,1.25,2.65,2.65,0,0,1,.09,1.68,2.36,2.36,0,0,1-.43.9,2.78,2.78,0,0,1-.88.75,3.52,3.52,0,0,1-1.35.4,5.58,5.58,0,0,1-1.86-.16l-.79-.19a2.28,2.28,0,0,1-.39-.13Zm0,0" transform="translate(138 70.73)" fill="#1b1918" fill-rule="evenodd"/><path d="M160.5,166c-.2,0-.42-.09-.64-.12l-.66-.1c-.11.52-.21,1.05-.32,1.6l-.33,1.61a7,7,0,0,0,.86.53c.35.18.71.35,1.11.51a11.65,11.65,0,0,0,1.14.41,8.75,8.75,0,0,0,2.41.42,4.71,4.71,0,0,0,1.9-.33,3.46,3.46,0,0,0,1.32-.92,3.83,3.83,0,0,0,.79-1.44,2.84,2.84,0,0,0-.28-2.39,5.43,5.43,0,0,0-.87-1.09,15.36,15.36,0,0,0-1.27-1.11q-.76-.59-1.27-1a5.26,5.26,0,0,1-.77-.82,1.64,1.64,0,0,1-.31-.77,2.09,2.09,0,0,1,.11-.9,2.06,2.06,0,0,1,.54-.89,2.29,2.29,0,0,1,.8-.5,2.66,2.66,0,0,1,1.08-.16,4.53,4.53,0,0,1,1.17.19,4.82,4.82,0,0,1,.92.38,2,2,0,0,1,.62.52.66.66,0,0,1,.06.28l-.18,2,.64.12.61.11c.13-.5.24-1,.35-1.5s.2-1,.29-1.5a3.74,3.74,0,0,0-.64-.44,7.58,7.58,0,0,0-.91-.44c-.34-.14-.68-.27-1-.37a8.75,8.75,0,0,0-2.13-.38,4.78,4.78,0,0,0-1.75.23,3.58,3.58,0,0,0-1.72,1.21,3.09,3.09,0,0,0-.51,1,2.72,2.72,0,0,0,0,1.61,4.12,4.12,0,0,0,.84,1.44,11.51,11.51,0,0,0,1.47,1.37l1.23,1a5.57,5.57,0,0,1,.83.85,2,2,0,0,1,.38.88,2.65,2.65,0,0,1-.12,1.1,2,2,0,0,1-1.18,1.37,2.37,2.37,0,0,1-.77.23,4,4,0,0,1-.95,0,5.42,5.42,0,0,1-1-.21,5.32,5.32,0,0,1-.77-.29,5.1,5.1,0,0,1-.67-.38,2.34,2.34,0,0,1-.48-.39.38.38,0,0,1-.09-.13.36.36,0,0,1,0-.16Zm0,0" transform="translate(138 70.73)" fill="#1b1918" fill-rule="evenodd"/></svg>