<?xml version="1.0" encoding="UTF-8"?>
<svg width="242px" height="292px" viewBox="0 0 242 292" version="1.1" xmlns="http://www.w3.org/2000/svg" xmlns:xlink="http://www.w3.org/1999/xlink">
    <!-- Generator: Sketch 49.3 (51167) - http://www.bohemiancoding.com/sketch -->
    <title>vikingurr</title>
    <desc>Created with Sketch.</desc>
    <defs></defs>
    <g id="Page-1" stroke="none" stroke-width="1" fill="none" fill-rule="evenodd">
        <g id="vikingurr">
            <g id="Group-30">
                <path d="M231.815926,34.555518 L231.020573,31.8713069 L194.380987,48.3328745 C180.687519,19.7866654 152.931838,0.215146689 120.992893,0.215146689 C89.0550824,0.215146689 61.3005363,19.7866654 47.604799,48.3340128 L10.9663474,31.8713069 L10.1698593,34.555518 C3.2907892,57.7856687 -0.0392571047,80.9873609 0.276161251,103.515154 C0.865017822,145.888807 12.9927401,184.23842 36.3223525,217.497366 C56.690663,246.536477 85.5900189,271.855486 119.896871,290.722371 L120.992893,291.326831 L122.088915,290.722371 C156.398036,271.858901 185.298526,246.536477 205.665702,217.497366 C228.99418,184.23842 241.121902,145.887669 241.711894,103.515154 C242.025043,80.9907759 238.694996,57.7890837 231.815926,34.555518" id="Fill-2" fill="#1A1919"></path>
                <path d="M44.0809633,120.615901 C46.839172,142.330918 53.354036,161.925204 63.7968797,179.751644 L63.7968797,152.344915 C55.2397385,143.501134 48.4571093,132.698266 44.0809633,120.615901" id="Fill-4" fill="#DA322A"></path>
                <path d="M178.190721,152.34446 L178.190721,179.751188 C188.63243,161.924748 195.147294,142.331601 197.906638,120.615446 C193.529357,132.697811 186.745593,143.501817 178.190721,152.34446" id="Fill-6" fill="#DA322A"></path>
                <path d="M132.43112,176.283001 L132.43112,230.181231 C140.880474,223.675605 148.500437,216.889947 155.312566,209.787829 L155.312566,169.105753 C148.171403,172.625507 140.487903,175.077497 132.43112,176.283001" id="Fill-8" fill="#DA322A"></path>
                <path d="M86.6749219,169.106095 L86.6749219,209.787032 C93.4847815,216.888011 101.105879,223.67367 109.552964,230.180434 L109.552964,176.283343 C101.49845,175.077838 93.813815,172.625849 86.6749219,169.106095" id="Fill-10" fill="#DA322A"></path>
                <path d="M40.1629681,214.400733 C17.4562503,182.030833 5.65302308,144.69776 5.07778169,103.437406 C5.06416651,102.491443 5.05849351,101.544342 5.05849351,100.596103 C5.05849351,80.3916663 8.08333285,59.6362717 13.9968597,38.820545 C17.9793001,40.6088807 41.4496027,51.1556218 45.2777377,52.8745186 C40.7745166,62.8111083 38.2591119,74.7921607 37.8495219,88.5934224 C37.7780422,90.9714194 37.7428697,93.3243729 37.7428697,95.6534212 C37.7428697,124.077828 43.0255598,148.899381 53.8292058,171.34066 C67.2356205,199.197034 88.7884518,222.880245 119.7142,243.740367 L120.992893,244.602092 L122.271585,243.740367 C153.199603,222.880245 174.750165,199.197034 188.15658,171.34066 C198.960226,148.899381 204.242916,124.077828 204.242916,95.6522828 C204.242916,93.3243729 204.208878,90.9714194 204.137398,88.5934224 C203.726674,74.7910224 201.214673,62.8111083 196.708048,52.8745186 C200.536183,51.1567601 224.00762,40.610019 227.987791,38.820545 C233.902453,59.6385484 236.927292,80.3916663 236.927292,100.593827 C236.927292,101.542066 236.922754,102.490305 236.908004,103.437406 C236.332763,144.69776 224.527266,182.030833 201.826221,214.400733 C182.10917,242.506404 154.173088,267.072969 120.992893,285.51639 C87.8126971,267.072969 59.8754807,242.506404 40.1629681,214.400733" id="Fill-12" fill="#FFFFFE"></path>
                <path d="M78.3803268,132.17497 C71.5477752,126.024507 69.4941521,118.404444 69.036909,112.793555 C68.3345925,104.159228 71.113224,94.8179918 76.0453233,88.6766352 C71.113224,82.5352787 68.3345925,73.194042 69.036909,64.5597159 C69.4941521,58.9465501 71.5477752,51.3287637 78.3803268,45.177162 C74.6248061,42.5100261 71.0893975,39.446747 67.7048904,36.5075473 C66.2242395,35.2212205 64.8014531,33.9906725 63.4058971,32.8295634 C50.9309877,47.6154912 43.318967,67.2097767 43.318967,88.6766352 C43.318967,110.142355 50.9309877,129.736641 63.4058971,144.523707 C64.8014531,143.362598 66.2219703,142.130912 67.7048904,140.844585 C71.0893975,137.905385 74.6248061,134.842106 78.3803268,132.17497" id="Fill-14" fill="#D4682C"></path>
                <path d="M168.163254,112.344592 C168.792956,104.633462 166.184514,96.3064881 161.640448,91.2522484 L80.4996431,91.2522484 L80.4996431,91.0883272 C75.8602703,96.1243534 73.188291,104.548086 73.8236661,112.344592 C74.2241794,117.277029 76.1348431,124.099115 82.7779167,129.327521 C89.405106,125.478786 96.7380155,123.327319 105.138582,125.405932 C112.591759,127.250046 118.071869,131.595099 120.99346,137.634004 C123.912782,131.595099 129.394027,127.250046 136.846069,125.405932 C145.248905,123.327319 152.58068,125.478786 159.209003,129.327521 C165.850943,124.099115 167.762741,117.277029 168.163254,112.344592" id="Fill-16" fill="#D4682C"></path>
                <path d="M104.058444,46.9244036 C113.294075,44.6397506 118.591515,38.0054919 118.591515,28.723449 L118.591515,5.41133765 C98.4592012,6.07043783 80.2352817,14.9859345 66.7607911,29.1002403 C68.0576371,30.1873572 69.3680982,31.3211461 70.7273471,32.501607 C80.7197552,41.1746368 91.0514083,50.1436355 104.058444,46.9244036" id="Fill-18" fill="#D4682C"></path>
                <path d="M163.606026,45.1768205 C170.438578,51.3272838 172.492201,58.947347 172.949444,64.5593744 C173.65176,73.1937005 170.873129,82.5349372 165.942164,88.6751554 C170.873129,94.8165119 173.65176,104.158887 172.949444,112.792075 C172.492201,118.40524 170.438578,126.024165 163.606026,132.174629 C167.361547,134.841765 170.899225,137.905044 174.282597,140.845382 C175.762113,142.129432 177.1849,143.362256 178.578187,144.523366 C191.057634,129.736299 198.665117,110.142014 198.665117,88.6762937 C198.665117,67.2094352 191.057634,47.616288 178.578187,32.8292219 C177.1849,33.990331 175.762113,35.2220174 174.281462,36.5072058 C170.899225,39.4464055 167.361547,42.5096846 163.606026,45.1768205" id="Fill-20" fill="#D4682C"></path>
                <path d="M137.927909,46.9244036 C150.934945,50.1436355 161.265463,41.1746368 171.259006,32.501607 C172.620524,31.3211461 173.928716,30.1884955 175.227831,29.1002403 C161.752206,14.9859345 143.528286,6.07043783 123.393703,5.41133765 L123.393703,28.723449 C123.393703,38.0054919 128.690008,44.6397506 137.927909,46.9244036" id="Fill-22" fill="#D4682C"></path>
                <path d="M73.8230988,65.0066291 C73.1877237,72.8042736 75.8608376,81.2280064 80.5002104,86.2640326 L80.5002104,86.1001113 L161.639881,86.1001113 C166.183947,81.0447333 168.792389,72.7177596 168.162687,65.0066291 C167.763308,60.0764687 165.850375,53.2532451 159.209571,48.0248391 C152.580112,51.8747126 145.248337,54.0239028 136.846636,51.9464282 C129.394594,50.1011754 123.912214,45.7572613 120.992893,39.7172172 C118.071302,45.7572613 112.592326,50.1011754 105.139149,51.9464282 C96.7374482,54.0239028 89.4045387,51.8747126 82.778484,48.0248391 C76.1342758,53.2532451 74.2247467,60.0764687 73.8230988,65.0066291" id="Fill-24" fill="#D4682C"></path>
                <path d="M104.058444,130.427501 C91.0514083,127.209407 80.7197552,136.177268 70.7262125,144.850297 C69.365829,146.031897 68.0576371,147.164547 66.7607911,148.251664 C80.2352817,162.364832 98.4592012,171.282605 118.591515,171.941705 L118.591515,148.629594 C118.591515,139.345274 113.294075,132.713292 104.058444,130.427501" id="Fill-26" fill="#D4682C"></path>
                <path d="M137.927909,130.427501 C128.690008,132.713292 123.393703,139.345274 123.393703,148.629594 L123.393703,171.941705 C143.528286,171.282605 161.752206,162.364832 175.227831,148.251664 C173.928716,147.164547 172.620524,146.031897 171.259006,144.850297 C161.265463,136.177268 150.934945,127.209407 137.927909,130.427501" id="Fill-28" fill="#D4682C"></path>
            </g>
        </g>
    </g>
</svg>