<svg xmlns="http://www.w3.org/2000/svg" viewBox="0 0 798 690.6"><title>vikinguro</title><path d="M1,68.7H799L400,759.3" transform="translate(-1 -68.7)" fill="#f8ca01"/><path d="M400,478.8,297,302.6H166L400,702.9,633.9,302.6H503L400,478.8m-175.3-300L176.9,97H45.9l47.8,81.8h131m481.6,0L754.2,97H623.1l-47.8,81.8h131" transform="translate(-1 -68.7)" fill="#13007c"/><path d="M434.4,178.8V127.2l-27.9,30.1-29.4-30.7v52.2H358V97.1h19.7l28.5,30.8,27.7-30.8h19.5v81.7h-19" transform="translate(-1 -68.7)" fill="#13007c"/><path d="M495.7,112.7v15.8h30.9v15.7H495.7v34.5h-19V97.1h55v15.7h-36m-227.5,34V97.1h19v49.6c0,17.5,28.5,17.5,28.5,0V97.1h19v49.6c0,42.9-66.5,42.9-66.5,0" transform="translate(-1 -68.7)" fill="#13007c"/><path d="M507.5,263.7V188.1h19v75.6c0,17.5,26.6,17.5,26.6,0V188.1h19v75.6c0,42.9-64.6,42.9-64.6,0" transform="translate(-1 -68.7)" fill="#13007c"/><path d="M431.5,263.7V217.8c0-42.8,64.7-42.8,64.7,0v7.5h-19v-7.5c0-17.4-26.7-17.4-26.7,0v45.9c0,17.5,26.7,17.5,26.7,0V258H459.6V242.3h36.6v21.3c-.1,42.9-64.7,42.9-64.7,0" transform="translate(-1 -68.7)" fill="#13007c"/><path d="M351.8,293.4V188.1h20l27.6,61.2V188.1h18.9V293.4H398.5l-27.6-61.2v61.2H351.8" transform="translate(-1 -68.7)" fill="#13007c"/><path d="M319.9,188.2h19v19.1h-19V188.2" transform="translate(-1 -68.7)" fill="#13007c"/><path d="M226.7,213.9v79.5h-19V246.5l19-32.6" transform="translate(-1 -68.7)" fill="#13007c"/><path d="M207.7,188.1h25.2l-25.2,43.2V188.1" transform="translate(-1 -68.7)" fill="#13007c"/><path d="M99.1,188.1h22L166,264.9l34-58.2v37.7l-33.9,58.2-67-114.5" transform="translate(-1 -68.7)" fill="#13007c"/><path d="M319.9,215h19v78.3h-19Z" transform="translate(-1 -68.7)" fill="#13007c"/><path d="M627.8,188.1a28.5,28.5,0,0,1,19.9,8.1,27.4,27.4,0,0,1,0,39.5,29,29,0,0,1-13.5,7.4l18.6,27.3-10.4,17.9-30.5-44.4h-9.8v49.6h-19V188.1h44.7m-25.7,36.7h25.7c7.9,0,12.7-9.3,6.7-15a9.9,9.9,0,0,0-6.7-2.7H602.1v17.7" transform="translate(-1 -68.7)" fill="#13007c"/><path d="M311,188.1l-33.1,45.4,36.8,59.9H292.5l-26.7-43.3-6.8,9.2v34.1H240V188.1h19v39.1l28.6-39.1H311" transform="translate(-1 -68.7)" fill="#13007c"/></svg>