<svg xmlns="http://www.w3.org/2000/svg" viewBox="0 0 300.6 300.6"><title>vidir</title><circle cx="150.3" cy="150.3" r="150.3" fill="#16067a"/><circle cx="150.3" cy="151.3" r="141.6" fill="#fff"/><path d="M486.8,244.9c-1,4.2-6.3,6.8-5.8,11.6s-1.7,11.4,2,15.1c8.1-.1,2.6-9.4,4.6-13.9,0-2.3,1.4-4,2.6-5.8,3.7,3.8,7,8.4,5.2,13.7-1.3,1.9-4.1,3.8-4.6,6.3-4.2,3.4-8.2,7-9,12.2s-1,10.8,1.8,14.9c2.9.4,4.3-2.8,5.4-4.7,0-4.8,5.4-5,8.1-7.5,2.4-1,4.7-3.1,7.2-2.9-2.4,5.4-2.8,11.6-8.7,15.6a16.9,16.9,0,0,0-12,5c.2,2.1.2,4.2,2.3,5.6l1.4.2c.6,2.7-3.8,5.2-.6,7.9,5.5.7,3.6-5.8,6-8.5s7.9-7.5,13.3-7.7a12.9,12.9,0,0,1-5.8,13.1c-3.7,1.1-8.5-.4-10.9,3.8s-.8,7.6-3.2,10.8c.8,1-.5,2.8,1.2,3.4s2.2-2.4,4-2.5a72.1,72.1,0,0,1,13.3-3.5c-1.1,6.8-6,14-13,16l-4.7.2c-10.5,8.1-14.1,20.5-25.6,27.4-1,.5-2.3.2-3.5.2-1.2-1.6-3.2-3.1-2-5.4,5.5-4.8,14.8-8.6,14.8-17.2a14.2,14.2,0,0,1-4.1-11c.8-4.2,4.3-7.3,6-11,5.2,5.1,2.4,13.2,2.4,19.7.1.7,1,1.2,1.4,1.7,5.5-2.2,5.8-8.7,6.6-13.9a22.2,22.2,0,0,0-4.7-14.5V317c1.8-1.5,2.9,3.4,4.1,1,.4-6.3-4.3-11.6-9.5-14.3-2.5-.6-4.7-2.7-7.2-2.3a7.2,7.2,0,0,1-7,5c-3.5.4-6.5-.6-9.5-1.5,3.8-2.8,4.6-10,10.7-8.5v-1.7c-4.8-2.8-5.8-10.4-12.1-9.9-2-5.2-5.8-10.8-3.1-16.8,8.3,5,6.3,15.9,14.4,21.8,5.2,5.2,10.2,11.6,17.8,10.2,2.6-5,.1-10.7-1.1-15.4-.7-2.9,2.2-1.8,2.5-4.1,0-4,1.3-7,0-10.8-5.8-4.7-11.4-11-10.3-18.9l.8-.8,7.6,7.3c.8.1,1.3-1,1.9-1.5,1.4-7.1-3.4-16.1,4.1-21.5A10.5,10.5,0,0,1,486.8,244.9Z" transform="translate(-249.7 -149.7)"/><path d="M319.7,243.5c.4,5.3-1.9,11.3,1.2,15.7,3.6-1.7,4.8-6.4,8.4-7.6.8,3.4-.4,7.1-1.2,10.5-1.8,5.1-9.9,6.8-8.7,13.1.7,2.7-.6,6.5,2.3,8.1l1.4.2c-.8,5.8-5.2,13.3-.2,18.4,9.3-.4,14.8-8.6,20.4-15.5,1.7-6.4,4.2-12.5,10.1-17.1,1.9,5.6-.7,11.1-2.9,16-4.9,1.5-7.6,7-11.8,10.4,4.2,1.6,7.6,5.8,9.7,9.9l.6.6a17.4,17.4,0,0,1-12.1.8c-2-1-2.4-3.3-3.4-5-5.4.5-9.9,3.9-13.9,7-.8,3.1-4.7,6.7-1.7,9.8.8-.1,1.6-.8,2.6-.6s.5,1.3.2,2.1c-6.4,4.6-4.9,14.9-3.5,21.8.7,2.9,2.8,4.8,5.2,6.4.8-.2,1.8-.5,2-1.5-.1-6.9-2.8-14.3,2.3-19.7,1.1,5,7.6,8.6,5.5,14.8-.7,4.4-6.4,8.1-2.6,12.8,3.5,6.3,11.5,7.5,14.8,13.9-1.1,2.1-3.5,3.1-5.8,3.5-3.2-8.4-13.1-7.9-15.3-16.6l-11.9-11.4c-5.9-.1-11.9-2.5-14.7-7.7l-1.8-7.3c6,.4,11.8,1.3,16.2,5.4,1.7-1,1.6-3.5,1.1-5.2s.1-6.9-3.1-9c-4.4-5.1-12.3-2.9-15.9-9.3.1-2.7-1.4-4.7-.8-7.6,3.5.5,7.3,1,9.5,4.1,4.1,3.8,4.2,10.9,10.7,11.9,3.4-3.9-5-8,1.4-10.2.4-.8,1.6-1.6,1.1-2.9-3.4-7.5-12.3-1.7-16.1-8.4-2.9-3.5-2.6-8.4-4.6-12.2,4.9.7,10.1,3.9,14.4,7.5,1.2,2.2.8,5.2,3.7,6.4,1.3.4,4.6.8,4-1.7.6-9.1.4-19.5-8.7-23.8-.5-4.7-6.5-4.2-6.2-9.3s2.8-8.4,6-11.3c3.6,4.5,2.5,11,3.1,16.8a5.3,5.3,0,0,0,3.5,2.9c1.2,0,1.3-1.3,2-2.1,1.7-8.5,1.3-18.3-5.2-24.5a13.3,13.3,0,0,1,3.7-11.6Z" transform="translate(-249.7 -149.7)"/><path d="M479.4,242.4c-1.1,3.3.5,6.5,1.7,9,1.6-1.9,4-4.1,4.6-6.7s-.4-6.2-2.5-8.5A21.7,21.7,0,0,0,479.4,242.4Zm1.9,5.2c0-2.5,1.2-5.3,1.2-8.1C482.5,241.7,482.6,245.2,481.3,247.6Z" transform="translate(-249.7 -149.7)" fill="#257524"/><path d="M315.2,243.8c.2-.7.6-2.4,2-2.1a4.1,4.1,0,0,0-2.6-3.3c-1.3,1-1,2.5-1.4,3.9C314.4,241.8,314.6,243.1,315.2,243.8Z" transform="translate(-249.7 -149.7)" fill="#257524"/><path d="M315.8,249c-1.8-.8-1.3-3.8-2.6-5,.1,3,1.7,6.2,4.3,7.3l.4-8.5h-.6C316.7,244.9,317.1,247.4,315.8,249Z" transform="translate(-249.7 -149.7)" fill="#257524"/><path d="M469.5,252.6a16.3,16.3,0,0,0,8.4,13.3A17.9,17.9,0,0,0,469.5,252.6Zm6.6,9.6v.6c-2.4-1.2-3.4-4.1-4.3-6.4C473.7,257.8,473.8,260.8,476.1,262.1Z" transform="translate(-249.7 -149.7)" fill="#257524"/><path d="M490.6,270c.8-3.4,6.4-5.7,3.5-9.7-1,2.2-2,4.6-3.7,6.2.6-2.7-1.3-6.3.6-8.5.5,1.3,0,3,.5,4.4,1.1-1.1,1.6-2.5,2.4-3.8-1.2-1.5-1.8-3.6-3.5-4.4-2.5,4.5-1.4,11-.8,16C490,270.5,490.2,269.9,490.6,270Z" transform="translate(-249.7 -149.7)" fill="#257524"/><path d="M327.3,255.1c-1,1.2-4,2.9-1.8,4.1-1.1,1.1-1,3.4-2.5,3.8s.1-1.6.2-2.3c-1.8,1.8-2.3,4.6-2.9,6.7,4.7-2.2,6.6-7.1,7.6-11.6Z" transform="translate(-249.7 -149.7)" fill="#257524"/><path d="M308.8,270.2c.4-4.4.8-10.3-1.4-13.9-2,2.1-2.9,4.6-3.7,7.3C304.5,266.1,305.7,269.6,308.8,270.2Zm-3.7-8.5c.5,0,.7.6,1.2,1s1-1.3,1.7-1.5a28.3,28.3,0,0,0-1.2,5.4c-1-.5-1.4-2.3-1.7-3.8Z" transform="translate(-249.7 -149.7)" fill="#257524"/><path d="M445.6,270l-.6,1.9c1.4,5,2,11.7,8.4,13.1C450.9,279.9,450.5,274,445.6,270Zm4.3,11.9c-1.4-1.9-1.9-4.6-2.9-7,1.9,1.2,2,4.1,3.1,6.2C450.2,281.2,450.3,281.7,449.9,281.9Z" transform="translate(-249.7 -149.7)" fill="#257524"/><path d="M345.4,285.6c1.7-.1,3-1.2,4.3-2.1,1.7-3.4,3.8-7.6,2.6-11.3C349.2,276.3,345.6,280.3,345.4,285.6Zm1.7-2.5c.2-2.7,3-4.2,3.5-6.8C351.1,278.6,348.6,281.4,347.1,283.1Z" transform="translate(-249.7 -149.7)" fill="#257524"/><path d="M502.1,285.4c-5.5,2.9-13.1,6.7-13.8,13.9,2-.8,4.4-.7,6.6-1.2C500,295.5,501.7,289.8,502.1,285.4Zm-3.7,4.6c0,1.5-4.2,2.4-1.7,3.5l-5.5,3.5C493.4,294.9,495.5,291.7,498.4,290Z" transform="translate(-249.7 -149.7)" fill="#257524"/><path d="M303.4,300.1a9.5,9.5,0,0,0,6.9,0l-1.7-2.1c-.1-6.4-7.5-7.9-11.3-10.7l-1.1.5C298,292.3,299.3,297,303.4,300.1Zm-3.8-6.1c1.3-.5,2.3,1.8,3.5,2.3,1.1-1.6-.8-2.5-.6-4.1h.6l1.4,5C302.3,297.8,301.6,295,299.5,294.1Z" transform="translate(-249.7 -149.7)" fill="#257524"/><path d="M452.8,303.9a16.9,16.9,0,0,0,7.8.4,7.2,7.2,0,0,0,4-5.8l-6.9-.6C454.8,298.9,454.4,301.9,452.8,303.9Zm9.7-4.6-7.7,2.9c1.8-2.3,5.5-1.6,7.7-3.8Z" transform="translate(-249.7 -149.7)" fill="#257524"/><path d="M336.8,298.4c-.7,2.1-1.1,4.5.2,6.4s6.9,1.2,9.3.2C344,302.1,341.6,297.3,336.8,298.4Zm2,5.4h-.6l-.2-3.1,3.4.8C339.8,301.7,337.9,302.3,338.8,303.9Z" transform="translate(-249.7 -149.7)" fill="#257524"/><path d="M493.2,314.7a35.3,35.3,0,0,1,6.4-1.7c3.6-1.8,5.3-5.9,5.8-9.9C500,304.5,493.2,308.7,493.2,314.7Zm8.3-7.5c-2.3,1-4.1,3-6.3,4.4,1.8-1.6,4-3.9,6.3-5Z" transform="translate(-249.7 -149.7)" fill="#257524"/><path d="M305.9,316.5c-2.6-4.6-5.7-11.1-11.8-11.4-.2,3.5,1.4,6.2,3.7,8.7A13.4,13.4,0,0,0,305.9,316.5Zm-8.9-5.6c.7.1,1.2,1,2,.8v-3.5a23,23,0,0,1,1.4,5.3c-1.4-.1-2.4-1.5-3.5-2.1Z" transform="translate(-249.7 -149.7)" fill="#257524"/><path d="M486.8,340l6.6-.2c4.6-1.9,7.8-6.3,9.3-10.8a47.1,47.1,0,0,0-9.3,2.3C489.8,332.8,488,336.6,486.8,340Zm11.8-6.4c-3.6.6-6.5,3.1-9.7,4.7v-.6C492.1,336.3,495.4,333.2,498.6,333.5Z" transform="translate(-249.7 -149.7)" fill="#257524"/><path d="M468.1,341.2c.2,2.7,2.6,5,4.9,6.3.8-5.7,3.5-13.1,0-18.3C470.4,332.7,467.2,336.1,468.1,341.2Zm2.3,1.9h-.6c-.6-3.1,1-6.2,2-9,0,1.8-1.3,3.5-.8,5.2l2-2.3C472.4,339.2,470.6,340.8,470.4,343.1Z" transform="translate(-249.7 -149.7)" fill="#257524"/><path d="M327.3,348.7l3.5-5.2c2.3-5-1.4-9-3.5-12.8C323,335.5,326.8,342.9,327.3,348.7Zm2.5-11.4c-.6,1.2-.8,3.3-1.9,4.7-1.4-1-.5-3.4-1.2-5,.8-.1.7,1.2,1.2,1.7S328.6,337,329.8,337.3Z" transform="translate(-249.7 -149.7)" fill="#257524"/><path d="M296.6,331l1.4,4.6c2.2,6.1,8.4,6.8,13.6,7.9.6-1.3,1.3-2.9.6-4.4C309.7,332.4,302.8,331.5,296.6,331Zm4.3,6.7c2.3-.6,3.5,1,5.5.8-.2-1.6-2.9-2.4-2.3-4.4.8,2.2,3.7,3.5,4.3,5.8Z" transform="translate(-249.7 -149.7)" fill="#257524"/><path d="M404.6,304.8l-3.5,11.3c-3.5,1.6-2.2-3.1-3.7-4.6.7-2.8-4.4-6.7.2-7.6A9.8,9.8,0,0,1,404.6,304.8Z" transform="translate(-249.7 -149.7)"/><path d="M425.6,317c.7,4.8-.8,9.4-3.1,13.4-2.3-2.5-5-5.8-5.5-9.1l4.7-9C423.2,313.8,425,314.9,425.6,317Z" transform="translate(-249.7 -149.7)"/><path d="M385.8,326.6c-5.7,5.2-5.4,18.4-16.7,14.5-4.9-5.1-.7-12,.8-17.2s4.2-7.9,8.1-11Z" transform="translate(-249.7 -149.7)"/><path d="M434.7,345.8c-.8,1.2-.8,2.9-1.8,4.1-2.4-5.7-7.2-11.1-7.8-17.4l4.3-11.1C435.5,327.1,435.9,337,434.7,345.8Z" transform="translate(-249.7 -149.7)"/><path d="M430.3,354.5c-1.8,4-4.1,8.5-8.2,10.8-4.9-7.5-8.3-16.2-13.8-23.8,1-5.6,4.8-9.9,6.6-15.1A78.9,78.9,0,0,1,430.3,354.5Z" transform="translate(-249.7 -149.7)"/><path d="M392.8,348.7c-.7.7-1.3,1.3-2.4,1.2-1.8-5-9.1-8.6-6.6-14.3,1.2-1.7,1.6-4,3.5-5.2C389.8,336,397.4,341.6,392.8,348.7Z" transform="translate(-249.7 -149.7)"/><path d="M382.7,344.1a89.3,89.3,0,0,1,8.9,12.7c-5.6,1.8-11.8,5.2-18.2,2.7-4.2-3.8-5.6-9.2-6.6-14.5C371.5,343.3,377.8,344.3,382.7,344.1Z" transform="translate(-249.7 -149.7)"/><path d="M414.1,356.2c.4,4.5,8.4,10.8.8,13.4-2.6,1.2-5.4,3-8.7,2.3a80.2,80.2,0,0,0-11.8-18l.6-1.5c5.5.1,11.1-1.5,16.1-.8Z" transform="translate(-249.7 -149.7)"/><path d="M402.9,371.1c.4,2.2-2.5,1.5-3.8,2.1-8.9.1-17.4-2.5-22.5-9.9,8.3,1.9,18.8-8.4,23.4,2.1Z" transform="translate(-249.7 -149.7)"/><polygon points="195.7 101.1 154.9 190.3 157.2 198.1 145.6 198.1 147.1 191.7 103.8 102.9 129.5 110.4 150.3 174.9 151.8 172.8 171.4 109.8 195.7 101.1" fill="#13007c"/><path d="M431.4,239.7c4-.1,6,4.6,9.9,5l.2-9.1c-2-2.9-4.1-6.3-2.9-10.4a1.5,1.5,0,0,1,2-1.5c4.1,8.4,3,18.7,6,26.4a11.7,11.7,0,0,0,3.5,2.7,5.9,5.9,0,0,0,6.1-.6c.2-2.7.6-6.2-.4-8.7-7.7-1.3-5.7-10.7-8.1-16.2,6.1-3.1,2.6-11.9,4.1-17.8-3.1-7.3-11.9-10.7-19.4-12.1-.8.2-2.2.6-2,1.7l.2,7.5c7.3,4,3.4,13.2,2.6,20.1.6,2.9-2.8,1.2-3.7,2.9C429.8,233.4,427.8,236.8,431.4,239.7Zm9-29.1a10.4,10.4,0,0,1,6.6,3.1c-.1,2.5.4,4.5-.6,6.8-2.3-1.2-5.4-1.1-7-3.5A16,16,0,0,1,440.4,210.7Z" transform="translate(-249.7 -149.7)" fill="#fd1a16"/><path d="M391.4,230.8l17,.5c2.6-.4,3.6-2.7,4.3-4.8l1.2-21.5c.4-4.4-.2-8.2-2.9-11.4-4.2-3.9-11.2-2.2-16.5-2.5-2.8,1.8-2,6.4-1.7,9.6a5.1,5.1,0,0,1,3.4,3.1c.2,3.1-1.4,5.4-4.3,6.8-2.8,5.7,6.6,3.9,3.2,9.6C390.8,222.3,391.3,226.7,391.4,230.8Zm9.7-25.1a4.2,4.2,0,0,1,3.2-4.4c2.3,0,4.6,1,5.4,3.3-1.1,5.7,1.2,12.8-2,17.7-2.3-.8-5.9.8-6.9-2.7-.7-1.5,0-3,.8-4.4a6.4,6.4,0,0,0,3.1-2.3C406.6,208.9,400.4,209.1,401.1,205.7Z" transform="translate(-249.7 -149.7)" fill="#fd1a16"/><path d="M429.1,197.8c-1.9-4-7-5.3-11.5-5.4-2.4,2.7-1.3,6.8-2,10.2a8.1,8.1,0,0,1,4.7,4l-1,16.3c-.6,1.6-2.5,1-3.4,1.1-2.8,1.6-1.2,5.1-1.2,7.9,3.4,1.8,7.1,3.6,11.3,4.1,2.6-1.2,1-4.7,1.4-7-6-5.7-3.4-15.5-2.4-22.6C430,206.2,428.4,200.6,429.1,197.8Z" transform="translate(-249.7 -149.7)" fill="#fd1a16"/><path d="M435.6,188.1a7.2,7.2,0,0,0,5.2-.1c1.6-.9,2.1-2.7,2.6-4.4l1.5-5.4c.5-1.7.6-2.1,2.5-1.7l.5-1.9-5.9-1.7-.5,1.8c1.8.8,1.7,1.1,1.2,2.8l-1.5,5.5c-.3,1-.6,2.2-1.5,2.8a3.5,3.5,0,0,1-2.7.2,2.8,2.8,0,0,1-1.9-1.9,5.3,5.3,0,0,1,.3-2.9l1.5-5.4c.5-1.6.6-2.1,2.5-1.7l.5-1.9-7.5-2.2-.5,1.9c1.8.8,1.7,1.1,1.2,2.8l-1.6,5.8c-.6,1.8-.9,3.4.3,5.1A7.5,7.5,0,0,0,435.6,188.1Z" transform="translate(-249.7 -149.7)" fill="#fd1a16"/><path d="M463.6,195c-.8,1.2-1.1,1.7-2.4,1.1l-.4-.2-1,1.6,11.5,7.4,5-3.3-.9-1.6c-2.9,1.3-5.2,1.6-8-.2-.4-.3-1.3-.8-1.1-1.4a15.4,15.4,0,0,1,1.1-2l1.3-2.1.3.2c.6.4,1.4.8,1.4,1.6a4.7,4.7,0,0,1-.5,2l1.5,1,3.8-6.2-1.5-1a4.3,4.3,0,0,1-1.4,1.5c-.7.3-1.4-.3-1.9-.6l-.6-.4.9-1.4c.3-.4.8-1.4,1.2-1.6s1.6.5,1.9.8a7,7,0,0,1,3.1,6.1l1.7.2.6-5.4L468.2,184l-1,1.6.4.4c1.1,1,.6,1.5,0,2.6Z" transform="translate(-249.7 -149.7)" fill="#fd1a16"/><path d="M479.1,186.7a1.7,1.7,0,0,0-.5-2.4,3.5,3.5,0,0,0-2.3-.1l-2.9.5-.2,1.2,3.2,1.2C477.3,187.5,478.5,187.8,479.1,186.7Z" transform="translate(-249.7 -149.7)" fill="#fd1a16"/><path d="M448.5,187.6c-.7,1.5-.9,2-2.7,1.3l-.8,1.8,7.5,3.5.8-1.8h-.2c-.5-.2-1.2-.7-1.3-1.3a3.4,3.4,0,0,1,.4-1.7l1.2-2.8c2.3.9,2.3,1.5,1.6,3.8l1.5.7,3-7-1.5-.7a5,5,0,0,1-1.2,1.6c-.6.5-1.3.1-1.9-.2l-.6-.3.8-1.7c.7-1.6.8-2.2,2.6-1.4s3.4,3,3.9,5.6h1.8v-5.3l-12-5.5-.8,1.8c1.7.9,1.5,1.4.9,2.9Z" transform="translate(-249.7 -149.7)" fill="#fd1a16"/><path d="M375.8,173.4l3.7,4.3.4,2.3c.1.5.3,1.4,0,1.8a3,3,0,0,1-1.7.8l.3,1.9,8.1-1.3-.3-1.9h-.2a2.4,2.4,0,0,1-1.7-.3,3.6,3.6,0,0,1-.5-1.7l-.4-2.5,2.1-4.8c.8-1.8,1.3-2.9,3.3-3.4l-.3-1.9-6.9,1.1.3,1.9c.4,0,1.6-.3,1.7.2a5.8,5.8,0,0,1-.5,1.7l-1.2,3-2.2-2.9-.3-.4a2,2,0,0,1-.3-.6c-.1-.6,1.3-.8,1.7-.9l-.3-1.9-8.6,1.4.3,1.9C374,171.2,374.7,172.2,375.8,173.4Z" transform="translate(-249.7 -149.7)" fill="#fd1a16"/><path d="M488.6,211c-2.3,1-5.2,1.1-7.2-.6s-.8-1.3,0-2.3l4.9-6c.3-.4.8-1.2,1.4-1.2a3.3,3.3,0,0,1,1.7.8l1.2-1.5-6.2-5.3-1.2,1.5c1.3,1.4,1.1,1.7,0,3l-4.7,5.8c-1.1,1.3-1.3,1.6-2.9.5l-1.2,1.5,9.5,8.2,5.3-2.7Z" transform="translate(-249.7 -149.7)" fill="#fd1a16"/><path d="M316,212.8c-1.3,1-1.6.8-3.1.3l-11.7-4.2-2.3,2.8,5.1,10.6c.8,1.6,1.4,2.8.3,4.5l1.4,1.3,4.6-5.5-1.4-1.3-.2.2c-.4.4-1.3,1.3-1.9.8a3.7,3.7,0,0,1-.6-.9l-.9-1.6,3.2-3.8,1.7.7,1.1.6c.5.5-.4,1.6-.7,2l1.4,1.3,5.5-6.5-1.4-1.3Zm-11.7,5-2.2-4.4,4.5,1.7Z" transform="translate(-249.7 -149.7)" fill="#fd1a16"/><path d="M325.4,205.4l-.2.2a2.2,2.2,0,0,1-1.6.6c-.5-.1-1-.8-1.3-1.1l-5.7-7c-.3-.3-.4-.4,0-.7a3.8,3.8,0,0,1,2.5-.7,9,9,0,0,1,2.6.7l.9-1.6-4.4-2.5-9.6,8.3,1.6,4.9,1.7-.6a9.9,9.9,0,0,1-.2-2.8,4,4,0,0,1,1.1-2.4c.3-.3.4-.2.7.1l5.7,7c.3.4.9,1,.9,1.5a2.4,2.4,0,0,1-.9,1.5l-.2.2,1.2,1.5,6.4-5.5Z" transform="translate(-249.7 -149.7)" fill="#fd1a16"/><path d="M417,181.8c-.6-.1-1.4-.4-1.7-.9a3.6,3.6,0,0,1,0-1.7l1.2-8,5.2,13.4,2.8.5,1.8-11.7c.3-1.7.4-2.2,2.3-2l.3-1.9-6.1-1-.3,1.9c1.9.5,1.8,1,1.6,2.6l-.8,5-3.8-10-6.6-1.1-.3,1.9c.6.1,1.4.4,1.7.9a3.6,3.6,0,0,1,0,1.7l-1.2,7.5c-.1.5-.1,1.4-.6,1.7a2.8,2.8,0,0,1-1.7.2l-.3,1.9,6,1Z" transform="translate(-249.7 -149.7)" fill="#fd1a16"/><path d="M511.4,243.2l.2.3,1.6-1-3.7-6.6-1.6,1c.6,1,.8,1.9-.3,2.6s-3.1-.1-3.9-1.4.7-5.1,2.9-6.4,5.6-2.5,7.1.1.4,4.8-.7,6.7l1.3,1.2,3.8-4-.7-1.3h-.7a9.2,9.2,0,0,0-1.1-4.1c-2.4-4.2-7-5.1-11-2.7s-5.7,6.5-3.4,10.8a9.1,9.1,0,0,0,1.8,2.2,11.8,11.8,0,0,0,1.8,1.2l-.9,1.1,1.3,2.2,3.5-2.1C510,242.3,510.4,241.9,511.4,243.2Z" transform="translate(-249.7 -149.7)" fill="#fd1a16"/><path d="M504.4,214.7l-2.3-2.8-10.9,3.7c-1.7.6-2.9,1.1-4.4-.4l-1.4,1.3,4.6,5.5,1.4-1.3v-.2c-.3-.5-1.1-1.5-.5-2l1-.5,1.7-.6,3.2,3.8-.9,1.6a6.4,6.4,0,0,1-.7,1.1c-.5.5-1.4-.7-1.8-1l-1.4,1.3,5.5,6.5,1.4-1.3v-.2c-.8-1.4-.5-1.7.2-3.2Zm-6.7,4.7-2.3-2.7,4.5-1.6Z" transform="translate(-249.7 -149.7)" fill="#fd1a16"/><path d="M293.4,220.8l-1.6-1-3.2,5.4,1.6,1c1.1-1.6,1.6-1.4,2.9-.5l4.1,2.7-10.4-.3-3.6,5.9,1.6,1c.4-.5.9-1.2,1.4-1.2a3.3,3.3,0,0,1,1.5.7l6.2,4c.4.3,1.2.7,1.3,1.2a3,3,0,0,1-.5,1.7l1.6,1,3.2-5.3-1.6-1c-.4.5-.9,1.2-1.4,1.2s-1.1-.5-1.5-.7l-6.7-4.3,14,.3L304,230l-9.7-6.3C292.9,222.9,292.5,222.6,293.4,220.8Z" transform="translate(-249.7 -149.7)" fill="#fd1a16"/><path d="M511.4,255.1a2.7,2.7,0,0,1-.1-1.8c.2-.4,1-.7,1.5-.8l6.9-2.7c.5-.2,1.3-.6,1.8-.3a3.2,3.2,0,0,1,1.1,1.6l1.8-.7-2.9-7.9-1.7.7v.2a2.6,2.6,0,0,1,.1,1.8c-.3.4-1,.7-1.5.9l-6.9,2.7c-.5.2-1.3.6-1.8.4a3.2,3.2,0,0,1-1-1.5l-1.8.7,2.9,7.9,1.7-.7Z" transform="translate(-249.7 -149.7)" fill="#fd1a16"/><path d="M527.1,259.5l-2.1-7-1.8.6c.4,1.9,0,2.1-1.6,2.6l-1.9.6-.6-1.9-2.1.6.6,1.9-3,1c-1.6.5-2,.6-2.7-1.2l-1.8.6,2.2,7.5c.7,2.3,1.4,4.6,3.6,5.9a7.6,7.6,0,0,0,6.5.6,8.2,8.2,0,0,0,4.1-2.9,7.5,7.5,0,0,0,1.5-4.4A20.4,20.4,0,0,0,527.1,259.5Zm-2.3,5.1a6.7,6.7,0,0,1-3.6,2.3c-3,.9-5.9.4-6.9-2.9a2.9,2.9,0,0,1-.2-1.4c.1-.3.6-.5.9-.6l3.8-1.2,1,3.3,2.1-.6-1-3.3,2.5-.8c1.3-.4,1.5-.1,1.9,1.2A4.2,4.2,0,0,1,524.8,264.7Z" transform="translate(-249.7 -149.7)" fill="#fd1a16"/><path d="M292.2,244.7a14.2,14.2,0,0,1-2.9.8l-5.8,1.2-.3-.7c-.8-2.1-1.6-4.2-.9-6.5l-1.7-.7-2.8,7.5,1.8.7v-.3c.1-.4.4-1.1.9-1s.6,1,.7,1.3l1.9,4.7-2.6-1c-1.6-.6-1.9-.7-1.5-2.6l-1.8-.7-2.8,7.5,1.7.7c.8-1.8,1.3-1.7,2.8-1.1l6.9,2.7c.5.2,1.3.4,1.5,1a3,3,0,0,1-.1,1.8l1.7.7,2.8-7.5-1.7-.7c-.8,1.7-1.2,1.5-2.7.9l-1.7-.7-.8-2.3,4.2-.8a5,5,0,0,1,1.6-.2c.6.3.1,1.5-.1,2l1.8.7,3.1-8.4-1.8-.7A3.8,3.8,0,0,1,292.2,244.7Z" transform="translate(-249.7 -149.7)" fill="#fd1a16"/><path d="M359,177.2l1.9,7.3c.4,1.6.5,2.1-1.3,2.7l.5,1.9,7.5-2.1-.5-1.9c-1.8.3-1.9-.2-2.3-1.7l-.6-2.2,1.9-.5c3.1-.8,6.3-2.5,5.2-6.4a4.4,4.4,0,0,0-3.3-3.3,9.4,9.4,0,0,0-4.4.5l-7.7,2.1.5,1.9C358.4,175.1,358.5,175.5,359,177.2Zm3.7-2.9a2.5,2.5,0,0,1,1.2-.7,2.4,2.4,0,0,1,3.2,1.8,2.7,2.7,0,0,1-.4,2.3,5,5,0,0,1-2.4,1.3l-.6.2-.9-3.6C362.6,175.1,362.5,174.6,362.7,174.3Z" transform="translate(-249.7 -149.7)" fill="#fd1a16"/><path d="M400.3,180.7H400c-1.7-.1-1.9-.7-1.9-2.3v-2.7h1.2l4.8,7h5.3v-1.9c-1.6-.2-2-.7-2.8-1.9l-2.7-3.7a4.5,4.5,0,0,0,3.9-4.3,3.9,3.9,0,0,0-2.6-3.7,13.2,13.2,0,0,0-4.4-.6l-8.6-.2v1.9h.3c1.7.1,1.7.7,1.7,2.2v7.7c0,1.7-.1,2.1-1.8,2.2h-.2v1.9h8.2Zm-1.8-11.6a3,3,0,0,1,1.8-.3,3.8,3.8,0,0,1,2.2.6,2.6,2.6,0,0,1,1,1.8,2.4,2.4,0,0,1-1.5,2,6.8,6.8,0,0,1-2.8.3h-.9v-3.4C398.3,169.8,398.2,169.3,398.5,169.1Z" transform="translate(-249.7 -149.7)" fill="#fd1a16"/><path d="M326.7,194a9.8,9.8,0,0,1,.3-2.8,4,4,0,0,1,1.5-2.2c.4-.2.5-.1.7.3l4.4,7.9a3.3,3.3,0,0,1,.6,1.6c-.1.6-.7,1.1-1.1,1.3h-.2l.9,1.7,7.2-4.3L340,196h-.2a2.2,2.2,0,0,1-1.7.3c-.4-.2-.8-1-1.1-1.4l-4.4-7.9c-.2-.4-.3-.5.1-.7a3.8,3.8,0,0,1,2.6-.2,9.1,9.1,0,0,1,2.5,1.1L339,186l-4-3.3-10.8,6.4.8,5.2Z" transform="translate(-249.7 -149.7)" fill="#fd1a16"/><path d="M344.5,187.1a10.7,10.7,0,0,0,3.7-.1l2.6-.4c1-.1,2.4-.5,2.9.7s-.8,2.6-2,3.1-5.1,0-7.1-1.8l-1.4,1.2,3.9,4.8,1.3-.5v-1.1a6.8,6.8,0,0,0,4.3-.4c3.1-1.3,5.2-4.4,3.9-7.9a4,4,0,0,0-2.8-2.5,13.3,13.3,0,0,0-3.8.1l-1.6.2-.9.2c-.8.1-2.5.5-2.9-.5s.8-2.1,1.7-2.5a4.9,4.9,0,0,1,3-.2,8.3,8.3,0,0,1,2.6,1.3l.3.2,1.3-1.2-3.1-3.8-1.3.5v.8a6.7,6.7,0,0,0-3.9.4c-2.7,1.1-4.7,4-3.5,7.1A4.1,4.1,0,0,0,344.5,187.1Z" transform="translate(-249.7 -149.7)" fill="#fd1a16"/><path d="M384.4,190.9l3.6-3-4.7-2.4c.1,2.8-1.2,5.6-1.2,6.1s-2.9.7-4.3,1.1-2.8,3.5-3.5,5.6h.1v4.5a2.7,2.7,0,0,0,2.6,1.1c3.6,3.1,1.6,9.3,1.7,13.1,2.9,8.6-10.1,10-5.5,18.9,4.8-.8,8.7-3.8,13.9-3.4,2.8-1.8,1.7-5.7,1.9-8.7s-4.1-1.2-4.8-3.9c1.6-5.8-2.9-15.1,4-17.7,3.5-1.8,1.9-6.5,2.3-9.6S386.2,192.5,384.4,190.9Z" transform="translate(-249.7 -149.7)" fill="#fd1a16"/><path d="M370.3,194.5c-3.7.8-8.9,1.2-10.1,5.2.4,2.7-1.3,7.4,2.5,8.4-1.7,7.4-3.4,15-6.3,21.5l-.6-.6c0-6.9-4.2-15.9,1.4-21.2,1.2-2.5.2-5.6-.4-8.1-4.6-.6-8.2,2.8-12,5l-.6,8.7c.6,1.9,2.3-.1,3.7.5s1.3,1.6,2,2.4c1.2,6.8,2.4,13.6,2.3,20.8-2.9,2.9-1.9,7.4-.8,10.8,4.1-1.3,7.8-4.6,10.7-7.9.1-2.9,1.1-5.9-1-8.4l6.1-22.1c.2-3.6,4.9-3.4,5.2-6.9v-4.5h-.1c-.5-.7-.2-1.8-.2-2.7A1.6,1.6,0,0,0,370.3,194.5Z" transform="translate(-249.7 -149.7)" fill="#fd1a16"/><path d="M335.7,401.1a7.5,7.5,0,0,0-2.8-3.1c-2.6-1.5-6.1-1.1-7.5,2.1a5.2,5.2,0,0,0-.1,4.2,12.1,12.1,0,0,0,2.6,3.1l2,2c.7.7,2,1.7,1.4,3s-2.4,1.2-3.5.5-3.4-4.4-3.4-7.4l-1.8-.3-.9,6.9,1.2.7.8-.9a7.6,7.6,0,0,0,3.1,3.4c3,1.7,6.7,1.3,8.3-2.4a5.1,5.1,0,0,0,0-4.2,15.2,15.2,0,0,0-2.6-3.2l-1.2-1.2-.7-.6c-.6-.6-2-1.8-1.5-2.9s2.1-.9,3-.4a5.5,5.5,0,0,1,2.1,2.4,10.8,10.8,0,0,1,.8,3.2v.4l1.8.2.8-5.5-1.2-.7Z" transform="translate(-249.7 -149.7)" fill="#fd1a16"/><path d="M345.8,405.6l-2.1-.9v.2a4.4,4.4,0,0,1-2.3,2.5,3,3,0,0,1-2,.2l-.6,1.9,1.5.6-2,6a5.4,5.4,0,0,0-.5,3.5,3.3,3.3,0,0,0,2,2.1,5.4,5.4,0,0,0,5.4-.3l-.7-2.3a3.5,3.5,0,0,1-2.3.5c-1-.4-.5-1.5-.2-2.3l1.9-5.6,3,1.3.7-2.2-3-1.3Z" transform="translate(-249.7 -149.7)" fill="#fd1a16"/><path d="M356.1,413.5c-3.6-1.2-6.6.5-7.7,4.7a7.8,7.8,0,0,0,.6,5.7,6.9,6.9,0,0,0,3.8,2.9,5.9,5.9,0,0,0,4.9-.3,6.8,6.8,0,0,0,2.9-4.3,7.9,7.9,0,0,0-.6-5.7A6.9,6.9,0,0,0,356.1,413.5Zm.6,7.4c-.4,1.6-1.3,3.9-3.1,3.3s-1.5-3-1.1-4.7,1.2-4.1,3.2-3.4S357.1,419.2,356.7,420.9Z" transform="translate(-249.7 -149.7)" fill="#fd1a16"/><path d="M369.8,416.1c.1-.7.3-1.9,1.1-1.7s.4.3.5.7a1.5,1.5,0,0,0,1,1.1,1.7,1.7,0,0,0,2.1-1.3c.3-1.8-1.2-2.7-2.4-3a5.6,5.6,0,0,0-4,.6c-1.5.8-1.9,2.1-2.2,3.8v.5l-1.8-.4-.4,2.3,1.8.4-1.1,6.1c-.3,1.8-.4,2.3-2.2,2l-.4,2.1,7.6,1.8.4-2.1h-.3c-1.7-.4-1.5-1.1-1.2-2.8l1.1-6.1,2,.5.4-2.3-2-.5Z" transform="translate(-249.7 -149.7)" fill="#fd1a16"/><path d="M384.9,430.5a7,7,0,0,1,.1-1.6l.5-4.3a4.5,4.5,0,0,0-.6-3.5,3.9,3.9,0,0,0-2.7-1.6,6.2,6.2,0,0,0-4,.9v-1.1l-1.2-.2h-4.1l-.2,2.1h.2c1.6.4,1.5,1,1.3,2.7l-.3,3.2c-.2,1.8-.2,2.3-2,2.2l-.2,2.1,6.9,1,.2-2.1h-.2c-.8-.4-1.1-.6-.9-2.1l.5-5a3.6,3.6,0,0,1,2.5-1c1.1.1,1,1.3.9,2.2l-.5,4.5c-.1,1.2-.2,1.7-1.5,1.8l-.2,2.1,6.6.9.2-2.1-.4-.2C385.4,431.2,385,431.1,384.9,430.5Z" transform="translate(-249.7 -149.7)" fill="#fd1a16"/><path d="M399.9,431.8c-.4,0-.4-.9-.4-1.2l.2-5.1c0-1.6,0-2.9-1.4-3.9a7.5,7.5,0,0,0-7-.3,3.4,3.4,0,0,0-1.7,2.8,1.8,1.8,0,0,0,1.7,2,1.8,1.8,0,0,0,1.5-.7,2.5,2.5,0,0,0,.3-1.3.9.9,0,0,1,.3-.8,1.7,1.7,0,0,1,1.2-.3c.4,0,1.1.1,1.3.5a3.8,3.8,0,0,1,.1,1.6v.7c-2.5.2-6.9.8-7,4.6a3.5,3.5,0,0,0,3.6,3.8,5.7,5.7,0,0,0,3.7-1.2,3.2,3.2,0,0,0,2.5,1.5,4,4,0,0,0,3-1.2l-1.2-1.8C400.4,431.5,400,431.8,399.9,431.8Zm-4.1-1.2a2.6,2.6,0,0,1-1.9.8,1.2,1.2,0,0,1-1-1.4c0-1.5,2-1.9,3-2.1Z" transform="translate(-249.7 -149.7)" fill="#fd1a16"/><path d="M414.7,416.4l-.6-1.7-4.3,1.7a26.4,26.4,0,0,0-2.3-1.8l-2.7.5,2.5,2.3-4,1.6.6,1.7,4.8-1.8a8.3,8.3,0,0,1,1.4,1.9,2.1,2.1,0,0,0-.9-.3c-3.5.1-5.9,2.8-5.8,7.1a7.4,7.4,0,0,0,2.1,5.2,6.3,6.3,0,0,0,4.4,1.4,6.2,6.2,0,0,0,4.5-2,7.4,7.4,0,0,0,1.6-5.1c-.1-3.8-1.9-6.5-4.7-9.3Zm-3.3,8a9,9,0,0,1,.4,2.9c.1,1.7-.1,4.1-2.1,4.2s-2.3-2.3-2.3-4,.1-4.3,2.1-4.4S410.7,423.6,411.4,424.4Z" transform="translate(-249.7 -149.7)" fill="#fd1a16"/><path d="M431.8,429.1h-.9c-1.1.1-1.9,0-2.1-1.4L427.1,414l-1.1.2h-.2a19.2,19.2,0,0,1-5.2,1.7h-.2l.3,2.1h.9c.5,0,1.6-.2,1.9.2a4.6,4.6,0,0,1,.3,1.5l1,8.2c.1.4.2,1.3,0,1.6s-1.8.9-2.4,1h-.2l.3,2.1,9.8-1.6-.3-2.1Z" transform="translate(-249.7 -149.7)" fill="#fd1a16"/><path d="M445.5,411.6a6.1,6.1,0,0,0-5.8-1.1c-3.2.9-6.2,3.9-5.3,8.1s3.7,5.1,6.7,4.2a6.6,6.6,0,0,0,3.8-2.6c.6,2.5.2,5.7-2.3,6.4a2.4,2.4,0,0,1-1.5,0c-.2-.1-.3-.3-.4-.5s-1.2-1.9-2.4-1.6A2.1,2.1,0,0,0,437,427c.6,2.7,4.2,2.5,6,2a7.9,7.9,0,0,0,5.1-4.1c1.1-2.3.9-5,.4-7.4S447.1,412.9,445.5,411.6Zm-4,8.4c-1.7.5-2.9-.8-3.3-2.7s.1-3.8,1.9-4.3,3,.7,3.5,2.7S443.4,419.4,441.5,420Z" transform="translate(-249.7 -149.7)" fill="#fd1a16"/><path d="M460.5,411.7a4.5,4.5,0,0,0,1.2-4.5c-1.2-3.4-4.8-3.1-7.3-2a8.4,8.4,0,0,0-3.5,2.9,4.8,4.8,0,0,0-.7,4.2c.4,1.2,1.5,1.9,2.6,1.3a2.1,2.1,0,0,0,1.2-2.6c-.3-.8-.7-.9-.8-1.2a1.2,1.2,0,0,1,.1-.7,3,3,0,0,1,1.4-1.4,2,2,0,0,1,3,1.2,3,3,0,0,1-.2,2.5,4.2,4.2,0,0,1-1.8,1.4l-.7.3.8,2.2.3-.2.5-.2a4.5,4.5,0,0,1,2.6-.5,3.1,3.1,0,0,1,1.8,2,3.2,3.2,0,0,1-1.7,4.3,3,3,0,0,1-2.1.2.9.9,0,0,1-.6-.5,1.3,1.3,0,0,1-.1-.4,1.7,1.7,0,0,0-.1-.7,1.8,1.8,0,0,0-2.5-1,2.4,2.4,0,0,0-1,3.1,3.7,3.7,0,0,0,3.4,2.3,7.9,7.9,0,0,0,3.9-.8,10.6,10.6,0,0,0,4.2-3.5,6,6,0,0,0,.7-5.2A3.7,3.7,0,0,0,460.5,411.7Z" transform="translate(-249.7 -149.7)" fill="#fd1a16"/><path d="M472.3,403.5a7.6,7.6,0,0,0-3.3,3.6c-1-2.4-1.3-5.7,1.1-7.1a1.5,1.5,0,0,1,1.5-.2,2.2,2.2,0,0,1,.5.7,1.7,1.7,0,0,0,2.4.7,2.2,2.2,0,0,0,.9-2.8,2.7,2.7,0,0,0-2.6-1.5,7.6,7.6,0,0,0-3.8,1.1c-4.7,2.7-5,7.8-2.8,12.7s5.4,6.8,9.8,4.2,5.2-5.2,3.5-9.2A4.9,4.9,0,0,0,472.3,403.5Zm2.7,9.3c-1.7,1-3,0-3.8-1.8s-.6-3.7,1.1-4.7,3,0,3.7,1.7S476.7,411.8,475,412.9Z" transform="translate(-249.7 -149.7)" fill="#fd1a16"/><path d="M354.6,397.5l-.4,2.2,3,1.7,3.2-5.6c1.1-2,1.4-2.8,3.5-2l.4.2,1.5-2.6-8.8-5.1-1.5,2.6c1.3.8,2.2,1.8,1.2,3.5a4.4,4.4,0,0,1-5.8,1.5c-3.6-2.1-2.2-7-.2-10.5s5.7-7.9,9.1-5.9,3.5,5.7,3.2,9l2.4.3,2.5-8.2-1.7-1-.9.7a10.8,10.8,0,0,0-3.8-4.2c-5.7-3.3-12.1-.5-15.8,6s-3.3,13.1,2.3,16.3a10.8,10.8,0,0,0,3.7,1.2A15.5,15.5,0,0,0,354.6,397.5Z" transform="translate(-249.7 -149.7)" fill="#fd1a16"/><path d="M388.9,404.9c-2-1-1.9-1.6-2.2-4l-2.1-19.4-4.7-1.1-9.7,15.1c-1.5,2.3-2.5,4.1-5.3,3.8l-.7,2.9,9.5,2.2.7-2.9H374c-.7-.3-2.4-.7-2.1-1.9a6.4,6.4,0,0,1,.7-1.5l1.5-2.4,6.6,1.5.2,2.8a11.2,11.2,0,0,1,0,2c-.3,1.1-2.1.6-2.8.5l-.7,2.9,11.2,2.6.7-2.9Zm-13.2-12.3,3.9-6.3.7,7.4Z" transform="translate(-249.7 -149.7)" fill="#fd1a16"/><path d="M414.7,402.1l-3.8-5.5a6.8,6.8,0,0,0,5.1-6.9,6,6,0,0,0-3.7-5.7,16.2,16.2,0,0,0-6.1-.7l-11.8.2v3h.4c2.4.1,2.3.9,2.4,3.4l.2,11.9c0,2.6,0,3.2-2.4,3.5h-.3v3l11.3-.2v-3h-.4c-2.4-.1-2.6-.9-2.7-3.4v-4.2h1.7l6.9,10.6h7.3v-3C416.4,404.7,415.9,403.9,414.7,402.1Zm-6.8-8.7a8.4,8.4,0,0,1-3.9.6h-1.2v-5.2c0-.4-.1-1.2.2-1.5a3.8,3.8,0,0,1,2.4-.6,4.7,4.7,0,0,1,3.1.8,4.1,4.1,0,0,1,1.5,2.7A3.7,3.7,0,0,1,407.9,393.3Z" transform="translate(-249.7 -149.7)" fill="#fd1a16"/><path d="M423.4,387.6l.7,3.2-2.6.6.8,3.3,2.6-.6L426,399c.6,2.5.7,3.3-1.8,4.1l.7,2.9,10.2-2.4c3.2-.7,6.2-1.6,8.1-4.7s2-6.5,1.2-10.2a14.5,14.5,0,0,0-3.6-6.9,10,10,0,0,0-5.9-3,23,23,0,0,0-6.1.9l-9.5,2.2.7,2.9C422.6,384.3,422.8,385.1,423.4,387.6Zm7-4.9a5.2,5.2,0,0,1,5.2,1.4,12.1,12.1,0,0,1,2.9,6c1.1,4.9.2,9.4-4.2,10.4a3.3,3.3,0,0,1-1.8.1c-.5-.2-.6-1-.7-1.5l-1.4-6.1,4.5-1.1-.8-3.3-4.5,1.1-.9-4C428.1,383.3,428.5,383.1,430.4,382.7Z" transform="translate(-249.7 -149.7)" fill="#fd1a16"/><path d="M458.5,391.3h-.3a3.2,3.2,0,0,1-2.5,0c-.6-.4-1-1.7-1.2-2.4l-4.2-10.9c-.3-.7-.9-2-.6-2.8a3.9,3.9,0,0,1,2.1-1.6l-1.1-2.8L440.2,375l1.1,2.8h.2a3.1,3.1,0,0,1,2.4,0,5.8,5.8,0,0,1,1.3,2.4l4.2,10.9c.3.8.9,2,.6,2.8a3.8,3.8,0,0,1-1.9,1.5l1.1,2.8,10.5-4.1Z" transform="translate(-249.7 -149.7)" fill="#fd1a16"/></svg>