<svg xmlns="http://www.w3.org/2000/svg" viewBox="0 0 425.2 410.7"><title>alafoss</title><path d="M74.6-130C192-130,287.2-34.8,287.2,82.6a211.8,211.8,0,0,1-54.1,141.7,72.2,72.2,0,0,1,4.1,24.1c6.4,6.1,10.2,16.6,8.7,28.6-.4,3.1-1.8,3.8-4.4,3.8H-89.6c-4.9,0-5.6-2.3-6.3-7.4-2.6-18.6,3.6-33.7,18.1-42.5A211.9,211.9,0,0,1-138,82.6C-138-34.8-42.8-130,74.6-130Zm0,0" transform="translate(138 130)" fill="#3fbfe3" fill-rule="evenodd"/><path d="M-87.1,273.9h323c1.6,0,2.6-.6,2.7-2.2.7-7.7-4-16.9-8.7-20.6a56.7,56.7,0,0,0-5.4-27.6A205,205,0,0,0,280.3,82.6c0-113.6-92.1-205.7-205.7-205.7S-131.1-31-131.1,82.6A205.2,205.2,0,0,0-65.6,233.2C-87.3,240-91.4,258.3-89,272.4c.3,1.5.6,1.4,2,1.4Zm0,0" transform="translate(138 130)" fill="#013259" fill-rule="evenodd"/><path d="M-84.2,268.6H233.3c-.5-4.8-3.4-10.8-6.7-13.4s-2.1-1.6-2-4.4A50.9,50.9,0,0,0,219,224c-5.9-10.9-15.6-18.4-27.1-22.7-2.9-1.1-2.8-1-3.3-4-2.5-13.7-11.8-25.2-26.1-27-12.7-1.6-24.2,3.3-30.7,14.6-2.9,5-2.1,4.8-7.2,2-9.4-5.2-21.6-4.6-29.7,2.7-4.1,3.7-3.3,3.7-7.3-.1a58.6,58.6,0,0,0-38.4-17.1c-12.8-.7-24,3-34.6,10-2.8,1.8-2.5,1.8-5.4.2-15.8-8.6-34-7.9-48.8,2.6s-21.1,28.4-18.1,47.7c.5,2.9.3,4.1-4.1,4.9-7.7,1.7-15.4,6.4-19.3,14.1a31.1,31.1,0,0,0-2.9,16.8Zm0,0" transform="translate(138 130)" fill="#fff" fill-rule="evenodd"/><path d="M274.2,61.2a202.6,202.6,0,0,1,1.1,21.4,200,200,0,0,1-53.3,136.2c-6.1-9.8-15.6-17.6-28.3-22.4-2.3-12.4-8.7-21-16.5-26V66.8c0-3.5,1.1-5.6,4.9-5.6ZM223.9,98.3a149.2,149.2,0,0,1-20.1,60.8c-1.7,2.8-6.5.5-4.7-2.4a142.8,142.8,0,0,0,19.4-58.3c.5-4.5,5.9-3.8,5.5-.1Zm0,0" transform="translate(138 130)" fill="#007ea7" fill-rule="evenodd"/><path d="M-27.9,173.5a51.8,51.8,0,0,0-14.9,7.3c-14.1,10-22.7,24.6-21,47.3A200.2,200.2,0,0,1-126.1,82.6,202.6,202.6,0,0,1-125,61.2h92.3c3.8,0,4.9,2,4.9,5.6Zm-27.2-15.1A149.3,149.3,0,0,1-74.8,97.7c-.4-3.6,4.9-4,5.3-.5a144,144,0,0,0,19.4,59c1.7,2.9-2.9,5.5-4.9,2.1Zm0,0" transform="translate(138 130)" fill="#007ea7" fill-rule="evenodd"/><path d="M172.2,76.7v90.9a33.7,33.7,0,0,0-9.2-2.5c-11.1-1.4-26.8,1.3-36,17.1-11.3-6.3-25.9-5.5-35.8,3.4A63.9,63.9,0,0,0,57.5,168V133.2a2.9,2.9,0,0,0-5.9,0v34l-2.2-.2c-12.5-.7-24.8,2.4-37.8,10.9a51,51,0,0,0-34.5-5.6V76.7ZM12.4,101.6a2.9,2.9,0,0,1,2.9,2.9v45.9a2.9,2.9,0,1,1-5.9,0V104.5a2.9,2.9,0,0,1,2.9-2.9Zm84.3-4.4a2.9,2.9,0,0,1,2.9,2.9V146a2.9,2.9,0,1,1-5.9,0V100.1a2.9,2.9,0,0,1,2.9-2.9Zm41.9,16.9a2.9,2.9,0,0,1,2.9,2.9v33.1a2.9,2.9,0,0,1-5.9,0V117a2.9,2.9,0,0,1,2.9-2.9Zm0,0" transform="translate(138 130)" fill="#3fbfe3" fill-rule="evenodd"/><path d="M74.6-118.1c101.9,0,186.1,76,199,174.4H222.5a150.2,150.2,0,0,0-295.7,0h-51.2c12.9-98.4,97.1-174.4,199-174.4ZM217.1,56.2h-35c-7.3,0-9.9,5.1-9.9,10.6v4.5H-22.9V66.8c0-5.5-2.6-10.6-9.9-10.6H-67.9a144.9,144.9,0,0,1,284.9,0Zm0,0" transform="translate(138 130)" fill="#fff" fill-rule="evenodd"/><path d="M21.4-4.7l3.8-3.8c-2.1-4.7-3.7-11,2.6-17.2L47.4-45.1c1.3-1.2,4-1.1,4.2,2.2a21.7,21.7,0,0,0,1.4,6.1h0C67-51,87.9-49.1,99.2-37.9s12.7,30.8,1.3,42.7L81.9,24c-3.7,3.8,2.3,10.8,7.1,6L123.6-4.6c2.3-2.3,4.9-.2,5,2.2l.7,11.7h9.8c4.9,0,4.7,3.8,3.2,5.3L107.6,49a31.3,31.3,0,0,1-44.2.5c-11.4-11.3-14-31.4-.6-44.6L80.2-12.1c4.6-4.5-2.4-11-6.5-6.9L40.4,13.9a10.3,10.3,0,0,1-6.2,2.8,50.6,50.6,0,0,1-13.6-.5,2.3,2.3,0,0,1-2-2.2C18.3,11,17.4-.7,21.4-4.7Zm0,0" transform="translate(138 130)" fill="#013259" fill-rule="evenodd"/><path d="M49.1-2.3,69.9-22.8a9.6,9.6,0,0,1,8.3-2.7c8.1,1.3,11.9,11.1,5.7,17.2L66.5,8.7c-10.5,10.3-9.4,26.9.7,37a26,26,0,0,0,36.7-.5l31-30.7H124.3l-.7-11.7L92.7,33.8a9.8,9.8,0,0,1-11.1,2.4c-6.1-2.7-8.4-10.8-3.6-15.8L96.7,1.1c9.2-9.5,8.1-26.2-1.2-35.2a27.1,27.1,0,0,0-18.5-7.4,27.6,27.6,0,0,0-20.2,8.5L37.6-13.6A20.4,20.4,0,0,1,49.1-2.3Zm0,0" transform="translate(138 130)" fill="#3fbfe3" fill-rule="evenodd"/><path d="M23.7,11.2a45.5,45.5,0,0,0,10,.2,5.2,5.2,0,0,0,2.9-1.2L44.9,2C43.7-3.8,39.1-7.9,33.5-9.4L25.2-1c-.9.9-1.3,4.2-1.4,5.4a43.8,43.8,0,0,0-.1,6.8Zm0,0" transform="translate(138 130)" fill="#fff" fill-rule="evenodd"/><path d="M49-32.7a31.2,31.2,0,0,1-1.8-4.8L31.5-22c-2.4,2.4-3.4,4.7-2.6,8l.4,1.2Zm0,0" transform="translate(138 130)" fill="#fff" fill-rule="evenodd"/><path d="M-26.3,245.4h7.4l2.5-6.5H-4.4l2.6,6.5H5.8L-7.5,214.9h-5.6Zm16.2-39.2h8.9l-7.9,6.5h-5.1Zm3.3,27.1h-7.5l3.7-9.5Zm0,0" transform="translate(138 130)" fill="#013259" fill-rule="evenodd"/><path d="M9.9,245.4H29.1v-6.2H16.7V214.9H9.9Zm0,0" transform="translate(138 130)" fill="#013259" fill-rule="evenodd"/><path d="M30.1,245.4h7.4l2.5-6.5H51.9l2.6,6.5h7.6L48.9,214.9H43.3Zm19.5-12.2H42.2l3.7-9.5Zm0,0" transform="translate(138 130)" fill="#013259" fill-rule="evenodd"/><path d="M65.9,245.4h6.7V233.5H85.3v-6.2H72.6v-6.2H86.4v-6.2H65.9Zm0,0" transform="translate(138 130)" fill="#013259" fill-rule="evenodd"/><path d="M90.4,230.1a17.3,17.3,0,0,0,1.2,6.6,14.5,14.5,0,0,0,3.5,5.1,15.3,15.3,0,0,0,5.3,3.2,20.3,20.3,0,0,0,13.4,0,15.4,15.4,0,0,0,5.3-3.2,14.3,14.3,0,0,0,3.5-5.1,18.2,18.2,0,0,0,0-13.3,14.2,14.2,0,0,0-3.5-5.1,15.4,15.4,0,0,0-5.3-3.2,20.3,20.3,0,0,0-13.4,0,15.3,15.3,0,0,0-5.3,3.2,14.5,14.5,0,0,0-3.5,5.1,17.3,17.3,0,0,0-1.2,6.6Zm7.1,0a11.3,11.3,0,0,1,.7-3.9,9,9,0,0,1,1.9-3.1,8.8,8.8,0,0,1,3-2,11,11,0,0,1,7.9,0,8.7,8.7,0,0,1,3,2,9.1,9.1,0,0,1,1.9,3.1,11.7,11.7,0,0,1,0,7.9,9.1,9.1,0,0,1-1.9,3.1,8.8,8.8,0,0,1-3,2,11,11,0,0,1-7.9,0,8.9,8.9,0,0,1-3-2,9.1,9.1,0,0,1-1.9-3.1,11.3,11.3,0,0,1-.7-3.9Zm0,0" transform="translate(138 130)" fill="#013259" fill-rule="evenodd"/><path d="M148.4,217.3a11.7,11.7,0,0,0-2.8-1.8,13.6,13.6,0,0,0-3.2-1,17.6,17.6,0,0,0-3.4-.3,15.4,15.4,0,0,0-3.5.4,12.7,12.7,0,0,0-3.2,1.2,10,10,0,0,0-2.6,2,8.8,8.8,0,0,0-1.7,2.8,9.9,9.9,0,0,0-.6,3.5,8,8,0,0,0,.6,3.2,6.7,6.7,0,0,0,1.6,2.3,9.9,9.9,0,0,0,2.3,1.5l2.6,1.1,2.6.9,2.3.9a4.8,4.8,0,0,1,1.6,1.2,2.6,2.6,0,0,1,.6,1.7,2.5,2.5,0,0,1-.4,1.4,3.3,3.3,0,0,1-1.1,1l-1.5.6-1.7.2a7.2,7.2,0,0,1-2.2-.3,7.6,7.6,0,0,1-2-1,7.2,7.2,0,0,1-1.6-1.6l-4.8,5.3a13.9,13.9,0,0,0,4.7,2.9,16,16,0,0,0,5.5.9,16.8,16.8,0,0,0,3.6-.4,12.8,12.8,0,0,0,3.2-1.2,9.9,9.9,0,0,0,2.6-2,8.8,8.8,0,0,0,1.7-2.8,10.4,10.4,0,0,0,.6-3.7,8.7,8.7,0,0,0-.6-3.4,6.7,6.7,0,0,0-1.6-2.3,9.1,9.1,0,0,0-2.2-1.5l-2.6-1-2.6-.8-2.2-.8a4.7,4.7,0,0,1-1.6-1.1,2.5,2.5,0,0,1-.6-1.7,2.6,2.6,0,0,1,.4-1.5,3.2,3.2,0,0,1,1.1-1l1.5-.5,1.5-.2,1.8.2,1.7.7a4.4,4.4,0,0,1,1.4,1.1Zm0,0" transform="translate(138 130)" fill="#013259" fill-rule="evenodd"/><path d="M173.6,217.3a11.7,11.7,0,0,0-2.8-1.8,13.5,13.5,0,0,0-3.2-1,17.6,17.6,0,0,0-3.4-.3,15.4,15.4,0,0,0-3.5.4,12.7,12.7,0,0,0-3.2,1.2,10,10,0,0,0-2.6,2,8.8,8.8,0,0,0-1.7,2.8,9.8,9.8,0,0,0-.6,3.5,8,8,0,0,0,.6,3.2,6.7,6.7,0,0,0,1.6,2.3,9.9,9.9,0,0,0,2.3,1.5l2.6,1.1,2.6.9,2.3.9a4.8,4.8,0,0,1,1.6,1.2,2.6,2.6,0,0,1,.6,1.7,2.5,2.5,0,0,1-.4,1.4,3.3,3.3,0,0,1-1.1,1l-1.5.6-1.7.2a7.3,7.3,0,0,1-2.2-.3,7.6,7.6,0,0,1-2-1,7.3,7.3,0,0,1-1.6-1.6l-4.8,5.3a13.9,13.9,0,0,0,4.7,2.9,16,16,0,0,0,5.5.9,16.8,16.8,0,0,0,3.6-.4,12.7,12.7,0,0,0,3.2-1.2,9.8,9.8,0,0,0,2.6-2,8.8,8.8,0,0,0,1.7-2.8,10.4,10.4,0,0,0,.6-3.7,8.7,8.7,0,0,0-.6-3.4,6.7,6.7,0,0,0-1.6-2.3,9.2,9.2,0,0,0-2.2-1.5l-2.6-1-2.6-.8-2.2-.8a4.7,4.7,0,0,1-1.6-1.1,2.5,2.5,0,0,1-.6-1.7,2.6,2.6,0,0,1,.4-1.5,3.2,3.2,0,0,1,1.1-1l1.5-.5,1.5-.2,1.8.2,1.7.7a4.5,4.5,0,0,1,1.4,1.1Zm0,0" transform="translate(138 130)" fill="#013259" fill-rule="evenodd"/><path d="M160.1-90.1l5.6,2.9-7.1,1.6-3.2-1.6ZM140.4-67.6l14.2,7.2,2.1-4.1-9.8-5,2.1-4.1,8.7,4.4,2.1-4.1-8.7-4.5,1.9-3.7,9.2,4.7,2.1-4.1-13.7-7Zm0,0" transform="translate(138 130)" fill="#013259" fill-rule="evenodd"/><path d="M-72,5.7l2.6-4.2-9.1-5.7,14-2.1,3.7-5.9-16,2.9-3.6-14.1-3.4,5.5,3.3,12.4-8-5-2.6,4.2Zm0,0" transform="translate(138 130)" fill="#013259" fill-rule="evenodd"/><path d="M-59.9-13l3.2-3.8L-69.2-27.1h0l18.7,2.6,4.1-5L-63.7-43.9l-3.2,3.8,12.1,10h0L-73-32.6l-4.3,5.2Zm0,0" transform="translate(138 130)" fill="#013259" fill-rule="evenodd"/><path d="M-45.4-30.4l4-3.7-1.9-4.8,6.5-6,4.7,2.2,4.1-3.8-22.6-9.9-3,2.8Zm4.5-16.4L-44.9-43l-2.7-7Zm0,0" transform="translate(138 130)" fill="#013259" fill-rule="evenodd"/><path d="M-25-47.9l4.1-2.9L-31.4-65.6l5.3-3.7-2.5-3.6L-43.3-62.6l2.5,3.6,5.3-3.7Zm0,0" transform="translate(138 130)" fill="#013259" fill-rule="evenodd"/><path d="M-10.3-57.6-6-60.1l-9-15.8,5.6-3.2-2.2-3.8L-27.1-74l2.2,3.8,5.6-3.2Zm0,0" transform="translate(138 130)" fill="#013259" fill-rule="evenodd"/><path d="M6.2-89.1a8.9,8.9,0,0,0-2.5-.4,10.2,10.2,0,0,0-2.4.3l-2.4.8a11.2,11.2,0,0,0-2.3,1.3,9.5,9.5,0,0,0-1.8,1.8,7.5,7.5,0,0,0-1.1,2.1,6.6,6.6,0,0,0-.3,2.4A7.3,7.3,0,0,0-6-78.2a5.8,5.8,0,0,0,1.4,2,4.8,4.8,0,0,0,1.8,1l2,.3H1.3l2-.2H5.1a3.5,3.5,0,0,1,1.5.3,2,2,0,0,1,.9,1,1.9,1.9,0,0,1,.1,1.1,2.5,2.5,0,0,1-.4,1l-.8.9-1.1.6-1.6.4H2.1L.5-70.5l-1.7,5a10.3,10.3,0,0,0,4.1.5,11.9,11.9,0,0,0,4-1,12.1,12.1,0,0,0,2.3-1.4,9.6,9.6,0,0,0,1.8-1.8,7.3,7.3,0,0,0,1.1-2.1,6.4,6.4,0,0,0,.3-2.4,7.8,7.8,0,0,0-.7-2.7,6.4,6.4,0,0,0-1.4-2.1,4.9,4.9,0,0,0-1.8-1.1,6.7,6.7,0,0,0-2-.4H4.6l-2,.3H.9a3.4,3.4,0,0,1-1.4-.3,1.9,1.9,0,0,1-.9-1,1.9,1.9,0,0,1-.1-1.1,2.4,2.4,0,0,1,.5-1l.8-.8,1-.6,1.2-.4H3.3l1.3.4Zm0,0" transform="translate(138 130)" fill="#013259" fill-rule="evenodd"/><path d="M17.7-71.1l4.8-1.5L19.9-81l3.5-1.1a14.7,14.7,0,0,0,3.1-1.3,7.4,7.4,0,0,0,2.2-1.9,5.3,5.3,0,0,0,1.1-2.6,7.8,7.8,0,0,0-.4-3.4,7.4,7.4,0,0,0-1.6-3,5.3,5.3,0,0,0-2.4-1.5,8,8,0,0,0-2.9-.3,15.8,15.8,0,0,0-3.3.7l-8,2.5Zm-.6-19,2.4-.7,1.4-.4h1.4a2.4,2.4,0,0,1,1.2.5,2.3,2.3,0,0,1,.8,1.2,2.7,2.7,0,0,1,.1,1.3,2.2,2.2,0,0,1-.5,1l-.9.8-1.2.5-3.2,1Zm0,0" transform="translate(138 130)" fill="#013259" fill-rule="evenodd"/><path d="M41.9-77.6l4.9-.9L45-88.1,51-102.4l-5.8,1.1L41.8-92l-6.3-7.4-6.1,1.2L40.1-87.1Zm0,0" transform="translate(138 130)" fill="#013259" fill-rule="evenodd"/><path d="M56.1-80.2l5-.3-.6-9,2.5-.2,5.3,8.7,6-.4-6.4-9.1A6,6,0,0,0,70.4-92a5.4,5.4,0,0,0,1.5-2.3,7.2,7.2,0,0,0,.4-2.9,7.3,7.3,0,0,0-.9-3.2,5.4,5.4,0,0,0-2-2,7.8,7.8,0,0,0-2.8-.9,15.1,15.1,0,0,0-3.3-.1l-8.7.6Zm3.7-18.7,3.3-.2h1.4l1.3.3a2.2,2.2,0,0,1,1,.7,2.5,2.5,0,0,1,.4,1.3,2.4,2.4,0,0,1-.3,1.5,2.1,2.1,0,0,1-1,.8l-1.3.4H63.1l-2.9.2Zm0,0" transform="translate(138 130)" fill="#013259" fill-rule="evenodd"/><path d="M75.7-81.5l5,.3,1.1-16.1h.1l8.7,16.7,6.5.5,1.6-22.6-5-.3L92.6-87.2h-.1L84-103.6l-6.7-.5Zm0,0" transform="translate(138 130)" fill="#013259" fill-rule="evenodd"/><path d="M124.6-97l-4.9-1-2.8,13.4a5.5,5.5,0,0,1-.7,1.8,4.7,4.7,0,0,1-1.2,1.3,4.4,4.4,0,0,1-1.6.7,4.6,4.6,0,0,1-1.9,0,4.5,4.5,0,0,1-1.7-.7,4.3,4.3,0,0,1-1.2-1.3,4.7,4.7,0,0,1-.6-1.7,5.6,5.6,0,0,1,.1-2l2.8-13.4-4.9-1-2.9,13.6a10.9,10.9,0,0,0-.2,3.7,8.2,8.2,0,0,0,1.2,3.3,8.2,8.2,0,0,0,2.5,2.5,11.5,11.5,0,0,0,3.9,1.6,11.5,11.5,0,0,0,4.2.2,8.2,8.2,0,0,0,3.3-1.3,8.2,8.2,0,0,0,2.4-2.5,11,11,0,0,0,1.4-3.5Zm0,0" transform="translate(138 130)" fill="#013259" fill-rule="evenodd"/><path d="M123.8-73.8l4.7,1.7,3-8.3,8.9,3.2,1.6-4.3-8.9-3.2,1.6-4.3,9.6,3.5,1.6-4.3-14.3-5.2Zm0,0" transform="translate(138 130)" fill="#013259" fill-rule="evenodd"/><path d="M157.9-58.9l12.1,7.5,2.4-3.9-7.8-4.9,9.5-15.3-4.2-2.6Zm0,0" transform="translate(138 130)" fill="#013259" fill-rule="evenodd"/><path d="M169.9-51.5l4.3,3.4,4.5-2.6,6.9,5.5-1.5,5,4.4,3.5,6.4-23.8-3.2-2.6Zm16.9,2L182.5-53l6.5-3.8Zm0,0" transform="translate(138 130)" fill="#013259" fill-rule="evenodd"/><path d="M213.2-30.1l-6-6.5-3.4,3.1,2.8,3L203.9-28l-1.2-.5-1.4-.9-1.5-1.3a7.5,7.5,0,0,1-1.6-2.5,6.4,6.4,0,0,1-.4-2.7,6.8,6.8,0,0,1,.7-2.6,8.5,8.5,0,0,1,1.8-2.3,8.4,8.4,0,0,1,2.5-1.6,6.6,6.6,0,0,1,2.7-.5,6.4,6.4,0,0,1,2.6.6,7.6,7.6,0,0,1,2.4,1.8,9.8,9.8,0,0,1,1.3,1.8,6.6,6.6,0,0,1,.7,1.8,7.1,7.1,0,0,1,.1,1.9h5.2a9.5,9.5,0,0,0-.5-3,12.9,12.9,0,0,0-1.4-2.9,19,19,0,0,0-2.1-2.7,14,14,0,0,0-3.9-3,11.2,11.2,0,0,0-4.4-1.2,10.7,10.7,0,0,0-4.5.7,13,13,0,0,0-4.2,2.7,13.1,13.1,0,0,0-3,4,10.8,10.8,0,0,0-1,4.4,11.2,11.2,0,0,0,.9,4.5,14,14,0,0,0,2.7,4.2,22.5,22.5,0,0,0,3.7,3.2,18.5,18.5,0,0,0,4.3,2.3Zm0,0" transform="translate(138 130)" fill="#013259" fill-rule="evenodd"/><path d="M205.9-17.9l3,4,18-13.7-3-4Zm0,0" transform="translate(138 130)" fill="#013259" fill-rule="evenodd"/><path d="M211.5-10.4l4.3,6.9a16.3,16.3,0,0,0,2.5,3.1,13.5,13.5,0,0,0,3,2.2A10.9,10.9,0,0,0,224.7,3a9.9,9.9,0,0,0,3.6-.1,11.4,11.4,0,0,0,3.7-1.5,12.9,12.9,0,0,0,3.3-2.9,9.3,9.3,0,0,0,1.7-3.3,10,10,0,0,0,.3-3.6,14.4,14.4,0,0,0-.9-3.8,21.4,21.4,0,0,0-1.9-3.8l-4-6.3-8.1,5.1-.9-1.5-2.3,1.4.9,1.5Zm0,0" transform="translate(138 130)" fill="#013259" fill-rule="evenodd"/><path d="M225.2-13.1l3.1,5L226-6.6l-3.1-5-4.9,3,1.4,2.2a13.1,13.1,0,0,0,2,2.5,7.1,7.1,0,0,0,2.4,1.6,5.3,5.3,0,0,0,2.7.3,7.8,7.8,0,0,0,3.1-1.2,6.5,6.5,0,0,0,2.1-2.1,5.7,5.7,0,0,0,.8-2.5,7.3,7.3,0,0,0-.3-2.7,10.8,10.8,0,0,0-1.3-2.7l-1.6-2.5Zm0,0" transform="translate(138 130)" fill="#fff" fill-rule="evenodd"/></svg>