<svg xmlns="http://www.w3.org/2000/svg" viewBox="0 0 339.6 311.2"><title>ibv</title><path d="M426.5,439.1c7.9-9,16.7-20.1,26.1-32.2,20.2-27.8,39.2-55.5,56.7-85.1,16.2-27.4,30.8-55,43.8-81.1,6.1-12.2,12.4-24.6,15.4-38,4.5-19.9-3.2-36.5-23.6-41.8-91.3-22-198.5-22-289.8,0-20.4,5.3-28.1,21.9-23.6,41.8,3,13.5,9.3,25.8,15.4,38,13,26.1,27.6,53.7,43.8,81.1,17.5,29.6,36.5,57.3,56.7,85.1,9.4,12.1,18.2,23.2,26.1,32.2C392.9,461.1,407.1,461.1,426.5,439.1Z" transform="translate(-230.2 -144.4)"/><path d="M542.5,170.1c15.4,4,20,15.6,16.7,30.4-2.8,12.6-8.9,24.4-14.6,35.9C531.5,262.6,517,290,501.1,317c-17.3,29.4-36.2,56.8-56.2,84.4-9.6,12.3-17.4,22-24.1,29.1-18.4,19.8-23.2,19.8-41.7,0-6.6-7.1-14.5-16.8-24.1-29.1-20-27.6-38.9-54.9-56.2-84.4-15.9-27-30.4-54.4-43.5-80.5-5.7-11.5-11.8-23.2-14.6-35.9-3.3-14.8,1.3-26.4,16.7-30.4C347.3,149.1,452.7,149.1,542.5,170.1Z" transform="translate(-230.2 -144.4)" fill="#fff"/><path d="M260.2,178c-11.3,2.6-13.7,10.1-11.3,20.7s8.5,23.1,14,33.9l7.3,14.4c5.8,11.4,9,11.8,21.5,9,67.3-15.3,149.3-15.3,216.6,0,12.6,2.8,15.7,2.4,21.5-9l7.3-14.4c5.4-10.9,11.3-22,14-33.9s0-18.1-11.3-20.7A638.3,638.3,0,0,0,260.2,178Z" transform="translate(-230.2 -144.4)"/><path d="M286.7,278.3c14.3,26.3,29.5,52,46.3,76.9,13.5,20.1,26.7,39,41.7,57.3,3.8,4.6,7.3,8.7,10.6,12.2,13.4,14.4,16,14.4,29.4,0,3.3-3.5,6.8-7.6,10.6-12.2,15.1-18.3,28.2-37.2,41.7-57.3,16.7-24.9,32-50.5,46.3-76.9,3.3-6,2.5-11.9-4.8-13.6-67-15.7-150.1-15.7-217.1,0C284.2,266.4,283.4,272.4,286.7,278.3Z" transform="translate(-230.2 -144.4)"/><path d="M352.9,369.6l7.6,10.8c9.4-.1,16.5-2.1,25.1-5.4,13.8-5.4,15.1-5.4,28.8,0,8.5,3.4,15.7,5.3,25.1,5.4l7.6-10.8c-11.1.6-18.8-.6-28.9-4.5-16.3-6.4-20.2-6.4-36.5,0C371.7,369,364,370.2,352.9,369.6Z" transform="translate(-230.2 -144.4)" fill="#fff"/><path d="M327.3,331.3c3.2,5,6.4,10,9.7,15,16.4.9,28.6-1.2,43.5-7.1,18.5-7.2,20.3-7.2,38.8,0,15,5.9,27.1,8,43.5,7.1,3.3-5,6.6-10,9.7-15-18.2,1.8-31.3,1.2-48.1-5.3-22-8.7-27.2-8.7-49.2,0C358.6,332.5,345.6,333.1,327.3,331.3Z" transform="translate(-230.2 -144.4)" fill="#fff"/><path d="M304.5,293.1c3.6,6.4,7.3,12.7,11.1,19,22.6,1.6,39.3-.5,60.1-8.6,23.3-9.1,25.4-9.1,48.7,0,20.8,8.1,37.5,10.2,60.1,8.6,3.8-6.3,7.5-12.6,11.1-19-24.3,2.8-42.1,2.6-64.6-6.3-27.6-10.9-34.2-10.9-61.8,0C346.6,295.7,328.8,295.9,304.5,293.1Z" transform="translate(-230.2 -144.4)" fill="#fff"/><path d="M360.8,198.9c7.5-.3,15.1-.5,22.9-.6s16.3-.1,24.2,0c4.9.1,9.1-2.8,9.3-8.4s-3.9-6.6-8.6-6.7c-9-.2-17.8-.3-26.5-.2s-14.6.4-21.9.8l.7,15.1Zm51,11.5c-9.5-.2-18.8-.3-28-.1l-22.4.6.7,14.4c6.7-.3,13.5-.5,20.4-.5,9,0,18,.2,27.5.3,3.8.1,9-.2,12.3-1.9s3.7-6.7.9-9.7-7.6-3.1-11.3-3.2ZM343.7,173c11.4-.8,26.7-1.7,38.2-1.9,9.1-.1,17.6-.1,27.7.2,8,.2,14.7,3.2,17.9,11a19.7,19.7,0,0,1-1.9,18.7c11.5,3.7,16.3,21.9,5.8,30.7-5.8,4.9-15.1,5.7-21.7,5.5-9.4-.2-18.4-.3-27.2-.3-10.7,0-21.2.5-31.8,1.2l-2.7-57.2Z" transform="translate(-230.2 -144.4)" fill="#fff"/><path d="M465.7,240.2l13.4,1.9,44-59.1-13-2.5-34.2,46-7.2-51.9c-4.1-.5-12.2-1.1-16.3-1.5l5.1,7.8Z" transform="translate(-230.2 -144.4)" fill="#fff"/><path d="M304.3,244.9l11.7-2.1-9.6-50.2-13.2-4.8,11,57.1Zm1.3-57.1,2.2-10.2c-6.5.9-12.9,2-19.3,3.2Z" transform="translate(-230.2 -144.4)" fill="#fff"/></svg>