<svg xmlns="http://www.w3.org/2000/svg" viewBox="0 0 756.2 894.9"><title>ih</title><path d="M450.3,7.3H662.6c3.4,0,6.2.6,8.9,3Q745.6,74.5,820,138.7a10.5,10.5,0,0,1,4.1,8.8c.1,37-.8,74-3.9,110.9-2,24-3.9,48-6.8,72a1256.6,1256.6,0,0,1-21,124.9,1059.6,1059.6,0,0,1-30.1,109c-17.6,51.7-39.5,101.3-68.6,147.6S629.2,799.5,585,832.3c-35.9,26.6-75.6,45.6-118.6,58-11.9,3.4-22.8,3-34.3-.4-34.3-10.1-66.8-24.3-96.8-43.7-33.6-21.7-62.9-48.4-88.6-79C211,724.6,183.8,676.8,161.8,626c-21.3-49-37-99.9-49.6-151.8A1105.4,1105.4,0,0,1,88.9,345.3c-4.1-34.5-7.6-69.2-9.9-103.9-2.1-31.6-2-63.4-3.1-95.1-.1-4.6,1.6-7.6,5.1-10.6Q154.6,73.3,228.1,10.6c3-2.6,6.1-3.3,9.9-3.3H450.3" transform="translate(-71.9 -2.5)" fill="#fff"/><path d="M664.8,2.6c3.4,0,6.3.6,9,3q75,65.1,150.1,129.9a10.8,10.8,0,0,1,4.2,8.9c.1,37.4-.8,74.8-3.9,112.1-2,24.3-4,48.6-6.9,72.7-5.1,42.4-12,84.5-21.2,126.2a1049.5,1049.5,0,0,1-30.5,110.1c-17.8,52.2-39.9,102.4-69.4,149.2s-65.1,88.5-109.9,121.7C550,863.3,509.9,882.5,466.5,895c-12.1,3.5-23,3-34.7-.4-34.7-10.2-67.5-24.5-97.9-44.2-34-22-63.6-48.9-89.5-79.9-36.1-43.1-63.6-91.4-85.9-142.7-21.5-49.6-37.4-101-50.1-153.4A1127.3,1127.3,0,0,1,85,344.2c-4.2-34.9-7.7-69.9-10-105-2.1-32-2.1-64.1-3.1-96.2-.2-4.7,1.6-7.7,5.2-10.7Q151.6,69.1,225.8,5.8c3.1-2.6,6.2-3.3,10-3.3m-6.6,13.3V682c0,14.1.1,28.2-.1,42.4a14.5,14.5,0,0,0,3.2,9.6c6.9,8.8,13.7,17.7,20.5,26.5a30.6,30.6,0,0,0,3.6,3.5c.6-5.7.9-10.4,1.6-15.1a190,190,0,0,1,31.7-82.3,17,17,0,0,0,3-10.2q-.2-118.8-.1-237.7v-5.3l62.9-13v206c20.6-10.4,41-17.6,63.2-21.2V410.4l62.9-10.9V586.1a201.2,201.2,0,0,1,63.1,23.2V410.1l62.6-12.7v7.3q0,128.4-.1,256.9a23.2,23.2,0,0,0,3.6,12.8,185,185,0,0,1,26.1,71.8c1,7.3,1.6,14.7,2.4,22.1l1.4.9a26.4,26.4,0,0,1,1.5-2.9c7.6-9.6,15.1-19.4,23-28.8,4.2-5.1,5.7-10.5,5.7-17.1q-.1-349.1-.2-698.1c0-1.9-.3-3.9-.4-6.1H606.8V86.6L544.4,99V16h-63V85.5L418.3,98.1V16H355.1V86.6L292.3,98.9V15.8H229.2M454.6,672.7c0,6.4.2,12.8-.1,19.2a8.3,8.3,0,0,0,3.9,7.8c21.9,15.6,43.7,31.5,65.6,47.1a7.8,7.8,0,0,0,6,.9c12.8-3.7,25.6-7.7,38.4-11.5a7.8,7.8,0,0,0,5.6-5.4c5.8-16.4,11.4-32.9,17.7-49.1,2.5-6.3,1.7-11.2-2.7-15.9a11.8,11.8,0,0,1-1.3-1.8c-18.6-24.5-43.5-41.1-70.3-55.2a5.4,5.4,0,0,0-6.5.4c-17.5,12.3-35.1,24.6-52.8,36.7a7.4,7.4,0,0,0-3.5,6.9c.1,6.7,0,13.3,0,19.9m-68.4-67.5-9.5,4.2a195.8,195.8,0,0,0-60.4,41.4c-3.6,3.7-4.5,7.3-3.5,12.3,3.1,15.3,5.7,30.6,8.5,45.9,1.5,7.9,3,15.8,4.5,23.4l41.7,16.1a13.5,13.5,0,0,0,1.9-.8c22.7-16.7,45.5-33.5,68.1-50.4a8,8,0,0,0,2.6-5.5c.2-13.6.2-27.1,0-40.7a8.9,8.9,0,0,0-3-5.9c-4.4-3.9-9.1-7.4-13.7-11l-37.2-29M622.9,787.3a10.4,10.4,0,0,0-.8-1.6C607,774,592,762.3,576.8,750.8c-1.7-1.3-4.9-1.6-7-1-11.6,3.3-23.1,7.1-34.8,10.4-3.7,1-5.4,3-6.5,6.5-4.8,15.6-9.9,31.1-14.9,46.6-3.6,11.3-7.2,22.6-10.9,34l10.9,17a365.9,365.9,0,0,0,109.3-77M390,847c-.6-2.2-1-4.1-1.6-6q-12.4-38.1-24.8-76.3a8.2,8.2,0,0,0-5.4-5.6c-11.1-4.4-22.1-8.9-33.1-13.6a7.4,7.4,0,0,0-7.2.6c-6,3.5-12.1,6.9-18.2,10.3l-27.6,15.9c-4.6,2.7-4.8,4.5-1.2,8.6l2.2,2.4a376,376,0,0,0,88.3,68.4l14.7,7.8c4.9-4.2,9.3-8.3,13.9-12.5m110.6,22.7c-2.4-3.7-4.5-6.5-6.1-9.5s-5.3-5.2-9.9-5.1c-24.2.2-48.4.6-72.5-.2-9.6-.3-15.1,4.5-21.4,10.5a18.1,18.1,0,0,0,3,1.9,343.3,343.3,0,0,0,54.1,18,13.2,13.2,0,0,0,5.9-.4c9.2-2.5,18.4-5.1,27.4-8,6.3-2,12.5-4.6,19.5-7.2" transform="translate(-71.9 -2.5)" fill="#0076bc"/><path d="M419,139.6l62.1-12.1v97.1l63.5-12.7V139.7l62.3-12.3V354l-62,12.3V273.7l-63.3,12.5v67.6l-62.5,12.4c-.1-75.6-.1-150.8-.1-226.6" transform="translate(-71.9 -2.5)" fill="#0076bc"/><path d="M354.8,354.2l-61.6,12.1V139.6l61.6-12.2V354.2" transform="translate(-71.9 -2.5)" fill="#0076bc"/></svg>