<svg xmlns="http://www.w3.org/2000/svg" viewBox="0 0 566.5 566.9"><title>isbjorninn</title><path d="M259.1-31.4c156.4,0,283.3,127,283.3,283.5S415.5,535.5,259.1,535.5-24.1,408.5-24.1,252.1,102.8-31.4,259.1-31.4Z" transform="translate(24.1 31.4)" fill="#144da0" fill-rule="evenodd"/><path d="M259.1-22.2c151.3,0,274,122.9,274,274.2s-122.8,274.2-274,274.2-274-122.9-274-274.2S107.9-22.2,259.1-22.2Z" transform="translate(24.1 31.4)" fill="#fff" fill-rule="evenodd"/><path d="M259.1-13C405.3-13,524,105.8,524,252.1s-118.7,265-264.8,265S-5.7,398.3-5.7,252.1,113-13,259.1-13Z" transform="translate(24.1 31.4)" fill="#144da0" fill-rule="evenodd"/><path d="M259.1,88.4c90.2,0,163.4,73.3,163.4,163.6S349.3,415.7,259.1,415.7,95.7,342.4,95.7,252.1,168.9,88.4,259.1,88.4Z" transform="translate(24.1 31.4)" fill="#fff" fill-rule="evenodd"/><path d="M259.1,95.7c86.2,0,156.1,70,156.1,156.3s-70,156.3-156.1,156.3S103,338.3,103,252.1,173,95.7,259.1,95.7Z" transform="translate(24.1 31.4)" fill="#144da0" fill-rule="evenodd"/><path d="M259.1,98.6c84.6,0,153.2,68.7,153.2,153.4S343.7,405.5,259.1,405.5,105.9,336.7,105.9,252.1,174.6,98.6,259.1,98.6Z" transform="translate(24.1 31.4)" fill="#fff" fill-rule="evenodd"/><path d="M144.5,350.9c-2-12,.4-27.4,2.7-39,1.2-6.5,2.5-11.3,3.1-14.6s-1.7-1.8-2.3-1.5c-2.6,1.3-2.5,2.3-6.8,2.5.4-1.9.6-4.9,1-7.2,2.1-11.2,6.1-20.5,7.7-25.4.8-2.7-.8-3.5-1.7-3.6a40.2,40.2,0,0,0-4.6,0,35.5,35.5,0,0,1,4.7-11.6c1.9-3,2.4-4.4.7-4.6s-3.4,0-5.8-.1c9.5-16.7,16.6-31.7,15-47.8,8.9-4,7.1-19,14.3-25-2.2-3.7-3.8-11.7-3.7-16.7.3-14.5,5.6-23.7,13.5-30.5s17.8-12.4,31.7-8.5c7.6,2.1,12.1,12.5,19.7,13.3,29.3,3.3,52.6-8,78.9-5.4,9.7,9.9,20.1,18.1,33.1,23.6,1.5,3.3,3.1,6.8,4.7,10.1a103.1,103.1,0,0,1,33.8,7.9c.3,7.2,1.3,27.4-8.6,29.3,0,10.8,1.2,12.7,3.3,16.4,1,1.7-2.6,11.2-9.3,17.7-9.6,9.3-26,18.1-26,28.5,0,5,2.3,8.3,5,13.6,5.2,9.8,12.2,22,10.2,33.4-.6,3.6-2.7,6.9-5.4,10.3a17.6,17.6,0,0,0,5.9,9.5c4.1,3.2,10,5.8,14.4,8.4s5.3,3.6,6.3,5.8a5.3,5.3,0,0,1-.8,5.9c-1.2,1.2-3.2,1.7-4.3.7s-9.7-10.1-17.2-17c-5.6-5.2-12.9-8.8-15.4-9.1s-2.7,1.9-2.4,4.1c.6,4.2,1.6,4.7,1.5,8.1,0,1.1-2.1,1.3-2.2.1-.6-5.5-2.5-12.7-11.4-19-2.6.9-2,4.4-9.7,2.5a22,22,0,0,0-1.8-12.3,13,13,0,0,0-11.7-8.3c1.4-8.9-3.5-15.4-8-21.7-2.3-3.3-4.3-4.7-5.8-10,9.4,7,17.5,23.7,26.5,35.4,6,7.8,11.7,13.5,19.2,14.1s19.8-6.9,16.4-9.6c-1.1-.9-2.4.5-4.3,1.6a11.6,11.6,0,0,1-4.2,1.1c-.9.1-1.5-2.7-.6-2.8s4.1-.4,5.1-1.6,1-4.5-.6-4.8c-11.6-2.3-21.2-5.1-28.9-12.1,3.1,6.2,8,10.5,11.8,14.3-8.4-2.4-23.4-20.9-30.4-37.2,1.7-1.3,5.5-4.2,6.5-6.1s1.7-.1,1.6.6c-.5,4.2-4.1,6.6-2.6,9s2,2.9,3.4,2.9,6.4-2.6,9.1-1.9c-2,1.5-3.4,2.5-4.3,4.1a4.3,4.3,0,0,0,0,4c.4.7,2.6.3,3.1.1s1.9-2.3,2.7-4.6c.8.4,2.2,1.3,2.4,2.6.6,4.4,1.3,5.9,4.5,5.6a6.5,6.5,0,0,1-2.6,1.9c-1.2.4-2.6.4-2.3,1s3.6,4.8,5.9,7.3c2.4-2,3.1-7.4,3.4-12.6a26.6,26.6,0,0,1,3-11.6c1.4-2.8,4.8-4.1,4-4.7-5-4.3-15.4-4.7-21.4-6.9a9,9,0,0,1-5-3.9c-1.3-2-3.6,3.2-4.7,5.3l-.3-3.1h-3.9c5.4-5.7,19.8-26.5,34.6-35.7,6-3.8,14.8-5.5,20.7-5.3,8.6.2,14.2,3.6,14.5,2.3a6.5,6.5,0,0,0-.8-3.6c-2-2.6-6.1-1.2-6.1-3.5s1.5-1.4,2.8-.6,1.8,1.2,2.7,1,1.1-2.6.1-4.8c-5.7-11.7-21.2-6-30.3-11.8-4.9-3.1-5.8-9.6-4.6-17.9H317.8c0-3.1,1.4-5.6,4.3-7.9,0,4.1,2,3.9,3.3,3.8,4.5-.4,8.2-4.5,18.1-4.3-4.5-11.8-23.1-24.7-34-27.1-6.7-1.4-13.1.1-21.5.4-12.2.4-26.3.5-42.1-.4-10.3-.6-32.7-4.3-46.1-10.2-4.2,5.9-14.5,10.1-18.2,15.2s-3.5,8.5-3.3,15.3a25.3,25.3,0,0,0,2.2,9.3c3.2,7.5,9.2,13.1,16,17.5,2,1.3,2.8.7,3,.1a1.3,1.3,0,0,0-.2-.9,1.7,1.7,0,0,1-1.3-2.6c.3-.6,1.6-.9,2.2-.6s.9,1.6,1.9,2.2,2.4.1,2.4,1-2.7.6-3,1.4.5,2.5.7,2.5,1.6-1.4,2.4-1.3a1.7,1.7,0,0,0,1.6-1.1c.3-2-1.4-1.9-3.1-4.5a32.4,32.4,0,0,1-4.3-16.2c-.4-22.9,4.4-23.6,7.6-23.7,10.4-.3,16.5,8.4,19,22.4,1,5.9-.9,14.6-8.5,17.9a12.5,12.5,0,0,0,.4-3.7c0-.6-.5-.7-1.7-.8h-5.3c-.5,0-1.1,1.1-.9,5.1.1,1.9-.9,3.2,2,3.3-1.9,2.7-4.8,4.8-8.1,4.6s-10.7-5.9-13.4-7-5-3.4-7.2-1.3c-6.9,6.8-12.5,17.6-10.5,33.2-11.4,3-14.4,15.8-11.4,34.6-2.3-1.2-5.2-1.8-6.2.6s1.7,6.3,1.4,9.5c-.6,8.8-5.5,17.3-7.7,24.6-.4,1.2,1.4,1.4,2.1,1.4l.2,1.8,2.8,2.2c-.4,15.2-1.2,30.7-1.5,45.8,5.9-7.2,10.7-16.9,16.7-20.8-4.5,6.7-9,20.3-14.1,28.7S144.6,351.3,144.5,350.9ZM341.4,231.3c-3.2-3.8-4-7.2-4.9-11.7a16.7,16.7,0,0,1,6.7-3.6,18.6,18.6,0,0,1,.4,7.3C343.3,225.9,342.4,227.7,341.4,231.3Zm24-2.5c-3.2-3.8-3.3-6-3.2-10,.5-.5-11.2,1.2-16.8,1.4v-5.6a14.5,14.5,0,0,1,7.4,1.4,3.1,3.1,0,0,0,2.9-.3,8.1,8.1,0,0,0,2.2-3.1c3.5,2.3,9.3,3.5,9.4,4.7C367.9,223.4,366.3,225.3,365.4,228.8Z" transform="translate(24.1 31.4)" fill="#231f20" fill-rule="evenodd"/><path d="M284.4,201.9c-.4,8,3.2,10.8,3.2,16.8,0,3.9-3.3,9-4.5,14.4a20.8,20.8,0,0,0-.1,8.6c.4,1.3,1.7.9,1.9.1.8-4.8,2.6-9.1,3.3-13.4a71.3,71.3,0,0,0,1-11.9A23.3,23.3,0,0,0,284.4,201.9Z" transform="translate(24.1 31.4)" fill="#231f20" fill-rule="evenodd"/><path d="M198.7,289.3c-1-3-2.8-6.5-4.2-7.6s-1.8-.2-1.6.7c1.1,5.9,2.9,8.4,4.7,12.4s5,8.7,7.6,10.4C202.3,300.2,200.8,295.5,198.7,289.3Z" transform="translate(24.1 31.4)" fill="#231f20" fill-rule="evenodd"/><path d="M220.8,320.2c-2.6-.5-5.3-2.9-6.4-7.3-.3-1.1-1.6-1.8-2.1-.4s-1.4,2.1-2.2,2.9a3.7,3.7,0,0,0-.3,4.5c.8-1.8,1.6-1.7,3.1-1.4s3.7,2.8,5.5,3S221.8,320.4,220.8,320.2Z" transform="translate(24.1 31.4)" fill="#231f20" fill-rule="evenodd"/><path d="M256.4,335.7c-1.3.5-.9,1.9.2,2.6,3.7,2.4,12.2,9.8,30,10,22.1.2,29.2-11.5,31.6-16-8.5,2-13,10.8-22.8,11s-20.1-4.3-28.4-6.6C262.6,335.5,258.3,334.9,256.4,335.7Z" transform="translate(24.1 31.4)" fill="#231f20" fill-rule="evenodd"/><path d="M275.8,315.7c-3.1-.1-12.9-.5-14.6-1s-1.2-1.8.4-4,.3-2.5.6-3.2c5.1,5.5,13.4,5.3,17.7,4.6a26.9,26.9,0,0,1,5.5-.4c3.7.3,8.8,2.4,9.1,8.3C291,318.1,285.8,316.1,275.8,315.7Z" transform="translate(24.1 31.4)" fill="#231f20" fill-rule="evenodd"/><path d="M205.1,253.8c-.4-1.9-1.1-5.5.8-7.7-5.6-3.6-7-7.1-3.2-13-2.7-.2-6.4-.1-9.5-.1.1.6-.2,1.1-.8,1.7,1.5.8,1.6,3.4,1.4,5.6s-1.8,6.8-.5,12c.5,2.1,3.4-.9,7.3,2.2s4.6,7.2,6,10.6,2.4,9.7,2.9,13.7c5.1.4,9.6,3.8,13.8,7.9a131.5,131.5,0,0,1,9.6,10.4h6.6c2.8,3.5,6.1,6.1,13.1,10,.8.4.5-1.3.2-1.7-1.6-2.7-5.3-2.3-9.4-6.6a18.7,18.7,0,0,1-2.4-4.1l-2.4-.3-.4-1.3a46.7,46.7,0,0,1-6.8-.3,73.6,73.6,0,0,0-8.1-10.6c-4.6-4.8-9.7-8.7-13.2-13.8S206.1,258.4,205.1,253.8Z" transform="translate(24.1 31.4)" fill="#231f20" fill-rule="evenodd"/><path d="M181.7,317.7c-1-3-4.6-6.3-6-7.5s-1.8-.7-1.6.1a48.7,48.7,0,0,0,4.5,12.7c4.6,8.4,12.1,13.7,18.7,21.6,3.3-.3,9.4-.4,12.1-.4.3,1.3.1,2.3.8,2.6s3-.6,4.3.4c.3,3.6,7.3,5.8,11.5,5.8-2.5-1.8-17.7-10.7-23.9-16.5-1.2.2-3,.2-3.7-.2l-.9-1.9a11.4,11.4,0,0,0-4.1.4c-1.4.3-2.6,1.4-2.9.9C186.1,329.6,183.1,321.6,181.7,317.7Z" transform="translate(24.1 31.4)" fill="#231f20" fill-rule="evenodd"/><path d="M263.5,170.8c.3,3.8-.1,9.2-.2,13.8-.1,2.9,2,5.4,4.5,6.9.1.1,10.2-8.7,15.3-9.1a9,9,0,0,1,7.5,2.6c-.1-1.5-.3-4.3.7-4.6s6-.4,9-.7,6.8-1.1,6.8-1.8c.1-2.8-3.6-.7-3.8-3.2-.1-.8.9-1.6,2.5-2s3.8-.7,3.7-1.3c-.5-2.6-9-1.8-14.9-1.4C285.6,170.6,274.5,171.8,263.5,170.8Zm6.2,8.4a8.6,8.6,0,0,0,2,6.4c1-.9,2.4-2.8,2.3-3.7a14.8,14.8,0,0,1-.1-4.2,16.5,16.5,0,0,1,2.2-6.1C271.6,173.5,269.9,176.9,269.6,179.2Z" transform="translate(24.1 31.4)" fill="#231f20" fill-rule="evenodd"/><path d="M352.4,39.1c2.4,4.5,4.8,9,6.8,13.5s3.8,9,5.5,13.5l2.7-4.9,2.7-4.9q-4.1-6.7-8.7-13.4c6,2.7,11.9,5.4,17.6,8.5s11.1,6.4,16.5,9.7q-8.1-.2-16.1.1L372.1,73l-7.3,11.9q-7.1-3.7-14.3-7.1c-1.5-4.5-3.1-9-5-13.5s-4.1-9-6.4-13.5l-1.9,5.7-1.9,5.7q4.1,6.1,7.9,12.3c-4.9-2.1-9.8-4.1-14.8-5.9s-9.9-3.4-14.9-4.9q6.2-2.5,12.9-4.7l2.6-9.2,2.6-9.2q-5.3-6-10.9-11.9c5.3,1.5,10.6,3,15.9,4.8S347.1,37,352.4,39.1Z" transform="translate(24.1 31.4)" fill="#fff" fill-rule="evenodd"/><path d="M452.5,116.7c-.4,5.3-.8,10.5-1.5,15.7s-1.6,10.3-2.5,15.3l4.8-3,4.8-3q.2-8.4-.1-16.8c3.5,5.7,6.9,11.4,10.1,17.3s5.9,11.9,8.6,17.9q-6.7-4.5-13.5-8.6l-12.3,6.9-12.3,6.9q-3.9-7.8-8.1-15.4c1.1-5,2.1-10.1,2.8-15.3s1.3-10.4,1.7-15.6l-4.7,3.8-4.7,3.8q.4,7.8.3,15.6c-3.1-4.9-6.3-9.7-9.7-14.3s-7.2-8.8-10.9-13q7.1,1.6,14.3,3.6l7.2-6.3L434,106q-1.2-8.1-2.7-16.2c3.7,4.2,7.4,8.6,10.9,13S449.1,112,452.5,116.7Z" transform="translate(24.1 31.4)" fill="#fff" fill-rule="evenodd"/><path d="M486.9,197.3c-2.3,5.1-4.7,10.1-7.2,15s-5.2,9.5-7.9,14.1l5.5-.7,5.5-.7q3.2-8.3,6.1-16.8c1.1,7.3,2.2,14.6,2.9,21.9s1.1,14.6,1.4,21.8q-4.5-7.6-9.2-14.9l-13.8,1.2-13.8,1.2q-.8-9.6-2.1-19.3c2.8-4.5,5.5-9.2,8.1-13.9s5-9.8,7.4-14.8L464,193l-5.8,1.6q-2.6,8-5.5,15.8c-1.2-6.3-2.4-12.6-3.9-18.8s-3.4-12.2-5.4-18.2q6.1,5,12,10.4l9.2-2.9,9.2-2.9q1.9-8.7,3.3-17.4c2,5.9,3.9,11.9,5.5,18.1S485.6,191,486.9,197.3Z" transform="translate(24.1 31.4)" fill="#fff" fill-rule="evenodd"/><path d="M395.6,61c6.2,4.3,12.4,8.7,18.3,13.4s11.5,9.7,17,14.8l-7.8-1.5-7.8-1.2-6.5,7.1-6.5,7.1c.6,2.4,1.1,4.7,1.6,7.1s.9,4.7,1.2,7.1c-4.7-4.5-9.5-8.9-14.6-13S380,94.1,374.7,90.2H382l7.4.2,6-7.6,6-7.6c-.9-2.4-1.8-4.8-2.7-7.2S396.6,63.4,395.6,61Z" transform="translate(24.1 31.4)" fill="#fff" fill-rule="evenodd"/><path d="M238.8,23.1c7.6-.6,15.4-1.1,23.2-1.1s15.6.5,23.4,1.2l7.1.7c2.9.6,5.9,1,8.8,1.8a21.5,21.5,0,0,1,10,5.3c2.3,2.3,3.1,4.6,2.5,6.8-1.1,4.4-6.8,6.2-17.2,5.8a17,17,0,0,1,7.1,4.9q2.2,2.8,3.3,8.6l6.6,6.3-11.4-1.9-11.5-1.6c-.6-2.7-1.2-5-1.8-7a33.1,33.1,0,0,0-2-5c-.8-1.6-3.2-2.7-7.1-3l-8.6-.5-.4,5.4q5.9,4.5,11.6,9.2c-6.9-.6-13.8-1-20.7-1.1s-13.7.1-20.5.4q5.7-4.4,11.9-8.7-.1-4.8-.1-9.5t-.1-9.5C248.2,27.9,243.5,25.4,238.8,23.1Zm32.9,14.2,11.9.8,3.7.3c4,.4,6.2-.6,6.6-3.2a3.2,3.2,0,0,0-1.5-3.6c-1.3-.7-3.8-1.4-7.8-1.7l-12.4-.9Z" transform="translate(24.1 31.4)" fill="#fff" fill-rule="evenodd"/><path d="M202.5,28.4A45.4,45.4,0,0,1,216,26.7a35.9,35.9,0,0,1,12,2.4,23,23,0,0,1,8.6,5.5,13.2,13.2,0,0,1,3.5,7.3,12.4,12.4,0,0,1-1.4,7.4,25.7,25.7,0,0,1-5.9,7.3,42.8,42.8,0,0,1-9.1,6.2,57.3,57.3,0,0,1-22.6,5.9,45.8,45.8,0,0,1-11.1-.9,28.6,28.6,0,0,1-9-3.2,11.8,11.8,0,0,1-5-5.4,12.7,12.7,0,0,1-.7-8,22.7,22.7,0,0,1,4.8-9,37.7,37.7,0,0,1,9.5-8.2A49.2,49.2,0,0,1,202.5,28.4Zm1.2,6.3a12,12,0,0,0-7.9,6.2,12.9,12.9,0,0,0-.4,10.2,13.7,13.7,0,0,0,6.1,8,11.7,11.7,0,0,0,9.3,1.1,11.6,11.6,0,0,0,7.5-5.5,13.6,13.6,0,0,0,1.1-10,13.1,13.1,0,0,0-5.6-8.6A12,12,0,0,0,203.7,34.6Zm4.6-20.5a11,11,0,0,1,6.3.3c1.9.7,3,1.7,3.3,3s-.3,2.7-1.8,4.1a12.2,12.2,0,0,1-11.4,2.7c-1.9-.6-3.1-1.5-3.4-2.9s.1-2.7,1.6-4.2A11.1,11.1,0,0,1,208.3,14.1Zm-19.1,5.4a11,11,0,0,1,6.2-.3c2,.5,3.1,1.4,3.5,2.7s-.1,2.7-1.5,4.2a12.2,12.2,0,0,1-11.2,3.6c-2-.4-3.2-1.3-3.6-2.6s0-2.7,1.3-4.3A11.2,11.2,0,0,1,189.2,19.5Z" transform="translate(24.1 31.4)" fill="#fff" fill-rule="evenodd"/><path d="M131.3,83.6l9.4-8.3.6,1.1a29.6,29.6,0,0,0,2.4,3.9c3,3.8,6.1,4.7,9.2,2.8s2.4-2.2,2.3-3.5-1.2-3.5-3.1-6.4l-4-5.9-4-5.9q-8.6-.3-17.6-.1c7.1-4.1,14.4-8.2,21.7-11.9S163,42,170.4,38.4q-4.9,7.2-9.2,14.1l3.4,7.1,3.5,7.1c1.7,3.4,2.1,6.1,1.6,8.3a20.1,20.1,0,0,1-4.1,7.7,32.1,32.1,0,0,1-7.7,6.5,30.1,30.1,0,0,1-6.5,3.2,19.7,19.7,0,0,1-6.3,1,14.9,14.9,0,0,1-10.9-4.5A11.4,11.4,0,0,1,131.3,83.6Z" transform="translate(24.1 31.4)" fill="#fff" fill-rule="evenodd"/><path d="M62.8,126.2a259,259,0,0,1,16.5-22.8A250.6,250.6,0,0,1,98.7,82.6c4.4-4.3,8.8-6.8,12.8-7.9s6.8-.4,8.6,1.8.3,8.7-6.7,16.7c5-3.5,9.2-5.6,12.5-6.3s5.7.1,7.3,2.1,1.9,5.2.3,8.5-4.8,7.2-9.6,11.9a215.4,215.4,0,0,0-16.1,17.9c-5,6.3-9.5,12.8-13.9,19.4-.2-4.9-.2-9.9-.1-15l-8.1-6-8-6Q70.2,122.8,62.8,126.2Zm31.4-17.7c3.4-3.8,6.8-7.6,10.4-11.3s3.5-5.3,1.8-7.1-4.5-1.6-7.5,1.5-7.2,7.6-10.7,11.5Zm12,10.6c3.1-3.6,6.2-7.1,9.5-10.4s4.1-6,2.2-8-4.4-2-6.9.6-7.6,8-11.2,12.1Z" transform="translate(24.1 31.4)" fill="#fff" fill-rule="evenodd"/><path d="M75.4,200.2l-9-2.3-9-2.3c4.4-2.5,8.2-6.3,11.9-11.4a81,81,0,0,0,5.2-8.1c1.6-2.9,3-6,4.5-9.3,3-6.8,3.8-10.6,2.1-11.5a1.8,1.8,0,0,0-2.3.5,35.7,35.7,0,0,0-4,6.3c-1.4,2.5-2.7,5-3.9,7.6-2.1,4.5-3.9,8.4-5.5,11.5a63.9,63.9,0,0,1-4.2,7.5,20.4,20.4,0,0,1-5.9,6.1,8,8,0,0,1-6.3,1c-4.2-1-7.1-4.2-8.6-9.5a26.9,26.9,0,0,1-.6-9.3,47.4,47.4,0,0,1,2.7-11.5,59.6,59.6,0,0,1,5.1-10.9,50.8,50.8,0,0,1,6.5-8.6l1.3-1.4q1.5-6.1,3.4-12.1l6.7,3.9,6.7,3.9a53.2,53.2,0,0,0-14.4,11.5,50,50,0,0,0-9.4,16.2c-2.6,7.3-2.5,11.4-.6,12s1.8-.4,2.8-2a102.9,102.9,0,0,0,4.4-9.4c1.2-2.7,2.5-5.4,3.9-8.1a86.9,86.9,0,0,1,7.3-11.9,29.8,29.8,0,0,1,5.9-6.2,17.2,17.2,0,0,1,7.6-3.4,9,9,0,0,1,6.2,1.3c3.3,2.1,4.7,5.6,4.5,10.6a35.6,35.6,0,0,1-1.2,8,71.6,71.6,0,0,1-3.3,9.4,119,119,0,0,1-5.3,10.8c-2,3.6-4.1,7.2-6.5,10.9Q74.6,195.1,75.4,200.2Z" transform="translate(24.1 31.4)" fill="#fff" fill-rule="evenodd"/><path d="M31.1,252.4A293.8,293.8,0,0,1,32.2,223a232.3,232.3,0,0,1,4.8-29c.6,3.1,1.3,6.3,2.2,9.4s1.7,6.1,2.6,9.1l9.4,1.6,9.4,1.6c1.8-2.2,3.7-4.4,5.5-6.4s3.9-4,5.9-5.9a194.4,194.4,0,0,0-4.7,23.3,218.7,218.7,0,0,0-1.5,23.7c-1.3-2.3-2.7-4.6-3.9-7s-2.5-4.9-3.7-7.4l-9.3-.4-9.3-.4c-1.5,2.8-3,5.6-4.4,8.4S32.4,249.5,31.1,252.4ZM21,198.9c1.3,3.3,2.7,6.7,4.1,9.9s2.9,6.4,4.4,9.5q-.5,5-.9,10.1L18,222.2c.3-3.9.7-7.8,1.2-11.7S20.3,202.7,21,198.9Z" transform="translate(24.1 31.4)" fill="#fff" fill-rule="evenodd"/><path d="M201.9,463.6l-2.8,6.3-2.8,6.3c-8.5-2.9-16.9-5.9-25.2-9.6s-16-7.8-23.6-12a43.4,43.4,0,0,1,10.9-1.6,83.5,83.5,0,0,1,13.1.6l5.8.6c6.7.5,10.7-.4,11.9-2.5s-.3-4.4-5-6.5-8.5-1.9-10.8,1.1a4.6,4.6,0,0,0-.4,4.4,16.3,16.3,0,0,1-3.9-1.3c-3.2-1.6-5.4-3.4-6.6-5.2s-1.1-3.4.2-4.7,5.1-2.5,10-2a44.1,44.1,0,0,1,7.5,1.6,70.4,70.4,0,0,1,8.1,3,72.7,72.7,0,0,1,7.5,3.8,39.9,39.9,0,0,1,5.8,4.1c3.3,2.9,4.6,5.4,3.6,7.7s-2,2.3-4.1,2.8-6.2.5-12.1,0l-6.9-.8-9.7-1.3-8-1.1c3.9,1.9,7.9,3.8,11.9,5.5s8.2,3.4,12.3,4.9l6.8-1.9Z" transform="translate(24.1 31.4)" fill="#fff" fill-rule="evenodd"/><path d="M349.7,447.2a28.4,28.4,0,0,1,8.7-1.9,6.5,6.5,0,0,1,5.2,1.9c2,2.3,1.6,5.5-1.6,9.7a32.2,32.2,0,0,1-6.9,6.5,56.9,56.9,0,0,1-11,6.2,59.1,59.1,0,0,1-11.6,3.7,37.5,37.5,0,0,1-9.8.8c-5.7-.4-8.7-1.9-9.1-4s2-4,7.2-6c-5.7-.8-8.7-2.8-9.3-5.8a6.8,6.8,0,0,1,.6-4.5,13.1,13.1,0,0,1,3.5-4.1,33.4,33.4,0,0,1,6.1-3.8,85.8,85.8,0,0,1,8.4-3.6c2.6-1,5.1-1.8,7.5-2.5a54,54,0,0,1,6.8-1.4c4.3-.6,7.1-.3,8.3,1.3S353,443.8,349.7,447.2Zm-5.5,1.5a5.3,5.3,0,0,0-.5-2.8c-.7-1.2-2.1-1.6-4-1.4s-4.9,1.3-9.1,2.8-8.2,3.8-7.5,5.7,2.9,1.6,7.3.4l4.2-1.3,6-2.3Zm-18.7,15.8a4.1,4.1,0,0,0-.1,2c.5,1.5,2,2.3,4.8,2.2a30.8,30.8,0,0,0,11.5-2.9c8.3-3.6,11.6-6.7,10.5-8.4s-2.3-.7-5.3.3-7.4,2.8-13.3,4.8A63.5,63.5,0,0,1,325.4,464.6Z" transform="translate(24.1 31.4)" fill="#fff" fill-rule="evenodd"/><path d="M232.2,454.6a42,42,0,0,1,8.5,1.7,42.9,42.9,0,0,1,7.8,3.4,24.7,24.7,0,0,1,6,4.3,9.8,9.8,0,0,1,2.7,5.1,7.4,7.4,0,0,1-1.1,5.3,16.1,16.1,0,0,1-5.6,5,30.8,30.8,0,0,1-9,3.6,39.6,39.6,0,0,1-21.7-1.4,29.9,29.9,0,0,1-8.7-5,18.9,18.9,0,0,1-5.1-6.2,8.5,8.5,0,0,1-.8-5.7,8.4,8.4,0,0,1,3.1-4.7,22.3,22.3,0,0,1,6.5-3.4,38.3,38.3,0,0,1,8.4-2A40.7,40.7,0,0,1,232.2,454.6Zm-.4,5.1c-2.8-.3-5,.3-6.5,1.8s-2.5,3.9-2.8,7.2.3,5.4,1.7,7.1,3.8,2.7,7,2.9,5.5-.5,7-2,2.1-3.8,2-6.8-.9-5.7-2.3-7.4A8.3,8.3,0,0,0,231.8,459.7Z" transform="translate(24.1 31.4)" fill="#fff" fill-rule="evenodd"/><path d="M283.1,455.3a40.2,40.2,0,0,0-8.5,1.9,38.9,38.9,0,0,0-7.7,3.7,23.2,23.2,0,0,0-5.7,4.7,9.8,9.8,0,0,0-2.4,5.3,7.9,7.9,0,0,0,1.5,5.4,17,17,0,0,0,5.9,4.9,30.9,30.9,0,0,0,9.3,3.2,39,39,0,0,0,21.6-2.4,30,30,0,0,0,8.4-5.5,18.9,18.9,0,0,0,4.8-6.4,8.5,8.5,0,0,0,.5-5.7,8.3,8.3,0,0,0-3.3-4.5,23.3,23.3,0,0,0-6.7-3.1,41.4,41.4,0,0,0-8.6-1.8A42.8,42.8,0,0,0,283.1,455.3Zm.7,5.1c2.8-.3,5.1.2,6.7,1.6s2.8,3.8,3.3,7.2,0,5.5-1.3,7.2-3.7,2.9-6.9,3.3-5.5-.3-7.1-1.7-2.4-3.8-2.5-6.9.6-5.9,1.9-7.6A8,8,0,0,1,283.8,460.4Z" transform="translate(24.1 31.4)" fill="#fff" fill-rule="evenodd"/></svg>