<svg xmlns="http://www.w3.org/2000/svg" viewBox="0 0 566.9 434.4"><title>orninn</title><path d="M330.3,356.2v3.9h4.9l-2,2.8c-16.7,24-33.7,47.8-51,71.4l-.5.7h-3.3l-.5-.7q-26.6-35.5-52.5-71.5l-2.1-2.9h6.4v-3.9h-8.9l-.5-.7c-8.6-11.9-16.7-24.2-24.7-36.5s-15-22.6-22.2-34.1c-3.3-5.2-6.5-10.4-9.6-15.6s-5.5-9.6-8.1-14.6a136.6,136.6,0,0,1-6.3-13.9,86.9,86.9,0,0,1-3.7-12l-.4-1.8,1.8-.4c35.1-7.2,70.4-13.9,105.9-19h.2l62.6,1.6h.1c16.6,2.5,33.2,5.1,49.8,8.2s30,5.9,45.1,8.9a7.9,7.9,0,0,0,2.3.3l2.3-.4-.2,2.3c-.4,4.7-2.7,9.7-4.7,13.9s-3.3,6.5-5,9.7-3.9,7-5.9,10.5-5.1,8.6-7.8,12.8-4.7,7.1-7.2,10.6c-6.4,8.8-12.2,18-17.8,27.3q-2.8,4.6-5.7,9.1c-7.3,11.1-15.1,21.9-22.4,33.1l-.5.8Z" transform="translate(0 -66.3)" fill="#e6e7e8" fill-rule="evenodd"/><path d="M170,286.9c30.8-15.5,74.9-22,112.3-22.1s86,6.9,112.8,22.1v46.5c-37.5-17-73-21.4-106.8-22.1-41.6-.9-83.9,5.5-118.2,21.7Z" transform="translate(0 -66.3)" fill="#193425" fill-rule="evenodd"/><path d="M241.9,397.7a8.4,8.4,0,0,0,2.1-2.4,36.8,36.8,0,0,1,4.8-5.8l.6-.6h.8l61.9-4h1.3l.7,1.1a97.8,97.8,0,0,1,7.5,12.4,56.9,56.9,0,0,1,5.1,16.1c2.5,2.5,4,7.5,4.9,10.8l.3.9q.9,3.3,1.7,6.7c.4,1.7.7,3.4,1,5.1l.5,3.5h-.8c-2.5,0-5.7-2.2-7.7-3.6h-.2v.2c0,1.7.2,3.3.3,5a45,45,0,0,1,.5,6.1c0,.9-.4,1.7-.4,2.5v.4a10.9,10.9,0,0,1-.2,2.9l-.3.9-.8-.5a85.1,85.1,0,0,1-6.8-5.4c-.9-.8-2-1.4-2.9-2.2s-.2.3-.2.4h0c.1,1.3.2,2.5.3,3.8s.3,2.7.3,4,0,1.7,0,2.6a21.1,21.1,0,0,1-.8,6.4l-.4,1-.8-.8c-.6-.5-1.3-.9-1.9-1.5s-1-1.4-1.6-2l-3-2.9c-.9-.8-1.5-1.9-2.6-2.4h-.5c-.2.5,0,1.3.1,1.8a15.6,15.6,0,0,1-.3,2.4c-.4,4.9-.9,10.1-3.1,14.6l-.4.9-.7-.7a46.7,46.7,0,0,1-6.7-8.6c-.8-1.5-1.4-3-2.1-4.5l-.6.3c-1.2,13.8-2.4,25.6-10,37.6l-.6.9-.6-.9a56.1,56.1,0,0,1-7.9-17c-.3-1.2-.4-2.4-.7-3.5a6.6,6.6,0,0,0-.3-1,8.4,8.4,0,0,1-.5-1.4,28.2,28.2,0,0,1-.4-3.6h-.4l-.8.3v.4a2.5,2.5,0,0,1-.2.8v.2l-.5.5-.3.3a12.8,12.8,0,0,1-1,1.5l-.9.8-1.2.8-.7.6-.4-.8c-.5-.9-.4-2-.6-3s-.6-1.1-.7-1.7a39,39,0,0,1-.9-4.6c-.5-2.7-.2-5.6-.6-8.3l-.3.3c-3.9,4.6-6.2,6.8-11.9,9.1l-.8.3-.7-3.3h0a64.3,64.3,0,0,1-.6-8.2c0-1.1,0-2.1.1-3.2H246c-.9,1-1.8,2-2.8,2.9a29.8,29.8,0,0,1-2.6,1.9,14.6,14.6,0,0,1-1.7,1.2l-.9.5-.6-3.5c-.2-1.2-.4-2.4-.5-3.7s-.3-2.4-.3-3.7a4.3,4.3,0,0,1,.1-1.6,6.7,6.7,0,0,0,.3-1.2,6.9,6.9,0,0,0-.1-1.5,10.1,10.1,0,0,1-.1-1.8,1.9,1.9,0,0,1,.4-1.1,1.1,1.1,0,0,0,.3-.5,2.3,2.3,0,0,0,0-.4l-.3.2a21.6,21.6,0,0,1-9.1,4.9l-.9.2v-.9a62.7,62.7,0,0,1,2.1-13c.3-1.2.8-2.4,1.1-3.7v-.2a15.8,15.8,0,0,1-3.1,3l-2.4,1.6-1.9,1.6-.4-.8c-2.3-4.5-1.8-8.7,0-13.3a45,45,0,0,1,2.9-6,78.2,78.2,0,0,1,6-8.8c1.8-2.4,3.7-4.7,5.7-7S240.3,398.3,241.9,397.7Z" transform="translate(0 -66.3)" fill="#e6e7e8" fill-rule="evenodd"/><path d="M230,430.8a14.6,14.6,0,0,1-3,2.9l-2.4,1.6-1.3,1.1c-2.2-4.2-1.8-8.2,0-12.7s5.9-10.9,8.8-14.6,3.7-4.7,5.7-6.9,2.9-3.3,4.4-3.9a8.4,8.4,0,0,0,2.4-2.6,35.4,35.4,0,0,1,4.7-5.7l.4-.4h.6l61.9-4h.9l.5.8a96.5,96.5,0,0,1,7.4,12.3,56.1,56.1,0,0,1,5,16.1c2.5,2.3,4,7.7,4.9,10.7l.2.9q.9,3.3,1.7,6.7c.4,1.7.7,3.4,1,5.1l.4,2.7c-2.1,0-4.9-1.8-7.3-3.5s-1.3-.9-1.3.6.2,3.4.3,5a45.8,45.8,0,0,1,.5,6c0,.8-.4,1.7-.4,2.5a17.8,17.8,0,0,1-.1,3.1,79.5,79.5,0,0,1-6.7-5.3c-1-.8-2-1.3-2.9-2.2s-1.4-.2-1.3,1.1.2,2.5.3,3.8.3,2.6.3,3.9c.1,3.1,0,6.8-.7,8.7-.5-.5-1.4-1-1.9-1.5s-1-1.3-1.6-2l-3-2.9c-.9-.8-1.5-1.9-2.8-2.5s-1.2-.1-1.4.2-.1,1.6-.1,2.3a16.7,16.7,0,0,1-.3,2.3c-.4,5-.9,10-3,14.3a45.7,45.7,0,0,1-6.6-8.5c-1-1.7-1.4-3-2.3-4.8s-1.8.2-1.8.7c-1.2,13.8-2.3,25.5-9.9,37.4a55.3,55.3,0,0,1-7.9-16.7c-.3-1.2-.4-2.3-.7-3.5s-.6-1.5-.8-2.4a35.6,35.6,0,0,1-.4-3.7c-.1-.5-1.3-.6-2.4.2s-.2.9-.4,1.3-.7.6-.9.9a12.1,12.1,0,0,1-1,1.5,15.7,15.7,0,0,1-2.1,1.6,17.3,17.3,0,0,1-.6-2.8c-.2-.6-.6-1.1-.7-1.7a38,38,0,0,1-.9-4.5c-.5-2.9-.2-6.1-.7-9.1-.1-.7-1,.3-1.4.8-3.7,4.5-5.9,6.6-11.7,8.9l-.5-2.5a63.1,63.1,0,0,1-.6-8.2c0-1.3,0-2.7.1-4h-.1l-1.1.2c-.9.9-2,2.2-3,3.1a26.9,26.9,0,0,1-2.6,1.8,13.6,13.6,0,0,1-1.6,1.1l-.4-2.6c-.3-2-.7-5.2-.8-7.2s.3-1.4.4-2.7-.3-2.3-.2-3.2.6-.8.7-1.6-.5-1.7-1.5-.8a20.9,20.9,0,0,1-8.8,4.7,61,61,0,0,1,2.1-12.9c.4-1.3.8-2.3,1.1-3.7S230.8,429.8,230,430.8Z" transform="translate(0 -66.3)" fill="#fff" fill-rule="evenodd"/><path d="M250.3,391.1c-4.3,4.1-5.1,7.5-7.5,8.6s-5.5,5.2-9.5,10.3c-5.4,6.9-11.2,15.7-9.6,23.9a33,33,0,0,0,6.8-5.3c.6-.5,2.9-.6,2.4,1.4-1.3,5.4-3,8.9-3.1,15.9,2.7-.7,4.3-1.8,7-4.4.4-.4,3-1,2.7.9a41,41,0,0,0,.2,16.2,41.2,41.2,0,0,0,5.4-4.9,1.6,1.6,0,0,0,1.2-.1c.5-.3,1-1.1,1.3-1s.1.6.2,1.1a1.2,1.2,0,0,0,.8.7,59,59,0,0,0,.4,12.8c4.8-2,7-4.2,10.1-8.7a.9.9,0,0,0,.9-.1c.4-.3.9-1,1.2-1s.2.8.4,1.2.7.4.9.4c.2,9.2.9,12.4,2.5,15.4,1.9-1.8,2.1-3.1,4.7-4.8.1.2.7-.7,1.2-.4s.2,1.1.5,1.7,1.1.7,1.2.9c.7,9,3.3,16.2,7.7,24.6,5.8-10.2,7.4-21.7,8.6-35.9a2.6,2.6,0,0,0,1.2-1.7c.2-.7-.1-1.8.3-2s.8,1.5,1.4,2.2,1,.1,1.1.1c2.4,4.9,3.9,8.3,7.9,12.6a106.3,106.3,0,0,0,2.7-19.6c.1-.6,1.1-.2,2.2,1.3s.7,0,.8,0l7.8,7.7c.4-6.8-.3-8.8-.5-13.2-.1-1.5.3-2.9.2-4.3s.1-.6.5-.4,1.4,1.3,2,1.6.4-.3.4-.4a58.6,58.6,0,0,0,8.5,7c0-6.4-1.5-12-.8-17.4.9.5,2.1.7,2.8,1.2a19,19,0,0,0,5.1,2.9,115,115,0,0,0-2.9-12.4c-1.3-4.5-2.8-8.9-4.8-10.3-1.8-12.7-7.4-21.2-12.3-28.4Z" transform="translate(0 -66.3)" fill="#495050" fill-rule="evenodd"/><path d="M250.3,391.1c-3.8,3.6-4.9,6.7-6.7,8.1l-.8,1.3a20.7,20.7,0,0,0-2.2,5.3c-.5,1.8-1.1,5.2.4,6.6a2.5,2.5,0,0,0,1.9.4,5.8,5.8,0,0,0,3.3-2.1l1.8-2.3h0l1-2.4a18.1,18.1,0,0,1,1-2.1,28,28,0,0,1,1.9-2.7,5.7,5.7,0,0,0,1.1-2v-.5l1,.2v.5a6.5,6.5,0,0,1-1.2,2.4,27.1,27.1,0,0,0-1.8,2.6,16.9,16.9,0,0,0-.9,2l-1.2,2.9a33.9,33.9,0,0,0-2.4,5.8,10,10,0,0,0-.2,2.2,9.6,9.6,0,0,0,.4,2.9c.1.4.4,1.2.9,1.3a4.1,4.1,0,0,0,3.1-1.1,14.3,14.3,0,0,0,2.2-2.3A35.5,35.5,0,0,0,255,415h0v-.3l1.3-5.5c.3-1.4.7-2.8,1-4.3v-.5l1,.2v.5c-.3,1.4-.6,2.9-1,4.3l-1.3,5.5-.7,2.9c-.4,1.6-.8,3.3-1,4.9a16.2,16.2,0,0,0-.3,3.9,3,3,0,0,0,1,2.3,1.7,1.7,0,0,0,1.4,0h.3c3.5-1.5,5.7-6.3,6.8-9.8l.4-1.4v-.4a33.1,33.1,0,0,0,.7-3.7v-.5h1v.5a34.4,34.4,0,0,1-.7,3.7h0l-.2.7-.3,1.1a47.9,47.9,0,0,0-1.8,9.1c-.2,2.6-.1,5.6,1.3,7.9h.1l1.4-.2c1.8-.6,3.2-2.5,4.1-4.1a44.5,44.5,0,0,0,3.2-7.6l.2-.5,1,.3-.2.5-.4,1.2h.9v.5a62.8,62.8,0,0,0,1.1,10.3,32,32,0,0,0,1.7,5.4c.6,1.2,1.7,3.2,3.3,3.1s2.7-2.5,3.2-3.9.8-2.8,1.1-4.3a81.7,81.7,0,0,0,1.7-11.6v-.5h1v.5c-.1,1.5-.3,3.4-.6,5.3a18.8,18.8,0,0,0,1.5,2.2c1,1.2,2.8,3.1,4.6,3.2,2.2-2.2,3-5.7,3.3-8.7a53.4,53.4,0,0,0,.3-6.1c0-2.2-.1-4.4-.2-6.6s-.1-2.9-.2-4.3v-.5h1v.5c.1,1.4.1,2.9.2,4.3s.2,5.1.2,7.6a11.4,11.4,0,0,0,6.9,5.4c2.3-3.8,1.3-10.5.6-14.7-.5-2.6-1.1-5.1-1.8-7.6a44.9,44.9,0,0,0-1.9-5.5l-.2-.5.9-.4.2.5a45.9,45.9,0,0,1,1.9,5.6c.7,2.5,1.3,5.1,1.8,7.7s.6,3.2.7,5.1a10.2,10.2,0,0,0,6.8,4.3c1.2-4.1.1-10.6-.7-14.6a75.9,75.9,0,0,0-4.5-13.7l-.2-.5.9-.4.2.5a77,77,0,0,1,4.5,13.9c.2,1,.4,2.1.6,3.3a12,12,0,0,0,3.2,3.2c2,1.4,4.8,2.2,7,1.2-1.8-12.6-7.4-21-12.3-28.2Zm-8.6,9.3c-1.9,1.6-5.2,5.5-8.4,9.6-5.4,6.9-11.2,15.7-9.6,23.9a33,33,0,0,0,6.8-5.3,1.7,1.7,0,0,1,1.1-.3c.8-1.1,1.4-2.4,2.1-3.5a48.1,48.1,0,0,1,3.4-5.2l1.8-2.1,2.8-2.8.8-.8a3.1,3.1,0,0,1-2.2-.7,4.1,4.1,0,0,1-1.1-2.2l-.7,1.1c-1,1.5-2,3.1-3.1,4.5a39.2,39.2,0,0,1-5,5l-.2-.5a37.1,37.1,0,0,0,4.4-5.2c1.1-1.5,2.1-3,3.1-4.5l1.4-2.1h0a16.2,16.2,0,0,1,.6-3.8A21.4,21.4,0,0,1,241.7,400.5Zm2.4,13-1.8,1.9-2.7,2.7-1.7,2a47.1,47.1,0,0,0-3.3,5.1c-.6,1.1-1.3,2.3-2,3.4a1.4,1.4,0,0,1,.3,1.4c-1.3,5.4-3,8.9-3.1,15.9,2.7-.7,4.3-1.8,7-4.4a2.7,2.7,0,0,1,1.4-.4l.6-2c.6-2,1.1-4,1.7-6a56,56,0,0,1,1.9-5.6c1-2.4,2-4.8,3-7.2a10.8,10.8,0,0,1-.3-2.2l-3.6,6.8c-1.9,3.5-4,7-6,10.5l-.5-.3c2-3.5,3.7-7.1,5.6-10.6l4.5-8.3v-.2a9.8,9.8,0,0,1,.2-1,15,15,0,0,1,.8-2.4l.2-.4-.3.3A6.8,6.8,0,0,1,244.2,413.5Zm1.9,8.1c-.9,2.1-1.8,4.2-2.6,6.3a54.9,54.9,0,0,0-1.9,5.5c-.5,2-1.1,4-1.7,6l-.6,2a1.1,1.1,0,0,1,.3,1.1,41,41,0,0,0,.2,16.2,41.2,41.2,0,0,0,5.4-4.9h0c1.1-1.3,2.5-3.1,2.7-4.2s1-4.8,1.5-7.2.8-4,1.3-6,1.6-6,2.5-8.9v-.9a17.1,17.1,0,0,1,.3-4.2c.3-1.5.6-3,.9-4.5v-.5l-.3.4-.7.8a15.3,15.3,0,0,1-2.4,2.4,7.1,7.1,0,0,1-2,1.1,44,44,0,0,1-.7,6.7c-.4,2.2-.8,4.4-1.3,6.5a47.3,47.3,0,0,0-1.2,5.7h-.6a44.4,44.4,0,0,1,.9-5.8c.4-2.2.9-4.3,1.3-6.5a43.9,43.9,0,0,0,.7-6.3h-1A1.9,1.9,0,0,1,246,421.6Zm7.7,7.3c-.8,2.6-1.5,5.2-2.1,7.8s-.9,3.9-1.2,5.9-.9,4.8-1.5,7.2a34.6,34.6,0,0,0-.4,4.7h0a59,59,0,0,0,.4,12.8c4.8-2,7-4.2,10.1-8.7a.9.9,0,0,0,.9-.1,11.9,11.9,0,0,1,1-.9c.1-1,.2-1.9.2-2.9s.1-5,.3-7.4.3-3.4.5-5.1.5-4.5.6-6.7a16.1,16.1,0,0,1-.7-7c.1-1.1.2-2.2.4-3.2v-.5l-.3.4a11.7,11.7,0,0,1-4.5,4.5c0,1.1-.1,2.2-.1,3.3-.2,2.8-.4,5.6-.7,8.4s-.7,5.2-.9,7.7h-.6c.2-2.6.2-5.1.5-7.7s.6-5.6.7-8.4q.1-1.5.1-2.9a2.3,2.3,0,0,1-2.7-1.1Zm9.6,8.2c-.1,1.7-.3,3.4-.5,5.1s-.3,3.4-.5,5.1-.2,4.9-.3,7.4a35.7,35.7,0,0,1-.4,4.3l.7.2c.2,9.2.9,12.4,2.5,15.4,1.9-1.8,2.1-3.1,4.5-4.7.2-1.1.8-1.9,1.1-3.1a12.6,12.6,0,0,0,.2-3.1q0-2.3.1-4.6c.1-3.3.2-6.7.4-10s.2-4.6.4-6.8.4-5,.7-7.5.6-4.3,1-6.4v-1.9l-.2.5a37.5,37.5,0,0,1-2.5,5.7,11,11,0,0,1-3.4,4c-.1,4.9-.3,9.9-.3,14.8,0,1.1,0,2.2,0,3.3a25.2,25.2,0,0,0,.2,3.2h-.8a24.8,24.8,0,0,1-.4-3.2c0-1.1,0-2.2,0-3.3,0-4.8.1-9.6.3-14.3h-.2a5.4,5.4,0,0,1-2.1.3h-.2v-.2Zm10.2-4.7-.3,2.4c-.3,2.5-.5,5-.7,7.5s-.3,4.5-.4,6.8-.3,6.6-.4,10q-.1,2.3-.1,4.6a52.3,52.3,0,0,0,.4,6.6l.2,1.6h0v.5c.1.6.1,1.2.2,1.8.9,8,3.4,14.6,7.4,22.3,5.7-10.1,7.4-21.5,8.6-35.5-.1-2.5.3-5-.2-8-.1-.4.4-.8.4-1.3l-.2-1.2c-.7-5.6-1.1-11.1-1.3-16.7l-.9-1.2c-1,6.3-2.8,13.6-5.8,17.1h0a57.2,57.2,0,0,1,.2,6.4c-.1,3.4-.2,6.9-.4,10.3q-.1,1.5-.2,3c-.1,1.8-.2,3.6-.2,5.5s-.1,3.6,0,5.3h-.7c-.1-1.8-.3-3.7-.3-5.4s.1-3.7.2-5.5.1-2,.2-3c.2-3.4.4-6.8.4-10.3a56.7,56.7,0,0,0-.3-6.9h0a36.5,36.5,0,0,1-5.3-12.1A38.6,38.6,0,0,1,273.6,432.5Zm18,26.7c.3.3.9,0,1,0,2.4,4.9,3.9,8.3,7.9,12.6a104.6,104.6,0,0,0,2.6-19.2c-.3-2.9-.5-5.8-.9-8.6a108.6,108.6,0,0,0-2.2-10.6c-.6-2.6-1.3-5.3-1.8-8v-.3l-.7-.9c0,1.2-.1,2.4-.3,3.5-.4,3.1-1.2,6.7-3.4,9.1.6,2,1.3,3.9,1.8,5.9s1.3,4.7,1.8,7.1a77.6,77.6,0,0,1,1.2,9.4h-.6q-.6-4.7-1.6-9.3c-.5-2.4-1.1-4.7-1.8-7s-1.2-3.8-1.8-5.7c-1.6,0-3.2-1.2-4.4-2.5.2,5.2.6,10.2,1.3,15.4.2,1.6.6,2.7.9,4.3S292,455.5,291.5,459.2Zm14.5-5.7h0l7.8,7.7c.4-6.8-.3-8.8-.5-13.2a20.3,20.3,0,0,1,.2-2.7c-.4-1.5-.6-3.1-.8-4.7s-.4-3.5-.8-5.1a61.7,61.7,0,0,0-2.7-8.7,59.4,59.4,0,0,0-2.5-5.6c0,2.8-.4,5.6-1.8,7.6l-.2.3h0a29.3,29.3,0,0,0,1.2,6.3l.7,2.1c.4,1.1.7,2.2,1.1,3.3a41.6,41.6,0,0,1,.9,5.5H308a40.2,40.2,0,0,0-1.3-5.2c-.3-1.1-.7-2.2-1-3.2l-.7-2.1a30.9,30.9,0,0,1-1.3-6.9h0a12.8,12.8,0,0,1-4.3-2.4c.5,2.3,1,4.5,1.5,6.8s1.8,7.1,2.3,10.7.4,5.3,1.5,7.6A7.7,7.7,0,0,0,306,453.5Zm10.5-9h0a58.6,58.6,0,0,0,8.5,7c0-5.5-1.1-10.3-.9-15a54.4,54.4,0,0,0-2.4-9,56,56,0,0,0-3.6-7.8c-1.1-2-2.3-3.9-3.4-5.8.4,3.3.4,6.8-.5,9.3.7,1.9,1.3,3.8,1.9,5.7l2.3,7.2.6,2-.6.2-.7-1.9c-.8-2.4-1.8-4.8-2.6-7.2s-1.2-3.8-1.9-5.7a11.2,11.2,0,0,1-5.5-2.6,60.5,60.5,0,0,1,2.5,5.6,62.7,62.7,0,0,1,2.7,8.8c.4,1.7.6,3.5.8,5.2S315.7,443.4,316.5,444.5Zm8.2-10.2a19.2,19.2,0,0,1,2.4,1,19,19,0,0,0,5.1,2.9,115,115,0,0,0-2.9-12.4c-1.2-4-2.5-7.9-4.2-9.7a6.7,6.7,0,0,1-4.7.5,47.5,47.5,0,0,1,6.8,12.9l-.6.3c-1.7-4.9-4.6-9.3-7.6-13.5l-.2-.2-2-1.1-.7-.5,2.7,4.7a57,57,0,0,1,3.7,7.9A53.5,53.5,0,0,1,324.6,434.3Zm-44.4,14.1-1.3-2.2-.2-.3h.3a2.6,2.6,0,0,0,2.5-.1l.3-.2v.3a15.8,15.8,0,0,1-1.3,2.3h-.2Z" transform="translate(0 -66.3)" fill-rule="evenodd"/><path d="M447.2,247.9a83.5,83.5,0,0,0,11.3,9.6,41,41,0,0,0,5.3,3.1,1,1,0,0,1-.6,1.9c-3.4-.3-6.9-.2-10.3-.5l-1.8-.3c-1.3-.1-2.7,0-4-.3a22,22,0,0,1-3.7-1.2l-4.1-1.3a26,26,0,0,1-3.6-1.4h-.3l-.9-.3c-.5-.3-.8-.7-1.3-1h-.6l.2.3c2.7,3.1,5,6.4,7.9,9.2.4.3.6.9,1,1.1l1.5,1.2a26.8,26.8,0,0,0,3.2,2.4.9.9,0,0,1-.5,1.7c-2.8.1-5.9-1.1-8.7-1.7l-5.2-1.2-2.8-.7a46.2,46.2,0,0,1-4.8-2.2l-3.3-1.8.4.5.9,1.1,1.2,2.1a13.9,13.9,0,0,0,1.3,2l3.6,4.4a1,1,0,0,1,.1,1.1,1,1,0,0,1-1.3.4,15,15,0,0,0-3.1-.7l-3-.6a63,63,0,0,1-8.7-3l-1.5-.6-.6-.4-1-.7-.6-.2h0c.7,1.2,1.2,2.6,1.9,3.8l2,3.2.9,1.6a9,9,0,0,1,.9,1.2c.5,1.1-.6,1.9-1.6,1.2l-.6-.4c-.4-.2-1.2,0-1.6-.1l-2-.7-1.1-.5-1.8-.3-2.2-.9-.8-.4-.9-.6h-.4l-.7-.2h-.1l-.5-.5v-.2a29.2,29.2,0,0,1-4.5-2.5l-.7-.7a2.8,2.8,0,0,0-.7-.7h-.4a3.4,3.4,0,0,0,.1.9,17.1,17.1,0,0,0,.7,2.3c.5,1.5,1.3,3,1.9,4.6a15.7,15.7,0,0,0,.8,2,12.6,12.6,0,0,0,1,1.5,1.1,1.1,0,0,1,.2,1.2c-.4.6-1.2.6-1.8.3l-2-1.3-1.4-.9-1-.9h-.3a1.6,1.6,0,0,1-1.3-.3l-1-1-1.3-1-2-1.5a11,11,0,0,1-3.1-4.2,18.1,18.1,0,0,0-1.2-2.5h-.5v-.6a41.8,41.8,0,0,1,.3-8.1,103.3,103.3,0,0,1,3.9-15.9c2.3-7.6,4.7-15.4,4.2-23.5v-.2l.5-1,1-.5A41.7,41.7,0,0,0,401.9,211a28.6,28.6,0,0,0,5.2-15.8c0-1.9-.5-2.1-1.5-3.7a10.5,10.5,0,0,1-1-2.2c-1.3-3.9-.6-9.1,1-12.8,5.3-12.9,15-23.2,26-31.5,3.4-2.5,6.9-4.8,10.4-7l9.9-6a134.1,134.1,0,0,0,15.5-11.3,57.8,57.8,0,0,0,9.2-9.7l1.4-1.8v2.3c-.1,1.7-1.3,4.3-2.1,5.8a58.4,58.4,0,0,1-5.3,8.4c-1.2,1.6-2.5,3.2-3.9,4.7l-1.4,1.8c-.7.8-1.6,1.4-2.2,2.2v.2h.1l1.1-.5c1.6-.9,3-2.2,4.6-3.1,6.9-4,13.9-8,20.3-12.8a73.8,73.8,0,0,0,6.2-5.5l.5-.4,1,.8-.4.5-.7,1.2h0l1.8-1.3,1.4-.9,2.2-1.7,3.6-2.9,2.8-2.2,2.8-2.4c3.6-3.5,7.3-6.9,10.8-10.4a8.9,8.9,0,0,1,1.4-1l1.2-.9a69.4,69.4,0,0,0,5.4-6.4,34,34,0,0,1,3.2-3.4l.5-.5c.9-1,1.7-2.1,2.6-3.1s1-1.1,1.4-1.7h0c.8-1.1,1.6-2.3,2.5-3.3s1.5-1.5,2.1-2.2,1.9-2.4,2.8-3.6a.9.9,0,0,1,1.6.8l-1.8,4c-1.2,2.6-2.6,5.1-3.9,7.6h0a144.9,144.9,0,0,1-20.4,27.3c-1.2,1.3-2.6,2.4-3.8,3.6l-6.1,6.2c-2,2-4.1,4.1-6.2,6l-.8.8a16.1,16.1,0,0,1-2.5,4.4h.2l5.7-3.6,4.6-2.8,2.6-1.6c11.2-7.2,21.3-15.8,31.4-24.4l1.7-1.1,1.5-1,3.1-2.9c4.4-4,8.3-8.4,12.6-12.5a.9.9,0,0,1,1.2-.2c.5.3.3.9.1,1.3a28.1,28.1,0,0,1-1.7,3.1L561,85.6,558.1,90c-2,3-4,6.1-6.3,9-1.1,1.3-2.3,2.5-3.5,3.8s-1.6,2.3-2.5,3.3l-3.2,3.3c-2.5,2.5-4.7,5.3-7.3,7.7-4.5,4.3-9.2,8.2-13.8,12.4a2.7,2.7,0,0,1-1.1.6l-.6.2-.2.2a1.2,1.2,0,0,1-.7.6,1,1,0,0,1-.9-.2c-.6-.4-1.2-1.9-1.7-2.5h-.1l-.6,1a6.4,6.4,0,0,0-.4,1.7c-.2,1.5-.4,3.2-2.1,3.6l-2,1.1-1.1,1.3-.7,1.1-1.5,2.3H508a6.7,6.7,0,0,1-.5,1.3,37,37,0,0,1-8,9.3l-.7.5a14.7,14.7,0,0,0-1.8,1.1h.5c5.5-2.8,10.9-5.9,16.3-9l4.5-2.6,2.7-1.5,7.2-4.4,6.4-3.9c4.6-2.9,8.9-6,13.3-9.1,2.6-1.8,5.3-3.5,7.7-5.5a119,119,0,0,0,9.6-9.2c.9-1,1.9,0,1.4.9a94.1,94.1,0,0,1-11.4,15.7,171.9,171.9,0,0,1-16,15.9,175.3,175.3,0,0,1-14.8,12l-2.9,2.1a71.3,71.3,0,0,1-6.8,4.1c-2.5,1.4-5.2,2.6-7.8,3.8h0l-1,.4a41.8,41.8,0,0,1-4.9,6.5,54.6,54.6,0,0,1-5.6,5.1,1,1,0,0,0-.1.5l6.1-1.3,1-.3.7-.3.5-.2c4.2-.8,8.5-1.6,12.7-2.7s9-2.6,13.4-4.1c1.8-.6,3.6-1.1,5.4-1.9,3.9-1.6,7.7-3.6,11.5-5.6a1,1,0,0,1,1.2.1,1.1,1.1,0,0,1,.1,1.3,46.1,46.1,0,0,1-5.8,6.5l-2.2,2a6.2,6.2,0,0,1-1.3.8l-1,.6-1.7,1.5-3.3,2.4-.9.7a21.8,21.8,0,0,1-3.1,2.4,69.2,69.2,0,0,1-6.6,3.5l-2.1.8a70.9,70.9,0,0,1-13.6,4.7,84.6,84.6,0,0,1-9.6,1.4l-3.1,2.4-1.2,1.2a9,9,0,0,1-1.6,1.5l-2.2,1.2-2.3,1.8-1.7.8-3.6,2.3a32.7,32.7,0,0,1-3.4,1.9,3.5,3.5,0,0,1-2.5.2,2.3,2.3,0,0,1-.8-.6l-.2-.3a4.3,4.3,0,0,0-1.5,1l-.3.3h4.9l3.3-.5,6.3-.4a174.5,174.5,0,0,0,24.1-4.1c1.9-.5,3.8-.7,5.7-1.3a42.2,42.2,0,0,0,4.6-1.7l1.2-.6,2-1.1h.2c.5-.2,1.1-.2,1.4.3s-.1,1.1-.5,1.4l-2.2,1.6-1.8,1.2-1.2.9a35.5,35.5,0,0,1-4.1,2.9c-3.1,1.8-6.2,3.6-9.3,5.3a86.1,86.1,0,0,1-15.6,6.5A71.5,71.5,0,0,1,473,214a11.6,11.6,0,0,0-3.4.6h0l-.2.3-.5.5-1.5.8-1.2.6-.9.5a20.8,20.8,0,0,1-2.2,1.7L461,220l-1.5.7-.9.3-.6.2h.3c11.8.1,23.7-.1,35.5.2h6.8a1,1,0,0,1,.6,2,92.8,92.8,0,0,1-12.6,5.9l-4,1.6-4.6,1.5a76.4,76.4,0,0,1-7.8,1.8c-1.8.3-3.6.3-5.4.6s-1.5.5-2.4.6a30.7,30.7,0,0,1-6.2,0l.2.2c1.5.8,3,1.5,4.5,2.2l1,.5,2.8,1.1,2.2.8,3.3.8h2.3l1,.2,1.1.2,1.9.3h.3a.9.9,0,0,1,.7.5c.3.7-.4,1.1-.8,1.3a51.9,51.9,0,0,1-5.4,2.1,14.2,14.2,0,0,1-1.9.8l-.8.2-1.7.2-1.1.2h-.1l-2.2.5-2.6.6A46.5,46.5,0,0,1,447.2,247.9Z" transform="translate(0 -66.3)" fill="#e6e7e8" fill-rule="evenodd"/><path d="M407.8,195.2c-.1,12.4-8.8,21.9-15.9,26.9l-.8.4-.3.6c1,16.3-9.4,31.1-8.5,47.5,1.1.1,1.5,4.4,4.6,6.8a36.8,36.8,0,0,1,4.5,3.6c.3.3,1.3-.1,1.6.2l1,.9c1,.7,2.6,1.8,3.4,2.2s1.2.1.8-.4l-1.1-1.6a16.5,16.5,0,0,1-.9-2.1c-.6-1.5-1.4-3.1-1.9-4.6s-1-3.5-.7-4,.9-.3,1.3-.1.9,1,1.4,1.4a29.7,29.7,0,0,0,4.4,2.5c.3.2.4.6.8.7l1.1.4.9.6.8.4,2.1.8a16.3,16.3,0,0,1,1.8.4,16.6,16.6,0,0,0,3,1.1c.4.1,1.2-.2,1.8.1l.7.4c.3.3.7.1.5-.3s-.5-.6-.8-1.1l-.9-1.6-2.1-3.2c-.7-1.3-1.2-2.5-1.9-3.8s.3-1.5,1.5-.8,1,.8,1.6,1.1l1.5.6a60.9,60.9,0,0,0,8.6,3c1.8.5,4.5.6,6.2,1.3s.6-.2.3-.4l-3.6-4.4c-.9-1.1-1.7-3-2.6-4.2s-1.1-1-1.5-1.9.5-1,.8-.9l3.6,2a44.9,44.9,0,0,0,4.8,2.1l2.8.7,5.1,1.2c2.6.6,5.9,1.7,8.5,1.6.2,0,.3-.3.1-.4a47.5,47.5,0,0,1-4.7-3.6c-.5-.4-.6-.8-1.1-1.2-3-2.8-5.2-6.1-8-9.3-1.1-1.3.5-1.8,1.3-1.3l1.2.9,1.2.4a26.9,26.9,0,0,0,3.5,1.3l4.1,1.3a19.9,19.9,0,0,0,3.6,1.2c1.1.2,2.8.1,4,.2l1.8.3c3,.2,7.3.2,10.3.5.5,0,.6-.3.2-.5A39.6,39.6,0,0,1,458,258a84.3,84.3,0,0,1-11.5-9.8c-.8-.8-.2-1.3.5-1.1a45.7,45.7,0,0,0,15.6.6c1.9-.2,3-.8,4.8-1.1s2.3-.3,3.7-.6a13.7,13.7,0,0,0,1.8-.8,50.1,50.1,0,0,0,5.3-2.1c1-.5.3-.6.1-.6a20.3,20.3,0,0,1-3.2-.5l-.9-.2a16,16,0,0,1-2.3-.1l-3.3-.8-2.3-.9-2.8-1.1-1-.5c-1.8-.8-2.9-1.3-4.6-2.3s-.6-1.5-.2-1.5c2.2,0,4.3.4,6.5.1s1.4-.5,2.4-.6,3.6-.3,5.3-.6a75.7,75.7,0,0,0,7.7-1.8,84.5,84.5,0,0,0,8.5-3.1,91.5,91.5,0,0,0,12.5-5.9c.4-.3.3-.7-.2-.7h-6.8c-12-.2-23.3-.1-35.5-.2-1.3,0-1.6-1.3.1-1.7s2-.8,4.4-2a20.2,20.2,0,0,0,2.2-1.6c1.1-.7,2.1-.9,3.5-1.9s.4-.7.9-.9a12.7,12.7,0,0,1,3.6-.6c18.2-.5,30.6-7.1,43.3-14.6a35.2,35.2,0,0,0,4-2.9c1.6-1.3,3.1-2,5.3-3.7.5-.4.5-.7-.2-.5a28.7,28.7,0,0,1-3.3,1.7,43.6,43.6,0,0,1-4.7,1.7c-2,.7-3.7.9-5.8,1.4a177.2,177.2,0,0,1-24.2,4.2l-6.4.4-3.3.5h-3.7c-2.2.1-2.7-.1-1.5-1.5a4.2,4.2,0,0,1,2.1-1.2c.5,0,.7.7,1.3.9a2.8,2.8,0,0,0,1.9-.2,71.4,71.4,0,0,0,6.9-4.1l1.6-.8,2.3-1.7c.8-.5,1.5-.8,2.2-1.2a34.7,34.7,0,0,0,2.8-2.6l3.2-2.5a84.3,84.3,0,0,0,9.8-1.4,71.4,71.4,0,0,0,13.5-4.6l2.1-.8a68.6,68.6,0,0,0,6.5-3.5,34,34,0,0,0,3.9-3l3.3-2.4,1.6-1.5c.5-.5,1.7-.9,2.2-1.4a54.9,54.9,0,0,0,7.9-8.4s.1-.7-.5-.4c-3.4,1.7-7.6,4-11.5,5.6-1.7.7-3.7,1.3-5.4,1.9-4.5,1.6-8.8,2.9-13.5,4.2s-8.6,1.9-12.7,2.7c-.6.1-.9.5-2.2.8l-6.2,1.3c-1.1.1-.8-1.5-.5-1.8A41.5,41.5,0,0,0,505.6,162l1.2-.5a92.4,92.4,0,0,0,14.5-7.8l2.9-2.1a171.9,171.9,0,0,0,14.7-12c9.3-8.2,20.8-19.9,27.3-31.5.1-.1.1-.5-.3-.1a117.4,117.4,0,0,1-9.7,9.2c-2.4,2-5.3,3.8-7.7,5.6-4.5,3.2-8.3,5.9-13.4,9.1l-13.7,8.3-2.7,1.5-4.5,2.6c-5.5,3.1-11.3,6.4-16.3,9-.6.3-1.9-.2-1.5-1s1.8-1.1,2.7-1.9a36.9,36.9,0,0,0,7.8-9.1c.3-.5.3-1,.6-1.4s2.1-3.2,2.2-3.4l1.2-1.5,2.2-1.3c2-.3,1.4-3.3,2.1-4.9a8.6,8.6,0,0,1,1.3-1.8l.6.9a14.2,14.2,0,0,0,1.5,2.3c.5.4.5-.3.9-.6s1.1-.3,1.7-.7c4.5-4.2,9.3-8.1,13.7-12.4,2.4-2.3,4.9-5.2,7.3-7.7l3.2-3.3c.9-1,1.6-2.3,2.5-3.3s2.3-2.4,3.5-3.8c2.4-2.9,4.4-6.1,6.2-8.9s5.8-8.7,6.9-11.1c.1-.3.3-.8-.2-.3-4.4,4.2-8.4,8.7-12.7,12.5l-3.1,3c-.8.7-2.4,1.4-3.3,2.2-10.3,8.7-20.2,17.1-31.5,24.4l-12.9,8c-.7.5-1.5-.6-1.2-.9a15.4,15.4,0,0,0,2.6-4.6l1-.9c3.9-3.5,8.6-8.4,12.3-12.2,1.2-1.2,2.6-2.3,3.8-3.6a144.6,144.6,0,0,0,20.3-27.2,118.6,118.6,0,0,0,5.7-11.5c.1-.3-.1-.5-.3-.2s-1.8,2.5-2.8,3.6-1.4,1.4-2.1,2.2l-2.5,3.3c-.4.6-1,1.2-1.5,1.7s-1.7,2.2-2.6,3.2a42.9,42.9,0,0,0-3.7,3.9,68.4,68.4,0,0,1-5.5,6.5c-.6.6-2,1.3-2.6,1.9-3.5,3.5-7.2,6.9-10.8,10.4l-2.9,2.4-2.8,2.1-3.6,2.9-2.2,1.7-1.5.9-1.8,1.3-.9.5c-.4.1-.9-.4.6-2.6a70.9,70.9,0,0,1-6.3,5.5c-6.2,4.6-13.5,8.8-20.4,12.9-1.8,1-2.8,2.1-4.6,3.1s-1.7.6-2,.4a.9.9,0,0,1,0-1.2c.6-.8,1.5-1.5,2.2-2.3l1.4-1.8c1.3-1.4,2.7-3.1,3.9-4.6,4.4-5.9,7.1-11.7,7.2-13.8a57.9,57.9,0,0,1-9.3,9.8,132.2,132.2,0,0,1-15.6,11.4c-6.4,4-13.2,7.7-20.3,13-11.5,8.6-20.7,18.9-25.8,31.2-1.5,3.6-2.2,8.6-1,12.4a9.8,9.8,0,0,0,.9,2C407.3,192.9,407.8,193.1,407.8,195.2Z" transform="translate(0 -66.3)" fill="#fff" fill-rule="evenodd"/><path d="M403.9,211.8c3.1-5.2,6.2-12.9,5.2-18.4-.3-1.9-1.5-3-2.4-5.7a15.2,15.2,0,0,1,.8-10.5c1.8-4.4,5.7-9.2,9.3-13.6s4.8-5.8,6.9-8.6c-3.2,3-6.6,6.9-10.5,11.2a56.1,56.1,0,0,1,6.3-8.1,102.4,102.4,0,0,1,13.3-11.6c6.2-4.6,13.5-8.8,20.3-13.5-3.7,3.1-4.5,3.5-11,8.4a102.2,102.2,0,0,0,13.9-9.5c3.9-3,8.6-6.9,14.3-12-.7,1-1.7,2.3-2.8,3.7a18.4,18.4,0,0,0,3.1-2.5v-.7a72.1,72.1,0,0,0,4.8-5.7c-1.7,2.9-3,4.2-4.2,6l.2.3.6-.6a98.9,98.9,0,0,1-12.3,14.6,4.3,4.3,0,0,0,1.9,2.3,23.3,23.3,0,0,0,4.3-2.5,22.8,22.8,0,0,1-2.9,3.1c3.6-2.3,5.1-4.1,5.3-4.5a200.2,200.2,0,0,0,17.8-11.4c-1.3,1.3-2.7,2.6-3.9,3.6,2.8-1.5,1.8-.8,7.6-5.1,1.7-1.2,3.7-2.3,5.5-3.4l4.7-3,2.2-1.4c4.6-4.5,6.3-5,9.4-8s8.2-7.4,11.7-11.1c6.5-6.9,7.2-7.7,9.3-10.4a101.1,101.1,0,0,1-6.6,8.8,10.6,10.6,0,0,0,2.9-2.3c.6-.6.3-1.2,1.3-2.8s2.4-2.3,3.5-3.7c3.6-4.5,7.9-10.7,8.4-11.4-1.2,2.2-6.6,10.3-7.8,12.1-5,7.8-9.6,13.2-17.5,22.1-1.4,0-2.1.8-1.9,2.1-4.1,4.4-8.5,8.4-12.9,12.2l-.8-1.4c-.3,3.3-1.7,5.3-3.2,7.7-.7.9.2,1.8,1.7,3,4.9-2.6,10-5.7,14.5-8.6,13.6-8.8,25.5-18.7,37.7-29.9l-4.6,4.8c.2.3.7.1,1.4-.4a55,55,0,0,0,4.1-4.4c2.2-2.4,7.2-7.6,9-10.1a45.2,45.2,0,0,1-4.2,5.5,11.4,11.4,0,0,0-1.9,2.3l1.9-2.1c-5.7,9.2-14.5,18.9-23.4,27.3-.3.3-.4.8-.7,1.1-4.4,4.2-9.4,8.4-13.7,12.3-.3.3-.8.1-1.4-.4s-.4-.2-.6-.4a6.5,6.5,0,0,1-.8-2.7,2.7,2.7,0,0,1-.7,1.2,8.1,8.1,0,0,0-2.4,2.8,14.5,14.5,0,0,0-.8,3.3c-.1.4-.4.4-.7.2s-.4-.6-.7-.6.1,1.2-.3,1.5-3.5,1.9-5.2,2.9h2.1a70.3,70.3,0,0,1-14.4,16.5c-.4.7.6,4.2,2.5,3.3,5.8-2.8,14.7-7.6,22.8-12.3.4-.2.5,0,.8-.2l2-1.5c8.9-5.5,19.7-12.1,28.7-19l-1.6,1.5a26.7,26.7,0,0,0,4.8-3.4,83.7,83.7,0,0,0,7.3-6.9,42.2,42.2,0,0,1-5.4,5.9c-1,.9-3.2,3-2.1,2.4l1.1-.9c-4.2,4.6-7,7.9-10.7,11.1-.4.3-1,.5-1.3.8s0,.7-.4,1l-2.9,2.6c-.4.3-.9.3-1.7,1s-.1.8-.4,1a187.4,187.4,0,0,1-15.2,11.9l-2.6,1.8-4,2.5c-.2-1.2-1-.5-1.1.6a71.7,71.7,0,0,1-8.9,4.8c-.5-.1-1,.2-1.5.6a43.3,43.3,0,0,1-5.4,7,4.3,4.3,0,0,0-.6.7l-1.7,1.7-.8.7c-1,1-2.1,1.7-3.1,2.5a2.3,2.3,0,0,0,1.2,3.7c5.3-.9,13-2.3,17.4-3.3,1.4-.3,1.4-.9,2.8-1.2a169.2,169.2,0,0,0,27.6-10,72.4,72.4,0,0,1-7.5,4.6c3.6-.9,7.8-4.1,11-6.7a24.1,24.1,0,0,1-3.8,3.6c-1.7,1.3-2.8,1.8-4.5,3.3l2.7-1.5a75.7,75.7,0,0,1-18.6,12.5c-.5.2-1.2,0-1.6.2-7.7,4.4-13.7,5.3-21.1,6.3-.3-.2-.8-.6-1.3-.5s-4.4,4-6.9,5.5a5,5,0,0,0-.1-1.1,51.4,51.4,0,0,1-6.1,5.7c-1,.5-6.4,3.1-7.6,3.8l-1-1.2a1.4,1.4,0,0,0-1.5-.1l-2.5,2.4c-.5-1.3-1.6-.7-.9.5l-.9.9c.3,1.8.2,2.4,2.3,2.4,6.5-.3,11.8-.7,17.9-1.4a159.5,159.5,0,0,0,24.7-4.9c-.5.4-.4.6-.1.5a48.2,48.2,0,0,0,6.3-3.1,24.5,24.5,0,0,1-4.9,3c-1.2.5-2.5.8-3.6,1.3a3.9,3.9,0,0,0-1.4,1.2l2.8-1c-21.9,13-38.1,13.1-41.7,13.1-.1-.4-1.5-.6-2.1-.4s-4.4,3.2-6.9,4.6c-1,.2-1.4.5-1.7.5a40.5,40.5,0,0,1-6,3.2c-.9,2.1.2,3.9,1.5,3.9h16.9c5.5,0,13.6.5,20.1.1a27.5,27.5,0,0,0,4.8-.8c-.8.6-3.9,1.2-6.6,1.7s-3.3.7-3.8,1.8l5.1-1c-8.8,3.2-14.6,5.2-21.8,6.5a62.7,62.7,0,0,1-15.5,1.1c-1.2.2-.9,2.7-.3,3.6a38.6,38.6,0,0,0,14.6,6.3,22,22,0,0,0,3.9-.1,41.7,41.7,0,0,1-7.3,1.3,4.4,4.4,0,0,0-1.7.4l2.3.6a70.4,70.4,0,0,1-14.2.8c-.3,0-.7-.4-1-.4s-.7.3-1,.3a26.1,26.1,0,0,1-5.4-.9c-1.7.1-2.5,2.8-1.1,4.1a100.2,100.2,0,0,0,11.4,9.3l-1-.3a25.4,25.4,0,0,0,4.6,2.4c-2.3-.5-3.7-.9-7.7-2.1l2,1c-2.7-.3-6.9-.6-10.3-1.8-.9-.4-2.1-1.8-2.7-2.3a10.4,10.4,0,0,1,.7,1.7,34.6,34.6,0,0,1-8.5-3.5c-1.7-1.2-4.1.9-3.3,3.5a102.4,102.4,0,0,0,7.1,8,43.6,43.6,0,0,0,5.8,4.6c-2.3-.6-5.7-3.5-7.9-2.6l3.6,2a57.1,57.1,0,0,1-12.5-4.5,6.3,6.3,0,0,1-1.3-1.7c0,.3-.1.7-.4.8l-4.3-2.5c-.6.5-1.5,1.3-1.7,1.8a42.3,42.3,0,0,0,5.2,8.3l-.7-.3a14,14,0,0,0,2.6,2.5c-1.5-.4-2.9-2.1-4-1.4l.7.5a51.9,51.9,0,0,1-9.9-3.7c-.3-.2-.8-1.2-1.1-1.3s.3.9-.4.5l-2-1.2c-.7-.3-1.9,1.1-1.9,3.1a44.1,44.1,0,0,0,3.5,6.6l-.5-.3a9.7,9.7,0,0,0,2,2.2c-1.1-.3-3.6-3.2-4.3-1.9l1.4,1.2a54.4,54.4,0,0,1-11.6-6c-.9-.9-2.7-2.2-4-3.2s-4-2.6-2.9,1.6,1,6.1,5.6,12.2c-1.6-1.6-11.1-11.2-13.6-12.9,5-21.8,9.8-36.8,10-46.6A27.4,27.4,0,0,0,403.9,211.8Z" transform="translate(0 -66.3)" fill="#495050" fill-rule="evenodd"/><path d="M392.1,223.1c5.4-3.4,14.9-10.6,18.8-19.9a76.2,76.2,0,0,1-7.1,8.6c3.1-5.2,6.2-12.9,5.2-18.4l1.7.3a13.1,13.1,0,0,1-4-6,15.2,15.2,0,0,1,.8-10.5c1.8-4.4,5.7-9.2,9.3-13.6s4.8-5.8,6.9-8.6c-3.2,3-6.6,6.9-10.5,11.2a56,56,0,0,1,6.3-8.1,102.3,102.3,0,0,1,13.3-11.6c6.2-4.6,13.5-8.8,20.3-13.5-3.7,3.1-4.5,3.5-11,8.4a102.2,102.2,0,0,0,13.9-9.5c3.9-3,8.6-6.9,14.3-12-2.7,4.1-10.5,12.3-13,14.9,2-1.3,9.7-9,14.6-14.4a100.8,100.8,0,0,1-13.2,15.6,154.5,154.5,0,0,1-13.5,11.5c3.5-1.7,7.8-4.4,10.1-7,5.2-2.5,8.9-4.3,10.6-5.6a22.8,22.8,0,0,1-2.9,3.1c3.6-2.3,5.1-4.1,5.3-4.5a200.4,200.4,0,0,0,17.8-11.4c-7.1,7.3-15.3,13.4-24.1,19.7a122.4,122.4,0,0,0,25.1-19.1c-1.6,2.8-13.8,15.6-26.3,24.8-.6.6-6.6,3.4-17.5,7.7,8.2-1.8,17.4-6.4,23.8-9.3.7-.3,12.9-6.8,16.3-8.8-2.9,3-5.6,5.6-21,16.3,9.5-4.5,16.4-10.6,22.2-15.7-6.4,8.7-25.4,22.1-33.3,26-3.3,1.4-8.5,2.9-13.8,4.6,5-.6,12-2.7,17.8-4.7,1.6-.6,3.3-1.3,4.7-1.9a149.4,149.4,0,0,0,20.3-9.4c-7.9,6.4-17.9,12.1-29.4,17.3a133.4,133.4,0,0,0,30.5-16c-8.1,8-18.8,15.1-31.1,21.5-6.9,1.3-13.6,2.3-19.1,3,7.9.8,35.2-4.9,39-6.2-9,4.8-14.9,6.9-27.2,9.8,11.8-1.7,19.3-4.5,28.4-8.6-10.2,8.8-24.2,15.2-41.2,17.9h1.5l-1.7.2c6.8,1.5,17.5.5,27-.2a117.9,117.9,0,0,1-16.8,3.9,56,56,0,0,0,17.2-2.7c-12.8,6.8-21.8,8.7-32.2,9.7,1.3.4,3,.6,4.4,1l4.5,1.4c6.1,1.8,11.9,3,16.4,2.9a57.4,57.4,0,0,1-13.9.9c3.1,1.3,7.1,1.5,11.5.9a58.3,58.3,0,0,1-27.8,2.4,50,50,0,0,0,5.9,3.9c.6.4.5,1.4-3.3.7.7,1,2.9,1.1,6.5,1.2,5.2,3.1,8.5,5.2,10.5,6.3a71.7,71.7,0,0,1-16.6-3.5c4.9,2.3,7.5,3.9,15.1,5.4a39.3,39.3,0,0,1-13.5.1c.4-1.2-1.8-2.3-3.6-3.4,1.4,1.5,2.6,2.2,2.3,3.2a30.4,30.4,0,0,1-10.1-4.1,11.8,11.8,0,0,0,4.9,3.8,94.4,94.4,0,0,0,10.5,21.5c-4.2-1.6-7.2-4-10.7-7.3a24.5,24.5,0,0,0,8.7,8.4c-3.9-.2-14.8-3.9-16.3-8.3l.5-.7,3.4,3.3a25.8,25.8,0,0,0-3.3-4.3l-1.7,3.2a89.3,89.3,0,0,0,5.4,15.7,38.5,38.5,0,0,1-7.3-7.3,26.6,26.6,0,0,0,5.8,8.2c-1.7-.6-8.6-4.5-9.5-6l-.7,1.4c2.3,1.9,6.6,5.9,13.4,7.1.4,1,1.1,2.1,1.6,3.2a42.4,42.4,0,0,0,5.2,8.3l-.7-.3a50.4,50.4,0,0,1-8.4-5.6c1.2,2.1,4,4.6,6.9,6.7l.7.5a51.9,51.9,0,0,1-9.9-3.7c-.3-.2-.9-1.2-1.1-1.3s.3.9-.4.5l-2-1.2a38.6,38.6,0,0,1-9.8-9c0,.1-3.7,5.6-3.9,7.7,0,.2,4.5,1.7,6.3,1.5a21.9,21.9,0,0,1-5.7-2.9,1.1,1.1,0,0,1,.9-.3c1.2.4,3.3,1.7,5.5,2.4-.5-1.4-1.3-4.8-.9-4.4s4.2,4.3,4.4,4.7l1.4,3.4a45.3,45.3,0,0,0,3.5,6.7c-2.6-1.6-5-3.2-7.4-5,1.5,2.2,2.6,2.8,4.6,4.8l1.5,1.2c-4-1.4-9.8-3.6-15.2-8.9-1.2.7-1.7,3.8.9,10.5-2-1.6-3.2-4.2-4.9-6.4.3,2,2,4.3,3.4,7.5-7.1-4.4-9.7-8-11.2-10.3C382.8,261,393,238,392.1,223.1Zm30.2,25.6c1.4,1.7,2.5,2,4.5,3.3a35.9,35.9,0,0,0,3.1,5.2c3.2,3.8,6.7,8,10.3,11a118.8,118.8,0,0,1-14.2-7.8,61.3,61.3,0,0,0,12.4,8.8,57.1,57.1,0,0,1-12.5-4.5,6.3,6.3,0,0,1-1.3-1.7c0,.3-.1.7-.4.8l-4.3-2.5-2.3-1.7c-1.1-2.8-4.9-11.4-6.8-17.7C413.7,245.2,415.9,247.1,422.3,248.7Zm11.4-99.9a105.6,105.6,0,0,0-11.5,14.4,69.4,69.4,0,0,0-4.1,7.4,44.4,44.4,0,0,0-2.9,7.8,5.9,5.9,0,0,1,5.4,1.8,12.7,12.7,0,0,0-5.5-.7h-.1a78.7,78.7,0,0,0-1.4,8.4,14.1,14.1,0,0,1-.2-6q.2-1.1.4-2.2a21.2,21.2,0,0,0-5.6,2.6,13.2,13.2,0,0,1,5.9-3.8,41.7,41.7,0,0,1,3.8-10.1C421.8,160.9,426.3,155.5,433.7,148.8Zm61.6-30.7-5.2,3.2c-4.6,6.8-11.3,13.9-18.3,20.2,6.9-4.4,13.8-11.8,19.1-19.8Zm-39.4,44c21.7-12.9,33.4-26.9,35.2-31.8-3,2.2-6.5,4.4-11.2,7.4a144.5,144.5,0,0,1-14.6,7.8c13.9-9.7,24-24.4,24.6-25s3.7-2.3,5.5-3.4l4.7-3,2.2-1.4c4.7-4.5,6.3-5,9.4-8s8.2-7.4,11.7-11.1c6.5-6.9,7.2-7.7,9.3-10.4-3.6,5.7-15.4,19.4-22.4,25.3,5.8-3.9,19.6-19,27.7-30.6-6.7,11.7-11.5,17.2-21.2,28.3-1.4,0-2.1.8-1.9,2.1-4.1,4.4-8.5,8.4-12.9,12.2l-.8-1.4c-.3,3.3-1.7,5.3-3.2,7.7-5.4,7-7.9,9.9-17.5,18.6,10.6-6.3,14.7-13.4,16-14a22.5,22.5,0,0,0,3.2-1.5c4.9-2.6,10-5.7,14.5-8.6,13.6-8.8,25.5-18.7,37.7-29.9-6,6.5-19.6,19.9-36,30.7,17-9.9,34.2-26.5,41.8-35.1-5.6,9.1-14.3,18.6-23,26.9-.1.1-2-1.7-2.2-1.7s0,.6-.1,1.4-.9,1.6-.7,1.6,1.6-1.3,2.1-1.3.3.6.3.7a2.3,2.3,0,0,1-.4.7c-4.4,4.2-9.4,8.4-13.7,12.3-.3.3-.8.1-1.4-.4s-.4-.2-.6-.4a6.6,6.6,0,0,1-.8-2.7,2.7,2.7,0,0,1-.7,1.2,8.1,8.1,0,0,0-2.4,2.8,14.5,14.5,0,0,0-.8,3.3c-.1.4-.4.4-.7.2s-.4-.6-.7-.6.1,1.2-.3,1.5-3.5,1.9-5.2,2.9h2.1a74,74,0,0,1-10.9,13.4,4,4,0,0,1-1.1-1.4c.2,1.4.3,2.2.1,2.4l-2.5,2.2c-12.2,10.4-18,13.1-25.1,17.5,9.4-3.8,12.4-6.6,18.2-9.8a92.4,92.4,0,0,1,9.3-4.4c5.8-2.8,14.7-7.6,22.8-12.3.4-.2.5,0,.8-.2l2-1.5c8.9-5.5,19.7-12.1,28.7-19-7.3,6.8-37.6,27.7-49.2,32.5,19-6.5,39.3-22.8,53.5-34-4.2,4.6-7,7.9-10.7,11.1-.4.3-1,.5-1.3.8s0,.7-.4,1l-2.9,2.6c-.4.3-1.1.2-1.7,1-4.6,3-5.6,2.9-7.2,4.1a11.4,11.4,0,0,1-2.3,2.9l4.4-2.9c1.6-1.1,3.6-2.8,4.7-3.1a187.5,187.5,0,0,1-15.2,11.9l-2.6,1.8-4,2.5c-.3-.4,0-1.1.6-1.4s.5-1,.2-1.6-.9-.1-.8.3.3.6.2.8-1.2,1.6-1.3,2.5a71.7,71.7,0,0,1-8.9,4.8,5.4,5.4,0,0,0-.6-3,12.1,12.1,0,0,1-.9,3.5,43.3,43.3,0,0,1-5.4,7,3.1,3.1,0,0,1-.7-.8,5.7,5.7,0,0,0,.1,1.5l-1.7,1.7-.6-.4c0,.1,0,.6-.1,1.1s-2.1,1.7-3.1,2.5a22,22,0,0,1-3.9,3.1c.1-.9.4-1.9.5-2.6,6.5-5.4,10.8-9.6,12.6-13.6-8.5,11.3-17.9,15.7-30.3,23.3a110.8,110.8,0,0,0,16.9-9.4,24.6,24.6,0,0,1-.9,3.1,95.2,95.2,0,0,1-24.8,11.5l-1,.3a165.8,165.8,0,0,1-23.8,1.7c11.4-2.7,26.5-8.6,39.3-21.5-6.9,1.8-15.2,3.7-23.5,5.2,9.5-5.1,27.1-14.5,34.4-28A237,237,0,0,1,455.9,162.2Zm31.9-1.5a141.5,141.5,0,0,1-14.5,8.4,27.5,27.5,0,0,0,7.9-2.8A23.3,23.3,0,0,0,487.8,160.7Zm1.1-13.8a65.2,65.2,0,0,1-11.8,13.5,87.8,87.8,0,0,1-14.8,10.2,49.2,49.2,0,0,0,14.4-7.7C482.1,158.9,486.6,153.8,488.9,147Zm-11.1,23.2a78.5,78.5,0,0,1-16,12.2,69.1,69.1,0,0,1-17.4,7.1c5.9-.2,13.4-2.8,19.3-6.2S474.7,175.3,477.8,170.2Zm-12.9,19.2h.1c15.2-4.6,19.2-8.4,26-12a19.1,19.1,0,0,1,3.3-.4c5.3-.9,13-2.3,17.4-3.3,1.4-.3,1.4-.9,2.8-1.2a169.3,169.3,0,0,0,27.6-10c-7.4,5.3-16.5,9.8-30.2,14.3,11.6-2.4,21-7,28.2-11a75.7,75.7,0,0,1-18.6,12.5c-.5.2-1.2,0-1.6.2-7.7,4.4-13.7,5.3-21.1,6.3l.3-2-1.6,1.6c-1.8,1.4-4.4,4-6.9,5.5v-1.1a51.4,51.4,0,0,1-6.1,5.7c-1,.5-6.4,3.1-7.6,3.8l-1-1.2c-.5-.7-.6-4.3-.8-4.6s-.4.2-.6.4.1,3.5-.2,4.1l-2.5,2.4c-.5-1.3-1.6-.7-.9.5l-.9.9a42.7,42.7,0,0,1-6.1,3,40.3,40.3,0,0,1-6.4,2.3l-1,.2c-8.1,0-17-2.2-23.8-3.8C445,200.7,453.8,196.9,464.9,189.5Zm-10.5,18.4a37.8,37.8,0,0,0,12.4-4.5l5.2-.2c6.5-.3,11.8-.7,17.9-1.4a159.4,159.4,0,0,0,24.7-4.9c-10,5.4-22.1,7.3-27,8.9,11.5-1.2,19.2-4.9,26.1-6.9-21.9,13-38.1,13.1-41.7,13.1-.3,0,1.5-2.5,1.5-3.6-1.3,1-3,3.1-3.6,3.2s-4.4,3.2-6.9,4.6c-.2.1,2.8-3.4,3.7-4.8a40.1,40.1,0,0,0-5.5,5.3,49.4,49.4,0,0,1-6,3.2c-1.8.9-.7-1.2-1.4-1s-.3,1.6-.6,1.7l-4.8,1.5c-2.7.5-6.3,0-8.5.2s-10.9-6.2-14.9-9.1C437,214.4,446.8,211,454.4,207.9Zm9.9-17.4c-7.5,6.2-16.5,9.6-26.9,12.1,8.8-1,18.1-3.3,27.2-10.6a53.6,53.6,0,0,0,25.2-13C480.1,185.1,472.5,188.5,464.3,190.5Zm2.5,13.6c-2.4,2.3-8.2,4.4-13.3,4.7-5.1,4.1-14.2,6.4-25.1,5.3,5.1,2.9,13.4,3.3,25.7-3.7C461.9,208.6,465.2,206.5,466.8,204.1Zm-22.8,21.8a28.6,28.6,0,0,1-21.8,1.9,14.6,14.6,0,0,0,10.5,3.1C436.7,230.6,441.8,228.3,443.9,225.9Zm8.3,9.5a7.5,7.5,0,0,1-4.2-.3,17.5,17.5,0,0,1-10.1,2.9,31,31,0,0,0,10.3-3.9A11.9,11.9,0,0,0,452.2,235.4Zm-32.7-9.7c6.6,2.7,16.8,3.4,25.4-1a2.6,2.6,0,0,0-1-1.3c5.7.4,12.3.3,13,.4h9.5c1.1,0-3.4,1-7.3,1.7,5.6.1,13-1.7,14.8-1.7h20.6c-2.3.9-12.7,3.4-29.2,4.9,11.3,1.1,25.1-2.7,28.2-3.1-8.8,3.2-14.6,5.2-21.8,6.5a62.7,62.7,0,0,1-15.5,1.1,45.5,45.5,0,0,1-6.8-.9,8.9,8.9,0,0,0,1.9-2.2,21.4,21.4,0,0,1-9.1,4.4q-.6-.9-.8.2a42.2,42.2,0,0,1-17.7-.4C422.3,231.4,420.8,228.5,419.5,225.7Zm28.6,7.7c1.9.8,4.6.9,5,1.2a30.3,30.3,0,0,0,2.8,2.4,38.6,38.6,0,0,0,14.6,6.3c-4.7.5-15.4-.4-20.8-2.4,4.4,3.5,17.2,4.5,17.8,4.6a68.6,68.6,0,0,1-14,.8c-.3,0-.7-.4-1-.4s-.7.3-1,.3a26.1,26.1,0,0,1-5.4-.9c-1.1,0-2.3-.5-3.9-.7-2.4-2.3-5.1-4.9-7.5-7.3l4.1-.3A23.1,23.1,0,0,0,448.2,233.3Zm-15.7,4a170.1,170.1,0,0,0,12.5,12.1,100.1,100.1,0,0,0,11.4,9.3l-2.1-.6a109.7,109.7,0,0,1-14.6-7,58.7,58.7,0,0,0,12.4,7.5l2.1,1.1c-2.7-.3-6.9-.6-10.4-1.8-.9-.4-2.1-1.8-2.7-2.3a10.4,10.4,0,0,1,.7,1.7,34.6,34.6,0,0,1-8.5-3.5c-2.2-1.2-4.8-2.5-8-4.5,2.5.2,4.6.4,6.9-.2-2.7-4.5-5.3-9-7.6-13.4A19.2,19.2,0,0,0,432.5,237.3Zm4.7,6.4c-1.7-1.9-3.7-3.9-5.4-5.8a16.8,16.8,0,0,1-5.4-.7l.6,1.4a37.2,37.2,0,0,0,4.9.4A34.4,34.4,0,0,0,437.2,243.7Zm-15.7,5.5a12.7,12.7,0,0,0,4.2,3,17.9,17.9,0,0,1-8.6-2.7,11.9,11.9,0,0,1-4.8-4.7A18.1,18.1,0,0,0,421.5,249.2Zm-18.7,4.3c1.2,3.2,9,6.5,12.5,7.3-2.5.4-9.3.6-13-5.8C402.6,254.4,402.6,254,402.8,253.5Zm37.8-104.2c-1.4,3.4-2.4,6.7-6.9,8.5.3,3.9-2.5,6.3-5.8,7-1.2-.8-1.3.1-.5,1,.4,3.4-2.3,5.6-4.6,7.7,2.4-1.2,5.2-2.3,6-7.8,3.8-1.2,5.8-3.3,6.1-6.9C439.7,155.7,440.3,152.4,440.6,149.3ZM421.2,188c2.6,1.9,3.2,3.5,3.4,5.6.4,4-2.8,9.9-8.1,12.6,3.5-2.8,6.1-6.9,6.6-9.9a7,7,0,0,0-2.8-7.6l-1.4,1.2-.7-.3a18.9,18.9,0,0,0,5.1-6.4c1.2-3.1.6-5.4-1.2-8.1a5.9,5.9,0,0,1,2.9,3.9,9.3,9.3,0,0,0,4.8-8.4c2-.6,4.2-2.6,6-5.2-.5,2-1.9,4.2-5.4,6,.4,4.6-2.5,7.2-5.3,8.9C425.1,182.8,423.5,185.6,421.2,188Zm-6.1,20.1a5.7,5.7,0,0,1-.2,5.3c-1.4,2.2-3.7,3.5-6.9,4.4C412,215.6,414.9,212.9,415.1,208.1Zm1.8,17.3a13.7,13.7,0,0,1-4-3.4l-.8.4C414.1,224.7,415.5,225.2,416.9,225.4Z" transform="translate(0 -66.3)" fill-rule="evenodd"/><path d="M310.6,392.9c1.5,2.7,2.7,5.6,4.2,8.3s2.1,3.5,3.3,5.2l-.5.3a22.2,22.2,0,0,1-3.7-5.1c-1.5-2.7-2.7-5.6-4.2-8.3l-.2-.4.9-.5Z" transform="translate(0 -66.3)" fill="#495051" fill-rule="evenodd"/><path d="M256.7,402.5l-1.5,2.5c-1,1.8-1.9,3.6-2.7,5.5l-.6-.3a47.4,47.4,0,0,1,2.4-5.7l1.5-2.5.3-.4.9.5Z" transform="translate(0 -66.3)" fill="#495051" fill-rule="evenodd"/><path d="M263.7,407.8c-.7,1.9-1.5,3.9-2,5.9l-.7-.2c.5-2,1.1-4,1.8-6l.2-.5.9.3Z" transform="translate(0 -66.3)" fill="#495051" fill-rule="evenodd"/><path d="M270.5,417.5c-.7,1.9-1.5,3.9-2,5.9l-.7-.2c.5-2,1.1-4,1.8-6l.2-.5.9.3Z" transform="translate(0 -66.3)" fill="#495051" fill-rule="evenodd"/><path d="M251.9,395.6a35.5,35.5,0,0,0-3.9,5.1l-.6-.4a35.1,35.1,0,0,1,3.8-5.3l.3-.4.8.6Z" transform="translate(0 -66.3)" fill="#495051" fill-rule="evenodd"/><path d="M305.3,400.2a61.7,61.7,0,0,1,2.9,7l-.7.2a59.7,59.7,0,0,0-3.1-6.7l-.2-.4.9-.5Z" transform="translate(0 -66.3)" fill="#495051" fill-rule="evenodd"/><path d="M298.8,405.9a17.6,17.6,0,0,1,2.1,7.8h-.7a16.9,16.9,0,0,0-2.2-7.3l-.2-.4.9-.5Z" transform="translate(0 -66.3)" fill="#495051" fill-rule="evenodd"/><path d="M291.6,417.9a16.4,16.4,0,0,1,.5,4.1h-.8a15.6,15.6,0,0,0-.7-3.9l-.2-.5,1-.3Z" transform="translate(0 -66.3)" fill="#495051" fill-rule="evenodd"/><path d="M158,270l-.6.2-1,.7-.6.4-1.5.6a63,63,0,0,1-8.7,3l-3,.6a15,15,0,0,0-3.1.7,1,1,0,0,1-1.3-.4,1,1,0,0,1,.1-1.1l3.6-4.4a13.9,13.9,0,0,0,1.3-2l1.2-2.1.9-1.1.4-.5-3.3,1.8a46.3,46.3,0,0,1-4.8,2.2l-2.8.7-5.2,1.2c-2.7.6-5.8,1.8-8.7,1.7a.9.9,0,0,1-.5-1.7,26.8,26.8,0,0,0,3.2-2.4l1.5-1.2c.4-.3.6-.8,1-1.1,2.9-2.8,5.3-6.2,7.9-9.2l.2-.3h-.6c-.5.3-.8.7-1.3,1l-.9.3h-.3a26,26,0,0,1-3.6,1.4l-4.1,1.3a22,22,0,0,1-3.7,1.2c-1.3.2-2.7.1-4,.3l-1.8.3c-3.4.3-6.9.2-10.3.5a1,1,0,0,1-.5-1.9,41,41,0,0,0,5.3-3.1,83.4,83.4,0,0,0,11.3-9.6,46.5,46.5,0,0,1-15.6.5l-2.6-.6-2.2-.5h-.2l-1.1-.2-1.7-.2-.8-.2a14.2,14.2,0,0,1-1.9-.8,51.8,51.8,0,0,1-5.4-2.1c-.5-.2-1.1-.7-.8-1.3a1,1,0,0,1,1-.6l1.9-.3,1.1-.2,1-.2h2.3l3.3-.8,2.2-.8,2.8-1.1,1-.5c1.5-.7,3.1-1.4,4.5-2.2l.2-.2a30.7,30.7,0,0,1-6.2,0c-.8-.1-1.6-.5-2.4-.6s-3.6-.3-5.4-.6a76.3,76.3,0,0,1-7.8-1.8L82.5,231l-4-1.6a92.9,92.9,0,0,1-12.6-5.9,1,1,0,0,1,.6-2h6.8c11.8-.2,23.7-.1,35.5-.2h.3l-.6-.2-1-.3L106,220l-2.1-1.1a20.7,20.7,0,0,1-2.2-1.7l-.9-.5-1.2-.6-1.5-.8-.5-.5-.2-.3h0A11.6,11.6,0,0,0,94,214a71.5,71.5,0,0,1-18.7-2.9,86.1,86.1,0,0,1-15.6-6.5c-3.2-1.7-6.3-3.5-9.3-5.3a35.6,35.6,0,0,1-4.1-2.9l-1.2-.9-1.8-1.2-2.2-1.6c-.4-.3-.8-.9-.5-1.4s.9-.5,1.4-.3h.2l2,1.1,1.2.6a42.1,42.1,0,0,0,4.6,1.7c1.9.6,3.8.9,5.7,1.3a174.5,174.5,0,0,0,24.1,4.1l6.3.4,3.3.5h4.9l-.3-.3a4.3,4.3,0,0,0-1.5-1l-.2.3a2.3,2.3,0,0,1-.8.6,3.5,3.5,0,0,1-2.5-.2,32.7,32.7,0,0,1-3.4-1.9L82.1,196l-1.7-.8-2.3-1.8-2.2-1.2a9,9,0,0,1-1.6-1.5l-1.2-1.2L70,187.1a84.6,84.6,0,0,1-9.6-1.4A70.9,70.9,0,0,1,46.8,181l-2.1-.8a69.2,69.2,0,0,1-6.6-3.5,21.8,21.8,0,0,1-3.1-2.4l-.9-.7-3.3-2.4-1.7-1.5-1-.6a6.2,6.2,0,0,1-1.3-.8l-2.2-2a46.1,46.1,0,0,1-5.8-6.5,1.1,1.1,0,0,1-.1-.9,1,1,0,0,1,1.5-.6c3.8,1.9,7.6,3.9,11.5,5.6,1.8.7,3.6,1.3,5.4,1.9q6.6,2.3,13.4,4.1c4.2,1.1,8.4,1.9,12.7,2.7l.5.2.7.3,1,.3,6.1,1.3a1,1,0,0,0-.1-.5,54.6,54.6,0,0,1-5.6-5.1,41.8,41.8,0,0,1-4.9-6.5l-1-.4h0c-2.7-1.1-5.3-2.4-7.8-3.8a71.3,71.3,0,0,1-6.8-4.1l-2.9-2.1a175.5,175.5,0,0,1-14.8-12,171.9,171.9,0,0,1-16-15.9A94.1,94.1,0,0,1,.2,108.5c-.5-.9.5-1.9,1.4-.9a119,119,0,0,0,9.6,9.2c2.4,2,5.1,3.7,7.7,5.5,4.4,3.2,8.8,6.2,13.3,9.1l6.4,3.9,7.2,4.4,2.7,1.5,4.5,2.6c5.4,3.1,10.8,6.1,16.3,9H70a14.7,14.7,0,0,0-1.8-1.1l-.7-.5a37,37,0,0,1-8-9.3,6.7,6.7,0,0,1-.5-1.3h-.1L57.4,138l-.7-1.1-1.1-1.3-2-1.1a2.2,2.2,0,0,1-1.1-.6,5.1,5.1,0,0,1-1-3,6.5,6.5,0,0,0-.4-1.7l-.6-1h-.1c-.5.6-1,2.1-1.7,2.5a1,1,0,0,1-.9.2,1.2,1.2,0,0,1-.7-.6l-.2-.2-.6-.2a2.7,2.7,0,0,1-1.1-.6c-4.5-4.2-9.3-8.1-13.8-12.4-2.6-2.4-4.8-5.2-7.3-7.7l-3.2-3.3c-.9-1-1.6-2.3-2.5-3.3s-2.4-2.5-3.5-3.8c-2.3-2.8-4.3-5.9-6.3-9L6,85.6,3.6,81.8a28.1,28.1,0,0,1-1.7-3.1v-.2a.9.9,0,0,1,.2-1.1.9.9,0,0,1,1.2.2c4.3,4.1,8.3,8.5,12.6,12.5L19,93.1l1.5,1,1.7,1.1c10.1,8.6,20.2,17.2,31.4,24.4l2.6,1.6,4.6,2.8,5.7,3.6h.2a16.1,16.1,0,0,1-2.5-4.4l-.8-.8c-2.1-1.9-4.2-3.9-6.2-6L51,110.1c-1.2-1.3-2.6-2.3-3.8-3.6A144.9,144.9,0,0,1,26.8,79.2h0c-1.3-2.5-2.7-5-3.9-7.6l-1.8-4a.9.9,0,0,1,1.6-.8c.9,1.2,1.8,2.5,2.8,3.6s1.5,1.4,2.1,2.2,1.6,2.2,2.5,3.3h0c.4.6,1,1.1,1.4,1.7s1.7,2.1,2.6,3.1l.5.5a34.2,34.2,0,0,1,3.2,3.4,69.3,69.3,0,0,0,5.4,6.4l1.2.9a8.9,8.9,0,0,1,1.4,1c3.5,3.5,7.2,6.9,10.8,10.4l2.8,2.4,2.8,2.2,3.6,2.9,2.2,1.7,1.4.9,1.8,1.3h0l-.7-1.2-.4-.5,1-.8.5.4a73.9,73.9,0,0,0,6.2,5.5c6.4,4.8,13.4,8.8,20.3,12.8,1.6.9,3,2.2,4.6,3.1l1.1.5h.1v-.2c-.6-.8-1.5-1.5-2.2-2.2l-1.4-1.8c-1.3-1.5-2.7-3.1-3.9-4.7a58.4,58.4,0,0,1-5.3-8.4c-.7-1.5-2-4.1-2.1-5.8v-2.3l1.4,1.8a57.8,57.8,0,0,0,9.2,9.7A134.1,134.1,0,0,0,115,131.9l9.9,6c3.6,2.2,7.1,4.5,10.4,7,11,8.3,20.7,18.6,26,31.5,1.6,3.8,2.2,8.9,1,12.8a10.5,10.5,0,0,1-1,2.2c-.9,1.5-1.5,1.8-1.5,3.7a28.6,28.6,0,0,0,5.2,15.8,41.7,41.7,0,0,0,10.4,10.5l1,.5.5,1v.2c-.4,6.8-1.4,13.5-2.3,20.3a148.5,148.5,0,0,0-1.7,19.4,58.6,58.6,0,0,0,3.4,20.6l.3,1h-9l.7-1.1a15.7,15.7,0,0,0,2.1-4.7l-.2-.4a20.5,20.5,0,0,0-1.9-3l-1.6.9v.2a1.9,1.9,0,0,1-.6.6l-.7.2h-.4l-.9.6-.8.4-2.2.9-1.8.3-1.1.5-2,.7c-.5.1-1.3-.1-1.6.1l-.6.4c-.9.7-2,0-1.6-1.2a9,9,0,0,1,.9-1.2l.9-1.6,2-3.2c.7-1.2,1.2-2.6,1.9-3.8Z" transform="translate(0 -66.3)" fill="#e6e7e8" fill-rule="evenodd"/><path d="M159.2,195.2c.1,12.4,8.8,21.9,15.9,26.9l.8.4.3.6c-1.2,21.3-8,40.3-.6,60.6h-6.7a16.1,16.1,0,0,0,2.2-5.2c-1.2-2-2.3-4.3-3-3.9l-1.7.9c-.3.2-.4.6-.8.7l-1.1.4-.9.6-.8.4-2.1.8a16.3,16.3,0,0,0-1.8.4,16.6,16.6,0,0,1-3,1.1c-.4.1-1.2-.2-1.8.1l-.7.4c-.3.3-.7.1-.5-.3s.5-.6.8-1.1l.9-1.6,2.1-3.2c.7-1.3,1.2-2.5,1.9-3.8s-.3-1.5-1.5-.8-1,.8-1.5,1.1l-1.5.6a60.8,60.8,0,0,1-8.6,3c-1.8.5-4.5.6-6.2,1.3s-.6-.2-.3-.4l3.6-4.4c.9-1.1,1.7-3,2.6-4.2s1.1-1,1.5-1.9-.5-1-.7-.9l-3.6,2a44.8,44.8,0,0,1-4.8,2.1l-2.8.7-5.1,1.2c-2.6.6-5.9,1.7-8.5,1.6-.2,0-.3-.3-.1-.4a47.5,47.5,0,0,0,4.7-3.6c.5-.4.6-.8,1.1-1.2,3-2.8,5.2-6.1,8-9.3,1.1-1.3-.5-1.8-1.2-1.3l-1.2.9-1.2.4a27,27,0,0,1-3.5,1.3l-4.1,1.3a19.9,19.9,0,0,1-3.6,1.2c-1.1.2-2.8.1-4,.2l-1.8.3c-3,.2-7.3.2-10.3.5-.5,0-.6-.3-.2-.5A39.6,39.6,0,0,0,109,258a84.4,84.4,0,0,0,11.5-9.8c.8-.8.2-1.3-.5-1.1a45.7,45.7,0,0,1-15.6.6c-1.8-.2-3-.8-4.8-1.1s-2.3-.3-3.7-.6a13.8,13.8,0,0,1-1.8-.8,50.1,50.1,0,0,1-5.3-2.1c-1-.5-.3-.6-.1-.6a20.3,20.3,0,0,0,3.2-.5l.9-.2a16,16,0,0,0,2.3-.1l3.3-.8,2.3-.9,2.8-1.1,1-.5c1.8-.8,2.9-1.3,4.6-2.3s.6-1.5.2-1.5c-2.2,0-4.3.4-6.5.1s-1.4-.5-2.4-.6-3.6-.3-5.3-.6a75.7,75.7,0,0,1-7.7-1.8,84.5,84.5,0,0,1-8.5-3.1,91.6,91.6,0,0,1-12.5-5.9c-.4-.3-.3-.7.2-.7h6.8c12-.2,23.3-.1,35.5-.2,1.3,0,1.6-1.3-.1-1.7s-2-.8-4.4-2a20.1,20.1,0,0,1-2.2-1.6c-1.1-.7-2.1-.9-3.5-1.9s-.4-.7-.9-.9a12.7,12.7,0,0,0-3.6-.6c-18.2-.5-30.6-7.1-43.3-14.6a35.2,35.2,0,0,1-4-2.9c-1.6-1.3-3.1-2-5.3-3.7-.5-.4-.5-.7.2-.5a28.8,28.8,0,0,0,3.3,1.7,43.6,43.6,0,0,0,4.7,1.7c2,.7,3.7.9,5.8,1.4a177.2,177.2,0,0,0,24.2,4.2l6.4.4,3.3.5h3.7c2.1.1,2.7-.1,1.5-1.5a4.2,4.2,0,0,0-2.1-1.2c-.5,0-.7.7-1.3.9a2.8,2.8,0,0,1-1.9-.2,71.5,71.5,0,0,1-6.9-4.1l-1.6-.8-2.3-1.7c-.8-.5-1.5-.8-2.2-1.2a34.7,34.7,0,0,1-2.8-2.6l-3.2-2.5a84.3,84.3,0,0,1-9.8-1.4,71.4,71.4,0,0,1-13.5-4.6l-2.1-.8a68.6,68.6,0,0,1-6.5-3.5,33.9,33.9,0,0,1-3.9-3l-3.3-2.4-1.6-1.5c-.5-.5-1.7-.9-2.2-1.4a54.9,54.9,0,0,1-7.9-8.4s-.1-.7.5-.4c3.4,1.7,7.6,4,11.5,5.6,1.7.7,3.7,1.3,5.4,1.9,4.5,1.6,8.8,2.9,13.5,4.2s8.6,1.9,12.7,2.7c.6.1.9.5,2.2.8l6.2,1.3c1.1.1.8-1.5.5-1.8A41.5,41.5,0,0,1,61.4,162l-1.2-.5a92.4,92.4,0,0,1-14.5-7.8l-2.9-2.1a171.9,171.9,0,0,1-14.7-12C18.8,131.5,7.2,119.7.8,108.2c-.1-.1-.1-.5.3-.1a117.6,117.6,0,0,0,9.7,9.2c2.4,2,5.3,3.8,7.7,5.6,4.5,3.2,8.3,5.9,13.4,9.1l13.7,8.3,2.7,1.5,4.5,2.6c5.5,3.1,11.3,6.4,16.3,9,.6.3,1.9-.2,1.5-1s-1.8-1.1-2.7-1.9a36.9,36.9,0,0,1-7.8-9.1c-.3-.5-.3-1-.6-1.4s-2.1-3.2-2.2-3.4l-1.2-1.5-2.2-1.3c-2-.3-1.4-3.3-2.1-4.9a8.6,8.6,0,0,0-1.3-1.8l-.6.9a14.1,14.1,0,0,1-1.5,2.3c-.5.4-.5-.3-.9-.6s-1.1-.3-1.7-.7c-4.5-4.2-9.3-8.1-13.7-12.4-2.4-2.3-4.9-5.2-7.3-7.7l-3.2-3.3c-.9-1-1.6-2.3-2.5-3.3s-2.3-2.4-3.5-3.8c-2.4-2.9-4.4-6.1-6.2-8.9S3.6,80.9,2.6,78.5c-.1-.3-.3-.8.2-.3,4.4,4.2,8.4,8.7,12.7,12.5l3.1,3c.8.7,2.4,1.4,3.3,2.2,10.3,8.7,20.2,17.1,31.5,24.4l12.9,8c.7.5,1.5-.6,1.2-.9a15.4,15.4,0,0,1-2.6-4.6l-1-.9c-3.9-3.5-8.6-8.4-12.3-12.2-1.2-1.2-2.6-2.3-3.8-3.6A144.6,144.6,0,0,1,27.4,78.8a118.6,118.6,0,0,1-5.7-11.5c-.1-.3.1-.5.3-.2s1.8,2.5,2.8,3.6S26.3,72.2,27,73l2.5,3.3c.4.6,1,1.2,1.5,1.7s1.7,2.2,2.6,3.2a43,43,0,0,1,3.7,3.9,68.4,68.4,0,0,0,5.5,6.5c.6.6,2,1.3,2.6,1.9,3.5,3.5,7.2,6.9,10.8,10.4l2.9,2.4,2.8,2.1,3.6,2.9,2.2,1.7,1.5.9,1.8,1.3.9.5c.4.1.9-.4-.6-2.6a71,71,0,0,0,6.3,5.5c6.2,4.6,13.5,8.8,20.4,12.9,1.8,1,2.8,2.1,4.6,3.1s1.7.6,2,.4a.9.9,0,0,0,0-1.2c-.6-.8-1.5-1.5-2.2-2.3l-1.4-1.8c-1.3-1.4-2.7-3.1-3.9-4.6-4.4-5.9-7.2-11.7-7.2-13.8a57.9,57.9,0,0,0,9.3,9.8,132.1,132.1,0,0,0,15.6,11.4c6.4,4,13.2,7.7,20.3,13,11.5,8.6,20.7,18.9,25.8,31.2,1.5,3.6,2.2,8.6,1,12.4a9.8,9.8,0,0,1-.9,2C159.7,192.9,159.2,193.1,159.2,195.2Z" transform="translate(0 -66.3)" fill="#fff" fill-rule="evenodd"/><path d="M147.7,225a242.8,242.8,0,0,1-12.9,24h2.1c5.2-1.8,8.8-5.2,11.9-9.8-3.5,3.3-6.5,5.8-10.7,7.3a94.4,94.4,0,0,0,10.7-22.1Z" transform="translate(0 -66.3)" fill="#495050" fill-rule="evenodd"/><path d="M129.7,243.7c1.7-1.9,3.7-3.9,5.4-5.8a16.8,16.8,0,0,0,5.4-.7l-.6,1.4a37.2,37.2,0,0,1-4.9.4A34.4,34.4,0,0,1,129.7,243.7Z" transform="translate(0 -66.3)" fill="#495050" fill-rule="evenodd"/><path d="M145.4,249.2a12.7,12.7,0,0,1-4.2,3c5.1-.3,8.8-2.6,12.2-5.4-.1-.3-.1-.7-.2-1C150.4,247.7,149.5,248.4,145.4,249.2Z" transform="translate(0 -66.3)" fill="#495050" fill-rule="evenodd"/><path d="M158.9,258.1a26,26,0,0,1-7.1,2.7,15.2,15.2,0,0,0,8-1.1Z" transform="translate(0 -66.3)" fill="#495050" fill-rule="evenodd"/><path d="M163.1,211.8c-3.1-5.2-6.2-12.9-5.2-18.4.9-3.3,1.5-3,2.4-5.7a15.2,15.2,0,0,0-.8-10.5c-1.8-4.4-5.7-9.2-9.3-13.6s-4.8-5.8-6.9-8.6c3.2,3,6.6,6.9,10.5,11.2a56,56,0,0,0-6.3-8.1,102.4,102.4,0,0,0-13.3-11.6c-6.2-4.6-13.5-8.8-20.3-13.5,3.7,3.1,4.5,3.5,11,8.4a102.3,102.3,0,0,1-13.9-9.5c-3.9-3-8.6-6.9-14.3-12,.7,1,1.7,2.3,2.8,3.7a18.3,18.3,0,0,1-3.1-2.5v-.7a72.1,72.1,0,0,1-4.8-5.7c1.7,2.9,3,4.2,4.2,6l-.2.3-.6-.6a98.7,98.7,0,0,0,12.3,14.6,4.3,4.3,0,0,1-1.9,2.3,23.3,23.3,0,0,1-4.3-2.5,22.7,22.7,0,0,0,2.9,3.1c-3.6-2.3-5.1-4.1-5.3-4.5a200.2,200.2,0,0,1-17.8-11.4c1.3,1.3,2.7,2.6,3.9,3.6-2.8-1.5-1.8-.8-7.6-5.1-1.7-1.2-3.7-2.3-5.5-3.4l-4.7-3-2.2-1.4c-4.7-4.5-6.3-5-9.4-8s-8.2-7.4-11.7-11.1c-6.5-6.9-7.2-7.7-9.3-10.4a101,101,0,0,0,6.6,8.8,10.6,10.6,0,0,1-2.9-2.3c-.6-.6-.3-1.2-1.3-2.8s-2.4-2.3-3.5-3.7c-3.6-4.5-7.9-10.7-8.4-11.4,1.2,2.2,6.6,10.3,7.8,12.1,5,7.8,9.6,13.2,17.5,22.1,1.4,0,2.1.8,1.9,2.1,4.1,4.4,8.5,8.4,12.9,12.2l.8-1.4c.3,3.3,1.7,5.3,3.2,7.7.7.9-.2,1.8-1.7,3-4.9-2.6-10-5.7-14.5-8.6-13.6-8.8-25.5-18.7-37.7-29.9l4.6,4.8c-.2.3-.7.1-1.4-.4a54.8,54.8,0,0,1-4.1-4.4c-2.2-2.4-7.2-7.6-9-10.1A45.1,45.1,0,0,0,9,86.9a11.4,11.4,0,0,1,1.9,2.3L8.9,87.2c5.7,9.2,14.5,18.9,23.4,27.3.3.3.4.8.7,1.1,4.4,4.2,9.4,8.4,13.7,12.3.3.3.8.1,1.4-.4s.4-.2.6-.4a6.5,6.5,0,0,0,.8-2.7,2.7,2.7,0,0,0,.7,1.2,8.1,8.1,0,0,1,2.4,2.8,14.5,14.5,0,0,1,.8,3.3c.1.4.4.4.7.2s.4-.6.7-.6-.1,1.2.3,1.5,3.5,1.9,5.2,2.9H58.3a70.3,70.3,0,0,0,14.4,16.5c.4.7-.6,4.2-2.5,3.3-5.8-2.8-14.7-7.6-22.8-12.3-.4-.2-.5,0-.8-.2l-2-1.5c-8.9-5.5-19.7-12.1-28.7-19l1.6,1.5a26.7,26.7,0,0,1-4.8-3.4,83.7,83.7,0,0,1-7.3-6.9,42.2,42.2,0,0,0,5.4,5.9c1,.9,3.2,3,2.1,2.4l-1.1-.9c4.2,4.6,7,7.9,10.7,11.1.4.3,1,.5,1.3.8s0,.7.4,1l2.9,2.6c.4.3.9.3,1.7,1s.1.8.4,1a187.5,187.5,0,0,0,15.2,11.9l2.6,1.8,4,2.5c.2-1.2,1-.5,1.1.6a71.7,71.7,0,0,0,8.9,4.8c.5-.1,1,.2,1.5.6a43.3,43.3,0,0,0,5.4,7,4.3,4.3,0,0,1,.6.7l1.7,1.7.8.7c1,1,2.1,1.7,3.1,2.5a2.3,2.3,0,0,1-1.2,3.7c-5.3-.9-13-2.3-17.4-3.3-1.4-.3-1.4-.9-2.8-1.2a169.2,169.2,0,0,1-27.6-10,72.5,72.5,0,0,0,7.5,4.6c-3.6-.9-7.8-4.1-11-6.7a24,24,0,0,0,3.8,3.6c1.7,1.3,2.8,1.8,4.5,3.3L27,165.8a75.7,75.7,0,0,0,18.6,12.5c.5.2,1.2,0,1.6.2,7.7,4.4,13.7,5.3,21.1,6.3.3-.2.8-.6,1.3-.5s4.4,4,6.9,5.5a4.9,4.9,0,0,1,.1-1.1,51.4,51.4,0,0,0,6.1,5.7c1,.5,6.4,3.1,7.6,3.8l1-1.2a1.4,1.4,0,0,1,1.5-.1l2.5,2.4c.5-1.3,1.6-.7.9.5l.9.9c-.3,1.8-.2,2.4-2.3,2.4-6.5-.3-11.8-.7-17.9-1.4a159.4,159.4,0,0,1-24.7-4.9c.5.4.4.6.1.5a48.2,48.2,0,0,1-6.3-3.1,24.5,24.5,0,0,0,4.9,3c1.2.5,2.5.8,3.6,1.3a3.9,3.9,0,0,1,1.4,1.2l-2.8-1c21.9,13,38.1,13.1,41.7,13.1.1-.4,1.5-.6,2.1-.4s4.4,3.2,6.9,4.6c1,.2,1.4.5,1.7.5a40.5,40.5,0,0,0,6,3.2c.9,2.1-.2,3.9-1.5,3.9H93.1c-5.5,0-13.6.5-20.1.1a27.5,27.5,0,0,1-4.8-.8c.8.6,3.9,1.2,6.6,1.7s3.3.7,3.8,1.8l-5.1-1c8.8,3.2,14.6,5.2,21.8,6.5a62.7,62.7,0,0,0,15.5,1.1c1.2.2.9,2.7.3,3.6a38.6,38.6,0,0,1-14.6,6.3,22,22,0,0,1-3.9-.1,41.7,41.7,0,0,0,7.3,1.3,4.4,4.4,0,0,1,1.7.4l-2.3.6a70.4,70.4,0,0,0,14.2.8c.3,0,.7-.4,1-.4s.7.3,1,.3a26.1,26.1,0,0,0,5.4-.9c1.7.1,2.5,2.8,1.1,4.1a100.2,100.2,0,0,1-11.4,9.3l1-.3a25.5,25.5,0,0,1-4.5,2.4c2.3-.5,3.8-.9,7.7-2.1l-2.1,1c2.7-.3,6.9-.6,10.4-1.8.9-.4,2.1-1.8,2.7-2.3a10.3,10.3,0,0,0-.7,1.7,34.6,34.6,0,0,0,8.5-3.5c1.7-1.2,4.1.9,3.3,3.5a102.5,102.5,0,0,1-7.1,8,43.6,43.6,0,0,1-5.8,4.6c2.3-.6,5.7-3.5,7.9-2.6l-3.6,2a57,57,0,0,0,12.5-4.5,6.3,6.3,0,0,0,1.3-1.7c0,.3.1.7.4.8l4.3-2.5c.6.5,1.5,1.3,1.7,1.8a42.4,42.4,0,0,1-5.2,8.3l.7-.3a14,14,0,0,1-2.6,2.5c1.5-.4,2.9-2.1,4-1.4l-.7.5a51.8,51.8,0,0,0,9.9-3.7c.3-.2.8-1.2,1.1-1.3s-.3.9.4.5l2-1.2c.7-.3,1.9,1.1,1.9,3.1a44.3,44.3,0,0,1-3.5,6.6l.5-.3a9.8,9.8,0,0,1-2,2.2c1.1-.3,3.6-3.2,4.3-1.9l-1.4,1.2a54.4,54.4,0,0,0,11.6-6c1.6-27.5,5-38.2,4.9-48.9C170.1,220.3,165.7,216.7,163.1,211.8Z" transform="translate(0 -66.3)" fill="#495050" fill-rule="evenodd"/><path d="M150,225.4a13.7,13.7,0,0,0,4-3.4l.8.4C152.8,224.7,151.4,225.2,150,225.4Z" transform="translate(0 -66.3)" fill-rule="evenodd"/><path d="M151.8,208.1a5.7,5.7,0,0,0,.2,5.3c1.4,2.2,3.7,3.5,6.9,4.4C154.9,215.6,152,212.9,151.8,208.1Z" transform="translate(0 -66.3)" fill-rule="evenodd"/><path d="M145.7,188c-2.6,1.9-3.2,3.5-3.4,5.6-.4,4,2.8,9.9,8.1,12.6-3.5-2.8-6.1-6.9-6.6-9.9a7,7,0,0,1,2.8-7.6l1.4,1.2.7-.3a18.9,18.9,0,0,1-5.1-6.4c-1.2-3.1-.6-5.4,1.2-8.1a5.9,5.9,0,0,0-2.9,3.9,9.3,9.3,0,0,1-4.8-8.4c-2-.6-4.2-2.6-6-5.2.5,2,1.9,4.2,5.4,6-.4,4.6,2.5,7.2,5.3,8.9C141.8,182.8,143.4,185.6,145.7,188Z" transform="translate(0 -66.3)" fill-rule="evenodd"/><path d="M126.3,149.3c1.4,3.4,2.4,6.7,6.9,8.5-.3,3.9,2.5,6.3,5.8,7,1.2-.8,1.3.1.5,1-.4,3.4,2.3,5.6,4.6,7.7-2.4-1.2-5.2-2.3-6-7.8-3.8-1.2-5.8-3.3-6.1-6.9C127.2,155.7,126.6,152.4,126.3,149.3Z" transform="translate(0 -66.3)" fill-rule="evenodd"/><path d="M158.9,258.1a26,26,0,0,1-7.1,2.7,15.2,15.2,0,0,0,8-1.1Z" transform="translate(0 -66.3)" fill-rule="evenodd"/><path d="M145.4,249.2a12.7,12.7,0,0,1-4.2,3c5.1-.3,8.8-2.6,12.2-5.4-.1-.3-.1-.7-.2-1C150.4,247.7,149.5,248.4,145.4,249.2Z" transform="translate(0 -66.3)" fill-rule="evenodd"/><path d="M129.7,243.7c1.7-1.9,3.7-3.9,5.4-5.8a16.8,16.8,0,0,0,5.4-.7l-.6,1.4a37.2,37.2,0,0,1-4.9.4A34.4,34.4,0,0,1,129.7,243.7Z" transform="translate(0 -66.3)" fill-rule="evenodd"/><path d="M134.4,237.3A170.3,170.3,0,0,1,122,249.4a100.2,100.2,0,0,1-11.4,9.3l2.1-.6a109.7,109.7,0,0,0,14.6-7,58.7,58.7,0,0,1-12.4,7.5l-2.1,1.1c2.7-.3,6.9-.6,10.4-1.8.9-.4,2.1-1.8,2.7-2.3a10.3,10.3,0,0,0-.7,1.7,34.6,34.6,0,0,0,8.5-3.5c2.2-1.2,4.8-2.5,8-4.5a23.9,23.9,0,0,1-6.9-.2c2.7-4.5,5.3-9,7.6-13.4A19.2,19.2,0,0,1,134.4,237.3Z" transform="translate(0 -66.3)" fill-rule="evenodd"/><path d="M118.7,233.3c-1.9.8-4.6.9-5,1.2a30.3,30.3,0,0,1-2.8,2.4,38.6,38.6,0,0,1-14.6,6.3c4.7.5,15.4-.4,20.8-2.4-4.4,3.5-17.2,4.5-17.8,4.6a68.6,68.6,0,0,0,14,.8c.3,0,.7-.4,1-.4s.7.3,1,.3a26.1,26.1,0,0,0,5.4-.9c1.1,0,2.3-.5,3.9-.7,2.4-2.3,5.1-4.9,7.5-7.3l-4.1-.3A23.1,23.1,0,0,1,118.7,233.3Z" transform="translate(0 -66.3)" fill-rule="evenodd"/><path d="M147.4,225.7c-6.6,2.7-16.8,3.4-25.4-1a2.6,2.6,0,0,1,1-1.3c-5.7.4-12.3.3-13,.4h-9.5c-1.1,0,3.4,1,7.3,1.7-5.6.1-13-1.7-14.8-1.7H72.5c2.3.9,12.7,3.4,29.2,4.9-11.3,1.1-25.1-2.7-28.2-3.1,8.8,3.2,14.6,5.2,21.8,6.5a62.7,62.7,0,0,0,15.5,1.1,45.5,45.5,0,0,0,6.8-.9,8.9,8.9,0,0,1-1.9-2.2,21.4,21.4,0,0,0,9.1,4.4q.6-.9.8.2a42.2,42.2,0,0,0,17.7-.4C144.6,231.4,146.1,228.5,147.4,225.7Z" transform="translate(0 -66.3)" fill-rule="evenodd"/><path d="M114.7,235.4a7.5,7.5,0,0,0,4.2-.3A17.5,17.5,0,0,0,129,238a31,31,0,0,1-10.3-3.9A11.9,11.9,0,0,1,114.7,235.4Z" transform="translate(0 -66.3)" fill-rule="evenodd"/><path d="M123,225.9a28.6,28.6,0,0,0,21.8,1.9,14.6,14.6,0,0,1-10.5,3.1C130.2,230.6,125.1,228.3,123,225.9Z" transform="translate(0 -66.3)" fill-rule="evenodd"/><path d="M100.1,204.1c2.4,2.3,8.2,4.4,13.3,4.7,5.1,4.1,14.2,6.4,25.1,5.3-5.1,2.9-13.4,3.3-25.7-3.7C105,208.6,101.7,206.5,100.1,204.1Z" transform="translate(0 -66.3)" fill-rule="evenodd"/><path d="M102.6,190.5c7.5,6.2,16.5,9.6,26.9,12.1-8.8-1-18.1-3.3-27.2-10.6a53.6,53.6,0,0,1-25.2-13C86.8,185.1,94.4,188.5,102.6,190.5Z" transform="translate(0 -66.3)" fill-rule="evenodd"/><path d="M112.5,207.9a37.8,37.8,0,0,1-12.4-4.5l-5.2-.2c-6.5-.3-11.8-.7-17.9-1.4a159.4,159.4,0,0,1-24.7-4.9c10,5.4,22.1,7.3,27,8.9-11.5-1.2-19.2-4.9-26.1-6.9,21.9,13,38.1,13.1,41.7,13.1.3,0-1.5-2.5-1.5-3.6,1.3,1,3,3.1,3.6,3.2s4.4,3.2,6.9,4.6c.2.1-2.8-3.4-3.7-4.8a40.1,40.1,0,0,1,5.5,5.3,49.4,49.4,0,0,0,6,3.2c1.8.9.6-1.2,1.4-1s.3,1.6.6,1.7l4.8,1.5c2.7.5,6.3,0,8.5.2s10.9-6.2,14.9-9.1C129.9,214.4,120.1,211,112.5,207.9Z" transform="translate(0 -66.3)" fill-rule="evenodd"/><path d="M102,189.5H102c-15.2-4.6-19.2-8.4-26-12a19.1,19.1,0,0,0-3.3-.4c-5.3-.9-13-2.3-17.4-3.3-1.4-.3-1.4-.9-2.8-1.2a169.2,169.2,0,0,1-27.6-10c7.4,5.3,16.5,9.8,30.2,14.3-11.6-2.4-21-7-28.2-11a75.7,75.7,0,0,0,18.6,12.5c.5.2,1.2,0,1.6.2,7.7,4.4,13.7,5.3,21.1,6.3l-.3-2,1.6,1.6c1.8,1.4,4.4,4,6.9,5.5v-1.1a51.4,51.4,0,0,0,6.1,5.7c1,.5,6.4,3.1,7.6,3.8l1-1.2c.5-.7.6-4.3.8-4.6s.4.2.6.4-.1,3.5.2,4.1l2.5,2.4c.5-1.3,1.6-.7.9.5l.9.9a42.7,42.7,0,0,0,6.1,3,40.3,40.3,0,0,0,6.4,2.3l1,.2c8.1,0,17-2.2,23.8-3.8C121.9,200.7,113.1,196.9,102,189.5Z" transform="translate(0 -66.3)" fill-rule="evenodd"/><path d="M89.1,170.2a78.5,78.5,0,0,0,16,12.2,69.1,69.1,0,0,0,17.4,7.1c-5.9-.2-13.4-2.8-19.3-6.2S92.2,175.3,89.1,170.2Z" transform="translate(0 -66.3)" fill-rule="evenodd"/><path d="M78,147a65.2,65.2,0,0,0,11.8,13.5,87.8,87.8,0,0,0,14.8,10.2A49.2,49.2,0,0,1,90.1,163C84.8,158.9,80.3,153.8,78,147Z" transform="translate(0 -66.3)" fill-rule="evenodd"/><path d="M79.1,160.7a141.5,141.5,0,0,0,14.5,8.4,27.5,27.5,0,0,1-7.9-2.8A23.3,23.3,0,0,1,79.1,160.7Z" transform="translate(0 -66.3)" fill-rule="evenodd"/><path d="M111,162.2c-21.7-12.9-33.4-26.9-35.2-31.8,3,2.2,6.5,4.4,11.2,7.4a144.6,144.6,0,0,0,14.6,7.8c-13.9-9.7-24-24.4-24.6-25s-3.7-2.3-5.5-3.4l-4.7-3-2.2-1.4c-4.7-4.5-6.3-5-9.4-8s-8.2-7.4-11.7-11.1c-6.5-6.9-7.2-7.7-9.3-10.4,3.6,5.7,15.4,19.4,22.4,25.3-5.8-3.9-19.6-19-27.7-30.6C35.5,89.8,40.2,95.3,50,106.4c1.4,0,2.1.8,1.9,2.1,4.1,4.4,8.5,8.4,12.9,12.2l.8-1.4c.3,3.3,1.7,5.3,3.2,7.7,5.4,7,7.9,9.9,17.5,18.6-10.6-6.3-14.7-13.4-16-14A22.5,22.5,0,0,1,67,130c-4.9-2.6-10-5.7-14.5-8.6-13.6-8.8-25.5-18.7-37.7-29.9,6,6.5,19.6,19.9,36,30.7-17-9.9-34.2-26.5-41.8-35.1,5.6,9.1,14.3,18.6,23,26.9.1.1,2-1.7,2.2-1.7s0,.6.1,1.4.9,1.6.7,1.6-1.6-1.3-2.1-1.3-.3.6-.3.7a2.3,2.3,0,0,0,.4.7c4.4,4.2,9.4,8.4,13.7,12.3.3.3.8.1,1.4-.4s.4-.2.6-.4a6.5,6.5,0,0,0,.8-2.7,2.7,2.7,0,0,0,.7,1.2,8.1,8.1,0,0,1,2.4,2.8,14.5,14.5,0,0,1,.8,3.3c.1.4.4.4.7.2s.4-.6.7-.6-.1,1.2.3,1.5,3.5,1.9,5.2,2.9H58.3a74,74,0,0,0,10.9,13.4,4,4,0,0,0,1.1-1.4c-.2,1.4-.3,2.2-.1,2.4l2.5,2.2c12.2,10.4,18,13.1,25.1,17.5-9.4-3.8-12.4-6.6-18.2-9.8a92.5,92.5,0,0,0-9.3-4.4c-5.8-2.8-14.7-7.6-22.8-12.3-.4-.2-.5,0-.8-.2l-2-1.5c-8.9-5.5-19.7-12.1-28.7-19,7.3,6.8,37.6,27.7,49.2,32.5-19-6.5-39.3-22.8-53.5-34,4.2,4.6,7,7.9,10.7,11.1.4.3,1,.5,1.3.8s0,.7.4,1l2.9,2.6c.4.3,1,.2,1.7,1,4.6,3,5.6,2.9,7.2,4.1a11.4,11.4,0,0,0,2.3,2.9l-4.4-2.9c-1.6-1.1-3.6-2.8-4.7-3.1a187.5,187.5,0,0,0,15.2,11.9l2.6,1.8,4,2.5c.3-.4,0-1.1-.6-1.4s-.5-1-.2-1.6.9-.1.8.3-.3.6-.2.8,1.2,1.6,1.3,2.5a71.7,71.7,0,0,0,8.9,4.8,5.4,5.4,0,0,1,.6-3,12.1,12.1,0,0,0,.9,3.5,43.3,43.3,0,0,0,5.4,7,3.1,3.1,0,0,0,.7-.8,5.7,5.7,0,0,1-.1,1.5l1.7,1.7.6-.4c0,.1,0,.6.1,1.1s2.1,1.7,3.1,2.5a22,22,0,0,0,3.9,3.1c-.1-.9-.4-1.9-.5-2.6-6.5-5.4-10.8-9.6-12.6-13.6,8.5,11.3,17.9,15.7,30.3,23.3a110.8,110.8,0,0,1-16.9-9.4,24.8,24.8,0,0,0,.9,3.1,95.2,95.2,0,0,0,24.8,11.5l1,.3a165.8,165.8,0,0,0,23.8,1.7c-11.4-2.7-26.5-8.6-39.3-21.5,6.9,1.8,15.2,3.7,23.5,5.2-9.5-5.1-27.1-14.5-34.4-28A236.9,236.9,0,0,0,111,162.2Z" transform="translate(0 -66.3)" fill-rule="evenodd"/><path d="M71.6,118.2l5.2,3.2c4.6,6.8,11.3,13.9,18.3,20.2-6.9-4.4-13.8-11.8-19.1-19.8Z" transform="translate(0 -66.3)" fill-rule="evenodd"/><path d="M133.2,148.8a105.6,105.6,0,0,1,11.5,14.4,69.6,69.6,0,0,1,4.1,7.4,44.3,44.3,0,0,1,2.9,7.8,5.9,5.9,0,0,0-5.4,1.8,12.7,12.7,0,0,1,5.5-.7h.1a78.7,78.7,0,0,1,1.4,8.4,14,14,0,0,0,.2-6q-.2-1.1-.4-2.2a21.2,21.2,0,0,1,5.6,2.6,13.2,13.2,0,0,0-5.9-3.8,41.8,41.8,0,0,0-3.8-10.1C145.1,160.9,140.6,155.5,133.2,148.8Z" transform="translate(0 -66.3)" fill-rule="evenodd"/><path d="M174.8,223.1c-5.4-3.4-14.9-10.6-18.8-19.9a76.3,76.3,0,0,0,7.1,8.6c-3.1-5.2-6.2-12.9-5.2-18.4l-1.7.3a13.1,13.1,0,0,0,4.1-6,15.2,15.2,0,0,0-.8-10.5c-1.8-4.4-5.7-9.2-9.3-13.6s-4.8-5.8-6.9-8.6c3.2,3,6.6,6.9,10.5,11.2a56,56,0,0,0-6.3-8.1,102.4,102.4,0,0,0-13.3-11.6c-6.2-4.6-13.5-8.8-20.3-13.5,3.7,3.1,4.5,3.5,11,8.4a102.3,102.3,0,0,1-13.9-9.5c-3.9-3-8.6-6.9-14.3-12,2.7,4.1,10.5,12.3,13,14.9-2-1.3-9.7-9-14.6-14.4a100.7,100.7,0,0,0,13.2,15.6,154.5,154.5,0,0,0,13.5,11.5c-3.5-1.7-7.8-4.4-10.1-7-5.2-2.5-8.9-4.3-10.6-5.6a22.7,22.7,0,0,0,2.9,3.1c-3.6-2.3-5.1-4.1-5.3-4.5a200.2,200.2,0,0,1-17.8-11.4c7.1,7.3,15.3,13.4,24.1,19.7a122.4,122.4,0,0,1-25.1-19.1c1.6,2.8,13.8,15.6,26.3,24.8.6.6,6.6,3.4,17.5,7.7-8.2-1.8-17.4-6.4-23.8-9.3-.7-.3-12.9-6.8-16.3-8.8,2.9,3,5.6,5.6,21,16.3-9.5-4.5-16.4-10.6-22.2-15.7,6.4,8.7,25.4,22.1,33.3,26,3.3,1.4,8.5,2.9,13.8,4.6-5-.6-12-2.7-17.8-4.7-1.6-.6-3.3-1.3-4.7-1.9a149.5,149.5,0,0,1-20.3-9.4c7.9,6.4,17.9,12.1,29.4,17.3a133.4,133.4,0,0,1-30.5-16c8.1,8,18.8,15.1,31.1,21.5,6.9,1.3,13.6,2.3,19.1,3-7.9.8-35.2-4.9-39-6.2,9,4.8,14.9,6.9,27.2,9.8-11.8-1.7-19.3-4.5-28.4-8.6,10.2,8.8,24.2,15.2,41.1,17.9h-1.5l1.7.2c-6.8,1.5-17.5.5-27-.2a117.9,117.9,0,0,0,16.8,3.9,56,56,0,0,1-17.2-2.7c12.8,6.8,21.8,8.7,32.2,9.7l-4.4,1-4.5,1.4c-6.1,1.8-11.9,3-16.4,2.9a57.4,57.4,0,0,0,13.9.9c-3.1,1.3-7.1,1.5-11.5.9a58.3,58.3,0,0,0,27.8,2.4,54.8,54.8,0,0,1-5.9,3.9c-.6.4-.5,1.4,3.3.7-.7,1-2.9,1.1-6.5,1.2-5.2,3.1-8.5,5.2-10.5,6.3a71.7,71.7,0,0,0,16.6-3.5c-4.9,2.3-7.5,3.9-15.1,5.4a39.3,39.3,0,0,0,13.5.1c-.4-1.2,1.8-2.3,3.6-3.4-1.4,1.5-2.6,2.2-2.3,3.2a30.4,30.4,0,0,0,10.1-4.1,11.8,11.8,0,0,1-4.9,3.8A94.4,94.4,0,0,1,138,246.7c4.2-1.6,7.2-4,10.7-7.3a24.5,24.5,0,0,1-8.7,8.4c2-.1,5.4-.6,12-3.6l.2,1.1c-3.6,2.6-5.3,2.7-7.6,3.4s-2.5,2-4.5,3.3a35.9,35.9,0,0,1-3.1,5.2c-3.2,3.8-6.7,8-10.3,11a118.8,118.8,0,0,0,14.2-7.8,61.3,61.3,0,0,1-12.4,8.8,57,57,0,0,0,12.5-4.5,6.3,6.3,0,0,0,1.3-1.7c0,.3.1.7.4.8l4.3-2.5,2.3-1.7c1.3-3.1,2.4-5.5,4.5-11.3l.9,1.9c-.9,2.1-1.7,4.3-2.7,6.5a18.9,18.9,0,0,0,4-3.9l.5,1c-.8,1.3-2.1,2.5-3,3.8a21.1,21.1,0,0,0,3.9-2.1l.7,1.4a21.5,21.5,0,0,1-7.7,3.1c-.4,1-1.1,2.1-1.6,3.2a42.4,42.4,0,0,1-5.2,8.3l.7-.3a50.4,50.4,0,0,0,8.4-5.6c-1.2,2.1-4,4.6-6.9,6.7l-.7.5a51.8,51.8,0,0,0,9.9-3.7c.3-.2.8-1.2,1.1-1.3s-.3.9.4.5l2-1.2c.2-.1,1.9-1.1,4.2-2.8a55.2,55.2,0,0,1-2.3,5.9,45.3,45.3,0,0,1-3.5,6.7c2.6-1.6,5-3.2,7.4-5-1.5,2.2-2.6,2.8-4.6,4.8l-1.5,1.2a54.4,54.4,0,0,0,11.6-6C170.8,256.5,173.9,238.6,174.8,223.1Z" transform="translate(0 -66.3)" fill-rule="evenodd"/><path d="M329.6,355.5v5.3h4.2l-1.2,1.7c-16.7,24-33.7,47.8-51,71.4l-.3.5h-2.6l-.3-.4q-26.6-35.5-52.5-71.5l-1.3-1.7h5.7v-5.3h-9.3l-.3-.5c-8.6-11.9-16.7-24.1-24.7-36.4s-15-22.6-22.2-34c-3.3-5.2-6.5-10.4-9.6-15.6s-5.5-9.6-8.1-14.5a136.1,136.1,0,0,1-6.2-13.8,86.5,86.5,0,0,1-3.7-11.9l-.2-1.1,1.1-.2c35.1-7.2,70.4-13.9,105.8-19h.1l62.5,1.6h.1c16.6,2.5,33.2,5.1,49.8,8.2s30,5.9,45.1,8.9a8.4,8.4,0,0,0,2.6.3l1.4-.2v1.4c-.3,4.5-2.7,9.6-4.6,13.7s-3.3,6.5-5,9.7-3.9,7-5.9,10.4-5.1,8.6-7.8,12.7-4.7,7.1-7.2,10.5c-6.4,8.8-12.2,18-17.9,27.3q-2.8,4.6-5.7,9.1c-7.3,11.1-15.1,21.9-22.4,33.1l-.3.5Z" transform="translate(0 -66.3)" fill="#fff" fill-rule="evenodd"/><path d="M198.5,322.3l-1.9-2.9c27.9-8.3,58.8-11.7,89.5-11,24.5.5,49.9,2.9,76.3,10.6L361,321c-25.1-7-49.3-9.2-72.7-9.7C257.6,310.7,226.5,314,198.5,322.3Z" transform="translate(0 -66.3)" fill="#6d7170" fill-rule="evenodd"/><path d="M147.4,228.5c38.8-8,73.1-14.3,105.8-19l62.4,1.6q25.6,3.8,49.7,8.2c15.3,2.8,30,5.9,45,8.9a9.1,9.1,0,0,0,3,.3c-.3,3.8-2.2,8.4-4.5,13.3A332.7,332.7,0,0,1,383,285c-6.6,9-12.2,17.9-17.9,27.4C356.2,327,345.8,341,337,354.4h-8.5v7.5h3.2c-16.7,24.1-33.8,47.9-50.9,71.4h-1.5q-26.7-35.7-52.4-71.5h4.7v-7.5h-9.8c-8.4-11.6-16.7-24.2-24.6-36.4s-15.3-23.1-22.2-34-12.8-20.8-17.6-30.1S149,235.4,147.4,228.5Z" transform="translate(0 -66.3)" fill-rule="evenodd"/><path d="M248.9,212.6l4.7-9.6-4.9,3.5,5.5-8.5-3.4,3.3,4.9-11.6-.4-.2-3.3,3.8,3.4-8-.9.2-3.5,4.4c.6-2.2,1.3-4.6,2.3-7l-1.7,1.4,3.5-5.9-4,2.5c-.1,0-.4.1-.1-.3,2.4-3,5.4-5.9,8.3-8.8l-.2-.3-2.6.7,3.4-4.4v-.3c-2,1.4-4.1,3.1-6.1,4.8a87.1,87.1,0,0,1,6.1-6.3l-2.8.6a53.7,53.7,0,0,1,5.5-4.5c.2-.2.1-.5-.2-.3l-3.2,1.3a29.1,29.1,0,0,1,5.4-4.8l-1.4-.4c3-1.5,6.4-2.8,10.1-4.3.1,0,.1-.4-.1-.4l-3-.6a45.9,45.9,0,0,1,8.8-2l-1.1-1.8h4.6l2.3-.2a85,85,0,0,1,9.8.3l-1.7-1.4c-.1-.1,0-.2.1-.2,4.8.8,7.5,2.4,8.5,3.4a17.1,17.1,0,0,1,5.5,1.2,22.5,22.5,0,0,1,3.7,1.9c2.6,1.7,6.9,3.9,7.2,5.6a6.5,6.5,0,0,1,3,2.5c1.1,1.4,2.6,3.3,3.1,9.7l1.7,2.5a9.8,9.8,0,0,1,5.6,5.3,11,11,0,0,1,1.4,5,74.7,74.7,0,0,1-1.8,11.9c-1-3.4-1.4-4.9-2.4-5a6.6,6.6,0,0,1-6.3-4.2h-8.7a15.4,15.4,0,0,0-3.1,6.2,40.8,40.8,0,0,1,4,5.2,19.7,19.7,0,0,1,3,4.9c.5,1.4,1.5,3.6,1.9,5.1s5,5.6,7.5,8.4l-9.3,23-51.6-.2Z" transform="translate(0 -66.3)" fill-rule="evenodd"/><path d="M265.7,183c.1-.1.3.5.1.6a18.7,18.7,0,0,0-3.4,2.7,93.7,93.7,0,0,0-5.1,7.9c-.1.2.1.3.3.3l2.1-.2-5.9,6.3c-.1.1.1.5.3.4l4.5-3.3c.3-.2.3-.1.2,0-1,2.1-2.4,4.8-3,5.9l-5.1,7.6.4.7,5-4.5-2.4,5.8a.2.2,0,0,0,.3.2l2.2-2.5,2.8-4.7-1.8,4a.5.5,0,0,0,.7.5l3-2.7,4-4.6-2.7,4.3c-.1.1,0,.5.4.3l3.6-2.2c.2-.1.2.1.1.2l-2.2,1.7.6.3-2.8,3.3a3.3,3.3,0,0,0-.7,1.4l-1.1,3.2c-.1.3.1.6.4.4l2.4-1.6,2.3-3.5v4.4c0,.3.9.3,1,0l2-8.6c0,1.5.9,1.9,1.1,0l1.2,11.3c0,.3.5.5.7.1l2.8-4.4v1.7c0,.2.5.4.8.1l4.8-5.3c.2-.3.5-.2.4.1a24.5,24.5,0,0,1-4.5,8.7c-.2.2-.4.9.3.9l1.4-.3-2.4,4.1c-.4.7.2,1,.5.6l1.7-1.9a14.8,14.8,0,0,0-.4,4.1c2.7-3.7,5-4.7,7.2-7.4s2.6-4.5,4-6.4c.2-.2.4-.1.3.2a45,45,0,0,1-1.3,4.6c-.2.5.3.5.4.3l2.8-3.1V216c.5,0,.7-.6,1-1.5a4.7,4.7,0,0,1,.6-1.8c.1,3.9-1,9.2-3.4,15.3h.6a69.9,69.9,0,0,0,4.4-5.7,91.3,91.3,0,0,0,4.6-8.8v3.8c0,.4,1,.3,1.1,0l1.5-5c.1,1,.1,1.9.2,2.9s.2,2,.3,3,.8.6.9-.5-.2-.5-.2-1a18.7,18.7,0,0,0,.1-2.1c0-.7-.2-1.2-.1-1.5l.3,1.2.2,2.5a1.6,1.6,0,0,1,.8.9c.6,1.4,1.3,4.2,2,6.7s1,3.1,1.5,4.3h.6c.1-3,.4-5.3.3-6.4s-1-3-1.5-4.6a29.9,29.9,0,0,1-.9-4.9l.8,1.5c.2.3.5.2.5-.2s.1-2.3.1-3.7a15.3,15.3,0,0,1-1-1.8,4.2,4.2,0,0,0,1.2,1c.1-.8-.7-1.3-.8-1.9s.1-.4.3-.1,2.9,2.3,3.9,3.5,3.4,5,5.7,7.3c.2.2.5.1.4-.2l-2.3-7.8c-.1-.2-.9-.5-1.7-.9a18,18,0,0,1-3.9-2.8c-.1-.1.2-.3.3-.1a11.6,11.6,0,0,0,2.3,1.8c.3.2.5-.3.3-.5l-1.9-1.6c-.1-.1.1-.3.1-.2l3.1,2.3c.5.3,1-.3.4-.8s-3.9-3.2-6-4.9c-.1-.1.1-.3.2-.2l5.6,3.1c.6.3.7-.4.4-1a12,12,0,0,0-1.2-1.8,21,21,0,0,0-2.7-2.5l2,.4c.4.1.5-.6.3-.8l-2.3-1.8,1.4.5c.4.2.6.1.6-.1a11.1,11.1,0,0,0-.6-2.6c-.1-.3-.7,0-1,.2s.1-.3,0-.5l-.2-.3c-.1-.3,0-.5-.1-.7h-.8a2.3,2.3,0,0,0-.3.8h-1.9l-.7,1a6.2,6.2,0,0,0,0,1.1c0,.2-.6.2-.6,0s.1-.4.2-.7a4.1,4.1,0,0,1,.1-.7l.3-.5c.3-.4.7-.7.8-1.1s-.2-.9-.6-1.5l-.5.4c-.2.4-.2,1-.5,1.3s-.5.1-.7.2a.7.7,0,0,0-.5.4c0,.2-.4-.3-.3-.5s.7-.4,1.1-.8.1-.4.2-.4l.3-.4c.1-.4-.7-.7-.9-.5s-.8.9-1.3,1.3-.2-.4.1-.7l1.2-1.2a2.6,2.6,0,0,0-.4-1.1l-.8.7c-.2.2-.3.1-.1-.1s.5-.6.9-.9.1-.4.3-.6l.5-.6a1.6,1.6,0,0,0,0-1.3,14,14,0,0,0-1.3.9c-.2.1-.5-.1-.3-.4l.6-.7c.2-.2.2-.7-.4-1.2a3.2,3.2,0,0,0-1.1.8c-1.4,1.8-2.2,3.7-3.9,5.6l-.9-.7h-.9l-2.4,1.4h-1.5a30.3,30.3,0,0,0-3.3,2.3,32.8,32.8,0,0,1,3.4-2.9h1.8l2.1-1.1h1.2l1.3-1.4.3-1a15.1,15.1,0,0,1,3.2-2.7l-1-1.3-1.4.2-1.7,1.5a11.2,11.2,0,0,1-4.1.4l1.2-1.8-.2,1.1,3.5-.4.9-1.1,4.2-.4v-.5l-.4-.5-4.2-.5v-.5l7,1.2-.2-1,1,.4,3.6.2.6-.5a20.6,20.6,0,0,0,9.3,2,6.2,6.2,0,0,0,3.4,1.7c.1,1.3.4,1.5,1.1,1.3v1.6a4.9,4.9,0,0,0,3.1,1.4c.4,1.1,1,.6,1.7,1.4a14.4,14.4,0,0,1,1.5,3.3,52.9,52.9,0,0,0,1.2-11,12.9,12.9,0,0,0-1.4-5,9,9,0,0,0-5-4.5l-.9-1.3-.3.8-3.4-3.8-2.2,1,1.8-1.8,3,2.3c-.2-3.9-.8-6.8-3.5-9.7a14.9,14.9,0,0,1-3.1-1.8,14,14,0,0,1-1.2-2.2c-2.8-2-6.5-4.3-9-5.7a18.1,18.1,0,0,0-5.9-1.6l-2.1-1.4a23.4,23.4,0,0,0-4.3-1.3c-.3-.1-.3.1,0,.4l1.5,1.1a51.2,51.2,0,0,0-12.4-.3c-.3.4-1.1.3-1.2.6s-1.8-.4-3.4-.4-.2.1-.1.2,1.6.9,2.2,1.3a18.3,18.3,0,0,0-4.2.3c-.8.1-1.7,0-2.2.2l-.9.6c1.9.5,2.4,1.3,3.8,1.9l1.7.5c-.9.2-1.8-.5-3.5-.2a33.7,33.7,0,0,0-4.9,1.3l-4.8,1.7c-.1.1-.3.5-.1.6s1.3-.3,1.9-.2,0,.2-.1.3-2.6,1.2-4,2.1-.1.5.3.4l2.8-.8c.1,0,0,.1,0,.2s-1,.5-1.6,1.1,0,.7.1.7.6-.5,1-.7a33.4,33.4,0,0,1,9.2-2.5c.9-.1,1.3.6,1,.6l-2.7.4a53,53,0,0,0-7.4,2.3c-.3.1-.2,1,.1.9l.4-.2A47.1,47.1,0,0,1,273,161c.4-.1.5.3,0,.3a35.4,35.4,0,0,0-6.1,1.6,43.5,43.5,0,0,0-5.7,3.5.9.9,0,0,0,0,1.1h.5l-2.9,2.5c-.1.1-.1.7.1.7a16.3,16.3,0,0,0,3-.5,8.2,8.2,0,0,1-2,1l-.4.5h1l-6.2,5.8a.2.2,0,0,0,.2.3,18.2,18.2,0,0,0,3.5-1.3s0,.1,0,.1a7.2,7.2,0,0,1-1.3,1.1c-.3.3-.4.6.1,1.2l-2.1,4.2c-.2.3,0,.6.4.5l2.8-1,5-4.5c.1-.1.5.2.4.3l-.6.6-3.4,3.3-2.8,4.4v2c0,.2.1.4.5.2l2.3-.9,2.9-3.1Zm32.1-14.8a.8.8,0,1,1-.8.8A.8.8,0,0,1,297.8,168.2Zm-2.1-1.3c-.4,0-1,1-1.2,1.5a18,18,0,0,0,.5,2.8,23.5,23.5,0,0,0,2.5,2,11.2,11.2,0,0,0,3.5.1,9.4,9.4,0,0,0,1.8-2.1c0-.6,0-1.2,0-1.8l-.5-.6h-.4a11.5,11.5,0,0,1,0,1.4,5.2,5.2,0,0,1-1.7,1.2c-1.8-.3-2.8-.6-3.2-1.3a1.8,1.8,0,0,1,.1-1.8C297.3,167.5,296.6,166.8,295.6,166.9Zm17.2,10.2c1.8-.3,2.7-1.3,3.9-2s.5-.3.8-.3h.7v.4l-.8.2c.1.3.1.9.2,1.2a12.3,12.3,0,0,1-4.9.8C312.6,177.3,312.6,177.1,312.9,177.1Zm-37.4,4.5,6.1-2.8,5-1.2h1a5.5,5.5,0,0,0,3.2.7l.8.4-.4-.4.3-.4-.8-.2-3.5-1.1,1-.9-4.7-1.7c-.3-.1-.2-.4.1-.4h3.5l2.6.7c.2.1.3-.1.1-.3l-3.4-1.8h-3.8v-.6c1-.1,2-.5,3.3-.6a8.2,8.2,0,0,0-3-1.1c.6-.6.9-.8,1.5-.6l1.2.3c.2-.1-.4-.5-.2-.9h.5a11.5,11.5,0,0,0,1.9,1.7c.4.3.4.3.2-.1l-.8-1.7.6-.5,1.3-.5.8-.5h.9a1.8,1.8,0,0,1-1.4,1.6c-.1,0-.1.3.1.3a3.2,3.2,0,0,0,1.5-.5.4.4,0,0,1,.5.2l.8,1.4a28.6,28.6,0,0,0,4.5,3.8,31.7,31.7,0,0,0,4.4.4,11.8,11.8,0,0,0,2.3-1.3l.7.3-.6,1.1a6.9,6.9,0,0,1-2,1.3l.2.4,2.2-1.4v.5l-1.5,1.7h-1v.3l1,.3.3.5-1.3.6h-.2l3.9-1.9,5.6-2.1c.2-.1.1-.3-.1-.2l-5.4,1.4a13.8,13.8,0,0,1,.7-2.1l1.3-.2.3-.2-.5-.4-.7-.3V172l1.5-.2h.3l3.2-.3.6,1h.3l-.6-1.1h.8a3.8,3.8,0,0,1,.9,1.3,1.5,1.5,0,0,1-.4,1.1h.3l.2-.3.5-1.6h.2v1.8l-.3.5h.3l.3-.5v-1.8l.3-.2v-1.1l-1.7-1h-.8l-5.1-2.2-2.9-2.5h-1.6l-1.6-1.6c-.1-.1-.2.1-.1.3l.8,1.2c.1.1-.2.2-.4.2l-2.1-.8-2.2-1c-.2-.1-.4,0-.2.2l1.3,1.1c.3.3.2.6-.3.6h-.9a2.2,2.2,0,0,1-1-.3l-1.8-1.4c-.3-.2-.5-.2-.3.1a5.1,5.1,0,0,1,.8,1c.1.2,0,.3-.2.3a3.5,3.5,0,0,1-1.2-.1l-2.2-1c-.3-.1-.6-.1-.4.1l2.8,2.3c.2.2-.6.3-.9.1l-3.3-1.6-1.9-.5c-.2-.1-.2.1,0,.2l1.1.9a11,11,0,0,1-2.3-.5h-2.7v.2l3.4.6-1,.6-2.6.3v.2l.5.5h-.7v.6l1.9-.8h3.8l-.5.6-2.1.6h-2.4l-2.4,2h-.8l-.3.5.9.5v.5l-2.2,1.5v.3l2.7-.3v.5h-1.2l.7,1c.1.1-.1.3-.2.3a5.5,5.5,0,0,1-1.8,0,2.6,2.6,0,0,0-.7,1h4.5c.3,0,.1,1-.2,1.1a27.4,27.4,0,0,1-5.4.7v.5a20.3,20.3,0,0,0,3.4-.4l-.2.7c-1.6.8-4,1.7-5.5,2.2l-1.2.6C274.6,181.5,275.1,181.7,275.5,181.6Zm42.7,29v.6l1,.2-.3-.7Z" transform="translate(0 -66.3)" fill="#fff" fill-rule="evenodd"/><path d="M394,286.3v45.7l-1.6-.7a232.8,232.8,0,0,0-54.5-17,323.5,323.5,0,0,0-51.9-4.8h-9.5a307.1,307.1,0,0,0-56.7,5.5A220.6,220.6,0,0,0,170,330.4v-1.2c33.9-15.5,75.3-21.8,116-20.9,33.8.7,69.4,4.9,106.8,21.9V285.7Z" transform="translate(0 -66.3)" fill="#1bb14b" fill-rule="evenodd"/><path d="M172.5,280.2a182.9,182.9,0,0,1,26.5-9.4,275.1,275.1,0,0,1,35.7-7.2,336.4,336.4,0,0,1,45.3-3.1,349.2,349.2,0,0,1,43.6,2.8,283.3,283.3,0,0,1,38.3,7.3,174.8,174.8,0,0,1,17,5.4c2.7,1,5.4,2.1,8,3.4l-.6.9c-27.6-12.8-71.5-18.7-106.2-18.7s-76.6,5.9-107,19.6Z" transform="translate(0 -66.3)" fill="#495050" fill-rule="evenodd"/><path d="M360.6,319.5l-11-2.9.7-1,11,2.9Z" transform="translate(0 -66.3)" fill="#495051" fill-rule="evenodd"/><path d="M400.9,236.1a55.5,55.5,0,0,0-10.4-4.3c-4.8-1.5-9.7-2.7-14.6-3.8s-11.6-2.3-17.4-3.2-12.5-1.9-18.8-2.6h-.9l.2-1.8h.9q9.5,1.1,18.9,2.6c5.8.9,11.7,2,17.5,3.2s9.9,2.3,14.7,3.8a57.2,57.2,0,0,1,10.8,4.4l.8.4-.9,1.6Z" transform="translate(0 -66.3)" fill="#1bb14b" fill-rule="evenodd"/><path d="M158.5,236.1a55.5,55.5,0,0,1,10.4-4.3c4.8-1.5,9.7-2.7,14.6-3.8s11.6-2.3,17.4-3.2,12.5-1.9,18.8-2.6h.9l-.2-1.8h-.9q-9.5,1.1-18.9,2.6c-5.8.9-11.7,2-17.5,3.2s-9.9,2.3-14.7,3.8a57.2,57.2,0,0,0-10.8,4.4l-.8.4.9,1.6Z" transform="translate(0 -66.3)" fill="#1bb14b" fill-rule="evenodd"/><path d="M394,286.3v45.7l-1.6-.7a230.6,230.6,0,0,0-42.9-14.6l.7-1a230.6,230.6,0,0,1,42.7,14.6V285.7Z" transform="translate(0 -66.3)" fill="#495050" fill-rule="evenodd"/><polygon points="197.6 229.8 207.8 246.8 227.3 281.4 237 281.4 237 295.4 235.2 295.4 235.2 283.2 226.2 283.2 206.3 247.7 196.1 230.8 163.2 174.9 164.8 173.9 197.6 229.8" fill="#1bb14b" fill-rule="evenodd"/><rect x="257.6" y="359.3" width="1.8" height="70.72" transform="translate(-175.2 142.6) rotate(-33.6)" fill="#1bb14b"/><polygon points="353 247.7 332.8 283.2 323.8 283.2 323.8 295.4 322 295.4 322 281.4 331.7 281.4 351.4 246.8 361.4 229.8 394.3 173.9 395.9 174.9 363 230.8 353 247.7" fill="#1bb14b" fill-rule="evenodd"/><rect x="265.2" y="393.7" width="70.7" height="1.81" transform="translate(-194.5 359.2) rotate(-56.3)" fill="#1bb14b"/><path d="M210,316.9l1.1,2-1.8.4-1.1-2Z" transform="translate(0 -66.3)" fill="#0d4630" fill-rule="evenodd"/><path d="M351.3,317.1l-.7,1.3-1.8-.4.8-1.3Z" transform="translate(0 -66.3)" fill="#0d4630" fill-rule="evenodd"/><path d="M167.8,283.7c30.8-15.5,74.9-22,112.3-22.1s86,6.9,112.8,22.1v46.5c-37.5-17-73-21.2-106.8-21.9-41.6-.9-83.9,5.7-118.2,21.9Z" transform="translate(0 -66.3)" fill-rule="evenodd"/><path d="M394,286.3v45.7l-1.1-.5V285.7Z" transform="translate(0 -66.3)" fill="#6caa52" fill-rule="evenodd"/><polygon points="192.1 220.6 189.9 227 193.4 233.3 188.4 235.3 186 230.6 186.4 236.1 181.5 238 180.5 225.3 185.4 223.3 185.8 228.3 187.5 222.5 192.1 220.6" fill="#1bb14b" fill-rule="evenodd"/><polygon points="203.4 216.6 204.3 229.4 200.1 230.8 197.7 225.7 198.1 231.6 193.7 233.1 192.7 220.3 196.7 218.9 199.5 223.8 199.1 218.1 203.4 216.6" fill="#1bb14b" fill-rule="evenodd"/><path d="M213.5,279.6l3.8,12-4.9,1.5-.4-2.2-1.7.5v2.4l-4.9,1.6,1.4-13.7Zm-1.9,9q-.5-2.1-1.2-5.2-.4,3.9-.5,5.6Z" transform="translate(0 -66.3)" fill="#1bb14b" fill-rule="evenodd"/><polygon points="236.1 207.8 236.2 210.4 233.7 211 234 221.2 229.1 222.3 228.7 212 225.9 212.6 225.8 210.1 236.1 207.8" fill="#1bb14b" fill-rule="evenodd"/><polygon points="225.2 210.2 225.4 212.8 222.8 213.5 223.4 223.7 218.6 225 217.9 214.8 215.1 215.5 215 213 225.2 210.2" fill="#1bb14b" fill-rule="evenodd"/><path d="M247.7,276l-4.5.7v-.9c0-.4-.1-.5-.2-.6h-.6a1,1,0,0,0-.7.3.7.7,0,0,0-.2.6c0,1.1,1,1,1.9,1.3a16.1,16.1,0,0,1,4,1.6,3.3,3.3,0,0,1,1,2.6,3.6,3.6,0,0,1-.4,2.1,4.2,4.2,0,0,1-1.8,1.4,11,11,0,0,1-3.1.9,9.6,9.6,0,0,1-3.4,0,2.8,2.8,0,0,1-1.9-1,4.3,4.3,0,0,1-.5-2.1v-.8l4.5-.7v1.3c0,.5.1.8.2.9h.7a1.1,1.1,0,0,0,.7-.4,1.2,1.2,0,0,0,.2-.8c0-.7-.2-1-.5-1.1l-2.3-.8-2.5-.8a2.5,2.5,0,0,1-1-.9,2.9,2.9,0,0,1-.5-1.6,3.6,3.6,0,0,1,.5-2.2,4.2,4.2,0,0,1,1.7-1.3,12.7,12.7,0,0,1,6.2-.9,2.9,2.9,0,0,1,1.8.8,3.6,3.6,0,0,1,.5,2.1Z" transform="translate(0 -66.3)" fill="#1bb14b" fill-rule="evenodd"/><path d="M249.3,271.7l4.9-.6,3.1-.2a3.6,3.6,0,0,1,1.6.4,1.8,1.8,0,0,1,.8.9,6.1,6.1,0,0,1,.2,1.8v1.1a3.7,3.7,0,0,1-.3,1.9,2.8,2.8,0,0,1-1.3,1.1,9.5,9.5,0,0,1-2.6.6l-1.3.2v5.3l-4.9.6Zm4.9,1.8v3h.4a1.6,1.6,0,0,0,.9-.4,1.1,1.1,0,0,0,.2-.9v-.9c0-.4-.1-.7-.3-.8A2.5,2.5,0,0,0,254.2,273.5Z" transform="translate(0 -66.3)" fill="#1bb14b" fill-rule="evenodd"/><path d="M271,269.4l-3.3,8.7v4.8l-4.5.4v-4.8l-3.7-8.1,4.4-.4a37.4,37.4,0,0,1,1.3,5.1,53.1,53.1,0,0,1,1.2-5.3Z" transform="translate(0 -66.3)" fill="#1bb14b" fill-rule="evenodd"/><path d="M271.9,269.3h3.5l4.7.2a3.5,3.5,0,0,1,2,1,3.3,3.3,0,0,1,.8,2.5,2.9,2.9,0,0,1-.5,2.1,3.5,3.5,0,0,1-2.1.6,4.4,4.4,0,0,1,2,.7,2,2,0,0,1,.6.8,8.5,8.5,0,0,1,.1,1.9v3.5h-4.5v-4.1a2.2,2.2,0,0,0-.2-1.3,1.9,1.9,0,0,0-1.2-.3v5.6h-4.9Zm4.9,2.6v2.9l1.2-.2c.2-.1.3-.4.3-1v-.7a.9.9,0,0,0-.3-.8Z" transform="translate(0 -66.3)" fill="#1bb14b" fill-rule="evenodd"/><polygon points="295.2 203.5 295.2 216.6 290.9 216.5 288.8 210.4 288.8 216.4 284.3 216.2 284.3 203.1 288.4 203.2 291 209 291 203.3 295.2 203.5" fill="#1bb14b" fill-rule="evenodd"/><path d="M308.1,270.6v8.6a10.2,10.2,0,0,1-.1,2,2.3,2.3,0,0,1-.8,1.2,4.1,4.1,0,0,1-1.8.8,9.5,9.5,0,0,1-2.6.1,10.9,10.9,0,0,1-3-.6,5.2,5.2,0,0,1-1.9-1.1,2.5,2.5,0,0,1-.8-1.3,21.3,21.3,0,0,1-.1-2.9v-7.6l4.9.3v9.3a2.7,2.7,0,0,0,.1,1.1.6.6,0,0,0,.5.3c.3,0,.5-.1.6-.2a3.3,3.3,0,0,0,.1-1.2v-9.1Z" transform="translate(0 -66.3)" fill="#1bb14b" fill-rule="evenodd"/><polygon points="309.7 204.6 318 205.9 317.9 208.5 314.6 208 314.5 210.5 317.5 210.9 317.5 213.4 314.5 213 314.4 218.5 309.5 217.8 309.7 204.6" fill="#1bb14b" fill-rule="evenodd"/><path d="M319.1,272.4l8.1,1.2v2.6l-3.2-.5v2.4l3,.5V281l-3-.5v2.8l3.6.5v2.6l-8.4-1.3Zm8-1.3-3.9,1.6-2.3-.4,2.1-1.8Z" transform="translate(0 -66.3)" fill="#1bb14b" fill-rule="evenodd"/><polygon points="333.5 208.7 333.1 219 336 219.6 335.9 222.2 328.1 220.4 328.6 207.7 333.5 208.7" fill="#1bb14b" fill-rule="evenodd"/><path d="M346.6,278.1l2.2,13.8-5-1.3v-2.4l-1.8-.5-.4,2.3-5.1-1.3,3.1-12.4Zm-3,7.7q-.3-2.3-.5-5.7-.9,3.6-1.2,5.2Z" transform="translate(0 -66.3)" fill="#1bb14b" fill-rule="evenodd"/><path d="M360.7,287.5l-4.8-1.6v-1.1a3,3,0,0,0-.1-1.2.9.9,0,0,0-.6-.5c-.3-.1-.5-.1-.6,0a2.2,2.2,0,0,0-.2,1.1l-.3,5.5a2.9,2.9,0,0,0,.1,1.2,1,1,0,0,0,.6.5c.4.1.6.1.7-.1a1.9,1.9,0,0,0,.3-1.1V289l-1-.3v-1.9l5.6,1.9-.4,6.7-3-1-.4-1a2.2,2.2,0,0,1-1.3.5,4.9,4.9,0,0,1-1.8-.3,8.3,8.3,0,0,1-2.2-1.2,6.3,6.3,0,0,1-1.5-1.5,3.7,3.7,0,0,1-.6-1.5,10.8,10.8,0,0,1,0-2l.2-3.7a7.7,7.7,0,0,1,.4-2.5q.3-.7,1.7-.9a7.7,7.7,0,0,1,3.5.5,11.7,11.7,0,0,1,3.5,1.8,5.2,5.2,0,0,1,1.7,2,6,6,0,0,1,.3,2.5Z" transform="translate(0 -66.3)" fill="#1bb14b" fill-rule="evenodd"/><polygon points="367.4 218.5 366.5 231.3 361.6 229.6 362.5 216.8 367.4 218.5" fill="#1bb14b" fill-rule="evenodd"/><path d="M368.7,291.8l-1-.4V290l1,.4.5-5,3.7,1.5a41.8,41.8,0,0,1,4.8,2.1,6.5,6.5,0,0,1,1.8,1.5,3.2,3.2,0,0,1,.7,1.4,12.1,12.1,0,0,1-.1,2.5l-.4,4.4a6.2,6.2,0,0,1-.4,2.2,1.2,1.2,0,0,1-.9.6h-1.5l-2.6-.9-6.2-2.5Zm4.9,2-.4,3.9c.7.3,1.1.4,1.3.2s.3-.6.4-1.5l.5-4.5a4.5,4.5,0,0,0,0-1.1.9.9,0,0,0-.3-.5l-1.1-.6-.3,2.6.8.3V294Z" transform="translate(0 -66.3)" fill="#1bb14b" fill-rule="evenodd"/><path d="M260.3,297.1a18.7,18.7,0,0,1-.1,2.7,2.8,2.8,0,0,1-.8,1.5,5.3,5.3,0,0,1-1.9,1.2,10.5,10.5,0,0,1-2.8.7,10.1,10.1,0,0,1-2.7,0,4.2,4.2,0,0,1-2-.7,2.2,2.2,0,0,1-.9-1.3,17.5,17.5,0,0,1-.2-2.7v-2.1a18,18,0,0,1,.1-2.7,2.8,2.8,0,0,1,.8-1.5,5.3,5.3,0,0,1,1.9-1.2,10.5,10.5,0,0,1,2.8-.7,10.1,10.1,0,0,1,2.7,0,4.2,4.2,0,0,1,2,.7,2.2,2.2,0,0,1,.9,1.3,17,17,0,0,1,.2,2.7Zm-5-3.5a2.5,2.5,0,0,0-.2-1.1c-.1-.1-.3-.2-.6-.2l-.6.3a2,2,0,0,0-.2,1.2v5.8a3.8,3.8,0,0,0,.2,1.3c.1.2.3.2.6.2a.7.7,0,0,0,.6-.4,4.4,4.4,0,0,0,.1-1.4Zm-1.9-5.4v2l-3,.4v-2Zm5.1-.6v2l-3,.4v-2Z" transform="translate(0 -66.3)" fill="#1bb14b" fill-rule="evenodd"/><path d="M261.5,289.4l3.5-.2h4.7a3.3,3.3,0,0,1,2,.8,3.2,3.2,0,0,1,.8,2.4,3,3,0,0,1-.5,2.1,3.7,3.7,0,0,1-2.1.8,4.2,4.2,0,0,1,2,.6,1.8,1.8,0,0,1,.6.7,8.4,8.4,0,0,1,.1,1.9v3.5l-4.5.3v-4.4a2.1,2.1,0,0,0-.2-1.3c-.2-.2-.6-.2-1.2-.2v5.9l-4.9.3Zm4.9,2v2.9l1.2-.2c.2-.1.3-.5.3-1v-.7c0-.4-.1-.7-.3-.8Z" transform="translate(0 -66.3)" fill="#1bb14b" fill-rule="evenodd"/><polygon points="284.5 222.2 284.5 235.3 280.4 235.4 278.2 229.4 278.2 235.4 274 235.4 274 222.2 277.9 222.2 280.2 228.1 280.2 222.2 284.5 222.2" fill="#1bb14b" fill-rule="evenodd"/><polygon points="291 222.4 291 235.6 286.1 235.4 286.1 222.2 291 222.4" fill="#1bb14b" fill-rule="evenodd"/><polygon points="303.3 223.2 303.3 236.3 299.1 236.1 297 229.9 297 235.9 292.6 235.6 292.6 222.5 296.6 222.7 299.1 228.8 299.1 222.9 303.3 223.2" fill="#1bb14b" fill-rule="evenodd"/><polygon points="315.8 224.8 315.7 238 311.4 237.4 309.4 231.1 309.3 237 304.8 236.5 304.9 223.3 309 223.9 311.5 230.2 311.6 224.3 315.8 224.8" fill="#1bb14b" fill-rule="evenodd"/><path d="M259.4,358.7l-3.3.6v-.5c0-.4-.5-.4-.8-.3s-.5.2-.5.6a.6.6,0,0,0,.2.4h.9a12.3,12.3,0,0,1,3.2.5,1.7,1.7,0,0,1,.6,2.3,3.3,3.3,0,0,1-1.3.8l-2.3.7a10.5,10.5,0,0,1-2.5.2,2.4,2.4,0,0,1-1.4-.4,1.6,1.6,0,0,1-.5-1.1v-.4l3.2-.7v.4c0,.4,0,.5.4.7h.5l.5-.2a.5.5,0,0,0,.1-.4c0-.4-.2-.5-.4-.5l-1.8-.2-1.9-.2-.8-.4a1.1,1.1,0,0,1-.4-.8,1.2,1.2,0,0,1,.4-1.1,7,7,0,0,1,3.3-1.5c.9-.2,3-.5,3.8.1A1.7,1.7,0,0,1,259.4,358.7Z" transform="translate(0 -66.3)" fill="#1bb14b" fill-rule="evenodd"/><path d="M264.2,356.4v.8l1.2-.2v.8l-1.2.2v2.8c0,.3.1.5.1.6l1.4-.2v.9l-1.9.3-1.7.2h-.9l-.5-.3a3,3,0,0,1-.2-1v-2.7h-.7v-.8h.7V357Z" transform="translate(0 -66.3)" fill="#1bb14b" fill-rule="evenodd"/><path d="M273.9,358v1.3a2.7,2.7,0,0,1-.2,1.1,1.7,1.7,0,0,1-.7.7l-1.3.5-1.8.3h-2l-1.3-.3a1.4,1.4,0,0,1-.6-.5,2,2,0,0,1-.2-1v-1.4a1.8,1.8,0,0,1,.3-1.2,2.7,2.7,0,0,1,1.2-.8,9.1,9.1,0,0,1,2.3-.4h2l1.3.3.6.5A1.6,1.6,0,0,1,273.9,358Zm-3.5.1a.8.8,0,0,0-.1-.5h-.8a.8.8,0,0,0-.1.5V360a.7.7,0,0,0,.1.5h.8a.7.7,0,0,0,.1-.5Z" transform="translate(0 -66.3)" fill="#1bb14b" fill-rule="evenodd"/><path d="M279.5,355.1v.8h-1.3a.2.2,0,0,0-.2.3v.2h1.5v.8h-.8v4.3h-3.5v-4.3h-.7v-.8h.7a2.1,2.1,0,0,1,.1-.7l.4-.3.9-.2h3Z" transform="translate(0 -66.3)" fill="#1bb14b" fill-rule="evenodd"/><path d="M283.6,356.3v.5l.9-.4h1.3l1.5.3a1.3,1.3,0,0,1,.7.5,2.2,2.2,0,0,1,.2,1v3.7l-3.5-.2V358a1.6,1.6,0,0,0-.1-.7h-.9a1.6,1.6,0,0,0-.1.7v3.6l-3.5-.2v-5.3Z" transform="translate(0 -66.3)" fill="#1bb14b" fill-rule="evenodd"/><path d="M292.4,359l-3.4-.4v-.4a1.1,1.1,0,0,1,.5-.8,2.5,2.5,0,0,1,1.3-.4,7.7,7.7,0,0,1,2.3,0,9.8,9.8,0,0,1,2.7.6,1.9,1.9,0,0,1,1.1.9,5.4,5.4,0,0,1,.1,1.8v2.6l-3.4-.5v-.5l-.8.3h-1.2l-1.7-.5a1.1,1.1,0,0,1-.7-1.1v-.4a.7.7,0,0,1,.4-.8l2-.2,1.9-.2a.5.5,0,0,0,.1-.4c0-.3,0-.3-.1-.4l-.4-.2c-.2,0-.5,0-.5.4Zm1,.9-1,.3a.5.5,0,0,0-.1.4c0,.5.1.7.6.7s.5-.1.5-.5Z" transform="translate(0 -66.3)" fill="#1bb14b" fill-rule="evenodd"/><path d="M300.7,357.3l2.1.3.4.2h1.4l.3.4h-1l1,.8a4.2,4.2,0,0,1,.8,1,2.5,2.5,0,0,1,.2,1.3v1.2a1.5,1.5,0,0,1-.4,1,2.3,2.3,0,0,1-1.3.4h-2.4l-2.4-.6a2.8,2.8,0,0,1-1.2-.8,1.9,1.9,0,0,1-.4-1.3V360a1.6,1.6,0,0,1,.3-1,2,2,0,0,1,1.1-.5,4.8,4.8,0,0,1,1.7,0l1.4.5a1.8,1.8,0,0,0-.5-.8h-1.7l-.3-.4h1.4Zm1.8,3.1c0-.4-.1-.6-.5-.7s-.5.1-.5.5v1.9a.5.5,0,0,0,.5.6c.3,0,.5,0,.6-.5Z" transform="translate(0 -66.3)" fill="#1bb14b" fill-rule="evenodd"/><path d="M270.4,376.6v1l-6.1.8v-.9a31.3,31.3,0,0,0,2.7-3.2c.2-.3.6-1.1.2-1.4a.4.4,0,0,0-.6.1.7.7,0,0,0-.1.5v.6l-2.5.5v-.2a1.8,1.8,0,0,1,.5-1.7l.9-.5,1.4-.3a5.4,5.4,0,0,1,2.5.2c.6.2.9.6.9,1a2.1,2.1,0,0,1-.4,1.3,26.8,26.8,0,0,1-2.5,2.6Z" transform="translate(0 -66.3)" fill="#1bb14b" fill-rule="evenodd"/><path d="M278.1,373.3v2a2.5,2.5,0,0,1-.1,1,1.4,1.4,0,0,1-.6.6l-1.1.4h-3.1l-1.1-.4-.6-.5a1.8,1.8,0,0,1-.2-.9v-2.1a2.2,2.2,0,0,1,.3-1.2,2,2,0,0,1,1.1-.7l2-.3h1.7l1.1.4a1.3,1.3,0,0,1,.5.5A2.7,2.7,0,0,1,278.1,373.3Zm-3-.4a1.2,1.2,0,0,0-.1-.6h-.6a1.1,1.1,0,0,0-.1.6v2.7a1.2,1.2,0,0,0,.1.6h.6a1,1,0,0,0,.1-.6Z" transform="translate(0 -66.3)" fill="#1bb14b" fill-rule="evenodd"/><path d="M283.6,371.5v5.9h-3v-3.2a3.8,3.8,0,0,0,0-.9l-.4-.2h-1.3v-.7a6.4,6.4,0,0,0,3-.7Z" transform="translate(0 -66.3)" fill="#1bb14b" fill-rule="evenodd"/><path d="M290.5,372.3l-.2,3.3h.7v1.5h-.8v1.2l-3-.4v-1.2l-3.2-.4v-1.7l2.5-2.8Zm-3.2,2.7v-1.9l-1.4,1.7Z" transform="translate(0 -66.3)" fill="#1bb14b" fill-rule="evenodd"/></svg>