<svg xmlns="http://www.w3.org/2000/svg" viewBox="0 0 469.6 499.2"><title>ulfarnir</title><path d="M22,87.2,49.9,45.1c2.5-3.7,5.1-7.4,7.4-11.3s3.8-3.3,7.1-2.8c12.5,1.8,25,4.3,37.6,4.6,17.4.4,33.2-6.8,48.7-13.6,25.5-11.1,52.2-15.6,79.7-16.4,15.5-.4,31-.4,46.5-.1,28.9.6,56.9,5.4,83.6,17.1,14.9,6.5,30.2,13.3,46.8,13,12.2-.3,24.4-2.5,36.6-4.4,4-.6,6.4-.4,8.8,3.2q16.8,25.8,34,51.2c2.4,3.5,2,5.4-1.3,8.1-22.7,18.9-38.2,42.4-41.9,72.1-1.5,12.1-.4,24.6.6,36.8,3.1,36.5,6.7,73.1,2.5,109.7-4.8,41.6-19.4,78.4-52.4,106.1-18.9,15.9-41,26.1-63.9,34.5s-44,19.2-62.4,35c-4.5,3.9-8.6,8.3-13.2,12.9-2.3-2.5-4.4-5-6.7-7.2-18.4-17.8-40.3-29.9-64-38.9-19.4-7.3-38.3-15.3-55.7-26.8-31.4-20.8-50.4-50.2-59.7-86.2-7.9-30.5-8.3-61.6-6.4-92.8,1.2-20.4,3.7-40.8,5.1-61.2,2.1-30.3-8.2-56.5-27.7-79.4C33.8,101.6,28.4,94.9,22,87.2Z" transform="translate(-20.1 -3.8)" fill="#fff" stroke="#0071bd" stroke-miterlimit="10" stroke-width="3"/><path d="M238.7,317.8c6.9.6,14,.7,20.7,2,9.7,2,17.5,7.9,20.6,17.2,6.7,20,20.5,34.8,33.4,50.4,4.8,5.8,9.7,11.5,13.7,17.8,5.7,9,8.2,18.8,1.5,28.6s-17.5,17.7-31.2,15.5c-7.8-1.3-15.3-4.3-23-6.6-21.8-6.5-43.3-4.2-64.2,3.3-10.9,3.9-20,2.7-28-5.1s-13.5-12.9-19-20.3-5.2-22.1,2.6-29.9A125.7,125.7,0,0,0,195.6,345c7.2-19.5,20.4-27.9,40.5-26.5a20.9,20.9,0,0,0,2.5,0,1.7,1.7,0,0,0,.1-.7" transform="translate(-20.1 -3.8)" fill="#0071bd"/><path d="M396.2,291.2c-.9,20.4-3.1,38.2-13,54-7.3,11.7-16.8,20.5-31.1,22.8-8.3,1.3-12.2-.3-16.8-7.3-6-9.4-12.2-18.6-18.3-28-7.3-11.1-7.4-22.5-.9-33.9,9.2-15.9,23.4-26.1,39.6-33.8,3.4-1.6,7.3-2.6,10.5-4.5,9.3-5.4,26.9,4,28.6,16.6.8,5.4,1.1,10.9,1.4,14.1" transform="translate(-20.1 -3.8)" fill="#0071bd"/><path d="M341,210.5a78.5,78.5,0,0,1-10.2,39.2c-7.6,13.7-20.9,19.3-35.6,20.8-10.5,1.1-17.7-5.1-22.9-14-10.1-17.4-9.4-35.2-2.9-53.4,1.6-4.4,3.3-8.7,5.1-13,6.6-15.7,19.4-23.6,35.3-27.2,4-.9,7.6,0,10.2,3.5s7.4,9.4,11,14.2a49.6,49.6,0,0,1,10,29.9" transform="translate(-20.1 -3.8)" fill="#0071bd"/><path d="M248.3,206.3c-.1,19.5-7.8,34.2-20,46.9a16.7,16.7,0,0,1-15.6,5.1c-14.2-2.7-34-14.9-37.4-32.9-1.5-8.3-1.1-17.2.1-25.7a195.1,195.1,0,0,1,7.1-30c3-9.9,10.2-15.7,20.6-17.4l4.4-.7c17.9-1.9,20.9-.2,27.7,16.2,4.3,10.3,8.3,20.6,12.1,31,1.2,2.7.9,5.9,1,7.5" transform="translate(-20.1 -3.8)" fill="#0071bd"/><path d="M118.5,281.9c.9-5.8,2.3-14,3.6-22.2l.3-1c3.6-11.1,13.7-12.9,22.8-15.3,7.3-2,13.8.7,18.8,6.5,8.9,10.4,17.8,20.7,26.6,31.2,12,14.5,11.7,29.3-1.2,43-7.1,7.6-14.5,15.2-22.7,21.5s-16,4.3-22.5-1.3c-10.7-9.3-26.4-45.9-25.7-62.4" transform="translate(-20.1 -3.8)" fill="#0071bd"/><path d="M231.8,136.6c1,3.6-.9,6.2-4.5,6.3a104.1,104.1,0,0,1-15.8-1.2c-.9-.1-2.3-2.6-2.1-3.6,2.5-11.5,5.2-23,7.9-34.5a10.7,10.7,0,0,1,2-3.2h1.5" transform="translate(-20.1 -3.8)" fill="#0071bd"/><path d="M146.2,196.3l.8.2c4.4,3.9,10,26.5,8,32s-10.2,9.8-15.6,8a6.9,6.9,0,0,1-3.8-4.8c-1.2-9,4.8-28.1,10.6-35.4" transform="translate(-20.1 -3.8)" fill="#0071bd"/><path d="M287.5,103.8c3.4,4.7,21.9,44.3,19.8,35.7,1.3,5.6-1,10.8-5.1,13.1s-9.4.9-10.1-3.9c-2-13.8-3.7-27.7-5.5-41.6a21.3,21.3,0,0,1,.9-3.3" transform="translate(-20.1 -3.8)" fill="#0071bd"/><path d="M389.1,214.5a16.1,16.1,0,0,1,1,2.8c.7,9.6,1.3,19.2,2.1,28.9.4,5-2.6,7.9-6.7,8.4s-7.9-.5-11.6-1.6c-1.1-.3-2.4-3.1-2.1-4.3,3.5-11.8,7.4-23.5,15.4-33.2a5.4,5.4,0,0,1,1.9-1" transform="translate(-20.1 -3.8)" fill="#0071bd"/><path d="M83.5,80.4l-.7-1.3,16.9-9.5.7,1.4-1.8,1a5.6,5.6,0,0,0-3,4.9c-.1,1,.6,2.9,2,5.7l10.5,20.1c2.6,5,4.1,9.1,4.6,12.3a17.2,17.2,0,0,1-1.9,10.2c-1.8,3.5-5,6.6-9.8,9.3s-9.7,4.2-13.3,3.9a16.9,16.9,0,0,1-9.7-4.3c-1.9-1.7-4.4-5.6-7.5-11.6L60.4,103.2c-1.6-3-3-4.8-4.3-5.3s-2.9-.2-4.7.8l-1.8,1-.7-1.4L69.5,86.7l.7,1.4-1.8,1a5.5,5.5,0,0,0-3.2,4.3c-.1,1.2.5,3.2,2,6L78.5,121a49.1,49.1,0,0,0,4,6.3,15.7,15.7,0,0,0,4.9,4.8,11.3,11.3,0,0,0,5.6,1.3,15.5,15.5,0,0,0,6.9-2.1,20.8,20.8,0,0,0,7.3-6.8,13.1,13.1,0,0,0,2.2-8.3c-.2-2.7-1.7-6.7-4.5-11.9L94.3,84c-1.6-3.1-3-4.8-4-5.2s-3.1-.3-4.9.7l-1.9.9M73.8,63.3,70,81.8l-1.2.7L65.9,67.8l7.9-4.5" transform="translate(-20.1 -3.8)" fill="#0071bd"/><path d="M163.1,82.8l1.3-.3,2.2,15.8-37.8,19-.6-1.4,1.8-.9a5.7,5.7,0,0,0,3.5-4.3c.1-1-.5-3-1.8-5.9L116.4,72.1c-1.5-3.2-2.7-5-3.8-5.4a5.5,5.5,0,0,0-4.9.5l-1.8.9-.6-1.4,22.1-11.1L128,57c-2.6,1.3-4.3,2.4-5.1,3.5a5.1,5.1,0,0,0-1.2,3.1q0,1.5,2.1,6l14.9,31.8c1,2.1,1.8,3.4,2.6,4a3,3,0,0,0,1.9.5,34.5,34.5,0,0,0,5.8-2.4l3.6-1.8a32.4,32.4,0,0,0,7.5-4.8,11.3,11.3,0,0,0,2.7-5.1,48.5,48.5,0,0,0,.3-9" transform="translate(-20.1 -3.8)" fill="#0071bd"/><path d="M173.2,41.5l5.5,21.4,9.5-2.7a7,7,0,0,0,4.4-2.8c.8-1.3.9-3.5.5-6.5l1.4-.4,4.8,18.4-1.4.4a10.6,10.6,0,0,0-2-4.4,5,5,0,0,0-2.7-1.6,9.5,9.5,0,0,0-4.2.4l-9.5,2.7,4.4,17.1a20.4,20.4,0,0,0,1.9,5.3,3.6,3.6,0,0,0,2.1,1.3,8.1,8.1,0,0,0,3.8,0l1.9-.5.4,1.5-22.5,6.3-.4-1.5,1.9-.5q3.3-.9,4.2-3.3c.4-1,.2-3.2-.7-6.4l-9.1-35.1a20.4,20.4,0,0,0-1.9-5.3,3.7,3.7,0,0,0-2-1.3,8.1,8.1,0,0,0-3.8,0l-1.9.5-.4-1.5,39-10.9L200,43.9l-1.4.4a15.1,15.1,0,0,0-3.8-4.9,8.4,8.4,0,0,0-4-1.7,16.4,16.4,0,0,0-6.3.9l-11.3,2.9" transform="translate(-20.1 -3.8)" fill="#0071bd"/><path d="M235,67.3l-21,1.5-3.1,9.1a12.7,12.7,0,0,0-1,5,3,3,0,0,0,1.3,2.2c.8.6,2.6.9,5.2.9v1.5l-17,1.3V87.3c2.2-.6,3.7-1.2,4.3-1.9s2.6-4.2,4-8.4l15.9-47.6H225l22,45.2c1.8,3.6,3.3,6,4.6,7a8.6,8.6,0,0,0,5.3,1.5v1.5l-21.4,1.6V84.6a9.2,9.2,0,0,0,4.3-1.4,3.3,3.3,0,0,0,1-2.4,16.4,16.4,0,0,0-2-5.6L235,67.3m-1.3-3L223,42.3l-8,23.3,18.7-1.3" transform="translate(-20.1 -3.8)" fill="#0071bd"/><path d="M313.4,89.1,299,87.8,282.8,60l-3.3-.2h-1.1l-1.2-.2-1.3,16.3c-.3,3.5-.1,5.8.6,6.7a5.7,5.7,0,0,0,4.4,2.2l2.1.2v1.5l-23.2-2.1V82.8l2,.2c2.3.2,4-.4,5.1-1.9s1.1-2.8,1.3-6l3-36.2c.3-3.5.1-5.8-.6-6.7a5.8,5.8,0,0,0-4.5-2.2l-2-.2V28.3L283.9,30q8.6.8,12.6,2.4a14.2,14.2,0,0,1,6.5,5.4,13.4,13.4,0,0,1,2.2,8.6,13.6,13.6,0,0,1-4,8.7q-3.6,3.4-10.5,4.5l9.8,17.1c2.2,3.9,4.2,6.6,6,7.9a16.1,16.1,0,0,0,7,3v1.5m-36-32.2h2.2c5.2.5,9.1-.4,12-2.4a11.3,11.3,0,0,0,4.7-8.5,11.6,11.6,0,0,0-2.5-8.8,11,11,0,0,0-8.1-4,35.7,35.7,0,0,0-6.3.2l-2,23.3" transform="translate(-20.1 -3.8)" fill="#0071bd"/><path d="M328.7,34.3l14.2,4.1,21.2,49.8,8.3-31.3q1.3-4.9.6-6.6a6.1,6.1,0,0,0-4.1-3l-1.8-.5.4-1.5,18.2,5.2-.4,1.5-1.9-.5c-2.2-.6-4-.4-5.3.7s-1.6,2.6-2.4,5.6l-12.2,45.7-1.4-.4L339.2,49.5,330.5,83c-.9,3.3-1.1,5.5-.6,6.5a6.1,6.1,0,0,0,4.1,3l1.9.5-.4,1.5-18.2-5.2.4-1.5,1.8.5c2.2.6,4,.4,5.3-.7s1.6-2.6,2.4-5.6l10-37.7a23.9,23.9,0,0,0-2.5-4.6,11.6,11.6,0,0,0-3-2.6,10.7,10.7,0,0,0-3.3-1.3l.3-1.5" transform="translate(-20.1 -3.8)" fill="#0071bd"/><path d="M390.9,111.1l-.6,1.4-21.5-9.1.6-1.4,1.8.8c2.1.9,3.8.9,5.3,0s2-2.4,3.2-5.5L393,63.6a19.8,19.8,0,0,0,1.6-5.4,4,4,0,0,0-.9-2.3,7.6,7.6,0,0,0-3-2.4l-1.8-.8.6-1.4L411,60.4l-.6,1.4-1.8-.8c-2.1-.9-3.8-.9-5.2,0s-2,2.4-3.3,5.5l-13.3,33.7a19.8,19.8,0,0,0-1.6,5.4,4,4,0,0,0,.9,2.3,7.8,7.8,0,0,0,3,2.4l1.8.8" transform="translate(-20.1 -3.8)" fill="#0071bd"/><path d="M442.8,140.5l-12.8-7-4.4-32.2-3-1.5-1-.6-1.1-.7L413.1,113c-1.6,3.1-2.3,5.3-2,6.4s1.4,2.8,3.2,3.8l1.9,1-.7,1.4L395,114.3l.7-1.4,1.8,1q3,1.6,5.4.3c.9-.5,2-2.1,3.5-5l16.4-32.1c1.6-3.1,2.3-5.3,2-6.4a6.2,6.2,0,0,0-3.3-3.9l-1.8-1,.7-1.4L437.9,74c5.1,2.8,8.7,5.2,10.7,7.3a15.1,15.1,0,0,1,4,7.6,13.5,13.5,0,0,1-1.2,8.8,13,13,0,0,1-6.9,6.4c-3.1,1.2-6.9,1.1-11.4-.1l2.6,19.7c.6,4.5,1.4,7.8,2.5,9.7a17.3,17.3,0,0,0,5.3,5.6l-.7,1.5m-21-44.3,1.2.7.8.5c4.6,2.5,8.5,3.4,11.9,2.6a10.9,10.9,0,0,0,7.5-5.9,12.2,12.2,0,0,0,1.1-9.1,11.7,11.7,0,0,0-6-7,37,37,0,0,0-5.9-2.4L421.8,96.2" transform="translate(-20.1 -3.8)" fill="#0071bd"/></svg>