<svg xmlns="http://www.w3.org/2000/svg" viewBox="0 0 799 799"><title>ymir</title><path d="M799.5,400.4C801.8,179.1,614.3-9.9,380,1.2,176.4,10.8-6.2,181.7.7,413.6c6.2,210.6,180.1,389,406.4,385.6C627,795.9,800.7,615.6,799.5,400.4M277.3,789.2c-20.5-11.5-25.1-10.9-39.2,4.5,13.3,6.3,6,7.1,39.2-4.5" transform="translate(-0.5 -0.5)" fill="#fff"/><path d="M7.6,400.2C7.7,183.4,183.6,7.3,399.8,7.5c218.6.2,393,176,392.8,396.1-.1,214.4-177.7,389.3-395,388.9C183.1,792.2,7.5,615.6,7.6,400.2" transform="translate(-0.5 -0.5)" fill="#fff"/><path d="M326.3,637.6c0-33.1-.5-66.3.3-99.4.3-10.9-3.5-18-10.9-25.4C234.8,432.5,154.3,351.7,73.4,271.4c-5.9-5.8-7.3-10.2-3.6-18.2a374.3,374.3,0,0,1,73.6-106.9c5-5.1,7.7-5.3,12.9-.1C235,224.9,314,303.5,392.5,382.4c5.9,6,8.8,5.6,14.4-.2q117-117.4,234.5-234.6c7.9-7.8,7.9-7.9,15.9.3a363.6,363.6,0,0,1,73.4,108.8c2.2,5,1.5,7.8-2.3,11.6l-250,249.4a17.8,17.8,0,0,0-5.7,13.9c.2,70.8,0,141.6.3,212.4,0,7.1-2.3,9.4-9,10.5a382.7,382.7,0,0,1-129,0c-6.5-1.1-9.1-3.3-9-10.5.6-35.3.4-70.9.3-106.4" transform="translate(-0.5 -0.5)" fill="#ee3124"/><path d="M400.8,45c82.7,1,156.7,26.2,222.1,76.8,5,3.9,4.8,5.8.6,10.1Q513.9,241,404.7,350.5c-3.9,3.9-5.8,3.2-9.3-.3Q286.1,240.7,176.5,131.7c-4.6-4.6-3.7-6.4.9-10C243.1,70.6,317.8,45.6,400.8,45" transform="translate(-0.5 -0.5)" fill="#ee3124"/><path d="M799.5,400.4c1.2,215.3-172.5,395.7-392.4,399C180.8,802.9,6.9,624.3.7,413.6-6.2,181.6,176.4,10.6,380,1,614.3-10.1,801.8,179,799.5,400.4m-785.9-.2c-.1,212,172.8,385.9,384.1,386.3,214,.4,388.9-171.8,389-382.9.1-216.7-171.6-389.7-386.9-390C186.9,13.4,13.7,186.8,13.6,400.2" transform="translate(-0.5 -0.5)" fill="#ee3124"/></svg>