<svg xmlns="http://www.w3.org/2000/svg" viewBox="0 0 455.1 589.6"><title>throtturr</title><path d="M459.8,506.4c72.3-130.3,66.1-256.5,66.1-256.5l-80.1-57.4,8-17.1L363.3,111l-57.4,72.3L248.7,111l-90.5,64.4,8,17.1L86.1,249.9S80,376.1,152.2,506.4,306,681,306,681,387.5,636.7,459.8,506.4Z" transform="translate(-78.5 -101.2)" fill="#fff"/><path d="M199.6,156.7V560.1A561.8,561.8,0,0,0,241.7,611V126Z" transform="translate(-78.5 -101.2)" fill="#e20a16"/><path d="M370,126h0V611a561.1,561.1,0,0,0,42.5-51.2V157Z" transform="translate(-78.5 -101.2)" fill="#e20a16"/><path d="M284.8,178.7V652.9c12.9,11.5,21.1,17.8,21.1,17.8s8.2-6.3,21-17.6V178.8Z" transform="translate(-78.5 -101.2)" fill="#e20a16"/><path d="M114.7,237.4V381.9a692.9,692.9,0,0,0,41.9,123.8v-300Z" transform="translate(-78.5 -101.2)" fill="#e20a16"/><path d="M455.5,500.7a693.9,693.9,0,0,0,42-124.8V232.5l-42-31.8Z" transform="translate(-78.5 -101.2)" fill="#e20a16"/><path d="M465.1,510.2c74.7-134.8,68.3-265.2,68.3-265.2l-82.9-59.4,8.3-17.7-93.6-66.6L305.9,176l-59.2-74.8-93.6,66.6,8.3,17.7L78.6,244.9s-6.4,130.5,68.3,265.2S306,690.8,306,690.8,390.3,645,465.1,510.2ZM326.9,650.8c-12.8,11.2-21,17.5-21,17.5s-8.3-6.3-21.1-17.6-26.7-24.4-43.1-41.8a557.9,557.9,0,0,1-42.1-50.4,420,420,0,0,1-32.3-50.8q-5.7-10.7-10.8-21.2a600.6,600.6,0,0,1-41.9-113.6C96,299.9,98.9,251.1,98.9,251.1l15.7-10.9,41.9-29.1,31.3-21.7L183,170.7l16.7-12,42.1-30.4.2-.2,42.9,53.1,8.6,10.6-8.6,10.9-14.6,18.4,14.6,12.4h.1l21-26.1,21,25.9h.1l14.6-12.2-14.7-18.6-8.5-10.8,8.5-10.5L370,128.1h0l42.4,30.7,19.9,14.4-8.1,16.3,31.4,21.8,42,29.2,15.5,10.8s2.9,48.3-15.5,120.7a600.3,600.3,0,0,1-42,114.4q-5.2,10.6-10.9,21.4a419.3,419.3,0,0,1-32.2,50.6A557.5,557.5,0,0,1,370,609C353.6,626.5,338.4,640.7,326.9,650.8Z" transform="translate(-78.5 -101.2)"/><circle cx="227.5" cy="397.6" r="95" fill="#fff"/><path d="M277.5,455.1a34,34,0,0,1-20.5-6.8,22.5,22.5,0,0,0-15.3,14.9,23.6,23.6,0,0,0,0,14.6,22.2,22.2,0,0,0,21,15.6h86.4A22.2,22.2,0,0,0,370,478.1a23.7,23.7,0,0,0,0-15.2,22.5,22.5,0,0,0-15.2-14.6,34,34,0,0,1-20.5,6.8,34.6,34.6,0,0,1-7.4-.8,33.5,33.5,0,0,1-19.3-12.1l-1.7-2.4-1.7,2.4a33.6,33.6,0,0,1-19.4,12.1A34.6,34.6,0,0,1,277.5,455.1Z" transform="translate(-78.5 -101.2)" fill="none"/><path d="M277.5,444.8a23.5,23.5,0,0,0,7.3-1.2,23.1,23.1,0,0,0,3.5-1.5,22,22,0,0,0,12.1-19.5V408.3l-2.5.2A89.8,89.8,0,0,0,261,420c-2.2,1.2-4.3,2.5-6.3,3.9C255.4,435.6,265.4,444.8,277.5,444.8Z" transform="translate(-78.5 -101.2)" fill="none"/><path d="M284.8,554a23.5,23.5,0,0,0-7.3-1.2c-12.2,0-22.1,9.2-22.8,20.9a90.3,90.3,0,0,0,45.7,15.7V575A22.2,22.2,0,0,0,284.8,554Z" transform="translate(-78.5 -101.2)" fill="none"/><path d="M230.3,527.3a33.8,33.8,0,0,1,11.4-25.5,32.6,32.6,0,0,1,3.8-2.9,32.4,32.4,0,0,1-3.8-2.9,34.2,34.2,0,0,1,0-51.1,32.2,32.2,0,0,1,7.5-5,31.7,31.7,0,0,1-3.9-8.6l-3.6,3.4a90.7,90.7,0,0,0,0,128.2l3.6,3.4a31.7,31.7,0,0,1,3.9-8.6,32.3,32.3,0,0,1-7.5-4.9A33.8,33.8,0,0,1,230.3,527.3Z" transform="translate(-78.5 -101.2)" fill="none"/><path d="M326.9,443.6a23.5,23.5,0,0,0,18.2-1.4,22.1,22.1,0,0,0,12-18.2,90.2,90.2,0,0,0-45.7-15.7v14.4A22.2,22.2,0,0,0,326.9,443.6Z" transform="translate(-78.5 -101.2)" fill="none"/><path d="M334.3,552.9a23.5,23.5,0,0,0-7.4,1.2,22.2,22.2,0,0,0-15.5,21v14.4a90.2,90.2,0,0,0,45.7-15.7C356.4,562.1,346.5,552.9,334.3,552.9Z" transform="translate(-78.5 -101.2)" fill="none"/><path d="M334.3,542.6a34,34,0,0,1,20.5,6.8A22.5,22.5,0,0,0,370,534.9a23.6,23.6,0,0,0,0-15.2,22.2,22.2,0,0,0-20.9-15.3H262.7a22.2,22.2,0,0,0-21,15.6,23.5,23.5,0,0,0,0,14.6,22.5,22.5,0,0,0,15.3,14.8,34,34,0,0,1,20.5-6.8,34.6,34.6,0,0,1,7.3.8,33.5,33.5,0,0,1,21.1,14.5,33.5,33.5,0,0,1,21-14.4A34.6,34.6,0,0,1,334.3,542.6Z" transform="translate(-78.5 -101.2)" fill="none"/><path d="M412.5,316c-3.8-1.9-8.6-2.9-14.4-2.9H381.9v58.4h17.2a28.1,28.1,0,0,0,13.4-3c7.7-4.1,12.5-12.6,12.5-25.8S421.3,320.3,412.5,316Z" transform="translate(-78.5 -101.2)" fill="none"/><path d="M362.6,440a31.8,31.8,0,0,1,3.9,2.2,32.5,32.5,0,0,1,3.5,2.7,34.2,34.2,0,0,1,0,51.2,32.3,32.3,0,0,1-3.7,2.8,32.6,32.6,0,0,1,3.7,2.8,34.1,34.1,0,0,1,0,51.1,32.3,32.3,0,0,1-7.4,4.9,31.8,31.8,0,0,1,3.9,8.6L370,563a90.7,90.7,0,0,0,0-128.4l-3.5-3.3A31.8,31.8,0,0,1,362.6,440Z" transform="translate(-78.5 -101.2)" fill="none"/><path d="M455.5,307.9c-7.7-13.4-21.3-22.8-43.1-23.3H381.9V250.2H343.2V403.6h0a101.4,101.4,0,0,0-16.2-4.8,102.9,102.9,0,0,0-34.8-1.2H292l-7.2-13.8-27.2-51.4,27.2-42.9,25-39.4h-42l-26.1,41-22.8,35.9h-.5V250.2H179.6v192h38.7v-57l14.3-21.8,9.1,18.2,14.1,28.1h0a102.2,102.2,0,1,0,126,20.8h0V400h20.7q5.1,0,9.9-.5c19.3-1.9,34.4-9.7,43.1-24,5.3-8.7,8.1-19.8,8.1-33.4S461.2,317.9,455.5,307.9ZM311.4,408.3A90.6,90.6,0,0,1,357.1,424a22.1,22.1,0,0,1-12,18.2,23.5,23.5,0,0,1-18.2,1.4,22.2,22.2,0,0,1-15.5-21Zm-7.2,33.9,1.7-2.4,1.7,2.4a33.5,33.5,0,0,0,19.3,12.1,34.6,34.6,0,0,0,7.4.8,34,34,0,0,0,20.5-6.8A22.5,22.5,0,0,1,370,462.9a23.7,23.7,0,0,1,0,15.2,22.2,22.2,0,0,1-20.9,15.3H262.7a22.2,22.2,0,0,1-21-15.6,23.6,23.6,0,0,1,0-14.6,22.5,22.5,0,0,1,15.3-14.9,34,34,0,0,0,20.5,6.8,34.6,34.6,0,0,0,7.3-.8A33.6,33.6,0,0,0,304.2,442.2ZM261,420a89.8,89.8,0,0,1,36.9-11.5l2.5-.2v14.4a22,22,0,0,1-12.1,19.5,23.1,23.1,0,0,1-3.5,1.5,23.5,23.5,0,0,1-7.3,1.2c-12.2,0-22.1-9.2-22.8-20.9C256.8,422.6,258.9,421.3,261,420ZM245.3,566.3l-3.6-3.4a90.7,90.7,0,0,1,0-128.2l3.6-3.4a31.7,31.7,0,0,0,3.9,8.6,32.2,32.2,0,0,0-7.5,5,34.2,34.2,0,0,0,0,51.1,32.4,32.4,0,0,0,3.8,2.9,32.6,32.6,0,0,0-3.8,2.9,34.1,34.1,0,0,0,0,50.9,32.3,32.3,0,0,0,7.5,4.9A31.7,31.7,0,0,0,245.3,566.3Zm55.1,23.1a90.3,90.3,0,0,1-45.7-15.7c.7-11.6,10.6-20.9,22.8-20.9a23.5,23.5,0,0,1,7.3,1.2,22.2,22.2,0,0,1,15.6,21Zm5.5-31.5a33.5,33.5,0,0,0-21.1-14.5,34.6,34.6,0,0,0-7.3-.8,34,34,0,0,0-20.5,6.8,22.5,22.5,0,0,1-15.3-14.8,23.5,23.5,0,0,1,0-14.6,22.2,22.2,0,0,1,21-15.6h86.4A22.2,22.2,0,0,1,370,519.7a23.6,23.6,0,0,1,0,15.2,22.5,22.5,0,0,1-15.2,14.5,34,34,0,0,0-20.5-6.8,34.6,34.6,0,0,0-7.4.8A33.5,33.5,0,0,0,305.9,557.9Zm21,29.3a90.6,90.6,0,0,1-15.5,2.3V575a22.2,22.2,0,0,1,15.5-21,23.5,23.5,0,0,1,7.4-1.2c12.2,0,22.1,9.2,22.8,20.9A90.2,90.2,0,0,1,326.9,587.1ZM370,434.7a91.2,91.2,0,0,1,6.8,7.5A90.7,90.7,0,0,1,370,563l-3.5,3.3a31.8,31.8,0,0,0-3.9-8.6,32.3,32.3,0,0,0,7.4-4.9,34.1,34.1,0,0,0,0-51.1,32.6,32.6,0,0,0-3.7-2.8,32.3,32.3,0,0,0,3.7-2.8,34.2,34.2,0,0,0,0-51.2,32.5,32.5,0,0,0-3.5-2.7,31.8,31.8,0,0,0-3.9-2.2,31.8,31.8,0,0,0,3.9-8.6Zm42.5-66.2a28.1,28.1,0,0,1-13.4,3H381.9V313.1H398c5.9,0,10.6,1,14.4,2.9,8.8,4.4,12.5,13.6,12.5,26.7S420.2,364.3,412.5,368.4Z" transform="translate(-78.5 -101.2)"/></svg>