<svg xmlns="http://www.w3.org/2000/svg" viewBox="0 0 277 310.5"><title>thor</title><path d="M400,455.3c-8.9-10.1-17.7-19.4-28.8-27.4a227.6,227.6,0,0,0-26.5-16.3c-18.5-9.9-34.3-21.8-46.7-36.5a119.9,119.9,0,0,1-25.8-54c-3.7-17.9-4.1-36.1-.4-54.1,2.7-13,3.9-23.4,2.9-33.4-1.3-13.6-7.1-25.2-13.3-37.1l44.3-39.7c9.1,3.9,18.2,7.7,28,9.8,14.6,3.1,29.8,2.3,43.2-4.5,8.8-4.4,15.8-10.9,23-17.4,7.2,6.5,14.2,13,23,17.4,13.4,6.7,28.6,7.5,43.2,4.5,9.8-2.1,18.9-5.8,28-9.8l44.3,39.7c-6.2,11.9-11.9,23.5-13.3,37.1-1,9.9.2,20.4,2.9,33.4,3.7,17.9,3.2,36.2-.4,54.1a119.9,119.9,0,0,1-25.8,54c-12.4,14.7-28.2,26.6-46.7,36.5a227.5,227.5,0,0,0-26.5,16.3C417.7,435.9,408.9,445.2,400,455.3Z" transform="translate(-261.5 -144.7)" fill="red"/><path d="M400,442.8c-15.2-17.2-31.3-27.8-51.3-38.5-35.1-18.9-60-44.9-68.3-84.9-3.5-16.8-3.9-33.9-.4-50.8,5.7-27.6,5.2-44.6-8.2-70.2l35.6-31.9c16.1,6.9,32.8,11.5,50.6,9.6s29.7-9.1,42-20.2c12.4,11.2,25.1,18.4,42,20.2s34.4-2.7,50.6-9.6l35.6,31.9C514.8,224,514.3,241,520,268.6c3.5,16.9,3,33.9-.4,50.8-8.2,40-33.1,66-68.3,84.9C431.3,415,415.2,425.6,400,442.8Z" transform="translate(-261.5 -144.7)" fill="#fff"/><path d="M400,430.4c13.7-14.4,30-24.1,47.4-33.5,33-17.7,56.4-41.7,64.1-79.2a117.2,117.2,0,0,0,.5-47.4c-5.4-26.2-6.2-45.4,5.9-69.9L491,176.2c-16.8,6.9-33.8,9.9-49.9,8.2A76.5,76.5,0,0,1,400,167a76.5,76.5,0,0,1-41.1,17.4c-16.1,1.7-33-1.3-49.9-8.2l-26.9,24.1c12.1,24.6,11.4,43.7,5.9,69.9a117.2,117.2,0,0,0,.5,47.4c7.7,37.5,31.1,61.5,64.1,79.2C370,406.3,386.3,416,400,430.4Z" transform="translate(-261.5 -144.7)" fill="red"/><path d="M498.9,315.6a102.1,102.1,0,0,1-37.1,57c-12-18.9-28-32.6-49.1-40.7S371,318,350.9,307.6a181.7,181.7,0,0,1-50.2-38A102.1,102.1,0,0,1,337,212.1l2.8,4.2c10.1,14.1,24,25.5,40.8,34.2,11.6,6.1,23.9,10.3,36.4,14.7,6.3,2.2,12.7,4.4,18.8,6.7a163.8,163.8,0,0,1,44.6,25.4A132.1,132.1,0,0,1,498.9,315.6Z" transform="translate(-261.5 -144.7)" fill="#fff"/><path d="M411.6,265.8c13,5.6,18.6,22,12.3,36.6s-21.9,22-34.9,16.5-18.6-22-12.4-36.6,22-22,35-16.5Zm-3.3,7.7c-6.1-2.6-14.6,3.8-19,14.2s-3.1,20.9,3,23.5,14.6-3.8,19-14.2S414.4,276.1,408.3,273.5Z" transform="translate(-261.5 -144.7)" fill="red"/><path d="M446.4,282c-4,16.4-12.9,32.2-27.2,47.4a81.5,81.5,0,0,1,16,9c.1-4.3,4.5-12.4,7.6-18.8h0c9.8,4.3,8.3,8.5,6.1,16.6-1.1,4-2,8.2-.3,11.3s6,6.3,12.5,5.2c-1.9-4-1.1-7.3-.5-10.5a35.3,35.3,0,0,0,.8-11.1c12.6-.2,22.6-11.3,18.3-22.6s-22.8-23-33.2-26.5Zm-.8,31.7c3.5-6.3,6.5-12,11-18.9,3.9,1.6,7.8,4.1,10.2,7.3,4.8,6.5.6,17.2-7.8,17.2C454.3,319.4,450,316.5,445.6,313.8Z" transform="translate(-261.5 -144.7)" fill="red"/><path d="M346,231.8c-5.7,15.9-16.8,31.2-32.7,44.8,5.5,4.8,10.1,8.9,15.9,12.4,1-3,2.2-6.2,3.4-9,8.9,5.5,22.6,10.6,30.9.6,10-12.2-.9-25.6-11.6-32.9,2.3-2.7,3.8-3.4,6.4-5.7A98.8,98.8,0,0,1,346,231.8Zm-10.6,41.6c4.9-5.8,9.9-13.1,12.3-20.4,7.9,5.1,10.9,14,4.4,20.7C347.8,278.2,341.3,276.7,335.5,273.4Z" transform="translate(-261.5 -144.7)" fill="red"/><path d="M381.3,265.1a8.3,8.3,0,0,1-7.8-.2,12.9,12.9,0,0,1,3.6-6.2C383.8,252.5,389.9,261.1,381.3,265.1Z" transform="translate(-261.5 -144.7)" fill="red"/><path d="M464.3,244.4,451.5,259a3.3,3.3,0,0,1-3.1.7L433,253.7c3.6,5.6,9.5,8.8,16.1,9.6a34.3,34.3,0,0,0,19-3.2l2.8-1.5A58.7,58.7,0,0,1,464.3,244.4Z" transform="translate(-261.5 -144.7)" fill="#fff"/><path d="M436.2,210c1.7.8,3.4,1.6,5,2.6l-1.5-3.6Z" transform="translate(-261.5 -144.7)" fill="#fff"/><path d="M353.9,201.2a101.5,101.5,0,0,1,29.2-9.7c1.8,3.5,3.5,7.1,5.2,10.6,2.6,5.5,5,11.1,7.2,16.8l-1.2,14a3.7,3.7,0,0,0,1.4,2.6l5.6,3.2c-11.4,4.1-18.9,7.2-29.7-4.9C363.6,224.9,358.9,212.2,353.9,201.2Z" transform="translate(-261.5 -144.7)" fill="#fff"/><path d="M361.5,229.5a93.9,93.9,0,0,1-16-17.2c-1-1.4-2-2.9-2.9-4.4l6.5-4.1C352.9,212.4,356.5,221.7,361.5,229.5Z" transform="translate(-261.5 -144.7)" fill="#fff"/><path d="M406.3,254.1c-5.2-1.9-10.3-3.9-15.2-6.2,3.8-.6,7.8-2.4,11.4-3.7s5.8-1.7,8.5-.4Z" transform="translate(-261.5 -144.7)" fill="#fff"/><path d="M422.6,259.8l-11-3.9,4.4-9.7,10.8,4.8Z" transform="translate(-261.5 -144.7)" fill="#fff"/><path d="M437.2,265.1l-9.3-3.4,1.6-3.5A25.6,25.6,0,0,0,437.2,265.1Z" transform="translate(-261.5 -144.7)" fill="#fff"/><path d="M500.6,277.1a103.3,103.3,0,0,1,0,29.9,145.4,145.4,0,0,0-15.8-15,166.4,166.4,0,0,0-40.2-23.9c9.9,2.5,21,.3,29.6-5C480.3,270.3,488.8,275.5,500.6,277.1Z" transform="translate(-261.5 -144.7)" fill="#fff"/><path d="M465.5,214.1a101.8,101.8,0,0,1,34.1,57.2C471.9,266.3,466,237.9,465.5,214.1Z" transform="translate(-261.5 -144.7)" fill="#fff"/><path d="M424.8,193.2a100.8,100.8,0,0,1,35.1,16.6,153.4,153.4,0,0,0,1.1,18.8,79.1,79.1,0,0,0-11.7-10.8L444,204.6a3,3,0,0,0-3.3-1.6l-10.8,3.1A77.3,77.3,0,0,0,424.8,193.2Z" transform="translate(-261.5 -144.7)" fill="#fff"/><path d="M400,190.1a103,103,0,0,1,17.9,1.6,106.2,106.2,0,0,1,6.2,14.2,89.8,89.8,0,0,0-24.7-2.5c-2.1,0-2.6,1.9-2.8,3.5-1-2.4-2.1-4.7-3.2-7.1s-2.9-6.2-4.4-9.1A102.4,102.4,0,0,1,400,190.1Z" transform="translate(-261.5 -144.7)" fill="#fff"/><path d="M402,208.8l-2,22.9c15.5,9,32,15.7,48.6,22.2L462,238.7C447.2,218.4,427,208.7,402,208.8Z" transform="translate(-261.5 -144.7)" fill="#fff"/><path d="M350.8,347.1a33,33,0,0,0-1.3,11.4C352.9,356.1,353,350.5,350.8,347.1Z" transform="translate(-261.5 -144.7)" fill="#fff"/><path d="M369.2,377.7c-.9-3.9-10-7.7-13.4-8.4s-2.4,1.3-1.2,2.9a14.2,14.2,0,0,0,5.2,4.1C363.6,378.1,368,378.2,369.2,377.7Z" transform="translate(-261.5 -144.7)" fill="#fff"/><path d="M356.9,362.5c1.3,3,5.4,4.9,8.5,5.8,1.5.4,8.8,1.3,9.3.1s-1.3-2.6-4-4-9.2-3.6-12.4-5S356,360.4,356.9,362.5Z" transform="translate(-261.5 -144.7)" fill="#fff"/><path d="M373.5,358.3c-2.4-5.3-7.3-5-12.4-6.2.5,2.4,2.7,3.7,4.9,5A10.8,10.8,0,0,0,373.5,358.3Z" transform="translate(-261.5 -144.7)" fill="#fff"/><path d="M389.4,343.7l5.2-11.2,15.7,5.8a91.7,91.7,0,0,1,34.6,23.4c-7.5-1.3-15.5.2-23.2,0a89.1,89.1,0,0,1-12.3-1.1C404.9,352.8,397.4,347.3,389.4,343.7Z" transform="translate(-261.5 -144.7)" fill="#fff"/><path d="M374.4,338.6l5.1-11.4,9.9,3.5-5.1,10.8C381,340.4,377.7,339.4,374.4,338.6Z" transform="translate(-261.5 -144.7)" fill="#fff"/><path d="M311.6,342.1A101.4,101.4,0,0,1,299.2,278c9.1,9.3,12.7,10.3,11.2,25.2A151.7,151.7,0,0,0,311.6,342.1Z" transform="translate(-261.5 -144.7)" fill="#fff"/><path d="M350.8,380.3c-.9-1.3-1.3-3.2.1-3.6s12.4,6,13.9,8.1C360.9,387.5,353.3,383.8,350.8,380.3Z" transform="translate(-261.5 -144.7)" fill="#fff"/><path d="M425.4,390.4a101.5,101.5,0,0,1-49.1.4c-3.5-.8-2.8-8.3-1.2-10.4a5.2,5.2,0,0,1,2.8-1.8c2.6-.6,5.6.4,6.2-.4s-.9-3.7-1.3-4.8a70.7,70.7,0,0,1-2.3-8.6l-.5-2.4c-1.2-5.9-3.4-9.5-6.2-11.1-5.2-3.1-11.9-1.2-13.8-9.2a34.5,34.5,0,0,1,16,1.5,85.8,85.8,0,0,1,13.1,6.4c6.3,3.6,11.6,6.9,15.5,13.4a128.9,128.9,0,0,0,12,17.2C419.3,383.8,422.2,387.1,425.4,390.4Z" transform="translate(-261.5 -144.7)" fill="#fff"/><path d="M456.2,376.6a100.5,100.5,0,0,1-24.7,12A142.5,142.5,0,0,1,420.9,377a122.5,122.5,0,0,1-7.7-10.4c2.8.3,5.6.5,8.4.5a140.1,140.1,0,0,0,14.1-.4C446.3,365.9,450.7,367.9,456.2,376.6Z" transform="translate(-261.5 -144.7)" fill="#fff"/><path d="M349.4,314.6a248,248,0,0,0,24.8,10.7l-5,11.1H369a46.2,46.2,0,0,0-9.7.2c-4.3.5-6.4,0-5.1,5.9a15,15,0,0,1-6.9-9.7C346.3,327.8,347,321.6,349.4,314.6Z" transform="translate(-261.5 -144.7)" fill="#fff"/><path d="M344.6,377.1c-26.6-17.4-30.3-35.7-28.4-63.1a188.5,188.5,0,0,1,2.3-18.9,202.7,202.7,0,0,0,26,16.9c-2.9,8.3-3.9,15.7-2.5,21.9a20.9,20.9,0,0,0,4.4,9,36.1,36.1,0,0,0-2.4,14.2,55.5,55.5,0,0,0,3,14.9A8.5,8.5,0,0,0,344.6,377.1Z" transform="translate(-261.5 -144.7)" fill="#fff"/></svg>