<svg xmlns="http://www.w3.org/2000/svg" xmlns:xlink="http://www.w3.org/1999/xlink" viewBox="0 0 451.8 331.1"><defs><linearGradient id="a" x1="122.67" y1="107.95" x2="181.67" y2="107.95" gradientUnits="userSpaceOnUse"><stop offset="0" stop-color="#d2d5d8"/><stop offset="0.26" stop-color="#c4c6c9"/><stop offset="0.77" stop-color="#9ea0a3"/><stop offset="1" stop-color="#8a8c8f"/></linearGradient><linearGradient id="b" x1="185.39" y1="109.79" x2="282.14" y2="109.79" xlink:href="#a"/><linearGradient id="c" x1="268.52" y1="83.69" x2="338.98" y2="83.69" xlink:href="#a"/><linearGradient id="d" x1="334.83" y1="116.24" x2="357.18" y2="116.24" xlink:href="#a"/><linearGradient id="e" x1="234.36" y1="178.93" x2="258.11" y2="178.93" xlink:href="#a"/><linearGradient id="f" x1="256.81" y1="287.23" x2="266.62" y2="287.23" xlink:href="#a"/><linearGradient id="g" x1="384.55" y1="173.28" x2="384.55" y2="365.74" gradientTransform="matrix(0.96, 0.28, 0.28, -0.96, -89.38, 369.83)" gradientUnits="userSpaceOnUse"><stop offset="0.57" stop-color="#006cb7"/><stop offset="0.88" stop-color="#d7dff2"/></linearGradient><linearGradient id="h" x1="384.55" y1="240.36" x2="384.55" y2="379.91" gradientTransform="matrix(0.96, 0.28, 0.28, -0.96, -89.38, 369.83)" gradientUnits="userSpaceOnUse"><stop offset="0" stop-color="#ee3b34"/><stop offset="0.85" stop-color="#ffd9cc"/></linearGradient><linearGradient id="i" x1="384.55" y1="181.97" x2="384.55" y2="255.19" gradientTransform="matrix(0.96, 0.28, 0.28, -0.96, -89.38, 369.83)" gradientUnits="userSpaceOnUse"><stop offset="0" stop-color="#7a7b7f"/><stop offset="0.5"/><stop offset="1" stop-color="#7a7b7f"/></linearGradient></defs><title>thorka</title><path d="M241.8,307.5c-71.5,0-129.7-58.4-129.7-130.2S170.2,47,241.8,47s129.8,58.4,129.8,130.3S313.3,307.5,241.8,307.5Z" transform="translate(-18.2 -45.5)" fill="#fff"/><path d="M241.8,48.5c70.8,0,128.3,57.6,128.3,128.8S312.6,306,241.8,306,113.5,248.4,113.5,177.3,170.9,48.5,241.8,48.5m0-3A131.5,131.5,0,0,0,110.5,177.3,131.3,131.3,0,1,0,334.6,84.1a130.1,130.1,0,0,0-92.8-38.6Z" transform="translate(-18.2 -45.5)"/><line x1="233.3" y1="215" x2="245.6" y2="215.3" fill="none" stroke="#000" stroke-miterlimit="10"/><line x1="209.3" y1="133.5" x2="244.6" y2="128.5" fill="none" stroke="#000" stroke-miterlimit="10"/><path d="M250.8,81l11,9.5a116.9,116.9,0,0,1,18.5,23.3l5.5,9.3" transform="translate(-18.2 -45.5)" fill="none" stroke="#000" stroke-miterlimit="10"/><path d="M198.3,91.5l-8.1,11.1c-3.3,4.5-5.7,8.4-7.6,14.7l-1.8,5.3" transform="translate(-18.2 -45.5)" fill="none" stroke="#000" stroke-miterlimit="10"/><path d="M160.1,77.5l7.9-3.1a23.5,23.5,0,0,1,8.6-1.6h3.5" transform="translate(-18.2 -45.5)" fill="none" stroke="#000" stroke-miterlimit="10"/><path d="M263.9,57.1l6.1-1.2c4.7-.5,9.4.1,14.1.7l5.3.7" transform="translate(-18.2 -45.5)" fill="none" stroke="#000" stroke-miterlimit="10"/><path d="M330.1,131.9l7-14.1a64.4,64.4,0,0,0,3.5-10.9l1.8-11.2" transform="translate(-18.2 -45.5)" fill="none" stroke="#000" stroke-miterlimit="10"/><path d="M203.5,54.1l-11.8,8.2L188.2,65l-8.8,7.5,18.8,19.8,18.4-5.1c1.3-.4,16.2-3.5,17.6-3.6l18-1.5,13.5-25.4-22.3-8.9h-8.9c-2.4,0-22.8,3-25.1,3.7Z" transform="translate(-18.2 -45.5)"/><path d="M285.1,121.8l-8,20.5,24.4.7a49.9,49.9,0,0,0,12.9-1.3l19.6-4.6-3.6-6.2-17.7-5.7a86.7,86.7,0,0,0-18.2-2.9Z" transform="translate(-18.2 -45.5)"/><path d="M181.7,79.2l-13.4,4.9a42.6,42.6,0,0,0-10.8,5.8c-28.1,21-34.9,50.3-34.9,50.3l4-12.6C140.5,89.2,167.4,77.1,172,76a9.7,9.7,0,0,1,8.8,2.5Z" transform="translate(-18.2 -45.5)" fill="url(#a)"/><path d="M282,123.9a3,3,0,0,0-.5-2.8l-8.2-12.9c-.5-.7-9.5-11.4-10.1-12L253.8,87c-1.7-1.9-13.3-2.8-15.9-2.2l-34.6,7.8c-1.3.3-5.5,4.1-6.2,5.3l-11.6,18.5c-.1.2.5,1.1.7.9l12.8-15a19.5,19.5,0,0,1,6.8-5.3c15.1-5.9,35-9.4,40.4-7.2,14.5,6,29.9,23.8,32.2,45.4Z" transform="translate(-18.2 -45.5)" fill="url(#b)"/><path d="M335.9,108.9l3.1-10.2a1.1,1.1,0,0,0-.3-1.1s-17-23.3-47.6-36.2c-5-2.1-8.2-3-13.6-3.1l-8.5.3c-.5,0-.7,2.1-.2,2.2l8.4,1c2,.1,14.6,3.6,29.7,13.7,26.4,17.6,27.3,33.5,27.3,33.5S335.8,109.2,335.9,108.9Z" transform="translate(-18.2 -45.5)" fill="url(#c)"/><path d="M334.8,127.1l4.7-10.4q.9-1.9,1.6-3.9l2.6-7.5a.4.4,0,0,1,.7-.1l6.3,8.6a19.4,19.4,0,0,1,1.4,2.2l5,9.1a.3.3,0,0,1-.4.5l-9.5-4a4.2,4.2,0,0,0-4.1.4l-7.9,5.5A.3.3,0,0,1,334.8,127.1Z" transform="translate(-18.2 -45.5)" fill="url(#d)"/><path d="M234.4,180.6l22.6.6a1.1,1.1,0,0,0,1.1-1.2l-.2-2.2a1.1,1.1,0,0,0-1.3-1l-22.3,3.7A.1.1,0,0,0,234.4,180.6Z" transform="translate(-18.2 -45.5)" fill="url(#e)"/><path d="M260.5,272.9l1.7,24.3a1.4,1.4,0,0,1-.7,1.3l-4.7,2.7a.2.2,0,0,0,.1.3l8.8-1.4a1,1,0,0,0,.8-1.2l-6-26Z" transform="translate(-18.2 -45.5)" fill="url(#f)"/><path d="M196,375.7c-9.6-5.2-18.9-9.8-29.6-12.9a184.8,184.8,0,0,0-24.7-5c-16.9-2.4-32.2-7-45.8-14.8a97.3,97.3,0,0,1-34.8-34A108.4,108.4,0,0,1,45.8,268c-1.6-10.6-3.6-18.9-7.1-26.2-4.8-10-12.5-17.2-20.5-24.5l22.7-42.6c8,.5,16,.8,24-.4,12-1.7,23.3-6.6,31.7-15.5,5.5-5.8,9-12.7,12.7-19.7,7.3,2.9,14.5,5.9,22.4,6.8,12.1,1.4,23.9-2.3,34.2-8.7,6.9-4.3,12.7-9.7,18.6-15.3l44.9,17.9c-1.4,10.8-2.6,21.2.2,32,2,7.9,5.9,15.5,11.5,24.6a108.4,108.4,0,0,1,14.8,41.3,97.3,97.3,0,0,1-4.6,48.4c-5.3,14.7-14.1,28.1-25.4,40.9a184.7,184.7,0,0,0-15.6,19.8C204.1,356,200,365.6,196,375.7Z" transform="translate(-18.2 -45.5)" fill="red"/><path d="M192.5,366.2c-16.4-8.8-31.6-12.4-49.9-15-32.1-4.6-58.3-17.4-75.7-45.6A100.9,100.9,0,0,1,52.4,267c-3.4-22.6-8.5-35.4-25.8-51.2l18.2-34.2c14.2.8,28.2-.4,41.2-6.8s20.1-15.2,26.4-27.2c12.6,5.1,24.3,7,37.7,3.7s25.5-11.7,35.9-21.5l36,14.4c-3,23.2,1.4,36.4,13.4,55.8a100.9,100.9,0,0,1,13.8,38.8c4.9,32.8-6.8,59.6-28.3,83.8C208.6,336.3,199.4,348.9,192.5,366.2Z" transform="translate(-18.2 -45.5)" fill="#fff"/><path d="M189.1,356.8c6.4-14.8,16.1-26.8,26.8-38.8,20.2-22.7,31.3-47.5,26.7-78.3a95.2,95.2,0,0,0-12.9-36.3c-11.5-18.4-17.4-32.8-15-55l-27.2-10.9c-10.9,9.9-23,17-35.7,20.1a62.1,62.1,0,0,1-36.2-1.8A62.1,62.1,0,0,1,89,180.8c-11.8,5.8-25.5,8.2-40.3,7.7L35,214.3c16.1,15.3,20.9,30.2,24,51.7a95.2,95.2,0,0,0,13.6,36c16.4,26.5,40.9,38.2,71,42.5C159.5,346.8,174.6,349.7,189.1,356.8Z" transform="translate(-18.2 -45.5)" fill="red"/><path d="M232.4,241.6A82.9,82.9,0,0,1,220,295.4c-14.4-11.1-30.5-17-48.8-17.4s-35.7,1.2-53.9-1.2a147.5,147.5,0,0,1-48.9-14.9,82.9,82.9,0,0,1,11.6-54l3.3,2.4c11.6,7.9,25.4,12.7,40.6,14.7,10.6,1.4,21.1,1.2,31.9,1,5.4-.1,10.9-.2,16.2-.1a133,133,0,0,1,41.1,6.9A107.2,107.2,0,0,1,232.4,241.6Z" transform="translate(-18.2 -45.5)" fill="#fff"/><path d="M152,228.1c11.5.6,20.3,11.6,19.6,24.5s-10.6,22.9-22,22.3-20.3-11.6-19.7-24.4,10.6-22.9,22.1-22.4Zm-.4,6.8c-5.3-.3-10.1,7-10.5,16.1s3.5,16.8,8.9,17.1,10.1-7,10.5-16.1S156.9,235.2,151.6,234.9Z" transform="translate(-18.2 -45.5)" fill="red"/><path d="M183,230.7c1.5,13.6-.8,28.2-7.5,43.7a66.2,66.2,0,0,1,14.7,2.4c-1.1-3.3,0-10.7.5-16.5h0c8.7.6,8.7,4.1,9.3,11,.3,3.4.8,6.8,2.9,8.7s6.3,3.1,11,.4c-2.5-2.5-2.9-5.3-3.3-7.9a28.6,28.6,0,0,0-2.5-8.7c9.5-3.7,14-14.9,7.6-22.4S192,230.5,183,230.7Zm8.3,24.4c.9-5.8,1.6-11,3.1-17.5a19.3,19.3,0,0,1,9.8,2.7c5.5,3.6,5.3,12.9-1.2,15.3C199.5,257,195.4,256,191.3,255.1Z" transform="translate(-18.2 -45.5)" fill="red"/><path d="M92.5,220.4c.1,13.7-4.1,28.5-12.4,43.3,5.5,2.1,10.2,4,15.6,5-.1-2.6,0-5.3.1-7.8,8.3,1.7,20.2,1.8,23.7-8.2,4.2-12.1-7.9-19.3-18-21.8,1-2.7,1.9-3.6,3.3-6.1a80.2,80.2,0,0,1-12.3-4.3Zm3.6,34.7c2.1-5.8,3.9-12.8,3.6-19,7.4,1.7,12.2,7.7,9.2,14.6C106.8,255.3,101.4,256,96.1,255.1Z" transform="translate(-18.2 -45.5)" fill="red"/><path d="M128.7,236a6.8,6.8,0,0,1-6,2,10.5,10.5,0,0,1,1-5.7C127,225.7,134.1,230.6,128.7,236Z" transform="translate(-18.2 -45.5)" fill="red"/><path d="M186.2,197.1l-5.7,14.7a2.7,2.7,0,0,1-2.2,1.4l-13.4-.3a17.6,17.6,0,0,0,14.9,2.9,27.9,27.9,0,0,0,13.6-7.7,19.3,19.3,0,0,0,1.7-1.9A47.6,47.6,0,0,1,186.2,197.1Z" transform="translate(-18.2 -45.5)" fill="#fff"/><path d="M155.1,178.7l4.6.5-2.1-2.3Z" transform="translate(-18.2 -45.5)" fill="#fff"/><path d="M90,194.9a82.4,82.4,0,0,1,19.6-15.5l6.9,6.6c3.5,3.5,7,7.1,10.2,10.8l3,11a3,3,0,0,0,1.8,1.6l5.1.9c-7.5,6.3-12.4,10.7-24,4.6C103.9,210.3,96.8,201.9,90,194.9Z" transform="translate(-18.2 -45.5)" fill="#fff"/><path d="M103.6,214.4a76.2,76.2,0,0,1-17-8.6l-3.4-2.5c1.2-1.7,2.5-3.3,3.8-4.9C92.3,203.7,97.6,209.8,103.6,214.4Z" transform="translate(-18.2 -45.5)" fill="#fff"/><path d="M144.7,220.6c-4.5,0-8.9-.1-13.3-.5,2.7-1.5,5.2-4,7.6-6s3.9-2.9,6.4-2.7Z" transform="translate(-18.2 -45.5)" fill="#fff"/><path d="M158.6,220.4h-9.5l.6-8.6,9.6.7Z" transform="translate(-18.2 -45.5)" fill="#fff"/><path d="M171.2,220.4h-8.1l.3-3.1A20.8,20.8,0,0,0,171.2,220.4Z" transform="translate(-18.2 -45.5)" fill="#fff"/><path d="M223,211.8a83.9,83.9,0,0,1,8.3,22.8,118.1,118.1,0,0,0-16.2-7,135.1,135.1,0,0,0-37.3-7,32,32,0,0,0,21.1-12.1C205.6,212.3,213.5,213.9,223,211.8Z" transform="translate(-18.2 -45.5)" fill="#fff"/><path d="M178.6,173.6a82.6,82.6,0,0,1,42,34.1C198,211.6,185.7,191.6,178.6,173.6Z" transform="translate(-18.2 -45.5)" fill="#fff"/><path d="M141.7,169.1a81.8,81.8,0,0,1,31.4,2.8,124.5,124.5,0,0,0,6.1,14,64.2,64.2,0,0,0-11.9-5l-7.7-8.5a2.5,2.5,0,0,0-3-.3l-7.3,5.4A62.7,62.7,0,0,0,141.7,169.1Z" transform="translate(-18.2 -45.5)" fill="#fff"/><path d="M122,173.6a83.7,83.7,0,0,1,14.1-3.8,86.2,86.2,0,0,1,8.7,9.1,72.9,72.9,0,0,0-19.5,5c-1.6.6-1.5,2.2-1.1,3.5l-4.4-4.5-5.9-5.7A83.2,83.2,0,0,1,122,173.6Z" transform="translate(-18.2 -45.5)" fill="#fff"/><path d="M128.7,187.3l4.9,18c14.3,2.5,28.8,3,43.2,3.4l6-15.3C165.9,182,147.8,180.3,128.7,187.3Z" transform="translate(-18.2 -45.5)" fill="#fff"/><path d="M128.3,307a26.8,26.8,0,0,0,2.2,9.1C132.4,313.3,131,309,128.3,307Z" transform="translate(-18.2 -45.5)" fill="#fff"/><path d="M150.9,325.2c-1.8-2.7-9.8-3.1-12.6-2.7s-1.4,1.7-.1,2.6a11.5,11.5,0,0,0,5.1,1.7C146.7,327.1,150.1,325.9,150.9,325.2Z" transform="translate(-18.2 -45.5)" fill="#fff"/><path d="M137.3,317.1c1.8,1.9,5.5,2.3,8.1,2.1s7.1-1.5,7.1-2.6-1.7-1.6-4.2-2-8-.2-10.9-.4S136,315.7,137.3,317.1Z" transform="translate(-18.2 -45.5)" fill="#fff"/><path d="M148.7,309.2c-3.3-3.4-7-1.7-11.2-1.3,1,1.7,3.1,2,5.1,2.5A8.7,8.7,0,0,0,148.7,309.2Z" transform="translate(-18.2 -45.5)" fill="#fff"/><path d="M156.7,293.6l.9-10h13.5a74.4,74.4,0,0,1,32.9,8.2c-6.1,1.1-11.8,4.5-17.7,6.4a72.3,72.3,0,0,1-9.7,2.6C171.1,296.3,163.9,294.2,156.7,293.6Z" transform="translate(-18.2 -45.5)" fill="#fff"/><path d="M143.9,293.9l.7-10.1h8.5l-.8,9.7C149.5,293.5,146.7,293.6,143.9,293.9Z" transform="translate(-18.2 -45.5)" fill="#fff"/><path d="M97.1,314.2a82.3,82.3,0,0,1-27.3-45.4c9.5,4.6,12.6,4.3,15.5,16.1A123.2,123.2,0,0,0,97.1,314.2Z" transform="translate(-18.2 -45.5)" fill="#fff"/><path d="M137.6,332.4c-1.1-.7-1.9-2.1-.9-2.7s11.1,1.1,12.9,2.3C147.3,335,140.4,334.3,137.6,332.4Z" transform="translate(-18.2 -45.5)" fill="#fff"/><path d="M197.3,319.2a82.4,82.4,0,0,1-37.3,14c-2.9.3-4.4-5.5-3.8-7.6a4.2,4.2,0,0,1,1.6-2.1c1.8-1.2,4.4-1.3,4.6-2.1s-1.7-2.6-2.3-3.3a57.4,57.4,0,0,1-4.1-5.9l-1.1-1.7c-2.6-4.1-5.3-6.3-7.8-6.7-4.9-.9-9.4,2.4-13.1-3.2a28,28,0,0,1,12.6-3.4,69.7,69.7,0,0,1,11.8,1.2c5.8,1,10.8,2,15.5,5.9a104.7,104.7,0,0,0,13.9,9.8C190.8,315.9,194,317.6,197.3,319.2Z" transform="translate(-18.2 -45.5)" fill="#fff"/><path d="M216.9,300a81.6,81.6,0,0,1-15.5,16.1,115.7,115.7,0,0,1-11.3-5.8,99.4,99.4,0,0,1-8.8-5.8c2.2-.6,4.4-1.2,6.5-1.9a113.8,113.8,0,0,0,10.6-4.2C206.4,294.7,210.3,295,216.9,300Z" transform="translate(-18.2 -45.5)" fill="#fff"/><path d="M118.2,282.6a201.3,201.3,0,0,0,21.9,1.2l-.7,9.9h-.2a37.5,37.5,0,0,0-7.3,2.8c-3.1,1.6-4.9,1.8-2.2,5.9a12.1,12.1,0,0,1-8-5.5C119.5,293.5,118.3,288.6,118.2,282.6Z" transform="translate(-18.2 -45.5)" fill="#fff"/><path d="M132,331.6c-25.1-5.8-33.1-18.7-39.3-40.2a153.1,153.1,0,0,1-3.5-15,164.6,164.6,0,0,0,24.5,5.6c.1,7.1,1.4,13.1,4.2,17.4a16.9,16.9,0,0,0,5.8,5.6,29.3,29.3,0,0,0,2.2,11.5,45.1,45.1,0,0,0,6.5,10.6A6.9,6.9,0,0,0,132,331.6Z" transform="translate(-18.2 -45.5)" fill="#fff"/><path d="M384.2,113c9.7,18.6,21,34.5,35.8,49.3s31.5,26.5,50,36.4a343.5,343.5,0,0,1-24.4,56,272.4,272.4,0,0,1-33.9,47.7A279.6,279.6,0,0,1,368,342.1c-18.5,13.6-38.5,24.7-59.2,34.4-12.4-19.2-23.5-39.2-32-60.6a279.5,279.5,0,0,1-16-56.8,272.3,272.3,0,0,1-3.5-58.4c.9-20.4,4.3-40.5,8.9-60.5a213.9,213.9,0,0,0,61.6-4.4C348.3,131.3,366.1,123.7,384.2,113Z" transform="translate(-18.2 -45.5)"/><path d="M383.2,116.7a191.3,191.3,0,0,0,35.1,47.4,208.1,208.1,0,0,0,48.6,35.7,325.4,325.4,0,0,1-23.6,53.5A271.8,271.8,0,0,1,366.4,340a343.7,343.7,0,0,1-56.8,33.3A339.1,339.1,0,0,1,279.1,315a271.8,271.8,0,0,1-19.4-114.1,325.6,325.6,0,0,1,8.4-57.9,208.1,208.1,0,0,0,60.2-4.6A191.3,191.3,0,0,0,383.2,116.7Z" transform="translate(-18.2 -45.5)" fill="#fff"/><path d="M381.5,122.5a191.7,191.7,0,0,1-52.3,20,207.6,207.6,0,0,1-57.7,4.9,310.6,310.6,0,0,0-7.5,53.7,267.7,267.7,0,0,0,19,112.4,330.2,330.2,0,0,0,28.2,54.4,330.1,330.1,0,0,0,52.7-31.2,267.7,267.7,0,0,0,75.6-85.3,310.6,310.6,0,0,0,22.1-49.5,207.6,207.6,0,0,1-46.3-34.8,191.7,191.7,0,0,1-33.8-44.6Z" transform="translate(-18.2 -45.5)"/><path d="M380.5,126a196.6,196.6,0,0,1-50.7,19,212.7,212.7,0,0,1-56.3,5.2,308.3,308.3,0,0,0-6.9,51,262.7,262.7,0,0,0,3.4,56.4,270.8,270.8,0,0,0,15.5,54.9,325.2,325.2,0,0,0,26.7,52.1,325.3,325.3,0,0,0,50.2-30,270.8,270.8,0,0,0,42.2-38.4A262.8,262.8,0,0,0,437.3,250a308.3,308.3,0,0,0,21.2-47,212.7,212.7,0,0,1-45.1-34.2A196.6,196.6,0,0,1,380.5,126Z" transform="translate(-18.2 -45.5)" fill="url(#g)"/><path d="M374.8,146a236.2,236.2,0,0,0,28.4,34.3,245.4,245.4,0,0,0,36.5,29.4c-4,9.7-8.3,19.2-13.3,28.5a248.4,248.4,0,0,1-31.7,46.2,252.3,252.3,0,0,1-45.4,40.8,348.4,348.4,0,0,1-31.3,19.4,348.2,348.2,0,0,1-16.3-33.1,252.3,252.3,0,0,1-16.9-58.7,248.4,248.4,0,0,1-2.4-56c.7-10.5,2.2-20.8,3.9-31.2a245.4,245.4,0,0,0,46.5-5.6A236.3,236.3,0,0,0,374.8,146Z" transform="translate(-18.2 -45.5)"/><path d="M371.5,157.5a227,227,0,0,1-37,11.6,238.6,238.6,0,0,1-40.5,5.4q-1.9,12.5-2.7,25a239.1,239.1,0,0,0,2.5,51.7,247.6,247.6,0,0,0,15.3,54.2,274.2,274.2,0,0,0,12.5,26.4q12.6-7.3,24.5-15.8a247.6,247.6,0,0,0,41.6-37.9,239.1,239.1,0,0,0,29.5-42.5q6-11,11-22.6a238.7,238.7,0,0,1-31.5-26.1A227.1,227.1,0,0,1,371.5,157.5Z" transform="translate(-18.2 -45.5)" fill="url(#h)"/><path d="M372.4,154.4q-8.7,3.7-17.6,6.6a234.5,234.5,0,0,1-42.3,9.5q-10.3,1.4-20.7,1.7a258.8,258.8,0,0,0-3.2,53.8,240,240,0,0,0,8.1,51.3,270.4,270.4,0,0,0,23.7,58.2,270.5,270.5,0,0,0,50.9-36.8,240,240,0,0,0,34-39.2,258.8,258.8,0,0,0,25.8-47.3q-8.6-5.9-16.6-12.4a234.4,234.4,0,0,1-30.7-30.4Q377.8,162.1,372.4,154.4Zm1.5-5.3c4.1,6,8.5,11.8,13.2,17.4a230,230,0,0,0,30.3,29.9c6.2,5.1,12.6,9.7,19.2,14.1A269.9,269.9,0,0,1,409,261.9a242.7,242.7,0,0,1-34.7,39.9c-16.9,15.6-35.5,28.3-55.5,39.4-11.1-20-20.1-40.7-26.2-62.8a242.6,242.6,0,0,1-8.3-52.2,269.9,269.9,0,0,1,3.8-58.1c8-.3,15.8-.8,23.8-1.8a230,230,0,0,0,41.5-9.3C360.4,154.7,367.2,151.9,373.9,149.1Z" transform="translate(-18.2 -45.5)" fill="#fff"/><path d="M330.3,301.3A36.6,36.6,0,1,0,305.2,256,36.6,36.6,0,0,0,330.3,301.3Z" transform="translate(-18.2 -45.5)" fill="url(#i)"/><path d="M349.7,233.4a34.3,34.3,0,0,1,9.7,4.5l-4.5,6.1a5.1,5.1,0,0,1-2.4,1.8,6.3,6.3,0,0,1-3,.1,28.1,28.1,0,0,1-6.2-1.8,6.3,6.3,0,0,1-2.5-1.6,5.1,5.1,0,0,1-1.1-2.8l-.6-7.6A34.3,34.3,0,0,1,349.7,233.4Z" transform="translate(-18.2 -45.5)" fill="#7e5342"/><path d="M361.4,239.3a34.3,34.3,0,0,1,12.8,23.1l-10.5.7-2,.3-6.5-16.3a8.2,8.2,0,0,0,1.8-1.8Z" transform="translate(-18.2 -45.5)" fill="#7e5342"/><path d="M374.4,264.9a34.7,34.7,0,0,1-1.3,10.5,34.3,34.3,0,0,1-4.4,9.6l-8.6-6.2a3.6,3.6,0,0,1-1.7-2.9,24.6,24.6,0,0,1,2.5-8.8,3.6,3.6,0,0,1,3-1.5Z" transform="translate(-18.2 -45.5)" fill="#7e5342"/><path d="M367.2,287.1a34.2,34.2,0,0,1-23.1,12.8l-.6-7.6a8.5,8.5,0,0,0-.6-2.4L357,279.6a7.3,7.3,0,0,0,1.6,1.3Z" transform="translate(-18.2 -45.5)" fill="#7e5342"/><path d="M341.5,300.1a34.1,34.1,0,0,1-20.3-5.8l4.5-6.1a5.2,5.2,0,0,1,2.4-1.9,6.8,6.8,0,0,1,3-.1,32.7,32.7,0,0,1,6.2,1.8,6.8,6.8,0,0,1,2.5,1.6,5.2,5.2,0,0,1,1.1,2.8Z" transform="translate(-18.2 -45.5)" fill="#7e5342"/><path d="M319.3,292.8a34.5,34.5,0,0,1-12.8-23.1L317,269l2-.3,6.5,16.3a7.6,7.6,0,0,0-1.8,1.7Z" transform="translate(-18.2 -45.5)" fill="#7e5342"/><path d="M306.3,267.2a34.3,34.3,0,0,1,1.3-10.5,34.7,34.7,0,0,1,4.4-9.6l8.6,6.2a3.6,3.6,0,0,1,1.7,2.9,24.6,24.6,0,0,1-2.5,8.8,3.6,3.6,0,0,1-3,1.5Z" transform="translate(-18.2 -45.5)" fill="#7e5342"/><path d="M313.6,245a34.4,34.4,0,0,1,23.1-12.8l.6,7.6a7.3,7.3,0,0,0,.6,2.5l-14.2,10.4a8.3,8.3,0,0,0-1.6-1.4Z" transform="translate(-18.2 -45.5)" fill="#7e5342"/><path d="M341.5,287.8l11.1-8.1a55.6,55.6,0,0,1-29.8-8.5l5.1,12.7a8.5,8.5,0,0,1,3.8-.1,29.3,29.3,0,0,1,6.7,1.9,8.5,8.5,0,0,1,3.1,2.1" transform="translate(-18.2 -45.5)" fill="#7e5342"/><path d="M339.2,244.3l-11,8a55.6,55.6,0,0,1,29.8,8.5l-5.1-12.7a9,9,0,0,1-3.8.1,33.6,33.6,0,0,1-6.7-1.9,9,9,0,0,1-3.2-2" transform="translate(-18.2 -45.5)" fill="#7e5342"/><path d="M357,269.5a15.2,15.2,0,0,1,1.7-3.7l.4-.6c-7.5-6.8-24.5-11.7-34.4-9.9v.8a17.3,17.3,0,0,1-.6,4.1l2.4.7.2-.6a1.3,1.3,0,1,1,2.4.7l-.2.6,2.7.8.2-.6a1.3,1.3,0,1,1,2.4.7l-.2.6,2.7.8.2-.6a1.3,1.3,0,1,1,2.4.7l-.2.6,2.6.7.2-.6a1.3,1.3,0,1,1,2.4.7l-.2.6,2.7.8.2-.6a1.3,1.3,0,1,1,2.4.7l-.2.6,2.7.8.2-.6a1.3,1.3,0,1,1,2.4.7l-.2.6" transform="translate(-18.2 -45.5)" fill="#7e5342"/><path d="M321.5,267c7.5,6.8,24.5,11.7,34.4,9.9v-.8a15.7,15.7,0,0,1,.5-4.1l-2.4-.7-.2.6a1.3,1.3,0,1,1-2.4-.7l.2-.6-2.7-.8-.2.6a1.3,1.3,0,1,1-2.4-.7l.2-.6-2.7-.8-.2.6a1.3,1.3,0,1,1-2.4-.7l.2-.6-2.6-.7-.2.6a1.3,1.3,0,1,1-2.4-.7l.2-.6-2.7-.8-.2.6a1.3,1.3,0,1,1-2.4-.7l.2-.6-2.7-.8-.2.6a1.3,1.3,0,1,1-2.4-.7l.2-.6-2.4-.7a17.6,17.6,0,0,1-1.7,3.8Z" transform="translate(-18.2 -45.5)" fill="#7e5342"/><path d="M330.3,187l-2.6,8.9c-.1.4-.1.5.4.4a19,19,0,0,0,9.4-4.9,29,29,0,0,0,7.1-10.8,6.4,6.4,0,0,1,4.6-4.2l6-1.8c2-.6,4.1-1.2,6-1.9,4.2-1.5,5.6.5,4.3,4.5a37.4,37.4,0,0,1-9.7,15.3,62.6,62.6,0,0,1-14.3,10.1l6.3,12.1c1.9,3.7,1.2,6.8-3.4,6.4l-3.9-.2h-3.9c-2.9-.1-3.8-1.1-5.2-3.4l-1.6-3.1c-.8-1.5-1.9-4.2-3.4-5.1s-2.6.9-3,2.3l-3.4,11.9a5.7,5.7,0,0,1-2.7,3.8,49.2,49.2,0,0,0-8.8,6.9c-1.5,1.5-4.1,2.3-5.8.6s-1-3.1-.5-4.8l12.3-42.9c1.1-3.1,1.8-4,5.2-4.5l7.3-1.2c1.9-.3,3,0,3.6.8s.4,2.9-.2,4.7" transform="translate(-18.2 -45.5)"/><path d="M380,232.6a71.9,71.9,0,0,0-7.2-7c-.7-.5-.8,0-1.2.5a10.4,10.4,0,0,1-2,2.1,3.7,3.7,0,0,1-4.5.2l-4.8-2.8c-3.3-1.6-1.2-5.4,0-7.7L371.8,198c-1.3-4.4-1.6-8.6,0-12.9s3.9-5.2,6.6-2.1A190.7,190.7,0,0,0,395.2,200c3.3,2.8,3.2,3.7,2.7,7.9L392,254.3c-.3,2.4-.9,5.1-3.8,5.4s-3.4-1.4-3.9-3.5a43.5,43.5,0,0,0-1.5-5.1q-1-2.7-2.3-5.3c-1.1-2.3-.5-3.3-.2-5.4l.4-3.8c.1-1.3.3-3-.6-4Zm3.3-21.9c.1-1.4-.1-2.3-1.2-.9s-3,4.6-3.1,4.8a.9.9,0,0,0,0,1.4l2.8,2.3c.6.5.8.1.9-.6C383,215.3,383.1,213,383.4,210.7Z" transform="translate(-18.2 -45.5)"/><path d="M383.1,237.1l-.3,3.5c-.1,1.4-.6,2.8,0,4.2a57.6,57.6,0,0,1,2.4,5.6,47,47,0,0,1,1.7,5.5c.2.7.5,1.4,1.1,1.5s1.6-2.2,1.6-3.1l5.8-46.7c.3-3,.8-3.4-1.7-5.4-6.2-5-11.9-11.4-17.2-17.3-1.2-1.4-1.8,0-2.3,1.3-1.5,4.2-1,8.1.4,12.3l-11.9,20.7c-.4.7-2.4,3.8-1.3,4.4a45.3,45.3,0,0,1,5.1,3c.7.5,1.4.1,2.1-.6s1.4-2,2.3-2.8,1.5-.9,3.5.7A70.4,70.4,0,0,1,382,231c1.7,1.8,1.4,3.9,1.2,6.1m1.1-16.1c-.8,1-1.9,1.1-3.4-.2l-3.4-2.8c-2.7-2-1.8-3-.4-5.3l2.1-3.3c.7-1.1,2.6-3.8,4.8-3.2s1.8,2.5,1.8,4.2a47.2,47.2,0,0,1-.6,6.7c-.4,2.5-.3,3.3-.8,3.8" transform="translate(-18.2 -45.5)" fill="#fff"/><path d="M352.6,223.2a4.3,4.3,0,1,0-2.5-4.6,4.3,4.3,0,0,0,2.5,4.6" transform="translate(-18.2 -45.5)"/><path d="M353.3,220.9a1.9,1.9,0,0,0,2.3-1.3h0a1.9,1.9,0,1,0-2.3,1.3Z" transform="translate(-18.2 -45.5)" fill="#fff"/><path d="M397.3,254.4a4.3,4.3,0,1,0-3-5.3,4.2,4.2,0,0,0,2.8,5.3Z" transform="translate(-18.2 -45.5)"/><path d="M398,252.1a1.9,1.9,0,1,0-1.3-2.3,1.9,1.9,0,0,0,1.3,2.3" transform="translate(-18.2 -45.5)" fill="#fff"/><path d="M326.9,184.1l-6.9,1.1c-2.4.3-2.4.7-3.2,2.9L304.4,231c-.2.5-.5,1.6-.3,2.1s1.8.1,2.2-.4a50.5,50.5,0,0,1,9.3-7.3,3.4,3.4,0,0,0,1.6-2.3l3.4-12c.9-3,3.4-5.7,6.8-3.7s3.3,4.1,4.4,6.2l1.5,3c1,1.8,1.2,2.2,3.3,2.2a20.9,20.9,0,0,0,3.6-.3h4c2.3.2,1.9-.7.9-2.7l-6.9-13.3-.6-1.2,1.2-.6a62.4,62.4,0,0,0,14.8-10.3,34.9,34.9,0,0,0,9-14.1c.7-2,1.2-2.3-.9-1.5l-6.1,2-6.1,1.7a3.8,3.8,0,0,0-2.9,2.7,31.2,31.2,0,0,1-7.7,11.7,21.4,21.4,0,0,1-11.1,5.6c-2.5.5-3.5-.8-2.9-3l2.7-9.5c.2-.8.5-1.5.3-1.9s-.4-.4-1.3-.2" transform="translate(-18.2 -45.5)" fill="#fff"/></svg>