<svg xmlns="http://www.w3.org/2000/svg" viewBox="0 0 297 242.6"><title>drangey</title><path d="M137.1,154a4.2,4.2,0,0,1,0-2c.1-1.5-.3-2.6-1.9-2.9s.5-3.3-1.5-4.3-2.2-.9-3,.8-.6,5.5-.6,8.4h-5.6l-1.5-1.2c-1.2-.8-3-1.2-2.5-3.3,0-.2-.2-.4-.3-.6-1.6-3.4-2.7-6.8-2.3-10.7s-1.1-3.9-3.8-3.9h-10c-1.3,0-3,1.6-4-.6-.1-.1-.7,0-1,0-2.7-.2-5.4.6-7.8-1.3h-.5c-5,.4-10-.5-15,.6s-7.3.9-10.9,1.3-3.1,1.1-3.1,3.2v2.3a11.8,11.8,0,0,0-2.5-1c-1.5-.3-2.7-.6-2.7-2.3a18.9,18.9,0,0,0-3.8-.9,37.8,37.8,0,0,0-11.1,1.1c-1.4.4-2.9.2-4,1.4s-.8.1-1.3.1l-6.1-.6a4.4,4.4,0,0,0-2.1.7l-4.7,2.5c-.4,1.5-.9,3.5-1.3,5.6a5,5,0,0,0,.1,1.7,7.8,7.8,0,0,1,.4,2.1c-.2,1.2-.4,2.5-.7,3.8H2v3H299v-3Z" transform="translate(-2 -31.6)"/><path d="M160.6,31.6H172c105.6,10.1,113.2,120.1,77.5,166.2l-3.7,4.4L227,193.3c-26.2-11.2-64.8-7.4-73.4-5.8l-13.1,2.7,7.4-5.1c33.2-24.2,63.6-89.2,19.4-145l-6.7-8.5" transform="translate(-2 -31.6)" fill="#4403be"/><path d="M216.3,77.9h10.1c27.9,0,77.7,37.9,55.1,94a44.2,44.2,0,0,1-5.6,9.9l-3.3,4.5-1.1,1.4-2.7-.8c-21.7-10.1-38.8-12.9-62-6.9h-2.2l.8-1,10.4-8.8a39.3,39.3,0,0,0,5.4-6.1c13.9-19.1,20.4-47,3.3-75.3l-3.6-5.1c-.9-1.4-2-2.4-2.4-3l-2.2-2.8" transform="translate(-2 -31.6)" fill="#27f2ff"/><g style="isolation:isolate"><path d="M105.7,254.1a17.7,17.7,0,0,1-.8,5.7,10.4,10.4,0,0,1-2.4,4.1,10.1,10.1,0,0,1-4,2.4,17.5,17.5,0,0,1-5.6.8H87.5a1.4,1.4,0,0,1-.8-.3,1.2,1.2,0,0,1-.4-1.1V243.2a1.2,1.2,0,0,1,.4-1.1,1.4,1.4,0,0,1,.8-.3h5.7a15.8,15.8,0,0,1,5.6.9,10.2,10.2,0,0,1,3.8,2.4,10.4,10.4,0,0,1,2.3,3.9,15.6,15.6,0,0,1,.8,5.1m-3.5.1a13.7,13.7,0,0,0-.5-3.8,8.3,8.3,0,0,0-1.6-3.1,7.3,7.3,0,0,0-2.7-2,10.8,10.8,0,0,0-4.3-.7H89.6v19.7h3.5a11.8,11.8,0,0,0,4.1-.6,6.6,6.6,0,0,0,2.8-1.9,8.2,8.2,0,0,0,1.7-3.1,15.8,15.8,0,0,0,.6-4.5" transform="translate(-2 -31.6)"/><path d="M120.8,250.2c0,.3,0,.5,0,.7a1.3,1.3,0,0,1-.1.5l-.2.3h-.6l-.5-.2-.6-.2H118l-1,.2-1,.6-1.1,1.2-1.2,1.8v11.6a.4.4,0,0,1-.1.3l-.2.2h-2.6l-.2-.2a.4.4,0,0,1-.1-.3V249a.5.5,0,0,1,.1-.3l.2-.2h2.3l.2.2a.4.4,0,0,1,.1.3v2.6a13.1,13.1,0,0,1,1.4-1.7l1.2-1,1.1-.5h2.4l.6.2.4.2.2.2v.2a2.8,2.8,0,0,1,0,.4,7,7,0,0,1,0,.7" transform="translate(-2 -31.6)"/><path d="M136.9,266.6a.4.4,0,0,1-.2.4l-.4.2h-1.6l-.4-.2a.5.5,0,0,1-.1-.4v-1.8a8.5,8.5,0,0,1-2.6,1.9,6.7,6.7,0,0,1-3,.7,8.2,8.2,0,0,1-2.5-.4,5.4,5.4,0,0,1-1.9-1,4.7,4.7,0,0,1-1.2-1.7,5.6,5.6,0,0,1-.4-2.3,5.2,5.2,0,0,1,.6-2.6,5,5,0,0,1,1.7-1.8,8.5,8.5,0,0,1,2.8-1.1,17.2,17.2,0,0,1,3.7-.4h2.4v-1.4a7,7,0,0,0-.2-1.8,3.1,3.1,0,0,0-.7-1.3,3,3,0,0,0-1.2-.8,6,6,0,0,0-1.9-.3,7.4,7.4,0,0,0-2.1.3l-1.7.6-1.2.6-.7.3h-.3l-.2-.2v-.4a3,3,0,0,1,0-.5,3.1,3.1,0,0,1,.1-.8,1.2,1.2,0,0,1,.3-.5l.9-.6,1.5-.6,1.8-.5,2-.2a10.4,10.4,0,0,1,3.2.4,5.3,5.3,0,0,1,2.1,1.3,4.8,4.8,0,0,1,1.2,2.1,9.9,9.9,0,0,1,.4,2.9v11.9Zm-3.2-8h-2.7l-2.3.2a4.8,4.8,0,0,0-1.6.7,2.7,2.7,0,0,0-.9,1,3.2,3.2,0,0,0-.3,1.4,2.8,2.8,0,0,0,.9,2.2,3.4,3.4,0,0,0,2.4.8,4.5,4.5,0,0,0,2.4-.6,10.5,10.5,0,0,0,2.3-2v-3.7Z" transform="translate(-2 -31.6)"/><path d="M157.9,266.6a.4.4,0,0,1-.1.3l-.2.2H155l-.2-.2a.5.5,0,0,1-.1-.3V256.3a10.5,10.5,0,0,0-.2-2.4,4.8,4.8,0,0,0-.7-1.6,3.1,3.1,0,0,0-1.2-1,3.6,3.6,0,0,0-1.6-.4,4.2,4.2,0,0,0-2.4.9,13,13,0,0,0-2.5,2.5v12.3a.4.4,0,0,1-.1.3l-.2.2h-2.6l-.2-.2a.4.4,0,0,1-.1-.3V249a.5.5,0,0,1,.1-.3l.2-.2h2.3l.2.2a.4.4,0,0,1,.1.3v2.3a10.7,10.7,0,0,1,3-2.4,6.4,6.4,0,0,1,3-.8,6.6,6.6,0,0,1,3,.6,5.3,5.3,0,0,1,1.9,1.6,6.3,6.3,0,0,1,1.1,2.3,14.1,14.1,0,0,1,.3,3.2v10.7" transform="translate(-2 -31.6)"/><path d="M178.5,249.8a1.9,1.9,0,0,1-.2,1,.5.5,0,0,1-.5.3h-2.5a4.1,4.1,0,0,1,1,1.6,5.5,5.5,0,0,1,.3,1.8,6.9,6.9,0,0,1-.5,2.7,5.3,5.3,0,0,1-1.4,2,6.4,6.4,0,0,1-2.2,1.2,8.4,8.4,0,0,1-2.8.4,7.1,7.1,0,0,1-2-.3,4.4,4.4,0,0,1-1.5-.7l-.6.8a2.3,2.3,0,0,0-.2,1,1.3,1.3,0,0,0,.6,1.1,3.1,3.1,0,0,0,1.7.5l4.6.2a9.9,9.9,0,0,1,2.4.4,5.7,5.7,0,0,1,1.9.9,4.4,4.4,0,0,1,1.3,1.5,4.3,4.3,0,0,1,.4,2,5.3,5.3,0,0,1-.5,2.3,5.4,5.4,0,0,1-1.6,1.9,7.7,7.7,0,0,1-2.7,1.3,13.6,13.6,0,0,1-3.8.5,15.6,15.6,0,0,1-3.6-.4,7.8,7.8,0,0,1-2.4-1,3.9,3.9,0,0,1-1.4-1.5,4.1,4.1,0,0,1-.4-1.9,4.7,4.7,0,0,1,.2-1.2,4.4,4.4,0,0,1,.5-1.1l.8-1,1.1-1a3.5,3.5,0,0,1-1.4-1.2,2.9,2.9,0,0,1-.5-1.6,4.5,4.5,0,0,1,.5-2.1,7.3,7.3,0,0,1,1.2-1.7,6,6,0,0,1-1-1.6,6,6,0,0,1-.4-2.2,6.8,6.8,0,0,1,.5-2.7,5.7,5.7,0,0,1,1.4-2,6.1,6.1,0,0,1,2.2-1.3,8.3,8.3,0,0,1,2.7-.4h1.5l1.3.2h5.3a.5.5,0,0,1,.5.3,2.2,2.2,0,0,1,.2,1m-3.4,18.6a2,2,0,0,0-.9-1.7,4.7,4.7,0,0,0-2.5-.6l-4.6-.2-1,.9-.6.8a3.1,3.1,0,0,0-.3.8,3.6,3.6,0,0,0-.1.8,2.1,2.1,0,0,0,1.3,1.9,8.2,8.2,0,0,0,3.6.6,9,9,0,0,0,2.4-.3,4.7,4.7,0,0,0,1.6-.7,2.8,2.8,0,0,0,.9-1.1,3.1,3.1,0,0,0,.3-1.3m-1.6-13.9a3.8,3.8,0,0,0-1-2.8,3.8,3.8,0,0,0-2.8-1,3.9,3.9,0,0,0-1.6.3,3.2,3.2,0,0,0-1.1.9,3.7,3.7,0,0,0-.7,1.3,4.9,4.9,0,0,0-.2,1.5,3.7,3.7,0,0,0,1,2.7,3.7,3.7,0,0,0,2.8,1,4.2,4.2,0,0,0,1.7-.3,3,3,0,0,0,1.2-.8,3.6,3.6,0,0,0,.7-1.2,4.7,4.7,0,0,0,.2-1.5" transform="translate(-2 -31.6)"/><path d="M197.3,257a1.2,1.2,0,0,1-1.2,1.4H184.5a11.2,11.2,0,0,0,.3,2.6,5.1,5.1,0,0,0,1,2,4.4,4.4,0,0,0,1.8,1.3,7.1,7.1,0,0,0,2.7.5l2.2-.2,1.7-.5,1.2-.5.7-.2h.3l.2.2v.4a5,5,0,0,1,0,.6,3,3,0,0,1,0,.4v.6l-.2.2-.6.4-1.4.5-1.9.4-2.4.2a10.7,10.7,0,0,1-3.8-.6,7,7,0,0,1-2.7-1.8,7.8,7.8,0,0,1-1.7-3,13.9,13.9,0,0,1-.6-4.2,13.2,13.2,0,0,1,.6-4.1,8.6,8.6,0,0,1,1.7-3.1,7.4,7.4,0,0,1,2.7-1.9,8.8,8.8,0,0,1,3.5-.7,8.5,8.5,0,0,1,3.5.7,6.6,6.6,0,0,1,2.4,1.8,7.4,7.4,0,0,1,1.4,2.6,11.3,11.3,0,0,1,.4,3.2v.6Zm-3.2-1a5.9,5.9,0,0,0-1.1-4,4.3,4.3,0,0,0-3.5-1.4,4.6,4.6,0,0,0-2.1.4,4.6,4.6,0,0,0-1.5,1.2,5.4,5.4,0,0,0-.9,1.7,7.1,7.1,0,0,0-.4,2.1h9.6" transform="translate(-2 -31.6)"/><path d="M210,267.1l-2.3,6.5a.9.9,0,0,1-.6.5l-1.5.2h-.8l-.5-.2-.2-.3a.9.9,0,0,1,.1-.5l2.4-6.1-.3-.2-.2-.4-6.3-16.8a2.1,2.1,0,0,1-.2-.6.5.5,0,0,1,.2-.4l.5-.2h2.4l.3.2.2.4,5,14.1h.1l4.8-14.2a.9.9,0,0,1,.3-.5l.5-.2h1.9l.5.2a.5.5,0,0,1,.2.4,1.9,1.9,0,0,1-.1.6L210,267.1" transform="translate(-2 -31.6)"/></g><g style="isolation:isolate"><path d="M83.6,225.5a3.6,3.6,0,0,1-.3,1.6,3.5,3.5,0,0,1-.9,1.2,3.9,3.9,0,0,1-1.4.7l-1.7.2H78.1l-1-.3-.7-.3-.4-.3-.2-.3a1.6,1.6,0,0,1-.1-.5,2,2,0,0,1,0-.4v-.2h.2l.4.2.6.4.9.4,1.3.2h1l.8-.4a1.7,1.7,0,0,0,.5-.7,2.3,2.3,0,0,0,.2-.9,1.7,1.7,0,0,0-.2-.9l-.6-.7-.9-.5L79,223l-1-.6-.9-.7a3.3,3.3,0,0,1-.7-1,3.1,3.1,0,0,1-.2-1.3,3.3,3.3,0,0,1,.3-1.4,2.9,2.9,0,0,1,.8-1,3.6,3.6,0,0,1,1.2-.6l1.5-.2h.8l.8.2.7.3.4.2h.2v.2a2.9,2.9,0,0,1,0,.3c0,.1,0,.2,0,.3v.2h-.5l-.6-.3-.8-.3H79l-.6.4a1.5,1.5,0,0,0-.4.6,2,2,0,0,0-.1.7,1.7,1.7,0,0,0,.2.9l.7.7.9.5,1.1.5,1.1.6.9.7a3.1,3.1,0,0,1,.7,1,3.2,3.2,0,0,1,.3,1.3" transform="translate(-2 -31.6)"/><path d="M87.6,217a1.1,1.1,0,0,1-.2.8,1.1,1.1,0,0,1-.8.2l-.8-.2a1,1,0,0,1-.2-.8,1.1,1.1,0,0,1,.2-.8,1.1,1.1,0,0,1,.8-.2l.8.2a1,1,0,0,1,.2.8m-.2,11.8H85.8a.2.2,0,0,1,0-.1V220h1.6v8.8" transform="translate(-2 -31.6)"/><path d="M97.7,220.4a1,1,0,0,1-.1.5H96.1a1.9,1.9,0,0,1,.5.8,2.9,2.9,0,0,1,.1.9,3.5,3.5,0,0,1-.2,1.4,2.7,2.7,0,0,1-.7,1,3,3,0,0,1-1.1.6l-1.4.2h-1l-.7-.4-.3.4a1.1,1.1,0,0,0-.1.5.7.7,0,0,0,.3.6l.8.2h2.3l1.2.2.9.5a2.1,2.1,0,0,1,.6.7,2.2,2.2,0,0,1,.2,1,2.7,2.7,0,0,1-.2,1.1,2.6,2.6,0,0,1-.8,1,3.8,3.8,0,0,1-1.3.6l-1.9.2-1.8-.2-1.2-.5a1.8,1.8,0,0,1-.7-.7,2.1,2.1,0,0,1-.2-.9,2.7,2.7,0,0,1,.1-.6l.2-.6.4-.5.6-.5a1.7,1.7,0,0,1-.7-.6,1.5,1.5,0,0,1-.2-.8,2.3,2.3,0,0,1,.2-1.1l.6-.8a2.9,2.9,0,0,1-.5-.8,3,3,0,0,1-.2-1.1,3.4,3.4,0,0,1,.3-1.4,2.9,2.9,0,0,1,.7-1,3,3,0,0,1,1.1-.6l1.4-.2h4.1l.3.2a1.3,1.3,0,0,1,.1.5M96,229.6a1,1,0,0,0-.5-.9,2.5,2.5,0,0,0-1.2-.3H92l-.5.5-.3.4-.2.4a1.8,1.8,0,0,0,0,.4,1,1,0,0,0,.6,1,4,4,0,0,0,1.8.3h1.2l.8-.4a1.2,1.2,0,0,0,.4-.5,1.7,1.7,0,0,0,.1-.6m-.8-7a1.7,1.7,0,0,0-1.9-1.9l-.8.2-.6.4a1.6,1.6,0,0,0-.3.6,2.7,2.7,0,0,0-.1.8,1.7,1.7,0,0,0,1.9,1.9h.8l.6-.4a1.8,1.8,0,0,0,.3-.6,2.6,2.6,0,0,0,.1-.7" transform="translate(-2 -31.6)"/><path d="M101.4,228.8H99.8a.2.2,0,0,1,0-.1V215.7h1.6v13.1" transform="translate(-2 -31.6)"/><path d="M106.2,217a1.1,1.1,0,0,1-.2.8,1.1,1.1,0,0,1-.8.2l-.8-.2a1,1,0,0,1-.2-.8,1.1,1.1,0,0,1,.2-.8,1.1,1.1,0,0,1,.8-.2l.8.2a1,1,0,0,1,.2.8m-.2,11.8h-1.6a.2.2,0,0,1,0-.1V220H106v8.8" transform="translate(-2 -31.6)"/><path d="M116.5,228.8h-1.6v-5.1a4.9,4.9,0,0,0-.1-1.2,2.6,2.6,0,0,0-.3-.8l-.6-.5-.8-.2a2.1,2.1,0,0,0-1.2.4,6.8,6.8,0,0,0-1.3,1.3v6.1H109a.2.2,0,0,1,0-.1V220h1.5v1.2a5.5,5.5,0,0,1,1.5-1.2,3.2,3.2,0,0,1,1.5-.4,3.3,3.3,0,0,1,1.5.3,2.6,2.6,0,0,1,1,.8,3.2,3.2,0,0,1,.5,1.2,6.8,6.8,0,0,1,.2,1.6v5.4Z" transform="translate(-2 -31.6)"/><path d="M126.8,220.4a1,1,0,0,1-.1.5h-1.5a1.9,1.9,0,0,1,.5.8,2.9,2.9,0,0,1,.1.9,3.5,3.5,0,0,1-.2,1.4,2.7,2.7,0,0,1-.7,1,3,3,0,0,1-1.1.6l-1.4.2h-1l-.7-.4-.3.4a1.1,1.1,0,0,0-.1.5.7.7,0,0,0,.3.6l.8.2h2.3l1.2.2.9.5a2.1,2.1,0,0,1,.6.7,2.2,2.2,0,0,1,.2,1,2.7,2.7,0,0,1-.2,1.1,2.6,2.6,0,0,1-.8,1,3.8,3.8,0,0,1-1.3.6l-1.9.2-1.8-.2-1.2-.5a1.8,1.8,0,0,1-.7-.7,2.1,2.1,0,0,1-.2-.9,2.7,2.7,0,0,1,.1-.6l.2-.6.4-.5.6-.5a1.7,1.7,0,0,1-.7-.6,1.5,1.5,0,0,1-.2-.8,2.3,2.3,0,0,1,.2-1.1l.6-.8a2.9,2.9,0,0,1-.5-.8,3,3,0,0,1-.2-1.1,3.4,3.4,0,0,1,.3-1.4,2.9,2.9,0,0,1,.7-1,3,3,0,0,1,1.1-.6l1.4-.2h4.1l.3.2a1.3,1.3,0,0,1,.1.5m-1.7,9.3a1,1,0,0,0-.5-.9,2.5,2.5,0,0,0-1.2-.3h-2.3l-.5.5-.3.4-.2.4a1.8,1.8,0,0,0,0,.4,1,1,0,0,0,.6,1,4,4,0,0,0,1.8.3h1.2l.8-.4a1.2,1.2,0,0,0,.4-.5,1.7,1.7,0,0,0,.1-.6m-.8-7a1.7,1.7,0,0,0-1.9-1.9l-.8.2-.6.4a1.6,1.6,0,0,0-.3.6,2.7,2.7,0,0,0-.1.8,1.7,1.7,0,0,0,1.9,1.9h.8l.6-.4a1.8,1.8,0,0,0,.3-.6,2.6,2.6,0,0,0,.1-.7" transform="translate(-2 -31.6)"/><path d="M135.1,228.8v.2h-1.2v-1.1a4.3,4.3,0,0,1-1.3,1,3.4,3.4,0,0,1-1.5.3l-1.2-.2-1-.5a2.4,2.4,0,0,1-.6-.8,2.7,2.7,0,0,1-.2-1.1,2.6,2.6,0,0,1,.3-1.3,2.4,2.4,0,0,1,.9-.9l1.4-.5,1.9-.2h1.2v-.7a3.5,3.5,0,0,0-.1-.9,1.5,1.5,0,0,0-.4-.6l-.6-.4h-2l-.8.3-.6.3h-.6v-.2a2.1,2.1,0,0,1,0-.3,1.5,1.5,0,0,1,0-.4l.2-.3.4-.3.7-.3.9-.2h1l1.6.2a2.5,2.5,0,0,1,1.1.6,2.6,2.6,0,0,1,.6,1,4.8,4.8,0,0,1,.2,1.4v5.9Zm-1.6-4H131l-.8.3-.5.5a1.6,1.6,0,0,0-.1.7,1.4,1.4,0,0,0,.4,1.1,1.7,1.7,0,0,0,1.2.4,2.3,2.3,0,0,0,1.2-.3,4.9,4.9,0,0,0,1.1-1v-1.9Z" transform="translate(-2 -31.6)"/><path d="M145.3,228.8h-1.9l-3.7-4.9v4.9h-1.6a.2.2,0,0,1,0-.1V215.7h1.6v7.9L143,220l.2-.2H145v.2l-.2.3-3.2,3.2,3.6,4.6.2.3v.2" transform="translate(-2 -31.6)"/><path d="M148.8,228.8h-1.6a.2.2,0,0,1,0-.1V215.7h1.6v13.1" transform="translate(-2 -31.6)"/><path d="M159.3,228.8h-1.5v-1.2a5.6,5.6,0,0,1-1.5,1.2,3.2,3.2,0,0,1-1.5.4,3.4,3.4,0,0,1-1.5-.3,2.5,2.5,0,0,1-1-.8,3.2,3.2,0,0,1-.5-1.2,6.9,6.9,0,0,1-.2-1.6V220h1.6v5.1a5.8,5.8,0,0,0,.1,1.2,2.5,2.5,0,0,0,.3.8l.6.5.8.2a2.1,2.1,0,0,0,1.2-.4,6.8,6.8,0,0,0,1.3-1.3V220h1.6v8.8Zm-3-13.1v-.2h1.6v.2l-1.8,2.3v.2h-1.2a.1.1,0,0,1,0-.1v-.2l1.4-2.2" transform="translate(-2 -31.6)"/><path d="M170.4,224.2a7.7,7.7,0,0,1-.2,2.1,4.7,4.7,0,0,1-.7,1.6,3.2,3.2,0,0,1-1.2,1,3.6,3.6,0,0,1-1.6.3h-.8l-.7-.3-.7-.5-.7-.7v1.1h-1.4V215.7h1.6V221l.8-.7.7-.4.7-.2h.7a3.4,3.4,0,0,1,1.6.4,3.1,3.1,0,0,1,1.1,1,4.6,4.6,0,0,1,.6,1.5,7.6,7.6,0,0,1,.2,1.8m-1.7.2a8,8,0,0,0-.1-1.3,3.7,3.7,0,0,0-.4-1.1,2.2,2.2,0,0,0-.7-.8,1.8,1.8,0,0,0-1.1-.3h-.6l-.6.3-.6.5-.7.8v3.5a7,7,0,0,0,1.3,1.2,2.1,2.1,0,0,0,1.3.4,1.8,1.8,0,0,0,1-.3,2.2,2.2,0,0,0,.7-.8,3.8,3.8,0,0,0,.4-1.1,6.2,6.2,0,0,0,.1-1.2" transform="translate(-2 -31.6)"/><path d="M180.9,224.2a7.7,7.7,0,0,1-.2,2.1,4.7,4.7,0,0,1-.7,1.6,3.2,3.2,0,0,1-1.2,1,3.6,3.6,0,0,1-1.6.3h-.8l-.7-.3-.7-.5-.7-.7v1.1h-1.4V215.7h1.6V221l.8-.7.7-.4.7-.2h.7a3.4,3.4,0,0,1,1.6.4,3.1,3.1,0,0,1,1.1,1,4.6,4.6,0,0,1,.6,1.5,7.6,7.6,0,0,1,.2,1.8m-1.7.2a8,8,0,0,0-.1-1.3,3.7,3.7,0,0,0-.4-1.1,2.2,2.2,0,0,0-.7-.8,1.8,1.8,0,0,0-1.1-.3h-.6l-.6.3-.6.5-.7.8v3.5a7,7,0,0,0,1.3,1.2,2.1,2.1,0,0,0,1.3.4,1.8,1.8,0,0,0,1-.3,2.2,2.2,0,0,0,.7-.8,3.8,3.8,0,0,0,.4-1.1,6.2,6.2,0,0,0,.1-1.2" transform="translate(-2 -31.6)"/><path d="M190.8,228.8h-1.5v-1.2a5.6,5.6,0,0,1-1.5,1.2,3.2,3.2,0,0,1-1.5.4,3.4,3.4,0,0,1-1.5-.3,2.5,2.5,0,0,1-1-.8,3.2,3.2,0,0,1-.5-1.2,6.9,6.9,0,0,1-.2-1.6V220h1.6v5.1a5.8,5.8,0,0,0,.1,1.2,2.5,2.5,0,0,0,.3.8l.6.5.8.2a2.1,2.1,0,0,0,1.2-.4,6.8,6.8,0,0,0,1.3-1.3V220h1.6v8.8Z" transform="translate(-2 -31.6)"/><path d="M198.9,220.5c0,.1,0,.3,0,.4v.2h-1.8l-.5.3-.5.6-.6.9v5.8h-1.6V220h1.4v1.3l.7-.9.6-.5.6-.3h1.8v.6" transform="translate(-2 -31.6)"/><path d="M202.6,217a1.1,1.1,0,0,1-.2.8,1.1,1.1,0,0,1-.8.2l-.8-.2a1,1,0,0,1-.2-.8,1.1,1.1,0,0,1,.2-.8,1.1,1.1,0,0,1,.8-.2l.8.2a1.1,1.1,0,0,1,.2.8m-.2,11.8h-1.6V220h1.6v8.8" transform="translate(-2 -31.6)"/><path d="M212.9,228.8h-1.6v-5.1a4.9,4.9,0,0,0-.1-1.2,2.6,2.6,0,0,0-.3-.8l-.6-.5-.8-.2a2.1,2.1,0,0,0-1.2.4,6.8,6.8,0,0,0-1.3,1.3v6.1h-1.6V220h1.4v1.2a5.6,5.6,0,0,1,1.5-1.2,3.2,3.2,0,0,1,1.5-.4,3.3,3.3,0,0,1,1.5.3,2.6,2.6,0,0,1,1,.8,3.1,3.1,0,0,1,.5,1.2,6.8,6.8,0,0,1,.2,1.6v5.4Z" transform="translate(-2 -31.6)"/><path d="M223.4,228.8h-1.6v-5.1a4.9,4.9,0,0,0-.1-1.2,2.6,2.6,0,0,0-.3-.8l-.6-.5-.8-.2a2.1,2.1,0,0,0-1.2.4,6.8,6.8,0,0,0-1.3,1.3v6.1h-1.6V220h1.4v1.2a5.6,5.6,0,0,1,1.5-1.2,3.2,3.2,0,0,1,1.5-.4,3.3,3.3,0,0,1,1.5.3,2.6,2.6,0,0,1,1,.8,3.1,3.1,0,0,1,.5,1.2,6.8,6.8,0,0,1,.2,1.6v5.4Z" transform="translate(-2 -31.6)"/></g></svg>