<svg xmlns="http://www.w3.org/2000/svg" viewBox="0 0 432.1 593.9"><title>gnupverjar</title><path d="M478.1,251.5c0,30.1,1,60.3-.2,90.4-3.9,94.9-72.5,176.2-165.3,197.2A213.4,213.4,0,0,1,54.4,366.2a199.7,199.7,0,0,1-2.7-32.4c-.3-54-.1-108-.1-162,0-108.1,78.8-198.2,185.9-212.4,112.6-15,218,62.2,237.5,174.3a247.5,247.5,0,0,1,3.3,37.8c.5,26.7.2,53.3.2,80Z" transform="translate(-48.5 46.6)" fill="#fff"/><path d="M480.2,250.9c0,30.5,1.1,61-.2,91.5-3.9,96-73.4,178.3-167.3,199.5A216,216,0,0,1,51.4,367a202.1,202.1,0,0,1-2.7-32.8c-.3-54.6-.1-109.3-.1-164,0-109.4,79.7-200.5,188.1-214.9C350.6-59.9,457.2,18.3,477,131.7a250.4,250.4,0,0,1,3.4,38.2c.5,27,.2,54,.2,81Zm-425.3-1c0,27.2-.3,54.3.1,81.5a239.6,239.6,0,0,0,2.9,34.8C76.5,480.4,187.1,558.4,300.8,537.7c101-18.4,173.1-104.5,173.2-207q.1-80,0-160a208.7,208.7,0,0,0-5.6-49.5C442.2,13.2,339.8-54.7,229.8-37.1,130.5-21.3,55.1,66.8,54.9,167.3,54.9,194.8,54.9,222.3,54.9,249.8Z" transform="translate(-48.5 46.6)" fill="#3046a9"/><path d="M64.1,222h66.6V159.3h15.2v14.3h78.9v16.6H398v31.7h66.8v5.7q0,51,0,102c0,99.1-68.3,181.1-165.8,199.1C193.1,548.1,87.8,476.1,68.1,370.2a244.1,244.1,0,0,1-3.8-40.7c-.5-34-.2-68-.2-102C64.1,225.9,64.1,224.2,64.1,222Z" transform="translate(-48.5 46.6)" fill="#3b8155"/><path d="M464.4,215.6h-6c0-2,0-3.8,0-5.6-.4-20.3,1.1-40.9-1.4-60.9-10-79-52.6-134.3-127.1-161.7C218.4-53.6,98.3,14.8,74.6,131.3c-3.1,15.2-3.1,31.1-3.9,46.7-.6,12.4-.1,24.9-.1,37.6H64.9c-.3-.4-.6-.7-.6-1,0-32.6-2-65.3,6.6-97.4,24-89,107.4-151.1,199.5-147.9,95.1,3.2,173.8,70.9,191.1,164.5a144.2,144.2,0,0,1,2.7,23.3C464.6,176.4,464.4,195.7,464.4,215.6Z" transform="translate(-48.5 46.6)" fill="#3b8155"/><path d="M449.1,215.5h-6.3c0-2.5.1-4.8,0-7.1-.5-20.8.3-41.8-1.9-62.4C432.7,72.2,373.4,9.1,300.3-5,203.6-23.7,113,34.7,90.7,130.5c-3.1,13.2-3.7,27-4.4,40.6s-.2,29.3-.2,44.4l-5.5.2c-.3-.6-.7-1.1-.7-1.5.3-21.1-.8-42.4,1.1-63.4,7-77.9,64.7-143.4,140.7-161C324.1-33.8,424.3,30,445.2,132.8c3,14.6,3,29.8,3.7,44.7C449.5,190,449.1,202.5,449.1,215.5Z" transform="translate(-48.5 46.6)" fill="#d31a3f"/><path d="M433.5,215.5H427c0-1.9,0-3.7,0-5.4-.3-18.6,1.1-37.5-1.1-55.9C418.1,86.3,381.7,39,317.5,16.2c-94.7-33.7-195,25.8-213,125-2.5,13.8-2,28.2-2.5,42.3-.4,10.5-.1,21-.1,31.8H96c-.2-.3-.5-.6-.5-.9.3-29.2-3-58.8,5.4-87.4C121.1,58.4,166.3,15.6,236.8,3.2,328-12.8,413,47.3,430.4,138.1c2.3,12.2,2.5,24.8,3,37.3S433.5,201.9,433.5,215.5Z" transform="translate(-48.5 46.6)" fill="#fdd40e"/><path d="M322.4,419.2c-.9,4.3-3.7,5.4-7.4,5s-5.4-2.5-5.1-6.1,3.4-5.4,7.1-5.1S322.5,415.7,322.4,419.2Z" transform="translate(-48.5 46.6)" fill="#3b8155"/><path d="M316.5,394.9c2.5,3.5,4.9,5.4,5.2,7.6s-2.1,5.5-5.6,5.4-5.9-2.4-5.2-5.8S313.8,398.2,316.5,394.9Z" transform="translate(-48.5 46.6)" fill="#3b8155"/><path d="M288.2,410.5c-.9,3.7-1.3,7.2-2.6,10.4a4.8,4.8,0,0,1-8.9,0c-2.9-6.9-3.1-14,.2-20.8,2-4.1,6.5-4.2,8.5,0S287.3,407.1,288.2,410.5Z" transform="translate(-48.5 46.6)" fill="#3b8155"/><path d="M251.4,404.1c0,4-3.2,4.3-5.9,4.3s-6-2.1-5.8-6,2.6-5.5,6-5.2S251.3,400.2,251.4,404.1Z" transform="translate(-48.5 46.6)" fill="#3b8155"/><path d="M233.3,322.2,207.2,294v56.4H183.6V258.1h20.5l29.1,33.6,29.1-33.5h20.5v92.1H259.7V293.7Z" transform="translate(-48.5 46.6)" fill="#fff"/><path d="M448.7,261.2v21.7c-12.1-2.1-24-5.1-36.1-5.9s-24.9,4.1-29.9,17.8c-3.8,10.5-2.7,20.8,6.1,29s25.6,10.4,37.8,4.7v-9.2l-12.5-.8V301.2h36.7c0,12.5,0,24.7-.1,37a4.5,4.5,0,0,1-1.9,2.8c-23.3,17.4-76.1,16.7-89.9-21.2-11.1-30.3,10.6-60.8,45.4-62.6C419,256.5,433.9,259.8,448.7,261.2Z" transform="translate(-48.5 46.6)" fill="#fff"/><path d="M80,258h24.1c0,16.3,0,32.4,0,48.5s7.1,25.3,22.3,25.2,22.6-8.1,22.6-25.1,0-32.2,0-48.6h25.5l-.7,57.3a30.6,30.6,0,0,1-9.9,22.3c-10,9.1-25.9,15.3-40.8,14.4C93.5,350.1,80,335.7,80,306,80,290.3,80,274.5,80,258Z" transform="translate(-48.5 46.6)" fill="#fff"/><path d="M318.5,295.1H349v17.6H318.3v37.5H294.5v-92H358v17.1H318.5Z" transform="translate(-48.5 46.6)" fill="#fff"/><path d="M210,395.5h6.1v33.1h-6.1Z" transform="translate(-48.5 46.6)" fill="#fff"/><path d="M236,423.7a16.6,16.6,0,0,0,3.5-.1,12.5,12.5,0,0,0,6.7-2.5,12.2,12.2,0,0,0,4.2-7.3h-.1a9.2,9.2,0,0,1-7.2,3c-5.8,0-10-4.2-10-10.3a11.7,11.7,0,0,1,12-11.8c7.7,0,11.8,6.1,11.8,14.1s-2.3,12.1-5.8,15.4a18.2,18.2,0,0,1-11.3,4.5,24.8,24.8,0,0,1-3.8.1Zm3.3-17.7c.1,3.4,2,6.1,5.4,6.1a6,6,0,0,0,5.3-2.7,3.8,3.8,0,0,0,.4-1.8c.1-4.5-1.6-8.3-5.7-8.3S239.2,402,239.2,406Z" transform="translate(-48.5 46.6)" fill="#fff"/><path d="M293.5,411.4c0,10.6-4.2,17.3-12.1,17.3s-11.7-6.9-11.8-17,4.4-17.2,12.1-17.2S293.5,401.6,293.5,411.4Zm-17.5.3c-.1,8,2.2,12.2,5.7,12.2s5.6-4.5,5.6-12.4-1.8-12.2-5.6-12.2S275.9,403.4,276,411.7Z" transform="translate(-48.5 46.6)" fill="#fff"/><path d="M304.5,419.7c0-4.1,2.4-6.9,6.2-8.6V411c-3.5-1.7-5-4.4-5-7.3,0-5.4,4.8-9.1,11-9.1s10.4,4.3,10.4,8.3-1.5,5.7-5.1,7.5v.2c3.6,1.4,6.3,4.2,6.3,8.3,0,5.9-5,9.9-12.1,9.9S304.5,424.3,304.5,419.7Zm17.5-.3c0-3.4-2.5-5.2-6.2-6.2-3.1.9-4.9,3.1-4.9,5.8a5.2,5.2,0,0,0,5.5,5.3C319.7,424.3,321.9,422.3,321.9,419.4Zm-10.3-16c0,2.7,2.2,4.3,5.4,5.2a5.4,5.4,0,0,0,4.1-5,4.4,4.4,0,0,0-4.7-4.7C313.2,398.9,311.6,401,311.6,403.4Z" transform="translate(-48.5 46.6)" fill="#fff"/></svg>