<svg xmlns="http://www.w3.org/2000/svg" viewBox="0 0 499.7 634.4"><title>haukar</title><path d="M343.7,623.4,320,637l-23.8-13.6c-81.9-46.5-135.9-111-170.7-179.5C101.2,396,86.4,346.1,78.3,299.4c-9.4-53.6-8.5-104.8-6.6-158.5,46.8-4.5,81.2-12.5,123.2-30.7a126.5,126.5,0,0,1,250.1,0c31.5,13.9,62.6,24.7,81,26.6l42.2,4.1,1.5,42.2c2.6,70.8-8.7,169.1-55.3,260.8C479.6,512.4,425.6,576.9,343.7,623.4Z" transform="translate(-70.4 -2.6)" fill="#0066b2"/><path d="M443.4,156.4c30,12.3,59.1,21.5,78.4,23.3l4.4.4.2,4.4c2.4,65.4-8.1,156-50.7,239.9C444.5,486,395.9,544,322.5,585.8l-2.5,1.4-2.5-1.4C244.1,544,195.5,486,164.1,424.5c-42.6-83.9-53-174.4-50.7-239.9l.2-4.4,4.4-.4c19.3-1.8,48.4-11,78.4-23.3.8,3.3,1.6,6.7,2.6,9.9-28.3,11.4-55.7,20.2-75.5,23-1.5,51.5,5.2,117.9,29.4,183.7,59.1-7.1,120.3-29.9,177.9-70,45.8-32,89.4-75,127.9-129.8-5.9-2.2-11.9-4.4-17.9-6.9C441.8,163.1,442.7,159.8,443.4,156.4ZM211.8,481.1c57.9-10,117.1-33,173.1-70.6,43.8-29.3,85.6-67.6,123.2-115.5a513,513,0,0,0,8.2-105.6c-13.2-1.8-29.7-6.4-47.6-12.5-39.5,57-84.6,101.5-132,134.5-58.2,40.7-120.1,63.9-180,71.6q7.3,18.6,16.5,36.9A389.3,389.3,0,0,0,211.8,481.1ZM503.7,316.6c-35,41.7-73.2,75.6-113.1,102.3C335,456.1,276.5,479.3,219,490.1a369.5,369.5,0,0,0,101,85.4c70.1-40.6,116.6-96.4,146.8-155.7C484,385.8,495.8,350.7,503.7,316.6Z" transform="translate(-70.4 -2.6)" fill="#fff"/><path d="M450.8,175.8l-11.6-4.5a128.4,128.4,0,0,1-29.9,47.3,126.2,126.2,0,0,1-178.6,0,128.4,128.4,0,0,1-29.9-47.3c-26.6,10.7-52.5,19.1-72.1,22.5-.9,49.4,5.7,111.8,27.8,173.9,57-7.7,116-30,171.6-68.7C371.8,268.3,413.6,227.5,450.8,175.8Z" transform="translate(-70.4 -2.6)" fill="#ee4023"/><path d="M320,569.6c67.7-39.9,112.9-94.3,142.2-152.1A445.3,445.3,0,0,0,493.5,336a540.7,540.7,0,0,1-100.1,87.2c-53.5,35.7-109.6,58.8-164.9,70.3A364.7,364.7,0,0,0,320,569.6Z" transform="translate(-70.4 -2.6)" fill="#ee4023"/><path d="M502.9,280.5a4.2,4.2,0,0,1-1.9-.6l-18-15.7c-3.5-3-6.7-4.6-9.8-4.6s-6,1.4-9,4.3c2.1-2.8,3-5.6,2.7-8.4a11.6,11.6,0,0,0-4.4-7.7l-8.7-7.7a13.3,13.3,0,0,0-9.6-3.5l-1.7.2c-4.2.9-8.2,3.5-12,7.9l-17.2,19.5,30.9,26.9,29.6,25.6,9.9-11.4-25.9-22.6c.5-.9,3.9-4.6,4.1-5.1l.8-.9a7.8,7.8,0,0,1,4.9-3.1,6,6,0,0,1,4.8,1.7l18.6,16.2a3.9,3.9,0,0,0,4.2.9l10.3-11.8A7.7,7.7,0,0,1,502.9,280.5Zm-50.9-12-1.1,1.2-3.1,4-3.8-3.1-10.3-8.5c.1-.3,3.3-3.9,3.6-4.1l1-1.2c1.5-1.7,3-2.8,4.4-3h1.3A6.1,6.1,0,0,1,447,255l5.4,4.8a4.9,4.9,0,0,1,2.1,4A8.5,8.5,0,0,1,452.1,268.5Z" transform="translate(-70.4 -2.6)" fill="#fff"/><polygon points="305.1 297.3 291.7 306.9 299.4 347.4 277 316.7 264.3 325.8 311.4 390.6 324.1 381.5 300.8 349.4 339.6 369.5 353.5 359.4 311.5 339.3 305.1 297.3" fill="#fff"/><path d="M330.7,332.5l-13.5,7.8,28.5,49.6.5.9c2.1,3.7,3.1,6.2,3.1,7.3-.1,3.6-8.5,8.5-11.8,6.8q-1.8-1-4.9-6.5L303.8,348l-13.6,7.9,31.5,54.8c3.3,5.8,7.1,9.2,11.1,10s9.2-.5,15.7-4.2,15.8-10.7,17-14.7.2-8.7-3.2-14.6Z" transform="translate(-70.4 -2.6)" fill="#fff"/><polygon points="154.8 377.2 161.5 409.4 146.4 412.7 139.8 381.2 124.6 384.5 141.3 462.9 156.4 459.7 149.5 427 164.6 423.7 171.5 455.6 186.8 452.3 170.1 373.9 154.8 377.2" fill="#fff"/><path d="M274.5,363.5l-19.8,8.4,11.4,80,13.8-4.6,1.3-.4-1.3-7.8-1.7-9.7,1.7-.6,18-7.2,10,14.6,15-6.5L280,370.9Zm15.6,46.2-10,3.7-4.1,1.5L270,380l10,14.8Z" transform="translate(-70.4 -2.6)" fill="#fff"/><path d="M401.9,275.7l-15.4,14.9,32,57.5,7.2,13.1,12.4-10.2-8.6-14.8,15.7-14.6,14,9.7,11.9-11.4-52.6-33.6Zm31.4,37.7-11.4,10-3.5-5.7-14.9-24.9,14.9,10.4Z" transform="translate(-70.4 -2.6)" fill="#fff"/><path d="M243.1,52.1c7.9,5.5,19.2,10.8,31.5,11.6s24.6-3,35.9-15.6c1.5-1.7,3-3.7,4.4-5.6v-27a113.4,113.4,0,0,0-73,31.1l-2.3,2.2-.4.4,2.7,2.2Z" transform="translate(-70.4 -2.6)" fill="#d89544"/><path d="M274,73.8a67.8,67.8,0,0,1-18.9-4.1,65.7,65.7,0,0,0-9,7.9,45.2,45.2,0,0,0-4.2,5.3,33.6,33.6,0,0,0-6,18.1,32.6,32.6,0,0,0,6,19.8,39.7,39.7,0,0,0,2.6,3.1h151a40.2,40.2,0,0,0,2.6-3.1,32.6,32.6,0,0,0,6-19.8,33.6,33.6,0,0,0-6-18.1,45.2,45.2,0,0,0-4.2-5.3,65.7,65.7,0,0,0-9-7.9A67.8,67.8,0,0,1,366,73.8c-14.7.9-30.5-3.7-44.1-18.9L320,52.6,318,54.9C304.4,70.1,288.7,74.7,274,73.8Z" transform="translate(-70.4 -2.6)" fill="#d89544"/><path d="M365.3,63.7c12.3-.8,23.7-6,31.5-11.6l1.2-.8,2.7-2.2-.4-.4-2.3-2.2a112.8,112.8,0,0,0-73-31.1v27c1.4,1.9,2.9,3.9,4.4,5.6C340.7,60.6,353.5,64.3,365.3,63.7Z" transform="translate(-70.4 -2.6)" fill="#d89544"/><path d="M244.6,193.3l-2.7-2.5a45.4,45.4,0,0,1-3.2-3.2c-9.1-9.8-12.9-20.3-13.1-30.1a43.2,43.2,0,0,1,7.9-25.7l1.9-2.6a21.1,21.1,0,0,1-1.8-2.5,42.9,42.9,0,0,1-8-25.8c.2-9.8,4-20.3,13.1-30.1a45.6,45.6,0,0,1,3.2-3.2l2.7-2.5-2.7-1.5-4.6-2.9-4.9-3.7a112.9,112.9,0,0,0,0,144.5c1.4-1.2,3-2.4,4.9-3.7l4.6-2.9Z" transform="translate(-70.4 -2.6)" fill="#d89544"/><path d="M396.9,206.1c-7.9-5.5-19.2-10.8-31.5-11.6s-24.6,3-35.9,15.6c-1.5,1.7-3,3.7-4.4,5.6v27a113.4,113.4,0,0,0,73-31.1l2.3-2.2.4-.4-2.7-2.2Z" transform="translate(-70.4 -2.6)" fill="#d89544"/><path d="M407.6,56.9l-4.9,3.7-4.6,2.9L395.4,65l2.7,2.5q1.8,1.6,3.2,3.2c9.1,9.8,12.9,20.3,13.1,30.1a42.9,42.9,0,0,1-8,25.8,21,21,0,0,1-1.8,2.5l1.9,2.6a43.2,43.2,0,0,1,7.9,25.7c-.2,9.8-4,20.3-13.1,30.1a45.8,45.8,0,0,1-3.2,3.2l-2.7,2.5,2.7,1.5,4.6,2.9c1.8,1.3,3.5,2.5,4.9,3.7a112.9,112.9,0,0,0,0-144.5Z" transform="translate(-70.4 -2.6)" fill="#d89544"/><path d="M366,184.4a68.6,68.6,0,0,1,18.9,4.1,59.8,59.8,0,0,0,9-7.9,45.2,45.2,0,0,0,4.2-5.3,33.6,33.6,0,0,0,6-18.1,32.5,32.5,0,0,0-6-19.7h0a26.9,26.9,0,0,0-2.7-3.2H244.6a26.8,26.8,0,0,0-2.7,3.2h0a32.5,32.5,0,0,0-6,19.7,33.6,33.6,0,0,0,6,18.1,45.2,45.2,0,0,0,4.2,5.3,59.8,59.8,0,0,0,9,7.9,67.8,67.8,0,0,1,18.9-4.1c14.7-.9,30.5,3.7,44.1,18.9l1.9,2.3,1.9-2.3C335.5,188.1,351.3,183.5,366,184.4Z" transform="translate(-70.4 -2.6)" fill="#d89544"/><path d="M274.6,194.6c-12.3.8-23.7,6-31.5,11.6l-1.2.8-2.7,2.2.4.4,2.3,2.2a113.4,113.4,0,0,0,73,31.1v-27c-1.4-1.9-2.9-3.9-4.4-5.6C299.2,197.6,286.5,193.9,274.6,194.6Z" transform="translate(-70.4 -2.6)" fill="#d89544"/></svg>