<?xml version="1.0" encoding="UTF-8"?>
<svg width="186px" height="111px" viewBox="0 0 186 111" version="1.1" xmlns="http://www.w3.org/2000/svg" xmlns:xlink="http://www.w3.org/1999/xlink">
    <!-- Generator: Sketch 49.3 (51167) - http://www.bohemiancoding.com/sketch -->
    <title>HK-Vikingur_saman_Prent</title>
    <desc>Created with Sketch.</desc>
    <defs>
        <polygon id="path-1" points="0 0.0548382752 109.64388 0.0548382752 109.64388 109.690764 0 109.690764"></polygon>
        <polygon id="path-3" points="0.16154399 0.0548382752 92.3309993 0.0548382752 92.3309993 110.795587 0.16154399 110.795587"></polygon>
    </defs>
    <g id="Page-1" stroke="none" stroke-width="1" fill="none" fill-rule="evenodd">
        <g id="HK-Vikingur_saman_Prent" transform="translate(-21.000000, -21.000000)">
            <g id="Group-39" transform="translate(21.000000, 21.000000)">
                <g id="Group-3">
                    <mask id="mask-2" fill="white">
                        <use xlink:href="#path-1"></use>
                    </mask>
                    <g id="Clip-2"></g>
                    <path d="M54.8224717,109.690764 C85.0027309,109.690764 109.64388,85.0504717 109.64388,54.8726331 C109.64388,24.6947945 85.0027309,0.0545025307 54.8224717,0.0545025307 C24.6422124,0.0545025307 -5.59619122e-05,24.6947945 -5.59619122e-05,54.8726331 C-5.59619122e-05,85.0504717 24.6422124,109.690764 54.8224717,109.690764" id="Fill-1" fill="#D8232A" mask="url(#mask-2)"></path>
                </g>
                <path d="M54.8224717,107.071565 C83.5594732,107.071565 107.027101,83.606938 107.027101,54.872801 C107.027101,26.1381043 83.5594732,2.67235868 54.8224717,2.67235868 C26.0854702,2.67235868 2.61896153,26.1381043 2.61896153,54.872801 C2.61896153,83.606938 26.0854702,107.071565 54.8224717,107.071565" id="Fill-4" fill="#FFFFFE"></path>
                <path d="M54.8224717,104.420693 C82.1162155,104.420693 104.373387,82.1641878 104.373387,54.8726331 C104.373387,27.581638 82.1162155,5.32457269 54.8224717,5.32457269 C27.5292875,5.32457269 5.27043693,27.581638 5.27043693,54.8726331 C5.27043693,82.1641878 27.5292875,104.420693 54.8224717,104.420693" id="Fill-6" fill="#D8232A"></path>
                <polygon id="Fill-8" fill="#FFFFFE" points="58.2831563 58.7908278 58.2831563 77.172282 49.7747072 77.172282 49.7747072 58.7908278 29.0648824 58.7908278 29.0648824 77.172282 20.5541948 77.172282 20.5541948 33.2300363 29.0648824 33.2300363 29.0648824 51.5661649 49.7747072 51.5661649 49.7747072 33.2300363 58.2831563 33.2300363 58.2831563 51.5661649 62.4741439 51.5644862 79.0019351 33.2110108 89.1422335 33.2110108 69.3608168 55.1787761 89.1634991 77.172282 79.0215217 77.172282 62.446163 58.7908278"></polygon>
                <g id="Group-12" transform="translate(93.456393, 0.000000)">
                    <mask id="mask-4" fill="white">
                        <use xlink:href="#path-3"></use>
                    </mask>
                    <g id="Clip-11"></g>
                    <path d="M88.5471346,13.1185465 L88.2427018,12.0967639 L74.2578199,18.3595188 C69.0315369,7.49986158 58.4368277,0.0547263604 46.2466444,0.0547263604 C34.0559015,0.0547263604 23.4617519,7.49986158 18.23379,18.3595188 L4.2494678,12.0967639 L3.94559462,13.1185465 C1.3198617,21.9553428 0.0495262923,30.7809477 0.169284784,39.3508272 C0.394251671,55.4699226 5.02286143,70.0585826 13.9280805,82.7105561 C21.702869,93.7576706 32.7335215,103.389622 45.8280493,110.565602 L46.2466444,110.795587 L46.6646799,110.565602 C59.760327,103.390741 70.7915391,93.7576706 78.5652083,82.7105561 C87.4698678,70.0585826 92.0990371,55.4699226 92.3234444,39.3508272 C92.4432029,30.7820669 91.1723079,21.956462 88.5471346,13.1185465" id="Fill-10" fill="#1A1919" mask="url(#mask-4)"></path>
                </g>
                <path d="M110.345531,45.8566611 C111.398174,54.1165364 113.885121,61.5706248 117.871288,68.3515454 L117.871288,57.9255582 C114.604792,54.562517 112.016553,50.4524443 110.345531,45.8566611" id="Fill-13" fill="#D8232A"></path>
                <path d="M161.534843,57.925782 L161.534843,68.3517692 C165.52045,61.5708486 168.006838,54.1167602 169.060041,45.8568849 C167.389019,50.4526681 164.799661,54.5621813 161.534843,57.925782" id="Fill-15" fill="#D8232A"></path>
                <path d="M144.068571,67.0319574 L144.068571,87.535317 C147.294215,85.0603202 150.201996,82.4801234 152.801987,79.7779394 L152.801987,64.3017947 C150.076641,65.6414154 147.143678,66.5742257 144.068571,67.0319574" id="Fill-17" fill="#D8232A"></path>
                <path d="M126.603417,64.3018507 L126.603417,79.7779954 C129.202848,82.4785006 132.111748,85.0603761 135.335714,87.535373 L135.335714,67.0320134 C132.261726,66.5742817 129.328203,65.6414714 126.603417,64.3018507" id="Fill-19" fill="#D8232A"></path>
                <path d="M108.850284,81.5322606 C100.183463,69.2193891 95.6779693,55.0179545 95.4585986,39.3213376 C95.453562,38.9620909 95.4518832,38.6011655 95.4518832,38.2407997 C95.4518832,30.554488 96.6058178,22.6588955 98.8627617,14.7409201 C100.383247,15.4213624 109.34107,19.4329501 110.802236,20.0870923 C109.083645,23.8670163 108.123339,28.4241889 107.967205,33.6752335 C107.939784,34.5789459 107.927472,35.4742647 107.927472,36.3595112 C107.927472,47.1732833 109.942661,56.615539 114.066494,65.1529631 C119.183651,75.7490608 127.410612,84.7593252 139.214658,92.6935283 L139.703206,93.0208792 L140.190634,92.6935283 C151.995799,84.7593252 160.221641,75.7490608 165.337679,65.1529631 C169.462072,56.615539 171.478379,47.1727237 171.478379,36.3595112 C171.478379,35.4742647 171.466068,34.5789459 171.438646,33.6752335 C171.281953,28.4236293 170.322766,23.8670163 168.602497,20.0870923 C170.064222,19.4329501 179.022605,15.4213624 180.541971,14.7409201 C182.800034,22.6605743 183.954528,30.554488 183.954528,38.2402402 C183.954528,38.6000464 183.95229,38.9609718 183.946693,39.3213376 C183.726763,55.0179545 179.22071,69.2193891 170.556687,81.5322606 C163.030369,92.2240455 152.367386,101.569495 139.703206,108.585437 C127.038465,101.569495 116.374363,92.2240455 108.850284,81.5322606" id="Fill-21" fill="#FFFFFE"></path>
                <path d="M123.43754,50.2532358 C120.829715,47.913656 120.045689,45.0150614 119.871087,42.8808453 C119.60303,39.5961445 120.663508,36.0422885 122.546626,33.7060661 C120.663508,31.3704032 119.60303,27.8165472 119.871087,24.5318465 C120.045689,22.3965112 120.829715,19.4990358 123.43754,17.1583367 C122.003796,16.1443882 120.654554,14.9787951 119.362953,13.8607658 C118.798298,13.3716979 118.254907,12.9033342 117.72215,12.4618302 C112.959791,18.0861108 110.054808,25.5401992 110.054808,33.7060661 C110.054808,41.8719329 112.959791,49.3260213 117.72215,54.9508616 C118.254907,54.5087979 118.796619,54.0404343 119.362953,53.551926 C120.654554,52.4333371 122.003796,51.2677439 123.43754,50.2532358" id="Fill-23" fill="#D66929"></path>
                <path d="M157.707664,42.7096156 C157.947181,39.776887 156.952178,36.6091372 155.217918,34.6858806 L124.246917,34.6858806 L124.246917,34.6232083 C122.476282,36.5391904 121.456097,39.7438721 121.697852,42.7096156 C121.851747,44.585868 122.579812,47.1817329 125.116006,49.1699001 C127.645484,47.7060539 130.444139,46.8879564 133.651317,47.6780752 C136.495861,48.3797813 138.587157,50.0327636 139.703038,52.3298158 C140.81668,50.0327636 142.909096,48.3797813 145.75364,47.6780752 C148.960257,46.8879564 151.759472,47.7060539 154.29007,49.1699001 C156.824585,47.1817329 157.554888,44.585868 157.707664,42.7096156" id="Fill-25" fill="#D66929"></path>
                <path d="M133.239101,17.8233348 C136.763582,16.954316 138.786046,14.4306362 138.786046,10.8991632 L138.786046,2.03159022 C131.101916,2.28283906 124.14585,5.67385893 119.00295,11.0429737 C119.497094,11.4564991 119.997953,11.8879308 120.51672,12.3372689 C124.330524,15.6365186 128.27416,19.0482428 133.239101,17.8233348" id="Fill-27" fill="#D66929"></path>
                <path d="M155.968144,17.1582808 C158.575969,19.4984202 159.359436,22.3964552 159.534596,24.5317905 C159.801535,27.8164913 158.741616,31.3703473 156.859057,33.7060101 C158.741616,36.0422326 159.801535,39.5960885 159.534596,42.8802297 C159.359436,45.0150055 158.575969,47.9136 155.968144,50.2531799 C157.400769,51.2682476 158.75113,52.4338407 160.04273,53.55187 C160.607386,54.0403783 161.150776,54.5093015 161.682974,54.9508056 C166.446452,49.3259654 169.349756,41.8724365 169.349756,33.7060101 C169.349756,25.5401433 166.446452,18.0860549 161.682974,12.4617742 C161.150776,12.9032783 160.607386,13.3716419 160.04273,13.8607098 C158.75113,14.9787391 157.400769,16.1443323 155.968144,17.1582808" id="Fill-29" fill="#D66929"></path>
                <path d="M146.166639,17.8233348 C151.131579,19.0482428 155.074656,15.6365186 158.88846,12.3372689 C159.408346,11.8879308 159.908646,11.4564991 160.403349,11.0429737 C155.25989,5.67385893 148.303824,2.28283906 140.619134,2.03159022 L140.619134,10.8991632 C140.619134,14.4306362 142.640478,16.954316 146.166639,17.8233348" id="Fill-31" fill="#D66929"></path>
                <path d="M121.69802,24.7021249 C121.455705,27.6684279 122.47645,30.8731096 124.247085,32.7885322 L124.247085,32.7258599 L155.217527,32.7258599 C156.952346,30.8031628 157.946789,27.6354131 157.707832,24.7021249 C157.554496,22.8264321 156.824753,20.2305672 154.289678,18.2418403 C151.75964,19.7062461 148.960425,20.5237841 145.753248,19.7336653 C142.908704,19.0319592 140.816848,17.3795364 139.703206,15.0819246 C138.587325,17.3795364 136.495469,19.0319592 133.650925,19.7336653 C130.444307,20.5237841 127.645652,19.7062461 125.115614,18.2423999 C122.57998,20.2305672 121.851356,22.8264321 121.69802,24.7021249" id="Fill-33" fill="#D66929"></path>
                <path d="M133.239101,49.5884616 C128.27416,48.3646728 124.330524,51.7763969 120.51672,55.075087 C119.997393,55.5244252 119.497094,55.9552973 119.00295,56.3688227 C124.14585,61.7379375 131.101916,65.1306361 138.786046,65.3813253 L138.786046,56.5126333 C138.786046,52.9811602 136.763582,50.45804 133.239101,49.5884616" id="Fill-35" fill="#D66929"></path>
                <path d="M146.166639,49.5884616 C142.640478,50.45804 140.619134,52.9811602 140.619134,56.5126333 L140.619134,65.3813253 C148.303824,65.1306361 155.25989,61.7379375 160.403349,56.3688227 C159.908646,55.9552973 159.408346,55.5244252 158.88846,55.075087 C155.074656,51.7763969 151.131579,48.3646728 146.166639,49.5884616" id="Fill-37" fill="#D66929"></path>
            </g>
        </g>
    </g>
</svg>