<svg xmlns="http://www.w3.org/2000/svg" viewBox="0 0 530 530"><title>hk</title><path d="M265,530c145.9,0,265-119.1,265-265S410.9,0,265,0,0,119.1,0,265,119.1,530,265,530Z" transform="translate(0 0)" fill="#eb212c" fill-rule="evenodd"/><path d="M265,517.3c138.9,0,252.3-113.4,252.3-252.3S403.9,12.7,265,12.7,12.7,126.1,12.7,265,126.1,517.3,265,517.3Z" transform="translate(0 0)" fill="#fff" fill-rule="evenodd"/><path d="M265,504.5c131.9,0,239.5-107.6,239.5-239.5S396.9,25.5,265,25.5,25.5,133.1,25.5,265,133.1,504.5,265,504.5Z" transform="translate(0 0)" fill="#eb212c" fill-rule="evenodd"/><polygon points="281.7 283.9 281.7 372.8 240.6 372.8 240.6 283.9 140.5 283.9 140.5 372.8 99.4 372.8 99.4 160.4 140.5 160.4 140.5 249 240.6 249 240.6 160.4 281.7 160.4 281.7 249 302 249 381.9 160.3 430.9 160.3 335.3 266.5 431 372.8 382 372.8 301.9 283.9 281.7 283.9" fill="#fff" fill-rule="evenodd"/></svg>