<svg xmlns="http://www.w3.org/2000/svg" viewBox="0 0 519.5 566.9"><title>hsh</title><polygon points="259.1 0.7 1.7 72.5 35 182.7 181 182.7 209.4 452.3 311.5 452.3 338.5 182.7 484.5 182.7 517.7 72.5 259.1 0.7" fill="#fff"/><path d="M543.2,72.3,282.9,0,23.8,72.3,57.2,183.2H204.2l27.6,269.1h18.2L229.2,183.2h6.5l20.9,269.1h53.3l20.9-269.1h6.5L316.4,452.4h19.5l27-269.1H509.8L543.2,72.3Zm-201,414.1H224.9l-18.8,19.1v33.7L242.2,567h82.5l36.2-27.8V505.5l-18.7-19.1Zm-117.1-9H341.8v-9.7a6.7,6.7,0,0,0-7-6.5H232.1a6.7,6.7,0,0,0-7,6.5v9.7ZM285.6,52.4c10.8,0,20.3,2.5,30.1,6.6l.3,19.7C305.9,71.3,296.7,69.2,286,68c-6.6-.7-17.3,1.1-16.3,9.3.6,5.4,5.4,6.1,9.8,7.9,8.1,3.3,10,4.2,20.8,8.2s19.1,13.7,19,25.2c-.1,21-23.9,27-39.5,26.6-10.8-.3-20.2-.5-30.7-3.1V122.4c7.1,4.4,19,7.9,27.9,8.2s20.1-1.3,20.3-9.9c0-3.2-4.2-5.8-8.3-7.6-8.1-3.5-17.3-7.2-23.5-9.9-10.7-4.5-16.5-11.9-16.4-23.8.1-17,17.5-27.1,36.6-27.1ZM405.4,72.7v28.8H373.7V63.9l-21.7-6v86.8h21.7V116.8h31.6v27.9h21.7V78.7l-21.7-6Zm-243.4.1v28.7h31.6V64.1l21.7-6v86.6H193.6V116.8H161.9v27.9H140.2V78.8l21.7-6ZM514.2,88.4,282.9,24.2,52.6,88.4,74.3,160H492.6l21.6-71.6Zm-7.3,4-224-62.2L59.8,92.5l18.9,61.7H488.3l18.6-61.7Z" transform="translate(-23.8 0)" fill="#231f20" fill-rule="evenodd"/></svg>