<svg xmlns="http://www.w3.org/2000/svg" viewBox="0 0 790 790"><title>hvitiriddarinn</title><circle cx="395" cy="395" r="395" fill="#fff"/><circle cx="395" cy="395" r="392.5"/><circle cx="395" cy="395" r="289" fill="#fff"/><circle cx="395" cy="395" r="277"/><path d="M245,381.8l4.1,7.3-6,2.2,7,5.8-10,2.4c2.5,2,6.8,4.2,8.7,6.9s2.3,1.4.1,3.1-4.2.4-5.3.6c-9.5,1.4-14.6,1.8-22.8-4-13.2-9.1-25.1-23.1-20-40.2,2.4-8.1,7.7-15.7,11.8-23.1L227,317.2c4.3-7.6,9-15.2,12.4-23.3s4.5-16.8,7.2-25.1a105.3,105.3,0,0,1,8.8-20.5,84.7,84.7,0,0,1,6.2-9.4c2.4-3.1,6.4-6.1,7.4-10s-.8-7.2-1.7-10.5a103.3,103.3,0,0,1-2.5-12.6,124.6,124.6,0,0,1-1-12.8c-.1-1.7-.6-4.6.1-6.2s1.6-1.8,4.5-1.1c7.2,1.6,13.3,5.8,18.7,10.7s10.4,12.9,16.6,17.6c14.9,11.3,21-23.8,28.3-30.1,4.6-3.9,12.1,5.1,14.8,8.5,4.4,5.6,5.5,11.8,8.1,18.2s15.5,5.2,22.5,6.3c29.2,4.8,54.6,20.3,73.6,42.8,46,54.3,56.6,133.1,58.7,201.8.1,4.3,2.4,13.8-2,16.4-1.9,1.1-5.9.4-7.9.4H351.2c-20.4,0-42.3,2.1-62.5-.6,2.2-12.9,4.4-25.1,10.1-37s13-21.8,21.3-31.3c9.7-11.1,19.5-22.1,28.8-33.5s12.1-22.3,11.5-37c-6.9,1.9-11.7,6.8-17.8,10.4a141.6,141.6,0,0,1-19,9.1c-12.5,5-23.8,9.3-32.7,19.9s-12.3,21.9-16.7,34c-5.3,14.8-16.7,9.2-27.3,3.6,10.3-5.3,15.4-14.9,19.3-25.3,2-5.2,3.7-10.5-1.9-14.2S250.5,378.5,245,381.8Zm246,87.9c-.5-45.2-3.6-90.6-16.6-134.1-10.9-36.7-30.7-73.5-64.7-93.4a109.8,109.8,0,0,0-39.9-13.9l-8.1-.9c-3.7-.4-4.8-1.5-5.8,2-2.2,7.9,6.9,8.2,12.2,9.5a114.7,114.7,0,0,1,25.3,9.2c35.3,17.9,55.1,54,64.7,91,6.4,24.5,9.6,49.8,11.2,75,.8,13,1.1,26.1,1,39.1,0,2.6-1.6,14.6.6,16.5s8.3,0,10,0ZM272.2,288.8c3.1-5.8,12.1,1.2,17.2.4,6.7-1.1,7.6-7.3,9.3-12.7s7.3-11.1,2.2-14.5-13.1-1-17.6,2.4-6.2,9.3-9.1,14.5a18,18,0,0,1-5.1,6.2c-3,2.1-5.9,1-8.7,2.3-9.1,4,5.1,9.4,8.2,10.6s5,2.6,7.1.7S273.8,291.3,272.2,288.8Zm5.9-44c-.4,16.3,19.8-1.9,24-5.4s8.8-8.7,14.2-6.3,9.1,8.5,11.9,1.1c5.2-13.9-20.3-12.1-27.6-11.3C289.6,224.1,278.4,233.2,278.1,244.8Zm98.3,53.6c-.7-4.7,0-9.1-4.1-12.4s-6.3-3.1-9.2-.1-3.1,10.5-3.8,15.4a124.2,124.2,0,0,1-3.3,15.2c-1,3.9-3.6,9,.4,12s7.3.1,9.7-3C371.9,318.1,377,308,376.4,298.5ZM225.6,381.6c10.6-1.9,23.2-27.8,7.3-28.9C218.6,351.7,208.7,382.1,225.6,381.6Z" fill="#fff"/><path d="M266.2,597.5c-9.4-.4-18.5-6.7-20-16.5s8.8-21.8,13-31.4c5-11.6,8.2-25.2,5.5-37.8-2-9.1-5.2-17.7,2.9-25s23.7-5.2,34.5-5.2H474c13.8,0,28.5-1.5,42.1.3,8.8,1.1,15,7.2,16,16.1.6,5.9-2.3,11.4-3,17.2a53.2,53.2,0,0,0,1.3,19.2c3.2,13.2,10.7,24.3,16,36.6,4.1,9.7.9,21.2-9.8,24.8C529.8,598.2,280.6,598.2,266.2,597.5Zm130.2-15.4c0,.3,104.8.2,114.6.2,6.9,0,15.4,1.8,20.3-4.3s-4.2-11.1-9.5-11.3c-19.2-.6-38.6,0-57.8,0H287.9c-6.4,0-18.1-2.3-23.8,1.5s-2.1,12.8,4.2,13.7c9.1,1.3,19.3.1,28.5.1h99.6Zm-103-88.3c-4.4,0-18-1.2-19.7,3.5-3,8.2,10.1,8.3,14.7,8.3H498.3c6.1,0,15.1,1.7,20.4-2.2s.5-8.5-4.6-9.4C505.9,492.5,302,493.8,293.4,493.8Z" fill="#fff"/><path d="M78.3,285.7l16.4,6.2q4.1,1.5,5.3,1.5a4.3,4.3,0,0,0,2.4-1.1,7.5,7.5,0,0,0,2.1-3.3l.7-1.8,1.4.5L96.2,315.6l-1.4-.5.7-1.8a7.8,7.8,0,0,0,.6-4,3.8,3.8,0,0,0-1.3-2.3q-.8-.8-4.8-2.3L55,291.5a18.7,18.7,0,0,0-5.2-1.5,4.2,4.2,0,0,0-2.4,1.1,7.5,7.5,0,0,0-2.1,3.3l-.7,1.8-1.4-.5,10.5-27.7,1.4.5-.7,1.8a7.8,7.8,0,0,0-.6,4,4,4,0,0,0,1.3,2.3q.8.8,4.8,2.3l15,5.7L82,265.6l-15-5.7a18.7,18.7,0,0,0-5.2-1.5,4.2,4.2,0,0,0-2.4,1.1,7.6,7.6,0,0,0-2.1,3.3l-.7,1.7L55,264l10.5-27.7,1.4.5-.7,1.7a7.7,7.7,0,0,0-.6,4,4,4,0,0,0,1.3,2.3q.8.8,4.8,2.3l34.9,13.2a18.7,18.7,0,0,0,5.3,1.5,4.2,4.2,0,0,0,2.4-1.1,7.6,7.6,0,0,0,2.1-3.3l.7-1.7,1.4.5-10.5,27.7-1.4-.5.7-1.7a7.7,7.7,0,0,0,.6-4,4,4,0,0,0-1.3-2.3q-.8-.8-4.8-2.3L85.4,267Z" fill="#fff" stroke="#fff" stroke-miterlimit="10" stroke-width="2"/><path d="M105.7,171.7l1.3.8a9.2,9.2,0,0,0-.2,6.4q.8,2.6,5.4,9.7l25.7,40-.8,1.2-48.4-8.2q-8.8-1.5-10.6-1.3t-4,2.8l-1.3-.8,14.8-22.8,1.3.8-.5.8q-2,3.1-2,4.7a2.1,2.1,0,0,0,1,1.8,5.9,5.9,0,0,0,1.7.7l5.8,1.1,30.3,5.2-15-23.1q-2.7-4.2-3.8-5.4a9.5,9.5,0,0,0-2-1.8,3.8,3.8,0,0,0-2.2-.6,4.1,4.1,0,0,0-2.3.9,13.2,13.2,0,0,0-3.2,3.6l-1.3-.8Z" fill="#fff" stroke="#fff" stroke-miterlimit="10" stroke-width="2"/><path d="M119.2,128.1l1.5,20-2.4,2.7-7.5-13.3Zm56.7,48.5,1.1,1-19.9,22-1.1-1,1.3-1.4a7.8,7.8,0,0,0,2-3.5,3.8,3.8,0,0,0-.4-2.6q-.4-1-3.6-3.9l-27.6-25.1a18.7,18.7,0,0,0-4.3-3.3,4.2,4.2,0,0,0-2.7.1,7.5,7.5,0,0,0-3.1,2.3l-1.3,1.4-1.1-1,19.9-22,1.1,1-1.3,1.4a7.8,7.8,0,0,0-2,3.5,4,4,0,0,0,.3,2.6q.4,1,3.6,3.9L164.4,177q3.2,2.9,4.4,3.3a4.3,4.3,0,0,0,2.7-.1,7.5,7.5,0,0,0,3.1-2.3Z" fill="#fff" stroke="#fff" stroke-miterlimit="10" stroke-width="2"/><path d="M185.6,95.9l9.7,11.9-1.2.9a24.3,24.3,0,0,0-7.1-4.1,11.4,11.4,0,0,0-5.8-.1,14.3,14.3,0,0,0-4.8,2.9l-3.3,2.7,27.6,34q2.7,3.4,3.8,3.9a4.3,4.3,0,0,0,2.7.3,7.6,7.6,0,0,0,3.5-1.8l1.5-1.2,1,1.2L190,165.4l-1-1.2,1.5-1.2a7.9,7.9,0,0,0,2.5-3.2,4,4,0,0,0,.1-2.6q-.3-1.1-3-4.4l-27.6-34-3.2,2.6q-4.5,3.6-4.9,7.1t2.5,10.4l-1.2,1L146,127.9Z" fill="#fff" stroke="#fff" stroke-miterlimit="10" stroke-width="2"/><path d="M252.4,120.4l.8,1.3-25.6,14.9-.8-1.3,1.6-.9a7.8,7.8,0,0,0,3-2.8,3.8,3.8,0,0,0,.4-2.6q-.1-1.1-2.3-4.8L210.8,92a18.7,18.7,0,0,0-3.1-4.5,4.2,4.2,0,0,0-2.6-.7,7.5,7.5,0,0,0-3.7,1.2l-1.6.9-.8-1.3,25.6-14.9.8,1.3-1.6.9a7.8,7.8,0,0,0-3,2.8,4,4,0,0,0-.5,2.6q.1,1.1,2.3,4.8l18.8,32.3q2.2,3.8,3.2,4.5a4.3,4.3,0,0,0,2.6.7,7.5,7.5,0,0,0,3.7-1.2Z" fill="#fff" stroke="#fff" stroke-miterlimit="10" stroke-width="2"/><path d="M293.3,77.3l4.5,15.3q1.3,4.4,2.2,5.4a4.1,4.1,0,0,0,2.4,1.3,13.4,13.4,0,0,0,5.3-.8l.4,1.5-27.9,8.2-.4-1.5q3.8-1.1,4.9-2.2a4.3,4.3,0,0,0,1.4-2.4q.2-1.3-1.1-5.7L274.7,61q-1.3-4.4-2.2-5.4a4.1,4.1,0,0,0-2.4-1.3,13.4,13.4,0,0,0-5.3.8l-.4-1.5,25.3-7.4q9.9-2.9,14.9-2.9a15.2,15.2,0,0,1,8.9,2.9,14.1,14.1,0,0,1,5.4,7.8,13.4,13.4,0,0,1-1.4,11.2,18.7,18.7,0,0,1-6.7,6l18.5,14.6a29,29,0,0,0,5,3.4,7.1,7.1,0,0,0,4.2.2l.4,1.5-17.1,5L296.9,76.3Zm-7.8-26.7,7,23.9,2.3-.7a26.7,26.7,0,0,0,8.1-3.5,8.7,8.7,0,0,0,3.3-5,14.1,14.1,0,0,0-.5-7.4q-1.8-6.2-5.6-8.3t-10.2-.2Z" fill="#fff" stroke="#fff" stroke-miterlimit="10" stroke-width="2"/><path d="M371.4,86.5l.2,1.5-29.4,3.6-.2-1.5,1.9-.2a7.8,7.8,0,0,0,3.8-1.4,3.8,3.8,0,0,0,1.4-2.2q.3-1.1-.2-5.3l-4.6-37a18.7,18.7,0,0,0-1.1-5.3,4.2,4.2,0,0,0-2.1-1.7,7.5,7.5,0,0,0-3.9-.3l-1.9.2-.2-1.5,29.4-3.6.2,1.5-1.9.2a7.8,7.8,0,0,0-3.8,1.4,4,4,0,0,0-1.5,2.2q-.3,1.1.2,5.3l4.6,37q.5,4.3,1.1,5.3a4.3,4.3,0,0,0,2.1,1.7,7.5,7.5,0,0,0,3.9.3Z" fill="#fff" stroke="#fff" stroke-miterlimit="10" stroke-width="2"/><path d="M376.7,86.6V85.1h1.9a7.6,7.6,0,0,0,3.8-.6,4.7,4.7,0,0,0,2-2,20,20,0,0,0,.6-5.3l1.4-37.3a18.7,18.7,0,0,0-.3-5.5,4.2,4.2,0,0,0-1.8-2,7.5,7.5,0,0,0-3.8-1h-1.9V29.9l25.4.9q10.2.4,16.2,3.4a24.2,24.2,0,0,1,11.1,10.7,30.8,30.8,0,0,1,3.3,15.7,30.7,30.7,0,0,1-2.3,10.9,25.3,25.3,0,0,1-5.3,8.1,24.4,24.4,0,0,1-7.2,5,37.7,37.7,0,0,1-9.9,2.7,46,46,0,0,1-8,.2Zm23.6-52.7-1.6,44.2a15.6,15.6,0,0,0,.2,4.3,2.4,2.4,0,0,0,1.1,1.3,6.8,6.8,0,0,0,3.2.7q7,.3,10.8-4.4,5.3-6.3,5.8-19.8.4-10.9-2.8-17.6a14.6,14.6,0,0,0-6.7-7.2Q407.3,34.1,400.3,33.9Z" fill="#fff" stroke="#fff" stroke-miterlimit="10" stroke-width="2"/><path d="M440.1,89.3l.4-1.5,1.8.5a7.6,7.6,0,0,0,3.9.2,4.7,4.7,0,0,0,2.4-1.6,20,20,0,0,0,1.6-5l9-36.2a18.7,18.7,0,0,0,.9-5.4,4.2,4.2,0,0,0-1.4-2.3,7.5,7.5,0,0,0-3.5-1.7l-1.8-.5.4-1.5,24.7,6.1q9.9,2.4,15.2,6.6a24.2,24.2,0,0,1,8.7,12.7,30.8,30.8,0,0,1,.1,16,30.7,30.7,0,0,1-4.5,10.2,25.4,25.4,0,0,1-6.8,6.9,24.4,24.4,0,0,1-8.1,3.4,37.7,37.7,0,0,1-10.2.6,46,46,0,0,1-7.9-1.4Zm33.8-46.8-10.6,43a15.5,15.5,0,0,0-.7,4.3,2.4,2.4,0,0,0,.8,1.4,6.8,6.8,0,0,0,3,1.4q6.8,1.7,11.5-2.1,6.4-5.1,9.7-18.2,2.6-10.6.9-17.8a14.6,14.6,0,0,0-5.1-8.4Q480.7,44.2,473.9,42.5Z" fill="#fff" stroke="#fff" stroke-miterlimit="10" stroke-width="2"/><path d="M539.6,105.4l-18.1-8.7-4.5,3.9a12.3,12.3,0,0,0-3,3.6,3.8,3.8,0,0,0,.2,4q.7,1.1,4.6,3.3l-.7,1.4-17-8.2.7-1.4a8.4,8.4,0,0,0,5.6-.1q2.7-1,8.1-5.6l37.9-32,.7.3-1.8,50.8q-.2,7.2.7,9.6a6.6,6.6,0,0,0,3,3.1l-.7,1.4L530.7,119l.7-1.4,1,.5q3,1.4,4.6,1.2a2.2,2.2,0,0,0,1.7-1.3,5.2,5.2,0,0,0,.4-1.5q.1-.4.2-3.4Zm.1-3.4.9-21.3L524.3,94.5Z" fill="#fff" stroke="#fff" stroke-miterlimit="10" stroke-width="2"/><path d="M591.4,125.5l-9.7,12.6q-2.8,3.7-3.1,4.9a4.1,4.1,0,0,0,.4,2.7,13.4,13.4,0,0,0,3.8,3.8l-.9,1.2-23-17.7.9-1.2q3.1,2.4,4.7,2.7a4.3,4.3,0,0,0,2.7-.3q1.2-.6,4-4.2l22.4-29.2q2.8-3.6,3.1-4.9a4.1,4.1,0,0,0-.4-2.7,13.4,13.4,0,0,0-3.8-3.8l.9-1.2,20.9,16.1q8.2,6.3,11.1,10.3a15.2,15.2,0,0,1,3,8.9,14.1,14.1,0,0,1-3.1,9,13.4,13.4,0,0,1-9.9,5.5,18.7,18.7,0,0,1-8.8-1.8l-.9,23.5a29,29,0,0,0,.2,6,7.1,7.1,0,0,0,2.3,3.5l-.9,1.2-14.2-10.9,1.2-31.6Zm16.9-22.1-15.1,19.7,1.9,1.5a26.7,26.7,0,0,0,7.6,4.5,8.7,8.7,0,0,0,5.9-.3,14.1,14.1,0,0,0,5.7-4.8q3.9-5.1,3.4-9.4t-5.9-8.4Z" fill="#fff" stroke="#fff" stroke-miterlimit="10" stroke-width="2"/><path d="M630.1,193.9,629,195l-20.3-21.6,1.1-1.1,1.3,1.4a7.8,7.8,0,0,0,3.4,2.3,3.8,3.8,0,0,0,2.6-.2q1-.4,4.2-3.3l27.2-25.6a18.6,18.6,0,0,0,3.6-4.1,4.2,4.2,0,0,0,.1-2.7,7.5,7.5,0,0,0-2-3.3l-1.3-1.4,1.1-1.1,20.3,21.6-1.1,1.1-1.3-1.4a7.8,7.8,0,0,0-3.4-2.3,4,4,0,0,0-2.6.1q-1,.4-4.2,3.3l-27.2,25.6q-3.2,3-3.6,4.1a4.3,4.3,0,0,0-.1,2.7,7.5,7.5,0,0,0,2,3.3Z" fill="#fff" stroke="#fff" stroke-miterlimit="10" stroke-width="2"/><path d="M691.5,183.2,678,226.1l20.2-13.7q4.2-2.9,4.9-5.1t-1.8-6.9l1.3-.9,10.5,15.5-1.3.9a14.3,14.3,0,0,0-3.7-3.3,4.8,4.8,0,0,0-3.1-.3A16.3,16.3,0,0,0,700,215l-39.1,26.5-.8-1.2L677.7,182l-29.9,20.2q-4.1,2.7-4.2,5.6A8.2,8.2,0,0,0,645,213l.8,1.1-1.3.9-11.3-16.7,1.3-.9q2.7,3.9,5.3,4.3t6.3-2.1l33.2-22.4.6-1.8a11,11,0,0,0,.7-4.3,9.6,9.6,0,0,0-1.6-3.7l1.3-.9Z" fill="#fff" stroke="#fff" stroke-miterlimit="10" stroke-width="2"/><path d="M728.6,248.2l-22,39.2,22.6-9.2q4.7-1.9,5.8-4t-.4-7.1l1.4-.6,7.1,17.3-1.4.6a14.3,14.3,0,0,0-2.9-4,4.8,4.8,0,0,0-2.9-.9,16.3,16.3,0,0,0-5.5,1.5L686.6,299l-.5-1.3,29.2-53.4-33.4,13.7q-4.5,1.9-5.3,4.6a8.2,8.2,0,0,0,.4,5.4l.5,1.2-1.4.6-7.6-18.6,1.4-.6q1.8,4.3,4.3,5.3t6.6-.7l37.1-15.2.9-1.7a11.1,11.1,0,0,0,1.5-4.1,9.6,9.6,0,0,0-.8-4l1.4-.6Z" fill="#fff" stroke="#fff" stroke-miterlimit="10" stroke-width="2"/><path d="M85.6,484.4l-13.7,4.1.2.7a5.5,5.5,0,0,0,3.4,4,12.9,12.9,0,0,0,6.5.1l.3.9-17.6,5.3-.3-.9a13.8,13.8,0,0,0,4.3-2.7,5.6,5.6,0,0,0,1.8-3,8.8,8.8,0,0,0-.5-3.9l-9.5,2.8a14.2,14.2,0,0,0-3.3,1.3,2.1,2.1,0,0,0-.8,1.2,4.3,4.3,0,0,0,.2,2.2l.6,2a12.6,12.6,0,0,0,4.4,6.9,12.7,12.7,0,0,0,7.9,2.1l.3.9-11.1,1.7L50.1,481l.9-.3.3,1.1a4.8,4.8,0,0,0,1.2,2.2,2.4,2.4,0,0,0,1.5.6,10.6,10.6,0,0,0,3.2-.7l22.1-6.6,2.8-1a2.5,2.5,0,0,0,1.1-1.3,4.5,4.5,0,0,0-.1-2.8l-.3-1.1.9-.3,8.4,28.1-9.9,3-.3-.9a12.7,12.7,0,0,0,4.6-3.6,7.8,7.8,0,0,0,1.2-4.4,20.8,20.8,0,0,0-1.1-5.3Z" fill="#fff" stroke="#fff" stroke-miterlimit="10"/><path d="M89.7,529.1l-9.2,17.5a19.8,19.8,0,0,0-2.3,5.9,5.5,5.5,0,0,0,.4,3l-.9.4-7.3-16.8.9-.4a4.9,4.9,0,0,0,1.4,1.8,1.2,1.2,0,0,0,1.1.1q1-.4,2.8-3.8l6.1-11.4-1.5-.8-8.8,3.8a10.8,10.8,0,0,0-3,1.6,2.6,2.6,0,0,0-.6,1.6,6.2,6.2,0,0,0,.7,2.8l-.9.4-7.1-16.2.9-.4.5,1.1a4.9,4.9,0,0,0,1.5,2,2.4,2.4,0,0,0,1.6.5,10.7,10.7,0,0,0,3.1-1l21.2-9.2a11.5,11.5,0,0,0,3-1.6,2.6,2.6,0,0,0,.6-1.5,4.7,4.7,0,0,0-.5-2.3l-.5-1.1.9-.4,7,16-.9.4a5.7,5.7,0,0,0-1.6-2.3,2.5,2.5,0,0,0-1.5-.5,10.2,10.2,0,0,0-3.2,1l-10,4.4,14.8,7.7q3.1,1.6,4.3,1.1a1.7,1.7,0,0,0,1-1.6,8.9,8.9,0,0,0-.8-2.7l.9-.4,5.5,12.6-.9.4a7.7,7.7,0,0,0-1.8-2.4,41.2,41.2,0,0,0-5.2-3Z" fill="#fff" stroke="#fff" stroke-miterlimit="10"/><path d="M109.2,566.7l-7,18.5a19.8,19.8,0,0,0-1.5,6.1,5.5,5.5,0,0,0,.8,2.9l-.8.5L91.3,579l.8-.5a4.9,4.9,0,0,0,1.6,1.6,1.2,1.2,0,0,0,1.1-.1q.9-.6,2.3-4.1l4.6-12.1-1.6-.6-8.2,4.9a10.9,10.9,0,0,0-2.8,2,2.6,2.6,0,0,0-.4,1.6,6.2,6.2,0,0,0,1,2.7l-.8.5-9.1-15.2.8-.5.6,1a4.8,4.8,0,0,0,1.7,1.8,2.4,2.4,0,0,0,1.6.3,10.6,10.6,0,0,0,2.9-1.4l19.8-11.8a11.5,11.5,0,0,0,2.7-2,2.6,2.6,0,0,0,.4-1.6,4.6,4.6,0,0,0-.8-2.3l-.6-1,.8-.5,8.9,15-.8.5a5.7,5.7,0,0,0-1.8-2.1,2.5,2.5,0,0,0-1.6-.3,10.2,10.2,0,0,0-3,1.4l-9.4,5.6,15.7,5.8q3.3,1.2,4.4.5a1.7,1.7,0,0,0,.8-1.8,8.9,8.9,0,0,0-1.1-2.6l.8-.5,7,11.8-.8.5a7.7,7.7,0,0,0-2-2.1,41.2,41.2,0,0,0-5.5-2.3Z" fill="#fff" stroke="#fff" stroke-miterlimit="10"/><path d="M114.8,611.7l-.8.6-10.9-14.8.8-.6.7.9a4.9,4.9,0,0,0,1.9,1.7,2.4,2.4,0,0,0,1.6.1,10.7,10.7,0,0,0,2.8-1.7l18.6-13.7a11.6,11.6,0,0,0,2.5-2.2,2.6,2.6,0,0,0,.3-1.6,4.6,4.6,0,0,0-1-2.2l-.7-.9.8-.6,10.9,14.8-.8.6-.7-.9a4.9,4.9,0,0,0-1.9-1.7,2.5,2.5,0,0,0-1.6-.1,10.7,10.7,0,0,0-2.8,1.7L116,604.7a11,11,0,0,0-2.5,2.2,2.7,2.7,0,0,0-.3,1.6,4.7,4.7,0,0,0,1,2.2Z" fill="#fff" stroke="#fff" stroke-miterlimit="10"/><path d="M155.9,631.7q2.6,4.4,2.8,7a7.5,7.5,0,0,1-2.4,6.3,8.1,8.1,0,0,1-6.9,2.2q-5-.7-10.1-6l-12.3-12.9.7-.7a8,8,0,0,0,2.6,2.1,2.6,2.6,0,0,0,1.7.1,10.7,10.7,0,0,0,2.8-2.2l16.5-15.7a10.9,10.9,0,0,0,2.3-2.7,2.6,2.6,0,0,0,0-1.7,8.3,8.3,0,0,0-2-2.7l.7-.7,11.6,12.2q4.2,4.4,5.1,6.9a8.9,8.9,0,0,1,.4,5.1,7.9,7.9,0,0,1-2.3,4.2,6.4,6.4,0,0,1-4.5,1.8Q160,634.3,155.9,631.7Zm-7.5-5.9-8.1,7.8-1,.9a2.5,2.5,0,0,0-.1,4,8.1,8.1,0,0,0,3.3,2.1,6.3,6.3,0,0,0,3.8.1,8.1,8.1,0,0,0,3.5-2,8.6,8.6,0,0,0,2.4-3.9,6.1,6.1,0,0,0-.2-4.2A17,17,0,0,0,148.5,625.8Zm1.5-1.4a13.3,13.3,0,0,0,4.3,3.3,6.2,6.2,0,0,0,3.5.3,8.4,8.4,0,0,0,5.5-5.3,5.8,5.8,0,0,0-.2-3.5,14,14,0,0,0-3.2-4.5Z" fill="#fff" stroke="#fff" stroke-miterlimit="10"/><path d="M176.5,662.1l-9.5-7.9-3.3,1.7a7.6,7.6,0,0,0-2.4,1.7,2.3,2.3,0,0,0-.5,2.4,10,10,0,0,0,2.2,2.7l-.6.7-9-7.5.6-.7a5.2,5.2,0,0,0,3.4.8,20.8,20.8,0,0,0,5.7-2.1l27.6-13.5.4.3-8.7,30.2q-1.2,4.3-1,5.9a4.1,4.1,0,0,0,1.3,2.3l-.6.7-13-10.9.6-.7.5.4a5.3,5.3,0,0,0,2.6,1.4,1.4,1.4,0,0,0,1.2-.6l.5-.8.6-2Zm.5-2,3.7-12.6-11.9,5.8Z" fill="#fff" stroke="#fff" stroke-miterlimit="10"/><path d="M206.1,676.6l-5.4,8.2a10.9,10.9,0,0,0-1.7,3.2,2.6,2.6,0,0,0,.4,1.7,8.3,8.3,0,0,0,2.5,2.2l-.5.8-15.1-9.8.5-.8a8,8,0,0,0,3,1.4,2.6,2.6,0,0,0,1.7-.3,10.7,10.7,0,0,0,2.2-2.8l12.4-19.1a10.9,10.9,0,0,0,1.7-3.2,2.6,2.6,0,0,0-.4-1.7,8.3,8.3,0,0,0-2.5-2.2l.5-.8,13.7,8.9a35.6,35.6,0,0,1,7.3,5.8,9.4,9.4,0,0,1,2.3,5.3,8.7,8.7,0,0,1-1.5,5.7,8.3,8.3,0,0,1-5.8,3.9,11.6,11.6,0,0,1-5.5-.7l.6,14.6a17.9,17.9,0,0,0,.4,3.7,4.4,4.4,0,0,0,1.6,2.1l-.5.8-9.3-6-.8-19.6Zm9.4-14.4-8.4,12.9,1.2.8a16.5,16.5,0,0,0,4.9,2.4,5.4,5.4,0,0,0,3.7-.5,8.7,8.7,0,0,0,3.3-3.2q2.2-3.4,1.7-6t-4-4.9Z" fill="#fff" stroke="#fff" stroke-miterlimit="10"/><path d="M245.1,705.9,234,700.4l-2.8,2.4a7.6,7.6,0,0,0-1.9,2.2,2.3,2.3,0,0,0,.1,2.5,10,10,0,0,0,2.8,2.1l-.4.9-10.5-5.2.4-.9a5.2,5.2,0,0,0,3.5,0,20.8,20.8,0,0,0,5-3.4l23.6-19.6.4.2L252.9,713q-.2,4.5.4,5.9a4.1,4.1,0,0,0,1.8,1.9l-.4.9-15.2-7.5.4-.9.6.3a5.3,5.3,0,0,0,2.8.8,1.4,1.4,0,0,0,1-.8,3.2,3.2,0,0,0,.3-.9q.1-.2.2-2.1Zm.1-2.1.7-13.2L235.6,699Z" fill="#fff" stroke="#fff" stroke-miterlimit="10"/><path d="M305.6,726.3l-5,11.3-29.7-9.5.3-.9,1.1.4a4.9,4.9,0,0,0,2.5.2,2.4,2.4,0,0,0,1.4-.9,10.7,10.7,0,0,0,1.3-3l7-22a11.5,11.5,0,0,0,.8-3.3,2.6,2.6,0,0,0-.7-1.5,4.6,4.6,0,0,0-2.1-1.2l-1.1-.4.3-.9,17.8,5.7-.3.9-1.5-.5a4.9,4.9,0,0,0-2.5-.2,2.5,2.5,0,0,0-1.4.9,10.7,10.7,0,0,0-1.3,3l-6.8,21.3a11.3,11.3,0,0,0-.7,3.4,2.1,2.1,0,0,0,.8,1.4,12.3,12.3,0,0,0,2.9,1.2l2.8.9a9.9,9.9,0,0,0,4.7.5,8.7,8.7,0,0,0,4-2,25.1,25.1,0,0,0,4.4-5.2Z" fill="#fff" stroke="#fff" stroke-miterlimit="10"/><path d="M325.8,742.4l-.2.9-17.9-4,.2-.9,1.1.3a4.9,4.9,0,0,0,2.5,0,2.4,2.4,0,0,0,1.3-1,10.7,10.7,0,0,0,1-3.1l5.1-22.5a11.5,11.5,0,0,0,.5-3.3,2.6,2.6,0,0,0-.9-1.4,4.6,4.6,0,0,0-2.2-1l-1.1-.3.2-.9,17.9,4-.2.9-1.1-.3a4.9,4.9,0,0,0-2.5,0,2.5,2.5,0,0,0-1.3,1,10.6,10.6,0,0,0-1,3.1l-5.1,22.5a11,11,0,0,0-.4,3.3,2.7,2.7,0,0,0,.9,1.4,4.6,4.6,0,0,0,2.2,1Z" fill="#fff" stroke="#fff" stroke-miterlimit="10"/><path d="M330.7,744.7v-1l1.2.2a4.7,4.7,0,0,0,2.4-.2,2.9,2.9,0,0,0,1.4-1.1,11.3,11.3,0,0,0,.7-3.2l1.5-11.4-4.9-.6.2-1.9,4.9.6,1.2-9.5a11.1,11.1,0,0,0,.1-3.4,2.7,2.7,0,0,0-1-1.3,4.7,4.7,0,0,0-2.3-.8l-1.2-.2v-.9l15.6,2a25.2,25.2,0,0,1,9.8,3,14.9,14.9,0,0,1,6.2,7.2,20.3,20.3,0,0,1-.9,16.4,14.7,14.7,0,0,1-8.5,7.4,23.2,23.2,0,0,1-6.2,1.1,27.9,27.9,0,0,1-4.9-.3Zm17.6-31.1-1.8,13.5,7.7,1-.2,1.9-7.7-1-1.5,11.7a9.6,9.6,0,0,0-.1,2.7,1.5,1.5,0,0,0,.6.8,4.3,4.3,0,0,0,2,.6,7.9,7.9,0,0,0,7-2.1q3.6-3.6,4.6-11.9.9-6.7-.7-11a8.9,8.9,0,0,0-3.7-4.8A16.8,16.8,0,0,0,348.2,713.6Z" fill="#fff" stroke="#fff" stroke-miterlimit="10"/><path d="M400.7,733.1,401,744a11,11,0,0,0,.4,3.4,2.7,2.7,0,0,0,1.2,1.1,4.7,4.7,0,0,0,2.4.4h1.2v1l-18.3.6v-1H389a4.9,4.9,0,0,0,2.4-.6,2.4,2.4,0,0,0,1-1.3,10.7,10.7,0,0,0,.2-3.3l-.8-23.1a11.6,11.6,0,0,0-.4-3.4,2.6,2.6,0,0,0-1.2-1.1,4.7,4.7,0,0,0-2.4-.4h-1.2v-1l18.3-.6v1h-1.2a4.8,4.8,0,0,0-2.4.6,2.5,2.5,0,0,0-1,1.3,10.6,10.6,0,0,0-.2,3.3l.3,9.9,12.4-.4-.3-9.9a11.6,11.6,0,0,0-.4-3.4A2.6,2.6,0,0,0,411,716a4.7,4.7,0,0,0-2.4-.4h-1.1v-1l18.3-.6v1h-1.1a4.8,4.8,0,0,0-2.4.6,2.5,2.5,0,0,0-1,1.3,10.7,10.7,0,0,0-.2,3.3l.8,23.1a11.5,11.5,0,0,0,.4,3.4,2.6,2.6,0,0,0,1.2,1.1,4.7,4.7,0,0,0,2.4.4H427v1l-18.3.6v-1h1.1a4.8,4.8,0,0,0,2.4-.6,2.5,2.5,0,0,0,1-1.3,10.7,10.7,0,0,0,.2-3.3l-.4-10.9Z" fill="#fff" stroke="#fff" stroke-miterlimit="10"/><path d="M440.9,713.7l2.2,14.1h.7a5.5,5.5,0,0,0,4.5-2.8,12.9,12.9,0,0,0,1-6.4h1l2.8,18.2h-1a13.8,13.8,0,0,0-2-4.7,5.6,5.6,0,0,0-2.7-2.2,8.8,8.8,0,0,0-3.9-.1l1.5,9.8a14.2,14.2,0,0,0,.8,3.5,2.1,2.1,0,0,0,1.1.9,4.3,4.3,0,0,0,2.2.1l2.1-.3a11.3,11.3,0,0,0,10.6-10.9h.9v11.3l-30,4.6v-.9l1.2-.2a4.9,4.9,0,0,0,2.3-.9,2.4,2.4,0,0,0,.8-1.4,10.7,10.7,0,0,0-.2-3.3l-3.5-22.8a18.4,18.4,0,0,0-.6-2.9,2.5,2.5,0,0,0-1.2-1.2,4.4,4.4,0,0,0-2.8-.3l-1.2.2v-.9l29-4.4,1.6,10.3h-1a12.7,12.7,0,0,0-2.9-5.1,7.8,7.8,0,0,0-4.2-1.8,20.8,20.8,0,0,0-5.4.4Z" fill="#fff" stroke="#fff" stroke-miterlimit="10"/><path d="M499.2,721.9l1.9,12.2L471,742.2l-.2-.9,1.1-.3a4.9,4.9,0,0,0,2.2-1.2,2.4,2.4,0,0,0,.7-1.5,10.7,10.7,0,0,0-.6-3.2l-6-22.3a11.5,11.5,0,0,0-1.1-3.2,2.6,2.6,0,0,0-1.4-.8,4.6,4.6,0,0,0-2.4.1l-1.1.3-.2-.9,18.1-4.8.2.9-1.5.4a4.8,4.8,0,0,0-2.2,1.2,2.5,2.5,0,0,0-.7,1.5,10.6,10.6,0,0,0,.6,3.2l5.8,21.6a11.3,11.3,0,0,0,1.2,3.2,2.1,2.1,0,0,0,1.5.7,12.3,12.3,0,0,0,3.1-.6l2.8-.8a9.9,9.9,0,0,0,4.2-2.2,8.7,8.7,0,0,0,2.3-3.8,25.2,25.2,0,0,0,.9-6.7Z" fill="#fff" stroke="#fff" stroke-miterlimit="10"/><path d="M508.4,732l-.4-.9,1.1-.4a4.7,4.7,0,0,0,2-1.3,2.9,2.9,0,0,0,.6-1.7,12.3,12.3,0,0,0-1-3.1l-8.5-21.5a11.5,11.5,0,0,0-1.5-3,2.6,2.6,0,0,0-1.5-.7,4.7,4.7,0,0,0-2.4.4l-1.1.4-.4-.9,14.6-5.8a25.1,25.1,0,0,1,10-2.1,15,15,0,0,1,8.9,3.3,20.2,20.2,0,0,1,7.2,14.8,15.7,15.7,0,0,1-1,5.9,15.1,15.1,0,0,1-2.9,4.6,23.3,23.3,0,0,1-4.9,4,28.3,28.3,0,0,1-4.5,2.1Zm.3-35.7,10.1,25.5a9.6,9.6,0,0,0,1.2,2.4,1.5,1.5,0,0,0,.9.4,4.2,4.2,0,0,0,2-.4,7.8,7.8,0,0,0,5.1-5.2q1.4-4.8-1.7-12.6-2.5-6.3-5.9-9.3a9,9,0,0,0-5.6-2.4A16.8,16.8,0,0,0,508.6,696.3Z" fill="#fff" stroke="#fff" stroke-miterlimit="10"/><path d="M531.1,685.2l15.9-8.6.5.8-.8.4a6.3,6.3,0,0,0-2.3,1.7,2.4,2.4,0,0,0-.4,1.6,12.6,12.6,0,0,0,1.5,3.5l8.2,15.1q2.2,4.1,3.6,5.1a5.9,5.9,0,0,0,3.3,1.1,7.7,7.7,0,0,0,4.1-1.1,8.8,8.8,0,0,0,3.7-3.4,7.9,7.9,0,0,0,1-4.5q-.2-2.5-2.9-7.4l-6.8-12.6a8.3,8.3,0,0,0-2-2.7,2.9,2.9,0,0,0-1.8-.6,7.3,7.3,0,0,0-3.2,1l-.5-.8,10.7-5.8.5.8-.6.3a4.7,4.7,0,0,0-1.9,1.7,3.4,3.4,0,0,0-.4,2.2,8.9,8.9,0,0,0,1.1,2.8l6.3,11.7a34.6,34.6,0,0,1,3.5,8.2,10,10,0,0,1-1.1,6.3q-1.7,3.5-6.5,6.1a16.4,16.4,0,0,1-6.8,2.3,10.3,10.3,0,0,1-6.2-1.5,14.7,14.7,0,0,1-4.5-5.5l-8.2-15.1a12.2,12.2,0,0,0-2.1-3.2,2.5,2.5,0,0,0-1.6-.5,7.1,7.1,0,0,0-2.9,1.1Z" fill="#fff" stroke="#fff" stroke-miterlimit="10"/><path d="M585.8,675.3l5.7,8a10.9,10.9,0,0,0,2.3,2.7,2.6,2.6,0,0,0,1.7.3,8.3,8.3,0,0,0,2.9-1.5l.6.8-14.7,10.3-.6-.8a8.1,8.1,0,0,0,2.4-2.3,2.6,2.6,0,0,0,.3-1.7,10.7,10.7,0,0,0-1.8-3.1l-13.1-18.6a10.8,10.8,0,0,0-2.3-2.7,2.6,2.6,0,0,0-1.7-.3,8.3,8.3,0,0,0-2.9,1.5l-.6-.8,13.3-9.4a35.6,35.6,0,0,1,8.1-4.6,9.4,9.4,0,0,1,5.8-.1,8.7,8.7,0,0,1,4.7,3.5,8.3,8.3,0,0,1,1.4,6.9,11.6,11.6,0,0,1-2.7,4.8l13.7,4.9a17.8,17.8,0,0,0,3.6,1,4.4,4.4,0,0,0,2.5-.7l.6.8-9,6.4L587.7,674Zm-9.9-14.1,8.9,12.6,1.2-.8a16.5,16.5,0,0,0,4-3.6,5.4,5.4,0,0,0,.9-3.6,8.7,8.7,0,0,0-1.7-4.3q-2.3-3.3-4.9-3.8t-6,1.9Z" fill="#fff" stroke="#fff" stroke-miterlimit="10"/><path d="M644.8,630.1l7.6,9.8L630,661.6l-.7-.7.8-.8a4.9,4.9,0,0,0,1.4-2.1,2.4,2.4,0,0,0-.1-1.6,10.7,10.7,0,0,0-2.1-2.5l-16.1-16.6a11.5,11.5,0,0,0-2.5-2.2,2.6,2.6,0,0,0-1.6,0,4.6,4.6,0,0,0-2,1.3l-.8.8-.7-.7,13.4-13,.7.7-1.1,1.1a4.8,4.8,0,0,0-1.4,2.1,2.5,2.5,0,0,0,.1,1.6,10.6,10.6,0,0,0,2.1,2.5L635,647.4a11.3,11.3,0,0,0,2.6,2.2,2.1,2.1,0,0,0,1.6-.1,12.3,12.3,0,0,0,2.4-2l2.1-2a9.9,9.9,0,0,0,2.7-3.9,8.7,8.7,0,0,0,.2-4.5,25.2,25.2,0,0,0-2.5-6.3Z" fill="#fff" stroke="#fff" stroke-miterlimit="10"/><path d="M632.8,590.8l1.2,12.4-1.5,1.7-4.8-8.2ZM668.5,620l.7.6-12,13.9-.7-.6.8-.9a4.9,4.9,0,0,0,1.2-2.2,2.4,2.4,0,0,0-.3-1.6,10.7,10.7,0,0,0-2.3-2.4l-17.4-15.1a11.5,11.5,0,0,0-2.7-2,2.6,2.6,0,0,0-1.6.1,4.6,4.6,0,0,0-1.9,1.4l-.8.9-.7-.6,12-13.9.7.6-.8.9a4.8,4.8,0,0,0-1.2,2.2,2.5,2.5,0,0,0,.2,1.6,10.7,10.7,0,0,0,2.3,2.4l17.4,15.1a11.1,11.1,0,0,0,2.7,2,2.7,2.7,0,0,0,1.7-.1,4.7,4.7,0,0,0,1.9-1.4Z" fill="#fff" stroke="#fff" stroke-miterlimit="10"/><path d="M654,586.3l11.6,8.5.6-.8a8.9,8.9,0,0,0,1.7-3.5,6,6,0,0,0-.4-3.4,10.8,10.8,0,0,0-2.8-3.7l.5-.7L679.4,593l-.5.7q-4.3-2.6-6.9-1.7a8.2,8.2,0,0,0-4.2,3.1l-.6.8,8.7,6.3a11.1,11.1,0,0,0,2.9,1.7,2.7,2.7,0,0,0,1.6-.2,4.6,4.6,0,0,0,1.8-1.6l.7-.9.8.6-10.8,14.8-.8-.6.7-.9a4.9,4.9,0,0,0,1-2.3,2.4,2.4,0,0,0-.4-1.6,10.7,10.7,0,0,0-2.5-2.2l-18.6-13.6a11.5,11.5,0,0,0-2.9-1.8,2.6,2.6,0,0,0-1.6.2,4.7,4.7,0,0,0-1.8,1.6l-.7.9-.8-.6L661.9,572l8.1,5.9-.6.9a9.3,9.3,0,0,0-5.3-1.6,8.1,8.1,0,0,0-4.5,2.1,27.8,27.8,0,0,0-3.7,4.4Z" fill="#fff" stroke="#fff" stroke-miterlimit="10"/><path d="M674.8,549l10.2,5.7-.5.9a12,12,0,0,0-8-.4,9.3,9.3,0,0,0-5.5,4.1,5.9,5.9,0,0,0-.9,4.3,4.3,4.3,0,0,0,2,3,3.9,3.9,0,0,0,2.1.6,8.8,8.8,0,0,0,3.3-.8,54.2,54.2,0,0,0,5.5-3.3q5.7-3.7,9.2-4.2a9.7,9.7,0,0,1,6.4,1.3,10,10,0,0,1,4.8,6.8,12.3,12.3,0,0,1-1.7,9.1,14.1,14.1,0,0,1-1.9,2.5,23.6,23.6,0,0,1-3,2.5,5.6,5.6,0,0,0-1.5,1.5,2.5,2.5,0,0,0-.3,1.5,3.6,3.6,0,0,0,.7,1.9l-.5.8L683.6,580l.5-.8a15.2,15.2,0,0,0,9.6.6,10.3,10.3,0,0,0,6.1-4.5,6.6,6.6,0,0,0,1-4.8,4.8,4.8,0,0,0-4.7-4,7.6,7.6,0,0,0-2.9.6,30.3,30.3,0,0,0-4.8,2.7,41.2,41.2,0,0,1-7,3.9,12.3,12.3,0,0,1-4.8.9,9.2,9.2,0,0,1-4.4-1.3,9.5,9.5,0,0,1-4.6-6.3,10.8,10.8,0,0,1,1.4-8.2,13.2,13.2,0,0,1,2-2.6,16.6,16.6,0,0,1,2.5-2,7,7,0,0,0,2-1.7,1.4,1.4,0,0,0,.2-1.1,4.8,4.8,0,0,0-1.3-1.6Z" fill="#fff" stroke="#fff" stroke-miterlimit="10"/><path d="M691.9,515.4l8.6,4-.4.8a15,15,0,0,0-5.1-.3,7.1,7.1,0,0,0-3.2,1.5,8.9,8.9,0,0,0-1.9,2.9l-1.1,2.4,24.5,11.4a11,11,0,0,0,3.2,1.1,2.7,2.7,0,0,0,1.6-.6,4.7,4.7,0,0,0,1.5-1.9l.5-1.1.9.4-7.7,16.7-.9-.4.5-1.1a4.8,4.8,0,0,0,.5-2.5,2.5,2.5,0,0,0-.7-1.5,10.7,10.7,0,0,0-2.8-1.6l-24.5-11.4-1.1,2.3q-1.5,3.2-.8,5.3a9.9,9.9,0,0,0,4.2,5.1l-.4.9-8.6-4Z" fill="#fff" stroke="#fff" stroke-miterlimit="10"/><path d="M687.3,492.5l5.5,11.1-.8,2.1-7.4-5.9Zm43.8,14.4.9.3-6.2,17.3-.9-.3.4-1.1a4.9,4.9,0,0,0,.3-2.5,2.4,2.4,0,0,0-.8-1.4,10.7,10.7,0,0,0-3-1.4L700.1,510a11.5,11.5,0,0,0-3.3-.9,2.6,2.6,0,0,0-1.5.7,4.7,4.7,0,0,0-1.3,2l-.4,1.1-.9-.3,6.2-17.3.9.3-.4,1.1a4.9,4.9,0,0,0-.3,2.5,2.5,2.5,0,0,0,.8,1.4,10.7,10.7,0,0,0,3,1.4l21.7,7.9a11,11,0,0,0,3.3.9,2.7,2.7,0,0,0,1.5-.7,4.6,4.6,0,0,0,1.3-2Z" fill="#fff" stroke="#fff" stroke-miterlimit="10"/><path d="M730.3,467.8l11.6,4.4-8,30.1-.9-.2.3-1.1a4.8,4.8,0,0,0,.1-2.5,2.4,2.4,0,0,0-.9-1.3,10.7,10.7,0,0,0-3.1-1.1L707,490.1a11.5,11.5,0,0,0-3.3-.6,2.6,2.6,0,0,0-1.4.8,4.6,4.6,0,0,0-1.1,2.1l-.3,1.1-.9-.2,4.8-18.1.9.2-.4,1.5a4.8,4.8,0,0,0-.1,2.5,2.5,2.5,0,0,0,.9,1.3,10.6,10.6,0,0,0,3.1,1.1l21.6,5.7a11.3,11.3,0,0,0,3.4.6,2.1,2.1,0,0,0,1.4-.9,12.3,12.3,0,0,0,1-3l.7-2.8a9.9,9.9,0,0,0,.2-4.8,8.7,8.7,0,0,0-2.2-3.9,25.2,25.2,0,0,0-5.4-4.1Z" fill="#fff" stroke="#fff" stroke-miterlimit="10"/><path d="M736.2,430.8l12,3.1-4.6,30.8h-.9l.2-1.2a4.9,4.9,0,0,0-.2-2.5,2.4,2.4,0,0,0-1.1-1.2,10.7,10.7,0,0,0-3.2-.8l-22.8-3.4a11.5,11.5,0,0,0-3.4-.2,2.6,2.6,0,0,0-1.3,1,4.6,4.6,0,0,0-.8,2.2l-.2,1.2h-.9l2.8-18.5h.9l-.2,1.5a4.9,4.9,0,0,0,.2,2.5,2.5,2.5,0,0,0,1.1,1.2,10.7,10.7,0,0,0,3.2.8l22.1,3.3a11.3,11.3,0,0,0,3.4.2,2.1,2.1,0,0,0,1.3-1,12.3,12.3,0,0,0,.7-3.1l.4-2.9a9.9,9.9,0,0,0-.3-4.8,8.7,8.7,0,0,0-2.6-3.6,25.2,25.2,0,0,0-5.8-3.5Z" fill="#fff" stroke="#fff" stroke-miterlimit="10"/></svg>