<svg xmlns="http://www.w3.org/2000/svg" xmlns:xlink="http://www.w3.org/1999/xlink" viewBox="0 0 260 336.2"><defs><linearGradient id="a" x1="168.5" y1="87.4" x2="168.5" y2="323.46" gradientTransform="matrix(1, 0, 0, -1, -38.5, 338)" gradientUnits="userSpaceOnUse"><stop offset="0.57" stop-color="#006cb7"/><stop offset="0.88" stop-color="#d7dff2"/></linearGradient><linearGradient id="b" x1="168.5" y1="169.67" x2="168.5" y2="340.85" gradientTransform="matrix(1, 0, 0, -1, -38.5, 338)" gradientUnits="userSpaceOnUse"><stop offset="0" stop-color="#ee3b34"/><stop offset="0.85" stop-color="#ffd9cc"/></linearGradient><linearGradient id="c" x1="168.5" y1="98.06" x2="168.5" y2="187.86" gradientTransform="matrix(1, 0, 0, -1, -38.5, 338)" gradientUnits="userSpaceOnUse"><stop offset="0" stop-color="#7a7b7f"/><stop offset="0.5"/><stop offset="1" stop-color="#7a7b7f"/></linearGradient></defs><title>ka</title><path d="M130,.4c17.7,18.6,36.4,33.6,58.9,46S235,67,260.1,72.4c-1.3,25.1-4.2,49.9-9.9,74.3a334.1,334.1,0,0,1-23.9,67.7,342.9,342.9,0,0,1-38,61.6c-17.2,22.3-37.1,42.1-58.2,60.6C109,318.1,89.2,298.3,71.9,276a342.8,342.8,0,0,1-38-61.6A334,334,0,0,1,10,146.7C4.2,122.3,1.4,97.5.1,72.4c25-5.4,48.7-13.7,71.2-26S112.3,19,130,.4Z" transform="translate(-0.1 -0.4)"/><path d="M130,5a234.7,234.7,0,0,0,57.4,44.1,255.3,255.3,0,0,0,69.4,25.7,399.1,399.1,0,0,1-9.7,71.1A333.4,333.4,0,0,1,185.7,274c-16.6,21.4-35.4,40.6-55.7,58.4-20.3-17.8-39.1-36.9-55.7-58.4A333.4,333.4,0,0,1,12.9,146,399.4,399.4,0,0,1,3.2,74.9,255.3,255.3,0,0,0,72.6,49.2,234.7,234.7,0,0,0,130,5Z" transform="translate(-0.1 -0.4)" fill="#fff"/><path d="M130,12.5A235.1,235.1,0,0,1,75.1,53.7,254.7,254.7,0,0,1,8.7,79,381,381,0,0,0,18,144.8,328.4,328.4,0,0,0,78.4,270.9,405,405,0,0,0,130,325.5a404.9,404.9,0,0,0,51.6-54.6A328.4,328.4,0,0,0,242,144.8,381,381,0,0,0,251.3,79a254.7,254.7,0,0,1-66.4-25.4A235.1,235.1,0,0,1,130,12.4Z" transform="translate(-0.1 -0.4)"/><path d="M130,16.9A241.1,241.1,0,0,1,76.6,56.4,260.9,260.9,0,0,1,12,81.5,378.1,378.1,0,0,0,21.1,144a322.2,322.2,0,0,0,23.1,65.4A332.2,332.2,0,0,0,81,268.9a398.9,398.9,0,0,0,49.1,52.4,399,399,0,0,0,49.1-52.4A332.1,332.1,0,0,0,216,209.4,322.3,322.3,0,0,0,238.9,144,378.2,378.2,0,0,0,248,81.4a260.9,260.9,0,0,1-64.7-25.1A241.1,241.1,0,0,1,130,16.9Z" transform="translate(-0.1 -0.4)" fill="url(#a)"/><path d="M130,42.4a289.7,289.7,0,0,0,45.1,30.9A301,301,0,0,0,228,95.6c-1.5,12.8-3.3,25.5-6,38.1a304.7,304.7,0,0,1-21.8,65.2,309.5,309.5,0,0,1-39.8,63.5A427.3,427.3,0,0,1,130,295.9a427.1,427.1,0,0,1-30.4-33.5,309.5,309.5,0,0,1-39.8-63.5A304.7,304.7,0,0,1,38,133.7c-2.7-12.6-4.5-25.3-6-38.1A301,301,0,0,0,84.9,73.3,289.8,289.8,0,0,0,130,42.4Z" transform="translate(-0.1 -0.4)"/><path d="M130,57.1A278.4,278.4,0,0,1,90.3,83.3a292.7,292.7,0,0,1-45.9,20.1q2,15.4,5.3,30.4a293.3,293.3,0,0,0,20.4,60.1,303.7,303.7,0,0,0,36.3,58.7A336.3,336.3,0,0,0,130,279.5q12.4-12.9,23.6-26.9a303.7,303.7,0,0,0,36.3-58.7,293.3,293.3,0,0,0,20.4-60.1q3.3-15,5.3-30.4a292.8,292.8,0,0,1-45.9-20.1A278.5,278.5,0,0,1,130,57.1Z" transform="translate(-0.1 -0.4)" fill="url(#b)"/><path d="M130,53.1q-9,7.3-18.5,13.7A287.6,287.6,0,0,1,64.8,92.3q-11.7,5.1-23.8,9a317.5,317.5,0,0,0,14.4,64.5,294.4,294.4,0,0,0,26.9,57.7,331.7,331.7,0,0,0,47.6,60.6,331.8,331.8,0,0,0,47.6-60.6,294.4,294.4,0,0,0,26.9-57.7,317.5,317.5,0,0,0,14.4-64.5q-12.1-4-23.8-9a287.5,287.5,0,0,1-46.5-25.5Q139,60.4,130,53.1Zm0-6.7c6.9,5.7,14,11.1,21.4,16.1a282.1,282.1,0,0,0,45.8,25c9,3.9,18.1,7.2,27.4,10.2a331.1,331.1,0,0,1-15.1,69.8,297.7,297.7,0,0,1-27.4,58.7c-14.6,24.1-32.3,45.4-52.1,65.2-19.8-19.8-37.5-41.2-52.1-65.2a297.6,297.6,0,0,1-27.4-58.7A331.1,331.1,0,0,1,35.4,97.7c9.3-3,18.4-6.3,27.4-10.2a282.1,282.1,0,0,0,45.8-25C116,57.5,123.1,52,130,46.4Z" transform="translate(-0.1 -0.4)" fill="#fff"/><path d="M130,240.6a44.9,44.9,0,1,0-44.9-45A44.9,44.9,0,0,0,130,240.6Z" transform="translate(-0.1 -0.4)" fill="url(#c)"/><path d="M130,153.9a42.1,42.1,0,0,1,12.9,2l-3.3,8.7a6.3,6.3,0,0,1-2.2,2.9,7.7,7.7,0,0,1-3.5,1.1,34.5,34.5,0,0,1-7.9,0,7.7,7.7,0,0,1-3.5-1.1,6.3,6.3,0,0,1-2.2-2.9l-3.3-8.7A42.1,42.1,0,0,1,130,153.9Z" transform="translate(-0.1 -0.4)" fill="#7e5342"/><path d="M145.8,157a42.1,42.1,0,0,1,22.9,22.9l-12.2,4.4a10.1,10.1,0,0,0-2.3,1.1l-13.2-17a10,10,0,0,0,1.5-2.7Z" transform="translate(-0.1 -0.4)" fill="#7e5342"/><path d="M169.8,182.8a42.6,42.6,0,0,1,2,12.8,42.1,42.1,0,0,1-2,12.8L157.6,204a4.4,4.4,0,0,1-3-2.8c-.7-2-.7-9.2,0-11.2a4.4,4.4,0,0,1,3-2.8Z" transform="translate(-0.1 -0.4)" fill="#7e5342"/><path d="M168.7,211.4a42,42,0,0,1-22.9,22.9l-3.3-8.7A10.4,10.4,0,0,0,141,223l13.2-17a8.9,8.9,0,0,0,2.3,1Z" transform="translate(-0.1 -0.4)" fill="#7e5342"/><path d="M142.9,235.4a41.8,41.8,0,0,1-25.9,0l3.3-8.7a6.4,6.4,0,0,1,2.2-3,8.3,8.3,0,0,1,3.5-1.1,40.1,40.1,0,0,1,7.9,0,8.3,8.3,0,0,1,3.5,1.1,6.4,6.4,0,0,1,2.2,3Z" transform="translate(-0.1 -0.4)" fill="#7e5342"/><path d="M114.2,234.3a42.3,42.3,0,0,1-22.9-22.9l12.2-4.4a10,10,0,0,0,2.3-1.1l13.2,17a9.3,9.3,0,0,0-1.5,2.6Z" transform="translate(-0.1 -0.4)" fill="#7e5342"/><path d="M90.2,208.5a42.1,42.1,0,0,1-2-12.8,42.6,42.6,0,0,1,2-12.8l12.2,4.4a4.4,4.4,0,0,1,3,2.8c.7,2,.7,9.2,0,11.2a4.4,4.4,0,0,1-3,2.8Z" transform="translate(-0.1 -0.4)" fill="#7e5342"/><path d="M91.3,179.9A42.2,42.2,0,0,1,114.2,157l3.3,8.7a9,9,0,0,0,1.5,2.7l-13.2,17a10.2,10.2,0,0,0-2.3-1.1Z" transform="translate(-0.1 -0.4)" fill="#7e5342"/><path d="M138.7,220.9,149,207.6c-11.3,3.6-26.6,3.6-38,0l10.3,13.3a10.4,10.4,0,0,1,4.4-1.4,36,36,0,0,1,8.6,0,10.4,10.4,0,0,1,4.4,1.4" transform="translate(-0.1 -0.4)" fill="#7e5342"/><path d="M121.3,170.4,111,183.6c11.3-3.6,26.7-3.6,38,0l-10.3-13.3a11,11,0,0,1-4.4,1.4,41.2,41.2,0,0,1-8.6,0,11,11,0,0,1-4.4-1.3" transform="translate(-0.1 -0.4)" fill="#7e5342"/><path d="M150.8,194.1a18.6,18.6,0,0,1,.8-5l.3-.9c-11.1-5.5-32.8-5.5-43.9,0l.4.9a21.2,21.2,0,0,1,.7,5h3.1v-.8a1.6,1.6,0,1,1,3.1,0v.8h3.4v-.8a1.6,1.6,0,1,1,3.1,0v.8h3.4v-.8a1.6,1.6,0,1,1,3.1,0v.8h3.3v-.8a1.6,1.6,0,1,1,3.1,0v.8h3.4v-.8a1.6,1.6,0,1,1,3.1,0v.8h3.4v-.8a1.6,1.6,0,1,1,3.1,0v.8" transform="translate(-0.1 -0.4)" fill="#7e5342"/><path d="M108.1,203.1c11.1,5.5,32.8,5.5,43.9,0l-.3-.9a19.2,19.2,0,0,1-.8-5h-3.1v.8a1.6,1.6,0,1,1-3.1,0v-.8h-3.4v.8a1.6,1.6,0,1,1-3.1,0v-.8h-3.4v.8a1.6,1.6,0,1,1-3.1,0v-.8h-3.3v.8a1.6,1.6,0,1,1-3.1,0v-.8h-3.4v.8a1.6,1.6,0,1,1-3.1,0v-.8h-3.4v.8a1.6,1.6,0,1,1-3.1,0v-.8h-3.1a21.6,21.6,0,0,1-.7,5Z" transform="translate(-0.1 -0.4)" fill="#7e5342"/><path d="M91.4,105.8v11.4c0,.5,0,.6.6.3a23.3,23.3,0,0,0,9.4-8.9,35.6,35.6,0,0,0,4.7-15.1,7.8,7.8,0,0,1,4-6.5l6.5-4.1c2.2-1.4,4.4-2.8,6.4-4.3,4.4-3.2,6.8-1.3,6.6,3.9a45.9,45.9,0,0,1-6.3,21.3,76.8,76.8,0,0,1-13.5,16.7l11.5,12.2c3.5,3.7,3.7,7.6-1.8,8.7l-4.6,1.1-4.6,1.5c-3.5.9-4.9,0-7.3-2.3l-2.9-3.1c-1.4-1.5-3.6-4.3-5.8-4.9s-2.8,2-2.8,3.7v15.2a7,7,0,0,1-1.9,5.4,60.4,60.4,0,0,0-8.1,11.1c-1.3,2.3-4,4.1-6.6,2.6s-2.2-3.3-2.2-5.5V111.5c.3-4,.8-5.3,4.6-7.1l8.2-3.9c2.1-1,3.6-1,4.5-.3s1.4,3.3,1.4,5.6" transform="translate(-0.1 -0.4)"/><path d="M165.5,142.8a88.2,88.2,0,0,0-10.8-5.8c-1-.4-.9.2-1.3,1a12.8,12.8,0,0,1-1.6,3.2,4.5,4.5,0,0,1-5.2,1.7l-6.6-1.7c-4.4-.8-3.3-6-2.6-9.1l6.7-27.3c-3-4.7-4.8-9.6-4.4-15.2.3-4,2.8-7.4,7.1-4.7a233.9,233.9,0,0,0,25.5,14.3c4.8,2.2,5,3.3,5.8,8.4l8.8,56.7c.5,2.9.7,6.3-2.7,7.7s-4.5-.5-5.8-2.8a53.3,53.3,0,0,0-3.5-5.5q-2.1-2.9-4.5-5.5c-2-2.3-1.7-3.7-2.1-6.3l-.8-4.6c-.3-1.6-.6-3.6-2-4.5Zm-3.5-27c-.4-1.7-.9-2.7-1.7-.6s-2,6.4-2.1,6.7a1.2,1.2,0,0,0,.5,1.6l4.1,1.7c.9.4,1-.2.9-1C163.2,121.4,162.4,118.6,162,115.8Z" transform="translate(-0.1 -0.4)"/><path d="M170.6,147l.8,4.2c.3,1.7.2,3.5,1.4,4.9a70.6,70.6,0,0,1,4.7,5.8,57.7,57.7,0,0,1,3.8,5.9c.5.8,1.1,1.5,1.8,1.4s1.1-3.1.9-4.2l-8.9-57c-.6-3.6-.2-4.3-3.8-5.8-9-3.8-17.9-9.4-26.1-14.6-1.9-1.2-2.1.6-2.3,2.3-.4,5.5,1.6,9.9,4.6,14.4l-7,28.4c-.2.9-1.5,5.3,0,5.6a55.6,55.6,0,0,1,7,1.8c1,.3,1.7-.4,2.3-1.4s1-2.8,1.7-4.1,1.5-1.6,4.4-.4a86.3,86.3,0,0,1,11.3,6c2.6,1.6,3,4.1,3.5,6.8m-4.2-19.4c-.6,1.4-1.9,1.9-4.1.9l-5-2.1c-3.8-1.4-3.1-2.9-2.2-6.1.5-1.5,1-3.1,1.4-4.6s1.8-5.4,4.6-5.4,2.9,2.3,3.5,4.4a57.9,57.9,0,0,1,1.6,8.1c.4,3.1.7,4,.3,4.8" transform="translate(-0.1 -0.4)" fill="#fff"/><path d="M130,141a5.3,5.3,0,0,0,0-10.5,5.3,5.3,0,0,0,0,10.5" transform="translate(-0.1 -0.4)"/><path d="M130,138a2.3,2.3,0,0,0,2.3-2.3h0A2.3,2.3,0,1,0,130,138Z" transform="translate(-0.1 -0.4)" fill="#fff"/><path d="M193.2,162.6a5.3,5.3,0,1,0-5.3-5.3,5.2,5.2,0,0,0,5.1,5.3Z" transform="translate(-0.1 -0.4)"/><path d="M193.2,159.7a2.3,2.3,0,1,0-2.3-2.3,2.3,2.3,0,0,0,2.3,2.3" transform="translate(-0.1 -0.4)" fill="#fff"/><path d="M86.4,103.5l-7.8,3.7c-2.7,1.2-2.6,1.6-2.8,4.5v54.7c0,.7-.1,2.1.4,2.6s2.1-.5,2.5-1.2a61.9,61.9,0,0,1,8.5-11.7,4.2,4.2,0,0,0,1.1-3.3V137.5c0-3.8,2.1-7.9,6.7-6.7,3,.8,5.3,3.7,7.3,5.8l2.8,3c1.8,1.8,2.2,2.2,4.7,1.5a25.6,25.6,0,0,0,4.1-1.5l4.8-1.2c2.8-.6,2-1.5.2-3.5l-12.6-13.3-1.1-1.2,1.2-1.1a76.6,76.6,0,0,0,14-17.1,42.8,42.8,0,0,0,5.9-19.7c.1-2.6.6-3.1-1.6-1.5s-4.4,3-6.5,4.4l-6.6,4.1a4.7,4.7,0,0,0-2.5,4.2,38.3,38.3,0,0,1-5.1,16.4,26.3,26.3,0,0,1-11.2,10.3c-2.8,1.4-4.4.3-4.5-2.6V105.7c0-1,.1-2-.3-2.4s-.6-.3-1.6.2" transform="translate(-0.1 -0.4)" fill="#fff"/></svg>