<?xml version="1.0" encoding="utf-8"?>
<!-- Generator: Adobe Illustrator 12.0.0, SVG Export Plug-In  -->
<!DOCTYPE svg PUBLIC "-//W3C//DTD SVG 1.1//EN" "http://www.w3.org/Graphics/SVG/1.1/DTD/svg11.dtd" [
	<!ENTITY ns_flows "http://ns.adobe.com/Flows/1.0/">
	<!ENTITY ns_svg "http://www.w3.org/2000/svg">
	<!ENTITY ns_xlink "http://www.w3.org/1999/xlink">
]>
<svg  version="1.1" xmlns="&ns_svg;" xmlns:xlink="&ns_xlink;" xmlns:a="http://ns.adobe.com/AdobeSVGViewerExtensions/3.0/"
	 width="311" height="311" viewBox="-0.8349609 -0.9521484 311 311" enable-background="new -0.8349609 -0.9521484 311 311"
	 xml:space="preserve">
<defs>
</defs>
<path fill="#FFFF00" d="M261.1816406,13.5175781C261.081543,13.5014648,213.6835938,5.0029297,155,5
	C96.3164063,5.0029297,48.9179688,13.5014648,48.8188477,13.5175781l-2.253418,0.4038086v190.9335938
	c-0.0004883,9.7158203,3.5092773,17.8540039,7.515625,24.3178711c6.6186523,10.6826172,16.3686523,18.3212891,27.1376953,24.5957031
	c9.8081055,5.7080078,21.371582,10.2519531,32.34375,14.9135742c9.512207,4.0234375,17.5908203,6.4916992,23.9423828,10.3505859
	c6.3427734,3.8764648,11.1835938,8.9208984,14.9267578,18.9868164L154.9995117,305l2.5683594-6.9804688
	c3.7441406-10.065918,8.5844727-15.1103516,14.9272461-18.9868164c6.3515625-3.8588867,14.4306641-6.3271484,23.9423828-10.3505859
	c10.9726563-4.6616211,22.5361328-9.2055664,32.34375-14.9135742c10.7695313-6.2744141,20.5185547-13.9130859,27.1381836-24.5957031
	c4.0063477-6.4638672,7.5161133-14.6020508,7.515625-24.3178711V13.9213867L261.1816406,13.5175781z"/>
<path fill="#28268E" d="M251.996582,17.5927734c-5.3149414-0.7895508-13.0170898-1.8442383-22.5395508-2.8994141
	c-19.0458984-2.1108398-45.3769531-4.2211914-74.456543-4.2207031V290.1875
	c3.8276367-7.503418,8.8457031-12.3569336,14.6640625-15.8383789c7.2202148-4.3432617,15.4482422-6.7905273,24.6342773-10.7041016
	c11.0571289-4.6889648,22.4492188-9.1938477,31.7280273-14.6049805
	c10.3608398-6.0341797,19.2958984-13.144043,25.2402344-22.7480469c3.6879883-5.9604492,6.6948242-13.0693359,6.6953125-21.4370117
	V18.5224609C256.5722656,18.2939453,254.5629883,17.9746094,251.996582,17.5927734z"/>
<path fill="#FE110A" d="M155,10.4726563C104.3603516,10.4711914,62.0629883,16.875,52.0380859,18.5224609v186.3325195
	c0,8.3676758,3.0073242,15.4765625,6.6948242,21.4370117c5.9448242,9.6040039,14.8798828,16.7138672,25.2407227,22.7480469
	c9.2788086,5.4111328,20.6708984,9.9160156,31.7270508,14.6049805c9.1865234,3.9135742,17.4150391,6.3608398,24.6347656,10.7041016
	c5.8178711,3.4814453,10.8369141,8.3354492,14.6645508,15.8388672c0-0.0004883,0.0004883-0.0004883,0.0004883-0.0004883V10.4726563
	H155z"/>
<path fill="#FFFFFF" d="M142.237793,112.1289063h-2.3818359V95.5043945c-0.8706055,1.5073242-1.8959961,2.621582-3.0771484,3.34375
	v-4.0029297c0.621582-0.3764648,1.296875-1.0908203,2.0258789-2.1430664c0.7290039-1.0512695,1.2290039-2.2783203,1.5-3.6811523
	h1.9331055V112.1289063z"/>
<path fill="#FFFFFF" d="M145.8491211,106.8071289l2.3056641-0.4707031c0.0561523,0.8686523,0.203125,1.5126953,0.4404297,1.9311523
	s0.5512695,0.6279297,0.940918,0.6279297c0.4916992,0,0.9101563-0.418457,1.2548828-1.2558594
	s0.5649414-2.574707,0.6611328-5.2119141c-0.5986328,1.2871094-1.3476563,1.9306641-2.2460938,1.9306641
	c-0.9780273,0-1.8217773-0.6987305-2.5307617-2.0957031c-0.7094727-1.3969727-1.0639648-3.215332-1.0639648-5.4550781
	c0-2.3334961,0.3745117-4.2148438,1.1235352-5.6435547c0.7485352-1.4287109,1.7026367-2.1430664,2.8608398-2.1430664
	c1.2602539,0,2.2944336,0.902832,3.1025391,2.7080078c0.8085938,1.8056641,1.2124023,4.7749023,1.2124023,8.9086914
	c0,4.2075195-0.4208984,7.2426758-1.2631836,9.1054688c-0.8417969,1.862793-1.9384766,2.7939453-3.2890625,2.7939453
	c-0.9716797,0-1.7573242-0.4785156-2.3564453-1.4365234C146.402832,110.1435547,146.0185547,108.7124023,145.8491211,106.8071289z
	 M151.2402344,97.1689453c0-1.4233398-0.1767578-2.527832-0.5297852-3.3125
	c-0.3535156-0.7851563-0.7612305-1.1777344-1.2246094-1.1777344c-0.440918,0-0.8071289,0.3222656-1.0981445,0.9658203
	s-0.4365234,1.6977539-0.4365234,3.1630859c0,1.4858398,0.1582031,2.5771484,0.4750977,3.2729492
	c0.315918,0.6962891,0.7119141,1.0439453,1.1865234,1.0439453c0.4580078,0,0.8432617-0.3344727,1.1572266-1.0043945
	C151.0834961,99.4501953,151.2402344,98.4663086,151.2402344,97.1689453z"/>
<path fill="#FFFFFF" d="M161.5488281,112.1289063h-2.3823242V95.5043945c-0.8701172,1.5073242-1.8959961,2.621582-3.0771484,3.34375
	v-4.0029297c0.621582-0.3764648,1.296875-1.0908203,2.0258789-2.1430664
	c0.7294922-1.0512695,1.2294922-2.2783203,1.5004883-3.6811523h1.9331055V112.1289063z"/>
<path fill="#FFFFFF" d="M165.159668,106.8071289l2.3061523-0.4707031c0.0561523,0.8686523,0.203125,1.5126953,0.4404297,1.9311523
	s0.5512695,0.6279297,0.940918,0.6279297c0.4916992,0,0.9101563-0.418457,1.2548828-1.2558594
	s0.5649414-2.574707,0.6611328-5.2119141c-0.5991211,1.2871094-1.3476563,1.9306641-2.246582,1.9306641
	c-0.9775391,0-1.8212891-0.6987305-2.5302734-2.0957031c-0.7094727-1.3969727-1.0639648-3.215332-1.0639648-5.4550781
	c0-2.3334961,0.3740234-4.2148438,1.1235352-5.6435547c0.7485352-1.4287109,1.7021484-2.1430664,2.8608398-2.1430664
	c1.2602539,0,2.2944336,0.902832,3.1025391,2.7080078c0.8081055,1.8056641,1.2124023,4.7749023,1.2124023,8.9086914
	c0,4.2075195-0.4213867,7.2426758-1.2631836,9.1054688c-0.8422852,1.862793-1.9384766,2.7939453-3.2895508,2.7939453
	c-0.9716797,0-1.7573242-0.4785156-2.3564453-1.4365234C165.7138672,110.1435547,165.3291016,108.7124023,165.159668,106.8071289z
	 M170.5512695,97.1689453c0-1.4233398-0.1767578-2.527832-0.5297852-3.3125
	c-0.3535156-0.7851563-0.7617188-1.1777344-1.2250977-1.1777344c-0.440918,0-0.8066406,0.3222656-1.0976563,0.9658203
	s-0.4365234,1.6977539-0.4365234,3.1630859c0,1.4858398,0.1582031,2.5771484,0.4746094,3.2729492
	c0.3164063,0.6962891,0.7124023,1.0439453,1.1870117,1.0439453c0.4575195,0,0.8432617-0.3344727,1.1567383-1.0043945
	C170.3945313,99.4501953,170.5512695,98.4663086,170.5512695,97.1689453z"/>
<polygon fill="#FFFFFF" points="64.300293,86.890625 90.4824219,86.890625 154.9995117,223.140625 219.5170898,86.890625 
	245.7001953,86.890625 155.9272461,276.4780273 154.9995117,278.4365234 64.300293,86.890625 "/>
<polygon fill="#FE110A" points="242.4575195,88.9428711 220.8154297,88.9428711 155.0004883,227.9350586 155.0004883,273.6396484 
	"/>
<polygon fill="#28268E" points="89.184082,88.9428711 67.5419922,88.9428711 155,273.640625 155.0004883,273.6396484 
	155.0004883,227.9350586 154.9995117,227.9365234 "/>
<path d="M170.9365234,120.3520508c-0.0410156-0.0224609-0.0644531-0.0356445-0.0683594-0.0375977l-0.0029297,0.0053711
	c-4.8500977-2.15625-10.215332-3.3642578-15.8652344-3.3642578c-21.597168,0.0004883-39.1040039,17.5073242-39.1044922,39.1044922
	C115.8964844,177.6572266,133.402832,195.1640625,155,195.1645508c21.597168-0.0004883,39.1040039-17.5073242,39.1044922-39.1044922
	C194.1044922,140.140625,184.5869141,126.4536133,170.9365234,120.3520508z"/>
<path fill="#FFFFFF" d="M191.340332,148.8188477c-0.0693359,0.2456055-0.1953125,0.6787109-0.3740234,1.2338867
	c-0.425293,1.3266602-1.1513672,3.3271484-2.0390625,4.9262695c-0.4399414,0.7983398-0.925293,1.4926758-1.3798828,1.9365234
	c-0.3432617,0.3378906-0.6376953,0.5073242-0.8671875,0.5708008l-11.8950195-6.640625l-4.5244141-14.699707l5.6972656-8.581543
	h2.7207031c0.875,0.7270508,1.7172852,1.4916992,2.5214844,2.2958984
	C186.2822266,134.9433594,189.8886719,141.4916992,191.340332,148.8188477z"/>
<path fill="#FFFFFF" d="M119.4082031,159.309082c0.2739258,8.7006836,3.9033203,14.1835938,4.8540039,15.4775391
	c0.0131836,0.7636719,0.0644531,1.4912109,0.1396484,2.1669922c-3.4956055-5.1079102-5.737793-11.1337891-6.3037109-17.6445313
	H119.4082031z"/>
<path fill="#FFFFFF" d="M133.5288086,134.9946289c0.2133789-0.3256836,0.3862305-0.5698242,0.5039063-0.7294922
	c0.050293-0.0688477,0.0864258-0.1166992,0.1137695-0.1523438c0.1391602-0.1157227,0.4624023-0.3793945,0.9433594-0.7495117
	c1.8657227-1.4462891,6.0654297-4.4038086,9.9414063-5.6230469l8.3461914,8.9487305
	c-0.703125,4.4702148-1.7753906,7.9375-2.6811523,10.296875c-0.4692383,1.2226563-0.8925781,2.1479492-1.1962891,2.762207
	c-0.140625,0.2861328-0.2548828,0.5019531-0.3359375,0.6513672l-11.8881836,6.1201172l-8.5302734-8.0307617
	c0.6030273-4.5371094,1.9414063-8.1225586,3.1455078-10.5878906
	C132.515625,136.6225586,133.1030273,135.6459961,133.5288086,134.9946289z"/>
<path fill="#FFFFFF" d="M135.9262695,164.7021484c0.2973633-2.4628906,0.9165039-4.7910156,1.8759766-6.1455078
	l12.0205078-6.1884766l10.7250977,7.6030273c-0.3051758,4.2021484-0.7714844,7.9975586-1.168457,10.7739258
	c-0.2973633,2.081543-0.5537109,3.578125-0.675293,4.2631836c-1.4145508,0.9448242-7.1342773,4.3740234-12.019043,4.4682617
	c-0.2094727-0.125-0.5444336-0.3271484-0.9863281-0.5996094c-2.2290039-1.3725586-7.0185547-4.4785156-10.1166992-7.4038086
	C135.5859375,169.565918,135.6289063,167.0825195,135.9262695,164.7021484z"/>
<path fill="#FFFFFF" d="M171.9853516,180.1132813c-2.5151367-0.5229492-5.4086914-1.7978516-7.6811523-2.984375
	c-1.199707-0.6240234-2.230957-1.2202148-2.9599609-1.6572266c-0.2236328-0.1347656-0.4140625-0.2514648-0.5761719-0.3515625
	c0.3427734-1.9633789,1.3154297-7.9238281,1.831543-15.0678711l11.3632813-7.3154297l11.4345703,6.3833008l-0.8334961,11.9814453
	L171.9853516,180.1132813z"/>
<path fill="#FFFFFF" d="M170.0112305,122.1855469c0.1210938,0.0678711,0.3349609,0.1914063,0.6152344,0.3657227
	c0.6694336,0.4150391,1.6811523,1.1088867,2.4765625,1.8833008c0.684082,0.6459961,1.1357422,1.3476563,1.2480469,1.8398438
	l-5.7739258,8.6967773l-13.6733398,0.3457031l-8.1503906-8.7387695l7.0957031-7.5410156
	c0.3833008-0.0117188,0.7651367-0.0292969,1.1508789-0.0292969
	C160.347168,119.0083008,165.4223633,120.1484375,170.0112305,122.1855469z"/>
<path fill="#FFFFFF" d="M128.6811523,129.9853516c0.8222656,0.0751953,1.3745117,0.3564453,1.9360352,0.8735352
	c0.5527344,0.5200195,1.0766602,1.3369141,1.5991211,2.4179688c-1.1469727,1.621582-4.4946289,6.9506836-5.5375977,15.1918945
	l-6.7661133,8.7875977h-1.9345703c-0.0126953-0.3979492-0.0302734-0.7949219-0.0302734-1.1962891
	C117.9482422,145.887207,122.0454102,136.6835938,128.6811523,129.9853516z"/>
<path fill="#FFFFFF" d="M127.2021484,180.5439453c-0.0219727-0.0712891-0.046875-0.1547852-0.078125-0.2661133
	c-0.2421875-0.8530273-0.7080078-2.784668-0.7988281-5.0654297l7.9404297-2.1572266
	c4.0097656,3.7407227,10.1484375,7.4545898,11.3989258,8.2011719c0.4614258,0.7866211,2.1303711,3.9692383,2.1225586,7.8779297
	c0,0.3754883-0.0214844,0.7597656-0.0537109,1.1474609c-0.7148438,0.2368164-2.1196289,0.6430664-4.2099609,1.0102539
	c-5.6142578-1.8271484-10.6420898-4.9516602-14.7231445-9.0322266
	C128.2475586,181.7070313,127.7192383,181.1308594,127.2021484,180.5439453z"/>
<path fill="#FFFFFF" d="M147.8085938,192.4091797c0.5830078-0.1748047,0.9677734-0.3139648,1.1508789-0.3847656
	c3.0761719-0.5063477,5.949707-0.6708984,8.3735352-0.6708984c2.2045898,0,4.0375977,0.1352539,5.3134766,0.2700195
	c0.6381836,0.0673828,1.1362305,0.1347656,1.4726563,0.184082c0.0996094,0.0146484,0.1791992,0.0273438,0.2485352,0.0380859
	c0.0209961,0.0166016,0.0424805,0.0336914,0.065918,0.0512695c-3.0117188,0.7905273-6.1723633,1.215332-9.4335938,1.215332
	C152.5380859,193.1123047,150.1352539,192.8666992,147.8085938,192.4091797z"/>
<path fill="#FFFFFF" d="M181.2001953,182.2597656c-3.855957,3.8554688-8.5576172,6.8579102-13.7998047,8.7197266
	c-0.453125-0.0327148-0.9204102-0.2114258-1.28125-0.4208984c-0.0097656-0.0053711-0.0170898-0.0107422-0.0263672-0.0166016
	c1.0874023-2.2290039,2.6704102-4.2880859,4.0415039-5.8164063c0.7602539-0.8496094,1.4526367-1.5375977,1.9516602-2.0107422
	c0.4169922-0.3959961,0.6879883-0.6298828,0.7661133-0.6972656l12.9013672-9.2436523l2.0258789,0.5595703
	C186.0366211,176.6333008,183.8168945,179.6425781,181.2001953,182.2597656z"/>
<path fill="#FFFFFF" d="M61.2548828,73.4936523v-35.581543h3.9155273v15.800293l7.9101563-15.800293h5.2646484L71.043457,51.7705078
	l7.6982422,21.7231445h-5.065918l-5.3310547-16.6987305l-3.1743164,5.9462891v10.7524414H61.2548828z"/>
<path fill="#FFFFFF" d="M80.7392578,73.4936523v-6.8203125h3.7167969v6.8203125H80.7392578z"/>
<path fill="#FFFFFF" d="M88.3188477,73.4936523v-35.581543h13.2939453v6.019043h-9.378418v8.4223633h8.0952148v6.019043H92.234375
	v15.1210938H88.3188477z"/>
<path fill="#FFFFFF" d="M101.8110352,73.4936523v-6.8203125h3.7172852v6.8203125H101.8110352z"/>
<path fill="#FFFFFF" d="M121.8378906,73.4936523l-6.9311523-35.581543h4.2460938l4.9077148,26.3339844l4.7485352-26.3339844
	h4.1533203l-6.9443359,35.581543H121.8378906z"/>
<path fill="#FFFFFF" d="M135.065918,73.4936523V38.203125h3.9150391v29.2954102h9.7358398v5.9951172H135.065918z"/>
<path fill="#FFFFFF" d="M151.6137695,73.4936523V38.203125h3.9155273v29.2954102h9.7358398v5.9951172H151.6137695z"/>
<path fill="#FFFFFF" d="M185.5429688,73.4936523h-4.2592773l-1.6933594-8.0825195h-7.7514648l-1.6005859,8.0825195h-4.1533203
	l7.5527344-35.581543h4.140625L185.5429688,73.4936523z M178.3339844,59.4160156l-2.6723633-13.203125l-2.6191406,13.203125
	H178.3339844z"/>
<path fill="#FFFFFF" d="M185.9399414,73.4936523v-6.4804688L196.125,43.9311523h-9.034668v-6.019043h14.1938477v5.5820313
	l-10.6220703,24.0043945h11.0317383v5.9951172H185.9399414z"/>
<path fill="#FFFFFF" d="M204.2075195,73.4936523v-35.581543h3.8095703l7.9365234,23.7612305V37.9121094h3.6376953v35.581543
	h-3.9287109l-7.8173828-23.2036133v23.2036133H204.2075195z"/>
<path fill="#FFFFFF" d="M223.612793,73.4936523v-35.581543h3.9155273v35.581543H223.612793z"/>
<path fill="#FFFFFF" d="M248.7451172,73.4936523h-4.2592773l-1.6928711-8.0825195h-7.7519531l-1.6005859,8.0825195h-4.1533203
	l7.5532227-35.581543h4.1401367L248.7451172,73.4936523z M241.5361328,59.4160156l-2.671875-13.203125l-2.6191406,13.203125
	H241.5361328z"/>
<rect opacity="0" fill="#FFFF00" width="310" height="310"/>
</svg>
