<svg xmlns="http://www.w3.org/2000/svg" viewBox="0 0 627 797.6"><title>kjalnesingar</title><path d="M99.7,506V9.6h610V507.2a9.8,9.8,0,0,0-.7,1.5c-1,5.3-1.6,10.6-2.7,15.9-5.8,26.4-17.9,49.9-33.4,71.8-21.2,30-47.2,55.3-75.7,78.1-52,41.8-109.4,74.7-170.3,102l-20.7,9.1h-3a7.9,7.9,0,0,0-1.7-1.1,738.6,738.6,0,0,1-66.9-31.8c-49-26.1-96.1-55.2-138.3-91.6-25.2-21.9-48.2-45.8-66.3-74-13.7-21.3-23.8-44-28.1-69.1-.8-3.9-1.6-7.9-2.2-12" transform="translate(-91.2)" fill="#009360"/><path d="M325.4,363.9c21.3,41,46.6,77.6,83.6,105.3l-3.3,3.1,3,2.8,2.1-1.3c5.3-3.2,6.1-4.5,4.5-10.5-1.1-3.9-2.6-8.1-5.1-11.2-7.1-8.8-8-18.3-5.5-28.9,4.3-18.8,11.5-36.6,20.1-53.8,6.2-12.3,13.2-24.1,19.8-36.2.6-1.1,1.4-2,2.2-3.3-1.7,11.8-3.6,23.2-5,34.7-2.7,21.9-4.4,43.9-1.7,65.9.4,3.3,1.3,5.9,4.2,8.2,5.3,4.4,7.6,10.6,7.1,17.6-.3,4.1-.6,8.1-.9,12.4l-4.6-.7c-.2,2.2-.1,4,2.6,4.3,18.3,1.9,33.7,10.5,47.7,21.9,8.2,6.7,15.7,14.4,23.5,21.7a15,15,0,0,1,1.5,2.3l-4.5-1.4c-13.1-4.1-26.2-8.3-40-8-8.9.1-7.9-.4-9.6,8-2,10.2-1.1,20.4-.4,30.8-11-12.6-18.4-27.4-25.8-42.4A62.1,62.1,0,0,1,463,494.5c-1.3-4-1.3-4-5-2.7-20.1,7.1-34.7,21.2-47.5,37.6-1.9,2.4-3.4,2.6-5.7,1.4a41.5,41.5,0,0,1-16.7-15.2c-.9-1.4-.8-3.3-1.4-5s-1.5-5.6-3.2-7.7c-6.9-8.5-14.2-16.7-21.4-24.9-3.9-4.4-7.8-8.7-11.8-13-11.2-11.9-16-26.7-19.1-42.2-3.7-18.7-5.1-37.6-5.7-56.7a10.5,10.5,0,0,1-.1-2.2" transform="translate(-91.2)" fill="#fefefe"/><path d="M408.7,550.3c24.8.7,48,6.4,68.3,21.3,9.7,7.1,17,16.1,19.6,28.1s-.6,23.7-8.5,33.6c-10.1,12.5-23.7,19.8-38.6,24.9a135.6,135.6,0,0,1-39.5,7.1c-20.9.9-41.1-2.1-60.4-10.3-12.2-5.2-23.3-12.3-31.4-23.1-12.4-16.6-10.8-37.8,3.8-53,12.2-12.7,27.5-19.7,44.1-24.2,4.7-1.3,9.5-2,14.3-3,.9,2.2,1.9,4.3,2.8,6.5-6.3,1.3-12.7,2.3-18.9,4.1-14.6,4.3-27.9,10.9-38.2,22.6-11.8,13.3-12.5,29.1-1.9,43.3,6.6,8.8,15.4,14.9,25.4,19.3,29.1,12.9,59.2,14.3,89.8,6.6,15.5-3.9,29.5-10.6,40.8-22.4,13.8-14.4,13.8-33.7-.2-48s-31.5-20.9-50.6-24.4c-7.2-1.3-14.5-1.7-21.7-2.5.4-2.2.7-4.3,1-6.5" transform="translate(-91.2)" fill="#fefefe"/><path d="M394.4,570.2c-12.8.9-25.3,3.6-37,9.1a55,55,0,0,0-17.2,12.2c-9.3,9.9-9.4,22.5-.1,32.4s21.3,15.1,34.2,18.2c23.6,5.7,46.9,4.9,69.8-3.4,9.8-3.6,18.8-8.7,25.2-17.2s6.5-20.9-1.8-29.8-19.2-14.1-30.9-17.5a125.6,125.6,0,0,0-30.5-4.5c.3-2.3.5-4.5.8-6.8,16.8.8,33.1,3.6,48.2,11.2,7.3,3.7,14,8.2,19.1,14.8,9.9,13,9,28.7-2.5,40.5s-23.3,15.9-37.2,19.3a122.8,122.8,0,0,1-43.1,3.1c-18.6-1.9-36.2-6.5-51.2-18.4-6.1-4.8-10.9-10.7-12.9-18.4-2.7-10.7.2-20.2,7.6-28.3,9.7-10.5,22.2-16,35.6-19.6,5.7-1.5,11.6-2.3,17.4-3.5,2.2,2.4,4.3,4.5,6.5,6.6" transform="translate(-91.2)" fill="#fefefe"/><path d="M405.2,576.2c16,.2,31.3,3.2,44.6,12.7,5.2,3.7,9.2,8.4,10.5,15s-1,13.6-5.9,18.8c-7.2,7.6-16.5,11.5-26.4,13.9-19.9,4.9-39.6,4.2-58.9-3.4-6.6-2.6-12.8-6.2-17.3-12-7.9-10.1-6.5-21.9,3.2-30.3s18.2-10.7,28.7-12.9c4.2-.9,8.4-1.2,12.7-1.8.5,2.3,1,4.5,1.4,6.8-4.7.6-9.6,1-14.2,2-9.1,2-17.8,5.2-24.7,11.9s-7.2,15.1.1,21.8a43.3,43.3,0,0,0,11.4,7.5c18.6,8,37.8,8.2,57.2,3.5a50,50,0,0,0,19.5-9.5c9-7.4,9.2-17.6-.1-24.5a67.2,67.2,0,0,0-14.6-8.1c-8.9-3.6-18.3-4.5-27.8-4.7.1-2.3.4-4.5.6-6.7" transform="translate(-91.2)" fill="#fefefe"/><path d="M385.5,596.9c-2.9,1.5-6.1,2.7-8.8,4.5-5.9,3.9-6,8.8-.2,12.9s11.4,5.4,17.7,6.2c10.3,1.3,20.6.9,30.4-3a26.6,26.6,0,0,0,7.5-4.3c4.2-3.4,4.2-7.7-.2-10.9s-6.7-3.7-10-5.4c2.3,0,4.7,0,7-.2a6,6,0,0,0,2.1-1.3l.2-.2-.2-.2c0-.4.1-.9.1-1.3,10.7,4.2,14.5,15.2,7.4,22.8a28,28,0,0,1-10.9,7,68.1,68.1,0,0,1-48.1,0,32.4,32.4,0,0,1-7.1-3.8c-9.4-6.6-9.6-16.5-.5-23.5a49.8,49.8,0,0,1,4.6-2.5c.1.9.1,1.8.2,3,3,.2,5.9.2,8.8.2" transform="translate(-91.2)" fill="#fefefe"/><path d="M431,595.1l.2.2-.2.2-.2-.3h.2" transform="translate(-91.2)" fill="#009360"/><path d="M372.6,47.2c-.9,5-1.8,10-2.6,15-2.3,13.9-4.7,27.8-6.9,41.7-.3,1.7-1,2.3-2.6,2.2h-3.8c-6.8-.1-5.1.8-6.2-5.3-2.9-16.6-5.6-33.3-8.3-50a10.3,10.3,0,0,0-1.7-4.1V93.2c0,3.5.1,6.9-.1,10.3-.1.9-1.2,2.4-1.8,2.4-4.9.2-9.8.1-15.1.1V26.9h21.2c7,0,6.9,0,7.8,7,1.2,9.6,4.8,31.1,5.1,30.9.6-3.9,1.2-7.7,1.7-11.6,1.1-8,2.2-15.9,3.1-23.9.2-1.9.9-2.4,2.7-2.4,7.7.1,15.5.1,23.2,0,2.2,0,2.9.8,2.9,2.9V48c0,18.2-.1,36.4.1,54.6,0,2.8-.7,3.7-3.5,3.5a95.5,95.5,0,0,0-10.7,0c-2.7.2-3.3-.9-3.3-3.4.1-17,0-34.1,0-51.1V47.3h-1.2" transform="translate(-91.2)" fill="#010202"/><path d="M218,27h15.6c2.1,0,2,1.4,2,2.8V87.2c0,4.3,1.6,5.7,5.6,5.7s5.4-1.8,5.3-5.4c-.1-18.2-.1-36.4-.2-54.6,0-1.9.2-3.7.3-5.9,5.5,0,10.8-.1,16.1.1.6,0,1.5,2,1.5,3,.1,13.3.1,26.5,0,39.8a167.9,167.9,0,0,1-.6,18.8c-1,9.3-6.9,15.8-16,17.7s-18.7,1-25.2-7.3c-2.3-2.9-4.3-6.9-4.4-10.5-.2-20.3,0-40.7,0-61.6" transform="translate(-91.2)" fill="#010202"/><path d="M564.7,58.1c1.1-2.8,2.3-5.6,3.3-8.5,2.5-6.7,4.9-13.5,7.5-20.2.4-.9,1.4-2.2,2.2-2.3,5.5-.2,11-.1,17.1-.1-2.2,4.9-3.9,9.1-5.8,13.2-2.6,5.7-5.4,11.3-7.9,17a7.8,7.8,0,0,0-.2,5c4.3,13.6,8.8,27.2,13.3,40.7.3.9.5,1.8.9,3.1-5.8,0-11.4.1-17-.1-.8,0-1.9-1.5-2.2-2.4-2.2-7.4-4.3-14.8-6.5-22.2-.3-1-.7-1.9-1.2-3.4-2.5,2.6-4.4,4.8-4.4,8,0,5.6-.1,11.3,0,16.9.1,2.4-.5,3.4-3.1,3.3s-7.9-.1-11.9,0c-1.9,0-2.6-.6-2.6-2.5v-74c0-1.9.6-2.6,2.5-2.5,4.1.1,8.2.1,12.2,0,2.2-.1,2.9.8,2.9,2.9-.1,9.3,0,18.6,0,27.9l.9.2" transform="translate(-91.2)" fill="#010202"/><path d="M489,27V41.9H469.4V58.1h17.5V72.7H469.2V106c-5.6,0-10.9.1-16.2-.1-.6,0-1.2-1.1-1.6-1.8s-.1-1.2-.1-1.9c0-23.8,0-47.7-.1-71.5,0-3,.8-3.9,3.8-3.9,10.1.2,20.3.1,30.4.1H489" transform="translate(-91.2)" fill="#010202"/><path d="M91.2,510.2V0h627V511.5a10.1,10.1,0,0,0-.7,1.5c-1,5.4-1.6,10.9-2.8,16.3-6,27.1-18.4,51.3-34.3,73.8-21.8,30.8-48.5,56.8-77.8,80.3-53.5,43-112.5,76.8-175,104.8l-21.3,9.4h-3.1a8.2,8.2,0,0,0-1.7-1.1,759.2,759.2,0,0,1-68.8-32.7c-50.4-26.8-98.8-56.7-142.2-94.2-25.9-22.5-49.5-47.1-68.1-76.1-14.1-21.9-24.5-45.2-28.9-71-.8-4-1.6-8.1-2.3-12.3M431,595.1h-.2l.2.3c-.7.4-1.4,1.2-2.1,1.3-2.3.2-4.7.1-7,.2a10.3,10.3,0,0,0-2.4-.5h-32a6.5,6.5,0,0,0-2,.5h-8.9c-.1-1.2-.1-2.1-.2-3s.4-3.4.6-5.6h22c-.6-2.1-1-3.7-1.4-5.2s-1-4.5-1.4-6.8-1.3-4-1.9-6l-6.5-6.3-4.6-5.6c-.9-2.2-1.9-4.3-2.8-6.5-2.8-12.7-2.7-25.3,1.2-37.7,1.1-3.7.8-6.5-1.6-9.3-6.7-8-13.4-16-20.2-23.9s-12.9-14.8-19.2-22.3c-1.4-1.7-2.5-1.9-4.5-1.1-10.7,4.8-21.4,9.4-32,14.3a1000,1000,0,0,0-122.7,67.3c-16.7,10.8-32.9,22.5-49.4,33.7-1.7,1.2-2.3,2.1-1,4s3,5,4.6,7.5c16.3,25.3,36.5,47.2,58.8,67.2A574.3,574.3,0,0,0,252.3,697,881.6,881.6,0,0,0,402,779.2a7,7,0,0,0,5.5-.1c19.6-9.1,39.3-18,58.6-27.7a728.6,728.6,0,0,0,95.5-57.5c32.2-22.8,62.4-47.9,88.3-78,15.3-17.8,28.6-37,38.4-58.5,8.8-19.3,13.9-39.4,14-60.6.2-43.1.1-86.2.1-129.3,0-1.1-.1-2.2-.2-3.9-16,1.9-31.7,3.4-47.2,5.8-23.5,3.6-47.1,7-70.3,11.8-29.2,6.1-58.2,13.1-87.1,20.4-17.3,4.4-34.2,10-51.4,15-2.3.7-3.2,1.8-2.9,4.2s.4,6.7,1,10a8.3,8.3,0,0,0,2.4,4.4c6.9,6.5,9.8,14.3,8.5,23.8-.3,2.3-.4,4.6-.6,6.8s.8,3.4,3.1,4.1a129.5,129.5,0,0,1,16.2,5.7c20.5,9.6,37.2,24.1,52,41,2.8,3.2,5.5,6.6,8.5,10.3-7.3-2.5-14-5-20.7-7.1-12.2-3.8-24.4-7.4-37.3-7.3-4.4,0-4.6.3-5.4,4.6-1.5,8.9-1.2,17.9-.2,26.8.5,4.4.9,8.8,1.4,13.7-8.9-6.3-14.7-14.6-19.8-23.3s-9.9-17.6-14.8-26.6c-7.5,5.7-14,12.4-20.5,19.2s-7.6,14.8-8.3,23.3c-.3,2.1-.6,4.3-1,6.4l-.9,6.3c-.3,2.3-.5,4.5-.8,6.8l-.9,6.4c-.2,2.2-.5,4.4-.7,6.7s-.5,3.4-.9,5.6h26.8c.3,2.1.5,3.7.7,5.3s-.1.9-.1,1.4M121.8,561C188,512.6,258,473.8,332.1,442.2c-9.6-32.3-11.1-65.1-10.3-98.2,1.6,3.6,2.7,7.4,4.3,11,10.9,25.3,25.6,48.3,42.8,69.7,1.1,1.3,2,1.8,3.7,1.1,9.3-3.5,18.6-6.8,27.9-10.4a5.7,5.7,0,0,0,2.9-3.2c10.3-32.9,25.8-63.2,45.1-91.6a33.7,33.7,0,0,1,3.7-3.9l1,.5c-2.2,13.8-4.6,27.7-6.6,41.6a365.4,365.4,0,0,0-3.7,42.3c85-26.4,171.1-45,259.4-53.1V313.8H107.7v3.9c0,59.2.1,118.4,0,177.6,0,12.4,1.2,24.6,4.7,36.5,2.4,9.7,5.9,19,9.4,29.2m52.4-263.7c0,.3.1.5.1.8H698.4c3.1,0,4-.7,4-4q-.1-64.5-.1-128.9c0-1.2-.1-2.4-.2-3.9H446.2a8.1,8.1,0,0,0-2.2,0,5.5,5.5,0,0,0-2.8,1.5c-12,15-23.8,30.1-35.7,45.2l-8.3,10.3c-.9-1.3-1.6-2.1-2.1-3l-34.4-51.6c-1-1.4-1.8-2.5-3.9-2.5-19.2.1-38.5.1-57.7,0a3.1,3.1,0,0,0-3.3,2.1c-1.5,3.6-3.1,7.1-4.9,10.5a320.5,320.5,0,0,1-40.4,62c-17.2,20.6-36.9,38.3-59.9,52.2-5.4,3.3-11,6.2-16.4,9.2M107.5,118.1H702.1V16.4H107.5V118.1m.1,179.9,10.1-1.1c23.1-2.5,44.4-10.4,64.4-22.2,22.3-13.2,41.2-30.2,57.7-50a286,286,0,0,0,45.4-76.5c.9-2.1,1.9-2.7,4.1-2.7q37.7.2,75.3,0a4.5,4.5,0,0,1,4.3,2.3c6.9,10.6,14,21,21,31.6l8.4,12.6,1.9-2.3c10.6-13.5,21.3-26.8,31.7-40.4,2.1-2.8,4.4-3.7,7.8-3.7H702.3c0-2.9-.2-5.3,0-7.7s-.9-3.6-3.7-3.6H107.5c.1,54.6.1,108.9.1,163.5m217.8,65.9v2.2c.6,19,2,38,5.7,56.7,3.1,15.5,7.9,30.3,19.1,42.2,4,4.3,8,8.6,11.8,13,7.2,8.2,14.5,16.5,21.4,24.9,1.7,2.1,2.2,5.1,3.2,7.7s.6,3.5,1.4,5a40.8,40.8,0,0,0,16.7,15.2c2.3,1.2,3.8,1,5.7-1.4,12.7-16.4,27.4-30.4,47.5-37.6,3.7-1.3,3.7-1.3,5,2.7a62.1,62.1,0,0,0-22.1,10.7c7.5,15,14.8,29.8,25.8,42.4-.7-10.4-1.6-20.6.4-30.8,1.7-8.4.7-7.8,9.6-8,13.9-.2,27,4,40,8l4.5,1.4c-.9-1.3-1.1-1.9-1.5-2.3-7.8-7.3-15.2-15-23.5-21.7-13.9-11.3-29.3-20-47.7-21.9-2.7-.3-2.8-2-2.6-4.3l4.6.7c.3-4.3.6-8.3.9-12.4.5-7-1.8-13.2-7.1-17.6-2.8-2.4-3.7-4.9-4.2-8.2-2.7-22.1-1.1-44,1.7-65.9,1.4-11.5,3.3-22.9,5-34.7-.8,1.2-1.6,2.2-2.2,3.3-6.7,12-13.7,23.9-19.8,36.2-8.6,17.2-15.8,34.9-20.1,53.8-2.4,10.6-1.6,20.1,5.5,28.9a30.1,30.1,0,0,1,5.1,11.2c1.7,6,.8,7.3-4.5,10.5l-2.1,1.3-3-2.8,3.3-3.1c-36.9-27.6-62.2-64.3-83.5-105.3m86.5,101.7c-1-5.6-3.5-9.3-5.9-13.3a92.7,92.7,0,0,1-6.3-13.1c-.7-1.8-.4-4-.6-6.5l-17.6,6.6c9.3,9.8,18.2,19.2,30.4,26.3" transform="translate(-91.2)" fill="#010202"/></svg>