<svg xmlns="http://www.w3.org/2000/svg" viewBox="0 0 317.2 317.2"><title>kr</title><path d="M400,458.6c87.3,0,158.6-71.3,158.6-158.6S487.3,141.4,400,141.4,241.4,212.7,241.4,300,312.7,458.6,400,458.6Z" transform="translate(-241.4 -141.4)"/><path d="M400,448.5c81.7,0,148.5-66.7,148.5-148.5S481.7,151.5,400,151.5,251.5,218.3,251.5,300,318.3,448.5,400,448.5Z" transform="translate(-241.4 -141.4)" fill="#fff"/><path d="M400,429.8c71.5,0,129.8-58.3,129.8-129.8S471.5,170.2,400,170.2,270.2,228.5,270.2,300,328.5,429.8,400,429.8Z" transform="translate(-241.4 -141.4)"/><path d="M436.2,355c7.3,0,8.2,1.8,8.4,9s-1.5,15.8-7.5,18.5c-2.5,1.1-5.6,1-9.6-.3a30.7,30.7,0,0,0-23.4,1.5c-3.2,1.6-5.2,1.6-8.5,0a30.7,30.7,0,0,0-23.4-1.5c-4,1.3-7.1,1.4-9.6.3-6-2.7-7.7-11.1-7.5-18.5s1.1-9,8.4-9Z" transform="translate(-241.4 -141.4)" fill="#cc612c"/><path d="M404.2,318.2a30.7,30.7,0,0,0,23.4,1.5c4-1.3,7.1-1.4,9.6-.3,6,2.7,7.7,11.1,7.5,18.5s-1.1,9-8.4,9H363.8c-7.3,0-8.2-1.8-8.4-9s1.5-15.8,7.5-18.5c2.5-1.1,5.6-1,9.6.3a30.7,30.7,0,0,0,23.4-1.5C399,316.6,401,316.6,404.2,318.2Z" transform="translate(-241.4 -141.4)" fill="#cc612c"/><path d="M356.3,296.9a69.3,69.3,0,0,1,39.6-15.4V304c-1.3,10.1-12.9,10.4-21,7.9A34.9,34.9,0,0,1,359.3,301,43.3,43.3,0,0,1,356.3,296.9Z" transform="translate(-241.4 -141.4)" fill="#cc612c"/><path d="M350.2,399.3a69.3,69.3,0,0,1,0-96.9l1.9,2.7c5.1,6.5,4.7,6.4.5,12.9a32.6,32.6,0,0,0-4.5,10,36.8,36.8,0,0,0,0,18.4c1,4.1,1,5.1,0,9.2a36.8,36.8,0,0,0,0,18.4,32.6,32.6,0,0,0,4.5,10c4.2,6.4,4.6,6.4-.5,12.9Z" transform="translate(-241.4 -141.4)" fill="#cc612c"/><path d="M395.9,420.3a69.3,69.3,0,0,1-39.6-15.4,49.9,49.9,0,0,1,3-4.1,34.9,34.9,0,0,1,15.6-10.9c8.1-2.6,19.7-2.2,21,7.9Z" transform="translate(-241.4 -141.4)" fill="#cc612c"/><path d="M443.7,404.9a69.3,69.3,0,0,1-39.6,15.4V397.8c1.3-10.1,12.9-10.4,21-7.9a34.9,34.9,0,0,1,15.6,10.9A49.9,49.9,0,0,1,443.7,404.9Z" transform="translate(-241.4 -141.4)" fill="#cc612c"/><path d="M449.8,302.5a69.3,69.3,0,0,1,0,96.9l-1.9-2.7c-5.1-6.5-4.7-6.4-.5-12.9a32.5,32.5,0,0,0,4.5-10,36.8,36.8,0,0,0,0-18.4c-1-4.1-1-5.1,0-9.2a36.8,36.8,0,0,0,0-18.4,32.5,32.5,0,0,0-4.5-10c-4.2-6.4-4.6-6.4.5-12.9Z" transform="translate(-241.4 -141.4)" fill="#cc612c"/><path d="M404.1,281.5a69.3,69.3,0,0,1,39.6,15.4,43.3,43.3,0,0,1-3,4,34.9,34.9,0,0,1-15.6,10.9c-8.1,2.6-19.7,2.2-21-7.9Z" transform="translate(-241.4 -141.4)" fill="#cc612c"/><path d="M400,180.3c36.5,0,68.4,16.6,91.2,42.4,8.7,9.9,7.2,34-6.4,39.3,19.6,30.1,16.3,43.4,15.5,76-.2,8.9,1,14.3,3.8,21.1a120.4,120.4,0,0,1-34.6,38.4c.8-8.1,2.4-12.8,5.1-20.4a79.5,79.5,0,0,0-3.5-60.3c1.8-10-.5-26.2-5-35.4-7.5-15.5-23.3-16.1-22.3,4.1a78.6,78.6,0,0,0-30.4-12.2V201.3c0-5.4-.7-10.6-5.1-14.3-2.4-2-6-2.1-9.7,1.2-9.1,7.9-27,31.5-29.6,40.6-1,3.5-.6,7.7,1.5,12,5,10.8,18.5,22.2,27.5,31.3a78.8,78.8,0,0,0-37.8,10.8l-3.8-7.7c-3.5-7-7.1-15.6-16-11.2-10.5,5.1-14,17.3-14,27.1v31.5a78.9,78.9,0,0,0,.8,58.7,108.6,108.6,0,0,1-.3,13.4,120.4,120.4,0,0,1-31.1-35.9c0-2.7-.6-6.5.8-8.9a8.9,8.9,0,0,0,1.7-5.9V259.4c0-4.2-1-10.9-5.6-12.4a120.3,120.3,0,0,1,28.1-36.6c1.5-1.3,3.8-2.7,5.1-.1s-.8,5.2-1.9,9.4-1.7,14.7,3.6,16.4,10.2-6.7,12.4-9.4c9.4-11.7,21.9-31.2,24-34.4-1.5-2.2-1.2-6,1.7-7C376.6,181.7,388.1,180.3,400,180.3Z" transform="translate(-241.4 -141.4)" fill="#fff"/><path d="M441.4,231.6c-.1,7.7,3.4,18.6,12.7,18.6,16.1,0,22.4-13.3,11.6-25.3-5-5.6-17.2-14.5-22.2-7.6C440.8,221,441.4,227.2,441.4,231.6Z" transform="translate(-241.4 -141.4)"/></svg>