<svg xmlns="http://www.w3.org/2000/svg" xmlns:xlink="http://www.w3.org/1999/xlink" viewBox="0 0 506.5 634.7"><defs><linearGradient id="a" x1="-28.51" y1="399.23" x2="5.72" y2="398.01" gradientTransform="matrix(-3.18, 0.02, 0, 2.66, 281.71, -939.58)" gradientUnits="userSpaceOnUse"><stop offset="0.64" stop-color="#e2d84f"/><stop offset="0.82" stop-color="#bcb100"/><stop offset="1" stop-color="#e3d952"/></linearGradient><linearGradient id="b" x1="13.41" y1="376.66" x2="-39.07" y2="381.05" gradientTransform="matrix(-3.18, 0.02, 0, 2.66, 281.71, -939.58)" gradientUnits="userSpaceOnUse"><stop offset="0" stop-color="#bcb14d"/><stop offset="0.14" stop-color="#c9bf4a"/><stop offset="0.35" stop-color="#d8ce47"/><stop offset="0.61" stop-color="#e0d646"/><stop offset="1" stop-color="#e3d945"/></linearGradient></defs><title>kordrengir</title><path d="M557.3,392.7l20.9-43.4-47.1-6.2a300.7,300.7,0,0,1,18.3-95.9l-48.8-15.8,7.6-37.9c-2.3-.8-4.2-1.5-6.1-2l-52.3-13.2c-1.5-.4-3.7-1.5-4.1-2.7-1.5-4.7-2.5-9.6-3.6-14.1,9.2-4.2,18.3-7.7,26.9-12.3,46.8-24.9,42.9-79.4,10.3-105.1C463.8,31.6,446.1,23.4,427,18.5,361.4,1.6,295.4,1.9,229.5,16.8c-21.6,4.9-41.9,13.2-59.1,27.8-21.3,18.1-28.4,47.3-17.2,72.5,7.3,16.5,20.5,27.2,36.2,35.1,6.8,3.4,13.9,6.1,20.9,9.2-1.1,4.3-2.3,8.4-3.2,12.6-.6,2.6-1.9,3.7-4.6,4.3-9,1.8-17.9,3.8-26.8,6.1-10.6,2.7-21.1,5.8-31.8,8.8l7.7,38.3-48.7,15.7a301,301,0,0,1,18.2,95.8l-49.3,6.8c.6,1.4,21.7,43,21.7,43S82,443.3,81,447.7l35.7-4.6-13.1,52.2a515.9,515.9,0,0,1,122.1,56.2c38.4,24.2,73.1,52.6,100.1,89.1C384.3,566.9,462.2,524,549.3,494.6c-5.6-16.5-10.6-33.2-12.5-51.2l35.8,4.5Z" transform="translate(-71.7 -5.7)" fill="#fff"/><path d="M324.9,173c90.2-.5,163.3-28,163.7-61.7l.4-37.7c-.4,33.6-73.5,61.2-163.7,61.7S161.4,108.7,161.4,75l-.4,37.7c0,33.8,73.5,60.7,163.8,60.3Z" transform="translate(-71.7 -5.7)" fill="#ccc"/><path d="M488.6,111.3V111l.4-37.7v.3Z" transform="translate(-71.7 -5.7)" fill="#ccc"/><path d="M161.1,112.4v.3l.4-37.7v-.3Z" transform="translate(-71.7 -5.7)" fill="#ccc"/><path d="M326.7,165c71.6-.4,129.7-22.3,129.9-49l.4-37.7c-.3,26.7-58.4,48.6-129.9,49s-130-21.1-130-47.9l-.4,37.7C196.7,143.9,254.9,165.4,326.7,165Z" transform="translate(-71.7 -5.7)" fill="url(#a)"/><path d="M196.7,117.1v-.2l.4-37.7v.2Z" transform="translate(-71.7 -5.7)" fill="#ccc"/><path d="M456.6,115.8,457,78c0-26.8-58.2-48.2-130-47.8S197.3,52.4,197.1,79.1l-.4,37.7C197,90.1,255,68.3,326.6,67.9s130,21,130,47.8Z" transform="translate(-71.7 -5.7)" fill="#ccc"/><path d="M456.6,115.8v.2l.4-37.7V78l-.4,37.7Z" transform="translate(-71.7 -5.7)" fill="#ccc"/><path d="M488.6,111l.4-37.7c0-33.8-73.3-60.8-163.7-60.3S161.8,41.1,161.4,74.7l-.4,37.7c.4-33.6,73.6-61.3,163.8-61.8S488.5,77.3,488.6,111Z" transform="translate(-71.7 -5.7)" fill="url(#b)"/><path d="M324.9,173c90.4-.5,163.7-28.2,163.7-61.9S415.2,50.2,324.8,50.7,161,78.9,161.1,112.7s73.5,60.7,163.8,60.3Zm1.8-7.9c-71.8.4-130-21.1-130-47.9s58.2-48.8,129.9-49.2,130,21,130,47.8S398.4,164.6,326.7,165Z" transform="translate(-71.7 -5.7)" fill="#c6b300"/><path d="M490.1,238.5l7.2-36.5c-16.3-4.1-32-8.6-47.9-11.9a88,88,0,0,1-10.8-3s-4.4-16.8-5.9-20.3l-1.5-3.8a112.3,112.3,0,0,0-5.6-11.6A115,115,0,0,0,325,92c-56,0-103.2,42.1-113.5,95.1l-3.1,1c-6.9,1.9-14,3.1-20.9,4.9-11.4,2.9-22.7,6.1-34.3,9.2l7.3,36.2-46,14.9c10.8,30.6,15.7,62,17.5,94.3l17.7-1.8c-2.3-28.5-7.5-56.3-13.8-83.6l44.6-14.4-7.3-35.9,35.9-8.5v6.4c1.1,7.5-8.2,15.2-6.6,22.6,2.6,12.7,6.3,27,14,37.7,6,8.3,16,15.6,23.3,22.7,17.5,16.9,40.6,32.4,65.3,34.7,4,.4,11.4-1.4,15.3-1.3s3.3-1.6,3.2,1.6,1.6,6.2,1.6,9c0,0,89.7-.9,168.2,8.7,1.5-27.7,7.7-58.1,11.2-79.9l-42.8-13.8,7-35.5-28.2-7v-6.1l36.4,9.1-7.2,35.8,44.6,14.4a569.5,569.5,0,0,0-13.9,83.6l17.8,1.8c1.7-32.3,6.8-63.7,17.5-94.4Z" transform="translate(-71.7 -5.7)" fill="#0b2c53"/><path d="M99.5,428.9c3-10,10.4-37.5,10.4-37.5S97.7,367,94.3,360.7a1666,1666,0,0,1,461.4-.1c-4.7,9-15.3,30.7-15.4,30.7,2.7,10.3,10.3,36.2,10.6,37.5-11-1.3-85.7-9.3-112.6-11.5a1407.3,1407.3,0,0,0-146.3-4C192.8,414.3,106.5,428,99.5,428.9Z" transform="translate(-71.7 -5.7)" fill="#d62532"/><path d="M295.5,421.4c10-.3,23-.1,33-.1l-3.1,166.8c-10.7-9.7-22.7-21.6-33.8-30.8-41.4-34-87.7-59.5-137.7-78.5l-9.5-3.8,8.8-44.9,22.3-1.9,27-2.3,25-1.8C231.5,423.8,276.9,421.9,295.5,421.4Z" transform="translate(-71.7 -5.7)" fill="#28548f"/><path d="M325.4,588.1V421.3c28.6.8,57.2,1.3,85.8,2.3,12.8.4,25.6,1.4,38.4,2.6s45.4,4.6,47,4.7l9.5,44.2c-29.4,10.9-58.6,23.2-85.7,40L405.2,524c-28.1,17.7-54.3,37.9-77.4,61.8A28.5,28.5,0,0,1,325.4,588.1Z" transform="translate(-71.7 -5.7)" fill="#0b2c53"/><path d="M483.7,490.5c9.9-4.7,20.4-8.1,30.6-12.1l-10.1-47.1,19.2,2.2s7.7,36.3,11.6,53.7c-81.4,27.6-155,68-209.6,137-54.8-69-128.3-109.5-210-137.1l12.9-53.6,18.6-2.8s-9.8,43.3-11.1,47.5c72.3,26.2,137.3,63.1,189.2,119.4,10.2-9.8,19.5-20.1,30.1-28.5C377.5,548.5,433.5,511.5,483.7,490.5Z" transform="translate(-71.7 -5.7)" fill="#0b2c53"/><path d="M231.9,370.7c4.2,0,7.9-.2,11.7.1s5.5,2.5,5,5.5-2.4,4.9-4.3,5.5c-3.5,1.1-7.4.7-11.6,1Z" transform="translate(-71.7 -5.7)" fill="#d62532"/><path d="M480.6,386.5l1.2-11.5c4.1.5,8.2.4,11.7,1.7,1.8.7,4.1,4.2,3.8,5.8s-3.3,4.6-5.5,5S484.7,387,480.6,386.5Z" transform="translate(-71.7 -5.7)" fill="#d62532"/><path d="M269.9,369.3c6-.3,12.2-1.8,16.4,4.2a12.3,12.3,0,0,1,.6,13.3c-3.7,6.7-10.4,5.2-17,5.3Z" transform="translate(-71.7 -5.7)" fill="#d62532"/><path d="M309.9,368.1c3.8,0,7.2-.2,10.6,0s5.6,2.2,5.7,5.7-2.2,5.3-5.5,5.9h-.5C308.4,379.4,309.2,382.7,309.9,368.1Z" transform="translate(-71.7 -5.7)" fill="#d62532"/><path d="M187.2,385.1c0-7.8,4.8-12.9,12.2-12.8s11.6,5.9,11.7,13.1-4.8,12.3-12.1,12.4S187.2,392.7,187.2,385.1Z" transform="translate(-71.7 -5.7)" fill="#d62532"/><path d="M209.3,209.7c1.1,7.5,1.8,15.1,3.3,22.6,2.6,12.7,6.7,25.1,14.4,35.7,6,8.3,11.9,16.9,19.3,23.9,17.5,16.9,38.3,27.9,63,30.2,4,.4,7.9.9,11.9.9h4.6s-.2,9.7-.2,13.5c-.4.2-82-2.2-167.2,7.2-2.6-25.5-6.9-51.5-12.4-78.5l42.8-13.8-7.1-35.7Z" transform="translate(-71.7 -5.7)" fill="#28548f"/><polygon points="253.6 475 258.3 488.5 272.6 488.8 261.2 497.5 265.4 511.2 253.6 503 241.9 511.2 246 497.5 234.6 488.8 248.9 488.5 253.6 475" fill="#f3f4f3"/><polygon points="191.1 455.3 195.8 468.8 210.1 469.1 198.7 477.8 202.9 491.5 191.1 483.3 179.4 491.5 183.5 477.8 172.1 469.1 186.4 468.8 191.1 455.3" fill="#f3f4f3"/><polygon points="127.1 436 131.8 449.5 146.1 449.8 134.7 458.4 138.8 472.1 127.1 463.9 115.3 472.1 119.5 458.4 108.1 449.8 122.4 449.5 127.1 436" fill="#f3f4f3"/><polygon points="316.1 455.8 320.8 469.3 335.1 469.6 323.7 478.2 327.9 491.9 316.1 483.8 304.4 491.9 308.5 478.2 297.1 469.6 311.4 469.3 316.1 455.8" fill="#f3f4f3"/><polygon points="380.6 435.8 385.3 449.4 399.6 449.6 388.2 458.3 392.3 472 380.6 463.8 368.8 472 373 458.3 361.6 449.6 375.9 449.4 380.6 435.8" fill="#f3f4f3"/><circle cx="53.7" cy="388.2" r="2.8" fill="#f0f0f0"/><circle cx="451.2" cy="387.6" r="2.8" fill="#f0f0f0"/><path d="M149.3,408.3l-4.7-37.1,6.9-.9,1.9,15.7c4.9-7,7.5-10.4,12.5-17.4l9.2-1c-5.5,7.2-8.2,10.8-13.5,18,7.7,7.5,11.5,11.3,19,19l-8.4.9L157.9,391l-3.3,4.5,1.5,12Z" transform="translate(-71.7 -5.7)" fill="#fff"/><path d="M184.6,385.6a26.8,26.8,0,0,1,.3-8.1,16,16,0,0,1,2.3-5.8,13.7,13.7,0,0,1,3.8-3.7,16.7,16.7,0,0,1,4.6-2.2,28.7,28.7,0,0,1,10-.9,16.7,16.7,0,0,1,4.9,1.3,14.1,14.1,0,0,1,4.4,3,15.7,15.7,0,0,1,3.3,5.3,26.8,26.8,0,0,1,1.7,8,27.5,27.5,0,0,1-.5,8.1,15.7,15.7,0,0,1-2.4,5.7,14.3,14.3,0,0,1-3.8,3.7,16.4,16.4,0,0,1-4.5,2.1,28.3,28.3,0,0,1-9.8.8,16.4,16.4,0,0,1-4.8-1.3,14,14,0,0,1-4.4-2.9,16.1,16.1,0,0,1-3.3-5.2A27.5,27.5,0,0,1,184.6,385.6Zm6.8-.7a24.2,24.2,0,0,0,1.5,6.8,8,8,0,0,0,2.9,3.8,9.4,9.4,0,0,0,3.5,1.4,16,16,0,0,0,4.1.1l3.3-.5a9.6,9.6,0,0,0,2.8-1.3,6.7,6.7,0,0,0,2.2-2.4,13,13,0,0,0,1.2-4,28,28,0,0,0-1.2-12.7,7.8,7.8,0,0,0-2.9-3.8,9.4,9.4,0,0,0-3.6-1.4,17.1,17.1,0,0,0-4.2-.1l-3.3.5a9.8,9.8,0,0,0-2.9,1.3,6.8,6.8,0,0,0-2.3,2.4,12.5,12.5,0,0,0-1.2,3.9A23.3,23.3,0,0,0,191.4,384.8Zm6.6-22.5,3-6.8,5.7-.5-4.8,7Z" transform="translate(-71.7 -5.7)" fill="#fff"/><path d="M229.4,400.5l-2.5-37.3,14.7-.9q6.8-.4,10.7,2.5t4.2,8.7c.3,5.7-2.3,9.5-7.8,11.4l10.6,13.8-8.1.4-9.7-12.7-6.1.4.8,13.2Zm5.5-19.7,7.5-.5a10.4,10.4,0,0,0,5.4-1.5q1.9-1.3,1.7-4.7t-2.2-4.5a10.6,10.6,0,0,0-5.5-.9l-7.6.5Z" transform="translate(-71.7 -5.7)" fill="#fff"/><path d="M266,398.5l-1.6-37.3,13.3-.5c5.9-.2,10.5,1.3,13.7,4.4s4.8,7.7,4.9,13.8-1.3,10.7-4.2,14-7.3,4.9-13.1,5.1Zm6.5-6.3,6.2-.2q5.9-.2,8.4-3.2t2.3-9.7q-.2-6.8-2.9-9.6c-1.8-1.9-4.7-2.8-8.7-2.7l-6.3.2Z" transform="translate(-71.7 -5.7)" fill="#fff"/><path d="M304.4,397.4l-.6-37.3h14.8q6.8,0,10.5,3.1t3.7,8.9c0,5.7-2.8,9.3-8.4,11l9.8,14.3h-8.1l-9-13.2H311v13.2ZM311,378h7.6a10.4,10.4,0,0,0,5.4-1.2q2-1.2,2-4.6t-2-4.6a10.6,10.6,0,0,0-5.5-1.2h-7.6Z" transform="translate(-71.7 -5.7)" fill="#fff"/><path d="M341.1,397.4l.4-37.3,25.6.5-.2,6-18.6-.4-.2,9.5,16,.3-.2,6.3L348,382l-.2,9.5,18.2.4-.2,6Z" transform="translate(-71.7 -5.7)" fill="#fff"/><path d="M373.6,398.1l1.3-37.3,7.8.3q9.2,14.2,18.3,28.6l1.5-27.6,6.9.4-2.2,37.3-7.5-.4q-9-14.5-18.2-28.8l-1.1,27.9Z" transform="translate(-71.7 -5.7)" fill="#fff"/><path d="M416.4,381.6a26.9,26.9,0,0,1,1.6-8,16,16,0,0,1,3.2-5.3,13.7,13.7,0,0,1,4.4-3.1,16.7,16.7,0,0,1,4.9-1.4,26.9,26.9,0,0,1,5.1-.1,36.4,36.4,0,0,1,12.8,3.6l-.5,6.1a31.5,31.5,0,0,0-12.1-3.7h-3.6a10.1,10.1,0,0,0-3.2.8,7.5,7.5,0,0,0-2.8,2,11.3,11.3,0,0,0-2,3.7,22,22,0,0,0-1,5.7,22.5,22.5,0,0,0,.3,5.8,11.5,11.5,0,0,0,1.4,3.9,7.5,7.5,0,0,0,2.4,2.4,10,10,0,0,0,3,1.3l3.5.5a26.3,26.3,0,0,0,6.7-.4l.7-8.9-8.3-.7.5-5.9,15.2,1.2-1.6,18.5a31.8,31.8,0,0,1-13.9,2.1h-.1a27.5,27.5,0,0,1-4.9-.8,16.8,16.8,0,0,1-4.6-2.1,14.2,14.2,0,0,1-3.9-3.6,15.9,15.9,0,0,1-2.4-5.7A27,27,0,0,1,416.4,381.6Z" transform="translate(-71.7 -5.7)" fill="#fff"/><path d="M455.1,403.3l3.5-37.2,6.9.7-3.6,37.2Z" transform="translate(-71.7 -5.7)" fill="#fff"/><path d="M471.3,404.9l3.9-37.1,14.7,1.6q6.7.8,10.1,4.3t2.6,9.3c-.7,5.6-3.9,8.9-9.6,9.9l8.1,15.4-8.1-1-7.4-14.1-6.1-.7L478,405.6Zm8.8-18.5,7.5.8a10.4,10.4,0,0,0,5.6-.6q2.1-1,2.5-4.3t-1.4-4.8a10.6,10.6,0,0,0-5.3-1.8l-7.6-.9Z" transform="translate(-71.7 -5.7)" fill="#fff"/><path d="M355.2,246.7l-18.7,1,4.3-3.2c4.1-.3,8.1-.9,12.2-.9,1.6,0,3.3,1.3,4.9,2Z" transform="translate(-71.7 -5.7)" fill="#d7d8d9"/><path d="M354.3,124.4a70.9,70.9,0,0,0,8.9-.2c1.4-.2,2.7-1.6,4.1-2.4l-2.5-3.3-1.4-1.9h.5a6.5,6.5,0,0,1,6.7,6.3c.1,1-4.4,3.2-6.9,3.3S357.4,125.1,354.3,124.4Z" transform="translate(-71.7 -5.7)" fill="#aaa9a7"/><path d="M386.1,185.1l1.1,1.3-10.9.9Z" transform="translate(-71.7 -5.7)" fill="#b0b6bf"/><path d="M336.5,247.7l-4,1.9Z" transform="translate(-71.7 -5.7)" fill="#d7d8d9"/><path d="M322.6,255.6l-2,4Z" transform="translate(-71.7 -5.7)" fill="#d7d8d9"/><path d="M334.5,241.7h3C337,242.3,335,242.3,334.5,241.7Z" transform="translate(-71.7 -5.7)" fill="#d7d8d9"/><path d="M313.6,232.7l3,2Z" transform="translate(-71.7 -5.7)" fill="#aaa9a7"/><path d="M235.2,213.9l-1.2-2Z" transform="translate(-71.7 -5.7)" fill="#aaa9a7"/><path d="M315.5,270.5l-.9,1.9Z" transform="translate(-71.7 -5.7)" fill="#b0b6bf"/><path d="M320.6,259.6l-1,2.1Z" transform="translate(-71.7 -5.7)" fill="#d7d8d9"/><path d="M369.2,134.5h0Z" transform="translate(-71.7 -5.7)" fill="#aaa9a7"/><path d="M313.7,231.5v0Z" transform="translate(-71.7 -5.7)" fill="#aaa9a7"/><path d="M323.5,254.6l-1,1Z" transform="translate(-71.7 -5.7)" fill="#d7d8d9"/><path d="M366.2,256.6l-2-1.1Z" transform="translate(-71.7 -5.7)" fill="#aaa9a7"/><path d="M311.7,290.2l.6.6h-1.1Z" transform="translate(-71.7 -5.7)" fill="#0b2c53"/><path d="M271.9,278.3l1,.2Z" transform="translate(-71.7 -5.7)" fill="#d7d8d9"/><path d="M345.8,136.5c-1.3,9.7-2.4,17.9-3.3,26.1-.3,3.1-2,4.1-4.8,4.6-11.3,2.4-22.6,4.9-33.8,7.7-3,.7-4.9.2-6.8-2.3-4.9-6.8-10-13.6-15.2-20.2-2.3-2.9-2.4-5.4.2-7.8,7.6-7.1,15.1-14.2,23-20.9a8.1,8.1,0,0,1,6.4-1.3c9.9,2.5,19.7,5.4,29.5,8.3C344.6,131.6,346.9,133.7,345.8,136.5Z" transform="translate(-71.7 -5.7)" fill="#d0d6de"/><path d="M314.4,245.5c-8.4-8.4-16.4-17.2-24.7-25.7a5.9,5.9,0,0,0-5-1.4c-8.7,3.1-17.4,6.3-25.9,10-1.4.6-3.2,3.3-2.9,4.7,1.6,9.6,3.7,19.1,5.8,28.5,1,4.7,4.2,7.5,8.8,9.1s7,2.9,10.5,4.3,9.6,2.3,14.5,3.3c.9.2,3.7-.5,5.2-1v.2a7.7,7.7,0,0,0,2.1-.6,12.4,12.4,0,0,0,1.9-1.8c3.6-7.8,7.2-15.6,10.9-23.3C316.7,249.4,316.5,247.6,314.4,245.5Z" transform="translate(-71.7 -5.7)" fill="#d0d6de"/><path d="M291.6,228.8c.9.3,2.1.5,2.7,1.1,5.2,5.2,10.2,10.8,15.6,15.8,2.9,2.7,2.9,4.9,1.2,8.1-3.3,6.2-6.3,12.7-9.3,19.1a25,25,0,0,0-1.2,4.7h-1.8l-10.4-4.1-11.5-4.9c6,1,11.9,2.1,18,2.7,1.5.1,3.9-1.4,4.8-2.8,2.6-4.7,4.6-9.8,7.1-14.7,1.5-3,.6-4.9-1.4-7.4C300.4,240.7,296.1,234.7,291.6,228.8Z" transform="translate(-71.7 -5.7)" fill="#aaa9a7"/><path d="M320.4,166.1c-5.5,1.6-10.9,3.4-16.4,4.9-1.1.3-3,.1-3.6-.6-5.2-6.6-10.2-13.2-15-20.1-.8-1.1-.8-3.8,0-4.6,6.5-6.4,13.1-12.8,20.1-18.7,1.4-1.2,4.6-.4,7-.5,7.5,2.8,15.1,5.5,22.5,8.6,1.5.6,3.3,3,3.2,4.5a102.7,102.7,0,0,1-2.3,16.6,9,9,0,0,1-4.2,5.1C328.1,163.4,324.2,164.6,320.4,166.1Z" transform="translate(-71.7 -5.7)" fill="#fdfcfc"/><path d="M320.4,166.1c3.8-1.5,7.7-2.8,11.3-4.7a9,9,0,0,0,4.2-5.1,102.7,102.7,0,0,0,2.3-16.6c.1-1.5-1.7-3.9-3.2-4.5-7.4-3.1-14.9-5.8-22.5-8.6,1.4-.2,2.9-.8,4.1-.5,7.6,2.2,15.2,4.4,22.6,7a5.9,5.9,0,0,1,3,4.7c-.6,7.7-1.8,15.3-2.8,23-.1.8-.8,2.2-1.4,2.3C332.1,164.3,326.3,165.2,320.4,166.1Z" transform="translate(-71.7 -5.7)" fill="#aaa9a7"/><path d="M387.3,197.2c3.1,0,7.1-.3,10.3-.6s6.5,1.7,7,4.8c1.7,9.4,4.4,19.4,5.7,28.8.2,1.4-2.4,4.7-3.4,5.7-6,6-11.6,12-17.6,18-2.9,2.9-7.7,1.1-10.1-1.2s-5.1-3.2-6.8-5.1C372.4,247.6,388.2,197.9,387.3,197.2Z" transform="translate(-71.7 -5.7)" fill="#aaa9a7"/><path d="M291.6,228.8c4.5,5.8,8.8,11.9,13.6,17.5,2.1,2.4,2.9,4.4,1.4,7.4-2.4,4.8-4.4,9.9-7.1,14.7-.8,1.4-3.2,3-4.8,2.8-6-.5-12-1.7-18-2.7h-.6l-2.3-1.1c-10.8-2-10.8-11.3-12.8-19.1a75.5,75.5,0,0,1-1.9-13.6,5,5,0,0,1,2.5-3.9c7.4-3.1,14.9-5.9,22.5-8.4,1.1-.4,3.1,1.1,4.3,2.1S290.6,227.3,291.6,228.8Z" transform="translate(-71.7 -5.7)" fill="#fdfcfc"/><path d="M274,267.4l2.3,1.1Z" transform="translate(-71.7 -5.7)" fill="#aaa9a7"/><path d="M365.2,130.2c4.8-2.9,14.2-1.4,8.5-10.4-.7-.8-1.4-1.7-2.1-2.5a101.7,101.7,0,0,0-65.3-8.9c-.3.5,0,1.3.6,2.3,2.2,5.1,6.5,6.7,11.7,7.2a54.5,54.5,0,0,1,10.5,2.6L361,130.7h0c.3-.4.2-.1,0,0h0c-9.1,1.3-11.2,7.5-11,15.5a26.1,26.1,0,0,1-.8,6.9c-2,8.5-1.9,16.5,4.6,23.4.5.5.4,1.6.6,2.5a7.2,7.2,0,0,1-2.1-.9c-6.6-6.2-14.1-6.6-22.4-4a140.5,140.5,0,0,1-17.4,3.9c-7.8,1.3-13.9,4.7-17.2,12.2-.3.8-1.3,1.2-1.9,1.9s-.6-1.9-.3-2.6c3.2-8.7,0-15.6-6.1-21.6a15,15,0,0,1-1.7-2.4c-5.4-8-10.4-16.6-23.8-10.4,1.4-2,1.5-2.5,1.9-2.7,8.9-3.9,14.9-11,21-18.2a58.9,58.9,0,0,1,12.9-11.4c4.6-3,7.3-6.3,6.5-11.9-.8-.3-1.7-.8-2.5-1.1a101.6,101.6,0,0,0-55.2,36v1.8c.2,1,.4,1.9.6,2.9,1.1,6.4,1.1,6.4,7.6,5.3a20.3,20.3,0,0,1,3.3,0,16.3,16.3,0,0,1-2.2,2.9c-12.2,10.2-14.8,24.5-16.6,39-.5,4,1.5,8.4,2.2,12.6a12.8,12.8,0,0,1-.1,2.7,11.6,11.6,0,0,1-2-1.2c-6.3-5.9-6.5-5.9-11.9,1.3l-1.6,1.9h0l-.4,1.2A101.1,101.1,0,0,0,252,277.5l1.9-.7,1.3-.5c4.1-6.9,1.3-13.2-.8-19.9a68,68,0,0,1-3.1-16.5c-.5-7.9-3.4-14.8-7.4-21.6.9-.1,1.3-.3,1.4-.2,6.2,6.6,13,5.7,20.4,1.9,5.3-2.7,11.8-3.3,16.4-6.8s6.4-9,9.7-13.9a7.1,7.1,0,0,1,.2,2.1c-1.9,9.4,1.9,16.6,8.5,22.8a134.9,134.9,0,0,1,11.1,11.3c5.3,6.4,11.6,9.9,20.1,9a6.8,6.8,0,0,1,2.5.8c-.4.4-.9,1.1-1.4,1.2-10.8,1.6-14,10.3-17.5,18.7-1,2.4-2.1,4.8-3.2,7.2h2.7l.9-1.9h1.1l3.1-8.8,1-2.1h0l2-4h0l1-1,8.9-5,4-1.9h0l4.3-3.2c1.2-1.1,2.3-2.6,3.7-3.1,6.5-2.7,10.6-7.2,12.2-14.2,2.3-9.6,5.4-19,7.6-28.7.5-2.3-1.1-5.2-2.1-7.6s-2.4-4.3-3.2-7.3a90.9,90.9,0,0,0,8.7,5.5c2.3,1.1,5.1,2.2,7.6,2,6.2-.3,19.9-4.2,26.1-4.9l3.9-13.1c.2-.3-11.5-24.3-11.3-24.6h0C387.2,138.8,378.6,131.8,365.2,130.2Z" transform="translate(-71.7 -5.7)" fill="#d0d6de"/><path d="M393.6,149.4l.5-1h0Z" transform="translate(-71.7 -5.7)" fill="#d0d6de"/><path d="M314.6,272.4h0Z" transform="translate(-71.7 -5.7)" fill="#d0d6de"/><path d="M361,130.7c.2-.1.3-.4,0,0Z" transform="translate(-71.7 -5.7)" fill="none"/><path d="M230.2,201.9c1.2-1.4,2.6-3,2.8-4.7a95.6,95.6,0,0,1,9.6-33c2.1-4.3.3-7.6-2.2-10.8A101,101,0,0,0,224.5,206l.7.6A60.7,60.7,0,0,0,230.2,201.9Z" transform="translate(-71.7 -5.7)" fill="#d0d6de"/><path d="M387,144.8c-5.3-4.6-10.2-9.7-17.8-10.3H368c-8.5-1.8-12.4.7-14,9.3-1,5.5-1.9,11-2.5,16.5a12.7,12.7,0,0,0,.7,6.3A41.5,41.5,0,0,0,367.3,185c2.9,1.9,5.6,3,9,2.2l10.8-.9h2.7L394,189l-4.1-2.7,2-.2c9-.2,13.2-5.9,11.4-14.8s-5.3-14.6-10.2-20.9l.5-1.1-.5,1.1C391,148.6,389.1,146.6,387,144.8Z" transform="translate(-71.7 -5.7)" fill="none"/><path d="M300.9,219.6c4.4,3.9,8.6,8,12.8,11.9v1.2l3,2h0a19.7,19.7,0,0,0,2.3,3.5c4.4,4.5,10.5,1.9,15.6,3.5.6.6,2.6.6,3,.1,3.1-1.9,6-4,9.2-5.5s4.9-4,5.8-7.3c2.5-8.7,4.8-17.4,7.8-25.9,2.3-6.6-.4-11.3-4.5-15.9s-7.1-7.4-11.6-9.7a9.5,9.5,0,0,0-5.6-1c-9.2,1.7-18.3,3.6-27.4,5.7s-14.1,8-15.6,17S294.4,213.9,300.9,219.6Z" transform="translate(-71.7 -5.7)" fill="none"/><path d="M276.5,138c3.9-4.4,8-8.6,12.1-12.8,2-2,4.1-3.9,6.2-5.9s1.9-1.6,2.8-2.5a33.3,33.3,0,0,0,2.1-2.7,22,22,0,0,0-3.5-.3,6.4,6.4,0,0,0-2.3.8c-7.4,3.6-15.3,6.3-21.9,11s-14.2,12.1-20.9,18.6c-3.4,3.3-2.3,6.6,1.8,8.2C262.6,150.6,270.1,145.3,276.5,138Z" transform="translate(-71.7 -5.7)" fill="none"/><path d="M257.5,218.8c7.8-2.9,15.6-5.6,23.4-8.7,1.1-.5,1.9-2.2,2.6-3.5,3.5-6.9,6.4-13.8,6.8-21.8.3-6.5-5-17-11.4-19.6-.3-.2-.7-.3-.8-.6-4-8.7-4.2-9.3-12.5-7.7s-12.9,7.4-15.8,13.5c-5.5,11.5-10.2,23.4-6,37C246.4,215.9,249,219,257.5,218.8Z" transform="translate(-71.7 -5.7)" fill="none"/><path d="M248.1,240.2c-.7-8.1-4.6-14.6-7.7-21.6-.9-2-3.4-3.2-5.2-4.8h0l-1.2-2c-4,.5-6.5,3.7-5.6,7.8,2.1,8.8,4.1,17.6,7,26.1a71.6,71.6,0,0,0,15.8,25.7c3.7-.7,3-3.2,2.4-5.7C251.7,257.2,248.8,248.8,248.1,240.2Z" transform="translate(-71.7 -5.7)" fill="none"/><polygon points="244.9 229 244.9 229 244.9 229 244.9 229" fill="#d0d6de"/><polygon points="242.9 266.7 242.9 266.7 242.9 266.7 242.9 266.7 242.9 266.7 242.9 266.7" fill="#d0d6de"/><polygon points="289.3 124.9 289.3 124.9 289.3 124.9 289.3 124.9" fill="#d0d6de"/><path d="M313.7,232.7h0Z" transform="translate(-71.7 -5.7)" fill="#d0d6de"/><path d="M363.6,126.3c2.5-.2,7-2.3,6.9-3.3a6.5,6.5,0,0,0-6.7-6.3h-.5c-3.6-1.3-7.2-2.9-10.9-4a98.1,98.1,0,0,0-37.9-3,11.9,11.9,0,0,0-3,1.2c1,.9,1.9,2.3,3.1,2.7,13.2,3.7,26.5,7.3,39.7,10.9C357.4,125.1,360.5,126.5,363.6,126.3Z" transform="translate(-71.7 -5.7)" fill="none"/><path d="M390.9,130l-1,5.5c5.5,6,11.4,11.8,16.3,18.3,2.5,3.4,5,5.1,8.8,5.3A102,102,0,0,0,390.9,130Z" transform="translate(-71.7 -5.7)" fill="#b0b6bf"/><path d="M389.9,135.6l1-5.5a101.8,101.8,0,0,0-10.7-7.8C380.6,128.6,385.2,132.2,389.9,135.6Z" transform="translate(-71.7 -5.7)" fill="#d0d6de"/><path d="M425.2,207.9c-.5-5.1-.4-10.4-1.5-15.5-1.5-7.1-3.8-14-6-20.9-.3-1.1-2.1-1.8-3.3-2.5s-1.4.6-1.6,1.1c-.8,2.8-2.2,5.8-1.8,8.6.8,6.4,2.3,12.8,3.7,19.2,1,4.5,2.4,8.9,3.3,13.4s1.1,8.8,1.9,13.2c.3,1.6,1.3,3.1,2,4.7.6-1.4,1.7-2.8,1.8-4.3C424.3,219.3,424.7,213.7,425.2,207.9Z" transform="translate(-71.7 -5.7)" fill="none"/><path d="M418.9,167a7.5,7.5,0,0,0-3.3-1.8c-3.1-.9-4.9-.9-5.6,2.8s-1.4,4.3-2.6,7.7c-2.4-11.1-4.3-21.1-13.3-27.3l-1.4,1.6c5.1,6.4,9.1,13.3,10.6,21.5s-3.7,14.5-11.5,14.7l-2,.2L394,189c8.6,2.1,10.2-4.7,12.8-11.2,3.5,16.4,6.9,31.7,9.8,47.1.7,3.5,1.4,6.3,4.2,8.5a9.7,9.7,0,0,1,1.7,2.7,7.7,7.7,0,0,1-2.7.7c-3.4-.4-5.2,1.6-7.4,3.8-7.6,7.5-15.7,14.6-23.2,22.1-3.1,3.1-5.3,7-7.9,10.5a15.1,15.1,0,0,1-2,1.9,7.8,7.8,0,0,1-.2-2.6c1.9-7.3-1-12.2-7.1-16.1s-9-6.9-14.3-10.9c-.5.4-2.1-.8-2.4-.6-6.7,3.4-41.8,27.9-43.2,27.3l-3,6.6,1.8,10.5,1.4,1.5h-1.1c-7.3-4-14.8-7.6-23.2-8.7l-15.1-3.7-1-.2h.1c-2.1.3-11.5-1-15.3-1l-.7-.8-.9-.2-3.1,1.2a101.5,101.5,0,0,0,42.6,27.1c7.3,1.9,15,2.8,22.5,4.4l.7-.7c5.5-4.9,5.5-4.9.9-10.5a23.8,23.8,0,0,1-1.8-2.8,18,18,0,0,1,3.1.3c16.7,4.5,41.5-1.6,54.5-13.3a30.6,30.6,0,0,1,2.7-2,13.6,13.6,0,0,1-.1,3.1c-2.2,8.2-2.1,8.6,6.5,8.6A101.6,101.6,0,0,0,418.9,167Z" transform="translate(-71.7 -5.7)" fill="#b0b6bf"/><path d="M418.8,242.4c-.3-.4-.8-1.3-1-1.2a8,8,0,0,0-2.4,1.5c-6.2,6.1-11.8,12.8-18.6,18.1a45.9,45.9,0,0,0-16.5,23.1c-.4,1.2-.1,2.7-.1,4a26.5,26.5,0,0,0,4.5-.6,10.4,10.4,0,0,0,2.9-1.9c12.2-9.3,20.7-21.5,27.8-34.8C416.8,247.9,417.7,245.2,418.8,242.4Z" transform="translate(-71.7 -5.7)" fill="none"/><path d="M313.7,231.5c-4.3-4-8.4-8.1-12.8-11.9-6.5-5.7-6.7-12.8-5.4-20.6s6.9-15,15.6-17,18.2-4,27.4-5.7a9.5,9.5,0,0,1,5.6,1c4.6,2.3,9.1,4.9,11.6,9.7.6,4,2.3,8.3,1.5,11.9-2.3,9.8-5.6,19.3-8.8,28.8a10.7,10.7,0,0,1-4.2,5.2c-4.9,3.1-10.1,5.9-16.2,4.8-3.9-.7-7.7-2-11.5-3.1h0l-3-2h.1Z" transform="translate(-71.7 -5.7)" fill="#fdfcfc"/><path d="M257.5,218.8c-8.5.1-11.1-2.9-13.7-11.4-4.2-13.6.4-25.5,6-37,2.9-6.1,7.7-11.9,15.8-13.5s8.5-1,12.5,7.7c.1.3.5.4.8.6,3.1,7.6,9.8,13.9,7.1,23.7s-5.4,18.8-16,23.1C265.6,213.7,261.7,216.5,257.5,218.8Z" transform="translate(-71.7 -5.7)" fill="#fdfcfc"/><path d="M376.3,187.2c-3.4.8-6.1-.3-9-2.2a41.5,41.5,0,0,1-15.2-18.3,12.7,12.7,0,0,1-.7-6.3c.6-5.5,1.5-11.1,2.5-16.5,1.6-8.6,5.5-11.2,14-9.3h1.2c.7.8,1.3,1.9,2.2,2.3,10.9,4.6,16.8,14,22.9,23.3l-2.5,22.7-5.8,2.3Z" transform="translate(-71.7 -5.7)" fill="#fdfcfc"/><path d="M252.8,152.3c-4.1-1.7-5.2-4.9-1.8-8.2,6.6-6.6,13.3-13.3,20.9-18.6s14.6-7.4,21.9-11a6.4,6.4,0,0,1,2.3-.8,22,22,0,0,1,3.5.3,33.3,33.3,0,0,1-2.1,2.7c-.8.9-1.8,1.7-2.8,2.5s-4.7,2.4-6.7,4c-8.7,7.3-17.2,14.8-25.9,22.1C259.3,147.9,256,150,252.8,152.3Z" transform="translate(-71.7 -5.7)" fill="#fbfbf8"/><path d="M354.3,124.4c-13.2-3.6-26.5-7.2-39.7-10.9-1.2-.3-2.1-1.8-3.1-2.7a11.9,11.9,0,0,1,3-1.2,98.1,98.1,0,0,1,37.9,3c3.7,1.1,7.3,2.6,10.9,4l1.4,1.9,2.5,3.3c-1.3.8-2.6,2.2-4.1,2.4A70.9,70.9,0,0,1,354.3,124.4Z" transform="translate(-71.7 -5.7)" fill="#fbfbf8"/><path d="M251.2,271.4a71.6,71.6,0,0,1-15.8-25.7c-3-8.5-4.9-17.3-7-26.1-1-4.1,1.6-7.3,5.6-7.8l1.2,2h0c.6,2.2.9,4.6,1.9,6.6,3.4,6.8,6,13.5,7,21.3C245.4,251.8,248.8,261.6,251.2,271.4Z" transform="translate(-71.7 -5.7)" fill="#fbfbf8"/><path d="M316.6,234.7c3.8,1,7.6,2.3,11.5,3.1,6.1,1.1,11.3-1.7,16.2-4.8a10.7,10.7,0,0,0,4.2-5.2c3.2-9.5,6.5-19,8.8-28.8.9-3.7-.9-7.9-1.5-11.9,4,4.6,6.7,9.3,4.5,15.9-3,8.5-5.3,17.2-7.8,25.9-.9,3.3-2.4,5.8-5.8,7.3s-6.1,3.6-9.2,5.5h-3c-5.1-1.6-11.2,1-15.6-3.5A19.8,19.8,0,0,1,316.6,234.7Z" transform="translate(-71.7 -5.7)" fill="#aaa9a7"/><path d="M386.1,185.1l5.8-2.3c4.6.3,7.9-2.8,7.5-6.5-.6-5.5-3.2-10.8-5-16.2-6.1-9.3-12-18.7-22.9-23.3-.9-.4-1.5-1.5-2.2-2.3,7.6.6,12.5,5.8,17.8,10.3,2.1,1.8,4.1,3.8,6.1,5.7,4.9,6.2,8.6,12.9,10.2,20.9s-2.4,14.6-11.4,14.8l-2,.2h-2.7Z" transform="translate(-71.7 -5.7)" fill="#aaa9a7"/><path d="M257.5,218.8c4.1-2.3,8.1-5.1,12.5-6.9,10.6-4.3,13.3-13.2,16-23.1s-4-16-7.1-23.7c6.4,2.6,11.7,13.1,11.4,19.6-.4,8-3.3,15-6.8,21.8-.7,1.3-1.4,3-2.6,3.5C273.2,213.2,265.3,216,257.5,218.8Z" transform="translate(-71.7 -5.7)" fill="#aaa9a7"/><path d="M251.2,271.4c-2.5-9.9-5.8-19.7-7.2-29.7-1-7.8-3.6-14.5-7-21.3-1-2-1.3-4.4-1.9-6.6,1.8,1.6,4.3,2.8,5.2,4.8,3.1,7,7,13.5,7.7,21.6s3.7,17,5.6,25.5C254.2,268.2,254.9,270.7,251.2,271.4Z" transform="translate(-71.7 -5.7)" fill="#aaa9a7"/><path d="M252.8,152.3c3.1-2.3,6.4-4.4,9.4-6.9,8.7-7.3,17.2-14.8,25.9-22.1,2-1.6,4.4-2.7,6.7-4-2.1,2-4.2,3.8-6.2,5.9-4.1,4.2-8.2,8.4-12.1,12.8C270.1,145.3,262.6,150.6,252.8,152.3Z" transform="translate(-71.7 -5.7)" fill="#aaa9a7"/><path d="M394.3,160c1.8,5.4,4.4,10.7,5,16.2.4,3.7-2.9,6.8-7.5,6.5Z" transform="translate(-71.7 -5.7)" fill="#d7d8d9"/><path d="M231.8,180.5l-1.5,14-1.4-.2c-.4-4.8,1.1-14,3.4-18.4Z" transform="translate(-71.7 -5.7)" fill="#f4f4f3"/><path d="M332.4,293.3c-8.1,1.4-16.9-2.2-19.4-8.3-.8-2-.4-4.6-.1-6.9a32.8,32.8,0,0,1,1.7-5.6h0l.9-1.9h1.1c1.5-.4,5.8-10.2,7-11,11.5-7.1,19.9-5.1,31.3-12.3l9.2,8.3,2,1.1h0l.9.9h0a32.4,32.4,0,0,0,2.7,5.1,10.6,10.6,0,0,1-1.2,14.6,41.6,41.6,0,0,1-17.4,9.9C344.9,288.9,338.7,291.2,332.4,293.3Z" transform="translate(-71.7 -5.7)" fill="#d7d8d9"/><path d="M355.3,247.6,321,269.2c-1.2.8-2.9.8-4.4,1.2l3.1-8.8,1-2.1h0l2-4h0l1-1,8.9-5,4-1.9h0l18.7-1A5.4,5.4,0,0,1,355.3,247.6Z" transform="translate(-71.7 -5.7)" fill="#fbfbf8"/><path d="M256,276.4c5.9-4.6,11.1-2.5,16,1.9l-4.2.6v1.2c9,2.4,17.9,5.3,27.1,6.9,5.2.9,8.2,4.2,12.1,6.8l2.3,1.7c1.1,1.4,2.2,2.9,3.2,4.3a29.3,29.3,0,0,1,1.5,2.8,12.8,12.8,0,0,1-3.2.1l-24.9-5.4c-8.1-5-16.3-9.9-24.3-15.1C259.3,280.8,257.8,278.4,256,276.4Z" transform="translate(-71.7 -5.7)" fill="#d7d8d9"/><path d="M418.8,242.4c-1.2,2.9-2.1,5.6-3.4,8-7.1,13.3-15.7,25.5-27.8,34.8a10.4,10.4,0,0,1-2.9,1.9,26.5,26.5,0,0,1-4.5.6c0-1.3-.3-2.8.1-4a45.9,45.9,0,0,1,16.5-23.1c6.8-5.2,12.4-12,18.6-18.1a8,8,0,0,1,2.4-1.5C418,241.1,418.6,242,418.8,242.4Z" transform="translate(-71.7 -5.7)" fill="#d7d8d9"/><path d="M425.2,207.9c-.5,5.8-.9,11.4-1.5,17-.2,1.5-1.2,2.9-1.8,4.3-.7-1.6-1.7-3.1-2-4.7-.8-4.4-1-8.8-1.9-13.2s-2.3-8.9-3.3-13.4c-1.4-6.4-2.9-12.7-3.7-19.2-.3-2.8,1.1-5.8,1.8-8.6.1-.5,1.3-1.3,1.6-1.1s2.9,1.4,3.3,2.5c2.2,6.9,4.5,13.8,6,20.9C424.8,197.5,424.8,202.9,425.2,207.9Z" transform="translate(-71.7 -5.7)" fill="#d7d8d9"/><path d="M332.4,293.3c6.3-2,12.5-4.3,18.8-6a41.6,41.6,0,0,0,17.4-9.9,10.6,10.6,0,0,0,1.2-14.6,32.4,32.4,0,0,1-2.7-5.1c3,2.7,7.9,5.1,8.5,8.3,1,5.5,0,11.1-5.4,15.7-10.5,8.9-23.6,9.2-35.8,12.5C334,294.3,333.1,293.6,332.4,293.3Z" transform="translate(-71.7 -5.7)" fill="#aaa9a7"/><path d="M285.8,297.3l24.9,5.4a12.8,12.8,0,0,0,3.2-.1,29.3,29.3,0,0,0-1.5-2.8c-1-1.5-2.1-2.9-3.2-4.3,5-.6,6.1,3.7,8,6.7.3.5-2.3,3.9-3,3.8-9.4-2.2-18.6-4.7-27.9-7.2C286,298.5,286,297.7,285.8,297.3Z" transform="translate(-71.7 -5.7)" fill="#aaa9a7"/><path d="M367.2,257.6l-.9-.9Z" transform="translate(-71.7 -5.7)" fill="#aaa9a7"/><path d="M360.1,239.9c-.1-1.8-.8-3.8-.3-5.4,3.1-11.1,6.4-22.1,9.5-33.2.8-2.8,2-4.2,5-4.4,4.6-.2,9.2-.7,13.8-1.1v2.2c.9.7,1.8,1.9,2.7,2,9.2.9,9.2.9,11,10,.3,1.6.3,3.3.7,4.9,3.3,11,1.2,20-8.3,27.5-5.9,4.7-10.8,9.8-18.7,4.2H375C371.4,243.9,360.8,239.5,360.1,239.9Z" transform="translate(-71.7 -5.7)" fill="#d7d8d9"/><path d="M387.9,197.9v-2.2c4.1-.5,8.2-1.3,12.3-1.2,1.6,0,4.3,1.7,4.6,3,2.5,10.9,4.6,21.9,6.6,32.9.3,1.5-.7,3.7-1.9,4.8-7.3,7.4-14.7,14.7-22.3,21.7-1.1,1-4.3,1.3-5.5.4-7.4-5.6-14.5-11.6-21.7-17.5l2.2-1,2-.2,10.7,7.9c1.8,1.9,3.4,3.9,5.3,5.7s4.7,3.2,7.6.3c6-6,12.4-11.7,18.4-17.8a6,6,0,0,0,1.6-4.4q-1.9-14.1-4.4-28.2c-.5-3.1-2.6-4.7-6.1-4.3A88.5,88.5,0,0,1,387.9,197.9Z" transform="translate(-71.7 -5.7)" fill="#b0b6bf"/><path d="M365.5,295c-9.6,2.8-19.4,5.5-29.2,6.9-5.6.8-8.9,3.2-11.2,7.6h1a101,101,0,0,0,49.4-12.8C372.5,294.4,369.5,293.8,365.5,295Z" transform="translate(-71.7 -5.7)" fill="#b0b6bf"/><path d="M364.2,238.6l-2,.2,8.7-29.7.7-2.4c.7-2.1.9-5.4,2.3-6.1s6.3-1.3,9.6-1.5c.6,0,2,2.5,1.7,3.1-4.8,9.3-9.8,18.5-14.9,27.7C368.7,233,366.3,235.7,364.2,238.6Z" transform="translate(-71.7 -5.7)" fill="#fbfbf8"/></svg>