<svg xmlns="http://www.w3.org/2000/svg" viewBox="0 0 685.2 685.4"><title>nokkvi</title><circle cx="343" cy="344" r="330" fill="#fff"/><path d="M391.3-84.4l19.1-27.1h16.2v10.2H440v-10.2h23s12,37.9,14.9,50.8l11.8-50.8h35.2L515.9-77h36.4l.8,103H511.9l-.6-74.5L498.5,0h-31L440.1-77H426.8l-16,25.1L449,0H411.2L391.8-22.7,391.9,0H323.2L303.9-25.4,304.1,0H267.3l-.6-77.1H251.9l.5,77H161.3l-.6-77H146.5l.6,77H112.9L95.5-18.6,95.8,26H60.1L59.2-77H95l17.4,13.9-.4-48.4h34.3v10.2h14.1v-10.2h17.4v-11.4h22.4v11.4h13.2v-11.4h21.8c.2,4.1-.2,6.7,0,11.3h16.2s.1,10.3.1,10.2h14.9v-10.2h36.7l.2,27,18.9-27h19.4v10.2h13v-10.2h36.3ZM322.8-51.9l32.6,37.7-.4-63H341.9Z" transform="translate(41.1 229.5)"/><path d="M617.7-20C561.9-151.8,426.1-236.6,283.2-229,142.1-221.5,17.1-124.6-25.5,10c-43.4,137,5.7,290.2,120,377s276.9,92.1,396.9,12.3C627,309.2,681.2,130.2,617.7-20Zm-316-191.5A325.4,325.4,0,0,1,598.5-19c2.6,5.8,11.2,19.8,10.4,26.3C608.4,11,573,50,573,50L552.5,36H512l.2,21.7L577,96.8l43.5-46.3a327.9,327.9,0,0,1,1,120.7c-6.9-3.8-9.2-2.7-15.8.9-5.1,2.7-10.1,5.6-15.3,8.1-12.1,5.9-20.3-3.3-31.3-8.8-3.1-1.6-8.5-5.3-12.3-4.8-1.8.2-10.5,6.6-13.5,8.2-5.6,2.9-11.9,7.5-17.9,9.4s-4.6,1.8-9.7-1l-9.9-5.5c4-4.3,20.5-17.3,20.1-23.4s-20-14.9-26.2-18.2c-19.4-10.5-38.7-20.9-57.8-31.9-21.5-12.5-43.5-24.1-65.3-36-11.1-6.1-22.2-12.2-33.2-18.5-9.1-5.3-19.2-12.9-29.4-15.6s-19.3,5.6-27.5,10.5L245,63.7c-22,13.1-44.3,25.8-66.4,38.7-20.6,12-41,24.2-61.5,36.3-5,3-26.1,12.8-26.8,15.4-1.9,6.3,13,19,16.9,23.6-4.7,2.7-10.7,8.1-16.1,8.5s-10.8-3.7-15.7-6.7-10.7-7.9-16.6-8.5-13.2,4.1-18.6,7.1c-12,6.5-17.4,11-30.5,5.2-7.5-3.3-19.3-13.8-27.3-9.2A327.4,327.4,0,0,1-20.6,71.3c.7-5.2,2.5-13.6,2.5-13.6L26.1,105l70-39.8L95.9,36H60.2V48.8L40,58.4S-6.5,14.3-6.2,9.1C-5.7,0,1.7-12,5.4-20.3a327.8,327.8,0,0,1,162-162.2A325.3,325.3,0,0,1,301.6-211.5ZM614.5,201.9c-11.4,2.3-20.3,15.2-32.1,16.4s-21.5-14.7-32.8-16.3c-7.4-1.1-20.2,8.8-26.6,12.1-4.3,2.2-9.5,6.5-14.4,6.5s-12.5-5.6-17.1-8c-10.2-5.4-20.2-13.1-30.8-17.5s-17,9.4-23.1,16.1c-8.4,9.3-18,.1-27.6-4.6-11.8-5.8-23.5-11.8-35.4-17.6-21.6-10.6-42.9-22.8-65-32.2-9.8-4.2-18.3,2.4-27.3,6.9-12,6.1-24.1,11.6-36.4,17.2-24,10.9-47.4,24.2-72,33.7-6.7,2.6-7.3.9-11.8-4.4s-6.4-9.3-10.2-13c-8.4-8.1-16.2-.5-24.8,4.5-6.5,3.8-13.1,7.2-19.8,10.5s-12.7,8.4-18.7,8.9c-12.1.9-22-14.8-34.3-14.9-5.6,0-11.3,4.3-16.1,6.8l-8.7,4.6c-6.2,3.2-6.1,4.3-12.1,2.4S4.8,213.3-1.7,211c-1.2-.4-6.8-1.5-7.4-2.1-2.2-2.1-2.9-10.1-3.7-12.8,11.4,5.8,28.7,15.7,41.4,9.5,10.3-5,22.7-14.2,34.4-9.7,13.5,5.2,22.6,15.5,36.6,8s27.2-15.2,40.9-22.7c-6.1-6.6-12.4-13.2-17.1-21,32.5-18.8,65.3-37.3,97.6-56.5,16-9.5,32.5-18.1,48.4-27.6,8-4.8,15.9-10.2,24.1-14.6,10.1-5.4,13.9-.4,23.4,4.9,32.5,18.2,65.1,36.5,97.9,54.2,16,8.7,31.8,17.9,47.8,26.7,3.2,1.8,19.8,8.4,20,12.9s-17.2,19.9-20.1,23.2L494.7,202c3.6,2,11.5,8.9,15.5,8.9s14.4-7.9,18-9.9l15.6-8.6c6.4-3.5,7-2.9,13.2.8s14.6,9.1,22.5,12.2A13.6,13.6,0,0,0,592,204c8.4-5.5,22.9-15.1,25.5-13.7C616.5,194.2,615.5,198.1,614.5,201.9Zm-16.1,44.3c-4,2-11.3,8.2-15.5,8.9s-8-3-10.5-4.4c-9.3-5.1-20.8-17.7-31.2-12.9s-21.7,16.7-32.1,17.3-20.6-15-31.2-16.9c-8.5-1.6-19.1,7.2-26.2,11.2s-9.5,6.9-15.6,5.2c-4.5-1.3-9.2-4.7-13.3-6.9-9.4-5.2-16.6-11.8-27.2-6.2s-22.4,13-33.8,19l-31.9,16.8c-7.8,4.1-22.9,15.3-31.1,13.8s-19.2-10.4-26.9-14.3c-11.4-5.8-22.9-11.4-34.4-17s-21-10.2-31.4-15.6c-12.3-6.4-15.9-5.5-28.1,1.2-9.4,5.1-15.7,11.1-26.2,6.3-8.9-4-19.8-14.7-29.8-11.9s-21.2,17.2-33.8,17-21.2-12.6-32.5-15.3-21,9.6-30.6,13C12.3,259,5.6,248.4,1.4,238.2c4.8,2,10.1,5.2,15.1,6.5s7.8-.7,13.4-3.7l13.3-7.1c7-3.8,9.6-7,17-2.9s20.5,14.4,29.5,13.9c4-.2,10.2-5.6,13.9-7.6l18.3-10c4.1-2.2,10-7.4,14.7-8s5.9,1.9,9.1,5.7c6,7.2,10.1,19.1,20.4,16.1s21.9-10.8,32.2-15.6,21.4-10.3,32.3-15.2,21.7-9.3,32.5-14.2,22.7-12.5,34.6-16.5,19.5,3.1,28.8,7.7c10.9,5.5,21.6,11.3,32.4,16.9,20.1,10.4,40.5,20.4,60.9,30l14.3,6.7c6.8,3.2,6.9,2.2,11.4-3.7l10.5-13.9c1-1.3,2.7-4.7,4.1-5.4,3.6-1.9,6,.8,10,3l35.2,20c8,4.6,11,.8,18.9-3.3l16.3-8.6c7.4-3.9,8.9-4.3,16.2-.4l17.2,9.1c11.9,6.3,19.5-.6,30.8-6.2Q601.7,238.9,598.4,246.2ZM301.6,438.5c-114.3,0-222.3-61.9-280.2-160.4,6.5-.8,15.4-8.1,21.1-11.2s8.9-6,13.4-5.9,10.4,4.7,14.3,6.6c7.9,3.8,18.6,12.4,27.5,9.7s17.7-13.5,27.6-14.6,19.8,8.7,27.5,12.5c2.6,1.3,6.5,4,9.6,3.6s12-6.7,16.1-9,11.5-8.4,15.4-8.6,8.6,4,11.1,5.2c10.5,5.4,20.9,10.8,31.5,15.9,18.8,9.1,37.2,19.7,56.2,28.1,9.9,4.4,13.5,2.7,22.9-2.3s20.3-10.9,30.4-16.4,19.5-10.6,29.3-15.8l14.8-7.8c3.8-2,13.2-9.1,17.2-8.9,5.7.3,17.4,11.1,22.4,14.3,3,1.9,7.1,5.6,10.9,5.6s11.2-6,15.3-8.4,10.3-6.4,15.7-8.2c6.9-2.3,10.2,1.3,16.8,5.1,10.6,6,17.1,13,29,6.9,8.1-4.2,22.5-16.7,30.6-14.9,10.6,2.4,23.9,22.8,34.6,17C525,376,416.5,438.5,301.6,438.5Z" transform="translate(41.1 229.5)"/><polygon points="255.1 187.4 241.9 187.4 241.9 152.4 254.9 152.4 255.1 187.4" fill="#fff"/></svg>