<svg xmlns="http://www.w3.org/2000/svg" viewBox="0 0 288.3 215.3"><title>selfoss</title><path d="M97.9,67.4c20.4,0,35.2-17.3,47.5-30.6,12.3,13.3,27.1,30.6,47.5,30.6h49.7a10.9,10.9,0,0,1,10.9,10.9v7.6a3.3,3.3,0,0,0,3.3,3.3h21.8a10.9,10.9,0,0,1,10.9,10.9c-6.1,61.1-46.7,125.4-109,145.9-11.3,4.6-21.6,6.1-35.2,6.1s-23.8-1.4-35.1-6.1C48,225.5,7.3,161.2,1.2,100.1A10.9,10.9,0,0,1,12.1,89.2H33.9a3.3,3.3,0,0,0,3.3-3.3V78.3A10.9,10.9,0,0,1,48.1,67.4H97.9" transform="translate(-1.2 -36.8)" fill="#98002e"/><path d="M145.4,52.8C134.7,64,118.9,78.3,97.9,78.3H53.5a5.4,5.4,0,0,0-5.4,5.5V95.2c0,1.8-3.1,4.9-4.9,4.9H14.9a3.3,3.3,0,0,0-3.3,3.3c4,33.7,22.5,68.4,46.2,92,27.7,23.9,49.4,38.6,87.6,40.9,38.2-2.2,59.9-16.9,87.6-40.9,23.6-23.6,42.2-58.3,46.2-92a3.3,3.3,0,0,0-3.3-3.3H246a3.3,3.3,0,0,1-3.3-3.3v-13a5.5,5.5,0,0,0-5.4-5.5H193.1c-21.1,0-37-14.3-47.7-25.5" transform="translate(-1.2 -36.8)" fill="#fff"/><path d="M125.7,89.4v18c0,4.7-2,4.7-7.1,4.7s-7.1-.6-7.1-4.7v-18h-2.8v18c0,7.1,4.4,7.2,9.9,7.2s9.9-.5,9.9-7.2v-18h-2.8" transform="translate(-1.2 -36.8)" fill="#98002e"/><path d="M158.9,91.5h.1v22.9h2.8v-25h-4.9L148,110.8l-8.8-21.4h-4.9v25h2.8V91.5h.1l9.5,22.9h2.8l9.4-22.9" transform="translate(-1.2 -36.8)" fill="#98002e"/><path d="M171,91.9h12.5V89.4H168.1v25H171V102.9h12.1v-2.3H171Z" transform="translate(-1.2 -36.8)" fill="#98002e"/><path d="M43.8,147.4v1.5c0,9.4,6.5,9.2,13.7,9.2s12.8-.8,12.8-10-2.8-8.9-12.9-9.5c-6.4-.4-7.2-.5-7.2-4.6s1-4.1,7.3-4.1c4.4,0,5.9.1,5.9,3.7v1.1h6.3v-1.1c0-8.6-5.5-8.8-12.2-8.8s-13.6.3-13.6,9.3,5.6,9.3,12.7,9.7c4.9.3,7.4-.3,7.4,4.3s-.8,4.9-6.5,4.9-7.4-.3-7.4-4v-1.5H43.8" transform="translate(-1.2 -36.8)" fill="#98002e"/><path d="M82.2,130.5H98.4v-5.4H75.9v32.8H98.6v-5.4H82.2v-8.7H97.6v-5.1H82.2v-8.2" transform="translate(-1.2 -36.8)" fill="#98002e"/><path d="M111.1,125.1h-6.3v32.8h21.6v-5.4H111.1V125.1" transform="translate(-1.2 -36.8)" fill="#98002e"/><path d="M136.5,130.5h15.4v-5.4H130.2v32.8h6.3V144.3h14.6v-5.1H136.5v-8.7" transform="translate(-1.2 -36.8)" fill="#98002e"/><path d="M170.1,124.8c-10.4,0-13.9,1.8-13.9,12v8.8c0,10.8,3.7,12.5,13.9,12.5s14-2,14-12.5v-8.8c0-10.5-4.5-12-14-12m0,5.4c5.6,0,7.8.4,7.7,6.6v8.8c0,6.3-2,7.1-7.7,7.1s-7.6-.6-7.6-7.1v-8.8c.2-5.2.9-6.6,7.6-6.6" transform="translate(-1.2 -36.8)" fill="#98002e"/><path d="M189.4,147.4v1.5c0,9.4,6.5,9.2,13.7,9.2s12.8-.8,12.8-10-2.8-8.9-12.9-9.5c-6.4-.4-7.2-.5-7.2-4.6s1-4.1,7.3-4.1c4.4,0,5.9.1,5.9,3.7v1.1h6.3v-1.1c0-8.6-5.5-8.8-12.2-8.8s-13.6.3-13.6,9.3,5.6,9.3,12.7,9.7c4.9.3,7.4-.3,7.4,4.3s-.8,4.9-6.5,4.9-7.4-.3-7.4-4v-1.5h-6.3" transform="translate(-1.2 -36.8)" fill="#98002e"/><path d="M220.3,147.4v1.5c0,9.4,6.5,9.2,13.7,9.2s12.8-.8,12.8-10-2.8-8.9-12.9-9.5c-6.4-.4-7.2-.5-7.2-4.6s1-4.1,7.3-4.1c4.4,0,5.9.1,5.9,3.7v1.1h6.3v-1.1c0-8.6-5.5-8.8-12.2-8.8s-13.6.3-13.6,9.3,5.6,9.3,12.7,9.7c4.9.3,7.4-.3,7.4,4.3s-.8,4.9-6.5,4.9-7.4-.3-7.4-4v-1.5h-6.3" transform="translate(-1.2 -36.8)" fill="#98002e"/><path d="M112.7,171h-4.1l-6.9,7.5,1.8,1.7,6.4-7.1V196h2.8V171" transform="translate(-1.2 -36.8)" fill="#98002e"/><path d="M128.1,183.8c-5.5,0-6.4-.3-6.4-5.1s.7-5.4,6.4-5.4,6.4.1,6.4,5.4-.7,5.1-6.4,5.1m-9.6,6.7c0,5.5,3.7,5.6,9.5,5.6,8,0,9.3-1.6,9.3-7.9v-9.6c0-6.8-2.2-7.9-9.3-7.9s-9.2,1.1-9.2,7.9,2.3,7.6,9.2,7.6c1,0,5.3.2,6.4-2.2h.1v4.2c0,5.2-1.2,5.4-6.4,5.4s-6.7-.3-6.7-3.1v-.9h-2.8v.8h-.1Z" transform="translate(-1.2 -36.8)" fill="#98002e"/><path d="M149.6,184.4h3c3.6,0,5.6,0,5.6,4.2s-.8,5.2-6.9,5.1-6-.2-6-4.1v-1.7h-2.8v1.7c-.1,5.8,3.1,6.6,8.9,6.6s9.7.3,9.7-7.3c0-3.7-.8-5.4-4.6-5.7h0c3.7-.3,4.1-2.6,4.1-5.8,0-6.5-3.6-6.5-9-6.5s-8.8.4-8.8,6.8v1.1h2.8v-1.1c.1-3.9.8-4.3,5.6-4.3s6.5.4,6.5,4.5-1.5,4.1-5.1,4.1h-3v2.5" transform="translate(-1.2 -36.8)" fill="#98002e"/><path d="M175.2,183c5.3,0,5.8.6,5.8,5.3s-.2,5.3-6.4,5.3-6.4-.9-6.4-6.3,1.5-4.3,7-4.3m-9.9,4.3c0,7.8,2.3,8.8,9.3,8.8s9.3-1.1,9.3-7.8-2.3-7.8-9.3-7.8c-3.8,0-5.7.7-6.4,2.3h-.1v-5.4c.1-4.2,2-4.2,6.6-4.2s5.7,0,5.7,3.3v.7h2.8v-.8c0-5.8-4.5-5.7-8.6-5.7-5.8,0-9.3.7-9.4,6.7v9.9h.1Z" transform="translate(-1.2 -36.8)" fill="#98002e"/></svg>