<svg xmlns="http://www.w3.org/2000/svg" viewBox="0 0 371.8 409.6"><title>sr</title><path d="M345.2,353.1c.5,4.4.7,5.8,1,10.2a6.3,6.3,0,0,1-1.9,5.1,22.7,22.7,0,0,1-3.9,3.2c-1.4,1-2.3,1.1-2.3,1.9s1.7.6,2.3.8a14.1,14.1,0,0,1,5.9,2.5,3.3,3.3,0,0,1,1.3,2.2q2.9,19.9,5.9,39.8c.2,1.4-.1,1.5-1.1,1.6-4.5.2-9.3,0-14.1.7-6.4.9-12.9,1.9-19.4,4.3l-.9.2c-.8.2-1.2,0-1.2-1s-.3-4.1-.3-6.2c-.1-4.6-.6-9.2-.8-13.8,0-.5-.9-.8-2.7-.6a81.9,81.9,0,0,0-19.8,4.6c-1.6.5-2.9,1.1-2.8,2.7.3,6,.7,17.8.7,18.4s-1.2,2.2-2.4,3.3a282,282,0,0,0-23.9,19.8c-4.2,4-5.1,1.5-5.1-3.3,0-24.2.4-53.9.4-78.1a2.3,2.3,0,0,1,2.5-2.6c28.6-1.8,44.5-8.1,70.3-20.3C336.5,346.9,344.7,349.1,345.2,353.1ZM310.1,372l-18.9,5.4c-1.3.3-2.5.6-2.4,2l.2,3.4.2,3.3c0,.7.3,1,1,.8l.9-.2,14.4-3.5,5.8-1.4c1.4-.3,3.6-1.2,3.8-5.2S316.5,370.4,310.1,372Z" transform="translate(-65.3 -45.3)" fill="#f73f36" fill-rule="evenodd"/><path d="M243.2,384l-10-1.7c-9.7-1.7-18.6-4.2-28.9-6.4-3.8-.6-6.5-1.6-10.3-2.3-1.5-.3-2.3.5-2.4,1.3-.5,2.7-1.1,4.2-1.2,6.3a1.8,1.8,0,0,0,1.8,1.9l5.1,1.2,44.9,9a2.5,2.5,0,0,1,2.3,2.5c0,16.1-.4,39.7-.4,55.8,0,2.5-.8,4.7-4.4,1.6-11.7-10.9-18.9-14.8-31.2-19.6s-19.3-6.8-32.4-9.8c-8-1.3-13.9-2.2-21.9-3.1-2.4-.3-3.5-.8-3-3.9,1.2-6.5,1.7-9.5,2.9-15.9.4-2,2.2-2.2,4.7-1.8l19.3,4.5,31.3,7.3c2.4.5,2.2-4.1,2.2-6.3s-1-1.1-1.6-1.3l-13-3.2-38.3-9.5c-2-.5-2.7-1.4-2.5-3.6l3.5-28.9c.6-5.1,1.2-7.7,1.6-12.9.1-1.7,1.9-2.5,4.2-1.2,11.5,6.8,20.4,11.4,33.2,15.8a170,170,0,0,0,34.9,8l8.7.8c.7.1,2.2.9,2.1,1.7,0,4.5,0,7.3,0,11.8C244.4,382.6,244.2,384.1,243.2,384Z" transform="translate(-65.3 -45.3)" fill="#f73f36" fill-rule="evenodd"/><path d="M360.2,413.1c-1.6-11.3-5.5-39.8-7.1-50.9-1.1-7.6-1.7-12.2-2.8-19.8-.8-3.8-.6-4.5,2.4-6.6a112.3,112.3,0,0,0,17.1-17.3c5.9-7.2,11-15,14.3-23.9a46.8,46.8,0,0,0,3.1-15.2,37.2,37.2,0,0,0-6.1-21.5l-16-24.7L311.8,150,265.2,77.1l-3-4.7c-2.4-4.1-3-13.1,1.3-16.7l11.6-9.4c2-1.4,3.4-1.5,5.3,1.2l10,15.2,69.8,106q34.1,51.8,68.1,103.7a56.3,56.3,0,0,1,8.5,21.8,31.8,31.8,0,0,1-2.6,18.3c-2.6,5.9-45,73.1-62.9,99.5C366.4,419.3,361.7,421.5,360.2,413.1Z" transform="translate(-65.3 -45.3)" fill="#f73f36" fill-rule="evenodd"/><path d="M142.3,413.1c1.6-11.3,5.5-39.8,7.1-50.9,1.1-7.6,1.7-12.2,2.8-19.8.8-3.8.6-4.5-2.4-6.6a112.3,112.3,0,0,1-17.1-17.3c-5.9-7.2-11-15-14.3-23.9a46.8,46.8,0,0,1-3.1-15.2,37.2,37.2,0,0,1,6.1-21.5l16-24.7L190.7,150l46.6-72.9,3-4.7c2.4-4.1,3-13.1-1.3-16.7l-11.6-9.4c-2-1.4-3.4-1.5-5.3,1.2l-10,15.2-69.8,106q-34.1,51.8-68.1,103.7a56.2,56.2,0,0,0-8.5,21.8,31.8,31.8,0,0,0,2.6,18.3c2.6,5.9,45,73.1,62.9,99.5C136.1,419.3,140.9,421.5,142.3,413.1Z" transform="translate(-65.3 -45.3)" fill="#f73f36" fill-rule="evenodd"/><path d="M310.7,293.9" transform="translate(-65.3 -45.3)" fill="#265bc7" fill-rule="evenodd"/><path d="M349.9,251.2c0-.6.1-1.1-.7-.9H268.5c-.1-.3.2-.6.3-.8l33.9-58.7c2-3.4,4-6.7,5.8-10.2.5-.8.1-1-.4-1.3l-8.9-5.2a50.5,50.5,0,0,0-5.5-3.1h-.1l-.6-.3c-.3-.2-.3-.1-.6.3a4.8,4.8,0,0,0-.7,1L258,230.2l-5.9,10.4c-.3,0-.5-.1-.7-.4l-32.5-56.4-7.5-12.8c-.5-1-1.1-.3-1.6,0l-11.1,6.4a21.9,21.9,0,0,0-3.7,2.3h0c-.3.2-.1.3,0,.5v.3l.5,1.1,35,60.6c1.5,2.6,2.9,5.3,4.6,7.8-.7.5-1.5.3-2.3.3H154.4c-.6-.1-.7.3-.7.8q0,8.4.1,16.9v.7c-.1.8.4.7.9.6H233c.8,0,1.6-.2,2.3.3l-.9,1.4L201,328.9c-2,3.5-4.2,6.9-6,10.6-.3.5-.1.5.2.7l2.2,1.3c4.3,2.5,8.6,5.1,13,7.4.4.2.6.4.7.1l1-1.5,35.2-60.9c1.4-2.5,3-4.8,4.1-7.4a.5.5,0,0,1,.8.1l.7,1.2,33.3,57.6c2,3.5,3.9,7.1,6.1,10.5.5.9.8.4,1.2.2l8.6-4.9a61.6,61.6,0,0,0,6-3.6.7.7,0,0,0,.3-1.1l-.3-.7-33.9-58.8c-2-3.4-4.1-6.7-5.8-10.2h80.6c.4.1.7,0,.8-.5s0-1,0-1.4Q349.9,259.3,349.9,251.2Zm-194,15.3h0Z" transform="translate(-65.3 -45.3)" fill="#255bc6"/><path d="M216.7,294.1l9.4-15.7,2.5-4.2c.1-.3.1-.4,0-.5h-.4l-22.8-.2a2,2,0,0,0-1.9,1.3L194.4,290c-.9,1.4-1.9,2.9-2.6,4.4s-.6.7-.1.7h23.1A2,2,0,0,0,216.7,294.1Z" transform="translate(-65.3 -45.3)" fill="#255bc6"/><path d="M191.4,225.1v.2h0l11,19.5a1.7,1.7,0,0,0,1.7.9l22.6.3c.5,0,.7.1,1.1-.2v-.2h0v-.3l-.5-.9-10.5-18.6a2,2,0,0,0-2-1.2H191.2a.3.3,0,0,0,0,.2Z" transform="translate(-65.3 -45.3)" fill="#255bc6"/><path d="M250.6,231.1a5.2,5.2,0,0,0,.7,1.1c.2.2.4,0,.5-.3l.5-.7,11.1-18.9a2.3,2.3,0,0,0,0-2.6l-5.8-10.3c-1.8-3.2-3.5-6.5-5.5-9.6-.5-.6-.7.2-.9.4-3.7,6.4-7.4,12.7-11.2,19.1a2.5,2.5,0,0,0,0,3Z" transform="translate(-65.3 -45.3)" fill="#255bc6"/><path d="M287.3,225.4l-8.9,14.8a38.9,38.9,0,0,0-2.8,5c-.2.3-.2.5.2.5h1.1l21.6.2a2.5,2.5,0,0,0,2.6-1.4c2.8-4.8,5.6-9.4,8.4-14.2l2.8-4.7c.2-.4.7-.8,0-1.2l-.7-.2-22.5-.2A1.7,1.7,0,0,0,287.3,225.4Z" transform="translate(-65.3 -45.3)" fill="#255bc6"/><path d="M256.1,293.2a42.9,42.9,0,0,0-3.2-5.5c-.8-.5-1.1.4-1.4.9l-11,18.7a2,2,0,0,0,0,2.3l5.6,10.1,5.6,9.9c.2.3.3.5.5.3a6.1,6.1,0,0,0,.8-1.2l11.1-18.9a1.9,1.9,0,0,0,0-2.3Z" transform="translate(-65.3 -45.3)" fill="#255bc6"/><path d="M299.5,273.3h-5.1c-6.1-.2-12.2-.3-18.3-.2h.1c-.6.3-.1.9.1,1.2l10.9,19.2a2.3,2.3,0,0,0,2.3,1.3c6.2.1,12.4,0,18.6.3h4.8l-12-21.1A1.5,1.5,0,0,0,299.5,273.3Zm12.6,20.9h0Z" transform="translate(-65.3 -45.3)" fill="#255bc6"/><path d="M236.3,268.2l11.1-6.5a7.6,7.6,0,0,0,2.4-1.8c-.7-.6-1.4-.4-2-.4H163.5a3.5,3.5,0,0,0-3.1,1.5l-3.1,4.3c-.4.6-2.5,2.9-2.6,4h79.7l.8.3A2.1,2.1,0,0,1,236.3,268.2Z" transform="translate(-65.3 -45.3)" fill="#316fec"/><path d="M267.6,251.1l-11.5,6.8a10.4,10.4,0,0,0-2.4,1.7,4.6,4.6,0,0,0,2.3.3h84a3.7,3.7,0,0,0,3.6-1.8c1.8-2.7,3.7-5.3,5.6-7.9H268.5C268.5,250.7,268,250.8,267.6,251.1Z" transform="translate(-65.3 -45.3)" fill="#306eec"/><path d="M251.4,267.3c0-1.9.1-3.9-.1-6a5.5,5.5,0,0,0-1.6,2.1l-6.3,11-6,10.5-6.1,10.7-8.6,14.9-7.6,13.4c-2.4,4.1-4.8,8.2-7.2,12.3a3.4,3.4,0,0,0-.1,4,14.8,14.8,0,0,1,1.4,3.1c.7,1.9,1.9,3.7,2.2,5.7l1-1.5,35.2-60.9c1.4-2.5,3-4.8,4.1-7.4s0-4,0-6S251.4,269.3,251.4,267.3Z" transform="translate(-65.3 -45.3)" fill="#2f6eed"/><path d="M250.5,257.9c.2-.1-.1-.1.2-.1l-3.6-6.3-7.3-12.7-6.2-10.7-6.1-10.7-6.2-10.8-7.1-12.2-6.9-12.1a1.9,1.9,0,0,0-1.2-.9,25.1,25.1,0,0,0-3.4-.4,47.5,47.5,0,0,0-7.4-.7l.5,1.1,35,60.6c1.5,2.6,2.9,5.3,4.6,7.8,4.7,2.4,9.3,5.1,13.9,7.7l1,.4Z" transform="translate(-65.3 -45.3)" fill="#2f6eed"/><path d="M266.8,268.8l-9.4-5.4-4.1-2.2a1,1,0,0,0,.2,1.2l3.4,6,7.2,12.4,6.3,11,6.1,10.5,6.1,10.7,7.2,12.3,6.7,11.6a2.1,2.1,0,0,0,1.8,1.2l3.2.4a35.5,35.5,0,0,0,7,.7l-.3-.6-33.9-58.8c-2-3.4-4.1-6.7-5.8-10.2h0A2.9,2.9,0,0,1,266.8,268.8Z" transform="translate(-65.3 -45.3)" fill="#2f6eed"/><path d="M252.5,252.1c-.1,1.5,0,3,0,4.5s-.2.8.3,1.2a9.3,9.3,0,0,0,1.4-2.3l8.7-14.8,8.7-15.2,7.6-13.1,8.7-15.2,8.5-14.5a2.5,2.5,0,0,0,.2-2.4l-4.2-9.4h0a4.8,4.8,0,0,0-.7,1L258,230.2l-5.9,10.4C252,244.4,252.7,248.2,252.5,252.1Z" transform="translate(-65.3 -45.3)" fill="#2f6eed"/><path d="M214.4,295.1a2,2,0,0,0,2-1.1l9.4-15.7,2.5-4.2c.3-.5,0-.6-.5-.4s-.6.7-1,.9l-19.5,11-10.8,5.9-3.8,2.2-.8.4v.2c-.2.3-.4.6-.3.7h22.9Z" transform="translate(-65.3 -45.3)" fill="#316fed"/><path d="M191.4,225.1v.2h0l11,19.5a1.6,1.6,0,0,0,1.2.9h.3l22.6.3c.5,0,.7.1,1.1-.2a1.6,1.6,0,0,0-.6-.9c-.4.5-.7.2-1.1,0l-8.5-5.1-14-8.2-10.7-6.3c-.5-.3-1-.8-1.7-.7h0Z" transform="translate(-65.3 -45.3)" fill="#306eed"/><path d="M251.3,190.2c-3.7,6.4-7.4,12.7-11.2,19.1a2.5,2.5,0,0,0,0,3l10.5,18.8a5.2,5.2,0,0,0,.7,1.1h.1c.1,0,.3-.2.4-.3s-.3-1.1-.3-1.7c0-4-.2-8,0-11.9.6-9,.1-18.1.3-27.1,0-.5-.1-1,.3-1.4l-.3-.2C251.5,189.6,251.4,190,251.3,190.2Z" transform="translate(-65.3 -45.3)" fill="#306eed"/><path d="M311.4,224.5l-22.5-.2a1.7,1.7,0,0,0-1.7,1.1l-8.9,14.8a38.9,38.9,0,0,0-2.8,5,3.8,3.8,0,0,0,2.1-.8l8.6-4.9,20.8-11.9a32,32,0,0,0,4.9-3h0Z" transform="translate(-65.3 -45.3)" fill="#316fed"/><path d="M263.9,309.8a1.9,1.9,0,0,0,0-2.3l-8.1-14.4a42.9,42.9,0,0,0-3.2-5.5,95.5,95.5,0,0,0-.4,10.1c.2,10.2-.6,20.3-.4,30.4a1.9,1.9,0,0,1-.2,1.1v.2l.2.3a6.2,6.2,0,0,0,.8-1.2Z" transform="translate(-65.3 -45.3)" fill="#306eed"/><path d="M312.4,294.2h0L301,274.1a1.5,1.5,0,0,0-1.5-.8h-5.1c-6.1-.2-12.2-.3-18.2-.2,5.2,3.2,10.5,6.3,15.7,9.5l18.8,11.4c.5.3.8.6,1.4.3h0c0,.2.7,1,.9.9l-.5-.9Z" transform="translate(-65.3 -45.3)" fill="#316fed"/><path d="M293.6,348.8l8.6-4.9a61.6,61.6,0,0,0,6-3.6c-.2-.1-.4-.4-.6-.4-3.2-.2-6.3-.7-9.5-1.1a1,1,0,0,0-1.2.8c-.7,1.9-1.7,3.6-2.5,5.4a10,10,0,0,1-2,3.6C292.9,349.5,293.2,349,293.6,348.8Z" transform="translate(-65.3 -45.3)" fill="#316fed"/><path d="M195.2,340.1l2.2,1.3c4.3,2.5,8.6,5.1,13,7.4a1.8,1.8,0,0,0-.1-.5l-3.8-8.8a1.1,1.1,0,0,0-1.1-.8c-1.1,0-2.3,0-3.4.1a66.9,66.9,0,0,1-7,.6h0C194.8,339.9,195,340,195.2,340.1Z" transform="translate(-65.3 -45.3)" fill="#316fed"/><path d="M207.3,178.9l3.4-7.4c.2-.4.3-.6.7-.7s-1.1-.2-1.6,0l-11.1,6.4a22.8,22.8,0,0,0-3.6,2.2c3.2-.1,6.3.7,9.5.8S206.5,180.6,207.3,178.9Z" transform="translate(-65.3 -45.3)" fill="#316fed"/><path d="M293.7,171.9l3.3,7.8a1.5,1.5,0,0,0,1.7,1l7-.6c.9-.1,1.9-.4,2.8.3v-.3c.2-.6-.1-.7-.6-1l-8.9-5.2a50.5,50.5,0,0,0-5.5-3.1h-.1C293.3,170.9,293.6,171.6,293.7,171.9Z" transform="translate(-65.3 -45.3)" fill="#316fed"/><path d="M349.9,267.3q0-8.1-.1-16.1s0,0,0,0l-.5.4-5.6,7.4a1.4,1.4,0,0,0,.1,1.8l4.2,6c.5.7,1.3,1.3,1.2,2.3s.6,0,.7-.2v-.3C349.9,268.3,349.9,267.8,349.9,267.3Z" transform="translate(-65.3 -45.3)" fill="#3c74e5"/><path d="M153.9,267.9v.7c.5-.2,4.1-5.2,5.1-6.7s1.7-2.5,0-5a52.3,52.3,0,0,1-4.5-6.6h0c-.4-.1-.5.1-.6.3a1.8,1.8,0,0,0,0,.5Q153.8,259.4,153.9,267.9Z" transform="translate(-65.3 -45.3)" fill="#316fec"/></svg>