<svg xmlns="http://www.w3.org/2000/svg" viewBox="0 0 565.3 478.2"><title>tindastoll</title><path d="M297.1,656.4,577.7,182.6l-560,1.1Z" transform="translate(-14.8 -181.4)" fill="#2e3192"/><path d="M69.3,214.9,297.5,593,522.1,214.9Zm26.9,14.5H496.7l-200,332Z" transform="translate(-14.8 -181.4)"/><polygon points="281.7 55.5 193.2 218.9 369.7 218.9 281.7 55.5" fill="#ed1c24"/><polygon points="146.3 86.6 181.2 144.1 205.7 114 268.8 114 268.8 261 250.9 261 282.1 312.1 312.7 261 294.3 261 294.3 114 359.5 114 383.6 144.1 416.5 86.6 146.3 86.6" fill="none"/><path d="M159.8,267.1l36.1,59.7L221,296h62V441.7H264.5L297,494.9l31.8-53.2H309.8V296.1h64.1l24.6,30.8,34.2-59.7Z" transform="translate(-14.8 -181.4)" fill="#fff"/><rect x="268.1" y="114.7" height="104.19" fill="#ed1c24"/><path d="M14.8,181.4,297,659.6,580.2,181.4ZM574.3,185,297,653.2,20.6,185Z" transform="translate(-14.8 -181.4)"/><path d="M297.4,586.6,516.4,218.1H75Zm-.7-18.9L90.4,226.1H502.6Z" transform="translate(-14.8 -181.4)" fill="#fff"/></svg>