<svg xmlns="http://www.w3.org/2000/svg" xmlns:xlink="http://www.w3.org/1999/xlink" viewBox="0 0 450.2 382.4"><defs><clipPath id="a" transform="translate(-25.6 -58.8)"><polygon points="319.1 74.7 319.1 95.4 360.5 95.4 262.2 356.6 162.3 95.4 188.1 95.4 188.1 74.7 72.6 74.7 72.6 95.4 105 95.4 236.3 425.3 262.2 425.3 394.6 95.4 434.6 95.4 434.6 74.7 319.1 74.7" fill="#27395f"/></clipPath></defs><title>vestri</title><path d="M161.4,275.8,172.9,308s-49.7,0-101.6-13.2C71.3,294.7,125.4,280.5,161.4,275.8Z" transform="translate(-25.6 -58.8)" fill="#bd2238"/><path d="M183.5,320.9c-78.2,0-133.5-17.9-135.7-18.7l-.9-1.8-11-21.5,17.3,4.5c65.4-18.6,110.4-24.9,113.4-25.3l8-1.3L199,320.9Z" transform="translate(-25.6 -58.8)" fill="#313d64"/><path d="M191.7,315.9h-8.2c-77.4,0-130.9-18.8-133.2-19.6L45,287l8.5,1.6c67.4-19.3,113.4-25.4,113.9-25.4l4-.7Z" transform="translate(-25.6 -58.8)" fill="#fff"/><path d="M313.8,315.7l-7.8.2,22.2-53.8,6.9,1.1c.5.1,45.3,6,112.7,25.2l8.5-1.6-5.3,9.5C448.7,297.2,391.2,315.7,313.8,315.7Zm22.3-45.4L322.9,304a502.7,502.7,0,0,0,104.3-13.2C382.3,279,347.4,271.9,336.1,270.3Z" transform="translate(-25.6 -58.8)" fill="#fff"/><path d="M94.2,111.3H56.7V58.8H204v52.5H185.4l29.8,78-7.6-.4h-1.2a58.7,58.7,0,0,0-6.7.5l-2.7.3-3.8.4L155.1,90.4h28V79.7H77.6V90.4h30.8l41.1,103.2-6.1,1a61,61,0,0,0-9.5,2.7l-4.7,1.6Z" transform="translate(-25.6 -58.8)" fill="#313d64"/><path d="M72.6,95.4V74.7H188.1V95.4H162.3l34.2,89.4c3.9-.4,7.5-1,11.4-.8l-29.7-77.7H199V63.8H61.7v42.5H97.6L132,192.7a66.6,66.6,0,0,1,10.6-3L105,95.4Z" transform="translate(-25.6 -58.8)" fill="#fff"/><path d="M216.7,251.7l6.7-.5,2.5-.2c2.8-.2,5.7-.5,8.6-.5h4.1l23.4,61.3,22.6-60.2,3.8.4,4,.5c2.4.3,4.6.6,6.8.7l7,.2L262.3,370.7Z" transform="translate(-25.6 -58.8)" fill="#27395f"/><path d="M288.1,257l-25.9,68.9-26.9-70.4c-3.8,0-7.6.4-11.4.6l38.4,100.5,37.1-98.4C295.5,258.1,291.8,257.4,288.1,257Z" transform="translate(-25.6 -58.8)" fill="#fff"/><path d="M365.5,196.9a26.8,26.8,0,0,0-6-1.3l-4.3-.7-5.8-1.3L391.2,90.4h38.4V79.7H324.1V90.4h43.6L329.6,191.7l-3.9-.5-3.9-.3a47,47,0,0,1-7.8-1l-5.5-1.3,29.1-77.2H303.2V58.8H450.5v52.5H405.3l-35.1,87.5Z" transform="translate(-25.6 -58.8)" fill="#313d64"/><path d="M308.2,63.8v42.5h36.5L315.2,185c3.6.9,7.5.8,11.2,1.2l34.2-90.8H319.1V74.7H434.6V95.4h-40L356.3,190c3.6.8,7.8.9,11.1,2.3l34.5-86h43.6V63.8Z" transform="translate(-25.6 -58.8)" fill="#fff"/><path d="M225.5,441.2,153.4,260l6.7-.5a43.6,43.6,0,0,0,9.8-1.8l4.4-1.4,65.3,164h19.2l65.7-163.8,5.4,1c3.2.6,6.2,1.1,9.2,1.4l6.7.6L272.9,441.2Z" transform="translate(-25.6 -58.8)" fill="#313d64"/><path d="M327.7,262.2,262.2,425.3H236.2L171.4,262.4a48.5,48.5,0,0,1-10.9,2l68.3,171.8h40.7l69.2-172.3C335,263.5,331.3,262.8,327.7,262.2Z" transform="translate(-25.6 -58.8)" fill="#fff"/><polygon points="293.5 15.9 293.5 36.6 334.9 36.6 236.6 297.8 136.7 36.6 162.5 36.6 162.5 15.9 47 15.9 47 36.6 79.4 36.6 210.7 366.5 236.6 366.5 369 36.6 409 36.6 409 15.9 293.5 15.9" fill="#27395f"/><g clip-path="url(#a)"><path d="M193,259.8c.4,1.1-4.7,4.1-11.4,6.6s-12.5,3.7-12.9,2.6,4.7-4.1,11.4-6.6,12.5-3.7,12.9-2.6" transform="translate(-25.6 -58.8)" fill="#deb254"/><path d="M196.7,269.5c.4,1.1-4.7,4.1-11.4,6.6s-12.5,3.7-12.9,2.6,4.7-4.1,11.4-6.6,12.5-3.7,12.9-2.6" transform="translate(-25.6 -58.8)" fill="#fff"/><path d="M204.1,289c.4,1.1-4.7,4.1-11.4,6.6s-12.5,3.7-12.9,2.6,4.7-4.1,11.4-6.6,12.5-3.7,12.9-2.6" transform="translate(-25.6 -58.8)" fill="#fff"/><path d="M211.4,308.4c.4,1.1-4.7,4.1-11.4,6.6s-12.5,3.7-12.9,2.6,4.7-4.1,11.4-6.6,12.5-3.7,12.9-2.6" transform="translate(-25.6 -58.8)" fill="#fff"/><path d="M218.8,327.8c.4,1.1-4.7,4.1-11.4,6.6s-12.5,3.7-12.9,2.6,4.7-4.1,11.4-6.6,12.5-3.7,12.9-2.6" transform="translate(-25.6 -58.8)" fill="#fff"/><path d="M226.1,347.3c.4,1.1-4.7,4.1-11.4,6.6s-12.5,3.7-12.9,2.6,4.7-4.1,11.4-6.6,12.5-3.7,12.9-2.6" transform="translate(-25.6 -58.8)" fill="#fff"/><path d="M233.5,366.7c.4,1.1-4.7,4.1-11.4,6.6s-12.5,3.7-12.9,2.6,4.7-4.1,11.4-6.6,12.5-3.7,12.9-2.6" transform="translate(-25.6 -58.8)" fill="#fff"/><path d="M240.9,386.1c.4,1.1-4.7,4.1-11.4,6.6s-12.5,3.7-12.9,2.6,4.7-4.1,11.4-6.6,12.5-3.7,12.9-2.6" transform="translate(-25.6 -58.8)" fill="#fff"/><path d="M248.2,405.6c.4,1.1-4.7,4.1-11.4,6.6s-12.5,3.7-12.9,2.6,4.7-4.1,11.4-6.6,12.5-3.7,12.9-2.6" transform="translate(-25.6 -58.8)" fill="#fff"/><path d="M133.6,102.9c.4,1.1-4.7,4.1-11.4,6.6s-12.5,3.7-12.9,2.6,4.7-4.1,11.4-6.6,12.5-3.7,12.9-2.6" transform="translate(-25.6 -58.8)" fill="#fff"/><path d="M141,122.4c.4,1.1-4.7,4.1-11.4,6.6s-12.5,3.7-12.9,2.6,4.7-4.1,11.4-6.6,12.5-3.7,12.9-2.6" transform="translate(-25.6 -58.8)" fill="#fff"/><path d="M148.3,141.8c.4,1.1-4.7,4.1-11.4,6.6s-12.5,3.7-12.9,2.6,4.7-4.1,11.4-6.6,12.5-3.7,12.9-2.6" transform="translate(-25.6 -58.8)" fill="#fff"/><path d="M155.7,161.2c.4,1.1-4.7,4.1-11.4,6.6s-12.5,3.7-12.9,2.6,4.7-4.1,11.4-6.6,12.5-3.7,12.9-2.6" transform="translate(-25.6 -58.8)" fill="#fff"/></g><path d="M444.8,299.9c-28.1-7.7-124.8-32.8-188.6-32.8H245.1c-16.1,0-77.4,2.4-188.6,32.8l-8.8,2.4-4.5-7.9A157.9,157.9,0,0,1,32.8,271c-6.6-18.6-8.7-35.2-6.2-49.4l.9-4.9,4.1-2.8c.7-.4,16.7-11.3,52.2-21.9,31.8-9.5,86.6-20.9,166.9-20.9S385.8,182.5,417.6,192c35.4,10.6,51.6,21.5,52.2,21.9l4.1,2.8.9,4.9c2.5,14.2.4,30.8-6.2,49.4a158.3,158.3,0,0,1-10.4,23.4l-4.5,7.9ZM256.2,250.3c9.2,0,29.4.7,61.4,5.2,38.2,5.4,81.1,14.5,127.8,27.1,4.5-9,16-34.3,13.2-56-4.9-2.9-19.8-10.9-46.5-18.8-30.7-9.1-83.5-19.9-161.4-19.9s-131.3,11-162.1,20.1c-26.4,7.9-41,15.8-45.8,18.6-2.7,21.6,8.7,47,13.2,56,46.6-12.6,89.6-21.7,127.8-27.1,31.9-4.5,52.2-5.2,61.4-5.2h11.1Z" transform="translate(-25.6 -58.8)" fill="#313d64"/><path d="M447.9,288.5C313,251.6,250.7,255.4,250.7,255.4s-62.4-3.8-197.2,33.1c0,0-20.4-35.6-15.3-64.9,0,0,59.8-40.7,212.5-40.7s212.5,40.7,212.5,40.7C468.3,252.9,447.9,288.5,447.9,288.5Zm21.9-66.1-.5-2.8L467,218c-.6-.4-16.2-10.9-50.9-21.2-31.5-9.4-85.8-20.6-165.5-20.6s-134,11.2-165.5,20.6C50.6,207.1,35,217.6,34.4,218L32,219.6l-.5,2.8c-2.3,13.3-.3,29.1,6,46.8a152.4,152.4,0,0,0,10,22.6l2.6,4.6,5.1-1.4c111.8-30.6,173.6-33,189.9-33h11.1c64.4,0,161.6,25.2,189.9,33l5.1,1.4,2.6-4.6a152.7,152.7,0,0,0,10-22.6C470.2,251.5,472.2,235.8,469.9,222.5Z" transform="translate(-25.6 -58.8)" fill="#fff"/><path d="M38.2,223.6s57.7-42.2,223.3-40.7c0,0,129.2-1.3,201.7,40.7,0,0,6,23.7-15.3,64.9,0,0-112.4-31.3-186.4-32.9,0,0-87.1-2.5-208.1,32.9C53.5,288.5,33.2,255.6,38.2,223.6Z" transform="translate(-25.6 -58.8)" fill="#be132d"/><path d="M125.8,204.2l13.2-2.3,5.5,33.8a20.3,20.3,0,0,1-3.8,15.6,21.2,21.2,0,0,1-13.6,8.8l-15.7,3.3-12-53.8,13.2-2.8,9.8,48.1,6.1-1.2a6.1,6.1,0,0,0,4.1-2.6,5.9,5.9,0,0,0,1-4.6l-7.7-42.2" transform="translate(-25.6 -58.8)" fill="#fff"/><path d="M167.5,253.5l-7.1-54.7q16.7-2.2,33.4-3.5l.5,6.1-19.9,1.9,2,18.3,12.9-1.3.6,6.2-12.8,1.3,2,18.3,18.6-1.8.5,6.1q-15.4,1.3-30.7,3.3" transform="translate(-25.6 -58.8)" fill="#fff"/><path d="M248.7,205.3h-6.6c-.6-4.1-2.8-6.1-6.4-6.1a7.7,7.7,0,0,0-5.2,1.7,5.8,5.8,0,0,0-1.6,4.7,6.4,6.4,0,0,0,2,4.3q7.1,7.1,14,14.3a12.5,12.5,0,0,1,3.8,8.7c0,1,0,2,0,3a11.9,11.9,0,0,1-3.6,8.7,12.1,12.1,0,0,1-8.7,3.8l-6.1.2c-4.1.1-7.2-.8-9.4-2.7s-3.4-5-3.6-9.1l6.3-.3v1a4.4,4.4,0,0,0,2.1,3.7,7.5,7.5,0,0,0,4.3,1.2c2.2-.1,3.8-.6,4.7-1.7a6.6,6.6,0,0,0,1.4-4.6,6.2,6.2,0,0,0-1.9-4.3q-6.9-7.1-14.1-14.1a12.4,12.4,0,0,1-4.2-8.5v-3a11.3,11.3,0,0,1,3.5-8.8,13.2,13.2,0,0,1,9.3-4l6.7-.2c8.4-.2,12.9,4,13.4,12.1" transform="translate(-25.6 -58.8)" fill="#fff"/><path d="M274.6,248.7l2-49-13.3-.4v-6.1q20.1.4,40.2,2l-.5,6.1-13.3-.9-2.9,49-12.3-.6" transform="translate(-25.6 -58.8)" fill="#fff"/><path d="M312.7,251.4l5.5-54.9q13.4,1.3,26.7,3.2a13.1,13.1,0,0,1,8.8,5,11.3,11.3,0,0,1,2.5,9.1l-.5,3.3a12.7,12.7,0,0,1-4.2,7.3c-2.3,2.2-5.8,2.9-10.4,2.3l6.4.9a6.3,6.3,0,0,1,4.2,2.5,5.8,5.8,0,0,1,1.2,4.6l-3.4,21.4-12.2-1.8,2.6-18.2a5.7,5.7,0,0,0-1.3-4.5,6.3,6.3,0,0,0-4.3-2.4l-6.3-.8L325,252.7l-12.3-1.4m16-29.1,6.4.8a6.6,6.6,0,0,0,4.8-1.2,5.7,5.7,0,0,0,2.5-4l.8-6a5.7,5.7,0,0,0-1.3-4.6,6.7,6.7,0,0,0-4.5-2.4l-6.6-.8-2.2,18.3" transform="translate(-25.6 -58.8)" fill="#fff"/><path d="M375.2,260.8l11-54.1,13.1,2.8-12,53.8-12.1-2.6" transform="translate(-25.6 -58.8)" fill="#fff"/><path d="M55.2,236.8c.4,1.6,5.3,1.7,10.7.3l17.9-4.8c5.5-1.5,9.6-3.9,9.2-5.5s-5.3-1.7-10.7-.3l-17.9,4.8c-5.5,1.5-9.6,3.9-9.2,5.5" transform="translate(-25.6 -58.8)" fill="#fff"/><path d="M47.9,254.3c.4,1.6,5.3,1.7,10.7.3l29.2-7.7c5.5-1.5,9.6-3.9,9.2-5.5s-5.3-1.7-10.7-.3l-29.2,7.7c-5.5,1.5-9.6,3.9-9.2,5.5" transform="translate(-25.6 -58.8)" fill="#fff"/><path d="M63,265.9c.4,1.6,5.3,1.7,10.7.3l17.9-4.8c5.5-1.5,9.6-3.9,9.2-5.5s-5.3-1.7-10.7-.3l-17.9,4.8c-5.5,1.5-9.6,3.9-9.2,5.5" transform="translate(-25.6 -58.8)" fill="#fff"/><path d="M446.2,235.6c-.4,1.6-5.3,1.7-10.7.3l-17.9-4.8c-5.5-1.5-9.6-3.9-9.2-5.5s5.3-1.7,10.7-.3l17.9,4.8c5.5,1.5,9.6,3.9,9.2,5.5" transform="translate(-25.6 -58.8)" fill="#fff"/><path d="M453.5,253.1c-.4,1.6-5.3,1.7-10.7.3l-29.2-7.7c-5.5-1.5-9.6-3.9-9.2-5.5s5.3-1.7,10.7-.3l29.2,7.7c5.5,1.5,9.6,3.9,9.2,5.5" transform="translate(-25.6 -58.8)" fill="#fff"/><path d="M438.4,264.7c-.4,1.6-5.3,1.7-10.7.3l-17.9-4.8c-5.5-1.5-9.6-3.9-9.2-5.5s5.3-1.7,10.7-.3l17.9,4.8c5.5,1.5,9.6,3.9,9.2,5.5" transform="translate(-25.6 -58.8)" fill="#fff"/><path d="M331,319.6h-9.3l17.8-44.3,5.6.7c2.5.4,61.5,10.8,91.8,20.7l16.7,5.4-17,4.2c-2.2.5-54.8,13.3-103.6,13.3Z" transform="translate(-25.6 -58.8)" fill="#313d64"/><path d="M74.2,299.3c20.8,5.2,50,10.5,94.6,11.3l-12-29.7C145,282.7,119,287.5,74.2,299.3Z" transform="translate(-25.6 -58.8)" fill="#be132d"/><path d="M339.4,276.5l-15.1,37.8c52.4.1,93.5-9.1,118-15.2C389.6,285.2,353.3,279.5,339.4,276.5Z" transform="translate(-25.6 -58.8)" fill="#fff"/><path d="M341.8,280.9l-10.9,28.4c44.6-.8,78.1-4.9,98.9-10.2C384.6,288.5,353.6,282.7,341.8,280.9Z" transform="translate(-25.6 -58.8)" fill="#be132d"/></svg>