<svg xmlns="http://www.w3.org/2000/svg" viewBox="0 0 312.7 318"><title>volsungur</title><polygon points="312.7 0 0 0 156.4 318 312.7 0"/><path d="M458.5,198.4A68.6,68.6,0,0,0,345.2,193l-18.6-37.8H479.8Z" transform="translate(-243.6 -141)" fill="#33a44d"/><path d="M412.3,324.8l22.4-11-31.5,64.2L374,318.5l20.5,10.1-3.1-26.4a68.9,68.9,0,0,0,23.8-1.1L413,319.4Z" transform="translate(-243.6 -141)" fill="#33a44d"/><path d="M266.4,155.2h9.1l10.1,20.5,10.1-20.5h2.8l33.7,68.6a69.2,69.2,0,0,0-.8,10.4,68.3,68.3,0,0,0,7.4,31.1l-14.7,7.2Z" transform="translate(-243.6 -141)" fill="#33a44d"/><path d="M475.9,272.5l-14.7-7.2a68.3,68.3,0,0,0,7.4-30.1L487,197.7h13l7.2-14.6h-13l5.9-11.9h25.7Z" transform="translate(-243.6 -141)" fill="#33a44d"/><polygon points="43.8 14.2 33.7 14.2 38.8 24.5 43.8 14.2" fill="#fff"/><path d="M340.5,200.1l-22.1-44.9H300.3l32.4,65.9A68.1,68.1,0,0,1,340.5,200.1Z" transform="translate(-243.6 -141)" fill="#fff"/><path d="M481.6,155.2l-22.1,44.9a68.1,68.1,0,0,1,7.8,21l12.3-25h13l5.5-11.3h-13l7.5-15.2h33.8l7.1-14.3Z" transform="translate(-243.6 -141)" fill="#fff"/><path d="M416.8,300.7l-2.3,19.7,24.8-12.2-39.3,80-39.3-80,24.8,12.2-2.3-19.7a68.7,68.7,0,0,1-43.5-33.9L324.9,274,400,426.9,475.2,274l-14.8-7.3A68.7,68.7,0,0,1,416.8,300.7Z" transform="translate(-243.6 -141)" fill="#fff"/><path d="M462.3,234.2a62.3,62.3,0,0,0-60.5-62.3v2.5a1.8,1.8,0,0,1-3.5,0v-2.5a62.3,62.3,0,0,0,0,124.6V294a1.8,1.8,0,0,1,3.5,0v2.5A62.3,62.3,0,0,0,462.3,234.2ZM449.7,216l3.6-2.1a1.8,1.8,0,1,1,1.9,3l-3.8,2.2h0l-.8.2a1.8,1.8,0,0,1-.8-3.3Zm-.7,34a1.8,1.8,0,0,1,2.4-.7l3.8,2.2a1.8,1.8,0,0,1-.9,3.3l-.9-.3-3.6-2.1A1.8,1.8,0,0,1,448.9,250Zm-10.2-29.6,3.8-1.3a1.8,1.8,0,1,1,1.2,3.3l-4,1.3h-.5a1.8,1.8,0,0,1-.5-3.5Zm-2.6,4.3q.3,2.1.5,4.2a1.8,1.8,0,0,1-1.6,1.9h-.1a1.8,1.8,0,0,1-1.8-1.6q-.2-2-.5-4a1.8,1.8,0,0,1,3.5-.5Zm-3.3-7h-.5a1.8,1.8,0,0,1-1.7-1.3q-.6-2-1.4-4h0a1.8,1.8,0,1,1,3.3-1.3q.8,2.1,1.5,4.2A1.8,1.8,0,0,1,432.9,217.8Zm-5.4-31.5,4-2.3a1.8,1.8,0,1,1,1.9,3l-4.2,2.4-.8.2a1.8,1.8,0,0,1-.8-3.3ZM423,197.6a1.8,1.8,0,0,1,2.5.4q1.4,2,2.7,4.2a1.8,1.8,0,0,1-.6,2.4l-.9.2a1.8,1.8,0,0,1-1.5-.9q-1.2-2-2.5-4h0A1.8,1.8,0,0,1,423,197.6Zm-7.2-6.7,4-1.2a1.8,1.8,0,1,1,1.2,3.3l-4.2,1.3h-.5a1.8,1.8,0,0,1-.5-3.5Zm-17.6-9.7a1.8,1.8,0,0,1,3.5,0v5.5a1.8,1.8,0,1,1-3.5,0Zm0,13.1a1.8,1.8,0,1,1,3.5,0v5.5a1.8,1.8,0,0,1-3.5,0ZM377,197.6a1.8,1.8,0,0,1,.4,2.5q-1.3,1.9-2.5,4a1.8,1.8,0,0,1-1.5.9l-.9-.2a1.8,1.8,0,0,1-.6-2.4q1.3-2.2,2.7-4.2A1.8,1.8,0,0,1,377,197.6Zm-10.9-13a1.8,1.8,0,0,1,2.4-.6l4,2.3a1.8,1.8,0,0,1-.8,3.3l-.8-.2-4.2-2.4A1.8,1.8,0,0,1,366.1,184.5Zm-.2,31q.7-2.1,1.5-4.2a1.8,1.8,0,0,1,3.3,1.3q-.8,1.9-1.4,4a1.8,1.8,0,0,1-1.7,1.3h-.5A1.8,1.8,0,0,1,365.9,215.6Zm-2.1,9.2a1.8,1.8,0,0,1,3.5.5q-.3,2-.5,4a1.8,1.8,0,0,1-1.8,1.6H365a1.8,1.8,0,0,1-1.6-1.9Q363.5,226.8,363.8,224.8Zm-19.5-10.3a1.8,1.8,0,0,1,2.4-.6l3.6,2.1a1.8,1.8,0,0,1-.8,3.3l-.8-.2-3.8-2.2A1.8,1.8,0,0,1,344.3,214.5Zm6,37.9-3.6,2.1-.9.3a1.8,1.8,0,0,1-.9-3.3l3.8-2.2h0a1.8,1.8,0,1,1,1.7,3.1Zm10.9-4.5-3.8,1.3h-.6a1.8,1.8,0,0,1-.6-3.4l4-1.3a1.8,1.8,0,0,1,1,3.4Zm1.2-25.3a1.8,1.8,0,0,1-1.7,1.3h-.5l-4-1.3a1.8,1.8,0,0,1,1.2-3.3l3.8,1.3A1.8,1.8,0,0,1,362.5,222.6Zm3.1,22.5a1.8,1.8,0,0,1-1.8-1.5q-.3-2.1-.5-4.2a1.8,1.8,0,0,1,3.5-.3q.2,2,.5,4a1.8,1.8,0,0,1-1.5,2Zm1.5,5.5a1.8,1.8,0,0,1,2.2,1.2q.6,2,1.4,4h0a1.8,1.8,0,0,1-1,2.3H369a1.8,1.8,0,0,1-1.7-1.1q-.8-2.1-1.5-4.2A1.8,1.8,0,0,1,367.1,250.6Zm5.4,31.5-4,2.3-.9.3a1.8,1.8,0,0,1-.9-3.3l4.2-2.4h0a1.8,1.8,0,1,1,1.6,3.1Zm4.4-11.3a1.8,1.8,0,0,1-2.5-.4q-1.4-2-2.7-4.2a1.8,1.8,0,1,1,3.1-1.8q1.2,2,2.5,4h0A1.8,1.8,0,0,1,377,270.8Zm7.2,6.7-4,1.3h-.6a1.8,1.8,0,0,1-.6-3.4l4.2-1.3a1.8,1.8,0,0,1,.9,3.4Zm1.2-84.5a1.8,1.8,0,0,1-1.7,1.3h-.5l-4.2-1.3a1.8,1.8,0,0,1,1.2-3.3l4,1.3A1.8,1.8,0,0,1,385.4,193Zm4.4.9a1.8,1.8,0,0,1,2-1.5l4,.4a1.8,1.8,0,0,1-.1,3.5h-.1l-4.2-.4A1.8,1.8,0,0,1,389.8,193.9Zm6,81.6-4,.4h-.2a1.8,1.8,0,0,1-.2-3.5l4.2-.4a1.8,1.8,0,0,1,.3,3.5Zm6,11.7a1.8,1.8,0,0,1-3.5,0v-5.5a1.8,1.8,0,0,1,3.5,0Zm0-13.1a1.8,1.8,0,0,1-3.5,0v-5.5a1.8,1.8,0,1,1,3.5,0Zm0-14.8a1.8,1.8,0,0,1-3.5,0V253l-7.2-2.5a1.8,1.8,0,1,1,1.2-3.3l6.1,2.1v-5l-7.2-2.5a1.8,1.8,0,1,1,1.2-3.3l6.1,2.1v-5l-7.2-2.5a1.8,1.8,0,1,1,1.2-3.3l6.1,2.1v-5l-7.2-2.5a1.8,1.8,0,1,1,1.2-3.3l6.1,2.1v-5l-7.2-2.5a1.8,1.8,0,1,1,1.2-3.3l6.1,2.1v-5a1.8,1.8,0,0,1,3.5,0v6.3l7.2,2.5a1.8,1.8,0,0,1-.6,3.4h-.6l-6.1-2.1v5l7.2,2.5a1.8,1.8,0,0,1-.6,3.4h-.6l-6.1-2.1v5l7.2,2.5a1.8,1.8,0,0,1-.6,3.4h-.6l-6.1-2.1v5l7.2,2.5a1.8,1.8,0,0,1-.6,3.4h-.6l-6.1-2.1v5l7.2,2.5a1.8,1.8,0,0,1-.6,3.4h-.6l-6.1-2.1Zm8.4,15.2a1.8,1.8,0,0,1-1.8,1.5h-.2l-4-.4h0a1.8,1.8,0,1,1,.3-3.5l4.2.4A1.8,1.8,0,0,1,410.2,274.5Zm-1.5-78.5-4.2.4h-.1a1.8,1.8,0,0,1-.1-3.5l4-.4a1.8,1.8,0,1,1,.5,3.5Zm13.4,81.8a1.8,1.8,0,0,1-1.7,1.2h-.6l-4-1.2a1.8,1.8,0,0,1,.9-3.4l4.2,1.3A1.8,1.8,0,0,1,422.1,277.7Zm2-6.6a1.8,1.8,0,0,1-1.5-2.8q1.3-1.9,2.5-4a1.8,1.8,0,0,1,3.1,1.8q-1.3,2.2-2.7,4.2A1.8,1.8,0,0,1,424,271.2Zm9.8,12.7a1.8,1.8,0,0,1-1.5.8l-.9-.3-4-2.3a1.8,1.8,0,0,1,1.6-3.1l4.2,2.4A1.8,1.8,0,0,1,433.9,283.9Zm.2-31q-.7,2.1-1.5,4.2a1.8,1.8,0,0,1-1.7,1.1h-.6a1.8,1.8,0,0,1-1-2.3q.8-2,1.4-4a1.8,1.8,0,1,1,3.4,1Zm2.1-9.2a1.8,1.8,0,0,1-1.8,1.5h-.3a1.8,1.8,0,0,1-1.5-2q.3-2,.5-4a1.8,1.8,0,0,1,3.5.3Q436.5,241.6,436.2,243.6Zm6.3,5.6-3.8-1.3h0a1.8,1.8,0,0,1,1-3.4l4,1.3a1.8,1.8,0,0,1-.6,3.4Z" transform="translate(-243.6 -141)" fill="#956a19"/></svg>