<svg xmlns="http://www.w3.org/2000/svg" viewBox="0 0 331.65 436.71"><title>alftanes2</title><path d="M297.64,633.26c-11.93-16.71-23.8-33.05-46.07-32-42.67,1.88-96.63-2.68-111.45-51.57-4-13.52-4-27.77-4-41.73V208.63H459.21V507.92c0,14.68,0,29.8-4.85,43.9-17.14,50.63-71.17,49-114.42,49.33C320.28,601.29,308.05,618.65,297.64,633.26Z" transform="translate(-131.81 -204.59)" fill="#ec2027" fill-rule="evenodd"/><path d="M170.34,586.65a62.76,62.76,0,0,1-24.62-25.49l29,16.56c-1.58,2.88-3,5.9-4.39,8.93Zm-30.17-39.89,39.17,23a132.17,132.17,0,0,1,8.71-12.38l-51.26-42.41c.07,10.73.65,21.46,3.38,31.82Zm-3.38-45.07V459.86l67.82,79.85A124,124,0,0,0,194,550.37l-57.17-48.67Zm0-58.39v-67L224,525.09a145.47,145.47,0,0,0-12.31,8.64L136.79,443.3Zm0-90.07V221l108.86,293A140.2,140.2,0,0,0,232,520.48L136.79,353.23Zm9.86-143.64L254.29,511a139.53,139.53,0,0,1,14.54-4L214.41,209.59Zm81,0,50.26,295.92a146.76,146.76,0,0,1,15-1.37L291,209.59Zm76.39,0h63.29L317.15,505.51a148.18,148.18,0,0,0-15-1.37L304,209.59Zm76.54,0-54.43,297.5A123.67,123.67,0,0,1,340.69,511l107.5-301.39Zm77.9,10.8L349.33,514.08A148.71,148.71,0,0,1,363,520.48L458.49,352.8V220.39Zm0,155.52v67.18l-75.17,90.65A145.45,145.45,0,0,0,371,525.09l87.48-149.18Zm0,83.66v42L401,550.37a135.27,135.27,0,0,0-10.66-10.66l68.11-80.14Zm-.07,55.15c-.07,10.73-.58,21.53-3.31,31.9l-39.46,23.11a135.39,135.39,0,0,0-8.71-12.31l51.48-42.7Zm-8.78,46.22-29.38,16.78c1.58,3,3.17,6.12,4.54,9.29A60.55,60.55,0,0,0,449.63,560.95Z" transform="translate(-131.81 -204.59)" fill="#27397d" fill-rule="evenodd"/><path d="M131.81,204.59V506.43c0,24.63,0,52.54,24.17,74.21,24.46,22,48.43,24.17,79.63,24.81,5,.1,9.14-.16,12.83-.39,8.23-.52,14.17-.89,21.12,3.5,7.14,4.52,15.22,13.84,27.87,32.16v.58l.25-.25.25.25v-.58c12.65-18.32,20.72-27.64,27.87-32.16,6.95-4.4,12.89-4,21.12-3.5,3.68.23,7.86.49,12.83.39,17-.35,30-1.22,42.37-4.44,14-3.66,25.82-10.13,37.19-20.37,24.17-21.67,24.17-49.58,24.17-74.21V204.59ZM457.25,502.46,401,550.21a134.62,134.62,0,0,0-10.52-10.52l66.72-78.5Zm0-58L383.3,533.58a146.22,146.22,0,0,0-12.15-8.53l86.08-146.8Zm0-89.63L363,520.34a146.72,146.72,0,0,0-13.5-6.32L457.22,224.11ZM447.6,210.91l-107,299.94A123,123,0,0,0,326.27,507l54.18-296.1Zm-80.6,0L317.06,505.39A147.79,147.79,0,0,0,302.21,504l1.94-293.13Zm-76.09,0L292.78,504A147.2,147.2,0,0,0,278,505.39L228,210.91Zm-76.38,0,54.18,296a138.55,138.55,0,0,0-14.35,3.91L147.24,210.91ZM141.38,545.37c-2.23-8.46-3-23.16-3.16-29.1l49.67,41.09a131.44,131.44,0,0,0-8.6,12.22L142,547.73C141.58,546.25,141.38,545.37,141.38,545.37Zm-3.24-83.75,66.32,78.08a123.88,123.88,0,0,0-10.52,10.52l-55.8-47.51C138.15,493.55,138.14,479.18,138.14,461.62Zm0-82.84,85.7,146.28a146.24,146.24,0,0,0-12.15,8.53l-73.55-88.82C138.14,424.78,138.14,402,138.14,378.78Zm0-153.82L245.52,514a140.14,140.14,0,0,0-13.5,6.32l-93.88-165C138.13,301.74,138.13,249.27,138.13,225ZM148.8,563.05l25.78,14.71c-1.13,2.05-2.24,4.29-3.53,7.06A62.86,62.86,0,0,1,148.8,563.05Zm129-57.42.1,0a147.54,147.54,0,0,1,15-1.37h.1l-1.86-293.34h12.8L302,504.14v.1h.1a148,148,0,0,1,15,1.37l.1,0,50-294.72h13L326,507.07l0,.1.1,0a122.79,122.79,0,0,1,14.53,3.88l.1,0L447.83,210.91h9.38v12.58L349.23,514l0,.1.1,0a146.69,146.69,0,0,1,13.67,6.4l.09.05,94.18-165.41v22.61L370.91,525l-.05.09.09.06a146,146,0,0,1,12.3,8.63l.08.06,73.91-89.13v16.11l-67,78.77-.07.08.08.07a134.59,134.59,0,0,1,10.65,10.65l.07.08,56.23-47.78v10.83c0,.66,0,1.33,0,2l-50.36,41.77-.08.07.07.08a134.58,134.58,0,0,1,8.71,12.3l.06.09L453,548c-1.23,3.45-3.31,9.17-4.31,11.17l-.16.32c-.49,1-1,1.93-1.54,2.87L420.2,577.63l-.09.05,0,.09c1.19,2.28,2.52,4.87,3.75,7.55l-.06,0-.1.06,0-.07c-23.87,13.52-56.34,12.9-84.26,13.13-19.42.14-31.49,17.28-41.78,31.71-11.78-16.5-23.5-32.64-45.49-31.64-26.64,1.17-57.72-.2-80.69-13.56l0,.07-.1-.06-.11-.07c1.31-2.82,2.44-5.08,3.58-7.16l.05-.09-26.3-15c-.58-1-1.15-2-1.69-3l-.17-.32.19.11A67.31,67.31,0,0,1,142.13,548l37.16,21.79.09.05.06-.09a131.13,131.13,0,0,1,8.71-12.37l.07-.08-50-41.35c0-1.46-.06-2.32-.06-2.32,0-.26,0-4.08,0-10.67l55.74,47.46.08.07.07-.08a123.55,123.55,0,0,1,10.65-10.65l.08-.07-66.62-78.44c0-5.14,0-10.55,0-16.18l73.45,88.7.07.08.08-.06a145.94,145.94,0,0,1,12.3-8.63l.09-.06-86-146.78c0-7.49,0-15,0-22.54l93.8,164.82.09-.05a139.92,139.92,0,0,1,13.67-6.4l.1,0L138.13,224.34c0-8.53,0-13.43,0-13.43H147L254.19,511l0,.1.1,0a138.9,138.9,0,0,1,14.53-4l.1,0-54.21-296.2h13M453.11,547.66l-37.42,21.92a135.05,135.05,0,0,0-8.6-12.15l50.14-41.58c-.13,9.57-.69,19.64-3.26,29.38C454,545.23,453.62,546.21,453.11,547.66Zm-29,37.55c-1.21-2.64-2.52-5.2-3.7-7.45l26.38-15.06A59.59,59.59,0,0,1,424.1,585.21Z" transform="translate(-131.81 -204.59)" fill="#231f20"/><path d="M263.51,567.86a2.59,2.59,0,0,1,.5.72,4.23,4.23,0,0,1,.14,1,2.84,2.84,0,0,1-1,2.23,3.63,3.63,0,0,1-2.45.87,4.17,4.17,0,0,1-1.37-.22,4.82,4.82,0,0,1-1.22-.5l-.29.5h-.58l-.07-3.46h.58a5.44,5.44,0,0,0,.43,1.15,4.61,4.61,0,0,0,.58,1,2.74,2.74,0,0,0,.94.65,2.71,2.71,0,0,0,1.15.29,3.6,3.6,0,0,0,.86-.14,1.57,1.57,0,0,0,.58-.36,2.54,2.54,0,0,0,.36-.58,2.22,2.22,0,0,0,.07-.72,1.69,1.69,0,0,0-.36-1.15,1.63,1.63,0,0,0-1-.79,8.27,8.27,0,0,0-1.08-.43c-.36-.14-.72-.29-1-.43a3.25,3.25,0,0,1-1.37-1,2.82,2.82,0,0,1-.43-1.66,2.88,2.88,0,0,1,.22-1.08,3.36,3.36,0,0,1,.65-.86,4.59,4.59,0,0,1,1-.58,3.27,3.27,0,0,1,1.15-.21,3.5,3.5,0,0,1,1.3.21,4.47,4.47,0,0,1,1,.5l.29-.5h.58l.07,3.38h-.58c-.14-.36-.22-.79-.36-1.08a4.36,4.36,0,0,0-.5-1,2.26,2.26,0,0,0-.79-.65,2.4,2.4,0,0,0-1.08-.22,1.76,1.76,0,0,0-1.15.43,1.53,1.53,0,0,0-.5,1.08,1.77,1.77,0,0,0,.36,1.08,2.88,2.88,0,0,0,.86.72c.36.14.72.29,1,.43a4.11,4.11,0,0,1,1,.36,7.84,7.84,0,0,1,.79.43,2.79,2.79,0,0,1,.72.58Zm6.12,4.32c-.36.14-.65.22-.94.36a4.11,4.11,0,0,1-1,.07,1.48,1.48,0,0,1-1.22-.43,1.66,1.66,0,0,1-.36-1.22v-4.82h-1.3v-.65h1.3v-2.23h1.3v2.23h2v.65h-2v4c0,.29.07.58.07.72a1.71,1.71,0,0,0,.14.58,1.56,1.56,0,0,0,.36.29,1.4,1.4,0,0,0,.58.07h.58c.22,0,.36-.07.5-.07v.5Zm7.56-3.31a5.49,5.49,0,0,1-.22,1.51,6.85,6.85,0,0,1-.72,1.22,2.56,2.56,0,0,1-1.15.79,3,3,0,0,1-1.44.29,4.07,4.07,0,0,1-1.3-.22,9.43,9.43,0,0,1-1.08-.72,3.47,3.47,0,0,1-.72-1.22,3.35,3.35,0,0,1-.29-1.51,4.18,4.18,0,0,1,.94-2.74,3.31,3.31,0,0,1,2.59-1.08,3.43,3.43,0,0,1,2.45,1,4.13,4.13,0,0,1,.94,2.66Zm-1.51,0a5.79,5.79,0,0,0-.07-1.08,2.72,2.72,0,0,0-.36-1,2,2,0,0,0-.58-.72,1.33,1.33,0,0,0-.94-.29,1.45,1.45,0,0,0-.94.29,3.26,3.26,0,0,0-.65.72,4.14,4.14,0,0,0-.29,1,5.5,5.5,0,0,0-.07,1.08,7.91,7.91,0,0,0,.07,1.3,4.19,4.19,0,0,0,.36,1,1.57,1.57,0,0,0,.65.72,1.15,1.15,0,0,0,.86.29,1.58,1.58,0,0,0,1.44-.86,4.6,4.6,0,0,0,.5-2.45Zm7.78-6.62a1.35,1.35,0,0,1-.14.58.65.65,0,0,1-.5.22.77.77,0,0,1-.43-.14c-.07,0-.22-.14-.29-.22a.71.71,0,0,1-.29-.36,1,1,0,0,0-.22-.29.82.82,0,0,0-.72.65,4.94,4.94,0,0,0-.29,2.09v.72h1.87v.65h-1.87v5.11a.55.55,0,0,0,.14.36c0,.14.14.21.29.29s.29.07.43.07.36.07.5.07v.43H278.2V572a.65.65,0,0,0,.36-.07h.29c.14-.07.29-.14.29-.29a.55.55,0,0,0,.14-.36v-5.18h-1.44v-.65h1.44V565a4.12,4.12,0,0,1,.79-2.59,2.77,2.77,0,0,1,2.09-1,1.41,1.41,0,0,1,1,.29.65.65,0,0,1,.29.58Zm7.34,10.22V572a3.1,3.1,0,0,1-.36-.07c-.07,0-.22-.07-.29-.07a.57.57,0,0,1-.29-.29.55.55,0,0,1-.07-.36v-3.67a3.08,3.08,0,0,0-.5-1.73,1.81,1.81,0,0,0-1.51-.58,3.53,3.53,0,0,0-.86.07,4.2,4.2,0,0,0-.58.29,1,1,0,0,0-.5.43,2.8,2.8,0,0,0-.43.36h-.07v-1l-.07-.07-2.38.14v.5h.43c.14.07.22.07.29.14a.72.72,0,0,1,.29.36,1,1,0,0,1,.14.43v4.39a.55.55,0,0,1-.14.36c0,.14-.14.22-.29.29h-.29a.65.65,0,0,1-.36.07v.43h3.46V572A3.08,3.08,0,0,0,286,572c-.07,0-.22-.07-.29-.07a.56.56,0,0,1-.29-.29.55.55,0,0,1-.14-.36v-4.1a1,1,0,0,0,.22-.29c.07-.14.22-.22.36-.36a2.18,2.18,0,0,1,.58-.29,2.13,2.13,0,0,1,.72-.14,1,1,0,0,1,.86.43,1.83,1.83,0,0,1,.36,1.15v3.67a.55.55,0,0,1-.14.36.56.56,0,0,1-.29.29h-.29a.78.78,0,0,1-.36.07v.43Zm7.56-.07a2.21,2.21,0,0,1-.58.14,1.58,1.58,0,0,1-.58.07,1.63,1.63,0,0,1-.94-.22,1.42,1.42,0,0,1-.43-.79h0a3.25,3.25,0,0,1-1,.79,2.46,2.46,0,0,1-1.3.29,1.63,1.63,0,0,1-1.3-.5,1.54,1.54,0,0,1-.5-1.3,2.44,2.44,0,0,1,.07-.72,2.52,2.52,0,0,1,.36-.58,1.29,1.29,0,0,1,.5-.36,1.78,1.78,0,0,1,.5-.29l1.3-.43c.65-.22,1.15-.43,1.37-.5v-.72a.78.78,0,0,0-.07-.36,1,1,0,0,0-.14-.5,1,1,0,0,0-.43-.5,1.8,1.8,0,0,0-.72-.14,1.42,1.42,0,0,0-.58.07,1.18,1.18,0,0,0-.43.22.92.92,0,0,0,.07.43,1.58,1.58,0,0,1,.07.58.62.62,0,0,1-.22.43.88.88,0,0,1-.65.22.48.48,0,0,1-.5-.29.82.82,0,0,1-.22-.58.65.65,0,0,1,.29-.58,2.17,2.17,0,0,1,.58-.58,8.16,8.16,0,0,1,.79-.36,3.65,3.65,0,0,1,.86-.14,4.38,4.38,0,0,1,1.08.14,1.15,1.15,0,0,1,.79.36,1.27,1.27,0,0,1,.58.65,3.08,3.08,0,0,1,.22,1.22c0,.65-.07,1.3-.07,1.8v1.73c0,.21,0,.36.07.43s.22.22.29.29a.54.54,0,0,0,.36.07h.5v.5Zm-2.52-3.82a9.2,9.2,0,0,0-1.08.36,2.43,2.43,0,0,0-.86.43,2.2,2.2,0,0,0-.58.58,2.61,2.61,0,0,0-.14.79,1.15,1.15,0,0,0,.29.86,1,1,0,0,0,.79.29,1.15,1.15,0,0,0,.86-.29,1.71,1.71,0,0,0,.65-.58l.07-2.45Zm9.94-.43a5.18,5.18,0,0,1-.94,3.31,2.81,2.81,0,0,1-2.52,1.22,3.64,3.64,0,0,1-1.22-.22,3.13,3.13,0,0,1-1.08-.72,4.48,4.48,0,0,1-.72-1.15A5.6,5.6,0,0,1,299,569a3.48,3.48,0,0,1,.94-2.59,3,3,0,0,1,2.3-1,2.22,2.22,0,0,1,1.22.36,1.6,1.6,0,0,1,.72.65h.07a6.78,6.78,0,0,0-.43-1.73,6.22,6.22,0,0,0-.79-1.37l-1.66.94-.36-.5,1.66-.94a2.21,2.21,0,0,0-.58-.58,3.89,3.89,0,0,0-.65-.5l.36-.43c.22.14.5.29.79.5a8.62,8.62,0,0,1,.72.58l1.44-.86.43.58-1.37.79a6,6,0,0,1,1.44,2.3,7.45,7.45,0,0,1,.5,3Zm-1.87,3a4.13,4.13,0,0,0,.29-1,7.37,7.37,0,0,0,.07-1.3,3.5,3.5,0,0,0-.5-2,1.44,1.44,0,0,0-1.3-.79,1.22,1.22,0,0,0-.94.29,1.85,1.85,0,0,0-.65.65,7.46,7.46,0,0,0-.29.94,5.43,5.43,0,0,0-.07,1.08,4.6,4.6,0,0,0,.5,2.45,1.54,1.54,0,0,0,1.37.79,1.15,1.15,0,0,0,.86-.29,1.75,1.75,0,0,0,.65-.79Zm11.74,1.37h-4.82V572a3.29,3.29,0,0,0,.72-.07c.29,0,.5,0,.58-.07a1.57,1.57,0,0,0,.36-.21,1,1,0,0,0,.14-.5v-5h-1.8v-.58h.36a3.22,3.22,0,0,0,1.44-.29,4.52,4.52,0,0,0,.86-.65h.58a6.56,6.56,0,0,1-.07,1.15V571a1,1,0,0,0,.14.43.56.56,0,0,0,.29.29,1.44,1.44,0,0,0,.65.14,1.78,1.78,0,0,0,.58.07v.5Zm8.06-3.67a6.57,6.57,0,0,1-.36,2.38,5.48,5.48,0,0,1-1.15,1.87,5.4,5.4,0,0,1-1.73,1.37,6.53,6.53,0,0,1-2.38.72l-.07-.65.65-.07A5.63,5.63,0,0,0,321,572.9a5,5,0,0,0,1.08-2.59A2.82,2.82,0,0,1,321,571a2.47,2.47,0,0,1-1.3.29,2.8,2.8,0,0,1-2-.94,3.16,3.16,0,0,1-.86-2.3,3.44,3.44,0,0,1,3.46-3.53,3.22,3.22,0,0,1,2.52,1.15,4.67,4.67,0,0,1,.94,3.1Zm-1.51-.07a5.48,5.48,0,0,0-.5-2.66,1.74,1.74,0,0,0-1.44-.94,1.64,1.64,0,0,0-1.37.72,3.51,3.51,0,0,0-.58,2,2.9,2.9,0,0,0,.58,1.87,1.6,1.6,0,0,0,1.44.72,2.3,2.3,0,0,0,1-.22,3.38,3.38,0,0,0,.86-.65v-.86Zm10,3.1h-1.51v3.31h-1.37v-3.31h-4.54v-1.08l5-6.12h.94v6.26h1.51v.94Zm-2.88-.94v-4.68l-3.82,4.68Zm11.09-1.73a3.21,3.21,0,0,1-.29,1.44,2.84,2.84,0,0,1-.72,1.08,3,3,0,0,1-1.15.79,4.2,4.2,0,0,1-1.3.29,4.07,4.07,0,0,1-2.59-1.15,3.46,3.46,0,0,1-.65-1.37,4.36,4.36,0,0,1-.29-1.73A6.16,6.16,0,0,1,339,562.1l.14.65-.65.07a5,5,0,0,0-2.45,1.58A6,6,0,0,0,335,567a3.93,3.93,0,0,1,1.22-.79,3.76,3.76,0,0,1,1.3-.22,2.55,2.55,0,0,1,2,.94,3.1,3.1,0,0,1,.86,2.23Zm-1.58.22a3,3,0,0,0-.5-1.87,1.81,1.81,0,0,0-1.44-.65,2.3,2.3,0,0,0-1,.14,2.56,2.56,0,0,0-.86.72,1.26,1.26,0,0,1-.07.36v.5a4.93,4.93,0,0,0,.58,2.59,1.69,1.69,0,0,0,1.44,1,1.63,1.63,0,0,0,1.37-.79A3.35,3.35,0,0,0,338.82,569.37Z" transform="translate(-131.81 -204.59)" fill="#fff"/><path d="M261.85,532.51c-.29,0-.72.07-1.3.14a6.05,6.05,0,0,0-1.37.58,2.33,2.33,0,0,0-.79,1.37,14.18,14.18,0,0,0-.29,3v8a7.44,7.44,0,0,1-2.38,5.76,9.14,9.14,0,0,1-6.34,2.16,11.29,11.29,0,0,1-7.2-2.09,7.37,7.37,0,0,1-2.52-5.83V534.53a2,2,0,0,0-.22-.94,1.91,1.91,0,0,0-.79-.65,2.88,2.88,0,0,0-.94-.29c-.43-.14-.72-.14-.94-.21v-1.15h11.3v1.15a5.61,5.61,0,0,0-1,.14l-1,.22a1.45,1.45,0,0,0-.79.65,3.63,3.63,0,0,0-.14.94v10.94a6.74,6.74,0,0,0,1.37,4.68,5.87,5.87,0,0,0,4.18,1.44,5.37,5.37,0,0,0,4.1-1.66,6.61,6.61,0,0,0,1.51-4.75v-7.27a15,15,0,0,0-.22-3,2.8,2.8,0,0,0-.86-1.37,4,4,0,0,0-1.37-.65,9.31,9.31,0,0,0-1.37-.29v-1.22h9.36v1.22Zm36.94,20.38H287.05v-1.15a10,10,0,0,0,1.3-.14,5.55,5.55,0,0,0,1-.22,1.45,1.45,0,0,0,.79-.65,2.07,2.07,0,0,0,.29-1V533.59l-7.49,19h-1.87c-.14-.36-.36-1-.72-2s-.65-1.8-.86-2.38L274,533.3v13.18a14.66,14.66,0,0,0,.22,2.88,2.55,2.55,0,0,0,2.23,2,5.45,5.45,0,0,0,1.37.36v1.15h-9.29v-1.15a6.18,6.18,0,0,0,1.22-.21,2.91,2.91,0,0,0,1.44-.58,2.32,2.32,0,0,0,.79-1.44,14.15,14.15,0,0,0,.22-2.88V535.89a5,5,0,0,0-.22-1.58,3.22,3.22,0,0,0-2-1.66,8,8,0,0,0-1.3-.14v-1.22h9.94L284,545.54l4.54-11.59q.22-.65.43-1.51a5.78,5.78,0,0,0,.22-1.15h9.58v1.22a5.07,5.07,0,0,0-1,.07,4.08,4.08,0,0,0-1,.29,1.16,1.16,0,0,0-.79.58,2.21,2.21,0,0,0-.22.94v15.34a1.79,1.79,0,0,0,.22.94,1.89,1.89,0,0,0,.79.65c.22.07.5.14,1,.29a7.43,7.43,0,0,0,1.08.14v1.15ZM326.44,537h-1.15a12.82,12.82,0,0,0-1.51-2.66,3.5,3.5,0,0,0-2.16-1.58c-.29,0-.65-.07-1.15-.07a10.62,10.62,0,0,0-1.44-.07h-3.38v8.5h2.16a5,5,0,0,0,1.58-.21,3.06,3.06,0,0,0,1.22-.72,5.21,5.21,0,0,0,.72-1.3,8.31,8.31,0,0,0,.43-1.51h1.15v9.07h-1.15a6.9,6.9,0,0,0-.5-1.66,5.2,5.2,0,0,0-.65-1.3,3.13,3.13,0,0,0-1.15-.72,5.45,5.45,0,0,0-1.66-.22h-2.16v7.13a1.8,1.8,0,0,0,.22.94,1.44,1.44,0,0,0,.79.65,6.12,6.12,0,0,0,.94.22,6.45,6.45,0,0,0,1.15.21v1.15H307.07v-1.15a8.26,8.26,0,0,0,1.15-.14,6.79,6.79,0,0,0,1.08-.22,1.19,1.19,0,0,0,.72-.58,2.09,2.09,0,0,0,.22-1V534.6a2,2,0,0,0-.22-.94,1.09,1.09,0,0,0-.72-.65,11.45,11.45,0,0,0-1.15-.36c-.5-.07-.86-.14-1.08-.14v-1.22h19.37V537Zm31.1,15.84H345.73v-1.15c.58-.07,1.15-.14,1.94-.29s1.08-.36,1.08-.58v-.29c0-.14-.07-.22-.14-.43l-1.87-4.46h-7.42a14.62,14.62,0,0,0-.58,1.44c-.22.58-.43,1.08-.58,1.51a8.58,8.58,0,0,0-.29,1.22,2,2,0,0,0-.07.58c0,.29.22.58.72.79a7.43,7.43,0,0,0,2.45.5v1.15h-8.86v-1.15a7.14,7.14,0,0,0,1.15-.14,7.59,7.59,0,0,0,1-.36,6.2,6.2,0,0,0,1-.94,4.21,4.21,0,0,0,.72-1.22c1.22-2.88,2.38-5.76,3.6-8.64s2.45-6,3.89-9.43h3.1c1.94,4.9,3.53,8.78,4.68,11.59s2.09,5.18,2.81,7.06a9,9,0,0,0,.5.86,3.51,3.51,0,0,0,.94.72,3.57,3.57,0,0,0,.94.36,6.35,6.35,0,0,0,1.08.14v1.15Zm-11.37-8.71L343,536.33l-3.1,7.85Zm4-18.22a1.47,1.47,0,0,1-.43,1.08,2.88,2.88,0,0,1-1.15.72c-.58.22-1.37.58-2.52.94s-2.45.94-4,1.58l-.5-.65c1-.94,1.8-1.73,2.38-2.3s1.08-1.08,1.66-1.73a2.85,2.85,0,0,1,1.08-.86,2.12,2.12,0,0,1,1.15-.29,3,3,0,0,1,1.66.43A1.27,1.27,0,0,1,350.2,526Z" transform="translate(-131.81 -204.59)" fill="#fff"/><polygon points="72.95 315.54 73.16 315.32 72.73 315.68 72.95 315.54" fill="#231f20"/><polygon points="42.02 320.74 48.74 314.49 37.27 308.96 42.02 320.74" fill="none"/><path d="M242.63,469.15a14.65,14.65,0,0,1,.43,3,6.39,6.39,0,0,1-.29,2.3,5.2,5.2,0,0,1-1.44,2.09,9.62,9.62,0,0,1-3,1.66l-4.54,1.73-6-15.84,6.62-2.52c1-.36,1.87-.72,2.66-.94a21.36,21.36,0,0,1,2.09-.65,3.08,3.08,0,0,1,.71-.08,7.92,7.92,0,0,1,3.9,1.45,14.9,14.9,0,0,1,4.25,3.82l2.09-.86-3.82-9.79-30.82,11.81.72,2a10.16,10.16,0,0,1,2.16-.43,10.86,10.86,0,0,1,1.72-.17,4.11,4.11,0,0,1,.51,0,2.13,2.13,0,0,1,1.73.65,3.87,3.87,0,0,1,.94,1.51l10.87,28.37a3.52,3.52,0,0,1,.29,1.87,2.59,2.59,0,0,1-.79,1.51,7.69,7.69,0,0,1-1.66,1c-.36.22-.65.36-.94.5l-5.11-9.65-1.8,1.15a25.77,25.77,0,0,1,.5,5,25.44,25.44,0,0,1-.22,5,3.82,3.82,0,0,1-.65,1.37c-.43.43-.86.94-1.37,1.37a17.48,17.48,0,0,1-1.8,1.44c-.65.43-1.3.87-1.94,1.22a24.87,24.87,0,0,1-3.31,1.87,3.81,3.81,0,0,1-1.8.52l-.29,0a2.62,2.62,0,0,1-1.66-.94A17,17,0,0,1,209.8,509l-15-24a4.26,4.26,0,0,1-.65-1.73,2.4,2.4,0,0,1,.5-1.8c.29-.29.72-.79,1.37-1.44a20.12,20.12,0,0,1,1.73-1.37l-1.15-1.8-15.12,9.43,1.15,1.8a14.2,14.2,0,0,1,1.94-.72,17,17,0,0,1,2-.43l.46,0a2.19,2.19,0,0,1,1.33.38,4.27,4.27,0,0,1,1.22,1.3l16,25.63a3.25,3.25,0,0,1,.65,1.8,2.48,2.48,0,0,1-.5,1.66,5.56,5.56,0,0,1-1.15,1.15,6.34,6.34,0,0,1-.72.43,5,5,0,0,1-1.8.65,7.31,7.31,0,0,1-1.3.12,6.34,6.34,0,0,1-.79,0,6.46,6.46,0,0,1-2-.65l-35.06-17.06-1.73,1.66c2,5.11,4.39,10.94,7,17.57s5,12.46,7.06,17.78a13.69,13.69,0,0,1,.72,2.66,7.52,7.52,0,0,1-.22,2.45,6.15,6.15,0,0,1-.86,1.87,17.63,17.63,0,0,1-1.22,1.58l1.44,1.51,11.59-10.8L185.25,537a20.63,20.63,0,0,1-3.67,2.3,3.83,3.83,0,0,1-1.49.37,1.39,1.39,0,0,1-1.1-.44c-.22-.29-.5-.65-.79-1.08a13.92,13.92,0,0,1-1-1.87c-.43-.86-.86-1.73-1.3-2.74s-.94-2.16-1.44-3.6l10.8-10.08,9,4.54a4,4,0,0,0,.58.36l.5.5c.29.29.14.86-.36,1.8a19.8,19.8,0,0,1-2.45,3.1l1.44,1.51L205.48,521l24.91-15.55.07.21,17.06-6.55-.72-1.94c-.5.14-1.22.29-2.23.5a17.48,17.48,0,0,1-2,.22,2.72,2.72,0,0,1-1.73-.72,3.19,3.19,0,0,1-.94-1.51l-5.26-13.54,4.54-1.73a12,12,0,0,1,3.17-.79h.35a4.85,4.85,0,0,1,2.31.59,9,9,0,0,1,1.87,1.87,13.59,13.59,0,0,1,1.66,2.52l2.09-.79-5.9-15.41ZM173.37,527.4l-6.55-16.27,15.84,7.63Z" transform="translate(-131.81 -204.59)" fill="none"/><polygon points="173.99 268.16 183.09 268.79 179.29 256.72 173.99 268.16" fill="none"/><path d="M161.92,491.76a2.6,2.6,0,0,0-.79-2,2.23,2.23,0,0,0-1.73-.72,2.68,2.68,0,0,0-1.87.86,2.81,2.81,0,0,0-.94,1.44,6.46,6.46,0,0,0-.29,2.23c-.07,1.58-.07,3.24-.14,4.82s-.14,3.6-.29,6.12l1.44.22c.94-2.38,1.73-4.54,2.52-6.48s1.22-3.24,1.58-4.18A7.44,7.44,0,0,0,161.92,491.76Z" transform="translate(-131.81 -204.59)" fill="none"/><path d="M281.22,451.58a4,4,0,0,1,2.16.94,12.49,12.49,0,0,1,2.23,2.16c.65.79,1.3,1.66,1.87,2.52a16.44,16.44,0,0,1,1.3,2.45l2-.29-1.37-11.3-36.5,4.46,1.44,11.3,2-.21q.22-1,.65-2.59a22.23,22.23,0,0,1,1.22-3,22.87,22.87,0,0,1,1.66-2.59,3.78,3.78,0,0,1,1.87-1.44c.79-.14,1.66-.36,2.59-.5s1.66-.22,2.23-.29l1.73-.22,4.1,33.7a3,3,0,0,1-.22,2,2.81,2.81,0,0,1-1.3,1.3,11.48,11.48,0,0,1-2.23.72c-1.15.22-1.94.43-2.52.58l.29,2.09,19.73-2.45-.29-2.09a4.89,4.89,0,0,1-.59,0c-.55,0-1.25-.05-2.07-.1a17.05,17.05,0,0,1-2.3-.29,2.86,2.86,0,0,1-1.58-1.08,3.61,3.61,0,0,1-.65-1.73l-4.1-33.48,1.73-.22,2.59-.22C279.85,451.65,280.57,451.58,281.22,451.58Z" transform="translate(-131.81 -204.59)" fill="none"/><path d="M441.28,515.73a29.12,29.12,0,0,0-1.44-4.46,15,15,0,0,0-3-4.39,13.3,13.3,0,0,0-4-2.88,11.86,11.86,0,0,0-4.54-1.22q-.52,0-1,0a12.35,12.35,0,0,0-3.59.55,12.13,12.13,0,0,0-7.42,8.57,13.82,13.82,0,0,0,.79,6.91c.43,1.22,1,2.74,1.73,4.32s1.29,3.1,1.87,4.39a9.28,9.28,0,0,1,.58,5.33,8.63,8.63,0,0,1-2.45,4.32,10.68,10.68,0,0,1-2.45,1.8,6.12,6.12,0,0,1-5.47-.14,11.16,11.16,0,0,1-2.88-2.23,10.07,10.07,0,0,1-2.59-4.18,11.91,11.91,0,0,1-.5-4.54,17.07,17.07,0,0,1,1.08-4.68,27.5,27.5,0,0,1,2.3-4.61l-1.73-1.73-10.08,10.3,1.66,1.73,2.45-.58a19.31,19.31,0,0,0,1.87,5,18.08,18.08,0,0,0,3.24,4.68,15.43,15.43,0,0,0,9.79,4.9q.54,0,1.07,0a11.66,11.66,0,0,0,8.36-3.5,11.24,11.24,0,0,0,2.52-3.31,9.34,9.34,0,0,0,1-3.67,12.71,12.71,0,0,0-.36-3.67,23.86,23.86,0,0,0-1.15-3.67,39.69,39.69,0,0,0-1.66-4c-.58-1.37-1.15-2.81-1.66-4.32a9.23,9.23,0,0,1-.43-4.75,7.63,7.63,0,0,1,2.38-4,5.48,5.48,0,0,1,4-1.68l.53,0a6.94,6.94,0,0,1,4.68,2.16,9.69,9.69,0,0,1,2.38,4,10.17,10.17,0,0,1,.22,4.18,20,20,0,0,1-1.37,4.32c-.72,1.37-1.44,2.81-2.3,4.25l1.66,1.73,9.86-9.86-1.66-1.73Z" transform="translate(-131.81 -204.59)" fill="none"/><path d="M404.2,517.17l-1.8-1.22a28.16,28.16,0,0,1-4,2.38,17.22,17.22,0,0,1-4.75,1.87,1.66,1.66,0,0,1-.46.06,6,6,0,0,1-1.49-.27c-.72-.36-1.44-.65-2.16-1s-1.37-.86-2.23-1.44-1.58-1.15-2.16-1.51c-1.3-.94-2.3-1.73-3-2.3a4.7,4.7,0,0,1-1.3-1.8,3,3,0,0,1,.07-1.94,15.69,15.69,0,0,1,1.51-2.66l7.27-10.37,3.89,2.74a10.16,10.16,0,0,1,2.38,2.09,4.34,4.34,0,0,1,.86,2.45,10.71,10.71,0,0,1-.43,2.52,17.23,17.23,0,0,1-1.22,2.81l1.8,1.3,9.43-13.54-1.8-1.22a19,19,0,0,1-2.09,1.87,7.7,7.7,0,0,1-2.23,1.22,5.8,5.8,0,0,1-1.51.22,4,4,0,0,1-.79-.08,12.26,12.26,0,0,1-3-1.58L391,495l9.65-13.75,5.4,3.82c.94.65,1.66,1.22,2.38,1.73a18.22,18.22,0,0,1,1.66,1.44c.94.79,1.44,2.23,1.51,4.39A13.57,13.57,0,0,1,411,498l1.8,1.29L418.6,491l-26.71-18.72L390.66,474a16.32,16.32,0,0,1,1.58,1.58,7,7,0,0,1,1.37,1.8,2.9,2.9,0,0,1,.43,1.8,6.1,6.1,0,0,1-.72,1.58L375.9,505.58a3.44,3.44,0,0,1-1.3,1.22,2.21,2.21,0,0,1-1.13.29,3.45,3.45,0,0,1-.67-.07,17.31,17.31,0,0,1-1.8-.79c-.86-.43-1.58-.86-2.09-1.15l-1.22,1.73,28.73,20.09Z" transform="translate(-131.81 -204.59)" fill="none"/><path d="M376.91,468.5a5.93,5.93,0,0,1,1.36-.12c.39,0,.83,0,1.31,0a16.46,16.46,0,0,1,2.59.29l.65-1.94-16.34-5.33-.65,2a12.42,12.42,0,0,1,2.59,1.44,11,11,0,0,1,2.23,1.87,4.83,4.83,0,0,1,.5,3,31.88,31.88,0,0,1-1.3,5.54l-6.19,19.08L351,456.4l-11.45-3.67-.65,1.94a11.57,11.57,0,0,1,2.59,1.66,7.93,7.93,0,0,1,2.23,2.52,4.82,4.82,0,0,1,.58,2.38,8.7,8.7,0,0,1-.43,2.74l-6.41,19.73a23.4,23.4,0,0,1-2.16,5.47,4.13,4.13,0,0,1-2.09,1.94,2.7,2.7,0,0,1-.86.14l.07-.29a13.36,13.36,0,0,1-1.87-.43,7.77,7.77,0,0,1-1.73-.79,9.3,9.3,0,0,1-1.44-1.51,6.07,6.07,0,0,1-.86-1.94L315.06,449l-2.38-.14c-2.3,5-5,10.73-8,17.14s-5.76,12.17-8.28,17.28a10.64,10.64,0,0,1-1.44,2.3,6.38,6.38,0,0,1-1.94,1.58,9,9,0,0,1-1.94.58,11.29,11.29,0,0,1-1.94.22L289,490l15.84,1.15L305,489a14.19,14.19,0,0,1-4.18-1c-1.22-.58-1.8-1.22-1.73-2a5.87,5.87,0,0,1,.22-1.3,18,18,0,0,1,.72-2c.29-.87.72-1.8,1.08-2.81s1-2.16,1.66-3.46l14.69,1,2.81,9.65a2.14,2.14,0,0,1,.14.72,2,2,0,0,1,.07.65c-.07.43-.58.72-1.66,1a19.47,19.47,0,0,1-3.89.29l-.14,2.09,12.53.94-.07.22,16.42,5.4.65-2a26.57,26.57,0,0,1-2.45-1.44,6.71,6.71,0,0,1-2.3-2,5,5,0,0,1-.5-3.1,26.37,26.37,0,0,1,1.3-5.54l6.7-20.66,13.68,40.68,2.45.86,9.5-29.37a36.64,36.64,0,0,1,2-5A4.33,4.33,0,0,1,376.91,468.5ZM304,473.83,311.32,458l5.26,16.7Z" transform="translate(-131.81 -204.59)" fill="none"/><path d="M173.37,527.4l9.29-8.64-15.84-7.63Zm.46-2.07-4.74-11.78,11.47,5.52Z" transform="translate(-131.81 -204.59)"/><polygon points="173.07 268.7 183.93 269.45 179.4 255.06 173.07 268.7" fill="none"/><path d="M162,488.94l0,0,0,0a3.44,3.44,0,0,0-2.58-1.07h-.12a3.87,3.87,0,0,0-2.59,1.2,4,4,0,0,0-1.24,1.94,7.49,7.49,0,0,0-.34,2.56c0,.79-.05,1.6-.07,2.41s0,1.6-.07,2.39l-.06,1.29c-.06,1.38-.12,2.94-.23,4.81l-.06,1.09,1.08.16,1.44.22.94.14.35-.89c.4-1,.78-2,1.14-2.93.48-1.25.93-2.43,1.38-3.53s.78-2,1.07-2.81l.52-1.39v-.05a8.61,8.61,0,0,0,.56-2.62A3.75,3.75,0,0,0,162,488.94Z" transform="translate(-131.81 -204.59)"/><path d="M159.4,489a2.68,2.68,0,0,0-1.87.86,2.81,2.81,0,0,0-.94,1.44,6.46,6.46,0,0,0-.29,2.23c-.07,1.58-.07,3.24-.14,4.82s-.14,3.6-.29,6.12l1.44.22c.94-2.38,1.73-4.54,2.52-6.48s1.22-3.24,1.58-4.18a7.44,7.44,0,0,0,.5-2.3,2.6,2.6,0,0,0-.79-2A2.23,2.23,0,0,0,159.4,489Z" transform="translate(-131.81 -204.59)" fill="#fff"/><polygon points="173.07 268.7 183.93 269.45 179.4 255.06 173.07 268.7" fill="none"/><path d="M242.7,479.58a4.85,4.85,0,0,1,2.31.59,9,9,0,0,1,1.87,1.87,13.59,13.59,0,0,1,1.66,2.52l2.09-.79-5.9-15.41-2.09.79a14.65,14.65,0,0,1,.43,3,6.39,6.39,0,0,1-.29,2.3,5.2,5.2,0,0,1-1.44,2.09,9.62,9.62,0,0,1-3,1.66l-4.54,1.73-6-15.84,6.62-2.52c1-.36,1.87-.72,2.66-.94a21.36,21.36,0,0,1,2.09-.65,3.08,3.08,0,0,1,.71-.08,7.92,7.92,0,0,1,3.9,1.45,14.9,14.9,0,0,1,4.25,3.82l2.09-.86-3.82-9.79-30.82,11.81.72,2a10.16,10.16,0,0,1,2.16-.43,10.86,10.86,0,0,1,1.72-.17,4.11,4.11,0,0,1,.51,0,2.13,2.13,0,0,1,1.73.65,3.87,3.87,0,0,1,.94,1.51l10.87,28.37a3.52,3.52,0,0,1,.29,1.87,2.59,2.59,0,0,1-.79,1.51,7.69,7.69,0,0,1-1.66,1c-.36.22-.65.36-.94.5l-5.11-9.65-1.8,1.15a25.77,25.77,0,0,1,.5,5,25.44,25.44,0,0,1-.22,5,3.82,3.82,0,0,1-.65,1.37c-.43.43-.86.94-1.37,1.37a17.48,17.48,0,0,1-1.8,1.44c-.65.43-1.3.87-1.94,1.22a24.87,24.87,0,0,1-3.31,1.87,3.81,3.81,0,0,1-1.8.52l-.29,0a2.62,2.62,0,0,1-1.66-.94A17,17,0,0,1,209.8,509l-15-24a4.26,4.26,0,0,1-.65-1.73,2.4,2.4,0,0,1,.5-1.8c.29-.29.72-.79,1.37-1.44a20.12,20.12,0,0,1,1.73-1.37l-1.15-1.8-15.12,9.43,1.15,1.8a14.2,14.2,0,0,1,1.94-.72,17,17,0,0,1,2-.43l.46,0a2.19,2.19,0,0,1,1.33.38,4.27,4.27,0,0,1,1.22,1.3l16,25.63a3.25,3.25,0,0,1,.65,1.8,2.48,2.48,0,0,1-.5,1.66,5.56,5.56,0,0,1-1.15,1.15,6.34,6.34,0,0,1-.72.43,5,5,0,0,1-1.8.65,7.31,7.31,0,0,1-1.3.12,6.34,6.34,0,0,1-.79,0,6.46,6.46,0,0,1-2-.65l-35.06-17.06-1.73,1.66c2,5.11,4.39,10.94,7,17.57s5,12.46,7.06,17.78a13.69,13.69,0,0,1,.72,2.66,7.52,7.52,0,0,1-.22,2.45,6.15,6.15,0,0,1-.86,1.87,17.63,17.63,0,0,1-1.22,1.58l1.44,1.51,11.59-10.8L185.25,537a20.63,20.63,0,0,1-3.67,2.3,3.83,3.83,0,0,1-1.49.37,1.39,1.39,0,0,1-1.1-.44c-.22-.29-.5-.65-.79-1.08a13.92,13.92,0,0,1-1-1.87c-.43-.86-.86-1.73-1.3-2.74s-.94-2.16-1.44-3.6l10.8-10.08,9,4.54a4,4,0,0,0,.58.36l.5.5c.29.29.14.86-.36,1.8a19.8,19.8,0,0,1-2.45,3.1l1.44,1.51L205.48,521l24.91-15.55.07.21,17.06-6.55-.72-1.94c-.5.14-1.22.29-2.23.5a17.48,17.48,0,0,1-2,.22,2.72,2.72,0,0,1-1.73-.72,3.19,3.19,0,0,1-.94-1.51l-5.26-13.54,4.54-1.73a12,12,0,0,1,3.17-.79Z" transform="translate(-131.81 -204.59)" fill="none"/><path d="M242.43,480.79h.26a3.63,3.63,0,0,1,1.67.41,8.09,8.09,0,0,1,1.56,1.58,12.47,12.47,0,0,1,1.51,2.28l.47,1,1.05-.4,2.09-.79,1.13-.43-.43-1.12-5.9-15.41-.43-1.12-1.12.42-2.09.79-1,.37.22,1a13.7,13.7,0,0,1,.41,2.7,5.3,5.3,0,0,1-.19,1.83V474a4,4,0,0,1-1.11,1.6,8.28,8.28,0,0,1-2.64,1.43l-3.43,1.31-5.19-13.6,5.5-2.09.9-.33c.62-.23,1.16-.43,1.65-.57h0l0,0a20,20,0,0,1,2-.61,1.88,1.88,0,0,1,.42,0,7,7,0,0,1,3.27,1.27,13.58,13.58,0,0,1,3.89,3.47l.55.8.9-.37,2.09-.86,1.09-.45-.43-1.1L247.35,454l-.43-1.11-1.11.43L215,465.15l-1.1.42.39,1.1.72,2,.38,1.06,1.08-.31.07,0a8.73,8.73,0,0,1,1.85-.37h.11a9.68,9.68,0,0,1,1.53-.16l.36,0h.15c.23,0,.65,0,.81.22l0,0,0,0a2.68,2.68,0,0,1,.65,1v.05l10.87,28.37v.06a2.33,2.33,0,0,1,.19,1.24,1.41,1.41,0,0,1-.45.81,7.35,7.35,0,0,1-1.25.73l-4.55-8.58-.61-1.15-1.1.7-1.8,1.15-.73.46.21.84a34,34,0,0,1,.27,9.51,2.65,2.65,0,0,1-.39.81l-.37.38a11.81,11.81,0,0,1-.85.84,16.52,16.52,0,0,1-1.69,1.35c-.62.41-1.25.84-1.86,1.17l0,0,0,0a24.2,24.2,0,0,1-3.13,1.78l-.06,0-.06,0a2.7,2.7,0,0,1-1.22.37h-.14a1.45,1.45,0,0,1-.9-.54,16,16,0,0,1-1.6-2.27l-15.06-24.07a3.09,3.09,0,0,1-.48-1.24,1.17,1.17,0,0,1,.23-.87l.38-.41c.23-.25.53-.57.89-.93a19.13,19.13,0,0,1,1.6-1.27l.93-.66-.61-1-1.15-1.8-.64-1-1,.63-15.12,9.43-1,.64.65,1,1.15,1.8.55.86.93-.4.11,0a12.23,12.23,0,0,1,1.67-.62,16,16,0,0,1,1.87-.4h.3a1,1,0,0,1,.64.16,3.08,3.08,0,0,1,.9,1l16,25.63A2.09,2.09,0,0,1,205,516v.15c0,.17,0,.38-.33.87l0,0,0,.05c-.06.08-.42.39-.7.64l-.1.09a4.75,4.75,0,0,1-.53.31h0a3.82,3.82,0,0,1-1.37.51h-.06a6.12,6.12,0,0,1-1.09.1,5.14,5.14,0,0,1-.64,0,5.31,5.31,0,0,1-1.63-.53l-35.08-17.07-.75-.37-.6.58-1.73,1.66-.58.56.3.75q1.26,3.2,2.7,6.78c1.36,3.41,2.77,6.93,4.28,10.79,2.46,6,4.64,11.62,6.56,16.53l.48,1.23a12.92,12.92,0,0,1,.65,2.38,6.4,6.4,0,0,1-.19,2.06,4.88,4.88,0,0,1-.69,1.48,15.18,15.18,0,0,1-1,1.35l-.11.13-.68.82.74.77,1.44,1.51.82.86.87-.81,11.59-10.8.86-.81-.79-.88-1.37-1.51-.74-.82-.88.67a19.3,19.3,0,0,1-3.46,2.17,2.56,2.56,0,0,1-1,.26.47.47,0,0,1-.19,0l-.12-.16c-.18-.24-.38-.5-.58-.8a13,13,0,0,1-.91-1.7v0l0-.05c-.43-.86-.84-1.68-1.25-2.64l-.09-.21c-.33-.76-.69-1.6-1.05-2.58l9.61-9,8.13,4.1a2.9,2.9,0,0,0,.43.27l.07,0,.14.14a5.24,5.24,0,0,1-.29.62,18.8,18.8,0,0,1-2.28,2.87l-.78.83.78.82,1.44,1.51.82.86.87-.81,11.44-10.65,23.71-14.8,1-.37L248,500.22l1.11-.42-.41-1.11-.72-1.94-.39-1-1.07.3c-.37.11-.93.22-1.63.37l-.48.1c-.37.05-1.32.19-1.75.2a1.46,1.46,0,0,1-.94-.37l0,0,0,0a2.06,2.06,0,0,1-.57-1v-.06l-4.82-12.41,3.41-1.3A10.8,10.8,0,0,1,242.43,480.79Z" transform="translate(-131.81 -204.59)"/><path d="M242.7,479.58a4.85,4.85,0,0,1,2.31.59,9,9,0,0,1,1.87,1.87,13.59,13.59,0,0,1,1.66,2.52l2.09-.79-5.9-15.41-2.09.79a14.65,14.65,0,0,1,.43,3,6.39,6.39,0,0,1-.29,2.3,5.2,5.2,0,0,1-1.44,2.09,9.62,9.62,0,0,1-3,1.66l-4.54,1.73-6-15.84,6.62-2.52c1-.36,1.87-.72,2.66-.94a21.36,21.36,0,0,1,2.09-.65,3.08,3.08,0,0,1,.71-.08,7.92,7.92,0,0,1,3.9,1.45,14.9,14.9,0,0,1,4.25,3.82l2.09-.86-3.82-9.79-30.82,11.81.72,2a10.16,10.16,0,0,1,2.16-.43,10.86,10.86,0,0,1,1.72-.17,4.11,4.11,0,0,1,.51,0,2.13,2.13,0,0,1,1.73.65,3.87,3.87,0,0,1,.94,1.51l10.87,28.37a3.52,3.52,0,0,1,.29,1.87,2.59,2.59,0,0,1-.79,1.51,7.69,7.69,0,0,1-1.66,1c-.36.22-.65.36-.94.5l-5.11-9.65-1.8,1.15a25.77,25.77,0,0,1,.5,5,25.44,25.44,0,0,1-.22,5,3.82,3.82,0,0,1-.65,1.37c-.43.43-.86.94-1.37,1.37a17.48,17.48,0,0,1-1.8,1.44c-.65.43-1.3.87-1.94,1.22a24.87,24.87,0,0,1-3.31,1.87,3.81,3.81,0,0,1-1.8.52l-.29,0a2.62,2.62,0,0,1-1.66-.94A17,17,0,0,1,209.8,509l-15-24a4.26,4.26,0,0,1-.65-1.73,2.4,2.4,0,0,1,.5-1.8c.29-.29.72-.79,1.37-1.44a20.12,20.12,0,0,1,1.73-1.37l-1.15-1.8-15.12,9.43,1.15,1.8a14.2,14.2,0,0,1,1.94-.72,17,17,0,0,1,2-.43l.46,0a2.19,2.19,0,0,1,1.33.38,4.27,4.27,0,0,1,1.22,1.3l16,25.63a3.25,3.25,0,0,1,.65,1.8,2.48,2.48,0,0,1-.5,1.66,5.56,5.56,0,0,1-1.15,1.15,6.34,6.34,0,0,1-.72.43,5,5,0,0,1-1.8.65,7.31,7.31,0,0,1-1.3.12,6.34,6.34,0,0,1-.79,0,6.46,6.46,0,0,1-2-.65l-35.06-17.06-1.73,1.66c2,5.11,4.39,10.94,7,17.57s5,12.46,7.06,17.78a13.69,13.69,0,0,1,.72,2.66,7.52,7.52,0,0,1-.22,2.45,6.15,6.15,0,0,1-.86,1.87,17.63,17.63,0,0,1-1.22,1.58l1.44,1.51,11.59-10.8L185.25,537a20.63,20.63,0,0,1-3.67,2.3,3.83,3.83,0,0,1-1.49.37,1.39,1.39,0,0,1-1.1-.44c-.22-.29-.5-.65-.79-1.08a13.92,13.92,0,0,1-1-1.87c-.43-.86-.86-1.73-1.3-2.74s-.94-2.16-1.44-3.6l10.8-10.08,9,4.54a4,4,0,0,0,.58.36l.5.5c.29.29.14.86-.36,1.8a19.8,19.8,0,0,1-2.45,3.1l1.44,1.51L205.48,521l24.91-15.55.07.21,17.06-6.55-.72-1.94c-.5.14-1.22.29-2.23.5a17.48,17.48,0,0,1-2,.22,2.72,2.72,0,0,1-1.73-.72,3.19,3.19,0,0,1-.94-1.51l-5.26-13.54,4.54-1.73a12,12,0,0,1,3.17-.79Z" transform="translate(-131.81 -204.59)" fill="#fff"/><path d="M376.91,468.5a5.93,5.93,0,0,1,1.36-.12c.39,0,.83,0,1.31,0a16.46,16.46,0,0,1,2.59.29l.65-1.94-16.34-5.33-.65,2a12.42,12.42,0,0,1,2.59,1.44,11,11,0,0,1,2.23,1.87,4.83,4.83,0,0,1,.5,3,31.88,31.88,0,0,1-1.3,5.54l-6.19,19.08L351,456.4l-11.45-3.67-.65,1.94a11.57,11.57,0,0,1,2.59,1.66,7.93,7.93,0,0,1,2.23,2.52,4.82,4.82,0,0,1,.58,2.38,8.7,8.7,0,0,1-.43,2.74l-6.41,19.73a23.4,23.4,0,0,1-2.16,5.47,4.13,4.13,0,0,1-2.09,1.94,2.7,2.7,0,0,1-.86.14l.07-.29a13.36,13.36,0,0,1-1.87-.43,7.77,7.77,0,0,1-1.73-.79,9.3,9.3,0,0,1-1.44-1.51,6.07,6.07,0,0,1-.86-1.94L315.06,449l-2.38-.14c-2.3,5-5,10.73-8,17.14s-5.76,12.17-8.28,17.28a10.64,10.64,0,0,1-1.44,2.3,6.38,6.38,0,0,1-1.94,1.58,9,9,0,0,1-1.94.58,11.29,11.29,0,0,1-1.94.22L289,490l15.84,1.15L305,489a14.19,14.19,0,0,1-4.18-1c-1.22-.58-1.8-1.22-1.73-2a5.87,5.87,0,0,1,.22-1.3,18,18,0,0,1,.72-2c.29-.87.72-1.8,1.08-2.81s1-2.16,1.66-3.46l14.69,1,2.81,9.65a2.14,2.14,0,0,1,.14.72,2,2,0,0,1,.07.65c-.07.43-.58.72-1.66,1a19.47,19.47,0,0,1-3.89.29l-.14,2.09,12.53.94-.07.22,16.42,5.4.65-2a26.57,26.57,0,0,1-2.45-1.44,6.71,6.71,0,0,1-2.3-2,5,5,0,0,1-.5-3.1,26.37,26.37,0,0,1,1.3-5.54l6.7-20.66,13.68,40.68,2.45.86,9.5-29.37a36.64,36.64,0,0,1,2-5A4.33,4.33,0,0,1,376.91,468.5Z" transform="translate(-131.81 -204.59)" fill="none"/><path d="M404.2,517.17l-1.8-1.22a28.16,28.16,0,0,1-4,2.38,17.22,17.22,0,0,1-4.75,1.87,1.66,1.66,0,0,1-.46.06,6,6,0,0,1-1.49-.27c-.72-.36-1.44-.65-2.16-1s-1.37-.86-2.23-1.44-1.58-1.15-2.16-1.51c-1.3-.94-2.3-1.73-3-2.3a4.7,4.7,0,0,1-1.3-1.8,3,3,0,0,1,.07-1.94,15.69,15.69,0,0,1,1.51-2.66l7.27-10.37,3.89,2.74a10.16,10.16,0,0,1,2.38,2.09,4.34,4.34,0,0,1,.86,2.45,10.71,10.71,0,0,1-.43,2.52,17.23,17.23,0,0,1-1.22,2.81l1.8,1.3,9.43-13.54-1.8-1.22a19,19,0,0,1-2.09,1.87,7.7,7.7,0,0,1-2.23,1.22,5.8,5.8,0,0,1-1.51.22,4,4,0,0,1-.79-.08,12.26,12.26,0,0,1-3-1.58L391,495l9.65-13.75,5.4,3.82c.94.65,1.66,1.22,2.38,1.73a18.22,18.22,0,0,1,1.66,1.44c.94.79,1.44,2.23,1.51,4.39A13.57,13.57,0,0,1,411,498l1.8,1.29L418.6,491l-26.71-18.72L390.66,474a16.32,16.32,0,0,1,1.58,1.58,7,7,0,0,1,1.37,1.8,2.9,2.9,0,0,1,.43,1.8,6.1,6.1,0,0,1-.72,1.58L375.9,505.58a3.44,3.44,0,0,1-1.3,1.22,2.21,2.21,0,0,1-1.13.29,3.45,3.45,0,0,1-.67-.07,17.31,17.31,0,0,1-1.8-.79c-.86-.43-1.58-.86-2.09-1.15l-1.22,1.73,28.73,20.09Z" transform="translate(-131.81 -204.59)" fill="none"/><path d="M281.22,451.58a4,4,0,0,1,2.16.94,12.49,12.49,0,0,1,2.23,2.16c.65.79,1.3,1.66,1.87,2.52a16.44,16.44,0,0,1,1.3,2.45l2-.29-1.37-11.3-36.5,4.46,1.44,11.3,2-.21q.22-1,.65-2.59a22.23,22.23,0,0,1,1.22-3,22.87,22.87,0,0,1,1.66-2.59,3.78,3.78,0,0,1,1.87-1.44c.79-.14,1.66-.36,2.59-.5s1.66-.22,2.23-.29l1.73-.22,4.1,33.7a3,3,0,0,1-.22,2,2.81,2.81,0,0,1-1.3,1.3,11.48,11.48,0,0,1-2.23.72c-1.15.22-1.94.43-2.52.58l.29,2.09,19.73-2.45-.29-2.09a4.89,4.89,0,0,1-.59,0c-.55,0-1.25-.05-2.07-.1a17.05,17.05,0,0,1-2.3-.29,2.86,2.86,0,0,1-1.58-1.08,3.61,3.61,0,0,1-.65-1.73l-4.1-33.48,1.73-.22,2.59-.22C279.85,451.65,280.57,451.58,281.22,451.58Z" transform="translate(-131.81 -204.59)" fill="none"/><path d="M441.28,515.73a29.12,29.12,0,0,0-1.44-4.46,15,15,0,0,0-3-4.39,13.3,13.3,0,0,0-4-2.88,11.86,11.86,0,0,0-4.54-1.22q-.52,0-1,0a12.35,12.35,0,0,0-3.59.55,12.13,12.13,0,0,0-7.42,8.57,13.82,13.82,0,0,0,.79,6.91c.43,1.22,1,2.74,1.73,4.32s1.29,3.1,1.87,4.39a9.28,9.28,0,0,1,.58,5.33,8.63,8.63,0,0,1-2.45,4.32,10.68,10.68,0,0,1-2.45,1.8,6.12,6.12,0,0,1-5.47-.14,11.16,11.16,0,0,1-2.88-2.23,10.07,10.07,0,0,1-2.59-4.18,11.91,11.91,0,0,1-.5-4.54,17.07,17.07,0,0,1,1.08-4.68,27.5,27.5,0,0,1,2.3-4.61l-1.73-1.73-10.08,10.3,1.66,1.73,2.45-.58a19.31,19.31,0,0,0,1.87,5,18.08,18.08,0,0,0,3.24,4.68,15.43,15.43,0,0,0,9.79,4.9q.54,0,1.07,0a11.66,11.66,0,0,0,8.36-3.5,11.24,11.24,0,0,0,2.52-3.31,9.34,9.34,0,0,0,1-3.67,12.71,12.71,0,0,0-.36-3.67,23.86,23.86,0,0,0-1.15-3.67,39.69,39.69,0,0,0-1.66-4c-.58-1.37-1.15-2.81-1.66-4.32a9.23,9.23,0,0,1-.43-4.75,7.63,7.63,0,0,1,2.38-4,5.48,5.48,0,0,1,4-1.68l.53,0a6.94,6.94,0,0,1,4.68,2.16,9.69,9.69,0,0,1,2.38,4,10.17,10.17,0,0,1,.22,4.18,20,20,0,0,1-1.37,4.32c-.72,1.37-1.44,2.81-2.3,4.25l1.66,1.73,9.86-9.86-1.66-1.73Z" transform="translate(-131.81 -204.59)" fill="none"/><path d="M446,516.13l-1.66-1.73-.47-.49-.66.15-1.1.25a27.52,27.52,0,0,0-1.2-3.51,16.16,16.16,0,0,0-3.26-4.75,14.55,14.55,0,0,0-4.39-3.14,13.1,13.1,0,0,0-5-1.34c-.33,0-.71,0-1.08,0a13.5,13.5,0,0,0-3.93.6h-.05a13.32,13.32,0,0,0-8.2,9.5,15.07,15.07,0,0,0,.84,7.51c.55,1.57,1.15,3.06,1.77,4.42.33.75.63,1.48.92,2.16s.63,1.51.94,2.19a8.08,8.08,0,0,1,.51,4.61,7.39,7.39,0,0,1-2.1,3.7,9.43,9.43,0,0,1-2.15,1.59,4.91,4.91,0,0,1-4.42-.13,9.94,9.94,0,0,1-2.54-2,9,9,0,0,1-2.32-3.7,10.65,10.65,0,0,1-.46-4.08,15.77,15.77,0,0,1,1-4.36,26.54,26.54,0,0,1,2.19-4.39l.52-.81-.68-.68L407.35,516l-.86-.86-.85.87-.43.44-.34-.23-1.8-1.22-.73-.5-.69.55a27.27,27.27,0,0,1-3.84,2.25A16.3,16.3,0,0,1,393.4,519h-.06l-.06,0h-.13a4.83,4.83,0,0,1-1.06-.2l-1-.47c-.34-.15-.68-.31-1-.48s-1-.62-1.61-1l-.52-.35-1-.69c-.44-.32-.82-.59-1.19-.82-1.28-.93-2.27-1.71-2.92-2.23a3.55,3.55,0,0,1-.95-1.3,1.81,1.81,0,0,1,.07-1.11,14.88,14.88,0,0,1,1.38-2.41l6.57-9.36,2.9,2A8.9,8.9,0,0,1,395,502.5a3.13,3.13,0,0,1,.61,1.75,9.46,9.46,0,0,1-.38,2.13,16.11,16.11,0,0,1-1.13,2.58l-.51.93.86.62,1.8,1.3,1,.71.7-1L407.34,498l.69-1-1-.68-1.8-1.22-.82-.56-.7.7a17.75,17.75,0,0,1-2,1.76,6.47,6.47,0,0,1-1.86,1,4.55,4.55,0,0,1-1.17.17,2.88,2.88,0,0,1-.5,0,11.25,11.25,0,0,1-2.65-1.42l-2.88-2L401,482.92l4.42,3.12c.51.36,1,.68,1.37,1l1,.72a17.07,17.07,0,0,1,1.52,1.32l0,0,0,0c.66.56,1,1.75,1.09,3.52a12.42,12.42,0,0,1-.56,4.92l-.35.87.76.55,1.8,1.29,1,.71.7-1,5.83-8.35.69-1-1-.69-26.71-18.72-1-.69-.69,1-1.22,1.73-.64.9.85.71a15.22,15.22,0,0,1,1.46,1.47l0,0,0,0a5.84,5.84,0,0,1,1.14,1.49v0a1.83,1.83,0,0,1,.3,1,4.91,4.91,0,0,1-.54,1.15l-17.41,24.81,0,0,0,0a2.25,2.25,0,0,1-.81.79l0,0,0,0a1,1,0,0,1-.53.13,2.21,2.21,0,0,1-.4,0c-.15,0-.57-.25-1-.44l-.59-.27c-.64-.32-1.22-.66-1.69-.93l-.3-.17-.94-.54-.63.89-1.22,1.73-.7,1,1,.69,28,19.58.55.57,1.66,1.73.47.49.67-.16,1.3-.31a20.45,20.45,0,0,0,1.67,4.08,19.3,19.3,0,0,0,3.44,5A16.54,16.54,0,0,0,415.31,544c.41,0,.8,0,1.18,0a12.84,12.84,0,0,0,9.2-3.84,12.38,12.38,0,0,0,2.77-3.67,10.51,10.51,0,0,0,1.12-4.11,13.81,13.81,0,0,0-.39-4,25.06,25.06,0,0,0-1.21-3.85,40.57,40.57,0,0,0-1.67-4.08c-.47-1.12-1.08-2.61-1.61-4.2a8.1,8.1,0,0,1-.39-4.14,6.44,6.44,0,0,1,2-3.4,4.3,4.3,0,0,1,3.18-1.35l.44,0a5.76,5.76,0,0,1,3.93,1.81,8.49,8.49,0,0,1,2.07,3.43,9,9,0,0,1,.19,3.65,18.72,18.72,0,0,1-1.27,4l-.43.82c-.57,1.09-1.16,2.22-1.83,3.34l-.47.79.63.66,1.66,1.73.85.88.87-.87,9.86-9.86.83-.83Z" transform="translate(-131.81 -204.59)"/><path d="M404.2,517.17l-1.8-1.22a28.16,28.16,0,0,1-4,2.38,17.22,17.22,0,0,1-4.75,1.87,1.66,1.66,0,0,1-.46.06,6,6,0,0,1-1.49-.27c-.72-.36-1.44-.65-2.16-1s-1.37-.86-2.23-1.44-1.58-1.15-2.16-1.51c-1.3-.94-2.3-1.73-3-2.3a4.7,4.7,0,0,1-1.3-1.8,3,3,0,0,1,.07-1.94,15.69,15.69,0,0,1,1.51-2.66l7.27-10.37,3.89,2.74a10.16,10.16,0,0,1,2.38,2.09,4.34,4.34,0,0,1,.86,2.45,10.71,10.71,0,0,1-.43,2.52,17.23,17.23,0,0,1-1.22,2.81l1.8,1.3,9.43-13.54-1.8-1.22a19,19,0,0,1-2.09,1.87,7.7,7.7,0,0,1-2.23,1.22,5.8,5.8,0,0,1-1.51.22,4,4,0,0,1-.79-.08,12.26,12.26,0,0,1-3-1.58L391,495l9.65-13.75,5.4,3.82c.94.65,1.66,1.22,2.38,1.73a18.22,18.22,0,0,1,1.66,1.44c.94.79,1.44,2.23,1.51,4.39A13.57,13.57,0,0,1,411,498l1.8,1.29L418.6,491l-26.71-18.72L390.66,474a16.32,16.32,0,0,1,1.58,1.58,7,7,0,0,1,1.37,1.8,2.9,2.9,0,0,1,.43,1.8,6.1,6.1,0,0,1-.72,1.58L375.9,505.58a3.44,3.44,0,0,1-1.3,1.22,2.21,2.21,0,0,1-1.13.29,3.45,3.45,0,0,1-.67-.07,17.31,17.31,0,0,1-1.8-.79c-.86-.43-1.58-.86-2.09-1.15l-1.22,1.73,28.73,20.09Z" transform="translate(-131.81 -204.59)" fill="#fff"/><path d="M441.28,515.73a29.12,29.12,0,0,0-1.44-4.46,15,15,0,0,0-3-4.39,13.3,13.3,0,0,0-4-2.88,11.86,11.86,0,0,0-4.54-1.22q-.52,0-1,0a12.35,12.35,0,0,0-3.59.55,12.13,12.13,0,0,0-7.42,8.57,13.82,13.82,0,0,0,.79,6.91c.43,1.22,1,2.74,1.73,4.32s1.29,3.1,1.87,4.39a9.28,9.28,0,0,1,.58,5.33,8.63,8.63,0,0,1-2.45,4.32,10.68,10.68,0,0,1-2.45,1.8,6.12,6.12,0,0,1-5.47-.14,11.16,11.16,0,0,1-2.88-2.23,10.07,10.07,0,0,1-2.59-4.18,11.91,11.91,0,0,1-.5-4.54,17.07,17.07,0,0,1,1.08-4.68,27.5,27.5,0,0,1,2.3-4.61l-1.73-1.73-10.08,10.3,1.66,1.73,2.45-.58a19.31,19.31,0,0,0,1.87,5,18.08,18.08,0,0,0,3.24,4.68,15.43,15.43,0,0,0,9.79,4.9q.54,0,1.07,0a11.66,11.66,0,0,0,8.36-3.5,11.24,11.24,0,0,0,2.52-3.31,9.34,9.34,0,0,0,1-3.67,12.71,12.71,0,0,0-.36-3.67,23.86,23.86,0,0,0-1.15-3.67,39.69,39.69,0,0,0-1.66-4c-.58-1.37-1.15-2.81-1.66-4.32a9.23,9.23,0,0,1-.43-4.75,7.63,7.63,0,0,1,2.38-4,5.48,5.48,0,0,1,4-1.68l.53,0a6.94,6.94,0,0,1,4.68,2.16,9.69,9.69,0,0,1,2.38,4,10.17,10.17,0,0,1,.22,4.18,20,20,0,0,1-1.37,4.32c-.72,1.37-1.44,2.81-2.3,4.25l1.66,1.73,9.86-9.86-1.66-1.73Z" transform="translate(-131.81 -204.59)" fill="#fff"/><polygon points="173.07 268.7 183.93 269.45 179.4 255.06 173.07 268.7" fill="none"/><path d="M383.19,465.63l-16.34-5.33-1.15-.37-.37,1.15-.65,2-.36,1.13,1.13.38a11.57,11.57,0,0,1,2.31,1.3,10.08,10.08,0,0,1,1.93,1.59,4.13,4.13,0,0,1,.27,2.14,30.92,30.92,0,0,1-1.25,5.29l-5.06,15.59L352.13,456l-.19-.58-.58-.19-11.45-3.67-1.13-.36-.38,1.13-.65,1.94-.36,1.07,1.05.42a10.5,10.5,0,0,1,2.3,1.49,6.78,6.78,0,0,1,1.9,2.11v0a3.64,3.64,0,0,1,.42,1.79,7.54,7.54,0,0,1-.37,2.36l-6.41,19.74a21.78,21.78,0,0,1-2,5.19l0,0,0,0a3.35,3.35,0,0,1-1.17,1.28l-.5-.07a12.28,12.28,0,0,1-1.7-.39,6.23,6.23,0,0,1-1.37-.62,7.81,7.81,0,0,1-1.16-1.23,4.93,4.93,0,0,1-.68-1.56l-11.46-37.33-.24-.8-.83-.05-2.38-.14-.82-.05-.34.75c-1.18,2.57-2.47,5.33-3.84,8.24s-2.71,5.76-4.15,8.89c-3.19,6.75-5.81,12.27-8.27,17.25a9.49,9.49,0,0,1-1.27,2l0,0,0,0a5.11,5.11,0,0,1-1.52,1.23,7.82,7.82,0,0,1-1.62.47,10.21,10.21,0,0,1-1.73.2H288l-.08,1.12-.14,2.09-.08,1.19,1.19.09,15.84,1.15,1.2.09.08-1.2.14-2.16.08-1.17-1.17-.11a13,13,0,0,1-3.8-.91c-.72-.34-1-.65-1-.81V486a4.67,4.67,0,0,1,.18-1,17.08,17.08,0,0,1,.66-1.85l0,0v0c.14-.43.33-.89.53-1.38s.36-.9.53-1.37c.34-.78.78-1.69,1.26-2.64l13.05.9,2.57,8.84a1.27,1.27,0,0,1,.1.38v.2l0,.07a5.66,5.66,0,0,1-.69.22,18.49,18.49,0,0,1-3.61.26H313.8l-.08,1.12-.14,2.09-.08,1.19,1.19.09,11.44.85.73.24,16.42,5.4,1.15.38.37-1.15.65-2,.32-1-.92-.46a25.41,25.41,0,0,1-2.33-1.38,6,6,0,0,1-1.91-1.6,3.92,3.92,0,0,1-.35-2.37v-.07a26.13,26.13,0,0,1,1.25-5.26l5.57-17.18,12.52,37.23.19.55.55.19,2.45.86,1.16.41.38-1.17,9.5-29.37a35.28,35.28,0,0,1,1.93-4.78,3.44,3.44,0,0,1,1.52-1.71,5.28,5.28,0,0,1,1-.07c.35,0,.75,0,1.23,0a16.74,16.74,0,0,1,2.38.25l1.08.27.35-1.05.65-1.94.38-1.15Z" transform="translate(-131.81 -204.59)"/><path d="M368.41,464.9a11,11,0,0,1,2.23,1.87,4.83,4.83,0,0,1,.5,3,31.88,31.88,0,0,1-1.3,5.54l-6.19,19.08L351,456.4l-11.45-3.67-.65,1.94a11.57,11.57,0,0,1,2.59,1.66,7.93,7.93,0,0,1,2.23,2.52,4.82,4.82,0,0,1,.58,2.38,8.7,8.7,0,0,1-.43,2.74l-6.41,19.73a23.4,23.4,0,0,1-2.16,5.47,4.13,4.13,0,0,1-2.09,1.94,2.7,2.7,0,0,1-.86.14l.07-.29a13.36,13.36,0,0,1-1.87-.43,7.77,7.77,0,0,1-1.73-.79,9.3,9.3,0,0,1-1.44-1.51,6.07,6.07,0,0,1-.86-1.94L315.06,449l-2.38-.14c-2.3,5-5,10.73-8,17.14s-5.76,12.17-8.28,17.28a10.64,10.64,0,0,1-1.44,2.3,6.38,6.38,0,0,1-1.94,1.58,9,9,0,0,1-1.94.58,11.29,11.29,0,0,1-1.94.22L289,490l15.84,1.15L305,489a14.19,14.19,0,0,1-4.18-1c-1.22-.58-1.8-1.22-1.73-2a5.87,5.87,0,0,1,.22-1.3,18,18,0,0,1,.72-2c.29-.87.72-1.8,1.08-2.81s1-2.16,1.66-3.46l14.69,1,2.81,9.65a2.14,2.14,0,0,1,.14.72,2,2,0,0,1,.07.65c-.07.43-.58.72-1.66,1a19.47,19.47,0,0,1-3.89.29l-.14,2.09,12.53.94-.07.22,16.42,5.4.65-2a26.57,26.57,0,0,1-2.45-1.44,6.71,6.71,0,0,1-2.3-2,5,5,0,0,1-.5-3.1,26.37,26.37,0,0,1,1.3-5.54l6.7-20.66,13.68,40.68,2.45.86,9.5-29.37a36.64,36.64,0,0,1,2-5,4.33,4.33,0,0,1,2.23-2.3,5.93,5.93,0,0,1,1.36-.12c.39,0,.83,0,1.31,0a16.46,16.46,0,0,1,2.59.29l.65-1.94-16.34-5.33-.65,2A12.42,12.42,0,0,1,368.41,464.9Z" transform="translate(-131.81 -204.59)" fill="#fff"/><path d="M292,459.21l-1.37-11.3-.14-1.19-1.19.15-36.5,4.46-1.2.15.15,1.2,1.44,11.3.15,1.17,1.17-.12,2-.21.86-.09.19-.84c.13-.61.34-1.43.63-2.51a20.92,20.92,0,0,1,1.15-2.83,21.39,21.39,0,0,1,1.55-2.42,2.64,2.64,0,0,1,1.21-1l.9-.18c.51-.11,1-.22,1.57-.3s1.18-.17,1.68-.22l.52-.06.54-.07,4,32.5v.05a2,2,0,0,1-.07,1.22l0,.06,0,.06a1.69,1.69,0,0,1-.78.72,13.29,13.29,0,0,1-1.91.6c-1,.18-1.71.37-2.25.51l-.3.08-1,.26.15,1.07.29,2.09.16,1.17,1.17-.15,19.73-2.45,1.21-.15-.17-1.21-.29-2.09-.16-1.17-1.18.15-.45,0c-.43,0-1,0-1.64-.08l-.35,0a16.45,16.45,0,0,1-2.08-.25,1.65,1.65,0,0,1-.9-.61,2.4,2.4,0,0,1-.43-1.16l-4-32.3.54-.07,2.54-.21.54,0c.67-.05,1.2-.1,1.67-.1a2.85,2.85,0,0,1,1.45.71,11.22,11.22,0,0,1,2,2c.65.79,1.27,1.63,1.8,2.42a15.17,15.17,0,0,1,1.18,2.23l.35.88.93-.13,2-.29,1.16-.17Z" transform="translate(-131.81 -204.59)"/><path d="M252.93,452.52l1.44,11.3,2-.21q.22-1,.65-2.59a22.23,22.23,0,0,1,1.22-3,22.87,22.87,0,0,1,1.66-2.59,3.78,3.78,0,0,1,1.87-1.44c.79-.14,1.66-.36,2.59-.5s1.66-.22,2.23-.29l1.73-.22,4.1,33.7a3,3,0,0,1-.22,2,2.81,2.81,0,0,1-1.3,1.3,11.48,11.48,0,0,1-2.23.72c-1.15.22-1.94.43-2.52.58l.29,2.09,19.73-2.45-.29-2.09a4.89,4.89,0,0,1-.59,0c-.55,0-1.25-.05-2.07-.1a17.05,17.05,0,0,1-2.3-.29,2.86,2.86,0,0,1-1.58-1.08,3.61,3.61,0,0,1-.65-1.73l-4.1-33.48,1.73-.22,2.59-.22c.94-.07,1.66-.14,2.3-.14a4,4,0,0,1,2.16.94,12.49,12.49,0,0,1,2.23,2.16c.65.79,1.3,1.66,1.87,2.52a16.44,16.44,0,0,1,1.3,2.45l2-.29-1.37-11.3Z" transform="translate(-131.81 -204.59)" fill="#fff"/><path d="M308.59,285.66a15.66,15.66,0,0,1-6.67-2.31,19.75,19.75,0,0,0-12.57-2.81A68.85,68.85,0,0,0,278,282.78a82.43,82.43,0,0,1-9.39,2,88.44,88.44,0,0,1-36-2.16,1.74,1.74,0,0,1-1.09-1.3,2.39,2.39,0,0,1,.92-2.41c3.64-3.42,12.39-13.17,14.94-29.73.83-5.67-.28-15.82-2.23-16.79-.07-3.4-.7-5.22-1.93-5.55.53-3.14-.4-4.6-2-5.81-.17-3.16-1.44-5.94-2.92-6.34-.53-.14-1.34,0-2.17,1.23-.55.86-1.12,1.76-1.69,2.68-4.34,6.9-9.26,14.71-16.79,20.91a38.1,38.1,0,0,0-11.64,17.34,107.84,107.84,0,0,0-26.25-25.55,45.88,45.88,0,0,1-14.29-16.45,3.33,3.33,0,0,0-2.33-2,3.52,3.52,0,0,0-3,1.34c-1.45,1.52-2.88,3.21-3.05,5.78-1.32.95-1.7,4.39-1.31,6.27-1.52,1-1.55,5.26-.5,8-.56,1.17-.24,2.67.07,4.12a16,16,0,0,1,.37,2.23c.21,3.76.65,8.07,3.33,11.58a63.12,63.12,0,0,0,8.47,8.91,63,63,0,0,1,8.45,8.88c2.72,3.78,5.08,9,3.58,12.23-.85,1.85-2.85,2.91-5.95,3.16a63.61,63.61,0,0,1-12.94.14.26.26,0,0,0-.29.11c-.23.38.66,1.64.77,1.79a1.34,1.34,0,0,1,.08,1.55,1.07,1.07,0,0,1-1.2.57C154,288,148.6,285.17,145,281.44h0c-1-1-1.8-1-2.21-.68s-.52,1.1.31,2.26a35.18,35.18,0,0,0,12,10.54c5.48,2.85,11.36,4.53,17,6.16,2,.56,4,1.15,6,1.77a29,29,0,0,1,4,1.76,29.37,29.37,0,0,0,3.8,1.7,68.76,68.76,0,0,0,13.2,2.52,90.27,90.27,0,0,0,9.38.48,105.06,105.06,0,0,0,19-1.77c5.24-.94,11.6-3.27,17.75-5.53a127.35,127.35,0,0,1,16-5.13c11-2.31,18.23-3.66,28.48-2.37,5.22.67,8.79-.73,12.24-2.07a26.39,26.39,0,0,1,6.8-2c2.27-.25,3.56-.87,3.54-1.7S310.79,285.81,308.59,285.66Z" transform="translate(-131.81 -204.59)" fill="#231f20"/><path d="M224.34,275.9c-1.8-1.66-5.11-3.74-16.63-16.63-.36-.43.36-1.15.5-1.87,1.3-6.55,5.33-11.66,10.87-16.27,8.35-7.06,12.53-15.62,18.94-24.12.65.94.65,2.23,1.08,3.31s-8,13.25-8.71,13.9c-.14.22.14.86,1,.29,2.3-1.58,6.91-7.56,8.57-10.3.43-.65,1.08-.07,1.15.07.36,1-4.1,8.78-7.2,12.1-.07.14.22,1.15.86.58,2.23-1.87,7.42-9.72,8-7.27.29,1-2.74,5.76-4.1,8.14-.14.22.58.72,1.15.14,1.51-1.51,3.82-5.54,4.54-3.1,4.82,14.26-2.74,30.46-12.17,41.18-.5.65-1.08,1.22-1.58,1.8-.29,1.8-4.1-.07-6.26-1.94Zm-2.16.29c-10.3-8.14-17.28-18.58-26-28.08-10.8-11.38-25-18-32.47-32.26-1.44-2.45-3.17.94-4,3.38-.29.79,5,7.06,5.4,8.93.14.22-.22,1.51-.79,1-1.8-1.73-5.83-7.27-6-7a6.93,6.93,0,0,0-.29,3.67c.07.36,3.74,4.39,3.82,4.82.36.43.72,2.81-.07,2.38-1.44-.72-4.61-4.68-4.75-4.25a4.4,4.4,0,0,0,0,3.31,27.07,27.07,0,0,0,4.75,5.47c.86.79.22,2.3-1.51,1-1.51-.36-3-1.51-3-.58.22,4,1.3,9.07,2.88,11.81,2.38,4.1,15.12,14.4,20.3,23.4a40.47,40.47,0,0,1,3.24,6.62c.58,1,2.88,2.09,4.46,2.16,5.69,0,11.23-1.51,16.85-1.8,2.74-.14,4.61-2.3,3.17-5.33-1.8-3.67-2-8.06-4.18-11.45a64.36,64.36,0,0,0-11.81-13.54c-1.51-1.3-.36-2.3,1.22-1.15a55.15,55.15,0,0,1,9.43,8.28c3.17,3.53,4.39,8.42,6.55,12.67s5.54,7.63,9.43,11c.58.5.58,2.16-.14,2.23-3.74.43-7,0-10.73.07-6.12.07-12.74.5-18.79,1a23.47,23.47,0,0,0-3.24.29c-1.66.43-2.59,1.22-4.54,1.8a16.11,16.11,0,0,0-1.8.79c-2.59.94-7.49.72-10.3.86-.86.07-3.46,0-3.38.07,3.46,3.38,3.1,3.67-10.22,2.59,2.45,1.94.36,1.37,3.1,2.52,1.66.72,9.94-.65,11.74-.58,4.39.14,15.12.07.5,2.45-1.37.22-1.15,2.66.29,3.24,3,1.15,3.89-.94,6.48-1.3.86-.07,1.3,1.15,2.16.72,3.17-1.58,7.78-1.87,10-.43,3.67,1.3,9,5.83,11.52,4,3.38-2.52,4.1,1,1.73,2.52-.94.65-1.44,2.16.22,2.23,13.25.86,26.93-1.94,39.24-6.48,15.19-5.54,31-10.3,47.38-8.28,7.78.86,16.63-2.81,9.07-6.84-9.79-4.54-21.6,1.51-31.61,2.81-3.38.43-32.62,2-37.51-4.18C229.45,282.09,224.13,278.28,222.18,276.19Z" transform="translate(-131.81 -204.59)" fill="#fff" fill-rule="evenodd"/><path d="M183.09,300c3.46-.79,5.18-1.22,8.28.29,1.15.58,9.94,4,3.38,4C192,304.27,179.92,300.74,183.09,300Z" transform="translate(-131.81 -204.59)" fill="#fff" fill-rule="evenodd"/><path d="M294.33,243.5c-.07-1.3-1.87-2.74-1.15-3.89s2.66-.79,3.89-.36a38,38,0,0,0,18.14.94c14-2.74,27.58-9.07,42-9.72,13-.58,25.63,4,38.45,6.12,14.33,2.38,29,2,37.22-.72a16.8,16.8,0,0,1,9.43,0c3.46.94,3.74,3,9.72,3.31,2.3.14,2.45,2.3.29,2.45-4.61.43-5.62.79-8.42,2-4.32,2-9.07,3.6-13.82,3.24-14.18-1.08-29.09,1.22-44.28,6a34.29,34.29,0,0,1-3.74.72c1.15,1.15,3.46,1.8,3.38,3.38-.72,8.71-3,17.28-5.62,25.63-1.15,3.67-2.88,7.42-5.62,10.08-4.68,4.46-10.73,7.2-16.06,10.8-2.37,3.24-4.9,4.32-7.42,4-2.66,2.81-4.32,2.59-5.83,2.23-3.53,2-5.83,2.09-7.13.58a104.33,104.33,0,0,0,5.4-19.3,5,5,0,0,1-3.53,2.3c-1.08,2.52-2.74,3-4.68,2.59a12.77,12.77,0,0,1-6.55,2c-2.52,1.51-5,3.31-7.56.22,9.86-14.11,4-32.54,10.73-41.11-17.78-1.3-23.18-7.49-32.18-8-1.94-.14-4.54,1.73-5.83.36S294.4,245.45,294.33,243.5Z" transform="translate(-131.81 -204.59)" fill="#231f20" fill-rule="evenodd"/><path d="M341.41,289.94c-.94,1.15,1.44-9.79-3.17,1.51-2.09,3.46.65-6,1.08-8.86.29-1.87-1.22-2.45-1.66.43-.22,1.87-1.44,5.4-4.18,11.3-1.44,1.22-3.74.65-2.45-1.51a103.46,103.46,0,0,0,3-10.44c.22-1.58-.65-1.51-.65-1.3a59,59,0,0,1-4.68,13.18A8.82,8.82,0,0,1,326,297a3.79,3.79,0,0,1-2.52.72c5.47-9.43,5.33-19.51,6.55-30a21.52,21.52,0,0,1,3.17-9.36A2.82,2.82,0,0,1,336,258c1.22.36,9.65,1.87,9.43,5.83-.36,7.2.29,15.84-1.15,23.18-.22,1.37-1.15,4-2.88,3Zm6.77-20.59c.07,4.9-.79,9-1.58,13.9-1.58,8.78-3.17,16.85-6.12,25.27-.65,2.52,3.82-1.51,4.32-3,.29,0,1.37-3.46,1.58-5.83.14-1.37,1.37-.36,1.08,2.3-.29,2.88-1.37,5.62-1,5.62,4-.29,4.9-6.12,6.34-9.36,1-2.3,1.94.94.36,3.67-1.22,2.16.5,2.81,1.73,1.51a18.09,18.09,0,0,0,2.81-5c.36-.94,1.3-1,1.15.29-.07.79-.58,2.3.07,1.87,7-5.4,15.19-7.56,18.65-17.57a113.43,113.43,0,0,0,5.76-25.34c0-.22-6.84-4.25-9.29-6.48-1.08-1-.65-1.8.65-1.44,4.1,1.08,6.55,2,8.21,1.66,9.79-2.23,19.3-5,29.3-6.12a104.38,104.38,0,0,1,18.36-.29c4.61.14,8.86-1.44,13-3.31,2.66-1.15,3.38-1.73.79-3.1-4-2.09-6.55-2.16-11.74-.5a71.28,71.28,0,0,1-19.87,2.09c-2.16-.07-4.39-.14-6.55-.29-19.73-1.51-38-9.94-58-6.26-17.71,3.53-33.91,12.67-52.2,7.42-.94-.22-.65-.07-.29.65.72,1.51-.43,6.19-.36,6.12,8.06-2,16.34,2.74,24.34,5.18,4,1.3,9.22.29,13.32.29,1.51-.07,2.23-1.08,3.6-.86s3.6,1.44,5.18,1.66c.94.14,1.94.29,3,.36,0,.07,3.89.22,3.82-1.73-.07-1.3,1-1.73,1.22-.72.43,1.8,2.66,4.82,2.52,5-.43.36,1.58.14,1.22,1.8s-1.66,5-3.17,6.48C349.91,265.82,348.11,265.25,348.18,269.35Z" transform="translate(-131.81 -204.59)" fill="#fff" fill-rule="evenodd"/><path d="M249.47,321.48c6.34,6.34,15.91,14.76,22.46,21-.07-4.25,1.37-6.91,2.66-6.41-.07-2.59.65-4.32,1-6.91-1.51-6.55-.72-7.13,1.22-9.14.58-.65,2.3.07,2.52.94,2.52,9.36,9.94,18.94,19.66,27.79,3.24,3,7.13,6,8.35,10.15,5,17.14,13.68,33.7,40.54,29.3,8.5-1.37,16.78-3.67,25.2-5.4,4.18-.86,5.47-.94,9.65,1.66A44.78,44.78,0,0,0,393.9,390a1,1,0,0,1-.22,1.87c-4.39.36-8.42-.22-12.74,1.15-6.41,2.09-11.59,1.22-17.14,1.66-12.82,1-24.7,7.13-36.58,8.06-13,1.15-21.53,5.33-34.92,7.2-10.15,1.37-25.49-2.23-35.14-5.76-9.86-3.53-19.08-5.54-29-7.63-.94-.22-1.37-3-.43-2.81,6.41.79,5-.94.07-3.17-.94-.43.36-1.8,1.08-1.44,6.48,3.31,3.82,1.08,2.59-.86-2.38-3.67,9.79,2.16,14,1.3,6.26-1.22,13-3.53,13.25-9.94.22-7.56-7.7-9.72-10.66-15-1.58-2.81-3.31-3.46-2.81-9.07.22-2.23.07-6.7,1.37-6.7-1.94-2.45-2.52-8.86-1-8.93-1.3-2.81-1-9.86.72-9.29C244.14,329.25,247.24,319.25,249.47,321.48Z" transform="translate(-131.81 -204.59)" fill="#231f20" fill-rule="evenodd"/><path d="M252.49,390c9.07-3.67,11.74-5,13.75-4.9.29,0,1.3-.07,2.59-.14,2.23-.07,5.18-.22,7.06-.22,2.45-.07,17.71.22,18.58.72,3.6,2.16,4.75-.86.07-4-10.3-6.91-9.65-19.87-16.7-26.57-1.37-1.3-2.88.5-1.58,1.8,2.3,2.3,5.33,7.2,6,9.79l1.37,5.26,3.74,6.41c1.15,1.94.22,3.53-2.23,4-3.53.65-10.08.07-13.75.14-2.59.07-6.77.5-8.5,1.44-.43.29-1.15-.07-1.15-.94.14-3-.94-4.54-1.22-5.83a9.57,9.57,0,0,0-.79-2.3c-2.16-4.68-7.42-7.2-10.22-11.74a11.3,11.3,0,0,1-2.09-3.89,25.11,25.11,0,0,1,.29-8.35c.14-.72,5.83,3.67,6.19,2.23.5-1.87-5.54-4.68-6.12-5.69a13.56,13.56,0,0,1-.94-5.62c0-.29,8.71,7.34,8.86,5,.14-1.73-8.14-7.13-8.35-7.92a12.34,12.34,0,0,1-.29-5.83c.14-1.08,11.52,11.09,11.74,8.35.22-3.38-11.59-9.14-11.16-13.61a10.83,10.83,0,0,1,1.08-3.67c.22-.5.29-.14.65.14,6.7,6.62,13.82,12.82,20.59,19.3a49,49,0,0,0,5.26,4.68c7.27,4.82,6.12,7.92,9.65,13.18a77.51,77.51,0,0,0,16.34,17.35c7,5.11,17.93,12.17,30.31,12.89,15.77,1,33.55-5.11,43.06-6.91a6.89,6.89,0,0,1,3.82-.07c3.46,1,2.88,1,5.69,3.31a2,2,0,0,1-.5,3.17c-5.18,1.66-5.69,1.22-11.09,1.44-1.51.07-3,.07-4.54.07-14.62.14-27.72,6.91-42.12,8.42s-28.15,8.28-42.91,7.13c-2.23-.22,0-1.8,2.23-2.09a12,12,0,0,1,5.83.5c.94.43,2.09-4,.14-3.74-3,.43-8.78,2.66-13.32,2.38-10.22-.65-12.38-7.13-17.28-6.7-4.68.43-2.66,2.09-.94,2.16,2.81.07,5,2.09,7,3.1,1.73.94,1.44,1.8.72,1.58-2.88-.72-5.76-1.66-8.57-2.59-8.35-3-11.45-3.53-20.16-5.47-3.17-.72-7.63-6.12,2.38-5.26A24.78,24.78,0,0,0,252.49,390Zm52.92-11.45c4.68,2.3,6.26,2.52,6.48,1.37a5,5,0,0,0-.29-2.38,32.26,32.26,0,0,0-2.09-6.84c-3.17-7-3.38-12.74-9-18-9.36-8.57-18.94-17.86-22.82-30.31-.07-.22,0-.43-.22-.22-3.67,4.25,3.46,14.83,5.76,17.86,1.44,1.94-.22,2-.79,1.3a53.52,53.52,0,0,1-4.9-8c-.29-.58-.58-.79-.58-.72a14.6,14.6,0,0,0-.43,3c0,.86,2.88,5.54,4.18,7.34.22.36-.36.79-.43.94-.65,1.8-5.4-6.34-5.76-5.62a9.43,9.43,0,0,0-.58,3.46c-.07,1.22,5.9,6.91,9.07,10.58.43.43.86,4,3,7C291.23,366.62,301.09,377,305.41,378.57Z" transform="translate(-131.81 -204.59)" fill="#fff" fill-rule="evenodd"/><path d="M375.9,385.85c-1.51,0-2.74.65-2.74,1.37s1.22,1.37,2.74,1.37,2.74-.58,2.74-1.37S377.41,385.85,375.9,385.85Z" transform="translate(-131.81 -204.59)" fill="#231f20" fill-rule="evenodd"/><path d="M438.61,238.25c-1.44,0-2.59.5-2.59,1.15s1.15,1.15,2.59,1.15,2.66-.5,2.66-1.15S440.13,238.25,438.61,238.25Z" transform="translate(-131.81 -204.59)" fill="#231f20" fill-rule="evenodd"/><path d="M292.74,284.4c1.51,0,2.74.43,2.74.94s-1.22.94-2.74.94-2.81-.43-2.81-.94S291.16,284.4,292.74,284.4Z" transform="translate(-131.81 -204.59)" fill="#231f20" fill-rule="evenodd"/><polygon points="34.58 305.52 40.15 319.36 48.03 312 34.58 305.52"/><polygon points="36.47 307.54 40.53 317.63 46.28 312.27 36.47 307.54" fill="#27397d"/><polygon points="179.91 252.71 173.49 266.18 184.24 267 179.91 252.71"/><polygon points="179.7 255.47 175.02 265.29 182.86 265.89 179.7 255.47" fill="#27397d"/></svg>