<svg xmlns="http://www.w3.org/2000/svg" viewBox="0 0 566.9 559.5"><title>arborg</title><path d="M-133.5-158.6c42.6-36,119.5-45,208.7-44.8,83.9.2,157.4,9.1,208.3,44.8V67.8c0,113.5-21.1,207.7-208.2,255.8C-77.1,280.1-133.5,225.1-133.5,68.5v-227Z" transform="translate(208.8 204.1)" fill="#fff" fill-rule="evenodd"/><polygon points="75.7 304.5 240.4 195 240.4 248.9 81.7 354.4 78.4 334 75.7 304.5 75.7 304.5" fill="#3e51a3" fill-rule="evenodd"/><polygon points="93.2 394.8 240.4 296.9 240.4 350.8 114.8 434.3 100.5 412.3 93.2 394.8 93.2 394.8" fill="#3e51a3" fill-rule="evenodd"/><polygon points="142.7 464.3 240.4 399.4 240.4 453.3 183.7 490.9 163.4 479.1 142.7 464.3 142.7 464.3" fill="#3e51a3" fill-rule="evenodd"/><polygon points="75 203 240.4 93 240.4 146.9 75 256.9 75 203 75 203" fill="#3e51a3" fill-rule="evenodd"/><polygon points="74.9 100.1 221.7 2.5 240.4 2.1 240.4 43.9 75.2 153.7 74.9 100.1 74.9 100.1" fill="#3e51a3" fill-rule="evenodd"/><path d="M28.2-201.6c16.2-.6,32-.7,46.7-.6,42.3.1,88.2,1.7,130.8,11.8,27.3,6.5,53.8,16.3,77,31.9v227c0,27.2-1,54.4-6,81.1-3.6,19.2-9,37-17.9,54.4-13,25.4-29.3,45.1-52,62.2-39.2,29.4-84.5,45-131.5,57.8-15.6-4.6-32.5-9.9-46.9-15V-201.6Z" transform="translate(208.8 204.1)" fill="#00ade4" fill-rule="evenodd"/><path d="M-135-159.1c42.8-36.2,120.1-45.3,210-45,84.4.2,158.3,9.2,209.5,45V68.6c0,114.2-21.2,208.9-209.4,257.3C-78.3,282.2-135,226.8-135,69.3V-159.1Zm2.4,1.1c20.4-16.4,44.7-25.7,71.4-32.1,44.6-10.7,94.8-11.8,136.2-11.7s88.2,1.9,130.8,12c27.3,6.5,53.1,16.3,76.3,31.9V68.6c0,27.2-1.2,54.4-6.2,81.1-3.6,19.2-9,36.8-17.9,54.2-13,25.4-29.6,44.8-52.4,61.9C166.3,295.3,122,310.7,75,323.5c-46.9-13.8-92.9-28.9-132.4-58.3-21.5-16-37.1-34.2-49.5-58-9.9-19.2-15.7-38.6-19.6-59.8-4.8-26-6.2-51.6-6.2-78V-158Z" transform="translate(208.8 204.1)" fill="#231f20" fill-rule="evenodd"/><path d="M-177-73.6A84.7,84.7,0,0,1-196.8-82c-4.9-3-10.1-6.9-10.6-13.1,0-2.9,1.1-5.7,2.1-8.4,2.2-6.1,4.2-12.2,6.1-18.5s3.2-11.8,4.4-17.8,1.8-10.5,2.5-15.8.6-8.4,1.6-12.3a16.3,16.3,0,0,1,7.3-8.2,28.6,28.6,0,0,1,9.7-2.5,51.8,51.8,0,0,1,11,.2,49.4,49.4,0,0,1,5.9,1.1l6.7,2c.1-1.3,1.9-2.5,4-2.5s6.6,1.8,6.8,5,.4,5,.3,7.4a75.5,75.5,0,0,1-.9,7.5c21.4-3.6,41.4-7.1,62.9-9.8a1213.2,1213.2,0,0,1,151.4-9.5c52.1,0,103.8,3.9,155.3,10.5,20.3,2.6,39.3,5,59.5,8.4-1.1-5.4-.9-9.1-.4-14.9a6.3,6.3,0,0,1,3.3-4.5,5.5,5.5,0,0,1,4.3-.7,3.4,3.4,0,0,1,2.8,2.7c3.9-1.7,9.1-1.6,13.2-2.1a47.9,47.9,0,0,1,11.9-.1,28.5,28.5,0,0,1,8.8,2.3c4.4,2.1,6.6,5.5,7.4,10.3s.9,10.6,1.7,15.9c1.3,8.4,3.8,17,6.1,25.2,1.1,3.9,2.2,8.5,3.6,12.3s2.4,6.3,3.6,9.7c2.3,6.7,2.1,11.5-3.4,16.1s-8.6,7-13.6,9.2a85,85,0,0,1-14.8,4.9c-5.6,1.3-12.8,1.8-18.5,2.4-.8,5.2-1.6,8.9-5.4,12.7s-5.4,4.3-8.9,4.9-7.4-.3-10.9-1.8c-2.9,2.6-5.6,5.2-8.3,8s-5.6,5.8-8.7,8.4c-5.5,4.8-11.8,8.5-19.4,7.5a15.8,15.8,0,0,1-12.3-8.5c-1.9-3.9-2.1-8.6-2-12.8a44.8,44.8,0,0,1,2-11.9,84.4,84.4,0,0,0,3-12.7c-27.2-6.2-54.7-11.2-82.2-14.8A591.8,591.8,0,0,0,74-96c-39,0-76.7,4.2-114.8,11.1-15,2.7-28.5,5.4-43.5,8.8.2,4.3,1.4,8,2.6,11.7A59.9,59.9,0,0,1-79.9-57a41.5,41.5,0,0,1,.3,11.1c-.4,3.6-1.1,6.9-3.4,9.8s-7.2,5.6-10.9,6.5a14.6,14.6,0,0,1-10.5-1.2c-4.2-2.1-7.8-5.5-11.2-8.7-5-4.7-10-10.3-15.1-14.8-3.7,1.5-7,2.4-11,1.6a17,17,0,0,1-9.1-5c-3.5-3.6-4.6-7.4-5.2-12.4A122.8,122.8,0,0,1-177-73.6Z" transform="translate(208.8 204.1)" fill="#fff" fill-rule="evenodd"/><path d="M-88.3-79.1c-1,11.5,7.2,18.2,3.9,35.5C-86-35.4-95.7-32.1-101.3-34c-3.7-1.3-6.6-3.9-9.7-6.5-6.9-5.7-13.5-14.3-19.2-18-4.9,2.8-10.1,3.6-15.5,0s-6.8-7.2-6.6-14.9c-16.5-.8-33.3-4.9-47.2-15.2a8.2,8.2,0,0,1-3-9.8c8.3-23.2,13.2-40.6,15.6-66.7,1.1-12.2,28.4-11.6,39.5-4.4v-2.2c.1-2.8,4.4-2.3,4.4-.3.3,6.1,1.2,13.1-3.7,19.2A1291.3,1291.3,0,0,1,64.4-173.1H83.2a1291,1291,0,0,1,213,20.3c-5-6.1-4-13.1-3.7-19.2.1-2.1,4.4-2.5,4.4.3v2.2c11.2-7.3,38.4-7.8,39.5,4.4,2.4,26.1,7.2,43.5,15.6,66.7a8.2,8.2,0,0,1-3,9.8c-14,10.4-30.7,14.4-47.2,15.2.1,7.7-2,11.8-6.6,14.9s-10.7,2.9-15.5,0c-5.7,3.7-12.3,12.3-19.2,18-3.1,2.6-6,5.3-9.7,6.5-5.6,1.9-15.4-1.4-16.9-9.5-3.4-17.3,4.9-24.1,3.9-35.5C195.2-89.2,141.1-98.3,91-99.8L74.7-100h0l-14.4.2C9.6-98.5-45.3-89.4-88.3-79.1Zm-2.7-5c-13.8,3-26.8,5.3-40.4,5.6-1.5,0-3.1,2.3-4.4,3.7a10.4,10.4,0,0,0-2.1,3.3,14,14,0,0,0-.2,3.1c0,3.5,2.7,3.3,3.2,1.3a14,14,0,0,1,4.5-6.4A187.6,187.6,0,0,0-92-77.7a37.8,37.8,0,0,0,1.4,10.1c.9,3.2,2,6.3,2.6,9.5a34.5,34.5,0,0,1-.3,14.2,9.2,9.2,0,0,1-7.8,6.8c-7.1.7-11.6-5.9-14.9-9-4.8-4.4-9.3-9.3-14.1-13.6l-.9-1a19.9,19.9,0,0,1,9.6-2c5.8.2,11.7,2.9,15.7,5.4s4.5,3.5,4.4,6.2S-97.7-49-98.9-49h-2a1.7,1.7,0,0,0-1.5,2.2c.5,1.9,3.7,2.6,4.5,2.7a7.2,7.2,0,0,0,6.5-4c1.7-4.3.4-7.6-2.9-10.8-5.5-5.4-18.2-9.9-29-7.6a20.1,20.1,0,0,0-6.1,2.4h0l-.2.2-3,2a11,11,0,0,1-5.8,1.4c-6-.3-9.8-6.6-9.3-12.7a10.9,10.9,0,0,0,5.5-3.3c2.3-2.6,2.4-6.2,2-10.7-1-11.5-2.4-24.6-3.7-33.1-.5-2.9-4.7-8-6.9-12.8h.1c-4.7-13.2,4.8-14.3,9.1-15C-71.2-159.8,0-167.5,71.5-167.7h6.3c72.5.2,144.7,8.1,216.1,20.1,7.4,1.2,9.4,9.9,6.7,14s-7.4,11.3-7.5,14.5c-.4,8.5-2.9,20.2-3.9,31.7-.4,4.5-.2,8.1,2,10.7a10.7,10.7,0,0,0,5.8,3.4v.2c.5,6.1-3.4,12.4-9.3,12.7a10.2,10.2,0,0,1-6.4-1.8l-1.2-.8-.9-.7h-.1a20.7,20.7,0,0,0-7-2.9c-10.8-2.3-23.6,2.2-29,7.6-3.3,3.2-4.5,6.5-2.9,10.8a7.2,7.2,0,0,0,6.5,4c.8-.1,4-.9,4.5-2.7a1.7,1.7,0,0,0-1.5-2.2h-2c-1.3,0-2.6-.5-2.7-2.1s1.5-4.4,4.4-6.2,9.9-5.1,15.7-5.4a19.9,19.9,0,0,1,9.6,2c-5.4,4.2-10.9,10-15.5,14.3s-7.7,9.5-14.8,8.8a7.8,7.8,0,0,1-7.2-6.1,34.5,34.5,0,0,1-.3-14.2c.7-3.2,1.8-6.4,2.6-9.5a37.7,37.7,0,0,0,1.4-10.2,187.2,187.2,0,0,0,38.1,4.2,14,14,0,0,1,4.5,6.4c.5,1.9,3.2,2.1,3.2-1.3a14,14,0,0,0-.2-3.1,10.4,10.4,0,0,0-2.1-3.3c-1.2-1.5-2.9-3.7-4.4-3.7-13.9-.2-27.2-2.7-41.3-5.7v.2c-54-12.6-108.6-20.9-164.2-21.2h-.6c-55.9.3-111,8.8-165.4,21.5Zm-70.3-50.3,3.1.7c.5,2.1,3.5,6.5,4.7,8a19.1,19.1,0,0,1,4.2,11.5c.6,6.4,1,8.2,1.6,13.7s1.4,10.3,1.4,16.1c0,3.6-.8,5.1-2.4,5.7A95.3,95.3,0,0,1-164-80.2,79.7,79.7,0,0,1-186.3-87a60.8,60.8,0,0,1-10-6.1,2.8,2.8,0,0,1-1.2-3.7,329.9,329.9,0,0,0,10.7-34.8,230.2,230.2,0,0,0,4.2-23.6c.4-3.4.8-6.9,1.1-10.2s4.2-4.6,8.5-5c9.5-1,22.3,1.7,24.7,6.4,1.3,2.5-.9,8.2-3.7,13-3.8,2.2-5.9,4.8-6.4,9.8-4.1.2-7.6-1.9-10.3-4.3-4.4-4-5.4-9.5-5.1-15.7s-1.6-3.6-2.9-.5a17.6,17.6,0,0,0-1.2,5.3c-.2,7.6,2.9,14.6,8.9,18.7a21.2,21.2,0,0,0,7.7,3.3Zm471.6-.3a21.5,21.5,0,0,0,7.7-3.3c6.1-4.2,9.1-11.1,8.9-18.7a17.6,17.6,0,0,0-1.2-5.3c-1.3-3.2-3.1-4.6-2.9.5s-.8,11.7-5.1,15.7a15.5,15.5,0,0,1-10.3,4.3,12.4,12.4,0,0,0-6.1-9.8c-2.9-4.9-5-10.2-3.7-12.8,2.4-4.7,15.2-7.4,24.7-6.4,4.3.5,8.3,2.8,8.5,5s.7,6.8,1.1,10.2a230.1,230.1,0,0,0,4.2,23.6,329.9,329.9,0,0,0,10.7,34.8,2.8,2.8,0,0,1-1.2,3.7,60.8,60.8,0,0,1-10,6.1,79.7,79.7,0,0,1-22.3,6.8,98.6,98.6,0,0,1-14.7,1.5c-2.2-.4-3.3-1.6-3.3-5.9-.1-5.8.8-10.5,1.4-16.1s.9-9.2,1.6-15.6c.2-1.9.2-5.1,4.2-10.3a44.7,44.7,0,0,0,4.8-7.4l3.1-.7Z" transform="translate(208.8 204.1)" fill="#231f20" fill-rule="evenodd"/><path d="M-157.7-68.3a98.9,98.9,0,0,1-30.4-7.4A62.7,62.7,0,0,1-204-85.1a12.9,12.9,0,0,1-4.7-8.3,13.1,13.1,0,0,1,.5-6.1c1.1-3.8,2.7-7.5,3.9-11.3,1.9-5.8,3.7-11.6,5.3-17.5s2.8-11.7,3.8-17.6,1.7-13.4,2.6-20,3.4-8.5,7.9-11a27.1,27.1,0,0,1,9.7-2.9,50,50,0,0,1,12.5-.1,52.3,52.3,0,0,1,11.7,2.7,8.4,8.4,0,0,1,6-2,7.3,7.3,0,0,1,7.1,6.4c.1,1.4.1,2.6.2,4a47.1,47.1,0,0,1-.4,8.8c70.3-12,141.2-18.7,212.5-18.7s142.2,6.7,212.5,18.7a38.3,38.3,0,0,1-.4-8.8c.1-2.8.3-5,1.2-6.7s3.3-3.5,6.6-3.8a7.2,7.2,0,0,1,5.6,2.1,48.9,48.9,0,0,1,13.4-2.9,45.9,45.9,0,0,1,12.4.5c6,1.1,11.2,3.1,14.3,8.5s2.2,11.3,2.9,16.7,2.1,13.6,3.7,20.3,3.7,14.2,6,21.2,5.9,12.7,5,19.4a11.9,11.9,0,0,1-2.9,6.4c-3.4,4-8.5,6.7-13.1,9.1a85.1,85.1,0,0,1-18.9,7A111.7,111.7,0,0,1,307-68.3a19.8,19.8,0,0,1-3.1,8.7,20.1,20.1,0,0,1-11.3,8.2,18.7,18.7,0,0,1-12.4-.8c-4.3,3.8-8.1,8.1-12.2,12.1a80.3,80.3,0,0,1-9.8,8.2c-3.5,2.4-6.8,3.9-11.2,3.9a19.2,19.2,0,0,1-13.6-5.3c-3.9-3.6-5-7.4-5.7-12.7a43.6,43.6,0,0,1,.6-14.5c1-4.8,2.9-9.4,3.7-14.2h0C180.3-86.7,127.8-94.5,74.7-94.5S-31.2-86.6-82.7-74.7h0A56.5,56.5,0,0,0-80.8-67a57.5,57.5,0,0,1,2.5,11.8,41,41,0,0,1-1.3,15c-1.7,5-5.6,8.9-11.1,11a18.1,18.1,0,0,1-10.7,1,20.7,20.7,0,0,1-8.3-4,93.9,93.9,0,0,1-10.4-9c-3-2.9-8-8.4-10.9-10.8-3.7,1.3-7.1,2-10.9,1.2a20.1,20.1,0,0,1-11-6.4,19.3,19.3,0,0,1-4.7-10.9Zm-18.5-6.1A84.7,84.7,0,0,1-196-82.8c-4.9-3-9.6-6.1-10.1-12.3,0-2.9,1.1-5.7,2.1-8.4,2.2-6.1,4.2-12.2,6.1-18.5s3.2-11.8,4.4-17.8,1.8-10.5,2.5-15.8.6-8.4,1.6-12.3,3.5-5.3,6.5-6.9a28.6,28.6,0,0,1,9.7-2.5,51.8,51.8,0,0,1,11,.2,49.5,49.5,0,0,1,5.9,1.1l6.7,2c.1-1.3,1.9-2.5,4-2.5s5,1.6,5.2,4.9.2,4.7.1,7.1-.5,5.2-.9,7.8c21.4-3.6,42.7-7,64.2-9.6A1215.2,1215.2,0,0,1,74.7-176a1230,1230,0,0,1,155.1,10.1c20.3,2.6,40.6,5.8,60.8,9.2a45.3,45.3,0,0,1-.8-14.8c.2-1.9.5-3.3,2.2-4.3a5.5,5.5,0,0,1,4.3-.7,3.4,3.4,0,0,1,2.8,2.7,47,47,0,0,1,12.4-3.4,47.8,47.8,0,0,1,11.9-.1,28.5,28.5,0,0,1,8.8,2.3c4.4,2.1,6.6,5.4,7.4,10.3s.9,10.6,1.7,15.9a215.4,215.4,0,0,0,5.4,24.9c1.1,3.9,2.2,7.9,3.6,11.6s2.6,6.5,3.7,9.9c2.3,6.7,2.1,11.5-3.4,16.1s-9.3,5.9-14.2,8.1a85,85,0,0,1-14.8,4.9,129,129,0,0,1-16.9,2.5c-.8,5.2-1.6,8.9-5.5,12.7a16.7,16.7,0,0,1-9.2,4.6c-3.8.6-6.7-.3-10.3-1.8-2.9,2.6-5.6,5.2-8.3,8s-5.6,5.8-8.7,8.4c-5.5,4.8-10.5,8.9-18.2,8a15.8,15.8,0,0,1-12.3-8.5c-1.9-3.9-2.1-8.6-2-12.8a44.9,44.9,0,0,1,2-11.9,84.3,84.3,0,0,0,3-12.7c-27.2-6.2-54.4-11.5-81.9-15.1a601.2,601.2,0,0,0-78.6-5.3c-39,0-77.3,4.2-115.4,11.1-15,2.7-30,5.9-44.9,9.3.2,4.3,1.4,8,2.6,11.7a59.8,59.8,0,0,1,1.8,7.4,41.4,41.4,0,0,1,.3,11.1c-.4,3.6-1.1,6.9-3.4,9.8A17.2,17.2,0,0,1-94-31.1a14.6,14.6,0,0,1-10.5-1.2c-4.2-2.1-7.8-5.5-11.2-8.7-5-4.7-9.5-9.8-14.6-14.3-3.7,1.5-7,2.4-11,1.6a17,17,0,0,1-9.1-5c-3.5-3.6-4.3-7.1-4.9-12.1a122.8,122.8,0,0,1-20.9-3.6Z" transform="translate(208.8 204.1)" fill="#231f20" fill-rule="evenodd"/><path d="M-34.4-105l-15.8,2.5,3.6-4.6-6.2-11.7-2.7,4.3a25.3,25.3,0,0,0-2.3,4.6,53.2,53.2,0,0,0-8.7-9.2q-1.6,9.2-1.1,12.6t4.7,6.1L-78.5-98a20.7,20.7,0,0,0,6.9-9.9,67.2,67.2,0,0,0,2.3-12.4,10,10,0,0,0-5.1-1.2,22.9,22.9,0,0,0,1.7-5.8l4.1,3.2,2.9-16.7-3.9-3.4,14.4-2.3-2.7,4.5,7.7,14.6a23.4,23.4,0,0,0,4-4.9,20.6,20.6,0,0,0,3.5,6.1l-1.8.2a8.4,8.4,0,0,0-3.8,1.6l8.6,16.3,5.3,3.2Zm-20.1-17.1-8.6-16.1-2.9,15.7a86.7,86.7,0,0,1,7.3,7.4,44.6,44.6,0,0,1,4.1-7Z" transform="translate(208.8 204.1)" fill="#231f20"/><path d="M19-110q-5.5.4-10.9,5.2-.7-8.4-9.7-24.6a43.8,43.8,0,0,1-8.4,2.2l1.2,15.3,5.3,3.6-16.9,1.3,4.5-4.4L-17-125.6a33.6,33.6,0,0,0-5.6,1.5l.7-2.1a3.6,3.6,0,0,1,.9-1.7,2.5,2.5,0,0,1,1.4-.5l2.5-.4-1.2-15.7-5.1-2.2a31.6,31.6,0,0,1,9-4.9,37.3,37.3,0,0,1,9.9-2.2A22.6,22.6,0,0,1,6.5-152q6.4,2.8,6.8,8.6a9.8,9.8,0,0,1-3.3,8.2,19.8,19.8,0,0,1-7.6,4.4,55.9,55.9,0,0,0,7.1,11.5A41.9,41.9,0,0,0,19-110ZM5.5-144.1a6.5,6.5,0,0,0-3.8-5.7,13.5,13.5,0,0,0-6.8-1,10.2,10.2,0,0,0-6.5,2.9l1.4,18.1q13.5-3.9,15.3-9.8a11.9,11.9,0,0,0,.4-4.5Z" transform="translate(208.8 204.1)" fill="#231f20"/><path d="M68.7-123.6a14.3,14.3,0,0,1-.7,5.1q-2.5,7.4-17.4,7.8l-20.8.6,4.8-4.2-.5-17.8a17,17,0,0,0-5.9,1l2.6-4.1a10.6,10.6,0,0,0,3.3.4l-.3-12.8-4-2.5a33,33,0,0,1,18.6-6.1,24.4,24.4,0,0,1,11.4,2,10.3,10.3,0,0,1,6.2,9.6,8.5,8.5,0,0,1-3.1,7,15,15,0,0,1-6.8,3.1h0q6.2.5,9.4,3.7a10.2,10.2,0,0,1,3.3,7.2ZM58.2-144.5q-.2-9-9.7-8.7a14.5,14.5,0,0,0-7.8,2.5l.4,15.6h4.1q13.2-.4,13-9.3ZM61-123.4q-.2-5.7-4.7-7.8t-9.1-1.3l-6,.2.5,18.7h5a33.4,33.4,0,0,0,5.7-.6,13.6,13.6,0,0,0,6.3-2.6q2.4-2.3,2.3-6.7Z" transform="translate(208.8 204.1)" fill="#231f20"/><path d="M121-133.2q0,10.4-4.7,16.4t-14.4,6.5q-9.6,0-14.6-6.6t-4.6-16.7q0-10.7,4.8-16.7t14.7-6.6q9.4,0,14.4,6.9t4.5,16.8Zm-7.7,0q0-10.2-2.6-15.1a10.3,10.3,0,0,0-3.9-4.1,10.3,10.3,0,0,0-5.4-1.5,9.2,9.2,0,0,0-6.5,2.6q-4.6,4.3-4.6,17.7,0,10,2.6,14.8a10.3,10.3,0,0,0,3.9,4,10.3,10.3,0,0,0,5.4,1.6,9.4,9.4,0,0,0,6.6-2.6q4.6-4.2,4.6-17.4Z" transform="translate(208.8 204.1)" fill="#231f20"/><path d="M173.3-106.4q-5.5-.5-11.6,3.3.8-8.4-5.2-25.9a43.8,43.8,0,0,1-8.7.7l-1.5,15.3,4.6,4.5L134-110.2l5.2-3.6,1.4-14.3a33.7,33.7,0,0,0-5.8.5l1-1.9a3.6,3.6,0,0,1,1.2-1.5,2.5,2.5,0,0,1,1.4-.2h2.5l1.5-15.6-4.6-3a31.5,31.5,0,0,1,9.7-3.2,37.3,37.3,0,0,1,10.1-.5,22.6,22.6,0,0,1,10.6,3.7q5.8,3.9,5.2,9.6a9.8,9.8,0,0,1-4.7,7.5,19.8,19.8,0,0,1-8.3,3,55.9,55.9,0,0,0,5,12.6,41.9,41.9,0,0,0,7.7,10.8ZM166-142.3a6.5,6.5,0,0,0-2.8-6.3,13.5,13.5,0,0,0-6.5-2.2,10.2,10.2,0,0,0-6.9,1.7L148-131q13.9-1.5,16.8-7a11.9,11.9,0,0,0,1.2-4.3Z" transform="translate(208.8 204.1)" fill="#231f20"/><path d="M224.6-97.9l-20.4-3.7q-9.4-1.7-14.2-8.9t-3-17.3a23.7,23.7,0,0,1,8.7-15,18.8,18.8,0,0,1,15.6-3.9,31.2,31.2,0,0,1,8,2.9,31.7,31.7,0,0,0,5.9,2.5,10.1,10.1,0,0,0,4.7-.3L221-130.3a13.4,13.4,0,0,0-1.8-8.8,10.3,10.3,0,0,0-7.1-4.4,12.1,12.1,0,0,0-11.9,4.2q-4.1,4.6-5.6,12.7Q191-107,207.5-103.9q4,.7,6.1-.2l3-16.3a9.5,9.5,0,0,0-5.8-1.1c-.4,0-5.6.9-7.6,0a5,5,0,0,1-2.7-2.9c-.7-2,0-4.6,1.5-5.7a3.2,3.2,0,0,1,4.3.7,4.9,4.9,0,0,1,.1,4.9c1.4,1,5.6,0,8.5.3a43.5,43.5,0,0,1,13.4,3.4l-5.1,3.5-2.8,14.6,4.1,4.9Z" transform="translate(208.8 204.1)" fill="#231f20"/><path d="M136.5,2.8H125.6q.7-3.5,4.6-6a13.2,13.2,0,0,0,2.6-2,4.4,4.4,0,0,0,1.1-3,3.1,3.1,0,0,0-.8-2.3,3,3,0,0,0-2.3-.9,3.2,3.2,0,0,0-2,.7,2.2,2.2,0,0,0-.9,1.9,2.2,2.2,0,0,0,.5,1.4,1.6,1.6,0,0,0,1.3.6,1.9,1.9,0,0,0,1.4-.7,2.2,2.2,0,0,1-2.4,2.1,2.9,2.9,0,0,1-2.1-.9,2.8,2.8,0,0,1-.9-2.1,3.6,3.6,0,0,1,1.5-3,5.3,5.3,0,0,1,3.4-1,5.7,5.7,0,0,1,4,1.4,4.1,4.1,0,0,1,1.4,3.1,4.3,4.3,0,0,1-1.9,3.4l-3.6,2.1A7.5,7.5,0,0,0,127.5.9h6a6.1,6.1,0,0,0,1.9-.3,1.7,1.7,0,0,0,1-1.3V2.8Z" transform="translate(208.8 204.1)" fill="#3e51a3"/><path d="M149.7-4.2a8.9,8.9,0,0,1-1.3,5A5,5,0,0,1,144,3.1a5.3,5.3,0,0,1-3.1-1q-2.9-2-2.9-6.9a10.4,10.4,0,0,1,.8-4.1,5.6,5.6,0,0,1,2.9-3,5.4,5.4,0,0,1,2.2-.5,5.2,5.2,0,0,1,3,1q2.9,2,2.9,7.2Zm-2.3-.4a13.3,13.3,0,0,0-.7-5,3,3,0,0,0-3-1.9,2.9,2.9,0,0,0-2.2.9q-1.3,1.4-1.3,5.9a12.6,12.6,0,0,0,.8,5,3.2,3.2,0,0,0,1.2,1.3,3.1,3.1,0,0,0,1.8.6q3.4,0,3.4-6.8Z" transform="translate(208.8 204.1)" fill="#3e51a3"/><path d="M163.3-4.2a8.9,8.9,0,0,1-1.3,5,5,5,0,0,1-4.4,2.3,5.3,5.3,0,0,1-3.1-1q-2.9-2-2.9-6.9a10.4,10.4,0,0,1,.8-4.1,5.6,5.6,0,0,1,2.9-3,5.4,5.4,0,0,1,2.2-.5,5.2,5.2,0,0,1,3,1q2.9,2,2.9,7.2ZM161-4.5a13.3,13.3,0,0,0-.7-5,3,3,0,0,0-3-1.9,2.9,2.9,0,0,0-2.2.9q-1.3,1.4-1.3,5.9a12.7,12.7,0,0,0,.8,5,3.2,3.2,0,0,0,1.2,1.3,3.1,3.1,0,0,0,1.8.6q3.4,0,3.4-6.8Z" transform="translate(208.8 204.1)" fill="#3e51a3"/><path d="M176.9-4.2a8.9,8.9,0,0,1-1.3,5,5,5,0,0,1-4.4,2.3,5.3,5.3,0,0,1-3.1-1q-2.9-2-2.9-6.9a10.4,10.4,0,0,1,.8-4.1,5.6,5.6,0,0,1,2.9-3,5.4,5.4,0,0,1,2.2-.5,5.2,5.2,0,0,1,3,1q2.9,2,2.9,7.2Zm-2.3-.4a13.3,13.3,0,0,0-.7-5,3,3,0,0,0-3-1.9,2.9,2.9,0,0,0-2.2.9q-1.3,1.4-1.3,5.9a12.7,12.7,0,0,0,.8,5,3.2,3.2,0,0,0,1.2,1.3,3.1,3.1,0,0,0,1.8.6q3.4,0,3.4-6.8Z" transform="translate(208.8 204.1)" fill="#3e51a3"/><path d="M46.6-24.5C53.4-15.8,62-9.1,68.9-1.9,73.3,2.6,77.3,7,80.7,11.4A10.7,10.7,0,0,1,82.7,8,18.9,18.9,0,0,0,84.5,12c12.9,18.2,27.1,38.1,39.9,61.3,2.4,4.4,2.8,9.7-1.2,12.5S113,94.5,112.5,97.3c-1.4,6.9,2.9,9.8,5.7,10.2s8.6-2.8,8-5.8a9.6,9.6,0,0,1-3.9-2.4c7.3-6.7,11.1-13.7,12.7-20.5a11.5,11.5,0,0,1-3.7-4.9c5.7-2.7,7.3-6.9,6.1-12.2-1.1,0-4.1.7-5.3-1.2s-.7-2.7-1.2-3.5c-5-7.9-9.6-14.4-14.7-22.4a20.7,20.7,0,0,1,3.2-.3c5.2,4.3,9.2,7.2,14.4,11.5,0,3.2,1,7.6,4.2,6.6,1.6-.5,2.8-3.1,1.4-5.2l-2.9-4.4-4.2-1.2.2-4.2-6.1-1V31.3c2.1-1.9,4.4-6.7,12.7-2.2,2.3-.5,4.8-1.2,6.9.7,5.4,4.8,9,8.5,15.2,12.9,3.5,2,7.8,1.2,12.7-.3.5,8.7-2.4,12.3-6.9,14.7.9,1.4,2.2,2.7,2.7,4.1s.4,3.1,1,4.5,2.2,3.8,2.3,5.8-1.1,4.2-2.9,6.5c3.4,6.3,2.2,17.6,8.6,24.9a7.6,7.6,0,0,0-1.4,1.5c-.2,2,.7,2.8,4,2.4s7.2-3.3,6.1-10.2c-.5-2.8-3.7-5.5-8.4-8.8s-2.5-7.8-.7-12.5c9-23.9,24.3-40.2,40-56.6a17.1,17.1,0,0,0,3.9-5.9c1.1,1.5,2.2,2.9,2.2,4.8,3.6-4.4,10.1-12.6,14.6-17.1,7.2-7.2,15.7-13.9,22.8-22.6,2-2.1,4.2.1,2.6,3.9a40.8,40.8,0,0,1-5.2,8.9,26.4,26.4,0,0,0,2.2-2.1c3.5-3.5,6.1,1.8,2.6,7.9-4.8,8.4-15.6,20.8-22.8,30.4-.2.3,0,.9.5.6,6.9-4.1,19.1-17.1,24.6-23.5,3-3.5,4.1.5,2.6,4.1C265.4,17.1,254,30.8,246,39.5c6.8-3.6,17.8-14.9,20.5-16.6s3.7.2,2.4,3.7c-2.3,6.3-9.7,15.2-14.4,20.6,3.3-1.6,6.2-3.8,10-6.1s3.2,3.1.4,7.3c-6.9,10.4-17.1,14.9-27.2,24.2-1.1,1-.1,2.2,1.9,1.3,7.1-3.2,13.7-7.5,19.9-11.6,3.7-2.4,5.1,1,1.9,5.9-5.2,7.9-22.3,18.3-28.8,23.6-.2.8-.7.8.5.5,5.9-.8,18.3-6.2,24-9.5,3.8-2.2,4.8,3.3,1.3,6.1-8.4,6.8-11.9,8.6-24,14.1a68.4,68.4,0,0,0,18.4-2.8c3.4-.9,5.1,1.3,1.2,5.3-9.2,9.5-30,11-42.4,13.9,8.7,1.1,22.6.2,33.4-1.7,5.2-.9,3.3,4.7-1.5,6.8-6.9,3.1-21.1,4.3-28.6,4.8,4.6,1.2,16.6,2.4,21.3,2.1s3.5,3.6-2.7,5.5-12,2.2-19.7,1.4c3.3,3.6,6.9,4.6,10.4,5.7s2.2,4.3-3.1,4.2c-7.2-.2-8.5-.8-13.8-2a8.5,8.5,0,0,0,3.6,3.1c5.6,2.1,1.3,4.4-2.3,4.3-10.7-.4-18.6-2.3-30.6-10.4-3.1-2.5-7.5.1-4.2,5.7,1.7,3,2.9,4.5,4.7,7.3s8.9,8.7,14.8,8.9c3.4.1.1,1.9-1.7,2.6-3.3,1.3-7.1.7-10.2,0s-3.1,2.5.4,4.3,5.1,0,7.3,1.7,5.9,8.4,9.9,9.9a17.8,17.8,0,0,0,9.5.3c5-1.4,8.3-6.1,8.9-14.8,8.9,2,6.1,6.4,9.1,10.2s6.3,7.8,5.2,13.8c-.2,1.1-2,1.1-2.5,2.4s0,2.6-1.1,4.6-1.8.2-1.9,1.2c-.9,3.8.2,7-1.8,9.4a1.2,1.2,0,0,1-2-.4c-2.5-3-3.5-5-7.4-4.6-.9-3-.8-7.5-5.9-8.1a5.4,5.4,0,0,0-3.4.7c-1,.8-.7,3.7-2.1,6.1s-4.8.9-7.5,2.3c-1.8,4.5-6.2,5.6-6.7,9.2-3.8-1.4-8.2-6.5-9.3-10.6a5.8,5.8,0,0,1,2.4-6.6c2.8-1.7,7.1-1.5,10-1.2a1.4,1.4,0,0,0,1.3-2.4c-8-9.1-15.2-13.7-23.9-16.3-2-2.8-1.5-4.3-5.3-7.9-.9-.9-2.9-.1-2.6,2.3a18.2,18.2,0,0,0,1.7,4.4c2.5,5.4,6.2,13.5,10,17.7-3.9,2-8.7.6-12.2-.6a217.4,217.4,0,0,1,7.5,35.3c.9,7.9-3.9,4.6-5.2,2.8a35.5,35.5,0,0,1-4.4-8,14.3,14.3,0,0,0-2.9-4.8c-.8,9.7-.9,15.5-3.5,24.9-1.2,4.2-4.5,7.6-6.4-.5s-1.7-15.2-2.4-24.2a11.3,11.3,0,0,0-3.2,4.4c-.9,2.1-1.4,5.5-3.5,7.8s-6.4,3.7-5.6-2.7c1.5-11.4,4.5-22.5,8.3-35.8-3.5,1.2-7.8,4.1-14.2,1.1,3.8-4,8.1-11.8,10.8-19a13.3,13.3,0,0,0,1.1-3c.5-2.4-1.8-3.2-2.7-2.4-3.9,3.6-3,6.3-5.1,9.1-9.7,1.9-20.7,3.6-26.5,13.2-.5.9,0,2,2.3,2.1a11.5,11.5,0,0,1,7.3,2.1c1.7,1.3,3.6,2.8,3.6,5.7a10,10,0,0,1-2.7,6.8c-2.4,2.8-4.9,4.8-8,5.5-2.5-5.8-5.4-9.4-10-9.1-.3-4.8-4.2-5.6-6.7-5.5a12.4,12.4,0,0,0-9.4,6c-4.2-1.4-7.3-1.1-9.3,2.8-1.3,0-2.3-.5-2.5-1.4.3-3.2-.1-7.8,1.2-11.6s-3.1-3.5-4.3-5.9c-2.3-4.3-1.5-8.1.7-12.1.6-1,1.1-2.9,1.8-3.9a21.4,21.4,0,0,1,13.7-8c-2.7,8.9,1.4,13.5,6.3,14.7a15.1,15.1,0,0,0,10.1-1.5c5.6-2.8,10.3-7.8,16.7-9.2a29.6,29.6,0,0,0,.8-5.6c-3.2.6-6.3,1-9.5-.1-1.6-.5-5-2.3-1.5-2.4a17.7,17.7,0,0,0,13.7-7.5c1.4-2,1.6-3.5,2.4-5.4a4.9,4.9,0,0,1,1.3-1.9c2.8-2.5-.3-4.1-1.7-3.6-10.9,5.2-18.3,8.5-28.5,7.2-4.6-.7-8-2.7-2.2-4a18.4,18.4,0,0,0,8.1-5.2c-5.9,1.8-11.3,2.9-18.4,1.8-5-.8-7.3-4.2-3-4.2s10-.6,13.7-5.9c-6.9,2-14.1.6-21.5-.9s-6.8-4.7-3.1-4.5,9.1-.7,13.7-2a75.1,75.1,0,0,1-20.9-3.8c-4.9-1.7-6.7-6.4-1.5-5.7,11,1.3,22.5,2.7,31.2,1.6-14.1-4.7-32.3-8.5-41.1-18-3.7-4-1.8-6.7,1.4-5.3,4.8,2.1,10.9,6.1,21.2,6.3-8.7-6.2-18.2-11-25.8-19-2.3-2.4-.6-6.6,2.3-5.1,5.5,2.7,11.5,5.9,17.2,8.1,1.2.2,1.1-.8.9-1.6-5.9-6.4-15.4-14-20.5-21.1-3.4-4.7-.9-8.6,2.3-5.7,5.7,5,13.5,11.2,20.3,14.6l1-.6c-9.9-9.6-19.7-18.5-26.3-29-2.6-4.2-3.1-8.3.8-5.9S52.2,44.4,55.4,46C51,40.6,41.9,30.2,39.9,23.9c-1.1-3.4-.1-5.4,2.6-3.7s10,8.8,14.5,12.1c-7.6-8.7-14.7-19.6-18-28.7C37.5.1,38.6-2.9,41.8.2c4.9,4.7,13.6,15.9,20.3,20,.5.3.7-.1.4-.3C56.1,9.4,46.9-.2,42.4-8.6c-3.3-6.1.1-8.8,3.4-5.3l3.3,3.1c-2.5-3.5-4.2-6-5.3-8.8s.9-7,2.8-4.9Z" transform="translate(208.8 204.1)" fill="#231f20" fill-rule="evenodd"/><path d="M203.4,344c.3,2.8-1.5,4.6-3.3,6s-9.4,2.5-13.4,2.5l-224.4.7c-3.8,0-9.2-.2-12.6-2.6-1.8-1.2-3.4-3.1-3.2-5.7a284.4,284.4,0,0,0-.2-46.3c-.2-2.1-6.9-5.6-7.5-12.8s4.6-11.4,7.4-13.6l1.5,1.8c-4.4,9.2-2.7,17.7,8.2,19.5l237.8.3c10.9-3.5,11.7-7,8.4-20.6q16.3,10.1,1.6,24.3c-2.2,14.9-1.8,31.8-.3,46.5Z" transform="translate(208.8 204.1)" fill="#fff" fill-rule="evenodd"/><path d="M-48.5,272.6c-5.8,5.4-6.1,12.5-2.2,16.5,2.1,2.1,5.5,3.1,9.5,3.1H188.5c6.3,0,11.2-1.4,13.3-4.9s1.2-9.5-4-14.6l4.8-3.2c5.7,3.2,9.9,9.2,9.9,15.5h0a13.8,13.8,0,0,1-6.4,12.3,157.4,157.4,0,0,0-.4,43.8c1.1,8.3-4.1,14.1-20.5,14.1H-36c-15.9,0-20.6-6.4-19.6-13.7a156.8,156.8,0,0,0-.3-43.6,14.2,14.2,0,0,1-7-12.3v-.7c0-6.1,4.3-12,9.9-15.3l4.7,2.8Zm250.3,27.1a36.7,36.7,0,0,1-13.3,2.3H-40.1a34.4,34.4,0,0,1-11.6-1.8c2.3,15.1,1.1,28.8-.1,43.1-.2,2.7,1.4,4.5,3.2,5.7,3.4,2.4,8.8,2.6,12.6,2.6H185c4,0,10.3-.1,13.4-2.5s3.6-3.1,3.3-6c-1.5-14.8-2.3-28.2,0-43.2Zm-13.3-4.6a29.5,29.5,0,0,0,8.1-1,12.9,12.9,0,0,0,6.3-3.6,10,10,0,0,0,2.6-5.4,14.2,14.2,0,0,0-1.5-9c3.2,2.5,5.8,5.2,4.8,11-1.7,10.1-12.1,11.5-20.2,11.5H-40.1c-7.8,0-19.1-2.3-19-13.1.1-4.6,2-7.8,4.8-9.5-2.3,4.8-2.6,9.7.7,14.1a11.4,11.4,0,0,0,6.2,4.2,20.1,20.1,0,0,0,6.3.9Z" transform="translate(208.8 204.1)" fill="#231f20" fill-rule="evenodd"/><path d="M-6.7,327l-1.2,1.1q-1.6,1.7-4,7.5l-2.9,7.4,1.8,1.4h-6.3l1.8-1.4-4.7-12.7-1.8-1.4h6.1l-1.8,1.4,4.2,11.7,2.7-6.7.6-1.5a13.7,13.7,0,0,0,.4-1.5,8.4,8.4,0,0,0,.2-1.3,2.8,2.8,0,0,0-1-2.1,9.3,9.3,0,0,0,3-.6,10.3,10.3,0,0,0,2.8-1.4Z" transform="translate(208.8 204.1)" fill="#231f20"/><polygon points="206.8 548.5 200.8 548.5 202.5 547.1 202.5 534.4 200.8 533 206.8 533 205.1 534.4 205.1 547.1 206.8 548.5 206.8 548.5" fill="#231f20"/><path d="M13.7,328.8a3.2,3.2,0,0,0-2.2,1.6,7.3,7.3,0,0,0-.4,2.9v11.1H9l-7-13V340a6.9,6.9,0,0,0,.4,2.8,3.3,3.3,0,0,0,2.2,1.6H-1.5a3.3,3.3,0,0,0,2.2-1.6,6.9,6.9,0,0,0,.4-2.8v-9.8l-1.8-1.4H5.8L4,330.2l6,11.2v-8.2a6.6,6.6,0,0,0-.4-2.8,3.3,3.3,0,0,0-2.2-1.6Z" transform="translate(208.8 204.1)" fill="#231f20"/><path d="M28.5,328.8a3.2,3.2,0,0,0-2.2,1.6,7.3,7.3,0,0,0-.4,2.9v11.1H23.8l-7-13V340a6.9,6.9,0,0,0,.4,2.8,3.3,3.3,0,0,0,2.2,1.6H13.3a3.3,3.3,0,0,0,2.2-1.6,6.9,6.9,0,0,0,.4-2.8v-9.8l-1.8-1.4h6.5l-1.8,1.4,6,11.2v-8.2a6.6,6.6,0,0,0-.4-2.8,3.3,3.3,0,0,0-2.2-1.6Z" transform="translate(208.8 204.1)" fill="#231f20"/><path d="M43.8,328.8a3.3,3.3,0,0,0-2.2,1.6,7.4,7.4,0,0,0-.4,2.9V340a6.6,6.6,0,0,1-.4,2.6,3.1,3.1,0,0,1-1.8,1.7,7.4,7.4,0,0,1-2.7.4q-3.8,0-5-2.1a9.5,9.5,0,0,1-.7-4.3v-8.1l-1.8-1.4h6.1l-1.8,1.4v9.7a7.5,7.5,0,0,0,.2,2q.5,1.8,3.2,1.8t3.2-1.5a10.2,10.2,0,0,0,.5-3.8v-5.1a7.4,7.4,0,0,0-.4-2.9,3.3,3.3,0,0,0-2.2-1.6Z" transform="translate(208.8 204.1)" fill="#231f20"/><polygon points="260.1 548.5 254.1 548.5 255.8 547.1 255.8 534.4 254.1 533 260.1 533 258.3 534.4 258.3 547.1 260.1 548.5 260.1 548.5" fill="#231f20"/><path d="M71.1,344.4a6.7,6.7,0,0,0-4,1.5q0-3-2.8-8.9a16,16,0,0,1-3.1.5V343l1.8,1.4H56.9l1.7-1.4v-5.1l-2.1.4.3-.7a1.3,1.3,0,0,1,.4-.6h1.4v-5.5l-1.7-.9a11.4,11.4,0,0,1,3.4-1.5,13.6,13.6,0,0,1,3.6-.5,8.2,8.2,0,0,1,3.9.9,3.5,3.5,0,0,1,2.2,3.2,3.4,3.4,0,0,1-1.4,2.8,7.1,7.1,0,0,1-2.8,1.3,19.5,19.5,0,0,0,2.2,4.2,14.8,14.8,0,0,0,3.1,3.5Zm-3.8-12.3A2.3,2.3,0,0,0,66,330a4.9,4.9,0,0,0-2.4-.5,3.7,3.7,0,0,0-2.4.8v6.4q4.9-1,5.8-3a4.1,4.1,0,0,0,.3-1.6Z" transform="translate(208.8 204.1)" fill="#231f20"/><path d="M85.1,344.4H71.4l1.7-1.4v-6.5a3.9,3.9,0,0,0-2.6.9,2.4,2.4,0,0,1,2.6-1.9v-5.3l-1.7-1.4H84.5a12.9,12.9,0,0,0-2.3,3.7,4.9,4.9,0,0,0-1.7-2.3,6,6,0,0,0-2.7-.4l-2.2.2v5.5H79l1.6-1.9v4.8L79,336.6H75.7v6.8h1.7a7.4,7.4,0,0,0,3.2-.5,6.7,6.7,0,0,0,2.1-2.5,7.6,7.6,0,0,0,.9,2.2,10.3,10.3,0,0,0,1.6,1.8Z" transform="translate(208.8 204.1)" fill="#231f20"/><path d="M100.4,344.4a9.9,9.9,0,0,0-2.6.4,7.8,7.8,0,0,0-2.4,1.1,14.6,14.6,0,0,0-.9-5.3,41.8,41.8,0,0,0-2.4-4.7l-2.5,2.5V343l1.8,1.4H85.3l1.7-1.4V330.2l-1.7-1.4h6.1l-1.8,1.4v6.6l4.9-4.8a2.4,2.4,0,0,0,.9-1.6q0-1-1.6-1.5h6.6l-.9.4a16.1,16.1,0,0,0-3.1,2.5l-2.8,2.8q2.4,4.5,2.9,5.4a17.4,17.4,0,0,0,4,4.4Z" transform="translate(208.8 204.1)" fill="#231f20"/><path d="M143.8,328.8a16,16,0,0,0-2,3.7,4.9,4.9,0,0,0-1.2-2.1,3.2,3.2,0,0,0-2.2-.7H137V343l1.9,1.4h-6.5l1.9-1.4V329.9h-1.5a3.2,3.2,0,0,0-2.2.7,4.9,4.9,0,0,0-1.2,2.1,15.8,15.8,0,0,0-2-3.7Z" transform="translate(208.8 204.1)" fill="#231f20"/><path d="M157.8,344.4h-6.1l1.6-1.4-1.7-4.4-1.3,1.4a8.9,8.9,0,0,0-1.1,1.5,18.7,18.7,0,0,0-2.7-3.7,15.2,15.2,0,0,0-1.2,4.3,3.5,3.5,0,0,0,1.4,2.4h-6.1a7.6,7.6,0,0,0,3.2-3.1,22.3,22.3,0,0,0,1.6-4.2,4,4,0,0,0-1.8-.7,7.8,7.8,0,0,0,1-1.9l1.4,1.3,2.1-5.6-1.3-1.4h5.6l-1.3,1.4,2,5.5a8.7,8.7,0,0,0,1.8-1.5,6.9,6.9,0,0,0,1,2.3h-.7a3.4,3.4,0,0,0-1.5.4L156,343l1.8,1.4Zm-6.6-7-2.3-6.1-2,5.3a30.6,30.6,0,0,1,2.3,3,16.1,16.1,0,0,1,2-2.2Z" transform="translate(208.8 204.1)" fill="#231f20"/><path d="M172.2,333.1q0,4.2-6.7,4.2h-2.3v5.6l2.3,1.6h-6.9l1.9-1.4v-6h-.1a7.5,7.5,0,0,0-2.7.5,2.9,2.9,0,0,1,2.8-1.5v-5.7l-1.9-1.4h6.2a13.5,13.5,0,0,1,4.8.7,3.7,3.7,0,0,1,2.5,3.6Zm-2.8,0q0-3.3-4.2-3.3l-1.9.2v6.1H165a6,6,0,0,0,2.9-.6,2.7,2.7,0,0,0,1.4-2.5Z" transform="translate(208.8 204.1)" fill="#231f20"/><polygon points="358.9 531.8 360.2 531.8 363.1 529.4 360.7 529.4 358.9 531.8 358.9 531.8" fill="#231f20"/><polygon points="215.1 509.7 216.4 509.7 219.4 507.3 216.9 507.3 215.1 509.7 215.1 509.7" fill="#231f20"/><path d="M56.3,336.8q0,4.8-6.7,4.8c-1.7,0-1.5-.3-3.2-.3a6.7,6.7,0,0,0-2.7.6,2.8,2.8,0,0,1,2.8-1.8c1.5,0,1.1.2,2.5.2a5.4,5.4,0,0,0,2.9-.7,3.1,3.1,0,0,0,1.4-2.8q0-3.8-4.2-3.8c-.6,0-.1-.2-.8-.1-2.3.2-3.7.5-5.3-1.9,2.7.9,3.3.8,5.9.9a13.5,13.5,0,0,1,4.8.8,4.2,4.2,0,0,1,2.5,4.2Z" transform="translate(208.8 204.1)" fill="#231f20" fill-rule="evenodd"/><path d="M3.4,322.6H-10l1.8-1.4V308.3l-1.8-1.4h6.1l-1.8,1.4v13.2h2.1a4.9,4.9,0,0,0,3-.8A4.3,4.3,0,0,0,.9,318a12.4,12.4,0,0,0,2.5,4.5Z" transform="translate(208.8 204.1)" fill="#231f20"/><polygon points="218.7 526.7 212.6 526.7 214.3 525.3 214.3 512.5 212.6 511.1 218.7 511.1 216.9 512.5 216.9 525.3 218.7 526.7 218.7 526.7" fill="#231f20"/><path d="M25.6,322.6a10,10,0,0,0-2.6.4,7.9,7.9,0,0,0-2.4,1.1,14.6,14.6,0,0,0-.9-5.3,41.9,41.9,0,0,0-2.5-4.7l-2.5,2.5v4.6l1.8,1.4H10.3l1.8-1.4V308.3l-1.8-1.4h6.1l-1.8,1.4v6.6l5-4.8a2.4,2.4,0,0,0,.9-1.6q0-1-1.7-1.5h6.6l-.9.4a16.2,16.2,0,0,0-3.2,2.5l-2.9,2.8q2.4,4.5,3,5.4a17.6,17.6,0,0,0,4.1,4.5Z" transform="translate(208.8 204.1)" fill="#231f20"/><path d="M41.8,322.6H36l1.5-1.4L36,316.7l-1.2,1.4a8.9,8.9,0,0,0-1.1,1.5,18.8,18.8,0,0,0-2.6-3.7,16,16,0,0,0-1.1,4.3,3.6,3.6,0,0,0,1.3,2.4H25.7a7.4,7.4,0,0,0,3-3.1,23.3,23.3,0,0,0,1.5-4.2,3.7,3.7,0,0,0-1.7-.7,8,8,0,0,0,.9-1.9l1.3,1.3,2-5.7-1.2-1.4h5.3l-1.2,1.4,1.9,5.5a8.4,8.4,0,0,0,1.7-1.5,7.2,7.2,0,0,0,.9,2.3h-.7a3.1,3.1,0,0,0-1.5.4l2.1,6.2,1.7,1.4Zm-6.2-7.1-2.2-6.1-1.9,5.3a30.7,30.7,0,0,1,2.2,3,15.9,15.9,0,0,1,1.9-2.2Z" transform="translate(208.8 204.1)" fill="#231f20"/><path d="M60.3,322.6H54.2l1.8-1.4V310l-4.7,12.6h-.9l-4.9-12.7V318a7.2,7.2,0,0,0,.4,2.9,3,3,0,0,0,2.2,1.6H41.8a3,3,0,0,0,2.2-1.6,7.2,7.2,0,0,0,.4-2.9v-9.7l-1.8-1.4h7l-1.8,1.4,3.9,10.4,3.9-10.4-1.8-1.4h6.6l-1.8,1.4v12.8l1.8,1.4Z" transform="translate(208.8 204.1)" fill="#231f20"/><path d="M74.1,318.1a4.4,4.4,0,0,1-1.4,3.3,6.1,6.1,0,0,1-4.4,1.6,11.1,11.1,0,0,1-3.2-.5,12,12,0,0,0-2.7-.6,4.1,4.1,0,0,0-1.9.7,19,19,0,0,0,2.4-4.8,6.8,6.8,0,0,0,.7,2,4,4,0,0,0,2.1,1.6,7.1,7.1,0,0,0,2.6.5,4.6,4.6,0,0,0,2.5-.6,2.4,2.4,0,0,0,1.2-2.2,2.7,2.7,0,0,0-.5-1.5,4.3,4.3,0,0,0-2.5-1.7l-3.2-.7A5.4,5.4,0,0,1,63,314a4.4,4.4,0,0,1,.5-6.4,5.7,5.7,0,0,1,3.6-1.1,12.4,12.4,0,0,1,3.5.6l1.3.3,1.5-.4a23.3,23.3,0,0,0-2.2,4.1,4.9,4.9,0,0,0-.6-1.7,3.5,3.5,0,0,0-1.5-1.4,4.2,4.2,0,0,0-2-.5,3.4,3.4,0,0,0-2.1.6,2.3,2.3,0,0,0-1,2,2.3,2.3,0,0,0,1,1.9,6.6,6.6,0,0,0,2.2.9l2.2.5a7.1,7.1,0,0,1,3.4,1.6,4.1,4.1,0,0,1,1.2,3Z" transform="translate(208.8 204.1)" fill="#231f20"/><path d="M87.5,306.9a11.4,11.4,0,0,0-2.5,3.7,5.8,5.8,0,0,0-1.3-2.1,3.6,3.6,0,0,0-2.3-.6l-2.4.2v5.5h3.3l1.6-1.6v4.5l-1.6-1.9H78.9v6.5l1.8,1.4H74.6l1.8-1.4v-6.5a3.9,3.9,0,0,0-2.6.9,2.4,2.4,0,0,1,2.6-1.9v-5.3l-1.8-1.4Z" transform="translate(208.8 204.1)" fill="#231f20"/><path d="M102.5,322.6H88.7l1.8-1.4v-6.5a3.9,3.9,0,0,0-2.6.9,2.4,2.4,0,0,1,2.6-1.9v-5.3l-1.8-1.4h13.3a12.9,12.9,0,0,0-2.3,3.7,4.9,4.9,0,0,0-1.7-2.3,6.1,6.1,0,0,0-2.7-.4l-2.2.2v5.6h3.3l1.6-1.9v4.8l-1.6-1.9H93v6.8h1.7a7.5,7.5,0,0,0,3.2-.5,6.7,6.7,0,0,0,2.1-2.5,7.6,7.6,0,0,0,.9,2.3,10.5,10.5,0,0,0,1.6,1.8Z" transform="translate(208.8 204.1)" fill="#231f20"/><path d="M115.7,322.6h-7.5a7.5,7.5,0,0,1-7.9-8,8.2,8.2,0,0,1,2.1-5.8,6.9,6.9,0,0,1,5.3-2.3,11.6,11.6,0,0,1,3,.5l2.2.5a3.7,3.7,0,0,0,1.7-.4l-2.4,4.5a4.7,4.7,0,0,0-1.2-3,3.8,3.8,0,0,0-2.8-1.1,4.4,4.4,0,0,0-4,2.2,8.9,8.9,0,0,0-1.2,4.8q0,7.1,6.1,7.1a4.1,4.1,0,0,0,2.2-.4V315h-1.6a2.2,2.2,0,0,0-1.3.2c.2,0,.3.3.2.6a1,1,0,0,1-1,.8,1.1,1.1,0,0,1-1.1-1.3c0-.9,1-1.4,1.9-1.4h6.9l-1.5,1.5v5.7l1.8,1.4Z" transform="translate(208.8 204.1)" fill="#231f20"/><path d="M131,306.9a3.3,3.3,0,0,0-2.2,1.6,7.4,7.4,0,0,0-.4,2.9v6.7a6.6,6.6,0,0,1-.4,2.7,3.2,3.2,0,0,1-1.9,1.7,7.5,7.5,0,0,1-2.7.4q-3.9,0-5-2.1a9.5,9.5,0,0,1-.7-4.4v-8.2l-1.8-1.4H122l-1.8,1.4v9.7a7.5,7.5,0,0,0,.2,2.1q.5,1.8,3.2,1.8t3.2-1.5a10.2,10.2,0,0,0,.5-3.9v-5.1a7.4,7.4,0,0,0-.4-2.9,3.3,3.3,0,0,0-2.2-1.6Z" transform="translate(208.8 204.1)" fill="#231f20"/><path d="M144.5,322.6a6.8,6.8,0,0,0-4.1,1.5q0-3-2.8-8.9a16.4,16.4,0,0,1-3.1.5v5.4l1.8,1.4h-6.1l1.8-1.4v-5.1l-2.1.4.3-.7a1.3,1.3,0,0,1,.4-.6H132v-5.6l-1.8-.9a11.6,11.6,0,0,1,3.4-1.5,13.9,13.9,0,0,1,3.6-.5,8.4,8.4,0,0,1,4,.9,3.5,3.5,0,0,1,2.2,3.2,3.4,3.4,0,0,1-1.4,2.8,7.3,7.3,0,0,1-2.9,1.3,19.5,19.5,0,0,0,2.2,4.3,14.9,14.9,0,0,0,3.2,3.5Zm-3.9-12.4a2.3,2.3,0,0,0-1.2-2.1,5,5,0,0,0-2.4-.5,3.8,3.8,0,0,0-2.4.8v6.4q5-1,5.8-3a4.1,4.1,0,0,0,.3-1.6Z" transform="translate(208.8 204.1)" fill="#231f20"/><path d="M158.3,314.6q0,4.3-2.1,6.2t-6,1.8h-5.5l1.8-1.4v-5.8h-1.4v-1.2h1.4v-5.8l-1.8-1.4h5.5q8.1,0,8.1,7.7Zm-9.3-.4h1.2v1.2H149v6.1h1.5q5,0,5-7a8.6,8.6,0,0,0-1.1-4.6,4.2,4.2,0,0,0-3.9-2H149v6.2Z" transform="translate(208.8 204.1)" fill="#231f20"/><path d="M114.4,333.2a2.9,2.9,0,1,1-2.9,2.9,2.9,2.9,0,0,1,2.9-2.9Z" transform="translate(208.8 204.1)" fill="#231f20" fill-rule="evenodd"/></svg>