<svg xmlns="http://www.w3.org/2000/svg" viewBox="0 0 565 566.9"><title>aegir</title><path d="M246.6-39.9c155.9,0,282.5,127,282.5,283.5S402.6,527,246.6,527-35.9,400-35.9,243.5,90.7-39.9,246.6-39.9Z" transform="translate(35.9 39.9)" fill="#f2ea2a" fill-rule="evenodd"/><path d="M246.6-36.1c153.8,0,278.7,125.3,278.7,279.6S400.5,523.2,246.6,523.2-32,397.9-32,243.5,92.8-36.1,246.6-36.1Z" transform="translate(35.9 39.9)" fill="#2b3585" fill-rule="evenodd"/><path d="M246.6-32.5C396-32.5,517.2,90.4,517.2,241.9S396,516.2,246.6,516.2-24,393.3-24,241.9,97.3-32.5,246.6-32.5Z" transform="translate(35.9 39.9)" fill="#f2ea2a" fill-rule="evenodd"/><path d="M246.6-24.4c144.9,0,262.5,119.3,262.5,266.3S391.5,508.2,246.6,508.2-15.9,388.9-15.9,241.9,101.7-24.4,246.6-24.4Z" transform="translate(35.9 39.9)" fill="#2b3585" fill-rule="evenodd"/><path d="M246.5,53C351.1,53,436,137.9,436,242.5S351.1,431.9,246.5,431.9,57.1,347,57.1,242.5,142,53,246.5,53Z" transform="translate(35.9 39.9)" fill="#f2ea2a" fill-rule="evenodd"/><path d="M246.5,59.8c100.8,0,182.6,81.8,182.6,182.6S347.3,425.1,246.5,425.1,63.9,343.3,63.9,242.5,145.7,59.8,246.5,59.8Z" transform="translate(35.9 39.9)" fill="#2b3585" fill-rule="evenodd"/><path d="M246.5,64.1c98.5,0,178.4,79.9,178.4,178.4S345,420.9,246.5,420.9,68.1,340.9,68.1,242.5,148.1,64.1,246.5,64.1Z" transform="translate(35.9 39.9)" fill="#f2ea2a" fill-rule="evenodd"/><path d="M247.1,66.8c97.1,0,175.8,78.8,175.8,175.8S344.2,418.5,247.1,418.5,71.3,339.7,71.3,242.7,150.1,66.8,247.1,66.8Z" transform="translate(35.9 39.9)" fill="#2b3585" fill-rule="evenodd"/><path d="M112.7,222.3c-3.3,1.5-4.7,7.7-5,13.8s.2,9.9,1.6,12.8c3.7,7.7,7.8,4.3,15.2,11,5.7,5.1,10.6,13.3,12.1,19.5-8.9,12-14.7,22.9-16.5,32.1-6.1,31.3,11.5,53.9,22,61.8,13.1,9.9,34.9,18.6,62.8,10.1,11.5-3.5,25.5-14.1,29.8-20.6,1.1,2.3,2.3,2.2,2.3,3.6s.1,6.7.1,9.3a24.4,24.4,0,0,0,10.5-2.9c.3,2.5-2.3,3.7-3.6,5.4,0,3.9.5,7.8.5,11.7a9.9,9.9,0,0,0,1.8-6.3c-.3-2-2.1-2.4-1.2-3.6s1.8-1.6,3.5-3.4,1.1-2.7,3.2-2.7,2.6.4,2.7,1.7-1.5,1.9-1.7,3.3.5.6.6,1c2.6-3.6,5.4-8.6,7.9-11.9a8.2,8.2,0,0,1,2.4-2.4c.6.2.8.8.2,2.8s-2.3,10.3-1,14.4c2.7-3,1.7-7.9,2.1-12.2s.8-5.5,2.4-6.8a4.5,4.5,0,0,1,2.6-.9c1,3.8-1.3,5.1-1.6,7.7-1,7.9-.5,15.5.4,23.8,0,.8.8-.7.8-1.6.2-6.4.5-12.9,1.6-17.7a10.1,10.1,0,0,1,2.6-4.9c.1-1.6.4-2.6.6-4.4s1.3-4.1,1.3-5c.3-3.8,2.5-5.5,2.9-10.9a2.6,2.6,0,0,1,2.5.2c1.6,1.3,1.7,3.5,2.6,5.9a21.1,21.1,0,0,0,1.9,4.1c.5.6.5.5.5-.2a22.4,22.4,0,0,0-1.2-5.3c-.3-.9,3.8-.1,3.6-.5s-4.5.4-4-1,1.2-2.9,2.1-3.3a7.1,7.1,0,0,1,2.1-.3c-2-4-2.5-7.9-1.8-10.1s1.8-5.1,5-4.7a7.8,7.8,0,0,1,2.1.8c2.6,1.5,2,5.6-.5,5.6s-2.9-3.6-2.8-1.2-1.4,5.1.1,8,3.3,4.2,4.1,12.6c-.8.8-2.2,2.7-2,3,1.3,2,4.3,4.6,4.1,6.2s-1.1,1.3-2.1,1.8-8.4-.9-11.6-3.7c-1.4-4.4-.8-11.2-5.3-13.6a2.8,2.8,0,0,0-.2,1.5c.3,1.1,1.4,2.3,1.4,3.3s-1.6,1.7-1.8,2.9c-.7,5.7,1.9,11.5,4,15,.7.4,1.3.5,1.5-.1s0-3.5,0-5.3c1.6.1,3.8.1,5.5.8s2.6,2.1,4,2.2,3.8-1.6,5.9-1.4c36.9,6.9,64.7-9.4,81.9-31.1,8.7-10.9,19.1-35.2,15.1-57.1-2.3-12.7-12.5-25.8-25.5-32.9.2-18.9,15.9-19.1,19.8-30,2.4-6.6-2.1-24.1-7.7-26.2a2,2,0,0,0-1.9,1c-.9,1.9-.6,4.8-3.7,5s-3.7-8.3-6-8.2c-2.7-2-3.8-4.1-5.9-4.5-2.5,1.9-5.1,8-4.9,14.4-2,.4-5.6-2-8.2-2.8l-2.7,2c-2.5-1.6-4.3-3-6.8-4.6,0,1.6-.4,3.7-.4,5.3L330.6,202c-1.9-.2-1.6,1.3.2,1.9a25.9,25.9,0,0,1,11,7.7c3.6,4.7,5.8,8.9,8.8,14.9,1,2,6,3.6,7.2,4.1s5.7,1.3,5.1,3.1c-2.5,5.3-4.5,8.3-6.8,14.5-10.4-3.3-21.3-2.4-31.3,1.3l-20.5-14.8c-3.4-2.1,2.2-6.7,2.9-14.1,1.2-12.9,1.8-24.7,4.8-33.4s8-13.6,12.5-22.3c5.4-10.5,10.6-22.1,15.3-33.3,2-4.7,8.9-12.4,8.1-19-.5-3.5-2.8-7-11.6-4.2-4.6,1.5-10.3,5.2-15.1,8.1s-6.8.9-9.5,3c-8.2,6.1-15,16.7-19.6,18.2-.6.9.8,1.2.9,3.3s-.9,5.8-1.6,8.8c-1.9,9.1-4.6,11.8-5.8,11.9s-2.6-5-1.7-10.1,1.6-7,2.6-8.6-.1-1.3-.3-1.2c-2.2,1.4-3.4,3.2-4.8,4.6s-5.3,3.9-9,7.6c-6.2,6.2-14.4,14.8-21.1,20a11.8,11.8,0,0,1-2.9-2,7.3,7.3,0,0,0,.7-2.7c.1-1.4-.1-1.3-1.4-1.6-5.6-1.2-8.9-5.2-12.4-8.5s-1.9-3.2-6.5-6.6c1.9-3.4,3.4-3.6,5.3-6-1.4-.5-3.6-.1-5-.6,2.5-2.4,4.8-2.5,6.8-3.9-.5-1.5-6.8-.2-9.3-.2,1.7-3.1,4.5-5,6.2-8.1-1.9.5-3.4.5-5.3.9l-1.4-.9c-2.1,1.8-5.1,1.8-7.2,3.6s-4,6-6.4,8.1l-1.9-4.7c-1-1.5-3.4,6.3-5.5,6.8-8.1-8.3-19.9-17.4-30.5-26.2l1.2-4.9a81.7,81.7,0,0,1-16.7-6,2.2,2.2,0,0,0-2.3,3.5c3.6,5.4,4.2,7.1,6.8,14.2.6,1.7,4.1-.7,6.1-1.6l18.3,16.6c1.1,1,3.7,1.3,4.9,2.3s3.4,3.2,5.7,5-4,7.7-5.7,7l-30.7-21.8c0-1.3-.2-3.2-.2-4.5-6.1-1.6-10.6-2.6-16.9-4.6a2.1,2.1,0,0,0-1.8,3.5c3.2,4.6,6.7,9.6,10.7,14.9,1.1-1.3,3.1-2.3,4.2-3.5l31,21.2c1.2,3.3-4.5,9.6-5.6,9.5l-31.7-17.4c-.9-3-.1-3.7-3.8-4.5l-12.4-2.6c-2.8-.6-4,2.2-2.5,3.8,3.1,3.3,6,6.7,9.4,9.9,1.3,1.2,2.4,2.5,5.2-.9l28.7,16.3c2.8,1.4,5.4.5,7.5,3.1,4.8,6,2.6,6.2,3.4,9.5a13.2,13.2,0,0,0,2.6,4.6c3.1,3.6,3.9.9,5.9,1.7s3.1,3,1.9,6.7c-.5,1.6-1,3.1-1.4,4.5s1.2,4.7.8,6.9-2.6,4.6-4.4,7.9c.9,3,4,4.9,6,6,2.5,8.8,6.5,24.2,14.6,34.2s18.5,14.6,19.6,21,.4,14.6-1.4,16.9-9.8,7.6-15.6,9c-.3-12.6-3.7-20.1-8.1-26.7a40,40,0,0,0-16.4-13.7c-11-5.3-31.6-9.1-44.1.5-2.4-5.5-5.7-9.4-8.7-13.6,1.4-1.7,3.5-1.8,5.4-2.8a12.9,12.9,0,0,0,4.6-4.7,49.9,49.9,0,0,0,4.4-11.4c.8-2.8,1.2-5.5,2.9-7.7a35.9,35.9,0,0,1,9.3-8.1c1.8-4.3-8.1.1-12.3,1.2l-.6-3.8c-2.1,1-3.5,3.1-5.7,4.1s-2.7-.3-3.6-.1c-5.1,1.4-4,4.7-7.4,4.6-.8-2.4.2-3.7-1.7-6.9a21.6,21.6,0,0,0-6.1-6.6c-1.6.7-2.1,2.7-3.2,3.6s-2.1,1.2-2.2,2.7c-.6,5.8-2.3,7.3-4.4,8.2C114.7,226.2,114.1,224.7,112.7,222.3Z" transform="translate(35.9 39.9)" fill="#f2ea2a" fill-rule="evenodd"/><path d="M217.8,365.6a24.5,24.5,0,0,1-9.9,11.9c-8.9,5.3-21.5,6.1-30.8,3.9-1.9-.4-3.2-1.6-5.1-2.3l-1.6-.6c-1.4-.5-3.4-.7-4.8-1.3s-1.6-1.9-2.6-2.7a24.2,24.2,0,0,0-2.6-1.2c-.9-.5-2.1-.5-3.3-1a26.6,26.6,0,0,1-5-3.4A64.1,64.1,0,0,1,138,353.4c-.5-.8-.5-3.6-1.5-3.8a1.7,1.7,0,0,1-1.3-2.4c.6-1.2,1-2,.4-2.7s-3.3-3.9-3.9-6.5a51.4,51.4,0,0,1-.9-12.2c0-1.6.7-3.2.5-4.7s-.4-4.6-.1-7.2,1.1-3,1.4-4.5.1-2.8.3-4.1,1.2-1.4,1.4-2.6,0-1.9.3-2.7c1.4-5.1,4.8-8.8,7.6-13a75.4,75.4,0,0,1,7-8.6,96,96,0,0,1,11-9.5c1.6,0,3.8.3,5.3-2.3.3-.5,1.7.2,2.1-.2s.5,1.1,1.4.4.5-.8.9-.8h1.6c.7,0,0,1.3,1.3.6a9,9,0,0,1,2.3-.6c38.9,4,42.1,44.6,30.6,57-7.5,8.2-14.7,11-23.9,10.6-3-.2-12.3-8-18.9-12a22.7,22.7,0,0,1-1.7-7.9c-.2-3.2.1-6.5.1-8.9s1.2-3.9,2.2-2.8c4.9,5.3,12.6,18.8,21.5,16.8,6.5-1.5,9.5-10.8,8-19.6-1.1-6.3-8.9-14.1-16.1-14.7-3.5-.3-13.9,3.4-18.9,9s-6.1,13.2-6.3,17.9a5.1,5.1,0,0,0,1.4,4c.8.7.4,10.9,2,15.6s6.6,8.3,8.9,13.3c-.2,1.8-1,5.3-.7,6.5s2.9-2.8,3.5-4,.9-3.4.9-4.5,1.8.3,3.4.2a7.1,7.1,0,0,1,1.5-3.9,35.4,35.4,0,0,0,16.7,3.6c6.7-.3,11-2.9,17-6.7,1.6.8.8,2.7-.7,4.3s-3.9,3-5.3,3,.7,3,0,4a69.5,69.5,0,0,1-9.6,10.6c-.9.8-1,4.3-.2,4.3s5.1-.9,8-2.6,5.5-4.2,6.3-3.7l4.7,4c2.3-.9,4.4-2.1,6.8-2.6s2,2.8,3,4.3S220.8,364.2,217.8,365.6Z" transform="translate(35.9 39.9)" fill="#2b3585" fill-rule="evenodd"/><path d="M165.2,295.4c3.4,8.9,7.1,15.5,14.5,19.5,3.7,2,11.5-8.7,4.2-17.6C180.1,292.5,169.7,291,165.2,295.4Z" transform="translate(35.9 39.9)" fill="#2b3585" fill-rule="evenodd"/><path d="M256.7,311.3c-14,12-21,27.4-27.2,38.6-.6,1.1,1.9,1.6,1.5,2.7s-3.4,4.7-5.5,3.8-1.7-4.5.6-6.2-.1-2.7.6-3.6c3-3.8,7-8.4,9.9-13.6-3.1-.2-1.8-1.8-1.3-2.9,2.5-5.5,7.4-12.5,18.6-19.1,3.9-2.3-7.8-4.4-10.1-8.2s.1-6.3,2.3-8c.6-.5,3.3-.4,5.2-1.8s.3-1.7-.2-1.8-4.2,1.3-5.3-.4,1-6.3.4-7.4a20.5,20.5,0,0,1-8.7-12.1c-.5-1.9,3.2-.4,5.2-.6.3,0,.3-.8,0-.9-2.9-1.9-8.4-2.2-8.7-4.7-.1-.9.6-1.8.7-2.9s.6-2.3.4-2.7-1.5-.2-1.6-1a20.4,20.4,0,0,1,.8-5.6c.3-1.1.2-2,1.4-1.8,4.4.7,5.8,3.5,9.9,6.3a33.3,33.3,0,0,0,4.1,1.8,19.9,19.9,0,0,0,2.4,1.4c3.4,1.2,8.1-.6,12.6-1.2a13.6,13.6,0,0,1,5.7.5c2.8.6,9.1-5.6,11.9-4.9s7.1,1.6,8.5,5.5c.4,1-1,2.8-1.9,4s-1,.9-.8,1.4c4.9,15.5,12.8,30.8,12.7,47-.1,7.7-5.3,11.8-9.8,16.5-1.5,1.6-2.5,3.5-3.9,5.2s-6.6,4.6-8.1,2.2c-5.1-8-12.1-15.4-18.4-24.5C259.6,311,257.6,310.5,256.7,311.3Z" transform="translate(35.9 39.9)" fill="#2b3585" fill-rule="evenodd"/><path d="M165.9,339.7c1.1,1.1,2.6-.6,1.4-2.1a27.4,27.4,0,0,0-5-4.6c-1.5-.9-3.1.9-2.7,3S162,336,165.9,339.7Z" transform="translate(35.9 39.9)" fill="#2b3585" fill-rule="evenodd"/><path d="M225.1,331.2c-3.8,7.7-7.3,14.6-10.9,21-.6,1-2.1,1-2,0,.3-3.2,2-6,3-9.9-2.8-.7-4.1-1.2-3.7-2.9s3.1-5.7,5.7-7.2c1-.6-.4,3.2.8,3s4.1-3.7,5.8-4.9S225.6,330.1,225.1,331.2Z" transform="translate(35.9 39.9)" fill="#2b3585" fill-rule="evenodd"/><path d="M239.5,362c-.1.7-1.1.4-1,1.2s1.1.4,1.2,1.1l.3,8.8c2-.2,3.6-1.5,5.4-2.9a23.6,23.6,0,0,0,6.1-6.8c.6-1.1,1-1.7.3-2a24.7,24.7,0,0,1-2.7,0c-.1-.1,1.4,0,1.3-.3a24,24,0,0,1-.2-3c-.2-3.1,3.6-9.6,4.8-12.2.2-.5-.8-1.2-1.2-.8s-4.4,6.4-6.1,7.6c-.3.2-1.4.9-1.6.3s1.1-.7,1.6-1.5.1-1.9.1-2.4-2.2,0-2.1-.8c2.1-1.1,4-1.9,4.9-3.5s3.1-5.3,5.6-9.3c1.4-2.3,3.5-5.4,4.3-7.7,1.9-5.5-.1-9.3-1.8-9.8-5.1,6.7-11.5,15-15.9,19.6l.3,1.6c2.6-2,5.5-1.9,5.7.1a9.8,9.8,0,0,1-1.9,6.4c-1,1.3-2.2,2.1-2.2,2.6a19,19,0,0,0,0,3.4,8.4,8.4,0,0,0-2.1.4c-1.3.3-3.4,1.8-3.3,2.9C239.4,358,239.7,359.5,239.5,362Z" transform="translate(35.9 39.9)" fill="#2b3585" fill-rule="evenodd"/><path d="M264.4,345a104.9,104.9,0,0,1-9.6,15c-.4.9-.8,1.6-.4,2.4s1.3,1.1,2.2,1.8,1.1-.7,1.1-1.3-.4-.8-1.2-1.4a14.5,14.5,0,0,0,6.9-5.2c2.2-3.3,2.3-9.1,2.4-11.5Z" transform="translate(35.9 39.9)" fill="#2b3585" fill-rule="evenodd"/><path d="M197.7,356.2c-.3,0-1.3.2-1.4.4s.2,1,.6,1,1.5-.4,1.6-.8S198,356.3,197.7,356.2Z" transform="translate(35.9 39.9)" fill="#2b3585" fill-rule="evenodd"/><path d="M317.6,268c7.1-1.3,4.6-7.5,10.1-13.2s12.3-6.3,19.3-6.2c18.6.5,46.7,14.3,47,51,.2,24.2-19,51.1-34.2,57.3-1.1.1-3.7,2.4-6.1,3.4a29.4,29.4,0,0,1-3.2.7,6.3,6.3,0,0,1-1.2.4c-.7,0-1.1-.3-1.5-.2v1.6c-.8-.1-2.5.7-3.3.5s-.6-.6-1-1.1-.9,1.4-1.4,1.3-.8-1.4-1.2-1.7l-1.4,2.2h-2.5c-.3-.7,0-1.1-.2-1.9s-2-1-2-2.9c-.3.8-1.1,1.6-1.8,1.5s-.6-.8-1.3-1.7c-.4,1.7-1,2-1.6,1.9s-1.2,1.2-1.6,1.9a7.9,7.9,0,0,1-1.3-3.3,2.9,2.9,0,0,1-3-1.3c-.5-.8-1.7-.3-2.1-.7a1.8,1.8,0,0,1-.2-2c.7-.7,2.6-.5,3.2-1.2-3-2.4-5-3.6-7.7-6.8-.5-.6-1.5-.6-1.9,2.1a22.6,22.6,0,0,1-1.5,4.7,26.4,26.4,0,0,1-6.9-8.7c-1.3,1.2-1.5,3.4-2.7,5.1s-7.6-9.5-7-13.1c.1-.4,5.1,2.2,6.6,3.1a22.7,22.7,0,0,0,2.8,1.9c.8.4,2.4.4,3.2.7s1.2-.7.9-1.1a31.6,31.6,0,0,0-5.3-6c-1-.9-.4-1.9-1.3-3.1,1.5.2,3,1,3.1,1.7a36.9,36.9,0,0,0,3.9.3c.4-.7.6-2.9-.3-3.8s-5.1-2-7.1-3.2c6.5-2.1,13.1-.1,20.1,1.6a41,41,0,0,0,14.6.8c1.2-5.4-13.2-7.4-16-8.1a5.3,5.3,0,0,1-2.4-1.6h15.9c.5,0-.6-.6-.9-1.3s-.1-1.5.5-1.6c7.4-1,14.1-2.3,16.5-7.3a3.4,3.4,0,0,1,3.3,3.4c.4,3.9-9.5,6.2-12.1,10a1.9,1.9,0,0,0,.9,2.9c1.3.7,3.9.5,5.1,1s1.7,2.8,1.1,2.9c-2.6.4-4.2,3.3-5.1,5.3-2.5.5-7.8,1.3-10.8.6-.9-1.6-1.8-1.7-3.5-2.4s-.2.4-.5.7-.8.5-1,1a2.8,2.8,0,0,0,0,1.9c1.8,1.5,4.8,1,6.5,2.7s.2,1.4,0,2.3-.2,2-.3,2.4c1.9-.2,3-.5,3.6-1.8s.3-2.3.5-3.8c2.5-.2,3.7.1,5.5-.4a22.2,22.2,0,0,0,7.3-4.1c4.2-3.2,7.6-9.4,11.3-14.8.4-.5,1.7-.5,2.1-1l1.7-2.5c.6-.8-.5-2,.1-2.6l2.2-.6c-.6-1.4-.6-4.3-.5-6.2,3-1.7.5-8.3-.1-10.9s1-3.1-.1-5.6a16.9,16.9,0,0,0-5.4-7.1c-1.2-1.1-2.4-1-3.3-2.6s-.3-1.4-.8-2.1-5.5-3.4-7.7-4.3c-4.7-1.9-22.2,7-21.2,14.1.6,4.1,2.7,5.8,5.3,9.8,4.6.2,8.7.1,10.5-1.4s6.2-6.9,6.9-11.8c3.7,2,3.8,6.6,3.3,10.6-.2,1.8-1.5,2.7-2.9,4.6s-4.1,5.5-6.1,6.5c-7.2,3.7-16.7-1.5-23.6-5.9a21.6,21.6,0,0,1-8.6-10.7c-1.4-4.1.1-8.5-.5-14.2l2.7-.2A31.2,31.2,0,0,1,317.6,268Z" transform="translate(35.9 39.9)" fill="#2b3585" fill-rule="evenodd"/><path d="M348.3,284.2v5.6c-1.6,1.8-3.7,4.8-7.1,4.9a5.3,5.3,0,0,1-2.6-4.5,30.3,30.3,0,0,1,4-7.1Z" transform="translate(35.9 39.9)" fill="#2b3585" fill-rule="evenodd"/><path d="M324.4,345.4c.5-.4,1.9,0,2.4.4,2,1.6,3.8,3.4,6,4.3a7.2,7.2,0,0,0,5.6-.8c.7-.4,1.8,2.3.3,2.4s-4.7.6-6.7.2a17.4,17.4,0,0,1-3.3-1.2c-1.2-.5-2.3-.8-2.9-.4C324.9,348.7,322.7,346.7,324.4,345.4Z" transform="translate(35.9 39.9)" fill="#f2ea2a" fill-rule="evenodd"/><path d="M340.1,348.7l2-1.4c.6-.4.7,1.2.4,1.5a4.4,4.4,0,0,1-1.8,1C340.2,350,339.5,349.1,340.1,348.7Z" transform="translate(35.9 39.9)" fill="#f2ea2a" fill-rule="evenodd"/><path d="M339.4,331.3a2.4,2.4,0,0,1,1.8-.4c1.1.1.6,2.1-.2,2.4S338.9,331.7,339.4,331.3Z" transform="translate(35.9 39.9)" fill="#f2ea2a" fill-rule="evenodd"/><path d="M250.7,386c.7-.4,1.3.3,2-.1s1.9-2.6,3.2-3.4,2.1,1.7,2.2,2.5-1.4,3.9-3.6,5.9c-.1,2.7,1.1,2.1,1.1,3s-1.2.5-1,3.9c.5.7,1.7,1.1,2.2,1.8s.8,2.3,1.5,3.3,1.4.1,2.1-.5,1.5-2.3,2.1-4.2c.1-.4,1.6.2,1.7.6s0,1.8.2,2.2,1.7,1,2.4,1.9.8,2.9,1.6,4,1.2.3,1.9.8a25.2,25.2,0,0,1,2.3,2.9c.6.2-.2,2.7-1,2-3-3-6.4-6.8-9.4-9.8a6,6,0,0,1-4.7,1.8c-1.9-2.8-3.4-4.3-3.7-5.3-1.2-4.1-.7-5.3-.7-8.9a6.5,6.5,0,0,1-2.7-1.7Z" transform="translate(35.9 39.9)" fill="#f2ea2a" fill-rule="evenodd"/><path d="M273.5,405.2v-5.9c3.6.7,4.1,2.2,7.3,3.2.1-.7,0-1.8.1-2.5l1.8.2c0,.9.3,1.5-.1,2.4a3.5,3.5,0,0,1-2.4,1.2,9.4,9.4,0,0,1-2.9-.5c-1.2.3-1.9.7-2.1,4.2Z" transform="translate(35.9 39.9)" fill="#f2ea2a" fill-rule="evenodd"/><path d="M275.7,387.2c.1.8,0,1.9.1,2.7,2.7,2.2,3.5,1.9,4.4,3a4.7,4.7,0,0,1,1.1,3.1c.8.4,1.4.5,1.5.1.7-2.4-2-3.6-2.4-5.3h4.5l-1.2-2.8c-1.2-.4-2.7,0-4,0A7.8,7.8,0,0,1,275.7,387.2Z" transform="translate(35.9 39.9)" fill="#f2ea2a" fill-rule="evenodd"/><polygon points="319.5 423 319.4 424.8 321.4 424.8 321.5 423.1 319.5 423" fill="#f2ea2a" fill-rule="evenodd"/><path d="M303.9,243.5l13.9,9.5c-9.8,12.4-15.9,25.3-13,38.1a40.8,40.8,0,0,0,5.9,12.8c1.8,2.9.1,3.3-3.6,3.2-5.2-10.8-7.2-22-8.8-33.2a5.8,5.8,0,0,0,3.3-2.6c1.7-2.3,2.2-6.5,2.6-11.4-.9,1-1.4,1.1-2.3,2.1-4.5-8.2-5.1-16.5-2.1-17.7s3.2,3.8,3.8,11.9l2-.3C305.5,252.4,303.5,247.2,303.9,243.5Z" transform="translate(35.9 39.9)" fill="#2b3585" fill-rule="evenodd"/><polygon points="338.7 276.2 337.3 279.1 355.3 291.7 357.9 289.6 338.7 276.2" fill="#2b3585" fill-rule="evenodd"/><path d="M357.3,207.2c2,7.5,6,10.6,11.6,15.2a26,26,0,0,0-.1-10c-.6-3.1-2.5-6-2.9-8.6a16.8,16.8,0,0,1,.1-7.3c2.7,2.4,5.1,7.3,7.7,13.6,3.9-.4,2.9-2.7,2.5-4.7s-1.9,1.9-3.4-4.4c-.4-1.7-.7-3.5-1-5.3-.1.1-1.4.9-2.2.3s-2.9-4.3-4.6-5.6c-3.5,5.1-3.3,9.1-1.8,13,.5,1.3,1.5,1.9,2,3.4a20.7,20.7,0,0,1,.9,5.1c0,1.1.2,3.1-2.6,1.3a14.5,14.5,0,0,1-5.1-6.1C357.8,206.5,357.1,206.3,357.3,207.2Z" transform="translate(35.9 39.9)" fill="#2b3585" fill-rule="evenodd"/><path d="M353.7,204.5c1.2.5,1.5,1.3,1.6,3.3h-4.7a1.7,1.7,0,0,1,.4-1.8C351.7,205.2,352.8,204.1,353.7,204.5Z" transform="translate(35.9 39.9)" fill="#2b3585" fill-rule="evenodd"/><path d="M376.2,218.7c-.1-1.8-.1-3.7-.2-5.5s1-.4,1.1,0c.5,1.9,2,1.6,2.1,3.1s.3,2.3-.7,2.3Z" transform="translate(35.9 39.9)" fill="#2b3585" fill-rule="evenodd"/><rect x="417.1" y="249.5" width="0.9" height="2.37" fill="#2b3585"/><path d="M240.9,247.4c2.8-.9,4.1-2.3,6.8-2.2,4.6.2,9.5,3.4,14.4,3.3,7.3-.2,10.6-.5,14.9.2.6,3.5-.9,5.4-3.4,6.4a36.1,36.1,0,0,1-13.1,2c-2.5-.2-4.2-1.5-6-1.6s-5.1-2.1-7.6-4.1S241.4,250.3,240.9,247.4Z" transform="translate(35.9 39.9)" fill="#2b3585" fill-rule="evenodd"/><path d="M278.8,248.7c2,2.6,6.1,5,9.3,4.9,1.7-.1,1.9-4.6-.7-5.9S282.7,248.4,278.8,248.7Z" transform="translate(35.9 39.9)" fill="#2b3585" fill-rule="evenodd"/><path d="M207.9,223.6c1.9,1.3,3,2.1,3.6,4.1H215a16.9,16.9,0,0,0,13,4.4c1.1-.1,2.1.8,3.2.7,3.8-.5,7.7-3.6,11.9-3.7,2.5,0,2.3.8,4.9,1.2l3.1.5c1.5.2,2.2,1.2,3.8,1.1a45.9,45.9,0,0,1,12,.4l3.9.6c1.2.2,3.6-1.6,3.5.1a17.8,17.8,0,0,1-.2,1.9c-.2,1.1-2.3,1.7-3.3,2.5s3.3,1.6,7.7,1.1c1.5-.2,2.4-.9,3.5-.8,4.8.2,7.5-.1,11.4,0s7-6.7,7.8-9.1,1.1-7.4,1.8-12.4c1.3-9.7,2.9-21.3,4-27.1s3.3-7.6,5.7-11.3a37.5,37.5,0,0,0,5.7-12.4c.1-.4-.5-.9-1-.7-2.4.7-6.8,4.8-10.9,3.9-.8-2.6-.8-5.2-1.2-6.8a18.5,18.5,0,0,0,1.2-4.7c.1-1.2-1.2-1.7-1.5-1.3-3.6,5.5-6,16.9-4.6,27.9-5,7-5,13.2-8.6,18.9-5.2,8.3-10,15-12.1,24.5-4.5-1.8-5-4.5-6.1-8.7-10.7-1.4-18.3-2.5-27.4-3.4-8-6-18.2-9.1-26.5-7.8-3.6.6-8.1,1.9-9.8,5.5-.9,1.9-.3,4.8-.3,8C209.2,221.7,208.4,222.4,207.9,223.6Z" transform="translate(35.9 39.9)" fill="#2b3585" fill-rule="evenodd"/><path d="M297.4,168.5c-2.2,16.7-10.7,30.4-19.4,43a5,5,0,0,1-2.3-.5c-1.6-1.5-3.5-3.4-5.3-4.9-.8.7-1.6,2.1-2.5,2.8l-9.1-5.5a9.1,9.1,0,0,1,2.7-5.1c4.4-4.4,6.3-3.8,3.6-8.7-1.2-2.3-2-4.2-3.7-6.1a6.4,6.4,0,0,0-3-1.4c-1.2-.8-1.9-1.7-.9-3.2,4.5-.6,13.5-2.1,19.4-4.2a176.8,176.8,0,0,0,18.5-7.9C296.1,166.3,297.6,166.6,297.4,168.5Z" transform="translate(35.9 39.9)" fill="#2b3585" fill-rule="evenodd"/><path d="M329.8,114.4c-4.1,6.3-13.1,6.2-19.8,9.7v1.5l7.1-1a10.3,10.3,0,0,1,2.2-2.6l1.5,1c-.1.7-.2,1.7-.2,2.3,2.1,1.7,4.4,2.9,4.5,4.7s-3.2,1.2-4.3,1c-1.4,1.4,1.5,3.4,1.2,5s-1.1.8-1.1,1.4a5.4,5.4,0,0,1-.9,2.9c-1.1,1.3-3.4,1.8-4.8,3.6s-.7,2.5-1.2,3.2-2.6.1-4.1-.2l-.7,1.7a13.1,13.1,0,0,0,8.1,2.4c1.4,0,.6,1.2,1.8,1.1s.6-1.3,1.3-1.2a8.1,8.1,0,0,0,5.2-1.8c1.2-1,1.3.4.7,1.5a9.9,9.9,0,0,1-8.6,5.6c-4.8.1-10-3.9-14.7-7.8.4,5.8-2.1,2.9-4.4,5.8-.4.6-.1,1.5-.6,2.6s-3.4,1-3.6-.1.4-2.5.5-3.8-.4-4.3-.3-6.4a29.5,29.5,0,0,1,1.2-6,10,10,0,0,1,4.5-5.9c2.4-7.1,5.3-8.9,9.3-11.6C315.8,119.1,322.6,118.5,329.8,114.4Z" transform="translate(35.9 39.9)" fill="#2b3585" fill-rule="evenodd"/><path d="M340.7,109.7c1.8-.4,3.2.3,3.1,1.3a2.1,2.1,0,0,1,1.3,1.6,1.3,1.3,0,0,1-2.2,1.1,14.3,14.3,0,0,1-2.7-2.6A.8.8,0,0,1,340.7,109.7Z" transform="translate(35.9 39.9)" fill="#2b3585" fill-rule="evenodd"/><path d="M238.4,163.5c2.3,2.8,4.7,3.8,7.7,5,.8.6,0,1.9-1.3,2.7s-2.8.7-3.6,1.5-.1.8,0,1.2,1.9.8,1.7,1.6a8.9,8.9,0,0,0,.9,5.8c1,2.3,2.8,3.7,2.2,7.4-.2,1.3-2.4,1.7-2.9,1.6a13.9,13.9,0,0,1-7.7-4.6c-1-1-.3-1.8-1.6-2.6.5-.5,1.3-.6,1.5-1a.9.9,0,0,0-.4-1,2.9,2.9,0,0,0-2-.4c-1.3.5-1.8,2.4-3.2,1.7a23.9,23.9,0,0,1-6.3-5.7c-.8-1-.4-2-.8-2.9s-2.7-.4-3.1-1.1c-2-3.2-5.3-7.4-4.2-10.4,2.9-3.5,6.2-6.3,8-9.8s6.4,3,7.6,4.4c-.3.7-1.5,1.5-1,2s1.1,1.3.8,2c-1.3,2.9-7.6,3.2-5.6,8.9a5.8,5.8,0,0,1,2-2.7c.8-.6,1.1-.7,1.7.2s-1.1,3.4-1.4,4.2a6,6,0,0,0,8,.3C236.9,170.5,238,167.8,238.4,163.5Z" transform="translate(35.9 39.9)" fill="#2b3585" fill-rule="evenodd"/><path d="M214.5,166.2c0,3.6.6,8-.7,11.2h2.9a15.8,15.8,0,0,1,2.7,5.8c.3,1.6-.7,4.2-1.2,6.1h1.8c.1-1.8-.1-3.6-.1-5.7l3.3,2.4c.1.5.2,1.4.4,2a22,22,0,0,0,4.8,2.5,8.3,8.3,0,0,0-2.2,2.3h-1.7c-.2-.4-.5-.5-.6-.9s-.4.5-.9.8l-3.8-.7-1,1.2c0,2.8.3,5.4-.5,8.1a4.1,4.1,0,0,1-3.3,2.5v-4.6c-.8.5-1.8.6-2.3-.4s1.2-2.7,1.4-3.9a37,37,0,0,0,.3-7.5c-2.5-2.7-4.1-5.1-4.3-7.2s2.8-3,1.3-4.2a19.4,19.4,0,0,1-2.9-1.5,5.6,5.6,0,0,1,1.7-3.7A26.1,26.1,0,0,1,214.5,166.2Z" transform="translate(35.9 39.9)" fill="#2b3585" fill-rule="evenodd"/><polygon points="265.1 226.8 265.3 229.3 268 229.9 268.4 228.7 265.1 226.8" fill="#2b3585" fill-rule="evenodd"/><polygon points="245.7 234.1 245.9 231.2 248.5 231.2 248.5 232.5 245.7 234.1" fill="#2b3585" fill-rule="evenodd"/><path d="M242.5,194.2a20.5,20.5,0,0,0,.9,3.2,6.1,6.1,0,0,0,4.3-.3,5.9,5.9,0,0,1-1.7-2.9A15.8,15.8,0,0,1,242.5,194.2Z" transform="translate(35.9 39.9)" fill="#2b3585" fill-rule="evenodd"/><path d="M136.7,233.9c-.1,2-.9,3-1.2,4.6-.9,4.7-2.2,7.4-4.4,8.4-2.1-1.1-3-2.7-2.8-9.9,2.2-1,2.9-.6,4.4-.4S135.4,234.8,136.7,233.9Z" transform="translate(35.9 39.9)" fill="#2b3585" fill-rule="evenodd"/><path d="M120.8,238.6c.4,0,.9,1.2,1.4,1.8a3,3,0,0,1,1.1,2.2c0,.7-.7,1-1.2,1.6s-.9,1.5-1.6,1.5-1-.7-1.6-1.3-1.3-1.4-1.3-2.2.8-1,1.3-1.6S120.4,238.6,120.8,238.6Z" transform="translate(35.9 39.9)" fill="#2b3585" fill-rule="evenodd"/><path d="M119.7,231.3c-.5,1.2-.6,1.2,0,2.3s2.1,1.5,3,1.7c2.2-4.3,1.8-12.1,5.2-15.2,1.7.4,1.8,3.6,1.7,7.2,0,.6,1.9-.5,2.1-1,1.1-4.3-.6-8.7-4.1-10.3-.8.9-1.5,3.7-2.5,4.6s-1.5.4-2.2,1.1c-.9,2.3.3,4.7-.8,7.2C121.7,229.6,120.2,230.1,119.7,231.3Z" transform="translate(35.9 39.9)" fill="#2b3585" fill-rule="evenodd"/><rect x="150.4" y="276.3" width="1.8" height="2.33" fill="#2b3585"/><path d="M232.2,206.2c5.1,1.6,8.5,2.7,12.2,5.1.6-.1,2-.7,1.7-1.4a15.9,15.9,0,0,0-2.3-3.5c-1.6-1.7-9.5-2.3-10.9-2.1S231,205.5,232.2,206.2Z" transform="translate(35.9 39.9)" fill="#2b3585" fill-rule="evenodd"/><path d="M248.9,205.8c-.9,2.9-1.1,5.8,1.7,7.1a49.1,49.1,0,0,0,7.6,1c-.2-.6.1-1.6-.1-2.2C255.2,210.9,252.1,208.4,248.9,205.8Z" transform="translate(35.9 39.9)" fill="#2b3585" fill-rule="evenodd"/><path d="M254.1,207l10.7,7.5a10.1,10.1,0,0,0,.9-5.3l-7.9-4.9C256.4,203.7,254.3,205,254.1,207Z" transform="translate(35.9 39.9)" fill="#2b3585" fill-rule="evenodd"/><polygon points="304.5 250.4 303.9 254.1 305.6 254.3 306.1 250.6 304.5 250.4" fill="#2b3585" fill-rule="evenodd"/><path d="M253.5,180.3a6.4,6.4,0,0,0-1.8,2.6c-.7,2.4-.1,5.2-1,6,1.1,1.2.7,5.4,2.2,5.2s1,.3,1.3.1.7-2.4,1.1-3.7.3-.7,1.2-1.2a2.8,2.8,0,0,1-1.5-1.4,4,4,0,0,1,0-2.4c1.3,0,1.8-2.1,1.7-2.8S254.9,181.2,253.5,180.3Z" transform="translate(35.9 39.9)" fill="#2b3585" fill-rule="evenodd"/><path d="M250.1,177.5c-2.5-.4-3.4,1.3-3.1,2.8-2.1-1.5-2.8-4.3-1.8-5.5S248.3,175.3,250.1,177.5Z" transform="translate(35.9 39.9)" fill="#2b3585" fill-rule="evenodd"/><path d="M279.9,150.7a31.4,31.4,0,0,0-1.8,5.4c-.7,2.5-.6,3.8-1.9,6.5-.3.5-1.7,1.9-2.2-.4s-.9-6.6.7-8.6a22.2,22.2,0,0,1,4.5-4C280.4,148.9,280.2,150,279.9,150.7Z" transform="translate(35.9 39.9)" fill="#2b3585" fill-rule="evenodd"/><path d="M270.1,160.2c.4,2.7-1.4,4.3-2.2,5.6s-.8,1.1-1.1-.1a6.4,6.4,0,0,1,.2-4.1,6.1,6.1,0,0,1,2.1-2.5C269.8,158.7,270,159.8,270.1,160.2Z" transform="translate(35.9 39.9)" fill="#2b3585" fill-rule="evenodd"/><path d="M222.8,150.1c-.2,1.2,3.6.9,4.1.3s.9-3.2-.4-3.2A4.2,4.2,0,0,0,222.8,150.1Z" transform="translate(35.9 39.9)" fill="#2b3585" fill-rule="evenodd"/><path d="M195.6,345.1a72.5,72.5,0,0,0-10.9,16.5,20.9,20.9,0,0,0-7.9-8.4l2.2-2.2a22.5,22.5,0,0,1,3.3,1.5c2.2-2.8,5.1-6.9,7.3-7.9S194.2,343.9,195.6,345.1Z" transform="translate(35.9 39.9)" fill="#f2ea2a" fill-rule="evenodd"/><path d="M168,354.4c0,.3,1.3.5,2.6.9s1.5-2.8.9-3.4-1-.4-1.6-.2a4,4,0,0,0-1.9,1A13,13,0,0,1,168,354.4Z" transform="translate(35.9 39.9)" fill="#f2ea2a" fill-rule="evenodd"/><path d="M280,265.9c-1.8,2-3.9,3.9-5.7,5.8l-4.8,5a15.3,15.3,0,0,1-3.3,2.3c-1.7,1-2.3-.9-1.3-1.8a99.4,99.4,0,0,0,8.9-8.3,13.4,13.4,0,0,1,1.4-2.4l3.2-3.1C279.6,262,281.2,264.6,280,265.9Z" transform="translate(35.9 39.9)" fill="#f2ea2a" fill-rule="evenodd"/><path d="M288.7,304.9c-.8,1.1,1.2,3.4,2.3,3.4a2.3,2.3,0,0,0,2-3C292.3,304,289.3,304,288.7,304.9Z" transform="translate(35.9 39.9)" fill="#f2ea2a" fill-rule="evenodd"/><path d="M283.9,297.3c.3.6,2,.6,2.2-.2a4.2,4.2,0,0,0,.1-2.1c-.2-.7-1.1-.4-1.4,0S283.7,296.8,283.9,297.3Z" transform="translate(35.9 39.9)" fill="#f2ea2a" fill-rule="evenodd"/><path d="M287.5,292.3c-.6.3-.7,1.8.4,2a33.1,33.1,0,0,0,4,.5.9.9,0,0,0,.6-1.5,16.7,16.7,0,0,0-2.7-.6C288.5,292.5,288.3,292,287.5,292.3Z" transform="translate(35.9 39.9)" fill="#f2ea2a" fill-rule="evenodd"/><path d="M258.3-4l11.3,1.6,20.5,36.1,3.6-24.9c.4-2.7.3-4.4-.2-5.1A4.8,4.8,0,0,0,290,1.8l-1.5-.2.2-1.2,15.1,2.2-.2,1.2L302,3.5a4.4,4.4,0,0,0-4.1,1.1c-.6.6-1,2.1-1.4,4.6L291.2,46l-1.2-.2L266.4,4.8l-4.1,28.3c-.4,2.7-.3,4.4.1,5.1a4.8,4.8,0,0,0,3.5,1.9l1.5.2-.2,1.2-15-2.2.2-1.2,1.5.2a4.5,4.5,0,0,0,4.2-1.1c.6-.6,1-2.1,1.4-4.5l4.5-31.3a12.5,12.5,0,0,0-1.3-1.9,6.8,6.8,0,0,0-4.6-2.3Z" transform="translate(35.9 39.9)" fill="#f2ea2a" fill-rule="evenodd"/><path d="M3.7,281.9,3,270.5l31.3-27.3L9.1,244.7c-2.7.2-4.3.6-5,1.2A4.8,4.8,0,0,0,3,249.7v1.5H1.9l-.9-15.2H2.3v1.5a4.4,4.4,0,0,0,1.9,3.8c.7.4,2.3.6,4.7.4l37.2-2.1v1.2L10.7,272.2l28.6-1.6c2.7-.2,4.3-.5,5-1.2a4.8,4.8,0,0,0,1.1-3.8v-1.5h1.2l.9,15.2H46.1v-1.5a4.5,4.5,0,0,0-1.9-3.9c-.7-.4-2.3-.6-4.7-.4L7.8,275.2a12.5,12.5,0,0,0-1.6,1.7,6.8,6.8,0,0,0-1.3,5Z" transform="translate(35.9 39.9)" fill="#f2ea2a" fill-rule="evenodd"/><path d="M246.1,39.6l-10.3,1.1L218,22.1l-2.6.4h-1.9l1.4,12.6c.3,2.7.8,4.4,1.5,5a4.6,4.6,0,0,0,3.8,1l1.7-.2v1.2l-18.6,2.1V43.1l1.6-.2a4.4,4.4,0,0,0,3.7-2.2c.4-.7.4-2.3.2-4.8L205.6,7.9c-.3-2.7-.8-4.4-1.5-5a4.7,4.7,0,0,0-3.9-1l-1.6.2V.9L214.3-.9c4.6-.5,9.3-.7,11.6-.3a11.7,11.7,0,0,1,6,3.1,9.7,9.7,0,0,1,3,6.2c.8,7.2-4.7,10.4-10.7,12.4L235.4,32c3,3,6.1,6.4,10.6,6.4ZM213.2,20.6H215c4.1-.5,8.4-1.8,10.3-3.9a8.8,8.8,0,0,0,2.5-7.2c-.3-2.7-1-4.6-2.9-6.1-3.6-2.9-9.8-3-13.8-.7Z" transform="translate(35.9 39.9)" fill="#f2ea2a" fill-rule="evenodd"/><path d="M122.7,58.5l6.2,10.7c1.4,2.4,2.5,3.7,3.4,3.9a4.7,4.7,0,0,0,3.9-.7l1.4-.9.6,1-16.1,9.6-.6-1,1.4-.8a4.4,4.4,0,0,0,2.5-3.6c0-.8-.6-2.3-1.9-4.4L109.2,48.1q-2.1-3.5-3.4-3.9a4.7,4.7,0,0,0-3.9.7l-1.4.8-.6-1,13.7-8.2a36.4,36.4,0,0,1,10.7-4.4c5.2-.9,9.2.7,11.8,5.1s1.8,8.4-.5,12.1a21,21,0,0,1-9.2,7.6C125.3,57.3,124.1,58.1,122.7,58.5Zm-1-1.5,2.8-1.1a14.3,14.3,0,0,0,6.1-5.2c1.7-2.9,1.8-6.4-.4-10.1a10,10,0,0,0-7.5-4.9c-3.4-.2-8.3,2.2-10.7,5Z" transform="translate(35.9 39.9)" fill="#f2ea2a" fill-rule="evenodd"/><path d="M83.3,57.7l10.4,8.8-.9.8c-3.2-2.4-7.4-3.5-11-2.6a10.7,10.7,0,0,0-5.1,2.5,8.5,8.5,0,0,0-2.9,5.4,6.2,6.2,0,0,0,1.5,4.9,5.6,5.6,0,0,0,3.5,1.8c2.1.3,5.3-.1,10.8-1.4a54.2,54.2,0,0,1,9.3-1.6,12.9,12.9,0,0,1,5.5.8,12.1,12.1,0,0,1,4.5,3,11.3,11.3,0,0,1,2.9,8.9c-.3,3.5-1.8,6.3-4.8,9a16.2,16.2,0,0,1-7.4,3.9c-2.5.6-3.1,2.2-1.7,4.3l-.9.8L85.8,98.7l.8-.8A17.1,17.1,0,0,0,99.1,100a13.8,13.8,0,0,0,5.9-3.1,8.1,8.1,0,0,0,2.3-3.3A7.2,7.2,0,0,0,106,86a7.9,7.9,0,0,0-7-2.6,54.3,54.3,0,0,0-7.6,1.3,56.9,56.9,0,0,1-8.7,1.5,13.5,13.5,0,0,1-5.4-.7A10.2,10.2,0,0,1,73,82.6a10.7,10.7,0,0,1-2.7-8.4,11.6,11.6,0,0,1,3.8-7.6A16.8,16.8,0,0,1,80.3,63a5.6,5.6,0,0,0,2.2-1.1c1.3-1.2.4-2.4-.1-3.4Z" transform="translate(35.9 39.9)" fill="#f2ea2a" fill-rule="evenodd"/><path d="M170.3,9l14-4.9.4,1.1-.8.3A6.5,6.5,0,0,0,181.8,7a9.6,9.6,0,0,0-2,3,31.4,31.4,0,0,0-1.6,5.3l-4,17.7,4.1,11.5q1.3,3.8,2.5,4.4a5,5,0,0,0,4.1,0l1.3-.5.4,1.1-17.5,6.2-.4-1.1,1.5-.5a4.4,4.4,0,0,0,3.1-2.9c.2-.8-.1-2.4-.9-4.7l-3.9-11-17-12c-2.1-1.5-3.4-2.5-4.1-2.8a11.2,11.2,0,0,0-3.6-.8,4.2,4.2,0,0,0-1.9.3l-.4-1.1,17.6-6.2.4,1.1-.9.3a5.6,5.6,0,0,0-2.4,1.6,2.3,2.3,0,0,0-.5,2.4c.3.7,1.3,1.9,3.3,3.3l12.9,9,3.4-13.9c.6-2.3.9-4.3.5-5.2a2.9,2.9,0,0,0-1-1.4,3.2,3.2,0,0,0-1.6-.6,6.5,6.5,0,0,0-2.6.5Z" transform="translate(35.9 39.9)" fill="#f2ea2a" fill-rule="evenodd"/><path d="M53.5,90.7l8.9,5.3-.7,1a15.6,15.6,0,0,0-4.1-1.6,6.5,6.5,0,0,0-3.8.7,9.2,9.2,0,0,0-3.2,3.1l-3.6,5.5,27.8,18.5c2.2,1.5,3.8,2.2,4.7,2.1a4.8,4.8,0,0,0,3.2-2.4l.8-1.3,1,.7L74.3,137.8l-1-.7.9-1.3a4.4,4.4,0,0,0,.8-4.2c-.3-.8-1.5-1.8-3.5-3.2L43.6,110l-3.1,4.7a14.5,14.5,0,0,0-2,3.9,5.9,5.9,0,0,0,.4,3.7,11.4,11.4,0,0,0,3.5,4l-.7,1-8.3-6.2Z" transform="translate(35.9 39.9)" fill="#f2ea2a" fill-rule="evenodd"/><path d="M26.3,134.5l9.8,3.4-.5,1.1a15.6,15.6,0,0,0-4.3-.7,6.5,6.5,0,0,0-3.5,1.4,9.2,9.2,0,0,0-2.5,3.7l-2.5,6.1,31,12.5c2.5,1,4.1,1.3,5,1.1a4.8,4.8,0,0,0,2.7-3l.6-1.4,1.1.4-6.9,17.2-1.1-.4.6-1.4a4.4,4.4,0,0,0-.1-4.3c-.5-.7-1.8-1.5-4.1-2.4l-31-12.5-2.1,5.3a14.5,14.5,0,0,0-1.2,4.2,5.9,5.9,0,0,0,1.1,3.5,11.4,11.4,0,0,0,4.2,3.2l-.5,1.1-9.4-4.4Z" transform="translate(35.9 39.9)" fill="#f2ea2a" fill-rule="evenodd"/><path d="M35.6,197.2l-2.7,16.7,6.3,4a10.8,10.8,0,0,0,3.6,1.7,2.2,2.2,0,0,0,1.9-.7c.6-.6,1.1-1.8,1.6-3.9l1.2.2-2.2,13.6-1.2-.2a7.5,7.5,0,0,0-.7-3.7c-.8-1.2-2.7-2.8-5.6-4.6L4.8,199.5l.2-1.1,38.3-9.3q4.6-1.1,6.1-2.4a6.8,6.8,0,0,0,2.1-3.9l1.2.2-2.7,17-1.2-.2a6.5,6.5,0,0,0-.3-3.6,2.2,2.2,0,0,0-1.6-1.2,13.5,13.5,0,0,0-4.6.6Zm-2.5.5-18.6,4.5,16.2,10.3Z" transform="translate(35.9 39.9)" fill="#f2ea2a" fill-rule="evenodd"/><path d="M455.2,185l-4.6-16.3-7.4-1a10.8,10.8,0,0,0-4,0,2.2,2.2,0,0,0-1.4,1.4c-.3.8-.3,2.2.2,4.2l-1.1.3L433,160.5l1.1-.3a7.5,7.5,0,0,0,2.2,3.1c1.3.8,3.6,1.4,7,1.8l38.8,4.9.3,1.1-30.8,24.6q-3.7,3-4.6,4.8a6.8,6.8,0,0,0-.3,4.4l-1.1.3L441,188.5l1.1-.3a6.5,6.5,0,0,0,1.8,3.2,2.2,2.2,0,0,0,2,.4,13.5,13.5,0,0,0,3.9-2.5Zm2-1.5,14.9-12L453.1,169Z" transform="translate(35.9 39.9)" fill="#f2ea2a" fill-rule="evenodd"/><path d="M34.1,318.7l10.3-20.2c2.3-4.5,4.4-7.5,2.9-12.4l1.1-.4,6.7,18.3-1.1.4a6.1,6.1,0,0,0-1.7-2.7,1.8,1.8,0,0,0-1.6-.3,2.7,2.7,0,0,0-1,.8,12.9,12.9,0,0,0-1.6,2.6l-8.6,17,2.9,1.6,10.2-3.7a14.3,14.3,0,0,0,4-1.9,2.8,2.8,0,0,0,.8-1.7,5.9,5.9,0,0,0-.3-3l-.5-1.4,1.1-.4,6.4,17.5-1.1.4-.5-1.4a4.7,4.7,0,0,0-2.8-3.2c-.8-.3-2.5.1-4.9,1l-26.5,9.7a14.9,14.9,0,0,0-4,1.9,3,3,0,0,0-.8,1.7,6.1,6.1,0,0,0,.3,3.1l.5,1.4-1.1.4-6.4-17.5,1.1-.4.5,1.4a6.2,6.2,0,0,0,1.7,2.5,2.8,2.8,0,0,0,1.9.8,14.6,14.6,0,0,0,4.1-1.1l13.2-4.8-19.1-9.3a7.4,7.4,0,0,0-3.6-.6c-2,.7-2.1,2.2-1.4,3.9l.3.9-1.1.4L8.9,304.8l1.1-.4a9.3,9.3,0,0,0,1.2,2.3,13.4,13.4,0,0,0,2.3,2.2,29.1,29.1,0,0,0,4.5,2.7c.6.3,3.3,1.7,8.4,3.9Z" transform="translate(35.9 39.9)" fill="#f2ea2a" fill-rule="evenodd"/><path d="M346.4,18.7l.4-1.1,14.4,5.7-.4,1.1-1.5-.6a4.4,4.4,0,0,0-4.5.5c-.7.5-1.5,1.8-2.4,4.1l-6.6,16.5a31.3,31.3,0,0,1-5,9,12.8,12.8,0,0,1-7.1,3.9c-3,.7-6.2.3-10.2-1.3s-7.5-3.9-9.2-6.3A13.4,13.4,0,0,1,312,42q.1-3,3-10.4l6.3-15.9q1.5-3.7.9-5.3A4.6,4.6,0,0,0,319.4,8l-1.5-.6.4-1.1,17.5,7-.4,1.1-1.6-.6a4.3,4.3,0,0,0-4.2.1c-.8.5-1.6,1.9-2.5,4.2L320,35.7a41.7,41.7,0,0,0-1.7,5.6,12.5,12.5,0,0,0-.3,5.4,9.2,9.2,0,0,0,2.2,4.1,10.4,10.4,0,0,0,4.4,3,15.6,15.6,0,0,0,7.8,1.1,10,10,0,0,0,6.1-2.7q2.2-2.3,4.8-8.7l6.6-16.4c1-2.5,1.4-4.2,1.1-5.1a4.8,4.8,0,0,0-2.9-2.7Z" transform="translate(35.9 39.9)" fill="#f2ea2a" fill-rule="evenodd"/><path d="M382.7,40.5l-10,14,9.6,6.9a5.7,5.7,0,0,0,4,1.4q1.7-.2,4.2-2.9l1,.7-8.6,12-1-.7a8.7,8.7,0,0,0,1.6-3.4,4.1,4.1,0,0,0-.4-2.5,7.2,7.2,0,0,0-2.3-2.4l-9.6-6.9-8,11.2a14.2,14.2,0,0,0-2.2,3.8,2.8,2.8,0,0,0,.3,1.9,6.1,6.1,0,0,0,1.9,2.4l1.3.9-.7,1L348.9,67l.7-1,.9.6a4.7,4.7,0,0,0,4.1,1c.8-.2,2-1.5,3.5-3.6l16.4-22.9a14.6,14.6,0,0,0,2.2-3.8,2.9,2.9,0,0,0-.3-1.9,6,6,0,0,0-2-2.4l-1.3-.9.7-1,28.5,20.4-5.3,8-.9-.7a13.2,13.2,0,0,0,1-4.8,6.3,6.3,0,0,0-1-3.3,12,12,0,0,0-3.4-3.2Z" transform="translate(35.9 39.9)" fill="#f2ea2a" fill-rule="evenodd"/><path d="M419.2,70.4l-12.4,12,7.9,8.1c1.7,1.8,3.2,2.7,4.3,2.8s3.2-.6,5.1-2.3l.8.9-10.9,10.6-.8-.9a16.4,16.4,0,0,0,2.3-3.5,4,4,0,0,0-.1-2.6,9.7,9.7,0,0,0-2.4-3.4l-7.9-8.1-10.4,10a13.8,13.8,0,0,0-2.4,2.6,2.1,2.1,0,0,0-.1,1.3,5.6,5.6,0,0,0,1.4,2l6.3,6.6a19.9,19.9,0,0,0,4.1,3.5,7.9,7.9,0,0,0,3.7.9,24.6,24.6,0,0,0,7.2-1.2l.9.9-10.2,5.2L380.8,90.2l.9-.8,1.1,1.1a6.1,6.1,0,0,0,2.6,1.6,2.7,2.7,0,0,0,2.1-.1,15.5,15.5,0,0,0,3.3-2.7l20.4-19.7c2-1.9,3-3.3,3.1-4.2a5,5,0,0,0-1.8-3.7l-1.1-1.1.9-.8L436.5,85,430,92l-.9-.9a15,15,0,0,0,2.4-4.4,5,5,0,0,0-.3-3.1,14.1,14.1,0,0,0-2.8-3.6ZM439.9,72l-13.5-2.8V68.1l14,.3C443,68.4,442.9,72.7,439.9,72Z" transform="translate(35.9 39.9)" fill="#f2ea2a" fill-rule="evenodd"/><path d="M439,149.2l.4,1L428,152.9l-18-30,1-.6.9,1.4a4.4,4.4,0,0,0,3.6,2.4c.8,0,2.3-.6,4.4-1.9l24.1-14.6q3.5-2.1,3.9-3.4a4.7,4.7,0,0,0-.7-3.9l-.9-1.4,1-.6,10,16.5-1,.6a9.6,9.6,0,0,0-2.8-3.4,3.9,3.9,0,0,0-2.5-.7c-.8.1-2.3.8-4.5,2.1L423,129.5a9,9,0,0,0-2.9,2.3,2.3,2.3,0,0,0-.2,1.5,30,30,0,0,0,2.3,4.5l2.1,3.9a19.6,19.6,0,0,0,4.3,5.7,9.2,9.2,0,0,0,4.2,1.8A16.1,16.1,0,0,0,439,149.2Z" transform="translate(35.9 39.9)" fill="#f2ea2a" fill-rule="evenodd"/><path d="M493,247l-13.7,1.6v-1.1a19,19,0,0,0,7.6-4.7,13.8,13.8,0,0,0,3.4-10.1q-.3-8.3-7-12.5a23.7,23.7,0,0,0-13.4-3.2,26.6,26.6,0,0,0-11.3,2.8,17,17,0,0,0-7.3,6.6,15.2,15.2,0,0,0-2.1,8.1c.2,5.4,2,8.6,3.3,10.2l12.1-.4a11.8,11.8,0,0,0,4.3-.6,3.4,3.4,0,0,0,1.5-1.6,8.9,8.9,0,0,0,.4-3.7h1.2l.6,16.9h-1.2v-.8a3.6,3.6,0,0,0-1.8-3.4,11.2,11.2,0,0,0-4.7-.5l-12,.4a31.8,31.8,0,0,1-5.8-16.4q-.4-12.6,7.4-19.5a21.7,21.7,0,0,1,13.9-5.4,24.6,24.6,0,0,1,21.1,11.1,24.5,24.5,0,0,1,2.9,15.6,39.2,39.2,0,0,1-1.5,5.6,8.8,8.8,0,0,0-.6,2.4,1.3,1.3,0,0,0,.6,1,4.4,4.4,0,0,0,2.2.5Z" transform="translate(35.9 39.9)" fill="#f2ea2a" fill-rule="evenodd"/><path d="M445.9,280.7l-1.2-.2,2.7-18.5,1.2.2-.2,1.5a4.6,4.6,0,0,0,1,4.1c.6.6,2.2,1.1,4.8,1.5l27.9,4.1a14.5,14.5,0,0,0,4.4.2,2.9,2.9,0,0,0,1.6-1.1,6.1,6.1,0,0,0,1.2-2.8l.2-1.5,1.2.2L488,286.9l-1.2-.2.2-1.6a4.6,4.6,0,0,0-1-4.1c-.6-.6-2.2-1.1-4.8-1.5l-27.9-4.1a14.5,14.5,0,0,0-4.4-.2,2.9,2.9,0,0,0-1.6,1.1,5.9,5.9,0,0,0-1.2,2.8Z" transform="translate(35.9 39.9)" fill="#f2ea2a" fill-rule="evenodd"/><path d="M445.1,285.8l1.1.4-.5,1.6a4.4,4.4,0,0,0,.4,4.4c.5.7,1.9,1.4,4.3,2.2l12.1,4.2,1.9-5.6,2.3.8-1.9,5.6,12.3,4.2c2.6.9,4.3,1.1,5.1.8a4.8,4.8,0,0,0,2.6-3.1l.5-1.6,1.1.4-5.8,16.9q-3.3,9.7-7.1,13.5a18.9,18.9,0,0,1-9.6,5.2,21.8,21.8,0,0,1-12.3-.8,22.3,22.3,0,0,1-12.9-10.7q-4.2-7.7,0-19.8Zm-1,12.9a17.9,17.9,0,0,0-3.1,6.2,16.4,16.4,0,0,0,.9,13.5q3.4,6.4,11.9,9.3t15.1-.1a16.8,16.8,0,0,0,9.1-10.3l2.2-6.3-17.4-6-2.3,6.8-2.3-.8,2.3-6.8Z" transform="translate(35.9 39.9)" fill="#f2ea2a" fill-rule="evenodd"/><path d="M348.1,470.1l-9.8,3.5-21.6-13.9-2.5,1-.9.3-1,.3,4.3,11.9c.9,2.6,1.8,4.1,2.6,4.5a4.6,4.6,0,0,0,3.9.1l1.6-.6.4,1.1-17.6,6.3-.4-1.1,1.5-.6a4.4,4.4,0,0,0,3.1-3c.2-.8-.1-2.4-1-4.7l-9.6-26.6c-.9-2.6-1.8-4.1-2.6-4.5a4.7,4.7,0,0,0-4-.1l-1.5.6-.4-1.1,15-5.4c4.4-1.6,8.9-2.8,11.2-2.9a11.7,11.7,0,0,1,6.5,1.6,9.7,9.7,0,0,1,4.4,5.3c2.4,6.8-2.2,11.2-7.5,14.6l13.5,8.4c3.6,2.2,7.4,4.8,11.8,3.8Zm-36.4-10.7,1-.4.7-.2c3.9-1.4,7.8-3.8,9.1-6.2a8.8,8.8,0,0,0,.8-7.6c-.9-2.6-2.1-4.3-4.2-5.3-4.2-2-10.3-.6-13.5,2.6Z" transform="translate(35.9 39.9)" fill="#f2ea2a" fill-rule="evenodd"/><path d="M256.8,448.5l.6,13.8h-1.1a19,19,0,0,0-4.1-7.9,13.8,13.8,0,0,0-9.9-4.2q-8.3-.3-12.9,6.1a23.7,23.7,0,0,0-4.2,13.1,26.6,26.6,0,0,0,1.9,11.5,17,17,0,0,0,6,7.8,15.1,15.1,0,0,0,7.9,2.7c5.4.2,8.8-1.4,10.4-2.6l.5-12.1a11.8,11.8,0,0,0-.3-4.3,3.4,3.4,0,0,0-1.5-1.6,8.9,8.9,0,0,0-3.7-.7v-1.2l16.9.7v1.2h-.8a3.6,3.6,0,0,0-3.5,1.5,11.2,11.2,0,0,0-.8,4.7l-.5,12a31.8,31.8,0,0,1-16.8,4.6q-12.6-.5-18.9-8.9a21.7,21.7,0,0,1-4.3-14.2,24.6,24.6,0,0,1,12.6-20.2,24.5,24.5,0,0,1,15.8-1.8,39.1,39.1,0,0,1,5.4,1.9,8.8,8.8,0,0,0,2.4.8,1.3,1.3,0,0,0,1.1-.5,4.4,4.4,0,0,0,.6-2.2Z" transform="translate(35.9 39.9)" fill="#f2ea2a" fill-rule="evenodd"/><path d="M293.9,485.2l.2,1.2-18.5,3-.2-1.2,1.5-.2a4.6,4.6,0,0,0,3.6-2.2c.4-.8.4-2.4,0-5l-4.5-27.9a14.5,14.5,0,0,0-1.1-4.3,2.9,2.9,0,0,0-1.5-1.2,6.1,6.1,0,0,0-3.1-.3l-1.5.2-.2-1.2,18.5-3,.2,1.2-1.6.3a4.6,4.6,0,0,0-3.6,2.2c-.4.8-.4,2.4,0,5l4.5,27.9a14.6,14.6,0,0,0,1.1,4.3,2.9,2.9,0,0,0,1.6,1.2,5.9,5.9,0,0,0,3,.3Z" transform="translate(35.9 39.9)" fill="#f2ea2a" fill-rule="evenodd"/><path d="M192.3,443.2l-5.5,16.3,8.3,2.8c2.3.8,4.1.9,5.4.4s2.3-1.9,3.3-4.1l1.1.4L200,473.3l-1.1-.4a12.4,12.4,0,0,0,.4-4.4,4.7,4.7,0,0,0-1.5-2.4,11.4,11.4,0,0,0-3.4-1.5l-8.3-2.8-4.6,13.7a15.3,15.3,0,0,0-.9,3.4,1.9,1.9,0,0,0,.6,1.2,5.9,5.9,0,0,0,2.3,1.2l5.5,1.9a19.1,19.1,0,0,0,5.3,1.2,9.3,9.3,0,0,0,4.2-1,16.4,16.4,0,0,0,5.5-4.2l1.2.4-6.8,9.3-31.1-10.5.4-1.1,1.6.5a4.7,4.7,0,0,0,4.2-.2c.7-.5,1.5-2,2.3-4.4l3-8.7-12.1-4.1-6.2,5.8c-2.3,2.2-3.6,3.7-3.9,4.5a2.1,2.1,0,0,0,.4,1.9c.5.7,1.6,1.4,3.5,2.2l-.4,1.1-13-4.4.4-1.1a5.1,5.1,0,0,0,2.5.2,8.5,8.5,0,0,0,2.8-1.3,36.8,36.8,0,0,0,4.4-3.7l20.6-19.3c2.5-2.4,4-4.1,4.3-5.1a1.8,1.8,0,0,0-.3-1.8c-.5-.7-1.9-1.6-4.1-2.5l.4-1.1,34.8,11.7-2.6,9.2-1-.4a11.5,11.5,0,0,0,.1-5.3,4.9,4.9,0,0,0-1.8-2.5,17.1,17.1,0,0,0-4-1.7Zm-5.9-2-18,17.2,10.9,3.7Z" transform="translate(35.9 39.9)" fill="#f2ea2a" fill-rule="evenodd"/><circle cx="122.3" cy="442.5" r="6.2" fill="#f2ea2a"/><circle cx="444" cy="441.2" r="6.2" fill="#f2ea2a"/></svg>