<svg xmlns="http://www.w3.org/2000/svg" viewBox="0 0 216.3 340.6"><title>ir</title><path d="M400,129.7s49.4,54.5,105,73.9a265.5,265.5,0,0,1,3.2,40.8C508.2,397.1,400,470.3,400,470.3S291.8,397.1,291.8,244.5a265.5,265.5,0,0,1,3.2-40.8c55.6-19.4,105-73.9,105-73.9" transform="translate(-291.8 -129.7)" fill="#0061aa"/><path d="M400,143.4c-5.7,5.7-14.5,14.1-25.6,23.3-24.5,20.4-48.3,35.1-70.8,43.9a267.4,267.4,0,0,0-2.3,33.9,285.5,285.5,0,0,0,16.2,96,273.3,273.3,0,0,0,35.6,68,255.8,255.8,0,0,0,46.9,50,255.8,255.8,0,0,0,46.9-50,273.3,273.3,0,0,0,35.6-68,285.5,285.5,0,0,0,16.2-96,266.5,266.5,0,0,0-2.3-33.9c-22.5-8.8-46.3-23.5-70.8-43.9-11.1-9.2-19.9-17.7-25.6-23.3Z" transform="translate(-291.8 -129.7)" fill="#fff"/><path d="M400,158.6c-17.9,16.9-50,44-86.4,59.6a253.7,253.7,0,0,0-1.4,26.3,274.8,274.8,0,0,0,15.3,91.8,262.4,262.4,0,0,0,33.9,65.1A253.4,253.4,0,0,0,400,444.2a253.4,253.4,0,0,0,38.6-42.9,262.4,262.4,0,0,0,33.9-65.1,274.8,274.8,0,0,0,15.3-91.8,253.4,253.4,0,0,0-1.4-26.3c-36.4-15.7-68.4-42.7-86.4-59.6Z" transform="translate(-291.8 -129.7)" fill="#0061aa"/><path d="M327.8,228.3c-.3,4.1-.5,8.8-.6,13.7v5.5h0A208.4,208.4,0,0,0,377,220V365.7a229.1,229.1,0,0,1-18.8-40.2,232.6,232.6,0,0,1-9.9-38.5l-16.8,5.3a246.8,246.8,0,0,0,42.3,100.4,246.1,246.1,0,0,0,20.2,24.7v-233C375.9,199.5,353.1,216.1,327.8,228.3Z" transform="translate(-291.8 -129.7)" fill="#fff"/><path d="M472.2,228.3c-25.3-12.1-48.1-28.8-66-44v233c4.9-5.2,10.1-11.3,15.3-18.2V315.8l8.7-4.6L443,365.7a246.4,246.4,0,0,0,11.8-25.4l-8.8-37.4L468.8,291a270.1,270.1,0,0,0,4-46.5C472.8,238.6,472.5,233,472.2,228.3Zm-19.5,53.1-29.6,12V219.4a307.1,307.1,0,0,0,32.2,19.9q.1,2.7.1,5.2A254.5,254.5,0,0,1,452.7,281.3Z" transform="translate(-291.8 -129.7)" fill="#fff"/></svg>