<svg xmlns="http://www.w3.org/2000/svg" viewBox="0 0 285.7 285.7"><title>throtturv</title><circle cx="142.9" cy="142.9" r="124.8" fill="#fff"/><path d="M191.9,194.8a37.8,37.8,0,0,1,4.9-.3c1.4,0,2.7.7,4.1.8s2.3-.2,3.5,0,4.5,1.8,6.3,2.1c4.7-5,11-3.8,16.3.4a92.9,92.9,0,0,0,7.7-5.6c2.8-2.2,4.6-4.6,7-6.9s3.4-2.3,4.9-3.7,2.5-2.1,3.6-3.2,1.3-.9,2-.5c2.7,2.2,4.4,4.1,6.9,6.5s2.5,1.1,3.9,2.2l11.3,9c6.2-1.4,11-1.2,17.3-.7a12.8,12.8,0,0,1,6-.9,29.4,29.4,0,0,1,11.1-.2l-58.7,58.1c-19.1-19.1-39-38-58.1-57.1Z" transform="translate(-107.1 -107.1)" fill="#231f20" fill-rule="evenodd"/><path d="M251.1,179.8c-8.4,7.5-14.7,13.8-24.8,20.7-.6.4-1.7.1-2,.8s.6,1.7-.1,2.4a6.7,6.7,0,0,1-3.9,1.5c.7.3.7.9,1.3,1.2,3.2.4,6.7-.6,10.3.9.7,1.3-.5,2.1-1.7,1.5a12,12,0,0,0-7.9-.6c-1.7-.5-2.8-1.5-4.5-2s-3.1.6-4.4.6-1.4-1.1-4-1.2-4.9.6-3.9,1.6l44.7,44,22.7-22.6c-2.1-.9-2.3-1.7-4.6-1.9s-1.4,1.1-2.4,1.8-3.5.3-4.6,1.1a13.7,13.7,0,0,1-1.6,1.1c-1,.4-2.1.1-2-.4s1.2-.9,2.3-1.4l4-2.3c1.1-.6,2.5-1.7,3.6-1.8s4.5,1.1,7.6,1.4l20.2-20.1c-.9-.3-2-.3-2.9-.6a15,15,0,0,1-9.7,2.9c-1.1,0-1.3-1.3-.1-1.5a12.1,12.1,0,0,0,8.2-2.3c-1.7-.9-2.6-.8-3.7-1.2a34.2,34.2,0,0,1-3.9-1.9l-3.8-1.9c-.9-.5-1.9-1.5-2.8-2s-3.3-.7-4.3-1.4c-3.6-2.4-5.8-5.8-10.7-8.9-.7-.5-1.6-.3-2.2-.9-2.6-2.2-4.6-4.6-7-7.1l-1.3.4Z" transform="translate(-107.1 -107.1)" fill="#00a7e2" fill-rule="evenodd"/><path d="M277.8,197c1.4,1.3,2.5,1.1,3.6,1.7s3.1,2.4,5,3.1,2.4.6,3.5,1,1.2.8,1.9,1.1,3,.8,4.6,1.1l9.6-9.7a9,9,0,0,0-5.9-.1c.7.6.7,1.9-.2,1.8l-1.8-.2a.8.8,0,0,1-.4-1.4c-1.5-.4-3.8.1-6.2.7a71.5,71.5,0,0,0-7.6-.2,18.9,18.9,0,0,0-6.2,1Z" transform="translate(-107.1 -107.1)" fill="#00a7e2" fill-rule="evenodd"/><path d="M195.7,197.7l8.1,7.8a26.3,26.3,0,0,1,3.9-1c2.1-.2,4.8.3,6.8,0a3.7,3.7,0,0,0,2.1-1.2,10,10,0,0,0,2-1.5c-2.9-.3-5.2-2-8-2.3-.4,0-.7,1.3-1.4,1.2s-2.5-1.7-3.7-2c-3.1-.7-7.4-1.7-9.9-1Z" transform="translate(-107.1 -107.1)" fill="#00a7e2" fill-rule="evenodd"/><path d="M213,198.6a13.7,13.7,0,0,0,6.1,1.3l4.1.3c.5-.5,2.2-.9,2.9-1.3a11,11,0,0,0-7.6-3.2c-1.7-.1-4.5.6-5.5,2.8Z" transform="translate(-107.1 -107.1)" fill="#00a7e2" fill-rule="evenodd"/><path d="M252.5,184.4a7.9,7.9,0,0,0-5,1.3c-1.5.9-2.2,3.3-3.6,4.5a62.6,62.6,0,0,1-5.8,4.4c-1,.7-2,1.1-2.5,1.5s-2.3,2.3-4,3.5a35.7,35.7,0,0,0-3.4,2.2c-1.2,1,2.8,0,4.1-.8s2.4-2,3.6-2.9,2.6-1.2,4.4-2.8,5-4,6.6-5.5.7-2.6,1.9-3.3a5.9,5.9,0,0,1,3.3-.7c1,.1,1.3-1.4.4-1.4Z" transform="translate(-107.1 -107.1)" fill="#231f20" fill-rule="evenodd"/><path d="M259.2,190.7c1.4,1.3,2.6,2.1,4.1,3.3s1.4,1.5,2.1,2.1,1.6.6,2.6,1.3-2.5.5-2.2,1c1.3,2.3,3.1,3.7,5,5.6.4.4.2,1.2.6,1.6s2.5.2,2-1-2.5-2-3.9-4.1-1-1.5-.8-1.7,1.5-.2,2.3,0,1.8.9,4,1.1c.5,0,.6-.6.1-.9-2.6-1.2-4.1-.9-6.6-2.3-1-.6-1.2-1.9-2.1-2.7s-2.3-.9-3.5-1.6-2.1-1.8-3-2.4-1.2.1-.6.6Z" transform="translate(-107.1 -107.1)" fill="#231f20" fill-rule="evenodd"/><path d="M242.8,200c-1.3.8-4.4,3.6-7.1,5.1a.6.6,0,1,1-.5-1.2,21.4,21.4,0,0,0,4.4-3.7c1.2-1.1,2.5-2,3.3-3.3a.9.9,0,0,1,1.7.1c.2.6.5,1-.9,2.5s.7,2.3.5,3-1.9,3.3-1.5,4c2.6,0,2.3,1.3,5.5,1.2,1.1,0,1.9-.2,2.9-.2a2.9,2.9,0,0,1,1.5.5c.5.3.8,1.3.3,1.5s-3.8-.7-3.4.5,1.4.6,1.8,1.2-.1.8-.5.7a12.7,12.7,0,0,0-2.8-.3c-1.9,0-3.6.7-6,.2a12.8,12.8,0,0,0-3.2-.8,19.8,19.8,0,0,0-3,.9c-2.6.5-2.1-.9-1.7-1.5a3.7,3.7,0,0,1,2.2-1c2.6-.6,4.4,1.6,7.3,1.4.6,0,2.3-.4,2.1-1.4s-1.7-1.6-3-1.7-5.2.5-7.2.2-.6-.9,0-1c3-.8,5.9-1.9,7.2-4.1.4-.6.1-2,0-2.7Z" transform="translate(-107.1 -107.1)" fill="#231f20" fill-rule="evenodd"/><path d="M249.3,197.1a21.7,21.7,0,0,0-1.6,2.6,9.5,9.5,0,0,0-1.7,2.6c-.3,1,1.2.4,2.1-.3s1.2-2.5,2.2-3.2.6.6.7,2.2-.3,2-.2,2.7,1,.3,1,0-.2-2.1-.3-3.1a14.6,14.6,0,0,0-.5-4.1c-.2-.5-1.3.3-1.7.7Z" transform="translate(-107.1 -107.1)" fill="#231f20" fill-rule="evenodd"/><path d="M254.8,197.4c2,3.3,4.2,6.7,7.9,8.8,1.5.8,2.7-.7,1.2-1.5a23.5,23.5,0,0,1-8.1-8.1c-.6-.9-1.6-.1-1,.9Z" transform="translate(-107.1 -107.1)" fill="#231f20" fill-rule="evenodd"/><path d="M255.8,208.7c.5-.9,2.1.5,1.1,1.1a8.6,8.6,0,0,0-2.2,2.5c-.7,1-2.1-1.2-1.2-1.6a3.5,3.5,0,0,0,2.3-2Z" transform="translate(-107.1 -107.1)" fill="#231f20" fill-rule="evenodd"/><path d="M249.5,187.5c.2-.6,1.3,0,1.6.2s.2.4.1.5-1.5.1-1.5,0a1.1,1.1,0,0,1-.2-.7Z" transform="translate(-107.1 -107.1)" fill="#231f20" fill-rule="evenodd"/><path d="M263.1,197.2c.6-.8,1.3-.1,1.7.1s.5.6.4.7-1.9-.2-1.9-.2a.5.5,0,0,1-.1-.6Z" transform="translate(-107.1 -107.1)" fill="#231f20" fill-rule="evenodd"/><path d="M275.1,212.4c-.1.8,1.5.6,3,0a3.6,3.6,0,0,0,1.3-.7c.6-.5-.1-.6-.7-1s-1-1.7-2.8-2.2c-3.7-1.1-7.3-.3-10.6.2-1,.2-2.1-.2-3.2.1l-1.1.3c-.7.2-2.1,1-.4,1.6a10.7,10.7,0,0,0,3.1.5,23.1,23.1,0,0,0,4-.7,28.3,28.3,0,0,1,8-.4c.4,0,.5.4.3,1s-.9.9-.9,1.5Z" transform="translate(-107.1 -107.1)" fill="#231f20" fill-rule="evenodd"/><path d="M216.3,212.5l2-.2c1.9-.1,3.3-1.1,5.2-1.1s2.7.9,4.2,1.2,3.2-.5,4.5,0,.8,1.6.1,1.4-3.1.3-4.6,0-2.6-1.3-4-1.3-3.4,1.6-5.2,1.4h-1.9c-.9,0-.6-1.3-.2-1.4Z" transform="translate(-107.1 -107.1)" fill="#231f20" fill-rule="evenodd"/><path d="M232.1,216.5a19.1,19.1,0,0,1,4-.3c1.5,0,2.2.4,2.8-.4s.6-1.8,2.5-1.8A8.8,8.8,0,0,1,246,216c.6.5-.4.6-1.2.4s-1.5-1.6-2.8-1.5-1.1,1.2-1.7,1.7a2.6,2.6,0,0,1-1.5.9,11.5,11.5,0,0,1-3.1,0c-1.4-.1-2.8,0-3.6-.1s-.4-1-.1-1Z" transform="translate(-107.1 -107.1)" fill="#231f20" fill-rule="evenodd"/><path d="M243,220.3c5.2.8,6.2-.4,8.9-.9a9.7,9.7,0,0,1,3.4.3c.7.1.4,1.3-.2,1.1a7.5,7.5,0,0,0-3.4-.2,5.3,5.3,0,0,0-1.5.4c-.5.2-.6.6-.8.7a17.4,17.4,0,0,1-6.4.1c-1.2-.1-1-1.7,0-1.6Z" transform="translate(-107.1 -107.1)" fill="#231f20" fill-rule="evenodd"/><path d="M291.2,210.3c-3.2,1.2-4.9-.9-7.8-.1-1,.3-.6,2.2.3,1.7s4.6.4,6.3-.3l1.1-1.3Z" transform="translate(-107.1 -107.1)" fill="#231f20" fill-rule="evenodd"/><path d="M221.8,223.4c1.3-.4,2.8-1,4.1-.8s3.4,1.7,5.2,1.9,3.3-1.6,4.8-1.5c3.3.2,6,2.4,8.9,2.5.7,0,1.3,1.7.1,1.9s-3.2-.8-4.6-1.3a23.6,23.6,0,0,0-4.7-1.4c-1.5-.2-3,1.1-4.5.9s-2.4-1.5-3.9-1.6-2.8,1-4.3.8-1.6-1.3-1.1-1.4Z" transform="translate(-107.1 -107.1)" fill="#231f20" fill-rule="evenodd"/><path d="M244.9,232.7c-.8.1-.5,1.3.2,1.6s2.2-.4,3.6-.5c3.4-.2,7.2-.3,7.4,2.5-.5,0-1.4.4-2.5.4s-2.3-.5-3.6-.5-2.4,1-4.7,1.2c-.7.1.4,1.7,1.1,1.7h1.8c.9,0,1.8-1,2.7-1s1.5.3,2.3.3,2.1-.6,3.2-.7,2.3.4,3.6.1,1.3-1.3.9-1.6-2.5-.4-3.4-.5-1.6-3-3.4-3.6-6.2-.1-9.1.3Z" transform="translate(-107.1 -107.1)" fill="#231f20" fill-rule="evenodd"/><path d="M235.9,231.4c2.1-1.3,3.4-1.1,5.5,0s.6,2-.3,1.7a8.2,8.2,0,0,0-4.9.2c-1.1.4-1.5-1.1-.2-1.9Z" transform="translate(-107.1 -107.1)" fill="#231f20" fill-rule="evenodd"/><path d="M260.4,218l2.6-.2c1.4-.2,2.4-1.6,3.8-1.8s4.6,1.5,6.2,1.2,1.1.7.5.9-4.4-.5-6.4-.4-2.9,1.7-4.3,1.8a6.3,6.3,0,0,1-2.2,0c-1.1-.3-1.3-1.4-.3-1.6Z" transform="translate(-107.1 -107.1)" fill="#231f20" fill-rule="evenodd"/><path d="M288.6,197.9a6.2,6.2,0,0,1,2.7-.3,6.7,6.7,0,0,1,2.9.8,4.3,4.3,0,0,0,2.3.3c1.2-.1.9,1.1.2,1.2a6.1,6.1,0,0,1-2.6.1,27.1,27.1,0,0,0-2.7-1.1,4.4,4.4,0,0,0-2.3.1c-.9.4-1.4-.7-.5-1.1Z" transform="translate(-107.1 -107.1)" fill="#231f20" fill-rule="evenodd"/><polygon points="149 202 199.2 201.8 218.7 221.2 215.7 224.1 207.3 223.1 193 223.7 184.8 222.5 183.8 225.7 172.4 225.6 167.7 224.4 160.9 225.9 155.3 224.9 149 225 149 202 149 202" fill="#00a7e2" fill-rule="evenodd"/><path d="M242.2,308.9H193.5l-19.7,19.8,2.3,1,4.6-1.1c3,.1,6,1.1,9.1,1.6l4.8-.6H200l7.7-1.8,5.3-.6c2.7-.2,5.9,1.4,8,4.8l21.2.3V308.9Z" transform="translate(-107.1 -107.1)" fill="#00a7e2" fill-rule="evenodd"/><polygon points="110.2 180.2 110.5 179 133.6 185.3 133.2 186.4 110.2 180.2 110.2 180.2" fill="#231f20" fill-rule="evenodd"/><polygon points="98.7 194.4 98.5 193.2 130.8 189 131.1 190.2 98.7 194.4 98.7 194.4" fill="#231f20" fill-rule="evenodd"/><polygon points="187.9 193.8 188.1 192.6 153.8 188.9 153.6 190.1 187.9 193.8 187.9 193.8" fill="#231f20" fill-rule="evenodd"/><polygon points="175.2 177.8 153.5 183.7 153.6 184.9 175.6 179 175.2 177.8 175.2 177.8" fill="#231f20" fill-rule="evenodd"/><path d="M302.8,302.5c-1.9-.1-4.6.1-6.6-.1a48.5,48.5,0,0,0-4.8-.8c-2.6,0-3.7.8-7.1.4-1.2-.1-2.7-1-3.9-1.4a6.3,6.3,0,0,0-3,.1c-1.3.2-1.7,1.6-2.9,2s-4.6,2.5-7.2,3.4-7.4,2.2-11.2,3.5c3.4.1,8.1-.1,11.5,0h43.7c-2.8-2.5-5.6-4.5-8.5-7Z" transform="translate(-107.1 -107.1)" fill="#231f20" fill-rule="evenodd"/><path d="M269.4,307.4c2.4-1.4,4.7-2.9,7.2-4.1.8-.4,1.1-1.3,2-1.4h1.4c.7,0,2.2,1.1,2.9,1.3a11.4,11.4,0,0,0,3.7.5c1.7,0,3.6-.7,5.2-.6s3.2.5,5.1.7,4.4-.3,5.9-.1,8.4,4.9,5.8,5.1c-9.5.6-30.3.2-37.9-.1-2.6-.1-1.7-.9-1.3-1.2Z" transform="translate(-107.1 -107.1)" fill="#fff" fill-rule="evenodd"/><path d="M215.9,353.9c-.4-.6-1-1.5-.1-2.4s.3-.7,2.1-1.2a18.8,18.8,0,0,1,3.4-.3c.7-.1,1.3-1,2-1.1,3-.4,6-.1,9.1-.2s4.1.5,5.7.3l3.9-.5,5.5-.2c.9-.1,2.7-1.1,4.8-1.1a22,22,0,0,1,3.9.7c2.8.5,5.9.2,8.8,1.1s4.7.6,5.6,2.1,2.3,1,1.5-.7-.9-1.9-1.3-3-.9-1.5-1.1-2.2a1.4,1.4,0,0,1,0-1.4c2.6-3,8.5-2.4,9.4-2.9s2.4-1.5,3.6-1.2a13.3,13.3,0,0,1,4.7,2.3c.5.3,1.3.5,1.9.8a6.1,6.1,0,0,0,2.4.2c1.8-.2,2.2-.5,3.7-.1l3.1.5a6.9,6.9,0,0,1,2.2,1.4c.6.4,1,.5.5,1.8l1.8-1.1c-1.2-1-2.1-1.8-3.6-2.8a7.8,7.8,0,0,0-2.3-.8,16.9,16.9,0,0,0-4-.6,17.8,17.8,0,0,1-2.8,0c-2.5-.3-2.5-1.5-4.1-2.5s-1.1-.9-.6-1a5.9,5.9,0,0,0,2.2-.8,19.9,19.9,0,0,0,4.6-3.3c.3-.4.8-.1,1.1.4a8.5,8.5,0,0,0,2.7,2.1,9.1,9.1,0,0,0,4.9,1.1c.7-.1.8-.4,0-.6a12.6,12.6,0,0,1-3.5-1.1c-2.9-1.8-4.6-4.3-2.6-4.5s2.3.7,3.5.7c4.5-.2,8.8-.4,13.3-.4a54.4,54.4,0,0,1,7.5,0l3.7.7,1.3-1.2-4.1-.6a77.3,77.3,0,0,0-12.2-.3h-8a32.7,32.7,0,0,1-8.5-1.7c-1.6-.5-.9,4.1-2,4l-2.6.2c-4.2.3-7.9-1.8-12.8-1.5-1.3.1-2.9,1.4-4.2,1.4s-3.4-.8-5.4-1.1-3,.2-4.6.4a25,25,0,0,1-3.7,0v9.5l-13.8.2-.3-9.7c-1.8,0-5.8-.1-9.7,0s-3.5-.8-5.3-.7a45.6,45.6,0,0,0-5.6.3,10.6,10.6,0,0,0-3.2-3.3c-.9-.6-4.7-1.1-5.9-1a29.9,29.9,0,0,0-6.4.9c-1.8.5-3.3,1.5-5,1.7s-4.1-.4-6.5-.3-3.5.7-5,.7c-3.4-.1-5.2-1.7-8.6-1.6-1.7.1-2.4.5-5.8,1.2,12.4,11.3,30.8,22.5,41,24.6Z" transform="translate(-107.1 -107.1)" fill="#231f20" fill-rule="evenodd"/><path d="M215.9,353.9a35.7,35.7,0,0,1-5.3-1.6,36,36,0,0,0,5.3,1.6,1.7,1.7,0,0,1-.1-2.4l.2-.2c.3-.3.4-.5,1.9-.9a6.7,6.7,0,0,1,2-.2h1.4a2.4,2.4,0,0,0,1-.5,2.4,2.4,0,0,1,1-.5,37.4,37.4,0,0,1,5.5-.2h4.3l2.8.2a9.4,9.4,0,0,0,2.2.1l1.7-.2,2.1-.3h5.5l1.3-.4a10.5,10.5,0,0,1,3.4-.8h0a9.9,9.9,0,0,1,2.5.4l1.4.3,3.5.4a22.8,22.8,0,0,1,5.3.8l2.1.5c1.6.3,2.9.6,3.5,1.6s1.1.9,1.4.7.5-.6.1-1.5l-.2-.3-1.2-2.6a9.2,9.2,0,0,0-.6-1.2l-.5-.9a1.4,1.4,0,0,1,0-1.4c1.9-2.2,5.5-2.5,7.7-2.6l1.7-.2.5-.3a5.1,5.1,0,0,1,3.1-1,11,11,0,0,1,4,1.8l.7.4,1.1.5.8.3a6.1,6.1,0,0,0,2.4.2l1.3-.2a5.5,5.5,0,0,1,2.5,0l1.5.3,1.6.3a4.6,4.6,0,0,1,1.7,1l.5.4h.2c.5.3.8.5.3,1.7l1.8-1.1-1-.8-2.7-2a7.8,7.8,0,0,0-2.3-.8l-.9-.2a12.6,12.6,0,0,0-2.9-.4h-3a4.1,4.1,0,0,1-2.8-1.4,6.2,6.2,0,0,0-1.3-1.1c-.4-.2-.8-.7-.8-.9l.2-.2a5.9,5.9,0,0,0,2.2-.8,19.9,19.9,0,0,0,4.6-3.3l.4-.2a1,1,0,0,1,.7.5,9,9,0,0,0,2.7,2.1,9.4,9.4,0,0,0,4.4,1.2h.6c.4,0,.6-.1.6-.2s-.2-.2-.6-.3h-.1a12.1,12.1,0,0,1-3.4-1c-2.2-1.3-3.7-3-3.5-3.9s.4-.5.9-.6h.1l1.2.3a7.9,7.9,0,0,0,2,.4h.1l13.3-.4h2.2a30.8,30.8,0,0,1,5.3.1l2.7.5,1.1.2,1.3-1.2-2-.3-2.2-.3a62.8,62.8,0,0,0-10.1-.4H299.8a32.5,32.5,0,0,1-8.5-1.7h-.5c-.4.3-.6,1.2-.7,2.1s-.3,1.9-.7,1.9h-2.7a21.2,21.2,0,0,1-6-.7,27.5,27.5,0,0,0-5.9-.8h-1a5.8,5.8,0,0,0-2,.7,5.4,5.4,0,0,1-2.2.7h0a11.8,11.8,0,0,1-3.2-.6l-2.3-.5a9.6,9.6,0,0,0-3.3.2l-1.3.2a24.9,24.9,0,0,1-3.7,0v9.5l-13.8.2-.3-9.7h-9.7a9.4,9.4,0,0,1-3.5-.4,5.1,5.1,0,0,0-1.6-.3h-1.9a23,23,0,0,0-3.9.2,10.7,10.7,0,0,0-3.2-3.3c-.9-.5-4.2-1-5.6-1h-1.6a23.1,23.1,0,0,0-5.1.8l-2,.7a10.5,10.5,0,0,1-3,.9,17.1,17.1,0,0,1-3.5-.1,20.3,20.3,0,0,0-3-.1l-2.2.3a14.6,14.6,0,0,1-2.6.4h-.2a14.7,14.7,0,0,1-4-.8,13.1,13.1,0,0,0-4.1-.8h-.4a11.2,11.2,0,0,0-2.7.5l-3.1.7,5,4.3-5-4.3,3.1-.7a11.2,11.2,0,0,1,2.7-.5h.4a13.1,13.1,0,0,1,4.1.8,14.7,14.7,0,0,0,4,.8h.2a14.6,14.6,0,0,0,2.6-.4l2.2-.3h.6l2.4.2a17.2,17.2,0,0,0,3.5.1,10.5,10.5,0,0,0,3-.9l2-.7a23,23,0,0,1,5.1-.8h1.6c1.4,0,4.7.4,5.6,1a10.7,10.7,0,0,1,3.2,3.3,22.9,22.9,0,0,1,3.9-.2H227a5.1,5.1,0,0,1,1.6.3,9.1,9.1,0,0,0,3,.4h10.2l.3,9.7,13.8-.2v-9.5a25.3,25.3,0,0,0,3.7,0l1.3-.2a9.6,9.6,0,0,1,3.3-.2l2.3.5a11.8,11.8,0,0,0,3.2.6h0a5.4,5.4,0,0,0,2.2-.7,5.8,5.8,0,0,1,2-.7,24.8,24.8,0,0,1,6.9.8,21.3,21.3,0,0,0,6,.7h2.7c.5,0,.6-.9.7-1.9s.3-1.9.7-2.1h.5a32.5,32.5,0,0,0,8.5,1.7h10.1a62.4,62.4,0,0,1,10.1.4l2.2.3,2,.3-1.3,1.2-1.1-.2-2.7-.5a30.9,30.9,0,0,0-5.3-.1h-2.2l-13.3.4h-.1a7.9,7.9,0,0,1-2-.4l-1.2-.3h-.1c-.5.1-.8.3-.9.6s1.3,2.6,3.5,3.9a12.1,12.1,0,0,0,3.4,1h.1c.4.1.6.2.6.3s-.2.2-.6.2a9.1,9.1,0,0,1-4.9-1.1,9,9,0,0,1-2.7-2.1,1,1,0,0,0-.7-.5h0l-.4.2a19.9,19.9,0,0,1-4.6,3.3,5.9,5.9,0,0,1-2.2.8l-.2.2c0,.2.4.6.8.9a6.2,6.2,0,0,1,1.3,1.1,4.1,4.1,0,0,0,2.8,1.4h3a12.6,12.6,0,0,1,2.9.4l.9.2a7.8,7.8,0,0,1,2.3.8l2.7,2,1,.8-1.8,1.1c.4-1.2.2-1.4-.3-1.7h-.2l-.5-.4a4.7,4.7,0,0,0-1.7-1l-1.6-.3-1.5-.3a5.5,5.5,0,0,0-2.5,0l-1.3.2a6.1,6.1,0,0,1-2.4-.2l-.8-.3-1.1-.5-.7-.4a11,11,0,0,0-4-1.8h-.4a6.1,6.1,0,0,0-2.7,1l-.5.3-1.7.2c-2.2.2-5.9.5-7.7,2.6a1.4,1.4,0,0,0,0,1.4l.5.9a9.3,9.3,0,0,1,.6,1.2l1.2,2.6.2.3c.4.8.2,1.3-.1,1.5h-.3a1.4,1.4,0,0,1-1.1-.8c-.6-1-1.9-1.3-3.5-1.6l-2.1-.5a22.8,22.8,0,0,0-5.3-.8l-3.5-.4-1.4-.3a9.9,9.9,0,0,0-2.5-.4h0a10.5,10.5,0,0,0-3.4.8l-1.3.4H242l-2.1.3-1.7.2a9.3,9.3,0,0,1-2.2-.1l-2.8-.2h-4.3a37.5,37.5,0,0,0-5.5.2,2.4,2.4,0,0,0-1,.5,2.4,2.4,0,0,1-1,.5h-1.4a6.7,6.7,0,0,0-2,.2c-1.4.4-1.6.6-1.9.9l-.2.2a1.7,1.7,0,0,0,.1,2.4Zm-13.3-5.3-6.4-3.6-6-3.8,6,3.8Z" transform="translate(-107.1 -107.1)" fill="#231f20"/><path d="M229.8,342.3a14.2,14.2,0,0,0,1.8-1.3c.7-.4,1.5-1.6,2.3-1.6s1.6,1.3,4,1.2,2.4-1.3,3.6-1V342h14.9v-2.2l2.2-.5a5.7,5.7,0,0,1,3.3-.5,29.4,29.4,0,0,1,3.3-.1,49.9,49.9,0,0,0,5,.1c1.4,0,3.8,0,5.2-.6a5,5,0,0,1,1.6-.5,8.3,8.3,0,0,1,2.7.1c.7.1-.9,1.3-1.5,1.6s-3.6.7-5.2,1.3a30.1,30.1,0,0,0-4,1.4c-.7.4-1.2,1.1-1.9,1.5s-1.4.3-1.8.6-.1,3.5-.5,3.3a8.4,8.4,0,0,0-1.9-.5l-3.7-.8a20.3,20.3,0,0,0-5.6-.8c-2.1,0-7.3,1.5-9.5,1.4-3.8-.1-7.4,1.4-11.6.8-.5-.1-.3-.7.6-1.4s2.2-.2,2-1.7-1.5-.9-2.7-1.1a8.2,8.2,0,0,1-2.4-1.1Z" transform="translate(-107.1 -107.1)" fill="#fff" fill-rule="evenodd"/><path d="M253,294v2.7h6v6h-2.6V342H241.5V302.6H239v-6h5.8V294h-4l8.7-5.9,8.5,5.9Zm.7,3.8v3.8h4.5v-3.8Zm-1,3.8v-3.8h-3v3.8Zm-3.9,0v-3.8h-3v3.8Zm-4,0v-3.8h-1.3v3.8Zm-2.2,0v-3.8h-2.6v3.8Zm9.3-4.9V294h-6v2.7Zm-9.2,6.1h12.7v38.1H242.7V302.8Z" transform="translate(-107.1 -107.1)" fill="#231f20" fill-rule="evenodd"/><path d="M241.5,333.8c-4-1.3-3,0-9.3-.6a7.2,7.2,0,0,0-1.9.3,11.7,11.7,0,0,1-3.6-.3,12.4,12.4,0,0,1-1.7-.2c-.9-.3-2.1-.8-3.1-.3a9.3,9.3,0,0,1,1.5,3.7,14,14,0,0,1-3.1.3c-1.6,0-3.5-.2-3.2,1s.8.8,2.3,1.1.9.8,1.3.9,1.6-.1,2.6-.1a9.3,9.3,0,0,1,4.2,1.2,14,14,0,0,0,3.4-1.6,8.1,8.1,0,0,1,2.8-1.3,39.8,39.8,0,0,0,4.1.8c1,.1,1.1-.4,3.6-.5v-4.6Z" transform="translate(-107.1 -107.1)" fill="#fff" fill-rule="evenodd"/><path d="M256.5,332.7v5.8l2.5-.3a34.4,34.4,0,0,1,4.4-.8,25.6,25.6,0,0,1,3.1.3,47,47,0,0,0,6,.1c1.8-.1,2.3-.9,3.7-1.3a11.4,11.4,0,0,1,2.8-.1,22.2,22.2,0,0,1,4.2.3,13.6,13.6,0,0,0,2.8-1.6c.4-.4,1.3-.3,1.6-.7s.7-1.4.2-1.3a64,64,0,0,1-9.5-.1c-1.2-.1-2.1-.5-3.3-.5s-2.1,1.1-6.2,1.2-3.4-.8-5.7-1.1-3.6.5-6.5.1Z" transform="translate(-107.1 -107.1)" fill="#fff" fill-rule="evenodd"/><path d="M220.9,335.1a10.4,10.4,0,0,0-3.9-5.9c-.3.1-.6.5-1,.6s-.8-.1-1.1.1-.6.7-1,.9-.3,1.4-1.1,1.4-1.9-.6-2.8-.5-1.8,1.1-3,1.2-2.4.9-3.4,1.1l-1.9.3a3.5,3.5,0,0,0,1.1,1.7,6.6,6.6,0,0,0,2.2.6,8.9,8.9,0,0,0,2.9.4,34.8,34.8,0,0,1,6.9-.2c.3,0-.3-1.6,0-1.7a2.8,2.8,0,0,0,1.8,1c1.4,0,1.9-1.2,4.4-1.1Z" transform="translate(-107.1 -107.1)" fill="#fff" fill-rule="evenodd"/><path d="M178.4,330.6c-1-.8,2.3-1.4,3.5-1.3s5,1.3,7.5,1.6a36.9,36.9,0,0,0,5.8-.4c3.4-.2,7.6-.4,10.8-1.6s9.3-1.6,9.8-.6-2.1,1.5-4.8,1.8-4.7,1.8-7.2,2.4a16.6,16.6,0,0,1-5.9.8c2.1,1.9,3.1,3,4.3,3.5a15,15,0,0,1,4,2.1A25,25,0,0,0,200,340c-.4.2,1.6.5,2.1.5h4.6c1.8-.1,3.4.6,5.2.5a29.6,29.6,0,0,0,3.1-.7,13.4,13.4,0,0,1,3.2.2c.6.1-.2,1.4-.8,1.6-2.9,1-4.2,1.3-6,3.3-.3.4.5,1,1,.8s3.8-.4,5.4-1.2,2.9-2.9,5.9-3.3a5.6,5.6,0,0,1,3.9.8,31.8,31.8,0,0,0,2.9,1.7c.5.2.9.2.9.8s-1.3.7-1.7,1.1-.3.7-.9.9-4.3-.1-5.3.2l-5.5,1.7c-.8.3-1.7,1.1-2.7,1.1s-3.8,1.2-5.6,1.1a190.5,190.5,0,0,1-31.4-20.4Z" transform="translate(-107.1 -107.1)" fill="#fff" fill-rule="evenodd"/><path d="M262.1,264.6l63.6,64.1c17-17.1,29.1-38.8,32.5-64.4l-96.2.2Z" transform="translate(-107.1 -107.1)" fill="#00a7e2" fill-rule="evenodd"/><path d="M250,107.1A142.9,142.9,0,1,1,107.1,250,142.9,142.9,0,0,1,250,107.1ZM174.1,326.8l74.3-74.3-76.7-76.7a107.9,107.9,0,0,0,2.4,151ZM250,250.8l76.8-76.8a107.9,107.9,0,0,0-153.5,0L250,250.8Zm78.3-75.1-76.7,76.7,74.3,74.3a107.9,107.9,0,0,0,2.4-151ZM250,254l-74.3,74.3a107.9,107.9,0,0,0,148.6,0L250,254Z" transform="translate(-107.1 -107.1)" fill="#231f20" fill-rule="evenodd"/><path d="M250,109.4A140.6,140.6,0,1,1,109.4,250,140.6,140.6,0,0,1,250,109.4Zm0,30.4A110.2,110.2,0,1,1,139.8,250,110.2,110.2,0,0,1,250,139.8Z" transform="translate(-107.1 -107.1)" fill="#f3742c" fill-rule="evenodd"/><polygon points="250.9 156.1 154.7 156.1 154.7 158.4 250.9 158.4 250.9 156.1 250.9 156.1" fill="#231f20" fill-rule="evenodd"/><path d="M304.3,217.5a11.5,11.5,0,0,0-2.6,3.1c-.8,1.1-1,2.2-1.7,3.3-2.7,4.1-5.6,7.2-8,10.5a20.9,20.9,0,0,0-2.8,4.6,20.7,20.7,0,0,0-.7,2.1,25.4,25.4,0,0,0-3.4,1.9,3.1,3.1,0,0,0-.9,3.8,2.7,2.7,0,0,0,1.2,1.3l-1.3,2.2c-1.2,2.1-2.8,4.5-3.2,5.7a16.5,16.5,0,0,0-1.3,3.7c-.1.6.4.3.7-.2s.3-.8,1.7-1.8,1.1-1.8,1.5-2.4,1.5-1.6,2.1-2.4l2.8-3.8.7-1.1c2.3-1.8,3.3-3.5,3-4.5l1.8-2.7c5.4-.1,9.5-11,13.4-15.7,1.4-1.7,4.3-1.5,7.2-1.9.4-.1.3-.4.4-.5,3.7.2,6,0,9.8.1,2.2.1,3.3-1.5,7.5-1.9,6-.6,12.1-.5,18.2-1.2.3,0,.3-.8,0-.9s-1.5,0-2.4-.2-4-2.5-5.4-2.3-1.3.8-1.9,1.1a5.5,5.5,0,0,1-2.4,0c-2.7-.2-5.2-.8-7.9-.6s-4.5,1.2-6.9,1.1l-12.1-.7c-2.3-.1-5.1-.6-6.9.7Zm-16.1,24.7-.4,1.2a22.9,22.9,0,0,1-2,4l-.3-.2a1.9,1.9,0,0,1-.7-2,1.9,1.9,0,0,1,.6-1.2,10.8,10.8,0,0,1,2.3-1.4l.6-.3Zm13.1-18.8c1.9,0,3.5.5,4.5,2.1-1.3,1.7-2.3,3.6-3.4,5.4a36.6,36.6,0,0,1-4.9,6.9l-1.2,1.1a1.5,1.5,0,0,1-1,.3c-.5-.1-.6-.8-1-.8s-.3.3-.4.7a3,3,0,0,1-.5.9l-2.9,4.4-2.1,3.2-2.2,3.1c-.6.8-1.1,1.6-1.7,2.3a12.8,12.8,0,0,0-2.1,2.5,4.5,4.5,0,0,1-1.1,1.7h0l.8-1.8,1.2-2.2,1.7-2.8,1.8-2.9a21.7,21.7,0,0,0,2.1-4.4c.4-1.1.6-2.3,1-3.4a12.4,12.4,0,0,1,1.4-2.7,63.5,63.5,0,0,1,3.8-5.1l3.6-4.5a29.4,29.4,0,0,0,2.5-3.6v-.3Zm13-1.8c-.2-1.3-1.4-2.5-1.7-3.9h.6l5.2.4,5,.3a14.9,14.9,0,0,0,3.7-.5,20,20,0,0,1,4.3-.7,33.7,33.7,0,0,1,4.8.4,28.2,28.2,0,0,0,3.6.4,3.6,3.6,0,0,0,2.3-.9l.6-.3a1.6,1.6,0,0,1,.9.3l2,1.1,1.6.7-5.9.3h-2.8l-6.3.4a29.8,29.8,0,0,0-6.2,1.8,6.4,6.4,0,0,1-2.2.1h-9.3Z" transform="translate(-107.1 -107.1)" fill="#231f20" fill-rule="evenodd"/><path d="M291.1,276.2c2.4-.6,6.9,0,10.4,0q.4.7-.2,1h-9.6c-.9.1-1.2-1.1-.6-1.1Z" transform="translate(-107.1 -107.1)" fill="#231f20" fill-rule="evenodd"/><path d="M320.7,282.6c2.4-.8,7.7,0,11.2-.4a.7.7,0,0,1,.5,1.4c-1.2.4-3.7-.1-5.8-.4a34,34,0,0,0-6,.1c-.4.2-.4-.4.1-.7Z" transform="translate(-107.1 -107.1)" fill="#231f20" fill-rule="evenodd"/><path d="M312.2,276.3a11.9,11.9,0,0,1,3.1-.3h2.4l2.1.2c.3,0,.3.5-.1.5a13.2,13.2,0,0,0-2.1.1c-2,.1-3.7.4-5.4-.2a.3.3,0,0,1-.1-.5Z" transform="translate(-107.1 -107.1)" fill="#231f20" fill-rule="evenodd"/><path d="M309.7,286.9c2.4-.6,3.6-.1,7-.1.2,0,.4.5.1.5-2.2.3-5.1.1-6.6.1s-.8-.2-.5-.5Z" transform="translate(-107.1 -107.1)" fill="#231f20" fill-rule="evenodd"/><path d="M303.9,286.9c.5-.6,1.2,0,1.4,0v.4c-.8.8-1.3.1-1.3,0v-.5Z" transform="translate(-107.1 -107.1)" fill="#231f20" fill-rule="evenodd"/><path d="M325.7,311.1c1.1-.6,2.6-.5,4.1-.6s2.8-.4,4.9-.4c.1.4.1,1-.2,1.2s-2.2.9-3.6.9-3.1-.9-4.2-.6l-1-.5Z" transform="translate(-107.1 -107.1)" fill="#231f20" fill-rule="evenodd"/><path d="M314.3,292.4c1.2-.1,2,.1,3.3,0s4.6-1.1,6.3-.2.7,1.2-.1,1.3h-6.4a7.9,7.9,0,0,1-2.8-.1c-.9-.5-.7-.9-.2-.8Z" transform="translate(-107.1 -107.1)" fill="#231f20" fill-rule="evenodd"/><path d="M340.9,282c2.4-.6,4-.1,7.4-.1.2,0,.4.7-.1,1.1s-4-.8-7.2-.5c-.4-.1-.4-.5-.1-.5Z" transform="translate(-107.1 -107.1)" fill="#231f20" fill-rule="evenodd"/><path d="M338.4,287.3c2.3-.7,5.3-.8,5.7-.3s0,.3-.3.4l-5.4.3c-.3-.1-.3-.3-.1-.5Z" transform="translate(-107.1 -107.1)" fill="#231f20" fill-rule="evenodd"/><path d="M314,270c1.4-.4,4.7-.3,8.4-.5s4.7-.6,6.1-.6.9,1.6-.1,1.7a35.8,35.8,0,0,0-5.8.1c-3.3.2-6.2.1-9.2.1-.3-.3-.4-.6.6-.8Z" transform="translate(-107.1 -107.1)" fill="#231f20" fill-rule="evenodd"/><path d="M338.2,270.7a7,7,0,0,1,2-.6c1.1,0,2.4.3,4.4.2s4.4-.5,5.9-.5.8,1.6-.1,1.6a33.4,33.4,0,0,0-5.6,0c-3.3.2-3.7-.3-6.6.1-.4,0-.3-.6-.1-.8Z" transform="translate(-107.1 -107.1)" fill="#231f20" fill-rule="evenodd"/><polygon points="148.7 202.7 200 202.7 200 201.4 148.7 201.4 148.7 202.7 148.7 202.7" fill="#231f20" fill-rule="evenodd"/><polygon points="85.8 202.7 135.1 202.7 135.1 201.4 85.8 201.4 85.8 202.7 85.8 202.7" fill="#231f20" fill-rule="evenodd"/><path d="M188.9,320H205a2.8,2.8,0,0,0-.1-2.2c0-.5-2.4-.2-2.9-.1H188.9c-.8.1-.9,1.8,0,2.3Z" transform="translate(-107.1 -107.1)" fill="#231f20" fill-rule="evenodd"/><path d="M267.9,322.2l7.8-.3c.6,0,1.1-.7.6-.9a33.2,33.2,0,0,0-3.5-.3,34.9,34.9,0,0,0-4.9-.3c-.7.1-1,1.7,0,1.8Z" transform="translate(-107.1 -107.1)" fill="#231f20" fill-rule="evenodd"/><path d="M265.1,318.3l10.6-.3c1.3,0,.4-1.1-.3-1.2l-9.8-.2c-.5.1-1.1,1.3-.5,1.7Z" transform="translate(-107.1 -107.1)" fill="#231f20" fill-rule="evenodd"/><path d="M307.9,322.5a12.1,12.1,0,0,1,5.3,1.8,34.9,34.9,0,0,1,7.6-.1c1,0-.8-.9-3.2-1.4a17.8,17.8,0,0,0-4-.4,13.6,13.6,0,0,0-5.7-.8c-.5.1-1,.8.1.9Z" transform="translate(-107.1 -107.1)" fill="#231f20" fill-rule="evenodd"/><path d="M286.3,319a90.2,90.2,0,0,0,13.3-.5c1.8-.8,1-1.5.4-1.8a8,8,0,0,0-2.5-.1,70.4,70.4,0,0,1-11.6,1c-.7.2-1,1.2.4,1.3Z" transform="translate(-107.1 -107.1)" fill="#231f20" fill-rule="evenodd"/><path d="M194.3,324.8l4.8-.5c.5-.2.7-1.3-.1-1.9s-4.1.3-4.8.4-.6,2.1.1,1.9Z" transform="translate(-107.1 -107.1)" fill="#231f20" fill-rule="evenodd"/><path d="M219.8,319.9c5.3-.1,10.8,0,16.4.4.7-.4.5-1.5-.2-1.5s-.5.1-2.1-.2a82,82,0,0,0-14.4-.2c-1,.1-.7,1.3.2,1.5Z" transform="translate(-107.1 -107.1)" fill="#231f20" fill-rule="evenodd"/><path d="M293.8,311.3c-2.3.3-5.7.3-8,.6a83.1,83.1,0,0,1-9.1.8c-.7,0-.7-.8.1-.9s1.6-.2,3.1-.6,3.7,0,4-.8-2.3-.4-1.5-.6a53,53,0,0,1,11.2-.2c1-.1,2.2,1.3.2,1.7Z" transform="translate(-107.1 -107.1)" fill="#231f20" fill-rule="evenodd"/><path d="M273.9,310.3c-1.8.5-3.8.4-5.6.8s-2.6,1.2-4.1,1.4-2.3.1-3.3.1l-4.5.2a.7.7,0,0,1,.2-1.3c0-.1,1.6-.2,3.1-.6s3.7-.4,5.7-.7.6-.3.3-.7a50.8,50.8,0,0,1,9-.8c.5,0,2,.4,1.8.7s-1.1.3-2.7.7Z" transform="translate(-107.1 -107.1)" fill="#231f20" fill-rule="evenodd"/><path d="M221.6,325.6c2.5,0,4.4.3,6.8.4h10.2c.6-.1.7-1.4.1-1.7l-2.7-.2a34.6,34.6,0,0,0-9.5.3c-1.2.3-4.5.1-5.3.2s-.4.9.3,1Z" transform="translate(-107.1 -107.1)" fill="#231f20" fill-rule="evenodd"/><path d="M207,316.7h13.1c.9,0,.7-1.5-.2-1.6a66.8,66.8,0,0,0-7.4.3c-1.9.6-4,.5-5.9.7a.5.5,0,0,0,.3.8Z" transform="translate(-107.1 -107.1)" fill="#231f20" fill-rule="evenodd"/><path d="M225.7,227.5c-11,.6-22-4.9-34.7,1.9-17.4-6.8-23.9-.2-35.6.1l4.1,43.1h29.3a2.1,2.1,0,0,0,3.5-.1l32.2-1.9,1.2-43.3Z" transform="translate(-107.1 -107.1)" fill="#231f20" fill-rule="evenodd"/><polygon points="82.8 122.7 84 122.7 84 165.5 82.8 165.5 82.8 122.7 82.8 122.7" fill="#231f20" fill-rule="evenodd"/><path d="M190.6,231.4c-7.8-3.9-17.9-4.1-28.3-1.2l3.9,37.1c7.6-4,17.8-5,24.3,1.1,6.7-5.9,15.5-7,25.8-3.9l1.7-35.7c-10.7-2.4-19.5-1.7-27.3,2.7Z" transform="translate(-107.1 -107.1)" fill="#fff" fill-rule="evenodd"/><path d="M189.1,271h-23c-.4-2.9,7.1-5,11.5-5.2s10.3.9,11.4,5.2Z" transform="translate(-107.1 -107.1)" fill="#00a7e2" fill-rule="evenodd"/><path d="M192.2,271l25-1.4c-.1-4.6-7.7-5.1-12.1-5.1s-12.2,3-12.9,6.5Z" transform="translate(-107.1 -107.1)" fill="#00a7e2" fill-rule="evenodd"/><polygon points="55.9 156.7 52.4 123.9 53.9 124.1 57.3 156.3 55.9 156.7 55.9 156.7" fill="#00a7e2" fill-rule="evenodd"/><polygon points="53.4 162.8 52.7 156.2 54.5 156.1 55.1 163.4 53.4 162.8 53.4 162.8" fill="#00a7e2" fill-rule="evenodd"/><polygon points="51.5 141.7 49.6 123.7 51 123.5 52.8 142.2 51.5 141.7 51.5 141.7" fill="#00a7e2" fill-rule="evenodd"/><polygon points="111.9 147.8 111.5 137.8 115 137.4 115.1 134.7 112.8 134.6 114.1 128.3 115.9 128.6 116.1 122.5 117 122.6 116.4 147 115.3 147.4 115.4 140.2 114.2 140.2 113.9 147.9 111.9 147.8 111.9 147.8" fill="#00a7e2" fill-rule="evenodd"/><polygon points="82.8 122.7 84 122.7 84 165.5 82.8 165.5 82.8 122.7 82.8 122.7" fill="#231f20" fill-rule="evenodd"/><path d="M302.5,350.5l3.4-1.9h0l7.9-4.4c3.3-1.8,4.4-.7,6.2,2.1l3.5,5.4c1.2,1.8,1.6,4.1-.5,5.4l9.5,3.3-5.3,3-9.1-3.1-4.4,2.5,3.2,6.4-3.7,2.1-10.6-20.7Zm5.5,1.1,4,7.9,6-3.3h0l.4-.2c1.2-.8,1.6-1.3.9-2.5l-2.9-4.8c-.7-1.2-1-1.1-2.2-.4l-6,3.4Z" transform="translate(-107.1 -107.1)" fill="#231f20" fill-rule="evenodd"/><path d="M202,352l3.6,1.5h0l8.3,3.4c3.4,1.4,3.3,3,2.2,6.2l-2.1,6c-.7,2-2.2,3.8-4.5,3l3.3,9.5-5.6-2.4-3.2-9.1-4.7-1.9-3.1,6.5-3.9-1.6L202,352Zm2.5,5-3.7,8,6.3,2.6h.4c1.4.5,2,.5,2.5-.8l2-5.3c.5-1.3.3-1.4-1.1-2l-6.4-2.7Z" transform="translate(-107.1 -107.1)" fill="#231f20" fill-rule="evenodd"/><path d="M184.5,341.9l3.6,2.4-1.9,2.7,7.3,4.8c3.1,2,3.5,3.7,2.1,6l-2.5,4.3c-1.3,2.3-3,2.7-6.1.6l-8.3-5.4-4.4,6.2-3.6-2.4,13.8-19.2Zm-.3,7.9-3.1,4.3,6.3,4.1h0l.4.2c.8.5,1.4,1.2,2.2-.2l1.4-2.4c.5-.9.2-1.2-1-2l-6.2-4Z" transform="translate(-107.1 -107.1)" fill="#231f20" fill-rule="evenodd"/><polygon points="141.7 256.1 146.1 256 146.1 256 152.9 255.7 153 259.5 146.2 259.7 146.9 279.9 142.6 280.1 141.9 259.9 135.1 260.1 135 256.4 141.7 256.1 141.7 256.1 141.7 256.1" fill="#231f20" fill-rule="evenodd"/><polygon points="162.3 254.5 166.6 253.8 166.6 253.8 173.3 252.8 173.9 256.5 167.2 257.5 170.4 277.5 166.1 278.2 162.9 258.2 156.2 259.3 155.6 255.6 162.3 254.5 162.3 254.5 162.3 254.5" fill="#231f20" fill-rule="evenodd"/><path d="M344.7,151.2h0l.2.2L335.2,175l-3.5-3.2,3.1-7.5-5.5-5-2.9,1.5,1.7,1.2-2.2,3-11-8.1h0l-.5-.4-2.9-2.1h-.1L324,135.1l3.5,2.7-10.6,16.2,5.6,4.1,18.7-9.9,3.4,3.2Zm-8.4,9.4,2.7-6.4-6.2,3.2,3.5,3.2Z" transform="translate(-107.1 -107.1)" fill="#231f20" fill-rule="evenodd"/><path d="M263.5,113h.2l6.9,24.6-4.7-.4-2.1-7.8-7.4-.6-3.3,7.5-4.6-.4,10.4-23.3,4.7.4Zm-.8,12.6-1.8-6.7-2.8,6.3,4.7.4Z" transform="translate(-107.1 -107.1)" fill="#231f20" fill-rule="evenodd"/><polygon points="262.1 73.9 264.3 77.7 243.4 89.5 241.3 85.7 262.1 73.9 262.1 73.9" fill="#231f20" fill-rule="evenodd"/><polygon points="120.6 8.2 121.9 8.1 135.7 22.9 134.9 6.6 139.1 6.1 140.4 29.2 136 29.7 136 29.6 123.2 15.8 125.9 30.8 121.4 31.3 117.5 8.6 120.6 8.2 120.6 8.2" fill="#231f20" fill-rule="evenodd"/><polygon points="95.9 15 97.1 14.6 113.3 26.6 109.6 10.8 113.6 9.5 119.1 31.9 114.9 33.2 114.9 33.1 99.8 22 105.1 36.1 100.9 37.5 92.8 15.9 95.9 15 95.9 15" fill="#231f20" fill-rule="evenodd"/><polygon points="20.6 82 21.2 80.9 41.3 78.4 27.6 69.5 29.7 65.8 49.1 78.3 46.9 82.1 46.9 82.1 28.2 84.4 41.9 91 39.7 94.9 19 84.8 20.6 82 20.6 82" fill="#231f20" fill-rule="evenodd"/><polygon points="76.2 28.5 80.8 35.9 90.3 30.9 92.1 34.2 82.9 39.1 84.4 41.6 97.5 34.8 99.1 38.1 82.3 46.8 70.4 27.3 89.8 17.2 91.2 20.6 76.2 28.5 76.2 28.5" fill="#231f20" fill-rule="evenodd"/><polygon points="196.3 21.7 192.9 29.7 202.4 34.7 200.7 38 191.4 33.3 190.2 36 203.3 42.8 201.5 46 184.9 37.2 194 16.3 213.3 26.4 211.4 29.5 196.3 21.7 196.3 21.7" fill="#231f20" fill-rule="evenodd"/><polygon points="173.6 13.6 171.6 22 181.9 25.2 180.8 28.8 170.8 25.7 169.2 32.2 165 30.8 170.3 8.6 191.2 15.1 189.8 18.6 173.6 13.6 173.6 13.6" fill="#231f20" fill-rule="evenodd"/><path d="M358.7,178.1l-3.2,2.1,2.6,3.4,3-2c2.6-1.8,4.5-4.3,1-8.9l-4-5.4h0l-.8-1.1c-3.5-4.6-6.4-3.5-8.8-1.5l-9.1,7.7c-2.8,2.4-2.8,4.5-.3,7.7l2.4,3.1,2.3,3c2.5,3.3,4.4,3.9,7.5,1.8l4.1-2.8-.4-.5h0l-4.3-5.8-3,2.3,2,2.6-.4.2c-1.2.8-1.9.7-2.9-.7l-3.6-4.7h0l-.4-.5c-1-1.4-.9-2,.2-3l8.6-7.4c1.1-.9,1.9-1.2,3.4.8l3.7,5h0l.6.7c1.5,2,1,2.7-.2,3.5Z" transform="translate(-107.1 -107.1)" fill="#231f20" fill-rule="evenodd"/><path d="M233.1,379.7v-.6h0l1.2-10.2h0v-.4c.2-1.4-.2-2-1.9-2.3l-5.8-1.1h-.6c-1.7-.3-2.2.1-2.6,1.5l-2.8,10.9c-.3,1.4-.2,2.3,2.2,2.7l6.1,1.1h0l.9.2c2.4.4,2.9-.3,3.1-1.7Zm4.2.7c-.4,3.1-1.8,5.9-7.5,4.8l-6.6-1.2h0l-1.4-.3c-5.7-1.1-6-4.1-5.3-7.2l2.9-11.6c.9-3.6,2.8-4.5,6.8-3.7l3.9.7,3.7.7c4,.7,5.5,2.2,5,5.9l-1.5,11.9Z" transform="translate(-107.1 -107.1)" fill="#231f20" fill-rule="evenodd"/><path d="M139.6,206.5c1.5.5,1.6,1.3,1.2,2.7l-.2.6h0l-.8,2.6-.8,2.6h0l-.2.6c-.4,1.3-1,2-2.5,1.6l-16.8-4.3-1.3,4.2,17.5,4.5c3.8,1,5.5-1,6.5-4.4l1.1-3.6h0l1.1-3.6c1-3.4.7-5.9-3-7.3l-17-6.1-1.3,4.2,16.3,5.9Z" transform="translate(-107.1 -107.1)" fill="#231f20" fill-rule="evenodd"/><path d="M302.7,369.6c.7,1.4,0,2.1-1.3,2.6l-.6.2h0l-2.5,1-2.5,1h0l-.6.2c-1.3.5-2.3.5-2.8-.9l-5.5-16.4-4.1,1.6,5.9,17.1c1.3,3.7,4.2,3.7,7.5,2.4l3.5-1.4h0l3.5-1.4c3.3-1.3,5.5-3.3,3.8-6.9l-7.5-16.4-4.1,1.6,7.3,15.7Z" transform="translate(-107.1 -107.1)" fill="#231f20" fill-rule="evenodd"/><path d="M155.3,160.8l2.7,2.7,2.8-3.3-2.6-2.6c-2.3-2.2-5.1-3.5-8.9.9l-4.4,5.1h0l-.9,1.1c-3.8,4.4-2.1,7,.4,8.9l9.5,7.3c3,2.3,5,1.8,7.6-1.3l2.6-3,2.5-2.9c2.7-3.1,2.9-5.2.2-7.7l-3.5-3.4-.4.5h0l-4.7,5.5,2.8,2.5,2.1-2.5.3.3c1,1,1.1,1.7,0,3l-3.9,4.5h0l-.4.5c-1.1,1.3-1.8,1.3-3,.5l-9-6.8c-1.1-.8-1.5-1.7.1-3.5l4.1-4.7h0l.6-.7c1.6-1.9,2.5-1.5,3.5-.6Z" transform="translate(-107.1 -107.1)" fill="#231f20" fill-rule="evenodd"/><path d="M374.4,208.8,363.6,212c-1.4.4-2,.1-2.6-1.5l-2.9-8,2.5-1.1,1.6,4.3,3.5-1.3-1.7-4.6,8.3-3.6,3.4,9.2c.8,2.3.2,2.9-1.2,3.3Zm-12-13.1-.6-1.7-3.5,1.3.7,1.9-6,2.6,1.5,4.2h0l3,8.4c1.4,3.9,3.1,5,6.7,3.9l11.5-3.5c3-.9,5.5-2.8,3.5-8.2l-5-13.6h0v-.4l-11.7,5.1Z" transform="translate(-107.1 -107.1)" fill="#231f20" fill-rule="evenodd"/><polygon points="63.7 32.2 63.7 32.3 62.6 41.7 53.2 40.6 53.1 40.7 49.8 43.4 65.2 60.5 68.7 57.7 57.5 45.5 63.2 46.1 66.5 46.5 67.5 37.6 76.9 51.1 80.4 48.4 67 29.6 63.7 32.2 63.7 32.2 63.7 32.2" fill="#231f20" fill-rule="evenodd"/><polygon points="200 13.9 201.2 17.6 207.1 17.3 200 13.9 200 13.9" fill="#231f20" fill-rule="evenodd"/><polygon points="123.3 250.5 122.1 254.9 123.8 255.2 126.1 251.4 123.3 250.5 123.3 250.5" fill="#231f20" fill-rule="evenodd"/></svg>