<svg xmlns="http://www.w3.org/2000/svg" viewBox="0 0 795 1114.3"><title>throtturn</title><path d="M226.3,750.3c4.4-3.4,8.4-6.4,12.2-9.6A1663.9,1663.9,0,0,0,381.1,611c44.3-45.4,85.6-93.3,122.3-145.1,41.5-58.6,76.7-120.4,97.9-189.5a44.2,44.2,0,0,0,1.9-11.9c.4-17.2.4-34.4.6-51.6q1-149.5,1.9-298.9c0-1.4-.2-2.7-.4-4.7H578.6c-34.5-.3-68.7-2.7-102.6-9.6-41.2-8.4-80.9-20.9-117.7-41.5C300.1-174.3,258.4-221,236-284.2c-2.9-8.3-5.5-16.8-8.4-25.1a53,53,0,0,0-2.8-5.6l-2.3,8C202.1-236.1,160.4-181.8,96-145.5,40.2-114.1-20.5-99.4-83.8-94.8c-21.2,1.6-42.5,1.2-63.7,1.7-2.1.1-4.1.3-6.7.5,0,2.9,0,5.3,0,7.6.2,18.6.6,37.3.7,55.9q.8,99.6,1.4,199.3c.2,30.6.3,61.2.5,91.8a36.9,36.9,0,0,0,1.4,10.5,539.5,539.5,0,0,0,27.9,72.1c29.6,62,67.3,118.7,110.6,171.9A1444.3,1444.3,0,0,0,146,680.9C172.2,704.3,199.1,726.8,226.3,750.3Z" transform="translate(171.8 339.5)" fill="#fef200"/><path d="M226.3,774.8c-28.5-24.5-56.6-48.1-84-72.6a1510.8,1510.8,0,0,1-164.8-172c-45.3-55.6-84.8-115-115.7-179.8a564.4,564.4,0,0,1-29.2-75.4,38.6,38.6,0,0,1-1.5-11c-.3-32-.3-64-.5-96q-.7-104.2-1.5-208.4c-.2-19.5-.5-39-.8-58.5,0-2.5,0-4.9,0-8,2.7-.2,4.8-.5,7-.6,22.2-.6,44.5-.2,66.7-1.8C-31.8-114,31.7-129.4,90-162.2c67.4-38,110.9-94.8,132.4-168.9l2.4-8.4a55.4,55.4,0,0,1,2.9,5.9c3,8.7,5.7,17.6,8.8,26.3,23.4,66.2,67.1,115,127.9,149,38.5,21.5,80.1,34.7,123.1,43.4,35.4,7.2,71.3,9.7,107.3,10h28c.2,2.1.4,3.5.4,5q-1,156.3-2,312.7c-.1,18-.2,36-.6,54a46.2,46.2,0,0,1-2,12.4c-22.2,72.2-59,137-102.4,198.2-38.4,54.2-81.7,104.3-128,151.8A1740.6,1740.6,0,0,1,239.2,764.8C235.1,768.1,230.9,771.2,226.3,774.8ZM21.9,184.9C40,68.6,131.4,14.7,202.1,8c47.6-4.5,91.9,5.7,132.1,32,52.2,34.3,80.8,83.7,90.5,144.2,8.2,1.8,147.4,1.5,153.1-.1,1.7-8.3,1.3-254.3-.6-259.9l-7.3-.5c-21.7-1.2-43.4-1.8-65.1-3.8a385.5,385.5,0,0,1-140.2-40.6C309.5-148.9,264-188.1,229.6-239.8c-1.2-1.8-2.6-3.5-4.4-6l-5.5,7.6c-6.7,9-12.9,18.5-20.3,26.9C131.3-133.2,44.4-92.1-57.8-81.9c-19.9,2-39.9,2.2-59.9,3.2l-7,.4c-1.6,10.2-1.2,257.4.5,263.3Zm383.5-.7C396.7,95.6,316.3,26.2,226.8,24.7,118.9,22.9,47.5,109.5,40.7,184.4,47.6,185.9,399.4,185.8,405.4,184.3ZM298.8,557.9c5.1,29.5,9.8,59.2,15.5,89.1C333.6,634,420.8,545.4,431.9,527.5,379.3,418.6,328.4,308.5,274,200a35.6,35.6,0,0,0,2.1,9.3q21.1,62,42.1,124,14.5,42.9,28.5,86c1,3.1,3.5,6.3.4,11.1-1.6-1.9-2.9-3-3.6-4.4a108.7,108.7,0,0,1-4.2-10.4L294.4,285.3q-13.4-38.9-26.9-77.9c-1-2.8-1.4-6-5.3-9.2,1,4,1.6,6.4,2.3,8.7q33.6,117.7,67.1,235.3c3.2,11.3,6,22.7,9,34,.6,2.1,1.5,4.4-2.6,5.7a60.5,60.5,0,0,1-2.9-6.4q-3.4-10.3-6.4-20.8L261.2,222.5c-2.1-7.4-4.4-14.7-6.6-22l-1.4.3c5.1,27.1,10.1,54.1,15.2,81.2s10.7,54.8,15.9,82.3,10.9,54,15.3,81c-3.9,1.8-5.9.9-6.9-2a35.5,35.5,0,0,1-1.3-5.1l-41-211.1c-1.8-9.3-3.7-18.5-5.6-28h-8c5.2,30.3,10.4,60,15.5,89.6s10.2,60,15.4,90S278,438.3,283.1,468M171.4,199.3l-1.8-1c-1.4,1.5-3,2.9-4,4.6-3,5.2-6,10.4-8.7,15.7Q122,287.9,87.2,357.2q-37.6,75-75.1,150.1c-1.9,3.8-3,6.6.4,10.7a1289.2,1289.2,0,0,0,111.9,116,52.3,52.3,0,0,0,4.7,3.4l74.8-433.4a24,24,0,0,0,.2-3.7c0-.2-.2-.4-.3-.6l-.6-.6c-5.8-1.2-4.9,4-5.5,6.7q-23.6,100.9-47,201.9c-3.2,13.8-6.7,27.6-10.1,41.4-.6,2.3-.8,4.9-4.1,5.9-2.6-3.7-1.4-7.5-.8-10.9,1.4-7.9,3-15.7,4.8-23.5q24.8-106.9,49.7-213.8c.5-2.3.8-4.7,1.2-7l-1.5-.5c-1,2.6-2.2,5.2-3,7.9q-33,106.2-66,212.3c-5.8,18.6-11.9,37.1-18,55.5-.8,2.6-.8,6.1-4.8,7.1-3-3.2-.7-6.4.1-9.1q10.6-36.3,21.6-72.5,28.9-95,58-189.9c.5-1.6.8-3.4,1.1-5a16.6,16.6,0,0,0-3.6,5.9q-34.7,86.5-69.4,173.1c-5.5,13.7-11.3,27.2-17.1,40.8-1,2.3-1.4,5.4-5.3,5.7-2-4.1.4-7.5,1.6-10.7q19.5-50.3,39.2-100.5,22.3-56.5,44.7-112.8C169.9,204.2,170.6,201.8,171.4,199.3Zm178.7,14.8-.9,1.2,189,162.1c12-15,45.7-87.1,47.8-102.2q-109.8-35.4-220.6-68.6a31.2,31.2,0,0,0,6.7,4.2l48.3,24,68.3,34.2a72.3,72.3,0,0,1,9.5,5.9,3.3,3.3,0,0,1,.6,3.2,3.4,3.4,0,0,1-3,1.3,52.5,52.5,0,0,1-7.6-3.2L382.7,224.3l-6.8-3.1a15.7,15.7,0,0,0,5.5,5.5L445,270.3q23.5,16.2,46.7,32.6a44.4,44.4,0,0,1,6.7,5.9c.5.6.3,2.3-.2,3.3s-1.9.7-2.6.4a48.6,48.6,0,0,1-5.7-3.5L356.7,218.3C354.6,216.8,352.3,215.5,350.1,214.1ZM-89.2,369.5,95,199.5c-6.2-2.1-9.9.8-13.3,3.3q-25.6,18.9-51.1,38l-82,61.8a44.7,44.7,0,0,1-5.6,3.7c-.7.4-2.4.2-2.6-.3a3.9,3.9,0,0,1-.2-3.2,20.6,20.6,0,0,1,4.1-4.3c5.4-4.4,10.8-8.9,16.4-13.1l100.6-77c2.2-1.7,4.3-3.5,6.5-5.3a23,23,0,0,0-7.8,2.9l-98,53.4-6,3.1c-2.2,1-3.8.5-4.7-2.4,3.2-4.5,8.4-6.6,13.1-9.3,28.1-15.7,56.3-31.3,84.5-46.9,2.3-1.3,4.6-2.7,8-4.8-5.2-.9-9-.7-12.7.9-5.9,2.6-11.9,5.1-17.9,7.6l-150.6,63.1c-3.3,1.4-6.6,3.1-9.7,4.6C-129.9,292.6-97.9,359.9-89.2,369.5Z" transform="translate(171.8 339.5)"/><path d="M-20.6,73.1l9-16.6,9.5,5.1L3.9,50.7q4.8-9,11.5-11.2T30,41.7Q38,46,40,53.4T36.5,70.7l-4.9,9.1L42,85.4,33,102Zm41.3.8L23,69.9q2.6-4.8,2-7.6A6.1,6.1,0,0,0,21.7,58a6.8,6.8,0,0,0-5.2-.6q-2.7.7-5.2,5.4L8.8,67.5Z" transform="translate(171.8 339.5)"/><path d="M75.1,44,33.9-.8,57-22q6.4-5.9,10.8-7.9a14.2,14.2,0,0,1,9.2-.9,16.8,16.8,0,0,1,8.7,5.3,16.9,16.9,0,0,1,4.3,7.9,16.9,16.9,0,0,1-.3,8.4,22.7,22.7,0,0,1-3.2,6.2,18.8,18.8,0,0,1,5.1-1.7,19,19,0,0,1,4.4.3,23.9,23.9,0,0,1,4.5,1l18.6,6.8L103.5,17.9,83.5,11a14.2,14.2,0,0,0-5.7-1.2A7.9,7.9,0,0,0,73.5,12l-1.2,1.1L89,31.3ZM64.5,4.6,70.3-.7a28.4,28.4,0,0,0,3.1-4,5,5,0,0,0,1-3.5,5.6,5.6,0,0,0-1.5-3.4,5.6,5.6,0,0,0-4.4-2.1q-2.4.1-6.2,3.6L56.1-4.5Z" transform="translate(171.8 339.5)"/><path d="M115.9-22.2q-4.3-14.3,1.3-24.6t19.7-14.6q14.5-4.4,24.8,1.1t14.5,19.5q3.1,10.2,1.6,17.8a25.6,25.6,0,0,1-6.9,13.2q-5.4,5.6-15.1,8.5T138.5.3A25.6,25.6,0,0,1,125-6.4Q118.9-12,115.9-22.2Zm16.3-53.6L146.1-80l-9.3,15.7-7.7,2.3Zm1.7,48.2q2.7,8.8,7.1,11.7a11.6,11.6,0,0,0,10.1,1.2q5.8-1.7,7.8-6.5T158-35.7q-2.5-8.2-6.9-11a11.9,11.9,0,0,0-10.1-1.1,11.4,11.4,0,0,0-7.6,6.5Q131.2-36.5,133.9-27.6Z" transform="translate(171.8 339.5)"/><path d="M192.8-70.6l57.1.5v15l-19.2-.2-.4,45.8-18.8-.2.4-45.8-19.2-.2Z" transform="translate(171.8 339.5)"/><path d="M264.7-70.7l55.1,15.1-4,14.5-18.5-5.1L285.3-1.9l-18.1-5,12.1-44.2-18.5-5.1Z" transform="translate(171.8 339.5)"/><path d="M377-24.1l16,9.9-19,30.8a30.5,30.5,0,0,1-6.8,7.8,22,22,0,0,1-8.9,4.4,21,21,0,0,1-9.1.3,37.9,37.9,0,0,1-12.3-5.2,83.2,83.2,0,0,1-7.9-5.6,25.4,25.4,0,0,1-6.2-6.7,22,22,0,0,1-2.7-7.9,19.2,19.2,0,0,1,.3-8.1,36.4,36.4,0,0,1,3.9-9.7l19-30.8,16,9.9L339.8-3.4Q337.2.8,338,4.6a10.3,10.3,0,0,0,5,6.4,10.3,10.3,0,0,0,7.9,1.7q3.8-.9,6.5-5.2Z" transform="translate(171.8 339.5)"/><path d="M376.9,54.1l45-40.9L443,36.4q5.9,6.4,7.9,10.9a14.2,14.2,0,0,1,.9,9.2,16.8,16.8,0,0,1-5.4,8.7,16.3,16.3,0,0,1-16.3,3.9,22.8,22.8,0,0,1-6.2-3.3,18.8,18.8,0,0,1,1.6,5.1,19,19,0,0,1-.3,4.4,24,24,0,0,1-1,4.5l-6.9,18.6L402.9,82.7l7-19.9a14.2,14.2,0,0,0,1.2-5.7,7.9,7.9,0,0,0-2.1-4.4l-1.1-1.2L389.6,68.1Zm39.5-10.4,5.3,5.9a28.3,28.3,0,0,0,4,3.1,5,5,0,0,0,3.5,1,6.2,6.2,0,0,0,5.5-5.9q-.1-2.4-3.6-6.2l-5.6-6.1Z" transform="translate(171.8 339.5)"/></svg>