<svg xmlns="http://www.w3.org/2000/svg" viewBox="0 0 257.2 406.4"><title>thorth</title><path d="M122.7,219c1.5,10.5,2.5,1.4,2.5-16.4-1.5-1.6-6.4-8.5-9.6-12.4,2.3,9.4,4.5,15.9,6.7,26.6.1.7.3,1.5.4,2.2" transform="translate(-74.9 -0.3)" fill="#0b6528"/><path d="M151.8,354.1c.9.3,24.7.3,36.8.3.7-5.2.1-11.7.3-17.4-15.1-.9-32.3.3-47.4-.6l10.2,17.7" transform="translate(-74.9 -0.3)" fill="#0b6528"/><path d="M248.8,371.5H162.1l10.4,18c9.3,1.7,20.7,1,31.1,1,12,0,24.5,1.8,35-1,3.6-6.3,6.7-11.8,10.4-18h-.2" transform="translate(-74.9 -0.3)" fill="#0b6528"/><path d="M248.8,371.5h0" transform="translate(-74.9 -0.3)" fill="#0b6528"/><path d="M269.1,336.6c-14.9,0-31.4-.4-47.1.3-.7,5.2-.1,11.7-.3,17.4,11.5.9,25.9,0,37.2-.2Z" transform="translate(-74.9 -0.3)" fill="#0b6528"/><path d="M295.3,190.2c-5.9,8.2-6.2,8.7-10.6,14.2,2,1.1,4,3.2,6.2,4.1,1-5.6,3.1-12.9,4.4-18.3" transform="translate(-74.9 -0.3)" fill="#0b6528"/><path d="M221.8,319.5c13.6,0,28.3.5,42.7.5,4.8,0,11.5-.3,14.5-.4,10.7-19.1,0,0,32.9-57-13.7,8.9-28.3,19.3-42.1,27.2,3.6-14.4,7.5-29.7,11.2-44-7.4-.9-13.9-2.4-21.2-3.5-7.6,11.9-16,24.7-24.3,35.9-2.5-13-5.3-26.2-8-39-.4-1.7-3.8,0-5.5-.2-.7,26.1,0,53.9-.2,80.5" transform="translate(-74.9 -0.3)" fill="#0b6528"/><path d="M213.6,171.5c-.4-.1-5.3.4-7.9.4s-8.3-2.1-8.7.2c-2.8,13.7-.1.1-3.1,15.1,7.3-.7,16-.6,23.4-1-3.8-14.8.2.6-3.8-14.8" transform="translate(-74.9 -0.3)" fill="#0b6528"/><path d="M188.6,319.2c.7-26,.1-53.3.3-79.8l-6.4.3c-1.7,12.3-5.1,25.7-7.6,38.2-7.9-11.1-15.5-22.8-23.1-34.1-5.7,4.4-20.9,7.7-20.7,8.3.6,2.1,2.1,7.3,2.8,9.9,2.4,9.4,5,19.6,7,28.1L99,262.7l32.7,56.6Z" transform="translate(-74.9 -0.3)" fill="#0b6528"/><path d="M208.5,148.4c-.4-.2-2.2-12-3.1-16l-4.6,22.1c-1.1,4.7,1.3,6.8,2.4,8.9,2-4.7,3.3-10.2,5.2-15" transform="translate(-74.9 -0.3)" fill="#0b6528"/><path d="M186.8,70.7c8.3,3.8,20.2,2.3,31.2,3,1.6-2,5.5-1.8,8.6-2.4,2.8-2.2,1.4-10,1.8-16.8.7-9.5.5-20.8.9-29.7C221.7,33.5,215,43.1,207.6,52c-7.2-9.1-13.3-19.3-20.5-28.4.1,15.2-1.1,32.2-.3,47.1M248.9,12c-.9,13.3-1.8,31.4-1.8,47.7,0,4.5-1.1,10.9,0,13.1s6.6,1.5,6.4,5.8-9.8,3-14.7,2.4l-8.6-.9c-2.8-.3-6.2-1.4-8.3-.9s-11.2,12-13.8,15H198.1c-2.4,0,0,0-11.9-15.6l-15,1.2c-3.7.3-11.8,1.7-11.3-3.7s5.1-2,7-4.6.5-6.1.6-8.9c.7-15.4,1-37.1.9-51.7-2.3-2.2-9.9-3.4-6.1-8.6,1.5-2,12.9-2,16.8-2.1a42.2,42.2,0,0,1,6.7.3c4.5,1.4,8.8,9.9,11.6,13.8l8,11.3c2.8,4,2.3,4.4,5.5.3,5-6.5,9-11.4,14.1-17.7,2-2.6,3.7-5.6,6.1-6.4s7,.1,11.9.3S256,1.1,255.9,6.5s-4.1,3.2-7,5.5" transform="translate(-74.9 -0.3)" fill="#262324"/><path d="M86.8,25.1c-4.3.1-11.5,3.3-11.9-1.8s8.3-5.7,12.6-7c6.2-1.9,10.4-3.8,15.6-4,3.9,3.1,4.1,9.1,5.2,14.4,2.3,10.8,4.6,20.2,7,31.8,1,4.9,1,12.5,5.2,14.1s12-.5,13.7-3.7-.8-11.3-1.8-15.9c-2.4-10.7-4.5-20.6-6.7-31.2-1.1-5.1-4-13.9-.9-15.3,6.5-1.2,16.2-3.7,21.4-4,3.1-.2,5.3.3,5.8,2.1,1.7,6.1-6.6,4.6-8,7.7s1.6,9.7,2.4,13.5,2.2,9.6,3.1,13.4c2.1,8.7,5,18.6,4.9,27.8-.1,6.5-3,12.2-7.6,15s-10.1,2.8-15.9,4c-8.3,1.7-18.3,6.8-25.4,1.2S96.7,66.7,94.8,57.5c-1.2-5.7-2.2-11.4-3.4-16.8s-1.7-11-4.6-15.6" transform="translate(-74.9 -0.3)" fill="#262324"/><path d="M289.2,42.2c4,.9,7.6,3.1,11.3,2.8s6.1-5.5,10.7-3.7c2.1,5.2-.1,11.4-1.9,17.4-.8,3-2.4,8.6-5.2,8.9-4.6.5-3.8-5.5-5.8-8.3s-7.5-2.1-11.9-4c-2.1,6.8-2.6,11-4.3,18.3-.5,2-1.6,4.5-1.2,6.1,1,3.9,14.1,3,9.8,9.5-1.7,2.5-6.7.4-9.2-.3s-6.3-1.7-9.2-2.4c-6.6-1.6-16.9-1.7-17.1-6.4s4.4-2.7,7.6-4,4-9.9,4.9-13.8c3.1-13.4,5.6-25,8.6-37.9.6-2.8,1.9-6.1,1.5-7.6-.8-3.6-8-2.5-8.2-6.7a3.5,3.5,0,0,1,3.1-3.7c6.3-.3,10.8,2.1,15.9,3.4a195,195,0,0,1,30.9,10.1c5.3,2.3,11.8,4.6,12.5,9.2s-1.9,7.9-3.4,11-3,8.6-6.7,7.7-1.8-11-3.1-14.1a18.8,18.8,0,0,0-5.5-6.4c-3.3-2.2-12.5-6.2-17.7-4.3s-3.5,14-6.4,19.2" transform="translate(-74.9 -0.3)" fill="#262324"/><polygon points="97.5 389.3 163.6 389.3 153.5 406.4 108 406.4 97.5 389.3" fill="#262324"/><path d="M279.1,136.1c5.6-3,7.7-14.4,3.7-19.6-2.7-3.5-9.2-4.5-15-5.2-2.3,7.5-3.6,16-5.2,24.2,6.5.3,11.5,3.3,16.5.6m3.7,11.3c4,8.7,5,22.3,10.1,29.4,1.9,2.7,9.6,4.4,7.9,8.8s-15.2-1.7-17.4-2.4c-4.8-1.6-16.9-2.4-15-7.9.8-2.4,4.4-1.4,6.7-3.4-1.8-9.1-4.9-16.9-7-25.7a63.2,63.2,0,0,1-7-1.2c-1.5,3.6-1.6,7.1-2.4,11s-3.1,7.6-2.1,11.3,10.3,4.2,5.8,8.9c-2.7,2.8-14.7-.7-18-1.2-5.8-.8-16-.4-14.1-6.7,1-3.2,4.8-1,7.7-1.8s3.7-9.1,4.6-13.5c2.7-13.1,5-24.3,7.6-37.6.5-2.6,1.6-6.1,1.2-7.7-.9-3.9-7.9-2.2-7-7.6a3.4,3.4,0,0,1,3.6-2.7c9.4,1,18.1,3.5,28.1,5.5s18.7,3.7,23.5,10.1,1.9,24.1-4.3,29.7c-3,2.7-6.7,3.6-12.5,4.9" transform="translate(-74.9 -0.3)" fill="#262324"/><path d="M217.4,117.1c-6.6-4-21.9-3.5-29.1-.3,3.3,8.4,6.3,18.3,9.2,26.9,1.1,3.2,4.7,15,5.8,17.1,2-4.7,11.3-34.2,14.1-43.7m-28.4,55q-9.8-30.9-19.6-61.8c8.6-6.8,22.3-11.8,37.6-10.7,12,.9,22.6,6.4,30,11.3-6.4,20.4-13.1,40.5-19.3,61.2-27.4.3-26.7,0-28.7,0" transform="translate(-74.9 -0.3)" fill="#262324"/><path d="M149.2,146.2c6-4.1,1.6-18.7-3.1-20.8-2.8-1.3-6.2-.2-9.5.9,1.7,7.7,3.2,15.5,5.8,22.3,2.8-1.6,4.5-.9,6.7-2.4m-16.5-37.3c0,3.2,1.1,5.2,1.5,7.9,7.9-1.8,18.7-6.6,25.7-1.2,4.9,3.8,8.8,15.5,8.6,24.2-.4,12.8-13.3,15.1-23.9,18,.8,3.6.9,7.9,3.4,9.8,4.2.7,8.2-.4,7.6,4.3s-11,4.6-16.8,5.8-16,5.2-16.8,0,4.5-3.6,5.8-6.4-1.9-11.3-2.8-14.7c-3.6-14.2-7-29.6-11.3-42.5-3.7-.6-7.7.2-8.2-3.1s6.8-5.7,12.2-7.3,11.5-3.9,15.3-4.3,5.8.9,5.8,3.4-4.2,3-6.1,6.1" transform="translate(-74.9 -0.3)" fill="#262324"/><path d="M129.9,252.3c9.1-1,16.3-3.8,22-8.3s18.6-4,29.6-4.3l7-.3v79.8H131.8L141.9,337h46.7v17.1H151.8l10.2,17.4h86.9L259,354.1H222.1s.1-16.8.1-17.1h46.7l10.3-17.7h-57V245c.1-2,.1-3.9.1-5.9,1.7.2-.3-.1,5.5.3,11.6.1,21.4,2.1,31.5,3.7,7.3,1.1,14.3,2.4,21.7,3.4,9.4.8,11.8-6.9,13.8-15.6s3.3-22.2-3.1-24.5a62.6,62.6,0,0,0-6.4-2.7c-17.7-5.5-39.2-8.3-62.1-9.2.4-5.1-1.6-7.8-5.8-8.3-7.4-1.1-16-.4-23.2.3-1.2.4-2.8.5-3.7,1.2s-1.4,4.4-1.9,6.7c-14.4.8-29.2,1.1-40.6,4.9-4.4-6.7-19.1-5.6-25.4-1.2v53.2c1.3,1.5,4.7.8,7.3.9" transform="translate(-74.9 -0.3)" fill="#262324"/></svg>